<?xml version="1.0" encoding="UTF-8" standalone="no"?>
<!-- Generator: Gravit.io -->
<svg xmlns="http://www.w3.org/2000/svg" xmlns:xlink="http://www.w3.org/1999/xlink" style="isolation:isolate" viewBox="0 0 1000 1000" width="1000pt" height="1000pt"><defs><clipPath id="_clipPath_UoXJuMRikhk5MRfkJcTMNUuvye1d4xYB"><rect width="1000" height="1000"/></clipPath></defs><g clip-path="url(#_clipPath_UoXJuMRikhk5MRfkJcTMNUuvye1d4xYB)"><path d=" M 0 0 L 840 0 C 928.366 0 1000 71.634 1000 160 L 1000 840 C 1000 928.366 928.366 1000 840 1000 L 160 1000 C 71.634 1000 0 928.366 0 840 L 0 0 L 0 0 Z " fill="rgb(16,24,40)"/><path d=" M 358.1 920 C 293.87 919.94 254.24 883.77 255 817.21 C 255 817.21 255 648.82 255 648.82 C 255 615.08 264.88 589.42 284.64 571.86 C 320.13 537.67 402.47 535.59 437.23 572.38 C 458.65 591.27 466.73 629.86 464.81 665.87 L 391.09 665.87 C 391.65 651.72 390.9 630.29 382.58 622.22 C 371.77 607.59 343.22 609.31 335.67 624.54 C 331.03 632.8 328.71 645.03 328.71 661.21 L 328.71 807.39 C 328.71 838.04 339.36 853.54 360.67 853.88 C 370.63 853.88 378.2 850.26 383.35 843.03 C 390.54 834.45 391.66 815.45 391.08 801.71 L 464.8 801.71 C 469.84 871.78 428.48 920.87 358.09 920 L 358.1 920 Z  M 592.14 920 C 520.97 920.98 489.13 870.34 491.1 801.71 L 560.69 801.71 C 558.76 831.63 569.04 858.88 593.68 856.98 C 604.67 856.98 612.41 853.54 616.88 846.65 C 625.38 834.06 626.97 797.7 614.82 783.63 C 606.33 770.08 575.79 758.12 559.66 750.06 C 536.63 739.04 520.05 725.96 509.91 710.8 C 487.04 677.16 489.16 603.32 521.25 573.4 C 552.43 536.48 633.86 534.78 665.07 572.63 C 684.32 592.14 692.73 630.53 691.1 665.86 L 624.08 665.86 C 624.65 651.34 623.28 627.91 617.64 619.37 C 613.69 612.14 606.21 608.52 595.22 608.52 C 575.63 608.52 565.84 620.23 565.84 643.64 C 566.05 668.5 575.74 678.7 598.32 689.09 C 627.56 700.45 664.74 719.85 678.22 743.33 C 718.42 814.87 690.84 924.15 592.13 919.98 L 592.14 920 Z  M 816.9 920 C 745.73 920.98 713.89 870.34 715.86 801.71 L 785.45 801.71 C 783.52 831.63 793.8 858.88 818.44 856.98 C 829.43 856.98 837.17 853.54 841.64 846.65 C 850.14 834.06 851.73 797.7 839.58 783.63 C 831.09 770.08 800.55 758.12 784.42 750.06 C 761.39 739.04 744.81 725.96 734.67 710.8 C 711.8 677.16 713.92 603.32 746.01 573.4 C 777.19 536.48 858.62 534.78 889.83 572.63 C 909.08 592.14 917.49 630.53 915.86 665.86 L 848.84 665.86 C 849.41 651.34 848.04 627.91 842.4 619.37 C 838.45 612.14 830.97 608.52 819.98 608.52 C 800.39 608.52 790.6 620.23 790.6 643.64 C 790.81 668.5 800.5 678.7 823.08 689.09 C 852.32 700.45 889.5 719.85 902.98 743.33 C 943.18 814.87 915.6 924.15 816.89 919.98 L 816.9 920 Z " fill="rgb(243,244,246)"/></g></svg>