<svg id="Layer_1" xmlns="http://www.w3.org/2000/svg" viewBox="0 0 293 293" width="2500" height="2500"><style>.st0{opacity:.9}.st1,.st2{fill:#151515}.st2{opacity:.9}</style><g class="st0"><path class="st1" d="M160.8 60.2s.3-1.1 1.2-1.1c.9 0 3.3-.5 4 0 .7.5.4 2-.4 2-.9 0-5.2-.2-4.8-.9zM185.4 57.1s4.6 2.3 8.1 3.1c.6.1 1.2-.1 1.6-.5.8-.9 1.9-2.6.8-3.1-1.6-.8-4.2-2.6-8.3-1.5-4.2 1.1-2.8 1.8-2.2 2zM56.8 120.3s-2.4.1-2-2.7 3.6-6.2 5.5-7.5c1.9-1.3 2.9-2.3 2.9-4.3s2.9-3.6 3.6-4.6c.7-1 3.3-2.3 2.9-.6-.4 1.7-1.4 2.4-1.4 4.6s.4 3.7 1.5 1.4c1.1-2.3 7.9-13 14.8-18.6 6.9-5.6 16.1-11.8 17.3-12 1.2-.1 1.9.6 1.9 1.9s-3.3 2.6-4.9 4c-1.6 1.4-21.2 16.9-26.8 28.8 0 0-2 2.8-3.9 4.4-1.9 1.6-2.2 3.9-4.8 6.5-2.6 2.6-2.5 5.3-3.8 5.7-1.3.4-3-1.2-2-4.6s4.1-5.5 6.3-8 3-4.7 2.4-4.7c-.5 0-3.8.7-4.7 3.2-.8 2.6-.9 3.6-2 4.6-1.3 1.2-2.1 2.6-2.8 2.5zM105.2 74.5c-.5.2-.8.7-.9 1.2 0 .3 0 .6.2.9.6.8 2 .2 3-.7.9-.9 6.8-4.4 6.8-4.4s-6.5 1.6-9.1 3z"/><path class="st1" d="M63 131.8s-.9 1.4-2.2 0c-1.3-1.4.4-4.3 2.6-6.3 2.1-2 8.5-12 10.2-14.8 1.7-2.8 8.7-11.4 15.3-16.7s18.4-14.8 24.4-18.2c6-3.4 14.2-7.9 22.9-9.6s26.6-.3 48.5 13.3c0 0 1 2.3-1.3 3.4 0 0-22.4-14-41.8-13.3s-35.2 13.6-49.3 26-12.5 13.8-14.3 16-7.5 10.1-8.5 11.5-4.2 7-6.5 8.7zM190.3 68.1c-24-9.3-39.4-7-43.9-6-.6.1-.7 1-.1 1.3.8.3 2 .5 3.9.7 5.2.5 9.9 1.6 13.3 1.5 3.5-.1 12.1.9 17.3 2.9 5.2 1.9 7.4 2.8 7.4 2.8s1.1.1 1.9-1.2c1-1.3.2-2 .2-2z"/><path class="st1" d="M187.8 73.4s.9 3.2-2.1 3.4c-3 .2-15.2-7.2-19.9-7.7-4.7-.6-1.5-3.5 4.6-1.8 6 1.6 17.4 6.1 17.4 6.1zM171.4 58.2c-.6.2-.6 1 0 1.3 1.4.6 3.6 1.4 5.3 1.6 2.8.2 10.4 2.6 14 4.5 2.3 1.2 3.5-3 2-3.5-2.7-1-9.5-3.6-11.6-4.1-1.9-.5-6.9-.8-9.7.2zM129.9 76.9c32.3-4.4 49.1 11.4 51.2 11 2-.4 1.5-2.7 1.5-2.7-8.1-6.8-27.9-14.8-46.3-12.5s-28.3 14.4-32 16.6-6.7 6.9-9.6 9.7-7.1 3.7-8.3 4.7c-1.2 1-18.1 26-20.3 28.7s-2.8 5.2-.9 6.2c1.9 1.1 3.1-2.2 3.1-2.2s8.9-14.6 10.9-16.9c2-2.3 8.5-12.4 9.8-14 1.3-1.6 2.8-1.3 2.3 0S80.5 121.7 78.6 124c-2 2.3-10.2 13.7-10.7 17.8-.5 4 2.5 4.8 4.8-.6 2.3-5.4 5.8-13 7.2-14.5 1.5-1.5 6.5-7.2 7.8-9.8s7-13 11.5-18c4.5-4.9 11-10.3 14.9-13 3.9-2.7 6.9-4.2 8.4-4.9s4.1-3.7 7.4-4.1z"/><path class="st1" d="M94.4 109.4s7.8-11.8 16.1-17.5 13.1-9.7 15.7-10.7c2.6-1 11.5-5.6 31.7-1s22.6 11.2 21.7 12.5c-1 1.3-4.1-.7-8.7-3.2s-13.3-6.4-20.3-6.2c-7 .2-20.8 5-21.7 5.8-.9.9-1-1.6 1.4-2.1s3.9-2.4 5.4-2.6c1.5-.2 3.7-.7 3.7-1.9s-5-1-7.5 0-12.2 6.5-14 7.5c-1.8 1-4.2 1.7-4.6 3.2s-3.4 5-4.9 5.8c-1.5.8-9 6.7-9.8 8.1-.8 1.4-1.8 2.5-4.2 2.3z"/><path class="st1" d="M109.9 100.1s1 1.5 5.2-1.7 4.7-3.9 5.1-3.9c.4 0-.7-1.6-1.5-.9-.9.7-8.7 5.1-8.8 6.5zM121.5 97.5s-1.2-.3 1.1-2c2.3-1.6 17.4-10.7 28.3-10.1 10.9.6 23.5 7 25.7 8.9 2.2 1.9.6 5.7 0 5.5-.6-.3-14.2-10.5-23.6-10.8s-18.9 3.3-22.8 5.8c-4 2.4-5.3 3.4-8.7 2.7z"/><path class="st1" d="M133.7 96.9c-.5-.1-.6-.8-.2-1.1 2.8-1.9 11.2-6.7 22.1-4.3 13.5 2.9 19.1 9.3 19.4 10.8.3 1.5-.2 5-2.2 4.3-2-.7-8.5-10.6-19-11.5-10.1-.9-12.4 3.6-20.1 1.8z"/><path class="st1" d="M147.6 99.3l-1.2-.4c-.2-.1-.1-.3 0-.3 1.7-.4 7.4-1.5 12.6.4 4.6 1.7 8.2 5.1 9.8 6.7.2.2 0 .6-.3.5l-20.9-6.9zM74.8 150.3s-.6 1.9-2.3.5c-1.6-1.4-.6-3.6 0-5.2.6-1.5 5.2-11 6.3-12.1 1.1-1.1 5.2-6 5.2-7.1.1-1.1 1.1 3.1-3.1 9.5-4 6.4-2.4 8.1-6.1 14.4zM78.4 156.6s-.6 1.3-1.7 0-.1-4.4 1.2-7.5c1.3-3.1 3.1-10.1 4-11.5.9-1.4 1 1.7 1 2.6 0 .9.3 5.8-1.4 10-1.6 4.2-3.1 6.4-3.1 6.4zM83.6 162.7s-1.2 2-2.7-.4-.5-4.5 0-5.4c.5-.9 1.2-3.8 1.6-4.3s.9.7 1.1 2.2c.3 1.5 1.1 3.2 1.1 3.9s-.2 3-1.1 4zM86.5 165.1s-.5-1.4-.8-1.6-1.3 1.1-1.4 2.1c-.1 1 1 1.4 1.1 2.3s.9-.2 1.1-1.2c.2-.9 0-1.6 0-1.6zM89.6 135.1s1.2-8.5 7-15.3c5.8-6.8 8.5-7.9 8.5-7.9s.8-.2.4 1.4c-.3 1.5-3.4 5.3-3.9 6.4-.4 1.1-4.1 4.7-4.1 5.3 0 .6 1.6.1 1.8.4.3.3.9.7 0 2.8-.9 2.1-4.4 9.5-4.5 11.1s-5.3 13.6-5.8 13.6-1.6-.1-1.5-3.8c.2-3.7 5.6-17.6 7.1-19.9 1.5-2.3 1.6-2.3 1-2.2-.6.1-4.3 4.1-4.8 6.9s-1.2 1.2-1.2 1.2zM103.6 134.2s-1.4 3.3-4.3 3.1 1.5-7.5 2.2-10.6c.7-3.2 6.1-15 7.2-16 1.1-1 4.1-2.2 4.6-1.2.4 1-1.6 2.4-2.7 4.6-1 2.1-4.5 8.4-4.8 10.6s-2.2 9.5-2.2 9.5z"/><path class="st1" d="M100.8 141.2s.7-1.7-1.2-2.5-2-.2-2.9 1.3-6.7 15.5-6.7 17.6.6 6 1.3 6.6c.6.6 1.4-.5 1.4-2s1.1-3.6 2.2-5 1.6-3.4 1.2-5.8c-.4-2.4 3.4-6.3 3.4-6.3s0 6-.4 8.4c-.4 2.5-3 4.5-3.6 5.6-.6 1.1-.9 5.4-1.4 6.7-.5 1.3-.6 3.6-.3 4.9.3 1.3 1.1 4.5 1.6 2.2s2.3-9.1 2.8-9 .4 7.5.1 9c-.3 1.5-.7 8.8-.7 9.7 0 .9-2.7 5-3.2 6.5-.6 1.6-3.5 7-3.5 7.3s3 0 4.9-1.5c1.8-1.5 2.4-3.8 2.4-5s-.2-4.1.5-5.8c.6-1.7 2.5-5.7 2.8-7.3s.2-10 0-12.3c-.2-2.3.3-12 1-14s.8-3 1.3-3 .2 6.1 0 8c-.2 1.8-.7 8.1-.7 9 0 .9-1.7 10.8 3.5 22.4 0 0 .5 2.2 2.9.7 2.4-1.5-1.1-8.2-1.7-10.1s-2.6-11.8-1.9-13.2c.7-1.4 4.7 13.8 4.8 15.3.1 1.5.6 6.2 1.4 6.3s4.1-1.9 4.1-2.3c0-.4 0-1.5-.9-3s-5.7-13.8-6.6-24c-.9-10.2.7-27.6 1.5-29.4.9-1.8 4.5-10 5.4-11.3.9-1.4 3.5-6.7 4-6.9s1-.2 1 .4-1.5 4.3-2.2 6.1c-.6 1.7-3.8 6.8-4.4 8.5s-2.6 7.6-3.4 16.7c-.9 9 1.2 24.2 1.8 27.2s4.4 13.2 6.5 14.1c2.2.9 3.9-1.8 3.6-2.3-.3-.6-4.7-8.5-5.7-11.8-1-3.3-2.8-11.2-2.5-13 .3-1.8 2.6 15 10.5 23.8 0 0 1 .6 2.8-.6s1.7-2.2 0-4.1-7.5-13.1-8.3-16c-.8-2.9-4.3-12.5-4.5-12.8-.2-.3-.5-6.1.4-10.2.9-4.2 2.2-10.1 2.3-11.7s2.7-5.2 3.3-6c.6-.7 2-4.6 2.7-7.3s2.1-4.5.9-4.7c-1.2-.1-5.6.5-6.4 1.4-.8.8-4 2.8-10.8 18.3 0 0-1.9 3.6-1.9 5.7s-.6 5.2-2.4 7.6c-1.4 2.3-2.1 2.9-2.1 2.9z"/><path class="st1" d="M102.4 182.3s-1.7-.3-2.1 1.5c-.3 1.7-.2 4.7-.2 5.6-.1 1-1.3 3.5-1 3.7.3.2 2.6-.4 3.7-1.7 1.1-1.3 2.1-3.1 2.1-4.9 0-1.7-.6-4.2-2.5-4.2zM131.2 107.7s1.5-1.8 1.1-2.2c-.4-.4-2.6-1.7-3.4-.7-.9 1-4 6.4-4.8 9.4-.8 3-5.2 11.5-5.6 13.3-.4 1.8-1.4 8-.2 16.5 1.2 8.6 8.7 26.1 12 29.8 3.3 3.7 6.5 0 6.5 0l-2.5-2.9s-6.2-11.2-7-12.5c-.8-1.4-5.1-11.1-4.8-14.3.3-3.2 1-7.6-.1-11.8s3.9-14.5 4.7-16c.8-1.3 4.1-8.6 4.1-8.6z"/><path class="st1" d="M128.5 129.7s.1-2.7.9-4.7c.7-2 1.5-5.3 0-6.1-1.5-.7-4.1-.2-4.1 5.4 0 5.6-1.3 12 0 20.4 1.3 8.3 7.6 23.2 16 30.8 8.3 7.7 6.9 5 11 8.7 4.1 3.7 24.9 7.6 30.7 6.9s7.3-3.5 7.6-4.5c.3-1-.5-2.7-1.3-1.9-.8.7-5.1 4.7-19.2 1.6-14-3.1-17.8-6.6-18.6-7.3-.8-.7-8.7-8.8-9.6-9.6-.9-.9-10-13.2-10-15 0-1.7 11.8 20.7 27.5 26.7 15.7 6.1 21.5 5 24.5 4 3.1-1 6.1-1.9 6.1-3s-.1-3.2-1.1-3.2-6.9 3.5-9.7 3.2c-2.9-.3-6.9-2.1-10.7-2.1-3.8-.1-11.8-4.7-13.8-6.6s-12.6-7.3-22.8-29.2c-.1.1-3.9-11.2-3.4-14.5z"/><path class="st1" d="M156.1 188.2s-4.2-2.8-5-2.7c-.8.1-.7 1.5-.6 3 .1 1.5.7 3.1 1.7 3.3 1 .2 3.7-.4 4.3 0 .7.4 7.4 3.8 15.5 4.1 8.1.3 9.7.6 12 .4 2.3-.2 6.2-1.6 6.5-2.5.4-1 .1-3.7-.7-3.7-.7 0-1.7 4-17 2.2-15.1-2-16.7-4.1-16.7-4.1z"/><path class="st1" d="M158.1 194.4s-3.1-2.2-4-1.3c-1 .9-1.1 3.6 2 4.3 3.1.7 10.1 2.7 11.7 3 1.6.3 6 1 9.5 1 3.4 0 6.8-1.6 8.2-1.6s5.6 0 5.8-.9c.2-.9-.4-2.7-.5-3.1-.1-.4-1.3-.3-2.1.1s-5.7 2-8 2.2c-2.2.1-8.4.3-13.7-1-5.4-1.3-8.9-2.7-8.9-2.7z"/><path class="st1" d="M188.2 203.1s-6.4 4.4-24.2 1.6-13.2-9.8-12.8-9.5c.4.3 1.9 2.4 3 2.8s14.4 4.8 18.1 4.9c3.7.1 8.5-.1 10.6-.8 2.1-.7 4.9-2.5 6-1 1.1 1.3-.7 2-.7 2z"/><path class="st1" d="M153.5 203.3s-1.6-1.1-1.6 0 .9 2.9 2.6 3.7 2.7 1 4.5 1.1 4 .8 5.4 1.6c1.5.7 6.8 2.8 16 1.1s11.5-3.9 11.9-4.5c.4-.7.2-1.9 0-2.8-.2-1-.9-1.4-1.7-.6-.9.8-6.2 5.6-19.4 4.7-13.1-.8-17.7-4.3-17.7-4.3z"/><path class="st1" d="M162.5 210.5s-1.1-1.6-4.1-.8c-3 .7 7.7 6.5 8.3 7 .6.5 1.3.8 3.9.5 2.6-.3 10-.7 12.6-1.3 2.5-.6 7.8-2.1 9.4-4.1s1-3.3-.5-3.1c-1.5.2-10.7 5.9-19.9 5.1-9.2-.8-9.7-3.3-9.7-3.3z"/><path class="st1" d="M175.3 218.6s-4.5.1-4.3 1c.2.9 2.3 2.8 4.3 2.4s13.2-2.2 15.5-3.4c2.3-1.2 4.2-1.5 4.2-2.9s-.4-3-1.4-2.7c-1 .4-10.7 6.5-18.3 5.6zM184.2 222.6s-4.9 1.6-4.9 2.1c0 .6 2 2.8 3.6 2.7 1.6-.2 5.1-2.4 6.9-3 1.8-.6 6.1-1.2 6.3-2.4s-.3-3.3-.7-3.6c-.4-.3-1.4-.3-2.1 0-.7.4-7.5 4.1-9.1 4.2zM188.9 230.2s-1.6.9-3.5 0-1.2-2 .4-2.8c1.7-.8 4.6-1.9 5.7-2.4 1.2-.5 4.1-1.6 4.6-1.2.4.4 1.1 1.6 1 2 0 .5-8.2 4.4-8.2 4.4zM191.6 234.7s-3-1.6-3-2c0-.4 1.2-1.5 2.1-1.5.9 0 7-2.5 7-2.5s1.6 1.5 1.6 3-6.5 3.2-7.7 3zM199.3 238s-1.6.3-2.6 0c-.9-.3-2.1-1.6-2.5-1.6s.9-.8 1.9-.9c1-.1 2.7-.7 3.3-.8s1.4.7 1.4 1.7-1.5 1.6-1.5 1.6zM138.9 108.7s1.7-1.7 1.7-2c0-.3-3.1-2.2-4.6-1.9s-6.6 10.3-5 24.2c1.6 13.9 5.2 28.2 24.8 43.6 9.5 7.5 19.5 8 27.2 6.6 0 0 1.4-1.3-.6-1.4-2-.1-12.5-2-16-3.6s-11.1-8.9-12.3-9.4c-1.3-.5-10.2-9.8-10.4-10.9-.2-1.1-3.7-7.4-4.5-10.4-.8-3-2.8-15.6-3.4-18-.6-2.4-1.2-6.3-1-7.7.2-1.5 2.4-7.1 4.1-9.1z"/><path class="st1" d="M145.8 110.2s1.8-.5 1.9-1.1-.2-2-2.6-2.4c-2.4-.4-4.7 1.3-6.3 5.6-1.6 4.3-.9 13.4 1.2 19s.9 10.1 4.8 17.6c3.9 7.5 3.8 7.5 5.3 8.7 1.6 1.2 8.7 8.2 9.8 9.3 1.2 1.1 7.5 5.3 8.7 5.3s1.8-2 1.7-3c-.1-1-.2-1.5-1.9-1.6s-4.1-2.9-4.1-2.9-9.1-8.6-9.8-9-8.1-8.8-8.1-9.8.1-2.4.7-1.6c.6.8 4.9 7 7.7 9.6 2.8 2.6 11.7 10.1 13.8 11 2.1.9 3.1 1 3.3-.7.1-1.7 1.2-2.5 2.1-2s7.6 4.4 9.7 4.1 5.2-3.4 6.2-3.2-1.8 3.3-2.7 3.8c-.9.5.7 1.6 1 1.8.3.1 1.8 1 3.5-.4 1.6-1.4 1.8-3.3.7-5.8-1-2.6-1.4-6.7-1.7-7.5-.4-.8-.7-2-1.5 0s-2.3 6.1-7.5 6.3c-5.3.3-11-.4-17.4-4.7-6.4-4.2-14.1-10-20.1-27.1s1.6-19.3 1.6-19.3z"/><path class="st1" d="M188.4 146.6c-.4-.3-1.3-.1-1.6.3-.3.5-.7-1.8-.1-4s.1-5.5-.6-5.3-6.1 8.8-12.1 5.5c-5.9-3.3-13.5-12.7-15.6-16.9-2.1-4.1-4.7-9-4.3-11.8 0 0 .3-2.2.4-2.8.1-.6-1.2-3-2.8-2.4-1.6.6-5.5 2.8-6 4.4s-2.1 3.1-1.3 7.7 3.2 10.5 4.1 13.2 3.7 8.8 6.7 11.5c3 2.7 8.9 8 11.5 9.2 2.6 1.2 8.1 5.3 15.2 3.7 7-1.6 7.2-8.7 7.2-9.4 0-.5-.4-2.6-.7-2.9zm-31.2-2.1c-.3-.4-3.8-5.8-4.2-6.1-.4-.3 3.3 2.4 5.3 4.7 2 2.3 3.8 5 3.8 5.8 0 0-4.6-4-4.9-4.4zm21 8.4c-5.6-.2-7.7-2.7-9.2-3.6-1.5-1-5.4-5.9-8.7-9.3-3.3-3.4-5.9-6.3-7-8.4-1-2.1-4-12.4-4.3-13.6s1.6-2.2 1.6-1.6c-.1.6.4 3.2.4 3.2-.2 5 5.8 13.8 6.6 15.5.9 1.7 7.7 9.2 13.8 13.3 6.1 4.1 10.1 1.9 11.1 1.5 1.1-.4 2.1-.4 2.4 0 .3.4-1.1 3.2-6.7 3z"/><path class="st1" d="M185.4 132.8c-.9 0-2.9 2.4-3.2 1s1.4-4.4 1.4-7.2-.6-8.1-1.9-10.7c-1.3-2.7-2.6-4.9-4.9-3.5-2.3 1.4-1.1 2.5-.1 3.8s3.5 4.2 3.5 7.6c0 3.3-.5 7.8-1.8 8.1-1.3.3-4.4-.7-7.2-2.9-2.9-2.1-7.4-6.3-8.3-7.5-.9-1.3-2.7-4.3-2.2-4.8s1.3-.7 2.1.7c.7 1.4 4.7 5.5 5.7 6.5s4.1 3.9 5.3 4.7c1.2.8 2.7 2.2 3.8.4 1.2-1.8 1.3-6.1.4-7.7-.9-1.6-2.4-4.4-2.9-5.1-.5-.7-1.3-1.9-3-1.2s-1.6 2.1-1 2.6c.5.5 3.3 2.4 3.5 3.7.2 1.3.8 3.6-.2 2.5s-3.6-4.7-4.3-5.1c-.7-.5-5.5-3.4-5.5-3.4s-5.8-2.4-6.2-3c-.4-.6-1.6-.7-.7 2.7.9 3.5 1.5 7.5 4 10.6 2.4 3 2.4 4.1 3 5.6.5 1.5 5.5 8.9 11.9 10.5 6.4 1.6 8.7-5.8 9-6.4.2-.5.7-2.5-.2-2.5zm-6.1 4.5c-.2 1.5-3-.1-4.2 0-1.2.1-3.4-1.9-4.8-3.5s-2.5-3.3-2.1-3.5c.4-.2 2.2 2 4 3 1.8 1 4.2 2.4 5.8 2.2 1.6-.3 1.3 1.8 1.3 1.8zM193 168.9s-1.3 1.5-1.3 2.1.7.9.7 1.5.5.9 1.2.4.7-1.1.6-1.9c-.1-.8.1-2.4-1.2-2.1zM194.3 174.2s-1.3.8-1.3 1.8c.1 1-.2 1.8 0 2.5s1.3.8 1.6 0c.4-.8.9-1.3.5-2.3-.4-.8 0-2.7-.8-2zM195.3 183.9s-1.8 1.3-1.7.6c.1-.8.2-3.7.8-3.8.6-.1.6-1.3 1.6.5.9 1.7.3 2.1-.7 2.7zM196.8 186.2s.5-1.9-.9-.7-1.8.8-1.7 1.6.4 2.2 1.2 2c.6-.2 2 .1 1.4-2.9zM197.6 190.2s-2.3 1.1-2.1 2.4c.2 1.3 1.3 2.6 1.8 2.6s1.3-1.4 1-2.5.1-3-.7-2.5z"/></g><path class="st1" d="M146.5 20.7C77 20.7 20.7 77 20.7 146.5S77 272.3 146.5 272.3 272.3 216 272.3 146.5 216 20.7 146.5 20.7zm0 243.2C81.6 263.9 29 211.4 29 146.5S81.6 29 146.5 29s117.4 52.6 117.4 117.4-52.5 117.5-117.4 117.5z"/><path class="st2" d="M146.5 0C65.6 0 0 65.6 0 146.5S65.6 293 146.5 293 293 227.4 293 146.5 227.4 0 146.5 0zm0 279.3c-73.3 0-132.8-59.5-132.8-132.8S73.1 13.7 146.5 13.7s132.8 59.5 132.8 132.8-59.5 132.8-132.8 132.8z"/></svg>