<svg xmlns="http://www.w3.org/2000/svg" xml:space="preserve" width="149" height="42"><defs><clipPath id="a" clipPathUnits="userSpaceOnUse"><path d="M0 0h623.622v765.354H0Z"/></clipPath><clipPath id="b" clipPathUnits="userSpaceOnUse"><path d="m230.859 516.001-1.226-1.263c6.228 4.567 9.799 4.954 14.956 4.908.459-.05.918-.05 1.224.533l1.532 2.138c-7.197-.098-10.415-1.847-16.486-6.316"/></clipPath><clipPath id="d" clipPathUnits="userSpaceOnUse"><path d="M231.185 516.367c-.001-.01-.004-.019-.006-.029 5.93 5.427 10.968 7.877 15.332 8.401.406.486 1.753 2.29 2.159 2.874-9.859-1.642-14.385-8.176-17.485-11.246"/></clipPath><clipPath id="f" clipPathUnits="userSpaceOnUse"><path d="M231.162 516.341c-.078-.076-.278-.31-.465-.488a1.699 1.699 0 0 1-.171-.193c1.147.911 3.48 2.679 5.615 3.843 2.124 1.159 4.716 2.117 8.397 2.62.357.389 1.46 1.859 1.973 2.635-6.792-.972-11.264-4.772-15.349-8.417"/></clipPath><clipPath id="h" clipPathUnits="userSpaceOnUse"><path d="M244.128 521.637c-.203-.533.102-.291 1.023-.828.716-.434.561-.63.508-.872.664 1.019 1.94 2.429 1.94 2.429-.32.109-.662.154-1.003.154-1.183 0-2.349-.544-2.468-.883"/></clipPath><clipPath id="j" clipPathUnits="userSpaceOnUse"><path d="M251.023 528.244c-1.433-.147-2.299-.533-2.861-1.215l-1.914-2.64c.457.387 1.709.601 3.09.601h.353c.206 0 .411.048.612.048 1.993.046 4.698.34 6.333 2.234l2.375 3.283.263.37c-2.092-2.719-6.772-2.438-8.251-2.681"/></clipPath><clipPath id="l" clipPathUnits="userSpaceOnUse"><path d="M260.834 533.507c-2.085-1.827-4.321-1.927-6.242-2.201-.611-.1-1.988-.05-3.114-.78-1.175-.729-2.596-2.506-3.263-3.429.616.679 1.531.903 2.754 1.051 1.229.146 2.963.096 4.238.291 1.222.144 2.349.387 3.88 2.524l1.872 2.544z"/></clipPath><clipPath id="n" clipPathUnits="userSpaceOnUse"><path d="M252.143 525.33c-1.48-.196-3.168-.246-3.674-.292-.816 0-1.942-.291-2.245-.68-.971-1.167-1.837-2.235-2.096-2.721.562.536 2.452.486 4.752.582 2.293.098 4.591 1.119 6.428 3.207l1.394 1.953c-.92-1.214-2.566-1.757-4.559-2.049"/></clipPath><clipPath id="p" clipPathUnits="userSpaceOnUse"><path d="M0 0h623.622v765.354H0Z"/></clipPath><clipPath id="q" clipPathUnits="userSpaceOnUse"><path d="M0 0h623.622v765.354H0Z"/></clipPath><clipPath id="r" clipPathUnits="userSpaceOnUse"><path d="M0 0h623.622v765.354H0Z"/></clipPath><clipPath id="s" clipPathUnits="userSpaceOnUse"><path d="M0 0h623.622v765.354H0Z"/></clipPath><clipPath id="t" clipPathUnits="userSpaceOnUse"><path d="M0 0h623.622v765.354H0Z"/></clipPath><linearGradient id="c" x1="0" x2="1" y1="0" y2="0" gradientTransform="scale(10.58232 -10.58232) rotate(44.6 72.49 2.693)" gradientUnits="userSpaceOnUse" spreadMethod="pad"><stop offset="0" style="stop-opacity:1;stop-color:#c00d0d"/><stop offset=".3" style="stop-opacity:1;stop-color:#e30613"/><stop offset=".529" style="stop-opacity:1;stop-color:#f6b2b6"/><stop offset=".747" style="stop-opacity:1;stop-color:#e30613"/><stop offset="1" style="stop-opacity:1;stop-color:#c00d0d"/></linearGradient><linearGradient id="e" x1="0" x2="1" y1="0" y2="0" gradientTransform="scale(22.89591 -22.89591) rotate(36 41.306 4.2)" gradientUnits="userSpaceOnUse" spreadMethod="pad"><stop offset="0" style="stop-opacity:1;stop-color:#fff"/><stop offset=".34" style="stop-opacity:1;stop-color:#fff"/><stop offset=".54" style="stop-opacity:1;stop-color:#fff"/><stop offset=".91" style="stop-opacity:1;stop-color:#d3daf0"/><stop offset="1" style="stop-opacity:1;stop-color:#d3daf0"/></linearGradient><linearGradient id="g" x1="0" x2="1" y1="0" y2="0" gradientTransform="scale(13.18544 -13.18544) rotate(44.6 58.32 2.12)" gradientUnits="userSpaceOnUse" spreadMethod="pad"><stop offset="0" style="stop-opacity:1;stop-color:#004a93"/><stop offset=".13" style="stop-opacity:1;stop-color:#004a93"/><stop offset=".462" style="stop-opacity:1;stop-color:#899dd0"/><stop offset=".637" style="stop-opacity:1;stop-color:#004a93"/><stop offset=".917" style="stop-opacity:1;stop-color:#004a93"/><stop offset="1" style="stop-opacity:1;stop-color:#004a93"/></linearGradient><linearGradient id="i" x1="0" x2="1" y1="0" y2="0" gradientTransform="scale(4.80782 -4.80782) rotate(33 209.931 31.563)" gradientUnits="userSpaceOnUse" spreadMethod="pad"><stop offset="0" style="stop-opacity:1;stop-color:#c00d0d"/><stop offset=".5" style="stop-opacity:1;stop-color:#e30613"/><stop offset="1" style="stop-opacity:1;stop-color:#f6b2b6"/></linearGradient><linearGradient id="k" x1="0" x2="1" y1="0" y2="0" gradientTransform="scale(14.5269 -14.5269) rotate(39.7 60.006 5.538)" gradientUnits="userSpaceOnUse" spreadMethod="pad"><stop offset="0" style="stop-opacity:1;stop-color:#d3ddf2"/><stop offset=".073" style="stop-opacity:1;stop-color:#d3ddf2"/><stop offset=".371" style="stop-opacity:1;stop-color:#004a93"/><stop offset=".949" style="stop-opacity:1;stop-color:#d3ddf2"/><stop offset="1" style="stop-opacity:1;stop-color:#d3ddf2"/></linearGradient><linearGradient id="m" x1="0" x2="1" y1="0" y2="0" gradientTransform="scale(13.68653 -13.68653) rotate(39.7 64.041 6.022)" gradientUnits="userSpaceOnUse" spreadMethod="pad"><stop offset="0" style="stop-opacity:1;stop-color:#fff"/><stop offset=".174" style="stop-opacity:1;stop-color:#fff"/><stop offset=".354" style="stop-opacity:1;stop-color:#e3e7f6"/><stop offset=".7" style="stop-opacity:1;stop-color:#fff"/><stop offset="1" style="stop-opacity:1;stop-color:#fff"/></linearGradient><linearGradient id="o" x1="0" x2="1" y1="0" y2="0" gradientTransform="scale(12.30019 -12.30019) rotate(39.7 70.337 6.47)" gradientUnits="userSpaceOnUse" spreadMethod="pad"><stop offset="0" style="stop-opacity:1;stop-color:#f6b2b6"/><stop offset=".056" style="stop-opacity:1;stop-color:#f6b2b6"/><stop offset=".276" style="stop-opacity:1;stop-color:#e30613"/><stop offset=".517" style="stop-opacity:1;stop-color:#c00d0d"/><stop offset=".692" style="stop-opacity:1;stop-color:#e30613"/><stop offset=".891" style="stop-opacity:1;stop-color:#f5a9a8"/><stop offset="1" style="stop-opacity:1;stop-color:#f6b2b6"/></linearGradient></defs><g clip-path="url(#a)" transform="matrix(1.33333 0 0 -1.33333 -199.88 711.977)"><path d="M0 0c-1.938-1.941-4.029-2.185-5.919-2.428l-.929-.118c-1.014-.107-1.879-.173-2.848-.806-.969-.58-2.094-1.894-2.861-2.865a24.856 24.856 0 0 1-7.656-2.673c-3.778-2.138-6.382-4.955-8.32-7.044l-1.889-2.234.356.098c3.471 3.254 6.737 5.587 9.853 6.993 1.939.923 3.828 1.46 5.665 1.653h.053l1.989 2.625c.511.484 1.277.68 2.4.776l1.994.145 1.681.097.563.05c1.326.195 2.449.485 4.033 2.624L.258-.192zm-14.033-8.207s-.562-.778-.669-.876c-1.784-.243-3.621-.779-5.511-1.603-2.399-1.116-4.849-2.672-7.403-4.81 1.789 1.944 4.135 4.325 7.403 6.17 2.044 1.166 4.491 2.14 7.402 2.671-.204-.193-1.222-1.552-1.222-1.552M-2.14-2.913c-1.481-2.04-2.506-2.333-3.779-2.479l-.512-.048-1.732-.096-1.995-.145c-.815-.1-1.427-.244-1.942-.536.67.825 1.688 2.038 2.555 2.624.921.582 1.993.631 2.653.729l.409.047h.052l.563.049c1.583.195 3.369.486 5.106 1.751-.613-.876-1.378-1.896-1.378-1.896" style="fill:#000;fill-opacity:1;fill-rule:nonzero;stroke:none" transform="translate(261.075 533.975)"/></g><g clip-path="url(#b)" transform="matrix(1.33333 0 0 -1.33333 -199.88 711.977)"><path d="m230.859 516.001-1.226-1.263c6.228 4.567 9.799 4.954 14.956 4.908.459-.05.918-.05 1.224.533l1.532 2.138c-7.197-.098-10.415-1.847-16.486-6.316" style="fill:url(#c);stroke:none"/></g><g clip-path="url(#d)" transform="matrix(1.33333 0 0 -1.33333 -199.88 711.977)"><path d="M231.185 516.367c-.001-.01-.004-.019-.006-.029 5.93 5.427 10.968 7.877 15.332 8.401.406.486 1.753 2.29 2.159 2.874-9.859-1.642-14.385-8.176-17.485-11.246" style="fill:url(#e);stroke:none"/></g><g clip-path="url(#f)" transform="matrix(1.33333 0 0 -1.33333 -199.88 711.977)"><path d="M231.162 516.341c-.078-.076-.278-.31-.465-.488a1.699 1.699 0 0 1-.171-.193c1.147.911 3.48 2.679 5.615 3.843 2.124 1.159 4.716 2.117 8.397 2.62.357.389 1.46 1.859 1.973 2.635-6.792-.972-11.264-4.772-15.349-8.417" style="fill:url(#g);stroke:none"/></g><g clip-path="url(#h)" transform="matrix(1.33333 0 0 -1.33333 -199.88 711.977)"><path d="M244.128 521.637c-.203-.533.102-.291 1.023-.828.716-.434.561-.63.508-.872.664 1.019 1.94 2.429 1.94 2.429-.32.109-.662.154-1.003.154-1.183 0-2.349-.544-2.468-.883" style="fill:url(#i);stroke:none"/></g><g clip-path="url(#j)" transform="matrix(1.33333 0 0 -1.33333 -199.88 711.977)"><path d="M251.023 528.244c-1.433-.147-2.299-.533-2.861-1.215l-1.914-2.64c.457.387 1.709.601 3.09.601h.353c.206 0 .411.048.612.048 1.993.046 4.698.34 6.333 2.234l2.375 3.283.263.37c-2.092-2.719-6.772-2.438-8.251-2.681" style="fill:url(#k);stroke:none"/></g><g clip-path="url(#l)" transform="matrix(1.33333 0 0 -1.33333 -199.88 711.977)"><path d="M260.834 533.507c-2.085-1.827-4.321-1.927-6.242-2.201-.611-.1-1.988-.05-3.114-.78-1.175-.729-2.596-2.506-3.263-3.429.616.679 1.531.903 2.754 1.051 1.229.146 2.963.096 4.238.291 1.222.144 2.349.387 3.88 2.524l1.872 2.544z" style="fill:url(#m);stroke:none"/></g><g clip-path="url(#n)" transform="matrix(1.33333 0 0 -1.33333 -199.88 711.977)"><path d="M252.143 525.33c-1.48-.196-3.168-.246-3.674-.292-.816 0-1.942-.291-2.245-.68-.971-1.167-1.837-2.235-2.096-2.721.562.536 2.452.486 4.752.582 2.293.098 4.591 1.119 6.428 3.207l1.394 1.953c-.92-1.214-2.566-1.757-4.559-2.049" style="fill:url(#o);stroke:none"/></g><g clip-path="url(#p)" transform="matrix(1.33333 0 0 -1.33333 -199.88 711.977)"><path d="m0 0-.865.378 3.59.438c.064-.104.126-.196.198-.292Zm9.637 0 .866.402-3.57.425C6.902.712 6.807.62 6.743.524Zm-.521-.06L8.028-.424 6.482.044l-.134.043a.691.691 0 0 1 .134.136c.065.051.117.125.178.179Zm2.87 1.012-.993-.46-3.967.46c.033.094.064.188.093.284Zm.354.138 1.296.823H6.621c0-.293-.043-.545-.139-.761C6.213.452 5.534.117 4.856.128 4.189.147 3.509.492 3.207 1.13a1.816 1.816 0 0 0-.168.783h-7.037l1.283-.823 5.377.278c.104-.383.295-.718.545-.966a2.292 2.292 0 0 1 1.649-.7 2.091 2.091 0 0 1 1.626.687c.231.25.408.574.514.962zM6.482-1.042l-.289.565c.133.075.206.157.289.24.043.033.076.062.117.093l-.117.043-.281.084c-.429-.303-.885-.449-1.345-.438-.46 0-.929.143-1.358.405l-.252-.302c.085-.083.168-.125.263-.188l-.302-.543-.127-.209a.265.265 0 0 1 .127-.156c.103-.076.259-.085.375-.076l.353.796c.282-.092.607-.137.921-.124a2.9 2.9 0 0 1 .846.154l.417-.826.363.167.139.065zm0 4.271c.272-.322.472-.721.577-1.181h-.448a2.457 2.457 0 0 1-.129.397c-.299.793-.917 1.357-1.626 1.828-.094.053-.179.114-.272.166.093-.031.178-.062.272-.094.645-.26 1.22-.616 1.626-1.116M5.271.285l-.666 1.408-.51-.228-.316.71 1.077.49.25.113.625-.542-.741-.354.712-1.409a1.054 1.054 0 0 0-.431-.188M3.331.087c-.042.03-.085.071-.124.104a1.169 1.169 0 0 0-.208.22L.544-.052l1.045-.35Zm-.669.865c-.041.094-.071.188-.104.284L-2.349.952l.993-.479Z" style="fill:#004a93;fill-opacity:1;fill-rule:nonzero;stroke:none" transform="translate(154.235 511.964)"/><path d="M0 0a65.401 65.401 0 0 1 8.517-.738c3.789-.095 8.244.126 12.454.755 4.209.611 8.155 1.637 10.958 2.744 2.823 1.064 4.403 2.359 4.395 2.366.015-.009-1.629-1.508-4.62-2.795-2.962-1.336-7.14-2.618-11.541-3.444a72.083 72.083 0 0 0-12.76-1.263c-3.75-.043-6.663.294-7.684.455C-3.81-1.394-6.373-.466-7.937.427c-1.579.901-2.105 1.714-1.941 1.873.175.187.961-.193 2.553-.685C-5.73 1.114-3.303.491 0 0" style="fill:#ee7203;fill-opacity:1;fill-rule:nonzero;stroke:none" transform="translate(187.73 504.87)"/></g><path d="M0 0v1.151h-4.541v2.167h4.083v1.139h-4.083v1.972h4.303v1.138h-7.328V0Z" style="fill:#004a93;fill-opacity:1;fill-rule:nonzero;stroke:none" transform="matrix(1.33333 0 0 -1.33333 26.757 19.105)"/><g clip-path="url(#q)" transform="matrix(1.33333 0 0 -1.33333 -199.88 711.977)"><path d="M0 0v6.429h1.778c.541 0 1.042-.041 1.498-.346.332-.235.54-.572.54-.989 0-.348-.123-.707-.581-.997-.598-.389-1.637-.443-2.291-.363l-.373.044L3.584 0H7.08L4.22 3.154c.513.056 1.335.259 1.833.58.596.404.902 1 .902 1.558 0 .623-.336 1.302-1.096 1.748-.903.513-2.138.527-3.277.527h-5.621V0Z" style="fill:#004a93;fill-opacity:1;fill-rule:nonzero;stroke:none" transform="translate(174.404 519.654)"/></g><path d="M0 0v3.194h4.082v1.139H0v2.096h4.415v1.138h-7.438V0Z" style="fill:#004a93;fill-opacity:1;fill-rule:nonzero;stroke:none" transform="matrix(1.33333 0 0 -1.33333 65.235 19.105)"/><path d="M0 0h-3.041v-7.567h7.499v1.151H0Z" style="fill:#004a93;fill-opacity:1;fill-rule:nonzero;stroke:none" transform="matrix(1.33333 0 0 -1.33333 76.639 9.016)"/><path d="M0 0h3.262v-6.429h3.041V0h3.26v1.139H0Z" style="fill:#004a93;fill-opacity:1;fill-rule:nonzero;stroke:none" transform="matrix(1.33333 0 0 -1.33333 99.24 10.534)"/><g clip-path="url(#r)" transform="matrix(1.33333 0 0 -1.33333 -199.88 711.977)"><path d="M0 0c-1.416 0-3.402-.32-4.735-1.275-1.057-.75-1.555-1.822-1.555-2.735 0-.904.498-1.974 1.555-2.723C-3.402-7.675-1.416-7.996 0-7.996c1.415 0 3.413.321 4.745 1.263 1.056.749 1.543 1.819 1.543 2.723 0 .913-.487 1.985-1.543 2.735C3.413-.32 1.415-.013 0 0m0-7.08c-.751 0-1.64.167-2.293.987-.541.665-.638 1.431-.638 2.083 0 .679.097 1.43.638 2.096.653.834 1.542.999 2.293.999.761 0 1.639-.165 2.302-.999.542-.666.64-1.417.64-2.096 0-.652-.098-1.418-.64-2.083C1.639-6.913.761-7.08 0-7.08" style="fill:#004a93;fill-opacity:1;fill-rule:nonzero;stroke:none" transform="translate(217.9 527.442)"/><path d="M0 0c-1.415 0-3.4-.32-4.732-1.275C-5.79-2.025-6.29-3.097-6.29-4.01c0-.904.5-1.974 1.558-2.723C-3.4-7.675-1.415-7.996 0-7.996c1.414 0 3.415.321 4.749 1.263C5.803-5.984 6.29-4.914 6.29-4.01c0 .913-.487 1.985-1.541 2.735C3.415-.32 1.414-.013 0 0m0-7.08c-.75 0-1.639.167-2.29.987-.541.665-.64 1.431-.64 2.083 0 .679.099 1.43.64 2.096.651.834 1.54.999 2.29.999.761 0 1.639-.165 2.304-.999.542-.666.639-1.417.639-2.096 0-.652-.097-1.418-.639-2.083C1.639-6.913.761-7.08 0-7.08" style="fill:#004a93;fill-opacity:1;fill-rule:nonzero;stroke:none" transform="translate(188.475 527.442)"/></g><path d="m0 0 1.194 2.198h4.208L6.692 0h3.4L5.485 7.567H2.666L-1.513 0Zm1.749 3.222 1.43 2.637h.043l1.553-2.637Z" style="fill:#004a93;fill-opacity:1;fill-rule:nonzero;stroke:none" transform="matrix(1.33333 0 0 -1.33333 2.452 19.105)"/><g clip-path="url(#s)" transform="matrix(1.33333 0 0 -1.33333 -199.88 711.977)"><path d="m0 0-.675-2.485a1.093 1.093 0 0 0-.33-.245 1.12 1.12 0 0 0-.527-.151c-.164 0-.311.067-.379.167-.048.083-.097.214-.031.446L-1.333 0h-.626l-.591-2.188c-.05-.197-.132-.542.048-.806.1-.149.314-.314.755-.314.183 0 .365.032.597.132.145.086.309.182.442.282l-.098-.348h.559L.628 0Z" style="fill:#004a93;fill-opacity:1;fill-rule:nonzero;stroke:none" transform="translate(182.082 513.59)"/><path d="M0 0a1.152 1.152 0 0 1-.364.312c-.21.113-.442.132-.643.132a1.39 1.39 0 0 1-.771-.198c-.215-.15-.477-.378-.574-.758-.088-.28-.052-.492.048-.625.113-.15.311-.229.478-.279l.311-.101c.163-.034.329-.034.427-.162a.344.344 0 0 0 .067-.314.671.671 0 0 0-.231-.313c-.114-.1-.313-.184-.591-.184a.94.94 0 0 0-.478.119c-.13.098-.23.181-.281.261l-.413-.38c.298-.391.663-.443 1.022-.443.246 0 .741.032 1.153.346.229.196.395.446.462.659.033.168.066.411-.016.562-.117.229-.379.326-.529.362l-.23.065c-.294.066-.427.099-.494.182-.064.047-.115.146-.064.344.03.081.099.215.227.314a.807.807 0 0 0 .431.115c.147 0 .28-.035.395-.115.099-.066.18-.149.247-.233z" style="fill:#004a93;fill-opacity:1;fill-rule:nonzero;stroke:none" transform="translate(186.088 513.215)"/><path d="M0 0a.89.89 0 0 1-.361.312c-.197.113-.431.132-.626.132-.227 0-.477-.019-.774-.198-.215-.15-.478-.378-.594-.758-.061-.28-.031-.492.067-.625.116-.15.332-.229.477-.279l.295-.101c.165-.034.332-.034.446-.162.05-.068.099-.151.05-.314a.794.794 0 0 0-.215-.313c-.116-.1-.311-.184-.592-.184a1.05 1.05 0 0 0-.494.119 1.487 1.487 0 0 0-.28.261l-.412-.38c.317-.391.677-.443 1.037-.443.25 0 .741.032 1.154.346.23.196.395.446.444.659.05.168.065.411-.016.562-.099.229-.363.326-.526.362l-.232.065c-.282.066-.41.099-.479.182-.063.047-.112.146-.063.344.032.081.081.215.23.314a.744.744 0 0 0 .41.115.69.69 0 0 0 .413-.115c.1-.066.18-.149.247-.233z" style="fill:#004a93;fill-opacity:1;fill-rule:nonzero;stroke:none" transform="translate(189.464 513.215)"/><path d="m0 0-.118-.426h.379l-.755-2.816h.623L1.002 0Zm.395 1.07C.342.841.477.66.693.66c.23 0 .441.181.507.41.064.216-.066.397-.297.397-.21 0-.442-.181-.508-.397" style="fill:#004a93;fill-opacity:1;fill-rule:nonzero;stroke:none" transform="translate(190.672 513.59)"/><path d="m0 0 .692 2.552c.218.182.546.33.841.33.214 0 .331-.081.378-.18.1-.15.051-.395.016-.495L1.335 0h.627l.591 2.157c.068.265.098.577-.049.84-.132.213-.377.313-.725.313-.211 0-.574-.049-.971-.313l.067.245H-.132l-.113-.426h.378L-.623 0Z" style="fill:#004a93;fill-opacity:1;fill-rule:nonzero;stroke:none" transform="translate(196.786 510.348)"/><path d="m0 0-1.267-4.675h.707l.548 2.056h.474l.659-2.056h.854l-.756 2.092c.347.036.808.198 1.086.411.311.231.546.56.624.905.1.332.053.675-.143.904C2.521-.032 1.994 0 1.614 0h-.443Zm1.171-2.087H.134L.547-.541h.938c.1 0 .41 0 .575-.165.098-.1.181-.264.113-.527a1.164 1.164 0 0 0-.393-.609 1.19 1.19 0 0 0-.609-.245" style="fill:#004a93;fill-opacity:1;fill-rule:nonzero;stroke:none" transform="translate(176.195 515.023)"/><path d="M0 0c-.657-.066-1.202-.329-1.382-1.005-.017-.079-.034-.146-.034-.212v-.115c.017-.363.263-.627.807-.627.196 0 .393.032.609.119.019 0 .034.012.065.029.215.099.377.265.429.314h.033l-.114-.396h.561L1.549.198c.083.331.163.66-.018.906-.15.231-.526.313-.821.313-.282 0-.528-.034-.71-.082-.574-.147-.79-.494-.807-.806l.578-.034c.046.164.115.28.229.363.133.096.33.131.577.131C.71.989.872.973.938.858c.101-.116.067-.281.036-.43L.856.017h-.46C.262.017.117.017 0 0m0-1.48a.838.838 0 0 0-.297-.052c-.13 0-.295.015-.392.15-.083.116-.101.231-.051.395a.7.7 0 0 0 .262.394c.098.067.231.15.478.18.082.02.182.035.298.035H.76l-.183-.689a1.3 1.3 0 0 0-.315-.299C.166-1.418.082-1.465 0-1.48" style="fill:#004a93;fill-opacity:1;fill-rule:nonzero;stroke:none" transform="translate(193.739 512.241)"/><path d="m0 0-.114-.426h.379l-.761-2.816h.627L1.003 0Zm.578 1.07C.527.841.659.66.875.66c.212 0 .443.181.508.41.067.216-.065.397-.296.397-.212 0-.447-.181-.509-.397" style="fill:#004a93;fill-opacity:1;fill-rule:nonzero;stroke:none" transform="translate(208.775 513.59)"/><path d="m0 0-.871-3.242h.627L.25-1.38c.081.213.162.427.279.591.197.315.425.363.559.363.083 0 .181-.015.247-.082.046-.05.066-.146.066-.264l.56.165c.113.328 0 .511-.196.607a.769.769 0 0 1-.332.068c-.362 0-.721-.197-.971-.542L.592 0Z" style="fill:#004a93;fill-opacity:1;fill-rule:nonzero;stroke:none" transform="translate(211.162 513.59)"/><path d="m0 0-1.036-3.853c-.08-.295-.231-.888.512-.888h.361l.115.428h-.179c-.313 0-.232.265-.217.329L.627 0Z" style="fill:#004a93;fill-opacity:1;fill-rule:nonzero;stroke:none" transform="translate(214.623 515.089)"/><path d="m0 0-.11-.426h.38l-.778-2.816h.642L1.008 0Zm.578 1.07C.527.841.661.66.875.66c.232 0 .445.181.51.41.05.216-.083.397-.294.397-.233 0-.446-.181-.513-.397" style="fill:#004a93;fill-opacity:1;fill-rule:nonzero;stroke:none" transform="translate(216.315 513.59)"/><path d="m0 0 .674 2.552c.229.182.56.33.855.33.214 0 .332-.081.379-.18.115-.15.034-.395.017-.495L1.334 0h.624l.591 2.157c.067.265.1.577-.049.84-.128.213-.379.313-.723.313-.23 0-.561-.049-.971-.313l.066.245H-.132l-.116-.426h.377L-.626 0Z" style="fill:#004a93;fill-opacity:1;fill-rule:nonzero;stroke:none" transform="translate(218.617 510.348)"/><path d="M0 0a.829.829 0 0 1-.346.312A1.277 1.277 0 0 1-.97.444c-.233 0-.478-.019-.772-.198-.232-.15-.495-.378-.593-.758-.086-.28-.034-.492.063-.625.099-.15.314-.229.463-.279l.313-.101c.162-.034.331-.034.424-.162.07-.068.102-.151.07-.314a.653.653 0 0 0-.232-.313c-.1-.1-.297-.184-.592-.184a.975.975 0 0 0-.479.119 1.15 1.15 0 0 0-.278.261l-.412-.38c.296-.391.66-.443 1.021-.443.264 0 .74.032 1.152.346.232.196.393.446.461.659.05.168.068.411-.013.562-.102.229-.383.326-.528.362l-.233.065c-.276.066-.411.099-.493.182-.051.047-.114.146-.066.344.033.081.079.215.232.314a.816.816 0 0 0 .427.115.714.714 0 0 0 .409-.115 1.46 1.46 0 0 0 .232-.233z" style="fill:#004a93;fill-opacity:1;fill-rule:nonzero;stroke:none" transform="translate(228.28 513.215)"/></g><path d="M0 0h.707l.708 1.137h1.794L3.291 0h.808l-.444 4.675h-.576Zm1.745 1.68 1.267 1.991h.014l.152-1.991Z" style="fill:#004a93;fill-opacity:1;fill-rule:nonzero;stroke:none" transform="matrix(1.33333 0 0 -1.33333 71.08 31.513)"/><g clip-path="url(#t)" transform="matrix(1.33333 0 0 -1.33333 -199.88 711.977)"><path d="M0 0h1.956l.051.215c.131.432.261.873.034 1.235-.199.311-.593.379-.875.379-.416 0-.816-.148-1.135-.428C-.398 1.022-.576.513-.675.084c-.099-.346-.199-.872.064-1.252.247-.327.694-.379 1.004-.379.253 0 .486.036.727.119.13.047.294.113.442.196l-.096.379a2.052 2.052 0 0 0-.43-.152c-.155-.027-.299-.062-.463-.062-.245 0-.46.082-.573.228-.182.215-.1.546-.049.707zm.097.43L.13.575c.068.168.148.431.361.613a.806.806 0 0 0 .545.213c.165 0 .328-.049.412-.148.146-.199.08-.478.018-.692L1.43.43Z" style="fill:#004a93;fill-opacity:1;fill-rule:nonzero;stroke:none" transform="translate(222.77 511.829)"/></g></svg>