<svg xmlns="http://www.w3.org/2000/svg" width="512pt" height="512pt" style="isolation:isolate" viewBox="0 0 512 512"><defs><clipPath id="a"><path d="M0 0h512v512H0z"/></clipPath></defs><g clip-path="url(#a)"><path fill="#007AC2" d="M242.506 279.734C170.539 291.984 73.307 301.171.574 323.373c-.765 0-.765.766 0 .766 176.856-5.359 368.257-4.594 510.66 0l.766-.766c-3.062-16.843-16.843-35.983-55.889-35.983h-22.969l-.765.766c6.125 16.077-11.484 26.796-22.968 16.843-4.594-3.828-9.953-14.547 3.062-22.968 9.187-6.891 23.734-16.078 32.156-21.437 30.624-19.141 26.03-46.702-14.547-49.765-97.232-7.656-270.259-17.609-339.164-22.968-1.531 0-2.297.766-1.531 1.531 56.655 30.624 107.95 33.687 164.605 54.358 33.687 13.016 26.797 29.859-11.484 35.984Z"/></g></svg>