<svg xmlns="http://www.w3.org/2000/svg" viewBox="0 0 156 200" width="156" height="200">
	<style>
		tspan { white-space:pre }
		.shp0 { fill: #000000 } 
		.shp1 { fill: #f6f6f6 } 
		.shp2 { fill: #004899 } 
		.shp3 { fill: #e30613 } 
		.shp4 { fill: #ffdd00 } 
	</style>
	<g >
		<path class="shp0" d="M71.89 0.14C71.89 0.23 69.6 0.3 65.41 0.34C61.85 0.37 57.51 0.46 55.77 0.54C54.04 0.62 51.48 0.74 50.08 0.82C48.68 0.89 46.95 0.99 46.24 1.03C45.52 1.07 43.42 1.2 41.57 1.31C39.72 1.42 37.53 1.57 36.7 1.65C35.87 1.73 34.7 1.82 34.09 1.86C33.49 1.9 32.35 1.99 31.56 2.06C30.76 2.13 29.47 2.25 28.68 2.32C27.88 2.4 26.62 2.52 25.86 2.6C25.11 2.68 23.94 2.81 23.26 2.88C22.58 2.95 21.47 3.08 20.79 3.15C20.11 3.22 18.69 3.38 17.63 3.51C16.57 3.63 15.22 3.79 14.61 3.87C14.01 3.94 13.14 4.03 12.69 4.07C12.24 4.1 11.74 4.19 11.59 4.26C11.44 4.33 10.95 4.42 10.5 4.46C10.04 4.5 9.29 4.6 8.82 4.67C8.34 4.75 7.6 4.87 7.17 4.94C6.73 5 6.03 5.11 5.6 5.18C4.99 5.27 4.79 5.35 4.73 5.57C4.68 5.72 4.59 6.27 4.52 6.8C4.46 7.33 4.34 8.11 4.26 8.52C4.19 8.94 4.06 9.62 3.98 10.03C3.89 10.45 3.79 11.07 3.75 11.41C3.71 11.75 3.62 12.09 3.55 12.16C3.48 12.24 3.43 12.49 3.42 12.71C3.42 12.94 3.3 13.87 3.14 14.78C2.99 15.68 2.8 16.83 2.73 17.32C2.65 17.81 2.54 18.62 2.47 19.11C2.4 19.6 2.28 20.43 2.2 20.96C2.12 21.49 1.99 22.45 1.91 23.09C1.83 23.74 1.71 24.73 1.65 25.29C1.58 25.86 1.49 26.69 1.44 27.15C1.4 27.6 1.27 28.96 1.16 30.17C1.06 31.38 0.93 32.8 0.89 33.33C0.84 33.86 0.75 35.19 0.68 36.29C0.61 37.38 0.48 39.8 0.38 41.65C0.28 43.54 0.21 48.39 0.21 52.71C0.21 57.18 0.28 61.83 0.38 63.78C0.48 65.63 0.62 68.01 0.68 69.07C0.75 70.13 0.84 71.46 0.89 72.03C0.94 72.59 1.04 73.77 1.12 74.64C1.2 75.51 1.32 76.87 1.39 77.66C1.46 78.46 1.57 79.6 1.65 80.21C1.72 80.81 1.84 81.77 1.91 82.34C1.98 82.9 2.11 83.89 2.19 84.54C2.28 85.18 2.4 86.08 2.47 86.53C2.53 86.98 2.65 87.79 2.73 88.32C2.81 88.85 2.93 89.68 3 90.17C3.08 90.66 3.21 91.59 3.29 92.23C3.38 92.88 3.51 93.59 3.58 93.81C3.64 94.04 3.7 94.49 3.7 94.81C3.7 95.13 3.75 95.42 3.81 95.45C3.86 95.48 3.96 95.83 4.01 96.24C4.07 96.64 4.15 97.25 4.2 97.59C4.24 97.93 4.34 98.27 4.41 98.35C4.48 98.43 4.53 98.7 4.53 98.97C4.53 99.23 4.59 99.64 4.66 99.86C4.73 100.09 4.85 100.62 4.93 101.03C5.01 101.45 5.21 102.41 5.36 103.16C5.52 103.92 5.68 104.81 5.74 105.14C5.79 105.47 5.88 105.76 5.93 105.79C5.99 105.82 6.04 106.09 6.04 106.39C6.04 106.69 6.1 106.97 6.17 107.01C6.25 107.05 6.31 107.3 6.31 107.56C6.31 107.82 6.37 108.07 6.45 108.11C6.52 108.15 6.61 108.41 6.64 108.69C6.67 108.98 6.76 109.46 6.84 109.76C6.91 110.06 7.11 110.87 7.26 111.55C7.42 112.23 7.61 112.97 7.68 113.2C7.76 113.42 7.82 113.72 7.82 113.85C7.82 113.98 7.87 114.2 7.94 114.33C8.01 114.46 8.13 114.79 8.21 115.05C8.3 115.32 8.37 115.67 8.37 115.84C8.37 116.01 8.43 116.18 8.51 116.22C8.58 116.26 8.64 116.44 8.64 116.63C8.64 116.82 8.7 117.08 8.77 117.22C8.84 117.35 8.97 117.74 9.06 118.08C9.15 118.42 9.27 118.85 9.33 119.04C9.4 119.23 9.55 119.75 9.67 120.21C9.8 120.66 9.96 121.14 10.03 121.27C10.1 121.4 10.15 121.67 10.15 121.86C10.15 122.04 10.21 122.23 10.29 122.27C10.37 122.31 10.43 122.49 10.43 122.68C10.43 122.87 10.49 123.05 10.56 123.09C10.64 123.13 10.7 123.32 10.7 123.51C10.7 123.69 10.76 123.88 10.84 123.92C10.91 123.96 10.98 124.13 10.97 124.3C10.97 124.47 11.02 124.67 11.09 124.74C11.15 124.82 11.38 125.44 11.59 126.12C11.81 126.8 12.03 127.42 12.1 127.49C12.16 127.57 12.21 127.74 12.21 127.87C12.21 128 12.27 128.23 12.35 128.38C12.42 128.54 12.55 128.78 12.62 128.93C12.7 129.09 12.76 129.3 12.76 129.42C12.76 129.53 12.81 129.73 12.88 129.86C12.95 129.99 13.06 130.26 13.14 130.45C13.22 130.64 13.51 131.38 13.79 132.1C14.07 132.81 14.35 133.54 14.42 133.71C14.49 133.88 14.61 134.18 14.68 134.36C14.76 134.55 14.87 134.85 14.94 135.02C15.01 135.19 15.19 135.62 15.35 135.98C15.51 136.34 15.64 136.66 15.64 136.7C15.64 136.74 15.86 137.25 16.12 137.84C16.39 138.42 16.67 139.01 16.74 139.14C16.82 139.27 16.88 139.47 16.88 139.59C16.88 139.7 16.94 139.79 17.01 139.79C17.09 139.79 17.15 139.87 17.15 139.97C17.15 140.06 17.42 140.69 17.74 141.37C18.06 142.05 18.78 143.53 19.36 144.67C19.93 145.8 20.61 147.14 20.87 147.63C21.12 148.12 21.37 148.55 21.4 148.59C21.44 148.63 21.56 148.85 21.68 149.07C21.79 149.3 22.01 149.7 22.17 149.97C22.33 150.23 22.64 150.79 22.87 151.2C23.1 151.62 23.71 152.64 24.22 153.47C24.73 154.3 25.22 155.12 25.3 155.29C25.38 155.46 25.5 155.6 25.55 155.6C25.61 155.6 25.66 155.66 25.66 155.74C25.66 155.81 26 156.37 26.41 156.98C26.83 157.58 27.17 158.14 27.17 158.21C27.17 158.29 27.21 158.35 27.27 158.35C27.33 158.34 27.46 158.51 27.58 158.72C27.69 158.93 27.82 159.14 27.86 159.18C27.9 159.21 28.18 159.62 28.47 160.07C28.77 160.52 29.04 160.92 29.09 160.96C29.13 161 29.32 161.25 29.5 161.51C29.69 161.78 29.91 162.09 30.01 162.2C30.1 162.31 30.56 162.93 31.03 163.57C31.5 164.22 31.92 164.77 31.96 164.81C32 164.85 32.53 165.5 33.13 166.25C33.74 167.01 34.26 167.66 34.3 167.7C34.34 167.74 34.68 168.14 35.06 168.59C35.43 169.04 36 169.69 36.31 170.03C36.62 170.37 37.08 170.9 37.33 171.2C37.58 171.51 39.18 173.15 40.88 174.85C42.58 176.56 44.22 178.16 44.52 178.41C44.82 178.66 45.35 179.12 45.69 179.43C46.03 179.75 46.68 180.31 47.13 180.68C47.58 181.06 47.98 181.4 48.02 181.44C48.06 181.48 48.71 182.01 49.46 182.61C50.22 183.21 50.86 183.73 50.9 183.78C50.94 183.82 51.56 184.28 52.27 184.81C52.99 185.34 53.61 185.8 53.65 185.84C53.68 185.89 54.12 186.2 54.61 186.54C55.1 186.89 56.55 187.88 57.83 188.74C59.11 189.61 60.34 190.41 60.54 190.52C60.75 190.63 60.92 190.77 60.92 190.82C60.92 190.88 60.98 190.93 61.06 190.93C61.13 190.93 61.55 191.15 61.98 191.43C62.42 191.71 62.96 192.04 63.18 192.17C63.41 192.3 64.21 192.76 64.97 193.2C65.72 193.63 66.68 194.18 67.09 194.41C67.51 194.64 68.28 195.07 68.81 195.36C69.34 195.65 71.43 196.72 73.47 197.73C75.51 198.75 77.24 199.59 77.31 199.59C77.39 199.59 77.56 199.69 77.69 199.8C77.91 199.98 78.1 199.92 79.68 199.16C80.64 198.7 82.45 197.81 83.69 197.19C84.94 196.57 86.48 195.78 87.12 195.43C87.77 195.09 88.61 194.62 89.01 194.38C89.41 194.15 89.76 193.95 89.8 193.95C89.84 193.95 90.33 193.67 90.9 193.33C91.46 192.99 91.96 192.71 91.99 192.71C92.03 192.71 92.34 192.53 92.68 192.3C93.02 192.08 93.33 191.89 93.37 191.89C93.4 191.89 93.51 191.83 93.61 191.75C93.7 191.67 94.32 191.27 94.98 190.86C95.64 190.44 96.24 190.1 96.32 190.1C96.39 190.1 96.47 190.05 96.49 189.99C96.51 189.93 97.44 189.27 98.57 188.51C99.7 187.76 100.79 187.02 100.99 186.87C101.19 186.72 101.66 186.38 102.03 186.12C102.4 185.86 103.22 185.25 103.86 184.76C104.5 184.27 105.28 183.68 105.58 183.45C105.88 183.21 106.87 182.41 107.77 181.66C108.68 180.91 109.94 179.83 110.59 179.26C111.23 178.69 113.39 176.59 115.39 174.6C117.39 172.6 119.25 170.68 119.54 170.33C119.82 169.98 120.28 169.44 120.57 169.14C120.85 168.84 121.18 168.46 121.29 168.3C121.4 168.15 121.74 167.72 122.04 167.36C122.34 167 122.81 166.44 123.07 166.12C123.34 165.8 123.8 165.21 124.1 164.81C124.4 164.42 124.71 164.02 124.79 163.94C124.87 163.85 125.08 163.56 125.27 163.3C125.45 163.03 125.65 162.76 125.72 162.68C125.78 162.6 126.08 162.2 126.38 161.79C126.68 161.37 127 160.93 127.09 160.81C127.18 160.69 127.32 160.5 127.39 160.38C127.47 160.26 128.12 159.27 128.84 158.19C129.56 157.11 130.45 155.74 130.83 155.15C131.2 154.56 131.55 154.01 131.61 153.91C131.66 153.82 132.05 153.16 132.47 152.44C132.89 151.72 133.23 151.09 133.23 151.03C133.23 150.97 133.29 150.93 133.36 150.93C133.44 150.93 133.5 150.88 133.5 150.82C133.49 150.77 133.75 150.26 134.06 149.69C134.37 149.12 134.91 148.13 135.25 147.49C135.6 146.85 136.35 145.39 136.92 144.26C137.49 143.12 138.14 141.79 138.36 141.3C138.58 140.81 138.97 139.95 139.22 139.38C139.48 138.81 139.8 138.1 139.94 137.8C140.08 137.5 140.29 137.03 140.4 136.77C140.52 136.51 140.75 135.92 140.91 135.46C141.08 135.01 141.27 134.58 141.34 134.5C141.41 134.43 141.46 134.26 141.46 134.12C141.46 133.99 141.52 133.88 141.59 133.88C141.67 133.88 141.73 133.76 141.73 133.61C141.73 133.46 141.85 133.12 142.01 132.85C142.16 132.59 142.28 132.29 142.28 132.2C142.28 132.1 142.4 131.76 142.55 131.44C142.7 131.12 142.83 130.8 142.83 130.72C142.83 130.65 142.99 130.17 143.18 129.66C143.38 129.15 143.6 128.57 143.68 128.38C143.76 128.2 143.88 127.93 143.94 127.8C144.01 127.67 144.06 127.45 144.06 127.32C144.06 127.19 144.11 127.02 144.18 126.94C144.24 126.87 144.52 126.06 144.8 125.15C145.08 124.25 145.37 123.4 145.44 123.26C145.51 123.13 145.57 122.9 145.57 122.75C145.57 122.6 145.63 122.44 145.71 122.41C145.79 122.37 145.85 122.21 145.85 122.06C145.85 121.91 145.9 121.68 145.97 121.55C146.04 121.41 146.17 121.03 146.26 120.69C146.36 120.35 146.55 119.7 146.69 119.24C146.82 118.79 147.04 118.05 147.16 117.59C147.28 117.14 147.44 116.63 147.51 116.46C147.57 116.29 147.63 116 147.63 115.81C147.63 115.62 147.69 115.43 147.77 115.4C147.84 115.36 147.91 115.14 147.91 114.91C147.91 114.69 147.97 114.47 148.04 114.43C148.12 114.4 148.18 114.18 148.18 113.95C148.18 113.73 148.24 113.51 148.32 113.47C148.39 113.43 148.48 113.2 148.51 112.96C148.54 112.71 148.61 112.32 148.66 112.1C148.71 111.87 148.8 111.56 148.86 111.41C148.93 111.26 149.05 110.76 149.14 110.31C149.23 109.86 149.37 109.21 149.44 108.87C149.52 108.53 149.64 108 149.71 107.7C149.78 107.4 149.87 106.96 149.91 106.74C149.95 106.51 150.04 106.2 150.1 106.05C150.17 105.9 150.25 105.59 150.29 105.36C150.33 105.13 150.43 104.65 150.51 104.3C150.58 103.94 150.71 103.35 150.79 102.99C150.87 102.63 150.99 101.97 151.07 101.51C151.14 101.06 151.24 100.56 151.29 100.41C151.33 100.26 151.43 99.81 151.49 99.42C151.56 99.02 151.68 98.34 151.76 97.9C151.84 97.47 151.97 96.8 152.04 96.43C152.12 96.05 152.21 95.43 152.25 95.05C152.29 94.67 152.38 94.3 152.45 94.23C152.52 94.15 152.57 93.76 152.57 93.37C152.57 92.97 152.62 92.62 152.67 92.59C152.73 92.56 152.82 92.18 152.88 91.73C152.93 91.29 153.03 90.53 153.1 90.03C153.17 89.54 153.3 88.65 153.39 88.04C153.47 87.44 153.57 86.76 153.61 86.53C153.64 86.3 153.74 85.62 153.82 85.02C153.9 84.41 154.02 83.45 154.09 82.89C154.16 82.32 154.27 81.36 154.35 80.76C154.43 80.15 154.53 79.07 154.57 78.35C154.62 77.63 154.71 76.98 154.78 76.91C154.85 76.83 154.9 76.18 154.9 75.46C154.9 74.75 154.95 74.1 155.02 74.02C155.09 73.95 155.18 73.11 155.22 72.16C155.27 71.22 155.4 68.93 155.52 67.08C155.67 64.79 155.76 60.77 155.81 54.5C155.87 46.2 155.85 44.76 155.58 39.93C155.41 36.98 155.23 33.86 155.16 32.99C155.1 32.12 154.98 30.76 154.91 29.97C154.83 29.17 154.71 27.93 154.64 27.22C154.57 26.5 154.44 25.38 154.35 24.74C154.27 24.1 154.14 23.14 154.08 22.61C154.01 22.08 153.89 21.19 153.82 20.62C153.74 20.05 153.62 19.12 153.54 18.56C153.46 17.99 153.33 17.19 153.26 16.77C153.18 16.35 153.12 15.8 153.12 15.53C153.12 15.27 153.07 14.99 153 14.91C152.93 14.84 152.84 14.47 152.8 14.09C152.76 13.71 152.66 13.06 152.58 12.65C152.51 12.23 152.38 11.57 152.3 11.17C152.22 10.77 152.1 10.15 152.03 9.79C151.96 9.43 151.87 8.99 151.83 8.8C151.8 8.61 151.7 8.02 151.62 7.49C151.54 6.96 151.44 6.25 151.4 5.91L151.33 5.29C150.22 5.13 149.49 5.02 149 4.95C148.51 4.87 147.68 4.74 147.15 4.66C146.62 4.58 145.79 4.46 145.3 4.39C144.81 4.31 143.94 4.19 143.38 4.12C142.81 4.04 141.92 3.93 141.39 3.86C140.86 3.8 139.56 3.64 138.51 3.52C137.45 3.39 136.03 3.23 135.35 3.15C134.67 3.08 133.59 2.96 132.95 2.89C132.31 2.82 131.14 2.69 130.34 2.61C129.55 2.52 128.25 2.39 127.46 2.32C126.67 2.25 125.37 2.15 124.58 2.12C123.79 2.08 123.08 1.99 123 1.91C122.93 1.84 122.31 1.78 121.63 1.78C120.95 1.79 119.9 1.73 119.3 1.65C118.69 1.58 116.56 1.43 114.56 1.31C112.56 1.2 110.43 1.07 109.83 1.03C109.23 0.99 107.53 0.89 106.06 0.82C104.59 0.74 102.06 0.61 100.43 0.54C98.81 0.47 94.47 0.38 90.79 0.34C86.47 0.3 84.11 0.23 84.11 0.14C84.11 0.05 81.98 0 78 0C74.02 0 71.89 0.05 71.89 0.14Z" />
		<path class="shp1" d="M68.88 6.27C67.71 6.29 64.68 6.38 62.15 6.46C59.63 6.54 56.07 6.66 54.26 6.74C52.45 6.81 49.92 6.93 48.64 7.01C47.36 7.08 45.23 7.21 43.91 7.29C42.58 7.36 40.7 7.49 39.72 7.56C38.74 7.63 36.98 7.76 35.81 7.84C34.64 7.93 31.4 8.21 28.61 8.46C25.81 8.72 22.94 8.99 22.23 9.08C21.51 9.16 20.43 9.28 19.83 9.35C19.22 9.42 18.08 9.54 17.29 9.62C16.5 9.7 15.35 9.83 14.75 9.9C14.15 9.97 12.82 10.13 11.8 10.25C10.78 10.37 9.9 10.51 9.85 10.56C9.8 10.61 9.69 11.02 9.62 11.48C9.54 11.93 9.42 12.64 9.34 13.06C9.27 13.47 9.12 14.34 9 14.98C8.89 15.63 8.58 17.6 8.31 19.38C8.04 21.16 7.73 23.42 7.61 24.4C7.5 25.38 7.34 26.77 7.26 27.49C7.18 28.21 7.06 29.48 6.99 30.31C6.91 31.14 6.8 32.56 6.73 33.47C6.66 34.38 6.54 36.02 6.46 37.11C6.38 38.21 6.24 40.47 6.15 42.13C6.05 43.85 5.98 48.41 5.98 52.71C5.99 56.87 6.06 61.6 6.15 63.23C6.24 64.86 6.41 67.58 6.52 69.28C6.63 70.98 6.78 72.96 6.85 73.68C6.93 74.4 7.05 75.73 7.14 76.63C7.22 77.54 7.34 78.78 7.41 79.38C7.48 79.99 7.64 81.29 7.76 82.27C7.88 83.25 8.19 85.51 8.45 87.29C8.72 89.06 8.99 90.87 9.06 91.31C9.13 91.74 9.25 92.47 9.33 92.92C9.41 93.37 9.52 94.1 9.59 94.54C9.66 94.97 9.91 96.29 10.14 97.46C10.37 98.63 10.72 100.36 10.92 101.31C11.12 102.25 11.33 103.3 11.4 103.64C11.46 103.98 11.73 105.16 11.99 106.25C12.25 107.35 12.71 109.21 13.01 110.38C13.31 111.55 13.7 113 13.86 113.61C14.02 114.21 14.42 115.6 14.75 116.7C15.08 117.8 15.45 119.03 15.58 119.45C15.71 119.87 16 120.76 16.22 121.44C16.45 122.12 16.91 123.48 17.24 124.47C17.58 125.45 18.2 127.15 18.61 128.25C19.03 129.34 19.45 130.43 19.55 130.65C19.65 130.88 19.93 131.56 20.17 132.16C20.41 132.77 20.89 133.91 21.23 134.71C21.57 135.5 22.12 136.71 22.43 137.39C22.75 138.07 23.45 139.52 23.99 140.62C24.53 141.71 25.27 143.17 25.63 143.85C25.99 144.53 26.65 145.74 27.09 146.53C27.53 147.32 28.36 148.75 28.92 149.69C29.49 150.64 30.48 152.21 31.12 153.2C31.76 154.18 32.82 155.73 33.46 156.63C34.11 157.54 35.03 158.81 35.52 159.45C36.01 160.09 36.88 161.21 37.45 161.92C38.01 162.64 38.51 163.26 38.56 163.3C38.6 163.34 38.97 163.77 39.37 164.26C39.78 164.75 40.51 165.62 41.01 166.18C41.51 166.74 43.09 168.41 44.52 169.87C45.96 171.34 47.96 173.29 48.98 174.21C50 175.14 51.57 176.51 52.48 177.26C53.39 178.02 54.68 179.07 55.36 179.59C56.04 180.12 56.94 180.8 57.35 181.11C57.77 181.42 58.94 182.26 59.96 182.97C60.98 183.68 62.83 184.92 64.07 185.73C65.32 186.53 67.6 187.92 69.15 188.8C70.7 189.69 73.28 191.09 74.88 191.91C76.48 192.73 77.89 193.4 78 193.4C78.11 193.4 79.39 192.81 80.85 192.08C82.3 191.35 83.95 190.5 84.52 190.18C85.08 189.86 85.82 189.44 86.16 189.25C86.5 189.06 87.49 188.49 88.36 187.98C89.23 187.46 90.58 186.64 91.38 186.15C92.17 185.65 93.68 184.66 94.74 183.94C95.8 183.22 97.22 182.23 97.89 181.73C98.57 181.24 100.3 179.9 101.74 178.75C103.17 177.61 105.18 175.94 106.2 175.04C107.21 174.14 109.28 172.17 110.79 170.65C112.3 169.14 114.19 167.16 114.98 166.25C115.77 165.35 117.01 163.89 117.73 163.02C118.46 162.15 119.54 160.79 120.14 160C120.75 159.21 121.77 157.81 122.41 156.91C123.05 156 124.01 154.61 124.54 153.81C125.06 153.02 125.85 151.78 126.29 151.07C126.73 150.35 127.35 149.33 127.67 148.8C127.99 148.27 128.52 147.34 128.86 146.74C129.2 146.13 129.67 145.3 129.9 144.88C130.13 144.46 130.89 142.98 131.6 141.58C132.3 140.18 133.12 138.51 133.42 137.87C133.71 137.23 134.1 136.36 134.29 135.95C134.48 135.53 134.71 135 134.81 134.78C134.91 134.55 135.35 133.5 135.8 132.44C136.25 131.38 136.84 129.9 137.12 129.14C137.4 128.38 137.79 127.36 137.98 126.87C138.17 126.38 138.88 124.34 139.54 122.34C140.21 120.33 141.09 117.52 141.51 116.08C141.92 114.65 142.4 112.98 142.56 112.37C142.72 111.77 143.12 110.19 143.45 108.87C143.77 107.54 144.21 105.72 144.41 104.81C144.62 103.9 144.89 102.64 145.03 101.99C145.16 101.35 145.36 100.36 145.48 99.79C145.59 99.23 145.79 98.21 145.91 97.53C146.04 96.85 146.23 95.86 146.33 95.33C146.44 94.8 146.65 93.59 146.81 92.65C146.97 91.7 147.16 90.49 147.24 89.97C147.31 89.44 147.43 88.63 147.49 88.18C147.55 87.73 147.7 86.7 147.82 85.91C147.94 85.12 148.19 83.23 148.37 81.72C148.56 80.21 148.77 78.32 148.86 77.53C148.94 76.73 149.07 75.46 149.14 74.71C149.21 73.95 149.33 72.44 149.41 71.34C149.48 70.24 149.61 68.39 149.68 67.22C149.76 66.04 149.89 63.79 149.97 62.2C150.06 60.42 150.09 56.18 150.05 51.13C150.01 46.64 149.92 41.9 149.84 40.62C149.77 39.33 149.64 37.35 149.57 36.22C149.49 35.09 149.39 33.69 149.35 33.13C149.31 32.56 149.21 31.48 149.14 30.72C149.07 29.97 148.94 28.7 148.86 27.9C148.77 27.11 148.56 25.29 148.37 23.85C148.19 22.41 147.97 20.8 147.9 20.27C147.82 19.75 147.7 18.93 147.63 18.45C147.55 17.98 147.42 17.15 147.34 16.6C147.26 16.05 147.07 14.92 146.92 14.09C146.78 13.26 146.56 12.11 146.45 11.55C146.33 10.98 146.23 10.5 146.21 10.49C146.2 10.48 145.05 10.33 143.65 10.17C142.26 10 140.62 9.81 140.02 9.75C139.41 9.69 138.3 9.57 137.55 9.49C136.79 9.4 135.65 9.28 135.01 9.21C134.37 9.14 132.85 8.99 131.65 8.87C130.44 8.75 128.83 8.59 128.08 8.52C127.32 8.44 125.66 8.29 124.37 8.18C123.09 8.07 121.21 7.92 120.19 7.84C119.17 7.76 117.5 7.64 116.49 7.56C115.47 7.49 113.49 7.36 112.09 7.28C110.7 7.21 108.6 7.08 107.43 7.01C106.26 6.93 103.67 6.81 101.67 6.73C99.67 6.65 96.36 6.53 94.33 6.45C92.29 6.38 86.21 6.3 80.81 6.27C75.42 6.25 70.05 6.24 68.88 6.27Z" />
		<path class="shp2" d="M69.66 13.56C69.46 13.59 69.26 13.7 69.22 13.81C69.18 13.93 69.2 16.03 69.25 18.49L69.36 22.96L71.76 22.96C71.76 19.23 71.8 18.14 71.86 18.14C71.92 18.14 72.08 18.4 72.22 18.73C72.36 19.05 72.55 19.5 72.65 19.73C72.75 19.95 72.99 20.55 73.19 21.07L73.54 21.99L75.53 21.92C76.91 18.39 77.18 17.86 77.26 18.01C77.33 18.12 77.38 19.28 77.38 20.58L77.38 22.96C79.71 22.96 79.72 22.95 79.81 22.58C79.86 22.37 79.85 20.28 79.8 17.94C79.73 14.89 79.65 13.65 79.54 13.58C79.45 13.52 78.8 13.47 78.1 13.47C76.93 13.47 76.82 13.5 76.64 13.78C76.53 13.95 76.28 14.49 76.08 14.98C75.88 15.47 75.63 16.06 75.53 16.29C75.44 16.52 75.26 16.92 75.14 17.18C75.03 17.45 74.87 17.83 74.79 18.04C74.7 18.25 74.58 18.42 74.5 18.42C74.43 18.42 74.28 18.19 74.17 17.9C74.07 17.62 73.79 16.97 73.55 16.46C73.32 15.95 72.94 15.12 72.71 14.6C72.47 14.09 72.21 13.63 72.12 13.58C72.03 13.52 71.53 13.48 71 13.49C70.47 13.5 69.87 13.53 69.66 13.56ZM82.06 13.57C81.91 13.67 81.86 14.61 81.79 18.32L81.7 22.96C86.88 22.95 88.04 22.9 88.36 22.78C88.63 22.69 89.03 22.49 89.26 22.35C89.48 22.2 89.72 22.01 89.8 21.93C89.87 21.85 90.03 21.61 90.14 21.39C90.26 21.17 90.34 20.68 90.33 20.29C90.32 19.9 90.21 19.39 90.09 19.14C89.97 18.9 89.7 18.57 89.49 18.41C89.28 18.26 89.05 18.12 88.98 18.1C88.9 18.08 89.09 17.82 89.4 17.52C89.77 17.16 89.98 16.81 90.05 16.46C90.1 16.18 90.1 15.72 90.04 15.44C89.97 15.09 89.76 14.78 89.39 14.46C89.09 14.2 88.59 13.9 88.29 13.79C87.91 13.65 86.9 13.57 85 13.52C83.49 13.48 82.17 13.51 82.06 13.57ZM64.76 13.76C64.5 13.82 64.27 13.89 64.27 13.91C64.26 13.94 64.31 15.93 64.38 18.35C64.45 20.77 64.53 22.83 64.56 22.92C64.6 23.04 64.99 23.09 65.82 23.09C66.48 23.09 67.1 23.04 67.19 22.99C67.32 22.91 67.33 21.91 67.22 18.42C67.14 15.96 67.05 13.87 67.02 13.78C66.98 13.67 66.67 13.61 66.1 13.62C65.63 13.63 65.02 13.69 64.76 13.76ZM92.13 13.7C92.07 13.75 92.03 14.72 92.04 15.86C92.05 17.01 92 18.97 91.92 20.24C91.85 21.51 91.82 22.62 91.85 22.71C91.89 22.81 92.01 22.93 92.13 22.99C92.24 23.05 93.7 23.14 95.36 23.2C97.98 23.29 98.4 23.27 98.52 23.09C98.59 22.98 98.65 22.53 98.65 22.1C98.65 21.66 98.62 21.21 98.58 21.1C98.52 20.93 98.22 20.89 96.97 20.89C96.12 20.89 95.28 20.84 95.1 20.79L94.77 20.69L94.94 13.88C94.15 13.67 93.54 13.61 93.08 13.61C92.62 13.61 92.19 13.65 92.13 13.7ZM60.43 13.84C60.22 13.88 60.11 14.08 59.98 14.68C59.88 15.11 59.74 15.71 59.67 16.01C59.61 16.32 59.46 17.03 59.35 17.59C59.25 18.16 59.12 18.89 59.08 19.21C59.02 19.6 58.93 19.79 58.79 19.79C58.67 19.79 58.56 19.63 58.53 19.42C58.5 19.21 58.41 18.82 58.34 18.56C58.26 18.29 57.94 17.21 57.63 16.15C57.31 15.09 57.03 14.18 57 14.12C56.97 14.07 56.4 14.02 55.74 14.02C55.08 14.02 54.47 14.07 54.38 14.13C54.29 14.18 53.95 15.54 53.62 17.15C53.3 18.76 52.97 20.06 52.91 20.04C52.84 20.02 52.7 19.69 52.59 19.31C52.48 18.93 52.27 18.19 52.12 17.66C51.96 17.13 51.79 16.55 51.73 16.36C51.67 16.17 51.52 15.67 51.4 15.26C51.28 14.84 51.11 14.43 51.01 14.33C50.88 14.21 50.5 14.19 49.67 14.24C49.03 14.28 48.42 14.36 48.32 14.41C48.18 14.48 48.3 14.94 48.84 16.43C49.23 17.48 49.72 18.81 49.94 19.38C50.15 19.95 50.55 21 50.82 21.72C51.09 22.44 51.31 23.1 51.31 23.2C51.31 23.29 51.44 23.43 51.59 23.51C51.76 23.59 52.34 23.6 53.12 23.54C54.28 23.44 54.38 23.41 54.49 23.09C54.56 22.9 54.8 21.85 55.02 20.76C55.25 19.66 55.46 18.62 55.5 18.45C55.54 18.28 55.63 18.16 55.72 18.18C55.8 18.2 55.95 18.46 56.05 18.76C56.16 19.07 56.33 19.65 56.44 20.07C56.55 20.48 56.81 21.35 57 21.99C57.2 22.64 57.44 23.21 57.53 23.26C57.62 23.32 58.16 23.36 58.72 23.36C59.29 23.36 59.88 23.33 60.03 23.29C60.19 23.25 60.37 23.02 60.47 22.71C60.57 22.43 60.96 21.09 61.34 19.73C61.72 18.36 62.15 16.82 62.3 16.29C62.44 15.76 62.63 15.06 62.7 14.74C62.8 14.31 62.8 14.1 62.67 13.95C62.54 13.79 62.27 13.74 61.6 13.76C61.11 13.77 60.59 13.81 60.43 13.84ZM100.38 14.19C100.34 14.36 100.24 16.45 100.16 18.83C100.03 22.41 100.03 23.18 100.18 23.25C100.28 23.3 101.32 23.38 102.49 23.42C103.66 23.47 105.27 23.51 106.06 23.52C106.85 23.53 107.58 23.53 107.67 23.52C107.79 23.51 107.84 23.21 107.84 22.51L107.84 21.51C106.09 21.35 105.05 21.31 104.41 21.31C103.63 21.32 103.19 21.26 103.07 21.14C102.98 21.04 102.91 20.72 102.93 20.41L102.97 19.86C107.27 19.93 107.29 19.93 107.37 19.62C107.41 19.45 107.43 18.97 107.4 18.56L107.36 17.8C104.28 17.68 103.31 17.6 103.21 17.55C103.12 17.5 103.04 17.26 103.04 17.01C103.04 16.76 103.09 16.48 103.14 16.38C103.22 16.23 103.74 16.21 105.58 16.24L107.91 16.29C108.06 14.8 108.06 14.32 108.01 14.28C107.95 14.23 106.4 14.12 104.55 14.03C102.7 13.95 101.02 13.88 100.81 13.88C100.53 13.88 100.42 13.96 100.38 14.19ZM110.15 14.34C110.14 14.35 110 16.44 109.84 18.97C109.61 22.66 109.59 23.59 109.73 23.68C109.82 23.73 111.18 23.8 112.75 23.81L115.59 23.85C117.13 23.11 117.61 22.76 117.92 22.37C118.18 22.05 118.48 21.57 118.59 21.31C118.7 21.04 118.86 20.45 118.94 20C119.05 19.4 119.05 18.95 118.94 18.35C118.86 17.9 118.63 17.22 118.43 16.85C118.23 16.48 117.82 15.98 117.51 15.73C117.21 15.48 116.69 15.16 116.35 15.01C116.01 14.87 115.33 14.68 114.84 14.6C114.35 14.52 113.1 14.42 112.05 14.38C111.01 14.34 110.16 14.32 110.15 14.34ZM37.8 15.04C37.5 15.13 37.05 15.31 36.8 15.44C36.56 15.57 36.1 15.9 35.79 16.19C35.48 16.47 35.09 16.98 34.91 17.32C34.74 17.66 34.52 18.31 34.43 18.76C34.29 19.42 34.28 19.75 34.42 20.41C34.51 20.87 34.73 21.52 34.89 21.86C35.06 22.2 35.46 22.74 35.78 23.06C36.1 23.38 36.56 23.75 36.8 23.87C37.05 24 37.56 24.18 37.94 24.28C38.31 24.38 38.93 24.46 39.31 24.46C39.69 24.46 40.3 24.37 40.68 24.25C41.06 24.14 41.61 23.9 41.92 23.72C42.22 23.55 42.67 23.24 42.91 23.04C43.16 22.84 43.36 22.57 43.36 22.44C43.36 22.31 43.05 21.91 42.67 21.55C42.29 21.19 41.92 20.89 41.85 20.89C41.77 20.89 41.45 21.08 41.13 21.31C40.81 21.54 40.3 21.78 39.99 21.85C39.63 21.94 39.26 21.93 38.9 21.83C38.6 21.75 38.16 21.49 37.93 21.26C37.69 21 37.44 20.54 37.34 20.14C37.19 19.57 37.19 19.35 37.33 18.9C37.43 18.6 37.7 18.15 37.93 17.9C38.16 17.65 38.56 17.38 38.83 17.3C39.09 17.22 39.52 17.19 39.79 17.23C40.05 17.28 40.56 17.5 40.92 17.73C41.28 17.96 41.62 18.14 41.68 18.14C41.73 18.14 42.07 17.72 42.42 17.21C42.77 16.7 43.04 16.23 43 16.15C42.97 16.08 42.68 15.85 42.36 15.65C42.04 15.45 41.44 15.18 41.02 15.06C40.61 14.94 39.84 14.85 39.31 14.85C38.78 14.86 38.1 14.94 37.8 15.04ZM123.89 15.26C123.55 15.31 122.91 15.54 122.47 15.75C122.03 15.97 121.41 16.43 121.11 16.77C120.8 17.11 120.42 17.67 120.28 18.01C120.11 18.39 119.98 19.05 119.94 19.73C119.89 20.65 119.93 20.95 120.21 21.65C120.39 22.1 120.69 22.67 120.88 22.9C121.07 23.13 121.49 23.53 121.83 23.79C122.17 24.05 122.79 24.37 123.2 24.5C123.69 24.66 124.39 24.75 125.16 24.74C126 24.74 126.58 24.66 127.08 24.48C127.49 24.33 128.14 23.92 128.56 23.54C128.99 23.15 129.45 22.57 129.64 22.19C129.82 21.82 130.03 21.14 130.11 20.69C130.22 20.09 130.21 19.66 130.1 19.11C130.01 18.69 129.8 18.08 129.63 17.75C129.46 17.42 129.03 16.89 128.69 16.58C128.35 16.27 127.78 15.87 127.42 15.7C127.07 15.53 126.39 15.33 125.92 15.26C125.45 15.18 124.94 15.13 124.79 15.14C124.64 15.15 124.23 15.2 123.89 15.26ZM31.35 15.41C30.6 15.46 29.27 15.54 28.4 15.6C27.53 15.65 26.59 15.75 26.31 15.82C25.93 15.91 25.79 16.02 25.79 16.22C25.79 16.37 25.86 17.22 25.93 18.11C26.01 19 26.17 20.87 26.28 22.27C26.4 23.88 26.54 24.88 26.65 24.99C26.75 25.09 27.07 25.16 27.37 25.16C27.67 25.16 28.22 25.11 28.59 25.05L29.27 24.95C29.1 22 29.11 21.85 29.33 21.79C29.46 21.76 30.31 21.69 31.21 21.63C32.42 21.55 32.91 21.47 33.05 21.31C33.18 21.16 33.21 20.92 33.15 20.48C33.1 20.14 33.06 19.75 33.06 19.62C33.07 19.4 32.92 19.39 31.02 19.48L28.98 19.59C28.82 18.42 28.81 18.01 28.85 17.94C28.89 17.86 29.59 17.75 30.41 17.69C31.23 17.63 32.19 17.54 32.55 17.49L33.21 17.39C33.21 16.54 33.16 16.09 33.1 15.84C33.04 15.59 32.94 15.38 32.86 15.36C32.78 15.34 32.11 15.36 31.35 15.41Z" />
		<path class="shp1" d="M84.72 15.76C84.66 15.81 84.62 16.15 84.63 16.52L84.65 17.18C86.58 17.19 86.82 17.15 86.98 16.95C87.09 16.81 87.18 16.56 87.19 16.4C87.19 16.23 87.07 16 86.92 15.89C86.74 15.75 86.33 15.68 85.74 15.67C85.24 15.67 84.79 15.71 84.72 15.76Z" />
		<path class="shp2" d="M132.3 16.05C132.2 16.15 132.11 16.28 132.11 16.33C132.12 16.38 132.06 16.98 132 17.66C131.93 18.34 131.78 19.8 131.66 20.89C131.54 21.99 131.38 23.38 131.3 23.99C131.22 24.59 131.2 25.12 131.26 25.17C131.32 25.22 131.84 25.29 132.4 25.34C132.97 25.38 133.5 25.38 133.58 25.32C133.66 25.27 133.77 25.01 133.83 24.74C133.88 24.48 133.98 23.64 134.05 22.89C134.13 22.13 134.22 21.31 134.25 21.07C134.29 20.82 134.37 20.62 134.42 20.62C134.48 20.62 134.81 21.09 135.15 21.67C135.48 22.25 135.92 22.98 136.11 23.29C136.29 23.61 136.73 24.31 137.07 24.86C137.41 25.41 137.78 25.88 137.89 25.91C138 25.94 138.51 25.99 139.02 26.04C139.82 26.11 139.96 26.08 140.07 25.88C140.13 25.74 140.22 25.17 140.27 24.6C140.32 24.04 140.42 23.02 140.49 22.34C140.57 21.66 140.69 20.51 140.77 19.79C140.84 19.08 140.95 18.11 141.01 17.65L141.11 16.8C139.2 16.55 138.61 16.53 138.56 16.59C138.52 16.65 138.38 17.72 138.24 18.97C138.11 20.22 137.98 21.27 137.94 21.31C137.9 21.34 137.78 21.25 137.67 21.1C137.55 20.95 136.85 19.79 136.1 18.52C135.35 17.26 134.63 16.17 134.49 16.1C134.36 16.03 133.86 15.95 133.38 15.92C132.75 15.87 132.45 15.91 132.3 16.05ZM18.76 16.41C17.97 16.54 17.82 16.61 17.71 16.91C17.64 17.1 17.11 18.7 16.52 20.48C15.94 22.26 15.29 24.21 15.08 24.81C14.85 25.47 14.75 25.97 14.82 26.05C14.9 26.14 15.4 26.15 16.22 26.07C16.92 26.01 17.52 25.92 17.56 25.88C17.6 25.84 17.7 25.52 17.78 25.17C17.93 24.58 17.98 24.53 18.47 24.42C18.76 24.36 19.62 24.3 20.37 24.29L21.75 24.26L22.43 25.6C23.92 25.46 24.55 25.39 24.8 25.35C25.04 25.32 25.25 25.21 25.25 25.12C25.25 25.03 25.01 24.48 24.72 23.92C24.43 23.35 23.47 21.46 22.57 19.73C21.68 17.99 20.89 16.48 20.8 16.39C20.72 16.29 20.43 16.22 20.17 16.23C19.9 16.25 19.27 16.33 18.76 16.41Z" />
		<path class="shp1" d="M112.73 17.35C112.69 17.68 112.63 18.74 112.59 19.73L112.52 21.51C113.31 21.67 113.72 21.71 113.95 21.71C114.17 21.71 114.62 21.59 114.94 21.44C115.37 21.24 115.6 21.02 115.8 20.58C115.97 20.24 116.09 19.69 116.1 19.24C116.11 18.69 116.02 18.33 115.78 17.89C115.57 17.51 115.27 17.2 114.94 17.03C114.61 16.86 114.14 16.77 113.61 16.77L112.8 16.77L112.73 17.35ZM123.97 17.9C123.64 18.09 123.31 18.45 123.11 18.83C122.94 19.17 122.79 19.68 122.79 19.97C122.8 20.25 122.9 20.74 123.04 21.05C123.19 21.43 123.48 21.76 123.86 22.02C124.27 22.29 124.62 22.41 125.03 22.41C125.41 22.41 125.77 22.31 126.08 22.1C126.33 21.93 126.66 21.63 126.8 21.44C126.94 21.25 127.12 20.76 127.21 20.34C127.35 19.65 127.34 19.53 127.03 18.91C126.85 18.54 126.52 18.11 126.3 17.96C126.05 17.79 125.6 17.66 125.2 17.63C124.67 17.59 124.38 17.66 123.97 17.9ZM84.8 19.2C84.65 19.25 84.61 19.47 84.63 20.01C84.65 20.53 84.72 20.78 84.86 20.82C84.97 20.86 85.41 20.89 85.82 20.89C86.24 20.89 86.73 20.82 86.93 20.72C87.12 20.63 87.31 20.4 87.36 20.21C87.4 20.02 87.37 19.77 87.3 19.66C87.23 19.54 86.96 19.38 86.7 19.29C86.44 19.2 85.95 19.12 85.61 19.13C85.28 19.13 84.91 19.16 84.8 19.2ZM19.41 19.68C19.35 19.78 19.15 20.39 18.97 21.03C18.8 21.67 18.67 22.21 18.69 22.23C18.71 22.25 19.18 22.22 19.72 22.16C20.27 22.11 20.72 22.03 20.72 21.99C20.72 21.96 20.54 21.54 20.31 21.07C20.08 20.59 19.89 20.16 19.89 20.1C19.89 20.05 19.81 19.89 19.71 19.75C19.57 19.56 19.5 19.54 19.41 19.68Z" />
		<path class="shp0" d="M18.42 32.67C18.33 32.71 18.12 33.03 17.96 33.38C17.79 33.73 17.55 34.33 17.42 34.71C17.29 35.09 17.04 36.08 16.86 36.91C16.58 38.25 16.54 38.79 16.54 41.65C16.53 43.67 16.6 45.32 16.71 46.05C16.81 46.69 16.99 47.68 17.11 48.25C17.22 48.81 17.47 49.87 17.66 50.58C17.84 51.3 18.24 52.63 18.53 53.54C18.83 54.45 19.07 55.24 19.07 55.29C19.07 55.35 18.87 55.36 18.63 55.31C18.38 55.27 17.78 55.04 17.29 54.81C16.8 54.58 15.93 54.07 15.37 53.67C14.4 52.99 14.31 52.96 13.93 53.12C13.67 53.22 13.44 53.46 13.32 53.76C13.17 54.09 13.12 54.74 13.12 55.95C13.13 56.95 13.22 58.12 13.35 58.76C13.47 59.37 13.76 60.45 13.99 61.17C14.23 61.89 14.72 63.09 15.09 63.85C15.46 64.6 16.15 65.81 16.62 66.53C17.1 67.25 17.54 67.94 17.6 68.08C17.68 68.27 17.63 68.32 17.29 68.32C17.06 68.32 16.61 68.19 16.29 68.03C15.97 67.87 15.51 67.59 15.26 67.41C15.02 67.23 14.76 67.08 14.68 67.08C14.61 67.08 14.48 67.2 14.41 67.35C14.33 67.51 14.27 68.11 14.27 68.69C14.27 69.4 14.36 70.06 14.55 70.65C14.71 71.14 15.16 72.23 15.56 73.06C15.96 73.89 16.59 75.03 16.95 75.6C17.32 76.17 17.85 76.96 18.14 77.35C18.42 77.75 18.66 78.14 18.66 78.21C18.66 78.29 18.6 78.35 18.52 78.35C18.45 78.35 18.15 78.25 17.87 78.12C17.59 77.99 17.09 77.71 16.77 77.5C16.45 77.29 16.04 77.11 15.85 77.11C15.62 77.11 15.43 77.24 15.27 77.49C15.09 77.79 15.06 78.04 15.14 78.66C15.19 79.09 15.36 79.81 15.53 80.24C15.69 80.68 16.04 81.4 16.31 81.86C16.57 82.31 17.16 83.06 17.62 83.51C18.08 83.97 18.73 84.54 19.07 84.77C19.41 85 20.14 85.43 20.69 85.72L21.69 86.25C21.2 86.89 20.91 87.22 20.72 87.39C20.53 87.55 20.05 87.82 19.65 87.97C19.26 88.12 18.75 88.25 18.52 88.25C18.25 88.25 18.09 88.33 18.04 88.49C18 88.62 18.03 89.1 18.11 89.55C18.19 90.01 18.42 90.72 18.62 91.13C18.82 91.55 19.33 92.24 19.75 92.66C20.17 93.09 20.85 93.6 21.27 93.8C21.68 93.99 22.19 94.19 22.4 94.23C22.61 94.26 22.78 94.37 22.78 94.47C22.78 94.56 22.58 94.73 22.34 94.84C22.04 94.98 21.52 95.04 20.79 95.02C19.79 95 19.66 95.02 19.35 95.33C19.03 95.64 19.02 95.7 19.19 96.05C19.29 96.26 19.7 96.92 20.1 97.53C20.5 98.13 21.12 98.96 21.49 99.36C21.86 99.77 22.44 100.31 22.78 100.56C23.12 100.8 23.73 101.18 24.15 101.38L24.9 101.76C24.19 102.32 23.9 102.4 23.43 102.4C23.01 102.41 22.77 102.47 22.76 102.58C22.75 102.67 22.75 102.84 22.76 102.96C22.77 103.07 22.85 103.41 22.93 103.71C23.01 104.01 23.3 104.85 23.57 105.57C23.84 106.29 24.3 107.31 24.59 107.84C24.89 108.36 25.38 109.13 25.7 109.54C26.02 109.95 26.58 110.54 26.96 110.86C27.34 111.18 27.96 111.6 28.33 111.79C28.71 111.97 29.36 112.21 29.77 112.3C30.19 112.4 30.6 112.5 30.7 112.53C30.8 112.56 30.83 112.68 30.79 112.82C30.74 112.95 30.4 113.35 30.03 113.71C29.58 114.16 29.37 114.46 29.4 114.66C29.42 114.85 29.79 115.24 30.39 115.7C30.92 116.11 31.91 116.71 32.59 117.05C33.26 117.38 34.19 117.75 34.64 117.86C35.1 117.98 35.9 118.08 36.43 118.07C37.02 118.07 37.45 118.14 37.56 118.25C37.66 118.34 37.74 118.54 37.74 118.69C37.74 118.85 37.61 119.09 37.46 119.24C37.3 119.4 37.18 119.6 37.18 119.69C37.18 119.79 37.38 120.03 37.63 120.23C37.87 120.43 38.38 120.73 38.76 120.89C39.14 121.06 39.82 121.27 40.27 121.37C40.83 121.48 41.69 121.51 42.94 121.46C43.96 121.42 45.07 121.34 45.41 121.3C45.93 121.23 46.11 121.28 46.51 121.56C46.78 121.75 47.14 122.11 47.33 122.36C47.51 122.61 47.77 123.13 47.9 123.51C48.03 123.88 48.22 124.25 48.32 124.32C48.44 124.4 48.99 124.3 49.87 124.06C50.63 123.85 51.96 123.44 52.82 123.16C53.69 122.87 54.96 122.43 55.64 122.19C56.32 121.95 57.74 121.38 58.79 120.93C59.85 120.48 61.05 119.94 61.47 119.73C61.88 119.53 62.65 119.12 63.18 118.83C63.71 118.55 64.74 117.92 65.48 117.44C66.22 116.96 67.37 116.02 68.05 115.36C68.73 114.7 69.32 114.19 69.36 114.23C69.39 114.26 69.37 114.6 69.3 114.98C69.23 115.36 69.11 116.2 69.02 116.84L68.87 118.01C66.59 120.14 64.66 121.91 63.11 123.3C61.57 124.7 59.96 126.14 59.55 126.51C59.13 126.88 58.75 127.26 58.69 127.37C58.62 127.49 58.87 127.99 59.37 128.75C59.81 129.41 60.66 130.7 61.26 131.63C61.86 132.56 62.66 133.84 63.02 134.46C63.38 135.09 63.77 135.73 63.88 135.88C64.02 136.08 64.16 136.13 64.38 136.06C64.55 136.01 65.25 135.54 65.93 135.01C66.61 134.49 67.5 133.72 67.92 133.32C68.34 132.91 69.01 132.21 69.4 131.75C69.8 131.3 70.6 130.22 71.18 129.36C72.12 127.95 72.25 127.82 72.33 128.12C72.38 128.3 72.42 128.73 72.43 129.07C72.43 129.57 72.29 129.97 71.71 131.07C71.31 131.82 70.77 132.81 70.52 133.26C70.27 133.72 69.58 134.86 68.98 135.81C68.38 136.75 67.45 138.11 66.91 138.83C66.37 139.54 65.3 140.75 64.55 141.51L63.17 142.89C63.01 145.02 62.9 146.13 62.84 146.74C62.77 147.34 62.71 148.18 62.7 148.59C62.69 149.01 62.68 149.46 62.69 149.59C62.7 149.73 62.88 149.88 63.15 149.97C63.39 150.04 63.78 150.11 64.01 150.11C64.23 150.11 64.79 150.01 65.24 149.89C65.69 149.77 66.59 149.43 67.23 149.12C67.87 148.81 68.89 148.21 69.49 147.8C70.1 147.38 70.88 146.8 71.24 146.51L71.89 145.98C72.67 147.65 72.68 147.73 72.5 148.18C72.39 148.44 72.04 149.26 71.72 150L71.14 151.35C70.08 151.65 69.12 151.86 68.33 152.01C67.53 152.16 66.24 152.35 65.45 152.43C64.65 152.51 63.03 152.58 61.84 152.58C60.66 152.58 59.11 152.51 58.41 152.44C57.72 152.36 56.45 152.16 55.59 151.99C54.58 151.79 54.01 151.73 53.93 151.82C53.87 151.9 53.72 153.04 53.6 154.36L53.37 156.77C54.38 157.69 55.05 158.21 55.5 158.52C55.95 158.83 56.69 159.26 57.15 159.48C57.6 159.69 58.17 159.89 58.41 159.93C58.66 159.97 58.86 160.08 58.86 160.17C58.86 160.27 58.73 160.56 58.57 160.82C58.41 161.09 58.04 161.77 57.75 162.34C57.47 162.9 57.14 163.65 57.02 163.99C56.9 164.33 56.77 164.98 56.72 165.43C56.67 165.93 56.7 166.5 56.8 166.87C56.9 167.24 57.15 167.65 57.4 167.89C57.64 168.1 58.05 168.39 58.31 168.52C58.58 168.65 59.01 168.8 59.27 168.85C59.55 168.9 60.09 168.85 60.58 168.72C61.03 168.6 61.8 168.32 62.29 168.08C62.78 167.85 63.95 167.15 64.9 166.53C65.84 165.91 67.29 164.89 68.12 164.26C68.95 163.63 70.06 162.77 70.59 162.34C71.12 161.92 71.84 161.37 72.2 161.13C72.62 160.85 72.99 160.7 73.23 160.72C73.57 160.75 73.61 160.8 73.57 161.24C73.55 161.5 73.44 162.03 73.32 162.41C73.19 162.78 72.91 163.49 72.69 163.99C72.46 164.48 72.17 165.16 72.03 165.5C71.9 165.84 71.65 166.77 71.48 167.56C71.23 168.73 71.17 169.45 71.16 171.34C71.16 172.83 71.22 173.95 71.34 174.43C71.44 174.85 71.68 175.65 71.86 176.22C72.05 176.79 72.39 177.59 72.62 178.01C72.84 178.42 73.2 179.01 73.41 179.31C73.62 179.62 74.12 180.2 74.52 180.61C74.93 181.02 75.53 181.57 75.87 181.85C76.21 182.12 76.85 182.54 77.28 182.78C77.95 183.16 78.11 183.21 78.38 183.07C78.55 182.98 79.03 182.68 79.44 182.41C79.86 182.13 80.59 181.53 81.07 181.09C81.56 180.64 82.18 179.97 82.45 179.59C82.73 179.21 83.14 178.56 83.37 178.14C83.6 177.73 83.92 177.05 84.08 176.63C84.24 176.22 84.48 175.47 84.61 174.98C84.81 174.26 84.86 173.55 84.86 171.27C84.86 168.62 84.83 168.36 84.47 166.94C84.25 166.11 84.03 165.37 83.97 165.29C83.92 165.22 83.65 164.63 83.38 163.99C83.1 163.34 82.79 162.51 82.67 162.13C82.56 161.75 82.46 161.27 82.46 161.07C82.46 160.74 82.52 160.69 82.84 160.69C83.04 160.69 83.43 160.82 83.69 160.98C83.96 161.14 84.61 161.63 85.13 162.06C85.66 162.49 86.74 163.34 87.54 163.94C88.33 164.54 89.75 165.56 90.69 166.21C91.63 166.86 92.99 167.67 93.71 168.03C94.45 168.39 95.34 168.72 95.77 168.78C96.2 168.85 96.76 168.84 97.07 168.77C97.37 168.7 97.88 168.48 98.2 168.27C98.52 168.07 98.92 167.66 99.08 167.35C99.32 166.94 99.39 166.58 99.39 165.91C99.39 165.34 99.27 164.67 99.06 164.05C98.89 163.53 98.53 162.69 98.27 162.2C98.01 161.71 97.65 161.04 97.47 160.72C97.17 160.18 97.16 160.13 97.38 160.06C97.51 160.01 97.81 159.91 98.03 159.84C98.26 159.76 98.72 159.57 99.06 159.41C99.4 159.25 100.02 158.89 100.43 158.61C100.85 158.34 101.52 157.81 101.93 157.44L102.67 156.77C102.52 155.07 102.43 153.97 102.38 153.24C102.33 152.51 102.22 151.84 102.15 151.77C102.05 151.67 101.77 151.69 101.26 151.82C100.84 151.93 99.85 152.13 99.06 152.26C97.93 152.45 96.86 152.51 94.12 152.51C91.43 152.51 90.29 152.45 89.18 152.27C88.39 152.13 87.15 151.89 86.44 151.73C85.72 151.57 85.06 151.37 84.97 151.28C84.88 151.2 84.49 150.41 84.11 149.52C83.59 148.31 83.44 147.81 83.51 147.53C83.56 147.32 83.71 146.88 83.85 146.56L84.11 145.98C85.43 147.01 86.28 147.61 86.85 147.97C87.42 148.34 88.34 148.87 88.91 149.15C89.47 149.44 90.31 149.77 90.76 149.88C91.21 150 91.81 150.1 92.1 150.1C92.38 150.1 92.8 150.01 93.02 149.9C93.36 149.73 93.43 149.6 93.43 149.24C93.43 149 93.37 148.18 93.29 147.42C93.22 146.67 93.1 145.34 93.03 144.47L92.9 142.89C90.6 140.54 89.84 139.74 89.73 139.58C89.62 139.43 89.11 138.75 88.61 138.07C88.11 137.39 87.28 136.16 86.77 135.33C86.26 134.49 85.68 133.51 85.48 133.13C85.27 132.75 84.76 131.79 84.33 131L83.55 129.55C83.71 128.22 83.81 127.83 83.87 127.83C83.92 127.83 84.01 127.94 84.06 128.08C84.11 128.21 84.44 128.75 84.79 129.28C85.15 129.81 85.89 130.8 86.46 131.48C87.02 132.16 88.07 133.24 88.79 133.88C89.5 134.53 90.43 135.29 90.84 135.58C91.33 135.92 91.68 136.08 91.86 136.03C92.01 135.99 92.39 135.57 92.69 135.09C93 134.62 93.38 133.98 93.54 133.68C93.69 133.37 94.29 132.42 94.86 131.55C95.44 130.68 96.25 129.47 96.66 128.87C97.07 128.26 97.41 127.66 97.41 127.53C97.41 127.39 96.91 126.84 96.28 126.29C95.66 125.75 94.75 124.93 94.26 124.47C93.76 124.02 93.12 123.42 92.82 123.16C92.51 122.89 91.59 122.05 90.76 121.3C89.93 120.55 89.03 119.74 88.77 119.5C88.51 119.26 88.05 118.86 87.76 118.6C87.24 118.15 87.23 118.14 86.98 116.36C86.83 115.37 86.71 114.48 86.71 114.36C86.71 114.25 87.21 114.65 87.84 115.26C88.47 115.86 89.38 116.63 89.87 116.96C90.36 117.3 91.16 117.82 91.65 118.12C92.14 118.42 93.39 119.09 94.43 119.61C95.47 120.13 97.23 120.91 98.34 121.36C99.45 121.8 101.07 122.41 101.94 122.71C102.81 123.02 103.98 123.4 104.55 123.57C105.11 123.74 105.84 123.96 106.16 124.07C106.48 124.17 106.98 124.3 107.26 124.35C107.77 124.43 107.77 124.43 108.03 123.76C108.17 123.39 108.44 122.85 108.64 122.56C108.84 122.26 109.24 121.83 109.53 121.59L110.06 121.17C111.8 121.43 112.98 121.51 113.81 121.51C114.64 121.5 115.66 121.42 116.07 121.32C116.49 121.22 117.11 121 117.45 120.83C117.79 120.66 118.26 120.37 118.51 120.19C118.75 120.01 118.96 119.8 118.96 119.73C118.96 119.65 118.8 119.42 118.61 119.21C118.42 119 118.26 118.77 118.26 118.69C118.26 118.62 118.34 118.46 118.44 118.33C118.57 118.16 118.94 118.09 119.98 118.03C120.88 117.98 121.62 117.85 122.11 117.67C122.53 117.51 123.14 117.24 123.48 117.08C123.82 116.91 124.53 116.49 125.06 116.13C125.59 115.78 126.19 115.33 126.4 115.13C126.73 114.82 126.76 114.73 126.64 114.36C126.56 114.14 126.44 113.95 126.36 113.95C126.29 113.95 126.01 113.74 125.75 113.47C125.48 113.21 125.27 112.87 125.27 112.71C125.27 112.51 125.36 112.44 125.64 112.44C125.85 112.44 126.39 112.32 126.84 112.16C127.3 112.01 127.95 111.7 128.28 111.48C128.62 111.26 129.25 110.72 129.68 110.28C130.11 109.84 130.73 109.05 131.06 108.52C131.39 107.99 131.76 107.34 131.88 107.08C132 106.81 132.19 106.38 132.31 106.12C132.43 105.85 132.68 105.17 132.87 104.6C133.06 104.04 133.26 103.31 133.32 102.99L133.43 102.4C132.31 102.4 131.84 102.31 131.65 102.2C131.46 102.09 131.31 101.92 131.31 101.82C131.31 101.73 131.7 101.47 132.17 101.24C132.67 101 133.41 100.46 133.98 99.92C134.51 99.42 135.26 98.55 135.64 97.99C136.03 97.43 136.48 96.74 136.64 96.46C136.8 96.18 136.93 95.85 136.93 95.74C136.93 95.63 136.82 95.42 136.7 95.29C136.52 95.1 136.24 95.05 135.36 95.05C134.67 95.05 134.08 94.97 133.8 94.85C133.55 94.73 133.35 94.58 133.36 94.5C133.36 94.43 133.68 94.25 134.08 94.1C134.48 93.96 135.03 93.7 135.32 93.52C135.6 93.34 136.11 92.9 136.45 92.54C136.79 92.18 137.23 91.58 137.41 91.2C137.6 90.82 137.85 90.12 137.97 89.64C138.09 89.15 138.15 88.66 138.11 88.54C138.06 88.39 137.78 88.28 137.31 88.21C136.91 88.15 136.32 87.97 135.99 87.8C135.66 87.63 135.18 87.26 134.92 86.98C134.67 86.69 134.46 86.4 134.46 86.32C134.46 86.25 134.81 86.01 135.25 85.8C135.68 85.59 136.41 85.17 136.86 84.86C137.31 84.55 138.12 83.84 138.64 83.28C139.17 82.71 139.77 81.92 139.98 81.5C140.18 81.09 140.44 80.48 140.56 80.14C140.68 79.8 140.84 79.05 140.92 78.49C141.04 77.56 141.03 77.44 140.81 77.29C140.67 77.2 140.36 77.12 140.12 77.12C139.87 77.12 139.66 77.16 139.64 77.22C139.62 77.27 139.42 77.43 139.19 77.57C138.97 77.71 138.52 77.94 138.2 78.08C137.88 78.23 137.57 78.32 137.51 78.27C137.46 78.23 137.5 78.05 137.61 77.87C137.73 77.68 138.19 76.99 138.64 76.33C139.09 75.66 139.87 74.32 140.37 73.33C140.88 72.32 141.41 71.04 141.58 70.38C141.8 69.57 141.88 68.94 141.85 68.36C141.82 67.85 141.72 67.41 141.59 67.28C141.4 67.07 141.34 67.08 140.77 67.46C140.43 67.68 139.95 67.97 139.71 68.09C139.46 68.21 139.08 68.32 138.85 68.32C138.62 68.32 138.44 68.25 138.44 68.18C138.44 68.1 138.68 67.69 138.97 67.25C139.26 66.82 139.71 66.12 139.97 65.7C140.23 65.29 140.7 64.42 141.01 63.78C141.32 63.14 141.76 62.09 141.99 61.44C142.21 60.8 142.5 59.75 142.64 59.11C142.81 58.31 142.89 57.36 142.89 56.08C142.9 55.06 142.85 54.06 142.79 53.85C142.74 53.64 142.6 53.38 142.49 53.26C142.37 53.15 142.11 53.06 141.9 53.06C141.68 53.06 141.24 53.27 140.83 53.57C140.45 53.86 139.98 54.18 139.8 54.29C139.62 54.4 139.19 54.62 138.85 54.79C138.51 54.95 137.97 55.17 137.65 55.28C137.33 55.38 137.05 55.43 137.01 55.4C136.98 55.36 137.2 54.58 137.51 53.68C137.81 52.77 138.2 51.47 138.37 50.79C138.54 50.11 138.81 48.93 138.96 48.18C139.12 47.42 139.32 46.34 139.4 45.77C139.49 45.21 139.58 43.6 139.6 42.2C139.64 40.27 139.59 39.26 139.4 38.01C139.26 37.09 138.92 35.66 138.63 34.78C138.32 33.84 137.98 33.07 137.79 32.89C137.56 32.65 137.38 32.6 137.1 32.67C136.89 32.71 136.71 32.76 136.69 32.77C136.68 32.78 136.59 33.77 136.51 34.98C136.43 36.19 136.24 38.08 136.09 39.18C135.94 40.27 135.64 41.91 135.42 42.82C135.21 43.73 134.84 45.05 134.59 45.77C134.35 46.49 133.8 47.76 133.37 48.59C132.94 49.42 132.28 50.49 131.91 50.97C131.54 51.44 131.19 51.83 131.13 51.83C131.08 51.82 131.03 51.81 131.03 51.79C131.03 51.77 131.18 51.23 131.37 50.58C131.56 49.94 131.81 48.74 131.94 47.9C132.11 46.74 132.14 45.84 132.08 43.99C132.04 42.66 131.95 41.36 131.88 41.1C131.81 40.84 131.68 40.28 131.58 39.86C131.49 39.45 131.29 38.74 131.14 38.28C130.98 37.83 130.76 37.27 130.65 37.04C130.54 36.82 130.39 36.6 130.33 36.56C130.27 36.53 130.02 36.52 129.77 36.56C129.38 36.61 129.23 36.76 128.71 37.59C128.38 38.12 127.42 39.58 126.56 40.82C125.71 42.07 124.19 44.11 123.19 45.36C122.19 46.61 121.23 47.78 121.06 47.97C120.88 48.16 120.48 48.64 120.15 49.03C119.83 49.42 118.25 51.06 116.62 52.67C115 54.29 113.09 56.09 112.37 56.68C111.65 57.28 110.94 57.86 110.79 57.99C110.64 58.11 110.05 58.56 109.49 58.98C108.92 59.41 107.75 60.22 106.88 60.79C106.01 61.36 104.78 62.13 104.14 62.5C103.5 62.86 102.23 63.52 101.32 63.95C100.42 64.38 98.78 65.04 97.69 65.42C96.59 65.81 95.02 66.45 94.19 66.86C93.36 67.27 92.28 67.9 91.79 68.26C91.3 68.63 90.56 69.27 90.16 69.69C89.75 70.11 89.13 70.88 88.79 71.41C88.45 71.94 87.93 72.96 87.65 73.68L87.13 74.98C87.13 73.97 87.25 72.98 87.39 72.13C87.54 71.28 87.76 70.15 87.88 69.62C88.01 69.09 88.29 68.07 88.52 67.35C88.75 66.64 89.19 65.4 89.5 64.6C89.8 63.81 90.3 62.67 90.59 62.06C90.89 61.46 91.48 60.37 91.9 59.66C92.33 58.94 93.16 57.7 93.76 56.91C94.58 55.82 95.2 54.76 96.25 52.65C97.01 51.1 97.83 49.5 98.07 49.11C98.32 48.71 98.51 48.34 98.52 48.28C98.52 48.23 98.67 47.98 98.86 47.73C99.06 47.46 99.28 47.31 99.4 47.35C99.52 47.39 99.61 47.36 99.61 47.29C99.61 47.2 99.79 47.19 100.12 47.27C100.41 47.34 101.04 47.46 101.53 47.55C102.02 47.63 103.56 47.88 104.96 48.11C106.36 48.33 107.87 48.52 108.32 48.52C108.96 48.52 109.15 48.48 109.15 48.32C109.15 48.2 109.05 48.11 108.94 48.11C108.83 48.11 107.44 47.8 105.85 47.41C104.27 47.03 102.85 46.66 102.7 46.6C102.55 46.54 102.18 46.43 101.87 46.35C101.57 46.27 101.06 46.17 100.74 46.13C100.31 46.07 100.16 45.99 100.16 45.81C100.16 45.68 100.58 44.92 101.1 44.12C101.62 43.33 102.37 42.32 102.78 41.87C103.19 41.43 103.71 40.97 103.93 40.86C104.16 40.74 104.39 40.58 104.45 40.5C104.51 40.41 104.51 39.97 104.46 39.52C104.41 39.07 104.29 38.51 104.2 38.28C104.1 38.05 103.86 37.65 103.66 37.39C103.46 37.12 103.07 36.74 102.79 36.54C102.51 36.34 101.88 36.05 101.39 35.89C100.69 35.66 100.16 35.6 98.92 35.6C97.73 35.6 96.96 35.69 95.77 35.96C94.9 36.16 93.6 36.52 92.89 36.77C92.17 37.01 90.97 37.46 90.21 37.77C89.46 38.07 88.35 38.55 87.74 38.84C87.05 39.16 86.37 39.38 85.89 39.42C85.36 39.47 85 39.42 84.69 39.26C84.44 39.14 84.1 38.85 83.93 38.62C83.75 38.38 83.5 38.21 83.33 38.21C83.16 38.21 82.93 38.31 82.81 38.42C82.69 38.53 82.6 38.67 82.6 38.73C82.6 38.79 82.79 39.39 83.02 40.07C83.25 40.75 83.54 42.02 83.66 42.89C83.85 44.24 83.86 44.64 83.7 45.7C83.61 46.38 83.39 47.37 83.22 47.9C83.04 48.43 82.67 49.48 82.4 50.24C82.12 51 81.34 53.25 80.68 55.26C80.01 57.26 79.33 59.36 79.16 59.93C78.99 60.5 78.78 61.21 78.69 61.51C78.59 61.81 78.45 62.39 78.36 62.78C78.28 63.18 78.14 63.54 78.07 63.57C77.99 63.61 77.86 63.38 77.78 63.06C77.7 62.74 77.39 61.61 77.08 60.55C76.78 59.49 76.05 57.17 75.46 55.4C74.87 53.62 74.17 51.58 73.91 50.86C73.65 50.14 73.28 49.12 73.09 48.59C72.9 48.06 72.66 47.29 72.56 46.87C72.44 46.4 72.38 45.39 72.39 44.19C72.4 42.56 72.46 42.08 72.76 41.03C72.96 40.35 73.2 39.53 73.29 39.2C73.46 38.65 73.45 38.59 73.2 38.4C73.05 38.3 72.82 38.21 72.68 38.21C72.55 38.21 72.34 38.37 72.2 38.57C72.07 38.77 71.76 39.04 71.52 39.19C71.24 39.35 70.82 39.45 70.42 39.45C70.05 39.45 69.44 39.3 69.01 39.12C68.6 38.94 67.55 38.49 66.68 38.11C65.81 37.73 64.27 37.14 63.25 36.8C62.23 36.45 60.75 36.04 59.96 35.88C59.04 35.7 58 35.6 57.08 35.6C56.25 35.6 55.32 35.69 54.88 35.81C54.47 35.92 53.85 36.18 53.51 36.4C53.17 36.61 52.68 37.07 52.41 37.42C52.15 37.77 51.85 38.34 51.76 38.68C51.67 39.03 51.59 39.62 51.59 40C51.59 40.6 51.63 40.69 51.9 40.75C52.07 40.78 52.52 41.1 52.9 41.47C53.28 41.83 53.84 42.47 54.14 42.89C54.45 43.3 54.98 44.09 55.34 44.64C55.69 45.19 55.98 45.73 55.98 45.84C55.98 45.98 55.79 46.07 55.4 46.13C55.08 46.17 54.57 46.27 54.26 46.35C53.96 46.43 53.59 46.54 53.44 46.6C53.29 46.66 51.99 46.99 50.56 47.34C49.13 47.68 47.71 48 47.4 48.05C47.05 48.1 46.85 48.21 46.85 48.34C46.85 48.51 47.06 48.54 48.09 48.49C48.77 48.45 50.28 48.26 51.45 48.06C52.62 47.86 53.89 47.64 54.26 47.56C54.64 47.49 55.38 47.39 55.91 47.34C56.64 47.27 56.91 47.3 57.03 47.44C57.11 47.54 57.31 47.86 57.47 48.14C57.63 48.43 57.9 48.89 58.06 49.18C58.22 49.46 59.05 51.08 59.9 52.78C60.75 54.48 61.59 56.03 61.77 56.22C61.94 56.41 62.27 56.81 62.5 57.11C62.72 57.42 63.21 58.13 63.58 58.69C63.95 59.26 64.67 60.53 65.17 61.51C65.67 62.49 66.2 63.61 66.36 63.99C66.52 64.36 66.9 65.42 67.2 66.32C67.51 67.23 67.91 68.59 68.1 69.35C68.29 70.1 68.54 71.25 68.66 71.89C68.77 72.53 68.92 73.51 68.98 74.06C69.03 74.61 69.04 75.05 68.98 75.05C68.92 75.05 68.75 74.63 68.59 74.12C68.43 73.61 68.09 72.79 67.84 72.3C67.58 71.81 67.03 70.99 66.62 70.48C66.2 69.97 65.47 69.23 65 68.84C64.53 68.46 63.93 68 63.66 67.83C63.4 67.67 62.78 67.31 62.29 67.05C61.8 66.79 60.72 66.31 59.89 65.99C59.06 65.66 58.01 65.28 57.56 65.13C57.1 64.98 56.52 64.77 56.25 64.65C55.99 64.53 55.06 64.09 54.2 63.68C53.33 63.26 51.81 62.43 50.83 61.85C49.85 61.26 48.18 60.14 47.11 59.36C46.04 58.58 44.38 57.26 43.41 56.43C42.44 55.59 40.91 54.2 40.01 53.33C39.11 52.46 37.66 50.95 36.78 49.97C35.9 48.98 34.69 47.59 34.08 46.87C33.48 46.15 32.71 45.2 32.38 44.76C32.04 44.32 31.33 43.36 30.79 42.63C30.26 41.9 29.3 40.53 28.66 39.59C28.02 38.64 27.34 37.6 27.16 37.28C26.91 36.84 26.7 36.66 26.34 36.56C26.08 36.5 25.82 36.47 25.76 36.5C25.7 36.54 25.57 36.73 25.46 36.94C25.36 37.15 25.11 37.78 24.92 38.35C24.73 38.92 24.44 40.03 24.28 40.82C24.12 41.62 23.95 43.01 23.91 43.92C23.87 44.82 23.91 46.19 23.99 46.94C24.07 47.7 24.35 49.15 24.61 50.17L25.09 52.03C24.14 50.96 23.56 50.14 23.18 49.52C22.81 48.9 22.5 48.35 22.5 48.32C22.5 48.28 22.32 47.86 22.11 47.39C21.89 46.92 21.53 45.94 21.3 45.22C21.07 44.51 20.79 43.52 20.67 43.02C20.56 42.53 20.4 41.82 20.32 41.44C20.25 41.07 20.12 40.32 20.04 39.79C19.97 39.26 19.84 38.21 19.77 37.46C19.69 36.7 19.6 35.36 19.56 34.47C19.49 32.9 19.47 32.85 19.14 32.71C18.95 32.64 18.75 32.58 18.69 32.59C18.64 32.59 18.51 32.63 18.42 32.67Z" />
		<path class="shp3" d="M44.32 40.43C43.9 40.5 43.25 40.65 42.88 40.78C42.5 40.9 41.88 41.2 41.5 41.45C41.09 41.72 40.69 42.14 40.49 42.5C40.26 42.9 40.13 43.38 40.09 43.99C40.06 44.48 40.1 45.14 40.19 45.46C40.27 45.79 40.4 46.05 40.47 46.05C40.55 46.05 40.78 45.9 40.99 45.72C41.2 45.54 41.66 45.29 42.02 45.17C42.38 45.05 42.9 44.95 43.18 44.95C43.47 44.95 44.07 45.04 44.52 45.16C44.98 45.28 45.41 45.43 45.48 45.48C45.56 45.54 46.05 45.72 46.58 45.88C47.11 46.04 47.88 46.23 48.3 46.32C48.71 46.4 49.67 46.48 50.42 46.5C51.18 46.51 52.29 46.51 52.89 46.48C53.5 46.45 54.17 46.38 54.4 46.31C54.63 46.25 55.04 46.16 55.33 46.12C55.61 46.08 55.88 45.97 55.92 45.88C55.96 45.78 55.7 45.24 55.35 44.67C54.99 44.11 54.44 43.3 54.14 42.89C53.83 42.47 53.42 41.96 53.23 41.75C53.05 41.53 52.68 41.2 52.41 41.02C52.03 40.75 51.61 40.64 50.35 40.48C49.49 40.37 47.94 40.29 46.92 40.3C45.9 40.3 44.73 40.36 44.32 40.43ZM106.2 40.41C105.7 40.48 105.09 40.55 104.82 40.59C104.56 40.62 104.16 40.74 103.93 40.85C103.71 40.97 103.19 41.43 102.78 41.87C102.37 42.32 101.62 43.33 101.1 44.12C100.58 44.92 100.16 45.64 100.16 45.74C100.16 45.83 100.24 45.95 100.33 46C100.42 46.05 100.81 46.14 101.19 46.21C101.56 46.27 102.15 46.36 102.49 46.4C102.83 46.43 103.91 46.48 104.89 46.49C105.95 46.51 107.1 46.44 107.7 46.33C108.27 46.22 109.32 45.92 110.04 45.66C110.75 45.4 111.68 45.13 112.09 45.05C112.51 44.97 113.13 44.95 113.47 44.99C113.84 45.04 114.37 45.27 114.8 45.56C115.2 45.83 115.57 46.03 115.63 46C115.68 45.97 115.81 45.66 115.9 45.31C116 44.96 116.07 44.46 116.07 44.19C116.07 43.93 115.95 43.39 115.81 42.99C115.65 42.54 115.34 42.09 115.02 41.8C114.73 41.54 114.22 41.2 113.88 41.05C113.54 40.9 112.95 40.69 112.58 40.58C112.13 40.46 111.04 40.37 109.49 40.34C108.17 40.32 106.69 40.35 106.2 40.41ZM57.49 41.55C57.24 41.72 56.92 42.04 56.79 42.27C56.66 42.49 56.54 42.84 56.53 43.02C56.53 43.21 56.63 43.48 56.76 43.61C56.9 43.74 57.25 43.89 57.56 43.94C57.86 43.98 58.32 43.96 58.59 43.87C58.88 43.78 59.38 43.4 59.85 42.89C60.29 42.44 60.64 41.94 60.64 41.79C60.64 41.6 60.51 41.47 60.2 41.37C59.95 41.3 59.35 41.23 58.85 41.23C58.15 41.24 57.85 41.3 57.49 41.55ZM95.78 41.44C95.52 41.55 95.32 41.7 95.34 41.78C95.35 41.86 95.59 42.22 95.88 42.58C96.16 42.94 96.61 43.38 96.87 43.57C97.14 43.76 97.61 43.93 97.96 43.97C98.43 44.01 98.71 43.96 99.09 43.73C99.56 43.46 99.6 43.4 99.53 42.99C99.49 42.74 99.34 42.39 99.21 42.2C99.08 42.01 98.76 41.71 98.5 41.54C98.13 41.29 97.85 41.23 97.14 41.24C96.65 41.24 96.04 41.34 95.78 41.44ZM55.76 48.08C55.24 48.51 54.53 49.06 54.2 49.29C53.86 49.53 53.21 49.92 52.75 50.16C52.3 50.41 51.53 50.74 51.04 50.89C50.55 51.05 49.77 51.19 49.32 51.19C48.67 51.2 48.33 51.12 47.74 50.82C47.25 50.57 46.94 50.48 46.85 50.57C46.76 50.66 46.84 50.91 47.08 51.3C47.28 51.62 47.66 52.09 47.94 52.34C48.21 52.58 48.7 52.92 49.02 53.08C49.34 53.24 49.85 53.46 50.15 53.56C50.45 53.67 51.13 53.85 51.66 53.96C52.19 54.07 52.9 54.16 53.23 54.16C53.57 54.16 54.25 54.07 54.74 53.96C55.23 53.85 55.82 53.71 56.05 53.63C56.27 53.56 56.77 53.36 57.15 53.2C57.52 53.03 58.19 52.65 58.62 52.36C59.32 51.88 59.4 51.79 59.29 51.51C59.22 51.34 59.01 50.92 58.83 50.58C58.64 50.24 58.33 49.69 58.14 49.35C57.96 49.01 57.66 48.48 57.49 48.18C57.32 47.88 57.11 47.55 57.03 47.45C56.94 47.35 56.83 47.28 56.79 47.28C56.74 47.28 56.28 47.64 55.76 48.08ZM98.85 47.74C98.65 48 98.5 48.25 98.5 48.29C98.51 48.34 98.32 48.71 98.08 49.11C97.85 49.5 97.45 50.21 97.19 50.69C96.94 51.16 96.73 51.62 96.73 51.72C96.73 51.81 97.05 52.11 97.45 52.37C97.84 52.64 98.63 53.06 99.2 53.29C99.76 53.53 100.67 53.83 101.22 53.94C101.77 54.06 102.48 54.16 102.8 54.16C103.12 54.16 103.81 54.07 104.34 53.97C104.87 53.86 105.61 53.67 105.99 53.54C106.37 53.41 106.86 53.21 107.09 53.09C107.31 52.97 107.8 52.59 108.17 52.24C108.53 51.9 108.91 51.46 109.01 51.27C109.12 51.06 109.15 50.85 109.08 50.72C108.98 50.54 108.87 50.55 108.3 50.81C107.93 50.98 107.42 51.15 107.16 51.2C106.88 51.25 106.28 51.2 105.72 51.07C105.19 50.95 104.35 50.66 103.86 50.42C103.37 50.18 102.54 49.7 102.01 49.35C101.48 48.99 100.66 48.38 100.19 47.99C99.72 47.6 99.31 47.29 99.27 47.29C99.24 47.29 99.05 47.49 98.85 47.74Z" />
		<path fill-rule="evenodd" class="shp4" d="M109.83 72.44C109.91 72.44 110.26 72.79 110.61 73.23C110.97 73.66 111.61 74.45 112.03 74.98C112.45 75.51 112.87 76.04 112.96 76.15C113.05 76.26 113.42 76.74 113.78 77.22C114.13 77.69 114.41 78.15 114.38 78.25C114.35 78.34 113.72 79.18 112.97 80.11C112.23 81.04 111.54 81.83 111.44 81.86C111.35 81.9 110.98 81.55 110.62 81.1C110.26 80.64 109.89 80.24 109.8 80.2C109.7 80.16 108.25 81.88 106.3 84.35C104.47 86.67 102.89 88.64 102.8 88.75C102.71 88.85 102.63 89.01 102.63 89.11C102.62 89.2 102.73 89.4 102.87 89.55C103 89.71 103.34 90.12 103.62 90.48C103.91 90.84 104.12 91.19 104.1 91.26C104.08 91.34 103.45 92.17 102.7 93.12C101.94 94.07 101.25 94.85 101.15 94.85C101.06 94.85 100.44 94.16 99.78 93.31C99.12 92.47 98.13 91.23 97.59 90.56C97.04 89.89 96.59 89.27 96.59 89.18C96.59 89.08 96.91 88.6 97.3 88.11C97.7 87.62 100.12 84.56 102.69 81.31C105.25 78.05 107.73 74.93 108.18 74.36C108.64 73.79 109.16 73.12 109.35 72.88C109.54 72.64 109.76 72.44 109.83 72.44ZM37.38 74.56C37.61 74.61 38.13 74.82 38.53 75.02C38.92 75.23 39.28 75.47 39.31 75.57C39.35 75.66 39.24 76.05 39.07 76.43C38.82 76.99 38.7 77.12 38.42 77.11C38.23 77.11 37.89 77.15 37.66 77.2C37.3 77.27 37.23 77.23 37.09 76.89C37 76.67 36.89 76.15 36.84 75.74C36.79 75.32 36.8 74.87 36.86 74.73C36.94 74.53 37.06 74.49 37.38 74.56ZM46.65 74.52C49.26 74.52 50.32 74.57 50.83 74.71C51.21 74.82 51.78 75.09 52.1 75.32C52.42 75.55 52.84 75.94 53.03 76.19C53.21 76.43 53.41 76.85 53.46 77.11C53.5 77.38 53.48 77.73 53.39 77.9C53.3 78.07 52.79 78.54 52.25 78.93C51.71 79.33 51.15 79.81 51.01 80C50.84 80.23 50.76 80.57 50.76 81C50.76 81.49 50.84 81.72 51.07 81.94C51.31 82.17 51.5 82.22 51.86 82.17C52.13 82.13 52.5 82.01 52.69 81.89C52.87 81.77 53.16 81.41 53.32 81.08C53.49 80.75 53.69 80.23 53.78 79.93C53.87 79.63 54.01 79.2 54.1 78.98C54.19 78.77 54.43 78.5 54.64 78.4C54.88 78.28 55.21 78.25 55.53 78.3C55.82 78.35 56.33 78.53 56.66 78.7C57 78.87 57.44 79.19 57.64 79.4C57.83 79.62 58.12 79.98 58.27 80.21C58.42 80.43 58.67 80.96 58.83 81.37C58.99 81.79 59.22 82.53 59.34 83.02C59.46 83.52 59.74 84.38 59.95 84.95C60.17 85.52 60.42 86.23 60.52 86.53C60.61 86.83 60.68 87.54 60.68 88.11C60.67 88.73 60.58 89.35 60.45 89.66C60.33 89.94 60.03 90.4 59.79 90.67C59.54 90.95 59.2 91.22 59.03 91.29C58.86 91.36 58.55 91.36 58.35 91.29C58.14 91.23 57.54 90.86 57.01 90.48C56.47 90.09 55.84 89.75 55.57 89.7C55.3 89.66 54.87 89.7 54.61 89.8C54.34 89.89 54.06 90.12 53.97 90.31C53.86 90.54 53.85 90.78 53.94 91.07C54.01 91.29 54.18 91.6 54.32 91.75C54.46 91.9 54.82 92.1 55.11 92.2C55.4 92.29 56.17 92.35 56.83 92.33C57.87 92.31 58.07 92.34 58.31 92.58C58.47 92.73 58.65 93.12 58.73 93.44C58.81 93.81 58.81 94.26 58.73 94.67C58.66 95.03 58.51 95.56 58.39 95.84C58.27 96.13 57.82 96.7 57.39 97.13C56.95 97.55 56.32 98.05 55.98 98.25C55.64 98.44 55.05 98.83 54.68 99.11C54.3 99.38 53.9 99.7 53.78 99.82C53.67 99.93 53.21 100.27 52.75 100.58C52.3 100.9 51.7 101.25 51.42 101.37C51.1 101.5 50.5 101.58 49.84 101.58C49.07 101.58 48.61 101.5 48.19 101.3C47.87 101.15 47.55 100.91 47.47 100.76C47.4 100.6 47.33 100.31 47.33 100.1C47.33 99.9 47.49 99.26 47.68 98.69C47.87 98.13 48.02 97.49 48.02 97.29C48.02 97.08 47.94 96.74 47.83 96.53C47.73 96.32 47.48 96.04 47.28 95.91C47.09 95.78 46.83 95.67 46.72 95.67C46.6 95.67 46.35 95.78 46.15 95.91C45.95 96.04 45.71 96.32 45.6 96.53C45.5 96.74 45.41 97.09 45.41 97.32C45.41 97.55 45.57 98.18 45.76 98.73C45.94 99.28 46.1 99.9 46.1 100.1C46.1 100.31 46.04 100.6 45.96 100.76C45.89 100.91 45.56 101.15 45.24 101.3C44.81 101.5 44.36 101.58 43.53 101.58C42.55 101.58 42.3 101.53 41.68 101.2C41.28 100.98 40.6 100.54 40.16 100.2C39.72 99.86 39.1 99.38 38.78 99.14C38.47 98.89 37.99 98.57 37.73 98.43C37.47 98.29 36.91 97.9 36.5 97.56C36.08 97.22 35.57 96.7 35.36 96.41C35.15 96.12 34.89 95.51 34.78 95.05C34.65 94.53 34.61 94 34.67 93.61C34.72 93.27 34.9 92.84 35.07 92.65C35.36 92.32 35.45 92.3 36.59 92.33C37.25 92.35 38.04 92.29 38.33 92.2C38.63 92.1 39.01 91.86 39.19 91.65C39.41 91.39 39.51 91.1 39.51 90.72C39.51 90.27 39.45 90.13 39.14 89.94C38.93 89.81 38.48 89.7 38.13 89.7C37.58 89.69 37.38 89.78 36.52 90.41C35.98 90.81 35.38 91.2 35.19 91.27C35 91.35 34.69 91.36 34.49 91.31C34.29 91.25 33.91 90.97 33.66 90.69C33.41 90.4 33.1 89.94 32.98 89.66C32.83 89.32 32.75 88.76 32.75 88.04C32.75 87.19 32.84 86.71 33.13 85.91C33.33 85.34 33.66 84.38 33.84 83.78C34.03 83.18 34.28 82.37 34.4 81.99C34.51 81.62 34.75 81 34.92 80.62C35.1 80.24 35.48 79.71 35.77 79.43C36.05 79.15 36.54 78.81 36.84 78.66C37.14 78.51 37.62 78.35 37.9 78.3C38.27 78.24 38.53 78.28 38.83 78.45C39.05 78.59 39.3 78.85 39.37 79.04C39.44 79.23 39.6 79.72 39.72 80.14C39.84 80.55 40.05 81.08 40.19 81.31C40.33 81.53 40.67 81.83 40.94 81.96C41.21 82.09 41.57 82.2 41.74 82.2C41.91 82.2 42.17 82.13 42.3 82.03C42.46 81.92 42.58 81.61 42.63 81.24C42.68 80.81 42.63 80.48 42.48 80.17C42.36 79.92 41.81 79.39 41.23 78.97C40.66 78.55 40.12 78.04 40.01 77.84C39.87 77.55 39.86 77.35 39.96 77.04C40.04 76.82 40.25 76.43 40.43 76.19C40.6 75.94 40.98 75.57 41.26 75.36C41.54 75.15 42.08 74.88 42.46 74.76C43.03 74.57 43.78 74.53 46.65 74.52ZM56.29 74.51C56.42 74.51 56.56 74.61 56.6 74.74C56.65 74.87 56.64 75.32 56.59 75.74C56.55 76.15 56.44 76.67 56.35 76.89C56.21 77.23 56.13 77.27 55.77 77.2C55.55 77.15 55.21 77.11 55.02 77.11C54.74 77.11 54.61 76.99 54.37 76.46C54.2 76.1 54.06 75.73 54.06 75.64C54.06 75.54 54.26 75.34 54.5 75.2C54.75 75.05 55.2 74.84 55.5 74.72C55.8 74.61 56.16 74.52 56.29 74.51ZM101.47 75.05C101.58 75.05 102.13 75.64 102.7 76.36C103.26 77.08 103.73 77.73 103.73 77.8C103.73 77.88 103.11 78.71 102.35 79.66C101.6 80.6 100.92 81.37 100.84 81.37C100.77 81.37 100.25 80.8 99.7 80.1C99.15 79.4 98.65 78.75 98.6 78.66C98.55 78.56 98.91 77.99 99.47 77.29C100 76.62 100.62 75.85 100.85 75.57C101.08 75.28 101.36 75.05 101.47 75.05ZM118.42 75.46C118.49 75.46 118.68 75.61 118.85 75.78C119.02 75.96 119.53 76.58 119.98 77.17C120.44 77.75 120.83 78.28 120.85 78.33C120.87 78.38 120.47 78.95 119.96 79.61C119.44 80.26 118 82.08 116.75 83.66C115.5 85.24 114.3 86.76 114.08 87.05C113.85 87.34 113.58 87.57 113.47 87.57C113.35 87.57 112.8 86.98 112.23 86.26C111.67 85.53 111.19 84.85 111.17 84.74C111.15 84.63 112.74 82.49 114.71 80C116.68 77.51 118.35 75.46 118.42 75.46Z" />
		<path class="shp0" d="M41.92 76.52C41.76 76.56 41.5 76.72 41.33 76.89C41.15 77.06 41.02 77.34 41.02 77.56C41.02 77.77 41.09 77.97 41.16 78.01C41.24 78.04 41.48 77.94 41.7 77.78C42.01 77.55 42.24 77.5 42.7 77.55C43.13 77.6 43.6 77.83 44.42 78.4C45.07 78.84 45.77 79.21 46.07 79.26C46.35 79.31 46.83 79.32 47.13 79.29C47.43 79.25 47.96 79.06 48.3 78.85C48.64 78.64 49.19 78.28 49.53 78.04C49.93 77.76 50.37 77.59 50.77 77.55C51.26 77.5 51.44 77.54 51.69 77.78C51.86 77.94 52.09 78.08 52.21 78.08C52.36 78.08 52.4 77.94 52.38 77.57C52.35 77.21 52.24 76.99 51.96 76.78C51.68 76.58 51.37 76.5 50.86 76.5C50.25 76.5 50.02 76.59 49.26 77.1C48.77 77.43 48.33 77.75 48.3 77.8C48.26 77.84 48.07 77.99 47.88 78.12C47.65 78.28 47.27 78.35 46.68 78.35C45.87 78.35 45.78 78.32 44.97 77.69C44.5 77.33 43.94 76.93 43.73 76.8C43.53 76.67 43.09 76.54 42.77 76.5C42.45 76.47 42.07 76.48 41.92 76.52ZM37.39 79.8C37 80.24 36.94 80.39 36.93 81.14C36.91 81.73 37.01 82.31 37.25 83.02C37.44 83.59 37.6 84.26 37.6 84.5C37.59 84.75 37.49 85.17 37.35 85.45C37.19 85.79 36.78 86.19 36.08 86.67C35.52 87.06 34.91 87.56 34.74 87.78C34.57 88 34.36 88.41 34.29 88.69C34.22 88.98 34.2 89.32 34.24 89.45C34.29 89.58 34.4 89.83 34.48 90C34.59 90.22 34.76 90.32 35.02 90.31C35.39 90.31 35.4 90.3 35.31 89.66C35.25 89.19 35.29 88.88 35.45 88.56C35.57 88.31 35.95 87.91 36.3 87.66C36.64 87.42 37.15 87.03 37.42 86.8C37.68 86.58 38.03 86.14 38.18 85.84C38.36 85.49 38.46 85.02 38.46 84.54C38.46 84.08 38.32 83.32 38.08 82.61L37.7 81.44C38.16 80.4 38.39 80.11 38.55 80.07C38.71 80.03 38.83 79.89 38.83 79.73C38.83 79.57 38.74 79.42 38.62 79.38C38.51 79.34 38.29 79.31 38.12 79.31C37.96 79.31 37.63 79.53 37.39 79.8ZM54.68 79.5C54.43 79.67 54.42 79.72 54.61 79.92C54.72 80.05 54.89 80.15 54.98 80.14C55.08 80.14 55.29 80.43 55.44 80.79L55.73 81.44C55.09 83.38 54.96 84.04 54.96 84.54C54.97 85.01 55.08 85.5 55.26 85.84C55.42 86.14 55.72 86.55 55.93 86.75C56.15 86.95 56.62 87.3 56.97 87.54C57.33 87.78 57.75 88.17 57.91 88.42C58.14 88.78 58.18 89.01 58.11 89.59C58.04 90.3 58.04 90.31 58.41 90.31C58.66 90.31 58.86 90.2 58.98 90C59.08 89.83 59.17 89.44 59.17 89.14C59.17 88.84 59.07 88.41 58.96 88.18C58.84 87.95 58.6 87.64 58.43 87.48C58.25 87.32 57.7 86.91 57.21 86.57C56.62 86.16 56.23 85.77 56.06 85.41C55.87 85.02 55.82 84.7 55.88 84.19C55.92 83.81 56.08 83.21 56.24 82.85C56.44 82.4 56.53 81.91 56.53 81.27C56.53 80.46 56.48 80.29 56.15 79.9C55.94 79.65 55.59 79.41 55.36 79.37C55.11 79.33 54.84 79.37 54.68 79.5ZM45.35 82.26C44.97 82.36 44.38 82.57 44.04 82.75C43.7 82.92 43.16 83.29 42.83 83.56C42.5 83.83 42.03 84.36 41.78 84.74C41.53 85.12 41.2 85.83 41.04 86.32C40.86 86.87 40.75 87.56 40.75 88.11C40.75 88.6 40.83 89.25 40.91 89.55C41 89.86 41.12 90.16 41.19 90.24C41.25 90.32 41.3 90.46 41.3 90.55C41.3 90.64 41.48 90.98 41.69 91.31C41.91 91.63 42.33 92.12 42.62 92.41C42.91 92.69 43.55 93.13 44.04 93.39C44.53 93.64 45.34 93.92 45.83 94C46.47 94.12 46.95 94.12 47.54 94.01C47.99 93.93 48.8 93.66 49.32 93.4C49.88 93.13 50.56 92.67 50.94 92.28C51.3 91.91 51.78 91.24 52 90.79C52.22 90.34 52.46 89.72 52.54 89.42C52.62 89.11 52.69 88.49 52.69 88.04C52.69 87.57 52.57 86.84 52.4 86.32C52.24 85.83 51.88 85.09 51.61 84.68C51.33 84.27 50.8 83.71 50.42 83.43C50.04 83.15 49.55 82.82 49.32 82.71C49.1 82.59 48.54 82.4 48.09 82.28C47.64 82.16 46.99 82.07 46.65 82.08C46.31 82.09 45.72 82.17 45.35 82.26Z" />
		<path fill-rule="evenodd" class="shp4" d="M46.68 83.58C47.28 83.58 47.87 83.67 48.33 83.84C48.73 83.99 49.33 84.35 49.67 84.65C50.01 84.94 50.45 85.49 50.65 85.86C50.85 86.23 51.09 86.87 51.18 87.29C51.32 87.9 51.32 88.21 51.17 88.93C51.05 89.51 50.8 90.1 50.48 90.58C50.2 91 49.73 91.51 49.44 91.72C49.15 91.93 48.64 92.19 48.3 92.31C47.96 92.43 47.43 92.56 47.13 92.6C46.83 92.65 46.24 92.6 45.83 92.51C45.41 92.41 44.84 92.22 44.56 92.08C44.27 91.94 43.79 91.56 43.48 91.24C43.17 90.92 42.8 90.44 42.67 90.17C42.53 89.91 42.35 89.32 42.25 88.87C42.1 88.15 42.11 87.91 42.31 87.08C42.46 86.47 42.72 85.87 43.02 85.46C43.28 85.1 43.69 84.66 43.94 84.47C44.18 84.28 44.69 84.01 45.07 83.86C45.51 83.69 46.1 83.58 46.68 83.58ZM118.63 83.57C118.73 83.57 118.9 83.69 118.99 83.83C119.08 83.97 119.54 84.55 120.01 85.1C120.47 85.66 121.36 86.74 121.97 87.49C122.58 88.25 123.08 88.93 123.08 89C123.08 89.08 122.69 89.64 122.21 90.24C121.72 90.85 120.1 92.88 118.6 94.77C117.1 96.65 115.62 98.52 115.32 98.91C115.02 99.3 114.01 100.57 113.08 101.73C112.15 102.9 111.06 104.27 110.65 104.78C110.24 105.29 109.84 105.7 109.76 105.7C109.69 105.7 109.15 105.1 108.56 104.36C107.98 103.63 107.47 102.99 107.43 102.96C107.38 102.92 106.9 102.3 106.35 101.58C105.81 100.86 105.38 100.21 105.42 100.14C105.45 100.06 106.08 99.24 106.83 98.31C107.57 97.38 108.25 96.62 108.32 96.62C108.4 96.62 108.74 96.97 109.08 97.38C109.42 97.8 109.74 98.15 109.8 98.14C109.85 98.14 110.22 97.73 110.62 97.22C111.01 96.71 112.51 94.8 113.95 92.99C115.4 91.18 116.68 89.54 116.8 89.35C117.02 89.01 117 88.98 115.66 87.29L115.9 86.87C116.03 86.64 116.27 86.31 116.42 86.15C116.57 85.98 117.09 85.33 117.57 84.71C118.05 84.08 118.52 83.57 118.63 83.57ZM108.51 83.98C108.63 83.98 109.01 84.33 109.35 84.75C109.69 85.18 110.88 86.66 111.99 88.06C113.11 89.45 114 90.65 113.98 90.72C113.96 90.8 113.35 91.63 112.61 92.58C111.84 93.57 111.2 94.27 111.1 94.23C111.01 94.19 110.1 93.14 109.08 91.88C108.06 90.62 107.1 89.43 106.95 89.22C106.8 89.02 106.45 88.57 106.17 88.24C105.88 87.9 105.65 87.57 105.65 87.49C105.65 87.42 105.99 86.92 106.41 86.39C106.82 85.86 107.42 85.1 107.73 84.71C108.04 84.31 108.39 83.98 108.51 83.98ZM106.33 90.86C106.44 90.86 107 91.45 107.57 92.18C108.13 92.9 108.61 93.57 108.64 93.65C108.66 93.74 108.35 94.24 107.95 94.76C107.55 95.28 107.1 95.87 106.95 96.07C106.8 96.27 106.18 97.05 105.58 97.81C104.98 98.56 104.02 99.76 103.45 100.48C102.87 101.2 102.28 101.96 102.14 102.17C101.99 102.38 101.8 102.58 101.7 102.62C101.61 102.65 101.41 102.54 101.26 102.37C101.1 102.2 100.58 101.55 100.09 100.93C99.29 99.91 99.21 99.76 99.36 99.48C99.44 99.31 100.14 98.4 100.89 97.46C101.65 96.51 102.77 95.11 103.37 94.34C103.98 93.57 104.85 92.48 105.3 91.9C105.75 91.33 106.21 90.86 106.33 90.86ZM32.77 91.28C32.9 91.35 33.21 91.58 33.48 91.81C33.94 92.2 33.95 92.23 33.79 92.67C33.69 92.92 33.62 93.27 33.62 93.44C33.61 93.71 33.55 93.75 32.96 93.74C32.6 93.74 32.1 93.68 31.83 93.61C31.57 93.54 31.23 93.39 31.08 93.28C30.81 93.09 30.81 93.08 31.21 92.5C31.44 92.18 31.83 91.75 32.09 91.53C32.43 91.25 32.61 91.18 32.77 91.28ZM60.78 91.14C60.82 91.14 61.08 91.34 61.36 91.58C61.64 91.83 62.02 92.24 62.22 92.51C62.41 92.77 62.57 93.04 62.57 93.09C62.57 93.15 62.39 93.28 62.19 93.38C61.98 93.49 61.5 93.65 61.12 93.74C60.75 93.83 60.31 93.87 60.16 93.83C59.96 93.77 59.84 93.54 59.53 92.16L60.12 91.65C60.44 91.37 60.74 91.14 60.78 91.14Z" />
		<path class="shp0" d="M35.79 93.37C35.71 93.54 35.68 93.85 35.73 94.05C35.77 94.26 35.96 94.62 36.15 94.85C36.34 95.07 36.73 95.32 37.01 95.39C37.29 95.47 38.1 95.53 38.79 95.53C39.58 95.53 40.26 95.61 40.58 95.73C40.88 95.85 41.24 96.15 41.45 96.46C41.65 96.74 41.96 97.46 42.14 98.06C42.34 98.74 42.63 99.34 42.91 99.67C43.18 99.99 43.56 100.27 43.87 100.36C44.28 100.48 44.47 100.48 44.8 100.33C45.05 100.21 45.22 100.02 45.24 99.83C45.26 99.66 45.23 99.51 45.17 99.5C45.12 99.5 44.82 99.47 44.52 99.45C44.11 99.42 43.88 99.31 43.6 98.99C43.39 98.75 43.09 98.14 42.94 97.63C42.78 97.12 42.51 96.45 42.34 96.15C42.16 95.85 41.78 95.43 41.49 95.22C41.19 95.01 40.65 94.77 40.27 94.7C39.89 94.62 39.34 94.6 39.03 94.65C38.73 94.69 38.21 94.66 37.87 94.58C37.53 94.5 37.12 94.29 36.96 94.12C36.8 93.95 36.63 93.64 36.58 93.44C36.52 93.18 36.41 93.06 36.22 93.06C36.07 93.06 35.87 93.2 35.79 93.37ZM56.86 93.43C56.81 93.64 56.67 93.93 56.54 94.07C56.42 94.21 56.17 94.39 55.98 94.47C55.79 94.54 55.02 94.62 54.26 94.63C53.07 94.66 52.81 94.71 52.27 95.01C51.93 95.2 51.48 95.6 51.25 95.89C51.03 96.19 50.7 96.92 50.52 97.53C50.29 98.27 50.05 98.75 49.79 99C49.57 99.21 49.29 99.39 49.15 99.4C49.02 99.41 48.82 99.43 48.71 99.45C48.59 99.47 48.42 99.49 48.33 99.5C48.24 99.51 48.17 99.66 48.19 99.83C48.21 100.01 48.38 100.21 48.6 100.31C48.83 100.41 49.16 100.44 49.43 100.39C49.67 100.33 50.05 100.13 50.27 99.94C50.49 99.75 50.77 99.37 50.9 99.11C51.03 98.84 51.25 98.25 51.38 97.8C51.51 97.35 51.73 96.77 51.87 96.53C52.02 96.28 52.34 95.98 52.58 95.85C52.9 95.68 53.51 95.59 54.75 95.54C56.33 95.47 56.52 95.43 56.95 95.11C57.21 94.91 57.51 94.54 57.61 94.28C57.75 93.96 57.77 93.71 57.68 93.47C57.61 93.28 57.42 93.11 57.26 93.08C57.03 93.05 56.94 93.13 56.86 93.43Z" />
		<path class="shp4" d="M117.98 97.67C117.65 98.1 117.02 98.88 116.59 99.43C116.16 99.97 115.8 100.44 115.8 100.48C115.8 100.52 116.19 101.06 116.69 101.68C117.18 102.31 117.64 102.85 117.72 102.89C117.8 102.92 118.49 102.18 119.26 101.22C120.04 100.27 120.69 99.43 120.7 99.37C120.72 99.3 120.34 98.72 119.85 98.08C119.36 97.43 118.87 96.91 118.77 96.91C118.66 96.91 118.31 97.25 117.98 97.67ZM46 101.9C45.56 102.13 45.42 102.28 45.42 102.54C45.41 102.73 45.63 103.26 45.9 103.71C46.18 104.16 46.47 104.58 46.56 104.63C46.65 104.68 46.83 104.62 46.97 104.49C47.11 104.37 47.41 103.95 47.62 103.57C47.84 103.2 48.02 102.73 48.02 102.54C48.01 102.27 47.88 102.13 47.4 101.89C47.06 101.72 46.74 101.58 46.68 101.59C46.63 101.59 46.32 101.73 46 101.9Z" />
		<path class="shp3" d="M44.93 126.87C44.71 126.93 44.23 127.26 43.87 127.58C43.45 127.97 43.25 128.24 43.32 128.35C43.4 128.49 43.52 128.48 43.87 128.32C44.12 128.2 44.41 128.16 44.53 128.21C44.65 128.27 44.74 128.44 44.72 128.59C44.71 128.74 44.7 129.01 44.71 129.18C44.72 129.35 44.85 129.61 45 129.76C45.23 129.98 45.46 130.03 46.27 130.03C47.26 130.03 47.27 130.03 47.47 130.48C47.59 130.72 47.89 131.06 48.16 131.24C48.45 131.43 48.84 131.55 49.15 131.55C49.44 131.55 50.07 131.39 50.56 131.2C51.13 130.98 51.59 130.89 51.83 130.94C52.04 130.98 52.39 131.09 52.61 131.18C52.83 131.27 53.2 131.64 53.46 132.03C53.71 132.41 54.01 132.85 54.12 133.02C54.33 133.33 54.32 133.34 53.74 133.42C53.41 133.47 52.78 133.47 52.33 133.42C51.89 133.37 51.27 133.23 50.97 133.1C50.54 132.92 50.01 132.87 48.5 132.87C47.06 132.87 46.43 132.93 45.96 133.1C45.62 133.23 45.22 133.33 45.07 133.33C44.92 133.33 44.46 133.2 44.04 133.06C43.61 132.91 42.9 132.79 42.4 132.78C41.67 132.78 41.36 132.85 40.75 133.17C40.28 133.41 39.82 133.79 39.54 134.17C39.23 134.58 39.13 134.82 39.23 134.91C39.33 135.01 39.52 134.97 39.82 134.79C40.08 134.64 40.37 134.57 40.51 134.62C40.64 134.67 40.75 134.83 40.75 134.98C40.75 135.13 40.84 135.44 40.96 135.67C41.07 135.9 41.33 136.15 41.54 136.23C41.76 136.31 42.23 136.33 42.67 136.27C43.41 136.18 43.43 136.19 43.7 136.62C43.85 136.86 44.25 137.19 44.59 137.35C45.11 137.59 45.35 137.63 46.17 137.55C46.83 137.49 47.38 137.33 47.95 137.04C48.41 136.81 48.93 136.54 49.12 136.42C49.32 136.31 49.82 136.22 50.35 136.22C50.84 136.22 51.41 136.29 51.62 136.39C51.83 136.49 52 136.61 52 136.67C52 136.72 51.38 137.17 50.63 137.66C49.87 138.15 48.84 138.96 48.33 139.45C47.51 140.24 47.34 140.35 46.85 140.36C46.55 140.36 46.11 140.44 45.87 140.53C45.63 140.61 45.15 140.89 44.81 141.13C44.35 141.46 44.07 141.81 43.77 142.44C43.55 142.91 43.36 143.53 43.36 143.81L43.36 144.33C44.21 143.48 44.53 143.26 44.63 143.3C44.72 143.33 44.84 143.52 44.9 143.71C44.96 143.9 45.16 144.21 45.35 144.4C45.56 144.61 45.84 144.74 46.1 144.74C46.33 144.74 46.65 144.67 46.82 144.59C46.99 144.5 47.36 144.21 47.64 143.94L48.15 143.44C49.06 143.73 49.63 143.78 50.01 143.75C50.46 143.72 50.84 143.59 51.11 143.38C51.33 143.2 51.72 142.8 51.96 142.49C52.21 142.18 52.41 141.83 52.41 141.72C52.41 141.6 52.58 141.18 52.79 140.77C53 140.36 53.51 139.71 53.92 139.33C54.34 138.94 54.96 138.5 55.29 138.34C55.63 138.18 56.31 137.97 56.8 137.88C57.29 137.8 57.72 137.76 57.76 137.8C57.8 137.84 57.72 138.1 57.59 138.39C57.45 138.67 57.13 139.13 56.87 139.42C56.6 139.7 56.17 140.02 55.91 140.14C55.65 140.25 55.28 140.58 55.09 140.86C54.83 141.24 54.74 141.55 54.75 142.06C54.75 142.7 54.8 142.79 55.36 143.3L55.96 143.85C55.32 145.15 55.3 145.27 55.46 145.61C55.58 145.87 55.81 146.05 56.16 146.16C56.52 146.27 56.67 146.39 56.62 146.53C56.59 146.64 56.52 146.84 56.47 146.98C56.41 147.17 56.46 147.21 56.7 147.17C56.87 147.15 57.13 147.06 57.28 146.98C57.43 146.89 57.74 146.63 57.97 146.39C58.36 145.98 58.38 145.91 58.38 144.69C58.38 143.49 58.4 143.39 58.77 142.95C58.99 142.69 59.3 142.2 59.47 141.86C59.64 141.52 59.84 140.99 59.93 140.69C60.02 140.38 60.15 139.81 60.23 139.42C60.31 139.02 60.37 138.34 60.37 137.9C60.38 137.47 60.46 136.77 60.57 136.36C60.67 135.94 60.8 135.48 60.86 135.33C60.92 135.18 61.08 134.88 61.21 134.67C61.36 134.46 61.63 134.27 61.84 134.23C62.05 134.2 62.3 134.07 62.39 133.96C62.53 133.79 62.53 133.67 62.37 133.37C62.27 133.16 61.71 132.26 61.14 131.37C60.21 129.94 60.07 129.78 59.85 129.93C59.72 130.02 59.29 130.36 58.89 130.68C58.5 131.01 58.08 131.27 57.97 131.27C57.86 131.27 57.76 131.23 57.77 131.17C57.77 131.11 57.32 130.61 56.77 130.06C56.22 129.51 55.34 128.76 54.81 128.4C54.28 128.03 53.51 127.61 53.1 127.46C52.68 127.31 52 127.14 51.59 127.1C51.17 127.05 50.62 127.07 50.35 127.14C50.09 127.21 49.61 127.35 49.28 127.45C48.73 127.62 48.66 127.61 47.98 127.23C47.42 126.91 47.07 126.82 46.31 126.78C45.78 126.76 45.16 126.8 44.93 126.87ZM108.66 126.96C108.33 127.08 107.89 127.29 107.7 127.42C107.37 127.66 107.33 127.66 106.61 127.39C106.13 127.21 105.5 127.11 104.89 127.1C104.36 127.1 103.72 127.18 103.45 127.27C103.19 127.37 102.69 127.58 102.35 127.74C102.01 127.9 101.46 128.22 101.12 128.45C100.78 128.67 99.96 129.4 99.3 130.07C98.65 130.73 98.06 131.27 98 131.27C97.94 131.27 97.52 130.96 97.07 130.59C96.62 130.21 96.17 129.9 96.08 129.9C95.98 129.9 95.43 130.62 94.86 131.51C94.29 132.4 93.73 133.3 93.63 133.51C93.44 133.88 93.44 133.89 94.09 134.18C94.45 134.34 94.82 134.57 94.91 134.69C95 134.81 95.2 135.32 95.35 135.81C95.5 136.3 95.63 136.98 95.63 137.32C95.63 137.66 95.69 138.34 95.77 138.83C95.84 139.32 95.97 140 96.06 140.34C96.14 140.68 96.33 141.24 96.48 141.58C96.63 141.92 96.98 142.51 97.27 142.89C97.74 143.52 97.77 143.62 97.65 144.12C97.59 144.43 97.57 144.95 97.62 145.29C97.66 145.63 97.84 146.1 98.01 146.32C98.19 146.55 98.57 146.85 98.87 146.99C99.16 147.13 99.48 147.2 99.58 147.16C99.71 147.1 99.7 147 99.54 146.74C99.34 146.4 99.35 146.39 99.95 146.12C100.41 145.91 100.59 145.74 100.66 145.46C100.73 145.19 100.65 144.91 100.39 144.43L100.02 143.78C100.77 143.35 101.07 143.04 101.19 142.82C101.3 142.59 101.39 142.2 101.39 141.96C101.39 141.71 101.24 141.26 101.07 140.96C100.86 140.61 100.53 140.31 100.14 140.12C99.81 139.95 99.4 139.68 99.23 139.5C99.07 139.32 98.77 138.88 98.58 138.52C98.38 138.14 98.29 137.84 98.37 137.8C98.45 137.76 98.87 137.8 99.3 137.88C99.73 137.96 100.43 138.18 100.84 138.37C101.29 138.58 101.9 139.04 102.35 139.51C102.77 139.95 103.22 140.57 103.36 140.91C103.5 141.24 103.7 141.71 103.81 141.96C103.91 142.2 104.2 142.63 104.45 142.9C104.69 143.18 105.06 143.49 105.27 143.59C105.48 143.7 105.91 143.78 106.23 143.78C106.55 143.78 107.06 143.7 107.36 143.59C107.9 143.39 107.92 143.4 108.32 143.82C108.55 144.05 108.92 144.35 109.15 144.49C109.37 144.63 109.76 144.74 110 144.74C110.33 144.74 110.54 144.63 110.79 144.33C110.98 144.1 111.13 143.84 111.13 143.75C111.13 143.65 111.23 143.48 111.35 143.37C111.56 143.18 111.62 143.21 112.01 143.67C112.25 143.95 112.52 144.18 112.61 144.19C112.73 144.19 112.76 144.03 112.7 143.61C112.65 143.29 112.47 142.75 112.3 142.41C112.13 142.07 111.72 141.54 111.38 141.24C111.05 140.93 110.53 140.61 110.23 140.52C109.94 140.42 109.43 140.35 109.11 140.35C108.63 140.34 108.48 140.28 108.29 139.98C108.16 139.78 107.62 139.26 107.09 138.83C106.56 138.4 105.68 137.76 105.13 137.41C104.58 137.06 104.13 136.72 104.13 136.67C104.13 136.61 104.3 136.48 104.51 136.38C104.75 136.27 105.26 136.22 105.92 136.25C106.78 136.28 107.03 136.35 107.43 136.65C107.69 136.85 108.16 137.12 108.46 137.25C108.76 137.37 109.41 137.51 109.9 137.55C110.42 137.6 111.01 137.57 111.31 137.48C111.65 137.37 111.98 137.11 112.3 136.7C112.76 136.11 112.8 136.09 113.23 136.22C113.47 136.3 113.84 136.36 114.05 136.36C114.26 136.36 114.61 136.2 114.84 136.01C115.15 135.75 115.25 135.56 115.25 135.19C115.25 134.86 115.32 134.68 115.49 134.62C115.62 134.58 115.96 134.65 116.25 134.79C116.65 134.99 116.8 135.01 116.93 134.89C117.07 134.76 116.93 134.55 116.28 133.91C115.69 133.32 115.28 133.05 114.84 132.92C114.49 132.83 113.81 132.78 113.26 132.82C112.73 132.85 112.02 133 111.68 133.15C111.07 133.42 111.06 133.42 110.24 133.15C109.59 132.94 109.03 132.88 107.57 132.88C106.13 132.88 105.58 132.93 105.1 133.11C104.76 133.24 104.08 133.38 103.59 133.43C103.1 133.47 102.49 133.45 102.24 133.38L101.79 133.26C102.43 132.41 102.62 132.09 102.62 131.99C102.63 131.9 102.83 131.65 103.07 131.44C103.33 131.22 103.77 131.01 104.1 130.96C104.57 130.88 104.88 130.93 105.61 131.22C106.26 131.48 106.7 131.57 107.09 131.53C107.39 131.49 107.81 131.36 108.01 131.23C108.22 131.1 108.5 130.78 108.63 130.51L108.87 130.03C110.79 130.03 110.88 130.01 111.14 129.66C111.31 129.43 111.42 129.07 111.41 128.76C111.41 128.45 111.48 128.24 111.58 128.23C111.67 128.22 111.78 128.22 111.82 128.22C111.86 128.22 112.07 128.25 112.3 128.28C112.66 128.33 112.7 128.31 112.64 128.06C112.61 127.91 112.39 127.65 112.16 127.48C111.94 127.3 111.52 127.07 111.24 126.95C110.95 126.83 110.4 126.74 110 126.74C109.61 126.75 109 126.85 108.66 126.96Z" />
	</g>
</svg>