<svg xmlns="http://www.w3.org/2000/svg" width="2000" height="1661.5" viewBox="0 0 2000 1661.45"><g fill="#391a7b"><path d="m918.6 134.2c27.2-44.67 53.4-90 81.4-134.2 21.81 33.76 42 68.5 63.2 102.7q42.93 70.6 85.9 141.1c-18.32 33.58-39.1 65.78-58.6 98.7q-396 656.8-792.1 1313.5c-1.67 3.39-4.82 5.75-8.77 5.16-51.86.26-103.8 0-155.6.11-44.65-.39-89.3.89-133.9-.86 86.9-145.5 174.7-290.4 262-435.7q328.3-545.3 656.6-1090.6"/><path d="m1195.4 310.6c20.1 31 38.1 63.3 57.3 94.9q246.3 413.5 492.7 827c84.8 142.7 170.2 285 254.6 427.9-49.67 1.79-99.4.45-149.1.86-54.81-.09-109.6.19-164.4-.15-23.84-37.2-45.94-75.4-69.2-112.9q-285.7-470.2-571.6-940.3c-4.7-7.62-9.2-15.33-13.39-23.2q81.1-137.3 163-274.1"/><path d="m987.9 968.4c26-3.48 53.1.43 76.8 11.94 37.4 17.78 65.5 53.4 74.5 93.8 6.33 25.59 4.51 52.76-4.1 77.6-11.6 33.82-36.85 62.91-69.1 78.6-21.77 10.74-46.3 16.1-70.6 14.1-32.3-3.63-63.95-17.84-86.4-41.75-25.31-25.57-39-61.5-39.4-97.3.58-30.65 10.62-61.3 29.63-85.5 21.34-27.78 53.76-46.8 88.5-51.5"/></g></svg>