<svg xmlns="http://www.w3.org/2000/svg" width="2000" height="2070.61" viewBox="0 0 2000 2070.61"><path d="M969.75,28c32.36-9.53,64.94-18.95,97.4-28C1267.07,566.6,1465.87,1133.64,1675,1697c30,75.47,58.62,155.92,118.13,213.87,55.29,53.31,135.3,59.51,206.89,73.25-.22,28.82-.22,57.52,0,86.33q-381,.17-761.75,0,.16-43.38,0-86.55c60.62-14.74,129.33-14.52,180.41-54.41,40.56-36.57,20.61-95.19,7.09-139.74-119.12-339-238.69-677.86-355.94-1017.51-43.44-119.12-80.45-240.69-126.33-358.93C814.05,790,670.55,1161.79,540.67,1538.34c-29.7,93.53-66.38,185.4-85.55,281.92-10.08,41.44-1.22,92.2,38.12,115.36,55,32.91,121.34,34.24,182.51,47.76-.33,29-.33,58.06.23,87.21H.22q0-43.73-.22-87.32c67.15-15.63,140.74-23.27,195.26-69.71,64.71-55.63,95.74-138,128.88-214.2C542.33,1143.51,759.53,587.1,969.75,28Z"/></svg>