<svg xmlns="http://www.w3.org/2000/svg" width="512pt" height="512pt" style="isolation:isolate" viewBox="0 0 512 512"><defs><clipPath id="a"><path d="M0 0h512v512H0z"/></clipPath></defs><g clip-path="url(#a)"><linearGradient id="b" x1="0" x2=".671" y1=".5" y2="1.241" gradientTransform="matrix(380.407 0 0 511.683 0 .159)" gradientUnits="userSpaceOnUse"><stop offset="21.989%" style="stop-color:#4285eb"/><stop offset="68.084%" style="stop-color:#2ec7ff"/></linearGradient><path fill="url(#b)" d="M234.158 9.267 9.076 234.165c-12.101 12.091-12.101 31.62 0 43.711l225.082 224.897c12.101 12.091 31.646 12.091 43.747 0l94.374-94.296c10.837-10.828 10.837-28.384 0-39.213-10.837-10.828-28.408-10.828-39.245 0L261.49 440.75c-3.012 3.009-7.583 3.009-10.595 0L71.15 261.153c-3.012-3.01-3.012-7.577 0-10.586L250.895 70.97c3.012-3.01 7.583-3.01 10.595 0l71.544 71.485c10.837 10.828 28.408 10.828 39.245 0 10.837-10.828 10.837-28.384 0-39.213L277.915 8.956c-12.15-11.829-31.702-11.733-43.757.311Z"/><linearGradient id="c" x1="0" x2=".106" y1=".5" y2="-.494" gradientTransform="matrix(380.407 0 0 511.683 0 .159)" gradientUnits="userSpaceOnUse"><stop offset="0%" style="stop-color:#0b63ff"/><stop offset="33.584%" style="stop-color:#148eff"/><stop offset="100%" style="stop-color:#27c8ff"/></linearGradient><path fill="url(#c)" d="M234.158 9.267 9.076 234.165c-12.101 12.091-12.101 31.62 0 43.711l225.082 224.897c12.101 12.091 31.646 12.091 43.747 0l94.374-94.296c10.837-10.828 10.837-28.384 0-39.213-10.837-10.828-28.408-10.828-39.245 0L261.49 440.75c-3.012 3.009-7.583 3.009-10.595 0L71.15 261.153c-3.012-3.01-3.012-7.577 0-10.586L250.895 70.97c7.499-6.466 19.736-19.561 37.705-22.623 13.354-2.277 27.954 2.733 43.799 15.029a370085.402 370085.402 0 0 0-54.484-54.42c-12.15-11.829-31.702-11.733-43.757.311Z"/><linearGradient id="d" x1="0" x2=".25" y1=".5" y2="-.468" gradientTransform="matrix(126.707 0 0 199.405 385.293 157.065)" gradientUnits="userSpaceOnUse"><stop offset="0%" style="stop-color:#f52333"/><stop offset="35.768%" style="stop-color:#f74a5c"/><stop offset="100%" style="stop-color:#f9746a"/></linearGradient><path fill="url(#d)" d="M394.064 348.349c10.838 10.828 28.408 10.828 39.245 0l69.615-69.558c12.101-12.091 12.101-31.62.002-43.709l-70.222-69.915c-10.863-10.816-28.439-10.8-39.283.035-10.837 10.828-10.837 28.384 0 39.212l47.429 47.389c3.011 3.01 3.011 7.577 0 10.586l-46.786 46.747c-10.837 10.828-10.837 28.384 0 39.213Z"/><linearGradient id="e" x1="0" x2=".243" y1=".5" y2="-.47" gradientTransform="matrix(121.545 0 0 121.445 196.385 196.422)" gradientUnits="userSpaceOnUse"><stop offset="0%" style="stop-color:#f52231"/><stop offset="61.496%" style="stop-color:#f74a5c"/><stop offset="100%" style="stop-color:#f97772"/></linearGradient><ellipse cx="257.157" cy="257.145" fill="url(#e)" rx="60.772" ry="60.722" vector-effect="non-scaling-stroke"/></g></svg>