<?xml version="1.0" encoding="UTF-8" standalone="no"?>
<!-- Generator: Gravit.io -->
<svg xmlns="http://www.w3.org/2000/svg" xmlns:xlink="http://www.w3.org/1999/xlink" style="isolation:isolate" viewBox="0 0 64 64" width="64pt" height="64pt"><defs><clipPath id="_clipPath_WcKhyLIbwQAAwmVbMV4Hc6K1AY4UPxxz"><rect width="64" height="64"/></clipPath></defs><g clip-path="url(#_clipPath_WcKhyLIbwQAAwmVbMV4Hc6K1AY4UPxxz)"><path d=" M 32.5 64.5 C 50.173 64.5 64.5 50.173 64.5 32.5 C 64.5 14.827 50.173 0.5 32.5 0.5 C 14.827 0.5 0.5 14.827 0.5 32.5 C 0.5 50.173 14.827 64.5 32.5 64.5 Z " fill="rgb(255,234,219)"/><path d=" M 42.206 38.674 L 41.182 35.764 L 39.833 31.932 L 38.858 29.159 L 37.581 25.53 L 36.098 21.315 L 28.903 21.315 L 27.754 24.579 L 26.73 27.489 L 21.645 41.941 L 26.39 41.941 L 27.879 37.722 L 35.075 37.722 L 33.798 34.093 L 29.15 34.093 L 30.126 31.32 L 32.163 25.53 L 32.5 24.572 L 32.837 25.53 L 38.609 41.937 L 38.61 41.941 L 43.355 41.941 L 42.206 38.674 Z " fill="rgb(21,37,45)"/><path d=" M 51.263 21.941 C 53.08 25.163 54.032 28.801 54.026 32.5 C 54.026 44.389 44.389 54.026 32.5 54.026 C 20.612 54.026 10.974 44.389 10.974 32.5 C 10.974 20.611 20.612 10.974 32.5 10.974 C 36.362 10.968 40.154 12.005 43.474 13.977" fill="none" vector-effect="non-scaling-stroke" stroke-width="2.202" stroke="rgb(21,37,45)" stroke-linejoin="miter" stroke-linecap="round" stroke-miterlimit="10"/><path d=" M 44.76 17.622 C 46.297 17.622 47.544 16.375 47.544 14.838 C 47.544 13.3 46.297 12.053 44.76 12.053 C 43.222 12.053 41.975 13.3 41.975 14.838 C 41.975 16.375 43.222 17.622 44.76 17.622 Z " fill="rgb(21,37,45)"/></g></svg>