<svg xmlns="http://www.w3.org/2000/svg" xmlns:xlink="http://www.w3.org/1999/xlink" data-name="Layer 1" viewBox="0 0 128 128"><defs><linearGradient id="a" x1="37.7" x2="128" y1="-754.46" y2="-754.46" gradientTransform="matrix(1 0 0 -1 0 -648.86)" gradientUnits="userSpaceOnUse"><stop offset=".19" stop-color="#00daf0"/><stop offset=".9" stop-color="#247ce6"/></linearGradient><linearGradient xlink:href="#a" id="b" x1="2.33" x2="70.23" y1="-680.66" y2="-680.66"/><linearGradient id="c" x1="83.87" x2="20.45" y1="-780.92" y2="-692.42" gradientTransform="matrix(1 0 0 -1 0 -648.86)" gradientUnits="userSpaceOnUse"><stop offset=".09" stop-color="#1ddf93"/><stop offset=".48" stop-color="#00daf0"/><stop offset=".9" stop-color="#247ce6"/></linearGradient></defs><path fill="#247ce6" d="M108.2 100.6 128 48.2 68.2 34.6 60.4 57l47.8 43.6z"/><path fill="url(#a)" d="M128 102.6 97.8 128l-60.2-15.6 16.2-29.2 74.2 19.4z"/><path fill="url(#b)" d="M17.6 63.6 2.4 19.8 70.2 0l-5.4 56.8-47.2 6.8z"/><path fill="url(#c)" d="m111.6 74-19-32.4.4-.2L70.2 0 0 75.8V128l127.6-25.4-16-28.6z"/><path d="M24 24h80v80H24z"/><path fill="#fff" d="M31.4 89h30v5h-30zm13.2-54.6h6.6l14 33h-7.6l-3-7.4H40.8l-3 7.4h-7.4Zm7.6 19.4-4.4-10.6-4.4 10.6h8.8Zm11.2-2.6a17 17 0 0 1 17.4-17.4c6.2 0 10 2 13.2 5.2l-4.6 5.4c-2.6-2.4-5.2-3.8-8.6-3.8-5.6 0-9.6 4.6-9.6 10.4 0 5.8 4 10.4 9.6 10.4 3.8 0 6.2-1.6 8.8-4l4.6 4.8c-3.4 3.6-7.2 6-13.6 6a16.78 16.78 0 0 1-17.2-17"/></svg>