<svg id="Слой_1" xmlns="http://www.w3.org/2000/svg" viewBox="0 0 480 440" width="2500" height="2292"><style>.st0,.st1{fill:#fff;stroke:#2fcec9;stroke-width:13}.st1{fill:none;stroke:#046870;stroke-linecap:round;stroke-linejoin:round;stroke-miterlimit:10}.st2{stroke:#638ac8}.st2,.st3,.st4,.st5,.st6{fill:none;stroke-width:13;stroke-linejoin:round;stroke-miterlimit:10}.st3{stroke-linecap:round;stroke:#2fcec9}.st4,.st5,.st6{stroke:#046870}.st5,.st6{stroke:#2fcec9}.st6{stroke:#638ac8;stroke-linecap:round}</style><ellipse class="st0" cx="239.9" cy="221" rx="204.4" ry="210.2"/><path class="st1" d="M348.9 291.4l-142.5 81M206.4 208.7L64 290.8"/><path class="st2" d="M274.4 373.2l-142.7-82.4 142.7-82.3 142.7 82.3zM416.8 165.5v125.6M274.4 372.9l-142.5-82.1"/><path class="st3" d="M240.7 155.5l142.4 82.6"/><path class="st4" d="M64.1 165.3v125.5"/><path class="st1" d="M348.3 166.3l.6 125.1M206.4 208.7l142.5 82.7M206.4 82.6v126.1M64 290.8l142.4 81.6M64 165.3l142.4-82.7"/><path class="st3" d="M98.2 238.1l142.5 82.1M240.7 320.2l142.4-82.1"/><path class="st5" d="M240.7 30.1v125.6"/><path class="st3" d="M240.7 155.5L98.2 238.1"/><path class="st4" d="M206.4 246.5v125.6"/><path class="st2" d="M131.9 164.7v126.1M274.4 247.1v125.6"/><path class="st5" d="M98.1 112.5v125.6M383 112.8v125.6M240.5 194.9v125.6"/><path class="st6" d="M274.4 247.4l142.4-82.1"/><path class="st1" d="M64 165.3l142.4 81"/><path class="st6" d="M274.4 82.9v125.6"/><path class="st1" d="M206.4 82.6l142.5 82.7"/><path class="st6" d="M274.4 82.6l142.4 82.7"/><path class="st1" d="M207 247.4l141.3-81.1"/><path class="st3" d="M240.7 194.6l142.4-82.1"/><path class="st6" d="M274.4 247.9l-142.5-82.6M131.9 164.7l142.5-82.1"/><path class="st3" d="M98.2 112.5l142.5-82.6M240.7 29.9l142.4 82.6M98.2 112.5l142.5 82.1"/></svg>