<svg xmlns="http://www.w3.org/2000/svg" width="512pt" height="512pt" style="isolation:isolate" viewBox="0 0 512 512"><defs><clipPath id="a"><path d="M0 0h512v512H0z"/></clipPath></defs><g clip-path="url(#a)"><path fill="#1793D1" d="M255.951-.051c-22.794 55.88-36.541 92.436-61.917 146.659 15.558 16.492 34.655 35.696 65.67 57.39-33.342-13.722-56.084-27.5-73.084-41.792C154.144 229.975 103.259 326.513 0 512.051c81.161-46.839 144.07-75.744 202.702-86.745a148.935 148.935 0 0 1-3.852-34.759l.096-2.62c1.288-51.985 28.334-91.967 60.376-89.253 32.041 2.715 56.94 47.098 55.646 99.083-.216 9.8-1.325 19.198-3.267 27.919 57.995 11.34 120.241 40.152 200.299 86.375-15.777-29.059-29.891-55.252-43.326-80.212-21.201-16.424-43.295-37.81-88.409-60.952 31 8.073 53.187 17.349 70.505 27.733C313.951 143.878 302.879 110.033 255.948-.035l.003-.016Z"/></g></svg>