<svg height="2000" viewBox="0 0 2000 2000" width="2000" xmlns="http://www.w3.org/2000/svg" xmlns:xlink="http://www.w3.org/1999/xlink"><linearGradient id="a" gradientTransform="matrix(1 0 0 -1 0 2002)" gradientUnits="userSpaceOnUse" x2="2000" y1="1002" y2="1002"><stop offset="0" stop-color="#b38c30"/><stop offset="1" stop-color="#f2de98"/></linearGradient><path d="m1000 0c-552.37 0-1000 447.63-1000 1000s447.63 1000 1000 1000 1000-447.63 1000-1000-447.63-1000-1000-1000zm-451.39 741.52c0-123.58 100.22-223.06 224.56-223.06h512.44a224.14 224.14 0 0 1 156.74 64.06l-262.24 131.87h-361c-40.69 0-73.1 29.39-73.1 64.81v160.51l-196.65 102.49v-300.68zm959.3 333.84c0 123.58-100.22 223.06-223.06 223.06h-539.56v190.65c0 32.41-24.11 58.78-52.75 65.56l-67.07 1.51h-76.86v-331.57l257-134.14h431.8c40.69 0 74.6-29.39 74.6-65.56v-195.93l195.93-98.72v345.14z" fill="url(#a)"/></svg>