<svg xmlns="http://www.w3.org/2000/svg" width="512pt" height="512pt" style="isolation:isolate" viewBox="0 0 512 512"><defs><clipPath id="a"><path d="M0 0h512v512H0z"/></clipPath></defs><g clip-path="url(#a)"><linearGradient id="b" x1=".997" x2=".491" y1=".158" y2="1.035" gradientTransform="matrix(221.345 0 0 281.065 0 230.754)" gradientUnits="userSpaceOnUse"><stop offset="0%" style="stop-color:#0052cc"/><stop offset="92.3%" style="stop-color:#2684ff"/></linearGradient><path fill="url(#b)" d="M151.862 236.474a14.563 14.563 0 0 0-24.769 2.691L1.583 490.106A15.002 15.002 0 0 0 15 511.815h174.766a14.46 14.46 0 0 0 13.416-8.293c37.699-77.901 14.852-196.349-51.32-267.048Z"/><path fill="#2684FF" d="M243.917 8.231c-63.622 97.895-70.965 222.067-19.324 326.779l84.256 168.512a15.001 15.001 0 0 0 13.417 8.293H497a15 15 0 0 0 13.417-21.709S275.34 19.898 269.432 8.137a14.169 14.169 0 0 0-25.515.094Z"/></g></svg>