<svg xmlns="http://www.w3.org/2000/svg" width="512pt" height="512pt" style="isolation:isolate" viewBox="0 0 512 512"><defs><clipPath id="a"><path d="M0 0h512v512H0z"/></clipPath></defs><g clip-path="url(#a)"><path fill="#EC1C24" d="M512 255.995C512 397.392 397.388 512 255.993 512 114.609 512 0 397.392 0 255.995 0 114.609 114.609 0 255.993 0 397.388 0 512 114.609 512 255.995Z"/><path fill="#FFF" d="m234.048 201.779 61.383 61.363c8.861 8.87 23.244 8.87 32.127 0 8.862-8.873 8.882-23.245 0-32.118l-61.386-61.385c-43.923-43.931-114.911-44.638-159.764-2.232-.414.349-.829.716-1.21 1.097-.195.197-.355.405-.55.58-.202.191-.403.365-.595.556-.386.387-.741.792-1.08 1.195-42.428 44.874-41.698 115.864 2.226 159.793l61.386 61.369c8.879 8.868 23.245 8.868 32.122 0 8.886-8.872 8.886-23.265.023-32.117l-61.385-61.384c-26.798-26.786-26.978-70.258-.557-97.273 27.012-26.421 70.461-26.23 97.26.556Zm79.225-81.745c-8.871 8.874-8.871 23.245.023 32.118l61.362 61.385c26.781 26.786 26.955 70.251.536 97.273-27.021 26.398-70.455 26.225-97.246-.564l-61.384-61.378c-8.877-8.874-23.266-8.874-32.132 0-8.885 8.866-8.885 23.283 0 32.131l61.364 61.387c43.937 43.93 114.916 44.645 159.777 2.231.417-.366.81-.708 1.223-1.096.186-.19.361-.385.545-.58.198-.19.393-.367.579-.578.393-.367.73-.77 1.08-1.189 42.43-44.856 41.722-115.823-2.204-159.777l-61.384-61.364c-8.871-8.886-23.276-8.886-32.139.001Z"/></g></svg>