<?xml version="1.0" encoding="UTF-8" standalone="no"?>
<!-- Generator: Gravit.io -->
<svg xmlns="http://www.w3.org/2000/svg" xmlns:xlink="http://www.w3.org/1999/xlink" style="isolation:isolate" viewBox="0 0 64 64" width="64pt" height="64pt"><defs><clipPath id="_clipPath_t8QupzBDGQRm45671lXC5xcz53qlecwS"><rect width="64" height="64"/></clipPath></defs><g clip-path="url(#_clipPath_t8QupzBDGQRm45671lXC5xcz53qlecwS)"><g><path d=" M 43.892 21.75 L 43.878 21.613 L 43.656 21.632 L 43.67 21.769 L 43.892 21.75 Z  M 45.386 25.342 L 45.391 25.418 L 45.547 25.404 C 45.542 25.357 45.561 25.281 45.594 25.186 L 45.58 25.049 C 45.514 25.054 45.448 25.153 45.386 25.342 L 45.386 25.342 Z  M 39.558 29.866 C 39.549 29.738 39.152 29.242 38.367 28.368 C 38.353 28.207 38.622 27.966 39.175 27.649 L 40.754 26.274 C 41.108 25.825 41.316 25.097 41.378 24.085 L 41.359 23.853 C 41.297 23.154 40.792 22.591 39.832 22.161 C 39.265 21.778 38.244 21.566 36.769 21.528 C 35.55 21.632 33.957 22.067 31.995 22.837 C 31.456 23.225 30.842 23.612 30.152 24 L 30.161 24.118 C 30.204 24.113 30.27 24.09 30.346 24.038 C 30.426 24.028 30.473 24.066 30.478 24.142 L 30.596 24.08 L 30.653 24.076 L 30.658 24.128 C 30.662 24.189 30.237 24.525 29.377 25.125 L 29.443 25.248 L 29.386 25.253 L 29.244 25.201 C 29.249 25.243 29.188 25.271 29.069 25.281 L 29.074 25.333 L 29.211 25.503 C 29.169 25.508 29.103 25.489 29.013 25.456 C 28.814 25.475 28.62 25.579 28.427 25.777 L 28.507 25.427 C 28.795 24.184 28.994 23.083 29.098 22.128 L 29.084 22.067 C 28.885 21.939 28.691 21.76 28.512 21.533 C 28.516 21.386 28.516 21.301 28.512 21.282 L 28.497 21.23 L 28.441 21.244 C 27.817 22.18 26.616 23.778 24.834 26.037 C 23.478 27.644 22.778 28.538 22.736 28.717 C 22.183 29.289 21.918 29.634 21.946 29.752 C 21.8 29.847 21.738 29.942 21.762 30.045 C 21.719 30.055 21.691 30.041 21.682 29.998 C 21.445 30.381 21.095 30.627 20.627 30.736 L 20.136 30.849 C 20.07 30.863 20.037 30.91 20.041 30.991 L 20.056 31.052 L 20.24 31.01 L 20.254 31.062 L 19.838 31.222 L 19.101 31.393 L 18.713 31.416 C 18.656 31.473 19.02 31.412 18.879 31.445 L 18.396 31.558 C 18.103 31.624 17.943 31.601 17.914 31.482 L 17.858 31.497 C 17.867 31.549 17.872 31.586 17.862 31.619 L 17.834 31.501 L 17.446 31.591 C 17.418 31.412 16.893 30.759 15.877 29.634 C 15.858 29.417 16.217 29.1 16.95 28.689 L 19.02 26.869 C 19.484 26.274 19.758 25.319 19.848 24.005 L 19.819 23.697 C 19.739 22.771 19.068 22.024 17.806 21.448 C 17.059 20.942 15.716 20.672 13.778 20.63 C 12.171 20.767 10.073 21.339 7.492 22.336 C 6.783 22.851 5.975 23.362 5.067 23.868 L 5.081 24.028 C 5.143 24.024 5.223 23.991 5.322 23.934 C 5.426 23.924 5.483 23.972 5.492 24.066 L 5.653 23.976 L 5.734 23.972 L 5.738 24.047 C 5.743 24.123 5.181 24.562 4.041 25.366 L 4.131 25.508 L 4.051 25.513 L 3.876 25.451 C 3.881 25.498 3.8 25.531 3.635 25.546 L 3.644 25.631 L 3.833 25.839 C 3.772 25.843 3.687 25.825 3.578 25.787 C 3.209 25.82 2.85 26.084 2.496 26.586 L 2.586 26.727 C 2.893 26.444 3.072 26.302 3.124 26.297 L 3.143 26.529 C 3.091 26.534 3.011 26.567 2.902 26.623 L 3.096 26.916 C 3.469 26.515 3.881 26.17 4.33 25.881 C 4.552 25.938 4.67 26.009 4.675 26.084 L 4.845 26.07 C 6.064 25.168 7.27 24.515 8.466 24.113 L 8.48 24.274 C 8.258 24.605 8.106 24.775 8.026 24.785 C 8.035 24.898 8.073 24.997 8.144 25.082 C 8.163 25.286 7.619 26.656 6.518 29.19 C 4.018 35.079 1.919 39.438 0.213 42.255 C 0.217 42.311 0.251 42.387 0.312 42.482 C 0.733 42.382 0.997 42.278 1.111 42.179 L 1.201 42.17 L 1.215 42.33 L 1.371 42.316 L 1.531 42.226 C 1.536 42.274 1.588 42.297 1.697 42.288 L 1.711 42.448 C 1.725 42.604 1.635 42.841 1.446 43.167 C 1.276 43.361 1.092 43.767 0.898 44.386 L 0.903 44.462 L 1.059 44.448 C 1.739 43.687 2.255 42.94 2.609 42.212 C 4.594 41.631 6.107 41.059 7.156 40.496 C 8.21 40.406 9.014 40.128 9.562 39.669 L 9.553 39.584 L 9.156 39.702 L 9.066 39.712 L 9.056 39.627 C 9.832 39.508 10.366 39.338 10.664 39.102 C 12.171 37.939 13.31 37.117 14.081 36.63 C 15.664 35.467 16.695 34.333 17.163 33.231 C 17.248 33.212 17.333 33.194 17.427 33.17 C 17.65 33.16 17.773 33.156 17.806 33.146 C 17.796 33.104 17.815 33.08 17.858 33.071 C 18.212 33.033 18.042 33.094 18.269 33.042 L 18.864 32.905 C 18.827 32.915 18.812 32.934 18.822 32.971 L 18.912 32.915 C 18.893 32.915 18.879 32.91 18.864 32.905 L 18.964 32.882 L 18.916 32.91 C 18.983 32.919 19.053 32.915 19.134 32.896 L 19.176 33.071 L 16.468 37.377 L 15.868 38.128 L 15.575 39.111 L 15.631 39.097 L 15.924 38.974 L 15.83 39.357 L 15.858 39.471 L 15.939 39.57 C 15.901 39.579 15.887 39.603 15.896 39.645 L 15.91 39.707 L 16.033 39.679 C 16.213 39.523 16.288 39.381 16.26 39.253 C 16.454 39.286 16.581 39.3 16.648 39.282 L 16.662 39.343 C 16.544 39.371 16.482 39.466 16.473 39.627 L 16.487 39.688 L 16.553 39.674 C 17.536 38.601 19.947 34.928 21.88 32.437 C 21.819 32.168 22.825 31.794 24.905 31.312 L 24.971 31.298 C 25.047 31.624 24.886 32.414 24.489 33.666 C 24.234 34.422 24.111 34.838 24.13 34.905 C 23.799 35.911 23.643 36.455 23.662 36.54 L 22.925 38.955 C 22.447 40.194 22.083 41.494 21.828 42.864 C 21.871 42.855 21.937 42.86 22.031 42.883 L 22.135 42.794 C 22.145 42.836 22.173 42.85 22.216 42.841 L 22.173 42.666 L 22.495 42.656 C 22.589 42.633 22.669 42.515 22.736 42.297 C 22.721 41.971 22.788 41.796 22.934 41.758 C 23.133 40.983 23.256 40.596 23.298 40.581 C 23.482 39.811 23.619 39.371 23.709 39.263 C 23.988 38.261 24.191 37.745 24.324 37.712 L 24.352 37.835 L 24.149 38.36 C 23.794 39.934 23.435 41.177 23.071 42.089 L 23.175 42.543 L 23.241 42.529 C 24.121 40.638 25.387 36.895 27.037 31.298 C 27.084 30.806 27.321 30.424 27.741 30.154 L 27.647 30.055 L 27.632 30.003 C 27.822 29.96 27.954 29.885 28.03 29.781 C 28.02 29.738 27.855 29.677 27.533 29.592 L 28.356 26.066 C 28.535 25.905 28.639 25.82 28.672 25.82 L 28.687 25.999 C 28.644 26.004 28.578 26.028 28.502 26.08 L 28.658 26.302 C 28.942 25.995 29.249 25.73 29.585 25.508 C 29.755 25.555 29.84 25.612 29.849 25.669 L 29.972 25.659 C 30.908 24.974 31.825 24.482 32.728 24.184 L 32.737 24.303 C 32.572 24.553 32.458 24.681 32.397 24.685 C 32.406 24.77 32.43 24.846 32.473 24.912 C 32.487 25.068 32.08 26.108 31.248 28.037 C 29.348 32.503 27.755 35.807 26.46 37.953 C 26.465 37.996 26.493 38.053 26.545 38.128 C 26.862 38.053 27.065 37.972 27.146 37.897 L 27.202 37.892 L 27.212 38.01 L 27.344 38.001 L 27.462 37.939 C 27.467 37.972 27.51 37.986 27.59 37.982 L 27.599 38.109 C 27.609 38.223 27.543 38.402 27.396 38.648 C 27.259 38.795 27.117 39.102 26.966 39.57 L 26.971 39.631 L 27.094 39.622 C 27.609 39.045 28.001 38.478 28.271 37.92 C 29.778 37.476 30.927 37.046 31.721 36.62 C 32.529 36.549 33.139 36.342 33.555 35.992 L 33.55 35.93 L 33.243 36.02 L 33.177 36.025 L 33.172 35.963 C 33.758 35.878 34.17 35.746 34.392 35.571 C 35.536 34.692 36.401 34.063 36.987 33.695 C 38.811 32.366 39.662 31.09 39.558 29.866 L 39.558 29.866 Z  M 39.246 29.946 L 39.289 30.424 C 39.232 30.542 39.17 30.603 39.114 30.608 L 39.043 29.795 C 39.175 29.842 39.241 29.89 39.246 29.946 L 39.246 29.946 Z  M 3.455 26.099 L 3.375 26.103 L 3.361 25.957 L 3.687 25.929 L 3.692 26.004 C 3.64 26.009 3.559 26.037 3.455 26.099 Z  M 1.862 42.032 C 1.673 41.947 1.503 41.914 1.357 41.929 L 1.338 41.697 C 1.328 41.607 1.38 41.546 1.494 41.522 C 1.598 41.513 1.659 41.588 1.669 41.739 C 1.943 41.404 2.094 41.234 2.122 41.229 L 2.297 41.3 C 2.24 41.773 2.094 42.014 1.862 42.032 Z  M 18.883 24.227 C 18.803 24.236 18.642 23.986 18.411 23.49 L 18.396 23.343 C 18.548 23.329 18.704 23.575 18.869 24.08 L 18.883 24.227 Z  M 18.656 22.464 L 18.59 22.62 L 16.279 21.656 C 17.82 21.708 18.614 21.977 18.656 22.464 Z  M 8.896 30.844 L 8.57 30.873 L 8.555 30.726 L 8.882 30.698 L 8.896 30.844 Z  M 8.631 25.81 L 8.711 25.806 L 8.73 26.037 C 8.655 26.042 8.555 26.155 8.432 26.373 L 8.418 26.212 C 8.565 26.037 8.64 25.905 8.631 25.81 L 8.631 25.81 Z  M 7.946 27.427 L 7.974 27.734 L 7.894 27.739 L 7.865 27.432 L 7.946 27.427 Z  M 7.586 28.004 L 7.742 27.989 C 7.728 28.245 7.657 28.382 7.53 28.391 L 7.449 28.396 C 7.549 28.226 7.596 28.093 7.586 28.004 Z  M 7.317 28.807 L 7.407 28.798 L 7.412 28.873 L 7.265 29.119 L 7.109 29.133 L 7.104 29.058 C 7.26 29.043 7.331 28.963 7.317 28.807 L 7.317 28.807 Z  M 7.052 29.53 L 7.005 29.918 L 6.925 29.923 L 6.892 29.54 L 7.052 29.53 Z  M 4.401 37.069 C 4.297 37.599 4.183 37.868 4.065 37.878 L 4.06 37.802 C 4.032 37.542 4.145 37.296 4.401 37.069 Z  M 3.914 38.123 L 3.918 38.199 C 3.928 38.303 3.881 38.365 3.777 38.369 L 3.772 38.294 C 3.762 38.204 3.81 38.147 3.914 38.123 Z  M 3.772 40.312 L 4.018 40.288 L 4.027 40.373 C 3.966 40.378 3.885 40.411 3.786 40.468 L 3.63 40.482 C 3.621 40.402 3.673 40.34 3.772 40.312 L 3.772 40.312 Z  M 10.768 38.152 C 9.387 38.832 8.574 39.296 8.333 39.537 C 6.84 40.057 6.097 40.378 6.112 40.506 C 4.783 41.03 3.909 41.418 3.488 41.659 C 3.389 41.669 3.247 41.631 3.058 41.546 C 3.035 41.276 3.157 41.059 3.417 40.884 C 3.649 40.865 3.871 40.898 4.084 40.988 C 4.33 40.86 4.76 40.718 5.37 40.567 L 5.355 40.406 L 4.864 40.449 C 4.925 40.364 5.398 40.142 6.287 39.783 L 6.532 39.759 L 6.537 39.835 C 6.116 39.872 5.885 39.995 5.833 40.217 C 5.842 40.317 5.899 40.359 6.003 40.35 C 6.32 40.151 6.476 40.033 6.471 40 C 7.071 39.887 8.73 39.017 11.448 37.396 L 11.462 37.542 C 11.467 37.613 11.235 37.812 10.768 38.152 L 10.768 38.152 Z  M 6.599 39.523 C 6.996 39.49 7.336 39.329 7.619 39.05 C 7.733 39.04 7.794 39.083 7.799 39.182 C 7.605 39.201 7.232 39.362 6.688 39.674 L 6.608 39.679 L 6.599 39.523 L 6.599 39.523 Z  M 13.325 34.356 L 11.24 36.006 C 9.69 37.022 8.858 37.533 8.74 37.542 C 6.272 38.899 4.736 39.603 4.141 39.655 L 4.051 39.664 C 4.126 39.386 5.223 37.14 7.35 32.915 C 8.286 32.834 9.761 32.399 11.77 31.605 L 12.261 31.563 C 13.277 31.473 14.038 31.671 14.539 32.144 L 14.568 32.451 C 14.19 33.539 13.774 34.172 13.325 34.356 L 13.325 34.356 Z  M 9.25 32.064 L 9.586 32.035 L 9.591 32.111 L 9.255 32.139 L 9.25 32.064 Z  M 13.963 31.265 L 14.209 31.241 C 14.435 31.35 14.554 31.445 14.563 31.53 L 14.568 31.605 C 14.35 31.624 14.147 31.511 13.963 31.265 L 13.963 31.265 Z  M 14.629 27.469 C 14.412 27.729 13.816 28.174 12.843 28.798 C 12.521 28.826 11.325 29.289 9.255 30.197 C 9.151 30.149 9.042 30.131 8.924 30.14 L 8.91 29.994 C 8.886 29.696 9.019 29.322 9.312 28.869 C 9.472 28.018 9.647 27.531 9.841 27.413 L 11.566 23.532 C 11.547 23.291 11.916 23.107 12.672 22.979 L 12.918 22.955 L 12.937 23.178 C 13.679 23.064 14.142 22.998 14.322 22.984 C 15.693 22.866 16.406 23.144 16.463 23.811 L 16.619 23.797 L 16.586 23.404 L 16.756 23.39 C 17.158 23.612 17.375 23.882 17.404 24.199 C 17.423 24.416 17.305 24.685 17.054 25.007 C 16.95 25.016 16.889 24.941 16.879 24.789 L 16.709 24.804 L 16.671 25.276 C 15.976 26.316 15.471 26.85 15.159 26.879 C 14.875 27.271 14.7 27.465 14.629 27.469 Z  M 15.688 30.187 C 15.546 30.093 15.433 30.05 15.348 30.055 L 15.329 29.823 L 15.485 29.809 L 15.83 30.012 C 15.844 30.121 15.797 30.178 15.688 30.187 L 15.688 30.187 Z  M 16.785 31.487 C 16.936 31.549 17.026 31.615 17.045 31.676 L 16.969 31.695 L 16.974 31.7 C 16.96 31.7 16.941 31.705 16.926 31.709 L 16.813 31.799 L 16.785 31.487 L 16.785 31.487 Z  M 16.889 32.139 L 16.874 32.078 L 17.073 32.031 L 17.087 32.092 L 16.889 32.139 Z  M 17.366 32.674 C 17.569 32.64 17.669 32.626 18.047 32.541 L 18.061 32.603 L 17.342 32.768 C 17.352 32.735 17.361 32.702 17.366 32.674 Z  M 18.066 32.971 C 17.763 33 17.829 32.962 17.347 33.071 L 17.333 33.009 L 17.933 32.815 L 18.222 32.749 L 18.25 32.863 C 18.122 32.891 18.217 32.891 18.066 32.971 L 18.066 32.971 Z  M 18.704 32.82 C 18.633 32.839 18.576 32.806 18.543 32.726 L 18.727 32.683 C 18.808 32.664 18.86 32.697 18.879 32.778 L 18.704 32.82 Z  M 20.434 30.958 L 20.419 30.896 L 20.717 30.825 L 20.746 30.939 L 20.434 30.958 L 20.434 30.958 Z  M 22.282 42.292 C 22.301 42.207 22.305 42.146 22.296 42.103 L 22.362 42.089 C 22.443 42.07 22.49 42.099 22.509 42.174 L 22.523 42.236 L 22.282 42.292 L 22.282 42.292 Z  M 23.577 31.445 L 23.445 31.421 C 23.232 31.506 23.052 31.568 22.906 31.601 L 22.783 31.629 C 22.712 31.648 22.655 31.619 22.627 31.544 L 23.492 31.345 L 23.775 31.213 L 23.87 31.322 C 23.733 31.35 23.634 31.393 23.577 31.445 L 23.577 31.445 Z  M 24.243 31.232 L 24.229 31.17 C 24.272 31.161 24.329 31.128 24.39 31.066 L 25.004 30.925 L 25.019 30.986 C 24.692 31.066 24.432 31.147 24.243 31.232 Z  M 24.338 29.989 C 24.295 29.998 24.239 30.036 24.168 30.093 C 24.158 30.05 24.073 30.05 23.913 30.088 C 23.884 29.97 24.338 29.804 25.279 29.587 L 25.411 29.559 L 25.439 29.672 C 24.778 29.866 24.409 29.975 24.338 29.989 L 24.338 29.989 Z  M 25.992 28.202 C 25.926 28.954 25.661 29.379 25.194 29.488 L 25.179 29.426 L 24.763 29.587 L 24.579 29.63 C 24.484 29.653 24.399 29.648 24.324 29.625 L 24.286 29.459 C 24.272 29.398 24.872 28.566 26.092 26.968 L 26.233 26.992 C 26.285 27.209 26.205 27.611 25.992 28.202 L 25.992 28.202 Z  M 28.918 25.697 L 28.861 25.702 L 28.852 25.583 L 29.098 25.56 L 29.103 25.621 C 29.06 25.631 28.999 25.654 28.918 25.697 Z  M 27.713 37.802 C 27.571 37.736 27.443 37.708 27.335 37.717 L 27.321 37.537 C 27.316 37.476 27.354 37.433 27.434 37.41 C 27.514 37.4 27.562 37.457 27.571 37.58 C 27.774 37.32 27.888 37.188 27.911 37.188 L 28.039 37.24 C 27.992 37.599 27.883 37.788 27.713 37.802 L 27.713 37.802 Z  M 40.636 24.284 C 40.574 24.288 40.456 24.099 40.272 23.716 L 40.262 23.598 C 40.381 23.589 40.503 23.773 40.626 24.151 L 40.636 24.284 Z  M 40.466 22.932 L 40.409 23.055 L 38.66 22.322 C 39.827 22.36 40.432 22.563 40.466 22.932 Z  M 33.049 29.299 L 32.804 29.322 L 32.794 29.204 L 33.04 29.185 L 33.049 29.299 Z  M 32.846 25.475 L 32.912 25.47 L 32.926 25.65 C 32.865 25.654 32.789 25.739 32.7 25.905 L 32.69 25.787 C 32.799 25.65 32.851 25.546 32.846 25.475 L 32.846 25.475 Z  M 32.331 26.704 L 32.35 26.935 L 32.284 26.94 L 32.265 26.708 L 32.331 26.704 Z  M 32.052 27.143 L 32.175 27.134 C 32.161 27.332 32.109 27.436 32.019 27.446 L 31.953 27.451 C 32.024 27.318 32.057 27.214 32.052 27.143 L 32.052 27.143 Z  M 31.853 27.748 L 31.91 27.744 L 31.915 27.805 L 31.806 27.994 L 31.683 28.004 L 31.679 27.942 C 31.806 27.933 31.863 27.866 31.853 27.748 L 31.853 27.748 Z  M 31.655 28.297 L 31.612 28.599 L 31.556 28.604 L 31.532 28.306 L 31.655 28.297 Z  M 29.637 34.03 C 29.556 34.427 29.471 34.63 29.381 34.64 L 29.377 34.588 C 29.362 34.389 29.448 34.2 29.637 34.03 L 29.637 34.03 Z  M 29.263 34.829 L 29.268 34.881 C 29.277 34.966 29.24 35.013 29.155 35.018 L 29.15 34.957 C 29.145 34.895 29.183 34.853 29.263 34.829 Z  M 29.159 36.493 L 29.348 36.479 L 29.353 36.54 C 29.31 36.545 29.244 36.568 29.169 36.611 L 29.046 36.62 C 29.041 36.554 29.079 36.512 29.159 36.493 Z  M 34.467 34.853 C 33.427 35.368 32.808 35.718 32.614 35.897 C 31.48 36.294 30.918 36.54 30.927 36.639 C 29.92 37.041 29.258 37.329 28.947 37.514 C 28.871 37.518 28.762 37.49 28.62 37.424 C 28.601 37.221 28.696 37.055 28.895 36.932 C 29.074 36.918 29.244 36.942 29.4 37.008 C 29.589 36.913 29.916 36.809 30.379 36.691 L 30.369 36.573 L 29.982 36.601 C 30.029 36.535 30.393 36.365 31.069 36.091 L 31.258 36.077 L 31.263 36.129 C 30.941 36.157 30.762 36.252 30.724 36.422 C 30.729 36.497 30.776 36.535 30.856 36.526 C 31.092 36.37 31.206 36.28 31.206 36.252 C 31.66 36.171 32.917 35.51 34.983 34.271 L 34.992 34.389 C 34.997 34.441 34.822 34.593 34.467 34.853 L 34.467 34.853 Z  M 31.3 35.892 C 31.608 35.864 31.868 35.746 32.085 35.538 C 32.165 35.529 32.213 35.566 32.217 35.642 C 32.076 35.656 31.797 35.774 31.376 36.001 L 31.31 36.006 L 31.3 35.892 L 31.3 35.892 Z  M 36.415 31.965 L 34.841 33.231 C 33.664 34.002 33.026 34.389 32.926 34.399 C 31.055 35.429 29.892 35.963 29.433 36.001 L 29.367 36.006 C 29.424 35.793 30.261 34.087 31.877 30.882 C 32.581 30.821 33.697 30.485 35.228 29.88 L 35.611 29.847 C 36.382 29.781 36.958 29.932 37.336 30.296 L 37.355 30.528 C 37.067 31.341 36.755 31.818 36.415 31.965 L 36.415 31.965 Z  M 33.323 30.225 L 33.569 30.201 L 33.574 30.263 L 33.328 30.287 L 33.323 30.225 Z  M 36.902 29.615 L 37.091 29.601 C 37.266 29.686 37.355 29.762 37.36 29.823 L 37.365 29.875 C 37.199 29.89 37.043 29.804 36.902 29.615 L 36.902 29.615 Z  M 37.398 26.737 C 37.232 26.935 36.783 27.276 36.051 27.748 C 35.805 27.772 34.897 28.122 33.328 28.802 C 33.253 28.774 33.168 28.765 33.078 28.769 L 33.068 28.651 C 33.049 28.424 33.149 28.141 33.366 27.796 C 33.489 27.143 33.626 26.779 33.768 26.694 L 35.087 23.745 C 35.072 23.57 35.351 23.428 35.918 23.319 L 36.108 23.305 L 36.122 23.485 C 36.679 23.395 37.029 23.343 37.171 23.329 C 38.211 23.239 38.755 23.447 38.797 23.957 L 38.92 23.948 L 38.896 23.664 L 39.019 23.655 C 39.322 23.82 39.482 24.019 39.501 24.255 C 39.516 24.425 39.43 24.633 39.251 24.874 C 39.17 24.884 39.123 24.827 39.114 24.704 L 38.991 24.714 L 38.953 25.068 C 38.428 25.867 38.045 26.278 37.804 26.297 C 37.592 26.586 37.459 26.732 37.398 26.737 L 37.398 26.737 Z  M 37.951 28.703 L 37.937 28.523 L 38.06 28.514 L 38.324 28.675 C 38.329 28.75 38.291 28.793 38.211 28.802 C 38.097 28.731 38.012 28.698 37.951 28.703 L 37.951 28.703 Z  M 15.948 40.184 L 15.825 40.213 L 15.721 40.303 C 15.74 40.378 15.787 40.406 15.868 40.388 C 15.948 40.369 15.981 40.321 15.962 40.246 L 15.948 40.184 Z  M 15.48 39.253 L 15.494 39.315 C 15.575 39.296 15.608 39.248 15.589 39.173 L 15.575 39.111 C 15.499 39.13 15.466 39.178 15.48 39.253 Z  M 18.808 31.336 L 18.949 31.303 L 18.921 31.18 L 18.779 31.213 L 18.808 31.336 Z  M 61.698 34.938 C 60.261 35.259 60.082 35.202 59.779 35.226 L 59.788 35.344 L 59.921 35.335 L 59.992 35.33 L 59.973 35.316 L 60.129 35.254 C 61.552 35.098 61.717 35.155 61.703 34.994 L 61.698 34.938 Z  M 53.96 35.963 L 53.97 36.082 L 53.989 36.082 L 53.979 35.963 L 53.96 35.963 Z  M 53.072 32.848 L 52.944 32.806 C 52.84 33.085 52.788 33.25 52.793 33.297 L 52.798 33.349 C 52.897 33.345 52.987 33.175 53.072 32.848 L 53.072 32.848 Z  M 61.991 34.914 L 62.001 35.032 L 62.209 35.07 L 62.199 34.952 L 61.991 34.914 Z  M 52.212 36.11 L 51.89 36.072 L 51.833 36.195 L 51.838 36.256 L 53.752 36.096 L 53.743 35.978 L 52.212 36.11 L 52.212 36.11 Z  M 51.342 31.917 L 51.337 31.856 L 51.271 31.861 L 51.153 31.936 L 51.219 32.05 C 51.309 32.04 51.351 31.998 51.342 31.917 Z  M 62.899 34.044 L 62.988 34.035 C 63.04 34.03 63.064 33.988 63.059 33.912 L 63.007 33.799 C 62.681 33.827 62.53 33.841 62.265 33.988 L 62.261 33.926 L 61.868 33.964 C 61.859 33.846 61.826 33.784 61.774 33.789 L 61.57 33.808 C 61.334 33.827 61.221 33.817 61.103 33.907 C 61.098 33.865 61.084 33.846 61.06 33.846 L 60.833 33.865 L 60.701 33.94 C 60.696 33.898 60.682 33.879 60.658 33.879 L 60.578 33.95 L 60.573 33.888 L 60.256 33.865 L 60.181 33.869 L 60.19 33.988 L 60.351 34.03 L 60.502 34.021 C 60.554 34.054 60.611 34.063 60.677 34.058 L 60.809 33.992 L 60.814 34.044 C 60.072 34.229 60.077 34.196 59.566 34.281 C 59.51 34.243 59.467 34.224 59.439 34.229 L 59.429 34.238 C 59.373 34.233 59.339 34.196 59.335 34.134 L 59.599 34.101 C 59.618 34.101 59.632 34.12 59.779 34.148 C 59.992 34.044 60.001 34.002 60.115 33.992 L 60.105 33.874 C 59.377 34.016 59.67 33.921 58.758 34.002 L 58.716 34.006 L 58.706 33.888 C 59.878 33.747 59.486 33.827 59.888 33.713 C 59.892 33.756 59.907 33.775 59.93 33.775 C 59.978 33.728 60.03 33.704 60.091 33.695 L 60.171 33.69 C 60.583 33.657 60.72 33.737 61.533 33.51 L 61.537 33.562 L 61.67 33.496 L 61.793 33.487 C 61.783 33.368 61.963 33.349 62.024 33.345 L 62.015 33.217 C 60.587 33.505 60.214 33.425 59.817 33.539 L 59.812 33.487 C 59.439 33.553 59.425 33.524 59.33 33.529 C 59.302 33.534 59.259 33.557 59.212 33.605 C 59.207 33.562 59.193 33.543 59.165 33.543 C 59.15 33.543 59.146 33.548 59.141 33.548 L 57.931 33.747 C 57.926 33.713 57.912 33.695 57.884 33.699 C 57.255 33.832 57.425 33.855 56.584 33.931 C 56.546 33.936 56.494 33.955 56.428 33.997 C 56.423 33.964 56.404 33.945 56.362 33.95 L 55.846 33.992 L 55.501 34.077 C 55.497 34.044 55.478 34.025 55.435 34.03 C 55.241 34.082 55.071 34.115 54.934 34.125 L 54.925 34.125 C 54.84 34.134 54.967 34.101 54.901 34.073 L 54.797 34.134 C 54.646 34.148 54.726 34.125 54.206 34.129 C 53.294 34.243 53.393 34.257 53.294 34.262 L 52.954 34.238 C 52.958 34.271 52.939 34.295 52.902 34.295 C 52.514 34.243 52.316 34.181 52.311 34.11 C 52.363 33.742 52.453 33.553 52.58 33.543 L 52.646 33.539 L 52.59 33.661 L 52.656 33.657 C 52.779 33.591 52.835 33.529 52.831 33.472 L 52.821 33.345 L 52.698 33.354 L 52.689 33.236 C 52.679 33.146 52.694 33.066 52.727 33 L 53.006 32.551 L 53.015 32.669 L 53.147 32.659 L 53.138 32.541 L 53.062 32.432 C 53.162 32.347 53.237 32.3 53.299 32.295 L 53.294 32.234 L 53.114 32.248 L 53.1 32.069 C 53.459 31.322 53.63 30.887 53.62 30.764 L 53.748 30.816 C 53.828 30.811 53.866 30.764 53.861 30.679 L 53.738 30.688 L 53.734 30.636 C 53.724 30.547 53.743 30.461 53.781 30.386 C 53.975 30.183 54.064 29.979 54.045 29.767 C 54.083 29.762 54.102 29.781 54.107 29.823 C 54.272 29.729 54.4 29.478 54.495 29.062 C 54.788 28.533 55.204 27.474 55.747 25.891 C 56.787 23.092 56.744 22.795 56.891 22.133 L 56.768 22.142 C 56.778 22.227 56.759 22.308 56.721 22.383 C 56.636 22.35 56.57 22.331 56.522 22.336 L 56.518 22.284 C 56.499 22.043 56.598 21.755 56.825 21.414 L 56.882 21.41 L 56.986 21.816 L 57.108 21.807 C 57.104 21.778 57.137 21.618 57.203 21.32 C 57.198 21.258 57.151 21.221 57.056 21.216 L 56.938 21.292 C 56.929 21.206 56.934 20.984 56.948 20.63 L 56.886 20.635 C 56.782 20.531 56.73 20.445 56.726 20.375 L 56.05 20.441 C 56.045 20.394 56.021 20.323 55.974 20.233 C 55.969 20.171 56.121 20.11 56.432 20.048 L 56.57 20.1 L 56.697 20.025 C 56.702 20.067 56.726 20.086 56.773 20.082 L 56.9 20.006 C 56.905 20.048 56.929 20.067 56.976 20.063 L 57.038 20.058 L 57.028 19.921 C 56.934 19.93 56.683 19.93 56.286 19.916 L 56.158 20.001 L 56.154 19.926 C 52.982 20.186 51.181 20.332 50.751 20.375 C 50.694 20.379 50.472 20.375 50.08 20.365 C 50.084 20.417 50.037 20.445 49.943 20.455 L 49.806 20.394 L 49.342 20.512 C 49.234 20.521 49.049 20.516 48.794 20.488 C 48.723 20.545 48.638 20.578 48.534 20.587 C 48.477 20.592 49.21 20.549 49.891 20.502 C 49.82 20.559 49.711 20.592 49.56 20.606 C 49.456 20.616 49.366 20.601 49.29 20.559 C 49.186 20.606 48.851 20.682 48.288 20.795 L 48.151 20.743 L 45.939 21.084 C 45.854 21.041 45.755 21.027 45.641 21.036 C 45.523 21.046 45.325 21.088 45.051 21.164 L 43.982 21.608 L 44.063 21.741 C 44.115 21.736 44.19 21.708 44.28 21.656 L 44.658 21.689 L 44.611 22.043 C 44.261 22.199 44.058 22.431 44.001 22.724 C 43.477 22.955 43.217 23.121 43.217 23.22 L 43.221 23.282 L 43.302 23.277 L 43.443 23.201 L 43.609 23.4 L 43.632 23.674 C 43.642 23.759 42.758 25.617 40.99 29.247 C 39.459 32.744 38.655 34.659 38.58 35.004 C 38.055 35.15 37.752 35.363 37.663 35.647 C 37.672 35.736 37.828 35.798 38.131 35.822 L 38.145 35.959 L 38.008 36.186 L 38.031 36.46 C 38.045 36.601 38.428 36.71 39.18 36.786 C 39.175 36.739 39.199 36.71 39.251 36.705 C 39.265 36.876 39.218 37.206 39.109 37.698 L 39.189 37.693 C 39.501 37.268 39.648 36.975 39.634 36.814 L 39.7 36.809 C 39.775 36.805 39.856 36.89 39.95 37.074 C 39.856 37.112 39.525 37.864 38.958 39.334 L 39.038 39.466 L 39.118 39.461 C 39.813 37.703 40.248 36.729 40.428 36.545 C 41.34 36.464 42.919 36.304 45.159 36.063 L 45.301 35.978 C 45.306 36.025 45.334 36.048 45.386 36.044 L 45.533 36.03 L 45.674 35.944 C 45.679 35.992 45.708 36.015 45.76 36.011 L 47.456 35.864 C 47.905 35.826 48.118 35.689 48.099 35.458 C 48.095 35.396 48.359 35.325 48.893 35.25 C 48.945 35.245 49.021 35.259 49.125 35.292 C 49.12 35.25 49.39 35.207 49.929 35.16 C 49.943 34.876 50.032 34.725 50.193 34.711 L 50.179 34.574 C 50.028 34.588 49.858 34.626 49.659 34.692 C 49.305 34.673 49.078 34.645 48.983 34.612 C 48.889 34.664 48.818 34.692 48.766 34.697 L 47.584 34.734 L 47.442 34.81 C 47.438 34.768 47.409 34.749 47.357 34.753 L 47.291 34.758 L 47.14 34.834 C 47.135 34.791 47.012 34.758 46.766 34.725 L 46.615 34.815 L 46.322 34.838 L 46.317 34.763 C 47.839 34.597 48.591 34.389 48.572 34.144 C 48.671 34.134 48.723 34.181 48.733 34.281 L 49.177 34.167 L 49.163 34.03 L 45.518 34.129 C 45.523 34.177 45.5 34.205 45.448 34.21 L 45.003 34.172 C 44.89 34.181 44.795 34.214 44.72 34.271 L 44.554 34.21 C 44.096 34.248 43.755 34.304 43.529 34.375 C 43.217 34.352 42.871 34.356 42.489 34.389 L 41.671 34.46 L 41.293 34.418 C 41.274 34.177 41.742 32.99 42.706 30.863 C 42.985 30.145 43.24 29.696 43.486 29.526 C 43.538 29.521 43.614 29.54 43.718 29.582 L 44.299 29.384 L 44.597 29.431 C 45.098 29.388 45.679 29.247 46.346 29.001 C 46.511 28.987 46.634 28.996 46.724 29.034 L 47.168 28.93 L 48.492 28.817 C 49.054 28.769 49.664 28.646 50.326 28.443 L 50.311 28.306 C 50.066 28.33 49.938 28.287 49.929 28.188 C 49.914 28.004 49.735 27.928 49.39 27.956 L 49.375 27.819 L 49.739 27.715 L 50.694 27.635 L 50.68 27.498 C 50.642 27.503 50.448 27.498 50.089 27.484 L 50.075 27.337 L 50.444 27.304 C 50.543 27.295 50.586 27.247 50.576 27.153 C 50.08 27.167 49.829 27.143 49.825 27.077 C 46.365 27.247 44.63 27.28 44.62 27.172 C 44.568 27.176 44.497 27.209 44.403 27.266 L 44.313 27.124 C 45.23 25.177 45.769 24.194 45.925 24.18 C 45.93 24.255 45.892 24.378 45.807 24.544 L 45.812 24.605 L 45.958 24.591 C 46.322 23.721 46.629 23.272 46.884 23.253 C 47.972 23.159 46.733 23.088 49.059 22.724 C 49.153 22.766 49.219 22.785 49.267 22.781 C 50.179 22.596 51.451 22.402 53.081 22.204 L 53.072 22.067 L 52.202 22.147 L 52.193 22.01 C 52.297 22.001 52.382 21.968 52.453 21.911 L 52.457 21.986 C 52.505 21.982 52.571 21.949 52.656 21.892 C 52.807 21.878 52.921 21.892 53.001 21.934 C 53.303 21.854 53.549 21.807 53.729 21.788 L 54.272 21.736 C 54.405 21.651 54.466 21.575 54.461 21.504 L 54.457 21.443 C 54.32 21.457 54.164 21.448 53.979 21.414 C 53.975 21.339 54.012 21.287 54.102 21.263 L 55.114 21.169 L 55.577 21.051 C 55.582 21.103 55.605 21.121 55.643 21.121 C 55.69 21.117 55.757 21.084 55.842 21.027 C 55.865 21.032 55.894 21.032 55.917 21.036 C 55.856 21.164 55.785 21.348 55.714 21.589 L 55.582 21.599 C 55.572 21.509 55.549 21.429 55.506 21.358 L 55.44 21.362 C 54.211 24.785 53.663 26.378 52.528 29.006 C 52.32 29.677 52.145 30.05 51.994 30.131 C 51.999 30.206 52.046 30.244 52.126 30.235 C 52.155 30.565 52.079 30.892 51.895 31.213 C 51.37 32.726 51.02 33.553 50.841 33.704 L 50.959 34.418 C 50.964 34.493 50.926 34.536 50.845 34.545 L 50.723 34.555 C 50.704 34.356 50.633 34.262 50.505 34.276 L 50.439 34.281 C 50.278 34.531 50.155 34.819 50.075 35.155 L 50.198 35.146 C 50.363 35.037 50.439 34.909 50.425 34.763 L 50.671 34.739 L 50.812 34.791 C 50.699 34.971 50.647 35.113 50.656 35.221 L 50.723 35.335 L 50.562 35.713 L 50.567 35.774 C 50.708 35.76 50.864 35.807 51.03 35.907 C 51.143 35.897 51.266 35.845 51.403 35.755 C 51.545 35.741 52.074 35.736 52.987 35.736 L 53.445 35.581 C 54.003 35.576 54.093 35.59 54.575 35.547 L 54.773 35.529 L 54.877 35.458 L 54.882 35.519 C 55.388 35.477 55.421 35.51 55.818 35.557 L 55.823 35.618 L 55.544 35.642 L 55.553 35.76 C 55.638 35.751 55.714 35.727 55.775 35.675 C 55.846 35.67 55.889 35.708 55.894 35.793 C 55.78 35.803 55.653 35.831 55.511 35.878 L 55.388 35.836 C 55.194 35.888 55.237 35.902 55.104 35.911 L 54.91 35.874 C 54.915 35.907 54.896 35.93 54.863 35.93 C 54.868 36.006 54.91 36.044 54.981 36.039 L 55.18 36.02 L 56.215 35.93 L 56.607 35.845 C 56.612 35.878 56.626 35.897 56.659 35.892 L 56.848 35.822 L 57.203 35.793 C 57.477 35.77 57.472 35.751 58.068 35.656 C 58.063 35.618 58.077 35.604 58.106 35.599 L 58.11 35.651 C 59.079 35.486 59.141 35.477 59.297 35.425 L 59.311 35.453 C 59.552 35.396 59.415 35.41 59.481 35.363 C 59.486 35.406 59.5 35.425 59.524 35.425 L 59.694 35.41 L 59.684 35.283 L 59.339 35.278 L 59.335 35.269 C 59.321 35.273 59.311 35.273 59.297 35.278 L 59.25 35.278 L 59.25 35.287 C 59.018 35.335 59.013 35.302 58.862 35.316 L 57.997 35.363 L 57.992 35.302 L 58.474 35.235 L 58.649 35.221 L 58.749 35.15 L 58.753 35.212 C 59.434 35.155 59.675 35.325 62.823 34.654 C 62.993 34.64 62.979 34.498 63.088 34.205 C 63.031 34.21 62.974 34.196 62.922 34.167 C 62.662 34.266 62.525 34.219 62.024 34.3 C 61.982 34.304 61.949 34.266 61.934 34.191 L 61.93 34.139 L 62.412 34.153 C 62.502 34.144 62.677 34.129 62.936 33.983 C 62.936 34.025 62.842 34.049 62.899 34.044 L 62.899 34.044 Z  M 39.624 34.418 L 39.402 34.437 C 39.393 34.347 39.511 34.006 39.757 33.425 L 39.903 33.411 C 39.908 33.548 39.818 33.884 39.624 34.418 Z  M 39.894 33.34 L 39.889 33.279 C 39.884 33.203 39.931 33.151 40.035 33.127 L 40.04 33.189 C 40.045 33.279 39.998 33.331 39.894 33.34 Z  M 42.848 35.623 L 42.853 35.684 L 42.484 35.718 L 42.479 35.656 L 42.848 35.623 Z  M 42.404 35.585 C 42.408 35.661 42.295 35.746 42.049 35.831 L 41.595 35.798 L 41.449 35.812 L 41.435 35.675 L 42.404 35.585 L 42.404 35.585 Z  M 45.391 21.835 L 45.169 21.854 L 45.164 21.778 C 45.159 21.703 45.202 21.651 45.296 21.627 L 45.377 21.622 L 45.528 21.684 C 45.533 21.774 45.49 21.826 45.391 21.835 L 45.391 21.835 Z  M 48.77 21.173 L 48.841 21.169 L 48.851 21.306 L 48.648 21.325 C 48.643 21.249 48.681 21.197 48.77 21.173 L 48.77 21.173 Z  M 47.92 21.471 L 47.584 21.433 L 47.579 21.372 C 48.019 21.334 48.165 21.287 48.435 21.211 C 48.44 21.263 48.487 21.282 48.572 21.273 L 48.581 21.41 L 48.449 21.424 C 48.345 21.433 48.255 21.419 48.18 21.377 C 48.099 21.429 48.014 21.462 47.92 21.471 L 47.92 21.471 Z  M 48.34 22.695 L 48.336 22.634 L 48.879 22.582 L 48.884 22.643 L 48.34 22.695 Z  M 48.922 22.223 L 48.917 22.147 L 49.182 22.123 L 49.186 22.199 L 48.922 22.223 Z  M 48.983 21.296 L 48.912 21.301 L 48.974 21.155 L 49.579 21.098 L 49.583 21.173 C 49.427 21.188 49.224 21.23 48.983 21.296 L 48.983 21.296 Z  M 49.29 22.601 L 49.281 22.464 L 49.546 22.44 C 49.635 22.431 49.683 22.473 49.687 22.568 L 49.29 22.601 L 49.29 22.601 Z  M 50.893 20.417 L 50.552 20.512 L 50.491 20.516 C 50.33 20.531 50.122 20.526 49.877 20.502 C 50.316 20.474 50.737 20.441 50.893 20.417 Z  M 50.529 21.93 L 50.534 21.991 L 50.066 22.034 L 50.061 21.972 L 50.529 21.93 Z  M 51.295 22.294 C 51.29 22.237 51.2 22.199 51.016 22.18 L 50.548 22.313 L 50.188 22.327 C 50.108 22.27 50.066 22.232 50.061 22.204 L 50.477 22.227 L 51.413 22.076 L 51.89 22.095 L 51.895 22.171 C 51.658 22.194 51.46 22.237 51.295 22.294 L 51.295 22.294 Z  M 56.111 21.051 C 56.168 21.055 56.206 21.055 56.22 21.055 C 56.385 20.895 56.57 20.767 56.782 20.677 C 56.612 21.424 56.347 21.977 55.983 22.336 L 55.719 22.175 C 55.941 21.613 56.073 21.24 56.111 21.051 L 56.111 21.051 Z  M 55.298 22.445 L 55.364 22.44 C 55.274 22.61 55.194 22.7 55.128 22.705 L 55.114 22.525 C 55.156 22.525 55.218 22.497 55.298 22.445 L 55.298 22.445 Z  M 54.773 23.697 C 54.901 23.187 55.024 22.899 55.137 22.823 L 55.142 22.884 C 55.076 23.357 54.972 23.608 54.835 23.627 L 54.858 23.924 C 54.745 24.085 54.693 24.208 54.698 24.303 L 54.632 24.307 L 54.594 23.896 C 54.669 23.887 54.731 23.82 54.773 23.697 L 54.773 23.697 Z  M 54.57 24.378 C 54.575 24.449 54.528 24.614 54.433 24.87 L 54.367 24.874 L 54.353 24.695 C 54.443 24.487 54.518 24.383 54.57 24.378 L 54.57 24.378 Z  M 50.756 35.448 L 50.751 35.396 L 50.874 35.387 L 50.888 35.566 C 50.822 35.571 50.775 35.533 50.756 35.448 Z  M 56.206 35.59 C 56.201 35.547 56.182 35.529 56.139 35.533 L 55.832 35.562 L 55.827 35.5 L 55.856 35.5 L 56.584 35.439 L 56.588 35.5 C 56.376 35.51 56.248 35.543 56.206 35.59 Z  M 55.842 35.439 C 55.87 35.453 55.856 35.467 55.842 35.477 C 55.827 35.472 55.809 35.458 55.842 35.439 Z  M 55.879 34.588 L 55.473 34.621 L 55.468 34.56 L 55.837 34.526 L 56.158 34.446 C 56.163 34.484 56.182 34.498 56.225 34.493 C 56.607 34.427 56.57 34.408 56.754 34.394 C 56.815 34.389 56.853 34.427 56.858 34.503 L 55.879 34.588 L 55.879 34.588 Z  M 57.302 34.465 C 57.075 34.441 57.061 34.422 56.9 34.437 L 56.896 34.385 L 57.26 34.352 L 57.264 34.404 C 57.227 34.408 57.364 34.418 57.302 34.465 Z  M 57.331 34.399 L 57.326 34.347 L 57.524 34.328 L 57.529 34.38 L 57.331 34.399 Z  M 57.77 34.361 L 57.765 34.309 C 57.799 34.304 57.846 34.281 57.907 34.233 C 58.006 34.224 58.058 34.29 58.068 34.366 L 57.77 34.361 L 57.77 34.361 Z  M 58.333 34.29 L 58.328 34.229 L 58.569 34.21 L 58.574 34.271 L 58.333 34.29 Z  M 58.668 34.262 C 58.664 34.191 58.692 34.148 58.753 34.139 L 58.834 34.243 C 58.829 34.21 58.843 34.191 58.871 34.186 L 58.933 34.3 L 58.668 34.262 L 58.668 34.262 Z  M 55.1 35.803 L 55.09 35.684 L 55.052 35.689 L 55.062 35.807 L 55.1 35.803 Z  M 63.404 33.652 C 63.442 33.628 63.461 33.605 63.371 33.591 C 63.329 33.638 63.419 33.652 63.324 33.657 L 63.329 33.699 C 63.338 33.69 63.362 33.676 63.381 33.661 L 63.329 33.704 L 63.329 33.709 L 63.23 33.836 L 63.428 33.765 L 63.452 33.765 L 63.442 33.647 L 63.404 33.652 L 63.404 33.652 Z  M 63.749 33.921 L 63.712 33.926 L 63.721 34.044 L 64 34.021 C 63.995 33.945 63.811 33.921 63.749 33.921 L 63.749 33.921 Z  M 63.319 33.713 L 63.324 33.709 L 63.324 33.704 C 63.324 33.704 63.319 33.709 63.319 33.713 L 63.319 33.713 Z " fill="rgb(0,0,0)"/><path d=" M 45.173 24.964 L 45.178 25.04 L 45.334 25.026 C 45.329 24.978 45.348 24.903 45.381 24.808 L 45.367 24.671 C 45.301 24.676 45.235 24.775 45.173 24.964 L 45.173 24.964 Z  M 43.68 21.372 L 43.666 21.235 L 43.443 21.254 L 43.458 21.391 L 43.68 21.372 Z  M 39.345 29.488 C 39.336 29.36 38.939 28.864 38.154 27.989 C 38.14 27.829 38.409 27.588 38.962 27.271 L 40.541 25.895 C 40.896 25.446 41.104 24.718 41.165 23.707 L 41.146 23.475 C 41.085 22.776 40.579 22.213 39.619 21.783 C 39.052 21.4 38.031 21.188 36.557 21.15 C 35.337 21.254 33.744 21.689 31.783 22.459 C 31.244 22.847 30.629 23.234 29.939 23.622 L 29.949 23.74 C 29.991 23.735 30.057 23.712 30.133 23.66 C 30.213 23.65 30.261 23.688 30.265 23.764 L 30.383 23.702 L 30.44 23.697 L 30.445 23.749 C 30.45 23.811 30.024 24.147 29.164 24.747 L 29.23 24.87 L 29.173 24.874 L 29.032 24.822 C 29.036 24.865 28.975 24.893 28.857 24.903 L 28.861 24.955 L 28.999 25.125 C 28.956 25.13 28.89 25.111 28.8 25.078 C 28.601 25.097 28.408 25.201 28.214 25.399 L 28.294 25.049 C 28.583 23.806 28.781 22.705 28.885 21.75 L 28.871 21.689 C 28.672 21.561 28.479 21.381 28.299 21.155 C 28.304 21.008 28.304 20.923 28.299 20.904 L 28.285 20.852 L 28.228 20.866 C 27.604 21.802 26.404 23.4 24.622 25.659 C 23.265 27.266 22.565 28.16 22.523 28.339 C 21.97 28.911 21.705 29.256 21.734 29.374 C 21.587 29.469 21.526 29.563 21.549 29.667 C 21.507 29.677 21.478 29.663 21.469 29.62 C 21.232 30.003 20.883 30.249 20.415 30.357 L 19.923 30.471 C 19.857 30.485 19.824 30.532 19.829 30.613 L 19.843 30.674 L 20.027 30.632 L 20.041 30.684 L 19.625 30.844 L 18.888 31.014 L 18.5 31.038 C 18.444 31.095 18.808 31.033 18.666 31.066 L 18.184 31.18 C 17.891 31.246 17.73 31.222 17.702 31.104 L 17.645 31.118 C 17.654 31.17 17.659 31.208 17.65 31.241 L 17.621 31.123 L 17.234 31.213 C 17.205 31.033 16.681 30.381 15.664 29.256 C 15.645 29.039 16.005 28.722 16.737 28.311 L 18.808 26.491 C 19.271 25.895 19.545 24.941 19.635 23.627 L 19.606 23.319 C 19.526 22.393 18.855 21.646 17.593 21.069 C 16.846 20.564 15.504 20.294 13.566 20.252 C 11.959 20.389 9.86 20.961 7.279 21.958 C 6.57 22.473 5.762 22.984 4.854 23.49 L 4.869 23.65 C 4.93 23.645 5.01 23.612 5.11 23.556 C 5.214 23.546 5.27 23.594 5.28 23.688 L 5.44 23.598 L 5.521 23.594 L 5.526 23.669 C 5.53 23.745 4.968 24.184 3.829 24.988 L 3.918 25.13 L 3.838 25.134 L 3.663 25.073 C 3.668 25.12 3.588 25.153 3.422 25.168 L 3.432 25.253 L 3.621 25.461 C 3.559 25.465 3.474 25.446 3.365 25.409 C 2.997 25.442 2.638 25.706 2.283 26.207 L 2.373 26.349 C 2.68 26.066 2.86 25.924 2.912 25.919 L 2.931 26.151 C 2.879 26.155 2.798 26.188 2.69 26.245 L 2.883 26.538 C 3.257 26.136 3.668 25.791 4.117 25.503 C 4.339 25.56 4.457 25.631 4.462 25.706 L 4.632 25.692 C 5.852 24.789 7.057 24.137 8.253 23.735 L 8.267 23.896 C 8.045 24.227 7.894 24.397 7.813 24.406 C 7.823 24.52 7.861 24.619 7.931 24.704 C 7.95 24.908 7.407 26.278 6.305 28.812 C 3.805 34.701 1.706 39.059 0 41.877 C 0.005 41.933 0.038 42.009 0.099 42.103 C 0.52 42.004 0.785 41.9 0.898 41.801 L 0.988 41.791 L 1.002 41.952 L 1.158 41.938 L 1.319 41.848 C 1.323 41.895 1.375 41.919 1.484 41.91 L 1.498 42.07 C 1.513 42.226 1.423 42.463 1.234 42.789 C 1.064 42.983 0.879 43.389 0.685 44.008 L 0.69 44.084 L 0.846 44.07 C 1.527 43.309 2.042 42.562 2.396 41.834 C 4.382 41.253 5.894 40.681 6.944 40.118 C 7.998 40.028 8.801 39.749 9.349 39.291 L 9.34 39.206 L 8.943 39.324 L 8.853 39.334 L 8.844 39.248 C 9.619 39.13 10.153 38.96 10.451 38.724 C 11.959 37.561 13.098 36.739 13.868 36.252 C 15.452 35.089 16.482 33.955 16.95 32.853 C 17.035 32.834 17.12 32.815 17.215 32.792 C 17.437 32.782 17.56 32.778 17.593 32.768 C 17.583 32.726 17.602 32.702 17.645 32.692 C 17.999 32.655 17.829 32.716 18.056 32.664 L 18.652 32.527 L 18.751 32.503 L 18.704 32.532 C 18.77 32.541 18.841 32.536 18.921 32.518 L 18.964 32.692 L 16.255 36.999 L 15.655 37.75 L 15.362 38.733 L 15.419 38.719 L 15.712 38.596 L 15.617 38.979 L 15.645 39.092 L 15.726 39.192 C 15.688 39.201 15.674 39.225 15.683 39.267 L 15.697 39.329 L 15.82 39.3 C 16 39.144 16.076 39.003 16.047 38.875 C 16.241 38.908 16.369 38.922 16.435 38.903 L 16.449 38.965 C 16.331 38.993 16.269 39.088 16.26 39.248 L 16.274 39.31 L 16.34 39.296 C 17.323 38.223 19.734 34.55 21.667 32.059 C 21.606 31.79 22.613 31.416 24.692 30.934 L 24.759 30.92 C 24.834 31.246 24.674 32.035 24.277 33.288 C 24.021 34.044 23.898 34.46 23.917 34.526 C 23.586 35.533 23.43 36.077 23.449 36.162 L 22.712 38.577 C 22.235 39.816 21.871 41.116 21.615 42.486 C 21.658 42.477 21.724 42.482 21.819 42.505 L 21.923 42.415 C 21.932 42.458 21.96 42.472 22.003 42.463 L 21.96 42.288 L 22.282 42.278 C 22.376 42.255 22.457 42.136 22.523 41.919 C 22.509 41.593 22.575 41.418 22.721 41.38 C 22.92 40.605 23.043 40.217 23.085 40.203 C 23.27 39.433 23.407 38.993 23.497 38.884 C 23.775 37.882 23.979 37.367 24.111 37.334 L 24.139 37.457 L 23.936 37.982 C 23.582 39.556 23.222 40.799 22.858 41.711 L 22.962 42.165 L 23.029 42.151 C 23.908 40.26 25.175 36.516 26.824 30.92 C 26.871 30.428 27.108 30.045 27.529 29.776 L 27.434 29.677 L 27.42 29.625 C 27.609 29.582 27.741 29.507 27.817 29.403 C 27.807 29.36 27.642 29.299 27.321 29.214 L 28.143 25.687 C 28.323 25.527 28.427 25.442 28.46 25.442 L 28.474 25.621 C 28.431 25.626 28.365 25.65 28.29 25.702 L 28.445 25.924 C 28.729 25.617 29.036 25.352 29.372 25.13 C 29.542 25.177 29.627 25.234 29.637 25.29 L 29.76 25.281 C 30.695 24.596 31.612 24.104 32.515 23.806 L 32.525 23.924 C 32.359 24.175 32.246 24.303 32.184 24.307 C 32.194 24.392 32.217 24.468 32.26 24.534 C 32.274 24.69 31.868 25.73 31.036 27.658 C 29.136 32.125 27.543 35.429 26.248 37.575 C 26.252 37.618 26.281 37.674 26.333 37.75 C 26.649 37.674 26.853 37.594 26.933 37.518 L 26.99 37.514 L 26.999 37.632 L 27.131 37.622 L 27.25 37.561 C 27.254 37.594 27.297 37.608 27.377 37.604 L 27.387 37.731 C 27.396 37.845 27.33 38.024 27.183 38.27 C 27.046 38.417 26.905 38.724 26.753 39.192 L 26.758 39.253 L 26.881 39.244 C 27.396 38.667 27.788 38.1 28.058 37.542 C 29.566 37.098 30.714 36.668 31.508 36.242 C 32.317 36.171 32.926 35.963 33.342 35.614 L 33.338 35.552 L 33.03 35.642 L 32.964 35.647 L 32.96 35.585 C 33.546 35.5 33.957 35.368 34.179 35.193 C 35.323 34.314 36.188 33.685 36.774 33.316 C 38.599 31.988 39.449 30.712 39.345 29.488 L 39.345 29.488 Z  M 39.033 29.568 L 39.076 30.045 C 39.019 30.164 38.958 30.225 38.901 30.23 L 38.83 29.417 C 38.962 29.464 39.029 29.511 39.033 29.568 L 39.033 29.568 Z  M 3.243 25.721 L 3.162 25.725 L 3.148 25.579 L 3.474 25.55 L 3.479 25.626 C 3.427 25.631 3.347 25.659 3.243 25.721 Z  M 1.65 41.654 C 1.461 41.569 1.29 41.536 1.144 41.55 L 1.125 41.319 C 1.116 41.229 1.168 41.168 1.281 41.144 C 1.385 41.134 1.446 41.21 1.456 41.361 C 1.73 41.026 1.881 40.856 1.91 40.851 L 2.084 40.922 C 2.028 41.394 1.881 41.635 1.65 41.654 Z  M 18.671 23.849 C 18.59 23.858 18.43 23.608 18.198 23.111 L 18.184 22.965 C 18.335 22.951 18.491 23.196 18.656 23.702 L 18.671 23.849 Z  M 18.444 22.086 L 18.378 22.242 L 16.066 21.277 C 17.607 21.329 18.401 21.599 18.444 22.086 Z  M 8.683 30.466 L 8.357 30.495 L 8.343 30.348 L 8.669 30.32 L 8.683 30.466 Z  M 8.418 25.432 L 8.499 25.427 L 8.518 25.659 C 8.442 25.664 8.343 25.777 8.22 25.995 L 8.206 25.834 C 8.352 25.659 8.428 25.527 8.418 25.432 L 8.418 25.432 Z  M 7.733 27.049 L 7.761 27.356 L 7.681 27.361 L 7.653 27.053 L 7.733 27.049 Z  M 7.374 27.625 L 7.53 27.611 C 7.516 27.866 7.445 28.004 7.317 28.013 L 7.237 28.018 C 7.336 27.848 7.383 27.715 7.374 27.625 Z  M 7.104 28.429 L 7.194 28.419 L 7.199 28.495 L 7.052 28.741 L 6.896 28.755 L 6.892 28.679 C 7.048 28.665 7.118 28.585 7.104 28.429 L 7.104 28.429 Z  M 6.84 29.152 L 6.792 29.54 L 6.712 29.544 L 6.679 29.162 L 6.84 29.152 Z  M 4.188 36.691 C 4.084 37.221 3.97 37.49 3.852 37.5 L 3.848 37.424 C 3.819 37.164 3.933 36.918 4.188 36.691 Z  M 3.701 37.745 L 3.706 37.821 C 3.715 37.925 3.668 37.986 3.564 37.991 L 3.559 37.916 C 3.55 37.826 3.597 37.769 3.701 37.745 Z  M 3.559 39.934 L 3.805 39.91 L 3.814 39.995 C 3.753 40 3.673 40.033 3.573 40.09 L 3.417 40.104 C 3.408 40.024 3.46 39.962 3.559 39.934 L 3.559 39.934 Z  M 10.555 37.774 C 9.175 38.454 8.362 38.918 8.121 39.159 C 6.627 39.679 5.885 40 5.899 40.128 C 4.571 40.652 3.696 41.04 3.276 41.281 C 3.176 41.29 3.035 41.253 2.845 41.168 C 2.822 40.898 2.945 40.681 3.205 40.506 C 3.436 40.487 3.658 40.52 3.871 40.61 C 4.117 40.482 4.547 40.34 5.157 40.189 L 5.143 40.028 L 4.651 40.071 C 4.713 39.986 5.185 39.764 6.074 39.404 L 6.32 39.381 L 6.324 39.456 C 5.904 39.494 5.672 39.617 5.62 39.839 C 5.63 39.939 5.686 39.981 5.79 39.972 C 6.107 39.773 6.263 39.655 6.258 39.622 C 6.858 39.508 8.518 38.639 11.235 37.017 L 11.25 37.164 C 11.254 37.235 11.023 37.433 10.555 37.774 L 10.555 37.774 Z  M 6.386 39.144 C 6.783 39.111 7.123 38.951 7.407 38.672 C 7.52 38.662 7.582 38.705 7.586 38.804 C 7.393 38.823 7.019 38.984 6.476 39.296 L 6.395 39.3 L 6.386 39.144 L 6.386 39.144 Z  M 13.112 33.978 L 11.027 35.632 C 9.477 36.649 8.645 37.159 8.522 37.169 C 6.055 38.525 4.519 39.23 3.923 39.282 L 3.833 39.291 C 3.909 39.012 5.006 36.767 7.133 32.541 C 8.069 32.461 9.543 32.026 11.552 31.232 L 12.044 31.189 C 13.06 31.1 13.821 31.298 14.322 31.771 L 14.35 32.078 C 13.977 33.16 13.561 33.794 13.112 33.978 L 13.112 33.978 Z  M 9.038 31.686 L 9.373 31.657 L 9.378 31.733 L 9.042 31.761 L 9.038 31.686 Z  M 13.75 30.887 L 13.996 30.863 C 14.223 30.972 14.341 31.066 14.35 31.152 L 14.355 31.227 C 14.138 31.246 13.934 31.133 13.75 30.887 L 13.75 30.887 Z  M 14.417 27.091 C 14.199 27.351 13.604 27.796 12.63 28.419 C 12.308 28.448 11.113 28.911 9.042 29.819 C 8.938 29.771 8.83 29.752 8.711 29.762 L 8.697 29.615 C 8.674 29.318 8.806 28.944 9.099 28.49 C 9.26 27.64 9.435 27.153 9.628 27.035 L 11.354 23.154 C 11.335 22.913 11.703 22.729 12.46 22.601 L 12.705 22.577 L 12.724 22.799 C 13.466 22.686 13.93 22.62 14.109 22.606 C 15.48 22.487 16.194 22.766 16.251 23.433 L 16.406 23.419 L 16.373 23.026 L 16.544 23.012 C 16.945 23.234 17.163 23.504 17.191 23.82 C 17.21 24.038 17.092 24.307 16.841 24.629 C 16.737 24.638 16.676 24.562 16.666 24.411 L 16.496 24.425 L 16.458 24.898 C 15.764 25.938 15.258 26.472 14.946 26.5 C 14.662 26.893 14.487 27.087 14.417 27.091 Z  M 15.475 29.809 C 15.334 29.715 15.22 29.672 15.135 29.677 L 15.116 29.445 L 15.272 29.431 L 15.617 29.634 C 15.631 29.743 15.584 29.8 15.475 29.809 L 15.475 29.809 Z  M 16.572 31.109 C 16.723 31.17 16.813 31.237 16.832 31.298 L 16.756 31.317 L 16.761 31.322 C 16.747 31.322 16.728 31.326 16.714 31.331 L 16.6 31.421 L 16.572 31.109 L 16.572 31.109 Z  M 16.676 31.761 L 16.662 31.7 L 16.86 31.653 L 16.874 31.714 L 16.676 31.761 Z  M 17.153 32.295 C 17.357 32.262 17.456 32.248 17.834 32.163 L 17.848 32.225 L 17.13 32.39 C 17.139 32.357 17.149 32.324 17.153 32.295 Z  M 17.853 32.593 C 17.55 32.622 17.617 32.584 17.134 32.692 L 17.12 32.631 L 17.725 32.437 L 18.014 32.371 L 18.042 32.484 C 17.91 32.513 18.004 32.513 17.853 32.593 Z  M 18.491 32.442 C 18.42 32.461 18.363 32.428 18.33 32.347 L 18.515 32.305 C 18.595 32.286 18.647 32.319 18.666 32.399 L 18.491 32.442 Z  M 20.221 30.58 L 20.207 30.518 L 20.505 30.447 L 20.533 30.561 L 20.221 30.58 L 20.221 30.58 Z  M 22.069 41.914 C 22.088 41.829 22.093 41.768 22.083 41.725 L 22.149 41.711 C 22.23 41.692 22.277 41.721 22.296 41.796 L 22.31 41.858 L 22.069 41.914 L 22.069 41.914 Z  M 23.364 31.066 L 23.232 31.043 C 23.019 31.128 22.84 31.189 22.693 31.222 L 22.57 31.251 C 22.499 31.27 22.443 31.241 22.414 31.166 L 23.279 30.967 L 23.563 30.835 L 23.657 30.944 C 23.52 30.972 23.421 31.014 23.364 31.066 L 23.364 31.066 Z  M 24.031 30.854 L 24.017 30.792 C 24.059 30.783 24.116 30.75 24.177 30.688 L 24.792 30.547 L 24.806 30.608 C 24.48 30.688 24.22 30.769 24.031 30.854 Z  M 24.125 29.611 C 24.083 29.62 24.026 29.658 23.955 29.715 C 23.946 29.672 23.861 29.672 23.7 29.71 C 23.671 29.592 24.125 29.426 25.066 29.209 L 25.198 29.181 L 25.227 29.294 C 24.565 29.488 24.196 29.596 24.125 29.611 L 24.125 29.611 Z  M 25.78 27.824 C 25.713 28.575 25.449 29.001 24.981 29.11 L 24.967 29.048 L 24.551 29.209 L 24.366 29.251 C 24.272 29.275 24.187 29.27 24.111 29.247 L 24.073 29.081 C 24.059 29.02 24.659 28.188 25.879 26.59 L 26.021 26.614 C 26.073 26.831 25.992 27.233 25.78 27.824 L 25.78 27.824 Z  M 28.705 25.319 L 28.649 25.323 L 28.639 25.205 L 28.885 25.182 L 28.89 25.243 C 28.847 25.253 28.786 25.276 28.705 25.319 Z  M 27.5 37.424 C 27.358 37.358 27.231 37.329 27.122 37.339 L 27.108 37.159 C 27.103 37.098 27.141 37.055 27.221 37.032 C 27.302 37.022 27.349 37.079 27.358 37.202 C 27.562 36.942 27.675 36.809 27.699 36.809 L 27.826 36.861 C 27.779 37.221 27.67 37.41 27.5 37.424 L 27.5 37.424 Z  M 40.423 23.905 C 40.362 23.91 40.243 23.721 40.059 23.338 L 40.05 23.22 C 40.168 23.211 40.291 23.395 40.414 23.773 L 40.423 23.905 Z  M 40.253 22.554 L 40.196 22.677 L 38.447 21.944 C 39.615 21.982 40.22 22.185 40.253 22.554 Z  M 32.837 28.921 L 32.591 28.944 L 32.581 28.826 L 32.827 28.802 L 32.837 28.921 Z  M 32.633 25.097 L 32.7 25.092 L 32.714 25.271 C 32.652 25.276 32.577 25.361 32.487 25.527 L 32.477 25.409 C 32.586 25.271 32.638 25.168 32.633 25.097 L 32.633 25.097 Z  M 32.118 26.326 L 32.137 26.557 L 32.071 26.562 L 32.052 26.33 L 32.118 26.326 Z  M 31.839 26.765 L 31.962 26.756 C 31.948 26.954 31.896 27.058 31.806 27.068 L 31.74 27.072 C 31.811 26.94 31.844 26.836 31.839 26.765 L 31.839 26.765 Z  M 31.641 27.37 L 31.697 27.365 L 31.702 27.427 L 31.594 27.616 L 31.471 27.625 L 31.466 27.564 C 31.594 27.555 31.65 27.488 31.641 27.37 L 31.641 27.37 Z  M 31.442 27.918 L 31.4 28.221 L 31.343 28.226 L 31.319 27.928 L 31.442 27.918 Z  M 29.424 33.652 C 29.344 34.049 29.258 34.252 29.169 34.262 L 29.164 34.21 C 29.15 34.011 29.235 33.822 29.424 33.652 L 29.424 33.652 Z  M 29.051 34.451 L 29.055 34.503 C 29.065 34.588 29.027 34.635 28.942 34.64 L 28.937 34.578 C 28.932 34.517 28.97 34.474 29.051 34.451 Z  M 28.947 36.115 L 29.136 36.1 L 29.14 36.162 C 29.098 36.167 29.032 36.19 28.956 36.233 L 28.833 36.242 C 28.828 36.176 28.866 36.134 28.947 36.115 Z  M 34.255 34.474 C 33.215 34.99 32.596 35.339 32.402 35.519 C 31.267 35.916 30.705 36.162 30.714 36.261 C 29.708 36.663 29.046 36.951 28.734 37.136 C 28.658 37.14 28.549 37.112 28.408 37.046 C 28.389 36.843 28.483 36.677 28.682 36.554 C 28.861 36.54 29.032 36.564 29.188 36.63 C 29.377 36.535 29.703 36.431 30.166 36.313 L 30.157 36.195 L 29.774 36.228 C 29.821 36.162 30.185 35.992 30.861 35.718 L 31.05 35.703 L 31.055 35.755 C 30.733 35.784 30.554 35.878 30.516 36.048 C 30.521 36.124 30.568 36.162 30.648 36.152 C 30.884 35.996 30.998 35.907 30.998 35.878 C 31.452 35.798 32.709 35.136 34.775 33.898 L 34.784 34.016 C 34.784 34.063 34.609 34.214 34.255 34.474 L 34.255 34.474 Z  M 31.088 35.514 C 31.395 35.486 31.655 35.368 31.872 35.16 C 31.953 35.155 32 35.188 32.005 35.264 C 31.863 35.278 31.584 35.396 31.163 35.623 L 31.097 35.628 L 31.088 35.514 L 31.088 35.514 Z  M 36.202 31.586 L 34.628 32.853 C 33.451 33.624 32.813 34.011 32.714 34.021 C 30.842 35.051 29.679 35.585 29.221 35.623 L 29.155 35.628 C 29.211 35.415 30.048 33.709 31.664 30.504 C 32.369 30.443 33.484 30.107 35.016 29.502 L 35.399 29.469 C 36.169 29.403 36.746 29.554 37.124 29.918 L 37.143 30.149 C 36.854 30.962 36.542 31.44 36.202 31.586 L 36.202 31.586 Z  M 33.111 29.847 L 33.357 29.823 L 33.361 29.885 L 33.116 29.908 L 33.111 29.847 Z  M 36.689 29.237 L 36.878 29.223 C 37.053 29.308 37.143 29.384 37.147 29.445 L 37.152 29.497 C 36.987 29.511 36.831 29.426 36.689 29.237 L 36.689 29.237 Z  M 37.185 26.359 C 37.02 26.557 36.571 26.897 35.838 27.37 C 35.592 27.394 34.685 27.744 33.116 28.424 C 33.04 28.396 32.955 28.386 32.865 28.391 L 32.856 28.273 C 32.837 28.046 32.936 27.762 33.153 27.417 C 33.276 26.765 33.413 26.401 33.555 26.316 L 34.874 23.367 C 34.86 23.192 35.139 23.05 35.706 22.941 L 35.895 22.927 L 35.909 23.107 C 36.467 23.017 36.817 22.965 36.958 22.951 C 37.998 22.861 38.542 23.069 38.584 23.579 L 38.707 23.57 L 38.684 23.286 L 38.806 23.277 C 39.109 23.442 39.27 23.641 39.289 23.877 C 39.303 24.047 39.218 24.255 39.038 24.496 C 38.958 24.506 38.91 24.449 38.901 24.326 L 38.778 24.336 L 38.74 24.69 C 38.216 25.489 37.833 25.9 37.592 25.919 C 37.379 26.207 37.247 26.354 37.185 26.359 L 37.185 26.359 Z  M 37.738 28.325 L 37.724 28.145 L 37.847 28.136 L 38.112 28.297 C 38.116 28.372 38.079 28.415 37.998 28.424 C 37.885 28.353 37.8 28.32 37.738 28.325 L 37.738 28.325 Z  M 15.735 39.806 L 15.612 39.835 L 15.508 39.924 C 15.527 40 15.575 40.028 15.655 40.009 C 15.735 39.991 15.768 39.943 15.749 39.868 L 15.735 39.806 Z  M 15.267 38.875 L 15.282 38.936 C 15.362 38.918 15.395 38.87 15.376 38.795 L 15.362 38.733 C 15.286 38.752 15.253 38.799 15.267 38.875 Z  M 18.614 32.588 L 18.704 32.532 C 18.685 32.532 18.671 32.527 18.656 32.522 C 18.623 32.532 18.609 32.555 18.614 32.588 Z  M 18.595 30.958 L 18.737 30.925 L 18.708 30.802 L 18.567 30.835 L 18.595 30.958 Z  M 51.999 35.732 L 51.677 35.694 L 51.621 35.817 L 51.625 35.878 L 53.54 35.718 L 53.53 35.599 L 51.999 35.732 L 51.999 35.732 Z  M 53.748 35.585 L 53.757 35.703 L 53.776 35.703 L 53.767 35.585 L 53.748 35.585 Z  M 61.778 34.536 L 61.788 34.654 L 61.996 34.692 L 61.986 34.574 L 61.778 34.536 Z  M 61.485 34.56 C 60.048 34.881 59.869 34.824 59.566 34.848 L 59.576 34.966 L 59.708 34.957 L 59.779 34.952 L 59.76 34.938 L 59.916 34.876 C 61.339 34.72 61.504 34.777 61.49 34.616 L 61.485 34.56 Z  M 52.859 32.47 L 52.731 32.428 C 52.627 32.707 52.575 32.872 52.58 32.919 L 52.585 32.971 C 52.684 32.967 52.774 32.796 52.859 32.47 L 52.859 32.47 Z  M 51.129 31.539 L 51.124 31.478 L 51.058 31.482 L 50.94 31.558 L 51.006 31.671 C 51.096 31.662 51.139 31.619 51.129 31.539 Z  M 54.887 35.425 L 54.877 35.306 L 54.84 35.311 L 54.849 35.429 L 54.887 35.425 Z  M 62.686 33.666 L 62.776 33.657 C 62.828 33.652 62.851 33.609 62.847 33.534 L 62.795 33.42 C 62.469 33.449 62.317 33.463 62.053 33.609 L 62.048 33.548 L 61.656 33.586 C 61.646 33.468 61.613 33.406 61.561 33.411 L 61.358 33.43 C 61.121 33.449 61.008 33.439 60.89 33.529 C 60.885 33.487 60.871 33.468 60.847 33.468 L 60.62 33.487 L 60.488 33.562 C 60.483 33.52 60.469 33.501 60.445 33.501 L 60.365 33.572 L 60.36 33.51 L 60.044 33.487 L 59.968 33.491 L 59.978 33.609 L 60.138 33.652 L 60.29 33.643 C 60.342 33.676 60.398 33.685 60.464 33.68 L 60.597 33.614 L 60.601 33.666 C 59.859 33.851 59.864 33.817 59.354 33.903 C 59.297 33.865 59.254 33.846 59.226 33.851 L 59.217 33.86 C 59.16 33.855 59.127 33.817 59.122 33.756 L 59.387 33.723 C 59.406 33.723 59.42 33.742 59.566 33.77 C 59.779 33.666 59.788 33.624 59.902 33.614 L 59.892 33.496 C 59.165 33.638 59.458 33.543 58.545 33.624 L 58.503 33.628 L 58.493 33.51 C 59.666 33.368 59.273 33.449 59.675 33.335 C 59.68 33.378 59.694 33.397 59.718 33.397 C 59.765 33.349 59.817 33.326 59.878 33.316 L 59.959 33.312 C 60.37 33.279 60.507 33.359 61.32 33.132 L 61.325 33.184 L 61.457 33.118 L 61.58 33.108 C 61.57 32.99 61.75 32.971 61.812 32.967 L 61.802 32.839 C 60.375 33.127 60.001 33.047 59.604 33.16 L 59.599 33.108 C 59.226 33.175 59.212 33.146 59.117 33.151 C 59.089 33.156 59.046 33.179 58.999 33.227 C 58.994 33.184 58.98 33.165 58.952 33.165 C 58.938 33.165 58.933 33.17 58.928 33.17 L 57.718 33.368 C 57.713 33.335 57.699 33.316 57.671 33.321 C 57.042 33.453 57.212 33.477 56.371 33.553 C 56.333 33.557 56.281 33.576 56.215 33.619 C 56.21 33.586 56.191 33.567 56.149 33.572 L 55.634 33.614 L 55.289 33.699 C 55.284 33.666 55.265 33.647 55.222 33.652 C 55.029 33.704 54.858 33.737 54.721 33.747 L 54.712 33.747 C 54.627 33.756 54.755 33.723 54.688 33.695 L 54.584 33.756 C 54.433 33.77 54.513 33.747 53.994 33.751 C 53.081 33.865 53.181 33.879 53.081 33.884 L 52.741 33.86 C 52.746 33.893 52.727 33.917 52.689 33.917 C 52.301 33.865 52.103 33.803 52.098 33.732 C 52.15 33.364 52.24 33.175 52.368 33.165 L 52.434 33.16 L 52.377 33.283 L 52.443 33.279 C 52.566 33.212 52.623 33.151 52.618 33.094 L 52.609 32.967 L 52.486 32.976 L 52.476 32.858 C 52.467 32.768 52.481 32.688 52.514 32.622 L 52.793 32.173 L 52.802 32.291 L 52.935 32.281 L 52.925 32.163 L 52.85 32.054 C 52.949 31.969 53.025 31.922 53.086 31.917 L 53.081 31.856 L 52.902 31.87 L 52.887 31.69 C 53.247 30.944 53.417 30.509 53.407 30.386 L 53.535 30.438 C 53.615 30.433 53.653 30.386 53.648 30.301 L 53.526 30.31 L 53.521 30.258 C 53.511 30.168 53.53 30.083 53.568 30.008 C 53.762 29.804 53.852 29.601 53.833 29.388 C 53.871 29.384 53.89 29.403 53.894 29.445 C 54.06 29.351 54.187 29.1 54.282 28.684 C 54.575 28.155 54.991 27.096 55.534 25.513 C 56.574 22.714 56.532 22.417 56.678 21.755 L 56.555 21.764 C 56.565 21.849 56.546 21.93 56.508 22.005 C 56.423 21.972 56.357 21.953 56.31 21.958 L 56.305 21.906 C 56.286 21.665 56.385 21.377 56.612 21.036 L 56.669 21.032 L 56.773 21.438 L 56.896 21.429 C 56.891 21.4 56.924 21.24 56.99 20.942 C 56.986 20.88 56.938 20.843 56.844 20.838 L 56.726 20.913 C 56.716 20.828 56.721 20.606 56.735 20.252 L 56.674 20.256 C 56.57 20.152 56.518 20.067 56.513 19.996 L 55.837 20.063 C 55.832 20.015 55.809 19.944 55.761 19.855 C 55.757 19.793 55.908 19.732 56.22 19.67 L 56.357 19.722 L 56.484 19.647 C 56.489 19.689 56.513 19.708 56.56 19.703 L 56.688 19.628 C 56.692 19.67 56.716 19.689 56.763 19.684 L 56.825 19.68 L 56.815 19.543 C 56.721 19.552 56.47 19.552 56.073 19.538 L 55.946 19.623 L 55.941 19.547 C 52.769 19.807 50.968 19.954 50.538 19.996 C 50.482 20.001 50.259 19.996 49.867 19.987 C 49.872 20.039 49.825 20.067 49.73 20.077 L 49.593 20.015 L 49.13 20.134 C 49.021 20.143 48.837 20.138 48.581 20.11 C 48.51 20.167 48.425 20.2 48.321 20.209 C 48.265 20.214 48.997 20.171 49.678 20.124 C 49.607 20.181 49.498 20.214 49.347 20.228 C 49.243 20.238 49.153 20.223 49.078 20.181 C 48.974 20.228 48.638 20.304 48.076 20.417 L 47.939 20.365 L 45.726 20.705 C 45.641 20.663 45.542 20.649 45.429 20.658 C 45.31 20.668 45.112 20.71 44.838 20.786 L 43.77 21.23 L 43.85 21.362 C 43.902 21.358 43.978 21.329 44.067 21.277 L 44.445 21.31 L 44.398 21.665 C 44.048 21.821 43.845 22.053 43.788 22.346 C 43.264 22.577 43.004 22.743 43.004 22.842 L 43.009 22.903 L 43.089 22.899 L 43.231 22.823 L 43.396 23.022 L 43.42 23.296 C 43.429 23.381 42.545 25.238 40.778 28.869 C 39.246 32.366 38.443 34.281 38.367 34.626 C 37.842 34.772 37.54 34.985 37.45 35.269 C 37.459 35.358 37.615 35.42 37.918 35.443 L 37.932 35.581 L 37.795 35.807 L 37.819 36.082 C 37.833 36.223 38.216 36.332 38.967 36.408 C 38.962 36.36 38.986 36.332 39.038 36.327 C 39.052 36.497 39.005 36.828 38.896 37.32 L 38.977 37.315 C 39.289 36.89 39.435 36.597 39.421 36.436 L 39.487 36.431 C 39.563 36.427 39.643 36.512 39.738 36.696 C 39.643 36.734 39.312 37.485 38.745 38.955 L 38.825 39.088 L 38.906 39.083 C 39.601 37.325 40.035 36.351 40.215 36.167 C 41.127 36.086 42.706 35.926 44.947 35.684 L 45.088 35.599 C 45.093 35.647 45.121 35.67 45.173 35.666 L 45.32 35.651 L 45.462 35.566 C 45.466 35.614 45.495 35.637 45.547 35.632 L 47.244 35.486 C 47.693 35.448 47.905 35.311 47.887 35.079 C 47.882 35.018 48.147 34.947 48.681 34.871 C 48.733 34.867 48.808 34.881 48.912 34.914 C 48.908 34.871 49.177 34.829 49.716 34.782 C 49.73 34.498 49.82 34.347 49.981 34.333 L 49.966 34.196 C 49.815 34.21 49.645 34.248 49.446 34.314 C 49.092 34.295 48.865 34.266 48.77 34.233 C 48.676 34.285 48.605 34.314 48.553 34.318 L 47.371 34.356 L 47.23 34.432 C 47.225 34.389 47.196 34.37 47.144 34.375 L 47.078 34.38 L 46.927 34.456 C 46.922 34.413 46.799 34.38 46.554 34.347 L 46.402 34.437 L 46.109 34.46 L 46.105 34.385 C 47.627 34.219 48.378 34.011 48.359 33.765 C 48.458 33.756 48.51 33.803 48.52 33.903 L 48.964 33.789 L 48.95 33.652 L 45.306 33.751 C 45.31 33.799 45.287 33.827 45.235 33.832 L 44.791 33.794 C 44.677 33.803 44.583 33.836 44.507 33.893 L 44.342 33.832 C 43.883 33.869 43.543 33.926 43.316 33.997 C 43.004 33.973 42.659 33.978 42.276 34.011 L 41.458 34.082 L 41.08 34.04 C 41.061 33.799 41.529 32.612 42.493 30.485 C 42.772 29.767 43.027 29.318 43.273 29.147 C 43.325 29.143 43.401 29.162 43.505 29.204 L 44.086 29.006 L 44.384 29.053 C 44.885 29.01 45.466 28.869 46.133 28.623 C 46.298 28.609 46.421 28.618 46.511 28.656 L 46.955 28.552 L 48.279 28.438 C 48.841 28.391 49.451 28.268 50.113 28.065 L 50.099 27.928 C 49.853 27.952 49.725 27.909 49.716 27.81 C 49.702 27.625 49.522 27.55 49.177 27.578 L 49.163 27.441 L 49.527 27.337 L 50.482 27.257 L 50.467 27.12 C 50.43 27.124 50.236 27.12 49.877 27.105 L 49.862 26.959 L 50.231 26.926 C 50.33 26.916 50.373 26.869 50.363 26.775 C 49.867 26.789 49.617 26.765 49.612 26.699 C 46.152 26.869 44.417 26.902 44.408 26.794 C 44.356 26.798 44.285 26.831 44.19 26.888 L 44.1 26.746 C 45.017 24.799 45.556 23.816 45.712 23.801 C 45.717 23.877 45.679 24 45.599 24.165 L 45.604 24.227 L 45.75 24.213 C 46.114 23.343 46.421 22.894 46.677 22.875 C 47.764 22.781 46.525 22.71 48.851 22.346 C 48.945 22.388 49.012 22.407 49.059 22.402 C 49.971 22.218 51.243 22.024 52.873 21.826 L 52.864 21.689 L 51.994 21.769 L 51.985 21.632 C 52.089 21.622 52.174 21.589 52.245 21.533 L 52.249 21.608 C 52.297 21.604 52.363 21.57 52.448 21.514 C 52.599 21.5 52.713 21.514 52.793 21.556 C 53.095 21.476 53.341 21.429 53.521 21.41 L 54.064 21.358 C 54.197 21.273 54.258 21.197 54.253 21.126 L 54.249 21.065 C 54.112 21.079 53.956 21.069 53.771 21.036 C 53.767 20.961 53.804 20.909 53.894 20.885 L 54.906 20.791 L 55.369 20.672 C 55.374 20.724 55.397 20.743 55.435 20.743 C 55.482 20.739 55.549 20.705 55.634 20.649 C 55.657 20.653 55.686 20.653 55.709 20.658 C 55.648 20.786 55.577 20.97 55.506 21.211 L 55.374 21.221 C 55.364 21.131 55.341 21.051 55.298 20.98 L 55.232 20.984 C 54.003 24.406 53.455 25.999 52.32 28.627 C 52.112 29.299 51.937 29.672 51.786 29.752 C 51.791 29.828 51.838 29.866 51.918 29.856 C 51.947 30.187 51.871 30.513 51.687 30.835 C 51.162 32.347 50.812 33.175 50.633 33.326 L 50.751 34.04 C 50.756 34.115 50.718 34.158 50.638 34.167 L 50.515 34.177 C 50.496 33.978 50.425 33.884 50.297 33.898 L 50.231 33.903 C 50.07 34.153 49.947 34.441 49.867 34.777 L 49.99 34.768 C 50.155 34.659 50.231 34.531 50.217 34.385 L 50.463 34.361 L 50.604 34.413 C 50.491 34.593 50.439 34.734 50.448 34.843 L 50.515 34.957 L 50.354 35.335 L 50.359 35.396 C 50.5 35.382 50.656 35.429 50.822 35.529 C 50.935 35.519 51.058 35.467 51.195 35.377 C 51.337 35.363 51.866 35.358 52.779 35.358 L 53.237 35.202 C 53.795 35.198 53.885 35.212 54.367 35.169 L 54.565 35.15 L 54.669 35.079 L 54.674 35.141 C 55.18 35.098 55.213 35.131 55.61 35.179 L 55.615 35.24 L 55.336 35.264 L 55.345 35.382 C 55.43 35.373 55.506 35.349 55.568 35.297 C 55.638 35.292 55.681 35.33 55.686 35.415 C 55.572 35.425 55.445 35.453 55.303 35.5 L 55.18 35.458 C 54.986 35.51 55.029 35.524 54.896 35.533 L 54.703 35.495 C 54.707 35.529 54.688 35.552 54.655 35.552 C 54.66 35.628 54.703 35.666 54.773 35.661 L 54.972 35.642 L 56.007 35.552 L 56.399 35.467 C 56.404 35.5 56.418 35.519 56.451 35.514 L 56.64 35.443 L 56.995 35.415 C 57.269 35.391 57.264 35.373 57.86 35.278 C 57.855 35.24 57.869 35.226 57.898 35.221 L 57.903 35.273 C 58.871 35.108 58.933 35.098 59.089 35.046 L 59.103 35.075 C 59.344 35.018 59.207 35.032 59.273 34.985 C 59.278 35.027 59.292 35.046 59.316 35.046 L 59.486 35.032 L 59.477 34.905 L 59.131 34.9 L 59.127 34.89 C 59.113 34.895 59.103 34.895 59.089 34.9 L 59.042 34.9 L 59.042 34.909 C 58.81 34.957 58.805 34.923 58.654 34.938 L 57.789 34.985 L 57.784 34.923 L 58.266 34.857 L 58.441 34.843 L 58.541 34.772 L 58.545 34.834 C 59.226 34.777 59.467 34.947 62.615 34.276 C 62.785 34.262 62.771 34.12 62.88 33.827 C 62.823 33.832 62.766 33.817 62.714 33.789 C 62.454 33.888 62.317 33.841 61.816 33.921 C 61.774 33.926 61.741 33.888 61.726 33.813 L 61.722 33.761 L 62.204 33.775 C 62.294 33.765 62.469 33.751 62.729 33.605 C 62.729 33.647 62.629 33.671 62.686 33.666 L 62.686 33.666 Z  M 39.412 34.04 L 39.189 34.058 C 39.18 33.969 39.298 33.628 39.544 33.047 L 39.69 33.033 C 39.695 33.17 39.605 33.505 39.412 34.04 Z  M 39.681 32.962 L 39.676 32.9 C 39.671 32.825 39.719 32.773 39.823 32.749 L 39.827 32.811 C 39.832 32.9 39.785 32.952 39.681 32.962 Z  M 42.635 35.245 L 42.64 35.306 L 42.271 35.339 L 42.266 35.278 L 42.635 35.245 Z  M 42.191 35.207 C 42.196 35.283 42.082 35.368 41.836 35.453 L 41.383 35.42 L 41.236 35.434 L 41.222 35.297 L 42.191 35.207 L 42.191 35.207 Z  M 45.178 21.457 L 44.956 21.476 L 44.951 21.4 C 44.947 21.325 44.989 21.273 45.084 21.249 L 45.164 21.244 L 45.315 21.306 C 45.32 21.396 45.277 21.448 45.178 21.457 L 45.178 21.457 Z  M 48.558 20.795 L 48.629 20.791 L 48.638 20.928 L 48.435 20.947 C 48.43 20.871 48.468 20.819 48.558 20.795 L 48.558 20.795 Z  M 47.707 21.093 L 47.371 21.055 L 47.367 20.994 C 47.806 20.956 47.953 20.909 48.222 20.833 C 48.227 20.885 48.274 20.904 48.359 20.895 L 48.369 21.032 L 48.236 21.046 C 48.132 21.055 48.043 21.041 47.967 20.999 C 47.887 21.051 47.801 21.084 47.707 21.093 L 47.707 21.093 Z  M 48.128 22.317 L 48.123 22.256 L 48.666 22.204 L 48.671 22.265 L 48.128 22.317 Z  M 48.709 21.845 L 48.704 21.769 L 48.969 21.745 L 48.974 21.821 L 48.709 21.845 Z  M 48.77 20.918 L 48.7 20.923 L 48.761 20.776 L 49.366 20.72 L 49.371 20.795 C 49.215 20.809 49.012 20.852 48.77 20.918 L 48.77 20.918 Z  M 49.078 22.223 L 49.068 22.086 L 49.333 22.062 C 49.423 22.053 49.47 22.095 49.475 22.19 L 49.078 22.223 L 49.078 22.223 Z  M 50.68 20.039 L 50.34 20.134 L 50.278 20.138 C 50.118 20.152 49.91 20.148 49.664 20.124 C 50.103 20.096 50.524 20.063 50.68 20.039 Z  M 50.316 21.552 L 50.321 21.613 L 49.853 21.656 L 49.848 21.594 L 50.316 21.552 Z  M 51.082 21.916 C 51.077 21.859 50.987 21.821 50.803 21.802 L 50.335 21.934 L 49.976 21.949 C 49.895 21.892 49.853 21.854 49.848 21.826 L 50.264 21.849 L 51.2 21.698 L 51.677 21.717 L 51.682 21.793 C 51.446 21.816 51.247 21.859 51.082 21.916 L 51.082 21.916 Z  M 55.898 20.672 C 55.955 20.677 55.993 20.677 56.007 20.677 C 56.173 20.516 56.357 20.389 56.57 20.299 C 56.399 21.046 56.135 21.599 55.771 21.958 L 55.506 21.797 C 55.728 21.235 55.861 20.861 55.898 20.672 L 55.898 20.672 Z  M 55.085 22.067 L 55.152 22.062 C 55.062 22.232 54.981 22.322 54.915 22.327 L 54.901 22.147 C 54.944 22.147 55.005 22.119 55.085 22.067 L 55.085 22.067 Z  M 54.561 23.319 C 54.688 22.809 54.811 22.521 54.925 22.445 L 54.929 22.506 C 54.863 22.979 54.759 23.23 54.622 23.248 L 54.646 23.546 C 54.532 23.707 54.48 23.83 54.485 23.924 L 54.419 23.929 L 54.381 23.518 C 54.457 23.508 54.518 23.442 54.561 23.319 L 54.561 23.319 Z  M 54.357 24 C 54.362 24.071 54.315 24.236 54.22 24.492 L 54.154 24.496 L 54.14 24.317 C 54.23 24.109 54.305 24.005 54.357 24 L 54.357 24 Z  M 50.543 35.07 L 50.538 35.018 L 50.661 35.009 L 50.675 35.188 C 50.609 35.193 50.562 35.155 50.543 35.07 Z  M 55.993 35.212 C 55.988 35.169 55.969 35.15 55.927 35.155 L 55.619 35.183 L 55.615 35.122 L 55.643 35.122 L 56.371 35.061 L 56.376 35.122 C 56.163 35.131 56.035 35.165 55.993 35.212 Z  M 55.629 35.061 C 55.657 35.075 55.643 35.089 55.629 35.098 C 55.615 35.094 55.596 35.079 55.629 35.061 Z  M 55.667 34.21 L 55.26 34.243 L 55.256 34.181 L 55.624 34.148 L 55.946 34.068 C 55.95 34.106 55.969 34.12 56.012 34.115 C 56.395 34.049 56.357 34.03 56.541 34.016 C 56.603 34.011 56.64 34.049 56.645 34.125 L 55.667 34.21 L 55.667 34.21 Z  M 57.09 34.087 C 56.863 34.063 56.848 34.044 56.688 34.058 L 56.683 34.006 L 57.047 33.973 L 57.052 34.025 C 57.014 34.03 57.151 34.04 57.09 34.087 Z  M 57.118 34.021 L 57.113 33.969 L 57.312 33.95 L 57.316 34.002 L 57.118 34.021 Z  M 57.557 33.983 L 57.553 33.931 C 57.586 33.926 57.633 33.903 57.695 33.855 C 57.794 33.846 57.846 33.912 57.855 33.988 L 57.557 33.983 L 57.557 33.983 Z  M 58.12 33.912 L 58.115 33.851 L 58.356 33.832 L 58.361 33.893 L 58.12 33.912 Z  M 58.456 33.884 C 58.451 33.813 58.479 33.77 58.541 33.761 L 58.621 33.865 C 58.616 33.832 58.63 33.813 58.659 33.808 L 58.72 33.921 L 58.456 33.884 L 58.456 33.884 Z  M 63.107 33.335 L 63.111 33.331 L 63.111 33.326 C 63.111 33.326 63.107 33.331 63.107 33.335 L 63.107 33.335 Z  M 63.192 33.274 C 63.23 33.25 63.248 33.227 63.159 33.212 C 63.116 33.26 63.206 33.274 63.111 33.279 L 63.116 33.321 C 63.126 33.312 63.149 33.297 63.168 33.283 L 63.116 33.326 L 63.116 33.331 L 63.017 33.458 L 63.215 33.387 L 63.239 33.387 L 63.23 33.269 L 63.192 33.274 L 63.192 33.274 Z  M 63.537 33.543 L 63.499 33.548 L 63.508 33.666 L 63.787 33.643 C 63.783 33.567 63.598 33.543 63.537 33.543 L 63.537 33.543 Z " fill="rgb(249,220,62)"/></g></g></svg>