<?xml version="1.0" encoding="utf-8"?>
<!-- Generator: Adobe Illustrator 27.6.1, SVG Export Plug-In . SVG Version: 6.00 Build 0)  -->
<svg version="1.1" id="Capa_1" xmlns="http://www.w3.org/2000/svg" xmlns:xlink="http://www.w3.org/1999/xlink" x="0px" y="0px"
	 viewBox="0 0 797.5 767.7" style="enable-background:new 0 0 797.5 767.7;" xml:space="preserve">
<style type="text/css">
	.st0{fill:#FFFFFF;}
	.st1{fill:#332951;}
</style>
<g>
	<path class="st0" d="M398.6,182c-126.8,0-227.4,86.2-239.2,204.9c-4.7,47.3,9.8,91.1,41.9,126.5c43.8,48.3,115.6,76,197.1,76
		c82.6,0,155.1-28.2,199.1-77.4c31.5-35.1,45.4-78.3,40.3-125C624.8,268.2,524.2,182,398.6,182L398.6,182z"/>
	<path class="st1" d="M423.9,506.5c-4.9,0-8.8,3.8-9,8.6c-0.7,1-3.3,2.5-7.2,3.6c0,0,0.1-35.8,0-36.3c9.5-1.9,16.3-6.8,16.3-12.5
		c0-7.4-11.3-13.4-25.2-13.4s-25.2,6-25.2,13.4c0,5.7,6.8,10.6,16.3,12.5c-0.1,0.5,0,36.3,0,36.3c-4-1.1-6.5-2.7-7.2-3.6
		c-0.2-4.8-4.2-8.6-9-8.6s-9.1,4.1-9.1,9.1c0,12.8,14.7,22.4,34.2,22.4s34.2-9.6,34.2-22.4C433,510.6,428.9,506.5,423.9,506.5
		L423.9,506.5z"/>
	<path class="st1" d="M518.9,316.1c-41.3,0-74.8,38.1-74.8,85s33.5,85,74.8,85s74.8-38.1,74.8-85S560.2,316.1,518.9,316.1z
		 M504.7,426.2c-0.7,11.2-10.4,19.7-21.6,19c-11.2-0.7-19.7-10.4-19-21.6c0.7-11.2,10.4-19.7,21.6-19
		C496.9,405.4,505.4,415,504.7,426.2z"/>
	<path class="st1" d="M280.5,316.1c-41.3,0-74.8,38.1-74.8,85s33.5,85,74.8,85s74.8-38.1,74.8-85S321.8,316.1,280.5,316.1z
		 M311.7,445.2c-11.2-0.7-19.7-10.4-19-21.6c0.7-11.2,10.4-19.7,21.6-19c11.2,0.7,19.7,10.4,19,21.6
		C332.6,437.4,322.9,445.9,311.7,445.2z"/>
	<path class="st1" d="M661.9,384.4c-6.3-58-32.6-111.7-74.2-152.3c3.9-7.4,6.1-15.8,6.1-24.7c0-29.4-23.8-53.2-53.2-53.2
		c-17.3,0-32.7,8.3-42.4,21.1c-30.8-11.6-64.3-17.5-99.7-17.5s-67,5.8-97.5,16.9c-9.7-12.5-24.9-20.5-42-20.5
		c-29.4,0-53.2,23.8-53.2,53.2c0,8.1,1.8,15.8,5.1,22.7c-43.1,41-69.9,95.5-75.7,154.5c-5.4,54.3,11.2,104.5,48,145.1
		c48.4,53.4,126.8,84,215.1,84h0.2c89.3,0,168.4-31.2,217-85.4C651.8,487.8,667.8,438.1,661.9,384.4L661.9,384.4z M597.5,512
		c-44,49.1-116.5,77.3-199.1,77.4c-81.5,0-153.3-27.7-197.1-76c-32.1-35.4-46.6-79.1-41.8-126.5c5.4-54.6,29.6-102.4,66.6-138
		c8.9-8.6,18.5-16.4,28.8-23.5c0,0,0,0,0.1,0c8.5-5.9,17.5-11.3,26.9-16c0,0,0.1,0,0.1-0.1c1.9-0.9,3.7-1.9,5.6-2.8c0,0,0,0,0,0
		c7.7-3.6,15.6-6.9,23.7-9.8l0,0c27-9.5,56.4-14.7,87.4-14.7s62.1,5.6,89.8,15.8c1.9,0.7,3.8,1.4,5.7,2.2c0.2,0.1,0.4,0.1,0.6,0.2
		c1.7,0.7,3.5,1.4,5.2,2.1c0.2,0.1,0.4,0.2,0.6,0.2c1.8,0.8,3.6,1.6,5.4,2.4c0.1,0,0.1,0.1,0.2,0.1c5.6,2.6,11.2,5.4,16.5,8.4
		c0.2,0.1,0.3,0.2,0.5,0.3c1.5,0.9,3.1,1.8,4.6,2.7c0.3,0.2,0.6,0.4,0.9,0.6c1.4,0.8,2.8,1.7,4.2,2.6c0.3,0.2,0.7,0.4,1,0.6
		c1.4,0.9,2.8,1.8,4.2,2.8c0.2,0.2,0.5,0.3,0.7,0.5c3.3,2.2,6.6,4.6,9.8,7c0.1,0.1,0.1,0.1,0.2,0.2c1.5,1.1,2.9,2.2,4.4,3.4
		c0.4,0.3,0.7,0.6,1.1,0.9c1.2,0.9,2.3,1.8,3.4,2.8c0.4,0.4,0.9,0.7,1.3,1.1c1.1,0.9,2.1,1.8,3.2,2.7c0.4,0.4,0.9,0.8,1.3,1.1
		c1.1,1,2.2,1.9,3.2,2.9c0.3,0.3,0.7,0.6,1,1c1.4,1.3,2.8,2.6,4.1,4c36.2,35.5,60.1,82.7,66,136.6C643,433.7,629,476.9,597.5,512
		L597.5,512z"/>
</g>
</svg>
