<svg xmlns="http://www.w3.org/2000/svg" width="2000" height="1998.01" viewBox="0 0 2000 1998.01"><path d="M1000,0C447.71,0,0,447.26,0,999s447.71,999,1000,999,1000-447.26,1000-999S1552.28,0,1000,0Zm411.25,1416.25-417.83,241.4v.09h-.17l-418.1-241.49V580.89l.43.26,417.5-240.88,268,149.37h.08V866.75l-130.38-74.81V564.8L993.25,486.53,705.45,652.77v692.47l287.8,166.24L1281,1345.76l1.38-284.57-408.91-237,131.34-69,407.44,237.33-1,423.82ZM1072,971.84l100.69,57.87L873.51,1199.93V856.72l105.11,61.93v103l93.5-49.82Z" fill="#516ffa"/></svg>