<svg xmlns="http://www.w3.org/2000/svg" width="512pt" height="512pt" style="isolation:isolate" viewBox="0 0 512 512"><defs><clipPath id="a"><path d="M0 0h512v512H0z"/></clipPath></defs><g fill-rule="evenodd" clip-path="url(#a)"><path fill="#FEFEFE" d="M448.819 104.539 287.18 8.589c-19.293-11.452-43.072-11.452-62.365 0l-161.639 95.95c-19.287 11.452-31.174 32.613-31.174 55.518v191.899c0 22.899 11.887 44.071 31.18 55.524l161.639 95.932c9.646 5.729 20.404 8.585 31.179 8.585 10.77 0 21.528-2.856 31.174-8.585l161.639-95.932c19.293-11.453 31.186-32.625 31.186-55.524V160.057c0-22.905-11.893-44.066-31.18-55.518Z"/><path fill="#3E474A" d="M230.47 493.588 68.831 397.656C53.021 388.269 43.2 370.76 43.2 351.953V160.06c0-18.807 9.821-36.316 25.626-45.697l161.644-95.95c7.75-4.6 16.578-7.032 25.53-7.032 8.946 0 17.774 2.432 25.529 7.032l161.639 95.95c13.321 7.908 22.307 21.601 24.836 36.959-5.363-11.441-17.453-14.551-31.541-6.321l-152.919 94.453c-19.066 11.148-33.127 23.656-33.138 46.646v188.427c-.011 13.766 5.549 22.685 14.089 25.27-2.806.485-5.634.824-8.495.824-8.952 0-17.78-2.433-25.53-7.033Zm218.348-389.052L287.179 8.592C277.533 2.863 266.764.001 256 .001c-10.77 0-21.539 2.862-31.186 8.591L63.175 104.536c-19.286 11.452-31.174 32.619-31.174 55.524v191.893c0 22.899 11.888 44.071 31.18 55.524l161.639 95.938C234.472 509.138 245.23 512 256 512c10.769 0 21.527-2.862 31.174-8.585l161.644-95.938c19.293-11.453 31.18-32.625 31.18-55.524V160.06c0-22.905-11.887-44.072-31.18-55.524Z"/><path fill="#47B353" d="m406.447 370.505-40.25 24.091c-1.067.621-1.852 1.321-1.857 2.602v10.532c0 1.287.863 1.823 1.93 1.197l40.871-24.841c1.067-.621 1.231-1.812 1.236-3.093v-9.291c0-1.281-.863-1.817-1.93-1.197Z"/><path fill="#FEFEFE" d="M320.738 281.85c1.304-.66 2.376.153 2.393 1.857l.135 13.925c5.831-2.32 10.894-2.941 15.483-1.879.993.265 1.434 1.62 1.027 3.228l-3.065 12.339c-.237.931-.762 1.874-1.394 2.461a3.27 3.27 0 0 1-.807.598c-.412.209-.818.277-1.208.198-2.094-.474-7.072-1.564-14.907 2.404-8.218 4.16-11.091 11.3-11.035 16.6.068 6.328 3.314 8.247 14.524 8.439 14.935.248 21.386 6.773 21.544 21.815.153 14.772-7.733 30.633-19.795 40.352l.266 13.784c.016 1.659-1.062 3.562-2.365 4.222l-8.162 4.702c-1.31.66-2.382-.153-2.399-1.812l-.141-13.558c-6.994 2.907-14.077 3.607-18.604 1.789-.853-.333-1.219-1.591-.881-3.025l2.958-12.463c.237-.982.756-1.964 1.462-2.591.248-.242.508-.429.767-.559.469-.237.926-.287 1.316-.141 4.876 1.643 11.113.875 17.113-2.161 7.62-3.856 12.717-11.628 12.638-19.349-.073-7.005-3.866-9.918-13.089-9.985-11.74.033-22.685-2.281-22.866-19.564-.146-14.23 7.253-29.035 18.966-38.399l-.147-13.913c-.017-1.711 1.027-3.59 2.371-4.267l7.902-5.047Z"/></g></svg>