<?xml version="1.0" encoding="UTF-8" standalone="no"?>
<!-- Generator: Gravit.io -->
<svg xmlns="http://www.w3.org/2000/svg" xmlns:xlink="http://www.w3.org/1999/xlink" style="isolation:isolate" viewBox="0 0 64 64" width="64pt" height="64pt"><defs><clipPath id="_clipPath_NWGykWky9ikGg3NI9PcGVbPtX5iV9kdQ"><rect width="64" height="64"/></clipPath></defs><g clip-path="url(#_clipPath_NWGykWky9ikGg3NI9PcGVbPtX5iV9kdQ)"><path d=" M 32 4.288 L 17.744 28.978 C 23.153 27.31 28.972 27.063 34.613 28.394 L 39.431 29.531 L 34.898 48.75 L 30.073 47.613 C 26.367 46.739 22.504 47.605 19.516 49.967 C 18.022 51.149 16.844 52.633 16.037 54.298 L 11.578 52.141 C 12.706 49.811 14.355 47.732 16.439 46.083 C 20.606 42.784 26.04 41.573 31.214 42.793 L 33.473 33.214 C 25.379 31.306 16.849 33.206 10.329 38.367 C 3.809 43.528 0 51.395 0 59.71 L 64 59.712 L 32 4.288 L 32 4.288 Z " fill="rgb(96,165,250)"/></g></svg>