<svg xmlns="http://www.w3.org/2000/svg" width="512pt" height="512pt" style="isolation:isolate" viewBox="0 0 512 512"><defs><clipPath id="a"><path d="M0 0h512v512H0z"/></clipPath></defs><g clip-path="url(#a)"><path fill="#0082FC" fill-rule="evenodd" d="m276.456 126.345 42.115 42.116-42.115 42.115v-84.231Zm0 259.31 42.115-42.116-42.115-42.115v84.231Zm-45.123-129.354-91.451-92.052 26.473-26.472 72.799 72.799V36.099l132.362 132.362-87.239 87.84 87.841 87.84-132.362 132.362V301.424l-73.401 72.799-26.473-26.472 91.451-91.45ZM256 512c111.906 0 188.917-52.945 188.917-256.301C444.917 52.945 367.906 0 256 0S67.083 52.945 67.083 256.301C67.083 459.055 144.094 512 256 512Z"/></g></svg>