<svg xmlns="http://www.w3.org/2000/svg" width="265.628" height="300" style="display:inline;enable-background:new"><g style="display:inline"><path d="M345.469 103.17c-35.648.291-69.343 15.199-101.094 30.299-34.81 17.796-73.264 29.87-112.688 29-1.354 23.565-1.953 47.18-1.343 70.781 1.881 79.857 17.565 161.778 61.031 229.844 37.668 60.192 95.793 104.819 158.469 136.7.054.027.156.073.156.073s.102-.046.156-.073c62.676-31.881 120.8-76.508 158.469-136.7 43.466-68.066 59.15-149.987 61.031-229.844.61-23.6.01-47.216-1.343-70.781-39.424.87-77.877-11.204-112.688-29-31.75-15.1-65.446-30.008-101.094-30.298-1.15-.01-2.315.01-3.469.031-.355.006-.706.022-1.062.031-.356-.009-.707-.025-1.063-.031-1.153-.02-2.318-.04-3.468-.031z" style="display:inline;fill:#000;fill-opacity:1;fill-rule:nonzero;stroke:none" transform="matrix(.60399 0 0 .60399 -78.582 -62.312)"/><path d="M350 125.156c-1.023.002-2.037.005-3.063.031-45.807.8-85.573 26.588-127 42.938-21.515 8.376-44.152 13.766-67.187 15.656-3.574 85.284 6.04 173.715 46.656 249.938 33.776 61.43 88.661 108.978 150.5 141.031.033.017.094.045.094.045l.094-.045c61.839-32.053 116.724-79.602 150.5-141.031 40.616-76.223 50.23-164.654 46.656-249.938-23.035-1.89-45.672-7.28-67.188-15.656-41.426-16.35-81.192-42.137-127-42.938-1.025-.026-2.039-.029-3.062-.03z" style="display:inline;fill:#fff;fill-opacity:1;fill-rule:nonzero;stroke:none" transform="matrix(.60399 0 0 .60399 -78.582 -62.312)"/><path d="M350 153.188a80.576 80.576 0 0 0-2.656.03c-46.188 2.12-85.032 30.416-127.688 44.876-12.941 4.276-26.07 7.924-39.5 10.25-1.022 76.227 10.556 155.005 49.531 221.5 28.828 47.94 71.819 85.588 120.282 113.093l.031.018.031-.018c48.463-27.505 91.454-65.153 120.281-113.093 38.975-66.495 50.553-145.273 49.532-221.5-13.43-2.326-26.559-5.974-39.5-10.25-42.656-14.46-81.5-42.756-127.688-44.875a80.3 80.3 0 0 0-2.656-.031z" style="display:inline;fill:#000;fill-opacity:1;fill-rule:nonzero;stroke:none" transform="matrix(.60399 0 0 .60399 -78.582 -62.312)"/><g style="display:inline"><path d="M1023.786 102.004 994.174 193.5h-96.407l78.046 56.565-29.868 91.753 77.841-56.822 77.842 56.822-29.869-91.753 78.046-56.565H1053.4l-29.613-91.497z" style="fill:#fff;fill-opacity:1;fill-rule:nonzero;stroke:none" transform="matrix(.60399 0 0 .60399 -485.54 -7.296)"/></g></g></svg>