<svg xmlns="http://www.w3.org/2000/svg" width="512pt" height="512pt" style="isolation:isolate" viewBox="0 0 512 512"><defs><clipPath id="a"><path d="M0 0h512v512H0z"/></clipPath></defs><g clip-path="url(#a)"><path fill="#543729" d="M502.214 250.797c-26.334-25.304-158.017-41.1-199.567-45.699a121.88 121.88 0 0 0 5.14-14.731 166.218 166.218 0 0 1 18.101-6.716c.771 2.273 4.399 10.98 6.467 15.112 83.552 2.305 87.842-62.09 91.24-79.732 3.323-17.25 3.154-33.917 31.813-64.387-42.697-12.442-104.097 19.284-124.664 66.506-7.728-2.896-15.474-5.035-23.135-6.357-5.49-22.146-34.079-83.845-109.099-83.845C103.525 30.948 0 109.309 0 241.958 0 353.462 76.128 451.18 119.14 451.18c18.784 0 34.942-14.066 38.735-26.675 3.181 8.645 12.938 35.522 16.143 42.364 4.737 10.118 26.642 18.873 36.229 8.373 12.326 6.848 34.942 10.972 47.269-7.289 23.739 5.021 44.725-9.135 45.184-26.026 11.648-.622 17.362-16.977 14.819-30.003-1.876-9.589-21.906-43.999-29.719-55.877 15.466 12.581 54.643 16.142 59.4.008 24.937 19.573 63.798 9.3 66.88-6.618 30.299 7.872 65.052-9.418 59.346-30.36 48.676-3.366 42.446-55.156 28.788-68.28Z"/><path fill="#00ACEE" d="M366.682 140.343c10.484-20.8 23.658-43.513 40.297-57.565-18.314 7.382-36.396 29.447-47.087 53.03a165.092 165.092 0 0 0-16.561-9.255c14.914-31.834 49.568-58.42 87.759-60.496-25.581 23.199-16.5 71.418-37.532 96.945-6.019-6.045-19.838-17.712-26.876-22.659Zm-16.536 33.872c.011-.796.309-6.936.868-9.739-1.467-.345-10.584-2.128-15.337-2.017-.346 5.97 2.508 16.127 5.33 22.24 19.433-.407 33.469-6.226 41.73-11.576-7.033-3.279-19.035-6.194-28.161-7.937-1.018 2.106-3.524 7.474-4.43 9.029Z"/><path fill="#2BAF2B" d="M277.938 338.782c.005.028.017.065.02.093-2.463-5.3-5.079-11.738-8.202-20.153 12.163 17.705 50.284 8.573 48.285-7.292 18.659 14.04 57.067-2.339 48.335-22.025 18.691 8.71 40.025-8.814 35.24-16.45 31.866 6.146 62.404 12.271 71.99 14.724-6.368 10.384-20.872 17.716-42.734 12.621 11.814 16.093-11.123 35.399-43.069 24.766 7.032 15.798-21.412 30.022-53.741 13.555.411 15.805-40.106 17.625-56.124.161Zm63.213-79.886c36.985 2.84 98.146 8.355 136.011 13.654-2.392-12.323-8.927-15.843-29.482-21.365-22.107 2.358-78.193 7.867-106.529 7.711Z"/><path fill="#FFCC2F" d="M318.041 311.43c18.659 14.04 57.067-2.339 48.335-22.025 18.691 8.71 40.025-8.814 35.24-16.45-37.674-7.264-77.207-14.555-86.174-15.829 5.439.289 14.456.907 25.709 1.771 28.337.157 84.423-5.353 106.529-7.711-35.794-9.076-108.876-22.32-159.346-25.584-2.339 3.419-6.639 9.216-14.127 15.376-22.082 46.721-62.091 77.777-106.358 77.777-12.9 0-27.334-2.176-43.512-7.348-10.089 10.808-53.104 18.999-88.007 1.868 27.685 64.825 91.889 108.098 162.957 108.098 59.853 0 86.393-61.119 80.585-77.291-1.409-3.926-6.994-16.945-10.119-25.359 12.166 17.704 50.286 8.572 48.288-7.293Z"/><path fill="#CECECE" d="M281.768 188.422c5.285-2.875 23.547-13.944 40.95-18.104a76.787 76.787 0 0 1-.61-5.826c-11.417 2.734-32.942 11.959-45.277-.754 26.024 7.853 39.017-6.997 58.144-6.997 11.397 0 27.661 3.183 40.481 8.217-10.312-9.526-44.125-38.273-85.99-38.373-9.347 11.332-19.45 35.879-7.698 61.837Z"/><path fill="#EF5734" d="M124.337 311.407c16.178 5.172 30.612 7.348 43.512 7.348 44.267 0 84.275-31.057 106.358-77.777-16.332 13.633-44.717 25.298-89.045 25.298 39.484-8.953 73.474-28.629 90.765-57.39-12.155-19.345-25.337-62.142 8.046-95.975-5.135-16.498-30.13-60.05-85.463-60.05-96.567 0-176.597 80.804-176.597 189.096 0 25.635 5.175 49.677 14.418 71.316 34.902 17.133 77.917 8.942 88.006-1.866Z"/><path fill="#FFCC2F" d="M153.309 146.522c0 24.632 19.969 44.603 44.602 44.603 24.633 0 44.603-19.971 44.603-44.603 0-24.633-19.97-44.602-44.603-44.602-24.633 0-44.602 19.969-44.602 44.602Z"/><path fill="#543729" d="M171.206 146.522c0 14.747 11.958 26.704 26.704 26.704 14.749 0 26.704-11.957 26.704-26.704 0-14.748-11.954-26.704-26.704-26.704-14.746 0-26.704 11.956-26.704 26.704Z"/><ellipse cx="197.91" cy="134.674" fill="#FFF" rx="15.56" ry="9.675" vector-effect="non-scaling-stroke"/></g></svg>