<svg height="316.227766" viewBox="0 0 85 85.002" width="316.227766" xmlns="http://www.w3.org/2000/svg"><path d="m42.5.50001c-23.159 0-42 18.841-42 42.002s18.841 42 42 42 42-18.841 42-42-18.841-42.002-42-42.002z"/><path d="m44.052 82.025c-.51362.02041-1.0318.03394-1.5522.03394s-1.0182-.01354-1.5228-.03394a39.552 39.552 0 0 1 -38.034-39.497v-.02489a39.556 39.556 0 0 1 79.099-1.0589c0 .35298.01354.70596.01354 1.0612s0 .74895-.01812 1.1313a39.554 39.554 0 0 1 -37.986 38.389z" fill="#fff" stroke-width=".22627"/><path d="m42.502 4.436a38.065 38.065 0 1 0 38.063 38.063 38.065 38.065 0 0 0 -38.063-38.063z" fill="#e21a23"/><path d="m42.421 16.379a26.125 26.125 0 0 1 26.211 26.12 26.125 26.125 0 0 1 -26.13 26.13 26.125 26.125 0 0 1 -.081754-52.25z" fill="#fff"/><path d="m33.454 65.383a24.722 24.722 0 0 0 2.4007.81005 7.1388 7.1388 0 0 1 2.3193-6.1409l-1.5839-1.7468a9.5033 9.5033 0 0 0 -3.1361 7.0777zm20.767-36.497c.30772-.2489 2.7446-1.6834 2.7446-1.6834l-3.7651-.57246a8.6684 8.6684 0 0 0 -6.908-3.919h-.02718c-5.4757-.15612-7.9511 4.3874-8.5032 6.8401-.1946.70143-4.3127 15.477-10.257 25.265a30.999 30.999 0 0 1 -2.1066 3.0569h2.9189c.41182-.59056.81457-1.2015 1.1992-1.835 6.2292-10.259 10.35-25.261 10.522-25.894l.01354-.05432c.04748-.21044 1.1947-5.1589 6.1341-5.0277a6.3355 6.3355 0 0 1 3.8194 1.4821 8.0167 8.0167 0 0 0 -2.4392.67881c-1.7083.67881-2.8442 1.7558-3.3759 3.1791-1.0001 2.6722.53173 5.6567 1.0363 6.6387 3.342 6.5052-2.9053 11.863-8.7362 15.212l-1.0951.67881 1.1042 1.4436 2.8261 3.799.52268.67881.8123-.27831a7.1908 7.1908 0 0 1 9.4874 7.2994 24.294 24.294 0 0 0 2.3577-.90507 9.5802 9.5802 0 0 0 -.50232-2.6745 9.5282 9.5282 0 0 0 -11.277-6.1771l-1.4481-1.9459c3.2492-.80778 9.8042-2.8623 12.911-6.8265 4.3715-5.5775 2.1156-10.381.6245-13.558-.42991-.91639-.50232-1.7242-.22626-2.4731.55888-1.4889 1.197-2.0749 1.6337-2.4279zm-1.8577 12.366a7.399 7.399 0 0 1 -.19233 1.0974 8.0303 8.0303 0 0 1 -.38466 1.1314c-.10861.25795-.22626.51815-.37561.78289-.07018.13123-.14708.26473-.22626.39823a11.961 11.961 0 0 1 -.84625 1.2241c-1.645 2.0975-4.5752 3.609-7.2768 4.634q.78742-.67881 1.4594-1.3576.45254-.45254.8485-.92318a16.201 16.201 0 0 0 1.0861-1.4074c.21496-.31451.41634-.63128.59735-.95032a11.356 11.356 0 0 0 1.1902-2.9121 9.8676 9.8676 0 0 0 .22627-1.2807c0-.10408.0226-.20591.02942-.30546.02489-.3032.03394-.59735.02942-.88018v-.28057c0-.18555-.02041-.36656-.03842-.54079 0-.08825-.02041-.17422-.0294-.26021-.0226-.17196-.04977-.33714-.07924-.49779-.04529-.24211-.09725-.4729-.15386-.69238-.05654-.21948-.11766-.42539-.18328-.61772-.043-.13123-.086-.25342-.12897-.37108-.043-.11766-.09048-.22627-.1335-.33714-.11087-.26473-.22627-.491-.30773-.6788l-.14706-.28963c-.12899-.25342-.24891-.49779-.35526-.73764-.10634-.23984-.22626-.52946-.31678-.78288a6.9781 6.9781 0 0 1 -.42086-1.7558 3.3691 3.3691 0 0 1 .16518-1.464 2.9981 2.9981 0 0 1 .12897-.28736 2.8035 2.8035 0 0 1 .16518-.27152 2.8465 2.8465 0 0 1 .44122-.4729 4.5706 4.5706 0 0 1 1.3305-.78063h.0226c.12897-.0543.26247-.10408.39822-.1516a8.1163 8.1163 0 0 1 2.5161-.42539 6.1771 6.1771 0 0 0 -.56341.76931 5.0096 5.0096 0 0 0 -.62224 1.4775 4.8919 4.8919 0 0 0 -.12445.72406 5.3105 5.3105 0 0 0 .17875 1.8961 6.7881 6.7881 0 0 0 .41407 1.1178c.16518.35524.33487.71275.49779 1.0793.03395.07695.07018.15613.10408.22627.18328.42086.35751.85077.51363 1.2897.03623.10408.07018.20591.10408.30999.09506.28962.17875.58377.2489.88018.043.17422.07922.34845.11087.52494a8.1638 8.1638 0 0 1 .1335 1.4391c0 .23984-.01135.48421-.03394.71048z"/><path d="m30.517 74.427c.77383.29641 1.5545.07924 2.1382-.59508l1.1313 1.0725c-1.0544 1.1494-2.4731 1.5477-4.0027.96164-2.145-.82135-2.5749-2.8442-1.9436-4.4937.65844-1.7242 2.4709-3.0365 4.7087-2.179 1.2897.49326 1.9934 1.4164 2.188 2.6225l-1.5839.38013a1.8984 1.8984 0 0 0 -1.249-1.5364c-1.1721-.45254-2.0952.25569-2.4505 1.1857-.35524.92997-.10861 2.1382 1.0521 2.5817zm8.3968 3.4597-1.6631-.21495.88018-6.8446 1.6608.2127zm8.4783-.11766-1.6676.18327-.57699-5.2743-2.0364.22627-.17197-1.5839 5.7246-.62676.17423 1.5839-2.0364.22627zm8.6751-2.2921-1.1585-2.6926-3.9642-2.6202 1.8577-.79873 2.2763 1.6925.33261-2.817 1.8577-.801-.81909 4.6815 1.1585 2.6903z" fill="#fff"/><path d="m67.543 17.39-3.7696 3.7719 1.8509 1.8509-1.1314 1.1313-3.0478-3.032 4.9055-4.9078zm-19.991-10.04 5.6567 1.2716-.35298 1.568-2.0025-.45254-1.1698 5.2042-1.6427-.36882 1.1721-5.2042-2.0025-.45254zm-6.4645 4.0321c-.95938-.22627-2.102-.58377-2.1518-2.0093-.049772-1.4753 1.1698-2.3509 2.4889-2.3962a2.9958 2.9958 0 0 1 2.3871 1.0386l-1.0408 1.1766a1.7513 1.7513 0 0 0 -1.3893-.59735c-.4367.013578-.78516.19459-.77384.5521.01583.48422.61545.58377 1.2943.7399.96843.22627 2.1292.51137 2.179 1.9572.05206 1.4956-1.1494 2.3396-2.489 2.3871a3.394 3.394 0 0 1 -2.7152-1.1879l1.0883-1.2264a2.093 2.093 0 0 0 1.6721.7761c.45254-.01583.76705-.20591.75574-.52268-.0092-.43897-.6064-.5272-1.3056-.68786zm-6.4215-3.394 1.6834 6.7315-1.6359.40954-1.6834-6.7315zm23.362 2.9487a3.5275 3.5275 0 0 0 -3.1046 1.9114c-1.0001 1.8056-.41178 3.9192 1.3757 4.908 1.7875.98879 3.892.35962 4.8899-1.446s.4096-3.9188-1.3779-4.9075a3.5275 3.5275 0 0 0 -1.7832-.46579zm.0712 1.6382c.30668-.0012.62117.07798.92451.24482.97069.53399 1.249 1.6521.67881 2.6838s-1.6656 1.3914-2.6272.85736c-.9639-.54305-1.2535-1.6494-.68102-2.6813.39358-.70936 1.0303-1.1021 1.705-1.1048zm-30.092-2.097c-.37516-.0083-.79018.08477-1.2356.3089l-2.439 1.2264 3.1178 6.1977 1.4981-.76056-1.1313-2.249.39819-.19887 2.3781 1.6175 1.7447-.87767-2.8514-1.8711a1.9527 1.9527 0 0 0 .31909-2.1906c-.34068-.67668-.97333-1.1843-1.7987-1.2025zm-.22849 1.6413c.2264.0099.41507.13496.53385.37256.20591.40728.04071.80094-.39596 1.0204l-.76013.38228-.63374-1.2577.81447-.40966c.15613-.07809.30565-.1137.4415-.10784zm-7.3954 3.3513c-.46555-.0144-.97459.15513-1.4407.57937l-2.1496 1.9485 4.684 5.1295 2.0227-1.842c1.0974-1.0024 1.0112-2.4369.30978-3.2062-.46837-.51362-1.2374-.7062-2.1062-.25367a1.4685 1.4685 0 0 0 -.14053-1.8305c-.29189-.31225-.71397-.5106-1.1795-.52501zm-.20726 1.7567c.14622.0029.27819.07075.38227.18384a.63582.63582 0 0 1 -.0703.90729l-.63109.57452-.79459-.87104.64523-.58821c.16179-.14706.32224-.20921.46845-.20638zm1.8053 1.6917a.71048.71048 0 0 1 .5091.2276.73085.73085 0 0 1 -.10606 1.0611l-.73096.66776-.95501-1.0478.76278-.6947a.71048.71048 0 0 1 .52014-.2139z" fill="#fff"/><g fill="#e21a23"><path d="m31.549 34.291h-.87565l-1.783 2.4595v.75799h1.7898v.87114h.86887v-.87114h.67881v-.8123h-.67881zm-.86887 2.4052h-.94807l.94807-1.3146zm-3.7742-2.4595c-.85983 0-1.5002.57698-1.5002 1.4459a1.2581 1.2581 0 0 0 1.2558 1.335 1.197 1.197 0 0 0 .99558-.50459c-.15386.85304-.80779 1.1087-1.5839 1.1087l-.01135.79873c1.7015 0 2.489-1.025 2.489-2.274-.0046-1.1268-.64939-1.9097-1.645-1.9097zm0 2.0228a.61093.61093 0 1 1 0-1.2218.61093.61093 0 1 1 0 1.2218zm-5.8151 1.4232h3.8398v.68333h-3.8398zm3.3782-1.9934a.67881.67881 0 0 0 .41633-.61093c0-.4729-.39144-.74216-.93675-.74216-.5453 0-.97748.28283-.97748.74669a.64034.64034 0 0 0 .40049.59735.67881.67881 0 0 0 -.50232.67881c0 .49326.43218.83719 1.0589.83719.62676 0 1.0454-.34845 1.0454-.83719a.66297.66297 0 0 0 -.50458-.66976zm-.53173-.75122c.17649 0 .27831.09725.27831.22627a.31904.31904 0 0 1 -.22627.26926l-.1154-.03623c-.15838-.04748-.23984-.13123-.23984-.22626.0069-.14934.1335-.23306.3032-.23306zm.01135 1.6472c-.2421 0-.40275-.09278-.40275-.2783a.35298.35298 0 0 1 .27378-.31905l.14029.04071c.22627.06336.3394.16517.3394.30999 0 .14481-.14029.24663-.35072.24663zm-1.8034-2.2084h-1.0612v.62902h.38239v2.1563h.67881z"/><path d="m51.786 43.493a8.0303 8.0303 0 0 0 .38466-1.1313 7.399 7.399 0 0 0 .19233-1.0974c.0226-.23985.03394-.47743.03394-.71048a8.1638 8.1638 0 0 0 -.1335-1.4391c-.03165-.17649-.06789-.35072-.11087-.52494-.07018-.29641-.15386-.59056-.2489-.88018-.03394-.10409-.06789-.20591-.10408-.30999-.15612-.43897-.33036-.86888-.51363-1.2897-.03395-.07924-.07018-.15839-.10408-.22627-.16291-.36655-.33262-.72406-.49779-1.0793a6.7881 6.7881 0 0 1 -.41407-1.1178 5.3105 5.3105 0 0 1 -.17875-1.8961 4.8919 4.8919 0 0 1 .12445-.72406 5.0096 5.0096 0 0 1 .62224-1.4775 6.1771 6.1771 0 0 1 .56341-.76931 8.1163 8.1163 0 0 0 -2.5161.41181c-.13576.04748-.26926.09725-.39822.1516h-.0226a4.5706 4.5706 0 0 0 -1.3305.78063 2.8465 2.8465 0 0 0 -.43896.48648 2.8035 2.8035 0 0 0 -.16517.27152 2.9981 2.9981 0 0 0 -.12898.28735 3.3691 3.3691 0 0 0 -.16517 1.464 6.9781 6.9781 0 0 0 .42086 1.7558c.09049.25343.19685.51364.31678.78289.11992.26926.22626.48422.35524.73764l.14708.28962c.09049.18555.19685.41181.30772.67881.043.10635.08821.22627.1335.33714s.086.23984.12898.37108c.0656.19233.12671.40049.18328.61772.05654.21721.1086.45254.15385.69238.02942.16064.05654.32583.07924.49779 0 .08601.02041.17196.02942.26021.01812.17423.03165.35524.03842.54078v.28057c0 .28284 0 .57698-.0294.88019 0 .09955-.01812.20138-.02942.30546a9.8676 9.8676 0 0 1 -.22626 1.2807 11.356 11.356 0 0 1 -1.1902 2.9121c-.18102.31905-.3824.63582-.59735.95033a16.201 16.201 0 0 1 -1.0861 1.4074q-.39597.46611-.84851.92318-.67881.67881-1.4594 1.3576c2.7017-1.025 5.6318-2.5365 7.2768-4.634a11.961 11.961 0 0 0 .84625-1.2241c.07924-.1335.15612-.267.22627-.39823.14029-.26473.26473-.52494.37334-.78289z"/></g></svg>