<svg xmlns="http://www.w3.org/2000/svg" width="512pt" height="512pt" style="isolation:isolate" viewBox="0 0 512 512"><defs><clipPath id="a"><path d="M0 0h512v512H0z"/></clipPath></defs><g clip-path="url(#a)"><linearGradient id="b" x1=".699" x2=".338" y1="-.197" y2=".429" gradientTransform="matrix(178.622 0 0 82.177 333.378 237.841)" gradientUnits="userSpaceOnUse"><stop offset="0%" style="stop-color:#e6ebef"/><stop offset="7.64%" style="stop-color:#bbcee5"/><stop offset="18.54%" style="stop-color:#85a9d8"/><stop offset="27.96%" style="stop-color:#5d8fcf"/><stop offset="35.43%" style="stop-color:#457ec9"/><stop offset="40%" style="stop-color:#3c78c7"/><stop offset="90%" style="stop-color:#2e5c99"/></linearGradient><path fill="url(#b)" d="M476.741 239.133c-14.457 14.368-45.777 26.702-61.187 32.476-21.052 7.909-30.394 10.707-42.173 14.541-13.333 4.326-40.003 12.397-40.003 12.397 55.25 16.497 94.186 21.471 94.186 21.471s18.139-5.607 46.876-20.974c15.56-7.909 23.218-13.234 28.694-18.323 2.019-1.825 7.234-7.255 8.531-14.201.084-.507.335-1.836.335-3.143 0 0 0-.921-.084-1.721-.031-.921-.193-1.538-.193-1.538s-.309-1.648-.717-2.804c-.423-1.155-2.202-4.723-5.084-7.04-1.925-1.564-5.251-5.46-17.302-9.697-4.096-1.423-10.728-2.736-10.728-2.736l-1.151 1.292Z"/><path fill="#CE210F" d="M511.995 263.01s-.084-1.537-.461-2.84c-.292-1.161-.81-2.27-1.59-3.436-.941-1.386-2.212-3.013-4.09-4.812-1.417-1.339-2.971-2.521-4.843-3.777-7.538-4.937-17.266-7.72-25.876-8.897-13.343-1.773-28.647-1.459-30.096-1.511-4.922-.068-36.724.193-44.899.34-36.305.748-80.749.847-92.392.847-120.192.549-172.508-2.04-230.734-13.714C27.481 215.371 0 206.024 0 206.024c43.691-1.512 298.616-12.088 345.12-13.322 30.447-.858 52.065-1.041 69.362-.042 8.871.497 17.125 1.25 27.492 3.013 9.294 1.59 17.736 4.289 22.653 6.114 10.357 3.834 19.086 9.379 23.402 15.059 0 0 1.276 1.308 3.007 3.63 1.941 2.699 4.195 6.02 4.959 7.26 6.302 9.551 9.294 15.55 10.335 17.642 1.125 2.197 2.118 4.478 3.086 6.711.947 2.218 1.334 3.562 1.637 4.498.665 2.349.827 4.488.858 4.969l.084 1.454Z"/></g></svg>