<svg enable-background="new 0 0 1223.7 1200" viewBox="0 0 1223.7 1200" xmlns="http://www.w3.org/2000/svg"><g fill="#faa533"><path d="m847.3 483.8c-15.6-22.3-45.1-58.1-93.1-86-22.5-13.1-103.3-58.4-205.3-33.5-22.3 5.5-110.6 30.2-162.2 117.8-36.4 61.8-35 121.9-33.5 143.5 1.6 23 7.5 91.4 61.8 146.7 33.4 34.1 69.6 47.3 85 52.8 24.8 8.8 99.5 35.2 175.1-5.8 83.9-45.6 98.4-136.2 99.8-145.5 2.8-19.8 9.7-74-25.1-125.5-4.4-6.5-43.9-63-117.8-71.4-15.6-1.8-69.4-8-113.9 30.3-6 5.2-44.9 39.7-46.3 96.5-.3 11.4-1.6 61.2 37.3 94 28.9 24.3 75.1 35.2 110.7 15.4 4.3-2.4 31.1-17.8 39.3-49.6 2.2-8.7 9.1-35.4-8.4-55.4-13.9-15.8-36.9-20.3-54.1-14.8-27 8.6-45.7 43.8-36.7 83-7.8-4.5-20.1-13-29-27.7-19-31.5-12.3-74.2 8.4-99.1 33-39.9 102.9-36 144.8-5.1 48.5 35.7 51.3 101.4 39.3 143.5-19.6 68.4-83.9 93.9-92.7 97.2-80.2 30.2-150.3-21.5-158.3-27.7-50.5-38.6-62.6-93-66.3-110.7-15.7-75.8 19.2-134.5 26.4-146.1 47.8-76.8 130.3-91.8 148.7-94.6 113.6-17.3 192.6 64.5 202.1 74.7 50.6 54.2 60.2 116.4 62.4 135.2 10.4 88.2-29.4 182.6-104.9 234.9-108.8 75.4-251.4 35.6-331.5-32.8-68.8-58.8-87-135-91.4-156.4-3.5-17.1-26-137.2 59.2-238.1 5.2-6.1 89.5-102.7 224-98.5 81.6 2.6 139.4 40.9 161.8 57.7 47.2 35.6 72.4 77.4 84.4 101.1z"/><path d="m183.1 383.6c-10.9 20.9-22.5 47.3-31.8 79-10.3 35.4-14.6 67.2-16.3 92.6 40.3 3.7 80.7 7.4 121 11.2-.9-11.2-.9-24.3.9-38.6 4.9-39.1 21-68.5 32.6-85.8-35.5-19.5-71-39-106.4-58.4z"/><path d="m192.2 851.7c12.5 19.9 29.5 43.3 52.2 67.2 25.4 26.8 50.8 46.5 71.9 60.8 23.5-33 47-66 70.6-98.9-10.1-4.9-21.4-11.4-32.9-20.2-31.3-23.9-48.6-52.6-57.7-71.4-34.8 20.8-69.5 41.7-104.1 62.5z"/><path d="m581.8 141.6c-23.5.7-52.3 3.5-84.4 10.9-36 8.3-65.9 20.1-88.8 31.1 16.5 37 33 74 49.5 111 9.4-6.3 20.7-12.7 34.1-18.1 36.5-14.9 70-15.2 90.8-13.5-.4-40.5-.8-81-1.2-121.4z"/><path d="m995 363c-12.6-19.9-29.7-43.2-52.4-67-25.5-26.7-50.9-46.4-72.1-60.5-23.4 33-46.8 66.1-70.3 99.1 10.2 4.9 21.5 11.3 33 20.1 31.4 23.8 48.8 52.4 57.9 71.2 34.7-20.9 69.3-41.9 103.9-62.9z"/><path d="m1008 832.7c10.8-20.9 22.3-47.4 31.4-79.1 10.2-35.5 14.4-67.4 15.9-92.7-40.3-3.6-80.7-7.1-121-10.7.9 11.2 1 24.3-.7 38.6-4.7 39.1-20.7 68.6-32.3 85.9 35.6 19.4 71.1 38.7 106.7 58z"/><path d="m601.7 1073.2c23.5.1 52.4-1.6 84.7-7.9 36.3-7 66.5-17.7 89.9-27.9-15.1-37.6-30.3-75.1-45.4-112.7-9.6 5.9-21.2 11.9-34.7 16.9-37 13.6-70.5 12.7-91.2 10.2-1.1 40.5-2.2 80.9-3.3 121.4z"/><path d="m115.3 250.6c18.5-26.1 44.9-58.3 81.5-90.1 35.5-30.9 70.1-52.3 97.8-66.9 40 72.1 80.1 144.2 120.1 216.3-10.1 8.3-20.5 17.1-30.9 26.6-23.6 21.5-44.1 43-61.8 63.5-68.8-49.9-137.8-99.6-206.7-149.4z"/><path d="m661 19.4c31.8 3.1 72.9 10 118.7 26 44.5 15.5 80.2 34.8 106.7 51.6-42.6 70.6-85.3 141.2-127.9 211.7-12.2-4.7-25-9.3-38.4-13.6-30.4-9.8-59.2-16.9-85.8-22.1 8.9-84.5 17.8-169.1 26.7-253.6z"/><path d="m1141.3 374.7c13.5 29 28.3 67.9 37.9 115.5 9.3 46.2 10.7 86.8 9.6 118.1-82.5-.9-164.9-1.9-247.4-2.8-2.1-12.9-4.7-26.3-7.8-40-7-31.1-15.5-59.6-24.5-85.1 77.4-35.3 154.8-70.5 232.2-105.7z"/><path d="m1073.7 971c-19.3 25.4-46.9 56.7-84.5 87.3-36.6 29.7-71.8 50-100 63.6-37.6-73.4-75.3-146.8-112.9-220.1 10.4-7.9 21-16.4 31.8-25.6 24.3-20.7 45.5-41.5 63.9-61.4 67.2 52.1 134.5 104.1 201.7 156.2z"/><path d="m523.4 1200c-31.8-2.7-73-9.1-119-24.5-44.7-14.9-80.7-33.8-107.4-50.3 41.8-71.1 83.5-142.2 125.3-213.3 12.3 4.5 25.1 8.9 38.6 13.1 30.5 9.4 59.4 16.1 86.1 21-7.9 84.7-15.8 169.3-23.6 254z"/><path d="m43.9 842.7c-12.9-29.2-27.1-68.4-35.7-116.2-8.4-46.4-9.1-87-7.5-118.3 82.4 2.5 164.9 5 247.3 7.4 1.9 12.9 4.2 26.3 7 40.2 6.4 31.3 14.4 59.8 22.9 85.6-77.9 33.8-156 67.6-234 101.3z"/></g></svg>