<svg xmlns="http://www.w3.org/2000/svg" xml:space="preserve" width="201.068" height="252"><path d="M62.85 42.378c-.142-.068-1.47-.783-4.068-1.26V27.256s-.014-.538-.612-.778c-.599-.242-3.027-1.198-3.027-1.198s-.255-1.369-1.39-2.697c-1.136-1.327-2.222-1.576-2.222-1.576s-1.24.165-2.265 1.59h-4.553s-1.225-2.65-3.028-2.65c-1.349 0-2.01 1.405-2.01 1.405h-2.422l-2.888-7.404s-.594-1.967-2.88-1.967c-2.287 0-2.88 1.967-2.88 1.967l-2.89 7.404h-2.421s-.66-1.405-2.01-1.405c-1.803 0-3.027 2.65-3.027 2.65h-4.554c-1.026-1.425-2.265-1.59-2.265-1.59s-1.086.249-2.222 1.576c-1.135 1.328-1.39 2.697-1.39 2.697s-2.43.956-3.027 1.198c-.598.24-.613.778-.613.778v13.86C1.59 41.595.261 42.31.12 42.377c-.142.068-.118.178-.118.178v15.976c0 .152.079.189.079.189 1.25.613 2.74 1.064 4.47 1.357.688 4.582 2.945 8.574 2.945 8.574l-1.238 1.705c-.372.509-.44.729-.276 1.183.165.454.757 1.486.757 1.486 6.77 10.569 24.745 17.642 24.745 17.642S49.46 83.594 56.23 73.025c0 0 .591-1.032.757-1.486.166-.454.096-.674-.276-1.183l-1.238-1.705s2.257-3.992 2.945-8.574c1.73-.293 3.22-.744 4.47-1.357 0 0 .08-.037.08-.19V42.556s.024-.11-.119-.177" style="fill:#fff;fill-opacity:1;fill-rule:nonzero;stroke:none;stroke-width:.13333333" transform="matrix(3.17723 0 0 3.17723 1 -37.069)"/><path d="M31.484 40.105c-11.024 0-25.946.668-30.505 2.817v15.296c4.56 2.15 19.481 2.85 30.505 2.85 11.024 0 25.946-.7 30.506-2.85V42.922c-4.56-2.15-19.481-2.817-30.506-2.817" style="fill:#7b7979;fill-opacity:1;fill-rule:nonzero;stroke:none;stroke-width:.13333333" transform="matrix(3.17723 0 0 3.17723 1 -37.069)"/><path d="M54.38 68.764c-3.71 7.93-11.588 15.296-22.896 20.813C42.18 84.829 52.366 78.07 55.786 70.709l-1.406-1.945" style="fill:#0e0f2f;fill-opacity:1;fill-rule:nonzero;stroke:none;stroke-width:.13333333" transform="matrix(3.17723 0 0 3.17723 1 -37.069)"/><path d="M55.256 26.333v27.929c0 5.602-1.308 12.323-5.302 18.76a38.403 38.403 0 0 1-3.061 4.833s10.589-9.394 10.589-21.584V27.216l-2.226-.883M8.59 68.764c3.708 7.93 11.587 15.296 22.894 20.813-10.693-4.748-20.88-11.507-24.301-18.868l1.407-1.945" style="fill:#0e0f2f;fill-opacity:1;fill-rule:nonzero;stroke:none;stroke-width:.13333333" transform="matrix(3.17723 0 0 3.17723 1 -37.069)"/><path d="M7.713 26.333v27.929c0 5.602 1.308 12.323 5.302 18.76a38.41 38.41 0 0 0 3.061 4.833S5.488 68.461 5.488 56.271V27.216l2.225-.883" style="fill:#0e0f2f;fill-opacity:1;fill-rule:nonzero;stroke:none;stroke-width:.13333333" transform="matrix(3.17723 0 0 3.17723 1 -37.069)"/><path d="M54.649 39.737V28.384s.352-4.457-3.117-6.44c0 0-1.24.44-1.706 1.597h-5.699s-1.21-2.725-2.613-2.67c0 0-.633 0-1.294 1.431h-3.633l-3.167-8.147c-.347-.79-1.095-1.229-1.918-1.236h-.035c-.822.007-1.57.447-1.92 1.236l-3.166 8.147h-3.633c-.66-1.431-1.292-1.431-1.292-1.431-1.404-.055-2.614 2.67-2.614 2.67h-5.7c-.465-1.156-1.705-1.597-1.705-1.597-3.469 1.983-3.117 6.44-3.117 6.44v11.353s-.123 14.27.331 18.934c1.4 14.417 9.85 24.433 22.833 30.756C44.47 83.104 52.92 73.088 54.318 58.67c.453-4.664.33-18.934.33-18.934" style="fill:#dedbd6;fill-opacity:1;fill-rule:nonzero;stroke:none;stroke-width:.13333333" transform="matrix(3.17723 0 0 3.17723 1 -37.069)"/><path d="M22.016 43.273v-.09L9.583 47.643c.005.807.01 1.633.02 2.459l14.44-6.83h-2.027M25.396 43.273 9.634 52.281c.02 1.019.044 2.004.075 2.912l16.83-11.92h-1.143M22.016 42.007h-3.482L9.58 43.546c-.002.677-.003 1.419-.001 2.202l12.438-3.406v-.335M15.684 41.036H9.591l-.005.754 6.098-.567v-.187M28.6 43.273 10.869 64.22a34.416 34.416 0 0 0 1.17 3.739l17.085-24.685H28.6M30.336 43.273l-12.655 34.3a36.36 36.36 0 0 0 3.163 3.308l9.86-37.608h-.368M29.547 43.273 13.371 71.016a32.687 32.687 0 0 0 2.15 3.693l14.452-31.436h-.426M27.329 43.273 9.838 57.82c.02.284.042.546.065.783.088.905.205 1.791.35 2.661l17.796-17.99h-.72M31.039 43.273l-7.25 40.07a45.907 45.907 0 0 0 4.383 2.938l3.234-43.008h-.367" style="fill:#29409d;fill-opacity:1;fill-rule:nonzero;stroke:none;stroke-width:.13333333" transform="matrix(3.17723 0 0 3.17723 1 -37.069)"/><path d="M29.973 43.273 15.521 74.71a33.732 33.732 0 0 0 2.16 2.864l12.655-34.3h-.363M29.123 43.273 12.038 67.958c.396 1.05.842 2.07 1.333 3.058l16.176-27.743h-.424M28.05 43.273 10.252 61.264c.168 1.009.373 1.994.615 2.955L28.6 43.273h-.552M24.044 43.273l-14.44 6.83c.007.732.017 1.463.03 2.178l15.762-9.008h-1.352M22.016 42.342 9.578 45.748c0 .611.002 1.247.005 1.896l12.433-4.462v-.84M15.684 42.007v-.784l-6.098.567a938.47 938.47 0 0 0-.007 1.756l8.955-1.539h-2.85M26.539 43.273l-16.83 11.92c.034.987.076 1.882.129 2.627l17.49-14.547h-.79M30.704 43.273l-9.86 37.608c.93.857 1.912 1.677 2.945 2.461l7.25-40.069h-.335M31.484 43.273h-.078l-3.234 43.008c1.064.63 2.17 1.231 3.312 1.804V43.273M40.953 43.273v-.09l12.432 4.461c-.004.807-.01 1.633-.018 2.459l-14.442-6.83h2.028M37.573 43.273l15.762 9.008c-.02 1.019-.043 2.004-.075 2.912l-16.83-11.92h1.143M40.953 42.007h3.481l8.956 1.539c.002.677.003 1.419.002 2.202l-12.439-3.406v-.335M47.285 41.036h6.093l.005.754-6.098-.567v-.187M34.369 43.273 52.1 64.22a34.29 34.29 0 0 1-1.17 3.739L33.846 43.273h.523M32.632 43.273l12.655 34.3a36.154 36.154 0 0 1-3.162 3.308l-9.86-37.608h.367M33.421 43.273l16.176 27.743a32.522 32.522 0 0 1-2.15 3.693L32.996 43.273h.426M35.64 43.273 53.13 57.82c-.02.284-.04.546-.064.783a39.765 39.765 0 0 1-.35 2.661L34.92 43.274h.72M31.93 43.273l7.25 40.07a45.817 45.817 0 0 1-4.383 2.938l-3.234-43.008h.368" style="fill:#0e0f2f;fill-opacity:1;fill-rule:nonzero;stroke:none;stroke-width:.13333333" transform="matrix(3.17723 0 0 3.17723 1 -37.069)"/><path d="M32.995 43.273 47.448 74.71a33.514 33.514 0 0 1-2.16 2.864l-12.656-34.3h.363M33.846 43.273 50.93 67.958c-.397 1.05-.84 2.07-1.334 3.058L33.421 43.273h.425M34.92 43.273l17.796 17.991a36.998 36.998 0 0 1-.615 2.955L34.37 43.273h.55M38.925 43.273l14.442 6.83c-.009.732-.02 1.463-.032 2.178l-15.762-9.008h1.352M40.953 42.342l12.439 3.406c0 .611-.002 1.247-.007 1.896l-12.432-4.462v-.84M47.285 42.007v-.784l6.098.567.007 1.756-8.956-1.539h2.851M36.43 43.273l16.83 11.92a74.592 74.592 0 0 1-.13 2.627L35.64 43.273h.79M32.265 43.273l9.86 37.608a40.253 40.253 0 0 1-2.945 2.461l-7.25-40.069h.335M31.484 43.273h.08l3.233 43.008a53.833 53.833 0 0 1-3.313 1.804V43.273" style="fill:#29409d;fill-opacity:1;fill-rule:nonzero;stroke:none;stroke-width:.13333333" transform="matrix(3.17723 0 0 3.17723 1 -37.069)"/><path d="M31.484 44.826c-21.712.133-26.004-.51-30.491-1.785v15.13c3.988-1.163 8.72-1.784 30.491-1.784 21.773 0 26.503.62 30.492 1.785v-15.13c-4.487 1.273-8.779 1.917-30.492 1.784" style="fill:#4f4c4c;fill-opacity:1;fill-rule:nonzero;stroke:none;stroke-width:.13333333" transform="matrix(3.17723 0 0 3.17723 1 -37.069)"/><path d="M31.484 45.254c-11.024 0-25.934.098-30.491-2.332v15.222c4.557-2.43 19.467-2.132 30.491-2.132 11.024 0 25.935-.298 30.493 2.132V42.922c-4.558 2.43-19.469 2.332-30.493 2.332" style="fill:#d3d2d2;fill-opacity:1;fill-rule:nonzero;stroke:none;stroke-width:.13333333" transform="matrix(3.17723 0 0 3.17723 1 -37.069)"/><path d="M31.484 45.658c11.024 0 25.935.098 30.493-2.331v14.515c-4.558-2.427-19.469-2.132-30.493-2.132-11.024 0-25.934-.295-30.491 2.132V43.327c4.557 2.429 19.467 2.331 30.491 2.331" style="fill:#0e0f2f;fill-opacity:1;fill-rule:nonzero;stroke:none;stroke-width:.13333333" transform="matrix(3.17723 0 0 3.17723 1 -37.069)"/><path d="M1.927 56.343s.779-.366 2.895-.725c-.548-.85-.926-2.647-.926-4.725 0-2.491.544-4.577 1.273-5.118-1.435-.277-2.515-.498-3.242-.814v11.382M61.042 56.343s-.779-.366-2.896-.725c.55-.85.927-2.647.927-4.725 0-2.491-.544-4.577-1.273-5.118 1.434-.277 2.515-.498 3.242-.814v11.382" style="fill:#1a3373;fill-opacity:1;fill-rule:nonzero;stroke:none;stroke-width:.13333333" transform="matrix(3.17723 0 0 3.17723 1 -37.069)"/><path d="M27.993 23.425c-.04-1.464.525-2.244.525-2.244l.203.242c-.203-1.13.12-1.494.35-1.993.055-.044.208.31.208.31s.072-.11.202-1.052c.002-.03.005-.05.008-.069.136-.96.577-.992.577-.992.054-1.32.481-.893.54-1.307.115-.82.37-.827.438-.813l.01-.046v-.133l.051-.187s.053-.294.053-.48.26-.164.26-.164.257-.022.257.164.054.48.054.48l.052.187v.133l.008.046c.07-.014.325-.005.44.813.06.414.486-.013.538 1.307 0 0 .447.032.58 1.01.134.989.208 1.103.208 1.103s.139-.324.196-.323c.242.512.565.875.363 2.006l.202-.242s.566.78.526 2.249c.017.02.07.03.102.11.04.102.052.122.052.183v.102l.01.06s.01.101.02.151c.01.052.03.112.03.112h6.57c.099.002-.014-.506.04-.916.007-.087.072-.137.194-.102.142.013.82.29 1.22 2.037l.027.038c.02-.004 8.394 0 8.394 0 .018-.55.01-1.046.25-1.195.855-.008 1.525 3.187 1.525 3.187.016.037.027.078.018.113-.01.037-.003.04 0 .088.007.105.007.139.007.139s.012.033.015.068l-.003 11.515h-2.272c.006.393.017.745.017.745l-7.99-.002-.01.934h-4.415v.21H23.745v-.21h-4.17v-.932l-7.591-.04v-.705h-2.33V27.775c.017-.403.185-2.921 1.637-3.877.327.183.45 1.049.596 1.42h7.92s.758-2.034 1.103-2.316c.288-.233.445.015.445.015.109.168.174.694.174.694s.016.073.008.144a1.681 1.681 0 0 0-.007.177.05.05 0 0 0 .043.025h6.245c.015 0-.074-.536.074-.643.016-.013.065-.003.1.011m1.49-4.737.005-.052a.231.231 0 0 0-.006.041v.011" style="fill:#0b0b23;fill-opacity:1;fill-rule:nonzero;stroke:none;stroke-width:.13333333" transform="matrix(3.17723 0 0 3.17723 1 -37.069)"/><path d="M21.829 36.512c0-.147-.05-.208-.05-.208l-.505-.006s.366-.05.408-.327c.043-.278.007-.293.007-.293l-.15.116s.115-.093.107-.224c-.006-.13-.05-.323-.05-.323s-.145.078-.182.138c.013-.04-.008-.148-.057-.254-.078-.168-.284-.3-.284-.3s-.363.4-.291.547l-.112-.139s-.168.208-.127.347c.043.139.065.17.065.17s-.136-.178-.157-.116c-.022.061 0 .192.085.385.086.193.25.295.264.349.015.053.008.251.016.306.007.054.023.145.18.167.158.023.267-.025.367-.048.1-.024.4-.08.4-.08s.066-.06.066-.207M23.893 26.914c-.942-.013-3.101-.062-3.318-.64-.393-1.04.565-2.8.565-2.8l-.054-.163s-.97 1.764-1.333 3.69h4.255s.457-.087-.115-.087M18.19 25.86c.33.004.695.024.707 1.666-.02.727.162.774.162.774s.175-1.75.626-2.612l-7.755-.006c.005.005.046.141.046.141l6.215.037M27.564 27.365l-.728-.012c-.73-.028-7.24-.017-7.242-.002-.005.052-.005.1.035.14.082.08 7.77-.092 7.77-.092.035 0 .17-.018.165-.034" style="fill:#fff;fill-opacity:1;fill-rule:nonzero;stroke:none;stroke-width:.13333333" transform="matrix(3.17723 0 0 3.17723 1 -37.069)"/><path d="M16.79 28.28s-3.702-.094-4.592-.108c-1.097-.016-1.56-.336-1.52-1.63.087-1.567.423-1.903.466-1.94-.331.242-.985 1.263-1.005 3.692l7.937.074c.111-.05-1.077-.074-1.285-.087M11.144 24.602l.004-.005-.004.005M10.104 34.54c-.003.51-.005.846-.002.86.007.064.031.09.031.09s.187.1.217.063c.03-.038-.128-.128-.128-.128l-.011-1.066s.078-4.637.041-4.967l-.005-.12.112-.071-.141.012a.472.472 0 0 0-.108-.02c-.023 0-.014.34-.014.415-.007.441-.016.874-.016 1.32 0 .405.012 2.405.024 3.613M19.73 28.653l-.03-.073-.093-.025s-.071 6.13-.06 6.19c.011.061.049.086.049.086s.28.05.325.013c.045-.037-.205-.084-.192-.39v-5.801M16.401 36.2c-.036 0-.027.222 0 .222l.612-.004c.033 0 .035-.216 0-.216L16.4 36.2M12.513 36.201c-.033 0-.042.218 0 .218h.69c.033 0 .038-.217 0-.217l-.69-.001M10.301 36.392l1.556-.04c.012-.036-.07-.055-.247-.057-.3.01-.907-.002-1.82-.03-.01 0 .001.077-.008.13.173-.026.348 0 .519-.003M19.864 36.027c.044 0 .127.024.154-.014.057-.082.067-.255-.005-.372-.047-.038-7.42.046-7.504-.014-.155-.107-.14-.319-.076-.307.022.005.044.064.075.01.028-.05.067-.242.067-.308-.003-.144-.093-.891-.776-.853l-.013.04a.458.458 0 0 1 .072.35c-.007.03-.058.082-.095.115-.017.079.083.165.177.154.06-.007-.035.114-.046.133-.01.018.001.054.01.075.02.044.004.189.002.232-.012.314.122.751.6.764.206.007 4.653 0 4.653 0l2.705-.005M18.998 28.792c0-.083-8.415-.202-8.799-.21-.093 0-.004.333.023.333.15-.003 8.844-.029 8.844-.029l-.068-.094" style="fill:#fff;fill-opacity:1;fill-rule:nonzero;stroke:none;stroke-width:.13333333" transform="matrix(3.17723 0 0 3.17723 1 -37.069)"/><path d="M20.065 35.11c-.033-.027-1.446-.022-1.607-.027-.33-.01-.31-.04-.343-.104-.013-.025-.026-.08.071-.065a.744.744 0 0 0 .048-.217c-.003-.148.024-.6-.547-.602l-.01.03a.319.319 0 0 1 .051.246c-.004.02-.041.058-.067.08-.012.056.058.117.125.109.042-.005-.03.059-.025.147-.025.468.16.696.77.691.06 0 1.492.033 1.51.007.04-.058.035-.286.024-.295M12.115 33.558h2.937s1.406.049 2.139 0c.194-.055.182-.558.146-.872l.008-.235c.02-.362.032-.737.038-1.126l.01-.162-.002-.09.003-.104.007-.194.009-.289a.433.433 0 0 0-.023-.189.694.694 0 0 0-.046-.216c.027-.02.095-.042-.033-.055l-.197-.002a7.461 7.461 0 0 0-.51-.005c-1.573-.012-4.864-.033-4.906.031-.185.29-.054 2.677-.032 3.123.017.345.452.385.452.385M20.471 36.545c0-.026-1.09-.018-1.13-.018h-2.987c-.679 0-1.34.01-2.012.01-.686 0-1.366-.008-2.069-.008l-.017.016-.006.43c0 .017.211.022.253.022h.862c.69 0 1.373-.013 2.069-.013h2.068c.694 0 2.23.004 2.954-.01 0-.155.015-.284.015-.43M35.959 37.365l-8.899.025c-.04 0-.187-.025-.187 0 0 .023-.15.302-.11.303.52.01 8.613-.046 9.408 0 0 0-.045-.305-.212-.328M50.903 36.983l.003-.417c0-.02-.227-.008-.272-.008-.285 0-.584-.005-.877-.005h-2.104l-2.103-.004c-.705 0-1.875.007-2.58.007-.043 0-.033.35-.033.427 0 .015.698.011.743.011l.877.003h2.102l2.105-.004 2.139-.01M43.223 37.388c-.03-.023-.267-.026-.494-.02l-.1-.002-5.993.027c.11.167.011.052.087.173a.198.198 0 0 1 .062.017c.035.034.07.186.122.17.27-.085 4.807-.047 4.807-.047l.005 2.133-.908.02.011.629 1.021-.024.785-.002c.044 0 .237.007.237-.027 0-.042-.009-.086-.009-.129l-.023-.546c-.046 0-.164.03-.164-.017l.004-1.118-.004-.27c0-.071.191.031.191-.052l.028-.367.005-.095c.005-.072.021-.285.083-.329l.18-.11c.023 0 .117.025.067-.014M46.138 37.805c.01-.038.098-.336.068-.395-.024-.05-.178-.066-.298-.08h-1.202s.838.086.831.491l.01 1.2c.006.263.522.515.556.51.012 0 .027-.018.035-.056-.002-.022.028-.314.01-.319-.025-.003-.05.006-.076.003-.014.024-.031-.04-.031-.05-.002-.086.012-1.284.012-1.284l.085-.02M50.552 37.253l-.052.004s0 .003-.299.003l-1.468-.003c-.041.001.156.101.156.101l.604.047c.498 0 .723.24.688 1.047-.06 1.226.388 1.065.388 1.065a1.91 1.91 0 0 0 .002-.099v-.2l-.002-1.101-.017-.864M11.786 36.794s-1.858-.108-1.966-.073c0 .048-.006.223 0 .223l2.088-.102c.003 0 .01-.044-.122-.048M53.18 38.665c0-.051-.081-.113-.081-.113l-.302-.038v-.293l-.069-.034-.42.012v-.124s0-.051.012-.114-.012-.088-.057-.1c-.047-.013-.488.025-.488.025l-.014-.345s.005-.01-.066-.048c-.07-.037-.396-.01-.396-.01v-.19l-.019-.096-.472.01v.112l.363.011.013.254.418.017s-.038.397.044.397c.081 0 .463-.023.463-.023l-.012.32.45-.004c.06 0 .025.327.025.327l.382.003.017.29.232.005s-.023-.202-.023-.251M12.595 37.825c-.006.131-.029.332-.029.432l-.01 1.081-.043.12.281.002 1.607-.004-.23-.053-1.074-.049.001-1.735c.123 0 .238-.296.347-.3.48-.023.587.002 1.009 0l.233-.09h-2.18s.093.507.088.596M16.919 37.22a2.03 2.03 0 0 0-.26-.007.889.889 0 0 0-.421.086c-.017.01.043.027.054.039.02.025.047.355.065.385.027.016.095-.005.098.001.004.007-.003.375-.003.43-.001.127.012.943.001.981.03.01-.046.02-.1.046-.001.113-.001.264.003.382.039.017 1.54 0 1.54 0l-.592-.143s-.378.002-.362-.26v-1.401c.009-.236.145-.379.567-.382l.52-.042s.168-.102.132-.103l-1.242-.012M11.742 37.293v.19s-.328-.027-.398.01c-.07.038-.064.048-.064.048l-.014.345s-.442-.038-.488-.026c-.047.013-.07.038-.06.101.013.063.013.114.013.114v.124l-.418-.012-.07.034v.293l-.3.038s-.083.062-.083.112-.022.252-.022.252l.23-.005.017-.29.384-.003s-.035-.327.023-.327l.452.004-.014-.32s.383.023.464.023c.082 0 .045-.397.045-.397l.416-.017.014-.254.364-.01v-.112l-.472-.01-.02.095M20.777 37.034c-.05 0-.038.222 0 .222l.845-.004c.047 0 .05-.216 0-.216l-.845-.002M27.188 35.218c.004.217-.603.168-.603.168l-.084.11s.64.01.885.007c.075-.001.16-.083.166-.214.05-1.152.05-6.706.05-6.706h-1.23l-.076.12c.592-.024.892.14.9.496 0 0-.009 5.941-.008 6.019M26.104 37.402s-6.72-.063-6.768-.024c-.053.04.068.023.101.058.056.057.16.067.182.137.018.067.025.351.068.351h.113c.033 0 .109.006.109.006.016.015 0 .424 0 .476 0 .08.187-.025.187.051l.001 1.359c0 .043-.078.02-.114.02-.023 0-.05-.011-.063.023.025.201-.005.432-.005.634 0 .044.121.022.156.022l1.57-.01-.038-.55-.67-.09.016-2.173s5.322.034 5.314 0c-.028-.104.091-.145.16-.264.022-.038-.267-.025-.319-.026M50.988 35.734c.03-.096.08-.168.103-.266.033-.131-.021-.267.024-.363.02-.046-.096-.22-.052-.215.098.011.17-.049.17-.138 0-.016-.062-.048-.071-.068-.043-.089-.027-.25.006-.335.007-.024.025-.042.036-.062l-.011-.003c-.547-.029-.902 1.15-.57 1.085.005 0 .028.048.025.061a.225.225 0 0 1-.073.09c-.106.054-.277.08-.39.095-.356.046-.695.025-1.057.025-.686 0-1.334-.007-2.03-.007-.668 0-1.919.009-2.58.009-.307 0-.604.013-.912.013-.133 0-.098.282-.041.358.022.033.596.007.669.007l2.769.005c.713 0 1.416.011 2.12.011.387 0 .796-.016 1.205-.016.104 0 .201.029.305.022.029-.002.213-.055.238-.07.096-.062.09-.152.117-.238M43.432 28.132h.072c.027-.114.287-.633.236-1.508-.014-.372.154-.794.854-.794h6.92l.001-.122s-7.276.04-8.283 0c.334 1.078.24 1.938.2 2.424M42.862 35.755s.021-.03.065-.169c.042-.139-.128-.347-.128-.347l-.112.139c.073-.147-.292-.547-.292-.547s-.204.132-.282.3c-.05.106-.071.213-.058.254-.037-.06-.181-.138-.181-.138s-.043.193-.05.323c-.008.131.106.224.106.224l-.15-.116s-.035.015.007.293c.044.277.408.327.408.327l-.503.006s-.05.061-.05.208c0 .146.064.207.064.207s.3.056.4.08c.1.023.21.07.367.048.158-.022.173-.113.18-.167.008-.055.003-.253.016-.306.015-.054.178-.156.265-.348.085-.194.107-.325.085-.386-.02-.062-.157.115-.157.115" style="fill:#fff;fill-opacity:1;fill-rule:nonzero;stroke:none;stroke-width:.13333333" transform="matrix(3.17723 0 0 3.17723 1 -37.069)"/><path d="M52.337 27.445c-.27.566-1.447.62-2.274.62h-5.754l-.028.067h8.716c-.322-2.976-1.078-3.702-1.078-3.702v.107s1.09 1.497.418 2.908M42.637 36.978l-.845-.002c-.05 0-.039.178 0 .178l.845-.005c.047 0 .05-.17 0-.17M43.356 28.51c0 .265.042.274.154.272 0 0 9.449-.213 9.596-.161.013-.027-.621-.1-.646-.1-.505-.028-9.105-.115-9.104-.01M42.948 27.875c.034-.156-7.555.042-7.613-.04.038.12.061.284.093.42.01.041 7.354-.252 7.354-.252.059 0 .132.042.166-.128M36.742 28.91l-.07-.102s-1.068-.08-1.068.058c0 0-.057 6.643 0 6.66.022.007.542 0 .542 0s-.223-.025-.225-.214c.009-.307.056-6.402.056-6.402h.765M45.435 36.378h.68v-.184h-.68ZM27.481 27.742s-7.57.217-7.88.016l-.05.374c.017.081 7.149-.107 7.85-.107 0 0 .04-.155.08-.283M51.065 36.624c0 .032-.007.15.001.15l2.086-.07c.004.001.01-.03-.12-.032l-1.967-.048M50.128 36.195c-.037 0-.036.184 0 .184l.703-.001c.037 0 .039-.185 0-.185l-.703.002M51.075 36.265c-.01 0 0 .051-.008.087.173-.018.347 0 .518-.003l1.557-.027c.012-.023-.07-.036-.247-.038-.3.007-.906 0-1.82-.019M44.47 34.998c-.022.005-.053-.012-.073-.01-.159.017-.931 0-.965.027-.013.009-.02.238.022.295.02.027.812-.007.871-.007.144 0 .31.036.452.01a.804.804 0 0 0 .176-.063c.054-.049.146-.418.15-.503 0-.03-.023-.104 0-.188-.01-.013-.076-.099-.035-.093.068.008.14-.054.117-.115-.018-.016-.054-.054-.058-.075a.31.31 0 0 1 .052-.246l-.01-.028c-.244-.015-.344.196-.44.382-.034.066-.095.155-.107.219-.01.045.027.181.099.21.046-.008.032.046.02.071-.035.065-.169.075-.272.114M52.762 35.592l-.013.126s.205 0 .21-.004c.026-.032.026-6.542.026-6.542h-.567l.08.232.334-.008.04.069-.002 6.127h-.108M31.721 25.3c.255.129.037.292.384.493.346.2.728.51.764.693.04.183.04.347.04.347s.033.019.182.036c.088.012.136.087.108-.09-.072-.458-.055-.512-.493-.876-.438-.366-.492-.53-.492-.694 0-.164-.388-.32-.388-.411 0-.09-.068-.502-.25-.392-.183.11-.237.204-.44.529-.089.142-.352.365-.365.456-.1.843-.631.645-.709 1.46-.042.426.618.074.967.128.346.055.757-.015.993.003.238.02.408.002.403-.054-.05-.112-.152-.167-.311-.164h-1.509c.276-.287.373-.973.52-1.3.164-.365.394-.456.394-.456s-.053.164.202.292M28.404 28.099l-.19-.005c-.067.017-.053.449-.053.449l.128.003v7.4l-.308.03-.182.072s-.034.614.014.619c.298.03.672.036.87.021.198-.016.074-.486.074-.486l.055-8.077-.408-.026M32.946 35.62c-.683-.02-2.391.028-3.072-.035-.049-.005-.088-.017-.165.032.016.055-.013.216.008.281.002.011.125.036.174.026.189-.033 3.093.08 3.08.02-.017-.07.11-.321-.025-.325M33.42 28.49c.003-.1.012-.405-.01-.454-.025-.049-.206-.033-.387-.072-.18-.04-.254-.058-.52-.068-.263-.01-1.433.02-1.55.02-.124 0-.701-.088-1.062-.01-.362.077-.47.272-.482.312-.013.037 0 .107 0 .251 0 .146.216.215.216.215s.144.058.193.039c.049-.02 3.24.048 3.36.048.121 0 .237-.19.242-.281M27.454 26.355c.077.14.121-.095.121-.095.007-.921.27-1.83.27-1.83l-6.416-.014-.04.181h4.186c.975 0 1.872 1.01 1.88 1.758M25.115 31.687l.015-.984c.003-.145-.008-.225-.02-.247-.014-.146-.04-.256-.083-.283a5.315 5.315 0 0 0-.758-.02c-.858-.015-2.303-.031-2.324.04-.104.339-.003 3.14-.018 3.662-.002.082-.034.32.02.39l.232.062 1.637-.018s.783.056 1.192 0c.109-.064.102-.636.083-1.005l.003-.276c.011-.425.019-.865.02-1.321M35.706 27.199c-.112 0-.063.101-.17.111-.054.005-.003.11.003.139 4.658.015 7.636.032 7.413-.151-.017-.015-6.732-.1-7.246-.1M42.393 26.395c-.39.533-5.23.43-5.23.43l.082.07 5.716.001c.054-.94-.252-2.136-.639-2.978-.125-.248-.305-.407-.402-.382.702 1.527.648 2.604.473 2.86" style="fill:#fff;fill-opacity:1;fill-rule:nonzero;stroke:none;stroke-width:.13333333" transform="matrix(3.17723 0 0 3.17723 1 -37.069)"/><path d="m36.973 26.896-.08-.067h-.162c-.501-.043-.75-.401-.928-1.441-.092-.623-.215-.807-.215-.807h6.07l.003-.108h-6.464c.45 1.076.45 1.938.463 2.423h1.313M27.984 27.259l.053.061 1.167-.036c-.038-.49-.006-.785-.078-1.249.254-.45.476-.707.723-1.134l.073-.637c1.46-1.522 1.765-2.2 3.234.027.19 1.076.389.644.791 1.551-.059.515.016.952.105 1.469l1.035-.02c0-.184.095-.534-.107-.645l.034-.798-.01-.02-.629-.068-.134-.168-.009-.47-.19-.19a1.867 1.867 0 0 0-.258-.84c-.497-.19-.29-.069-.52-.712-.082.07-.183-.214-.206-.25l-.391-.437c-.307-.234-.946-.432-1.144-.686-1.067.594-1.458.96-1.965 1.995l-.26.212c-.172.233-.261.464-.279.75l-.172.162v.462l-.168.194-.608.09.062.718-.16.24.011.429M42.868 34.555l.093.024s.008-5.913 0-5.958c-.009-.036-.026-.051-.026-.051s-.063-.097-.093-.061c-.019.025 0 5.85 0 5.85v.123l.026.073M31.428 21.222v-5.355s-.353.996-1.268 3.123c-.915 2.127-1.9 6.24-1.844 6.1 1.413-3.587 3.112-3.868 3.112-3.868M34.275 36.688c.198.015.57.009.87-.021.047-.005.032-.706.032-.706l-.201.016-.307-.03v-7.401l.11.024s.03-.459-.035-.476l-.599.03.056 8.078s-.126.47.074.486M40.548 33.284c.02.369.025.94-.082 1.005-.409.056-1.193 0-1.193 0l-1.637.018-.23-.062c-.055-.07-.024-.308-.022-.39.014-.522-.085-3.323.02-3.662.025-.092 2.682-.037 3.127-.029.04.008.045.02.04.033l.009.308c.006.041.01.107.009.198l-.018.984c-.001.456-.009.896-.02 1.321l-.003.276M50.945 32.686c.036.314.048.817-.148.872-.732.049-2.138 0-2.138 0h-2.936s-.434-.04-.452-.385c-.023-.446-.154-2.833.031-3.123.019-.03.715-.042 1.612-.045h4.07c.011.04.008.047 0 .053v.221c.021.024.04.092.034.207l-.027.839-.007.33v.827l-.039.204M33.27 30.812c.034.693-.061 4.433-.12 4.51a7.527 7.527 0 0 0-.622-.043l-2.625.005-.19-.018c-.023-2.021.071-4.09-.016-6.099l.117-.025c.967.055 2.327.08 3.31-.043l.119-.008s.01 1.328.028 1.721M33.715 36.626c.019.057-4.136-.035-4.409.005a.75.75 0 0 1-.251-.02c-.028-.061.016-.22-.004-.272.11-.052.165-.041.235-.038.98.037 3.44-.072 4.425-.078.193-.002-.019.335.004.403M27.401 38.463c.09.117 8.444.032 8.633.107l.13.178v.11c-1.116.012-9.435 0-9.435 0 .09-.18.021-.275.155-.333.091-.041.391-.014.517-.062M26.318 39.16c.311.007.007.02.451.02h8.223c.595 0 1.24.018 1.758.006.37-.007.39.147.562.332h.113v.09l-11.944.006v-.182c.214-.09.23-.137.371-.284l.466.013M37.508 39.925h.338l.567.639h-14.03v-.106h.114c.218-.215.44-.487.8-.578-.02.334 12.278.2 12.274.197-.002-.002.01-.02-.063-.152" style="fill:#fff;fill-opacity:1;fill-rule:nonzero;stroke:none;stroke-width:.13333333" transform="matrix(3.17723 0 0 3.17723 1 -37.069)"/><path d="M34.555 53.593v1.453h-5.713l-.543-.007c-.597 0-1.294-.216-2.045-.553a13.863 13.863 0 0 1-1.679-.893v1.446h-2.97v-1.928a3.19 3.19 0 0 1-.448.802c-.686.883-1.948 1.198-3.042 1.198-1.81 0-3.163-.752-3.59-2.3-.132.697-.535 1.267-1.176 1.666-.64.398-1.406.57-2.244.57H7.107v-8.51h4.43c1.195 0 2.608.8 2.845 2.116v-2.121h2.93v5.472c0 .538.215.749.793.749.429 0 .585-.12.656-.216.076-.097.143-.253.143-.533v-5.472l2.7-.003h3.615c.958 0 1.825.242 2.565.757.481.335.838.75 1.058 1.232V46.53h6.356c.957 0 1.825.242 2.565.757.842.588 1.31 1.417 1.31 2.434 0 .832-.252 1.576-.801 2.168-.112.118-.23.227-.356.327.385.126.77.249 1.156.371v.448c.2-.899.451-1.78.808-2.674.564-1.41 1.263-2.586 2.129-3.83h2.09c.854 1.223 1.588 2.439 2.14 3.83.401 1 .665 1.988.873 3.004v-6.835h1.868c.926 0 2.122 2.083 2.51 2.76.202-.336.429-.688.68-1.058.39-.584 1.067-1.702 1.826-1.702h1.866v8.517h-2.956v-2.441c-.13.306-.244.608-.345.9l-.121.398c-.183.39-.507.638-.953.638-.402 0-.674-.255-.806-.437a2.535 2.535 0 0 1-.267-.603c-.1-.298-.216-.598-.347-.904v2.449h-2.955l-.994-.007h-1.6a37.677 37.677 0 0 0-.394-1.686h-2.146c-.124.487-.233.978-.335 1.474l-.042.212h-3.324c-.596 0-1.293-.216-2.044-.553a13.774 13.774 0 0 1-1.678-.893m0-2.88c.64.083 1.085-.11 1.241-.242.15-.128.27-.333.27-.751 0-.242-.082-.416-.303-.582-.231-.172-.524-.274-.924-.274h-.284zm-5.713.328a2.84 2.84 0 0 1-.55.847c-.11.118-.227.227-.355.327l.905.292zm-4.267-.328c.641.083 1.086-.11 1.243-.242.149-.128.27-.333.27-.751 0-.242-.08-.416-.304-.582-.23-.172-.524-.274-.925-.274h-.284zm-10.193.576v-1.814c-.064.384-.219.739-.484 1.044l.067.077c.178.214.317.446.417.693m-3.356 1.45c.23 0 .357-.043.425-.08.069-.042.166-.116.166-.456 0-.232-.067-.348-.184-.44-.117-.094-.36-.183-.7-.183h-.696v1.162zm.002-3.51c.098 0 .46-.076.46-.21a.108.108 0 0 0-.05-.074.91.91 0 0 0-.514-.142h-.887v.426zm31.695 1.746h.649a14.19 14.19 0 0 0-.323-.78c-.107.24-.216.499-.326.78" style="fill:#0b0b23;fill-opacity:1;fill-rule:nonzero;stroke:none;stroke-width:.13333333" transform="matrix(3.17723 0 0 3.17723 1 -37.069)"/><path d="M37.688 51.347c.393-.42.589-.963.589-1.627 0-.738-.323-1.332-.969-1.78-.588-.41-1.29-.615-2.11-.615h-2.82v6.927h1.38v-6.184h1.08c.548 0 1.015.146 1.402.434.415.31.622.717.622 1.218 0 .595-.185 1.046-.554 1.359-.361.305-1.067.539-1.914.414a2.025 2.025 0 0 1-.287-.063v.914c.166.12.365.255.598.403.634.41 1.25.746 1.85 1.012.721.324 1.294.486 1.722.486v-1.077a85.285 85.285 0 0 1-1.133-.372c-.503-.187-.91-.387-1.225-.601a5.44 5.44 0 0 0 .593-.14c.49-.156.883-.391 1.176-.708M11.85 53.345c-.22.126-.495.19-.822.19 0 0-1.786.006-1.786 0v-5.527h1.682c.358 0 .672.089.943.269.277.172.415.42.415.742 0 .215-.09.42-.267.616-.237.259-.566.388-.987.388H9.51v.76h1.223c.456 0 .895.12 1.196.356.323.259.483.614.483 1.064 0 .542-.186.923-.561 1.142zm.743-2.83c.328-.183.556-.347.683-.492.23-.253.346-.58.346-.977 0-.45-.211-.848-.632-1.194a2.219 2.219 0 0 0-1.453-.519H7.902v6.92h3.203c.733 0 1.34-.15 1.825-.45.565-.352.847-.856.847-1.514a1.8 1.8 0 0 0-.423-1.184 2.275 2.275 0 0 0-.761-.59M53.996 47.325c-.173 0-.562.45-1.167 1.349-.606.893-1.053 1.667-1.342 2.318-.293-.658-.734-1.425-1.324-2.3-.61-.912-1.004-1.367-1.183-1.367h-1.073v6.927h1.366v-4.68c.342.442.693 1.008 1.047 1.7.352.68.635 1.34.848 1.982.063.196.117.328.165.397.045.063.098.094.154.094.099 0 .169-.042.208-.128l.113-.363c.213-.635.495-1.296.85-1.981.348-.687.698-1.255 1.043-1.7v4.68h1.368v-6.928h-1.073M43.685 47.325h-1.26a16.564 16.564 0 0 0-1.808 3.33 17.124 17.124 0 0 0-.986 3.59h1.32c.248-1.213.574-2.35.977-3.417.37-.972.746-1.736 1.127-2.29.219.317.438.717.659 1.2.282.616.544 1.292.78 2.03l-2.564.002c-.11.277-.175.456-.2.537a.899.899 0 0 0-.033.25h3.028a22.6 22.6 0 0 1 .433 1.688h1.32a16.696 16.696 0 0 0-.976-3.59 16.436 16.436 0 0 0-1.817-3.33M19.698 52.004c0 .414-.102.754-.308 1.021-.27.348-.698.522-1.285.522s-1.014-.176-1.285-.528c-.202-.262-.303-.6-.303-1.015v-4.676h-1.34v4.351c0 .708.174 1.288.519 1.738.462.6 1.414.9 2.419.9 1.002 0 1.951-.298 2.414-.892.351-.456.527-1.038.527-1.746v-4.351h-1.358v4.676M27.71 51.347c.392-.42.59-.963.59-1.627 0-.738-.324-1.332-.97-1.78-.588-.41-1.291-.615-2.11-.615H22.4v6.92h1.381v-6.177h1.078c.549 0 1.016.146 1.401.434.415.31.623.717.623 1.218 0 .595-.184 1.046-.553 1.359-.364.305-1.067.539-1.915.414a1.94 1.94 0 0 1-.285-.063v.914c.166.12.363.255.596.403.634.41 1.252.746 1.852 1.012.72.324 1.294.486 1.721.486v-1.077c-.38-.121-.758-.246-1.133-.372-.502-.187-.911-.387-1.226-.601a5.54 5.54 0 0 0 .594-.14c.49-.156.882-.391 1.177-.708M29.638 54.252h1.367v-6.927h-1.367z" style="fill:#fff;fill-opacity:1;fill-rule:nonzero;stroke:none;stroke-width:.13333333" transform="matrix(3.17723 0 0 3.17723 1 -37.069)"/><path d="m48.716 61.615 1.167-.34-6.48 5.953 3.23-4.15-1.267.29 6.063-5.134-2.713 3.38" style="fill:#0e0f2f;fill-opacity:1;fill-rule:nonzero;stroke:none;stroke-width:.13333333" transform="matrix(3.17723 0 0 3.17723 1 -37.069)"/><path d="m50.34 59.308-2.147 2.612.968-.249-4.562 4.244 2.566-3.195-1.012.278 4.188-3.69" style="fill:#fff;fill-opacity:1;fill-rule:nonzero;stroke:none;stroke-width:.13333333" transform="matrix(3.17723 0 0 3.17723 1 -37.069)"/><path d="m14.255 61.615-1.17-.34 6.481 5.953-3.23-4.15 1.268.29-6.064-5.134 2.715 3.38" style="fill:#0e0f2f;fill-opacity:1;fill-rule:nonzero;stroke:none;stroke-width:.13333333" transform="matrix(3.17723 0 0 3.17723 1 -37.069)"/><path d="m12.63 59.308 2.148 2.612-.97-.249 4.562 4.244-2.565-3.195 1.013.278-4.188-3.69" style="fill:#fff;fill-opacity:1;fill-rule:nonzero;stroke:none;stroke-width:.13333333" transform="matrix(3.17723 0 0 3.17723 1 -37.069)"/><path d="M30.296 61.053h1.342v3.53h1.59v-3.53h1.366v-1.427h-4.298v1.427M42.096 63.11c-.18.146-.499.254-1.016.26l-.001-2.516c.575.027.921.19 1.115.422.155.182.253.442.253.82 0 .543-.145.846-.35 1.013zm1.315-2.628c-.317-.352-.755-.583-1.282-.712-.403-.1-.91-.145-1.47-.145l-1.172.001v4.957h1.932c.763 0 1.573-.312 2.049-.927.337-.427.488-.963.488-1.573 0-.635-.166-1.185-.545-1.601M34.88 64.583h4.312V63.18l-2.725-.004v-.364h2.003v-1.42h-2.003v-.329h2.725v-1.436h-4.315l.002 4.957M21.747 62.839c0 .184-.044.302-.105.38-.067.089-.195.166-.473.166-.392 0-.577-.162-.577-.546v-3.213h-1.579v3.014c0 1.329.857 1.98 2.161 1.98.651 0 1.376-.188 1.763-.687.277-.357.4-.799.4-1.293v-3.014h-1.59v3.213M26.373 60.949c-.24-.233-1.383-1.323-1.783-1.323h-.965v4.957h1.6v-2.64c.238.244 1.062 1.21 1.148 1.374v1.266h1.598v-4.957h-1.598v1.323M28.365 64.584h1.596v-4.958h-1.596z" style="fill:#0b0b23;fill-opacity:1;fill-rule:nonzero;stroke:none;stroke-width:.13333333" transform="matrix(3.17723 0 0 3.17723 1 -37.069)"/><path d="M35.264 64.199h3.543v-.636s-2.718-.002-2.724-.006v-1.13h2.003v-.652h-2.003v-1.096h2.724v-.667h-3.543c-.005.002 0 4.002 0 4.187M30.68 60.669h1.341v3.53h.821v-3.53h1.366v-.657H30.68v.657M42.34 63.408c-.29.234-.73.35-1.327.35h-.318l-.001-3.292h.21c.738 0 1.265.187 1.583.56.23.268.345.625.345 1.07 0 .607-.165 1.045-.493 1.312zm.785-2.668c-.253-.28-.615-.48-1.089-.596-.364-.09-.814-.136-1.357-.136-.034.004-.8.004-.807 0v4.19h1.547c.287 0 .573-.052.861-.154.374-.135.668-.343.885-.625.271-.344.405-.789.405-1.336 0-.567-.148-1.015-.445-1.343M28.748 64.199h.829v-4.187h-.829zM26.757 61.901c-.96-1.071-2.049-1.889-2.167-1.889h-.581v4.187h.832v-3.107c.107.02.743.613 1.544 1.568.25.314.372.519.372.613v.926h.829v-4.187h-.829v1.89M22.132 62.839c0 .25-.062.455-.186.617-.164.21-.423.315-.777.315-.356 0-.614-.106-.778-.318-.122-.159-.183-.364-.183-.614v-2.827h-.81v2.629c0 .429.105.778.313 1.051.28.364.855.545 1.463.545.607 0 1.18-.18 1.46-.54.212-.274.32-.627.32-1.056v-2.629h-.822v2.827" style="fill:#fff;fill-opacity:1;fill-rule:nonzero;stroke:none;stroke-width:.13333333" transform="matrix(3.17723 0 0 3.17723 1 -37.069)"/><path d="M36.467 63.097h2.003v-.286h-2.003z" style="fill:#16183e;fill-opacity:1;fill-rule:nonzero;stroke:none;stroke-width:.13333333" transform="matrix(3.17723 0 0 3.17723 1 -37.069)"/><path d="m34.877 59.911.002 4.96h4.313v-.288h-4.313l-.002-4.672M36.467 61.347h2.725v-.285h-2.725zM42.194 61.562c.136.157.226.375.248.678.003-.047.005-.093.005-.144 0-.378-.098-.638-.253-.82-.193-.231-.54-.395-1.115-.422v.287c.575.027.922.192 1.115.421M43.468 63.656c-.476.615-1.286.927-2.049.927h-1.932v.286h1.932c.763 0 1.573-.311 2.049-.925.337-.43.488-.965.488-1.575 0-.047-.003-.092-.005-.138-.022.548-.174 1.033-.483 1.425M30.296 61.339h1.342v-.286h-1.342zM33.229 61.339h1.365v-.286h-1.365zM31.638 64.87h1.59v-.287h-1.59zM23.625 64.87h1.6v-.287h-1.6zM26.373 64.87h1.598v-.287h-1.598zM25.225 61.943v.286c.238.244 1.062 1.21 1.148 1.373v-.285c-.086-.163-.91-1.13-1.148-1.374M21.174 64.62c-1.304 0-2.16-.651-2.16-1.98v.287c0 1.328.856 1.98 2.16 1.98.651 0 1.376-.189 1.763-.687.277-.358.4-.8.4-1.293v-.287c0 .494-.123.936-.4 1.293-.387.5-1.112.687-1.763.687M28.365 64.87h1.596v-.286h-1.596z" style="fill:#16183e;fill-opacity:1;fill-rule:nonzero;stroke:none;stroke-width:.13333333" transform="matrix(3.17723 0 0 3.17723 1 -37.069)"/></svg>