<svg xmlns="http://www.w3.org/2000/svg" width="512pt" height="512pt" style="isolation:isolate" viewBox="0 0 512 512"><defs><clipPath id="a"><path d="M0 0h512v512H0z"/></clipPath></defs><g clip-path="url(#a)"><path fill="#BBE6FB" d="M408.881 211.535c3.797 43.766-65.15 85.533-154.08 93.127-88.931 7.594-163.872-21.783-167.669-65.55-3.797-43.764 65.149-85.532 154.08-93.126 88.73-7.594 163.872 21.583 167.669 65.549Z"/><path fill="#FFF" d="M243.61 150.981c-33.974-.598-73.543 12.991-103.12 25.581-2.997 8.793-4.796 18.186-4.796 27.978 0 51.96 46.963 94.127 104.918 94.127 57.955 0 105.118-41.967 105.118-94.127 0-16.387-4.796-31.975-12.99-45.364-23.582-3.597-56.156-7.594-89.13-8.195Z"/><path fill="#FFF" d="M240.812 150.981c-18.785-1.198-51.16 8.594-78.139 18.387-4.197 9.592-6.395 20.184-6.395 31.375 0 45.565 41.368 82.536 84.934 82.536 43.366 0 81.736-36.971 84.933-82.536.999-14.788-3.997-28.777-11.191-40.769-27.778-4.795-57.355-7.793-74.142-8.993Z"/><path fill="#373535" d="M192.649 194.948c2.399-5.196 5.796-7.594 9.193-11.791-.399-.999-1.199-4.396-1.199-5.396 0-5.196 4.197-9.192 9.193-9.192 1.199 0 2.398.198 3.397.599 15.388-11.791 35.573-16.788 55.957-12.19 1.798.399 3.597.999 5.395 1.398-19.984-2.797-42.766 4.397-58.154 16.787.4 1.199 1.799 4.197 1.799 5.596 0 5.196-3.398 6.395-8.394 6.395-1.199 0-2.198-.2-3.397-.6-3.398 4.597-7.794 13.59-9.793 19.185 8.594 7.595 16.188 10.391 26.18 14.189 0-.399.4-.999.4-1.399 0-15.387 13.589-27.978 28.977-27.978 13.789 0 25.38 9.993 27.578 23.182 6.995-4.396 13.59-7.794 18.586-14.189-1.199-1.399-2.398-5.595-2.398-7.594 0-4.596 3.797-8.393 8.393-8.393.6 0 1.199 0 1.999.2 2.598-5.396 4.596-10.992 5.795-16.788-24.181-17.985-70.944-15.387-70.944-15.387s-37.171-2-62.352 10.392c1.799 11.591 6.595 23.182 13.789 32.974Z"/><path fill="#373535" d="M308.159 187.953c1.799 1.599 2.598 2.798 3.398 4.197 2.198 3.997-2.199 7.794-6.995 7.794-.4 0-.999 0-1.399-.201-5.196 8.195-14.389 18.587-22.582 23.982 12.59 1.999 24.381 6.994 33.574 14.789 6.794-12.191 11.99-29.977 11.99-44.965 0-11.391-4.996-19.785-12.59-25.98-.2 6.195-3.597 14.789-5.396 20.384Zm-101.52 77.54c4.196-11.591 14.388-20.384 24.181-28.178-1.399-1.999-3.598-6.795-4.397-8.993-11.791-3.597-22.183-10.392-30.376-19.186 0 .201-.2.6-.2.8-1.599 6.795-1.799 13.789-.999 20.384 5.595 1 9.992 5.996 9.992 11.991 0 3.597-3.198 8.593-5.596 10.991 2.398 5.196 4.197 7.994 7.395 12.191Z"/><path fill="#373535" d="M205.839 275.085c-4.996-4.997-8.393-14.788-11.591-20.983-.599 0-1.199.2-1.798.2-6.795 0-13.79-5.596-12.191-12.191.8-3.597 3.398-5.995 7.394-7.994-.999-7.594-1.199-18.185.6-25.979.4-2.199 1.599-3.198 2.198-5.396-7.394-10.792-12.19-25.18-12.19-39.369v-1.6c-12.59 6.396-21.983 16.188-21.983 31.776 0 34.573 19.984 68.545 49.561 81.736v-.2Zm72.943-47.762c-3.797 10.791-14.189 18.785-26.379 18.785-6.595 0-12.59-2.198-17.187-5.996-9.792 7.595-18.785 20.984-23.182 32.774 1.999 2.199 3.398 3.998 5.796 5.995 6.795 1.8 16.387 0 23.781 0 29.777 0 56.356-13.188 71.544-36.57-10.392-7.194-22.382-13.989-34.373-14.988Z"/><path fill="#1287B1" d="M191.85 198.945a72.554 72.554 0 0 1 8.593-14.19c-.399-.998-.599-2.197-.599-3.197 0-5.196 4.197-9.192 9.193-9.192 1.199 0 2.398.199 3.397.599 15.388-11.791 35.572-16.787 55.956-12.19 1.799.399 3.598.998 5.396 1.399-19.984-2.798-40.768 3.397-56.156 15.787.4 1.199.799 2.398.799 3.597 0 5.196-4.196 9.193-9.192 9.193-1.2 0-2.199-.2-3.398-.599-3.397 4.596-6.395 9.792-8.393 15.388 7.394 7.794 16.387 14.189 26.379 17.786v-1.399c0-15.388 12.59-27.978 27.978-27.978 13.79 0 25.38 9.992 27.579 23.181 6.994-4.396 12.99-9.992 18.186-16.586-1.2-1.399-1.999-3.198-1.999-5.196 0-4.597 3.797-8.394 8.394-8.394.599 0 1.199 0 1.998.2 2.598-5.396 4.596-10.991 5.795-16.787-24.181-17.987-70.944-15.388-70.944-15.388s-37.171-1.998-62.351 10.392c1.398 12.191 6.195 23.781 13.389 33.574Z"/><path fill="#1287B1" d="M309.358 189.352c1.799 1.599 2.798 3.796 2.798 6.195 0 4.597-3.797 8.394-8.393 8.394-.4 0-1 0-1.399-.2a66.126 66.126 0 0 1-20.384 20.383c11.99 1.8 23.381 6.996 32.774 14.79 6.795-12.191 10.792-26.38 10.792-41.368 0-11.392-4.996-19.785-12.59-25.98-.4 6.195-1.599 12.191-3.598 17.786Zm-101.52 78.739c4.196-11.591 11.391-21.783 21.183-29.577-1.399-1.999-2.598-3.997-3.397-6.396-11.791-3.596-22.183-10.391-30.377-19.184 0 .2-.199.599-.199.799-1.599 6.795-1.799 13.789-1 20.384 5.596 1 9.993 5.995 9.993 11.991 0 3.597-1.599 6.795-3.997 8.992 1.998 4.597 4.796 8.994 7.794 12.991Z"/><path fill="#1287B1" d="M205.839 274.885c-4.996-4.996-9.193-10.591-12.39-16.786-.6 0-1.199.199-1.799.199-6.794 0-12.19-5.395-12.19-12.19 0-4.796 2.798-8.993 6.794-10.991-.999-7.595-.599-15.189 1.2-22.983.399-2.198 1.199-4.397 1.798-6.594-7.394-10.792-11.791-23.982-11.791-38.172v-1.597c-12.59 6.395-21.982 16.186-21.982 31.775 0 34.572 20.583 64.349 50.16 77.539.2 0 .2 0 .2-.2Zm72.144-43.565c-3.797 10.791-14.189 18.785-26.38 18.785-6.594 0-12.59-2.198-17.186-5.995-9.792 7.594-17.187 17.984-21.783 29.776 1.998 2.199 4.197 4.197 6.395 6.195a83.613 83.613 0 0 0 21.383 2.798c29.777 0 56.156-15.388 71.344-38.769-9.992-7.195-21.783-11.791-33.773-12.79Z"/><path fill="#FFF" d="m278.982 224.124 25.78-6.194-25.98-1.399 21.184-15.987-23.982 8.592 16.188-22.582-22.583 14.989 7.794-26.38-15.388 21.783-.399-27.578-10.192 24.581-8.394-24.781.4 29.176-14.589-26.178 7.994 27.778-23.781-17.187 18.585 23.382-29.577-10.791 23.182 17.186-29.777.999 30.576 7.793-30.576 6.596 30.177 2.198-25.38 16.188 26.179-9.393-18.186 22.982 22.982-18.585-8.193 30.776 17.786-25.181-2.398 29.577 9.992-26.979 8.593 28.178 1.999-28.378 12.79 24.182-7.594-27.579 23.181 17.986-14.988-22.982 25.58 9.992-19.584-19.185 26.179 1.999-25.58-9.594Z"/><path fill="#373535" fill-opacity=".35" d="M3.797 273.487c80.137-80.138 144.087-104.918 202.242-116.11 7.594-1.399 9.193-18.385 9.193-18.385s.999 12.39 6.395 13.989c5.396 1.598 12.39-19.385 12.39-19.385s-6.395 18.784 0 19.984c6.395.999 18.386-18.385 18.386-18.385s-4.796 16.587-1.599 17.786c3.198.999 19.385-24.181 19.385-24.181s-9.593 16.587-.6 18.385c9.193 1.599 22.583-11.391 22.583-11.391s-10.392 11.791-5.796 13.59c19.985 6.994 35.972-18.786 35.972-18.786s-3.797 11.391-13.389 23.782c20.983 5.395 36.571-26.18 36.571-26.18l-15.588 31.575c7.994 3.997 40.169-33.174 40.169-33.174s-16.587 28.978-26.38 34.973c5.396 4.397 24.781-12.99 24.781-12.99s-15.588 19.385-9.592 20.384c8.593 6.995 40.368-35.972 40.368-35.972s-12.39 25.38-30.576 45.164c15.188 7.795 53.158-41.167 53.158-41.167s-.999 15.588-28.577 40.369c20.384-2.598 46.763-41.369 46.763-41.369s-9.592 28.978-32.774 49.562c19.984-1.998 52.159-51.559 52.159-51.559s-12.39 34.372-37.571 54.357c27.979 6.194 68.347-35.572 68.347-35.572s-15.788 29.577-36.571 41.766c23.181 8.794 54.957-27.777 54.957-27.777s-31.776 48.961-82.336 46.763c-16.587-.799-66.748-50.361-174.264-46.363-142.289 5.196-172.265 65.548-248.206 106.317Z"/><path fill="#373535" d="M6.995 267.491c80.137-80.137 144.087-104.918 202.242-116.109 7.594-1.399 9.192-18.386 9.192-18.386s1 12.391 6.395 13.989c5.396 1.599 12.391-19.384 12.391-19.384s-6.395 18.784 0 19.984c6.395.999 18.385-18.386 18.385-18.386s-4.796 16.587-1.598 17.786c3.197 1 19.384-24.181 19.384-24.181s-9.592 16.586-.599 18.386c9.193 1.599 22.582-11.392 22.582-11.392s-10.392 11.792-5.795 13.59c19.984 6.995 35.972-18.786 35.972-18.786s-3.797 11.391-13.39 23.782c20.984 5.395 36.572-26.179 36.572-26.179l-15.588 31.574c7.993 4.397 40.368-32.773 40.368-32.773s-16.587 28.977-26.379 34.972c5.396 3.797 24.78-13.389 24.78-13.389s-15.587 19.385-9.592 20.384c8.593 6.994 40.368-35.972 40.368-35.972s-12.59 25.379-30.776 45.165c15.189 7.594 53.359-41.368 53.359-41.368s-.999 15.587-28.578 40.368c20.384-2.597 46.764-41.368 46.764-41.368s-9.593 28.978-32.775 49.562c19.985-1.998 52.159-51.56 52.159-51.56s-12.39 34.374-37.57 54.358c27.978 6.195 68.346-35.572 68.346-35.572s-15.787 29.577-36.571 41.767C480.225 197.146 512 160.575 512 160.575s-31.775 48.962-82.336 46.763c-16.587-.799-66.748-50.36-174.264-46.364C113.112 166.37 82.935 226.523 6.995 267.491Z"/><path fill="#373535" fill-opacity=".35" d="M1.799 282.28c42.366 21.183 81.136-3.198 129.898 10.591 37.171 10.392 82.336 23.381 143.688 14.389 61.352-8.793 113.711-35.572 138.891-83.136 7.794-21.182 39.569 4.797 39.569 4.797s-23.181-9.592-22.582-5.196c.6 4.597 34.773 20.385 34.773 20.385s-30.976-9.593-28.977-2.399c1.798 7.195 38.769 36.372 38.769 36.372s-42.167-31.575-45.564-27.179c-3.597 4.397 17.786 21.783 17.786 21.783s-35.173-21.783-47.563-15.388c-8.993 4.596 36.572 34.373 36.572 34.373s-29.577-22.582-36.572-16.587c-6.994 5.996 33.374 54.358 33.374 54.358s-45.964-49.562-50.56-47.163c-4.597 2.398 12.59 26.178 12.59 26.178s-22.383-24.779-28.578-20.583c-6.195 4.396 32.375 68.547 32.375 68.547s-41.768-65.749-59.154-54.757c26.979 59.353 16.987 67.747 16.987 67.747s-3.398-60.553-37.171-58.954c-16.987.798 7.993 45.163 7.993 45.163s-22.982-40.567-38.37-39.769c28.178 53.56 18.186 75.143 18.186 75.143s4.597-45.764-33.574-71.145c14.589 12.99-9.192 71.145-9.192 71.145s20.783-85.734-15.388-69.346c-5.796 2.597-.4 42.766-.4 42.766s-7.194-45.964-18.186-43.565c-6.395 1.397-40.368 63.75-40.368 63.75s27.778-67.349 19.385-64.551c-6.196 2-17.787 29.778-17.787 29.778s5.596-27.379 0-28.977c-5.595-1.599-37.17 28.977-37.17 28.977s23.381-27.379 19.384-33.174c-6.195-8.594-13.189-8.993-21.783-5.596-12.39 4.795-28.977 27.379-28.977 27.379s16.587-22.983 13.789-31.377c-4.596-13.789-52.359 26.581-52.359 26.581s28.178-26.581 21.783-32.375c-6.395-5.596-41.567-3.997-52.359-3.997-32.175.4-43.366-7.195-53.158-14.988Z"/><path fill="#373535" d="M0 277.482c42.367 21.185 81.137-3.197 129.899 10.593 37.17 10.392 82.335 23.382 143.687 14.388 61.352-8.793 113.711-35.571 138.892-83.134 7.794-21.184 39.569 4.795 39.569 4.795s-23.182-9.591-22.583-5.195c.6 4.597 34.773 20.384 34.773 20.384s-30.975-9.592-28.977-2.398c1.799 7.195 38.77 36.372 38.77 36.372s-41.768-31.776-45.165-27.379c-3.397 4.397 17.786 21.783 17.786 21.783s-35.172-21.783-47.563-15.388c-8.993 4.597 36.572 34.373 36.572 34.373s-29.577-22.582-36.572-16.588c-6.994 5.997 33.374 54.359 33.374 54.359s-45.764-49.562-50.361-47.163c-4.596 2.398 12.591 26.179 12.591 26.179s-22.783-24.582-28.978-20.385c-6.195 4.398 32.175 68.548 32.175 68.548s-41.767-65.949-58.954-54.958c27.179 59.554 16.987 67.947 16.987 67.947s-3.397-60.552-37.171-58.955c-16.987.801 7.994 45.166 7.994 45.166s-22.782-40.368-38.17-39.57c28.178 53.558 18.185 75.142 18.185 75.142s4.597-45.764-33.573-71.144c14.588 12.99-9.193 71.144-9.193 71.144s20.784-85.733-15.388-69.345c-5.796 2.597-.4 42.766-.4 42.766s-7.194-45.964-18.186-43.567c-6.395 1.399-40.368 63.75-40.368 63.75s27.778-67.347 19.385-64.549c-6.195 1.999-17.786 29.778-17.786 29.778s5.595-27.379 0-28.979c-5.596-1.598-37.171 28.979-37.171 28.979s23.381-27.379 19.384-33.175c-6.195-8.593-13.189-8.993-21.783-5.595-12.39 4.795-28.977 27.377-28.977 27.377s16.587-22.981 13.789-31.375c-4.596-13.789-52.359 26.58-52.359 26.58s28.178-26.58 21.783-32.375c-6.395-5.595-41.567-3.996-52.359-3.996-32.574.199-43.766-7.395-53.558-15.19Z"/></g></svg>