<?xml version="1.0" encoding="UTF-8" standalone="no"?>
<!-- Created with Inkscape (http://www.inkscape.org/) -->

<svg
   xmlns:dc="http://purl.org/dc/elements/1.1/"
   xmlns:cc="http://creativecommons.org/ns#"
   xmlns:rdf="http://www.w3.org/1999/02/22-rdf-syntax-ns#"
   xmlns:svg="http://www.w3.org/2000/svg"
   xmlns="http://www.w3.org/2000/svg"
   xmlns:xlink="http://www.w3.org/1999/xlink"
   version="1.1"
   width="298"
   height="335" viewBox="0 0 800.0 900.0"
   id="svg2">
  <defs
     id="defs4">
    <linearGradient
       id="linearGradient4019">
      <stop
         id="stop4021"
         style="stop-color:#000000;stop-opacity:1"
         offset="0" />
      <stop
         id="stop4023"
         style="stop-color:#000000;stop-opacity:0"
         offset="1" />
    </linearGradient>
    <linearGradient
       x1="-192.7"
       y1="810.3"
       x2="-15.7"
       y2="810.3"
       id="linearGradient4025"
       xlink:href="#linearGradient4019"
       gradientUnits="userSpaceOnUse" />
  </defs>
  <metadata
     id="metadata7">
    <rdf:RDF>
      <cc:Work
         rdf:about="">
        <dc:format>image/svg+xml</dc:format>
        <dc:type
           rdf:resource="http://purl.org/dc/dcmitype/StillImage" />
        <dc:title></dc:title>
      </cc:Work>
    </rdf:RDF>
  </metadata>
  <g
     transform="translate(0,-152)"
     id="layer1">
    <path
       d="M 784.3,267.7 C 691.9,221 461.9,162.9 384,161.6 306.2,160.7 96.72,213.7 13.47,249.4 13.47,644.1 187.7,893.9 384,1045 580.3,893.9 784.3,662.4 784.3,267.7 z"
       id="path4353-8"
       style="fill:#ffffff;stroke:none" />
    <path
       d="m 333.2,165.7 c -95.6,12.8 -250.66,54.4 -319.73,83.7 0,239.2 64.04,424.9 158.23,567.6 13.8,0.5 27.5,3.3 40.8,3.3 91.9,0 179.7,-21.1 254.8,-59.1 90.6,-54.4 190.3,-142.2 213.2,-264.8 5.9,-30.2 32.5,-75.5 54.9,-89.7 19.2,-11.4 -43.5,-30.2 -67.3,-31.5 -6.4,-0.5 -13.2,-0.9 -20.5,-0.9 -44.9,0 -80.1,22.8 -115.8,45.7 C 465.1,270 392.2,206.9 318.1,168.4 c 5,-0.9 10.1,-1.8 15.1,-2.7 z m -161,652.2 c 3.6,5.5 7.3,11 11,16.5 -3.7,-5.5 -7.4,-11 -11,-16.5 z m 23.3,33 c 3.7,6.4 7.8,10.9 11.9,15.5 -4.1,-4.6 -8.2,-9.1 -11.9,-15.5 z m 11.9,15.5 c 4.1,4.6 8.2,13.7 12.4,18.3 -4.2,-4.6 -8.3,-13.7 -12.4,-18.3 z M 341,1008 c 3.6,5 7.7,10 11.4,10 -3.7,0 -7.8,-5 -11.4,-10 z"
       id="path4353-8-2"
       style="fill:#ffffff;stroke:none" />
    <path
       d="m 376.2,161.6 c -15.6,0.4 -35.7,2.7 -58.1,6.4 74.1,38.4 147,102 213.7,252 35.7,-22.9 70.9,-45.7 115.8,-45.7 7.3,0 14.1,0.4 20.5,0.9 -123.5,91.9 -198.5,216.4 -200.4,387.4 -75.1,38 -162.5,59.1 -254.4,59.1 -13.3,0 -27.4,-2.8 -41.2,-3.3 C 233.4,913.6 306.7,985.3 384,1045 580.3,893.9 784.3,662.4 784.3,267.7 691.9,221 461.9,162.9 384,161.6 c -2.3,0 -5.1,0 -7.8,0 z"
       id="path4353-8-7-7"
       style="fill:#de2229;fill-opacity:1;stroke:none" />
    <path
       d="M 58.75,352.8 C 180,338.6 275.6,366.9 364.7,405.8 357.9,323 330.4,246.2 298,171.2 202.8,188.1 74.3,223.3 13.47,249.4 c 0,204.9 46.65,370 119.33,503.1 C 252.7,747 298,680.3 349.7,618.5 299.8,498.2 198.7,412.7 58.75,352.8 z"
       id="path4353-8-4"
       style="fill:#de2229;fill-opacity:1;stroke:none" />
    <path
       d="m 376.2,161.6 c -15.6,0.4 -35.7,3.2 -58.1,6.8 74.1,38.5 147,101.6 213.7,251.6 33.4,-21.5 66.4,-43 107.5,-45.3 2.8,-0.4 5.5,-0.4 8.3,-0.4 2.2,0 4.5,0 6.8,0 1.4,0 2.8,0 3.7,0.4 0.9,0 2.3,0 3.2,0 0.4,0 1.3,0 1.8,0 1.4,0 3.2,0.5 5,0.5 0,0 0,0 0,0 27.9,3.2 51.3,12.8 74.1,27.9 -35.6,22.8 -48,69.5 -62.6,113 -69.1,203.5 -255.3,304.1 -466.7,304.1 -7.3,0 -15.1,-1.4 -22.9,-2.7 -5.5,0 -11.4,0 -17.4,-0.5 11.5,17.4 22.9,34.3 34.8,49.4 53.5,73.2 113.9,128.1 176.6,178.6 55.4,-41 111.2,-91.7 162.9,-146.6 0,0 0,0 0,0 5.5,-9.1 11.5,-13.7 17,-22.8 0,0 0,0 0,0 5.4,-4.6 11.4,-9.2 16.9,-18.3 0,0 0,0 0,0 11,-13.3 21.5,-27 32,-41.7 78.7,-107.4 140,-240.5 162.4,-407.5 0.9,-5 1.3,-10.5 2.3,-16 0,-0.5 0,-0.5 0,-0.5 0.4,-5.4 0.9,-10.9 1.8,-16.4 0,-0.5 -0.5,-0.5 0,-0.5 0.4,-5.9 0.9,-11.4 1.4,-16.9 0,-0.5 0,-0.5 0,-0.5 0.4,-5.9 0.9,-11.4 1.3,-16.9 0,-0.4 0,-0.4 0,-0.4 0.5,-6 0.9,-11.5 0.9,-17.4 0,0 0,0 0,-0.5 0.5,-5.9 0.5,-11.9 1,-17.8 0,0 0,0 0,0 0,-6 0.4,-11.9 0.4,-17.9 0,0 0,0 0,0 0,-5.9 0,-12.3 0,-18.3 -2.7,-1.8 -5.9,-3.2 -9.1,-4.5 C 677.7,217.8 459.6,162.9 384,161.6 l -7.8,0 z"
       id="path4353-8-7-74"
       style="fill:#000000;stroke:none" />
  </g>
</svg>
