<svg id="Laag_1" xmlns="http://www.w3.org/2000/svg" viewBox="0 0 256.6 286.2" width="2241" height="2500"><style>.st0{fill-rule:evenodd;clip-rule:evenodd;fill:url(#SVGID_1_)}</style><linearGradient id="SVGID_1_" gradientUnits="userSpaceOnUse" x1="146.361" y1="30.012" x2="116.649" y2="273.754"><stop offset="0" stop-color="#e52521"/><stop offset="1" stop-color="#7a170f"/></linearGradient><path class="st0" d="M256.6 0c-12 13.6-24.4 27.2-36.9 40.8-12.4 13.5-23.8 28.2-36.2 41.7-.9-.3-1.9-2.3-2.7-2.7-17.5 16.9-35.1 33.8-52.4 50.9 36.8 51.8 73.2 103.8 110 155.6-45.4-49.1-90.9-99.3-136.3-149C68 164.4 34.2 192.1 0 219.2c16.6-19.4 32.2-39.9 48.8-59.3.8.3 2.2 2.2 2.9 2.7 13.6-13.3 27.3-26.4 40.9-39.7C70.7 90 49 56.8 27.1 23.8c.3-.2.9.6 1.3 1.1 30 30.7 60.3 62.1 90.2 93 46.2-39.1 92-78.6 138-117.9z"/></svg>