<svg xmlns="http://www.w3.org/2000/svg" width="209.22" height="45.824" viewBox="0 0 55.356 12.124"><path d="M218.248 324.78c-4.868.135-9.58 1.24-10.018 2.807-.04.142-.05.283-.05.426 0 1.543 3.22 2.07 6.708 2.506.06.007.058-.041.038-.075l-.102-.18c-.014-.025-.029-.041-.078-.055-1.908-.486-3.846-1.196-3.846-1.857 0-1.251 3.247-2.49 6.944-3.057a.51.51 0 0 0 .262-.112c.103-.082.328-.266.424-.342.062-.052.04-.068.016-.068l-.298.007z" style="fill:#1b1d80;fill-rule:evenodd;stroke:none;stroke-width:.26458332" transform="translate(-203.643 -320.42)"/><path d="M34.343 44.548c-9.56-2.396-19.033-10.418-17.54-17.851C18.983 15.852 33.568 5.347 51.769.41c.41-.122.562-.393.036-.393H26.964c-4.301 0-5.234.556-6.9 2.81-.887 1.199-8.321 11.45-11.674 16.07-.431.55-1.04 1.142-2.398 1.142H0c0 .002 0 .003.005.006 7.101 20.065 14.73 24.796 22.37 24.796h12.066c.17 0 .34-.183-.098-.294" style="fill:#df0011;fill-rule:evenodd;stroke:none;stroke-width:1" transform="translate(.132 .128) scale(.26458)"/><path d="M243.151 321.657v.455h-2a.34.34 0 1 0 0 .678l.978-.01-.002.83c-.048 1.317-.662 2.116-.925 2.456l-.072.095a.332.332 0 0 0-.13.266c0 .186.153.34.34.34a.396.396 0 0 0 .279-.118c-.003 0 .007-.004.007-.004.24-.191 1.037-.941 1.19-2.637h2.156c0 .346-.01.753-.03 1.246-.035.853-.625.833-.91.821h-.017c-.248-.027-.62-.118-.623-.118l-.092-.01a.34.34 0 0 0-.081.667c0 .004.36.128.693.133l.067.001c.425.006.906.013 1.245-.315.287-.278.43-.753.438-1.448.016-.287.022-.746.022-1.008 0-.082 0-.145-.002-.176a.476.476 0 0 0-.468-.468l-2.363-.003v-.549l3.029.01a.34.34 0 0 0 0-.678h-2.019v-.465c0-.178-.166-.329-.36-.329a.35.35 0 0 0-.35.339m11.019 2.832a.339.339 0 1 0 0 .68h1.683v.862h-2.004a.34.34 0 0 0-.34.34c0 .186.154.34.34.34h4.68a.34.34 0 0 0 .338-.34.34.34 0 0 0-.339-.34h-1.978v-.863h1.685a.34.34 0 0 0 0-.679zm1.68-2.822v.228h-1.746a.475.475 0 0 0-.47.472v.692a.34.34 0 1 0 .678 0v-.486h.791a.957.957 0 0 1-.028.37c-.097.344-.446.583-1.037.711l-.022.005a.328.328 0 0 0-.3.328c0 .183.164.339.358.339l.037-.003c1.316-.121 1.666-.807 1.73-1.363.017-.154.02-.323.02-.387v-.004l.664.004v1.234c.002.254.202.46.457.466h.988c.512 0 .728-.357.73-.36a.454.454 0 0 0 .063-.21c.01-.163-.062-.207-.139-.255l-.017-.012c-.121-.076-.253-.052-.396.07-.169.145-.312.123-.313.123l-.578-.002s-.054.001-.088-.033a.117.117 0 0 1-.032-.087l.002-.934h.914l-.074.273a.32.32 0 0 0 .038.249c.047.076.123.13.212.152.183.043.397-.086.44-.266.005-.015.136-.375.131-.584-.005-.33-.165-.496-.49-.504l-1.835.002v-.228a.35.35 0 0 0-.35-.34.339.339 0 0 0-.338.34m-24.714.641c-.047.053-.066.126-.058.216l.001.007.01.094-1.562.004c-.14 0-.298.11-.298.27 0 .147.13.27.283.27l1.649.004c.098.62.23 1.14.399 1.59a9.252 9.252 0 0 1-.495.703c-.038.04-.07.165-.07.26 0 .038.004.071.017.092a.26.26 0 0 0 .193.135.312.312 0 0 0 .26-.103 1.24 1.24 0 0 0 .185-.252l.172-.262a5.2 5.2 0 0 0 .3.516.288.288 0 0 0 .24.136.281.281 0 0 0 .253-.16l.012-.025c.048-.089.172-.327.255-.818v-.002c.008-.107-.016-.194-.069-.254a.239.239 0 0 0-.173-.082c-.107-.004-.229.058-.257.188l-.07.31-.14-.317c.258-.43.436-.83.543-1.218l.01-.101a.278.278 0 0 0-.093-.19.273.273 0 0 0-.443.127c0 .003-.14.434-.268.696a8.228 8.228 0 0 1-.215-.97h.908c.149 0 .27-.122.27-.273a.272.272 0 0 0-.27-.275h-.144l.002-.028a.287.287 0 0 0-.067-.188l-.033-.04a.279.279 0 0 0-.197-.102.288.288 0 0 0-.213.068.159.159 0 0 0-.056.12v.005c0 .053.03.11.069.158l-.334.003-.018-.116c-.021-.185-.114-.278-.278-.278a.283.283 0 0 0-.211.081" style="fill:#df0011;fill-rule:evenodd;stroke:none;stroke-width:.26458332" transform="translate(-203.643 -320.42)"/><path d="M232.962 325.98c0 .055-.028.083-.084.083l-1.502-.003-2.143-.004c-.05 0-.075-.026-.075-.082l.002-3.7c0-.027.006-.046.02-.06.012-.012.032-.019.06-.019l3.648.001c.03 0 .051.007.066.021a.082.082 0 0 1 .018.055zm.187-4.43h-4.164a.475.475 0 0 0-.467.473v4.205a.48.48 0 0 0 .467.478h4.164a.476.476 0 0 0 .472-.474c.002 0 .002-4.21.002-4.21a.473.473 0 0 0-.473-.472z" style="fill:#df0011;fill-rule:evenodd;stroke:none;stroke-width:.26458332" transform="translate(-203.643 -320.42)"/><path d="M98.466 14.466h2.984v-1.997h-2.984Zm4.802-3.341a.944.944 0 0 0-.876-.601h-4.87a.951.951 0 0 0-.74.357 1.012 1.012 0 0 0-.216.625v3.928l.021.197c.088.454.478.78.933.78h4.872l.28-.043a.97.97 0 0 0 .678-.93v-3.932a.955.955 0 0 0-.082-.381zm-1.638 5.7c-.024.007-2.485.796-4.17.776-.796-.009-1.193.542-1.225 1.05-.016.226.08.467.27.666.249.264.613.436.926.44 2.895.019 5.077-.95 5.095-.965h.006c.546-.252.999-.86.749-1.486-.374-.938-1.64-.485-1.65-.48m-15.228-1.594c0 .061-.01.189-.081.27a.289.289 0 0 1-.211.078H80.44V8.422h5.627c.115 0 .202.028.255.089a.28.28 0 0 1 .065.183v.023l.016 6.485zm-8.536.353-5.702-.005c-.024 0-.258-.012-.273-.32V8.713c0-.032.003-.137.073-.212.05-.053.126-.079.218-.079l5.684.013zm9.424-9.732h-6.838V4.001a1.293 1.293 0 1 0-2.585 0v1.852h-6.8c-.98 0-1.774.813-1.774 1.791l.002 8.715c0 .976.793 1.779 1.772 1.787 0 0 6.032.012 6.8.012v4.174a1.292 1.292 0 1 0 2.585 0v-4.166l6.832.014a1.79 1.79 0 0 0 1.791-1.787V7.636c0-.985-.8-1.783-1.785-1.783zm41.061 8.73.004-1.261h5.11c0 .131-.014 1.125-.016 1.261zm.004-4.516h5.11c0 .132-.014 1.128-.016 1.26h-5.098l.004-1.26zm-2.637 1.266h-5.168l.003-1.265h5.165zm0 3.262h-5.168l.003-1.262h5.165zm10.859 5.907h-.002c-.035-.013-3.476-1.453-6.786-3.765h4.254a1.77 1.77 0 0 0 1.769-1.764l-.007-.12v-.137c0-.813-.015-4.911-.015-4.911 0-.95-.743-1.722-1.695-1.76l-5.82-.003v-1.2l7.609-.017c.715 0 1.278-.54 1.278-1.231 0-.694-.585-1.258-1.296-1.258h-7.592v-.243a1.279 1.279 0 0 0-2.556 0v.243h-7.589c-.698 0-1.28.564-1.28 1.258 0 .688.582 1.247 1.28 1.247h7.589v1.201h-5.84c-1.12.041-1.763.685-1.763 1.777l-.008 5.126c.011.008.011.03.011.03a1.77 1.77 0 0 0 1.766 1.767l4.22-.005c-2.412 1.793-6.816 3.658-6.864 3.678a1.284 1.284 0 0 0-.704 1.148c0 .707.57 1.278 1.282 1.278l.328-.047c.057 0 4.734-1.409 7.557-4.48.004.364 0 4.253 0 4.253 0 .708.587 1.278 1.29 1.278a1.27 1.27 0 0 0 1.268-1.278s.004-3.466 0-4.356c2.061 2.312 7.085 4.583 7.14 4.61.192.116.727.19.956.19.67 0 1.193-.58 1.193-1.319 0-.534-.503-.967-.973-1.19zm40.388-11.223h-.162l-.062.012-.057.004c-.893 0-1.605.752-1.652 1.754v6.128c-.111 2.556-1.184 4.054-1.403 4.332-.006.003-.046.056-.046.056l-.033.048c-.02.035-.22.419-.22.715 0 .684.56 1.246 1.244 1.246.397 0 .76-.182.997-.497.004-.004 2.146-2.232 2.146-5.737v-.034c.004-.55-.029-5.43-.029-5.43h2.174c0 .561.003 4.12.003 6.704 0 1.403 0 2.514-.003 2.69.013 1.036.657 2.082 1.865 2.078l1.528-.002c.043.006 1.312.113 1.989-2.188 0-.01.047-.19.047-.19l.079-.476.002-.078c.02-.258.055-.8-.848-1.076-.548-.168-.999.073-1.212.645l-.127.363c-.107.354-.157.48-.347.495l-.477.004v-9.809c0-.017-.046-1.656-1.719-1.757h-3.677m.24-5.164v1.5h-2.333c-.744 0-1.35.563-1.35 1.248 0 .691.606 1.255 1.35 1.255h7.932c.737 0 1.342-.564 1.342-1.255 0-.685-.605-1.248-1.342-1.248h-3.09c-.005-.14 0-1.506 0-1.506a1.26 1.26 0 0 0-1.256-1.255c-.695 0-1.253.567-1.253 1.261m-6.585 8.377-1.156.004a1.097 1.097 0 0 0 .269-.916l-.275-1.753a1.05 1.05 0 0 0-.432-.727 1.002 1.002 0 0 0-.77-.158c-.519.101-.877.568-.877 1.11 0 .06.003.122.012.184l.273 1.755c.031.201.102.361.197.505h-1.095V8.129l3.854-.009zm2.672-.013h-.123V6.82c0-.71-.561-1.285-1.248-1.285l-2.065.007.221-.875.072-.193a1.226 1.226 0 0 0-.138-.94 1.24 1.24 0 0 0-1.71-.43 1.22 1.22 0 0 0-.564.766s-.394 1.572-.425 1.683l-1.738.01c-.015-.01-.052-.01-.052-.01-.69 0-1.25.581-1.25 1.287v5.66c-.71.006-1.285.557-1.285 1.235 0 .674.57 1.224 1.28 1.227-.004.133-.01.718-.01.718.002-.006-.009.126-.009.126l.001.043c-.02.983-.08 1.89-.176 2.718l-.013.123c-.288 2.424-.762 3.38-.765 3.388a1.88 1.88 0 0 0-.084.518 1.243 1.243 0 0 0 2.372.515c.055-.101.613-1.14.945-4.124l.017-.18c.091-.911.16-1.92.196-2.995 0-.006.017-.63.017-.847l.911-.003v3.082c0 .672.42 1.158 1 1.158.586 0 1.03-.497 1.03-1.158V14.95l.977-.005v5.965a.3.3 0 0 1-.102.244c-.262.218-.936.099-1.19.054l-.138-.02c-.674.028-1.133.513-1.133 1.199 0 .545.205.72.428.903l.058.048c.304.26.805.282.87.278 1.615.062 2.495-.13 3.03-.65.463-.453.67-1.18.67-2.34v-5.681h.123c.682 0 1.183-.517 1.183-1.233 0-.715-.501-1.233-1.183-1.233z" style="fill:#df0011;fill-rule:evenodd;stroke:none;stroke-width:1" transform="translate(.132 .128) scale(.26458)"/><path d="M107.913 29.637c-.213.258-.32.651-.32 1.182v6.79c-.275-.467-3.95-6.661-3.95-6.661-.669-1.131-1.358-1.705-2.047-1.705-.595 0-1.022.146-1.258.43-.235.285-.347.797-.347 1.564v9.144c0 .539.1.943.31 1.193.211.257.55.387 1.003.387.447 0 .783-.132 1.002-.394.22-.257.326-.657.326-1.186v-6.77c.278.463 4.125 6.938 4.125 6.938.368.622.68 1.006.95 1.166.263.162.631.246 1.087.246.528 0 .907-.152 1.124-.444.215-.292.32-.791.32-1.524V30.82c0-.535-.105-.936-.32-1.19-.212-.257-.55-.386-.996-.386-.455 0-.791.129-1.01.394m-12.736-.04c-.223.236-.336.594-.336 1.067v9.877c0 .461.121.814.341 1.057.224.24.562.362.997.362.447 0 .788-.122 1.012-.362.218-.232.331-.588.331-1.057v-9.877c0-.466-.115-.826-.335-1.062-.226-.24-.565-.36-1.008-.36-.442 0-.776.12-1.002.355m-5.145 0c-.218.236-.334.594-.334 1.067v3.31h-4.893v-3.31c0-.466-.111-.826-.336-1.062-.224-.24-.564-.36-1.002-.36-.447 0-.783.12-1.007.355-.223.236-.33.594-.33 1.067v9.877c0 .461.107.814.33 1.057.224.238.56.362 1.007.362.442 0 .79-.122 1.007-.362.223-.232.33-.588.33-1.057v-4.157h4.894v4.157c0 .464.116.82.341 1.057.224.24.562.362 1.004.362.447 0 .791-.122 1.016-.36.22-.234.335-.59.335-1.059v-9.877c0-.466-.116-.826-.344-1.062-.227-.24-.563-.36-1.007-.36-.445 0-.788.12-1.011.355m-19.166 1.258c-1.043 1.183-1.572 2.846-1.572 4.95 0 1.957.524 3.516 1.552 4.648 1.03 1.125 2.47 1.698 4.262 1.698.85 0 1.61-.118 2.255-.344a5.687 5.687 0 0 0 1.835-1.104c.35-.318.632-.67.845-1.041.211-.387.324-.746.324-1.063 0-.341-.128-.63-.38-.865a1.285 1.285 0 0 0-.916-.36c-.238 0-.458.062-.65.17-.182.105-.388.302-.605.581l-.195.338-.273.426a2.245 2.245 0 0 1-.875.613c-.36.139-.77.21-1.224.21-1.03 0-1.833-.356-2.386-1.064-.559-.705-.842-1.733-.842-3.044 0-1.284.282-2.3.837-3.028.553-.718 1.322-1.083 2.282-1.083.459 0 .87.076 1.224.226.35.145.66.372.917.672l.24.346c.12.194.22.33.321.423.188.176.385.314.575.4a1.6 1.6 0 0 0 .62.133c.388 0 .696-.123.928-.357.233-.231.347-.548.347-.93 0-.348-.108-.713-.333-1.089a3.45 3.45 0 0 0-.911-.987 5.76 5.76 0 0 0-1.764-.95 6.424 6.424 0 0 0-2.039-.307c-1.87 0-3.348.601-4.399 1.782m44.667 6.212c.062-.19 1.448-4.455 1.585-4.87l1.593 4.87zm7.088 3.394c-.039-.122-.103-.34-.103-.34l-3.445-9.537c-.21-.567-.436-.919-.694-1.083-.259-.158-.654-.235-1.208-.235-.591 0-.998.08-1.254.25-.253.164-.474.53-.677 1.1l-3.382 9.507-.1.338-.028.338c0 .356.122.646.362.858.239.22.55.327.93.327.333 0 .603-.082.823-.24.212-.16.368-.404.477-.726l.544-1.7h4.629l.563 1.7c.105.327.263.574.474.734.21.152.48.232.808.232.385 0 .704-.108.94-.327a1.1 1.1 0 0 0 .372-.858s.007-.214-.03-.338zm83.275-10.825c-.212.258-.324.651-.324 1.182v6.79c-.274-.467-3.947-6.661-3.947-6.661-.67-1.131-1.357-1.705-2.046-1.705-.6 0-1.02.146-1.256.43-.238.285-.353.797-.353 1.564v9.144c0 .547.105.938.314 1.193.21.257.548.387 1.004.387.444 0 .78-.132 1-.394.217-.26.327-.657.327-1.186v-6.77c.275.46 4.12 6.938 4.12 6.938.37.622.685 1.006.956 1.164.261.164.632.248 1.087.248.526 0 .904-.152 1.118-.444.218-.292.324-.791.324-1.524V30.82c0-.535-.11-.936-.317-1.19-.216-.257-.552-.386-1.006-.386-.447 0-.785.129-1 .394m-29.694-.232c-.594 0-1.02.145-1.256.433-.234.288-.35.8-.35 1.575v8.396c0 .772.116 1.284.35 1.569.236.285.662.43 1.256.43h6.468c.465 0 .822-.102 1.067-.303.247-.207.378-.507.378-.9 0-.4-.126-.706-.365-.902-.247-.2-.608-.297-1.08-.297h-5.432V36.4h4.58c.463 0 .81-.093 1.054-.283.25-.192.377-.475.377-.836 0-.378-.122-.667-.364-.856-.241-.187-.595-.28-1.066-.28h-4.581v-2.451h5.106c.466 0 .825-.097 1.068-.284.25-.192.377-.47.377-.841 0-.383-.127-.673-.377-.868-.242-.198-.602-.295-1.068-.295zm-12.053.026c-.424 0-.752.102-.973.294-.224.201-.34.49-.34.877 0 .38.112.672.332.866.212.188.546.282.98.282h2.469v8.791c0 .461.116.816.338 1.057.227.242.564.362 1.01.362.44 0 .777-.12.999-.362.218-.232.334-.588.334-1.057v-8.791h2.472c.427 0 .757-.097.972-.29.224-.194.333-.483.333-.858 0-.387-.11-.676-.333-.877-.215-.192-.545-.294-.972-.294zm-33.253-.026c-.6 0-1.018.145-1.26.433-.234.288-.353.8-.353 1.575v8.396c0 .772.12 1.284.352 1.569.243.285.658.43 1.26.43h6.461c.466 0 .823-.102 1.068-.303.248-.207.373-.507.373-.9 0-.4-.12-.706-.37-.9-.238-.203-.601-.3-1.07-.3h-5.423V36.4h4.575c.453 0 .808-.093 1.048-.283.25-.192.378-.475.378-.834 0-.38-.124-.67-.368-.858-.237-.187-.592-.28-1.058-.28h-4.575v-2.451h5.1c.463 0 .821-.097 1.063-.284.247-.192.373-.47.373-.841 0-.383-.126-.673-.373-.868-.242-.195-.6-.295-1.063-.295zm22.748.671c-.831.661-1.252 1.589-1.252 2.77 0 1.042.288 1.851.857 2.398.566.547 1.66 1.004 3.253 1.368l.172.043c2.006.46 3.025 1.04 3.025 1.727 0 .493-.187.86-.565 1.114-.385.256-.96.386-1.725.386-.48 0-.9-.072-1.25-.212a2.222 2.222 0 0 1-.868-.641l-.341-.49c-.396-.598-.83-.904-1.298-.904-.36 0-.659.126-.885.37-.219.245-.332.566-.332.945 0 .365.113.74.34 1.122.218.378.527.705.896.974a5.793 5.793 0 0 0 1.704.842c.58.177 1.279.263 2.074.263 1.496 0 2.695-.368 3.563-1.083.873-.717 1.311-1.71 1.311-2.946 0-.673-.121-1.257-.373-1.72-.25-.475-.64-.866-1.163-1.162a6.652 6.652 0 0 0-1.055-.446c-.405-.137-1.054-.315-1.93-.533l-.783-.188c-1.35-.318-2.03-.78-2.03-1.378 0-.45.165-.786.506-1.038.342-.244.842-.369 1.474-.369.44 0 .825.061 1.147.184.314.121.579.307.786.547l.24.311c.42.554.871.835 1.332.835.357 0 .65-.111.875-.327.217-.218.326-.508.326-.864 0-.32-.114-.664-.334-1.027a3.129 3.129 0 0 0-.87-.91 4.873 4.873 0 0 0-1.513-.715 6.899 6.899 0 0 0-1.85-.231c-1.474 0-2.64.332-3.464.985m39.097 4.311c-.283.246-.747.372-1.368.372h-2.876v-3.083h2.995c.553 0 .974.134 1.257.392.277.256.416.643.416 1.151 0 .537-.139.925-.424 1.168zm2.87 5.152a5.284 5.284 0 0 1-.06-.74l-.05-.892c-.05-.57-.202-1.024-.445-1.368-.215-.303-.532-.515-.917-.68.52-.2.93-.527 1.224-.987.319-.507.48-1.151.48-1.912 0-1.194-.333-2.1-.99-2.678-.653-.582-1.669-.877-3.02-.877h-4.406c-.596 0-1.017.145-1.253.433-.238.288-.354.8-.354 1.575v9.129c0 .461.11.813.33 1.056.227.242.565.363 1.007.363.444 0 .783-.12 1.008-.363.218-.232.332-.589.332-1.056v-3.495h2.59c.617 0 1.053.11 1.284.324.24.214.392.806.455 1.76.084 1.273.24 2.041.478 2.358.236.32.638.489 1.188.489.399 0 .723-.113.969-.33.24-.22.367-.52.367-.895 0-.113-.034-.306-.095-.591zm-51.583-2.472c.064-.19 1.45-4.455 1.586-4.87.139.411 1.53 4.68 1.593 4.87zm7.09 3.394c-.038-.122-.102-.34-.102-.34l-3.446-9.537c-.21-.567-.439-.919-.695-1.083-.258-.158-.653-.235-1.21-.235-.589 0-.995.08-1.252.25-.253.164-.475.53-.676 1.1l-3.383 9.507-.1.338-.029.338c0 .356.125.646.362.858.242.22.55.327.931.327.332 0 .604-.082.821-.24.214-.16.37-.404.482-.726l.54-1.7h4.63c.036.105.562 1.7.562 1.7.107.327.266.574.475.734.208.152.478.232.81.232.383 0 .703-.108.939-.327.246-.22.372-.511.372-.858 0 0 .004-.214-.032-.338z" style="fill:#1b1d80;fill-rule:evenodd;stroke:none;stroke-width:1" transform="translate(.132 .128) scale(.26458)"/></svg>