<svg xmlns="http://www.w3.org/2000/svg" width="2000" height="1959.26" viewBox="0 0 2000 1959.26"><path d="M1238.42,0,1074.36,91.2V866l89.6,49.87v-590l307.55,171,.3-.14,59.72,33.16,49.85-27.54V455.74L1164,223.94V143.27l74.46-41.39,432.3,240.43v214L1463.2,671l-7-3.4a89.09,89.09,0,0,0-38.87-9.19c-49.38,0-89.58,39.87-89.58,88.86s40.2,88.88,89.58,88.88a88.8,88.8,0,0,0,88.61-79.8l.79-7.67,209.44-115.81L1910.4,741v478L1716,1327,925.62,887.3v-796L761.56,0,239.7,290.23V555.09L0,688.23v582.15L239.7,1403.7V1669l521.86,290.24L925.62,1868V1091.56L836,1041.75v591.72L468.47,1429.41,418.6,1457v46.59L836,1735.36V1816l-74.46,41.42L329.28,1617v-214L536.8,1288.24l7,3.38a89.35,89.35,0,0,0,38.87,9.19c49.4,0,89.6-39.85,89.6-88.86s-40.2-88.86-89.6-88.86a88.82,88.82,0,0,0-88.58,79.8l-.76,7.64L283.82,1326.37,89.58,1218.31v-478l194.47-108,790.31,439.6V1868l164.06,91.24L1760.3,1669V1404.17L2000,1271.05V688.87L1760.3,555.6V290.23ZM329.28,342.31,761.56,101.88,836,143.29V223.9L329.28,505.32Zm46.47,239.12L836,325.77V837.45ZM1164,1121.77l460.31,256.08L1164,1633.51Zm0,694.18v-80.57l506.76-281.46v163l-432.3,240.42Z" fill="#01c38d"/></svg>