<svg xmlns="http://www.w3.org/2000/svg" width="2000" height="1678.47" viewBox="0 0 2000 1678.47"><g fill="#424242"><path d="m0 0l0 335.55 0 335.54 0 336.29 335.55 0 0-336.29 0-335.54 0-335.55-335.55 0"/><path d="m1664.45 671.09l0 336.29 0 335.54 0 335.55 335.55 0 0-335.55 0-335.54 0-336.29-335.55 0"/><path d="m992.63 0l0 335.55 0 321.53 335.54 335.55 0-321.54 0-335.54-335.54-335.55"/><path d="m671.83 685.84l0 321.54 0 335.54 335.55 335.55 0-335.55 0-321.53-335.55-335.55"/></g><path d="m992.63 0l335.54 0 671.83 671.09-335.55 0-671.82-671.09"/><path d="m0 1007.38l335.55 0 671.83 671.09-335.55 0-671.83-671.09"/><path fill="#3cc68a" d="m1328.17 335.55l0 335.54 0 317.11-992.62-988.2 0 335.55 0 20.64 0 314.9 0 336.29 336.28 335.54 0-335.54 0-317.12 992.62 988.21 0-335.55 0-20.65 0-314.89 0-336.29-336.28-335.54"/></svg>