<svg xmlns="http://www.w3.org/2000/svg" width="40" height="40" class="w-6 h-6"><defs><linearGradient id="a" x1="0%" x2="100%" y1="100%" y2="0%"><stop offset="0%" stop-color="#2E27AD"/><stop offset="100%" stop-color="#527FFF"/></linearGradient></defs><g fill="none" fill-rule="evenodd"><path fill="url(#a)" d="M0 0h40v40H0z"/><path fill="#FFF" d="M14 14h3v-1h-3v1zm4.952 15.799-.93-.366 3.589-9.126.93.366-3.589 9.126zm4.243-2.433 2.653-2.326-2.65-2.297.655-.756 3.083 2.673a.498.498 0 0 1 .002.754l-3.083 2.704-.66-.752zm-9.578-2.081a.5.5 0 0 1 .017-.733l3.072-2.716.662.749-2.668 2.358 2.674 2.594-.695.718-3.062-2.97zM33 13H19v1h14v1.251A1.75 1.75 0 0 1 31.251 17H9.108A2.111 2.111 0 0 1 7 14.891V14h5v-1H7V9.109C7 7.946 7.946 7 9.108 7h21.904A1.99 1.99 0 0 1 33 8.989V13zM11 33h18V18H11v15zM31.012 6H9.108A3.113 3.113 0 0 0 6 9.109v5.782A3.113 3.113 0 0 0 9.108 18H10v15.5a.5.5 0 0 0 .5.5h19a.5.5 0 0 0 .5-.5V18h1.251A2.752 2.752 0 0 0 34 15.251V8.989A2.992 2.992 0 0 0 31.012 6z"/></g></svg>