<svg xmlns="http://www.w3.org/2000/svg" width="2000" height="2000" viewBox="0 0 2000 2000"><path d="M1000,2000c552.29,0,1000-447.71,1000-1000S1552.29,0,1000,0,0,447.72,0,1000,447.72,2000,1000,2000Z" fill="#070a0e"/><path d="M577.66,1335.32a100.75,100.75,0,0,1-48.21-85.85V1054.11a42,42,0,0,1,63.16-36.19L1033.53,1275a84,84,0,0,1,41.68,72.5v202.44a50.33,50.33,0,0,1-76.66,43Zm657.25-370.95a84,84,0,0,1,41.66,72.51v410.75a33.45,33.45,0,0,1-17.09,29.23l-96.54,54.35a19.72,19.72,0,0,1-3.88,1.61V1304.75a84.13,84.13,0,0,0-40.86-72.12L731,1001V743.51a42,42,0,0,1,63.16-36.19Zm193-303.38a83.89,83.89,0,0,1,41.79,72.64v600A33.68,33.68,0,0,1,1452,1363.1l-91.46,49.4V994.82a84.08,84.08,0,0,0-40.73-72L924,685.43V441.2a42.92,42.92,0,0,1,5.61-21.1,42.06,42.06,0,0,1,57.42-15.22Z" fill="#00d395" fill-rule="evenodd"/></svg>