<svg xmlns="http://www.w3.org/2000/svg" xmlns:xlink="http://www.w3.org/1999/xlink" width="2000" height="2000" viewBox="0 0 2000 2000"><defs><linearGradient id="a" y1="1002" x2="2000" y2="1002" gradientTransform="matrix(1, 0, 0, -1, 0, 2002)" gradientUnits="userSpaceOnUse"><stop offset="0" stop-color="#ba9653"/><stop offset="0.24" stop-color="#d9bd71"/><stop offset="0.48" stop-color="#e5dd8f"/><stop offset="0.75" stop-color="#d9bd71"/><stop offset="1" stop-color="#ba9653"/></linearGradient></defs><path d="M1000,2000c-135,0-265.93-26.46-389.28-78.64A1002.58,1002.58,0,0,1,78.63,1389.27C26.45,1265.92,0,1135,0,1000S26.45,734.07,78.63,610.72A1002.58,1002.58,0,0,1,610.72,78.63C734.07,26.45,865,0,1000,0s265.93,26.45,389.28,78.63a1002.58,1002.58,0,0,1,532.09,532.09C1973.55,734.07,2000,865.05,2000,1000s-26.46,265.92-78.63,389.27a1002.44,1002.44,0,0,1-532.09,532.09C1265.93,1973.54,1135,2000,1000,2000Zm0-1989.53L835,245.7c-295.79,64.66-541.85,297-590.74,596.15L11.28,1000l233,154.83c6.87,34.15-2.59-9.08,0,3.31C306.9,1458,544.09,1694.56,844.31,1756.27L1000,1989.53l161.13-234.4c297.55-63.41,532.2-298.78,594.58-596.71L1989.53,1000,1756.19,843.88c-62-300.93-299.76-538.46-600.79-600.22C1155.4,243.66,1006.55,10.81,1000,10.47Zm0,1655.25a663.74,663.74,0,1,1,259.14-52.33A661.53,661.53,0,0,1,1000,1665.72Zm0-1261.37c-328.45,0-595.66,267.21-595.66,595.65S671.56,1595.64,1000,1595.64s595.64-267.2,595.64-595.64S1328.44,404.35,1000,404.35Zm0,120.82c-262.25,0-474.83,212.59-474.83,474.83S737.75,1474.83,1000,1474.83s474.83-212.59,474.83-474.83S1262.25,525.17,1000,525.17Zm0,633.51a158.62,158.62,0,0,0,131-69.19l25.29,17.42a190.41,190.41,0,0,1-22.4,26.93,189.29,189.29,0,1,1,0-267.69,191.4,191.4,0,0,1,25.5,31.59l-25,18A158.71,158.71,0,0,0,1000,841.32c-87.5,0-158.68,71.18-158.68,158.68S912.5,1158.68,1000,1158.68Zm0-379c-121.47,0-220.3,98.83-220.3,220.3s98.83,220.3,220.3,220.3a220.21,220.21,0,0,0,181.69-95.88l25.32,17.44a253.41,253.41,0,0,1-29.59,35.56,250.91,250.91,0,1,1,0-354.84,253.92,253.92,0,0,1,32,39.17l-25,18C1145.09,819.54,1077.12,779.7,1000,779.7Zm0-58c-153.45,0-278.29,124.84-278.29,278.29S846.55,1278.29,1000,1278.29c95.11,0,179.23-48,229.44-121l25.33,17.44a311,311,0,0,1-36.34,43.68,308.62,308.62,0,1,1,38.16-390.51l-25,18C1181.65,771.07,1096.48,721.71,1000,721.71Zm0-58c-185.43,0-336.29,150.86-336.29,336.29S814.57,1336.28,1000,1336.28c114.9,0,216.52-57.92,277.2-146.1l25.36,17.46a368.83,368.83,0,0,1-159.74,130.41,367.09,367.09,0,1,1,116.62-597.49,368.64,368.64,0,0,1,44.28,53.49l-25,18C1218.21,722.6,1115.85,663.71,1000,663.71Z" style="fill:url(#a)"/></svg>