<svg height="1971.24" viewBox="0 0 2000 1971.24" width="2000" xmlns="http://www.w3.org/2000/svg" xmlns:xlink="http://www.w3.org/1999/xlink"><linearGradient id="a" gradientTransform="matrix(.03 0 0 -.03 236.88 289.52)" gradientUnits="userSpaceOnUse" x1="53064.67" x2="53294.2" y1="-24111.11" y2="-32218.76"><stop offset="0" stop-color="#fd6801"/><stop offset=".31" stop-color="#fe5901"/><stop offset="1" stop-color="#ff4900"/></linearGradient><linearGradient id="b" x1="563.32" x2="788.91" xlink:href="#a" y1="-24168.54" y2="-32137.01"/><g fill-rule="evenodd"><path d="m0 985.66 1001.13-984.27 998.87 985.57-1001.13 984.28z"/><path d="m1246.24 244-244.3-243.51a1.69 1.69 0 0 0 -2.86.9l-1.08 6.42.75-4.31a1.69 1.69 0 0 0 -2.9-1.5l-197.79 199.83-416.91 404.67a1.67 1.67 0 0 0 0 2.37l238.57 241a1.7 1.7 0 0 0 2.38 0l374.68-363.7a1.69 1.69 0 0 1 2.36 0l378.08 367a1.69 1.69 0 0 0 2.38 0l238.56-241a1.66 1.66 0 0 0 0-2.37l-371.92-365.8c-.68-.66-1.89 1.84-1.22 1.18z" fill="#fd6801"/><path d="m1247.45 1725.41-247.98 245.83-1.69-9.6 1.69 9.6-202.71-203.63-420.47-405.84 242.28-243.37 379.21 366.02 382.59-369.29 242.28 243.37z" fill="#fd6801"/><path d="m1483.84 985.1 257.58-257.61 257.58 257.62-257.59 257.61z" fill="url(#a)"/><path d="m0 986.52 253.19-253.18 253.18 253.19-253.19 253.18z" fill="url(#b)"/></g><path d="m1244.37 249.62h1.47v2.36h-1.47z" fill="#fd6801" transform="matrix(.70710678 .70710678 -.70710678 .70710678 542.02 -806.97)"/></svg>