<svg xmlns="http://www.w3.org/2000/svg" width="2000" height="2343.47" viewBox="0 0 2000 2343.47"><g fill="#2d2d2d"><path d="m1171.74 0c306.78-2.67 612.41 123.86 827.76 342.31-28.66 29.62-58.32 58.29-87.25 87.64-16.42 15.39-30.88 32.79-48.52 46.8-150.5-150.81-351.4-250.74-562.9-277.88-42.83-6.15-86.11-8.09-129.32-8.51 0-63.36-.46-126.88.23-190.36"/><path d="m62.09 793.91c57.71-169.48 154.43-325.86 282-451.59 45.42 44.39 90 89.58 134.89 134.58-42.63 44.63-83.44 91.27-117.75 142.72-116.38 169.38-177.11 376.44-169.75 581.84 5.42 218 88 432.7 228.49 599.27 18.17 22.67 39.13 42.87 58.44 64.55-45 44.73-89.39 90.12-134.85 134.4-142.8-140.39-246.43-319.57-300.48-512.17-63.25-226.13-56.8-471.33 19.01-693.6"/><path d="M783,594.93c113.9-76.69,251-119.67,388.54-118.14q.29,94.82,0,189.63c-22.4,2.06-45,1.64-67.25,5.23C986,687.22,874.43,747,795.49,836.32c-71.11,79.47-116.38,182-125.69,288.26-11.3,114.51,19,232.42,83.52,327.66,59.46,88.82,147.87,158,248.6,193.9,54.24,19.93,112,28.82,169.63,29.93,0,63.47.34,127-.19,190.43-156.77.57-312.92-54.51-434.8-153.06A695.16,695.16,0,0,1,575.21,814.6C627,727.15,699.11,652.15,783,594.93Z"/><path d="m1834.38 1894.25c10.69-9.62 20-20.77 31.83-29.09 44.51 44.82 89.63 89.09 133.79 134.25-205 209.36-493.2 334-785.85 342.88-14.2 1.19-28.44 1.3-42.68 1.11.08-63.48-.49-127 .31-190.43 173.29-1.11 346.7-46.61 495.83-135.43a996 996 0 0 0 166.77 -123.29"/></g><g fill="#cb2028"><path d="M1107.38,237.88c58.1-2.21,116.5-2.63,174.33,4.24,206.42,24.31,405.14,118.71,550.61,267.69q-66.71,67.44-134.21,134.13c-16-12.94-30.12-28-46-41a738.18,738.18,0,0,0-269.64-145.62c-172.26-51.15-363.31-37.45-525.76,39.77C659.11,588.55,506.2,771.16,451.77,982.13c-45,169.21-27.71,354.45,49.28,511.86,74.28,154.9,204.06,282.54,360.4,353.84,76,35.77,158.41,57,241.85,65.16,37,1.68,74,5.73,110.92,1.72,148.33-7.86,293.61-62.33,411.06-153.22,25.88-19.5,49.51-41.68,73.21-63.74,43,42.41,85.39,85.35,128.22,127.91,2.29,2.67,7.78,7,3.28,10.49-90.43,90.35-200.13,161.24-319.3,207.5a934.83,934.83,0,0,1-448.77,56.87c-151.34-17.17-297.76-73.21-422.89-159.86-156.61-108.59-279.37-265.78-344.9-444.87-58.75-158-72.95-332-41.88-497.59a935.45,935.45,0,0,1,855.13-760.32Z"/><path d="m1008.37 751.2c83.52-32.75 176.88-38.82 264.29-19.32a453.06 453.06 0 0 1 216.43 119.71c-6 10.95-16.26 18.58-24.54 27.71-36.5 36-72.15 72.79-108.87 108.55-48.32-48-115.58-78-184.21-76-96.87-2.51-190.7 57.87-232 144.94-27 55.27-33.43 120.5-16.83 179.78 19.39 74.32 74.51 138.1 144.89 168.71 72.38 33.06 159.86 28.9 229.14-10.15 20.92-11 38.71-26.72 57.26-41.15 44.66 44.51 89.66 88.71 133.59 133.9-98.29 100-246.12 147.42-384.33 125-95.89-14.35-186.2-61.45-253.57-131-67.79-69.39-111.84-161.31-123.29-257.61-12.86-104.13 11.53-212.84 69.85-300.29 49.89-78.27 125.96-138.98 212.19-172.78"/></g></svg>