<svg xmlns="http://www.w3.org/2000/svg" width="74.4" height="86.7" viewBox="0 0 74.4 86.7"><path d="M74.4,43.4a31.15,31.15,0,1,1-31-31.2A31.15,31.15,0,0,1,74.4,43.4ZM43.3,31.6A11.8,11.8,0,1,0,55.1,43.4,11.82,11.82,0,0,0,43.3,31.6Zm26.8,3a6.37,6.37,0,0,0-.2-.7,28.11,28.11,0,0,0-9.5-13,27.28,27.28,0,0,0-9.5-4.7c-.4-.1-.9-.2-1.1.3s.3.7.7.8h.2A26.59,26.59,0,0,1,67.5,31.4c.5,1,.8,2.1,1.3,3.1a.94.94,0,0,0,.7.5C69.7,35,69.9,34.7,70.1,34.6ZM36.3,70.7c.2-.2.4-.3.5-.5a1.08,1.08,0,0,0-.3-.7c-.1-.1-.3-.1-.5-.2A26.76,26.76,0,0,1,19.1,55.2c-.5-1-.9-2.1-1.3-3.1a.52.52,0,0,0-.8-.4c-.4.1-.5.4-.4.8,0,.1.1.2.1.4A27.79,27.79,0,0,0,34.8,70.3,11.31,11.31,0,0,1,36.3,70.7Zm.6-3c.5,0,.8-.4.7-.7s-.5-.5-.7-.6a24,24,0,0,1-14.8-12c-.5-1-.9-2.1-1.4-3.2-.2-.4-.4-.6-.8-.5a.59.59,0,0,0-.3.9c0,.1.1.2.1.4A25.19,25.19,0,0,0,36.5,67.6C36.6,67.6,36.8,67.7,36.9,67.7ZM67.2,35.5a6.37,6.37,0,0,0-.2-.7A24.58,24.58,0,0,0,51.6,19.7a15.43,15.43,0,0,0-1.7-.5c-.4-.1-.7,0-.8.4s.1.6.5.8c.1,0,.2.1.4.1,7.7,2.4,13,7.2,15.9,14.7.1.2.1.5.3.6a1.08,1.08,0,0,0,.7.3A.71.71,0,0,1,67.2,35.5Zm-2.9.9c-.1-.3-.1-.5-.2-.6a21.64,21.64,0,0,0-11-12.2c-1.2-.6-2.6-1-3.9-1.5-.4-.2-.8-.1-.9.3s.2.7.6.8c.1,0,.2,0,.2.1A20.7,20.7,0,0,1,62.9,36.2c.1.2.1.4.2.5a2.12,2.12,0,0,0,.7.3C64,36.8,64.1,36.5,64.3,36.4ZM37.8,64.8c.1-.1.4-.3.5-.4a1.85,1.85,0,0,0-.2-.7c-.1-.1-.3-.1-.5-.2A20.92,20.92,0,0,1,23.7,50.7c-.2-.5-.3-1.1-1-.8s-.3.8-.2,1.3A22,22,0,0,0,37,64.7,2.2,2.2,0,0,1,37.8,64.8Zm.7-2.9c.2-.2.5-.3.6-.5a2.12,2.12,0,0,0-.3-.7c0-.1-.2-.1-.3-.1a17.78,17.78,0,0,1-12-11.1c-.1-.2-.1-.4-.2-.4a1.85,1.85,0,0,0-.7-.2c-.2,0-.3.3-.4.5a4.33,4.33,0,0,0,.1.5A18.7,18.7,0,0,0,35.5,60.7C36.5,61.2,37.5,61.5,38.5,61.9Zm9.6-37.2c-.2.2-.6.4-.6.6a2.12,2.12,0,0,0,.3.7c.1.1.2.1.4.1a17.73,17.73,0,0,1,11.4,9.8,6.94,6.94,0,0,1,.5,1.3c.2.4.5.6.8.4s.2-.5.3-.8c0-.1-.1-.2-.1-.4a18.42,18.42,0,0,0-8.9-10.1C50.9,25.8,49.5,25.3,48.1,24.7ZM39.2,59c.3-.2.6-.4.6-.6a1.08,1.08,0,0,0-.3-.7c-.1-.1-.3-.1-.5-.2a14.46,14.46,0,0,1-9.5-8.7c-.1-.2-.1-.5-.3-.6a.66.66,0,0,0-.7-.2c-.2.1-.3.4-.4.7a4.33,4.33,0,0,1,.1.5,15.78,15.78,0,0,0,6.7,7.9C36.4,57.9,37.8,58.4,39.2,59Zm8.2-31.3c-.3.2-.6.4-.6.6a1.08,1.08,0,0,0,.3.7c.1.1.3.1.5.2a14.84,14.84,0,0,1,9.6,8.7c.1.2.1.4.2.5s.6.4.7.3.3-.5.4-.7a4.33,4.33,0,0,1-.1-.5,15.48,15.48,0,0,0-6.7-7.8A32.62,32.62,0,0,0,47.4,27.7Z"/><g fill="#ed1c24"><path d="M43.3 31.6A11.8 11.8 0 1 1 31.5 43.4 11.82 11.82 0 0 1 43.3 31.6m2 11.7a2 2 0 0 0 -4 0 2 2 0 0 0 4 0"/><path d="M43.3 76.6A33.3 33.3 0 1 1 65 18.1l5.7-8.3a43.36 43.36 0 1 0 .1 67l-5.6-8.4A33.3 33.3 0 0 1 43.3 76.6"/></g></svg>