<?xml version="1.0" encoding="UTF-8" standalone="no"?>
<!-- Generator: Gravit.io -->
<svg xmlns="http://www.w3.org/2000/svg" xmlns:xlink="http://www.w3.org/1999/xlink" style="isolation:isolate"
  viewBox="0 0 64 64" width="64pt" height="64pt">
  <defs>
    <clipPath id="_clipPath_3PuG3AWhuf9hVUtBTc2kdKl3nVFP08Kb">
      <rect width="64" height="64" />
    </clipPath>
  </defs>
  <g clip-path="url(#_clipPath_3PuG3AWhuf9hVUtBTc2kdKl3nVFP08Kb)">
    <g>
      <path
        d=" M 22.492 25.398 C 25.079 25.398 27.18 26.781 28.258 29.183 L 28.339 29.372 L 32.677 27.894 L 32.589 27.671 C 30.912 23.569 27.039 21.025 22.492 21.025 C 19.292 21.025 16.692 22.051 14.543 24.163 C 12.408 26.261 11.33 28.9 11.33 32.003 C 11.33 35.087 12.415 37.712 14.543 39.803 C 16.692 41.915 19.292 42.941 22.492 42.941 C 27.039 42.941 30.905 40.391 32.589 36.295 L 32.677 36.072 L 28.332 34.594 L 28.258 34.79 C 27.288 37.158 25.133 38.569 22.492 38.569 C 20.693 38.569 19.171 37.941 17.972 36.7 C 16.753 35.445 16.14 33.859 16.14 32.003 C 16.14 30.134 16.739 28.582 17.972 27.267 C 19.178 26.025 20.693 25.398 22.492 25.398 Z "
        fill="rgb(27,30,46)" />
      <linearGradient id="_lgradient_6" x1="1.1022802136031482" y1="0.27552162031827687" x2="0.03527693539819032"
        y2="0.9663649675351195" gradientTransform="matrix(23.967,0,0,41.976,40.033,20.641)"
        gradientUnits="userSpaceOnUse">
        <stop offset="8.14251%" stop-opacity="1" style="stop-color:rgb(105,211,167)" />
        <stop offset="100%" stop-opacity="0" style="stop-color:rgb(105,211,167)" />
      </linearGradient>
      <path
        d=" M 41.326 62.617 L 40.033 58.346 C 51.7 54.796 59.541 44.21 59.541 32.003 C 59.541 28.636 58.941 25.344 57.756 22.226 L 61.919 20.641 C 63.299 24.271 64 28.09 64 32.01 C 63.993 46.187 54.886 58.487 41.326 62.617 Z "
        fill="url(#_lgradient_6)" />
      <path
        d=" M 58.335 23.933 C 54.771 12.287 44.189 4.467 31.997 4.467 C 30.34 4.467 28.682 4.615 27.066 4.905 L 26.278 0.513 C 28.15 0.175 30.077 0 31.997 0 C 46.156 0 58.449 9.089 62.592 22.618 L 58.335 23.933 Z "
        fill="rgb(105,211,167)" />
      <linearGradient id="_lgradient_7" x1="0.7296424130785171" y1="0.005627288374276307" x2="0.2706650302527811"
        y2="0.9790671430093716" gradientTransform="matrix(29.255,0,0,43.123,0,0.162)" gradientUnits="userSpaceOnUse">
        <stop offset="0%" stop-opacity="1" style="stop-color:rgb(105,211,167)" />
        <stop offset="82.32000000000001%" stop-opacity="1" style="stop-color:rgb(42,181,134)" />
        <stop offset="100%" stop-opacity="1" style="stop-color:rgb(28,174,127)" />
      </linearGradient>
      <path
        d=" M 2.048 43.285 C 0.687 39.682 0 35.883 0 32.003 C 0 15.472 12.388 1.781 28.817 0.162 L 29.255 4.602 C 15.116 5.999 4.453 17.78 4.453 32.003 C 4.453 35.343 5.045 38.616 6.211 41.713 L 2.048 43.285 Z "
        fill="url(#_lgradient_7)" />
      <path
        d=" M 49.659 21.43 L 43.482 37.111 L 37.258 21.43 L 32.165 21.43 L 40.895 42.833 L 34.536 58.285 L 38.989 59.176 L 54.468 21.43 L 49.659 21.43 Z "
        fill="rgb(27,30,46)" />
      <linearGradient id="_lgradient_8" x1="-0.033143955276030805" y1="0.2891250000000003" x2="1.1874453179594688"
        y2="0.6721936582809236" gradientTransform="matrix(38.558,0,0,24.399,1.233,39.601)"
        gradientUnits="userSpaceOnUse">
        <stop offset="7.7352099999999995%" stop-opacity="1" style="stop-color:rgb(28,174,127)" />
        <stop offset="16.38%" stop-opacity="1" style="stop-color:rgb(28,163,121)" />
        <stop offset="31.61%" stop-opacity="1" style="stop-color:rgb(28,133,104)" />
        <stop offset="51.65%" stop-opacity="1" style="stop-color:rgb(27,85,77)" />
        <stop offset="71.87%" stop-opacity="1" style="stop-color:rgb(27,30,46)" />
      </linearGradient>
      <path
        d=" M 35.338 56.342 L 34.401 58.615 C 34.186 59.135 33.694 59.493 33.142 59.513 C 32.758 59.526 32.381 59.54 31.99 59.54 C 19.764 59.54 8.878 51.342 5.517 39.601 L 1.233 40.829 C 5.14 54.466 17.783 63.993 31.983 64 C 31.983 64 31.983 64 31.983 64 C 31.983 64 31.99 64 31.99 64 L 31.99 64 C 32.434 64 32.879 63.993 33.324 63.973 C 35.607 63.879 37.648 62.441 38.524 60.316 L 39.79 57.232 L 35.338 56.342 Z "
        fill="url(#_lgradient_8)" />
    </g>
  </g>
</svg>