<svg xmlns="http://www.w3.org/2000/svg" xml:space="preserve" style="enable-background:new 0 0 460.4 152.9" viewBox="0 0 460.4 152.9"><path d="M615.3 594.7c-9.2 0-16.8 1.6-22.6 5.1-1.1.7-2.1 1.6-3.1 2.4-1 .8-2 1.7-2.9 2.7-3.1 3.4-5.5 7.8-7.1 13.1-1.5 5.2-2.2 11.2-2.2 18.2 0 5.2.5 9.8 1.6 14 .2.9.4 1.7.7 2.4.2.8.6 1.4.9 2.2 1 2.6 2.2 5.2 3.8 7.3 1.6 2.2 3.5 4.1 5.5 5.8 2.3 1.9 4.8 3.4 7.3 4.4.5.2.8.3 1.3.4.5.2 1.1.3 1.6.4v.2c1.5.5 3.3.6 5.3.9.4.1.7.2 1.1.2 2.4.3 5.2.4 8.2.4H644V663h-28.4c-3.3 0-5.9-.3-8.2-1.1-2.2-.8-3.9-2-5.1-3.5-1.3-1.5-2.2-3.7-2.9-6.4-.7-2.9-1.1-6.3-1.1-10.4 0-6.8.8-21.7 2.2-25.7.3-.7.6-1.5.9-2.2.3-.7.8-1.3 1.1-1.8 1.3-1.9 3-3.3 5.1-4.2 2.2-1 4.8-1.6 8-1.6H644v-11.5l-28.7.1zm35.5 0v11.5h46.4l-46.4 56.4V675h68.3v-11.8h-44.4l44.4-56.1v-12.4h-68.3zm112.1 0c-9.2 0-16.6 1.6-22.4 5.1-1.1.7-2.3 1.6-3.3 2.4-1 .8-2 1.7-2.9 2.7-3.1 3.4-5.3 7.8-6.9 13.1-1.5 5.2-2.4 11.2-2.4 18.2 0 5.2.5 9.8 1.6 14 .2.9.4 1.7.7 2.4.2.8.6 1.4.9 2.2 1 2.6 2.4 5.2 4 7.3 1.6 2.2 3.2 4.1 5.3 5.8 2.3 1.9 4.8 3.4 7.3 4.4.5.2 1.1.3 1.6.4.5.2 1.1.3 1.6.4v.2c1.5.5 3.1.6 5.1.9.4.1 1 .2 1.3.2 2.4.3 5.2.4 8.2.4h29.1V663h-28.2c-3.3 0-6.2-.3-8.4-1.1s-3.9-2-5.1-3.5c-1.2-1.5-2.2-3.7-2.9-6.4-.7-2.9-.9-6.3-.9-10.4v-1.1h45.5v-11.8h-45c.4-5.5 1-10.7 1.8-12.9.3-.7.6-1.5.9-2.2.3-.7.5-1.3.9-1.8 1.3-1.9 3.2-3.3 5.3-4.2 2.2-1 4.9-1.6 8-1.6h28.2v-11.5l-28.9.2zm72.7 0c-9.2 0-16.8 1.6-22.6 5.1-1.1.7-2.3 1.6-3.3 2.4-1 .8-1.8 1.7-2.7 2.7-3.1 3.4-5.5 7.8-7.1 13.1-1.5 5.2-2.2 11.2-2.2 18.2 0 5.2.5 9.8 1.6 14 .2.9.4 1.7.7 2.4.2.8.4 1.4.7 2.2h.2c1 2.6 2.2 5.2 3.8 7.3 1.6 2.2 3.5 4.1 5.5 5.8 2.3 1.9 4.6 3.4 7.1 4.4.5.2 1.1.3 1.6.4.5.2 1.1.3 1.6.4v.2c1.5.5 3.4.6 5.3.9.4.1.7.2 1.1.2 2.4.3 5.2.4 8.2.4h29.3V663H836c-3.3 0-5.9-.3-8.2-1.1-2.2-.8-3.9-2-5.1-3.5h-.2c-1.3-1.5-2-3.7-2.7-6.4-.7-2.9-1.1-6.3-1.1-10.4 0-6.8.8-21.7 2.2-25.7.3-.7.6-1.5.9-2.2.3-.7.7-1.3 1.1-1.8 1.3-1.9 3-3.3 5.1-4.2 2.2-1 4.9-1.6 8-1.6h28.4v-11.5l-28.8.1zm37.3 0V675h19.3v-34.4h26.6V675h19.5v-80.3h-19.5v34.2h-26.6v-34.2h-19.3zm-281.8 96.8-.4.9-32.6 77.2-.9 2.2h20.6l.4-1.1 8.2-21.5h28l8.2 21.5.4 1.1h21.5l-.9-2.2-32.8-77.2-.4-.9h-19.3zm57 0v80.3h20.2v-80.3h-20.2zm31.1 0v80.3h19.5v-30.4h16.4l16.6 29.5.4.9h22l-1.6-2.4-18-30.4c3-.9 5.4-2.3 7.5-4.2.5-.5 1.1-.8 1.6-1.3.4-.5.7-1.2 1.1-1.8h.2c1.5-2 2.4-4.3 3.1-6.9.7-2.6 1.1-5.3 1.1-8.4 0-6-1.1-11.1-3.5-14.9-.5-.7-1-1.5-1.6-2.2-.6-.7-1.3-1.2-2-1.8-2.4-2-5.2-3.4-8.9-4.4-3.5-1-7.8-1.6-12.6-1.6h-41.3zm78.8 0V739c0 3.1.2 5.8.4 8.2.3 2.5.8 4.7 1.3 6.4.8 2.6 1.9 4.9 3.5 7.1 2.4 3.2 5.6 6.2 9.1 8 .5.3 1.1.5 1.6.7 2.3 1 4.6 1.4 7.1 1.8.4.1.9.2 1.3.2 2.7.3 5.9.4 9.5.4H814V760h-20.6c-2.9 0-6.1.1-8.9-.9-5.1-1.8-6.8-5.4-7.1-10.6-.1-1.6 0-3.6 0-5.8v-51.3l-19.4.1zm61.6 0v80.3h20.2v-80.3h-20.2zm30.9 0v80.3h20l-.2-1.6-.7-52.1 30.2 52.8.4.9h21.5v-80.3h-20v1.6l.7 49.3-28.4-50.1-.4-.9h-23.1v.1zm116.7 0c-9.2 0-16.8 1.8-22.6 5.3-1.1.7-2.3 1.4-3.3 2.2-1 .8-1.8 1.7-2.7 2.7-3.1 3.4-5.5 7.8-7.1 13.1-1.5 5.2-2.2 11.2-2.2 18.2 0 5.2.5 9.8 1.6 14 .2.9.4 1.7.7 2.4.2.8.4 1.5.7 2.2h.2v.2c1 2.6 2.2 4.9 3.8 7.1 1.6 2.2 3.5 4.1 5.5 5.8 2.3 1.8 4.8 3.4 7.3 4.4.5.2.8.5 1.3.7.5.2 1.1.3 1.6.4 1.5.4 3.4.9 5.3 1.1.4.1.7 0 1.1 0 2.4.3 5.2.4 8.2.4h29.3V760h-28.4c-3.3 0-5.9-.3-8.2-1.1-2.2-.8-3.9-1.8-5.1-3.3-1.3-1.5-2.2-3.7-2.9-6.4-.7-2.9-1.1-6.3-1.1-10.4v-1.3h45.7v-11.8h-45.3c.4-5.5 1-10.7 1.8-12.9.3-.7.5-1.3.9-2 .3-.6.7-1.3 1.1-1.8v-.2c1.3-1.9 3-3.3 5.1-4.2 2.2-1 4.9-1.3 8-1.3h28.4v-11.8h-28.7zm63.9 0c-7.4 0-16 .9-21.7 6-5.5 4.8-6.9 12.3-6.9 19.3 0 5.4 2.5 11.3 6.7 14.9 5.5 4.7 13.7 5.8 20.6 5.8h18c9.2 0 11.6 6.5 11.3 12-.2 4.1-3.4 10-12.4 10h-41v12.4h44.8c9.7 0 16.9-2 21.5-6 5.4-4.7 6.9-11.8 6.9-18.6 0-7.3-.7-11.2-6-16-1.7-1.5-4-2.7-6.7-3.5-4.3-1.4-8.8-2-13.3-2h-19.3c-9.1-.1-11.3-6.4-11.3-10.2-.1-8.1 6.7-11.5 14.6-11.5h38.4v-12.4h-44.2zm-332.4 11.7h18.2c2.7 0 4.9.1 6.7.7 1.7.5 2.9 1.5 3.8 2.4 1.6 1.9 2.4 5.3 2.4 10.2 0 3.6-.5 6.2-1.3 8.2-.2.4-.5.8-.7 1.1s-.4.6-.7.9c-1.8 2.1-5.2 3.1-10.2 3.1h-18.2v-26.6zm-98.5 9.6 9.5 24.6h-18.9l9.4-24.6z" style="fill:#0f2c64" transform="translate(-181.438 -306.297) scale(.59497)"/><path d="M452.3 674.6h-47.6l3.8-16.2h30.6c10.5 0 15.6-9.1 8.1-14.3-7.3-5.1-12.1-9.2-19.4-14.4-14.7-10.5-7.8-34.8 16.9-35h44.9l-3.9 16h-30.1c-8.3-.1-10.1 9-4.7 12.3l19.3 14.3c15.9 12.1 6.6 37.3-17.9 37.3zm54.7 87.1c-4.8 8.9-16.2 12.7-25.4 8.3-48.8-23.2-91.8-55.8-127.5-95.4h44.6l4-16.1h-28.2c-.8 0-1.6 0-2.4-.1-4.2-.6-6.7-2.3-8.1-4.5-1.4-2.2-1.8-4.6-1.5-6.6 0-.5 1.5-6.6 1.6-7.2v-.2l4.2-16.8c1.9-7.8 8.4-12.4 17-12.7h28.9l3.8-15.9h-19.9l-25 9.4 2.4-9.4H372c-8-.1-13.6.6-17.6 2.4-3.6 1.7-6.2 4.4-7.4 8.4l-11.5 47.2c-10-12.7-19.3-25.9-27.9-39.8-5.3-8.6-3.1-20.4 5.4-26.2 65.7-44.8 143.4-70.1 222.9-71.9 10.3-.3 19 7.8 19.9 18 1.7 20.7 1.7 41.4.2 62.1h-42.4l-40.2 79.5h29.4l4.7-10.6c.5-1.1 1-1.4 2.3-1.4h21.1c.4 0 1.3.1 1.3 1.2l.3 10.8h9.5c-8.2 30.4-20 59.8-35 87.5zM531.9 648l-1-32.5c0-1.1-1-1.2-1.5-.1l-14.8 32.9c-.6 1.3-.2 2.5.9 2.4h14.9c1.2-.1 1.6-1.1 1.5-2.7z" style="fill-rule:evenodd;clip-rule:evenodd;fill:#ef001e" transform="translate(-181.438 -306.297) scale(.59497)"/></svg>