<svg xmlns="http://www.w3.org/2000/svg" width="512pt" height="512pt" style="isolation:isolate" viewBox="0 0 512 512"><defs><clipPath id="a"><path d="M0 0h512v512H0z"/></clipPath></defs><g clip-path="url(#a)"><path fill="#612BA6" fill-rule="evenodd" d="M254.554 155.683c3.449-3.275-17.183-7.581-33.193 3.339-11.809 8.057-12.187 25.322-.883 35.11 1.134.968 2.065 1.658 2.935 2.222a96.205 96.205 0 0 1 11.389-4.529c7.316-2.371 13.394-3.604 18.391-4.256 2.392-2.673 5.176-7.376 4.482-15.897-.945-11.56-9.706-9.728-3.121-15.989Zm108.304 62.76c-1.951-1.082-11.09-.653-17.511.109-12.234 1.444-25.439 5.687-28.333 7.944-5.261 4.067-2.872 11.156 1.019 14.069 10.9 8.142 20.455 13.602 30.539 12.272 6.191-.817 11.654-10.617 15.519-19.513 2.645-6.125 2.645-12.738-1.232-14.882m-41.778-72.358c-.705 1.605-1.815 2.657-.152 7.893l.107.3.262.678.694 1.569c2.994 6.122 6.282 11.897 11.78 14.845a38.43 38.43 0 0 1 4.419-.476c5.164-.227 8.423.589 10.488 1.705.186-1.028.224-2.534.107-4.757-.404-7.754 1.535-20.944-13.369-27.882-5.627-2.61-13.521-1.806-16.153 1.457.482.062.909.16 1.249.274 3.978 1.381 1.283 2.749.567 4.394m153.504 106.289-12.839 2.447L437.085 0 16.835 48.728l51.774 420.139 49.191-7.14c-3.927-5.607-10.043-12.398-20.493-21.079-14.488-12.035-9.365-32.478-.817-45.39 11.304-21.811 69.559-49.532 66.262-84.394-1.185-12.675-3.2-29.177-14.968-40.485-.44 4.694.354 9.211.354 9.211s-4.836-6.159-7.241-14.566c-2.389-3.228-4.265-4.256-6.809-8.559-1.812 4.981-1.573 10.753-1.573 10.753s-3.953-9.334-4.593-17.218c-2.342 3.527-2.934 10.229-2.934 10.229s-5.135-14.721-3.966-22.652c-2.339-6.901-9.29-20.591-7.326-51.714 12.827 8.984 41.062 6.853 52.064-9.362 3.65-5.369 6.156-20.027-1.826-48.915-5.122-18.523-17.81-46.105-22.759-56.571l-.59.426c2.603 8.432 7.978 26.101 10.043 34.672 6.245 25.991 7.918 35.038 4.984 47.023-2.491 10.415-8.471 17.23-23.627 24.846-15.153 7.641-35.271-10.954-36.541-11.985-14.728-11.733-26.12-30.87-27.391-40.17-1.32-10.175 5.867-16.288 9.492-24.607-5.186 1.482-10.964 4.117-10.964 4.117s6.897-7.14 15.405-13.315c3.528-2.336 5.593-3.814 9.303-6.904-5.375-.088-9.741.063-9.741.063s8.962-4.842 18.252-8.369c-6.796-.303-13.306-.051-13.306-.051s20.002-8.946 35.801-15.509c10.863-4.457 21.473-3.137 27.441 5.482 7.827 11.295 16.048 17.432 33.471 21.234 10.699-4.744 13.946-7.178 27.39-10.844 11.831-13.013 21.121-14.693 21.121-14.693s-4.606 4.227-5.841 10.866c6.711-5.283 14.062-9.7 14.062-9.7s-2.847 3.515-5.501 9.098l.614.917c7.831-4.694 17.032-8.394 17.032-8.394s-2.629 3.325-5.715 7.628c5.904-.05 17.877.252 22.52.779 27.428.602 33.118-29.292 43.641-33.043 13.18-4.706 19.071-7.553 41.528 14.507 19.27 18.936 34.326 52.833 26.848 60.423-6.266 6.299-18.63-2.458-32.336-19.537-7.241-9.048-12.716-19.74-15.282-33.33-2.166-11.471-10.586-18.122-10.586-18.122s4.883 10.894 4.883 20.493c0 5.245.656 24.846 9.063 35.851-.832 1.608-1.22 7.956-2.14 9.173-9.779-11.821-30.789-20.279-34.212-22.775 11.594 9.501 38.24 31.321 48.476 52.243 9.68 19.777 3.975 37.909 8.874 42.603 1.393 1.343 20.817 25.55 24.556 37.708 6.519 21.196.39 43.47-8.142 57.287l-23.832 3.713c-3.483-.964-5.838-1.453-8.959-3.262 1.721-3.049 5.148-10.652 5.183-12.222l-1.343-2.358c-7.418 10.504-19.841 20.705-30.162 26.565-13.507 7.657-29.076 6.475-39.211 3.338-28.762-8.871-55.963-28.311-62.523-33.418 0 0-.201 4.08 1.034 4.997 7.25 8.18 23.866 22.977 39.927 33.291l-34.24 3.764 16.19 126.029c-7.175 1.028-8.297 1.532-16.153 2.648-6.922-24.458-20.165-40.431-34.64-49.73-12.764-8.206-30.373-10.053-47.228-6.715l-1.081 1.255c11.717-1.217 25.553.476 39.763 9.476 13.949 8.82 25.187 31.598 29.329 45.314 5.299 17.53 8.962 36.28-5.299 56.155-10.144 14.132-39.763 21.937-63.692 5.047 6.393 10.276 15.027 18.684 26.659 20.266 17.271 2.345 33.66-.652 44.939-12.234 9.627-9.904 14.74-30.609 13.391-52.416l15.245-2.21 5.5 39.139 252.308-30.382-20.581-200.783Zm-241.595 57.864 31.747-4.369c5.135 2.311 8.709 3.19 14.866 4.757 9.592 2.497 20.695 4.895 37.134-3.389 3.827-1.894 11.796-9.186 15.018-13.337l130.054-23.595 13.268 160.578-222.814 40.157-19.273-160.802Zm184.51 53.293-42.597-28.096-35.532 59.357-41.327-12.082-36.39 55.54 1.863 17.48 197.851-36.454-11.493-123.62-32.375 67.875Z"/></g></svg>