<svg xmlns="http://www.w3.org/2000/svg" width="512pt" height="512pt" style="isolation:isolate" viewBox="0 0 512 512"><defs><clipPath id="a"><path d="M0 0h512v512H0z"/></clipPath></defs><g fill="#D70751" clip-path="url(#a)"><path d="M287.39 211.451c-6.63.089 1.247 3.408 9.906 4.744a88.135 88.135 0 0 0 6.493-5.592c-5.383 1.318-10.869 1.349-16.399.848Zm35.58-8.872c3.963-5.454 6.839-11.419 7.855-17.588-.892 4.394-3.266 8.188-5.52 12.2-12.396 7.807-1.172-4.633-.009-9.368-13.323 16.789-1.838 10.065-2.326 14.756Zm13.15-34.191c.808-11.942-2.348-8.161-3.408-3.612 1.233.648 2.214 8.423 3.408 3.612ZM262.235 5.161c3.542.631 7.652 1.119 7.061 1.967 3.888-.857 4.762-1.629-7.061-1.967Zm7.066 1.967-2.49.519 2.321-.213.169-.306Z"/><path d="M379.671 172.915c.399 10.723-3.129 15.933-6.32 25.146l-5.739 2.854c-4.691 9.116.466 5.787-2.893 13.034-7.332 6.511-22.217 20.367-26.983 21.636-3.484-.075 2.356-4.11 3.119-5.685-9.803 6.728-7.868 10.101-22.864 14.197l-.435-.981c-36.969 17.397-88.326-17.073-87.652-64.098-.39 2.982-1.123 2.236-1.939 3.435-1.909-24.192 11.175-48.49 33.241-58.427 21.582-10.678 46.883-6.302 62.332 8.117-8.485-11.122-25.39-22.914-45.41-21.822-19.621.32-37.981 12.786-44.105 26.327-10.048 6.324-11.22 24.391-15.596 27.702-5.898 43.315 11.082 62.022 39.81 84.039 4.509 3.044 1.269 3.51 1.873 5.827-9.542-4.465-18.276-11.211-25.466-19.47 3.817 5.579 7.931 11.002 13.252 15.263-9.005-3.04-21.027-21.805-24.529-22.568 15.511 27.773 62.923 48.708 87.762 38.318-11.494.426-26.091.235-38.997-4.535-5.436-2.792-12.799-8.566-11.481-9.644 33.889 12.653 68.887 9.577 98.205-13.922 7.465-5.814 15.613-15.698 17.97-15.831-3.546 5.335.608 2.565-2.117 7.274 7.42-11.987-3.235-4.882 7.678-20.699l4.029 5.547c-1.508-9.959 12.36-22.039 10.949-37.776 3.182-4.811 3.546 5.183.173 16.252 4.682-12.28 1.238-14.255 2.437-24.392 1.291 3.409 3.009 7.026 3.883 10.625-3.053-11.872 3.12-19.984 4.656-26.886-1.518-.665-4.709 5.246-5.446-8.769.111-6.089 1.7-3.191 2.308-4.691-1.19-.688-4.327-5.357-6.231-14.308 1.371-2.109 3.692 5.454 5.574 5.76-1.212-7.114-3.293-12.542-3.382-18.005-5.503-11.495-1.948 1.536-6.404-4.935-5.858-18.258 4.855-4.238 5.583-12.529 8.867 12.848 13.922 32.775 16.252 41.026-1.775-10.061-4.637-19.812-8.139-29.243 2.703 1.141-4.345-20.694 3.51-6.235-8.383-30.822-35.85-59.625-61.125-73.135 3.085 2.827 6.986 6.378 5.592 6.937-12.577-7.478-10.367-8.069-12.169-11.228-10.23-4.168-10.913.341-17.681.008-19.306-10.243-23.025-9.155-40.79-15.564l.807 3.781c-12.786-4.26-14.898 1.607-28.714.009-.839-.652 4.429-2.378 8.77-3.004-12.365 1.633-11.788-2.441-23.886.448 2.978-2.09 6.138-3.479 9.316-5.255-10.079.613-24.072 5.867-19.754 1.083-16.443 7.341-45.65 17.641-62.04 33.01l-.514-3.443c-7.51 9.013-32.749 26.921-34.759 38.606l-2.011.466c-3.901 6.617-6.435 14.113-9.533 20.917-5.108 8.712-7.491 3.355-6.763 4.722-10.052 20.379-15.054 37.501-19.363 51.552 3.071 4.593.075 27.658 1.233 46.116-5.041 91.175 63.988 179.692 139.444 200.125 11.06 3.963 27.503 3.821 41.491 4.212-16.5-4.723-18.631-2.499-34.714-8.104-11.597-5.468-14.135-11.703-22.355-18.835l3.253 5.747c-16.11-5.703-9.368-7.057-22.478-11.206l3.475-4.531c-5.224-.4-13.834-8.797-16.186-13.461l-5.716.226c-6.861-8.459-10.523-14.57-10.252-19.305l-1.846 3.293c-2.09-3.591-25.257-31.768-13.239-25.208-2.232-2.033-5.201-3.316-8.419-9.169l2.446-2.792c-5.774-7.442-10.643-16.98-10.27-20.157 3.084 4.162 5.223 4.943 7.345 5.658-14.606-36.232-15.427-1.993-26.482-36.88l2.334-.187c-1.788-2.711-2.884-5.636-4.322-8.516l1.021-10.141c-10.51-12.143-2.938-51.681-1.416-73.361 1.043-8.814 8.774-18.201 14.645-32.922l-3.577-.612c6.844-11.929 39.064-47.926 53.994-46.08 7.229-9.081-1.438-.036-2.854-2.317 15.884-16.434 20.877-11.61 31.594-14.57 11.553-6.857-9.919 2.681-4.442-2.614 19.984-5.099 14.157-11.601 40.222-14.188 2.752 1.562-6.378 2.414-8.668 4.442 16.643-8.148 52.676-6.289 76.091 4.518 27.147 12.697 57.668 50.212 58.875 85.508l1.371.368c-.692 14.033 2.148 30.263-2.782 45.166l3.333-7.061"/><path d="m215.001 220.549-.936 4.646c4.362 5.925 7.824 12.343 13.385 16.958-4.003-7.806-6.972-11.033-12.449-21.604Zm10.301-.4c-2.308-2.556-3.666-5.627-5.201-8.68 1.464 5.374 4.464 9.994 7.247 14.698l-2.046-6.018Zm182.333-39.631-.972 2.449c-1.784 12.684-5.65 25.235-11.561 36.876 6.533-12.28 10.744-25.714 12.533-39.325ZM263.554 1.979C268.031.342 274.569 1.078 279.335 0c-6.204.519-12.378.83-18.471 1.607l2.69.372ZM106.131 85.69c1.035 9.559-7.189 13.274 1.82 6.963 4.838-10.891-1.882-3.004-1.82-6.963Zm-10.598 44.265c2.082-6.378 2.455-10.203 3.249-13.9-5.738 7.341-2.645 8.907-3.249 13.9Zm218.295 365.021L296.794 512l-17.024-17.024 17.024-17.025 17.034 17.042"/></g></svg>