<svg xmlns="http://www.w3.org/2000/svg" width="512pt" height="512pt" style="isolation:isolate" viewBox="0 0 512 512"><defs><clipPath id="a"><path d="M0 0h512v512H0z"/></clipPath></defs><g clip-path="url(#a)"><path fill="#98002E" d="M459.316 405.89 238.439 299.532V65.546L459.316 405.89Zm17.561 40.564L238.439 345.786v100.668h238.438Z"/><path fill="#E31837" d="M17.561 405.89 238.439 65.546v233.986L17.561 405.89M0 446.454h238.439V345.786L0 446.454"/><path fill="#98002E" d="M496.17 376.703c8.657 0 15.83 6.926 15.83 15.583s-6.926 15.83-15.583 15.83-15.83-6.926-15.83-15.583c0-8.904 6.926-15.83 15.583-15.83Zm0 28.94c7.42 0 13.357-5.937 13.357-13.357 0-7.42-5.937-13.357-13.357-13.357a13.301 13.301 0 0 0-13.356 13.357c0 7.42 5.936 13.357 13.356 13.357Zm-3.463-4.205h-2.226v-18.056h6.926c4.205 0 5.689 1.731 5.689 4.947.247 2.72-1.979 4.946-4.453 5.194l5.442 7.915h-2.473l-5.442-7.915h-3.215l-.248 7.915Zm0-10.141h2.968c2.474 0 5.195-.248 5.195-3.216 0-2.226-2.227-2.968-3.958-2.968h-3.957v6.184h-.248Z"/></g></svg>