<?xml version="1.0" encoding="UTF-8" standalone="no"?>
<!-- Generator: Gravit.io -->
<svg xmlns="http://www.w3.org/2000/svg" xmlns:xlink="http://www.w3.org/1999/xlink" style="isolation:isolate" viewBox="0 0 64 64" width="64pt" height="64pt"><defs><clipPath id="_clipPath_9oLNG0gEQa9O0GneEUk6R8MdfTMrbCdQ"><rect width="64" height="64"/></clipPath></defs><g clip-path="url(#_clipPath_9oLNG0gEQa9O0GneEUk6R8MdfTMrbCdQ)"><path d=" M 63.365 26.362 C 62.056 25.499 60.447 24.984 58.718 24.984 C 58.519 24.984 58.323 24.99 58.128 25.003 L 58.154 25.001 C 57.201 25.003 56.269 25.089 55.363 25.247 L 55.461 25.232 C 54.959 22.332 53.271 19.9 50.927 18.413 L 50.886 18.39 L 49.97 17.86 L 49.367 18.732 C 48.649 19.826 48.087 21.099 47.752 22.46 L 47.735 22.544 C 47.544 23.236 47.435 24.031 47.435 24.851 C 47.435 26.627 47.948 28.281 48.833 29.676 L 48.812 29.64 C 47.45 30.279 45.861 30.683 44.187 30.76 L 44.16 30.76 L 2.002 30.76 C 0.9 30.762 0.007 31.653 0.002 32.753 L 0.002 32.753 C 0 32.873 0 33.016 0 33.159 C 0 36.901 0.677 40.484 1.917 43.794 L 1.848 43.585 C 3.041 47.074 5.293 49.942 8.216 51.878 L 8.276 51.914 C 12.003 53.844 16.413 54.974 21.086 54.974 C 21.529 54.974 21.967 54.963 22.405 54.944 L 22.343 54.946 C 22.381 54.946 22.426 54.946 22.471 54.946 C 25.189 54.946 27.845 54.688 30.42 54.194 L 30.157 54.237 C 33.993 53.519 37.412 52.231 40.51 50.448 L 40.352 50.532 C 43.038 48.961 45.333 47.068 47.286 44.865 L 47.312 44.835 C 50.143 41.502 52.446 37.61 54.032 33.371 L 54.119 33.104 L 54.709 33.104 C 54.827 33.108 54.963 33.112 55.1 33.112 C 57.72 33.112 60.1 32.085 61.859 30.409 L 61.855 30.414 C 62.66 29.649 63.299 28.719 63.72 27.676 L 63.739 27.625 L 64 26.858 L 63.365 26.362 L 63.365 26.362 Z  M 5.908 29.529 L 11.562 29.529 C 11.834 29.527 12.054 29.307 12.054 29.035 C 12.054 29.035 12.054 29.035 12.054 29.035 L 12.054 29.035 L 12.054 24.003 C 12.054 24.003 12.054 24.001 12.054 24.001 C 12.054 23.73 11.834 23.509 11.562 23.507 L 5.908 23.507 C 5.637 23.509 5.417 23.73 5.417 24.001 L 5.417 24.001 L 5.417 29.035 C 5.417 29.035 5.417 29.035 5.417 29.037 C 5.417 29.309 5.637 29.529 5.908 29.529 C 5.908 29.529 5.908 29.529 5.911 29.529 L 5.911 29.529 L 5.908 29.529 L 5.908 29.529 Z  M 13.695 29.529 L 19.345 29.529 C 19.616 29.529 19.838 29.309 19.838 29.035 C 19.838 29.035 19.838 29.035 19.838 29.035 L 19.838 29.035 L 19.838 24.003 C 19.838 24.003 19.838 24.001 19.838 24.001 C 19.838 23.73 19.618 23.509 19.347 23.507 L 13.693 23.507 C 13.693 23.507 13.693 23.507 13.693 23.507 C 13.419 23.507 13.197 23.73 13.197 24.003 C 13.197 24.003 13.197 24.003 13.197 24.003 L 13.197 24.003 L 13.197 29.035 C 13.199 29.309 13.419 29.529 13.693 29.529 L 13.693 29.529 L 13.695 29.529 L 13.695 29.529 Z  M 21.597 29.529 L 27.251 29.529 C 27.522 29.527 27.743 29.307 27.743 29.035 C 27.743 29.035 27.743 29.035 27.743 29.035 L 27.743 29.035 L 27.743 24.003 C 27.743 24.003 27.743 24.001 27.743 24.001 C 27.743 23.73 27.522 23.509 27.251 23.507 L 21.597 23.507 C 21.326 23.509 21.106 23.73 21.106 24.001 L 21.106 24.001 L 21.106 29.035 C 21.106 29.307 21.326 29.529 21.599 29.529 L 21.599 29.529 L 21.597 29.529 L 21.597 29.529 Z  M 29.409 29.529 L 35.057 29.529 C 35.057 29.529 35.057 29.529 35.057 29.529 C 35.33 29.529 35.55 29.309 35.553 29.035 L 35.553 24.003 C 35.553 24.003 35.553 24.003 35.553 24.003 C 35.553 23.73 35.33 23.507 35.057 23.507 C 35.057 23.507 35.057 23.507 35.057 23.507 L 29.409 23.507 C 29.138 23.507 28.916 23.727 28.916 24.001 L 28.916 24.001 L 28.916 29.035 C 28.916 29.035 28.916 29.035 28.916 29.037 C 28.916 29.309 29.136 29.529 29.407 29.529 C 29.407 29.529 29.407 29.529 29.409 29.529 L 29.409 29.529 L 29.409 29.529 Z  M 13.695 22.289 L 19.345 22.289 C 19.618 22.287 19.838 22.067 19.838 21.794 C 19.838 21.794 19.838 21.794 19.838 21.794 L 19.838 21.794 L 19.838 16.761 C 19.838 16.761 19.838 16.761 19.838 16.761 C 19.838 16.49 19.618 16.268 19.345 16.268 L 13.695 16.268 C 13.422 16.268 13.201 16.488 13.199 16.761 L 13.199 21.794 C 13.201 22.067 13.422 22.287 13.695 22.289 L 13.695 22.289 L 13.695 22.289 Z  M 21.597 22.289 L 27.251 22.289 C 27.522 22.287 27.743 22.065 27.743 21.794 L 27.743 21.794 L 27.743 16.761 C 27.743 16.761 27.743 16.761 27.743 16.761 C 27.743 16.49 27.522 16.268 27.249 16.268 L 21.601 16.268 C 21.33 16.268 21.108 16.488 21.108 16.761 C 21.108 16.761 21.108 16.761 21.108 16.761 L 21.108 16.761 L 21.108 21.794 C 21.11 22.067 21.328 22.287 21.601 22.289 L 21.601 22.289 L 21.597 22.289 L 21.597 22.289 Z  M 29.409 22.289 L 35.057 22.289 C 35.33 22.287 35.55 22.067 35.553 21.794 L 35.553 16.761 C 35.55 16.488 35.33 16.268 35.057 16.268 L 29.409 16.268 C 29.138 16.268 28.916 16.488 28.916 16.761 C 28.916 16.761 28.916 16.761 28.916 16.761 L 28.916 16.761 L 28.916 21.794 C 28.916 22.067 29.136 22.287 29.409 22.289 L 29.409 22.289 L 29.409 22.289 Z  M 29.409 15.05 L 35.057 15.05 C 35.057 15.05 35.057 15.05 35.057 15.05 C 35.33 15.05 35.553 14.828 35.553 14.554 C 35.553 14.554 35.553 14.554 35.553 14.554 L 35.553 14.554 L 35.553 9.52 C 35.55 9.246 35.33 9.026 35.057 9.026 C 35.057 9.026 35.057 9.026 35.057 9.026 L 29.409 9.026 C 29.138 9.026 28.916 9.246 28.916 9.52 L 28.916 9.52 L 28.916 14.554 C 28.916 14.554 28.916 14.554 28.916 14.556 C 28.916 14.828 29.136 15.048 29.407 15.048 C 29.407 15.048 29.407 15.048 29.409 15.048 L 29.409 15.048 L 29.409 15.05 L 29.409 15.05 Z  M 37.288 29.529 L 42.937 29.529 C 42.937 29.529 42.937 29.529 42.937 29.529 C 43.211 29.529 43.431 29.309 43.433 29.035 L 43.433 24.003 C 43.433 24.003 43.433 24.003 43.433 24.003 C 43.433 23.73 43.211 23.507 42.937 23.507 C 42.937 23.507 42.937 23.507 42.937 23.507 L 37.288 23.507 C 37.288 23.507 37.288 23.507 37.288 23.507 C 37.014 23.507 36.794 23.727 36.794 24.001 L 36.794 29.035 C 36.794 29.307 37.014 29.529 37.288 29.529 L 37.288 29.529 L 37.288 29.529 Z " fill="rgb(29,99,237)"/></g></svg>