<svg xmlns="http://www.w3.org/2000/svg" width="2000" height="1999.62" viewBox="0 0 2000 1999.62"><path d="M454.36,221.2C610.57,110.63,801,50.86,992.17,49c203.76-1.28,407.74,63.21,571.28,185.25,159.58,116.92,280.46,285,341.33,473.15,63.32,197.64,60.59,416.18-9.43,611.72-63.78,180.24-184.08,339.59-339.06,451.39-159.41,115.35-355.48,180-552.48,178.84C804.13,1952,604.4,1887.48,443.19,1769.8c-160.75-115.75-284-283.13-345.7-471.46C34.75,1108.67,33.76,899,94.93,708.85c62.21-196,190.83-370,359.43-487.65" fill="#07a2ef"/><path d="m566 489.46c162.48-.77 324.91-.11 487.4-.33 70.6 0 143.46-3.82 211 20.79 73.81 25.1 138.82 79.77 168.12 153 37.93 95.48 33.84 207.27-11.22 299.6-35.22 72.2-102.78 126.16-180.07 147.17 77.79 138.66 160.44 274.66 238.45 413.15-57.33.55-114.72-.22-172.05.39-10.17-.39-20.73.77-30.57-2.43-79.06-131.8-155.57-265.3-235.24-396.8-84.58-1.38-169.28.06-253.93-.66-12 .83-28.19-2-35.54 10.17-4.54 9.24-4 20-4.54 30q.16 179.46.11 358.86c-60.26 1.22-120.58.61-180.84.39-.55-138.22-.05-276.38-.22-414.54.89-41.41 6.58-87 36.27-118.48 30.07-31.84 76.4-39.36 118.31-40.3q204.67-.08 409.34 0c39.64.5 81.32-12.11 108.47-42.18 30.24-35.11 40.74-84.65 32.89-129.7-7.74-41-34.22-80.89-74.52-95.7-33.45-13.83-70.27-9.84-105.54-10.29-175.37-.22-350.74.45-526.1-.33q-1.41-90.88.02-181.78" fill="#fff"/><path d="M357.77,230.28C534.13,83.16,762.63-.87,992.56.07V96.54C811,98.31,630.05,155.09,481.67,260.13c-160.17,111.79-282.35,277-341.45,463.25-32.29-7.3-63.36-18.64-94.82-28.75,3.93-23.78,14.21-45.78,22.78-68.11C129.49,472.88,230.72,336,357.77,230.28Z" fill="#de3831"/><path d="m992.56.07c200.36-2.43 400.66 58.93 566.19 171.61 183.44 123.62 323.59 309.76 391.42 520.32-30.07 10.5-60.54 19.74-90.67 30-57.83-178.74-172.66-338.4-324.25-449.47-155.35-115.94-349.13-177.19-542.69-176" fill="#007a4d"/><path d="m45.4 694.63c31.46 10.11 62.53 21.45 94.82 28.75-58.11 180.67-57.17 379.81 2.43 560 58.6 178.9 175.7 337.91 328.4 447.87-22.94 23-40 51-59.93 76.4-163.31-117.75-288.81-286.87-355-476.89-65-184.38-73.42-387.89-25.59-577.3 4.65-19.69 11.61-38.82 14.87-58.83" fill="#002395"/><path d="m1859.5 722c30.13-10.22 60.6-19.46 90.67-30 9.84 20 14.1 42.13 19.9 63.58 47.72 190.07 38.21 394-27.31 578.79-67.28 189.9-193.55 358.47-357.31 475.9q-28.2-39.39-57-78.4c147.23-106.2 261.5-257.57 322.1-428.8 66.5-185.73 69.1-393.32 8.95-581.07" fill="#ffb612"/><path d="m411.12 1807.64c20-25.43 37-53.35 59.93-76.4 153.14 111.79 342.88 173.1 532.57 170.56 187.14 1.1 373.4-60.32 524.83-169.9q28.86 39 57 78.4c-155.58 113.44-345.1 179.62-537.44 188-225.73 11.7-455.01-56.09-636.89-190.66"/></svg>