<svg xmlns="http://www.w3.org/2000/svg" viewBox="0 0 126.67 90.667"><defs><clipPath id="a"><path d="M65.432 17.898c-2.296 1.533-3.444.74-3.444.74a4.85 4.85 0 0 1 1.77-3.258 6.006 6.006 0 0 1 4.022-1.296 5.036 5.036 0 0 1-2.348 3.814zM31.061 9.011a6.85 6.85 0 0 1-.91-5.125s1.865-.526 4.213 2.54a7.065 7.065 0 0 1 1.385 6.08 8.095 8.095 0 0 1-4.68-3.517l-.008.022zm-7.228 6.991a4.85 4.85 0 0 1-1.77-3.259s1.148-.74 3.444.741a5.036 5.036 0 0 1 2.347 3.785 5.77 5.77 0 0 1-4.014-1.289zm21.255-6.125a6.466 6.466 0 0 1-2.103-4.503 7.702 7.702 0 0 1 1.821-5.31 6.665 6.665 0 0 1 2.222 5.503c-.163 3.71-1.94 4.288-1.94 4.288zm12.494.045a4.821 4.821 0 0 1 .622-3.637 5.858 5.858 0 0 1 3.4-2.488 5.007 5.007 0 0 1-1.008 4.31C58.878 10.285 57.582 9.9 57.582 9.9zm7.85 42.362a5.036 5.036 0 0 1 2.377 3.799 5.77 5.77 0 0 1-4.02-1.296 4.85 4.85 0 0 1-1.77-3.259s1.117-.792 3.413.734zM25.13 49.27a5.036 5.036 0 0 1-2.348 3.784c-2.295 1.533-3.443.74-3.443.74a4.85 4.85 0 0 1 1.77-3.258 5.717 5.717 0 0 1 4.021-1.289zm7.614 8.294a5.007 5.007 0 0 1-1.008 4.31c-1.673 2.222-3.014 1.822-3.014 1.822a4.821 4.821 0 0 1 .622-3.636 5.747 5.747 0 0 1 3.4-2.496zm25.92 2.681a6.865 6.865 0 0 1 1.385 5.984 8.147 8.147 0 0 1-4.688-3.444 6.569 6.569 0 0 1-.859-5.073s1.837-.518 4.185 2.548zm-14.026 2.681A6.184 6.184 0 0 1 42.577 68a7.2 7.2 0 0 1-1.673-4.88A5.925 5.925 0 0 1 42.866 59s1.652.54 1.793 3.94z" clip-rule="evenodd"/></clipPath><clipPath id="b"><path d="M-140-407h375v812h-375z"/></clipPath><clipPath id="c"><path d="M5.266 17.373 0 39.347l9.428 2.222.814-3.348-6.124-1.48 1.436-5.985 4.444 1.052.815-3.348-4.444-1.052 1.437-5.984 6.125 1.482.814-3.348z" clip-rule="evenodd"/></clipPath><clipPath id="d"><path d="M-140-407h375v812h-375z"/></clipPath><clipPath id="e"><path d="M21.537 20.579a5.184 5.184 0 0 0-4.021.91 5.37 5.37 0 0 0-2.222 3.497l-2.06 12.16a5.184 5.184 0 0 0 .912 4.022 5.303 5.303 0 0 0 3.495 2.222 5.31 5.31 0 0 0 6.177-4.407l.43-2.54-3.496-.578-.43 2.63a1.903 1.903 0 0 1-.814 1.295c-.42.325-.963.448-1.482.334a1.718 1.718 0 0 1-1.244-.815 1.977 1.977 0 0 1-.333-1.481l2.155-12.257c.063-.5.331-.951.74-1.244a1.91 1.91 0 0 1 1.438-.334c.51.073.974.338 1.296.74.32.406.442.933.333 1.438l-.519 3.073 3.496.578.526-3.11a5.184 5.184 0 0 0-.911-4.022 5.48 5.48 0 0 0-3.466-2.11z" clip-rule="evenodd"/></clipPath><clipPath id="f"><path d="M-140-407h375v812h-375z"/></clipPath><clipPath id="g"><path d="M75.438 26.178a6.036 6.036 0 0 0-1.822-3.784 4.717 4.717 0 0 0-2.54-1.245 5.184 5.184 0 0 0-1.918.045 5.303 5.303 0 0 0-3.11 1.48 5.547 5.547 0 0 0-1.386 2.445 8.072 8.072 0 0 0-.237 3.259l3.259-.237a4.732 4.732 0 0 1 .622-2.963 1.814 1.814 0 0 1 1.296-.859 2.096 2.096 0 0 1 1.918.815c.34.406.542.909.578 1.437a4.162 4.162 0 0 1-.86 2.962c-.577.74-1.436 1.822-2.54 3.303a12.858 12.858 0 0 0-1.918 3.259 7.406 7.406 0 0 0-.289 3.258 5.554 5.554 0 0 0 2.778 4.31 5.243 5.243 0 0 0 3.258.482 5.822 5.822 0 0 0 2.963-1.296 4.525 4.525 0 0 0 1.34-2.007 6.184 6.184 0 0 0 .333-2.681l-3.303-.096a3.703 3.703 0 0 1-.481 2.221 1.63 1.63 0 0 1-1.244.741 1.481 1.481 0 0 1-1.533-.622 2.962 2.962 0 0 1-.622-1.578 5.058 5.058 0 0 1 .859-3.303c.399-.582.831-1.141 1.296-1.673.485-.51.933-1.055 1.34-1.63.634-.833 1.15-1.75 1.533-2.725.149-.371.26-.755.333-1.148a8.91 8.91 0 0 0 .097-2.17z" clip-rule="evenodd"/></clipPath><clipPath id="h"><path d="M-140-407h375v812h-375z"/></clipPath><clipPath id="i"><path d="m79.459 19.52-3.348.667L80.66 42.3l3.347-.667z" clip-rule="evenodd"/></clipPath><clipPath id="j"><path d="M-140-407h375v812h-375z"/></clipPath><clipPath id="k"><path d="m86.591 23.209-2.103-4.836-3.444.859 9.331 20.87 4.548-1.148-1.933-22.78-3.444.91.526 5.184zm4.784 11.39-3.444-8.28 2.445-.622z" clip-rule="evenodd"/></clipPath><clipPath id="l"><path d="M-140-407h375v812h-375z"/></clipPath><clipPath id="m"><path d="M27.608 34.82c0-9.79 7.937-17.726 17.727-17.726s17.727 7.937 17.727 17.726c0 9.79-7.937 17.727-17.727 17.727S27.608 44.61 27.608 34.82zm3.23-6.008a15.658 15.658 0 0 0 20.435 20.494 15.659 15.659 0 0 0 9.677-14.47 15.633 15.633 0 0 0-15.615-15.66h-.045a15.66 15.66 0 0 0-14.454 9.636z" clip-rule="evenodd"/></clipPath><clipPath id="n"><path d="M-140-407h375v812h-375z"/></clipPath><clipPath id="o"><path d="M32.334 34.816c0-7.179 5.82-13 13-13s13.001 5.821 13.001 13c0 7.18-5.82 13-13.001 13-7.18 0-13-5.82-13-13z" clip-rule="evenodd"/></clipPath><clipPath id="p"><path d="M-140-407h375v812h-375z"/></clipPath><clipPath id="q"><path d="M34.354 41.776c.174.033.343.041.47.088.263.147.509.323.732.526.189.084.341.029.48-.027.177-.07.334-.14.524.07.34.379-.14 1.149-.14 1.63.008.1.036.197.078.29a13.089 13.089 0 0 1-2.144-2.577z" clip-rule="evenodd"/></clipPath><clipPath id="r"><path d="M-140-407h375v812h-375z"/></clipPath><clipPath id="s"><path d="M32.465 36.65a12.854 12.854 0 0 1-.1-.985 12.945 12.945 0 0 1 1.515-6.995c.135.132.276.228.412.37.193.334.428.666.62 1.007.4.244.783.516 1.146.815.095.289.236.622.332.91.095.289.664.667.576 1.2-.215.754-1.175.852-1.7 1.377-.236.333-.48.74-.737 1.052a4.442 4.442 0 0 1-2.053 1.34l-.01-.09z" clip-rule="evenodd"/></clipPath><clipPath id="t"><path d="M-140-407h375v812h-375z"/></clipPath><clipPath id="u"><path d="M46.59 44.092a3.346 3.346 0 0 1-1.625-1.006c-.332-.526.096-.86-.524-1.148a4.108 4.108 0 0 0-.953.622.876.876 0 0 1-.665-.385c-.043-.577.385-.666.385-1.244-.237-.333-.814-.385-.953-.74-.142-.356 0-.91-.288-1.244a32.072 32.072 0 0 1-1.24-1.2 2.7 2.7 0 0 1 .19-3.257c.325-.326.741-.315 1.182-.303.34.009.694.018 1.034-.127.577-.237.665-1.34.812-1.866.289-.858-.235-1.244-.235-2.058 0-.815.288-3.161 1.433-3.11 1.292.045 1.573 1.34 2.29 2.222.317.237.59.528.813.859 0 .429.043.91.043 1.34.288.74 1.197 1.006 1.67 1.576.473.57.043.955.287 1.385.024 0 .045.02.045.044.384.237.738.43 1.196.667.18.232.373.454.577.667l.428.14c1.477-.74.953-2.295 2.002-3.11.095.045.14.096.236.14.08.215.126.44.14.668a1.477 1.477 0 0 0 1.574 1.007A4.072 4.072 0 0 0 57.448 33c.096-.578-.288-.91-.288-1.384a2.413 2.413 0 0 1 .435-1.13 12.95 12.95 0 0 1 .743 4.332v.006c0 .213-.006.425-.016.635l-.006.1a12.956 12.956 0 0 1-3.608 8.267 5.53 5.53 0 0 1-.865-.045 33.961 33.961 0 0 0-4.054-.43c-1.126 0-1.775.798-2.744.798a1.84 1.84 0 0 1-.455-.058zm.259-6.011c-.332.044-.739.044-1.05.096-.043 0-1.72 1.34-1.765 1.436a.57.57 0 0 0 .333.333 4.62 4.62 0 0 0 1.197-.74l.665-.14c.236-.193.48-.334.738-.526.293-.106.598-.17.908-.193 0-.044.044-.096.044-.14v-.238a1.578 1.578 0 0 1-.332-.126 1.316 1.316 0 0 0-.738.238z" clip-rule="evenodd"/></clipPath><clipPath id="v"><path d="M-140-407h375v812h-375z"/></clipPath><clipPath id="w"><path d="M49.117 29.633a1.597 1.597 0 0 1-.812-1.296.736.736 0 0 1 .331-.333c.526.193 1.101 1.051.74 1.577a.43.43 0 0 1-.259.052z" clip-rule="evenodd"/></clipPath><clipPath id="x"><path d="M-140-407h375v812h-375z"/></clipPath><clipPath id="y"><path d="M38.495 45.876c.105-.108.186-.24.236-.383a1.678 1.678 0 0 1-.289-1.052.691.691 0 0 1 .333-.482c.508.051.998.216 1.433.482.48.096 1.005.14 1.477.237.473.096 1.558.97 1.175 1.635-.237.097-.67.247-.74.238a5.305 5.305 0 0 0-2.089.139 12.86 12.86 0 0 1-1.536-.814z" clip-rule="evenodd"/></clipPath><clipPath id="z"><path d="M-140-407h375v812h-375z"/></clipPath><clipPath id="A"><path d="M33 38h15v14H33z"/></clipPath><clipPath id="B"><path d="M38 43h6v4h-6z"/></clipPath></defs><g clip-path="url(#a)" transform="matrix(1.3333 0 0 -1.3333 0 90.667)"><g clip-path="url(#b)"><path fill="#36acb8" d="M14.337 73h58.472V-4.935H14.337z"/></g></g><g clip-path="url(#c)" transform="matrix(1.3333 0 0 -1.3333 0 90.667)"><g clip-path="url(#d)"><path fill="#4a4a4a" d="M-5 46.568h24.745V12.373H-5z"/></g></g><g clip-path="url(#e)" transform="matrix(1.3333 0 0 -1.3333 0 90.667)"><g clip-path="url(#f)"><path fill="#4a4a4a" d="M8.145 48.472h22.858V15.49H8.145z"/></g></g><g clip-path="url(#g)" transform="matrix(1.3333 0 0 -1.3333 0 90.667)"><g clip-path="url(#h)"><path fill="#4a4a4a" d="M59.355 49.223h22.836V16.081H59.355z"/></g></g><g clip-path="url(#i)" transform="matrix(1.3333 0 0 -1.3333 0 90.667)"><g clip-path="url(#j)"><path fill="#4a4a4a" d="M71.111 47.301h17.895V14.52H71.111z"/></g></g><g clip-path="url(#k)" transform="matrix(1.3333 0 0 -1.3333 0 90.667)"><g clip-path="url(#l)"><path fill="#4a4a4a" d="M76.044 45.102h23.879V11.173H76.044z"/></g></g><g clip-path="url(#m)" transform="matrix(1.3333 0 0 -1.3333 0 90.667)"><g clip-path="url(#n)"><path fill="#ff7950" d="M22.608 57.547h45.454V12.094H22.608z"/></g></g><g clip-path="url(#o)" transform="matrix(1.3333 0 0 -1.3333 0 90.667)"><g clip-path="url(#p)"><path fill="#36acb8" d="M27.334 52.817h36.001v-36H27.334z"/></g></g><g clip-path="url(#q)" transform="matrix(1.3333 0 0 -1.3333 0 90.667)"><g clip-path="url(#r)"><path fill="#d3da31" d="M29.354 49.353h12.327V36.776H29.354z"/></g></g><g clip-path="url(#s)" transform="matrix(1.3333 0 0 -1.3333 0 90.667)"><g clip-path="url(#t)"><path fill="#d3da31" d="M27.335 41.741h14.64V23.67h-14.64z"/></g></g><g clip-path="url(#u)" transform="matrix(1.3333 0 0 -1.3333 0 90.667)"><g clip-path="url(#v)"><path fill="#d3da31" d="M35.269 49.15h28.069V22.026H35.269z"/></g></g><g clip-path="url(#w)" transform="matrix(1.3333 0 0 -1.3333 0 90.667)"><g clip-path="url(#x)"><path fill="#d3da31" d="M43.305 34.635h11.184V23.003H43.305z"/></g></g><g clip-path="url(#y)" transform="matrix(1.3333 0 0 -1.3333 0 90.667)"><g clip-path="url(#z)"><g clip-path="url(#A)"><g clip-path="url(#B)"><path fill="#d3da31" d="M33.439 51.69H47.94V38.959H33.439z"/></g></g></g></g></svg>