<svg id="Capa_1" xmlns="http://www.w3.org/2000/svg" viewBox="0 0 207 218" width="2374" height="2500"><style>.st0{fill:#31dc86}.st1{fill:#fefefe}</style><path class="st0" d="M118 11.7c1-4 1.8-7.9 3-11.7 7.4 1.9 14.6 3.7 22.2 5.6-1 4-1.9 7.9-2.8 11.6.4.8.9.9 1.5 1.1 11.4 4.6 21.7 11 30.9 19.3 11 9.9 19.4 21.6 25.5 35 3.4 7.6 5.7 15.6 7.2 23.8 1.6 8.6 1.9 17.3 1.3 26-.7 11.5-3.5 22.5-8.1 33.1-6.2 14.4-15.2 26.7-27 37-11.6 10.2-25 17.4-39.9 21.7-12 3.5-24.1 4.6-36.4 3.7-14.5-1.1-28.1-5.2-40.9-12.1-11.6-6.3-21.6-14.5-30.2-24.6-5.2-6.1-9.7-12.8-13.3-20-4.6-9.1-7.8-18.7-9.5-28.8-1.5-8.3-1.8-16.6-1.3-25 .7-11.6 3.4-22.7 8-33.4 4-9.4 9.3-18.1 15.9-26 10.5-12.4 23.1-21.9 38-28.4 7.8-3.4 15.8-5.8 24.1-7.3 7.1-1.3 14.3-1.4 21.5-1.2 3 .1 6 .5 9 .6h1.3z"/><path class="st1" d="M112.3 34.6c-10.2 38.7-20.4 77.3-30.7 116.3h36.9c.5 2 .6 39.1.2 42.6-28 5.8-60.6-4.3-80.6-32-19.2-26.6-20.4-62-2.6-90.2 18-28.3 50.3-40.5 76.8-36.7zM137.5 107.3c-8.3.3-16.2-6.7-16.1-16.3.1-8.9 7.2-16 16.4-16.1 7.3-.1 16 6.1 16.1 16.1.1 9.8-8.4 16.8-16.4 16.3z"/></svg>