<?xml version="1.0" encoding="UTF-8" standalone="no"?>
<!-- Generator: Gravit.io -->
<svg xmlns="http://www.w3.org/2000/svg" xmlns:xlink="http://www.w3.org/1999/xlink" style="isolation:isolate" viewBox="0 0 64 64" width="64pt" height="64pt"><defs><clipPath id="_clipPath_cPpz0bR1dANo4zQkdpJGWrsuPHXBVDRn"><rect width="64" height="64"/></clipPath></defs><g clip-path="url(#_clipPath_cPpz0bR1dANo4zQkdpJGWrsuPHXBVDRn)"><g><path d=" M 64 33.684 C 64 28.305 60.673 23.578 55.669 21.758 C 55.885 20.617 55.993 19.476 55.993 18.308 C 55.993 8.285 47.878 0.135 37.924 0.135 C 32.081 0.135 26.671 2.933 23.263 7.66 C 21.586 6.356 19.53 5.65 17.393 5.65 C 12.091 5.65 7.79 9.969 7.79 15.293 C 7.79 16.461 8.007 17.602 8.385 18.662 C 3.408 20.454 0 25.263 0 30.614 C 0 36.02 3.354 40.746 8.358 42.567 C 8.142 43.68 8.034 44.848 8.034 46.016 C 8.034 56.013 16.122 64.135 26.076 64.135 C 31.919 64.135 37.329 61.31 40.71 56.583 C 42.387 57.915 44.443 58.648 46.58 58.648 C 51.882 58.648 56.183 54.329 56.183 49.004 C 56.183 47.836 55.966 46.696 55.587 45.636 C 60.565 43.843 64 39.035 64 33.684 Z " fill="rgb(255,255,255)"/><path d=" M 25.156 27.707 L 39.168 34.118 L 53.288 21.677 C 53.504 20.645 53.585 19.64 53.585 18.553 C 53.585 9.806 46.498 2.689 37.788 2.689 C 32.568 2.689 27.726 5.269 24.777 9.589 L 22.424 21.84 L 25.156 27.707 Z " fill="rgb(254,209,10)"/><path d=" M 10.658 42.594 C 10.442 43.626 10.36 44.685 10.36 45.772 C 10.36 54.546 17.475 61.663 26.212 61.663 C 31.459 61.663 36.355 59.055 39.304 54.709 L 41.63 42.512 L 38.519 36.536 L 24.453 30.098 L 10.658 42.594 Z " fill="rgb(36,187,177)"/><path d=" M 10.576 18.254 L 20.179 20.536 L 22.289 9.589 C 20.99 8.583 19.367 8.04 17.69 8.04 C 13.524 8.04 10.116 11.436 10.116 15.646 C 10.116 16.543 10.278 17.439 10.576 18.254 Z " fill="rgb(239,80,152)"/><path d=" M 9.739 20.563 C 5.465 21.976 2.462 26.105 2.462 30.641 C 2.462 35.069 5.194 39.008 9.279 40.583 L 22.75 28.359 L 20.288 23.062 L 9.739 20.563 Z " fill="rgb(27,169,245)"/><path d=" M 41.738 54.709 C 43.064 55.714 44.66 56.285 46.31 56.285 C 50.475 56.285 53.884 52.889 53.884 48.679 C 53.884 47.755 53.721 46.858 53.424 46.044 L 43.848 43.789 L 41.738 54.709 Z " fill="rgb(147,200,62)"/><path d=" M 43.685 41.263 L 54.235 43.735 C 58.536 42.322 61.511 38.193 61.511 33.629 C 61.511 29.229 58.779 25.263 54.695 23.714 L 40.899 35.857 L 43.685 41.263 Z " fill="rgb(0,119,204)"/></g></g></svg>