<svg id="Layer_1" xmlns="http://www.w3.org/2000/svg" viewBox="0 0 637.8 637.2" enable-background="new 0 0 637.8 637.2" width="2500" height="2498"><style>.st0{fill:#101425}.st1{filter:url(#Adobe_OpacityMaskFilter)}.st2{fill:#fff}.st3{mask:url(#mask-2_1_)}.st3,.st4{fill:#00a7d2}.st5{filter:url(#Adobe_OpacityMaskFilter_1_)}.st6{mask:url(#mask-4_1_);fill:#101425}</style><title>Slice 1</title><g id="Page-1"><g id="logo"><g id="Page-1-Copy"><path id="Fill-1" class="st0" d="M367 426.6H171.8c-13.6 0-24.7-11-24.7-24.7 0-13.6 11-24.7 24.7-24.7H367c13.6 0 24.7 11 24.7 24.7s-11.1 24.7-24.7 24.7"/><path id="Fill-3" class="st0" d="M466 598c-8.5 0-16.8-4.4-21.4-12.3l-98.9-171.4c-6.8-11.8-2.8-26.9 9-33.7 11.8-6.8 26.9-2.8 33.7 9L487.3 561c6.8 11.8 2.8 26.9-9 33.7-3.9 2.3-8.1 3.3-12.3 3.3"/><g id="Group-7" transform="translate(147 .245)"><g id="Fill-5-Clipped"><defs><filter id="Adobe_OpacityMaskFilter" filterUnits="userSpaceOnUse" x=".2" y="-.2" width="490.6" height="490.3"><feColorMatrix values="1 0 0 0 0 0 1 0 0 0 0 0 1 0 0 0 0 0 1 0"/></filter></defs><mask maskUnits="userSpaceOnUse" x=".2" y="-.2" width="490.6" height="490.3" id="mask-2_1_"><g class="st1"><path id="path-1_2_" class="st2" d="M.2-.2h490.6v490.3H.2z"/></g></mask><path id="Fill-5" class="st3" d="M426.6 490.1c-4.2 0-8.4-1.1-12.3-3.3-11.8-6.8-15.8-21.9-9-33.7 36-62.3 45.5-134.9 26.9-204.5C413.5 179.1 368.9 121 306.6 85c-83.1-48-186.3-48-269.4 0-11.8 6.8-26.9 2.8-33.7-9-6.8-11.8-2.8-26.9 9-33.7C61.7 13.9 116.8-.2 171.9-.2 227-.2 282.1 14 331.3 42.4 405 84.9 457.8 153.6 479.8 235.9c22 82.2 10.7 168.1-31.8 241.9-4.6 7.9-12.9 12.3-21.4 12.3"/></g></g><path id="Fill-8" class="st4" d="M424.5 343.3H213.3c-13.6 0-24.7-11-24.7-24.7 0-13.6 11-24.7 24.7-24.7h211.2c13.6 0 24.7 11 24.7 24.7 0 13.6-11.1 24.7-24.7 24.7"/><path id="Fill-10" class="st4" d="M465.9 259.9H270.8c-13.6 0-24.7-11-24.7-24.7 0-13.6 11-24.7 24.7-24.7H466c13.6 0 24.7 11 24.7 24.7-.1 13.7-11.1 24.7-24.8 24.7"/><path id="Fill-12" class="st4" d="M270.8 259.9c-8.5 0-16.8-4.4-21.4-12.3L150.5 76.2c-6.8-11.8-2.8-26.9 9-33.7 11.8-6.8 26.9-2.8 33.7 9l98.9 171.4c6.8 11.8 2.8 26.9-9 33.7-3.9 2.3-8.1 3.3-12.3 3.3"/><g id="Group-16" transform="translate(0 147.245)"><g id="Fill-14-Clipped"><defs><filter id="Adobe_OpacityMaskFilter_1_" filterUnits="userSpaceOnUse" x="0" y="-.3" width="490.6" height="490.3"><feColorMatrix values="1 0 0 0 0 0 1 0 0 0 0 0 1 0 0 0 0 0 1 0"/></filter></defs><mask maskUnits="userSpaceOnUse" x="0" y="-.3" width="490.6" height="490.3" id="mask-4_1_"><g class="st5"><path id="path-3_2_" class="st2" d="M0-.3h490.6V490H0z"/></g></mask><path id="Fill-14" class="st6" d="M318.9 490c-55.1 0-110.2-14.2-159.4-42.6C85.8 404.9 33 336.1 11 253.9-11 171.6.3 85.7 42.8 12 49.7.2 64.7-3.8 76.5 3c11.8 6.8 15.8 21.9 9 33.7C49.6 99 40 171.6 58.6 241.1s63.2 127.6 125.5 163.6c83.1 48 186.3 48 269.4 0 11.8-6.8 26.9-2.8 33.7 9 6.8 11.8 2.8 26.9-9 33.7C429.1 475.8 374 490 318.9 490"/></g></g></g></g></g></svg>