<svg height="3273.81" viewBox="0 0 2000 3273.81" width="2000" xmlns="http://www.w3.org/2000/svg"><g fill="#961a44"><path d="m989.89 2860.73v-414l177.17-105.92c97.25-58.73 180.06-106.88 183.91-106.88 2.89 0 25-12.52 48.14-28.89 23.11-15.4 46.22-28.88 52-28.88s10.59-3.85 10.59-9.63c0-4.82 4.81-9.63 10.59-9.63 7.7 0 282.13-160.8 433.3-255.16 80.88-50.07 103-52 70.29-6.74-22.15 28.88-81.85 114.58-180.06 257.09-36.59 52.95-74.14 105.91-82.81 116.5-8.66 11.56-21.18 28.89-27.92 38.52-6.74 10.59-33.7 49.11-59.7 85.7-26 37.55-53 75.1-59.7 84.73-6.74 10.59-19.26 26-27 35.63-7.7 10.59-33.7 47.18-57.77 81.84s-75.11 106.88-112.66 161.77c-38.52 53.92-76.07 105.91-81.85 115.54-6.74 10.59-19.25 26-27 35.63-7.7 10.59-33.7 47.18-57.77 81.85s-49.99 71.2-57.64 81.8c-7.71 9.63-20.22 25-27 35.63-6.74 9.63-33.7 47.18-59.7 84.73-27 36.59-48.15 70.29-48.15 74.14 0 4.82-3.85 7.71-9.63 7.71-6.75 0-9.63-144.44-9.63-413.08z"/><path d="m811.75 3017.68c-15.4-19.26-53-71.25-81.84-113.62-28.89-43.33-56.81-82.81-62.59-88.59-4.82-6.74-17.33-21.18-26-33.7s-39.48-55.85-67.4-95.32-79.92-113.62-113.62-163.69c-34.66-50.07-66.44-96.29-72.22-102.07-4.81-5.78-15.4-19.26-22.14-28.89-18.3-27-105.92-151.17-119.4-169.46-6.74-8.67-18.3-24.08-25-33.7s-39.47-55.85-73.18-104c-32.73-47.18-80.88-116.5-105.91-152.13-26-35.63-44.3-68.37-40.44-71.26 2.89-2.88 85.69 42.37 182.94 101.11 98.22 59.7 182 107.84 187.77 107.84 4.81 0 10.59 2.89 12.51 7.7 3.86 8.67 54.89 39.48 78 47.19 8.66 2.88 16.37 8.66 16.37 13.48s4.81 8.66 10.59 8.66 72.21 36.59 147.32 81.85l137.69 82.8 11.56 122.29c11.55 128.06 30.81 313.9 49.1 480.48 5.78 54.88 9.63 107.84 7.71 119.4-2.93 18.29-5.82 16.37-31.82-16.37z"/><path d="m989.89 1127.54c0-620.1 2.88-1127.54 7.7-1127.54 3.85 0 20.22 22.15 35.63 49.11 43.33 74.14 45.25 76.06 91.47 153.1 23.11 39.47 46.22 73.17 50.07 75.1 4.81 1.93 7.7 8.67 7.7 14.44 0 6.74 15.41 34.67 33.7 61.63 18.3 27.92 33.7 54.88 33.7 60.66 0 4.81 4.82 9.63 9.63 9.63 5.78 0 9.63 5.78 9.63 12.52s11.56 28.88 25 49.1c14.44 20.22 30.81 46.22 36.59 57.78 32.73 62.58 232 387.08 238.79 389 3.85 1.93 7.7 7.7 7.7 12.52s31.78 60.66 70.3 125.17c37.55 63.55 77 130 87.62 146.36 9.63 17.33 74.14 125.18 143.47 240.72 68.36 114.59 123.25 210.88 121.32 212.8-19.26 14.44-220.5 130.95-228.2 130.95-5.78 0-11.56 3.85-13.48 7.71-2.89 7.7-87.63 59.7-116.51 71.25-9.63 3.85-36.59 20.22-59.7 36.59-23.11 15.41-44.29 28.89-46.22 28.89-2.89 0-83.77 48.14-179.1 105.91-96.28 58.74-177.17 105.92-179.09 105.92-2.89 0-27.93 15.41-55.85 33.7-27 18.3-54.88 33.7-61.62 33.7-5.78 0-12.52 3.85-14.45 8.67-1 4.81-14.44 12.52-28.88 15.4l-27 6.74z"/><path d="m701 2089.46c-13.48-10.59-27-19.26-30.81-19.26s-84.74-47.18-181-105.92c-95.33-57.77-176.21-105.91-178.14-105.91-2.89 0-27.92-15.41-55.85-33.7-27-18.3-54.88-33.71-61.62-33.71s-12.52-3.85-12.52-8.66-7.7-10.59-16.37-13.48c-17.33-5.78-70.29-35.63-79.92-45.26-2.88-2.89-22.14-14.44-43.33-25-21.18-11.56-39.44-27.96-41.44-35.66-2.89-15.41 149.25-278.27 163.69-284.05 4.82-1.93 7.7-7.7 7.7-12.52 0-5.77 93.4-166.58 209-357.23 179.1-299.45 209-345.67 216.65-326.42 3.85 11.56 14.44 89.55 22.15 172.36 21.18 207 41.4 405.38 53 502.63 4.82 45.25 15.41 147.32 24.08 226.27 35.62 341.83 44.29 426.56 50.07 474.71 5.71 56.81-3.92 63.55-45.34 30.81z"/></g></svg>