<svg xmlns="http://www.w3.org/2000/svg" width="512pt" height="512pt" style="isolation:isolate" viewBox="0 0 512 512"><defs><clipPath id="a"><path d="M0 0h512v512H0z"/></clipPath></defs><g clip-path="url(#a)"><path fill="#00A82D" d="M174.315 115.04c0 5.094-.424 13.584-5.518 19.103-5.519 5.094-14.009 5.519-19.103 5.519H95.358c-15.706 0-25.046 0-31.413.849-3.396.423-7.641 2.122-9.764 2.971-.849.424-.849 0-.424-.425L177.712 16.98c.425-.424.848-.424.425.425-.85 2.122-2.548 6.367-2.973 9.763-.849 6.368-.849 15.707-.849 31.413v56.459ZM289.78 496.243c-14.434-9.338-22.074-21.649-25.045-29.291-2.972-7.217-4.669-15.282-4.669-23.348 0-35.233 28.865-64.099 64.523-64.099a19.024 19.024 0 0 1 19.103 19.103c0 7.217-3.82 13.159-9.763 16.555-2.123 1.273-5.094 2.122-7.217 2.547-2.123.424-10.188 1.274-14.008 4.669-4.246 3.397-7.642 8.915-7.642 14.859 0 6.366 2.548 12.309 6.792 16.554 7.641 7.642 17.83 11.886 28.866 11.886 28.866 0 52.214-23.348 52.214-52.213 0-25.894-17.404-48.818-40.328-59.006-3.395-1.698-8.914-2.972-14.008-4.244-6.368-1.274-12.311-2.123-12.735-2.123-17.83-2.122-62.402-16.131-65.374-55.609 0 0-13.159 59.429-39.478 75.56-2.547 1.274-5.943 2.547-9.764 3.397-3.82.849-8.065 1.272-9.339 1.272-42.875 2.548-88.296-11.036-119.709-43.298 0 0-21.225-17.405-32.263-66.223-2.547-11.886-7.641-33.111-10.612-53.062-1.274-7.217-1.698-12.736-2.123-17.829 0-20.801 12.735-34.81 28.866-36.932h86.599c14.858 0 23.348-3.82 28.866-8.915 7.217-6.791 8.914-16.556 8.914-28.017v-89.57C192.569 13.16 206.577 0 227.378 0h10.189c4.245 0 9.339.425 14.008.849 3.396.425 6.368 1.274 11.462 2.547 25.894 6.368 31.413 32.687 31.413 32.687s48.817 8.49 73.438 12.735c23.348 4.245 81.08 8.065 92.117 66.222 25.896 138.388 10.188 272.531 8.915 272.531C450.666 518.316 341.994 511.95 341.994 511.95c-23.347 0-40.752-7.642-52.214-15.707Zm97.636-278.049c-14.008-1.274-25.896 4.245-30.139 14.857-.851 2.123-1.699 4.671-1.274 5.943.423 1.274 1.274 1.699 2.122 2.123 5.094 2.547 13.584 3.821 25.894 5.094 12.311 1.274 20.802 2.123 26.32 1.274.848 0 1.697-.425 2.547-1.698.849-1.274.424-3.821.424-5.943-1.698-11.887-11.886-19.952-25.894-21.65Z"/></g></svg>