<?xml version="1.0" encoding="UTF-8" standalone="no"?>
<!-- Generator: Gravit.io -->
<svg xmlns="http://www.w3.org/2000/svg" xmlns:xlink="http://www.w3.org/1999/xlink" style="isolation:isolate"
  viewBox="0 0 64 64" width="64pt" height="64pt">
  <defs>
    <clipPath id="_clipPath_0mgf9ytsCkNsNPW8CISAXCD3n1K9kWEJ">
      <rect width="64" height="64" />
    </clipPath>
  </defs>
  <g clip-path="url(#_clipPath_0mgf9ytsCkNsNPW8CISAXCD3n1K9kWEJ)">
    <path
      d=" M 48.38 31.1 C 52.316 31.362 55.84 28.672 56.612 24.806 C 55.662 23.336 54.038 22.452 52.288 22.452 C 47.744 22.348 45.304 27.756 48.382 31.102 L 48.38 31.1 Z  M 30.018 9.39 L 40.74 3.18 L 37.324 1.254 L 22.536 9.818 L 23.714 10.476 L 25.952 11.734 L 30.018 9.38 L 30.018 9.39 Z  M 42.116 2.608 C 42.294 2.662 42.438 2.808 42.492 2.984 L 47.462 18.176 C 47.556 18.438 47.452 18.72 47.212 18.864 C 43.274 21.178 41.376 25.846 42.576 30.254 C 43.888 35.038 48.452 38.164 53.382 37.664 C 53.652 37.642 53.912 37.81 53.996 38.07 L 59.124 53.682 C 59.206 53.944 59.102 54.224 58.874 54.37 L 43.15 63.916 C 43.076 63.958 42.982 63.988 42.888 63.988 C 42.752 64.02 42.608 63.988 42.482 63.906 L 36.95 60.31 C 36.854 60.248 36.782 60.156 36.73 60.052 L 25.934 34.25 L 9.49 44.004 C 9.458 44.026 9.416 44.046 9.386 44.068 C 9.218 44.14 9.02 44.118 8.864 44.026 L 5.144 41.84 C 4.872 41.694 4.768 41.35 4.914 41.076 L 20.826 9.566 C 20.876 9.452 20.98 9.358 21.096 9.304 L 37.022 0.084 C 37.198 -0.02 37.416 -0.03 37.606 0.074 L 42.116 2.608 Z  M 25.464 12.812 L 21.6 10.634 L 6.208 41.102 L 9 42.75 L 22.268 24.712 C 22.394 24.534 22.602 24.44 22.81 24.472 C 23.018 24.494 23.194 24.626 23.28 24.826 L 37.742 59.432 L 41.608 61.934 L 25.476 12.812 L 25.464 12.812 Z  M 52.286 33.934 C 47.774 33.934 44.71 29.348 46.438 25.178 C 48.16 21.012 53.568 19.938 56.754 23.128 C 57.946 24.314 58.612 25.922 58.612 27.6 C 58.622 31.1 55.786 33.936 52.286 33.936 L 52.286 33.934 Z "
      fill="rgb(0,0,0)" />
  </g>
</svg>