<svg xmlns="http://www.w3.org/2000/svg" width="512pt" height="512pt" style="isolation:isolate" viewBox="0 0 512 512"><defs><clipPath id="a"><path d="M0 0h512v512H0z"/></clipPath></defs><g clip-path="url(#a)"><path fill="#222" d="M3.332 297.486v-56.981h71.144v-3.332H3.332V185.19h75.642v-3.333H0v118.962h79.641v-3.333H3.332Zm140.455-82.306-29.491 38.821-28.824-38.821H81.14l31.157 41.32-34.156 44.319h3.999l32.156-41.82 32.323 41.82h4.165L116.462 256.5l31.323-41.32h-3.998Zm16.994 114.963v-53.316h.333c2 7.775 5.943 14.023 11.83 18.743 5.887 4.721 13.384 7.081 22.492 7.081 5.887 0 11.108-1.194 15.662-3.582s8.358-5.637 11.413-9.747c3.054-4.109 5.387-8.885 6.998-14.328 1.61-5.443 2.416-11.163 2.416-17.161 0-6.443-.834-12.385-2.5-17.828-1.666-5.442-4.082-10.163-7.247-14.162-3.166-3.999-6.998-7.109-11.497-9.33-4.498-2.222-9.58-3.332-15.245-3.332-4.332 0-8.358.638-12.079 1.916-3.721 1.277-7.025 3.082-9.913 5.415a36.643 36.643 0 0 0-7.498 8.247c-2.11 3.166-3.721 6.637-4.832 10.413h-.333V215.18h-3.332v114.963h3.332Zm34.655-30.657c-10.441 0-18.827-3.582-25.158-10.747-6.331-7.164-9.497-17.466-9.497-30.906 0-5.554.778-10.83 2.333-15.828 1.555-4.999 3.804-9.386 6.747-13.163 2.944-3.776 6.582-6.775 10.913-8.997 4.332-2.221 9.22-3.332 14.662-3.332 5.554 0 10.414 1.111 14.579 3.332 4.165 2.222 7.609 5.248 10.33 9.08 2.721 3.833 4.776 8.22 6.165 13.163 1.388 4.943 2.082 10.191 2.082 15.745 0 4.998-.638 9.969-1.916 14.912-1.277 4.942-3.249 9.385-5.915 13.329-2.665 3.943-6.081 7.164-10.246 9.663-4.166 2.499-9.192 3.749-15.079 3.749Zm54.816 1.333v-48.484c0-4.666.666-9.22 1.999-13.663 1.333-4.443 3.388-8.358 6.165-11.746s6.303-6.053 10.58-7.997c4.276-1.944 9.358-2.749 15.245-2.416v-3.332c-5.11-.111-9.58.444-13.412 1.666-3.833 1.222-7.137 2.888-9.914 4.998-2.777 2.111-4.998 4.582-6.664 7.414a33.152 33.152 0 0 0-3.666 9.081h-.333v-21.16h-3.332v85.639h3.332Zm38.154-42.153h71.643c.223-5.887-.361-11.552-1.749-16.995-1.388-5.442-3.61-10.274-6.664-14.495-3.055-4.221-6.998-7.609-11.83-10.163-4.832-2.555-10.58-3.832-17.244-3.832-4.777 0-9.442.999-13.996 2.999-4.554 1.999-8.553 4.915-11.996 8.747-3.443 3.832-6.22 8.525-8.33 14.079-2.111 5.553-3.166 11.885-3.166 18.993 0 6.332.722 12.246 2.166 17.745 1.444 5.498 3.665 10.274 6.664 14.328 2.999 4.054 6.859 7.192 11.58 9.414 4.721 2.221 10.413 3.277 17.078 3.165 9.774 0 17.994-2.749 24.658-8.247 6.665-5.498 10.608-13.245 11.83-23.242h-3.332c-1.444 9.441-5.138 16.522-11.08 21.243-5.943 4.721-13.412 7.081-22.41 7.081-6.109 0-11.274-1.055-15.495-3.166-4.22-2.11-7.664-4.998-10.329-8.664-2.666-3.665-4.638-7.969-5.915-12.912-1.278-4.943-1.972-10.302-2.083-16.078Zm68.311-3.332h-68.311c.333-5.999 1.444-11.386 3.332-16.162 1.889-4.776 4.36-8.858 7.415-12.246 3.054-3.388 6.609-5.97 10.663-7.747 4.054-1.778 8.414-2.666 13.079-2.666 5.554 0 10.441 1.027 14.662 3.082 4.221 2.055 7.747 4.86 10.58 8.414 2.832 3.555 4.97 7.692 6.414 12.413 1.444 4.72 2.166 9.691 2.166 14.912Zm72.477-14.829h3.332c0-9.552-2.777-16.495-8.331-20.827-5.554-4.331-13.107-6.497-22.659-6.497-5.332 0-9.83.666-13.496 1.999-3.665 1.333-6.664 3.055-8.997 5.165-2.332 2.11-3.998 4.443-4.998 6.998-1 2.554-1.5 4.998-1.5 7.331 0 4.665.833 8.386 2.5 11.163 1.666 2.777 4.276 4.942 7.83 6.498 2.444 1.11 5.221 2.11 8.331 2.999 3.11.888 6.72 1.832 10.83 2.832 3.665.889 7.275 1.777 10.83 2.666 3.554.888 6.692 2.082 9.413 3.582 2.722 1.499 4.943 3.415 6.665 5.748 1.721 2.333 2.582 5.387 2.582 9.164 0 3.665-.861 6.775-2.582 9.33a20.828 20.828 0 0 1-6.581 6.248c-2.666 1.611-5.638 2.777-8.914 3.499-3.277.722-6.47 1.083-9.58 1.083-10.108 0-17.856-2.249-23.243-6.748-5.387-4.499-8.081-11.579-8.081-21.243h-3.332c0 10.774 2.916 18.661 8.747 23.659 5.832 4.998 14.468 7.497 25.909 7.497 3.665 0 7.358-.416 11.079-1.249 3.721-.833 7.054-2.194 9.997-4.082a22.576 22.576 0 0 0 7.164-7.331c1.833-2.999 2.749-6.665 2.749-10.996 0-4.11-.805-7.442-2.415-9.997-1.611-2.555-3.721-4.665-6.332-6.332-2.61-1.666-5.553-2.971-8.83-3.915a519.132 519.132 0 0 0-9.914-2.749 1736.87 1736.87 0 0 0-12.246-3.166c-3.498-.888-6.747-1.943-9.746-3.165-2.888-1.222-5.193-2.972-6.915-5.249-1.722-2.277-2.582-5.526-2.582-9.746 0-.778.222-2.166.666-4.166.444-1.999 1.5-4.026 3.166-6.081 1.666-2.055 4.221-3.888 7.664-5.498 3.443-1.611 8.164-2.416 14.162-2.416 4.11 0 7.858.444 11.246 1.333 3.388.888 6.304 2.305 8.747 4.248 2.444 1.944 4.332 4.416 5.665 7.415 1.333 2.999 2 6.664 2 10.996Zm77.141 0h3.332c0-9.552-2.776-16.495-8.33-20.827-5.554-4.331-13.107-6.497-22.659-6.497-5.332 0-9.831.666-13.496 1.999-3.666 1.333-6.665 3.055-8.997 5.165-2.333 2.11-3.999 4.443-4.999 6.998-.999 2.554-1.499 4.998-1.499 7.331 0 4.665.833 8.386 2.499 11.163 1.666 2.777 4.277 4.942 7.831 6.498 2.444 1.11 5.22 2.11 8.331 2.999 3.11.888 6.72 1.832 10.829 2.832 3.666.889 7.276 1.777 10.83 2.666 3.555.888 6.692 2.082 9.414 3.582 2.721 1.499 4.943 3.415 6.664 5.748 1.722 2.333 2.583 5.387 2.583 9.164 0 3.665-.861 6.775-2.583 9.33a20.807 20.807 0 0 1-6.581 6.248c-2.666 1.611-5.637 2.777-8.914 3.499-3.276.722-6.47 1.083-9.58 1.083-10.108 0-17.855-2.249-23.242-6.748-5.388-4.499-8.081-11.579-8.081-21.243h-3.332c0 10.774 2.915 18.661 8.747 23.659 5.831 4.998 14.467 7.497 25.908 7.497a50.59 50.59 0 0 0 11.08-1.249c3.721-.833 7.053-2.194 9.997-4.082a22.596 22.596 0 0 0 7.164-7.331c1.833-2.999 2.749-6.665 2.749-10.996 0-4.11-.805-7.442-2.416-9.997-1.61-2.555-3.721-4.665-6.331-6.332-2.61-1.666-5.554-2.971-8.831-3.915a519.027 519.027 0 0 0-9.913-2.749 1736.87 1736.87 0 0 0-12.246-3.166c-3.499-.888-6.748-1.943-9.747-3.165-2.888-1.222-5.193-2.972-6.914-5.249-1.722-2.277-2.583-5.526-2.583-9.746 0-.778.222-2.166.667-4.166.444-1.999 1.499-4.026 3.165-6.081 1.666-2.055 4.221-3.888 7.664-5.498 3.444-1.611 8.164-2.416 14.163-2.416 4.109 0 7.858.444 11.246 1.333 3.388.888 6.303 2.305 8.747 4.248 2.444 1.944 4.332 4.416 5.665 7.415 1.333 2.999 1.999 6.664 1.999 10.996Z"/></g></svg>