<?xml version="1.0" encoding="UTF-8"?>
<svg width="185pt" xmlns:xlink="http://www.w3.org/1999/xlink" xmlns="http://www.w3.org/2000/svg" height="239pt" viewBox="0 0 185 239" >
 <g transform="translate(0, 0.302734)" style="fill:#c79c4a; fill-rule:nonzero; stroke:none; stroke-width:1; stroke-linecap:butt; stroke-linejoin:miter; stroke-dasharray:none;" >
  <path d="M184.012 67.4805 C184.014 57.4551 183.85 51.5264 182.727 40.9561 C182.727 40.9561 182.727 40.9541 182.727 40.9541 C181.969 33.8125 180.627 26.9268 179.791 22.9991 C179.695 22.3819 179.092 19.3301 178.742 18.3936 C177.92 15.5303 176.455 12.5606 174.1 10.0342 C171.729 7.48145 168.328 5.44532 164.166 4.88282 C157.699 3.73145 122.393 0 91.9854 0 C61.5801 0 30.1436 2.6709 25.6426 3.40137 C19.5654 3.93067 14.6406 6.28516 11.1465 9.35645 C7.6543 12.4414 5.49609 16.1407 4.81934 19.8174 C4.58984 20.875 1.88086 33.1045 1.17773 41.0352 C0.496094 48.8887 0 56.9395 0 66.8438 C0 74.709 0.323242 83.3604 1.24023 92.5616 C7.1748 152.504 38.29 200.614 88.0635 233.834 C88.0635 233.834 88.1289 233.877 88.1289 233.877 C88.1289 233.877 88.1582 233.896 88.1582 233.896 C88.7354 234.257 89.0225 234.437 89.5928 234.791 C89.5928 234.791 91.6357 236.074 91.6357 236.074 C91.6357 236.074 93.6816 234.791 93.6816 234.791 C94.2402 234.444 94.5234 234.269 95.1094 233.903 C95.8164 233.462 96.5781 232.995 97.332 232.506 C146.445 200.519 177.34 151.319 182.916 91.7744 C183.723 83.1963 184.014 75.1036 184.014 67.6953 C184.014 67.545 184.012 67.4805 184.012 67.4805 " />
 </g>
 <g transform="translate(7.16699, 12.5732)" style="fill:#0258a3; fill-rule:nonzero; stroke:none; stroke-width:1; stroke-linecap:butt; stroke-linejoin:miter; stroke-dasharray:none;" >
  <path d="M168.085 30.9161 C167.374 23.7754 166.089 16.7842 165.3 12.8799 C165.198 12.1817 164.993 10.834 164.71 10.0489 C163.431 5.1436 158.634 0 151.64 0 C148.675 0 20.4961 0 17.542 0 C12.1055 0 4.79201 4.9932 3.92281 11.5401 C3.92281 11.5401 1.76953 22.9756 1.11914 30.9248 C0.46778 38.878 0 46.9502 0 56.9356 C0 64.8584 0.30274 73.5606 1.17188 82.8008 C6.69731 141.501 34.7529 189.922 82.917 224.153 C83.4668 224.518 83.7412 224.702 84.292 225.067 C84.8418 224.704 85.1182 224.518 85.665 224.155 C86.3643 223.691 87.0537 223.226 87.7373 222.768 C135.989 190.422 163.175 139.077 168.255 82.0186 C169.021 73.3985 169.296 65.2627 169.296 57.8047 C169.298 47.4551 169.153 41.6846 168.085 30.9161 " />
 </g>
 <g transform="translate(7.16699, 12.5732)" style="fill:none; stroke:#ffffff; stroke-width:2.269; stroke-linecap:butt; stroke-linejoin:miter; stroke-dasharray:none;" >
  <path d="M168.085 30.9161 C168.085 30.9161 167.46 25.6338 167.46 25.6338 C167.46 25.6338 166.722 20.6836 166.722 20.6836 C166.722 20.6836 165.968 16.3409 165.968 16.3409 C165.968 16.3409 165.3 12.8799 165.3 12.8799 C165.3 12.8799 165.204 12.253 165.204 12.253 C165.204 12.253 165.072 11.4961 165.072 11.4961 C165.072 11.4961 164.907 10.7237 164.907 10.7237 C164.907 10.7237 164.71 10.0489 164.71 10.0489 C164.71 10.0489 164.067 8.2081 164.067 8.2081 C164.067 8.2081 163.111 6.4092 163.111 6.4092 C163.111 6.4092 161.855 4.7129 161.855 4.7129 C161.855 4.7129 160.317 3.1846 160.317 3.1846 C160.317 3.1846 158.511 1.8858 158.511 1.8858 C158.511 1.8858 156.452 0.8799 156.452 0.8799 C156.452 0.8799 154.156 0.2305 154.156 0.2305 C154.156 0.2305 151.64 0 151.64 0 C151.64 0 151.002 0 151.002 0 C151.002 0 149.677 0 149.677 0 C149.677 0 147.71 0 147.71 0 C147.71 0 145.147 0 145.147 0 C145.147 0 142.034 0 142.034 0 C142.034 0 138.416 0 138.416 0 C138.416 0 134.34 0 134.34 0 C134.34 0 129.851 0 129.851 0 C129.851 0 124.995 0 124.995 0 C124.995 0 119.818 0 119.818 0 C119.818 0 114.367 0 114.367 0 C114.367 0 108.686 0 108.686 0 C108.686 0 102.821 0 102.821 0 C102.821 0 96.819 0 96.819 0 C96.819 0 90.7256 0 90.7256 0 C90.7256 0 84.5859 0 84.5859 0 C84.5859 0 78.4473 0 78.4473 0 C78.4473 0 72.3535 0 72.3535 0 C72.3535 0 66.3516 0 66.3516 0 C66.3516 0 60.4873 0 60.4873 0 C60.4873 0 54.8066 0 54.8066 0 C54.8066 0 49.3555 0 49.3555 0 C49.3555 0 44.1787 0 44.1787 0 C44.1787 0 39.3232 0 39.3232 0 C39.3232 0 34.835 0 34.835 0 C34.835 0 30.7598 0 30.7598 0 C30.7598 0 27.1426 0 27.1426 0 C27.1426 0 24.0303 0 24.0303 0 C24.0303 0 21.4678 0 21.4678 0 C21.4678 0 19.5019 0 19.5019 0 C19.5019 0 18.1777 0 18.1777 0 C18.1777 0 17.542 0 17.542 0 C17.542 0 15.4307 0.2266 15.4307 0.2266 C15.4307 0.2266 13.2422 0.8819 13.2422 0.8819 C13.2422 0.8819 11.0723 1.9248 11.0723 1.9248 C11.0723 1.9248 9.01951 3.3145 9.01951 3.3145 C9.01951 3.3145 7.17971 5.0108 7.17971 5.0108 C7.17971 5.0108 5.65231 6.9747 5.65231 6.9747 C5.65231 6.9747 4.53421 9.1641 4.53421 9.1641 C4.53421 9.1641 3.92281 11.5401 3.92281 11.5401 C3.92281 11.5401 3.82811 12.0469 3.82811 12.0469 C3.82811 12.0469 3.57621 13.4502 3.57621 13.4502 C3.57621 13.4502 3.20701 15.5772 3.20701 15.5772 C3.20701 15.5772 2.76465 18.251 2.76465 18.251 C2.76465 18.251 2.29199 21.2979 2.29199 21.2979 C2.29199 21.2979 1.83106 24.542 1.83106 24.542 C1.83106 24.542 1.42578 27.8096 1.42578 27.8096 C1.42578 27.8096 1.11914 30.9248 1.11914 30.9248 C1.11914 30.9248 0.66895 36.9395 0.66895 36.9395 C0.66895 36.9395 0.31446 43.168 0.31446 43.168 C0.31446 43.168 0.08301 49.7764 0.08301 49.7764 C0.08301 49.7764 0 56.9356 0 56.9356 C0 56.9356 0.06055 63.0196 0.06055 63.0196 C0.06055 63.0196 0.25977 69.3741 0.25977 69.3741 C0.25977 69.3741 0.62207 75.9747 0.62207 75.9747 C0.62207 75.9747 1.17188 82.8008 1.17188 82.8008 C1.17188 82.8008 2.47071 93.6858 2.47071 93.6858 C2.47071 93.6858 4.29491 104.323 4.29491 104.323 C4.29491 104.323 6.63961 114.709 6.63961 114.709 C6.63961 114.709 9.50191 124.837 9.50191 124.837 C9.50191 124.837 12.8779 134.701 12.8779 134.701 C12.8779 134.701 16.7646 144.295 16.7646 144.295 C16.7646 144.295 21.1582 153.615 21.1582 153.615 C21.1582 153.615 26.0547 162.653 26.0547 162.653 C26.0547 162.653 31.4502 171.404 31.4502 171.404 C31.4502 171.404 37.3428 179.863 37.3428 179.863 C37.3428 179.863 43.7275 188.023 43.7275 188.023 C43.7275 188.023 50.6016 195.88 50.6016 195.88 C50.6016 195.88 57.9609 203.427 57.9609 203.427 C57.9609 203.427 65.8027 210.658 65.8027 210.658 C65.8027 210.658 74.1221 217.569 74.1221 217.569 C74.1221 217.569 82.917 224.153 82.917 224.153 C82.917 224.153 83.6035 224.61 83.6035 224.61 C83.6035 224.61 84.292 225.067 84.292 225.067 C84.292 225.067 84.9795 224.611 84.9795 224.611 C84.9795 224.611 85.665 224.155 85.665 224.155 C85.665 224.155 87.7373 222.768 87.7373 222.768 C87.7373 222.768 96.537 216.483 96.537 216.483 C96.537 216.483 104.842 209.773 104.842 209.773 C104.842 209.773 112.649 202.656 112.649 202.656 C112.649 202.656 119.96 195.154 119.96 195.154 C119.96 195.154 126.77 187.282 126.77 187.282 C126.77 187.282 133.078 179.064 133.078 179.064 C133.078 179.064 138.884 170.517 138.884 170.517 C138.884 170.517 144.186 161.66 144.186 161.66 C144.186 161.66 148.98 152.514 148.98 152.514 C148.98 152.514 153.269 143.098 153.269 143.098 C153.269 143.098 157.047 133.431 157.047 133.431 C157.047 133.431 160.315 123.533 160.315 123.533 C160.315 123.533 163.072 113.423 163.072 113.423 C163.072 113.423 165.315 103.121 165.315 103.121 C165.315 103.121 167.043 92.6468 167.043 92.6468 C167.043 92.6468 168.255 82.0186 168.255 82.0186 C168.255 82.0186 169.062 69.4756 169.062 69.4756 C169.062 69.4756 169.296 57.8047 169.296 57.8047 C169.296 57.8047 169.288 54.1192 169.288 54.1192 C169.288 54.1192 169.257 50.751 169.257 50.751 C169.257 50.751 169.194 47.5879 169.194 47.5879 C169.194 47.5879 169.092 44.5166 169.092 44.5166 C169.092 44.5166 168.937 41.4268 168.937 41.4268 C168.937 41.4268 168.725 38.2041 168.725 38.2041 C168.725 38.2041 168.443 34.7383 168.443 34.7383 C168.443 34.7383 168.085 30.9161 168.085 30.9161 " />
 </g>
 <g transform="translate(18.0977, 22.6787)" style="fill:#ffffff; fill-rule:evenodd; stroke:none; stroke-width:2.269; stroke-linecap:butt; stroke-linejoin:miter; stroke-dasharray:none;" >
  <path d="M92.3493 103.255 C92.3493 132.943 92.3513 162.633 92.3493 192.321 C107.673 178.123 120.525 161.372 129.662 141.762 C135.396 129.446 139.591 116.497 142.482 103.257 C125.584 103.257 109.425 103.26 92.3493 103.255 Z M5.4394 103.255 C8.4345 116.941 12.8017 130.33 18.7783 142.997 C27.5888 161.682 39.997 178.407 55 192.477 C55 192.477 55 103.257 55 103.257 C38.1132 103.255 22.1474 103.253 5.4394 103.255 Z M146.949 30.8887 C146.949 30.8887 92.3493 30.8887 92.3493 30.8887 C92.3493 30.8887 92.3493 65.5059 92.3493 65.5059 C111.047 65.5078 128.742 65.5059 147.328 65.5059 C147.543 61.0361 147.66 56.5274 147.662 52.0215 C147.664 43.7461 147.584 38.624 146.949 30.8887 Z M146.275 21.1885 C146.275 21.1885 144.017 5.7256 144.017 5.7256 C143.562 2.6211 140.804 0 137.988 0 C137.988 0 9.413 0 9.413 0 C6.5986 0 3.8388 2.6211 3.3877 5.7266 C3.3877 5.7266 1.0039 24.5068 1.0039 24.5068 C1.0039 24.5068 146.715 24.5068 146.715 24.5068 C146.715 24.5068 146.275 21.1885 146.275 21.1885 Z M0 51.1817 C0 55.9756 0.288 60.7656 0.5273 65.5059 C0.5273 65.5059 55 65.5059 55 65.5059 C55 65.5059 55 30.8887 55 30.8887 C55 30.8887 0.7002 30.8887 0.7002 30.8887 C0.3193 36.4717 0 43.0908 0 51.1817 Z" />
 </g>
 <g transform="translate(33.5947, 27.6064)" style="fill:#0258a3; fill-rule:nonzero; stroke:none; stroke-width:2.269; stroke-linecap:butt; stroke-linejoin:miter; stroke-dasharray:none;" >
  <path d="M7.5371 14.7452 C7.5371 14.7452 1.1963 14.7452 1.1963 14.7452 C0.4766 14.7452 0 14.2657 0.1114 13.6553 C0.1114 13.6553 0.3819 12.1719 0.3819 12.1719 C0.3819 12.1719 6.9785 12.1719 6.9785 12.1719 C7.6192 12.1719 8.211 11.7354 8.3106 11.1895 C8.3106 11.1895 8.5957 9.6192 8.5957 9.6192 C8.6963 9.0743 8.2617 8.6377 7.6211 8.6377 C7.6211 8.6377 4.8741 8.6377 4.8741 8.6377 C2.8477 8.6377 1.4668 7.3282 1.7657 5.6934 C1.7657 5.6934 2.2657 2.9434 2.2657 2.9434 C2.5635 1.3086 4.4199 0 6.4463 0 C6.4463 0 11.8633 0 11.8633 0 C12.5811 0 13.0586 0.4805 12.9473 1.0899 C12.9473 1.0899 12.6778 2.5733 12.6778 2.5733 C12.6778 2.5733 7.0303 2.5733 7.0303 2.5733 C6.3877 2.5733 5.7959 3.0108 5.6963 3.5557 C5.6963 3.5557 5.4199 5.0821 5.4199 5.0821 C5.3194 5.628 5.7539 6.0645 6.3946 6.0645 C6.3946 6.0645 9.1172 6.0645 9.1172 6.0645 C11.1446 6.0645 12.5489 7.3721 12.2491 9.0098 C12.2491 9.0098 11.7422 11.8018 11.7422 11.8018 C11.4453 13.4366 9.5645 14.7452 7.5371 14.7452 " />
 </g>
 <g transform="translate(33.7061, 27.6064)" style="fill:none; stroke:#0258a3; stroke-width:0.597; stroke-linecap:butt; stroke-linejoin:miter; stroke-dasharray:none;" >
  <path d="M7.4257 14.7452 C7.4257 14.7452 1.0849 14.7452 1.0849 14.7452 C1.0849 14.7452 0.5957 14.6602 0.5957 14.6602 C0.5957 14.6602 0.2304 14.4288 0.2304 14.4288 C0.2304 14.4288 0.0205 14.0831 0.0205 14.0831 C0.0205 14.0831 0 13.6553 0 13.6553 C0 13.6553 0.2705 12.1719 0.2705 12.1719 C0.2705 12.1719 6.8671 12.1719 6.8671 12.1719 C6.8671 12.1719 7.331 12.0948 7.331 12.0948 C7.331 12.0948 7.7353 11.8848 7.7353 11.8848 C7.7353 11.8848 8.039 11.5733 8.039 11.5733 C8.039 11.5733 8.1992 11.1895 8.1992 11.1895 C8.1992 11.1895 8.4843 9.6192 8.4843 9.6192 C8.4843 9.6192 8.4638 9.2354 8.4638 9.2354 C8.4638 9.2354 8.2744 8.9239 8.2744 8.9239 C8.2744 8.9239 7.9462 8.7139 7.9462 8.7139 C7.9462 8.7139 7.5097 8.6377 7.5097 8.6377 C7.5097 8.6377 4.7627 8.6377 4.7627 8.6377 C4.7627 8.6377 4.0341 8.5782 4.0341 8.5782 C4.0341 8.5782 3.3798 8.4073 3.3798 8.4073 C3.3798 8.4073 2.8095 8.1368 2.8095 8.1368 C2.8095 8.1368 2.3359 7.7784 2.3359 7.7784 C2.3359 7.7784 1.9716 7.3428 1.9716 7.3428 C1.9716 7.3428 1.7285 6.8428 1.7285 6.8428 C1.7285 6.8428 1.6181 6.2891 1.6181 6.2891 C1.6181 6.2891 1.6543 5.6934 1.6543 5.6934 C1.6543 5.6934 2.1543 2.9434 2.1543 2.9434 C2.1543 2.9434 2.6474 1.793 2.6474 1.793 C2.6474 1.793 3.5957 0.8584 3.5957 0.8584 C3.5957 0.8584 4.8681 0.2295 4.8681 0.2295 C4.8681 0.2295 6.3349 0 6.3349 0 C6.3349 0 11.7519 0 11.7519 0 C11.7519 0 12.2392 0.084 12.2392 0.084 C12.2392 0.084 12.6044 0.3165 12.6044 0.3165 C12.6044 0.3165 12.8144 0.6622 12.8144 0.6622 C12.8144 0.6622 12.8359 1.0899 12.8359 1.0899 C12.8359 1.0899 12.5664 2.5733 12.5664 2.5733 C12.5664 2.5733 6.9189 2.5733 6.9189 2.5733 C6.9189 2.5733 6.4531 2.6495 6.4531 2.6495 C6.4531 2.6495 6.0478 2.8594 6.0478 2.8594 C6.0478 2.8594 5.7441 3.1719 5.7441 3.1719 C5.7441 3.1719 5.5849 3.5557 5.5849 3.5557 C5.5849 3.5557 5.3085 5.0821 5.3085 5.0821 C5.3085 5.0821 5.3281 5.4659 5.3281 5.4659 C5.3281 5.4659 5.5175 5.7774 5.5175 5.7774 C5.5175 5.7774 5.8457 5.9874 5.8457 5.9874 C5.8457 5.9874 6.2832 6.0645 6.2832 6.0645 C6.2832 6.0645 9.0058 6.0645 9.0058 6.0645 C9.0058 6.0645 9.7343 6.1231 9.7343 6.1231 C9.7343 6.1231 10.3925 6.294 10.3925 6.294 C10.3925 6.294 10.9658 6.5645 10.9658 6.5645 C10.9658 6.5645 11.4443 6.9229 11.4443 6.9229 C11.4443 6.9229 11.8125 7.3575 11.8125 7.3575 C11.8125 7.3575 12.0595 7.8584 12.0595 7.8584 C12.0595 7.8584 12.1718 8.4122 12.1718 8.4122 C12.1718 8.4122 12.1377 9.0098 12.1377 9.0098 C12.1377 9.0098 11.6308 11.8018 11.6308 11.8018 C11.6308 11.8018 11.1328 12.9512 11.1328 12.9512 C11.1328 12.9512 10.1767 13.8858 10.1767 13.8858 C10.1767 13.8858 8.8955 14.5147 8.8955 14.5147 C8.8955 14.5147 7.4257 14.7452 7.4257 14.7452 " />
 </g>
 <g transform="translate(59.1533, 27.6064)" style="fill:#0258a3; fill-rule:nonzero; stroke:none; stroke-width:0.597; stroke-linecap:butt; stroke-linejoin:miter; stroke-dasharray:none;" >
  <path d="M10.5947 14.7452 C10.5947 14.7452 9.1582 14.7452 9.1582 14.7452 C9.1582 14.7452 8.6406 13.918 8.6406 13.918 C8.5615 13.7862 8.4678 13.7422 8.3145 13.7422 C7.6983 13.7422 6.1436 14.8125 4.3985 14.8125 C4.3985 14.8125 3.4483 14.8125 3.4483 14.8125 C0.9326 14.8125 0 13.5899 0.3047 11.9092 C0.3047 11.9092 2.2735 1.0899 2.2735 1.0899 C2.3819 0.503 3.0371 0 3.7559 0 C3.7559 0 4.7324 0 4.7324 0 C5.4502 0 5.9278 0.4805 5.8155 1.0899 C5.8155 1.0899 3.9707 11.2344 3.9707 11.2344 C3.876 11.7569 4.2871 12.1719 4.9033 12.1719 C4.9033 12.1719 7.7022 12.1719 7.7022 12.1719 C8.3184 12.1719 8.8799 11.7569 8.9756 11.2344 C8.9756 11.2344 10.8203 1.0899 10.8203 1.0899 C10.9297 0.503 11.585 0 12.3037 0 C12.3037 0 13.2783 0 13.2783 0 C13.9981 0 14.4746 0.4805 14.3623 1.0899 C14.3623 1.0899 12.0772 13.6553 12.0772 13.6553 C11.9658 14.2657 11.3155 14.7452 10.5947 14.7452 " />
 </g>
 <g transform="translate(59.4023, 27.6064)" style="fill:none; stroke:#0258a3; stroke-width:0.597; stroke-linecap:butt; stroke-linejoin:miter; stroke-dasharray:none;" >
  <path d="M10.3457 14.7452 C10.3457 14.7452 8.9092 14.7452 8.9092 14.7452 C8.9092 14.7452 8.3916 13.918 8.3916 13.918 C8.3916 13.918 8.0655 13.7422 8.0655 13.7422 C8.0655 13.7422 7.4385 13.9092 7.4385 13.9092 C7.4385 13.9092 6.5303 14.2774 6.5303 14.2774 C6.5303 14.2774 5.4102 14.6446 5.4102 14.6446 C5.4102 14.6446 4.1495 14.8125 4.1495 14.8125 C4.1495 14.8125 3.1993 14.8125 3.1993 14.8125 C3.1993 14.8125 2.3291 14.7559 2.3291 14.7559 C2.3291 14.7559 1.6036 14.5948 1.6036 14.5948 C1.6036 14.5948 1.0186 14.337 1.0186 14.337 C1.0186 14.337 0.5694 13.9903 0.5694 13.9903 C0.5694 13.9903 0.253 13.5655 0.253 13.5655 C0.253 13.5655 0.0645 13.0713 0.0645 13.0713 C0.0645 13.0713 0 12.5157 0 12.5157 C0 12.5157 0.0557 11.9092 0.0557 11.9092 C0.0557 11.9092 2.0245 1.0899 2.0245 1.0899 C2.0245 1.0899 2.2002 0.6719 2.2002 0.6719 C2.2002 0.6719 2.5362 0.3243 2.5362 0.3243 C2.5362 0.3243 2.9864 0.087 2.9864 0.087 C2.9864 0.087 3.5069 0 3.5069 0 C3.5069 0 4.4834 0 4.4834 0 C4.4834 0 4.9707 0.084 4.9707 0.084 C4.9707 0.084 5.336 0.3165 5.336 0.3165 C5.336 0.3165 5.545 0.6622 5.545 0.6622 C5.545 0.6622 5.5665 1.0899 5.5665 1.0899 C5.5665 1.0899 3.7217 11.2344 3.7217 11.2344 C3.7217 11.2344 3.7403 11.6006 3.7403 11.6006 C3.7403 11.6006 3.9209 11.8985 3.9209 11.8985 C3.9209 11.8985 4.2344 12.0987 4.2344 12.0987 C4.2344 12.0987 4.6543 12.1719 4.6543 12.1719 C4.6543 12.1719 7.4532 12.1719 7.4532 12.1719 C7.4532 12.1719 7.8985 12.0987 7.8985 12.0987 C7.8985 12.0987 8.2842 11.8985 8.2842 11.8985 C8.2842 11.8985 8.5733 11.6006 8.5733 11.6006 C8.5733 11.6006 8.7266 11.2344 8.7266 11.2344 C8.7266 11.2344 10.5713 1.0899 10.5713 1.0899 C10.5713 1.0899 10.7481 0.6719 10.7481 0.6719 C10.7481 0.6719 11.084 0.3243 11.084 0.3243 C11.084 0.3243 11.5342 0.087 11.5342 0.087 C11.5342 0.087 12.0547 0 12.0547 0 C12.0547 0 13.0293 0 13.0293 0 C13.0293 0 13.5176 0.084 13.5176 0.084 C13.5176 0.084 13.8829 0.3165 13.8829 0.3165 C13.8829 0.3165 14.0918 0.6622 14.0918 0.6622 C14.0918 0.6622 14.1133 1.0899 14.1133 1.0899 C14.1133 1.0899 11.8282 13.6553 11.8282 13.6553 C11.8282 13.6553 11.6504 14.0831 11.6504 14.0831 C11.6504 14.0831 11.3155 14.4288 11.3155 14.4288 C11.3155 14.4288 10.8653 14.6602 10.8653 14.6602 C10.8653 14.6602 10.3457 14.7452 10.3457 14.7452 " />
 </g>
 <g transform="translate(86.1563, 27.6064)" style="fill:#0258a3; fill-rule:nonzero; stroke:none; stroke-width:0.597; stroke-linecap:butt; stroke-linejoin:miter; stroke-dasharray:none;" >
  <path d="M10.7578 3.5557 C10.8574 3.0108 10.4218 2.5743 9.7792 2.5743 C9.7792 2.5743 6.6738 2.5743 6.6738 2.5743 C6.0332 2.5743 5.4414 3.0108 5.3417 3.5557 C5.3417 3.5557 3.9511 11.1895 3.9511 11.1895 C3.8535 11.7354 4.2871 12.1719 4.9267 12.1719 C4.9267 12.1719 8.0332 12.1719 8.0332 12.1719 C8.6777 12.1719 9.2675 11.7354 9.3671 11.1895 C9.3671 11.1895 10.7578 3.5557 10.7578 3.5557 Z M8.5937 14.7452 C8.5937 14.7452 3.4072 14.7452 3.4072 14.7452 C1.3798 14.7452 0 13.4366 0.2978 11.8018 C0.2978 11.8018 1.9091 2.9434 1.9091 2.9434 C2.207 1.3096 4.0625 0 6.0908 0 C6.0908 0 11.2753 0 11.2753 0 C13.3046 0 14.7087 1.3096 14.4117 2.9434 C14.4117 2.9434 12.8007 11.8018 12.8007 11.8018 C12.5019 13.4366 10.621 14.7452 8.5937 14.7452 Z" />
 </g>
 <g transform="translate(90.1074, 30.1807)" style="fill:none; stroke:#0258a3; stroke-width:0.597; stroke-linecap:butt; stroke-linejoin:miter; stroke-dasharray:none;" >
  <path d="M6.8067 0.9814 C6.8067 0.9814 6.7862 0.5976 6.7862 0.5976 C6.7862 0.5976 6.5957 0.2861 6.5957 0.2861 C6.5957 0.2861 6.2656 0.0761 6.2656 0.0761 C6.2656 0.0761 5.8281 0 5.8281 0 C5.8281 0 2.7227 0 2.7227 0 C2.7227 0 2.2578 0.0761 2.2578 0.0761 C2.2578 0.0761 1.8535 0.2861 1.8535 0.2861 C1.8535 0.2861 1.5498 0.5976 1.5498 0.5976 C1.5498 0.5976 1.3906 0.9814 1.3906 0.9814 C1.3906 0.9814 0 8.6152 0 8.6152 C0 8.6152 0.0205 8.999 0.0205 8.999 C0.0205 8.999 0.211 9.3105 0.211 9.3105 C0.211 9.3105 0.5391 9.5205 0.5391 9.5205 C0.5391 9.5205 0.9756 9.5976 0.9756 9.5976 C0.9756 9.5976 4.0821 9.5976 4.0821 9.5976 C4.0821 9.5976 4.5479 9.5205 4.5479 9.5205 C4.5479 9.5205 4.9531 9.3105 4.9531 9.3105 C4.9531 9.3105 5.2559 8.999 5.2559 8.999 C5.2559 8.999 5.416 8.6152 5.416 8.6152 C5.416 8.6152 6.8067 0.9814 6.8067 0.9814 " />
 </g>
 <g transform="translate(86.4189, 27.6064)" style="fill:none; stroke:#0258a3; stroke-width:0.597; stroke-linecap:butt; stroke-linejoin:miter; stroke-dasharray:none;" >
  <path d="M8.3311 14.7452 C8.3311 14.7452 3.1456 14.7452 3.1456 14.7452 C3.1456 14.7452 2.417 14.6856 2.417 14.6856 C2.417 14.6856 1.7618 14.5147 1.7618 14.5147 C1.7618 14.5147 1.1915 14.2442 1.1915 14.2442 C1.1915 14.2442 0.7178 13.8858 0.7178 13.8858 C0.7178 13.8858 0.3536 13.4512 0.3536 13.4512 C0.3536 13.4512 0.1104 12.9512 0.1104 12.9512 C0.1104 12.9512 0 12.3975 0 12.3975 C0 12.3975 0.0352 11.8018 0.0352 11.8018 C0.0352 11.8018 1.6465 2.9434 1.6465 2.9434 C1.6465 2.9434 2.1397 1.793 2.1397 1.793 C2.1397 1.793 3.0889 0.8584 3.0889 0.8584 C3.0889 0.8584 4.3614 0.2295 4.3614 0.2295 C4.3614 0.2295 5.8291 0 5.8291 0 C5.8291 0 11.0127 0 11.0127 0 C11.0127 0 11.7422 0.0586 11.7422 0.0586 C11.7422 0.0586 12.4004 0.2295 12.4004 0.2295 C12.4004 0.2295 12.9747 0.5 12.9747 0.5 C12.9747 0.5 13.4532 0.8584 13.4532 0.8584 C13.4532 0.8584 13.8221 1.293 13.8221 1.293 C13.8221 1.293 14.0691 1.793 14.0691 1.793 C14.0691 1.793 14.1831 2.3467 14.1831 2.3467 C14.1831 2.3467 14.1491 2.9434 14.1491 2.9434 C14.1491 2.9434 12.5381 11.8018 12.5381 11.8018 C12.5381 11.8018 12.0391 12.9512 12.0391 12.9512 C12.0391 12.9512 11.0821 13.8858 11.0821 13.8858 C11.0821 13.8858 9.8008 14.5147 9.8008 14.5147 C9.8008 14.5147 8.3311 14.7452 8.3311 14.7452 " />
 </g>
 <g transform="translate(113.393, 27.6064)" style="fill:#0258a3; fill-rule:nonzero; stroke:none; stroke-width:0.597; stroke-linecap:butt; stroke-linejoin:miter; stroke-dasharray:none;" >
  <path d="M12.773 14.7452 C12.773 14.7452 11.798 14.7452 11.798 14.7452 C11.08 14.7452 10.601 14.2657 10.712 13.6553 C10.712 13.6553 12.259 5.1485 12.259 5.1485 C12.259 5.1485 9.697 7.5254 9.697 7.5254 C9.543 7.6788 9.054 8.0928 8.361 8.0928 C8.361 8.0928 8.029 8.0928 8.029 8.0928 C7.336 8.0928 7.002 7.6788 6.9 7.5254 C6.9 7.5254 5.203 5.1485 5.203 5.1485 C5.203 5.1485 3.654 13.6553 3.654 13.6553 C3.543 14.2657 2.89 14.7452 2.171 14.7452 C2.171 14.7452 1.197 14.7452 1.197 14.7452 C0.478 14.7452 0 14.2657 0.111 13.6553 C0.111 13.6553 2.398 1.0899 2.398 1.0899 C2.505 0.503 3.162 0 3.878 0 C3.878 0 4.724 0 4.724 0 C5.189 0 5.509 0.2178 5.712 0.503 C5.712 0.503 8.783 4.7989 8.783 4.7989 C8.783 4.7989 13.439 0.503 13.439 0.503 C13.75 0.2178 14.146 0 14.609 0 C14.609 0 16.74 0 16.74 0 C16.74 0 14.255 13.6553 14.255 13.6553 C14.142 14.2657 13.492 14.7452 12.773 14.7452 " />
 </g>
 <g transform="translate(113.504, 27.6064)" style="fill:none; stroke:#0258a3; stroke-width:0.597; stroke-linecap:butt; stroke-linejoin:miter; stroke-dasharray:none;" >
  <path d="M12.662 14.7452 C12.662 14.7452 11.687 14.7452 11.687 14.7452 C11.687 14.7452 11.198 14.6602 11.198 14.6602 C11.198 14.6602 10.833 14.4288 10.833 14.4288 C10.833 14.4288 10.623 14.0831 10.623 14.0831 C10.623 14.0831 10.601 13.6553 10.601 13.6553 C10.601 13.6553 12.148 5.1485 12.148 5.1485 C12.148 5.1485 9.586 7.5254 9.586 7.5254 C9.586 7.5254 9.409 7.6788 9.409 7.6788 C9.409 7.6788 9.12 7.8663 9.12 7.8663 C9.12 7.8663 8.729 8.0254 8.729 8.0254 C8.729 8.0254 8.25 8.0928 8.25 8.0928 C8.25 8.0928 7.918 8.0928 7.918 8.0928 C7.918 8.0928 7.463 8.0254 7.463 8.0254 C7.463 8.0254 7.131 7.8663 7.131 7.8663 C7.131 7.8663 6.91 7.6788 6.91 7.6788 C6.91 7.6788 6.789 7.5254 6.789 7.5254 C6.789 7.5254 5.092 5.1485 5.092 5.1485 C5.092 5.1485 3.543 13.6553 3.543 13.6553 C3.543 13.6553 3.365 14.0831 3.365 14.0831 C3.365 14.0831 3.029 14.4288 3.029 14.4288 C3.029 14.4288 2.579 14.6602 2.579 14.6602 C2.579 14.6602 2.06 14.7452 2.06 14.7452 C2.06 14.7452 1.086 14.7452 1.086 14.7452 C1.086 14.7452 0.597 14.6602 0.597 14.6602 C0.597 14.6602 0.231 14.4288 0.231 14.4288 C0.231 14.4288 0.021 14.0831 0.021 14.0831 C0.021 14.0831 0 13.6553 0 13.6553 C0 13.6553 2.287 1.0899 2.287 1.0899 C2.287 1.0899 2.463 0.6719 2.463 0.6719 C2.463 0.6719 2.799 0.3243 2.799 0.3243 C2.799 0.3243 3.248 0.087 3.248 0.087 C3.248 0.087 3.767 0 3.767 0 C3.767 0 4.613 0 4.613 0 C4.613 0 5.205 0.1446 5.205 0.1446 C5.205 0.1446 5.601 0.503 5.601 0.503 C5.601 0.503 8.672 4.7989 8.672 4.7989 C8.672 4.7989 13.328 0.503 13.328 0.503 C13.328 0.503 13.855 0.1446 13.855 0.1446 C13.855 0.1446 14.498 0 14.498 0 C14.498 0 16.629 0 16.629 0 C16.629 0 14.144 13.6553 14.144 13.6553 C14.144 13.6553 13.966 14.0831 13.966 14.0831 C13.966 14.0831 13.63 14.4288 13.63 14.4288 C13.63 14.4288 13.181 14.6602 13.181 14.6602 C13.181 14.6602 12.662 14.7452 12.662 14.7452 " />
 </g>
 <g transform="translate(142.682, 27.6064)" style="fill:#0258a3; fill-rule:nonzero; stroke:none; stroke-width:0.597; stroke-linecap:butt; stroke-linejoin:miter; stroke-dasharray:none;" >
  <path d="M2.172 14.7452 C2.172 14.7452 1.193 14.7452 1.193 14.7452 C0.476 14.7452 0 14.2657 0.111 13.6553 C0.111 13.6553 2.396 1.0899 2.396 1.0899 C2.504 0.503 3.16 0 3.877 0 C3.877 0 4.853 0 4.853 0 C5.572 0 6.05 0.4805 5.937 1.0899 C5.937 1.0899 3.65 13.6553 3.65 13.6553 C3.541 14.2657 2.888 14.7452 2.172 14.7452 " />
 </g>
 <g transform="translate(142.793, 27.6064)" style="fill:none; stroke:#0258a3; stroke-width:0.597; stroke-linecap:butt; stroke-linejoin:miter; stroke-dasharray:none;" >
  <path d="M2.061 14.7452 C2.061 14.7452 1.082 14.7452 1.082 14.7452 C1.082 14.7452 0.595 14.6602 0.595 14.6602 C0.595 14.6602 0.23 14.4288 0.23 14.4288 C0.23 14.4288 0.02 14.0831 0.02 14.0831 C0.02 14.0831 0 13.6553 0 13.6553 C0 13.6553 2.285 1.0899 2.285 1.0899 C2.285 1.0899 2.461 0.6719 2.461 0.6719 C2.461 0.6719 2.797 0.3243 2.797 0.3243 C2.797 0.3243 3.246 0.087 3.246 0.087 C3.246 0.087 3.766 0 3.766 0 C3.766 0 4.742 0 4.742 0 C4.742 0 5.23 0.084 5.23 0.084 C5.23 0.084 5.596 0.3165 5.596 0.3165 C5.596 0.3165 5.806 0.6622 5.806 0.6622 C5.806 0.6622 5.826 1.0899 5.826 1.0899 C5.826 1.0899 3.539 13.6553 3.539 13.6553 C3.539 13.6553 3.362 14.0831 3.362 14.0831 C3.362 14.0831 3.027 14.4288 3.027 14.4288 C3.027 14.4288 2.578 14.6602 2.578 14.6602 C2.578 14.6602 2.061 14.7452 2.061 14.7452 " />
 </g>
</svg>
