<svg xmlns="http://www.w3.org/2000/svg" width="512pt" height="512pt" style="isolation:isolate" viewBox="0 0 512 512"><defs><clipPath id="a"><path d="M0 0h512v512H0z"/></clipPath></defs><g clip-path="url(#a)"><path d="M153.001 434.335c-19.505-15.341-40.311-30.049-54.528-50.761-29.917-36.524-52.951-78.812-68.698-123.25-9.518-28.897-12.778-59.877-25.048-87.657-12.835-20.176 2.2-42.232 24.301-48.646 9.839-1.888 27.141-11.169 6.256-4.536-18.723 13.737-20.535-12.469-1.336-14.129 13.103-1.741 17.927-12.468 13.446-22.124C33.329 74.06 81.5 63.98 57.262 50.294 32.013 23.053 92.58 17.809 77.637 48.746c-3.577 23.79 42.322-4.36 31.673 23.112 10.824 13.193 40.533 3.003 39.796 21.511 15.768 1.084 21.18 14.351 35.982 15.37 15.341 6.928 43.151 12.387 48.371 29.674-15.22 12.05-50.463-24.889-52.156 8.465 4.597 49.272 3.426 100.029 21.453 146.95 8.527 28.412 29.198 50.777 47.866 72.905 17.862 21.671 42.056 36.927 66.716 49.773 21.632 10.202 44.954 16.969 68.529 21.215 9.562-7.314 26.444-34.506 41.361-23.04.708 12.884-29.607 26.932-1.426 25.508 16.547-4.992 28.025 12.797 41.651-3.249 12.555 14.871 52.181-9.501 43.248 20.895-12.078 7.793-29.695 3.084-41.793 13.804-19.948-9.963-35.829 8.915-57.913 6.528-24.524 4.392-49.474 6.166-74.338 6.204-40.79-3.223-82.445-4.581-121.25-18.783-21.86-6.352-43.193-18.8-62.406-31.253Zm34.45 14.927c21.346 9.231 42.218 18.96 65.611 21.895 37.114 5.162 75.442 13.101 112.689 5.859-16.858-7.612-34.286 2.965-51.08-5.443-20.142 4.334-41.758-1.104-62.235-3.782-23.285-10.372-48.415-17.505-70.221-30.968-27.248-9.952 14.092 12.763 21.451 14.603 17.033 9.668-18.732-4.956-23.774-8.975-14.266-8.003-16.084-6.331-1.412 1.796 2.955 1.73 5.875 3.542 8.971 5.015Zm-40.617-28.704c20.684 7.661-.092-14.546-9.57-13.256-4.2-7.285-16.044-11.888-7.689-15.802-15.03 5.218-15.744-19.842-22.809-16.261-15.901-5.021-6.189-22.807-25.129-33.729-1.729-11.509-18.818-21.491-24.268-38.851-2.408-8.888-19.307-34.412-8.926-10.658 8.84 22.867 24.392 42.449 37.334 62.01 10.049 18.623 21.916 38.087 40.218 49.705 6.169 5.918 12.126 14.987 20.839 16.842Zm91.127 38.471c8.471 5.346 49.469 11.718 23.797 2.192-4.296.906-47.602-12.249-23.797-2.192Zm-93.641-76.027c9.941 7.623 40.09.977 15.224-4.551-11.318-6.033-36.825-10.162-19.439 3.638l4.215.913Zm48.121 25.496c24.307 6.876-20.44-15.371-5.997-2.53l3.201 1.449 2.796 1.082v-.001Zm42.114 24.341c23.02.22-20.792-3.173 0 0Zm-41.908-37.22c17.658 2.276-21.01-12.011-3.874-1.279l3.874 1.279Zm61.37 37.734c16.486-9.855 11.051 23.08 27.97 2.783 16.688-12.185-14.412 15.064 6.156 2.172 14.874-9.948 36.845 4.716 50.724 9.501 9.982-.49 19.685 8.631 29.917 3.082 19.698-5.305-38.518-7.869-23.257-17.282-18.024 5.246-31.34-6.254-40.209-17.798-20.217-4.668-43.592-15.004-53.682-32.896-4.113-6.717 5.943.947-3.551-10.034-12.182-10.835-18.265-23.135-26.443-36.306-9.77-5.212-10.908-20.553-11.896-.515.078-12.646-11.795-21.158-14.693-17.62-.052-12.179 12.706-6.074 3.775-15.085-1.922-12.623-8.252-25.777-10.154-40.03-2.956-6.87-.416-21.584-10.089-6.031-3.523 16.436-1.169-20.199 4.311-8.118 7.192-12.328-2.582-10.878-2.983-9.166 4.685-10.401 2.966-25.154-1.222-19.526 2.496-11.024 3.944-40.571-3.737-35.335 4.656-11.528 8.83-52.749-11.382-37.033-8.192.115-22.377 2.974-29.082 6.309 21.024 11.589-2.115 4.185-10.673 2.343-1.115 10.723-9.592 6.086-20.182 6.191 16.915 2.092-8.237 17.299-17.941 11.392-12.602 6.023 10.876 21.058.253 25.706 1.306 7.009-19.306-2.53-17.687 13.654-12.235-5.147-1.685 19.199 4.436 10.965 20.808 5.632 14.648 18.471 15.178 30.667-3.39 7.107-16.739-16.704-2.973-15.602-10.86-17.642-12.013-6.376-21.037 1.819-2.1.595 23.019 11.661 7.256 17.133 13.868 2.14 14.263 14.276 17.086 21.956 8.335 8.682 6.629-9.587 16.603.847-6.311-9.295-33.431-26.19-11.596-20.772-.117-9.355-3.949-16.899 2.741-16.716 6.624-11.997-6.938 29.58 7.994 14.333 4.133-1.805 5.157-12.013 12.587.964 10.792 10.616 3.898 18.308-11.325 8.588 2.724 9.239 20.364 12.54 17.049 26.989 3.515 12.707 8.432 8.027 12.717 7.292 3.362 12.347 5.272 3.268 5.431-2.608 15.394 3.296 11.788 12.395 16.605 18.753 10.607 4.788-15.183-32.455 3.028-11.199 19.16 17.299 7.186 24.52-10.009 21.749 10.883-.88 14.392 14.712 28.005 14.164 12.413 5.906 20.817 28.587-.579 19.145-7.421-6.691-33.683-14.946-12.233-2.218 19.811 9.174 35.545 14.662 54.652 26.178 13.674 9.762 19.582 20.943 24.765 23.156-11.493 5.489-34.634-4.384-17.45-7.409-10.718-1.953-22.774-7.373-12.507 5.982 8.729 7.288 30.927 6.516 34.907 7.342-3.373 7.432-9.162 8.023.138 8.6-10.376 5.529 3.327 6.385 4.288 9.544ZM232.8 373.438c-6.312-6.602-7.944-18.967-1.12-8.207 3.499 1.405 11.209 20.206 1.121 8.207h-.001Zm-40.456-66.627c-7.522-16.854 5.326-9.206 1.664 2.762l-1.664-2.762Zm-69.25-46.183c-3.363-5.53-8.926-21.753-7.135-26.705 1.62 8.065 17.152 34.711 7.618 11.037-10.535-19.844 12.594 6.442 14.973 11.391 1.108 4.924-6.5-1.345-1.345 10.2-9.401-13.144-5.55 7.261-14.111-5.923Zm-34.933-29.349c-7.969-7.917-13.735-15.216.372-4.914 5.436.212-12.077-16.598 1.309-5.338 14.076 2.567 6.951 23.079-1.681 10.252Zm4.769-12.138c-23.164-20.614 29.107 10.779 3.785 3.822l-3.785-3.822Zm66.369 38.562c-10.024-6.011-2.657-42.312.762-17.485 9.744-3.152-.538 12.823 6.73 12.675-1.146 10.079-4.397 13.702-7.492 4.81Zm-61.825-45.336c-14.881-20.531 43.249 20.769 9.532 5.208-3.524-.922-7.763-1.251-9.532-5.208Zm47.272 25.063c-1.409-17.288 3.145 2.866-.001 0h.001Zm-44.992-32.899c8.844-1.891 36.653 15.533 11.116 4.978-2.838-3.142-8.886-1.714-11.116-4.978Zm75.951 37.854c.945-17.677 5.28-10.559.032 2.531l-.032-2.53v-.001Zm-69.367-44.005c3.603-5.286-9.567-23.899 1.898-6.677 4.954 3.937 14.343 6.594 6.053 8.25 13.038 11.502-3.18 3.117-7.951-1.573Zm50.951 1.413c-1.125-6.831 3.823 8.581 0 0Zm6.696-10.884c-4.598-8.102 5.806-35.706 6.967-18.587-4.853 13.34-1.4 20.802 1.985 2.91 6.252-14.081-1.35 27.786-8.953 15.677h.001Zm19.061 197.34c13.167 3.378 13.099-2.049 1.199-3.661-6.401-5.955-26.598-12.271-8.52-.739 1.197 3.033 4.98 2.962 7.321 4.4Zm-46.75-31.051c7.254 5.409 27.323 15.331 10.334 2.059 5.728-6.655-10.963-10.197-5.426-14.649-14.084-8.618-11.11-7.851-1.244-7.58-16.925-7.566 2.444-7 1.532-10.876-6.527-1.289-32.417-11.508-17.186.839-15.484-7.894-3.69 2.941-8.37 1.796-15.833-4.317 14.1 12.058-2.514 7.993 9.083 7.198 24.449 18.438 3.84 7.618-2.716 3.908 14.748 9.833 19.034 12.8Zm164.515 96.479c6.945-6.729.284 10.72 11.508-1.647.121-8.853-.346-14.083-12.898-3.328-3.46 1.919-5.005 10.078 1.39 4.975Zm-113.73-73.019c7.725 6.862 35.482 5.035 9.383.845-3.866-5.716-24.545-4.34-9.383-.845Zm133.543 79.69c13.167-13.951-12.759.825 0 0ZM59.833 293.183c-11.223-16.012-6.976-23.21-17.799-36.284-2.048-9.998-18.565-32.685-8.543-8.65 9.181 14.058 11.909 35.822 26.342 44.934Zm271.292 163.028c11.745-7.573-2.706-6.411-2.129.696l2.129-.696Zm18.847 5.118c15.047-10.855-9.122-2.079-3.159 2.056l3.159-2.056ZM97.468 300.4c11.032 2.471 44.088 27.169 24.586 1.708-9.987-2.957-3.997-27.371-14.185-23.05 6.838 11.423 5.626 16.285-8.731 9.083-18.043-8.808-10.14 4.365-6.613 7.996-4.806 1.092 6.356 4.171 4.943 4.263Zm-50.262-39.695c1.975-8.169-18.186-44.94-9.521-18.425 3.128 5.554 2.81 16.081 9.521 18.425Zm227.47 136.555c-2.312-5.912-9.139-.137.001 0h-.001Zm117.659 53.955c10.919-2.214 35.8 5.557 39.821-2.895-13.259-.322-45.873-9.355-47.417 2.155l2.903.458 4.693.282ZM52.239 213.774c11.009-4.325-20.054-8.946-2.25-.817l2.25.817Zm-34.382-38.465c-1.99-11.408-1.718-31.431 17.316-24.664-25.407 5.044 17.584 31.578 12.155 10.628 10.683.523 20.899-6.313 15.293 4.062 21.048-2.325 35.641-20.577 55.973-18.02 15.838-2.095 33.154-3.685 50.221-10.06 14.032-1.011 27.54-16.119 19.849-25.074-19.136-1.619-39.168.776-60.318 4.98-23.438 4.872-44.727 14.129-68.375 18.103-23.05 3.096 4.637 8.531-1.966 9.741-12.028 4.174 14.344 6.988-1.559 11.388-9.822-1.868-20.045-5.243-15.85-15.593-22.079 2.865-41.481 12.029-24.037 34.498l1.298.01v.001Zm53.204-27.097c5.177-19.072 27.735 15.693 8.485 2.533-2.299-1.721-6.08-3.124-8.485-2.533Zm10.495-9.096c.674-8.776 21.718 4.646 3.47 3.159l-3.47-3.159Zm16.298-7.441c7.891-9.482 44.69-6.052 17.755-.925-7.22-5.435-12.754 3.205-17.755.925Zm61.65-7.477c4.982-13.055 19.333-5.239 2.305-2.624.37 1.389-.499 6.74-2.305 2.624ZM49.526 193.427c14.886-9.115-15.802-7.908 0 0Zm430.39 257.953c11.892.04 36.032-3.693 10.157-3.681-4.06.633-23.658.497-10.157 3.681ZM70.214 191.136c9.624-.661 15.057-10.616-1.862-10.044-26.221-2.715 23.135 8.978-3.363 5.635-3.561 2.358 5.018 5.061 5.225 4.409Zm-13.477-76.022c17.176-5.844 40.665-12.409 48.775 2.877-8.254-9.934-3.331-19.714 4.464-5.189 11.024 14.695 16.542-6.684 9.372-11.613 8.171 10.151 17.464 14.949 5.471.641 13.032-15.676-26.095 2.053-34.988 1.875-4.279 1.92-44.177 10.175-33.094 11.409Zm10.066-19.279c9.796-7.393 33.879 4.398 18.425-7.348-1.511-1.334-33.844 8.907-18.425 7.348Zm35.713 1.474c11.464.293-4.945-15.401 8.716-8.29-2.244-7.329-15.906-8.702-22.585-11.63-3.778 6.701 7.69 20.011 13.869 19.92ZM87.662 68.385c18.475-2.45-4.71-7.956-3.723-.197l3.723.197ZM60.407 47.06c-13.008-16.982 24.465 2.854 11.248-14.926-11.124-8.858-21.813 9.968-11.248 14.926Zm166.945 89.921c5.967-10.577-24.633-14.257-4.02-3.749 1.898.634 1.469 4.48 4.02 3.749Z"/></g></svg>