<?xml version="1.0" encoding="UTF-8" standalone="no"?>
<!-- Created with Inkscape (http://www.inkscape.org/) -->

<svg
   xmlns:dc="http://purl.org/dc/elements/1.1/"
   xmlns:cc="http://creativecommons.org/ns#"
   xmlns:rdf="http://www.w3.org/1999/02/22-rdf-syntax-ns#"
   xmlns:svg="http://www.w3.org/2000/svg"
   xmlns="http://www.w3.org/2000/svg"
   xmlns:sodipodi="http://sodipodi.sourceforge.net/DTD/sodipodi-0.dtd"
   xmlns:inkscape="http://www.inkscape.org/namespaces/inkscape"
   width="119.09867"
   height="119.11053"
   viewBox="0 0 31.511524 31.514661"
   version="1.1"
   id="svg8125"
   inkscape:version="0.92.0 r15299"
   sodipodi:docname="fleetwood town fc.svg">
  <defs
     id="defs8119">
    <clipPath
       id="clipPath7692"
       clipPathUnits="userSpaceOnUse">
      <path
         inkscape:connector-curvature="0"
         id="path7690"
         d="m 493.236,25.72 h 88.574 v 88.583 h -88.574 z" />
    </clipPath>
    <clipPath
       id="clipPath7460"
       clipPathUnits="userSpaceOnUse">
      <path
         inkscape:connector-curvature="0"
         id="path7458"
         d="m 493.228,25.72 h 88.583 v 88.583 h -88.583 z" />
    </clipPath>
    <clipPath
       id="clipPath7692-0"
       clipPathUnits="userSpaceOnUse">
      <path
         inkscape:connector-curvature="0"
         id="path7690-3"
         d="m 493.236,25.72 h 88.574 v 88.583 h -88.574 z" />
    </clipPath>
    <clipPath
       id="clipPath7460-1"
       clipPathUnits="userSpaceOnUse">
      <path
         inkscape:connector-curvature="0"
         id="path7458-9"
         d="m 493.228,25.72 h 88.583 v 88.583 h -88.583 z" />
    </clipPath>
  </defs>
  <sodipodi:namedview
     id="base"
     pagecolor="#ffffff"
     bordercolor="#666666"
     borderopacity="1.0"
     inkscape:pageopacity="0.0"
     inkscape:pageshadow="2"
     inkscape:zoom="4.5127221"
     inkscape:cx="59.049332"
     inkscape:cy="59.055265"
     inkscape:document-units="mm"
     inkscape:current-layer="layer1"
     showgrid="false"
     fit-margin-top="0"
     fit-margin-left="0"
     fit-margin-right="0"
     fit-margin-bottom="0"
     units="px"
     inkscape:window-width="1280"
     inkscape:window-height="744"
     inkscape:window-x="-4"
     inkscape:window-y="-4"
     inkscape:window-maximized="1" />
  <metadata
     id="metadata8122">
    <rdf:RDF>
      <cc:Work
         rdf:about="">
        <dc:format>image/svg+xml</dc:format>
        <dc:type
           rdf:resource="http://purl.org/dc/dcmitype/StillImage" />
        <dc:title></dc:title>
      </cc:Work>
    </rdf:RDF>
  </metadata>
  <g
     inkscape:label="Layer 1"
     inkscape:groupmode="layer"
     id="layer1"
     transform="translate(-75.312499,-173.81649)">
    <g
       id="g9043"
       transform="translate(0.13229242,-0.13229294)">
      <g
         transform="matrix(0.35277777,0,0,-0.35277777,-98.690197,214.40463)"
         id="g7454">
        <g
           clip-path="url(#clipPath7460-1)"
           id="g7456">
          <g
             transform="translate(581.2,69.9191)"
             id="g7462">
            <path
               inkscape:connector-curvature="0"
               id="path7464"
               style="fill:#d91920;fill-opacity:1;fill-rule:nonzero;stroke:none"
               d="m 0,0 c 0,-24.022 -19.577,-43.495 -43.727,-43.495 -24.149,0 -43.726,19.473 -43.726,43.495 0,24.022 19.577,43.495 43.726,43.495 C -19.577,43.495 0,24.022 0,0" />
          </g>
          <g
             transform="translate(555.2674,55.5123)"
             id="g7466">
            <path
               inkscape:connector-curvature="0"
               id="path7468"
               style="fill:#231f20;fill-opacity:1;fill-rule:nonzero;stroke:none"
               d="m 0,0 0.823,-4.154 c 0,0 -2.099,-0.746 -6.54,-0.822 -9.707,-0.164 -8.967,6.334 -8.967,6.334 l -0.534,20.73 8.76,1.049 0.309,2.838 -8.884,0.74 -0.466,7.828 c 0.81,0.64 1.33,1.63 1.33,2.743 0,1.93 -1.566,3.496 -3.496,3.496 -1.931,0 -3.496,-1.566 -3.496,-3.496 0,-1.158 0.563,-2.184 1.43,-2.821 l -0.207,-7.688 -9.162,-0.71 0.062,-2.838 9.069,-1.018 -0.575,-20.853 c 0,0 0.74,-6.498 -8.967,-6.334 -4.441,0.076 -6.54,0.822 -6.54,0.822 l 0.823,4.154 -11.311,-0.616 0.165,-4.853 5.079,-7.466 2.818,3.764 c 0,0 3.29,-3.62 9.624,-3.537 7.156,0.093 10.447,2.55 10.447,2.55 l 10e-4,0.164 h 1.582 l 0.001,-0.164 c 0,0 3.291,-2.457 10.447,-2.55 6.334,-0.083 9.624,3.537 9.624,3.537 l 3.209,-3.537 4.688,7.239 0.165,4.853 z" />
          </g>
          <g
             transform="translate(526.1985,79.3893)"
             id="g7470">
            <path
               inkscape:connector-curvature="0"
               id="path7472"
               style="fill:#231f20;fill-opacity:1;fill-rule:nonzero;stroke:none"
               d="m 0,0 9.162,-0.37 -0.031,-1.265 -9.1,0.864 z" />
          </g>
          <g
             transform="translate(538.7535,89.3223)"
             id="g7474">
            <path
               inkscape:connector-curvature="0"
               id="path7476"
               style="fill:#ffffff;fill-opacity:1;fill-rule:nonzero;stroke:none"
               d="M 0,0 0.596,-0.288 0.925,-7.445 9.974,-8.144 9.748,-9.933 1.357,-10.241 1.882,-32.668 c 0,0 -0.422,-5.173 6.529,-5.953 6.505,-0.731 10.776,1.85 10.776,1.85 l -1.768,2.426 10.035,-0.493 -4.483,-6.828 -2.632,3.127 c 0,0 -6.828,-4.73 -13.943,-2.961 -5.945,1.477 -7.198,3.619 -7.198,8.39 C -0.802,-28.339 0,0 0,0" />
          </g>
          <g
             transform="translate(509.1604,54.2587)"
             id="g7478">
            <path
               inkscape:connector-curvature="0"
               id="path7480"
               style="fill:#ffffff;fill-opacity:1;fill-rule:nonzero;stroke:none"
               d="m 0,0 0.164,-3.99 4.669,-6.766 2.735,3.64 c 0,0 3.206,-3.767 9.193,-3.886 6.169,-0.124 10.241,2.241 10.241,2.241 l -4.956,2.53 c 0,0 -4.792,-1.738 -10.036,-0.473 -2.109,0.509 -5.059,2.498 -5.059,2.498 L 5.203,-6.458 Z" />
          </g>
          <g
             transform="translate(519.4841,54.6906)"
             id="g7482">
            <path
               inkscape:connector-curvature="0"
               id="path7484"
               style="fill:#ffffff;fill-opacity:1;fill-rule:nonzero;stroke:none"
               d="m 0,0 -1.769,-2.478 c 0,0 0.216,-0.216 0.571,-0.417 0.295,-0.166 0.561,-0.272 0.561,-0.272 z" />
          </g>
          <g
             transform="translate(540.1417,79.0346)"
             id="g7486">
            <path
               inkscape:connector-curvature="0"
               id="path7488"
               style="fill:#231f20;fill-opacity:1;fill-rule:nonzero;stroke:none"
               d="m 0,0 0.422,-22.662 c 0.001,-0.085 0.049,-2.148 1.851,-3.819 1.658,-1.537 4.215,-2.209 7.6,-1.996 5.626,0.353 7.705,1.864 7.79,1.928 l -0.221,0.297 c -0.02,-0.015 -2.096,-1.511 -7.593,-1.856 -3.275,-0.205 -5.737,0.432 -7.319,1.893 -1.687,1.56 -1.738,3.54 -1.738,3.56 L 0.257,-0.073 Z" />
          </g>
          <g
             transform="translate(540.3576,66.0631)"
             id="g7490">
            <path
               inkscape:connector-curvature="0"
               id="path7492"
               style="fill:#ffffff;fill-opacity:1;fill-rule:nonzero;stroke:none"
               d="m 0,0 c 0,0 1.913,0.278 1.913,-1.789 0,-1.729 -1.759,-1.851 -1.759,-1.851 0,0 -7.873,-1.295 -8.236,-8.884 -0.278,-5.8 9.624,-9.707 9.624,-9.707 0,0 -0.401,-1.059 -1.511,-1.121 -1.111,-0.061 -12.648,2.746 -11.075,12.864 0.608,3.91 2.507,5.922 3.795,6.971 C -3.918,-0.802 0,0 0,0" />
          </g>
          <g
             transform="translate(540.3576,66.0631)"
             id="g7494">
            <path
               inkscape:connector-curvature="0"
               id="path7496"
               style="fill:none;stroke:#231f20;stroke-width:0.24699999;stroke-linecap:butt;stroke-linejoin:miter;stroke-miterlimit:4;stroke-dasharray:none;stroke-opacity:1"
               d="m 0,0 c 0,0 1.913,0.278 1.913,-1.789 0,-1.729 -1.759,-1.851 -1.759,-1.851 0,0 -7.873,-1.295 -8.236,-8.884 -0.278,-5.8 9.624,-9.707 9.624,-9.707 0,0 -0.401,-1.059 -1.511,-1.121 -1.111,-0.061 -12.648,2.746 -11.075,12.864 0.608,3.91 2.507,5.922 3.795,6.971 C -3.918,-0.802 0,0 0,0 Z" />
          </g>
          <g
             transform="translate(540.2548,77.8882)"
             id="g7498">
            <path
               inkscape:connector-curvature="0"
               id="path7500"
               style="fill:#ffffff;fill-opacity:1;fill-rule:nonzero;stroke:none"
               d="m 0,0 c 0,0 3.002,-0.658 2.324,-3.249 -0.679,-2.592 -4.97,-3.016 -6.478,-4.782 -1.265,-1.48 -1.08,-4.349 -1.08,-4.349 0,0 -3.132,1.265 -1.635,4.935 0.956,2.345 2.921,3.323 3.825,3.579 C 0.226,-2.941 0,0 0,0" />
          </g>
          <g
             transform="translate(540.2548,77.8882)"
             id="g7502">
            <path
               inkscape:connector-curvature="0"
               id="path7504"
               style="fill:none;stroke:#231f20;stroke-width:0.24699999;stroke-linecap:butt;stroke-linejoin:miter;stroke-miterlimit:4;stroke-dasharray:none;stroke-opacity:1"
               d="m 0,0 c 0,0 3.002,-0.658 2.324,-3.249 -0.679,-2.592 -4.97,-3.016 -6.478,-4.782 -1.265,-1.48 -1.08,-4.349 -1.08,-4.349 0,0 -3.132,1.265 -1.635,4.935 0.956,2.345 2.921,3.323 3.825,3.579 C 0.226,-2.941 0,0 0,0 Z" />
          </g>
          <g
             transform="translate(535.5453,88.5819)"
             id="g7506">
            <path
               inkscape:connector-curvature="0"
               id="path7508"
               style="fill:#ffffff;fill-opacity:1;fill-rule:nonzero;stroke:none"
               d="m 0,0 -0.093,-2.73 c 0,0 -4.164,-0.231 -4.349,-3.069 -0.22,-3.367 4.211,-4.149 4.211,-4.149 l -0.031,-2.453 c 0,0 -6.925,0.987 -6.617,6.632 C -6.587,-0.433 0,0 0,0" />
          </g>
          <g
             transform="translate(535.5453,88.5819)"
             id="g7510">
            <path
               inkscape:connector-curvature="0"
               id="path7512"
               style="fill:none;stroke:#231f20;stroke-width:0.24699999;stroke-linecap:butt;stroke-linejoin:miter;stroke-miterlimit:4;stroke-dasharray:none;stroke-opacity:1"
               d="m 0,0 -0.093,-2.73 c 0,0 -4.164,-0.231 -4.349,-3.069 -0.22,-3.367 4.211,-4.149 4.211,-4.149 l -0.031,-2.453 c 0,0 -6.925,0.987 -6.617,6.632 C -6.587,-0.433 0,0 0,0 Z" />
          </g>
          <g
             transform="translate(539.9257,85.9907)"
             id="g7514">
            <path
               inkscape:connector-curvature="0"
               id="path7516"
               style="fill:#ffffff;fill-opacity:1;fill-rule:nonzero;stroke:none"
               d="m 0,0 c 0,0 2.221,0.062 2.221,2.715 0,2.344 -2.653,2.005 -3.023,3.269 -0.241,0.825 0,2.191 -1.45,2.191 -1.45,0 -1.622,-1.366 -1.172,-2.931 C -2.776,2.992 -0.062,3.085 -0.062,2.468 -0.062,1.851 0,0 0,0" />
          </g>
          <g
             transform="translate(539.9257,85.9907)"
             id="g7518">
            <path
               inkscape:connector-curvature="0"
               id="path7520"
               style="fill:none;stroke:#231f20;stroke-width:0.24699999;stroke-linecap:butt;stroke-linejoin:miter;stroke-miterlimit:4;stroke-dasharray:none;stroke-opacity:1"
               d="m 0,0 c 0,0 2.221,0.062 2.221,2.715 0,2.344 -2.653,2.005 -3.023,3.269 -0.241,0.825 0,2.191 -1.45,2.191 -1.45,0 -1.622,-1.366 -1.172,-2.931 C -2.776,2.992 -0.062,3.085 -0.062,2.468 -0.062,1.851 0,0 0,0 Z" />
          </g>
          <g
             transform="translate(550.2496,91.934)"
             id="g7522">
            <path
               inkscape:connector-curvature="0"
               id="path7524"
               style="fill:#ffffff;fill-opacity:1;fill-rule:nonzero;stroke:none"
               d="M 0,0 H 3.609 V -13.265 H 8.421 V 0 h 3.61 V 3.918 H 0 Z" />
          </g>
          <g
             transform="translate(562.2802,91.934)"
             id="g7526">
            <path
               inkscape:connector-curvature="0"
               id="path7528"
               style="fill:#231f20;fill-opacity:1;fill-rule:nonzero;stroke:none"
               d="M 0,0 H -3.609 V -13.265 H -8.421 V 0 h -3.61 V 3.918 H 0 Z m 0.123,4.164 h -12.4 v -4.411 h 3.609 v -13.264 h 5.306 v 13.264 h 3.609 v 4.411 z" />
          </g>
          <g
             transform="translate(521.0676,71.6157)"
             id="g7530">
            <path
               inkscape:connector-curvature="0"
               id="path7532"
               style="fill:#ffffff;fill-opacity:1;fill-rule:nonzero;stroke:none"
               d="M 0,0 H 7.404 V 3.918 H -4.966 V -13.265 H 0 v 6.54 h 5.707 v 3.702 H 0 Z" />
          </g>
          <g
             transform="translate(526.7745,64.8908)"
             id="g7534">
            <path
               inkscape:connector-curvature="0"
               id="path7536"
               style="fill:#231f20;fill-opacity:1;fill-rule:nonzero;stroke:none"
               d="m 0,0 h -5.707 v -6.54 h -4.966 V 10.643 H 1.697 V 6.725 H -5.707 V 3.702 H 0 Z m 1.943,6.478 v 4.411 H 1.82 -10.92 V -6.786 h 5.46 v 6.539 H 0.247 V 3.949 H -5.46 v 2.529 z" />
          </g>
          <g
             transform="translate(555.8433,64.8908)"
             id="g7538">
            <path
               inkscape:connector-curvature="0"
               id="path7540"
               style="fill:#231f20;fill-opacity:1;fill-rule:nonzero;stroke:none"
               d="M 0,0 4.905,-0.294 C 4.674,-2.437 3.884,-4.081 2.534,-5.225 c -1.35,-1.144 -3.009,-1.716 -4.977,-1.716 -2.368,0 -4.28,0.784 -5.737,2.352 -1.457,1.568 -2.185,3.733 -2.185,6.493 0,2.736 0.69,4.943 2.07,6.622 1.38,1.678 3.305,2.518 5.776,2.518 2.308,0 4.082,-0.638 5.322,-1.911 C 4.042,7.859 4.743,6.169 4.905,4.062 L -0.093,3.794 c 0,1.164 -0.224,2.005 -0.671,2.524 -0.447,0.518 -0.974,0.777 -1.578,0.777 -1.688,0 -2.532,-1.698 -2.532,-5.093 0,-1.903 0.219,-3.195 0.657,-3.878 0.438,-0.682 1.053,-1.024 1.844,-1.024 1.412,0 2.203,0.967 2.373,2.9" />
          </g>
          <g
             transform="translate(523.4017,85.1269)"
             id="g7542">
            <path
               inkscape:connector-curvature="0"
               id="path7544"
               style="fill:#231f20;fill-opacity:1;fill-rule:nonzero;stroke:none"
               d="M 0,0 H -5.707 V -6.54 H -10.92 V 10.889 H 1.697 V 6.725 H -5.707 V 3.949 H 0 Z" />
          </g>
          <g
             transform="translate(535.5453,95.06)"
             id="g7546">
            <path
               inkscape:connector-curvature="0"
               id="path7548"
               style="fill:#ffffff;fill-opacity:1;fill-rule:nonzero;stroke:none"
               d="m 0,0 0.411,-0.329 c 0,0 1.506,1.312 3.25,-0.062 1.645,-1.295 0.617,-3.043 0.617,-3.043 l 0.411,-0.247 c 0,0 1.419,2.289 -0.926,3.928 C 1.851,1.583 0,0 0,0" />
          </g>
          <g
             transform="translate(538.9232,92.7617)"
             id="g7550">
            <path
               inkscape:connector-curvature="0"
               id="path7552"
               style="fill:#231f20;fill-opacity:1;fill-rule:nonzero;stroke:none"
               d="m 0,0 c -0.238,-0.428 -0.629,-0.738 -1.1,-0.872 -0.471,-0.134 -0.966,-0.077 -1.394,0.162 -0.06,0.033 -0.135,0.012 -0.168,-0.048 -0.033,-0.059 -0.012,-0.134 0.048,-0.168 0.486,-0.27 1.047,-0.335 1.581,-0.183 0.535,0.152 0.978,0.503 1.249,0.989 C 0.249,-0.06 0.228,0.015 0.168,0.048 0.108,0.081 0.033,0.06 0,0" />
          </g>
          <g
             transform="translate(539.552,91.3982)"
             id="g7554">
            <path
               inkscape:connector-curvature="0"
               id="path7556"
               style="fill:#231f20;fill-opacity:1;fill-rule:nonzero;stroke:none"
               d="m 0,0 c -0.071,-0.485 -0.327,-0.913 -0.72,-1.205 -0.392,-0.293 -0.876,-0.414 -1.361,-0.343 -0.067,0.01 -0.13,-0.037 -0.14,-0.104 -0.01,-0.068 0.037,-0.13 0.105,-0.14 0.55,-0.081 1.098,0.057 1.544,0.389 0.445,0.331 0.735,0.817 0.816,1.367 C 0.254,0.032 0.207,0.094 0.14,0.104 0.073,0.114 0.01,0.067 0,0" />
          </g>
          <g
             transform="translate(541.4174,90.237)"
             id="g7558">
            <path
               inkscape:connector-curvature="0"
               id="path7560"
               style="fill:#231f20;fill-opacity:1;fill-rule:nonzero;stroke:none"
               d="m 0,0 c -0.03,-0.439 -0.229,-0.84 -0.561,-1.129 -0.331,-0.289 -0.756,-0.432 -1.195,-0.401 -0.068,0.004 -0.127,-0.047 -0.132,-0.115 -0.004,-0.068 0.047,-0.127 0.115,-0.131 0.505,-0.035 0.993,0.129 1.374,0.461 0.381,0.332 0.61,0.793 0.645,1.298 C 0.251,0.051 0.2,0.11 0.132,0.115 0.064,0.119 0.005,0.068 0,0" />
          </g>
          <g
             transform="translate(539.6342,88.0839)"
             id="g7562">
            <path
               inkscape:connector-curvature="0"
               id="path7564"
               style="fill:#231f20;fill-opacity:1;fill-rule:nonzero;stroke:none"
               d="m 0,0 c -0.057,-0.037 -0.074,-0.114 -0.036,-0.171 0.253,-0.39 0.643,-0.659 1.098,-0.756 0.455,-0.096 0.92,-0.01 1.311,0.243 C 2.43,-0.646 2.447,-0.57 2.41,-0.513 2.372,-0.456 2.296,-0.439 2.239,-0.477 1.903,-0.694 1.504,-0.768 1.113,-0.685 0.723,-0.602 0.388,-0.372 0.171,-0.036 0.133,0.021 0.057,0.037 0,0" />
          </g>
          <g
             transform="translate(534.1646,88.4238)"
             id="g7566">
            <path
               inkscape:connector-curvature="0"
               id="path7568"
               style="fill:#231f20;fill-opacity:1;fill-rule:nonzero;stroke:none"
               d="m 0,0 c -0.028,-0.062 0,-0.135 0.062,-0.163 0.91,-0.411 1.316,-1.485 0.905,-2.394 -0.028,-0.062 0,-0.135 0.062,-0.163 0.062,-0.028 0.135,-10e-4 0.163,0.061 0.467,1.034 0.005,2.254 -1.029,2.721 C 0.101,0.09 0.028,0.062 0,0" />
          </g>
          <g
             transform="translate(532.1263,87.7219)"
             id="g7570">
            <path
               inkscape:connector-curvature="0"
               id="path7572"
               style="fill:#231f20;fill-opacity:1;fill-rule:nonzero;stroke:none"
               d="m 0,0 c -0.013,-0.067 0.03,-0.132 0.097,-0.145 0.455,-0.089 0.847,-0.35 1.106,-0.734 0.26,-0.387 0.354,-0.853 0.264,-1.312 -0.014,-0.066 0.03,-0.131 0.097,-0.144 0.067,-0.013 0.132,0.03 0.145,0.097 0.102,0.524 -0.004,1.055 -0.301,1.496 C 1.112,-0.302 0.664,-0.004 0.145,0.097 0.078,0.11 0.013,0.067 0,0" />
          </g>
          <g
             transform="translate(530.4402,86.688)"
             id="g7574">
            <path
               inkscape:connector-curvature="0"
               id="path7576"
               style="fill:#231f20;fill-opacity:1;fill-rule:nonzero;stroke:none"
               d="m 0,0 c -0.068,-0.004 -0.119,-0.063 -0.115,-0.131 0.005,-0.068 0.063,-0.12 0.131,-0.115 0.436,0.029 0.858,-0.115 1.189,-0.405 0.342,-0.299 0.547,-0.717 0.578,-1.176 0.004,-0.068 0.063,-0.119 0.131,-0.115 0.068,0.005 0.12,0.064 0.115,0.132 -0.035,0.525 -0.27,1.002 -0.661,1.345 C 0.987,-0.132 0.501,0.033 0,0" />
          </g>
          <g
             transform="translate(529.1555,85.0124)"
             id="g7578">
            <path
               inkscape:connector-curvature="0"
               id="path7580"
               style="fill:#231f20;fill-opacity:1;fill-rule:nonzero;stroke:none"
               d="M 0,0 C -0.064,-0.024 -0.096,-0.095 -0.073,-0.159 -0.049,-0.223 0.022,-0.255 0.086,-0.231 0.911,0.075 1.832,-0.347 2.138,-1.172 2.162,-1.236 2.233,-1.269 2.297,-1.245 2.361,-1.221 2.393,-1.15 2.37,-1.086 2.016,-0.134 0.953,0.354 0,0" />
          </g>
          <g
             transform="translate(528.6285,83.0435)"
             id="g7582">
            <path
               inkscape:connector-curvature="0"
               id="path7584"
               style="fill:#231f20;fill-opacity:1;fill-rule:nonzero;stroke:none"
               d="m 0,0 c -0.054,-0.042 -0.063,-0.12 -0.02,-0.173 0.042,-0.054 0.12,-0.063 0.173,-0.02 0.684,0.54 1.681,0.423 2.222,-0.261 0.043,-0.054 0.12,-0.063 0.174,-0.02 0.053,0.042 0.062,0.119 0.02,0.173 C 1.943,0.49 0.79,0.625 0,0" />
          </g>
          <g
             transform="translate(528.8873,80.7428)"
             id="g7586">
            <path
               inkscape:connector-curvature="0"
               id="path7588"
               style="fill:#231f20;fill-opacity:1;fill-rule:nonzero;stroke:none"
               d="m 0,0 c -0.032,-0.06 -0.009,-0.135 0.051,-0.167 0.06,-0.032 0.135,-0.009 0.167,0.051 0.409,0.77 1.369,1.064 2.14,0.655 C 2.418,0.507 2.492,0.53 2.525,0.59 2.556,0.65 2.534,0.725 2.473,0.757 1.582,1.23 0.473,0.89 0,0" />
          </g>
          <g
             transform="translate(529.9581,78.8037)"
             id="g7590">
            <path
               inkscape:connector-curvature="0"
               id="path7592"
               style="fill:#231f20;fill-opacity:1;fill-rule:nonzero;stroke:none"
               d="m 0,0 c -0.01,-0.067 0.036,-0.13 0.103,-0.141 0.067,-0.01 0.13,0.036 0.141,0.103 C 0.378,0.823 1.189,1.415 2.052,1.28 2.119,1.27 2.182,1.316 2.193,1.383 2.203,1.451 2.157,1.514 2.09,1.524 1.093,1.679 0.155,0.996 0,0" />
          </g>
          <g
             transform="translate(533.285,79.4768)"
             id="g7594">
            <path
               inkscape:connector-curvature="0"
               id="path7596"
               style="fill:#231f20;fill-opacity:1;fill-rule:nonzero;stroke:none"
               d="m 0,0 c -1.002,-0.122 -1.718,-1.035 -1.596,-2.035 0.008,-0.068 0.07,-0.116 0.138,-0.108 0.067,0.008 0.115,0.07 0.107,0.137 -0.105,0.866 0.514,1.656 1.381,1.761 0.067,0.008 0.116,0.07 0.107,0.137 C 0.129,-0.04 0.068,0.008 0,0" />
          </g>
          <g
             transform="translate(534.9522,78.8407)"
             id="g7598">
            <path
               inkscape:connector-curvature="0"
               id="path7600"
               style="fill:#231f20;fill-opacity:1;fill-rule:nonzero;stroke:none"
               d="m 0,0 c -0.969,-0.283 -1.527,-1.3 -1.244,-2.268 0.019,-0.065 0.087,-0.102 0.153,-0.083 0.065,0.019 0.103,0.087 0.084,0.153 -0.245,0.836 0.238,1.716 1.076,1.961 0.066,0.019 0.103,0.088 0.084,0.153 C 0.134,-0.018 0.065,0.019 0,0" />
          </g>
          <g
             transform="translate(539.679,75.9856)"
             id="g7602">
            <path
               inkscape:connector-curvature="0"
               id="path7604"
               style="fill:#231f20;fill-opacity:1;fill-rule:nonzero;stroke:none"
               d="M 0,0 C -0.05,-0.047 -0.052,-0.125 -0.006,-0.174 0.041,-0.224 0.119,-0.227 0.169,-0.18 0.938,0.542 2.153,0.503 2.876,-0.267 2.923,-0.316 3.001,-0.319 3.05,-0.272 3.1,-0.225 3.103,-0.147 3.056,-0.098 2.239,0.772 0.868,0.815 0,0" />
          </g>
          <g
             transform="translate(538.9329,75.0382)"
             id="g7606">
            <path
               inkscape:connector-curvature="0"
               id="path7608"
               style="fill:#231f20;fill-opacity:1;fill-rule:nonzero;stroke:none"
               d="m 0,0 c -0.063,-0.027 -0.092,-0.099 -0.065,-0.162 0.027,-0.063 0.1,-0.092 0.162,-0.065 1.144,0.491 2.474,-0.041 2.966,-1.186 0.026,-0.063 0.099,-0.092 0.162,-0.065 0.062,0.027 0.091,0.1 0.064,0.162 C 2.744,-0.046 1.268,0.544 0,0" />
          </g>
          <g
             transform="translate(537.4183,74.2869)"
             id="g7610">
            <path
               inkscape:connector-curvature="0"
               id="path7612"
               style="fill:#231f20;fill-opacity:1;fill-rule:nonzero;stroke:none"
               d="m 0,0 c -0.066,-0.017 -0.106,-0.084 -0.088,-0.15 0.017,-0.066 0.084,-0.106 0.15,-0.089 1.228,0.318 2.486,-0.424 2.805,-1.654 0.017,-0.065 0.085,-0.105 0.151,-0.088 0.065,0.017 0.105,0.084 0.088,0.15 C 2.753,-0.469 1.36,0.352 0,0" />
          </g>
          <g
             transform="translate(536.1964,73.7536)"
             id="g7614">
            <path
               inkscape:connector-curvature="0"
               id="path7616"
               style="fill:#231f20;fill-opacity:1;fill-rule:nonzero;stroke:none"
               d="M 0,0 C -0.007,-0.068 0.042,-0.128 0.11,-0.135 1.236,-0.251 2.057,-1.263 1.942,-2.39 1.935,-2.458 1.984,-2.519 2.052,-2.525 2.12,-2.532 2.18,-2.483 2.187,-2.415 2.317,-1.152 1.396,-0.019 0.135,0.11 0.068,0.117 0.007,0.068 0,0" />
          </g>
          <g
             transform="translate(534.5306,72.3346)"
             id="g7618">
            <path
               inkscape:connector-curvature="0"
               id="path7620"
               style="fill:#231f20;fill-opacity:1;fill-rule:nonzero;stroke:none"
               d="M 0,0 C -0.007,-0.068 0.042,-0.128 0.11,-0.135 1.162,-0.244 1.93,-1.189 1.822,-2.242 1.815,-2.31 1.864,-2.371 1.932,-2.378 2,-2.385 2.06,-2.335 2.067,-2.268 2.189,-1.079 1.323,-0.012 0.135,0.11 0.068,0.117 0.007,0.068 0,0" />
          </g>
          <g
             transform="translate(533.2136,70.0538)"
             id="g7622">
            <path
               inkscape:connector-curvature="0"
               id="path7624"
               style="fill:#231f20;fill-opacity:1;fill-rule:nonzero;stroke:none"
               d="m 0,0 c -0.064,-0.024 -0.095,-0.096 -0.071,-0.159 0.024,-0.064 0.096,-0.096 0.159,-0.071 0.988,0.378 2.1,-0.118 2.479,-1.107 0.025,-0.064 0.096,-0.095 0.16,-0.071 0.063,0.024 0.095,0.096 0.071,0.159 C 2.369,-0.133 1.114,0.427 0,0" />
          </g>
          <g
             transform="translate(533.3085,66.9819)"
             id="g7626">
            <path
               inkscape:connector-curvature="0"
               id="path7628"
               style="fill:#231f20;fill-opacity:1;fill-rule:nonzero;stroke:none"
               d="m 0,0 c -0.022,-0.065 0.013,-0.135 0.077,-0.156 0.065,-0.022 0.135,0.012 0.157,0.077 0.339,1.001 1.431,1.54 2.434,1.2 C 2.733,1.1 2.803,1.134 2.825,1.199 2.847,1.263 2.812,1.334 2.748,1.355 1.615,1.738 0.383,1.131 0,0" />
          </g>
          <g
             transform="translate(538.8077,65.6795)"
             id="g7630">
            <path
               inkscape:connector-curvature="0"
               id="path7632"
               style="fill:#231f20;fill-opacity:1;fill-rule:nonzero;stroke:none"
               d="M 0,0 C -0.028,-0.062 -0.001,-0.135 0.061,-0.163 1.233,-0.697 1.748,-2.095 1.209,-3.28 1.18,-3.342 1.208,-3.415 1.27,-3.443 1.332,-3.472 1.405,-3.444 1.433,-3.382 2.029,-2.073 1.459,-0.528 0.163,0.061 0.101,0.089 0.028,0.062 0,0" />
          </g>
          <g
             transform="translate(536.2516,64.7449)"
             id="g7634">
            <path
               inkscape:connector-curvature="0"
               id="path7636"
               style="fill:#231f20;fill-opacity:1;fill-rule:nonzero;stroke:none"
               d="M 0,0 C -0.013,-0.067 0.031,-0.132 0.098,-0.145 1.362,-0.389 2.19,-1.628 1.943,-2.906 1.93,-2.973 1.974,-3.038 2.041,-3.051 2.108,-3.064 2.172,-3.02 2.185,-2.953 2.458,-1.541 1.543,-0.172 0.145,0.098 0.078,0.111 0.013,0.067 0,0" />
          </g>
          <g
             transform="translate(534.2314,63.4629)"
             id="g7638">
            <path
               inkscape:connector-curvature="0"
               id="path7640"
               style="fill:#231f20;fill-opacity:1;fill-rule:nonzero;stroke:none"
               d="M 0,0 C -0.009,-0.068 0.039,-0.13 0.106,-0.138 1.377,-0.305 2.278,-1.455 2.115,-2.701 2.106,-2.769 2.154,-2.831 2.221,-2.839 2.289,-2.848 2.351,-2.801 2.36,-2.733 2.541,-1.352 1.544,-0.078 0.138,0.106 0.071,0.115 0.009,0.068 0,0" />
          </g>
          <g
             transform="translate(532.4357,62.0601)"
             id="g7642">
            <path
               inkscape:connector-curvature="0"
               id="path7644"
               style="fill:#231f20;fill-opacity:1;fill-rule:nonzero;stroke:none"
               d="m 0,0 c -0.068,-0.006 -0.118,-0.065 -0.113,-0.133 0.006,-0.068 0.066,-0.119 0.134,-0.113 1.277,0.107 2.401,-0.825 2.506,-2.078 0.006,-0.068 0.066,-0.118 0.134,-0.112 0.068,0.005 0.118,0.065 0.112,0.133 C 2.657,-0.915 1.413,0.118 0,0" />
          </g>
          <g
             transform="translate(530.9256,60.111)"
             id="g7646">
            <path
               inkscape:connector-curvature="0"
               id="path7648"
               style="fill:#231f20;fill-opacity:1;fill-rule:nonzero;stroke:none"
               d="M 0,0 C -0.066,-0.016 -0.107,-0.083 -0.091,-0.149 -0.074,-0.215 -0.008,-0.256 0.059,-0.24 1.298,0.063 2.535,-0.628 2.817,-1.779 2.833,-1.846 2.9,-1.886 2.966,-1.87 3.032,-1.854 3.073,-1.787 3.057,-1.721 2.743,-0.437 1.372,0.335 0,0" />
          </g>
          <g
             transform="translate(529.7272,57.7035)"
             id="g7650">
            <path
               inkscape:connector-curvature="0"
               id="path7652"
               style="fill:#231f20;fill-opacity:1;fill-rule:nonzero;stroke:none"
               d="m 0,0 c -0.061,-0.03 -0.086,-0.104 -0.055,-0.165 0.03,-0.061 0.104,-0.086 0.165,-0.056 1.124,0.56 2.465,0.16 2.989,-0.892 0.031,-0.061 0.105,-0.085 0.166,-0.055 0.061,0.03 0.086,0.104 0.055,0.165 C 2.735,0.171 1.246,0.621 0,0" />
          </g>
          <g
             transform="translate(529.1796,54.9547)"
             id="g7654">
            <path
               inkscape:connector-curvature="0"
               id="path7656"
               style="fill:#231f20;fill-opacity:1;fill-rule:nonzero;stroke:none"
               d="m 0,0 c -0.055,-0.04 -0.067,-0.117 -0.027,-0.173 0.04,-0.054 0.117,-0.067 0.172,-0.026 0.954,0.695 2.26,0.534 2.912,-0.36 0.04,-0.055 0.117,-0.067 0.172,-0.026 0.055,0.04 0.067,0.117 0.027,0.172 C 2.524,0.59 1.063,0.776 0,0" />
          </g>
          <g
             transform="translate(529.2357,52.2443)"
             id="g7658">
            <path
               inkscape:connector-curvature="0"
               id="path7660"
               style="fill:#231f20;fill-opacity:1;fill-rule:nonzero;stroke:none"
               d="M 0,0 C -0.047,-0.049 -0.046,-0.127 0.003,-0.174 0.052,-0.222 0.13,-0.22 0.178,-0.171 0.98,0.662 2.266,0.729 3.046,-0.021 3.095,-0.069 3.173,-0.067 3.22,-0.018 3.267,0.031 3.266,0.109 3.217,0.157 2.339,1.001 0.897,0.931 0,0" />
          </g>
          <g
             transform="translate(530.0203,49.6184)"
             id="g7662">
            <path
               inkscape:connector-curvature="0"
               id="path7664"
               style="fill:#231f20;fill-opacity:1;fill-rule:nonzero;stroke:none"
               d="m 0,0 c -0.034,-0.059 -0.014,-0.134 0.045,-0.169 0.059,-0.034 0.134,-0.014 0.168,0.045 0.581,1 1.814,1.373 2.75,0.83 C 3.022,0.672 3.097,0.692 3.131,0.751 3.165,0.809 3.145,0.885 3.086,0.919 2.033,1.53 0.649,1.118 0,0" />
          </g>
          <g
             transform="translate(531.525,47.2983)"
             id="g7666">
            <path
               inkscape:connector-curvature="0"
               id="path7668"
               style="fill:#231f20;fill-opacity:1;fill-rule:nonzero;stroke:none"
               d="M 0,0 C -0.018,-0.066 0.021,-0.134 0.086,-0.152 0.152,-0.17 0.22,-0.131 0.238,-0.065 0.555,1.091 1.616,1.812 2.602,1.541 2.668,1.523 2.736,1.562 2.754,1.627 2.772,1.693 2.733,1.761 2.668,1.779 1.55,2.085 0.353,1.287 0,0" />
          </g>
          <g
             transform="translate(533.2832,45.6804)"
             id="g7670">
            <path
               inkscape:connector-curvature="0"
               id="path7672"
               style="fill:#231f20;fill-opacity:1;fill-rule:nonzero;stroke:none"
               d="m 0,0 c -0.005,-0.068 0.046,-0.127 0.114,-0.132 0.068,-0.005 0.127,0.046 0.132,0.114 0.085,1.167 0.93,2.06 1.883,1.991 C 2.197,1.968 2.256,2.019 2.261,2.087 2.266,2.155 2.215,2.214 2.147,2.219 1.058,2.298 0.095,1.303 0,0" />
          </g>
          <g
             transform="translate(538.1708,45.7324)"
             id="g7674">
            <path
               inkscape:connector-curvature="0"
               id="path7676"
               style="fill:#231f20;fill-opacity:1;fill-rule:nonzero;stroke:none"
               d="m 0,0 c -0.164,-1.075 -0.906,-1.857 -1.655,-1.742 -0.067,0.01 -0.13,-0.036 -0.14,-0.104 -0.011,-0.067 0.036,-0.13 0.103,-0.14 0.883,-0.135 1.752,0.739 1.936,1.949 C 0.254,0.03 0.208,0.093 0.141,0.103 0.073,0.114 0.01,0.067 0,0" />
          </g>
          <g
             transform="translate(540.2241,44.6626)"
             id="g7678">
            <path
               inkscape:connector-curvature="0"
               id="path7680"
               style="fill:#231f20;fill-opacity:1;fill-rule:nonzero;stroke:none"
               d="m 0,0 c -0.387,-1.016 -1.278,-1.623 -1.986,-1.353 -0.063,0.024 -0.135,-0.008 -0.159,-0.071 -0.024,-0.064 0.008,-0.135 0.071,-0.16 0.835,-0.318 1.869,0.353 2.305,1.496 C 0.255,-0.024 0.223,0.047 0.159,0.071 0.096,0.096 0.024,0.064 0,0" />
          </g>
          <g
             transform="translate(536.5344,46.8712)"
             id="g7682">
            <path
               inkscape:connector-curvature="0"
               id="path7684"
               style="fill:#231f20;fill-opacity:1;fill-rule:nonzero;stroke:none"
               d="m 0,0 c 0.015,-0.483 -1.388,-1.891 -1.9,-1.907 l 0.008,-0.247 c 0.638,0.02 2.158,1.555 2.139,2.162 z" />
          </g>
        </g>
      </g>
      <g
         transform="matrix(0.35277777,0,0,-0.35277777,-98.690197,214.40463)"
         id="g7686">
        <g
           clip-path="url(#clipPath7692-0)"
           id="g7688">
          <g
             transform="translate(565.2106,42.3206)"
             id="g7694">
            <path
               inkscape:connector-curvature="0"
               id="path7696"
               style="fill:#ffffff;fill-opacity:1;fill-rule:nonzero;stroke:none"
               d="m 0,0 c -7.396,-7.397 -17.231,-11.47 -27.691,-11.47 -10.46,0 -20.294,4.073 -27.691,11.47 -7.396,7.397 -11.47,17.231 -11.47,27.691 0,10.46 4.074,20.294 11.47,27.691 7.397,7.397 17.231,11.47 27.691,11.47 10.46,0 20.295,-4.073 27.691,-11.47 C 7.397,47.985 11.47,38.151 11.47,27.691 11.47,17.231 7.397,7.397 0,0 m 2.328,57.71 c -8.018,8.019 -18.679,12.434 -30.019,12.434 -11.34,0 -22.001,-4.415 -30.019,-12.434 -8.019,-8.018 -12.434,-18.679 -12.434,-30.019 0,-11.34 4.415,-22.001 12.434,-30.019 8.018,-8.019 18.679,-12.434 30.019,-12.434 11.34,0 22.001,4.415 30.019,12.434 8.019,8.018 12.435,18.679 12.435,30.019 0,11.34 -4.416,22.001 -12.435,30.019" />
          </g>
          <g
             transform="translate(537.5196,27.5581)"
             id="g7698">
            <path
               inkscape:connector-curvature="0"
               id="path7700"
               style="fill:#231f20;fill-opacity:1;fill-rule:nonzero;stroke:none"
               d="m 0,0 c -11.34,0 -22.001,4.416 -30.019,12.434 -8.019,8.019 -12.434,18.68 -12.434,30.019 0,11.34 4.415,22.001 12.434,30.02 8.018,8.018 18.679,12.434 30.019,12.434 11.34,0 22.001,-4.416 30.019,-12.434 8.019,-8.019 12.435,-18.68 12.435,-30.02 0,-11.339 -4.416,-22 -12.435,-30.019 C 22.001,4.416 11.34,0 0,0 M 31.319,73.772 C 22.953,82.138 11.831,86.745 0,86.745 c -11.831,0 -22.953,-4.607 -31.319,-12.973 -8.365,-8.365 -12.972,-19.488 -12.972,-31.319 0,-11.83 4.607,-22.953 12.972,-31.318 C -22.953,2.769 -11.831,-1.838 0,-1.838 c 11.831,0 22.953,4.607 31.319,12.973 8.365,8.365 12.972,19.488 12.972,31.318 0,11.831 -4.607,22.954 -12.972,31.319" />
          </g>
        </g>
      </g>
    </g>
  </g>
</svg>
