<svg xmlns="http://www.w3.org/2000/svg" xml:space="preserve" width="295.2" height="338.754" viewBox="0 0 305 350"><path d="M419.577 1037.813C322.694 917.665 197.55 870.786 45.136 900.463c-3.532-393.079 177.773-578.786 374.461-728.349C614.218 319.708 798.815 508.54 793.714 900.1c-158.27-29.395-276.379 16.222-374.137 137.714" style="fill:#fff;fill-opacity:1;fill-rule:evenodd;stroke:none" transform="matrix(.38622 0 0 -.38622 -8.045 408.197)"/><path d="M419.577 1037.813C322.694 917.665 197.55 870.786 45.136 900.463c-3.532-393.079 177.773-578.786 374.461-728.349C614.218 319.708 798.815 508.54 793.714 900.1c-158.27-29.395-276.379 16.222-374.137 137.714z" style="fill:none;stroke:#8e0927;stroke-width:6.70468998;stroke-linecap:butt;stroke-linejoin:miter;stroke-miterlimit:2.61313009;stroke-opacity:1;stroke-dasharray:none" transform="matrix(.38622 0 0 -.38622 -8.045 408.197)"/><path d="M710.374 596.923c-42.887-117.578-127.62-239.809-290.957-372.711-161.457 132.215-246.14 255.367-289.492 372.711h580.45" style="fill:#00613c;fill-opacity:1;fill-rule:evenodd;stroke:none" transform="matrix(.38622 0 0 -.38622 -8.045 408.197)"/><path d="M87.218 852.181c198.57-2.086 255.66 37.98 332.214 122.976 82.63-82.504 137.407-125.547 332.286-122.984-.754-78.106-8.446-156.309-34.852-236.543H123.343c-27.164 81.215-35.246 159.7-36.125 236.551" style="fill:#870a28;fill-opacity:1;fill-rule:evenodd;stroke:none" transform="matrix(.38622 0 0 -.38622 -8.045 408.197)"/><path d="M326.186 835.028c6.641-2.086 19.918 2.403 27.145-11.59 3.594-6.968 9.992-14.683 12.141-29.527l41.117 6.395c-4.62 16.18-1.422 16.55-5.485 29.238 25.426 2.437 50.09 7.918 73.09 20.098 11.266-9.446 21.317-17.36 34.72-22.84-50.985-28.536-45.794-51.64-42.028-66.696l20.101-23.754c-.816 49.856 31.305 81.68 71.266 91.364-27.336 14.77-53.68 31.52-78.574 51.16-45.473-15.996-101.622-34.059-125.172-16.442l-28.32-27.406" style="fill:#fff;fill-opacity:1;fill-rule:evenodd;stroke:none" transform="matrix(.38622 0 0 -.38622 -8.045 408.197)"/><path d="M285.155 718.813c-.148-1.558 34.418 17.446 42.906 13.293l-3.195 19.63c40.36 18.073 81.512 25.73 137.391 16.43.38 8.823.074 15.366 4.105 24.19-18.562 3.348-37.125 3.957-56.14 5.477-13.235-1.219-32.73-3.254-47.012-7.758-14.285-4.508-29.75-10.582-42.906-11.867-13.16-1.285-19.477 2.887-31.497 5.934-9.886-11.41-15.67-16.434-30.582-29.668 12.067 2.77 30.243-1.454 27.555-29.21l-.625-6.45M502.194 786.083c39.324-14.609 40.266-.856 57.176.476l10.008-19.535c-51.87-15.398-76.16-77.183-38.117-112.449-37.075-7.055-59.079 39.16-29.477 95.438 1.707 3.253-.219 8.453 1.84 11.77l-10.96 2.86c1.905 8.577 5.718 13.342 9.53 21.44" style="fill:#fff;fill-opacity:1;fill-rule:evenodd;stroke:none" transform="matrix(.38622 0 0 -.38622 -8.045 408.197)"/><path d="M525.065 729.384c-4.289-6.672-8.1-15.723-8.578-25.73 20.231-6.966 31.742-18.302 39.555-45.227.234-.82.63-1.602.95-2.426 10.241-26.328 60.827-27 69.565-18.102 2.223 10.164-.796 16.516-10.003 19.06-10.645-.083-9.375-10.72-19.063-8.103-11.91 4.196-18.453 9.371-21.328 19.371-4.289 14.93 4.152 31.02 27.047 36.38l-11.438 15.722c-22.632-1.19-45.347-1.19-66.707 9.055M494.093 738.438l-5.243 1.426-.953-4.762-2.383-.953-6.667 8.102a301.725 301.725 0 0 1-67.66.476l-1.434-26.21c26.687 2.066 52.574.957 76.72-3.333 1.745 8.895 3.491 17.31 7.62 25.254" style="fill:#fff;fill-opacity:1;fill-rule:evenodd;stroke:none" transform="matrix(.38622 0 0 -.38622 -8.045 408.197)"/><path d="M363.663 760.407 361.84 628.95l38.343 1.828 1.825 20.996 28.297 1.825 4.566-4.563c-20.086-55.383-8.523-88.852 34.687-100.418l.915 5.477c-28.606 20.082-32.864 70.902 4.566 97.68l-11.867 23.734c-22.219 5.898-43.52-10.157-61.164 1.824l6.386 90.375c-13.996-1.215-28.906-.606-44.73-7.3" style="fill:#fff;fill-opacity:1;fill-rule:evenodd;stroke:none" transform="matrix(.38622 0 0 -.38622 -8.045 408.197)"/><path d="m315.284 512.102-4.566-34.69c51.922-11.153 108.754-13.82 175.273 9.128 33.777 11.566 66.641 24.04 101.328 18.258-6.695 10.043 25.867 71.207 53.863 35.601l15.52-.914c-7 14-6.695 21.606 14.605 33.781-23.433 2.74-40.472.911-56.6 13.692-71.056-66.266-179.993-99.887-299.423-74.856M458.604 627.122c-5.933-10.34-8.668-16.574-7.304-26.93 14.91-1.367 27.996-8.668 33.777-19.625l.457 48.383-26.93-1.828" style="fill:#fff;fill-opacity:1;fill-rule:evenodd;stroke:none" transform="matrix(.38622 0 0 -.38622 -8.045 408.197)"/><path d="m362.858 598.231-4.215-89.78c14.071-2.134 25.024-2.587 37.887-2.286l2.738 92.203-36.41-.137M357.733 467.83c16.02-2.024 29.778-1.192 41.992-1.79 3.321-54.555 23.918-76.563 69.56-91.145 9.155-2.925 20.397-5.957 27.065-10.226-108.94-10.192-108.648 59.95-157.332 6.39l-13.238 18.715c16.371 15.395 25.961 45.563 31.953 78.055M358.456 734.872c-66.039-6.445-126.195-43.762-177.762-126.203-4.015-5.77-12.074-14.766-13.574-16.453 6.746-1.168 11.652-6.39 14.762-9.332 26.683-48.395 56.031-76.442 86.336-92.27 4.296 11.305 5.203 22.613 6.785 33.922-18.77 8.367-59.48 45.238-55.637 85.492 19.453 51.34 81.648 95.895 139.09 94.988v29.856" style="fill:#fff;fill-opacity:1;fill-rule:evenodd;stroke:none" transform="matrix(.38622 0 0 -.38622 -8.045 408.197)"/><path d="M287.315 677.49c11.563 10.09 24.098 17.261 38.575 18.612l1.36-75.222c31.206 7.465 65.698 8.144 96.905 6.094l-2.598-24.41c-31.886-.68-67.17-.68-99.738-11.536-4.972-48.85-9.273-95.668-23.746-142.484 23.75-7.91 35.734-18.317 41.387-29.852l-10.856-20.355c-15.152 20.918-30.082 32.004-58.35 27.137l-13.568 12.214c29.852 57.223 26.555 168.336 30.63 239.801M342.175 371.196c3.054 1.02 12.211-16.285 27.82-20.695.758-.719 10.86.367 5.766 2.375-5.094 2.008-14.614 14.945-20.356 30.191 0 0-16.28-12.886-13.23-11.87" style="fill:#fff;fill-opacity:1;fill-rule:evenodd;stroke:none" transform="matrix(.38622 0 0 -.38622 -8.045 408.197)"/></svg>