<?xml version="1.0" encoding="UTF-8" standalone="no"?>
<svg id="svg3355" xmlns:rdf="http://www.w3.org/1999/02/22-rdf-syntax-ns#" xmlns="http://www.w3.org/2000/svg" xml:space="preserve" height="135.55" width="135.55" version="1.1" xmlns:cc="http://creativecommons.org/ns#" viewBox="0 0 135.5545 135.5545" xmlns:dc="http://purl.org/dc/elements/1.1/"><metadata id="metadata3361"><rdf:RDF><cc:Work rdf:about=""><dc:format>image/svg+xml</dc:format><dc:type rdf:resource="http://purl.org/dc/dcmitype/StillImage"/><dc:title/></cc:Work></rdf:RDF></metadata><g id="g3363" transform="matrix(1.25 0 0 -1.25 -590.92 1034.7)"><path id="GreenCircle" d="m526.96 720.33c-7.188 0-14.161 1.408-20.727 4.185-6.341 2.682-12.035 6.521-16.925 11.411s-8.729 10.584-11.411 16.925c-2.777 6.565-4.185 13.539-4.185 20.727s1.408 14.161 4.185 20.726c2.682 6.341 6.521 12.036 11.411 16.926 4.89 4.889 10.584 8.729 16.925 11.41 6.566 2.777 13.539 4.185 20.727 4.185s14.161-1.408 20.727-4.185c6.34-2.681 12.035-6.521 16.925-11.41 4.89-4.89 8.729-10.585 11.411-16.926 2.776-6.565 4.185-13.538 4.185-20.726s-1.409-14.162-4.185-20.727c-2.682-6.341-6.521-12.035-11.411-16.925s-10.585-8.729-16.925-11.411c-6.566-2.777-13.539-4.185-20.727-4.185" fill="#b5dc17"/><path id="BlackBorder" d="m526.96 827.72c-3.672 0-7.343-0.37-10.91-1.1-3.477-0.711-6.897-1.773-10.165-3.155-3.208-1.358-6.303-3.037-9.197-4.993-2.867-1.936-5.562-4.16-8.012-6.61-2.45-2.449-4.674-5.145-6.61-8.011-1.956-2.895-3.635-5.989-4.992-9.198-1.383-3.268-2.444-6.688-3.156-10.165-0.73-3.567-1.1-7.237-1.1-10.91 0-3.672 0.37-7.342 1.1-10.909 0.712-3.477 1.773-6.897 3.156-10.166 1.357-3.208 3.036-6.303 4.992-9.197 1.936-2.867 4.16-5.562 6.61-8.012 2.45-2.449 5.145-4.673 8.012-6.61 2.894-1.955 5.989-3.635 9.197-4.992 3.268-1.382 6.688-2.444 10.165-3.156 3.567-0.729 7.238-1.1 10.91-1.1s7.343 0.371 10.91 1.1c3.477 0.712 6.897 1.774 10.165 3.156 3.208 1.357 6.303 3.037 9.197 4.992 2.867 1.937 5.562 4.161 8.012 6.61 2.45 2.45 4.674 5.145 6.61 8.012 1.956 2.894 3.635 5.989 4.992 9.197 1.383 3.269 2.444 6.689 3.156 10.166 0.73 3.567 1.1 7.237 1.1 10.909 0 3.673-0.37 7.343-1.1 10.91-0.712 3.477-1.773 6.897-3.156 10.165-1.357 3.209-3.036 6.303-4.992 9.198-1.936 2.866-4.16 5.562-6.61 8.011-2.45 2.45-5.145 4.674-8.012 6.61-2.894 1.956-5.989 3.635-9.197 4.993-3.268 1.382-6.688 2.444-10.165 3.155-3.567 0.73-7.238 1.1-10.91 1.1m0-1.788c28.914 0 52.354-23.44 52.354-52.354s-23.44-52.353-52.354-52.353-52.354 23.439-52.354 52.353 23.44 52.354 52.354 52.354" fill="#231f20"/><path id="WhiteCirlce" d="m526.96 731.62c-5.664 0-11.159 1.109-16.331 3.297-4.996 2.113-9.483 5.138-13.336 8.992-3.853 3.853-6.878 8.34-8.991 13.336-2.188 5.172-3.297 10.666-3.297 16.33s1.109 11.159 3.297 16.331c2.113 4.996 5.138 9.483 8.991 13.336s8.34 6.879 13.336 8.992c5.172 2.187 10.667 3.297 16.331 3.297s11.159-1.11 16.331-3.297c4.996-2.113 9.483-5.139 13.336-8.992s6.878-8.34 8.991-13.336c2.188-5.172 3.297-10.667 3.297-16.331s-1.109-11.158-3.297-16.33c-2.113-4.996-5.138-9.483-8.991-13.336-3.853-3.854-8.34-6.879-13.336-8.992-5.172-2.188-10.667-3.297-16.331-3.297" fill="#fff"/><path id="InsideBorder" d="m526.96 815.16c-2.822 0-5.642-0.284-8.381-0.845-2.67-0.546-5.296-1.361-7.805-2.422-2.464-1.043-4.84-2.332-7.063-3.834-2.202-1.488-4.273-3.196-6.154-5.078-1.882-1.882-3.591-3.953-5.079-6.155-1.501-2.223-2.791-4.599-3.833-7.063-1.062-2.509-1.877-5.135-2.423-7.805-0.561-2.739-0.845-5.559-0.845-8.381s0.284-5.641 0.845-8.381c0.546-2.669 1.361-5.295 2.423-7.804 1.042-2.464 2.332-4.841 3.833-7.064 1.488-2.202 3.197-4.272 5.079-6.154 1.881-1.882 3.952-3.591 6.154-5.078 2.223-1.502 4.599-2.792 7.063-3.834 2.509-1.061 5.135-1.876 7.805-2.423 2.739-0.56 5.559-0.845 8.381-0.845s5.642 0.285 8.381 0.845c2.67 0.547 5.296 1.362 7.805 2.423 2.463 1.042 4.84 2.332 7.063 3.834 2.202 1.487 4.273 3.196 6.155 5.078 1.881 1.882 3.59 3.952 5.078 6.154 1.501 2.223 2.791 4.6 3.833 7.064 1.062 2.509 1.877 5.135 2.423 7.804 0.561 2.74 0.845 5.559 0.845 8.381s-0.284 5.642-0.845 8.381c-0.546 2.67-1.361 5.296-2.423 7.805-1.042 2.464-2.332 4.84-3.833 7.063-1.488 2.202-3.197 4.273-5.078 6.155-1.882 1.882-3.953 3.59-6.155 5.078-2.223 1.502-4.6 2.791-7.063 3.834-2.509 1.061-5.135 1.876-7.805 2.422-2.739 0.561-5.559 0.845-8.381 0.845m0 0.745c23.377 0 42.328-18.951 42.328-42.328s-18.951-42.328-42.328-42.328-42.328 18.951-42.328 42.328 18.951 42.328 42.328 42.328" fill="#231f20"/><path id="Football" d="m67.914 61.596c-4.445 0-8.625 1.732-11.768 4.873-3.142 3.143-4.875 7.322-4.875 11.767s1.733 8.623 4.875 11.766c3.143 3.142 7.323 4.875 11.768 4.875 4.444 0 8.622-1.733 11.766-4.875 3.143-3.143 4.873-7.321 4.873-11.766s-1.73-8.624-4.873-11.767c-3.144-3.141-7.322-4.873-11.766-4.873zm0 1.8c0.171 0 0.338 0.02 0.508 0.026 0.755 0.182 3.024 0.843 5.418 2.752 2.525 2.013 5.125 5.364 6.088 11.014l-1.008 0.873-4.729-2.405c-0.073-2.759-1.565-6.127-1.572-6.166l-0.031-0.07-0.045-0.059c-0.478-0.6-1.203-0.876-1.842-1.121-0.452-0.163-0.781-0.251-0.984-0.302-1.153-1.407-2.329-2.085-2.756-2.301l-0.92-1.739-0.328-0.041c-0.388-0.045-0.777-0.052-1.164-0.062 1.083-0.252 2.206-0.399 3.365-0.399zm6.086 1.317c4.749 2.141 8.17 6.7 8.68 12.115l-0.141-0.125-0.307 0.061c-0.471 0.095-0.804 0.139-1.066 0.164-1.083-6.327-4.202-10.069-7.098-12.17-0.023-0.017-0.045-0.029-0.068-0.045zm-9.873 0.328c0.371 0 0.746 0.011 1.109 0.041l0.369 0.693c-1.047 0.438-3.133 1.464-5.341 3.409-2.709 2.384-5.594 6.178-6.907 11.916-0.181-0.928-0.281-1.883-0.281-2.864 0-2.551 0.646-4.952 1.779-7.048l1.604-1.301 0.051-0.073c0.001-0.002 0.124-0.181 0.349-0.486 0.657-0.889 2.181-2.812 3.69-3.961 0.179-0.031 0.528-0.089 0.988-0.15 0.69-0.089 1.626-0.176 2.59-0.176zm2.328 1.758c0.365 0.196 1.196 0.702 2.045 1.65-1.912 1.85-9.437 9.636-11.533 19.778-1.181-1.294-2.14-2.791-2.807-4.442 0.921-6.852 4.037-11.089 6.94-13.654 1.463-1.29 2.873-2.149 3.912-2.684 0.52-0.267 0.946-0.453 1.238-0.57 0.091-0.037 0.142-0.055 0.205-0.078zm3.09 2.4c0.291 0.081 0.738 0.217 1.144 0.391 0.357 0.149 0.68 0.353 0.801 0.48 0.039 0.089 0.108 0.256 0.199 0.489 0.414 1.055 1.23 3.432 1.25 5.173l-5.515 4.282-0.301 3.187-1.963 3.303-2.197 1.598-0.045 0.244c-0.008 0.027-0.137 0.713-0.139 1.64 0.004 0.558 0.046 1.206 0.211 1.854l-0.357 0.25c-1.701-0.649-3.25-1.598-4.584-2.789 0.971-5.662 3.821-10.698 6.486-14.336 1.373-1.876 2.692-3.379 3.664-4.41 0.486-0.515 0.885-0.915 1.162-1.184 0.12-0.116 0.114-0.106 0.184-0.172zm4.092 7.594l5.467 2.781 1.56-1.353c0.015 0 0.027 0.002 0.039 0.002 0.289-0.002 0.754-0.034 1.465-0.162l0.566 0.505c-0.037 1.714-0.368 3.351-0.939 4.873l-0.037-0.043c-0.885 0.76-2.504 1.105-4.348 1.096-2.124 0.003-4.508-0.419-6.346-0.844-0.918-0.212-1.703-0.426-2.259-0.584-0.246-0.071-0.242-0.072-0.387-0.117l0.213-2.269 5.006-3.885zm-5.606 7.357c1.152 0.355 5.43 1.602 9.379 1.606 1.281-0.004 2.516-0.137 3.586-0.522-0.9 1.68-2.115 3.167-3.564 4.381l-0.01-0.041c-1.113 0.284-2.15 0.405-3.113 0.405-2.594 0-4.643-0.869-6.053-1.743-0.706-0.436-1.248-0.871-1.611-1.195-0.095-0.086-0.143-0.138-0.213-0.205l1.599-2.686zm-2.453 3.612c0.916 0.904 3.894 3.469 8.731 3.48 0.258 0 0.521-0.009 0.789-0.025-2.13 1.181-4.576 1.859-7.184 1.859-0.043 0-0.084-0.005-0.127-0.006l0.006-0.076c-1.039-0.085-1.972-0.438-2.637-0.771-0.334-0.167-0.599-0.326-0.779-0.444-0.046-0.03-0.069-0.047-0.104-0.07-0.166-0.556-0.229-1.178-0.228-1.723 0-0.402 0.028-0.76 0.057-1.011 0.006-0.057 0.012-0.106 0.019-0.153l1.457-1.06z" transform="matrix(.8 0 0 -.8 472.74 827.8)" fill="#231f20"/><path id="1889" d="m535.13 784.9c-0.502 0-0.908-0.406-0.908-0.899 0-0.485 0.414-0.899 0.917-0.899 0.502 0 0.908 0.396 0.908 0.899 0 0.502-0.415 0.899-0.917 0.899m1.966-2.477-1.569-2.416h-1.878l1.428 1.834c-0.15-0.053-0.264-0.062-0.388-0.062-1.066 0-1.974 1.005-1.974 2.213 0 1.358 1.19 2.415 2.433 2.415 1.172 0 2.406-0.899 2.406-2.512 0-0.52-0.15-0.996-0.458-1.472m-7.3167 2.7063c-0.344 0-0.635-0.273-0.635-0.599 0-0.344 0.291-0.609 0.635-0.609 0.335 0 0.608 0.265 0.608 0.609 0 0.326-0.264 0.599-0.608 0.599m0-2.398c-0.423 0-0.767-0.352-0.767-0.767 0-0.432 0.353-0.767 0.776-0.767 0.432 0 0.758 0.335 0.758 0.758 0 0.424-0.344 0.776-0.767 0.776m0-2.821c-1.331 0-2.274 0.847-2.274 1.913 0 0.661 0.343 1.252 1.013 1.569-0.493 0.274-0.723 0.688-0.723 1.243 0 0.97 0.882 1.772 1.984 1.772 1.093 0 2.001-0.802 2.001-1.781 0-0.546-0.247-0.96-0.74-1.234 0.669-0.317 1.013-0.916 1.013-1.569 0-1.058-0.934-1.913-2.274-1.913m-5.3508 5.219c-0.344 0-0.635-0.273-0.635-0.599 0-0.344 0.291-0.609 0.635-0.609 0.335 0 0.608 0.265 0.608 0.609 0 0.326-0.264 0.599-0.608 0.599m0-2.398c-0.423 0-0.767-0.352-0.767-0.767 0-0.432 0.353-0.767 0.776-0.767 0.432 0 0.758 0.335 0.758 0.758 0 0.424-0.344 0.776-0.767 0.776m0-2.821c-1.331 0-2.274 0.847-2.274 1.913 0 0.661 0.343 1.252 1.013 1.569-0.493 0.274-0.723 0.688-0.723 1.243 0 0.97 0.882 1.772 1.984 1.772 1.093 0 2.001-0.802 2.001-1.781 0-0.546-0.247-0.96-0.74-1.234 0.669-0.317 1.013-0.916 1.013-1.569 0-1.058-0.934-1.913-2.274-1.913m-6.2148 0.0972v1.296h0.688v3.835h-0.741v1.163h2.248v-4.998h0.67v-1.296h-2.865z" fill="#231f20"/><path id="lion" d="m38.857 35.318c-0.216 0-0.452 0.02-0.711 0.063 0 0-1.421 0.223-1.808 1.463 0 0-0.258-1.239-1.682-0.674 0 0-0.776 0.562-0.258 1.125 0 0-2.847-0.676-3.363 1.351 0 0-0.776 2.819 2.199 3.944l0.039 0.332s-1.482-0.896-2.367 0.008c0 0-1.629 1.562 1.481 2.392l0.472 1.805-0.142 1.549-0.26 0.564-0.129 1.692 0.049 0.572 0.598-0.799-0.186 1.418-0.101 1 0.673-0.387s-0.165 1.372 0.049 1.112c0.62-0.759 0.483 2 0.483 2l0.242-0.518s-0.003 1.711 1.021 2.643c0 0 0.372 6.799-1.652 11.439-0.293 0.671-1.29 2.205-1.635 2.877-0.786 1.531-1.317 2.751-1.531 3.498-0.249 0.869-0.808 1.64-0.994 2.049-1.304 2.856-6.892 1.986-3.973-2.795 2.794-3.85 8.507-8.133 4.129-15.455 0 0-1.742-2.636-5.033-3.947 0 0-1.386-2.067-2.655-0.086-0.827 1.292-0.877-0.223-0.861-0.293 0.018-0.069-0.912 1.105 0.139 1.638 0.686 0.349 1.241-0.105 1.361-0.173 0 0 0.046 0.086-0.156 0.242-0.225 0.171 0.843 0 0.947-0.465v0.275s0.45-0.087 0.57-0.379c0 0 0.068-0.225 0.696 0.055 0 0 11.603 4.929 1.73 16.229-5.277 5.65-1.426 8.611 1.244 7.742 0 0 1.8 0.081 2.235-1.781 0 0-0.203 3.416 0 5.339 0.124 1.179-1.367 3.291-1.367 3.291l-2.049 1.303 0.982-0.004-1.293 1.465-1.164 0.901 1.813 0.451-0.776 1.127-0.906 0.677 0.775 0.112 0.776 0.111 0.26 1.354 0.388 1.125s0.129 0.453 0.518 0.566l0.387 0.113 0.646 0.112 1.682 0.453c0.13-0.453-0.26-1.018-0.26-1.018s1.423 0.34 2.072 0.34h1.16l-0.347-0.863-0.946-0.828s-3.489-1.578-1.293-5.073c0 0 0.739-0.68 1.791-1.834 0.128-0.138 0.047 0.591 0.957 0.508-0.537-0.456-0.2-1.354-0.082-1.49 0.145-0.169 0.161-0.193 0.311-0.373 0.076-0.091 0.476 0.766 1.221 0.207-0.91-0.518-0.434-1.116-0.348-1.225 1.25-1.564 2.34-3.231 2.418-4.363 0 0 4.098-1.243 5.092 0.619 0 0 0.621 3.385-0.16 5.723 0.11 0.476-0.336 1.635-0.336 1.635s0.678-0.404 1.023-0.155c0.215 0.156-0.568 1.201-0.568 1.201s1.156-0.746 2.111-0.744c0.439 0.002 0.505 0.661 1.057 0.731l0.365-0.567s0.512 0.708 0.977 0.703c-0.139-0.408 0.181-0.506 0.388-0.531 0 0 0.493 0.595 0.938 0.615-0.177-0.537 0.258-0.57 0.258-0.57l0.513 0.561s1.475-0.25 0.988-1.129c-0.245-0.443 0.36 0.125 0.373 0.125 0.828 0 0.547-0.86 0.547-0.86s-0.128-0.634-0.838-0.963c-1.273-0.59-4.191-0.435-4.191-0.435s-0.165-1.614 0.264-3.092c0.21-0.724 0.631-1.775 0.906-2.463 0.011 0.078 0.269 0.449 0.889 0.117-0.693-0.217-0.578-0.827-0.532-0.947 0.032-0.109-0.001-0.03 0.036-0.139 0.015 0.16 0.321 0.865 0.812 0.374-0.962-0.58-0.271-2.375-0.295-2.729 0 0 0.652-4.066-5.277-3.662 0 0-1.908 0.279-2.684-0.059-0.775-0.338 1.682-2.593 1.682-2.593l0.775-1.241 0.389 1.016 0.387-1.352 0.648-0.453 1.033-0.224 0.282-0.155s0.194-0.183 0.291-0.263c0.341-0.298 2.66-4.428 2.66-4.428l0.547 0.883s-0.174 1.17 0.261 1.791c0.187-0.931 0.498-0.561 0.498-0.561s-0.125 0.622 0.434 1.305c0.559 0.682 0.719 0.977 0.719 0.977l0.388 1.015 0.516-1.015 0.646 0.675 0.131-1.238 1.162 0.451 0.129-1.467s-0.645-4.056-3.75-6.648v-2.365l0.129-1.354s0-5.185-3.75-8.791l-0.062-0.508-0.131-0.562-0.258-1.014 0.389 0.168s-2.135-3.945-3.299-4.789c0 0 1.929-2.03 0.137-2.857 0 0-1.169 0.096-1.946 0.886 0 0 1.361-4.458-1.879-4.457zm-0.183 1.108c0.082-0.023 0.175 0.008 0.197 0.117 0.018 0.086 0.05 0.166 0.08 0.246 0.124-0.052 0.246-0.109 0.377-0.135 0.218-0.04 0.311 0.289 0.094 0.33-0.122 0.023-0.231 0.074-0.344 0.118 0.084 0.182 0.157 0.368 0.197 0.566 0.192-0.175 0.377-0.383 0.547-0.639l-0.052 1.16-6.809 2.362s-0.748-0.295-1.025-0.817c0 0 0.255 0.05 0.619 0.075-0.027-0.163-0.077-0.319-0.147-0.469-0.141 0.051-0.284 0.094-0.443 0.096-0.22 0.003-0.22-0.338 0-0.342 0.106-0.001 0.205-0.026 0.303-0.057-0.048-0.109-0.089-0.221-0.114-0.338-0.045-0.216 0.285-0.308 0.328-0.092 0.023 0.111 0.063 0.215 0.104 0.317 0.127-0.054 0.252-0.112 0.387-0.137 0.216-0.042 0.31 0.287 0.093 0.328-0.122 0.024-0.232 0.073-0.345 0.117 0.084 0.186 0.149 0.379 0.177 0.586 0.795-0.002 1.89-0.193 2.545-1.136l0.243-0.084c-0.033-0.121-0.074-0.238-0.127-0.352-0.141 0.051-0.284 0.092-0.442 0.094-0.221 0.002-0.221-0.339 0-0.342 0.105-0.001 0.204-0.024 0.301-0.055-0.048-0.11-0.089-0.222-0.113-0.339-0.045-0.215 0.285-0.31 0.33-0.092 0.023 0.11 0.06 0.214 0.101 0.316 0.127-0.053 0.253-0.11 0.389-0.137 0.217-0.041 0.308 0.287 0.092 0.329-0.122 0.023-0.231 0.073-0.344 0.117 0.052 0.114 0.1 0.23 0.137 0.349l0.381-0.132s1.362 0.388 2.578-0.461c-0.003-0.247-0.098-0.466-0.201-0.684-0.143 0.052-0.288 0.094-0.448 0.096-0.221 0.002-0.221-0.34 0-0.342 0.108-0.001 0.211-0.027 0.311-0.059-0.036-0.088-0.071-0.177-0.09-0.271-0.022-0.108 0.05-0.184 0.133-0.207zm0.928 2.187c0.688 0.093 0.414 0.782 0.414 0.782l-0.504 0.183h-0.184l-0.183-0.228s0-0.368 0.044-0.553c0.047-0.183 0.413-0.184 0.413-0.184zm-1.194 0.414c0.69 0.093 0.414 0.782 0.414 0.782l-0.508 0.183h-0.181l-0.184-0.23s0.001-0.369 0.047-0.551c0.044-0.184 0.412-0.184 0.412-0.184zm-1.193 0.459c0.689 0.093 0.412 0.782 0.412 0.782l-0.506 0.185h-0.183l-0.184-0.23s-0.001-0.369 0.045-0.551c0.045-0.185 0.416-0.186 0.416-0.186zm-1.242 0.414c0.688 0.093 0.414 0.782 0.414 0.782l-0.506 0.183h-0.182l-0.187-0.228s-0.001-0.369 0.047-0.553c0.045-0.184 0.414-0.184 0.414-0.184zm6.937 0.094s-0.867 0.394-1.045 0.947c-0.081 0.252-0.157 0.43-0.228 1.149-0.02 0.207-0.062 0.613-0.133 0.746-0.091 0.169-0.192 0.322-0.297 0.394-0.107 0.072-0.287 0.104-0.287 0.104s0.25-0.259 0.287-0.396c0.038-0.137 0.047-0.58 0.123-1.065 0.075-0.484 0.261-0.874 0.287-0.953 0.028-0.08 0.116-0.365 0.246-0.492 0.318-0.315 1.047-0.434 1.047-0.434zm-8.178 0.365c0.69 0.093 0.414 0.782 0.414 0.782l-0.507 0.185h-0.182l-0.184-0.23s0-0.37 0.045-0.551c0.047-0.185 0.414-0.186 0.414-0.186zm-1.242 0.414c0.69 0.093 0.416 0.782 0.416 0.782l-0.508 0.183h-0.183l-0.184-0.228s0-0.369 0.045-0.551c0.046-0.185 0.414-0.186 0.414-0.186zm9.012 2.379l-1.652 0.885c-0.592 0.336-0.707 0.852-0.707 0.852l-0.207 1.238c-0.38-1.999 0.253-2.045 0.253-2.045 0.924-0.394 2.313-0.93 2.313-0.93zm-10.711 0.287s1.516 0 1.912 0.784c0.245 0.488 1.488 1.191 1.488 1.191-0.596 0.139-1.561-0.508-1.701-1.008-0.099-0.358-1.699-0.967-1.699-0.967zm9.506 0.594c0.211 0.103-0.989 1.811-1.031 1.446 0 0 0.09-0.886 0.847-1.381 0.096-0.062 0.154-0.08 0.184-0.065zm2.103 0.106c0.018-0.008 0.037-0.009 0.053 0 0.179 0.097-0.383 0.217 1.024 1.381 1.403 1.161 0.502 3.277 0.502 3.277-0.218-0.204 0.794-1.648-0.762-3.139-1.031-0.989-0.942-1.463-0.817-1.519zm-6.351 1.037c0.374 0.026 1.001 0.257 1.68 1.306l-1.125-0.746s-0.473-0.224-1.254-0.24l-1.526 0.408s0.911-0.419 1.867-0.685c0 0 0.133-0.059 0.358-0.043zm-0.459 0.695c0.85 0.005 1.236 0.41 1.236 0.41 0.131 0.303-2.751-0.242-1.629-0.385 0.141-0.018 0.271-0.026 0.393-0.025zm7.099 0.17c-0.072-0.105 0.673 0.458 0.309 1.256 0 0-0.237-1.151-0.309-1.256zm-9.373 0.133c0.069-0.064 0.317 0.314-0.259 1.17-0.758 1.13-0.061 1.636-0.168 1.793 0 0-0.738-1.075-0.034-1.989 0.704-0.913 0.364-0.888 0.461-0.974zm5.655 0.023l1.756 1.563-1.715-1.291-0.041-0.272zm-1.207 0.344l0.115 0.367-0.211 2.01 0.051-1.479 0.045-0.898zm2.92 1.273l-1.067 1.37c0.09 0.181 0.241 0.446 0.529 0.683 0.488 0.141 4.018 0.464 2.639-1.086 0 0 1.988 1.521-2.824 1.346-3.166 2.598-3.07 0.654-3.07 0.654 0.293 0.813 0.965 0.997 2.861-0.726 0.028-0.142 0.025-0.273 0.008-0.393-0.079-0.206-0.127-0.32-0.168-0.449-0.001-0.001 0-0.003 0-0.004-0.004-0.01-0.006-0.018-0.01-0.027-0.035-0.054-0.09-0.151-0.09-0.151s0.061 0.113 0.098 0.178l-1.871-0.213 1.711-0.064 1.254-1.118zm-1.102 1.368c0.006 0.008 0.009 0.015 0.016 0.025l0.019-0.023-0.097-0.198s0.041 0.129 0.062 0.196zm0.178 0.48c0.061 0.162 0.121 0.329 0.189 0.465h0.012l0.002-0.002c-0.066-0.275-0.18-0.544-0.279-0.746 0.032 0.084 0.061 0.176 0.076 0.283zm-6.512-1.17c0.133 0.017 0.425 0.325 0.65 1.524 0.394 2.115 1.758 2.05 1.809 2.343 0 0-1.774-0.395-2.004-2.203-0.231-1.808-0.533-1.403-0.525-1.607 0-0.036 0.026-0.063 0.07-0.057zm-0.955 0.156c-0.101 0.133-0.518 1.686-0.518 1.686-0.357-1.171 0.618-1.817 0.518-1.686zm2.066 0.348c0.028 0.124 0.713 1.08 0.713 1.08-0.833-0.274-0.739-1.204-0.713-1.08zm7.373 1.213s0.213 0.148 0.135 0.869c-0.072 0.686-2.209 1.136-2.512 0.963-0.303-0.171-0.616-0.649-0.748-0.814 0 0 0.534 0.47 0.801 0.644 0.268 0.174 2.148-0.24 2.303-0.902 0.114-0.478 0.021-0.76 0.021-0.76zm3.797 0.148c0.051-0.002 0.079 0.008 0.069 0.028-0.073 0.164-1.476 0.352 0.742 1.783 2.216 1.429 1.094 4.984 1.094 4.984-0.347-0.261 1.149-2.984-1.463-4.699-2.283-1.501-0.796-2.082-0.442-2.096zm-12.773 0.096c-0.086 0.14-0.338 1.729-0.338 1.729-0.479-1.128 0.423-1.871 0.338-1.729zm0.264 1.324c-0.06 0.155-0.038 1.764-0.038 1.764-0.663-1.031 0.099-1.917 0.038-1.764zm0.552 1.655c-0.06 0.153-0.037 1.763-0.037 1.763-0.664-1.03 0.097-1.917 0.037-1.763zm0.649 2.552c0.006-0.021 0.016-0.019 0.025 0.01 0.073 0.234 1.6 2.41 1.6 2.41-1.551-0.98-1.667-2.27-1.625-2.42zm10.892 0.067c0.488 0.781 2.325 2.457 2.325 2.457-1.903 0.177-2.801-0.238-2.801-0.238 0.087 0.556 0.41 0.789 0.41 0.789-1.873 0.527-3.514-0.411-3.514-0.411-0.761 1.318 0.559 1.465 0.559 1.465h-0.967c-2.4-0.03-3.221-1.816-3.221-1.816-0.321 1.522 1.041 2.142 1.041 2.142-1.61 0.118-2.738-1.38-2.738-1.38 0.41 0.468 1.902 1.066 1.902 1.066-0.815-1.26-0.234-2.293-0.234-2.293 1.553 2.456 3.103 1.93 3.221 1.93-0.38-0.848 0.381-1.375 0.381-1.375 1.756 0.847 3.043 0.468 3.043 0.468l-0.233-0.878c1.258 0.263 2.311 0.205 2.311 0.205-0.854-0.835-1.294-1.695-1.485-2.131zm-0.84 1.14c0.125 0.109 1.645 0.631 1.645 0.631-1.194 0.275-1.77-0.739-1.645-0.631zm-5.835 0.286c0.044 0.158 1.048 1.418 1.048 1.418-1.153-0.41-1.095-1.577-1.048-1.418zm-2.272 0.257c0.045 0.159 1.049 1.418 1.049 1.418-1.155-0.41-1.096-1.576-1.049-1.418zm3.355 0.028c0.047 0.16 1.051 1.418 1.051 1.418-1.156-0.408-1.097-1.577-1.051-1.418zm2.856 0.152c0.125 0.109 1.648 0.633 1.648 0.633-1.195 0.275-1.773-0.742-1.648-0.633zm6.549 0.799l-0.031 2.142c1.335 0.838 2.33 2.7 2.33 2.7l3.365 1.914s-0.239-1.096-0.139-1.121c0.138-0.035 1.033 0.242 1.033 0.242l-0.238-1.018s1.01 0.296 1.014 0.24c0.126-1.671-2.052-2.653-4.155-3.187-2.191-0.557-3.179-1.912-3.179-1.912zm-6.172 2.391l0.234 0.996 0.352-0.266 0.088 0.908 0.73-0.732 0.057 1.375 0.558-0.614v1.143l0.76-0.205-1.054 0.701 0.119-1.14-0.647 0.673 0.059-1.638-0.789 1.111-0.059-1.201s-0.408 0.354-0.408 0.178v-1.289zm11.291 0.96s1.329 0.066 1.723 1.204l-1.723-1.204zm-0.545 0.858c0.343-0.003 1.084 0.102 1.518 0.986l-1.704-0.972s0.072-0.013 0.186-0.014zm-10.67 0.084c0.195 1.21-0.858 1.716-0.74 1.599 0.119-0.116 0.74-1.599 0.74-1.599zm0.625 0.508c0.196 1.208-0.858 1.716-0.742 1.599s0.742-1.599 0.742-1.599zm8.725 0.047s1.75 0.223 1.9 1.148l-1.9-1.148zm-8.18 0.617c0.198 1.208-0.857 1.716-0.738 1.599 0.116-0.116 0.738-1.599 0.738-1.599zm6.854 1.234s0.836 0.922 0.781 2.399l-0.781-2.399zm-0.752 0.449s0.901 0.832 0.638 2.266l-0.638-2.266zm-0.883 0.461s1.003 2.08 0.506 3.08l-0.506-3.08zm-4.864 1.049c-0.808 0.919-1.872 0.429-1.707 0.445 0.164 0.017 1.707-0.445 1.707-0.445zm-0.207 0.758c-0.808 0.92-1.872 0.428-1.707 0.445 0.165 0.016 1.707-0.445 1.707-0.445zm-6.072 5.766c-2.131 2.837-0.637 3.695-0.637 3.695-2.142-0.755 0.637-3.695 0.637-3.695zm-5.197 1.363s5.306 0.234 2.535 6.361c0 0 2.367-5.065-2.535-6.361zm9.043 9.189c0.995 3.367-0.528 3.014-0.176 2.664 0.351-0.352 0.176-2.664 0.176-2.664zm-11.703 0.211c0.995 3.366-0.525 3.015-0.174 2.662 0.352-0.351 0.174-2.662 0.174-2.662zm12.334 0.653c0.995 3.363-0.528 3.012-0.174 2.662 0.349-0.352 0.174-2.662 0.174-2.662zm-13.151 0.166c0.995 3.366-0.529 3.014-0.177 2.664 0.35-0.352 0.177-2.664 0.177-2.664zm13.885 0.466c0.996 3.367-0.526 3.014-0.174 2.664 0.349-0.351 0.174-2.664 0.174-2.664zm-14.539 0.608c0.994 3.365-0.526 3.014-0.176 2.664 0.352-0.354 0.176-2.664 0.176-2.664z" transform="matrix(.8 0 0 -.8 472.74 827.8)" fill="#231f20"/><path id="horse" d="m94.266 34.949c-0.061-0.007-0.105 0-0.135 0.01-0.04 0.013-0.057 0.033-0.057 0.033-0.2 0.111 0.764 1.074 0.764 1.074l3.092 3.832 0.279 0.465s-0.752 0.631-1.602 0.819c-0.89 0.197-0.454 1.533-1.261 1.884-0.178 0.078-0.809 0.227-1.119 0.352-0.312 0.124-1.204 0.697-1.284 0.662-0.3-0.129-1.055-0.145-1.013 0.643-0.218 0.29-0.227 0.308-0.537 0.867-0.084 0.186 0.21 0.917 0.396 1.154 0.078 0.109 0.336-0.139 0.373 0.047 0.021 0.104-0.433 0.29-0.838 0.746-0.406 0.455-1.361 0.505-1.568 0.713-0.206 0.206 0.228 0.176 0.228 0.176s0.353-0.021 0.621-0.094c0.27-0.072 0.594 0 0.952-0.207 0.445-0.257 0.932-0.009 1.47-0.195 0.289-0.093 0.498-0.258 0.498-0.258s-0.564 0.38-0.648 0.516c-0.099 0.162 0.093 0.622 0.734 0.839 0.124 0.083-0.081 0.33-0.068 0.537 0.021 0.333 0.128 0.63 0.332 0.477 0.084-0.062-0.144-0.436 0.596-0.891 0.626-0.331 0.252-0.849 1.215-0.931 0.856-0.074 1.304-0.653 1.304-0.653 0.498 0.932 2.106 0.569 2.106 0.569s-0.78 0.342-1.02 0.394c-0.244 0.055-0.696 0.309-0.877 0.309-0.182 0-0.394 0.211-0.394 0.211s-1.104 0.63-2.764 1.965c-3.565 3.653-3.859 9.045-3.859 9.045-0.182 3.437-4.28 6.929-4.28 6.929 0.783 2.418-1.084 9.131-1.084 9.131l0.243 0.322c0.902 0.647 1.867-0.75 1.867-0.75-0.244-3.76 2.65-7.843 2.65-7.843 0.541-0.053 3.25-3.008 3.25-3.008 1.464 2.911 3.141 4.308 3.141 4.308 1.025 0.745 2.004 1.465 2.004 1.465l0.828 0.828c-2.691 0.414-4.387 1.489-4.387 1.489l-0.803 0.556c0.182 2.688-1.746 5.426-1.746 5.426l1.326-1.019c-0.947 2.991-4.156 4.349-4.156 4.349-3.795 2.094-4.816 4.889-4.816 4.889l0.24 0.324-0.061 0.375-0.24 0.965s-0.062 0.379-0.123 0.644c-0.059 0.27-0.119 0.54-0.119 0.54l0.303 0.375 0.299 0.966 0.666-0.482c1.082-3.923 4.359-5.949 4.359-5.949l2.98-1.399c0.3-0.321 2.887-1.955 2.887-1.955 3.191-1.397 3.143-3.099 3.143-3.099l1.737-0.538c0.33 4.18 0.8 5.127 0.8 5.127 2.35 1.66 5.59 3.913 5.59 3.913 1.67 2.98-0.12 7.767-0.12 7.767l-0.3 1.344 0.24 1.556 1.57-0.376s0.3-0.322 0.42-0.483c0.12-0.162 0.24-0.432 0.24-0.432l0.24-1.019c-0.72-1.343 0.96-4.352 0.96-4.352 0.97-2.253 0.38-4.287 0.38-4.287-1.51-2.524-3.29-4.91-3.29-4.91 1.24-1.8 2.27-5.519 2.27-5.519 0.54 0.752 2.18 2.375 3.83 1.671 2.9-1.552 1.87-3.643 0.64-5.785-6.85-8.827-0.22-11.877-0.22-11.877l0.45-0.16c0.67-0.172 1.04-0.065 1.59-0.361 0.65-0.344 0.55-1.035 0.55-1.035l-0.21 0.224c0.51-0.687 0.12-1.119 0.12-1.119l-0.24 0.326c0.52-0.757 0.06-1.379 0.04-1.275-0.04 0.27-0.2 0.863-0.63 0.975-0.47 0.118-0.78 1.083-1.36 1.232-0.64 0.057-1.15 0.533-1.15 0.533-6.44 4.996-0.78 11.367 0.59 13.912 1.54 2.869-0.75 3.79-2.05 2.735-2.11-1.988-0.8-3.297-1.3-5.491-0.66-3.932-5.9-8.543-5.9-8.543-1.18-1.615-1-3.106-0.9-4.589 0.09-1.124 2.2-3.793 2.2-3.793 0.37-0.497 0.75 0.218 0.99-0.186 0.17-0.295 0.13-0.781 0.25-1.055 0.12-0.26 0.79-0.21 0.87-0.435 0.1-0.285-0.59-0.894-0.53-1.094 0.07-0.269 0.86-0.218 0.94-0.498 0.17-0.549-0.81-0.855-0.72-1.187 0.06-0.209 0.57-0.575 0.64-0.668 0.12-0.17 0.17-0.176 0.19-0.34 0.03-0.163-0.1-0.459-0.1-0.459s-0.15-0.322-0.59-0.574c-0.44-0.249-0.04-0.573-0.04-0.573s0.33-0.25 0.53-0.644-0.25-0.753-0.41-0.824c-0.16-0.072-0.23-0.029-0.63-0.209s-0.36-0.598-0.08-0.885c0.28-0.286 0.61-0.451 0.48-0.699-0.12-0.248-0.81-0.606-0.93-0.643-0.12-0.035-0.32-0.307-0.32-0.307s-0.04-0.336-0.04-0.445c0-0.106 0.16-0.5 0.28-0.787 0.12-0.288 0.04-0.393-0.04-0.5-0.08-0.108-1.03 0.005-1.2-0.182-0.47-0.511 0.34-0.636 0.23-0.759-0.32-0.364-1.62 0.324-1.65 0.091-0.03-0.232 0.13-0.341 0.31-0.605 0.16-0.216-0.64-0.072-0.64-0.072s-0.38 0.088-0.5 0.125-0.37 0.164-0.42 0.019c-0.04-0.109-0.07-0.055 0.05-0.217 0.13-0.176 0.73-0.31 0.52-0.549-0.07-0.075-1.28 0.126-1.71 0.477-0.37 0.275-0.66 0.734-0.66 0.734-0.4 0.179-1.072-0.621-1.072-0.621l-3.973-3.56c-0.581-0.558-0.917-0.705-1.099-0.727zm2.107 2.602c0.339 0.125 0.686 0.018 1.004 0.127-0.192 0.164-0.504 0.118-0.76 0.152 0.01 0.004 0.023 0.012 0.031 0.016l-0.039-0.016h0.008c-0.099-0.043-0.238-0.096-0.244-0.279zm0.615 0.638c0.338 0.124 0.687 0.019 1.004 0.127-0.193 0.166-0.509 0.116-0.765 0.151 0.011 0.005 0.025 0.013 0.035 0.017l-0.039-0.017h0.004c-0.1-0.043-0.233-0.098-0.239-0.278zm0.561 0.665c0.337 0.125 0.686 0.018 1.004 0.126-0.192 0.165-0.504 0.119-0.76 0.153 0.01 0.004 0.022 0.011 0.031 0.015l-0.039-0.015c0.003-0.001 0.006 0 0.008 0-0.1-0.044-0.238-0.096-0.244-0.279zm0.56 0.644c0.338 0.125 0.687 0.018 1.004 0.127-0.192 0.165-0.505 0.118-0.761 0.152 0.009 0.005 0.022 0.012 0.031 0.016l-0.039-0.016c0.002 0 0.005 0.001 0.008 0-0.1-0.043-0.237-0.096-0.243-0.279zm6.121 1.404c0.48-0.002 0.66 0.56 1.09 0.95-0.48-0.024-0.46-0.429-0.82-0.635-0.29-0.171-0.52 0.055-0.84-0.063l-0.02-0.035c0.24-0.153 0.44-0.216 0.59-0.217zm-6.574 0.467c0.215-0.027 0.464 0.073 0.707 0.465 0 0-0.552-0.497-1.332-0.02 0 0 0.267-0.4 0.625-0.445zm0.158 0.76c0.287 0.052 0.451 0.275 0.674 0.164 0.37-0.184-0.411 0.941-1.211 0.705-0.53-0.156-0.496 0-0.496 0s0.043-0.435 0.389-0.701c0.185-0.143 0.387-0.214 0.644-0.168zm6.386 0.019c0.5-0.118 0.67 0.785 1.2 0.504-0.67 0.419-0.79-0.308-1.44-0.359v-0.025c0.09-0.066 0.17-0.103 0.24-0.12zm1.09 1.194c0.32 0.065 0.63 0.573 0.97 0.517-0.36 0.432-0.73-0.484-1.2-0.336l-0.11-0.062c0.12-0.113 0.23-0.141 0.34-0.119zm-2.63 0.513s-0.5 1.538-1.11 1.653-1.5 0.154-1.5 0.154 1.69 0.037 2.61-1.807zm2.57 0.594c0.3 0.052 0.54 0.528 0.86 0.463-0.37 0.425-0.65-0.439-1.09-0.281l-0.1-0.057c0.12-0.112 0.23-0.142 0.33-0.125zm-12.55 0.235c0.192 0.019 0.392 0.155 0.488 0.355 0.066 0.139 0.019 0.417-0.219 0.27-0.162-0.102 0.023-0.352-0.295-0.366-0.166-0.006-0.252 0.366-0.39 0.172 0 0-0.023-0.023-0.024-0.088 0.065-0.265 0.248-0.363 0.44-0.343zm13.43 0.759c0.31-0.022 0.53 0.571 0.77 0.543-0.49 0.329-0.57-0.471-0.91-0.293l-0.19 0.022c0.12-0.19 0.23-0.264 0.33-0.272zm-0.5 0.776c0.51-0.029 0.52 0.892 1.09 0.711-0.74 0.292-0.73-0.445-1.36-0.612l0.02-0.023c0.09-0.049 0.18-0.072 0.25-0.076zm-4.5 0.445c0.12-0.04 0.28 0.068 0.21 0.219-0.03 0.078-0.06 0.16-0.08 0.242 0.14 0.034 0.28 0.064 0.4 0.127 0.2 0.095 0.08 0.414-0.12 0.316-0.12-0.057-0.24-0.083-0.37-0.117-0.02 0.126-0.06 0.251-0.1 0.373l0.38 0.147s-0.41 0.653 0.34 0.931c0.84 0.312 1.06-0.31 1.06-0.31s0.33 0.125 0.55 0.199c0.05-0.129 0.08-0.263 0.11-0.4-0.14-0.045-0.29-0.098-0.42-0.194-0.13-0.098-0.05-0.276 0.07-0.304 0.05-0.009 0.09-0.002 0.14 0.031 0.09 0.065 0.18 0.108 0.28 0.142 0.03-0.1 0.06-0.199 0.11-0.293 0.09-0.198 0.41-0.075 0.31 0.125-0.04 0.087-0.07 0.177-0.09 0.268 0.13 0.033 0.26 0.061 0.38 0.119 0.2 0.098 0.07 0.414-0.13 0.317-0.1-0.053-0.22-0.078-0.33-0.11-0.03 0.141-0.07 0.28-0.11 0.414 0.11 0.043 0.14 0.046 0.24 0.09-0.37 0.994 0.35 1.055 0.35 1.055 0.77 0.466 0.93-0.405 0.93-0.405l0.37 0.209c0.08-0.159 0.14-0.328 0.17-0.505-0.14-0.044-0.28-0.096-0.41-0.19-0.13-0.099-0.05-0.277 0.08-0.305 0.04-0.008 0.08-0.001 0.13 0.032 0.08 0.062 0.18 0.103 0.27 0.136 0.03-0.1 0.06-0.2 0.1-0.294 0.03-0.05 0.07-0.079 0.11-0.092 0.12-0.039 0.28 0.068 0.21 0.217-0.04 0.087-0.07 0.179-0.09 0.271 0.13 0.033 0.27 0.061 0.39 0.121 0.2 0.098 0.07 0.415-0.12 0.318-0.12-0.055-0.24-0.08-0.35-0.113-0.05 0.196-0.1 0.387-0.2 0.569l0.39 0.216s-0.59 0.591-0.06 0.84c0.77 0.36 0.06 1.086 0.06 1.086-1.74-1.676-7.108-3.693-7.108-3.693s0.126-0.777 0.809-0.498c0.409 0.168 0.589-0.342 0.589-0.342l0.19 0.074c0.04-0.115 0.07-0.234 0.09-0.355-0.14-0.043-0.27-0.094-0.39-0.184-0.14-0.098-0.06-0.277 0.07-0.305 0.04-0.008 0.09-0.001 0.13 0.032 0.08 0.059 0.17 0.101 0.26 0.134 0.03-0.091 0.05-0.183 0.09-0.269 0.03-0.05 0.07-0.079 0.11-0.092zm5.23 0.744c0.51-0.029 0.52 0.893 1.1 0.711-0.74 0.293-0.73-0.445-1.37-0.611l0.02-0.022c0.1-0.049 0.18-0.074 0.25-0.078zm-9.084 3.953c0.066 0 0.142 0.049 0.142 0.139v0.004c-0.003 0.249-0.058 0.491-0.125 0.723l-0.056-0.014 0.056 0.016c-0.02 0.063-0.081 0.101-0.134 0.101h-0.002c-0.068 0-0.146-0.047-0.147-0.139 0-0.012 0.001-0.027 0.006-0.041 0.061-0.212 0.112-0.431 0.115-0.648 0-0.09 0.079-0.141 0.145-0.141zm-1.694 0.1c0.056-0.004 0.118 0.039 0.129 0.107 0.059 0.318 0.067 0.631 0.067 0.946 0 0.091-0.08 0.142-0.145 0.142-0.066 0-0.146-0.051-0.146-0.142 0-0.297-0.001-0.59-0.053-0.875-0.005-0.01-0.006-0.022-0.006-0.034 0-0.092 0.083-0.144 0.154-0.144zm2.969 0.361c0.083 0.005 0.144 0.068 0.147 0.149 0 0.033-0.014 0.071-0.043 0.099-0.115 0.115-0.217 0.223-0.268 0.366l-0.055-0.02 0.055 0.022c-0.022 0.062-0.082 0.095-0.135 0.095-0.001 0-0.002 0-0.003-0.002-0.067 0-0.144-0.042-0.145-0.131 0-0.016 0.003-0.035 0.008-0.048 0.072-0.199 0.199-0.345 0.338-0.483 0.028-0.031 0.066-0.047 0.101-0.047zm-4.381 0.309c0.055-0.001 0.119 0.035 0.139 0.101 0.069 0.21 0.125 0.42 0.127 0.649l0.002 0.043-0.008 0.002c-0.021 0.061-0.085 0.095-0.135 0.095h-0.002c-0.063 0-0.142-0.049-0.142-0.14-0.003-0.194-0.052-0.378-0.117-0.567-0.003-0.016-0.009-0.032-0.008-0.048 0.001-0.089 0.078-0.135 0.144-0.135zm6.02 0.293c0.08 0.004 0.14 0.071 0.15 0.152 0 0.031-0.01 0.065-0.04 0.094-0.14 0.171-0.289 0.321-0.479 0.439l-0.031-0.05 0.027 0.05c-0.021 0.014-0.047 0.022-0.068 0.022h-0.004c-0.087-0.003-0.141-0.076-0.141-0.152-0.001-0.043 0.023-0.09 0.068-0.118 0.164-0.101 0.293-0.232 0.418-0.384 0.02-0.033 0.06-0.053 0.1-0.053zm-5.811 0.457h0.002-0.002zm2.358 0.363c0.065 0 0.144 0.05 0.144 0.141v0.002c-0.003 0.195-0.049 0.389-0.101 0.57-0.016 0.066-0.076 0.102-0.131 0.102h-0.002c-0.07 0-0.147-0.049-0.148-0.139 0-0.014 0.001-0.027 0.007-0.041 0.047-0.163 0.083-0.329 0.086-0.492 0-0.093 0.081-0.144 0.145-0.143zm-1.313 0.076c0.054-0.002 0.119 0.038 0.127 0.108 0.048 0.248 0.055 0.497 0.055 0.746 0 0.089-0.082 0.138-0.147 0.138s-0.142-0.049-0.142-0.138c0-0.231-0.004-0.456-0.043-0.674-0.004-0.011-0.006-0.022-0.006-0.033 0.001-0.094 0.085-0.147 0.156-0.147zm5.676 0.143c0.08 0.004 0.13 0.077 0.13 0.15 0 0.042-0.02 0.09-0.06 0.117-0.18 0.13-0.36 0.239-0.58 0.305l-0.01-0.055 0.01 0.055c-0.02 0.001-0.03 0.004-0.04 0.004-0.09-0.002-0.14-0.078-0.14-0.146 0-0.054 0.04-0.118 0.1-0.135 0.19-0.059 0.35-0.152 0.51-0.268 0.02-0.02 0.05-0.027 0.08-0.027zm-3.373 0.137c0.081 0.003 0.144 0.066 0.147 0.15 0.001 0.034-0.013 0.071-0.042 0.1-0.086 0.086-0.162 0.166-0.201 0.271-0.025 0.064-0.084 0.096-0.136 0.096h-0.002c-0.067 0-0.146-0.044-0.147-0.131 0-0.018 0.005-0.037 0.01-0.051 0.06-0.16 0.161-0.277 0.269-0.389 0.029-0.03 0.066-0.046 0.102-0.046zm-6.242 0.144s-4.854 3.634-5.75 6.254c-0.895 2.619-3.676 3.973-3.676 3.973s-1.022 2.845-0.85 3.174c0.254 0.481 0.873 1.263 0.873 1.263s1.309-3.792 2.549-3.929c1.242-0.139 3.905-1.939 4.16-2.208 0.852-0.896 1.058-1.907 1.149-3.927 0.059-1.288 1.545-4.6 1.545-4.6zm2.84 0.098c0.052-0.001 0.117 0.034 0.138 0.099 0.053 0.165 0.095 0.334 0.1 0.514l0.002 0.043-0.008 0.002c-0.019 0.062-0.082 0.098-0.137 0.098h-0.002c-0.065 0-0.142-0.052-0.142-0.141-0.003-0.146-0.039-0.285-0.088-0.43-0.005-0.016-0.011-0.032-0.01-0.05 0.004-0.088 0.08-0.135 0.147-0.135zm4.677 0.226c0.083 0.004 0.143 0.071 0.147 0.153 0 0.03-0.013 0.066-0.035 0.093-0.11 0.137-0.231 0.253-0.381 0.348l-0.033-0.049 0.029 0.049c-0.021 0.011-0.046 0.022-0.072 0.022-0.089-0.004-0.141-0.076-0.141-0.151-0.001-0.044 0.022-0.093 0.068-0.119 0.124-0.077 0.219-0.177 0.317-0.293 0.025-0.035 0.063-0.053 0.101-0.053zm2.718 0.676c0.09 0.003 0.14 0.081 0.14 0.151 0 0.053-0.03 0.119-0.1 0.134-0.24 0.057-0.48 0.065-0.71 0.065-0.09 0-0.14-0.08-0.14-0.145 0-0.066 0.05-0.142 0.14-0.142 0.22 0 0.43-0.008 0.63-0.057 0.01-0.005 0.03-0.006 0.04-0.006zm-2.014 0.131c0.087 0.005 0.136 0.075 0.136 0.15 0.002 0.043-0.017 0.09-0.058 0.121-0.142 0.103-0.289 0.186-0.459 0.237l-0.018-0.053 0.012 0.055c-0.013 0.002-0.025 0.004-0.039 0.004-0.09-0.002-0.135-0.077-0.135-0.145-0.004-0.054 0.033-0.117 0.1-0.137 0.141-0.045 0.258-0.116 0.38-0.205 0.024-0.02 0.054-0.027 0.081-0.027zm1.644 0.965h0.49c0.09 0 0.14 0.078 0.14 0.144 0 0.067-0.05 0.145-0.14 0.145h-0.49c-0.09 0-0.14-0.078-0.14-0.145 0-0.066 0.06-0.144 0.14-0.144zm-1.16 0.033c0.09 0.001 0.14 0.077 0.14 0.148 0 0.055-0.03 0.121-0.1 0.135-0.19 0.046-0.373 0.051-0.562 0.051-0.087 0-0.14-0.076-0.14-0.143 0-0.066 0.053-0.144 0.14-0.144 0.169 0 0.327-0.006 0.482-0.041 0.01-0.005 0.02-0.006 0.04-0.006zm-0.283 0.852h0.383c0.09 0 0.13 0.077 0.13 0.142 0 0.066-0.04 0.145-0.13 0.145h-0.383c-0.092 0-0.141-0.079-0.141-0.145 0-0.065 0.049-0.142 0.141-0.142zm-2.862 3.222c0.228 0.101 1.385 1.053 1.385 1.053s-0.921 0.076-1.42-1.039c-0.011-0.026 0.003-0.028 0.035-0.014zm-0.523 0.03l-0.07 1.597-2.918 2.987-0.071-0.278 2.641-2.986 0.418-1.32zm0.281 0.402c0.199 0.152 1.1 1.35 1.1 1.35s-0.915-0.143-1.139-1.344c-0.005-0.028 0.011-0.027 0.039-0.006zm-2.381 4.375s0.693 1.297 2.192 1.471c1.497 0.172-1.528 0.864-2.192-1.471zm0.819 1.543s0.978 1.096 2.474 0.91c1.498-0.186-1.278 1.201-2.474-0.91zm0.988 1.178s1.183 0.872 2.611 0.382c1.43-0.49-1.006 1.439-2.611-0.382zm1.229 0.92s1.258 0.759 2.632 0.14c1.38-0.619-0.87 1.526-2.632-0.14zm2.732 4.101s-0.17 2.173-0.01 5.006l-1.584 0.242 1.219-0.467s-0.126-1.905 0.375-4.781zm-3.608 3.184c0.291 0.055 1.593 1.339 0.758 2.955 0 0 0.381-1.417-0.595-2.569-0.244-0.287-0.259-0.405-0.163-0.386zm-0.273 1.054c0.273 0.114 1.284 1.637 0.137 3.049 0 0 0.663-1.31-0.057-2.637-0.18-0.331-0.171-0.45-0.08-0.412zm-0.533 1.02c0.17-0.106 1.031 1.81-0.537 3.004 0 0 0.953-1.117 0.568-2.574-0.073-0.274-0.07-0.406-0.031-0.43zm5.354 0.605s0.04 1.469 1.31 2.287c1.27 0.822-1.76 0.102-1.31-2.287zm-0.27 1.588s0.39 1.417 1.82 1.914c1.42 0.498-1.68 0.509-1.82-1.914zm0.71 1.86s0.67 1.307 2.17 1.502c1.5 0.193-1.54 0.843-2.17-1.502z" transform="matrix(.8 0 0 -.8 472.74 827.8)" fill="#231f20"/><path id="FGR" d="m529.54 788.82v0.957c-0.651-0.753-1.557-1.148-2.719-1.148-2.553 0-4.723 2.08-4.723 4.774 0 2.744 2.234 4.71 4.685 4.71 1.353 0 2.068-0.536 2.54-0.843v0.677h1.864v-3h-2.477c-0.498 0.587-1.059 0.907-1.851 0.907-1.417 0-2.489-1.034-2.489-2.451 0-1.456 1.136-2.515 2.489-2.515 0.843 0 1.583 0.434 2.017 1.187h-2.617v1.864h5.119v-5.119h-1.838zm8.0365 7.0452h-0.97v-2.655h0.702c1.008 0 1.532 0.562 1.532 1.353 0 0.677-0.37 1.302-1.264 1.302m1.315-7.11-2.285 3.332v-1.456h0.561v-1.876h-3.689v1.876h0.881v5.349h-0.881v1.889h4.289c2.196 0 3.358-1.404 3.358-3.204 0-1.34-0.728-2.464-1.915-2.706l1.123-1.328h0.919v-1.876h-2.361zm-19.791 6.071v0.97h-1.621v-1.685h2.119v-1.749h-2.119v-1.787h0.881v-1.876h-4.009v1.876h0.881v5.362h-0.881v1.876h6.996v-2.987h-2.247z" fill="#231f20"/><path id="ForestGreenRovers" d="m560.68 739.48-0.383-0.37 0.845-0.874 0.334 0.322c0.34 0.329 0.543 0.654 0.185 1.024-0.287 0.298-0.623 0.244-0.981-0.102m-1.603 1.563-0.334-0.323 0.721-0.747 0.334 0.323c0.28 0.27 0.518 0.558 0.189 0.898-0.316 0.328-0.618 0.13-0.91-0.151m3.642-3.104-2.156-2.082-0.862 0.893 0.419 0.405-2.464 2.551-0.419-0.405-0.862 0.893 2.083 2.012c0.826 0.798 1.692 0.777 2.325 0.121 0.405-0.419 0.522-0.917 0.328-1.445 0.661 0.251 1.28 0.109 1.755-0.383 0.68-0.705 0.728-1.715-0.147-2.56m-6.3524 0.6339 1.655-2.221c0.767-1.029 0.652-2.189-0.533-3.072-1.178-0.878-2.31-0.658-3.083 0.378l-1.654 2.221-0.474-0.354-0.742 0.996 2.011 1.498 0.741-0.995-0.352-0.262 1.56-2.092c0.368-0.495 0.785-0.531 1.157-0.254 0.379 0.283 0.45 0.683 0.081 1.177l-1.559 2.092-0.352-0.262-0.741 0.995 2.004 1.493 0.741-0.995-0.46-0.343zm-6.0599-9.6683-0.613 1.079 0.507 0.288-1.751 3.084-0.507-0.287-0.612 1.079 2.306 1.309 0.612-1.079-0.506-0.288 1.705-3.003 0.969 0.55-0.321 0.565 1.285 0.73 0.979-1.726-4.053-2.301zm-3.7454-1.8067c-1.509-0.615-3.395 0.074-4.084 1.763-0.666 1.634 0.167 3.415 1.652 4.021 0.626 0.255 1.233 0.265 1.813 0.028l-0.204 0.5 1.141 0.465 0.839-2.056-1.329-0.542c-0.514 0.411-1.125 0.454-1.656 0.237-0.813-0.332-1.221-1.21-0.867-2.077 0.347-0.853 1.294-1.296 2.138-0.952 0.54 0.22 0.915 0.71 0.978 1.338l1.501 0.612c0.159-1.576-0.773-2.868-1.922-3.337m-13.6-3.3828-0.19 1.227 0.576 0.089-0.543 3.504-0.576-0.089-0.19 1.227 2.62 0.406 0.19-1.227-0.576-0.089 0.529-3.413 1.102 0.171-0.1 0.642 1.46 0.226 0.304-1.961-4.606-0.713zm-5.6375-0.3078-0.052 1.24 0.582 0.025-0.15 3.543-0.582-0.024-0.053 1.24 2.65 0.112 0.052-1.24-0.582-0.025 0.146-3.451 1.113 0.047-0.027 0.65 1.476 0.063 0.084-1.983-4.657-0.197zm-3.7477 4.493-0.602-1.476 0.959-0.078-0.357 1.554zm0.1-4.312 0.086 1.069 0.573-0.046-0.133 0.553-1.684 0.136-0.203-0.526 0.572-0.046-0.086-1.069-2.651 0.215 0.1 1.237 0.58-0.047 1.743 3.417-0.573 0.046 0.1 1.238 2.298-0.186 1.55-4.929 0.572-0.047-0.1-1.237-2.744 0.222zm-5.7061 5.6028-0.454 0.096-0.216-1.016 0.455-0.096c0.38-0.081 0.752-0.116 0.85 0.346 0.094 0.446-0.239 0.586-0.635 0.67m-0.398-2.203-0.521 0.11-0.252-1.189 0.454-0.096c0.463-0.099 0.846-0.085 0.953 0.419 0.086 0.405-0.147 0.653-0.634 0.756m-0.136-2.552-2.932 0.622 0.257 1.214 0.57-0.121 0.736 3.47-0.57 0.12 0.258 1.215 2.833-0.601c1.123-0.239 1.59-0.968 1.401-1.86-0.121-0.57-0.468-0.945-1.014-1.079 0.578-0.408 0.806-1 0.664-1.669-0.203-0.958-1.013-1.563-2.203-1.311m-3.7291 4.9875 0.25 0.736-0.592 0.2-1.118-3.294 0.552-0.187-0.399-1.176-2.511 0.852 0.399 1.176 0.551-0.187 1.119 3.294-0.568 0.193-0.25-0.736-1.111 0.377 0.67 1.976 4.782-1.623-0.67-1.976-1.104 0.375zm-6.6234 3.4176c-0.825 0.409-1.798 0.08-2.199-0.73-0.412-0.832-0.061-1.816 0.741-2.214 0.817-0.404 1.817-0.061 2.225 0.764 0.394 0.795 0.058 1.771-0.767 2.18m-2.121-4.283c-1.544 0.765-2.204 2.647-1.432 4.205 0.768 1.552 2.658 2.189 4.232 1.41 1.558-0.772 2.2-2.635 1.435-4.179-0.779-1.574-2.677-2.208-4.235-1.436m-3.7285 7.7507c-0.754 0.528-1.766 0.349-2.284-0.392-0.532-0.761-0.332-1.787 0.401-2.3 0.748-0.523 1.787-0.333 2.315 0.422 0.508 0.726 0.322 1.742-0.432 2.27m-2.739-3.917c-1.412 0.988-1.783 2.947-0.786 4.373 0.992 1.418 2.956 1.766 4.395 0.759 1.426-0.997 1.781-2.935 0.794-4.347-1.007-1.439-2.978-1.782-4.403-0.785m-1.6173 6.5636 0.433 0.473-0.791 0.724-0.752-0.822 1.034-0.946-0.781-0.854-1.034 0.947-0.798-0.873 0.429-0.393-0.838-0.916-1.956 1.79 0.838 0.916 0.43-0.393 2.394 2.616-0.429 0.394 0.838 0.915 3.413-3.124-1.334-1.457-1.096 1.003zm70.266 53.769c-0.187 0.388-0.227 0.725-0.097 1.097l-0.251-0.121-0.506 1.049 1.741 0.84 0.591-1.225c-0.476-0.238-0.586-0.573-0.418-0.923 0.158-0.327 0.481-0.452 0.785-0.306 0.632 0.305 0.007 1.232 0.261 2.338 0.125 0.539 0.425 0.946 0.897 1.173 0.905 0.437 2.033 0.08 2.495-0.878 0.231-0.479 0.147-0.792 0.087-1.036l0.213 0.102 0.487-1.011-1.574-0.759-0.576 1.194c0.347 0.195 0.434 0.5 0.298 0.781-0.143 0.297-0.428 0.422-0.709 0.286-0.609-0.293-0.111-1.093-0.189-2.097-0.047-0.641-0.375-1.128-0.961-1.41-0.981-0.473-2.094-0.09-2.574 0.906m1.6078 7.0429-0.343 0.542-1.484-0.939 0.248-0.393c0.357-0.563 0.856-0.657 1.298-0.377 0.379 0.239 0.597 0.668 0.281 1.167m-3.509-3.25 1.054 2.456-0.813-0.515 0.198-0.314-1.049-0.664-1.305 2.062 1.049 0.664 0.312-0.493 2.989 1.893-0.311 0.492 1.056 0.668 1.517-2.397c0.777-1.227 0.403-2.373-0.603-3.01-0.749-0.474-1.635-0.465-2.19 0.113l-0.345-1.098 0.325-0.513-1.049-0.664-0.835 1.32zm-5.1229 6.9758 0.961 0.786 0.369-0.451 2.745 2.246-0.369 0.45 0.961 0.786 2.908-3.555-1.536-1.257-0.941 1.151 0.504 0.412-0.658 0.803-0.824-0.673 0.888-1.085-0.896-0.733-0.887 1.085-0.882-0.722 0.657-0.803 0.503 0.411 0.942-1.15-1.536-1.257-2.909 3.556zm2.7841 4.0369-4.463-2.356-1.196 1.145 2.261 4.463-0.421 0.403 0.858 0.896 1.891-1.809-0.858-0.897-0.335 0.321-1.325-2.496 2.52 1.352-0.335 0.321 0.858 0.897 1.824-1.746-0.858-0.897-0.421 0.403zm-6.9228 5.8063c-0.745 0.54-1.759 0.378-2.29-0.354-0.544-0.752-0.362-1.781 0.363-2.306 0.739-0.535 1.781-0.362 2.321 0.383 0.52 0.718 0.351 1.737-0.394 2.277m-2.804-3.871c-1.395 1.011-1.733 2.976-0.713 4.385 1.016 1.402 2.985 1.717 4.408 0.687 1.408-1.021 1.731-2.965 0.721-4.36-1.031-1.422-3.007-1.732-4.416-0.712m-2.7773 7.4309-0.566 0.302-0.827-1.549 0.41-0.219c0.588-0.314 1.069-0.149 1.315 0.313 0.211 0.394 0.19 0.875-0.332 1.153m-1.447-4.559-0.296 2.656-0.453-0.849 0.328-0.175-0.584-1.095-2.153 1.148 0.584 1.095 0.514-0.274 1.665 3.122-0.514 0.274 0.589 1.102 2.503-1.335c1.281-0.684 1.522-1.865 0.961-2.915-0.417-0.782-1.191-1.212-1.96-0.983l0.242-1.125 0.537-0.286-0.584-1.095-1.379 0.735zm-7.3092 8.3942-1.161-4.645-1.311 0.328-1.464 3.752-0.496-1.983 0.565-0.141-0.301-1.204-2.572 0.643 0.301 1.204 0.565-0.141 0.861 3.44-0.566 0.142 0.301 1.204 1.827-0.457 1.491-3.854 0.518 2.072-0.565 0.142 0.301 1.204 2.572-0.643-0.301-1.204-0.565 0.141zm-11.775-2.7063 0.138 1.234 0.579-0.065 0.394 3.524-0.579 0.065 0.138 1.233 4.565-0.51-0.22-1.972-1.477 0.165 0.072 0.646-1.032 0.115-0.118-1.057 1.393-0.156-0.129-1.149-1.393 0.156-0.127-1.133 1.032-0.116 0.073 0.646 1.477-0.165-0.221-1.972-4.565 0.511zm-5.1038 0.0177-0.004 1.241 0.583 0.002-0.012 3.547-0.582-0.002-0.005 1.241 4.594 0.015 0.007-1.984-1.487-0.005-0.002 0.65-1.038-0.003 0.003-1.064 1.402 0.004 0.004-1.157-1.402-0.004 0.004-1.14 1.038 0.003-0.002 0.65 1.486 0.005 0.007-1.984-4.594-0.015zm-3.5242 4.3555-0.637-0.079 0.216-1.743 0.461 0.057c0.662 0.082 0.96 0.493 0.896 1.013-0.055 0.444-0.349 0.825-0.936 0.752m1.442-4.561-1.771 2.001 0.118-0.955 0.369 0.046 0.153-1.232-2.422-0.3-0.153 1.232 0.578 0.071-0.435 3.512-0.578-0.072-0.154 1.24 2.816 0.349c1.441 0.179 2.318-0.648 2.464-1.83 0.109-0.88-0.277-1.676-1.036-1.932l0.845-0.78 0.603 0.074 0.153-1.232-1.55-0.192zm-5.4017-0.8554-0.163 0.612c-0.288-0.592-0.8-1-1.542-1.198-1.632-0.436-3.374 0.524-3.833 2.246-0.468 1.754 0.624 3.391 2.191 3.809 0.865 0.231 1.413 0.01 1.767-0.105l-0.115 0.432 1.191 0.318 0.511-1.917-1.582-0.422c-0.419 0.29-0.832 0.398-1.338 0.263-0.906-0.242-1.415-1.085-1.173-1.991 0.248-0.93 1.155-1.413 2.02-1.183 0.538 0.144 0.938 0.548 1.087 1.103l-1.673-0.446-0.318 1.191 3.272 0.873 0.873-3.271-1.175-0.314zm-12.198-0.2458-0.371 0.683-0.549-0.298 1.66-3.058 0.512 0.278 0.592-1.091-2.33-1.265-0.592 1.091 0.512 0.278-1.66 3.058-0.527-0.286 0.371-0.683-1.032-0.56-0.995 1.833 4.438 2.409 0.995-1.833-1.024-0.556zm-3.2698-6.6679c-0.354-0.245-0.68-0.338-1.068-0.268l0.159-0.229-0.957-0.664-1.103 1.589 1.117 0.774c0.31-0.432 0.658-0.489 0.977-0.267 0.299 0.207 0.372 0.545 0.18 0.823-0.4 0.576-1.217-0.187-2.35-0.109-0.551 0.039-1.001 0.272-1.299 0.702-0.573 0.826-0.398 1.995 0.477 2.602 0.437 0.303 0.758 0.269 1.009 0.248l-0.135 0.194 0.923 0.64 0.996-1.436-1.089-0.755c-0.247 0.311-0.561 0.35-0.818 0.172-0.271-0.188-0.349-0.489-0.171-0.746 0.385-0.555 1.097 0.063 2.1 0.142 0.641 0.054 1.173-0.194 1.543-0.728 0.621-0.895 0.418-2.054-0.491-2.684m-5.7136-4.4532-0.815 0.936 0.44 0.383-2.329 2.675-0.439-0.382-0.815 0.936 3.465 3.016 1.303-1.497-1.121-0.976-0.427 0.491-0.784-0.682 0.699-0.803 1.057 0.92 0.76-0.872-1.058-0.921 0.749-0.859 0.783 0.681-0.427 0.491 1.121 0.976 1.303-1.497-3.465-3.016zm-5.5148 0.9835-0.429-0.477 1.305-1.175 0.311 0.345c0.446 0.496 0.402 1.002 0.012 1.352-0.332 0.3-0.804 0.394-1.199-0.045m4.077-2.5-2.649 0.351 0.716-0.644 0.248 0.276 0.923-0.83-1.633-1.814-0.922 0.83 0.39 0.433-2.63 2.367-0.39-0.433-0.929 0.836 1.898 2.109c0.972 1.079 2.177 1.029 3.061 0.233 0.659-0.594 0.89-1.448 0.483-2.139l1.15-0.036 0.407 0.452 0.923-0.83-1.046-1.161zm-8.3334-3.0063c-0.516-0.762-0.321-1.771 0.428-2.277 0.769-0.52 1.792-0.304 2.293 0.437 0.511 0.756 0.305 1.792-0.458 2.308-0.734 0.496-1.747 0.295-2.263-0.468m3.959-2.677c-0.965-1.427-2.918-1.829-4.359-0.855-1.434 0.97-1.813 2.928-0.829 4.383 0.975 1.441 2.907 1.827 4.334 0.862 1.455-0.984 1.829-2.949 0.854-4.39m-6.246-2.2892-0.574 0.288-0.481-0.959 0.996-0.5 0.629 1.253 1.034-0.519-0.629-1.253 1.057-0.53 0.261 0.521 1.11-0.557-1.19-2.37-1.109 0.557 0.261 0.521-3.169 1.591-0.262-0.521-1.109 0.557 2.076 4.136 1.766-0.887-0.667-1.328z" fill="#231f20"/><path id="Patches" d="m514.18 737c1.595-0.556 3.234-1.018 4.915-1.365v13.824h-4.915v-12.459zm21.035-1.312c1.681 0.358 3.321 0.824 4.915 1.389v12.382h-4.915v-13.771zm-10.517-0.785c0.775-0.046 1.555-0.076 2.342-0.076 0.866 0 1.721 0.038 2.573 0.093v14.539h-4.915v-14.556zm10.517 77.364v-12.17h4.915v10.781c-1.594 0.565-3.234 1.031-4.915 1.389m-21.035-12.17h4.915v12.223c-1.681-0.347-3.32-0.809-4.915-1.364v-10.859zm10.518 12.955v-12.955h4.915v12.938c-0.852 0.055-1.707 0.093-2.573 0.093-0.787 0-1.567-0.03-2.342-0.076" fill="#231f20"/></g></svg>
