<svg xmlns="http://www.w3.org/2000/svg" width="512pt" height="512pt" style="isolation:isolate" viewBox="0 0 512 512"><defs><clipPath id="a"><path d="M0 0h512v512H0z"/></clipPath></defs><g clip-path="url(#a)"><path fill="#358E9D" d="M204.174 279.042c-37.509-19.592-68.638-21.075-83.203-21.075H70.314l-2.707-4.769h59.551c4.125 0 53.493-.709 82.559 7.09 36.349 9.731 61.484 28.808 66.383 32.031 4.898 3.158 71.216 50.657 71.216 50.657s-11.15 11.407-22.042 11.407c-10.312 0-21.461-7.927-21.461-7.927s-35.512-25.586-40.925-29.389c-5.414-3.802-33.45-24.684-58.778-37.96l.064-.065Z"/><path fill="#358E9D" d="M201.468 316.487c25.07 16.628 39.829 28.809 44.663 32.289 4.769 3.48 27.068 19.399 27.068 19.399s10.248 7.992 22.815 7.992c9.539 0 21.268-11.085 21.268-11.085s-53.234-37.574-58.068-40.925c-4.834-3.416-21.913-16.886-53.751-25.264-26.617-7.025-64.449-6.832-66.962-6.832H90.035l2.836 4.898s36.543.065 39.314.065c5.865 0 42.859 1.804 69.283 19.334v.129Zm8.185-76.694c32.289 17.337 64.255 41.312 70.185 45.63 5.993 4.318 54.523 39.056 54.523 39.056s11.344 7.669 21.72 7.669c10.118 0 21.59-11.214 21.59-11.214s-77.467-55.748-84.428-60.646c-6.96-4.899-34.867-27.778-79.659-38.412-35.06-8.894-93.58-7.863-97.64-7.863H45.05l2.836 4.898h61.871c12.825 0 62.257.645 99.831 20.882h.065Z"/><path fill="#202D5C" d="M490.393 239.019c-9.539-1.675-22.106-2.449-22.106-2.449l-17.144 4.898-9.796-8.185s20.43 1.612 26.102 2.45c4.898 0 3.287-2.45.773-7.412-2.449-4.898-8.12-4.898-8.12-4.898h-51.495s-9.216.064-19.786-2.385c-10.634-2.449-14.823-10.441-14.823-10.441-4.125 9.474 12.245 20.495 12.245 20.495l50.979 36.543c6.574 4.125 12.245.838 12.245.838s13.084-6.574 20.431-8.185c6.574-1.612 26.939-2.449 29.389-1.612 5.735.838 12.245 6.574 12.245 6.574 3.287-22.944-11.472-24.426-21.204-26.231h.065Zm-270.686-75.727c35.511 15.596 86.297 53.557 93.709 58.971 7.476 5.413 80.625 57.81 80.625 57.81s11.472 8.185 22.106 8.185c10.634 0 21.14-10.698 21.14-10.698s-103.377-74.31-110.853-79.659c-7.476-5.349-41.763-34.222-105.503-51.044-43.632-11.536-118.65-11.02-127.351-11.02H0l2.9 4.962h85.782c21.655 0 84.106 1.805 131.089 22.493h-.064Z"/><path fill="#202D5C" d="M214.293 201.446c-38.347-19.206-85.653-21.591-113.172-21.591H25.393l-2.836-4.898h82.302c8.894 0 71.216-.644 112.463 8.701 47.563 10.827 88.489 42.02 92.742 44.985 4.06 2.836 97.963 70.185 97.963 70.185s-10.699 11.021-22.235 11.021c-10.57 0-22.042-8.185-22.042-8.185s-61.097-43.825-67.027-48.015c-5.865-4.189-46.725-34.415-82.43-52.268v.065Z"/></g></svg>