<svg height="351.188458" viewBox="0 0 44.875 55.202" width="284.747399" xmlns="http://www.w3.org/2000/svg" xmlns:xlink="http://www.w3.org/1999/xlink"><symbol id="a" overflow="visible"/><symbol id="b" overflow="visible"/><symbol id="c" overflow="visible"/><symbol id="d" overflow="visible"/><clipPath id="e"><path d="m504 31h49v60h-49z"/></clipPath><clipPath id="f"><path d="m533.88 34.855h-3.875l3.1328 2.3828-1.1953 3.8555 3.1367-2.3828 3.1328 2.3828-1.1953-3.8555 3.1328-2.3828h-3.875l-1.1953-3.8477zm-12.738 0h-3.875l3.1328 2.3828-1.1953 3.8555 3.1328-2.3828 3.1367 2.3828-1.1992-3.8555 3.1328-2.3828h-3.875l-1.1953-3.8477zm25.48 4.8867h-3.875l3.1328 2.3828-1.1953 3.8516 3.1328-2.3789 3.1367 2.3789-1.1953-3.8516 3.1328-2.3828h-3.875l-1.1992-3.8516zm-38.223 0h-3.875l3.1328 2.3828-1.1953 3.8516 3.1328-2.3789 3.1367 2.3789-1.1953-3.8516 3.1328-2.3828h-3.875l-1.1992-3.8516zm-2.7226 28.113c0 5.3867 1.8476 10.34 4.9453 14.262l1.6836-1.3242c-2.8125-3.5586-4.4883-8.0508-4.4883-12.938 0-11.535 9.3516-20.887 20.891-20.887 11.535 0 20.891 9.3516 20.891 20.887 0 4.8789-1.6758 9.3711-4.4805 12.926l1.6836 1.3281c3.0898-3.9219 4.9375-8.8711 4.9375-14.254 0-12.719-10.312-23.031-23.031-23.031s-23.031 10.312-23.031 23.031m4.3047 0c0 10.328 8.4024 18.727 18.727 18.727s18.723-8.3984 18.723-18.727c0-10.324-8.3984-18.723-18.723-18.723s-18.727 8.3984-18.727 18.723m.86329 0c0-9.8477 8.0156-17.863 17.863-17.863 9.8476 0 17.863 8.0156 17.863 17.863 0 9.8516-8.0156 17.863-17.863 17.863-9.8516 0-17.863-8.0117-17.863-17.863m17.684-16.82c-.54297.01172-.91016.35547-.90234.81641.008.50391.33593.71094.75781.875.3164.11328.4414.21875.44531.41797.004.16406-.125.27734-.38281.28125-.30469.0078-.47656-.20312-.5625-.32812l-.36328.40625c.15234.21484.4375.46875.94531.46094.63672-.01172 1-.39844.99219-.875-.008-.48438-.25782-.66797-.71485-.85547-.36718-.14844-.5039-.21875-.5039-.42188 0-.15625.12109-.25.32031-.25391.26953-.0039.41797.15625.5.26562l.35937-.37891c-.16015-.21094-.41015-.41016-.86328-.41016h-.0273m-4.1563.58984.10156.52344.78125-.15625.44141 2.2305.59375-.11719-.44141-2.2266.78906-.15625-.10546-.52344zm5.9453.89844c-.16406.88281.29297 1.5508 1.1445 1.707.54297.10156.90235-.05469 1.1758-.32031l-.33593-.42578c-.16797.16797-.37891.26953-.73047.20703-.48047-.08984-.7461-.51562-.64453-1.0625.10156-.53516.49609-.82812.98437-.73828.27735.05078.46485.19922.5625.44141l.4961-.28516c-.16797-.34766-.45704-.59766-.96094-.6875-.10547-.01953-.20703-.03125-.3086-.03125-.6914 0-1.2422.45703-1.3828 1.1953m-7.6602-.3125.64843 1.5156c.17188.39844.0742.69922-.25781.83984-.33594.14453-.62109.0078-.79297-.39453l-.64453-1.5117-.55859.23828.64453 1.5078c.3125.73438.86719.96094 1.5547.66797.69531-.29688.91015-.85938.60156-1.5859l-.64453-1.5117zm10.523 2.3711.55469.23828.45313-1.0469.99609.42969-.45313 1.0469.55469.24219 1.1094-2.5781-.55469-.23828-.44531 1.0312-.99219-.42969.44141-1.0312-.55469-.23828zm-14.793.03906 1.6094 2.2969 1.5039-1.0586-.3086-.4375-1.0078.71094-.36328-.51562.85156-.60156-.28906-.41016-.85156.59766-.34766-.5.97656-.6875-.30078-.42578zm17.699 1.3594 1.5039 1.0625.30859-.4375-1.0078-.71484.36328-.51172.84766.60156.29297-.41406-.84766-.60156.35156-.49609.97266.69141.30469-.42969-1.4688-1.0391zm-20.301 11.875c0 7.1367 5.7852 12.922 12.922 12.922s12.922-5.7852 12.922-12.922c0-7.1328-5.7852-12.918-12.922-12.918s-12.922 5.7852-12.922 12.918m.74219 0c0-6.7227 5.4531-12.176 12.18-12.176 6.7226 0 12.176 5.4531 12.176 12.176 0 6.7266-5.4531 12.18-12.176 12.18-6.7266 0-12.18-5.4531-12.18-12.18m21.664-10.281.41797.44141.6875-.65234.14063.15234-.25391 1.1055.50391.53516.25-1.2422c.35937.17578.71875.13281 1.0156-.14844.4375-.41406.38672-.94141-.11719-1.4766l-.60547-.64062zm1.6484-.32812-.19922-.20703.62109-.58594.19922.20703c.23438.25391.25391.49609.0625.67188-.0898.08594-.18359.12891-.28515.12891-.12891 0-.26563-.07031-.39844-.21484m-23.547-.65625-.61328.66016 2.0508 1.9102.61719-.65625c.65625-.70703.65235-1.4766-.008-2.0898-.28906-.26562-.60156-.40234-.91797-.40234-.37891 0-.76953.19531-1.1289.57812m.1875.58203.22657-.24219c.38281-.41016.82422-.42578 1.2148-.0625.40625.37891.43359.82812.0469 1.2383l-.22249.24219zm11.98.89453c-.41406.02734-.83203.33203-1.9414.33203-1.1055 0-.91407 1.418-.91407 1.418s.51563-.15234.90625-.14062c.38672.0078 1.3906-.01172 1.0898.60547 0 0-.80469-.28516-1.1836-.28516-.3789 0-1.2852-.01172-1.5117-.33984-.22657-.33203-.3125-.43359-.3125-.43359s-.25782 1.0391.33203 1.1406c.58593.10547 1.1914 0 1.4726-.01953.28516-.01953.84375-.01953.99219 0 .15234.01953-.008.17969-.30078.19922-.29297.01953-.96484-.02734-.78516.27344.17969.30469.49219.47266.67969.51172.19141.03906.71094-.04687.48438.51172l-.12891.37109c-.14453.42578-.60156 1.4258-1.6328 1.2461-1.0352-.17969-1.1875-.25391-.78907-.78516 1.2695-1.6797 1.1016-2.1211-.6875-2.1055-1.8476.02344-2.0781.0078-2.0781.0078s-.70313-.05469-.97266.83984c-.32031 1.043-2.7852 7.6602-2.7852 7.6602s-.10938.64062.42968.81641c.70313.23438.9336-.44922.9336-.44922l1.7891-4.7344c.13281.08203.26172.16406.39453.24219l-2.2305 6.1875s-.23047.68359.48828.9375c.64844.22266.9375-.58203.9375-.58203l2.1484-5.8555c.11328.04687.22656.09766.33985.14453l-2.2654 6.4688s-.20703.69141.46094.91797.9414-.56641.9414-.56641l2.2461-6.3594c.13281.03516.26562.07031.39453.10156v.01172l-1.1445 3.8164s-.1875.65234.45312.90625c.64453.25.9961-.60547.9961-.60547l1.0469-3.3672s.42969 1.7539-.32812 2.9766c-.75391 1.2227-1.4961 2.0391-2.4688 2.4922 0 0 .0273.14062.3789.16406.35547.02734.37891.11719.42969.17578l-.50391.76953s-.0742.28125-.41796.12891c-.33985-.15234-.76563-.37891-.76563-.37891s-.44141-.11328-.54297.10156l-.10156.21484s-.50391.05078-.56641.33984c-.0664.28906.0234.32812.0234.32812s.23047-.16016.32813-.10156c.13281.08203.0234.32422.18359.38281.28125.10156.48828-.05469.63672-.19141.0977-.09375.33984.01172.35156.08594.0156.07813-.10156.27734-.39062.31641-.28907.03906-.91797.14844-.88282.48047.0312.27344.0352.30078.0391.30078-.004.0039-.23829.50391.23828.69141 0 0 .0781-.30078.17578-.30078.10156 0 .1914.17578.36719.17578.17578 0 .33984-.15234.4414-.45312.10156-.30469.27735-.70703.27735-.70703s.125-.14844.20312-.125c.0742.02344.11328.16406.0859.25-.0234.08984-.0742.29297-.0859.34375-.0156.04687-.44141.57812-.10156.83203.33984.25.30469.35156.39062.41406.0859.06641.44141.19141.56641.11328 0 0-.14844-.27734-.1875-.32812-.0391-.04687-.0273-.14844.21094-.14844.24218 0 .24218-.30469.0898-.53125-.14844-.22656-.20312-.44531-.25391-.59375-.0977-.29688.17188-.40234.29297-.10156.11719.29688.0703.57812.32813.53906.1914-.03125.23828-.16016.32812-.14844.0859.01563.33594.1875.20313.51172 0 0 .58984-.09375.39062-.63672-.13281-.35547-.29687-.17578-.1914-.52734.082-.27734-.16407-.48047-.45313-.46875-.27344.01172-.625-.0625-.45312-.39063.17968-.34766.42578-.76953.42578-.76953l.41797.48047s.39062-.98438.74609-1.4258c.35156-.44141.78125-.98438.98047-.86719.20312.10938.26562 1.5352.10156 2.2539s-.75781 2.2969-.89453 2.5117c-.14062.21094.78125-.14062.89453-.17969.11328-.03516.33985-.3125.39063.11719.0508.42578.21875 1.2422.60937 1.6602l.008-.01172c.39063-.41406.58204-1.2578.63282-1.6875.0469-.42969.27343-.15234.39062-.11328.11328.03516 1.0352.39063.89063.17578-.13672-.21484-.72657-1.793-.89063-2.5078-.16406-.71875-.10156-2.1445.10156-2.2578.19922-.11328.62891.42969.98047.86719.35157.44141.7461 1.4258.7461 1.4258l.41406-.47656s.25.41797.42969.76953c.17187.32812-.17969.39844-.45313.38672-.29297-.0078-.53906.19531-.45312.46875.10547.35156-.0586.17188-.19141.53125-.19922.53906.38672.63672.38672.63672-.13281-.32812.11719-.5.20703-.51172.0898-.01172.13281.11328.32813.14453.25781.03906.21093-.24219.32812-.53516.12109-.30469.38672-.19922.28906.10156-.0508.14844-.10156.36328-.25.58984-.15234.22656-.15234.53125.0859.53125.23828 0 .25391.10156.21484.15234-.0391.05078-.1914.32812-.1914.32812.1289.07422.48047-.05078.57031-.11719.0859-.0625.0508-.16016.39063-.41406.33984-.25391-.0899-.78125-.10157-.83203-.0117-.05078-.0625-.25391-.0898-.33984-.0234-.08984.0117-.22656.0898-.25391.0742-.02344.20313.125.20313.125s.17578.40625.27344.70703c.10156.30469.26953.45703.4414.45703.17969 0 .26563-.17969.36719-.17969s.17969.30469.17969.30469c.47265-.19141.24218-.6875.23828-.69531 0 0 .004-.02344.0391-.30078.0352-.32812-.59375-.44141-.88672-.48047-.28906-.03906-.40234-.23828-.39062-.3125.0117-.07813.2539-.17969.35547-.08984.14843.13672.35156.29297.63671.19141.15625-.05469.0469-.30078.1836-.38281.0977-.05859.32812.10156.32812.10156s.0859-.03906.0234-.32812-.56641-.33984-.56641-.33984l-.10156-.21484c-.10156-.21094-.54297-.10156-.54297-.10156s-.42968.23047-.76953.37891c-.33984.15234-.41406-.125-.41406-.125l-.40234-.87109c.0469-.0625.0742-.14844.42578-.17578.35156-.02734.3789-.16406.3789-.16406-.96875-.45312-1.4609-1.1211-2.2188-2.3438-.75781-1.2227-.32812-2.9766-.32812-2.9766l1.0469 3.3672s.35157.85938.9961.60547c.64062-.25391.45312-.91016.45312-.91016l-1.168-3.9062v-.01172c.12891-.03125.25782-.07031.39063-.10938l1.9258 6.4141s.26953.79297.9375.56641.46094-.92187.46094-.92187l-1.957-6.5625c.10937-.04688.22265-.09766.33593-.15234v.0078l1.8477 5.9492s.28906.80469.93359.58203c.71875-.25391.49219-.93359.49219-.93359l-1.9492-6.3281v-.0039c.125-.07813.25-.15625.375-.24219.0391.03906.0469.08203.0469.08203l1.4805 4.7969s.22656.67969.93359.44531c.53906-.17578.42969-.81641.42969-.81641s-1.9688-6.5156-2.2852-7.5586c-.27344-.89453-.97266-.83594-.97266-.83594s-.23046.0078-2.082-.01172c-1.7852-.01953-1.957.42578-.6875 2.1016.40235.53516.2461.60938-.78515.78906-1.0352.17969-1.5274-.82812-1.5859-1.2734-.0625-.44531-.28906-2.0234-.31641-2.1016-.0664-.1875.41797-.32812.65235-.17578.43359.27344.37109.36328.37109-.45703s-1.0859-.75391-1.0859-.75391c-.0508-.61328-.71093-.71875-1.2383-.71875-.22265 0-.42187.01953-.54297.02734m-.0469 1.1445c-.17969-.0078-.34375-.1875-.34375-.1875s.0977-.17969.33203-.17188c.23828.0078.34375.17188.34375.17188s-.14453.1875-.32031.1875h-.0117m9.6797 9.8711-1.4961-4.8828c.1211-.08984.24219-.18359.36719-.27734v.0039c.043.11719 1.5312 5.043 1.5312 5.043s.14062.33203-.0898.41797c-.0195.0078-.043.01172-.0625.01172-.17579 0-.25-.31641-.25-.31641m-19.109.34375c-.22266-.10938-.0586-.42188-.0586-.42188s1.7031-4.3828 1.875-4.8086c.12109.08984.24218.17578.36328.25781l-1.8438 4.6914s-.0898.29688-.26172.29688c-.0234 0-.0469-.0039-.0742-.01563m17.785 1.8008-1.8516-5.9766c.13282-.06641.25782-.13672.39063-.21094.12891.40234 1.8633 6.0742 1.8633 6.0742s.14063.32812-.0859.41797c-.0234.0078-.0469.01172-.0664.01172-.17969 0-.25-.31641-.25-.31641m-16.418.27734c-.21875-.09766-.0664-.41797-.0664-.41797s1.832-5.0664 2.125-5.8711c.13281.06641.26172.13281.39063.19531l-2.1172 5.8086s-.0859.30469-.25781.30469c-.0234 0-.0469-.0078-.0742-.01953m14.793.85938-1.9648-6.3555c.13282-.04687.26953-.09766.40625-.14844.21485.67969 1.9609 6.3906 1.9609 6.3906s.14063.32422-.0898.41406c-.0234.01172-.043.01563-.0625.01563-.17969 0-.25-.31641-.25-.31641m-13.172.32031c-.22265-.09375-.0703-.41797-.0703-.41797s1.8633-5.3398 2.1992-6.3047c.14062.05078.27734.09766.41406.14062l-2.2188 6.293s-.082.30469-.25391.30469c-.0234 0-.0469-.0039-.0703-.01563m10.586-2.3633-1.168-3.7305s-.0273-.05078.0156-.12109c.12109-.02344.25-.04687.3789-.07422.0742.22656 1.1758 3.8125 1.1758 3.8125s.14063.32812-.0859.41406c-.0234.01172-.043.01563-.0664.01563-.17969 0-.25-.31641-.25-.31641m-7.6758.29297c-.22656-.08984-.0898-.41406-.0898-.41406s.88672-2.9766 1.125-3.75c.14844.02734.29297.05078.42969.07031l-1.1523 3.7891s-.0664.31641-.25.31641c-.0195 0-.0391-.0039-.0625-.01172m16.488 3.1914-.37109.81641 2.5469 1.1484.36719-.82031c.39453-.875.14453-1.5977-.66797-1.9648-.21875-.09766-.42969-.14844-.62891-.14844-.51953 0-.96093.33594-1.2461.96875m.36328.48437.13281-.30078c.23047-.50781.64063-.66406 1.125-.44531.50391.23047.67188.64062.44141 1.1523l-.13281.30078zm-28.664-.29297.24609.55078.90235-.40234.41796.92969.46875-.20703-.41796-.93359.69531-.30859.46094 1.0312.48046-.21875-.70703-1.5781zm2.2773 2.043c-.64062.46484-.74219 1.0547-.30859 1.6523.4414.61328 1.0352.70312 1.6758.24219l1.3242-.95703-.34766-.48047-1.3281.95703c-.35157.25-.66797.22656-.87891-.06641-.20703-.29297-.13672-.60547.21484-.85547l1.3281-.95703-.35156-.48828zm24.801-.11719 1.3555 1.0391-.004.0039-2.0742-.10156-.44141.57031.34375.01953 1.9883 1.5273.36328-.47266-1.3476-1.0352.004-.0039 2.0586.10938.32812-.42969-2.2109-1.6992zm-22.035 2.1953c-.33985.36719-.24219.74219-.0469 1.1523.14844.29688.16797.46094.0352.60938-.11328.12109-.28125.11328-.46875-.05859-.22656-.20312-.20703-.47266-.1875-.625l-.53516.04688c-.0351.26172-.004.64062.3711.98047.46875.42969.98828.39844 1.3125.04687.32421-.35547.26953-.66016.0664-1.1094-.16406-.35938-.21875-.50391-.0781-.65234.10547-.11328.25781-.09766.40625.03906.19531.17969.19531.39844.17968.53125l.51563-.03125c.0312-.26562-.0195-.58594-.36328-.90234-.20313-.1875-.4336-.28125-.64844-.28125-.20703 0-.40625.08594-.55859.25391m19.879.21094 1.0352 1.2695c.27734.33594.26562.65234-.0117.87891-.27734.22656-.59375.17578-.86719-.16016l-1.0352-1.2695-.46875.38281 1.0352 1.2656c.50391.61328 1.0977.67578 1.668.20703.58594-.47656.63672-1.0742.14063-1.6836l-1.0352-1.2656zm-17.906 1.4961c-.26562.42188-.10547.77344.15625 1.1445.20313.26562.25.42578.14453.59375-.0898.13672-.25781.16016-.47265.02344-.25781-.16016-.28906-.42969-.29297-.58203l-.51953.14062c.008.26562.10937.62891.53515.90234.53907.33984 1.0469.21484 1.3008-.1875.25781-.40625.14843-.69531-.12891-1.1016-.22656-.32422-.30078-.46094-.19141-.62891.082-.13281.23828-.14062.40625-.03516.22657.14062.26172.35547.27344.49219l.5-.12109c-.0195-.26562-.12109-.57812-.51562-.82422-.1836-.11719-.3711-.17188-.54688-.17188-.26562 0-.5.125-.64844.35547m14.969.49609-.80859.41406 1.2656 2.4883.86329-.44141c.60156-.30859.76953-.73438.55859-1.1484-.16406-.32812-.49609-.41406-.77734-.32812l-.004-.0078c.19141-.18359.26953-.45703.10937-.77734-.125-.24219-.32812-.37109-.59765-.37109-.17578 0-.37891.05469-.60938.17187m-.043.58984.25782-.13281c.24609-.125.41797-.09375.51172.09375.0937.18359.0195.36328-.21875.48438l-.25782.13281zm.50391.98828.28906-.14844c.27344-.13672.46485-.10547.5625.08594.0977.19141.0156.36719-.2539.50781l-.29688.14844zm-13.836 1.2227.90235.35938c.6289.24609 1.0586.08984 1.2305-.33984.13671-.33984-.0195-.64844-.26954-.80078l.004-.01172c.26563.02344.51953-.09766.65234-.42969.16407-.41406-.0352-.79297-.64453-1.0352l-.84375-.33594zm1.4336-1.1914-.26953-.10938.23828-.60156.26953.10547c.25781.10547.34765.25.26953.44922-.0547.12891-.15234.19922-.29297.19922-.0625 0-.13672-.01172-.21484-.04297m-.37891 1.0625-.30859-.12109.25-.62109.30078.12109c.28515.10938.38672.27734.30859.47656-.0547.13281-.15234.20312-.29297.20312-.0742 0-.16015-.01953-.25781-.05859m3.1992-1.1719-1.4492 2.332.62109.10938.29297-.50391.97266.16797.10547.57422.64453.11328-.62109-2.9414-.62891-.11328zm-.27734 1.4922.45312-.78125h.008l.16016.89062zm4.875-1.5703.49609 2.7461 1.5977-.28906-.0977-.53516-1.0039.18359-.39843-2.2148zm-2.293.10937.043 2.793 1.6211-.02734-.008-.54297-1.0195.01563-.0312-2.2461zm7.7109 5.6055.73829 2.0117c3.4414-1.2734 6.4961-3.3398 8.9375-5.9844l-1.5703-1.457c-2.2148 2.3984-4.9883 4.2773-8.1055 5.4297m-24.152-3.9648c2.4453 2.6445 5.5 4.7109 8.9414 5.9805l.74218-2.0117c-3.1212-1.1485-5.8946-3.0235-8.1134-5.4219zm21.027-.91406.14454.45703 1.0039-.31641-.14453-.45703zm-4.1172 6.168c-1.9648 0-3.8633-.26953-5.6641-.77734l-.58203 2.0625c1.9844.55859 4.082.85938 6.2461.85938 2.1719 0 4.2695-.30078 6.2617-.86328l-.58204-2.0625c-1.8047.50781-3.7109.78125-5.6797.78125"/></clipPath><linearGradient id="g" gradientTransform="matrix(37.822 -46.706 46.706 37.822 508.99 81.522)" gradientUnits="userSpaceOnUse" x1="-.16783" x2="1.113"><stop offset="0" stop-color="#887b2c"/><stop offset=".125" stop-color="#887b2c"/><stop offset=".13281" stop-color="#897b2c"/><stop offset=".13672" stop-color="#8a7c2d"/><stop offset=".14062" stop-color="#8a7d2d"/><stop offset=".14453" stop-color="#8b7e2e"/><stop offset=".14844" stop-color="#8c7e2f"/><stop offset=".15234" stop-color="#8c7f30"/><stop offset=".15625" stop-color="#8d8030"/><stop offset=".16016" stop-color="#8e8131"/><stop offset=".16406" stop-color="#8f8232"/><stop offset=".16797" stop-color="#8f8233"/><stop offset=".17188" stop-color="#908334"/><stop offset=".17578" stop-color="#918334"/><stop offset=".17969" stop-color="#918435"/><stop offset=".18359" stop-color="#928436"/><stop offset=".1875" stop-color="#928537"/><stop offset=".19141" stop-color="#938637"/><stop offset=".19531" stop-color="#948738"/><stop offset=".19922" stop-color="#948839"/><stop offset=".20312" stop-color="#95883a"/><stop offset=".20703" stop-color="#95893a"/><stop offset=".21094" stop-color="#96893b"/><stop offset=".21484" stop-color="#978a3c"/><stop offset=".21875" stop-color="#988b3c"/><stop offset=".22266" stop-color="#998c3d"/><stop offset=".22656" stop-color="#998c3e"/><stop offset=".23047" stop-color="#9a8d3f"/><stop offset=".23438" stop-color="#9a8d40"/><stop offset=".23828" stop-color="#9b8e41"/><stop offset=".24219" stop-color="#9b8e41"/><stop offset=".24609" stop-color="#9c8f42"/><stop offset=".25" stop-color="#9d9043"/><stop offset=".25391" stop-color="#9e9144"/><stop offset=".25781" stop-color="#9e9145"/><stop offset=".26172" stop-color="#9f9246"/><stop offset=".26562" stop-color="#9f9347"/><stop offset=".26953" stop-color="#a09348"/><stop offset=".27344" stop-color="#a19448"/><stop offset=".27734" stop-color="#a19549"/><stop offset=".28125" stop-color="#a2964a"/><stop offset=".28516" stop-color="#a3974b"/><stop offset=".28906" stop-color="#a3974c"/><stop offset=".29297" stop-color="#a4984d"/><stop offset=".29688" stop-color="#a5984e"/><stop offset=".30078" stop-color="#a69a4f"/><stop offset=".30469" stop-color="#a69b50"/><stop offset=".30859" stop-color="#a79b51"/><stop offset=".3125" stop-color="#a79c52"/><stop offset=".31641" stop-color="#a89c53"/><stop offset=".32031" stop-color="#a89d54"/><stop offset=".32422" stop-color="#a99e55"/><stop offset=".32812" stop-color="#aa9e56"/><stop offset=".33203" stop-color="#ab9f57"/><stop offset=".33594" stop-color="#aca057"/><stop offset=".33984" stop-color="#aca159"/><stop offset=".34375" stop-color="#ada15a"/><stop offset=".34766" stop-color="#ada25b"/><stop offset=".35156" stop-color="#aea35c"/><stop offset=".35547" stop-color="#aea35d"/><stop offset=".35938" stop-color="#afa35e"/><stop offset=".36328" stop-color="#b0a55f"/><stop offset=".36719" stop-color="#b1a661"/><stop offset=".37109" stop-color="#b1a762"/><stop offset=".375" stop-color="#b2a863"/><stop offset=".37891" stop-color="#b3a864"/><stop offset=".38281" stop-color="#b3a865"/><stop offset=".38672" stop-color="#b4aa66"/><stop offset=".39062" stop-color="#b5ab67"/><stop offset=".39453" stop-color="#b6ab68"/><stop offset=".39844" stop-color="#b6ac69"/><stop offset=".40234" stop-color="#b7ad6a"/><stop offset=".40625" stop-color="#b7ad6b"/><stop offset=".41016" stop-color="#b8ae6c"/><stop offset=".41406" stop-color="#b9af6d"/><stop offset=".41797" stop-color="#bab06e"/><stop offset=".42188" stop-color="#bbb16f"/><stop offset=".42578" stop-color="#bcb171"/><stop offset=".42969" stop-color="#bdb272"/><stop offset=".43359" stop-color="#bdb373"/><stop offset=".4375" stop-color="#beb374"/><stop offset=".44141" stop-color="#beb475"/><stop offset=".44531" stop-color="#bfb476"/><stop offset=".44922" stop-color="#c0b577"/><stop offset=".45312" stop-color="#c1b678"/><stop offset=".45703" stop-color="#c2b779"/><stop offset=".46094" stop-color="#c2b77a"/><stop offset=".46484" stop-color="#c3b87b"/><stop offset=".46875" stop-color="#c3b97c"/><stop offset=".47266" stop-color="#c4ba7e"/><stop offset=".47656" stop-color="#c5bb7f"/><stop offset=".48047" stop-color="#c6bb80"/><stop offset=".48438" stop-color="#c6bc82"/><stop offset=".48828" stop-color="#c6bd83"/><stop offset=".49219" stop-color="#c7be84"/><stop offset=".49609" stop-color="#c8bf85"/><stop offset=".5" stop-color="#c9bf86"/><stop offset=".50391" stop-color="#cac188"/><stop offset=".50781" stop-color="#cbc28a"/><stop offset=".51172" stop-color="#ccc38b"/><stop offset=".51562" stop-color="#cdc48c"/><stop offset=".51953" stop-color="#cdc48d"/><stop offset=".52344" stop-color="#cdc58d"/><stop offset=".52734" stop-color="#cdc48c"/><stop offset=".53125" stop-color="#ccc38b"/><stop offset=".53516" stop-color="#cbc28a"/><stop offset=".53906" stop-color="#cac188"/><stop offset=".54297" stop-color="#c9bf86"/><stop offset=".54688" stop-color="#c8be85"/><stop offset=".55078" stop-color="#c7be84"/><stop offset=".55469" stop-color="#c6bd83"/><stop offset=".55859" stop-color="#c6bc82"/><stop offset=".5625" stop-color="#c6bc80"/><stop offset=".56641" stop-color="#c5bb7f"/><stop offset=".57031" stop-color="#c4b97e"/><stop offset=".57422" stop-color="#c3b97c"/><stop offset=".57812" stop-color="#c3b87b"/><stop offset=".58203" stop-color="#c2b77a"/><stop offset=".58594" stop-color="#c2b779"/><stop offset=".58984" stop-color="#c1b678"/><stop offset=".59375" stop-color="#c0b577"/><stop offset=".59766" stop-color="#bfb476"/><stop offset=".60156" stop-color="#beb475"/><stop offset=".60547" stop-color="#beb374"/><stop offset=".60938" stop-color="#bdb372"/><stop offset=".61328" stop-color="#bdb272"/><stop offset=".61719" stop-color="#bcb171"/><stop offset=".62109" stop-color="#bbb06f"/><stop offset=".625" stop-color="#baaf6e"/><stop offset=".62891" stop-color="#b9af6d"/><stop offset=".63281" stop-color="#b8ae6c"/><stop offset=".63672" stop-color="#b7ad6b"/><stop offset=".64062" stop-color="#b7ad6a"/><stop offset=".64453" stop-color="#b6ac69"/><stop offset=".64844" stop-color="#b6ab68"/><stop offset=".65234" stop-color="#b5aa67"/><stop offset=".65625" stop-color="#b4a966"/><stop offset=".66016" stop-color="#b3a965"/><stop offset=".66406" stop-color="#b3a864"/><stop offset=".66797" stop-color="#b2a863"/><stop offset=".67188" stop-color="#b1a762"/><stop offset=".67578" stop-color="#b1a660"/><stop offset=".67969" stop-color="#b0a55f"/><stop offset=".68359" stop-color="#afa45e"/><stop offset=".6875" stop-color="#aea35d"/><stop offset=".69141" stop-color="#aea35c"/><stop offset=".69531" stop-color="#ada25b"/><stop offset=".69922" stop-color="#ada25a"/><stop offset=".70312" stop-color="#aca159"/><stop offset=".70703" stop-color="#aca058"/><stop offset=".71094" stop-color="#ab9f57"/><stop offset=".71484" stop-color="#aa9e56"/><stop offset=".71875" stop-color="#a99d55"/><stop offset=".72266" stop-color="#a89d54"/><stop offset=".72656" stop-color="#a89c53"/><stop offset=".73047" stop-color="#a79c52"/><stop offset=".73438" stop-color="#a79b51"/><stop offset=".73828" stop-color="#a69a50"/><stop offset=".74219" stop-color="#a5994f"/><stop offset=".74609" stop-color="#a5994e"/><stop offset=".75" stop-color="#a4984d"/><stop offset=".75391" stop-color="#a3974c"/><stop offset=".75781" stop-color="#a3974c"/><stop offset=".76172" stop-color="#a2964a"/><stop offset=".76562" stop-color="#a29549"/><stop offset=".76953" stop-color="#a19449"/><stop offset=".77344" stop-color="#a09348"/><stop offset=".77734" stop-color="#9f9347"/><stop offset=".78125" stop-color="#9f9246"/><stop offset=".78516" stop-color="#9e9145"/><stop offset=".78906" stop-color="#9d9145"/><stop offset=".79297" stop-color="#9d9043"/><stop offset=".79688" stop-color="#9c8f42"/><stop offset=".80078" stop-color="#9b8e42"/><stop offset=".80469" stop-color="#9a8d41"/><stop offset=".80859" stop-color="#9a8d40"/><stop offset=".8125" stop-color="#9a8d3f"/><stop offset=".81641" stop-color="#998c3e"/><stop offset=".82031" stop-color="#988c3d"/><stop offset=".82422" stop-color="#988b3c"/><stop offset=".82812" stop-color="#978a3c"/><stop offset=".83203" stop-color="#96893b"/><stop offset=".83594" stop-color="#95893a"/><stop offset=".83984" stop-color="#95883a"/><stop offset=".84375" stop-color="#948739"/><stop offset=".84766" stop-color="#938738"/><stop offset=".85156" stop-color="#938637"/><stop offset=".85547" stop-color="#928536"/><stop offset=".85938" stop-color="#928436"/><stop offset=".86328" stop-color="#918435"/><stop offset=".86719" stop-color="#918335"/><stop offset=".87109" stop-color="#908334"/><stop offset=".875" stop-color="#8f8233"/><stop offset=".87891" stop-color="#8e8132"/><stop offset=".88281" stop-color="#8e8131"/><stop offset=".88672" stop-color="#8d8031"/><stop offset=".89062" stop-color="#8c7f30"/><stop offset=".89453" stop-color="#8c7e2f"/><stop offset=".89844" stop-color="#8b7e2e"/><stop offset=".90234" stop-color="#8a7d2d"/><stop offset=".90625" stop-color="#8a7d2d"/><stop offset=".91016" stop-color="#897c2c"/><stop offset=".91406" stop-color="#897c2c"/><stop offset=".92188" stop-color="#897c2c"/><stop offset=".9375" stop-color="#897c2c"/><stop offset="1" stop-color="#897c2c"/></linearGradient><g fill="#fff" transform="translate(-513.8199 -43.229)"><use height="100%" width="100%" x="59.341873" xlink:href="#a" y="797.8222"/><use height="100%" width="100%" x="40.787899" xlink:href="#a" y="812.8222"/><use height="100%" width="100%" x="559.2973" xlink:href="#b" y="630.35291"/><use height="100%" width="100%" x="565.99512" xlink:href="#b" y="630.35291"/><use height="100%" width="100%" x="572.69287" xlink:href="#c" y="684.073"/><use height="100%" width="100%" x="572.69287" xlink:href="#c" y="695.573"/><use height="100%" width="100%" x="572.69287" xlink:href="#c" y="707.073"/><use height="100%" width="100%" x="572.89697" xlink:href="#d" y="321.0495"/><use height="100%" width="100%" x="572.88733" xlink:href="#d" y="321.0495"/><use height="100%" width="100%" x="572.88733" xlink:href="#d" y="343.0495"/><use height="100%" width="100%" x="572.88733" xlink:href="#d" y="343.0495"/></g><g clip-path="url(#e)" stroke-width=".092154" transform="matrix(.89679 0 0 .89679 -451.59 -27.087)"><g clip-path="url(#f)" stroke-width=".092154"><path d="m475.24 67.172 58.5 47.371 48.441-59.82-58.496-47.371z" fill="url(#g)" stroke-width="1.1151"/></g></g></svg>