<svg enable-background="new 0 0 435.44 435.44" viewBox="0 0 435.44 435.44" xmlns="http://www.w3.org/2000/svg"><circle cx="217.72" cy="217.72" fill="#434343" r="217.72"/><g fill="#da9604"><path d="m190.2 163.76v-20.45c0-2.41-1.95-4.36-4.36-4.36h-80.25c-.45 0-13.97.22-14.42.21-5.75-.21-30.63 10.85-30.63 33.16v99.59c0 .35.04.7.13 1.04.87 3.55 6.38 23.54 20.17 23.54h105.02c2.41 0 4.36-1.95 4.36-4.36v-82.78c0-2.41-1.95-4.36-4.36-4.36h-51.82c-2.41 0-4.36 1.95-4.36 4.36v19.49c0 2.41 1.95 4.36 4.36 4.36h28.43c2.41 0 4.36 1.95 4.36 4.36v22.24c0 2.41-1.95 4.36-4.36 4.36h-65.59c-2.41 0-4.36-1.95-4.36-4.36v-86.49c0-2.39 1.93-4.33 4.32-4.36l89.05-.84c2.39-.02 4.31-1.96 4.31-4.35z"/><path d="m120.73 296.48-65.35 31.65 25.45-31.65"/><path d="m217.72 296.48h28.2l-.91-88.16 51.82 88.16 53.65-92.86v92.86h29.35v-157.52h-30.03l-53.32 90.8-29.92-53.66 48.15-43.34-61.62 19.17-5.1-12.97h-30.27z"/></g></svg>