<svg xmlns="http://www.w3.org/2000/svg" width="512pt" height="512pt" style="isolation:isolate" viewBox="0 0 512 512"><defs><clipPath id="a"><path d="M0 0h512v512H0z"/></clipPath></defs><g fill="#00AA13" clip-path="url(#a)"><path d="M160.366 263.963c0-52.845 42.971-95.634 96-95.634 53.028 0 96 42.789 96 95.634 0 52.846-42.972 95.635-96 95.635-53.029 0-96-42.789-96-95.635Z"/><path d="M256 9.097C114.651 9.097 0 123.2 0 263.269 0 368.96 64 458.926 157.074 499.154a47.908 47.908 0 0 0 65.646-34.743c4.536-22.384-7.422-44.844-28.526-53.577v-.018C136.594 386.679 96 329.993 96 263.799c0-88.137 71.68-159.452 160-159.452s160 71.315 160 159.452c0 66.194-40.594 122.88-98.194 147.017v.037c-21.293 8.596-33.446 31.137-28.925 53.65 4.52 22.514 24.432 38.616 47.393 38.327a49.758 49.758 0 0 0 18.469-3.712C447.817 459.803 512 369.655 512 263.232c0-140.8-114.651-254.171-256-254.171"/></g></svg>