<svg xmlns="http://www.w3.org/2000/svg" viewBox="0 0 1024 1024" width="2500" height="2500"><style>.st0{fill:#ff0}</style><g id="图层_2"><path class="st0" d="M844 1024H180C81 1024 0 943 0 844V180C0 81 81 0 180 0h664c99 0 180 81 180 180v664c0 99-81 180-180 180z"/><path d="M445.2 330.4c-16.5 0-30-13.5-30-30l-.2-164c0-16.5 13.5-30 30-30s30 13.5 30 30l.2 164c0 16.5-13.5 30-30 30zM445.4 510.9c-16.5 0-30-13.5-30-30l-.1-98.8c0-16.5 13.5-30 30-30s30 13.5 30 30l.1 98.8c0 16.4-13.5 30-30 30z"/><path d="M348.3 565.6c-10.8-12.4-9.5-31.5 2.9-42.3l74.5-65c12.4-10.8 31.5-9.5 42.3 2.9 10.8 12.4 9.5 31.5-2.9 42.3l-74.5 65c-12.4 10.8-31.4 9.5-42.3-2.9zM195.8 698.6c-10.8-12.4-9.5-31.5 2.9-42.3l74.5-65c12.4-10.8 31.5-9.5 42.3 2.9 10.8 12.4 9.5 31.5-2.9 42.3l-74.5 65c-12.4 10.8-31.4 9.5-42.3-2.9zM110.2 606.3c-10.8-12.4-9.5-31.5 2.9-42.3l155.1-135.3c12.4-10.8 31.5-9.5 42.3 2.9 10.8 12.4 9.5 31.5-2.9 42.3L152.5 609.2c-12.4 10.9-31.4 9.6-42.3-2.9zM570.8 330.2c16.5 0 30-13.5 30-30l-.2-164c0-16.5-13.5-30-30-30s-30 13.5-30 30l.2 164c0 16.6 13.5 30.1 30 30zM571 510.7c16.5 0 30-13.5 30-30l-.1-98.8c0-16.5-13.5-30-30-30s-30 13.5-30 30l.1 98.8c0 16.6 13.5 30 30 30z"/><path d="M668.3 565.2c10.8-12.5 9.5-31.5-3-42.3L590.6 458c-12.5-10.8-31.5-9.5-42.3 3-10.8 12.5-9.5 31.5 3 42.3l74.6 64.8c12.5 10.9 31.5 9.5 42.4-2.9zM821.1 697.8c10.8-12.5 9.5-31.5-3-42.3l-74.6-64.8c-12.5-10.8-31.5-9.5-42.3 3-10.8 12.5-9.5 31.5 3 42.3l74.6 64.8c12.4 10.8 31.5 9.5 42.3-3zM913.6 620.7c10.8-12.5 9.5-31.5-3-42.3l-155.5-135c-12.5-10.8-31.5-9.5-42.3 3-10.8 12.5-9.5 31.5 3 42.3l155.5 135c12.4 10.9 31.5 9.5 42.3-3zM159.9 895.6c-10.8-12.4-9.5-31.5 2.9-42.3l325.3-283.8c12.4-10.8 31.5-9.5 42.3 2.9 10.8 12.4 9.5 31.5-2.9 42.3L202.2 898.5c-12.4 10.8-31.5 9.5-42.3-2.9z"/><path d="M486.6 572.6c10.8-12.5 29.9-13.8 42.3-3l199.5 173.2c12.5 10.8 13.8 29.9 3 42.3-10.8 12.5-29.9 13.8-42.3 3L489.6 614.9c-12.4-10.8-13.8-29.9-3-42.3z"/></g></svg>