<?xml version="1.0" encoding="UTF-8" standalone="no"?>
<!-- Generator: Gravit.io -->
<svg xmlns="http://www.w3.org/2000/svg" xmlns:xlink="http://www.w3.org/1999/xlink" style="isolation:isolate" viewBox="0 0 64 64" width="64pt" height="64pt"><defs><clipPath id="_clipPath_vz5T02un8ESUn6Ub4DqZz0NFu1R6kzYD"><rect width="64" height="64"/></clipPath></defs><g clip-path="url(#_clipPath_vz5T02un8ESUn6Ub4DqZz0NFu1R6kzYD)"><path d=" M 6.369 47.426 L 32.533 2.109 L 34.882 3.465 L 8.718 48.782 L 6.369 47.426 Z  M 5.829 43.805 L 58.159 43.805 L 58.159 46.517 L 5.829 46.517 L 5.829 43.805 Z  M 6.864 45.328 L 8.22 42.98 L 34.393 58.091 L 33.037 60.44 L 6.864 45.328 Z  M 29.605 5.942 L 30.961 3.593 L 57.134 18.705 L 55.778 21.054 L 29.605 5.942 Z  M 6.871 18.697 L 33.045 3.585 L 34.401 5.934 L 8.227 21.046 L 6.871 18.697 Z  M 29.13 3.466 L 31.478 2.109 L 57.643 47.426 L 55.294 48.782 L 29.13 3.466 Z  M 7.906 16.897 L 10.618 16.897 L 10.618 47.123 L 7.906 47.123 L 7.906 16.897 Z  M 53.391 16.897 L 56.103 16.897 L 56.103 47.123 L 53.391 47.123 L 53.391 16.897 Z  M 31.393 57.241 L 54.157 44.097 L 55.341 46.149 L 32.577 59.293 L 31.393 57.241 Z " fill-rule="evenodd" fill="rgb(225,0,152)"/><path d=" M 59.697 48.005 C 58.544 50.009 56.297 51.12 54.005 50.82 C 51.713 50.52 49.827 48.868 49.229 46.636 C 48.63 44.403 49.435 42.029 51.27 40.623 C 53.104 39.216 55.605 39.053 57.606 40.211 C 60.333 41.788 61.268 45.275 59.697 48.005 Z  M 14.18 21.728 C 13.027 23.731 10.78 24.842 8.488 24.543 C 6.196 24.243 4.311 22.591 3.712 20.358 C 3.113 18.126 3.919 15.752 5.753 14.345 C 7.587 12.939 10.089 12.776 12.09 13.934 C 14.816 15.511 15.751 18.998 14.18 21.728 Z  M 4.309 48.005 C 3.152 46.004 3.314 43.503 4.721 41.668 C 6.128 39.834 8.501 39.028 10.734 39.627 C 12.967 40.226 14.618 42.112 14.918 44.404 C 15.218 46.696 14.107 48.943 12.103 50.096 C 9.373 51.667 5.886 50.732 4.309 48.005 Z  M 49.826 21.728 C 48.668 19.727 48.831 17.225 50.238 15.391 C 51.644 13.557 54.018 12.751 56.251 13.35 C 58.483 13.949 60.135 15.834 60.435 18.127 C 60.735 20.419 59.624 22.665 57.62 23.818 C 54.89 25.39 51.403 24.454 49.826 21.728 Z  M 32.003 64 C 28.848 64 26.291 61.442 26.291 58.287 C 26.291 55.133 28.848 52.575 32.003 52.575 C 35.158 52.575 37.716 55.133 37.716 58.287 C 37.72 59.804 37.119 61.259 36.047 62.331 C 34.975 63.404 33.519 64.004 32.003 64 Z  M 32 11.425 C 28.845 11.425 26.287 8.867 26.287 5.712 C 26.287 2.557 28.845 0 32 0 C 35.155 0 37.712 2.557 37.712 5.712 C 37.717 7.229 37.116 8.684 36.044 9.756 C 34.972 10.829 33.516 11.429 32 11.425 Z " fill-rule="evenodd" fill="rgb(225,0,152)"/></g></svg>