<?xml version="1.0" encoding="UTF-8" standalone="no"?>
<!-- Generator: Gravit.io -->
<svg xmlns="http://www.w3.org/2000/svg" xmlns:xlink="http://www.w3.org/1999/xlink" style="isolation:isolate" viewBox="0 0 64 64" width="64pt" height="64pt"><defs><clipPath id="_clipPath_LdlC2D6P1zkTCp3wynHzNmykAboxF7C8"><rect width="64" height="64"/></clipPath></defs><g clip-path="url(#_clipPath_LdlC2D6P1zkTCp3wynHzNmykAboxF7C8)"><path d=" M 62.477 55.939 C 62.428 55.809 62.388 55.581 62.388 55.431 C 62.388 55.023 62.074 54.484 61.609 54.096 C 61.382 53.906 61.054 53.536 60.88 53.274 C 60.51 52.717 60.108 52.498 58.627 52.048 C 57.003 51.554 56.504 51.13 56.357 50.119 L 56.284 49.616 L 55.988 50.044 C 55.41 50.883 55.027 51.017 54.242 50.655 C 53.744 50.426 53.381 50.405 52.968 50.582 C 52.704 50.694 52.655 50.69 52.482 50.534 C 52.298 50.367 52.28 50.367 52.018 50.521 C 51.813 50.642 51.646 50.666 51.334 50.62 C 50.835 50.545 50.569 50.69 50.235 51.219 C 49.603 52.221 49.153 51.762 49.155 50.12 C 49.157 48.296 50.016 47.262 52.492 46.105 C 53.766 45.509 54.342 45.122 54.697 44.628 C 54.971 44.247 54.995 44.234 55.114 44.397 C 55.368 44.743 56.24 46.53 56.657 47.555 C 57.132 48.723 57.276 48.94 57.456 48.76 C 57.608 48.608 57.24 47.531 56.526 46.038 C 54.754 42.333 52.136 39.683 48.868 38.287 C 47.369 37.646 46.631 37.51 44.684 37.513 C 43.204 37.516 42.841 37.548 41.841 37.76 C 40.379 38.071 38.743 38.595 36.658 39.418 C 34.558 40.248 34.556 40.248 32.439 39.49 C 31.581 39.184 30.553 38.849 30.154 38.747 C 29.338 38.539 28.134 38.503 27.457 38.666 C 26.677 38.854 25.578 39.441 24.229 40.392 C 22.611 41.533 21.739 41.985 20.579 42.286 C 19.575 42.547 19.15 42.775 18.9 43.185 C 18.7 43.513 18.681 43.776 18.832 44.108 C 18.935 44.335 19.926 45.058 21.085 45.753 C 21.4 45.941 21.68 46.132 21.708 46.178 C 21.776 46.288 20.206 47.071 19.059 47.499 C 17.02 48.261 14.829 48.743 11.525 49.156 C 9.324 49.432 8.948 49.509 7.305 50.025 C 6.649 50.231 5.7 50.485 5.196 50.589 C 2.97 51.051 0.954 50.504 0.648 49.355 C 0.592 49.145 0.492 48.912 0.426 48.836 C 0.019 48.369 -0.132 47.246 0.13 46.634 C 0.206 46.458 0.359 45.777 0.469 45.121 C 0.85 42.863 1.238 41.641 2.072 40.066 C 3.533 37.305 6.442 33.8 9.965 30.555 C 12.294 28.411 14.507 26.762 19.622 23.358 C 22.784 21.255 22.814 21.228 23.178 20.214 C 23.258 19.988 23.651 18.537 24.049 16.99 C 25.291 12.169 26.087 10.348 27.565 8.953 C 28.399 8.165 29.729 7.674 30.502 7.868 C 30.943 7.979 30.965 8.196 30.659 9.421 C 30.149 11.463 29.978 12.754 29.973 14.575 C 29.968 16.373 30.079 17.069 30.506 17.911 C 31.092 19.067 31.487 19.29 33.781 19.76 C 41.893 21.422 47.306 23.921 51.152 27.78 C 54.714 31.353 57.617 36.946 59.506 43.873 L 59.866 45.191 L 60.553 45.718 C 62.309 47.063 63.292 48.417 63.816 50.212 C 64.093 51.161 64.051 53.18 63.729 54.37 C 63.386 55.64 63.093 56.174 62.738 56.174 C 62.639 56.174 62.529 56.076 62.477 55.939 L 62.477 55.939 Z  M 62.628 53.275 C 62.661 53.144 62.666 52.576 62.639 52.014 C 62.554 50.224 62.002 48.946 60.737 47.612 C 59.765 46.587 58.005 45.35 57.518 45.35 C 57.332 45.35 57.321 45.383 57.37 45.791 C 57.398 46.034 57.593 46.681 57.802 47.231 C 58.01 47.78 58.204 48.424 58.233 48.662 C 58.278 49.043 58.255 49.125 58.047 49.333 C 57.761 49.618 57.492 49.632 57.08 49.381 C 56.911 49.277 56.752 49.213 56.727 49.237 C 56.703 49.262 56.711 49.449 56.745 49.653 C 56.87 50.393 57.299 50.69 58.946 51.178 C 61.359 51.893 61.855 52.22 62.237 53.353 C 62.318 53.595 62.56 53.546 62.628 53.275 L 62.628 53.275 Z  M 5.139 49.881 C 5.561 49.805 6.408 49.584 7.019 49.391 C 8.333 48.974 9.34 48.765 12.121 48.329 C 15.384 47.818 16.696 47.547 18.151 47.082 C 19.076 46.787 19.92 46.407 19.915 46.289 C 19.913 46.252 19.64 46.056 19.308 45.855 C 18.976 45.653 18.356 45.147 17.93 44.731 C 17.503 44.315 17.115 43.974 17.066 43.974 C 16.835 43.974 16.252 44.299 15.518 44.839 C 13.414 46.383 12.677 46.688 9.323 47.403 C 7.659 47.758 7.069 47.959 6.291 48.436 C 5.215 49.097 4.983 49.206 4.277 49.387 C 3.883 49.487 3.26 49.57 2.893 49.57 C 1.934 49.57 1.827 49.868 2.729 50.027 C 3.261 50.121 4.082 50.071 5.139 49.881 Z  M 50.842 49.692 C 50.911 49.608 51.145 49.461 51.361 49.366 L 51.754 49.191 L 52.599 49.447 C 53.658 49.768 55.045 49.816 55.42 49.544 C 55.544 49.454 55.787 49.278 55.96 49.153 C 56.149 49.015 56.34 48.946 56.441 48.978 C 56.534 49.008 56.609 49.018 56.609 49 C 56.609 48.907 55.313 45.942 55.191 45.755 L 55.045 45.533 L 54.583 45.898 C 54.33 46.099 53.469 46.655 52.671 47.135 C 50.622 48.367 49.979 48.996 50.134 49.614 C 50.179 49.793 50.25 49.845 50.454 49.845 C 50.598 49.845 50.773 49.776 50.842 49.692 L 50.842 49.692 Z  M 12.21 44.41 C 12.432 44.296 12.654 44.137 12.703 44.056 C 13.088 43.417 11.552 43.484 11.139 44.124 C 11.029 44.293 11.032 44.34 11.16 44.468 C 11.366 44.674 11.735 44.653 12.21 44.41 L 12.21 44.41 Z  M 15.101 42.405 C 16.088 42.14 17.077 41.815 17.379 41.655 C 18.011 41.322 18.548 40.743 18.93 39.984 C 19.083 39.681 19.367 39.285 19.563 39.104 C 19.758 38.922 19.918 38.707 19.918 38.626 C 19.918 37.912 17.464 37.587 15.882 38.092 C 13.965 38.704 12.134 40.657 12.089 42.136 C 12.062 43.043 12.559 43.088 15.101 42.405 L 15.101 42.405 Z  M 52.757 39.602 C 52.757 39.436 52.145 38.623 51.712 38.214 C 50.873 37.42 50.015 36.93 48.363 36.303 C 47.382 35.931 46.978 35.703 46.978 35.521 C 46.978 35.478 47.06 35.361 47.161 35.26 C 47.676 34.745 50.143 35.38 51.883 36.475 C 52.57 36.908 53.354 37.518 54.008 38.13 C 54.509 38.598 54.591 38.646 54.591 38.471 C 54.591 38.195 54.137 37.364 53.584 36.627 C 52.201 34.785 49.951 33.35 47.434 32.705 C 45.4 32.184 43.634 32.154 42.129 32.616 C 40.737 33.042 39.121 34.048 37.498 35.498 C 35.213 37.538 34.537 38.107 33.953 38.478 C 33.602 38.701 33.327 38.923 33.342 38.972 C 33.357 39.021 33.621 39.141 33.928 39.239 L 34.486 39.418 L 35.847 38.792 C 38.539 37.556 41.01 36.759 42.85 36.536 C 45.657 36.196 48.797 37.083 51.61 39.012 C 52.468 39.6 52.757 39.749 52.757 39.602 L 52.757 39.602 Z  M 27.898 47.363 C 25.011 47.006 22.283 45.997 20.055 44.462 C 19.551 44.114 19.407 43.963 19.384 43.759 C 19.325 43.252 19.79 42.952 21.045 42.686 C 22.15 42.453 22.88 42.082 24.55 40.909 C 26.808 39.322 27.701 38.962 29.173 39.043 C 29.862 39.082 30.293 39.198 32.576 39.96 C 35.999 41.103 39.629 42.396 39.902 42.57 C 40.528 42.968 39.447 44.438 37.754 45.494 C 36.477 46.29 34.791 46.915 33.059 47.235 C 32.105 47.411 28.926 47.49 27.898 47.363 Z  M 6.565 33.119 C 6.529 33.026 6.523 32.572 6.552 32.11 C 6.679 30.079 7.783 27.782 9.287 26.421 C 9.864 25.9 10.785 25.353 11.088 25.353 C 11.389 25.353 11.577 25.669 11.802 26.555 C 11.921 27.021 12.107 27.523 12.215 27.67 C 12.324 27.816 12.398 27.948 12.381 27.963 C 12.364 27.978 11.938 28.318 11.433 28.719 C 10.201 29.698 8.495 31.274 7.47 32.381 C 6.77 33.137 6.619 33.26 6.565 33.119 L 6.565 33.119 Z " fill="rgb(0,0,0)"/></g></svg>