<svg viewBox="0 0 2000 2250.34" xmlns="http://www.w3.org/2000/svg" xmlns:xlink="http://www.w3.org/1999/xlink"><linearGradient id="a" gradientUnits="userSpaceOnUse" x1="377.23" x2="503.43" y1="2165.75" y2="155.55"><stop offset="0" stop-color="#102fe4"/><stop offset="1" stop-color="#679ef4"/></linearGradient><linearGradient id="b" x1="811.19" x2="1068.1" xlink:href="#a" y1="1468.94" y2="454.82"/><path d="m1980 1743.16c-89.32 358.43-452.46 576.58-811 487.13s-576.6-452.43-487.13-810.89 452.41-576.72 810.86-487.24 576.67 452.43 487.27 811z" fill="#f7931a"/><path d="m1626 1485.87c13.3-89-54.5-136.91-147.21-168.84l30.11-120.61-73.45-18.3-29.33 117.44c-19.29-4.8-39.1-9.36-58.8-13.83l29.44-118.22-73.38-18.29-30 120.56-148.1-36.68-19.54 78.45s54.49 12.49 53.33 13.26c29.74 7.43 35.13 27.1 34.22 42.71l-82.39 330.41c-3.64 9-12.86 22.58-33.65 17.4.74 1.07-53.37-13.38-53.37-13.38l-36.45 84.15 147.88 37.34-30.4 122 73.34 18.3 30.07-120.74c20.08 5.44 39.48 10.46 58.5 15.18l-30 120.14 73.43 18.3 30.39-121.79c125.22 23.69 219.38 14.14 259-99 31.93-91.17-1.57-143.76-67.45-178.07 48-11.11 84.11-42.66 93.75-107.85m-167.76 235.21c-22.75 91.17-176.22 41.91-226 29.53l40.28-161.65c49.77 12.42 209.37 37 185.72 132.09m22.75-236.54c-20.7 83-148.49 40.82-190 30.47l36.51-146.61c41.48 10.36 175 29.64 153.4 116.16" fill="#fff"/><path d="m742.08 0c-68.93 258.48-200.08 533.53-585.89 999.45-368 523.79-57.71 1303.12 637.58 1240.69 0 0-292.94-258.48-310.17-585.88-17.23-344.64 137.85-448 224-878.83s34.48-775.43 34.48-775.43z" fill="url(#a)"/><path d="m1190.1 741c-167.82 22.5-327.4 120.62-396.33 177.47 37.76-137.94 86.16-453.18 103.39-556.57 0-.03 155.09 223.98 292.94 379.1z" fill="url(#b)"/></svg>