<svg id="Layer_1" xmlns="http://www.w3.org/2000/svg" viewBox="0 0 297.6 297.7" width="2499" height="2500"><style>.st0{fill:#abacac}.st1{fill:#fefefd}.st2{fill:#d3d2d2}.st3{fill:#d2d2d2}.st4{fill:#d2d2d1}.st5{fill:#acacac}.st6{fill:#acadad}.st7{fill:#acadac}.st8{fill:#c4c4c4}.st9{fill:#b1b2b1}.st10{fill:#c8c8c8}.st11{fill:#fbfbfa}</style><path class="st0" d="M297.6 148.9c.3 81.7-66.5 149.1-149.7 148.8C66.6 297.4-.1 230.6 0 148.8 0 66.3 67.2-.8 150.3 0c81.2.8 147.5 67.1 147.3 148.9z"/><path class="st1" d="M266.4 148.9c0 65.1-52.7 117.8-118.2 117.5-64.3-.3-116.9-52.2-117-117.5 0-65.3 52.9-118 118.5-117.6 64.5.5 116.6 52.7 116.7 117.6z"/><path class="st2" d="M239.4 62.2c2.8-3 5.5-6 8.3-8.9.6-.6 1.1-2 2.3-.8 1.1 1.1.2 1.8-.5 2.5-3.4 3.5-7 6.9-10.1 10.6-.7.8-1.4 2.3-2.9 1.3-1.2-.8-.9-2.2-.6-3.3 1-4.9 2.2-9.7 3.2-14.5.1-.4.1-.7.1-1.1.2.3.5.5.7.8-3.3 2.8-6.6 5.7-10 8.5-.6.5-1.1 2.1-2.3 1-1.3-1.1.2-1.7.7-2.3 3-3.9 6.6-7.2 10.1-10.6.6-.6 1-2.2 2.5-1.3 1.3.8 1.1 2 .9 3.2-.9 4.3-1.8 8.6-2.6 12.8-.1.7-.2 1.3-.4 2 .2 0 .4 0 .6.1zM216.5 48.1c-5 0-8.9-3.8-8.9-8.5 0-5.4 5.2-11.4 10.1-11.2 4.9.2 9 3.3 9.1 8.8.1 5.8-4.8 11-10.3 10.9zM77.1 27.7c4.7-.1 6.9 2.4 6.2 6.1-.3 1.8 0 2.5 1.6 3.1 2 .8 3.2 2.6 4.7 4 .5.4 1.2 1 .4 1.7-.6.5-1.4.8-2.1.1l-2.1-2.1c-.8-.7-1.7-1.4-2.6-1.9-1.8-1-3.4-.1-4.6 1-1.3 1.2.3 2.1.8 3.1.6 1.2 1.4 2.4 2.2 3.6.5.8.4 1.2-.4 1.7-.7.3-1.3.5-1.8-.3-2.9-4.9-5.9-9.7-8.8-14.6-.3-.5-.5-1.2.1-1.6 2.3-1.7 4.5-3.7 6.4-3.9zM135.7 14.3c-.2-1.3-.5-2.5-.6-3.8-.1-.8-.1-1.7 1-1.9s1.3.5 1.4 1.4c.6 4.2 1.2 8.4 1.7 12.7.1 1.1.2 2.2.4 3.3.1.9.6 1.9-.6 2.2-1.5.4-1.6-.9-1.8-1.8-.3-1.6-.5-3.3-.7-5-.1-1.6-.9-2.3-2.5-2.1-1.9.3-3.7.4-5.6.7-1.3.1-1.9 1-1.5 2.1.6 1.8.3 3.6.7 5.3.2.8.8 1.8-.7 2.1-1.2.2-1.6-.7-1.8-1.6-.3-1.8-.3-3.5-.7-5.3-.6-3.2-.9-6.5-1.2-9.7-.1-.9-.5-2.2 1-2.4 1.3-.2 1 1 1.4 1.8.9 1.9-.6 4.8 1.5 5.7 1.6.7 3.9-.2 5.8-.3 2.1-.3 3.1-1.2 2.8-3.4zM143.4 18.3c0-.9-.1-1.8 0-2.7.2-2.2-1.1-5.5.6-6.5 2.5-1.5 6-.4 9.1-.5.7 0 1.1.4 1.1 1.2 0 .7-.4 1.1-1.1 1.1h-3.3c-2 0-4-.6-4 2.9 0 3.3 1.6 3.2 3.9 3.1.9-.1 1.8 0 2.7 0 .8 0 1.3.4 1.2 1.3-.1.7-.6 1-1.2 1-.8 0-1.6-.1-2.4 0-1.3.2-3.3-.8-3.8.7-.6 1.7-.3 3.7-.1 5.6.1 1 1.2.8 2 .8 1.7 0 3.4 0 5.1.1.5 0 1 .3 1 .9 0 .6-.4.9-1 .9h-8.4c-1.3 0-1.3-1-1.3-1.9-.1-2.6-.1-5.3-.1-8zM186 18.4c0 4-3.6 7.2-7.4 6-3-.9-4 0-4.5 2.8-.2 1.3.2 4-1.9 3.6-2.7-.5-.8-2.8-.5-4.2.8-4 2-7.9 2.8-11.8.5-2.4 1.8-3 4-2.6 5.3.9 7.5 2.8 7.5 6.2zM94.5 28.8c3.8-.2 6.2 1.1 6.9 3.8.7 3.1-.8 5.8-4.4 7.2-1.2.5-2.5.8-3.7 1-.6.1-1.2-.1-1.3-.9s.2-1.4 1.1-1.4c1.6.1 2.9-.5 4.2-1.3 1.2-.7 2-1.7 1.8-3.2s-.9-2.5-2.5-3c-1.7-.5-3.4-.5-5-.4-2.3.1-3.8-.9-4.7-3s-.4-3.9 1.2-5.5c1.5-1.4 3.2-2.4 5.3-2.4.6 0 1.3 0 1.4.7.2.8-.5 1-1.1 1.1-.2 0-.4 0-.6.1-2.1.7-4.4 1.3-4.1 4.3 0 2.1 2.1 3 5.5 2.9zM195.6 32.1c.1 3.3 2.2 5.8 6.3 7 1 .3 2.3.3 1.9 1.7-.4 1.5-1.7.4-2.5.2-5.2-1.2-7.8-3.9-8.2-8.5-.4-4.6 1.9-9 6-10.7 3.9-1.6 7.6-1 11 1.6.6.5 1.4 1 .6 1.9s-1.4.1-2-.4c-2.7-2-5.6-2.9-8.6-1.2-3 1.9-4.5 4.8-4.5 8.4z"/><path class="st3" d="M65.5 47.6c-.7 1.9-1.8 2.9-3 3.6-2.5 1.4-2.4 2.6-.4 4.4 1 .9 1.8 2.1 2.7 3.1.5.6 1.3 1.1.4 2-.7.7-1.4.7-2 0-3.8-4.2-7.6-8.4-11.3-12.7-.6-.7-.5-1.3.3-2 2-1.6 3.9-3.4 5.8-5.1.5-.4 1-1.2 1.7-.3.5.7.3 1.4-.3 1.9-1.2 1.1-2.4 2.1-3.6 3.1-1.2 1-1.2 1.7-.1 2.9 3.1 3.4 3.1 3.5 6.7.1.6-.6 1-1.6 2.2-1.3.4 0 .7.2.9.3z"/><path class="st4" d="M112.1 14.3c-.4 1.1-1.4 1.3-2.4 1.5-2.6.5-3.1 1.7-2.1 4.2 1.5 3.7 2.4 7.6 3.7 11.4.4 1.2.5 2.2-1 2.6s-1.3-1-1.5-1.7c-1.4-4.1-2.7-8.1-3.8-12.3-.6-2.3-1.6-2.6-3.5-1.7-.5.3-1.1.4-1.7.6-.6.3-1.1.2-1.5-.5-.4-.9.1-1.3.8-1.5 3.7-1.2 7.4-2.4 11.1-3.5.8-.2 1.7-.3 1.9.9z"/><path class="st3" d="M166 29.5c-2.2-.2-4.3-.5-6.4-.6-1.6-.1-1.9-1.2-1.8-2.5.6-4.9 1.2-9.8 1.9-14.7.1-1 .1-2.8 1.9-2.4 1.7.4.7 1.7.5 2.7-.5 4.4-.9 8.9-1.5 13.3-.2 1.4.3 1.8 1.5 1.9 1.6.1 3.1.4 4.7.6.8.1 1.7.1 1.6 1.2-.1 1.4-1.2.5-1.8.6-.2 0-.5-.1-.6-.1z"/><path class="st4" d="M223.7 55.2c-.8-.6-1.2-.8-1.6-1.1-.6-.6-.2-1.1.2-1.6l10.2-13.2c.6-.7 1.2-1 2.1-.4.8.6.5 1.1 0 1.8-3.5 4.6-7.1 9.1-10.6 13.7-.2.2-.2.5-.3.8zM76.1 50.8c-.1.9-.5 1.2-1 1.4-1 .3-1.4-.4-1.9-1.1-2.5-3.5-5.1-6.9-7.6-10.3-.6-.8-1.1-1.7-1.8-2.4-.8-.9-.7-1.6.2-2.3 1-.8 1.5.2 1.9.7 2.6 3.5 5.2 7.1 7.8 10.6.8 1.3 1.6 2.4 2.4 3.4z"/><path class="st5" d="M208.5 205.3c6.6 0 10.5 4.1 10.5 10.8 0 7-3.9 10.8-11 10.8-6.6 0-10.6-4.2-10.5-11.1 0-6.6 4.1-10.5 11-10.5z"/><path class="st6" d="M99.7 216.1c0 2.6-.2 5.2 0 7.8.2 2.7-1.5 2.5-3.2 2.5s-3.3.2-3-2.3c.1-1.2-.1-2.4 0-3.6.2-2-.6-2.6-2.6-2.5-5.5.2-4.5-.5-4.6 4.7-.1 3.9 0 3.8-3.9 3.8-2.1 0-2.6-1-2.6-2.7 0-5 .1-10 0-15-.1-3.2 2.1-2.6 4-2.8 2.3-.2 2.7.9 2.5 2.8-.1.8.1 1.6 0 2.4-.2 1.6.6 2.2 2.1 2 .8-.1 1.6-.1 2.4 0 2.2.3 2.9-.7 2.6-2.7-.1-.5-.1-1 0-1.5.2-1-.6-2.5.8-2.8 1.5-.3 3.2-.2 4.7 0 .8.1.6 1.2.6 1.8.2 2.7.2 5.4.2 8.1zM104 216v-7.5c0-1.8.5-2.7 2.6-2.7 4.2.1 8.4.1 12.6 0 1.8 0 2.1.8 2.1 2.3 0 1.6-.2 2.7-2.2 2.5-2.3-.2-4.6 0-6.9 0-.8 0-1.6 0-1.6 1.2s.8 1.2 1.6 1.2h5.4c1.7 0 3-.2 3.1 2.3 0 2.7-1.5 2.5-3.2 2.5s-3.4.1-5.1 0c-1.5-.1-1.9.6-1.9 2s.7 1.7 1.9 1.7c2.5 0 5 .1 7.5 0 1.7-.1 2 .8 1.9 2.2-.1 1.3.3 2.7-1.8 2.6-4.6-.1-9.2-.1-13.8 0-1.9 0-2.1-1.1-2.1-2.5-.2-2.6-.1-5.2-.1-7.8zM143.5 215.9v-7.2c0-1.9.6-3 2.8-2.8 2.8.2 5.6 0 8.4 0 3.9.1 6.4 2.5 6.6 6.2.2 3.8-2.2 6.9-5.8 7.5-.6.1-1.2.2-1.8.1-3.1-.5-4.2.7-3.7 3.7.4 2.1-.3 3.1-2.7 2.9-2.2-.1-4 0-3.8-3 .2-2.4 0-4.9 0-7.4z"/><path class="st7" d="M185.5 226.9c-4.8 0-8.1-2.3-9.5-6.3-1.7-5.2-.4-10.8 3.1-13.4 3.1-2.3 9.3-2.6 12.5-.4.7.4 1.4 1 1.7 1.6.6 1.1 2.4 2.5.9 3.4-1.4.8-3.7 2.7-5.4-.1-.1-.1-.1-.2-.2-.2-1.2-1.2-2.7-1.8-4.3-1-3.1 1.6-2.7 4.6-2.5 7.4.1 2 .8 3.8 3.1 4.2 2 .3 3.5-.4 4.3-2.4 1.3-3.3 3.3-.7 4.9-.4 2.2.5.8 2.1.3 3.1-1.4 3.2-4.3 4.6-8.9 4.5z"/><path class="st6" d="M124.3 216.1c0-2.5.2-5-.1-7.5-.3-2.8 1.3-2.8 3.3-2.8 1.8.1 3.6-.3 3.4 2.6-.3 3.6 0 7.2-.1 10.8 0 1.6.5 2.4 2.2 2.3 1.9-.1 3.8.1 5.7-.1 2-.1 2.3.8 2.3 2.5 0 1.8-.6 2.4-2.4 2.4-4-.1-8-.1-12 0-1.9.1-2.4-.7-2.3-2.5.1-2.5 0-5.1 0-7.7zM171.5 216.3c0 2.6-.1 5.2 0 7.8.2 2.6-1.5 2.4-3.1 2.2-1.4-.1-3.6 1-3.5-2.1.1-5.4.1-10.8 0-16.2-.1-3 2.1-2 3.5-2.1 1.6-.1 3.3-.4 3.1 2.2-.1 2.8 0 5.5 0 8.2z"/><path class="st8" d="M131.3 120.1c-.8-.8-.5-1.9-.5-2.8V84.7c.8.7.5 1.7.5 2.5.1 11 .1 21.9 0 32.9z"/><path class="st9" d="M168.6 198.1h.6c1.8-1 3.6-1.3 5.4 0 0 .2 0 .3-.1.5-1.9-.1-4 .6-5.9-.5z"/><path class="st5" d="M224.4 36.7c0 4.5-4.6 9.6-8.6 9.6-2.7 0-5.6-3.1-5.7-5.9-.1-4.6 4.5-9.7 8.5-9.6 3.1 0 5.8 2.8 5.8 5.9z"/><path class="st6" d="M77.2 29.8c2.8.2 4 1.5 4.1 3.6.1 1.6-2.6 4.6-4.1 4.7-.7 0-3.8-4.2-3.8-5.4-.1-1.2 2.4-2.9 3.8-2.9zM179 22.3c-1.2-.2-3 .2-3.1-2-.2-2.3 1.7-6.2 2.8-6.2 2.7.2 5 2.2 4.9 4.3-.1 2.5-1.7 4-4.6 3.9z"/><path class="st10" d="M205.3 89.4c0-2.1-.3-4.1-1.2-6 0 .1-.1.2-.1.3v-.1c-1.1-1.7-2.8-1.8-4.5-1.8-9.6-.1-19.1-.1-28.7-.1-.7 0-1.6-.1-2.2.6-1.7.3-2.5 1.3-2.4 3-.8.9-.5 2.1-.7 3.2V118c0 1.4.3 3.1-1.9 3.4h-29.7v-.1h-1.8s0 .1-.1.1v-.1c-.5-.3-.6-.8-.7-1.3-.4-.9-.2-1.9-.2-2.9V89.7c0-1.7.3-3.4-.3-5-.5-.9-.6-2-1.7-2.3 0 0 0-.1-.1-.1-1.1-.3-2.3-.6-3.5-.6h-27c-1.1 0-2.3-.3-3.2.5h.1c-2 0-2.7 1.4-2.9 3.1-.3 2.1-.5 4.3-.5 6.5v95.3c0 2.3.1 4.6.3 6.9.2 2.9 1.4 4.4 4.3 4.6.1 0 .2-.1.3-.1h28.9c1.1 0 2.1-.4 3.2-.6v.2c2.2-1.1 2.4-3 2.3-5.1.1-10.8.1-21.7.1-32.6 0 0 0-.1.1-.1v.1c.5-.1 1-.1 1.6-.2 0 0 0 .1.1.1H160.2c1.2 0 2.3-.1 3.4-.1l.1.1c2.1.4 1.9 2 1.9 3.5v28.7c0 1.6 0 3.2 1.1 4.5 0-.6 0-1.1-.1-1.7.1.6.2 1.1.3 1.7.3.8.9 1.2 1.8 1.2.3.2.7.1 1-.1h4.8c-.1.2-.1.4 0 .6 8 0 16 0 24 .1 2.2 0 4-.5 5.5-1.9.1-.2.2-.4.2-.5.8-1.7 1-3.6 1.1-5.7V89.4zm-39.2 26.3v0z"/><path class="st1" d="M212.5 216.6c-.1.6-.1 1.6-.4 2.5-.5 1.8-1.7 2.9-3.6 3-2.1.1-3.4-1-4.1-2.8s-.6-3.8-.2-5.6c.5-2.1 1.7-3.6 4.1-3.6s3.5 1.7 4 3.7c.2.8.1 1.6.2 2.8z"/><path class="st11" d="M151.5 210.6c2 .2 3.3.4 3.3 2.1 0 1.9-1.5 2-2.9 2.2-1.8.2-1.8-.9-1.9-2.2 0-1.5.5-2.2 1.5-2.1z"/></svg>