<svg xmlns="http://www.w3.org/2000/svg" width="2000" height="1727.27" viewBox="0 0 2000 1727.27"><g fill="#e21d39"><path d="M1429.75,975.13a8.58,8.58,0,0,1,7.42,12.88l-425,735a8.58,8.58,0,0,1-7.42,4.28H745a8.58,8.58,0,0,1-7.42-12.88l425-735a8.58,8.58,0,0,1,7.42-4.28ZM1177.07,764.46a8.58,8.58,0,0,1-7.42-4.29L737.53,12.88A8.58,8.58,0,0,1,745,0h259.8a8.58,8.58,0,0,1,7.42,4.28l432.12,747.3a8.58,8.58,0,0,1-7.42,12.88Z"/><path d="M1228.44,12.88A8.58,8.58,0,0,1,1235.88,0h260.17a8.6,8.6,0,0,1,7.45,4.29l495.35,855.05a8.61,8.61,0,0,1,0,8.59L1503.5,1723a8.62,8.62,0,0,1-7.45,4.28H1235.88a8.58,8.58,0,0,1-7.44-12.87L1721.3,863.64ZM1017,859.31a8.5,8.5,0,0,1,0,8.62L519.32,1723a8.68,8.68,0,0,1-15,0L1.18,868a8.51,8.51,0,0,1,0-8.61L498.86,4.29a8.69,8.69,0,0,1,15,0Z"/></g></svg>