<svg xmlns="http://www.w3.org/2000/svg" width="2000" height="2088.89" viewBox="0 0 2000 2088.89"><path d="M1726.58,681.37l-129.81-230.6,251.49.08c6.71,0,14.55,4.47,18.22,10.5,4,6.59,24.43,40.26,49,80.7,29.36,48.42,64.48,106.29,84.56,139.32ZM1261.43,2078c-6.08,10.91-14,10.91-16.55,10.91H1142.13c-54.38,0-117.11-.08-154.45-.08l399.59-717.38a38.46,38.46,0,0,0-33.45-57.21h0l-681,.9L537.34,1080.64h992c.07,0,.15,0,.26,0s.18,0,.26,0c.55,0,1.07-.18,1.63-.22a38.49,38.49,0,0,0,6.57-.89,40.69,40.69,0,0,0,4.83-1.49c.85-.34,1.67-.67,2.48-1a37.91,37.91,0,0,0,18.19-16.46L1727,758.24H1997Zm-340.31-27.26c-8.68-14.3-20-32.89-32.26-53.11-41.31-68.19-94.24-155.48-100.22-165.06-2-3.24-2.93-11.13,1.26-18.65,9.58-17.21,190.43-343,234.49-422.36l264.07-.34ZM470.79,1601.77,339.53,1368.56l132.3-248,132.7,229.74C563.29,1428,498.92,1549.07,470.79,1601.77Zm-176.17,36.31c-66.82,0-133.26,0-143,0h0c-6.53,0-14.44-4.58-18-10.46l-42.73-70.43C60.36,1507,21.53,1442.93,0,1407.51H273.42l129.77,230.6C374.87,1638.11,334.78,1638.08,294.62,1638.08ZM738.57,11C744.65,0,752.52,0,755.09,0L1013.4,0,612.73,717.42c-.33.6-.52,1.23-.81,1.87a38.93,38.93,0,0,0-1.6,3.68c-.41,1.23-.78,2.42-1.11,3.65s-.56,2.31-.75,3.47a35,35,0,0,0-.41,4.28c0,.63-.18,1.23-.18,1.9,0,.48.11.93.15,1.41a29,29,0,0,0,.41,4.18,26.52,26.52,0,0,0,.63,3.46,36.86,36.86,0,0,0,1.11,3.57c.41,1.16.82,2.35,1.34,3.47s1.11,2.16,1.74,3.24,1.23,2.08,2,3.09a33.07,33.07,0,0,0,2.37,2.9c.82.9,1.64,1.83,2.53,2.68s1.82,1.53,2.78,2.28a33.65,33.65,0,0,0,3.31,2.34c.44.26.78.6,1.22.86s.93.33,1.41.56a39,39,0,0,0,6.24,2.53c.78.22,1.52.52,2.34.71a36.66,36.66,0,0,0,8.65,1.08s0,0,.07,0h.07l17,0c.07,0,.15,0,.22,0h0l663.92-.9c17.55,30.54,50.37,88,78.32,136.94q32.17,56.41,53.15,93h-988a12.3,12.3,0,0,0-1.26.19A38.13,38.13,0,0,0,436.38,1024L272.83,1330.61H3.08C120.82,1119.3,730.7,25,738.57,11Zm340.87,28.12,24,39.47c42.13,69.5,101.63,167.59,107.94,177.79,2,3.24,2.93,11.1-1.3,18.66L975.58,697.35l-264,.34ZM1529.1,486.86l131.33,233.32L1526.54,967.65c-16-27.85-35.78-62.56-54.38-95.15-36.75-64.39-63.55-111.28-78.66-137.5C1422.05,682.75,1497.51,544.51,1529.1,486.86Z" fill-rule="evenodd"/></svg>