<svg xmlns="http://www.w3.org/2000/svg" xml:space="preserve" width="230" height="300" viewBox="-15 -12.782 230 300"><path fill="#FFCB05" d="M100 0c27.903 0 53.104 15.686 71.25 41.008 17.742 24.718 28.75 58.79 28.75 96.25 0 37.379-11.008 71.452-28.75 96.17-18.146 25.322-43.347 41.008-71.25 41.008s-53.105-15.686-71.25-41.008C11.008 208.709 0 174.637 0 137.258c0-37.459 11.008-71.532 28.75-96.25C46.895 15.686 72.097 0 100 0z"/><path fill="#276FB8" d="M30.806 58.669C18.588 80.282 11.25 107.581 11.25 137.258c0 29.597 7.339 56.896 19.557 78.508v-55.202c.645.162 1.291.242 2.016.323 2.016.242 4.436.322 7.218.242-2.057.807-3.911 1.774-6.129 2.823 2.419 1.129 4.274 1.653 7.459 1.008a19.892 19.892 0 0 1 3.064-.363c-1.774.928-3.427 1.936-4.879 3.307 1.411.766 2.621 1.25 4.274 1.331l-.887.403c2.298.927 4.355 1.572 6.855 1.613-.645.444-1.25.927-1.855 1.371.887.242 1.774.484 2.661.686v68.266c6.089 5.887 12.742 10.686 19.758 14.274v-63.185c.363.766 1.129 1.29 2.097 1.492.847.202 1.936.161 2.943-.161a7.743 7.743 0 0 0 1.533-.726c.121-.081.242-.161.322-.242a25.373 25.373 0 0 0 5.887 8.064c-.121.081-.242.161-.323.242a4.793 4.793 0 0 0-1.169 1.209c-.645.888-1.048 1.896-1.088 2.742-.121 1.129.242 2.097 1.048 2.702s1.855.605 2.903.202c.807-.363 1.613-1.008 2.258-1.895.363-.484.605-1.008.807-1.492.041-.121.081-.282.121-.403.806.443 1.613.847 2.419 1.21v56.734c3.266.524 6.573.807 9.879.807 3.306 0 6.613-.282 9.879-.807v-56.734a33.881 33.881 0 0 0 2.419-1.21c.04.121.081.283.121.403.202.484.444 1.008.807 1.492.645.887 1.452 1.532 2.258 1.895 1.048.403 2.097.403 2.903-.202s1.169-1.573 1.048-2.702c-.04-.887-.443-1.854-1.088-2.742a4.793 4.793 0 0 0-1.169-1.209c-.081-.081-.202-.161-.323-.242 2.46-2.258 4.476-5 5.887-8.064.081.081.202.161.323.242.443.282.968.524 1.532.726 1.008.322 2.097.363 2.943.161.968-.202 1.734-.726 2.097-1.492v63.185c7.016-3.588 13.669-8.387 19.758-14.274v-68.266c.887-.202 1.774-.444 2.661-.686-.604-.444-1.209-.927-1.855-1.371 2.5-.041 4.557-.686 6.855-1.613l-.887-.403c1.653-.081 2.863-.564 4.274-1.331-1.452-1.371-3.105-2.379-4.879-3.307 1.008.041 2.056.161 3.064.363 3.186.646 5.041.121 7.459-1.008-2.217-1.048-4.072-2.016-6.129-2.823 2.782.081 5.202 0 7.218-.242.726-.081 1.371-.161 2.016-.323v55.202c12.218-21.613 19.557-48.911 19.557-78.508 0-29.677-7.339-56.976-19.557-78.589v19.436c-.726 1.452-.807 3.75-.363 5.605.121.524.242 1.048.363 1.532v6.129a10.523 10.523 0 0 1-.968 2.379c-2.5 4.637-5.968 8.871-9.839 12.782-2.903 2.943-5.927 5.686-8.992 8.387V32.863c-6.089-5.887-12.742-10.686-19.758-14.274v115.565a82.492 82.492 0 0 0-3.105 4.072c-1.089-1.573-2.218-3.145-3.307-4.758-3.468 2.339-7.5 4.436-11.573 7.016l3.75.604c-.444 2.823-1.533 5.282-3.267 7.057-.645.686-1.411 1.25-2.258 1.734v-28.831h16.734v-8.669h-16.734v-2.298a11.646 11.646 0 0 0 1.734-6.089c0-2.258-.645-4.354-1.734-6.129V12.097a62.415 62.415 0 0 0-9.879-.807c-3.307 0-6.613.282-9.879.807v85.766a11.69 11.69 0 0 0-1.734 6.129c0 2.218.646 4.315 1.734 6.089v2.298H73.387v8.669h16.734v28.831c-.847-.484-1.613-1.048-2.258-1.734-1.734-1.774-2.823-4.234-3.266-7.057l3.75-.604c-4.073-2.581-8.105-4.677-11.573-7.016-1.088 1.613-2.218 3.185-3.306 4.758a83.116 83.116 0 0 0-3.105-4.072V18.588c-7.016 3.589-13.669 8.387-19.758 14.274v82.057c-3.064-2.702-6.089-5.444-8.992-8.387-3.871-3.911-7.338-8.145-9.838-12.782a10.607 10.607 0 0 1-.968-2.379v-6.129c.121-.484.242-1.008.363-1.532.444-1.854.363-4.153-.363-5.605V58.669z"/><path fill="#FFCB05" d="M100 165.927c1.854-1.693 3.911-3.145 6.048-4.476 2.338-1.452 4.758-2.702 7.177-3.911 3.226-1.613 6.25-3.226 8.589-5.524 2.984-2.943 3.952-6.411 4.234-10.484l1.734.363c-1.693-2.137-3.307-4.355-4.879-6.613a160.228 160.228 0 0 1-7.702 4.436l1.653.242c-.403 3.387-1.331 6.573-3.75 9.073-2.379 2.5-5.242 3.307-8.548 3.508v-32.823h20.726v-6.008h-21.976c4.073-1.371 6.976-5.242 6.976-9.718 0-5.685-4.637-10.322-10.282-10.322v5.766c2.5 0 4.516 2.017 4.516 4.557 0 2.5-2.016 4.557-4.516 4.557v57.377zm-25.282-52.218v6.008h20.726v32.823c-3.307-.202-6.169-1.008-8.548-3.508-2.419-2.5-3.347-5.686-3.75-9.073l1.653-.242a159.388 159.388 0 0 1-7.702-4.436c-1.573 2.258-3.186 4.476-4.879 6.613l1.734-.363c.282 4.073 1.25 7.541 4.234 10.484 2.339 2.298 5.363 3.911 8.589 5.524 2.419 1.209 4.839 2.459 7.177 3.911 2.137 1.331 4.194 2.782 6.049 4.476v-57.379c-2.5 0-4.557-2.057-4.557-4.557a4.552 4.552 0 0 1 4.557-4.557v-5.766c-5.646 0-10.283 4.637-10.283 10.322 0 4.476 2.903 8.347 6.976 9.718H74.718zM110.766 161.573c.726.363 1.452.806 2.178 1.25l.484-.685c0-.726.323-1.573.887-2.339.968-1.331 2.46-1.976 3.307-1.371.807.564.686 2.178-.322 3.549-.564.766-1.291 1.331-1.976 1.532l-.484.726a23.448 23.448 0 0 1 7.258 10l.847-.282c.403-.564 1.129-1.089 2.056-1.371 1.613-.524 3.186-.161 3.508.807s-.766 2.177-2.379 2.701c-.887.323-1.814.323-2.46.081l-.847.282c.564 1.976.847 4.072.847 6.21 0 2.137-.282 4.193-.847 6.169l.847.282c.646-.242 1.573-.202 2.46.081 1.613.524 2.702 1.733 2.379 2.742-.323.968-1.895 1.331-3.508.807-.927-.323-1.653-.847-2.056-1.412l-.847-.242c-1.492 3.952-4.032 7.379-7.258 10l.484.686c.686.242 1.412.766 1.976 1.532 1.008 1.411 1.129 3.024.322 3.629-.847.564-2.339-.041-3.307-1.452-.564-.766-.887-1.613-.887-2.298l-.484-.726c-.726.443-1.452.887-2.178 1.25v-8.226l1.533 2.137c2.54-2.057 4.516-4.798 5.766-7.863l-2.903-.928c-.202.605-.847.403-.645-.202l-3.548-1.169c.081-.282-.041-.484-.202-.524v-2.016l.283.081c-.202.564.443.766.645.202l3.548 1.169c.202-.605.847-.403.645.202l2.903.927a19.18 19.18 0 0 0 .605-4.838c0-1.694-.202-3.347-.605-4.879l-2.903.927c.202.605-.443.807-.645.202l-3.548 1.169c-.202-.564-.847-.322-.645.202l-.283.081v-2.016c.162-.041.283-.242.202-.484l3.548-1.169c-.202-.605.443-.847.645-.202l2.903-.967a19.953 19.953 0 0 0-5.766-7.863l-1.533 2.137v-8.228zm0 33.346a.253.253 0 0 0 0-.242v.242zm0-24.314a.253.253 0 0 0 0-.242v.242zm-5.202 2.339.081-.081c.444.323.847-.201.403-.564l2.177-3.024c-.484-.363-.081-.927.403-.564l1.774-2.419a18.989 18.989 0 0 0-4.838-2.258v-.726c.403-.242.807-.484 1.209-.767.887-.524 1.774-1.048 2.702-1.572.444.202.887.403 1.29.605v8.226l-.201.323c.081.081.161.161.201.242v.242c-.08.161-.322.242-.604.04l-2.218 3.064c-.484-.363-.887.202-.403.524l-1.492 2.057c.524.363.161.927-.403.524l-.081.121v-3.993zm5.202 30.766a26.158 26.158 0 0 1-5.201 1.976v-4.436a18.939 18.939 0 0 0 4.838-2.258l-1.774-2.419c-.484.363-.887-.162-.363-.564l-2.218-3.024c.443-.322.041-.887-.403-.564l-.081-.081v-3.992l.081.121c.524-.363.927.161.403.564l1.492 2.016c-.484.363-.081.887.403.564l2.218 3.024c.282-.202.524-.121.604.041v.242a1.21 1.21 0 0 1-.201.282l.201.282v8.226h.001zm0-25.363v2.016l-2.137.686c.201.605-.444.847-.645.242l-2.419.766v-2.46l1.693-.564c-.202-.605.444-.806.645-.202l2.419-.766c.081.282.283.362.444.282zm0 6.572v2.016c-.161-.041-.363.04-.443.323l-2.419-.807c-.161.604-.847.403-.645-.202l-1.693-.564v-2.46l2.419.807c.201-.645.846-.403.645.202l2.136.685zm-9.597-6.613c.121.041.282.081.403.121l2.178-2.984c-.524-.363-.121-.927.403-.564l1.411-1.935v3.992l-2.097 2.903c.121.121.201.242.282.363l1.814-.605v2.46l-1.089.363v.443l1.089.363v2.46l-1.814-.565a2.245 2.245 0 0 1-.282.363l2.097 2.863v3.992l-1.411-1.936c-.484.363-.928-.162-.403-.564l-2.178-2.984c-.121.04-.282.081-.403.121v3.71c.646 0 .646.686 0 .686v2.54c-.604 0-.604.645 0 .645v3.791c.646 0 .646.645 0 .645v3.024c1.492-.081 2.984-.363 4.396-.766v4.436c-1.411.323-2.903.564-4.396.605v.887c.403.564.646 1.412.646 2.379 0 1.693-.807 3.104-1.814 3.104-1.008 0-1.815-1.411-1.815-3.104 0-.968.242-1.815.645-2.379v-.887c-1.491-.041-2.983-.282-4.395-.605v-4.436c1.411.403 2.903.686 4.395.766v-3.024c-.604 0-.604-.645 0-.645v-3.791c.605 0 .605-.645 0-.645v-2.54c-.604 0-.645-.686 0-.686v-3.71c-.121-.04-.282-.081-.403-.121l-2.178 2.984c.524.403.122.927-.403.564l-1.411 1.936v-3.992l2.096-2.863c-.121-.121-.201-.242-.282-.363l-1.814.565v-2.46l1.088-.363v-.443l-1.088-.363v-2.46l1.814.605c.081-.121.162-.242.282-.363l-2.096-2.863v-4.032l1.411 1.935c.484-.363.927.202.403.564l2.178 2.984c.121-.04.282-.081.403-.121v-3.709c-.645 0-.645-.686 0-.686v-2.5c.605 0 .605-.685 0-.685v-3.75c-.483 0-.604-.403-.322-.605.484.444 1.008.928 1.492 1.371.483-.443.968-.927 1.492-1.371.282.202.161.605-.323.605v3.75c-.604 0-.604.685 0 .685v2.5c.605 0 .646.686 0 .686v3.709h-.001zm4.395-14.274c-.242-.04-.484-.121-.766-.202.282-.161.524-.323.766-.524v.726zm-11.128-.685c.242.161.483.323.766.484-.282.081-.524.162-.766.202v-.686zm0 42.339a25.192 25.192 0 0 1-7.379-3.226l-.484.726c0 .686-.322 1.532-.847 2.298-1.008 1.411-2.5 2.016-3.347 1.452-.807-.605-.686-2.218.322-3.629.564-.767 1.291-1.291 1.976-1.532l.484-.686c-3.226-2.621-5.766-6.048-7.258-10l-.847.242c-.403.564-1.129 1.089-2.056 1.412-1.613.524-3.186.161-3.508-.807-.322-.968.766-2.218 2.379-2.742.887-.283 1.815-.323 2.46-.081l.847-.282a22.365 22.365 0 0 1-.847-6.169c0-2.138.282-4.234.806-6.21l-.806-.242c-.645.201-1.573.201-2.46-.122-1.613-.524-2.701-1.733-2.379-2.701.323-.968 1.895-1.331 3.508-.807.927.282 1.653.807 2.056 1.371l.847.282a23.456 23.456 0 0 1 7.258-10l-.484-.726c-.686-.201-1.412-.766-1.976-1.532-1.008-1.371-1.129-2.984-.322-3.549.847-.604 2.339.041 3.307 1.371.564.766.887 1.613.887 2.339l.484.685c1.089-.726 2.258-1.331 3.468-1.854.927.524 1.814 1.048 2.702 1.572.403.282.807.524 1.21.807v.686a18.961 18.961 0 0 0-4.839 2.258l1.774 2.419c.484-.363.887.202.363.564l2.218 3.024c-.443.363-.04.887.403.564l.081.081v4.032l-.081-.161c-.524.403-.927-.161-.403-.524l-1.492-2.057c.484-.323.081-.887-.403-.524l-2.218-3.064c-.524.403-.887-.161-.403-.524l-1.733-2.46a19.946 19.946 0 0 0-5.767 7.863l2.903.967c.202-.604.847-.403.646.202l3.548 1.169c-.162.524.484.726.645.202l2.419.766c.161-.604.847-.403.645.202l1.694.564v2.46l-2.42-.766c-.201.604-.846.403-.645-.202l-2.419-.807c.201-.524-.444-.766-.646-.202l-3.548-1.169c-.202.605-.847.403-.645-.202l-2.903-.927c-.403 1.532-.605 3.186-.605 4.879 0 1.653.202 3.306.605 4.879l2.903-.968c-.202-.605.443-.807.645-.202l3.548-1.169c.202.564.847.363.646-.202l2.419-.766c-.201-.604.444-.847.645-.202l2.42-.807v2.46l-1.694.564c.202.605-.443.806-.645.202l-2.419.807c-.161-.565-.807-.363-.645.201l-3.548 1.169c.202.605-.444.807-.646.202l-2.903.928c1.25 3.104 3.226 5.806 5.767 7.863l1.733-2.419c-.483-.403-.081-.927.403-.564l2.218-3.024c.484.323.887-.201.403-.564l1.492-2.016c-.524-.363-.161-.927.403-.564l.081-.121v3.992l-.081.081c-.443-.323-.847.242-.403.564l-2.177 3.024c.484.403.081.927-.403.564l-1.774 2.459c1.492.927 3.104 1.694 4.839 2.218v4.438zM29.717 137.943c-5.282-1.451-9.879-4.919-13.79-8.629-.847-.847-1.452-1.371-1.896-1.613.162.564.565 1.492 1.129 2.459 4.193 7.057 11.209 10.686 18.629 13.387.484.161.645.282 1.089.564a42.599 42.599 0 0 0 8.791 4.839c2.581 1.048 5.121 1.774 7.621 2.339-.363-.767-.484-1.734.121-2.419-2.5-.363-5-1.169-7.5-2.298-4.113-1.896-7.863-4.436-11.653-6.936-.847-.563-1.734-1.088-2.541-1.693z"/><path fill="#FFCB05" d="M52.983 147.661c-.121-.564-.081-1.048.162-1.411-4.637-1.573-9.436-3.306-13.347-6.25-1.291-.968-2.137-2.419-3.387-3.428-2.662-2.218-5.202-4.717-7.943-6.734-2.823-2.096-5.323-4.556-7.379-7.379-1.411-1.976-2.581-3.871-4.274-5.524-1.129-1.128-1.532.122-1.532 1.089.04 2.701 2.459 5.726 3.992 7.822 1.452 1.976 2.984 3.911 4.637 5.686 2.661 2.822 5.847 4.879 9.073 7.016 3.709 2.419 7.419 4.96 11.492 6.814 2.861 1.291 5.644 2.138 8.506 2.299zM58.508 139.959c.605-.403 1.452-.403 2.177-.282-.161-1.452 0-3.347 1.734-3.709-3.589-4.919-7.581-9.597-11.936-13.871-5.162-5.081-11.331-8.952-16.371-14.113-4.314-4.436-8.468-9.879-10.283-15.847-2.822-.524-4.153 1.492-2.742 4.354a102.28 102.28 0 0 0 7.782 13.146 97.653 97.653 0 0 0 10.202 12.298c.242.282.363.403.564.766a61.43 61.43 0 0 0 2.218 3.992c3.387 5.484 8.508 8.387 13.992 11.573.969.525 1.816 1.089 2.663 1.693z"/><path fill="#FFCB05" d="M55.887 142.379c.605-.121 1.291.041 1.855.242-.121-.524-.161-1.048-.041-1.573a29.918 29.918 0 0 0-2.5-1.653c-5.726-3.266-10.927-6.331-14.476-12.016-.847-1.331-1.613-2.782-2.379-4.274-7.419-7.541-13.467-16.169-18.226-25.605-2.218 4.476 2.742 11.572 4.919 15.202 3.347 5.443 6.895 11.29 11.653 15.484 1.411 1.25 2.5 2.702 3.588 4.113 2.702 3.629 5.081 5.524 9.194 7.419 2.018.927 4.235 1.814 6.413 2.661z"/><path fill="#FFCB05" d="M55 145.403c-.242-.605-.444-1.371-.242-2.057-3.911-1.532-8.186-3.105-11.532-5.766-1.653-1.291-2.823-2.863-4.032-4.476-1.008-1.371-2.057-2.782-3.387-3.951a26.644 26.644 0 0 1-1.895-1.814c-2.097-1.613-4.355-3.831-6.573-6.533-2.621-3.145-6.008-7.217-7.339-11.129-1.371-4.153-3.871-2.338-2.702 1.291 1.815 5.604 6.331 11.613 10.283 15.847 2.943 3.186 6.089 5.766 9.677 8.71 1.25 1.008 2.097 2.459 3.347 3.427 3.75 2.822 8.387 4.516 12.823 5.968.403.161 1.169.523 1.572.483zM68.347 162.218c-1.371 1.129-3.992 1.452-5.726 1.734-1.209.524-2.258.847-3.226.968-.403.887.403 1.088 1.169 1.209 1.451.161 2.258-.322 3.548-1.048 1.613-.847 3.468-1.129 5.081-1.936-.282-.282-.564-.605-.846-.927zM58.467 159.959a8.396 8.396 0 0 1-2.621-1.29 7.592 7.592 0 0 1-1.976-.242c-.564-.161-1.048.282-.564.766 1.331 1.412 3.508 1.17 5.161.766zM65.161 160.161c-1.371.202-2.702.323-3.871.242-1.653.605-3.347 1.088-4.879 1.129-.646.041-.968.121-1.573.444 1.291 1.048 2.298 1.572 3.307 1.693 1.129.161 2.298-.162 3.871-.807.282-.121.444-.161.767-.201 1.371-.162 3.064-.444 4.274-1.089-.686-.363-1.371-.846-1.896-1.411zM64.032 157.581c-3.105-.161-5.766-.726-7.863-1.653-1.734-.766-3.104-1.814-4.072-3.186 0 .121 0 .323.04.565 0 .081.041.161.081.201.121.323.202.605 0 1.049-.121.282-.282.443-.121.846.282.726.766 1.21 1.411 1.533.484.282 1.089.403 1.814.484.928.041.928 0 1.653.524.928.605 2.016.968 3.266 1.129 1.25.161 2.621.121 4.153-.081a3.071 3.071 0 0 1-.242-1.209c.001-.162.001-.202-.12-.202z"/><path fill="#FFCB05" d="M62.298 155.04c-1.693-.604-4.112-1.653-6.008-3.024-1.008-.726-1.895-1.532-2.5-2.419-.403-.121-1.21-.282-1.452.121-.202.323 0 .927.161 1.209.807 1.694 2.258 2.984 4.194 3.831 1.693.767 3.75 1.25 6.169 1.492a4.18 4.18 0 0 1-.564-1.21zM71.169 149.516c-.444-.686-.847-1.411-1.291-2.097-2.137-3.508-4.234-6.976-6.653-10.323v.081c-.564-.04-.968.121-1.129.524-.484 1.048-.081 2.581.121 3.669-.806-.242-1.733-.605-2.581-.484 3.024 2.459 5.403 5.403 7.782 8.709 1.211-.2 2.501-.159 3.751-.079zM58.911 141.976c.081.847.524 1.814.766 2.621-1.089-.242-2.339-1.008-3.347-1.008-.282 0-.363.04-.403.322 0 .766.443 1.573.766 2.258 3.105 1.451 6.008 3.589 8.589 5.726-.403-1.129-.162-1.613.766-1.936-2.217-3.023-4.395-5.725-7.137-7.983zM54.476 146.693c-.323.121-.403.444-.161 1.21.363 1.129 1.411 2.177 2.702 3.105 1.814 1.29 4.113 2.258 5.726 2.863.645-.363 1.371-.564 2.097-.645-3.066-2.581-6.614-5.162-10.364-6.533zM74.556 156.613c-.605-1.936-1.573-3.871-2.621-5.766-1.613-.161-3.387-.282-4.959.121-.443.121-.645.161-.686.161 0 .041.121.162.282.524 1.089 2.661 5.484 4.154 7.984 4.96zM75.04 158.831c-.04-.242-.081-.524-.121-.766-2.581-.807-5.484-1.814-7.621-3.548-1.21-.242-2.581-.161-3.75.323 1.573 3.789 8.145 3.951 11.492 3.991zM75.161 161.129c.04-.363.04-.686 0-1.048-2.903 0-5.766-.242-8.024-.968-.564-.202-1.088-.363-1.613-.604.202.524.645.967 1.129 1.29 2.621 1.975 5.484 1.492 8.508 1.33zM74.072 165.202c.443-.927.766-1.855.928-2.823-1.532.121-3.105.283-4.638.161 1.049 1.049 2.299 2.097 3.71 2.662zM72.097 168.024c.524-.564.968-1.169 1.331-1.734-1.21-.524-2.298-1.331-3.266-2.218-.968.524-1.936.807-2.863 1.129-.887.282-1.774.564-2.581 1.008-.767.403-1.371.524-.887.726 2.177 1.129 5.886 1.412 8.266 1.089zM53.831 161.089c-.766-.323-1.411-.887-1.936-1.694a77.335 77.335 0 0 0-8.669 2.057c-2.218.686-4.395 1.452-6.411 2.338 1.411.282 2.863.162 4.314-.121 1.814-.403 3.669-.443 5.524-.484 1.371 0 2.944-.564 4.436-1.129.806-.282 2.056-.564 2.742-.967zM56.733 164.597c-1.169-.403-2.177-1.209-3.145-2.016a65.71 65.71 0 0 0-4.758 1.532c-2.379.887-4.718 1.976-6.774 3.508 2.823.847 5.766-.242 8.508-.887 1.935-.444 3.951-1.25 5.887-2.016.081-.041.162-.081.282-.121zM59.879 167.258c-.484-.121-.928-.282-1.291-.564-.363-.323-.605-.686-.605-1.169-.363.161-.726.282-1.048.443-2.057.766-4.113 1.613-6.21 2.097a22.505 22.505 0 0 0-4.314 1.412c.726.201 1.452.322 2.218.403 3.226.282 4.032-.403 6.854-1.048 1.493-.324 2.944-.929 4.396-1.574z"/><path fill="#FFCB05" d="M72.661 139.274c-8.75-12.621-21.209-21.048-31.936-31.854-3.952-3.992-7.5-8.307-10.041-13.064-1.976-3.71-1.734-6.976-.766-10.928.484-1.976.403-4.476-.524-5.323-.686-.605-1.694-.04-2.258.484-.887.846-1.572 2.137-1.936 3.024-1.572 3.669-1.169 7.662.323 11.613 1.895 5.041 5.645 9.96 9.476 13.871 5.04 5.162 11.209 9.032 16.371 14.113 7.783 7.661 13.912 16.21 19.597 25.565 4.274 7.016 8.669 14.234 2.379 21.734-.564.645-.766.726-1.613.806-1.451.162-2.943.081-4.435-.161a23.233 23.233 0 0 1-5.162-1.492c-2.056.968-4.113 1.936-6.331 2.46a16.863 16.863 0 0 0-4.839 1.936c2.016.524 4.194.887 6.452 1.129 4.597.524 10.121 1.089 14.355-1.048 1.814-.928 3.427-2.218 4.798-3.791.968-1.129 1.976-2.339 3.387-3.145 1.008-.605 2.056-.887 3.064-.887.041-.04.081-.081.121-.081a2.338 2.338 0 0 1-.323-.242c-.443-.363-.847-.766-1.169-1.25-.645-.887-1.048-1.854-1.088-2.742-.121-1.129.242-2.057 1.048-2.662.322-.242.685-.363 1.088-.443-2.016-1.129-3.871-2.379-5.443-3.911-2.339-2.379-4.032-5.403-4.516-9.839l-3.226.403a370.914 370.914 0 0 0 3.147-4.275z"/><path fill="#FFCB05" d="M50.847 152.541a45.98 45.98 0 0 1-7.662-2.339c-1.331-.564-2.701-1.169-4.072-1.896-6.734-.322-14.073-1.532-20.767-.483 4.274 5.484 28.105 5.766 32.621 6.008 0-.081-.04-.161-.081-.282a2.891 2.891 0 0 1-.039-1.008zM36.814 146.976a45.96 45.96 0 0 1-3.105-2.056c-4.032-1.452-7.823-3.105-11.169-5.282-1.089-.726-6.573-4.678-7.057-4.153-.322.323.363 1.774.524 2.056.927 1.774 2.46 3.347 4.355 4.758 1.814 1.371 4.435 2.782 6.895 3.952 3.186.16 6.331.523 9.557.725z"/><path fill="#FFCB05" d="M23.266 151.895c-.686.202-1.331.444-1.936.766 2.984 1.25 6.935 2.218 11.734 2.903 5.201.726 11.371 1.169 18.427 1.331-.403-.524-.726-1.169-.766-1.734-9.153-.604-18.628-.524-27.459-3.266zM51.25 158.226c-5.201-.121-9.919-.403-14.113-.806-1.129-.121-1.29-.121-2.419.081-1.572.282-3.226.605-4.758.484-.686-.041-1.25.081-1.814.242 1.008.646 2.621 1.089 4.839 1.331 2.822.363 7.217.363 11.653.081 2.137-.564 4.314-1.008 6.492-1.412l.12-.001z"/><path d="M109.879 188.508v3.508l.847 1.209c.161 0 .323.041.443.122.282.121.484.282.646.523.161.202.242.484.282.767a.83.83 0 0 1 0 .443l.443.564c1.492-1.452 2.782-3.186 3.709-5.081l-.726-.242a1.195 1.195 0 0 1-.403.161c-.283.041-.565.041-.807-.04a1.692 1.692 0 0 1-.726-.444l-.242-.363-3.466-1.127zM109.879 182.057v1.169l5 1.653c.161-.081.282-.121.443-.161.282-.041.564-.041.807.04.282.081.524.242.686.444.121.121.202.242.282.363l.686.242c.202-1.008.282-2.096.282-3.145 0-1.089-.081-2.138-.282-3.186l-.686.242c-.081.121-.162.242-.282.363a1.352 1.352 0 0 1-.686.443 1.366 1.366 0 0 1-.807.041c-.161 0-.282-.081-.403-.121l-5.04 1.613zM109.879 173.307v3.508l3.468-1.129a1.42 1.42 0 0 1 .242-.363c.202-.242.444-.363.726-.444.242-.121.524-.121.807-.081.121.041.282.081.403.162l.726-.242c-.927-1.896-2.217-3.629-3.709-5.081l-.443.604c.04.121.04.282 0 .403v.041a1.78 1.78 0 0 1-.282.766 2.045 2.045 0 0 1-.646.524c-.121.04-.282.081-.403.121l-.889 1.211zM129.637 134.153V18.588c-6.291-3.186-12.944-5.403-19.758-6.492v85.766a11.681 11.681 0 0 1 1.734 6.129c0 2.218-.645 4.315-1.734 6.089v2.298h16.734v8.669h-16.734v28.831c.847-.484 1.613-1.048 2.258-1.734 1.734-1.774 2.823-4.234 3.267-7.057l-3.75-.604c4.073-2.581 8.105-4.677 11.573-7.016 1.089 1.613 2.218 3.185 3.307 4.758a81.252 81.252 0 0 1 3.103-4.072zM129.637 190.444v-15.565a2.92 2.92 0 0 1-.605.887c-.564.686-1.452 1.25-2.5 1.572-.524.202-1.129.283-1.653.323h-.403c.363 1.613.524 3.266.524 5 0 1.693-.161 3.346-.524 4.959h.403c.524.04 1.129.121 1.653.322 1.048.323 1.936.928 2.5 1.573.282.283.484.606.605.929zM109.879 262.339c6.814-1.089 13.468-3.307 19.758-6.492v-63.185c-.363.766-1.129 1.29-2.097 1.492-.847.202-1.936.161-2.943-.161a7.734 7.734 0 0 1-1.532-.726c-.121-.081-.242-.161-.323-.242a25.373 25.373 0 0 1-5.887 8.064c.121.081.242.161.323.242.443.323.847.726 1.169 1.209.645.888 1.048 1.855 1.088 2.742.121 1.129-.242 2.097-1.048 2.702-.807.605-1.855.605-2.903.202-.807-.363-1.613-1.008-2.258-1.895-.363-.484-.605-1.008-.807-1.492-.04-.121-.081-.282-.121-.403-.807.443-1.613.847-2.419 1.21v56.733zM90.121 176.814v-3.508l-.847-1.21a6.482 6.482 0 0 1-.443-.121c-.282-.122-.484-.323-.646-.524a1.768 1.768 0 0 1-.282-.766.833.833 0 0 1 0-.444l-.443-.604c-1.492 1.452-2.782 3.185-3.709 5.081l.726.242a.679.679 0 0 1 .403-.121c.282-.081.564-.081.807.04.282.081.524.202.726.444.081.081.161.202.242.363l3.466 1.128zM90.121 183.226v-1.169l-5-1.613c-.161.04-.282.121-.443.121a1.35 1.35 0 0 1-.807-.041 1.363 1.363 0 0 1-.686-.443 2.178 2.178 0 0 1-.282-.363l-.685-.242a16.68 16.68 0 0 0-.283 3.186c0 1.048.081 2.137.283 3.145l.685-.242c.081-.121.162-.242.282-.363a1.36 1.36 0 0 1 .686-.444c.242-.081.524-.081.807-.04.161.04.282.081.403.161l5.04-1.653zM90.121 192.016v-3.508l-3.467 1.129-.242.363a1.819 1.819 0 0 1-.686.444 1.989 1.989 0 0 1-.847.04c-.121-.04-.282-.081-.403-.161l-.726.242c.927 1.895 2.218 3.629 3.709 5.081l.443-.564a.829.829 0 0 1 0-.443c.041-.282.121-.564.282-.767.162-.242.404-.403.646-.523a.776.776 0 0 1 .403-.122l.888-1.211zM70.362 192.662v63.185c6.291 3.186 12.944 5.403 19.758 6.492v-56.734a34.093 34.093 0 0 1-2.419-1.21c-.041.121-.081.283-.121.403-.202.484-.444 1.008-.807 1.492-.645.887-1.452 1.532-2.258 1.895-1.048.403-2.097.403-2.903-.202-.807-.605-1.169-1.573-1.048-2.702.04-.847.443-1.854 1.088-2.742a4.793 4.793 0 0 1 1.169-1.209c.081-.081.202-.161.323-.242-2.46-2.258-4.476-5-5.887-8.064-.081.081-.202.161-.322.242a7.743 7.743 0 0 1-1.533.726c-1.008.322-2.097.363-2.943.161-.967-.201-1.733-.726-2.097-1.491zM70.362 174.879v15.565c.122-.323.323-.646.605-.928.565-.645 1.452-1.25 2.5-1.573.524-.202 1.129-.282 1.653-.322h.403c-.363-1.613-.524-3.266-.524-4.959 0-1.734.161-3.388.524-5h-.403c-.524-.04-1.129-.121-1.653-.282-1.049-.363-1.936-.927-2.5-1.613-.282-.283-.483-.565-.605-.888zM90.121 12.097c-6.814 1.088-13.467 3.306-19.758 6.492v115.565a82.492 82.492 0 0 1 3.105 4.072c1.088-1.573 2.218-3.145 3.306-4.758 3.468 2.339 7.5 4.436 11.573 7.016l-3.75.604c.443 2.823 1.532 5.282 3.266 7.057.645.686 1.411 1.25 2.258 1.734v-28.831H73.387v-8.669h16.734v-2.298a11.656 11.656 0 0 1-1.734-6.089c0-2.258.646-4.354 1.734-6.129V12.097zM30.806 160.564v55.202a127.86 127.86 0 0 0 7.097 11.129c3.912 5.403 8.146 10.363 12.702 14.678v-68.266c-.887-.202-1.774-.444-2.661-.686.605-.444 1.21-.927 1.855-1.371-2.5-.041-4.557-.686-6.855-1.613l.887-.403c-1.653-.081-2.863-.564-4.274-1.331 1.452-1.371 3.105-2.379 4.879-3.307a19.877 19.877 0 0 0-3.064.363c-3.185.646-5.04.121-7.459-1.008 2.218-1.048 4.072-2.016 6.129-2.823-2.782.081-5.202 0-7.218-.242-.727-.08-1.373-.16-2.018-.322zM30.806 156.573v.121c.202 0 .403-.04.605-.04a3.064 3.064 0 0 0-.605-.081zM50.604 32.863c-4.556 4.314-8.79 9.274-12.702 14.678a127.841 127.841 0 0 0-7.097 11.128v19.436c.726 1.452.807 3.75.363 5.605-.121.524-.242 1.048-.363 1.532v6.129c.202.767.524 1.573.968 2.379 2.5 4.637 5.968 8.871 9.838 12.782 2.903 2.943 5.928 5.686 8.992 8.387V32.863zM89.072 160.161c-.766-.403-1.573-.806-2.338-1.209 0 .04.04.04.04.081.363.443.605.968.807 1.492l.121.363c.443-.243.887-.485 1.37-.727zM113.266 158.952c-.766.403-1.573.807-2.339 1.209.484.242.927.484 1.371.726.04-.121.081-.242.121-.403.202-.484.444-1.008.807-1.452 0-.04.04-.04.04-.08zM75.403 171.331a4.874 4.874 0 0 1 1.533.726c.121.081.242.161.322.242 1.048-2.339 2.459-4.436 4.153-6.331a7.68 7.68 0 0 0-.807.403c-.968.565-1.936 1.452-2.943 2.742h-.04c-.645.806-1.412 1.532-2.218 2.218zM118.588 165.968c1.694 1.895 3.105 3.992 4.153 6.331.081-.081.202-.161.323-.242a4.87 4.87 0 0 1 1.532-.726c-.807-.686-1.573-1.411-2.218-2.218h-.041c-1.008-1.29-1.976-2.177-2.943-2.742a7.211 7.211 0 0 0-.806-.403zM169.193 91.371v-6.129c-.121-.484-.242-1.008-.363-1.532-.444-1.854-.363-4.153.363-5.605V58.669a127.69 127.69 0 0 0-7.097-11.128c-3.911-5.403-8.145-10.363-12.702-14.678v82.057c3.064-2.702 6.089-5.444 8.992-8.387 3.871-3.911 7.339-8.145 9.839-12.782a10.54 10.54 0 0 0 .968-2.38zM169.193 156.693v-.121c-.202 0-.403.04-.605.081.203 0 .404.04.605.04zM149.395 241.573c4.557-4.314 8.791-9.274 12.702-14.678a127.86 127.86 0 0 0 7.097-11.129v-55.202c-.645.162-1.29.242-2.016.323-2.016.242-4.436.322-7.218.242 2.057.807 3.912 1.774 6.129 2.823-2.419 1.129-4.274 1.653-7.459 1.008a19.892 19.892 0 0 0-3.064-.363c1.774.928 3.427 1.936 4.879 3.307-1.411.766-2.621 1.25-4.274 1.331l.887.403c-2.298.927-4.354 1.572-6.855 1.613.646.444 1.25.927 1.855 1.371-.887.242-1.774.484-2.661.686v68.265z"/><path fill="#FFCB05" d="M83.266 61.169c.041 2.298.403 3.104 1.533 3.669.726.363 2.056.363 2.782 0 1.129-.564 1.492-1.371 1.492-3.669V50.927c0-1.088-.081-1.896-.242-2.379-.202-.484-.524-.927-.968-1.331h8.387a4.004 4.004 0 0 0-.967 1.291c-.162.484-.283 1.29-.283 2.419V61.33c0 1.532-.081 2.702-.323 3.508a5.123 5.123 0 0 1-1.089 2.137c-1.492 1.694-3.347 1.896-5.363 1.976-1.411.04-2.702.04-4.113 0-1.976-.081-3.831-.282-5.323-1.976-.524-.605-.887-1.331-1.129-2.137-.202-.806-.323-1.976-.323-3.508V50.927c0-1.129-.081-1.936-.282-2.419-.161-.444-.484-.887-.927-1.291h8.347a3.623 3.623 0 0 0-.927 1.331c-.162.483-.283 1.291-.283 2.379v10.242zM105.564 64.919c0 1.854.121 2.5 1.492 3.79h-8.75c1.371-1.25 1.492-1.936 1.492-3.79V50.967c0-1.128-.081-1.976-.282-2.419-.161-.484-.483-.927-.887-1.331h14.758v4.476c-.483-.484-.927-.806-1.371-.968-.403-.202-.928-.282-1.573-.282h-4.879v5.363h5.726v4.113a2.425 2.425 0 0 0-.927-.766c-.363-.202-.807-.282-1.291-.282h-3.508v6.048zM133.145 67.984a28.056 28.056 0 0 1-3.347.726 19.807 19.807 0 0 1-3.024.242c-3.79 0-6.855-1.048-9.153-3.105-2.339-2.097-3.467-4.798-3.467-8.145 0-3.266 1.128-5.968 3.427-8.065 2.258-2.096 5.202-3.145 8.79-3.145.726 0 1.492.041 2.299.162.806.081 1.653.282 2.54.484l.444 4.314c-1.008-.524-1.936-.928-2.783-1.169a8.862 8.862 0 0 0-2.459-.363c-1.814 0-3.226.605-4.234 1.855-1.048 1.25-1.572 2.984-1.572 5.162 0 2.742.645 4.838 1.895 6.331 1.25 1.492 3.024 2.258 5.322 2.258 1.048 0 2.097-.161 3.186-.484a21.482 21.482 0 0 0 3.548-1.411l-1.412 4.353zM72.661 64.838c0 1.089.081 1.896.282 2.42.202.483.524.968.968 1.371h-8.468c.443-.403.766-.887.968-1.371.161-.524.282-1.331.282-2.42V50.967c0-1.169-.121-1.976-.282-2.459a4.018 4.018 0 0 0-.968-1.291h8.468a3.32 3.32 0 0 0-.968 1.331c-.202.524-.282 1.291-.282 2.419v13.871zM77.661 240.605c2.459-3.952 4.032-6.532 4.718-7.782.645-1.291 1.008-2.137 1.008-2.581 0-.444-.161-.807-.403-1.048-.282-.242-.686-.363-1.209-.363-.403 0-.847.121-1.331.323-.524.202-1.089.524-1.774.968l.807-2.702a28.878 28.878 0 0 1 2.097-.564c.605-.081 1.129-.161 1.573-.161 1.291 0 2.339.322 3.105.968.766.645 1.169 1.532 1.169 2.581 0 .726-.242 1.572-.766 2.581-.524 1.048-1.694 2.903-3.549 5.604.524.041.887.121 1.169.121.282.041.524.041.766.041.484 0 .968-.041 1.452-.202.484-.121 1.129-.363 1.895-.726l-.927 2.943h-9.8zM94.718 238.307c.564 0 1.008-.363 1.331-1.089.323-.766.443-1.774.443-3.104 0-1.492-.161-2.662-.524-3.549-.323-.807-.767-1.209-1.331-1.25v-2.581h.041c1.532 0 2.822.686 3.871 2.016 1.008 1.331 1.492 3.024 1.492 5.121 0 2.056-.484 3.75-1.532 5.041-1.048 1.331-2.298 1.976-3.871 1.976v-2.581h.08zm-.081-8.993h-.081c-.564 0-1.008.323-1.291 1.048-.322.726-.483 1.774-.483 3.105 0 1.492.161 2.661.524 3.548.323.807.766 1.25 1.331 1.291v2.581h-.081c-1.532 0-2.823-.645-3.831-1.976s-1.532-3.065-1.532-5.121c0-2.057.524-3.75 1.572-5.081 1.008-1.331 2.299-1.976 3.871-1.976v2.581zM112.983 229.436l.726-2.218c.766-.121 1.452-.242 1.936-.323a8.104 8.104 0 0 1 1.331-.121c1.412 0 2.5.323 3.347.928.807.564 1.25 1.371 1.25 2.379 0 .605-.202 1.129-.524 1.573-.363.443-.887.847-1.613 1.169.928.282 1.653.766 2.178 1.371.484.605.726 1.331.726 2.137 0 1.291-.564 2.379-1.693 3.226-1.169.887-2.621 1.291-4.355 1.291-.363 0-.806 0-1.331-.081-.484-.041-1.129-.161-1.936-.323l-.524-2.419c.645.282 1.209.484 1.734.645.484.121.927.161 1.331.161.847 0 1.532-.201 2.056-.686.524-.443.807-1.048.807-1.814 0-.726-.282-1.29-.807-1.693-.564-.403-1.331-.605-2.339-.605h-.524c-.121 0-.242.041-.363.041v-1.815h.363c.968 0 1.734-.161 2.218-.483.524-.323.766-.807.766-1.412 0-.524-.161-.927-.524-1.209-.363-.282-.846-.403-1.492-.403-.363 0-.726.041-1.169.162-.445.118-.97.28-1.575.522zM106.089 238.307c.564 0 1.008-.363 1.331-1.089.282-.766.443-1.774.443-3.104 0-1.492-.161-2.662-.524-3.549-.323-.807-.767-1.209-1.331-1.25v-2.581c1.573 0 2.863.686 3.912 2.016 1.008 1.331 1.532 3.024 1.532 5.121 0 2.056-.524 3.75-1.572 5.041-1.049 1.331-2.339 1.976-3.871 1.976v-2.581h.08zm-.081-8.993h-.081c-.564 0-1.008.323-1.331 1.048-.282.726-.443 1.774-.443 3.105 0 1.492.161 2.661.524 3.548.323.807.766 1.25 1.331 1.291v2.581h-.081c-1.532 0-2.823-.645-3.831-1.976-1.048-1.331-1.532-3.065-1.532-5.121 0-2.057.524-3.75 1.532-5.081 1.048-1.331 2.339-1.976 3.911-1.976v2.581zM170.282 137.943c5.282-1.451 9.879-4.919 13.79-8.629.847-.847 1.452-1.371 1.896-1.613-.162.564-.565 1.492-1.129 2.459-4.193 7.057-11.209 10.686-18.629 13.387-.484.161-.645.282-1.089.564a42.618 42.618 0 0 1-8.79 4.839c-2.581 1.048-5.121 1.774-7.621 2.339.363-.767.484-1.734-.121-2.419 2.5-.363 5-1.169 7.5-2.298 4.113-1.896 7.863-4.436 11.653-6.936.846-.563 1.734-1.088 2.54-1.693z"/><path fill="#FFCB05" d="M147.016 147.661c.121-.564.081-1.048-.161-1.411 4.637-1.573 9.435-3.306 13.346-6.25 1.291-.968 2.138-2.419 3.388-3.428 2.661-2.218 5.202-4.717 7.943-6.734 2.822-2.096 5.323-4.556 7.379-7.379 1.411-1.976 2.581-3.871 4.274-5.524 1.129-1.128 1.533.122 1.533 1.089-.041 2.701-2.46 5.726-3.992 7.822-1.452 1.976-2.984 3.911-4.637 5.686-2.661 2.822-5.847 4.879-9.072 7.016-3.709 2.419-7.419 4.96-11.492 6.814-2.864 1.291-5.646 2.138-8.509 2.299zM141.492 139.959c-.605-.403-1.452-.403-2.177-.282.161-1.452 0-3.347-1.734-3.709 3.588-4.919 7.581-9.597 11.936-13.871 5.161-5.081 11.331-8.952 16.371-14.113 4.314-4.436 8.467-9.879 10.282-15.847 2.822-.524 4.153 1.492 2.742 4.354a102.28 102.28 0 0 1-7.782 13.146 97.481 97.481 0 0 1-10.202 12.298c-.242.282-.363.403-.564.766a61.43 61.43 0 0 1-2.218 3.992c-3.387 5.484-8.508 8.387-13.992 11.573-.968.525-1.816 1.089-2.662 1.693z"/><path fill="#FFCB05" d="M144.113 142.379c-.605-.121-1.291.041-1.855.242.121-.524.161-1.048.041-1.573a29.918 29.918 0 0 1 2.5-1.653c5.726-3.266 10.927-6.331 14.476-12.016.847-1.331 1.613-2.782 2.379-4.274 7.419-7.541 13.467-16.169 18.226-25.605 2.218 4.476-2.742 11.572-4.919 15.202-3.347 5.443-6.895 11.29-11.653 15.484-1.412 1.25-2.5 2.702-3.589 4.113-2.702 3.629-5.081 5.524-9.194 7.419-2.017.927-4.235 1.814-6.412 2.661z"/><path fill="#FFCB05" d="M145 145.403c.242-.605.444-1.371.242-2.057 3.911-1.532 8.186-3.105 11.532-5.766 1.653-1.291 2.823-2.863 4.032-4.476 1.008-1.371 2.057-2.782 3.387-3.951a26.432 26.432 0 0 0 1.895-1.814c2.097-1.613 4.355-3.831 6.573-6.533 2.621-3.145 6.008-7.217 7.339-11.129 1.371-4.153 3.871-2.338 2.702 1.291-1.815 5.604-6.331 11.613-10.282 15.847-2.944 3.186-6.089 5.766-9.678 8.71-1.25 1.008-2.097 2.459-3.347 3.427-3.75 2.822-8.387 4.516-12.823 5.968-.403.161-1.169.523-1.572.483zM131.653 162.218c1.371 1.129 3.992 1.452 5.726 1.734 1.209.524 2.258.847 3.226.968.403.887-.403 1.088-1.169 1.209-1.452.161-2.258-.322-3.589-1.048-1.573-.847-3.428-1.129-5.041-1.936.282-.282.565-.605.847-.927zM141.532 159.959a8.385 8.385 0 0 0 2.621-1.29c.726 0 1.371-.081 1.976-.242.564-.161 1.048.282.564.766-1.33 1.412-3.507 1.17-5.161.766zM134.839 160.161c1.371.202 2.701.323 3.871.242 1.653.605 3.347 1.088 4.879 1.129.645.041.967.121 1.572.444-1.29 1.048-2.298 1.572-3.307 1.693-1.129.161-2.339-.162-3.871-.807a2.378 2.378 0 0 0-.766-.201c-1.371-.162-3.064-.444-4.274-1.089.686-.363 1.371-.846 1.896-1.411zM135.967 157.581c3.105-.161 5.767-.726 7.863-1.653 1.734-.766 3.104-1.814 4.072-3.186 0 .121 0 .323-.04.565a.307.307 0 0 1-.081.201c-.121.323-.202.605 0 1.049.121.282.282.443.121.846-.282.726-.766 1.21-1.411 1.533-.484.282-1.089.403-1.814.484-.928.041-.928 0-1.653.524-.927.605-2.016.968-3.266 1.129-1.25.161-2.621.121-4.153-.081.162-.363.242-.806.242-1.209 0-.162 0-.202.12-.202z"/><path fill="#FFCB05" d="M137.702 155.04c1.693-.604 4.113-1.653 6.008-3.024 1.008-.726 1.895-1.532 2.5-2.419.403-.121 1.21-.282 1.452.121.202.323 0 .927-.161 1.209-.807 1.694-2.258 2.984-4.194 3.831-1.693.767-3.75 1.25-6.169 1.492a4.18 4.18 0 0 0 .564-1.21zM128.831 149.516c.443-.686.847-1.411 1.29-2.097 2.137-3.508 4.234-6.976 6.654-10.323v.081c.564-.04.967.121 1.128.524.484 1.048.081 2.581-.121 3.669.806-.242 1.733-.605 2.581-.484-3.024 2.459-5.403 5.403-7.782 8.709-1.21-.2-2.5-.159-3.75-.079zM141.088 141.976c-.081.847-.524 1.814-.766 2.621 1.089-.242 2.339-1.008 3.347-1.008.283 0 .363.04.403.322 0 .766-.443 1.573-.766 2.258-3.105 1.451-6.008 3.589-8.589 5.726.404-1.129.162-1.613-.766-1.936 2.218-3.023 4.396-5.725 7.137-7.983zM145.524 146.693c.323.121.403.444.161 1.21-.363 1.129-1.411 2.177-2.701 3.105-1.815 1.29-4.113 2.258-5.726 2.863-.645-.363-1.371-.564-2.097-.645 3.065-2.581 6.613-5.162 10.363-6.533zM125.443 156.613c.605-1.936 1.573-3.871 2.621-5.766 1.613-.161 3.387-.282 4.959.121.444.121.645.161.686.161 0 .041-.121.162-.282.524-1.089 2.661-5.484 4.154-7.984 4.96zM124.959 158.831c.04-.242.081-.524.121-.766 2.581-.807 5.484-1.814 7.621-3.548 1.21-.242 2.581-.161 3.75.323-1.572 3.789-8.145 3.951-11.492 3.991zM124.838 161.129a4.591 4.591 0 0 1 0-1.048c2.903 0 5.766-.242 8.024-.968.564-.202 1.089-.363 1.613-.604-.202.524-.645.967-1.129 1.29-2.62 1.975-5.483 1.492-8.508 1.33zM125.927 165.202c-.443-.927-.766-1.855-.928-2.823 1.533.121 3.105.283 4.638.161-1.049 1.049-2.299 2.097-3.71 2.662zM127.903 168.024a12.423 12.423 0 0 1-1.331-1.734c1.21-.524 2.298-1.331 3.266-2.218.968.524 1.936.807 2.863 1.129.887.282 1.774.564 2.581 1.008.766.403 1.371.524.887.726-2.177 1.129-5.887 1.412-8.266 1.089zM146.169 161.089c.766-.323 1.411-.887 1.936-1.694a77.387 77.387 0 0 1 8.669 2.057c2.218.686 4.395 1.452 6.412 2.338-1.412.282-2.863.162-4.315-.121-1.814-.403-3.669-.443-5.524-.484-1.371 0-2.943-.564-4.436-1.129-.806-.282-2.056-.564-2.742-.967zM143.266 164.597c1.169-.403 2.177-1.209 3.145-2.016a65.71 65.71 0 0 1 4.758 1.532c2.379.887 4.718 1.976 6.774 3.508-2.823.847-5.766-.242-8.508-.887-1.936-.444-3.952-1.25-5.887-2.016a1.825 1.825 0 0 0-.282-.121zM140.121 167.258c.484-.121.928-.282 1.291-.564.363-.323.605-.686.605-1.169.363.161.726.282 1.048.443 2.057.766 4.113 1.613 6.209 2.097 1.492.323 2.944.807 4.315 1.412-.726.201-1.452.322-2.218.403-3.226.282-4.033-.403-6.855-1.048-1.492-.324-2.944-.929-4.395-1.574z"/><path fill="#FFCB05" d="M127.338 139.274c8.75-12.621 21.21-21.048 31.936-31.854 3.952-3.992 7.5-8.307 10.041-13.064 1.976-3.71 1.734-6.976.766-10.928-.484-1.976-.403-4.476.524-5.323.686-.605 1.694-.04 2.258.484.887.846 1.572 2.137 1.936 3.024 1.572 3.669 1.169 7.662-.323 11.613-1.895 5.041-5.645 9.96-9.476 13.871-5.041 5.162-11.21 9.032-16.371 14.113-7.782 7.661-13.912 16.21-19.597 25.565-4.274 7.016-8.669 14.234-2.379 21.734.564.645.767.726 1.613.806 1.452.162 2.944.081 4.436-.161a23.233 23.233 0 0 0 5.162-1.492c2.056.968 4.113 1.936 6.331 2.46a16.863 16.863 0 0 1 4.839 1.936c-2.016.524-4.193.887-6.452 1.129-4.597.524-10.121 1.089-14.355-1.048-1.814-.928-3.427-2.218-4.798-3.791-.968-1.129-1.976-2.339-3.387-3.145-1.008-.605-2.056-.887-3.064-.887-.041-.04-.081-.081-.121-.081.121-.081.242-.162.323-.242.443-.363.847-.766 1.169-1.25.645-.887 1.048-1.854 1.088-2.742.121-1.129-.242-2.057-1.048-2.662-.323-.242-.686-.363-1.089-.443 2.016-1.129 3.871-2.379 5.443-3.911 2.339-2.379 4.032-5.403 4.516-9.839l3.226.403a383.097 383.097 0 0 1-3.147-4.275z"/><path fill="#FFCB05" d="M149.153 152.541a45.98 45.98 0 0 0 7.662-2.339c1.331-.564 2.702-1.169 4.072-1.896 6.734-.322 14.073-1.532 20.767-.483-4.274 5.484-28.105 5.766-32.621 6.008 0-.081.041-.161.081-.282a2.94 2.94 0 0 0 .039-1.008zM163.186 146.976a46.197 46.197 0 0 0 3.104-2.056c4.032-1.452 7.823-3.105 11.169-5.282 1.089-.726 6.573-4.678 7.057-4.153.322.323-.363 1.774-.524 2.056-.927 1.774-2.459 3.347-4.355 4.758-1.814 1.371-4.435 2.782-6.895 3.952-3.186.16-6.331.523-9.556.725z"/><path fill="#FFCB05" d="M176.733 151.895c.686.202 1.331.444 1.936.766-2.983 1.25-6.935 2.218-11.733 2.903-5.202.726-11.371 1.169-18.428 1.331.403-.524.726-1.169.766-1.734 9.153-.604 18.629-.524 27.459-3.266zM148.75 158.226c5.202-.121 9.919-.403 14.113-.806 1.129-.121 1.29-.121 2.419.081 1.573.282 3.226.605 4.758.484.686-.041 1.25.081 1.814.242-1.008.646-2.621 1.089-4.838 1.331-2.823.363-7.218.363-11.653.081-2.137-.564-4.314-1.008-6.492-1.412l-.121-.001z"/></svg>