<svg xmlns="http://www.w3.org/2000/svg" viewBox="0 0 198 200" width="198" height="200">
	<style>
		tspan { white-space:pre }
		.shp0 { fill: #094e35 } 
		.shp1 { fill: #ffffff } 
		.shp2 { fill: #f3a131 } 
		.shp3 { fill: #6cb64e } 
		.shp4 { fill: #f0a036 } 
	</style>
	<g >
		<path class="shp0" d="M84.25 0.17C83.1 0.24 80.76 0.4 79.04 0.52C77.32 0.65 74.67 0.89 73.15 1.05C71.64 1.22 68.95 1.56 67.19 1.8C65.43 2.05 62.78 2.45 61.31 2.7C59.83 2.94 57.25 3.41 55.57 3.74C53.89 4.07 51.21 4.64 49.61 5.01C48.01 5.38 45.4 6.02 43.8 6.43C42.2 6.84 39.56 7.58 37.92 8.07C36.28 8.56 33.76 9.35 32.33 9.83C30.9 10.31 28.08 11.32 26.07 12.08C24.06 12.83 20.95 14.07 19.14 14.83C17.34 15.59 14.69 16.76 13.26 17.43C11.83 18.09 10.52 18.73 10.35 18.84C10.16 18.96 9.68 20.05 8.98 21.92C8.38 23.51 7.66 25.52 7.37 26.38C7.08 27.24 6.5 29.05 6.09 30.4C5.68 31.75 4.98 34.29 4.53 36.03C4.09 37.77 3.39 40.86 2.99 42.88C2.58 44.91 2.05 47.98 1.8 49.7C1.55 51.42 1.25 53.84 1.12 55.07C1 56.3 0.83 58.14 0.74 59.17C0.65 60.19 0.53 63.12 0.48 65.69C0.41 68.76 0.42 70.34 0.52 70.34C0.6 70.34 1.07 70.08 1.56 69.77C2.06 69.45 3.2 68.79 4.1 68.29C5 67.8 6.57 67 7.6 66.53C8.62 66.06 10.5 65.26 11.77 64.74C13.04 64.23 14.12 63.72 14.18 63.61C14.23 63.5 14.35 62.27 14.44 60.88C14.53 59.49 14.74 57.14 14.9 55.66C15.07 54.19 15.38 51.87 15.59 50.52C15.79 49.17 16.25 46.59 16.61 44.78C16.97 42.98 17.57 40.26 17.95 38.75C18.33 37.23 18.91 35.05 19.24 33.9C19.57 32.76 20.18 30.78 20.59 29.51C21 28.24 21.66 26.33 22.05 25.26C22.44 24.2 23.03 22.6 23.37 21.72L23.99 20.12C26.01 19.11 27.73 18.29 29.13 17.66C30.52 17.03 32.9 15.99 34.42 15.36C35.93 14.72 38.61 13.66 40.37 13C42.14 12.34 45.02 11.32 46.78 10.73C48.54 10.15 51.49 9.23 53.34 8.7C55.18 8.16 58.26 7.34 60.19 6.86C62.12 6.38 65.17 5.69 66.97 5.32C68.77 4.95 71.65 4.41 73.37 4.11C75.1 3.82 77.74 3.42 79.26 3.22C80.78 3.01 82.99 2.75 84.18 2.62C85.36 2.49 87.58 2.29 89.09 2.17C90.61 2.04 93.22 1.87 94.9 1.79C96.58 1.71 100.54 1.64 103.69 1.64C106.85 1.64 110.8 1.71 112.48 1.79C114.16 1.88 116.81 2.04 118.37 2.17C119.92 2.29 121.67 2.43 122.24 2.48C122.82 2.53 123.25 2.53 123.21 2.48C123.17 2.43 122.57 2.29 121.87 2.17C121.17 2.04 118.86 1.71 116.73 1.43C114.6 1.15 112.02 0.84 110.99 0.76C109.97 0.67 107.15 0.46 104.74 0.3C101.22 0.06 98.94 0 93.34 0.02C89.49 0.03 85.4 0.1 84.25 0.17Z" />
		<path class="shp1" d="M94.53 1.8C93.3 1.86 91.29 1.99 90.06 2.08C88.83 2.18 86.52 2.39 84.92 2.55C83.32 2.71 80.78 3.01 79.26 3.21C77.74 3.42 75.1 3.82 73.37 4.11C71.65 4.41 68.77 4.95 66.97 5.32C65.17 5.69 62.12 6.38 60.19 6.86C58.26 7.34 55.18 8.16 53.34 8.7C51.49 9.23 48.54 10.15 46.78 10.73C45.02 11.32 42.14 12.34 40.37 13C38.61 13.66 35.93 14.72 34.42 15.36C32.9 15.99 30.52 17.03 29.13 17.66C27.73 18.29 26.01 19.11 25.29 19.47L23.99 20.12C23.03 22.6 22.44 24.2 22.05 25.26C21.66 26.33 21 28.24 20.59 29.51C20.18 30.78 19.57 32.76 19.24 33.9C18.91 35.05 18.33 37.23 17.95 38.75C17.57 40.26 16.97 42.98 16.61 44.78C16.25 46.59 15.79 49.17 15.59 50.52C15.38 51.87 15.07 54.19 14.9 55.66C14.74 57.14 14.53 59.49 14.44 60.88C14.35 62.27 14.23 63.5 14.18 63.61C14.12 63.72 13.04 64.23 11.77 64.74C10.5 65.26 8.62 66.06 7.6 66.53C6.57 67 5 67.8 4.1 68.3C3.2 68.79 1.99 69.49 1.42 69.85L0.37 70.5C0.44 73.44 0.52 75.47 0.61 76.9C0.69 78.33 0.82 80.21 0.9 81.07C0.98 81.93 1.04 82.72 1.04 82.82C1.04 82.93 1.47 82.75 2.05 82.39C2.6 82.05 3.86 81.35 4.84 80.84C5.83 80.32 7.4 79.55 8.34 79.13C9.29 78.7 10.96 77.99 12.07 77.55C13.17 77.11 14.1 76.75 14.12 76.75C14.14 76.75 14.19 77.4 14.24 78.2C14.28 79 14.42 80.83 14.54 82.27C14.66 83.7 14.89 85.95 15.05 87.26C15.22 88.57 15.52 90.72 15.73 92.03C15.94 93.34 16.38 95.72 16.71 97.32C17.03 98.92 17.53 101.2 17.82 102.38C18.1 103.57 18.71 105.85 19.16 107.45C19.61 109.05 20.44 111.73 21 113.41C21.56 115.09 22.47 117.64 23.02 119.08C23.57 120.51 24.59 122.99 25.29 124.59C25.98 126.19 27.33 129.07 28.29 131C29.25 132.92 30.57 135.44 31.21 136.59C31.85 137.73 32.88 139.51 33.49 140.54C34.11 141.56 35.49 143.74 36.57 145.38C37.65 147.02 39.26 149.37 40.15 150.6C41.04 151.83 42.37 153.6 43.11 154.55C43.85 155.49 45.09 157.03 45.87 157.97C46.66 158.92 48.1 160.59 49.08 161.7C50.07 162.81 52.08 164.94 53.56 166.45C55.03 167.95 57.28 170.14 58.55 171.3C59.82 172.47 61.66 174.1 62.65 174.94C63.63 175.77 64.49 176.45 64.55 176.45C64.61 176.45 65.38 175.23 66.27 173.73C67.16 172.24 68.36 170.14 68.94 169.08C69.52 168.01 70.32 166.49 70.72 165.7L71.44 164.26C73 165.51 73.45 165.91 73.45 165.95C73.45 165.99 72.96 166.57 72.37 167.25C71.77 167.93 70.64 169.28 69.86 170.27C69.07 171.25 67.65 173.1 66.7 174.37C65.74 175.64 64.96 176.73 64.96 176.79C64.96 176.85 65.71 177.49 66.63 178.22C67.56 178.95 69.08 180.11 70.02 180.8C70.96 181.5 72.61 182.67 73.67 183.42C74.74 184.16 76.75 185.48 78.14 186.37C79.54 187.25 81.78 188.61 83.13 189.39C84.49 190.17 87.07 191.56 88.87 192.48C90.67 193.41 93.22 194.65 94.53 195.23C96.16 195.96 97.02 196.27 97.25 196.21C97.43 196.16 99.01 195.52 100.75 194.77C102.49 194.03 105.39 192.69 107.19 191.8C109 190.92 111.41 189.67 112.56 189.04C113.7 188.41 115.82 187.19 117.25 186.32C118.68 185.46 121.13 183.9 122.69 182.86C124.25 181.81 126.46 180.27 127.6 179.43C128.75 178.59 130.8 177.02 132.15 175.93C133.5 174.85 135.75 172.97 137.14 171.75C138.53 170.53 141.42 167.79 143.55 165.66C145.69 163.52 148.43 160.63 149.65 159.24C150.86 157.85 152.75 155.6 153.83 154.25C154.91 152.89 156.65 150.61 157.7 149.18C158.74 147.75 160.35 145.43 161.27 144.04C162.2 142.65 163.65 140.33 164.51 138.9C165.37 137.46 166.62 135.28 167.3 134.05C167.97 132.82 169.22 130.41 170.06 128.69C170.9 126.97 171.98 124.69 172.45 123.62C172.92 122.56 173.7 120.68 174.2 119.45C174.69 118.22 175.41 116.34 175.8 115.28C176.19 114.21 176.88 112.2 177.33 110.8C177.79 109.41 178.4 107.47 178.69 106.48C178.98 105.5 179.55 103.35 179.96 101.71C180.37 100.07 180.94 97.59 181.22 96.2C181.51 94.81 181.91 92.66 182.12 91.43C182.32 90.2 182.62 88.22 182.79 87.03C182.95 85.85 183.19 83.83 183.31 82.56C183.44 81.29 183.62 79.25 183.7 78.02C183.79 76.79 183.88 75.76 183.89 75.74C183.91 75.72 184.99 76.1 186.3 76.59C187.62 77.08 189.59 77.86 190.7 78.32C191.81 78.79 193.7 79.67 194.91 80.27C196.12 80.88 197.14 81.35 197.18 81.33C197.22 81.31 197.31 80.26 197.39 78.99C197.47 77.72 197.59 75 197.64 72.95C197.72 70.25 197.7 69.13 197.58 68.89C197.47 68.68 196.66 68.18 195.36 67.53C194.23 66.96 192.33 66.08 191.15 65.57C189.96 65.06 187.91 64.25 186.6 63.76C185.29 63.28 184.14 62.85 184.03 62.81C183.91 62.77 183.82 62.27 183.76 61.36C183.72 60.61 183.58 58.81 183.46 57.38C183.34 55.94 183.1 53.73 182.94 52.46C182.78 51.19 182.48 49.08 182.27 47.76C182.06 46.45 181.62 44.07 181.29 42.47C180.97 40.88 180.4 38.36 180.03 36.89C179.66 35.41 179.09 33.26 178.76 32.12C178.43 30.97 177.71 28.65 177.15 26.97C176.59 25.29 175.65 22.68 175.06 21.16C174.48 19.65 173.98 18.39 173.97 18.38C173.95 18.36 173.13 17.97 172.15 17.51C171.17 17.04 169.46 16.26 168.35 15.77C167.25 15.27 165.1 14.37 163.58 13.75C162.07 13.13 159.69 12.21 158.3 11.7C156.9 11.19 154.12 10.23 152.11 9.56C150.11 8.9 146.95 7.93 145.11 7.4C143.27 6.86 140.55 6.13 139.08 5.76C137.6 5.39 135.32 4.84 134.01 4.54C132.7 4.24 130.29 3.73 128.65 3.4C127.01 3.07 125.48 2.81 125.26 2.82C125.03 2.82 124.85 2.76 124.85 2.68C124.85 2.6 124.63 2.57 124.33 2.61C124.04 2.65 123.81 2.63 123.81 2.57C123.81 2.51 123.29 2.46 122.65 2.45C122.02 2.45 120.12 2.33 118.44 2.19C116.76 2.05 114.08 1.87 112.48 1.79C110.89 1.71 106.7 1.65 103.17 1.66C99.65 1.67 95.76 1.74 94.53 1.8Z" />
		<path class="shp2" d="M121.72 2.09C122.58 2.23 123.32 2.32 123.36 2.29C123.4 2.27 123.27 2.21 123.06 2.17C122.86 2.12 122.25 2.02 121.72 1.94C121.19 1.86 120.62 1.8 120.45 1.81C120.29 1.82 120.86 1.94 121.72 2.09Z" />
		<path class="shp3" d="M125.83 2.01C125.78 2.13 125.74 2.37 125.74 2.53C125.74 2.7 125.86 2.86 126 2.9C126.15 2.94 127.04 3.11 127.98 3.28C128.92 3.45 131.07 3.9 132.74 4.27C134.42 4.64 137.14 5.27 138.78 5.68C140.42 6.09 143.27 6.86 145.11 7.4C146.95 7.93 150.11 8.9 152.11 9.56C154.12 10.23 156.9 11.19 158.3 11.7C159.69 12.21 162.07 13.13 163.58 13.75C165.1 14.37 167.25 15.27 168.35 15.77C169.46 16.26 171.17 17.04 172.15 17.51C173.13 17.97 173.95 18.36 173.97 18.38C173.98 18.39 174.48 19.65 175.06 21.16C175.65 22.68 176.59 25.29 177.15 26.97C177.71 28.65 178.43 30.97 178.76 32.12C179.09 33.26 179.66 35.41 180.03 36.89C180.4 38.36 180.97 40.88 181.29 42.47C181.62 44.07 182.06 46.45 182.27 47.76C182.48 49.08 182.78 51.19 182.94 52.46C183.1 53.73 183.34 55.94 183.46 57.38C183.58 58.81 183.72 60.61 183.76 61.36C183.82 62.27 183.91 62.77 184.03 62.81C184.14 62.85 185.29 63.28 186.6 63.76C187.91 64.25 189.96 65.06 191.15 65.57C192.33 66.08 194.23 66.96 195.36 67.53C196.66 68.18 197.47 68.68 197.58 68.89C197.7 69.13 197.72 70.23 197.65 72.88C197.59 74.88 197.48 77.7 197.4 79.14C197.32 80.57 197.18 82.51 197.1 83.46C197.01 84.4 196.81 86.28 196.64 87.63C196.48 88.98 196.15 91.3 195.91 92.77C195.67 94.25 195.21 96.8 194.87 98.44C194.54 100.07 193.9 102.86 193.45 104.62C193 106.38 192.27 109.03 191.83 110.51C191.38 111.98 190.59 114.43 190.06 115.95C189.54 117.46 188.68 119.78 188.17 121.09C187.65 122.4 186.76 124.55 186.19 125.86C185.62 127.17 184.53 129.52 183.78 131.07C183.03 132.63 181.77 135.08 180.99 136.51C180.21 137.95 178.95 140.16 178.19 141.43C177.43 142.7 176.04 144.91 175.1 146.35C174.15 147.78 172.71 149.9 171.88 151.04C171.06 152.19 170.06 153.53 169.67 154.02C169.28 154.52 168.99 154.97 169.03 155.03C169.07 155.09 168.96 155.21 168.8 155.29C168.64 155.37 168.53 155.51 168.58 155.59C168.62 155.67 168.48 155.84 168.28 155.96C168.07 156.08 167.94 156.25 167.98 156.33C168.02 156.42 167.88 156.6 167.68 156.74C167.47 156.89 167.34 157.04 167.38 157.08C167.42 157.12 167.38 157.25 167.29 157.38C167.2 157.5 167.37 157.33 167.67 157C167.97 156.68 168.94 155.47 169.83 154.32C170.72 153.17 172.3 151.03 173.34 149.55C174.38 148.08 175.96 145.73 176.84 144.34C177.72 142.94 179.1 140.66 179.9 139.27C180.7 137.88 182.05 135.39 182.89 133.76C183.73 132.12 185 129.5 185.71 127.94C186.42 126.39 187.52 123.8 188.16 122.21C188.81 120.61 189.78 118.03 190.33 116.47C190.87 114.91 191.69 112.43 192.14 110.95C192.58 109.48 193.28 107 193.68 105.44C194.09 103.88 194.68 101.37 195.01 99.85C195.33 98.33 195.8 95.92 196.05 94.49C196.3 93.05 196.67 90.5 196.88 88.82C197.08 87.14 197.4 84.39 197.58 82.71C197.88 79.94 197.91 78.86 197.92 71.16C197.92 64.09 197.88 62.18 197.66 59.76C197.51 58.16 197.22 55.55 197.02 53.95C196.82 52.35 196.46 49.87 196.22 48.44C195.97 47 195.57 44.82 195.31 43.59C195.06 42.36 194.58 40.25 194.25 38.9C193.92 37.54 193.29 35.2 192.86 33.68C192.42 32.16 191.71 29.88 191.29 28.61C190.87 27.34 190.08 25.13 189.55 23.7C189.01 22.26 188.48 20.9 188.37 20.68C188.22 20.37 187.72 20.05 186.34 19.39C185.34 18.91 183.04 17.93 181.24 17.22C179.44 16.51 176.12 15.2 173.86 14.31C171.61 13.42 168.36 12.19 166.64 11.58C164.92 10.97 162.47 10.13 161.2 9.71C159.93 9.3 157.75 8.62 156.36 8.2C154.97 7.78 152.35 7.04 150.55 6.56C148.75 6.08 145.96 5.38 144.37 5.01C142.77 4.63 140.29 4.1 138.85 3.81C137.42 3.53 135.04 3.09 133.56 2.85C132.09 2.6 129.89 2.26 128.69 2.09C127.48 1.93 126.36 1.79 126.2 1.79C126.05 1.79 125.88 1.89 125.83 2.01Z" />
		<path class="shp2" d="M31.88 9.78C30.78 10.15 29.9 10.48 29.95 10.51C29.99 10.55 30.99 10.25 32.18 9.84C33.37 9.44 34.24 9.11 34.12 9.11C33.99 9.11 32.99 9.42 31.88 9.78ZM26.44 11.64C25.54 11.97 24.4 12.37 23.91 12.55C23.42 12.72 21.68 13.39 20.04 14.05C18.4 14.7 15.82 15.79 14.3 16.46C12.79 17.14 11.14 17.9 10.65 18.15C9.78 18.59 9.75 18.63 9.33 19.69C9.1 20.3 8.41 22.15 7.81 23.81C7.2 25.47 6.27 28.25 5.75 29.99C5.22 31.73 4.52 34.2 4.2 35.47C3.87 36.74 3.36 38.85 3.07 40.16C2.78 41.48 2.35 43.65 2.1 45.01C1.86 46.36 1.49 48.67 1.28 50.15C1.07 51.62 0.76 54.14 0.6 55.74C0.44 57.34 0.23 60.02 0.14 61.7C0.03 63.62 -0.01 67.31 0.04 71.61C0.1 77.23 0.17 78.99 0.43 81.37C0.61 82.97 0.88 85.32 1.05 86.59C1.22 87.86 1.58 90.31 1.86 92.03C2.14 93.75 2.57 96.13 2.82 97.32C3.07 98.51 3.58 100.72 3.95 102.24C4.33 103.75 4.9 105.93 5.23 107.08C5.56 108.23 6.26 110.51 6.8 112.15C7.34 113.79 8.17 116.17 8.64 117.44C9.11 118.71 9.91 120.75 10.42 121.98C10.93 123.21 11.86 125.32 12.47 126.68C13.09 128.03 13.96 129.87 14.41 130.77C14.86 131.68 15.87 133.59 16.66 135.02C17.44 136.46 18.75 138.74 19.56 140.09C20.38 141.44 21.74 143.59 22.58 144.86C23.42 146.13 24.76 148.08 25.57 149.19C26.38 150.3 27.69 152.04 28.48 153.06C29.27 154.08 30.16 155.19 30.44 155.51C30.73 155.84 31 156.06 31.05 156C31.1 155.94 30.41 154.96 29.52 153.84C28.63 152.71 27.18 150.78 26.29 149.55C25.41 148.32 24 146.28 23.17 145.01C22.33 143.74 20.94 141.52 20.08 140.09C19.22 138.65 17.94 136.44 17.25 135.17C16.55 133.9 15.51 131.92 14.94 130.77C14.36 129.63 13.34 127.48 12.67 126.01C11.99 124.53 10.82 121.75 10.05 119.82C9.29 117.89 8.29 115.21 7.82 113.86C7.36 112.51 6.59 110.09 6.11 108.49C5.63 106.9 4.94 104.38 4.57 102.91C4.2 101.43 3.63 98.95 3.3 97.39C2.97 95.83 2.46 93.15 2.18 91.43C1.89 89.71 1.53 87.16 1.36 85.77C1.19 84.37 0.95 81.83 0.82 80.1C0.68 78.38 0.53 75.56 0.47 73.83C0.42 72.11 0.41 68.62 0.47 66.08C0.52 63.55 0.64 60.5 0.73 59.31C0.83 58.13 1.01 56.18 1.13 54.99C1.25 53.8 1.55 51.42 1.8 49.7C2.05 47.98 2.58 44.91 2.99 42.88C3.39 40.86 4.09 37.77 4.53 36.03C4.98 34.29 5.68 31.75 6.09 30.4C6.5 29.05 7.08 27.24 7.37 26.38C7.66 25.52 8.38 23.51 8.98 21.92C9.68 20.05 10.16 18.96 10.35 18.84C10.52 18.73 11.83 18.09 13.26 17.43C14.69 16.76 17.34 15.59 19.14 14.83C20.95 14.08 23.73 12.97 25.33 12.37C26.93 11.77 28.3 11.22 28.37 11.15C28.46 11.08 28.43 11.03 28.3 11.04C28.18 11.05 27.35 11.32 26.44 11.64Z" />
		<path class="shp3" d="M32.78 23.44C32.77 23.71 32.97 23.86 33.78 24.22C34.41 24.49 35.13 24.98 35.68 25.5C36.17 25.96 36.79 26.66 37.05 27.06C37.31 27.47 37.66 28.21 37.83 28.73C38.13 29.64 38.14 29.9 38.14 42.03L38.14 54.4L42.61 54.4L42.61 26.08C41.4 26.08 40.71 25.98 40.3 25.86C39.89 25.74 39.12 25.37 38.59 25.04C38.05 24.71 37.22 24.23 36.72 23.98C36.23 23.72 35.39 23.42 34.86 23.31C34.33 23.2 33.64 23.1 33.34 23.1C32.85 23.1 32.78 23.15 32.78 23.44ZM84.47 25.35C83.45 25.84 82.21 26.35 81.72 26.46C81.23 26.58 80.37 26.67 79.82 26.67C78.85 26.68 78.81 26.69 78.81 27.05C78.81 27.32 78.89 27.42 79.11 27.42C79.27 27.42 79.76 27.55 80.19 27.71C80.68 27.89 81.18 28.23 81.53 28.6C81.88 28.98 82.18 29.51 82.32 29.99C82.51 30.66 82.54 32.5 82.54 42.66L82.54 54.55L86.71 54.55C86.71 27.55 86.67 24.44 86.52 24.44C86.42 24.44 85.5 24.85 84.47 25.35ZM157.18 25.33C156.12 25.84 154.87 26.33 154.27 26.45C153.7 26.57 152.84 26.67 152.37 26.67C151.59 26.68 151.52 26.7 151.52 27.01C151.51 27.3 151.64 27.37 152.37 27.53C152.84 27.63 153.5 27.89 153.83 28.1C154.15 28.31 154.59 28.72 154.79 29.02C155.16 29.54 155.17 29.64 155.22 32.55C155.26 35.02 155.24 35.53 155.07 35.44C154.96 35.39 154.47 35.18 153.98 34.97C153.48 34.77 152.56 34.5 151.93 34.37C151.29 34.23 150.25 34.13 149.62 34.13C148.98 34.13 148.03 34.2 147.49 34.29C146.96 34.37 145.99 34.62 145.33 34.85C144.68 35.07 143.64 35.55 143.02 35.91C142.41 36.28 141.45 37.02 140.89 37.55C140.32 38.09 139.55 38.99 139.18 39.57C138.8 40.14 138.29 41.18 138.04 41.88C137.63 43.03 137.59 43.32 137.59 45.01C137.59 46.44 137.65 47.06 137.87 47.69C138.02 48.14 138.39 48.98 138.69 49.55C139.03 50.21 139.61 50.97 140.27 51.64C140.85 52.21 141.69 52.9 142.13 53.17C142.58 53.43 143.39 53.83 143.92 54.04C144.45 54.26 145.36 54.53 145.93 54.66C146.58 54.8 147.72 54.88 148.98 54.88C150.5 54.88 151.27 54.8 152.11 54.58C152.73 54.42 153.65 54.07 154.16 53.82C154.67 53.56 155.13 53.35 155.17 53.35C155.21 53.35 155.24 53.62 155.24 53.95L155.24 54.55L159.41 54.55C159.41 27.55 159.37 24.44 159.23 24.44C159.12 24.44 158.2 24.84 157.18 25.33ZM68.31 34.34C67.74 34.45 66.93 34.66 66.52 34.8C66.11 34.94 65.47 35.21 65.11 35.4C64.74 35.58 64.03 36.03 63.54 36.39C63.05 36.75 62.35 37.4 61.98 37.82C61.61 38.25 61.05 39.02 60.74 39.53C60.43 40.04 60.01 41 59.8 41.65C59.53 42.5 59.39 43.31 59.34 44.41C59.29 45.52 59.34 46.3 59.5 47.09C59.63 47.71 60.04 48.83 60.41 49.59C60.92 50.64 61.33 51.21 62.09 51.98C62.64 52.54 63.56 53.28 64.14 53.62C64.71 53.97 65.7 54.41 66.34 54.62C66.97 54.82 68.08 55.06 68.79 55.14C69.67 55.24 70.59 55.23 71.59 55.13C72.41 55.04 73.65 54.8 74.34 54.6C75.04 54.39 76.18 53.93 76.88 53.57C77.57 53.21 78.4 52.7 78.71 52.43L79.28 51.94L77.99 50.68C76.42 52.16 75.59 52.75 74.93 53.09C74.3 53.4 73.37 53.72 72.78 53.82C71.97 53.97 71.52 53.97 70.77 53.83C70.23 53.74 69.3 53.41 68.68 53.1C67.93 52.73 67.25 52.23 66.59 51.57C66.05 51.04 65.37 50.19 65.07 49.7C64.77 49.21 64.33 48.2 64.08 47.47C63.83 46.73 63.56 45.52 63.48 44.78C63.4 44.05 63.36 43.14 63.41 42.77C63.45 42.4 63.52 41.95 63.55 41.77L63.62 41.43L80.23 41.43C80.06 39.8 79.86 39.1 79.61 38.6C79.39 38.15 78.83 37.41 78.37 36.96C77.91 36.51 77.1 35.89 76.57 35.58C76.04 35.27 75.07 34.84 74.42 34.63C73.45 34.32 72.86 34.24 71.29 34.19C70.03 34.15 68.99 34.21 68.31 34.34ZM99.56 34.29C99.05 34.36 98.01 34.63 97.25 34.87C96.49 35.11 95.44 35.57 94.9 35.88C94.37 36.19 93.4 36.97 92.74 37.63C91.81 38.55 91.38 39.13 90.85 40.16C90.44 40.96 90.02 42.05 89.83 42.85C89.58 43.87 89.53 44.45 89.59 45.31C89.63 45.92 89.84 46.96 90.05 47.62C90.26 48.27 90.68 49.24 90.99 49.78C91.3 50.31 92.05 51.25 92.67 51.87C93.46 52.66 94.13 53.17 94.98 53.61C95.63 53.95 96.71 54.38 97.36 54.55C98.24 54.78 99.02 54.87 100.34 54.88C101.32 54.89 102.46 54.81 102.87 54.71C103.28 54.61 104.02 54.32 104.51 54.08C105 53.83 105.84 53.27 106.37 52.83L107.34 52.03L107.42 54.55L111.44 54.55L111.44 37.03C110.11 36.87 109.43 36.72 109.06 36.59C108.69 36.45 107.85 36 107.19 35.58C106.54 35.16 105.63 34.69 105.18 34.53C104.56 34.31 103.89 34.22 102.43 34.19C101.36 34.17 100.07 34.21 99.56 34.29ZM54.6 34.62C54.27 34.73 53.74 34.98 53.42 35.18C53.1 35.38 52.58 35.85 52.27 36.21L51.7 36.89C51.7 35.21 51.65 34.73 51.59 34.73C51.52 34.73 50.77 35.07 49.91 35.48C49.05 35.89 48.01 36.33 47.6 36.45C47.19 36.56 46.37 36.71 45.77 36.77C44.82 36.87 44.69 36.92 44.73 37.16C44.75 37.33 45.01 37.53 45.37 37.67C45.69 37.8 46.19 38.07 46.47 38.29C46.76 38.5 47.11 38.94 47.25 39.27C47.5 39.82 47.52 40.48 47.52 47.21L47.53 54.55L51.7 54.55C51.7 39.89 51.72 39.13 51.96 38.49C52.11 38.1 52.43 37.51 52.68 37.18C52.93 36.86 53.43 36.44 53.8 36.25C54.16 36.07 54.67 35.92 54.94 35.92C55.2 35.92 55.67 36.03 55.97 36.18C56.27 36.32 56.71 36.67 56.94 36.96C57.18 37.25 57.49 37.87 57.63 38.34C57.77 38.81 57.91 39.19 57.95 39.2C58 39.2 58.18 38.91 58.36 38.56C58.55 38.21 59.04 37.49 59.45 36.96L60.21 35.99C59.56 35.35 59.07 35.02 58.7 34.85C58.2 34.61 57.66 34.52 56.61 34.48C55.72 34.45 54.98 34.5 54.6 34.62ZM125.59 34.67C125.14 34.79 124.51 35.04 124.18 35.23C123.85 35.43 123.35 35.77 123.07 36.01C122.79 36.25 122.3 36.76 121.99 37.15C121.68 37.54 121.39 37.8 121.34 37.74C121.3 37.68 121.27 36.98 121.27 36.18C121.27 35.38 121.22 34.72 121.16 34.73C121.1 34.73 120.21 35.13 119.19 35.62C118.16 36.1 116.86 36.61 116.28 36.73C115.71 36.85 114.89 36.96 114.46 36.96C113.76 36.96 113.68 36.99 113.71 37.27C113.74 37.49 114 37.68 114.64 37.94C115.13 38.14 115.76 38.47 116.02 38.68C116.29 38.88 116.66 39.33 116.84 39.68C117.17 40.31 117.18 40.37 117.21 47.43L117.25 54.55L121.42 54.55C121.42 41.84 121.45 41.1 121.7 40.09C121.85 39.47 122.1 38.74 122.24 38.45C122.39 38.16 122.7 37.69 122.94 37.4C123.18 37.11 123.73 36.68 124.15 36.44C124.71 36.13 125.2 36 125.89 35.95C126.55 35.9 127.14 35.96 127.75 36.14C128.45 36.35 128.81 36.57 129.41 37.17C130 37.76 130.25 38.16 130.52 38.97C130.87 40 130.87 40.1 130.91 47.28L130.96 54.55L134.98 54.55C134.98 42.91 134.92 40.27 134.81 39.75C134.72 39.32 134.44 38.57 134.19 38.08C133.94 37.59 133.4 36.84 132.98 36.43C132.55 35.99 131.81 35.48 131.26 35.21C130.72 34.96 129.93 34.68 129.5 34.59C129.07 34.5 128.2 34.43 127.57 34.44C126.93 34.44 126.04 34.55 125.59 34.67Z" />
		<path class="shp1" d="M68.23 35.45C67.78 35.59 67.11 35.91 66.74 36.16C66.38 36.41 65.82 36.91 65.5 37.27C65.19 37.63 64.71 38.4 64.43 38.97C64.15 39.55 63.92 40.13 63.92 40.28C63.91 40.52 64.28 40.54 69.58 40.54L75.24 40.54C75.49 39.9 75.54 39.42 75.5 39.05C75.47 38.68 75.26 38.06 75.04 37.67C74.82 37.28 74.29 36.69 73.86 36.35C73.39 35.99 72.69 35.63 72.11 35.46C71.52 35.28 70.73 35.17 70.1 35.18C69.52 35.18 68.69 35.3 68.23 35.45ZM98.78 35.45C98.33 35.59 97.66 35.88 97.29 36.09C96.92 36.3 96.25 36.87 95.79 37.35C95.34 37.83 94.79 38.6 94.56 39.05C94.34 39.5 94.06 40.23 93.93 40.69C93.81 41.14 93.71 42.14 93.71 42.92C93.71 43.93 93.81 44.75 94.06 45.75C94.26 46.53 94.68 47.7 94.99 48.34C95.31 48.99 95.88 49.89 96.25 50.35C96.62 50.81 97.32 51.5 97.81 51.87C98.3 52.24 99.1 52.7 99.6 52.89C100.09 53.08 100.89 53.3 101.38 53.38C102 53.48 102.53 53.48 103.1 53.36C103.55 53.27 104.27 53 104.7 52.75C105.13 52.51 105.92 51.89 106.46 51.38L107.43 50.45L107.42 38.45C106.09 37.27 105.27 36.67 104.74 36.36C104.2 36.05 103.3 35.65 102.72 35.48C102.07 35.28 101.3 35.17 100.64 35.18C100.07 35.18 99.23 35.3 98.78 35.45ZM146.97 35.37C146.65 35.48 145.95 35.79 145.42 36.08C144.85 36.38 144.14 36.95 143.65 37.48C143.19 37.97 142.63 38.78 142.4 39.27C142.17 39.76 141.87 40.77 141.74 41.51C141.54 42.62 141.53 43.08 141.67 44.23C141.76 44.98 142 46.12 142.2 46.76C142.4 47.39 142.82 48.35 143.13 48.87C143.44 49.4 144.16 50.31 144.74 50.89C145.46 51.61 146.16 52.13 146.97 52.56C147.63 52.91 148.63 53.3 149.21 53.43C149.92 53.6 150.61 53.66 151.37 53.61C152.02 53.56 152.89 53.38 153.45 53.17C153.99 52.97 154.61 52.69 154.83 52.56L155.24 52.31L155.24 38.45C153.8 37.26 153.04 36.69 152.63 36.43C152.22 36.16 151.52 35.8 151.07 35.62C150.5 35.38 149.85 35.27 148.91 35.23C148.06 35.19 147.35 35.24 146.97 35.37Z" />
		<path class="shp3" d="M95.61 64.35C95.55 64.9 95.4 65.65 95.27 66.02C95.15 66.39 94.89 66.93 94.7 67.21C94.51 67.5 94.03 67.95 93.63 68.21C93.22 68.48 92.39 68.86 91.77 69.07C91.16 69.28 89.92 69.61 89.02 69.81C88.12 70 87.14 70.2 86.86 70.25C86.49 70.32 86.4 70.3 86.56 70.2C86.68 70.12 86.72 70.05 86.63 70.05C86.55 70.05 86.05 70.18 85.52 70.34C84.98 70.49 83.14 70.8 81.42 71.02C79.7 71.23 78.26 71.44 78.23 71.47C78.19 71.51 78.43 71.53 78.75 71.52C79.07 71.52 79.94 71.46 80.67 71.4C81.45 71.33 82.05 71.33 82.09 71.41C82.13 71.49 82.36 71.47 82.61 71.38C82.86 71.29 83.23 71.24 83.43 71.26C83.64 71.28 83.89 71.25 83.99 71.19C84.09 71.14 85.57 71.05 87.27 71C89.26 70.94 90.78 70.96 91.55 71.07C92.21 71.16 93.11 71.35 93.56 71.49C94.17 71.68 94.58 71.94 95.16 72.53C95.85 73.22 96 73.49 96.36 74.65C96.58 75.38 96.82 75.95 96.88 75.92C96.94 75.89 96.99 75.5 96.99 75.07C96.99 74.64 97.11 73.89 97.25 73.41C97.42 72.82 97.71 72.3 98.11 71.86C98.43 71.49 99.09 71 99.56 70.77C100.03 70.53 100.97 70.18 101.64 69.99C102.32 69.79 103.41 69.52 104.07 69.39C104.72 69.26 106.36 68.98 107.72 68.78C109.64 68.5 110.22 68.46 110.39 68.6C110.56 68.74 110.58 68.74 110.5 68.59C110.43 68.46 110.57 68.38 110.96 68.33C111.26 68.29 112.12 68.19 112.86 68.1C113.59 68.01 114.23 67.9 114.27 67.85C114.31 67.81 113.71 67.81 112.93 67.87C112.15 67.93 110.68 68.04 109.65 68.11C108.63 68.19 106.62 68.3 105.18 68.35C103.57 68.41 102.06 68.38 101.23 68.28C100.5 68.19 99.56 68.02 99.15 67.9C98.74 67.78 98.1 67.46 97.73 67.18C97.31 66.86 96.91 66.38 96.66 65.86C96.43 65.42 96.17 64.69 96.06 64.25C95.96 63.81 95.83 63.43 95.79 63.4C95.74 63.37 95.66 63.8 95.61 64.35Z" />
		<path class="shp0" d="M110.96 68.97C111.14 69.15 111.29 69.43 111.29 69.6C111.29 69.76 111.07 70.14 110.81 70.44C110.54 70.73 109.82 71.23 109.21 71.53C108.59 71.84 107.45 72.3 106.67 72.55C105.89 72.81 104.55 73.19 103.69 73.4C102.83 73.61 101.17 73.94 100.01 74.15C98.84 74.35 97.68 74.52 97.44 74.52C97.01 74.52 96.99 74.54 96.99 75.19C96.99 75.56 96.92 75.89 96.84 75.93C96.76 75.97 96.62 75.7 96.54 75.34C96.4 74.69 96.38 74.67 95.91 74.73C95.64 74.77 94.18 74.88 92.67 74.97C90.7 75.08 89.3 75.08 87.75 74.96C86.56 74.88 85.16 74.7 84.62 74.58C84.09 74.46 83.39 74.23 83.06 74.07C82.73 73.92 82.38 73.62 82.28 73.41C82.13 73.1 82.13 72.94 82.28 72.62C82.38 72.4 82.76 71.99 83.13 71.71L83.8 71.19C82.76 71.33 81.79 71.7 80.97 72.11C80.12 72.53 79.15 73.15 78.69 73.57C78.21 74 77.83 74.5 77.73 74.81C77.6 75.25 77.62 75.42 77.87 75.86C78.07 76.23 78.43 76.52 79.12 76.86C79.65 77.13 80.48 77.45 80.97 77.57C81.46 77.7 82.62 77.9 83.54 78.02C84.6 78.16 86.47 78.24 88.61 78.24C90.49 78.24 93.04 78.14 94.34 78.02C95.63 77.9 97.38 77.69 98.22 77.57C99.06 77.44 100.45 77.2 101.31 77.04C102.17 76.87 103.54 76.56 104.36 76.36C105.18 76.15 106.59 75.75 107.49 75.46C108.39 75.17 109.9 74.56 110.84 74.11C112.15 73.47 112.74 73.09 113.34 72.48C114.02 71.79 114.12 71.61 114.12 71.09C114.12 70.65 114.01 70.37 113.71 70.03C113.49 69.78 112.97 69.41 112.56 69.22C112.15 69.03 111.54 68.83 111.22 68.76L110.62 68.65L110.96 68.97Z" />
		<path class="shp3" d="M120.41 70.37C120.4 70.48 120.65 70.87 120.96 71.24C121.27 71.61 122.06 72.61 122.71 73.47C123.37 74.33 124.54 75.88 125.31 76.9C126.08 77.92 127.27 79.6 127.96 80.63C128.64 81.65 129.53 83.16 129.93 83.98C130.36 84.85 130.75 85.93 130.89 86.59C131.07 87.46 131.08 87.88 130.96 88.52C130.87 88.98 130.53 89.81 130.2 90.39C129.87 90.96 129.21 91.9 128.73 92.47C128.24 93.05 127.88 93.53 127.91 93.55C127.95 93.57 128.6 93.19 129.36 92.69C130.11 92.19 131.09 91.66 131.52 91.5C131.97 91.33 132.67 91.21 133.19 91.21C133.75 91.21 134.38 91.32 134.87 91.52C135.3 91.69 136.05 92.1 136.54 92.43C137.04 92.76 138.69 94.3 140.23 95.84C141.77 97.39 143.02 98.73 143.02 98.81C143.02 98.89 143.3 99.21 143.63 99.52C143.97 99.82 144.27 100.23 144.3 100.41C144.34 100.59 144.46 100.76 144.59 100.78C144.71 100.8 145.65 101.83 146.69 103.06C147.72 104.28 148.68 105.35 148.81 105.42C149.01 105.53 149.01 105.5 148.79 105.27C148.64 105.12 147.44 103.58 146.12 101.86C144.81 100.14 143.65 98.57 143.56 98.36C143.47 98.16 143.17 97.75 142.89 97.47C142.6 97.18 142.25 96.66 142.1 96.31C141.95 95.96 141.77 95.68 141.68 95.68C141.6 95.68 141.06 94.96 140.49 94.08C139.91 93.19 139.17 91.9 138.83 91.21C138.49 90.51 138.19 89.74 138.17 89.49C138.14 89.25 138.08 88.88 138.02 88.67C137.97 88.47 137.89 88.07 137.85 87.78C137.81 87.49 137.88 86.89 138.01 86.44C138.14 85.99 138.5 85.2 138.81 84.69C139.12 84.18 139.73 83.36 140.16 82.86C140.59 82.37 140.92 81.94 140.9 81.9C140.88 81.86 140.4 82.14 139.82 82.52C139.25 82.9 138.34 83.42 137.81 83.67C137.12 83.99 136.56 84.13 135.87 84.17C135.1 84.21 134.85 84.17 134.62 83.95C134.46 83.8 134.38 83.76 134.43 83.87C134.49 83.97 134.5 84.05 134.46 84.05C134.42 84.05 134.03 83.88 133.6 83.67C133.17 83.45 132.52 83.07 132.15 82.82C131.78 82.56 130.72 81.61 129.78 80.71C128.85 79.8 127.51 78.42 126.8 77.64C126.1 76.85 125.17 75.81 124.74 75.33C124.31 74.84 123.96 74.36 123.96 74.25C123.96 74.15 123.85 74.04 123.73 73.99C123.61 73.95 122.81 73.08 121.97 72.05C121.12 71.01 120.42 70.26 120.41 70.37Z" />
		<path class="shp1" d="M85.29 71.05C84.72 71.07 84.05 71.19 83.8 71.3C83.56 71.41 83.13 71.7 82.85 71.93C82.57 72.16 82.29 72.51 82.22 72.69C82.14 72.9 82.16 73.16 82.28 73.41C82.38 73.62 82.73 73.92 83.06 74.07C83.39 74.23 84.09 74.46 84.62 74.58C85.16 74.7 86.56 74.88 87.75 74.96C89.3 75.08 90.7 75.08 92.67 74.97C94.18 74.88 95.64 74.77 95.91 74.73L96.39 74.66C95.99 73.51 95.61 72.97 95.14 72.5C94.58 71.95 94.16 71.68 93.56 71.49C93.11 71.35 92.27 71.17 91.7 71.09C91.13 71.01 89.68 70.96 88.5 70.97C87.31 70.99 85.87 71.02 85.29 71.05Z" />
		<path fill-rule="evenodd" class="shp0" d="M122.6 73.92C122.99 73.92 123.17 74.06 123.75 74.85C124.43 75.77 124.44 75.79 124.26 76.38C124.14 76.75 124.11 77.28 124.18 77.79C124.23 78.25 124.51 79.32 124.79 80.18C125.08 81.04 125.8 82.75 126.41 83.98C127.01 85.21 128.09 87.19 130.1 90.54L129.85 90.98C129.72 91.23 129.38 91.7 128.61 92.62L127.49 90.91C126.88 89.97 125.89 88.32 125.28 87.26C124.68 86.19 123.8 84.48 123.34 83.46C122.87 82.43 122.25 80.89 121.96 80.03C121.67 79.17 121.36 77.96 121.26 77.35C121.16 76.71 121.14 75.91 121.2 75.48C121.28 74.96 121.43 74.62 121.73 74.33C122 74.06 122.3 73.92 122.6 73.92ZM124.14 74.22C124.24 74.22 124.86 74.55 125.52 74.96C126.17 75.37 126.86 75.84 127.05 76C127.23 76.17 127.38 76.34 127.38 76.38C127.38 76.42 127.06 76.29 126.67 76.1C126.28 75.9 125.73 75.7 125.44 75.65C125.08 75.58 124.78 75.38 124.44 74.96C124.17 74.63 123.95 74.33 123.95 74.29C123.95 74.25 124.04 74.22 124.14 74.22ZM183.93 75.71C183.97 75.71 185.05 76.11 186.34 76.59C187.63 77.08 189.59 77.86 190.7 78.32C191.81 78.79 193.72 79.67 194.95 80.29C196.17 80.9 197.2 81.41 197.23 81.43C197.25 81.44 197.2 82.28 197.11 83.31C197.02 84.33 196.81 86.28 196.64 87.63C196.48 88.98 196.15 91.3 195.91 92.77C195.67 94.25 195.21 96.8 194.87 98.44C194.54 100.07 193.9 102.86 193.45 104.62C193 106.38 192.27 109.03 191.83 110.51C191.38 111.98 190.59 114.43 190.06 115.95C189.54 117.46 188.68 119.78 188.17 121.09C187.65 122.4 186.76 124.55 186.19 125.86C185.62 127.17 184.53 129.52 183.78 131.07C183.03 132.63 181.77 135.08 180.99 136.51C180.21 137.95 178.95 140.16 178.19 141.43C177.43 142.7 176.04 144.91 175.1 146.35C174.15 147.78 172.71 149.9 171.88 151.04C171.06 152.19 170.06 153.55 169.67 154.06C169.27 154.57 169 154.99 169.06 155C169.12 155 169 155.14 168.8 155.31C168.59 155.48 168.53 155.57 168.65 155.52C168.77 155.46 168.64 155.63 168.35 155.9C168.07 156.16 167.93 156.33 168.05 156.27C168.18 156.21 168.04 156.38 167.76 156.64C167.47 156.9 167.34 157.06 167.46 156.99C167.58 156.92 167.45 157.16 167.16 157.53C166.87 157.89 166.01 158.93 165.25 159.83C164.48 160.74 162.64 162.78 161.15 164.37C159.66 165.96 157 168.6 155.23 170.25C153.47 171.9 151.12 174.02 150.02 174.97C148.92 175.92 147.18 177.36 146.15 178.19C145.13 179.01 143.39 180.35 142.28 181.18C141.17 182 139.13 183.44 137.74 184.39C136.34 185.33 134.4 186.6 133.42 187.21C132.43 187.83 130.72 188.85 129.62 189.49C128.51 190.13 126.47 191.25 125.07 191.99C123.68 192.72 121.4 193.86 120.01 194.52C118.61 195.17 116.4 196.16 115.09 196.72C113.78 197.27 111.5 198.17 110.02 198.72C108.55 199.27 107.23 199.78 107.08 199.86C106.94 199.94 106.67 200 106.49 200C106.3 200 104.98 199.55 103.54 199.01C102.11 198.47 100.03 197.66 96.91 196.39L95.28 197.02C94.37 197.37 93.18 197.81 91.63 198.36L90.1 197.83C89.26 197.53 87.33 196.8 85.81 196.2C84.3 195.61 82.19 194.73 81.12 194.26C80.06 193.79 77.71 192.69 75.91 191.8C74.1 190.91 71.52 189.57 70.17 188.81C68.82 188.06 66.67 186.8 65.4 186.02C64.13 185.24 61.96 183.84 60.56 182.89C59.17 181.95 56.99 180.41 55.72 179.46C54.45 178.52 52.57 177.07 51.55 176.24C50.52 175.42 48.99 174.14 48.13 173.4C47.27 172.66 45.76 171.32 44.78 170.43C43.79 169.54 41.84 167.66 40.45 166.26C39.05 164.86 37.24 162.97 36.42 162.07C35.61 161.16 34.57 160 34.12 159.48C33.67 158.96 33.13 158.33 32.93 158.08C32.72 157.83 32.42 157.47 32.26 157.29C32.09 157.1 31.81 156.76 31.63 156.53C31.44 156.3 30.61 155.24 29.77 154.17C28.93 153.11 27.51 151.23 26.62 150C25.73 148.77 24.24 146.62 23.32 145.23C22.39 143.84 20.94 141.52 20.08 140.09C19.22 138.65 17.94 136.44 17.25 135.17C16.55 133.9 15.51 131.92 14.94 130.77C14.36 129.63 13.34 127.48 12.67 126.01C11.99 124.53 10.82 121.75 10.05 119.82C9.29 117.89 8.29 115.21 7.82 113.86C7.36 112.51 6.59 110.09 6.11 108.49C5.63 106.9 4.94 104.38 4.57 102.91C4.2 101.43 3.66 99.1 3.37 97.73C3.07 96.35 2.83 95.13 2.83 95.01C2.83 94.86 4.07 94.17 6.29 93.08C8.2 92.14 10.86 90.94 12.22 90.41C13.57 89.88 14.81 89.41 14.97 89.36C15.25 89.27 15.29 89.41 15.62 91.39C15.81 92.56 16.2 94.72 16.48 96.2C16.77 97.68 17.3 100.12 17.65 101.64C18 103.16 18.67 105.74 19.14 107.38C19.6 109.02 20.44 111.73 21 113.41C21.56 115.09 22.47 117.64 23.02 119.08C23.57 120.51 24.59 122.99 25.29 124.59C25.98 126.19 27.33 129.07 28.29 131C29.25 132.92 30.57 135.44 31.21 136.59C31.85 137.73 32.88 139.51 33.49 140.54C34.11 141.56 35.49 143.74 36.57 145.38C37.65 147.02 39.26 149.37 40.15 150.6C41.04 151.83 42.37 153.6 43.11 154.55C43.85 155.49 45.09 157.03 45.87 157.97C46.66 158.92 48.1 160.59 49.08 161.7C50.07 162.81 52.08 164.94 53.56 166.45C55.03 167.95 57.28 170.14 58.55 171.3C59.82 172.46 61.6 174.04 62.5 174.8C63.4 175.57 64.24 176.28 64.36 176.39C64.56 176.56 64.52 176.68 64.08 177.37C63.8 177.81 63.52 178.32 63.45 178.5C63.38 178.69 63.34 178.84 63.36 178.84C63.38 178.84 63.73 178.38 64.88 176.79L66.3 177.94C67.08 178.57 68.52 179.69 69.5 180.42C70.48 181.15 72.26 182.43 73.45 183.26C74.64 184.08 76.75 185.48 78.14 186.37C79.54 187.25 81.78 188.61 83.13 189.39C84.49 190.17 87.07 191.56 88.87 192.48C90.67 193.41 93.22 194.65 94.53 195.23C96.16 195.96 97.02 196.27 97.25 196.21C97.43 196.16 99.01 195.52 100.75 194.77C102.49 194.03 105.39 192.69 107.19 191.8C109 190.92 111.41 189.67 112.56 189.04C113.7 188.41 115.82 187.19 117.25 186.32C118.68 185.46 121.13 183.9 122.69 182.86C124.25 181.81 126.46 180.27 127.6 179.43C128.75 178.59 130.8 177.02 132.15 175.93C133.5 174.85 135.75 172.97 137.14 171.75C138.53 170.53 141.42 167.79 143.55 165.66C145.69 163.52 148.43 160.63 149.65 159.24C150.86 157.85 152.75 155.6 153.83 154.25C154.91 152.89 156.65 150.61 157.7 149.18C158.74 147.75 160.35 145.43 161.27 144.04C162.2 142.65 163.65 140.33 164.51 138.9C165.37 137.46 166.62 135.28 167.3 134.05C167.97 132.82 169.22 130.41 170.06 128.69C170.9 126.97 171.98 124.69 172.45 123.62C172.92 122.56 173.7 120.68 174.2 119.45C174.69 118.22 175.41 116.34 175.8 115.28C176.19 114.21 176.88 112.2 177.33 110.8C177.79 109.41 178.4 107.47 178.69 106.48C178.98 105.5 179.55 103.35 179.96 101.71C180.37 100.07 180.97 97.43 181.29 95.83C181.62 94.23 182.06 91.85 182.27 90.54C182.48 89.23 182.78 87.11 182.94 85.84C183.1 84.57 183.34 82.36 183.46 80.92C183.58 79.49 183.72 77.73 183.78 77.01C183.83 76.29 183.9 75.71 183.93 75.71Z" />
		<path class="shp1" d="M124.25 76.41C124.13 76.77 124.11 77.27 124.17 77.79C124.23 78.25 124.51 79.32 124.79 80.18C125.07 81.04 125.8 82.75 126.41 83.98C127.01 85.21 128.05 87.12 128.72 88.23C129.39 89.33 129.99 90.31 130.06 90.39C130.14 90.48 130.31 90.29 130.5 89.9C130.67 89.55 130.88 88.92 130.96 88.49C131.08 87.89 131.07 87.45 130.91 86.66C130.79 86.09 130.43 85.05 130.11 84.35C129.79 83.65 129.1 82.41 128.59 81.59C128.07 80.77 126.97 79.17 126.14 78.03C125.31 76.9 124.58 75.94 124.53 75.91C124.48 75.88 124.35 76.11 124.25 76.41Z" />
		<path class="shp4" d="M13.19 77.09C12.78 77.26 11.64 77.73 10.65 78.13C9.67 78.54 7.93 79.32 6.78 79.87C5.63 80.42 3.96 81.29 3.05 81.8C2.15 82.32 1.33 82.82 1.22 82.91C1.07 83.05 1.09 83.56 1.34 85.62C1.51 87.01 1.88 89.63 2.18 91.43C2.47 93.23 2.74 94.74 2.77 94.78C2.8 94.82 4.01 94.24 5.47 93.49C6.93 92.74 9.06 91.73 10.21 91.24C11.35 90.75 12.98 90.09 13.82 89.77C15.14 89.27 15.33 89.16 15.27 88.9C15.23 88.73 15.1 87.76 14.98 86.74C14.86 85.71 14.66 83.7 14.54 82.27C14.42 80.83 14.28 79 14.23 78.2C14.19 77.4 14.1 76.76 14.04 76.76C13.98 76.77 13.59 76.91 13.19 77.09Z" />
		<path class="shp3" d="M73.67 79.67C72.53 81.19 71.54 82.43 71.48 82.42C71.41 82.42 71.36 82.5 71.36 82.6C71.36 82.7 70.7 83.59 69.91 84.57C69.11 85.55 67.82 87.05 67.04 87.91C66.26 88.76 65.09 89.9 64.44 90.42C63.78 90.95 62.86 91.58 62.39 91.81C61.92 92.05 61.11 92.36 60.6 92.49C59.97 92.65 59.38 92.7 58.77 92.64C58.28 92.59 57.38 92.38 56.76 92.17C56.15 91.96 55.01 91.45 54.23 91.03C53.45 90.62 52.04 89.78 51.1 89.17C50.16 88.56 49.37 88.08 49.35 88.11C49.33 88.13 50.17 88.93 51.22 89.87C52.26 90.82 53.53 92.08 54.04 92.67C54.56 93.26 55.21 94.09 55.49 94.52C55.78 94.95 56.16 95.71 56.35 96.2C56.62 96.93 56.68 97.39 56.68 98.73C56.68 100.19 56.62 100.53 56.2 101.75C55.94 102.51 55.33 103.92 54.84 104.88C54.36 105.84 53.65 107.17 53.26 107.82C52.87 108.48 51.83 110.16 50.93 111.55C50.04 112.94 48.74 114.94 48.05 115.98C47.35 117.03 46.84 117.87 46.91 117.85C46.99 117.83 47.47 117.24 47.98 116.54C48.49 115.85 49 115.18 49.11 115.05C49.22 114.93 49.76 114.23 50.31 113.49C50.86 112.75 51.98 111.31 52.8 110.28C53.63 109.26 54.9 107.75 55.64 106.94C56.38 106.12 57.52 105 58.18 104.44C58.83 103.88 59.81 103.19 60.34 102.91C60.87 102.63 61.79 102.29 62.39 102.17C63.22 101.99 63.68 101.97 64.4 102.08C64.91 102.16 65.7 102.35 66.15 102.51C66.6 102.66 67.57 103.09 68.31 103.47C69.05 103.85 70.49 104.7 71.51 105.37C72.54 106.03 73.39 106.55 73.41 106.53C73.43 106.5 72.73 105.82 71.85 105.01C70.97 104.2 69.82 103.09 69.31 102.55C68.79 102.01 68.03 101.1 67.63 100.52C67.22 99.95 66.74 99.11 66.58 98.66C66.41 98.21 66.21 97.44 66.13 96.94C66.03 96.33 66.04 95.7 66.16 94.93C66.25 94.32 66.53 93.25 66.78 92.55C67.03 91.85 67.56 90.61 67.97 89.79C68.38 88.97 69.31 87.33 70.02 86.14C70.74 84.95 72.32 82.47 73.54 80.63C74.76 78.78 75.8 77.19 75.85 77.09C75.9 76.98 75.9 76.9 75.85 76.91C75.8 76.91 74.82 78.15 73.67 79.67Z" />
		<path class="shp0" d="M69.35 80.28C68.78 80.4 67.74 80.73 67.04 81.01C66.35 81.29 65.17 81.87 64.44 82.3C63.7 82.74 62.52 83.52 61.83 84.05C61.13 84.58 59.79 85.77 58.85 86.69C57.91 87.61 57.19 88.4 57.25 88.44C57.31 88.49 58.01 87.98 58.81 87.3C59.61 86.63 60.8 85.73 61.46 85.31C62.11 84.88 63.18 84.27 63.84 83.94C64.5 83.62 65.47 83.21 66 83.04C66.53 82.86 67.3 82.65 67.71 82.56C68.12 82.46 69.18 82.39 70.06 82.4L71.66 82.41C72.93 80.68 73.3 80.15 73.3 80.1C73.3 80.06 72.65 80.04 71.85 80.04C71.05 80.05 69.93 80.16 69.35 80.28ZM73.07 81.33C72.66 81.95 72.32 82.52 72.29 82.59C72.27 82.66 72.67 82.93 73.17 83.2C73.67 83.46 74.38 84 74.73 84.39C75.09 84.78 75.58 85.52 75.83 86.03C76.07 86.54 76.39 87.4 76.53 87.93C76.71 88.61 76.78 89.45 76.78 90.76C76.78 91.89 76.67 93.15 76.52 93.96C76.37 94.7 76 96.11 75.68 97.09C75.35 98.08 74.67 99.75 74.15 100.82C73.63 101.89 72.89 103.24 72.51 103.84L71.81 104.92C73.09 106.13 73.42 106.5 73.38 106.52C73.34 106.54 72.91 106.29 72.44 105.97L71.59 105.38C69.84 107.62 68.7 108.93 67.93 109.74C67.15 110.55 66.02 111.63 65.4 112.15C64.79 112.66 63.72 113.46 63.02 113.93C62.32 114.4 61.15 115.07 60.41 115.43C59.68 115.78 58.5 116.24 57.81 116.44C57.11 116.65 56.04 116.86 55.42 116.92C54.75 116.98 53.92 116.95 53.34 116.85C52.8 116.75 52 116.5 51.55 116.3C51.1 116.09 50.41 115.66 50.02 115.34C49.47 114.89 49.31 114.81 49.32 115.01C49.32 115.16 49.54 115.67 49.8 116.16C50.07 116.64 50.55 117.34 50.88 117.71C51.21 118.08 51.88 118.65 52.37 118.96C52.86 119.28 53.7 119.67 54.23 119.84C54.92 120.05 55.63 120.14 56.69 120.15C57.69 120.15 58.59 120.05 59.44 119.85C60.14 119.68 61.25 119.32 61.9 119.04C62.56 118.76 63.6 118.24 64.21 117.88C64.83 117.52 66 116.72 66.81 116.1C67.63 115.48 68.94 114.34 69.73 113.56C70.51 112.78 71.72 111.44 72.4 110.58C73.09 109.72 74.11 108.31 74.68 107.45C75.24 106.59 76.19 104.91 76.79 103.73C77.39 102.54 78.13 100.89 78.44 100.07C78.74 99.25 79.19 97.85 79.42 96.94C79.66 96.04 79.96 94.53 80.1 93.59C80.27 92.36 80.31 91.31 80.25 89.87C80.2 88.54 80.07 87.45 79.86 86.66C79.69 86.01 79.3 84.97 79 84.35C78.63 83.61 78.12 82.91 77.47 82.25C76.82 81.59 76.18 81.12 75.53 80.81C75 80.56 74.39 80.32 74.18 80.27C73.84 80.2 73.73 80.31 73.07 81.33Z" />
		<path class="shp1" d="M70.95 84.61C70.3 85.66 69.5 86.98 69.17 87.56C68.84 88.13 68.27 89.2 67.9 89.94C67.53 90.68 67.03 91.85 66.78 92.55C66.53 93.25 66.26 94.32 66.16 94.93C66.07 95.55 66.03 96.35 66.08 96.72C66.13 97.09 66.3 97.79 66.45 98.29C66.61 98.78 66.99 99.58 67.31 100.07C67.62 100.57 68.31 101.45 68.84 102.04C69.37 102.63 70.25 103.52 70.8 104.02L71.81 104.92C72.89 103.24 73.63 101.89 74.15 100.82C74.67 99.75 75.35 98.08 75.68 97.09C76 96.11 76.37 94.7 76.52 93.96C76.67 93.15 76.78 91.89 76.78 90.76C76.78 89.45 76.71 88.61 76.53 87.93C76.39 87.4 76.07 86.54 75.83 86.03C75.58 85.52 75.09 84.78 74.73 84.39C74.38 84 73.69 83.47 73.21 83.2C72.73 82.94 72.28 82.72 72.23 82.72C72.17 82.71 71.59 83.57 70.95 84.61Z" />
		<path class="shp0" d="M103.17 82.94C102.43 83.05 101.29 83.27 100.64 83.44C99.98 83.6 98.94 83.92 98.33 84.14C97.72 84.36 96.51 84.88 95.65 85.31C94.79 85.73 93.61 86.39 93.04 86.76C92.47 87.13 91.49 87.84 90.88 88.33C90.27 88.83 89.28 89.74 88.68 90.37C88.09 90.99 87.17 92.09 86.64 92.81C86.11 93.53 85.27 94.88 84.78 95.83C84.3 96.77 83.66 98.25 83.37 99.11C83.08 99.97 82.71 101.46 82.54 102.42C82.34 103.62 82.24 104.83 82.24 106.26C82.24 107.41 82.31 108.87 82.4 109.5C82.49 110.14 82.72 111.29 82.91 112.07C83.11 112.85 83.54 114.16 83.87 114.98C84.21 115.8 84.79 117 85.17 117.66C85.54 118.32 86.14 119.25 86.49 119.75C86.84 120.24 87.5 121.08 87.96 121.61C88.42 122.14 88.78 122.59 88.76 122.6C88.74 122.62 87.95 122.44 87.01 122.21C86.06 121.98 84.39 121.67 83.28 121.53C81.72 121.33 80.67 121.29 78.59 121.36C76.75 121.42 75.46 121.54 74.49 121.74C73.71 121.91 72.54 122.22 71.88 122.44C71.23 122.66 70.09 123.14 69.35 123.51C68.61 123.88 67.61 124.46 67.12 124.79C66.63 125.13 65.73 125.87 65.13 126.45C64.52 127.02 63.71 127.93 63.32 128.46C62.93 129 62.37 129.87 62.07 130.4C61.78 130.94 61.37 131.84 61.15 132.41C60.94 132.99 60.63 134.03 60.47 134.72C60.3 135.47 60.14 136.86 60.09 138.08C60.03 139.59 60.07 140.63 60.25 141.88C60.38 142.82 60.69 144.33 60.94 145.23C61.2 146.13 61.64 147.44 61.93 148.14C62.22 148.83 62.78 150.04 63.18 150.82C63.58 151.6 64.32 152.87 64.82 153.65C65.32 154.43 65.76 155.1 65.79 155.14C65.82 155.18 65.89 155.18 65.93 155.14C65.97 155.1 65.72 154.6 65.38 154.02C65.04 153.45 64.51 152.44 64.21 151.79C63.9 151.13 63.45 149.96 63.2 149.18C62.95 148.4 62.62 147.19 62.47 146.5C62.27 145.55 62.21 144.65 62.22 142.92C62.23 140.93 62.29 140.41 62.63 139.12C62.84 138.3 63.29 137.06 63.63 136.36C63.96 135.67 64.52 134.69 64.88 134.2C65.23 133.71 66.01 132.84 66.61 132.27C67.22 131.69 68.08 130.98 68.53 130.68C68.98 130.39 69.75 129.94 70.25 129.69C70.74 129.45 71.61 129.08 72.18 128.87C72.76 128.66 73.76 128.38 74.42 128.25C75.07 128.11 76.31 127.94 77.17 127.87C78.09 127.8 79.45 127.8 80.45 127.88C81.39 127.96 82.84 128.16 83.65 128.33C84.47 128.49 85.95 128.9 86.93 129.23C87.92 129.55 89.52 130.21 90.51 130.69C91.49 131.17 92.93 131.98 93.71 132.49C94.49 133 95.7 133.88 96.39 134.43C97.09 134.98 98.36 136.17 99.23 137.06C100.09 137.95 101.17 139.18 101.62 139.79C102.08 140.41 102.73 141.35 103.06 141.88C103.4 142.41 104.01 143.55 104.41 144.41C104.82 145.27 105.33 146.51 105.55 147.17C105.76 147.82 106.08 149.03 106.25 149.85C106.48 150.93 106.57 151.89 106.57 153.35C106.57 154.73 106.49 155.74 106.31 156.56C106.17 157.21 105.85 158.29 105.61 158.94C105.37 159.6 104.91 160.57 104.6 161.1C104.28 161.64 103.62 162.54 103.14 163.11C102.66 163.69 102.2 164.16 102.12 164.16C102.04 164.16 101.54 164.62 101.01 165.18C100.48 165.75 99.64 166.49 99.15 166.84C98.66 167.19 97.79 167.71 97.21 168C96.64 168.29 95.7 168.67 95.13 168.84C94.55 169.02 93.45 169.26 92.67 169.38C91.89 169.5 90.72 169.6 90.06 169.6C89.41 169.6 88.27 169.52 87.53 169.43C86.79 169.34 85.58 169.11 84.85 168.92C84.11 168.73 83.34 168.52 83.13 168.47C82.86 168.39 82.8 168.41 82.91 168.53C82.99 168.63 83.9 169 84.92 169.36C85.95 169.72 87.49 170.18 88.35 170.39C89.21 170.6 90.65 170.89 91.55 171.02C92.58 171.18 94.13 171.28 95.72 171.28C97.12 171.29 98.82 171.21 99.52 171.1C100.22 171 101.42 170.75 102.2 170.55C102.98 170.35 104.19 169.94 104.88 169.64C105.58 169.34 106.69 168.78 107.34 168.39C108 168.01 109.04 167.26 109.65 166.74C110.27 166.21 111.16 165.28 111.64 164.67C112.12 164.06 112.77 163.13 113.08 162.59C113.39 162.06 113.87 161.04 114.14 160.32L114.64 159.02C116.09 159.02 117.03 158.92 117.66 158.79C118.3 158.67 119.25 158.43 119.78 158.26C120.32 158.08 121.56 157.55 122.54 157.08C123.52 156.6 124.86 155.87 125.52 155.44C126.17 155.01 127.3 154.22 128.02 153.67C128.74 153.13 129.32 152.63 129.32 152.57C129.32 152.51 129.17 152.52 128.98 152.59C128.8 152.67 128.31 152.87 127.9 153.05C127.49 153.23 126.49 153.54 125.67 153.75C124.85 153.95 124.11 154.13 124.03 154.15C123.95 154.17 123.81 154.22 123.73 154.28C123.65 154.33 123.11 154.45 122.54 154.55C121.97 154.65 120.93 154.7 120.23 154.66C119.48 154.62 118.63 154.46 118.14 154.28C117.65 154.09 116.98 153.66 116.45 153.18C115.84 152.62 115.43 152.07 115.07 151.34C114.77 150.73 114.46 149.78 114.33 149.03C114.17 148.15 114.13 147.34 114.19 146.35C114.24 145.57 114.42 144.3 114.58 143.52C114.74 142.74 115.11 141.4 115.4 140.54C115.69 139.68 116.39 138.03 116.95 136.89C117.51 135.74 118.42 134.09 118.97 133.23C119.52 132.37 120.48 131 121.1 130.18C121.73 129.36 123.11 127.79 124.18 126.7C125.24 125.6 126.72 124.22 127.46 123.62C128.19 123.03 129.4 122.15 130.14 121.67C130.88 121.19 132.08 120.52 132.82 120.17C133.56 119.83 134.76 119.36 135.5 119.14C136.61 118.8 137.13 118.73 138.56 118.72C140.03 118.72 140.39 118.76 141.16 119.07C141.65 119.27 142.32 119.64 142.65 119.9C142.98 120.15 143.5 120.69 143.81 121.1C144.13 121.51 144.54 122.35 144.77 123.03C145.13 124.1 145.17 124.44 145.18 126.41C145.18 127.61 145.23 128.51 145.29 128.42C145.34 128.32 145.5 127.64 145.63 126.9C145.76 126.16 145.91 124.82 145.95 123.92C146.02 122.74 145.97 121.88 145.8 120.86C145.63 119.88 145.38 119.08 144.98 118.26C144.55 117.37 144.17 116.86 143.53 116.27C143.05 115.83 142.32 115.32 141.91 115.13C141.5 114.94 140.81 114.71 140.38 114.62C139.95 114.53 139.06 114.46 138.41 114.46C137.75 114.46 136.69 114.56 136.06 114.7C135.42 114.83 134.34 115.13 133.64 115.38C132.94 115.62 131.53 116.25 130.51 116.78C129.49 117.31 128.63 117.72 128.61 117.7C128.59 117.68 128.87 117.02 129.23 116.24C129.59 115.47 130.06 114.29 130.28 113.64C130.49 112.98 130.82 111.77 130.99 110.95C131.27 109.7 131.32 108.99 131.32 106.41C131.32 103.79 131.27 103.13 130.98 101.79C130.79 100.93 130.48 99.75 130.29 99.18C130.1 98.61 129.77 97.73 129.56 97.24C129.34 96.75 129.13 96.38 129.08 96.42C129.04 96.46 129.1 96.83 129.23 97.24C129.36 97.65 129.57 98.46 129.7 99.03C129.83 99.61 129.99 100.78 130.05 101.64C130.12 102.5 130.11 103.94 130.04 104.84C129.98 105.75 129.72 107.25 129.49 108.2C129.25 109.14 128.8 110.51 128.48 111.25C128.16 111.99 127.57 113.13 127.16 113.79C126.75 114.44 126.01 115.48 125.52 116.08C125.03 116.69 124.16 117.62 123.58 118.14C123.01 118.67 121.94 119.5 121.2 120C120.46 120.49 119.32 121.15 118.67 121.46C118.01 121.77 116.82 122.23 116.02 122.49C115.22 122.74 113.88 123.06 113.04 123.19C111.91 123.37 110.92 123.41 109.21 123.36C107.55 123.31 106.52 123.19 105.56 122.96C104.82 122.78 103.78 122.5 103.25 122.33C102.71 122.17 101.71 121.77 101.01 121.44C100.31 121.11 99.11 120.42 98.33 119.91C97.55 119.39 96.31 118.37 95.56 117.64C94.82 116.92 93.79 115.75 93.27 115.05C92.76 114.36 91.95 112.98 91.47 112C90.99 111.01 90.46 109.71 90.3 109.09C90.13 108.48 89.89 107.37 89.77 106.63C89.64 105.89 89.54 104.45 89.54 103.43C89.54 102.4 89.64 100.96 89.76 100.22C89.88 99.49 90.15 98.28 90.36 97.54C90.57 96.8 91.17 95.33 91.7 94.26C92.23 93.2 93.02 91.86 93.45 91.28C93.88 90.71 94.77 89.7 95.43 89.05C96.1 88.39 97.24 87.43 97.97 86.91C98.7 86.39 99.97 85.64 100.79 85.25C101.61 84.86 102.81 84.36 103.47 84.15C104.13 83.94 105.15 83.66 105.74 83.54C106.34 83.41 107.39 83.26 108.09 83.2C108.95 83.12 109.36 83.02 109.36 82.9C109.35 82.76 108.78 82.72 106.93 82.73C105.6 82.74 103.91 82.83 103.17 82.94Z" />
		<path class="shp3" d="M109.65 87.19C109.2 87.26 108.3 87.45 107.64 87.61C106.99 87.78 105.95 88.12 105.33 88.38C104.72 88.63 103.75 89.11 103.17 89.45C102.6 89.79 101.59 90.48 100.94 90.98C100.28 91.49 99.34 92.35 98.85 92.91C98.36 93.46 97.91 94.01 97.85 94.12C97.76 94.29 97.79 94.31 97.99 94.21C98.14 94.13 98.36 93.95 98.48 93.81C98.6 93.66 99.2 93.16 99.82 92.71C100.43 92.25 101.51 91.59 102.2 91.25C102.9 90.91 104.04 90.47 104.74 90.26C105.43 90.06 106.61 89.81 107.34 89.71C108.14 89.6 109.29 89.57 110.17 89.62C110.99 89.67 112.3 89.87 113.08 90.07C113.86 90.26 115.03 90.65 115.69 90.92C116.34 91.2 117.48 91.82 118.22 92.3C118.96 92.79 120.13 93.77 120.83 94.47C121.52 95.18 122.41 96.22 122.79 96.8C123.17 97.37 123.76 98.41 124.08 99.11C124.41 99.8 124.85 100.94 125.05 101.64C125.25 102.34 125.49 103.43 125.58 104.06C125.67 104.7 125.74 105.74 125.74 106.37C125.74 107.01 125.67 108 125.59 108.57C125.51 109.14 125.3 110.15 125.13 110.8C124.97 111.46 124.6 112.53 124.31 113.19C124.03 113.85 123.48 114.88 123.09 115.5C122.71 116.11 121.85 117.18 121.2 117.87C120.54 118.56 119.57 119.45 119.04 119.86C118.51 120.26 117.33 120.95 116.43 121.39C115.53 121.83 114.26 122.33 113.6 122.51C112.94 122.68 111.91 122.86 111.29 122.9C110.68 122.94 109.24 122.98 108.09 122.98C106.56 122.99 106.1 123.03 106.37 123.14C106.58 123.22 107.82 123.32 109.13 123.36C110.91 123.42 111.9 123.37 113.04 123.19C113.88 123.06 115.22 122.74 116.02 122.49C116.82 122.23 118.01 121.77 118.67 121.46C119.32 121.15 120.46 120.49 121.2 120C121.94 119.5 123.01 118.67 123.58 118.14C124.16 117.62 125.03 116.69 125.52 116.08C126.01 115.48 126.75 114.44 127.16 113.79C127.57 113.13 128.16 111.99 128.48 111.25C128.8 110.51 129.25 109.14 129.49 108.2C129.73 107.25 129.97 105.75 130.04 104.84C130.11 103.94 130.13 102.53 130.08 101.71C130.01 100.63 129.9 100.04 129.66 99.55C129.48 99.18 129 98.18 128.6 97.32C128.19 96.46 127.44 95.18 126.92 94.49C126.41 93.79 125.51 92.75 124.92 92.18C124.33 91.6 123.36 90.79 122.75 90.37C122.14 89.94 121.04 89.3 120.3 88.93C119.57 88.56 118.41 88.08 117.73 87.87C117.06 87.66 115.89 87.38 115.13 87.26C114.37 87.14 113.01 87.04 112.11 87.05C111.21 87.06 110.1 87.12 109.65 87.19Z" />
		<path class="shp0" d="M138 88.79C138.04 88.85 138.54 89.7 139.11 90.69C139.69 91.67 140.67 93.48 141.29 94.71C141.91 95.94 142.59 97.15 142.79 97.39C143 97.64 143.17 97.76 143.17 97.65C143.17 97.55 142.9 96.91 142.56 96.24C142.22 95.56 141.51 94.24 140.98 93.29C140.44 92.35 139.59 90.93 139.09 90.13C138.58 89.33 138.11 88.67 138.05 88.67C137.98 88.67 137.96 88.72 138 88.79Z" />
		<path class="shp1" d="M138.18 89.66C138.24 89.89 138.54 90.63 138.86 91.28C139.18 91.94 139.92 93.21 140.49 94.11C141.07 95.01 141.59 95.7 141.65 95.64C141.71 95.58 141.43 94.91 141.04 94.15C140.64 93.39 139.87 92.01 139.32 91.07C138.78 90.14 138.28 89.34 138.21 89.3C138.14 89.26 138.13 89.42 138.18 89.66Z" />
		<path class="shp4" d="M107.05 89.72C106.55 89.8 105.55 90.03 104.81 90.25C104.07 90.46 102.9 90.91 102.2 91.25C101.51 91.59 100.42 92.26 99.78 92.73C99.15 93.21 98.59 93.66 98.55 93.74C98.51 93.82 98.28 94.01 98.05 94.15C97.81 94.29 97.14 95.05 96.55 95.83C95.97 96.61 95.13 97.98 94.68 98.88C94.19 99.86 93.71 101.09 93.5 101.94C93.3 102.72 93.09 103.86 93.03 104.47C92.98 105.09 92.96 105.56 93 105.51C93.05 105.47 93.23 104.87 93.41 104.17C93.59 103.48 93.98 102.37 94.29 101.71C94.59 101.06 95.14 100.09 95.5 99.55C95.86 99.02 96.56 98.16 97.05 97.63C97.55 97.11 98.46 96.3 99.07 95.84C99.69 95.38 100.76 94.72 101.46 94.38C102.15 94.04 103.29 93.6 103.99 93.39C104.69 93.19 105.96 92.94 106.82 92.84C108.05 92.7 108.72 92.7 109.95 92.84C110.81 92.94 112.07 93.19 112.74 93.38C113.42 93.58 114.43 93.95 114.98 94.2C115.53 94.45 116.52 95.01 117.18 95.45C117.83 95.88 118.94 96.84 119.64 97.56C120.34 98.29 121.26 99.45 121.69 100.15C122.12 100.85 122.67 101.99 122.92 102.68C123.17 103.38 123.48 104.42 123.61 104.99C123.75 105.6 123.85 106.79 123.85 107.82C123.86 108.81 123.78 110.01 123.68 110.51C123.57 111 123.35 111.84 123.18 112.37C123.01 112.9 122.61 113.87 122.29 114.53C121.96 115.19 121.37 116.16 120.98 116.69C120.58 117.22 119.77 118.13 119.17 118.7C118.56 119.28 117.67 120.01 117.18 120.34C116.68 120.66 115.85 121.14 115.31 121.41C114.78 121.67 113.91 122.02 113.38 122.19C112.84 122.36 112.07 122.59 111.66 122.72L110.92 122.94C112.07 122.84 112.94 122.67 113.6 122.5C114.26 122.33 115.53 121.83 116.43 121.39C117.33 120.95 118.51 120.26 119.04 119.86C119.57 119.45 120.54 118.56 121.2 117.87C121.85 117.18 122.71 116.11 123.09 115.5C123.48 114.88 124.03 113.85 124.31 113.19C124.6 112.53 124.97 111.46 125.13 110.8C125.3 110.15 125.51 109.14 125.59 108.57C125.67 108 125.74 107.01 125.74 106.37C125.74 105.74 125.67 104.7 125.58 104.06C125.49 103.43 125.25 102.34 125.05 101.64C124.85 100.94 124.41 99.8 124.08 99.11C123.76 98.41 123.17 97.37 122.79 96.8C122.41 96.22 121.52 95.18 120.83 94.47C120.13 93.77 118.96 92.79 118.22 92.3C117.48 91.82 116.34 91.2 115.69 90.92C115.03 90.65 113.86 90.26 113.08 90.06C112.07 89.8 111.13 89.68 109.8 89.64C108.78 89.61 107.54 89.65 107.05 89.72Z" />
		<path class="shp1" d="M131.63 91.45C131.3 91.57 131.01 91.68 130.99 91.7C130.97 91.72 131.64 92.67 132.49 93.82C133.33 94.96 134.63 96.61 135.38 97.47C136.12 98.33 137.32 99.6 138.05 100.29C138.78 100.98 139.81 101.83 140.34 102.17C140.88 102.52 141.6 102.9 141.94 103.01C142.52 103.19 142.61 103.18 142.97 102.91C143.19 102.74 143.43 102.41 143.5 102.16C143.57 101.92 143.59 101.41 143.54 101.04C143.49 100.67 143.34 99.97 143.21 99.48C142.97 98.62 142.85 98.47 140.2 95.81C138.68 94.28 137.04 92.76 136.54 92.43C136.05 92.1 135.3 91.69 134.87 91.52C134.35 91.31 133.78 91.21 133.15 91.22C132.64 91.22 131.96 91.33 131.63 91.45Z" />
		<path class="shp0" d="M129.79 92.4L128.87 93C129.73 94.21 130.38 95.1 130.87 95.75C131.35 96.41 132.39 97.72 133.17 98.66C133.95 99.6 135.4 101.18 136.39 102.16C137.38 103.15 138.75 104.38 139.45 104.9C140.15 105.42 141.15 106.07 141.68 106.33C142.22 106.6 142.9 106.86 143.21 106.91C143.57 106.97 143.95 106.93 144.29 106.78C144.64 106.63 144.89 106.38 145.04 106.04C145.16 105.75 145.26 105.15 145.26 104.69C145.26 104.24 145.19 103.52 145.1 103.09C145.01 102.66 144.78 101.81 144.58 101.19C144.32 100.37 144.08 99.94 143.68 99.55C143.16 99.06 143.14 99.05 143.23 99.4C143.28 99.61 143.39 100.18 143.48 100.67C143.58 101.2 143.59 101.77 143.52 102.07C143.45 102.35 143.21 102.71 142.99 102.89C142.61 103.18 142.53 103.19 141.94 103.01C141.6 102.9 140.88 102.52 140.34 102.17C139.81 101.83 138.78 100.98 138.05 100.29C137.32 99.6 136.09 98.29 135.31 97.39C134.54 96.49 133.26 94.87 132.47 93.78C131.68 92.7 130.96 91.81 130.87 91.81C130.79 91.81 130.3 92.07 129.79 92.4Z" />
		<path class="shp1" d="M62.35 102.15C61.86 102.25 60.99 102.59 60.41 102.88C59.84 103.18 58.83 103.88 58.18 104.44C57.52 105 56.38 106.12 55.64 106.94C54.9 107.75 53.63 109.26 52.81 110.28C51.98 111.31 50.9 112.68 50.39 113.34C49.89 113.99 49.47 114.6 49.46 114.68C49.45 114.76 49.74 115.07 50.09 115.37C50.44 115.67 51.1 116.09 51.55 116.3C52 116.5 52.8 116.75 53.34 116.85C53.92 116.95 54.75 116.98 55.42 116.92C56.04 116.86 57.11 116.65 57.81 116.44C58.5 116.24 59.68 115.78 60.41 115.43C61.15 115.07 62.32 114.4 63.02 113.93C63.72 113.46 64.79 112.66 65.4 112.15C66.02 111.63 67.09 110.62 67.79 109.89C68.49 109.16 69.43 108.1 69.89 107.53C70.34 106.95 70.9 106.23 71.12 105.92L71.51 105.37C70.07 104.44 69.01 103.84 68.23 103.44C67.46 103.04 66.38 102.58 65.85 102.42C65.32 102.26 64.51 102.09 64.06 102.04C63.6 101.99 62.85 102.04 62.35 102.15Z" />
		<path fill-rule="evenodd" class="shp3" d="M150.66 109.44C150.64 109.47 150.62 109.51 150.62 109.54C150.62 109.62 149.37 111.57 147.83 113.86C146.29 116.16 144.99 118.04 144.92 118.04C144.86 118.03 144.78 117.9 144.74 117.73C144.68 117.52 145.48 116.32 147.68 113.34C149.02 111.52 150.21 109.97 150.66 109.44ZM150.7 109.39C150.78 109.3 150.83 109.25 150.84 109.25C150.93 109.26 150.91 109.29 150.81 109.33C150.77 109.34 150.73 109.36 150.7 109.39ZM150.66 109.44C150.67 109.42 150.68 109.41 150.7 109.39C150.69 109.41 150.67 109.42 150.66 109.44ZM138.93 118.69C139.87 118.73 140.53 118.85 141.16 119.09C141.65 119.28 142.32 119.64 142.65 119.9C142.98 120.15 143.5 120.69 143.81 121.1C144.13 121.51 144.54 122.35 144.77 123.03C145.12 124.09 145.17 124.47 145.2 126.53C145.23 128.59 145.19 128.97 144.86 130.1C144.66 130.8 144.29 132.01 144.04 132.79C143.78 133.57 143.28 134.84 142.93 135.62C142.57 136.4 142.25 137 142.2 136.96C142.16 136.92 142.3 136.43 142.5 135.88C142.71 135.33 143.01 134.2 143.17 133.38C143.34 132.56 143.47 131.31 143.47 130.59C143.47 129.87 143.38 128.85 143.26 128.32C143.15 127.78 142.89 126.98 142.68 126.53C142.47 126.08 142.01 125.42 141.65 125.06C141.3 124.71 140.68 124.26 140.27 124.07C139.86 123.88 139.05 123.64 138.48 123.54C137.66 123.4 137.17 123.4 136.17 123.54C135.48 123.64 134.34 123.92 133.64 124.17C132.94 124.41 131.77 124.94 131.03 125.35C130.29 125.75 129.15 126.49 128.5 126.98C127.84 127.47 126.74 128.39 126.04 129.03C125.34 129.67 124.22 130.86 123.54 131.68C122.85 132.49 121.87 133.8 121.35 134.58C120.83 135.35 120.08 136.63 119.68 137.41C119.28 138.19 118.73 139.39 118.46 140.09C118.19 140.79 117.81 142.03 117.61 142.85C117.39 143.73 117.2 145 117.15 145.98C117.09 147.18 117.13 147.91 117.31 148.73C117.44 149.35 117.74 150.25 117.98 150.75C118.26 151.33 118.72 151.92 119.28 152.43C119.81 152.92 120.48 153.35 120.98 153.53C121.43 153.7 122.31 153.88 122.95 153.93C123.59 153.98 124.11 154.07 124.1 154.14C124.1 154.2 124.04 154.21 123.95 154.17C123.87 154.13 123.77 154.17 123.73 154.25C123.69 154.33 123.17 154.47 122.58 154.56C121.98 154.66 120.93 154.7 120.23 154.66C119.47 154.62 118.63 154.46 118.14 154.28C117.65 154.09 116.98 153.66 116.45 153.18C115.84 152.62 115.43 152.07 115.07 151.34C114.77 150.73 114.46 149.78 114.33 149.03C114.17 148.15 114.13 147.34 114.19 146.35C114.24 145.57 114.42 144.3 114.58 143.52C114.74 142.74 115.11 141.4 115.4 140.54C115.69 139.68 116.39 138.03 116.95 136.89C117.51 135.74 118.42 134.09 118.97 133.23C119.52 132.37 120.48 131 121.1 130.18C121.73 129.36 123.05 127.86 124.03 126.84C125.01 125.82 126.42 124.49 127.16 123.87C127.9 123.25 129.1 122.35 129.84 121.87C130.58 121.38 131.68 120.73 132.3 120.42C132.91 120.11 133.92 119.68 134.53 119.46C135.15 119.25 136.09 118.97 136.62 118.85C137.22 118.72 138.1 118.65 138.93 118.69ZM49.57 125.88C49.8 126.05 51.86 127.48 54.16 129.07C56.45 130.65 58.87 132.32 60.73 133.61L60.41 134.83L58.33 133.12C57.18 132.17 54.67 130.16 52.74 128.65C50.81 127.14 49.22 125.83 49.2 125.75C49.18 125.66 49.34 125.72 49.57 125.88ZM79.63 127.83C80.37 127.86 81.74 128.02 82.69 128.17C83.63 128.32 85 128.62 85.74 128.84C86.48 129.05 87.68 129.47 88.42 129.76C89.16 130.05 90.47 130.65 91.33 131.11C92.19 131.56 93.39 132.27 94.01 132.68C94.62 133.09 95.7 133.88 96.39 134.43C97.09 134.99 98.36 136.17 99.23 137.06C100.09 137.95 101.17 139.18 101.62 139.79C102.08 140.41 102.7 141.29 103 141.77C103.3 142.24 103.84 143.21 104.19 143.93C104.55 144.64 105.02 145.7 105.23 146.27C105.45 146.85 105.8 147.99 106 148.81C106.21 149.63 106.45 151 106.54 151.86C106.67 153.04 106.66 153.81 106.53 154.99C106.43 155.85 106.18 157.13 105.98 157.82C105.78 158.52 105.39 159.56 105.12 160.13C104.84 160.71 104.22 161.71 103.72 162.37C103.23 163.03 102.65 163.73 102.44 163.93C102.22 164.14 102.05 164.22 102.05 164.12C102.05 164.02 102.26 163.62 102.5 163.23C102.75 162.84 103.12 162.08 103.32 161.55C103.52 161.02 103.8 160.11 103.94 159.54C104.11 158.85 104.19 157.87 104.19 156.63C104.2 155.39 104.11 154.34 103.93 153.5C103.78 152.81 103.46 151.67 103.21 150.97C102.97 150.27 102.48 149.13 102.13 148.44C101.78 147.74 101.09 146.56 100.6 145.83C100.11 145.09 99.17 143.88 98.52 143.14C97.87 142.41 96.48 141.08 95.42 140.19C94.36 139.3 92.88 138.18 92.15 137.69C91.41 137.2 90.14 136.47 89.32 136.07C88.5 135.67 87.19 135.14 86.41 134.88C85.63 134.62 84.39 134.31 83.65 134.18C82.7 134.01 81.84 133.97 80.67 134.03C79.77 134.08 78.63 134.22 78.14 134.35C77.65 134.48 76.81 134.75 76.28 134.95C75.75 135.15 74.88 135.59 74.34 135.93C73.81 136.28 73.09 136.8 72.73 137.09C72.38 137.39 71.72 138.1 71.26 138.67C70.8 139.25 70.17 140.25 69.85 140.91C69.54 141.56 69.14 142.64 68.97 143.29C68.75 144.13 68.66 144.98 68.65 146.13C68.64 147.03 68.72 148.17 68.82 148.66C68.92 149.15 69.14 149.99 69.31 150.52C69.47 151.05 69.91 152.06 70.26 152.76C70.62 153.45 71.24 154.46 71.64 154.99C72.04 155.53 72.83 156.39 73.39 156.92C73.96 157.45 74.99 158.26 75.68 158.71C76.38 159.17 77.49 159.77 78.14 160.05C78.8 160.32 79.84 160.67 80.45 160.84C81.13 161.02 82.29 161.16 83.43 161.21C84.6 161.26 85.71 161.22 86.41 161.1C87.03 161 87.96 160.77 88.5 160.58C89.03 160.4 89.83 160.07 90.28 159.84C90.74 159.61 91.32 159.27 91.59 159.07C91.85 158.88 92.12 158.72 92.18 158.72C92.25 158.71 92.09 158.92 91.85 159.17C91.6 159.42 90.9 159.97 90.28 160.4C89.67 160.82 88.7 161.38 88.12 161.64C87.55 161.91 86.54 162.27 85.89 162.45C85.01 162.69 84.12 162.8 82.46 162.85C81.05 162.9 79.82 162.86 79.11 162.74C78.5 162.64 77.39 162.36 76.65 162.12C75.91 161.88 74.74 161.38 74.05 161C73.35 160.63 72.34 160 71.81 159.61C71.28 159.22 70.37 158.4 69.79 157.8C69.22 157.2 68.6 156.51 68.42 156.26C68.22 155.99 68.09 155.9 68.09 156.04C68.08 156.16 68.54 156.96 69.11 157.82C69.68 158.68 70.59 159.89 71.13 160.51C71.67 161.12 72.12 161.67 72.11 161.74C72.11 161.8 71.99 161.79 71.85 161.71C71.7 161.63 70.77 160.75 69.77 159.74C68.77 158.73 67.55 157.4 67.06 156.78C66.56 156.17 66.19 155.61 66.23 155.55C66.27 155.49 66.2 155.41 66.07 155.37C65.95 155.32 65.88 155.22 65.93 155.14C65.97 155.06 65.72 154.54 65.38 153.99C65.04 153.43 64.51 152.44 64.21 151.79C63.9 151.13 63.45 149.96 63.2 149.18C62.95 148.4 62.62 147.19 62.47 146.5C62.27 145.55 62.21 144.65 62.22 142.92C62.23 140.93 62.29 140.41 62.63 139.12C62.84 138.3 63.29 137.06 63.63 136.36C63.96 135.67 64.52 134.69 64.88 134.2C65.23 133.71 66.01 132.84 66.61 132.27C67.22 131.69 68.08 130.98 68.53 130.68C68.98 130.39 69.75 129.94 70.25 129.69C70.74 129.45 71.61 129.08 72.18 128.87C72.76 128.66 73.76 128.38 74.42 128.24C75.07 128.1 76.21 127.94 76.95 127.88C77.69 127.81 78.89 127.79 79.63 127.83ZM117.35 127.96C117.38 127.99 116.94 128.64 116.38 129.4C115.82 130.15 115.03 131.28 114.62 131.89C114.21 132.51 113.5 133.65 113.04 134.43C112.59 135.2 111.86 136.56 110.62 139.02L109.88 137.93C109.47 137.34 108.58 136.19 107.91 135.38C107.25 134.57 106.11 133.33 105.38 132.63C104.66 131.93 103.66 131.01 102.28 129.79L103.4 129.91C104.01 129.98 105.75 130.03 107.27 130.02C109.47 130.01 110.36 129.95 111.66 129.69C112.57 129.51 113.94 129.15 114.72 128.89C115.5 128.64 116.4 128.31 116.72 128.17C117.04 128.02 117.32 127.93 117.35 127.96ZM138.48 144.84L139.29 145.78C139.74 146.3 140.68 147.29 141.38 147.99C142.08 148.7 143.21 149.79 143.88 150.42C144.56 151.05 145.04 151.56 144.96 151.56C144.88 151.56 144.02 151.04 143.06 150.4C142.1 149.75 140.67 148.86 139.9 148.4C139.12 147.94 138.1 147.38 136.79 146.72L138.48 144.84Z" />
		<path class="shp1" d="M114.52 159.35C114.47 159.54 114.39 159.82 114.33 159.99C114.23 160.23 114.25 160.25 114.43 160.11C114.55 160.01 114.76 159.73 114.9 159.47C115.16 159.03 115.16 159.02 114.88 159.02C114.71 159.02 114.56 159.15 114.52 159.35Z" />
		<path class="shp3" d="M114.81 159.61C114.59 159.94 114.35 160.21 114.27 160.21C114.19 160.21 114.05 160.46 113.95 160.77C113.86 161.07 113.54 161.76 113.25 162.3C112.95 162.83 112.41 163.67 112.05 164.16C111.68 164.65 111.11 165.35 110.78 165.71C110.45 166.07 110.17 166.44 110.16 166.53C110.15 166.62 109.81 167.18 109.41 167.77L108.68 168.84C107.87 168.11 107.86 168.11 107.41 168.37L106.95 168.63C107.49 168.98 107.78 169.21 107.96 169.37C108.13 169.54 108.37 169.7 108.48 169.72C108.59 169.75 110.24 170.84 112.15 172.15C114.05 173.45 115.68 174.52 115.76 174.52C115.84 174.52 115.94 174.6 115.97 174.7C116.01 174.8 116.04 174.82 116.05 174.74C116.05 174.66 114.67 173.5 112.97 172.18C111.27 170.85 109.65 169.58 109.38 169.35L108.88 168.93C114.57 161.3 116.21 159.07 116.21 159.05C116.21 159.03 115.98 159.02 115.7 159.02C115.28 159.02 115.14 159.11 114.81 159.61Z" />
		<path class="shp2" d="M39.63 165.65C40.82 166.84 41.82 167.81 41.86 167.81C41.91 167.81 40.99 166.84 39.82 165.65C38.65 164.46 37.65 163.49 37.59 163.49C37.52 163.49 38.44 164.46 39.63 165.65Z" />
		<path class="shp3" d="M70.69 165.7C70.31 166.49 69.52 168.01 68.94 169.08C68.36 170.14 66.9 172.66 65.7 174.66C64.5 176.67 63.47 178.45 63.42 178.61C63.34 178.85 63.38 178.84 63.58 178.55C63.72 178.35 64.87 176.8 66.13 175.12C67.4 173.44 69.07 171.25 69.86 170.27C70.64 169.28 71.77 167.93 72.37 167.25C72.96 166.57 73.45 165.99 73.46 165.96C73.47 165.93 73 165.54 72.43 165.08L71.39 164.26L70.69 165.7Z" />
		<path class="shp1" d="M109.05 167.23C108.52 167.65 108.05 168.03 107.99 168.09C107.94 168.14 108.09 168.33 108.33 168.52L108.76 168.85C109.53 167.64 109.86 167.1 109.99 166.88C110.12 166.65 110.18 166.47 110.12 166.47C110.06 166.47 109.57 166.81 109.05 167.23Z" />
	</g>
</svg>