<svg xmlns="http://www.w3.org/2000/svg" width="2000" height="2260.69" viewBox="0 0 2000 2260.69"><g fill="#ff779b"><path d="M875.35,65c38.23-22.38,76.26-45.49,116.88-63.73.41,142.58-13.37,284.84-18,427.21-7.46,158.85-18.55,317.38-25,476.22-.63,37.41-22.8,75-59.69,86.52-37.71,12.74-74.5-8.5-107.24-24.87C574.65,858.87,365.76,753.91,157.39,647.91c-43.21-22.28-84.76-49.22-132.83-60L0,580c22-32.12,59.58-46,91.7-65.28Q483.83,290.65,875.35,65Z"/><path d="m1056.47 1332.6c11.4-53.56 79.37-77.81 125.17-50.77 202.67 100.51 403.48 204.85 606.05 305.57 67.76 35.54 138.32 65.69 203.71 105.68-27.05 25.08-60.41 41.14-92.22 59q-406.59 230.65-812.77 462.23c-32.12 18.24-62.89 41.55-100.61 46.42 14.09-54.4 5.18-110.66 5.49-166 5.18 42.9 1 86.93 12.85 128.9 9.85-62.48 8.29-125.9 11.61-188.89 9.94-155.53 15.75-311.27 25.07-466.79 7.67-78.26.83-157.84 15.65-235.35"/></g><path d="m1007.35 0c15.13 7.25 30.16 14.51 45 22.48q417.48 240.6 835.56 480.16c36.89 22 77 39.48 109.21 68.49-272.54 135.32-542.56 275.62-814.12 412.7-33.36 18.24-78 15.24-105.27-12.53-24.25-22.18-26-57.1-28.39-87.56-12.34-294.68-32.45-589.06-41.99-883.74" fill="#ec4470"/><g fill="#f75881"><path d="M0,580l24.56,7.88C256.86,734,488.13,881.77,720.44,1027.77c33.16,21.86,77.4,40.51,85.07,84.24,9.12,37.3-14.3,73.25-45.69,91.49Q426.9,1414.42,93.77,1625.22C64.45,1644.59,34.92,1664,2.49,1678-2.07,1312,2.8,946,0,580Z"/><path d="m1940.42 610.61c18.54-11.81 37.82-22.49 57.19-32.74 5 336.64.31 673.6 2.28 1010.36.21 29.84-.41 59.78-2.07 89.62-18.24-9.12-36.37-18.54-53.67-29.32q-343.8-220.69-688-440.89c-20.93-13.88-42.9-30.46-49.74-56-11.6-35.85 6-76.36 37.92-95.22q348.14-222.67 696.09-445.81"/></g><path d="m789 1294.58c26.62-13.27 54.5-29.64 85.58-26.11 43 1.34 77 41.65 78 83.41 13.05 247.64 25.07 495.28 38.64 742.82-.31 55.33 8.6 111.59-5.49 166-242.49-144.14-489.73-280.6-734.15-421.62-82.48-49.43-169.31-91.8-249-145.68 261.64-133.98 524.72-265.05 786.42-398.82" fill="#ec4470"/></svg>