<svg xmlns="http://www.w3.org/2000/svg" width="2000" height="2000" viewBox="0 0 2000 2000"><path d="M524.62,120,646.48,421.61C452,540.74,322.22,755.22,322.22,1000c0,374.33,303.45,677.78,677.78,677.78a680,680,0,0,0,147.5-16.1l121.86,301.62A1000.57,1000.57,0,0,1,1000,2000C447.72,2000,0,1552.28,0,1000,0,619.78,212.19,289.13,524.62,120Z" fill="#fe4040"/><path d="M1000,1355.56c-196.37,0-355.56-159.19-355.56-355.56S803.63,644.44,1000,644.44c138.37,0,258.29,79,317,194.45h341.47c-72.3-296.55-339.7-516.67-658.51-516.67a680,680,0,0,0-147.5,16.1L730.64,36.7A1000.57,1000.57,0,0,1,1000,0c552.28,0,1000,447.72,1000,1000,0,380.21-212.19,710.87-524.62,880l-121.86-301.61c150.38-92.11,262.07-241.23,305-417.28H1317a355.83,355.83,0,0,1-317,194.45Z" fill="#00c46b"/></svg>