<svg xmlns="http://www.w3.org/2000/svg" width="512pt" height="512pt" style="isolation:isolate" viewBox="0 0 512 512"><defs><clipPath id="a"><path d="M0 0h512v512H0z"/></clipPath></defs><g fill="#E60011" clip-path="url(#a)"><path d="M259.84 414.604h19.627l-.8-23.415-18.827 23.415Z"/><path d="M371.748 288.463c-52.339 50.961-130.502 18.365-122.583-44.189 6.084-48.322 65.309-96.299 110.072-122.354.124-.077.124-.416 0-.583-5.853-5.506-18.02-18.249-25.94-27.661-21.578-26.17-59.569-27.203-82.18 1.49l-128.781 11.937c-.575 0-.575.666 0 .833l137.963 7.921c24.562 1.374 32.482 23.644 8.952 41.549-87.69 66.457-103.3 136.701-83.788 192.483.116.333-.341.584-.574.249-8.15-11.362-14.118-25.365-17.447-39.942-42.008-26.399-76.212-76.786-76.212-138.997 0-90.444 73.688-164.935 164.821-164.935 91.019 0 164.821 74.491 164.821 164.935 0 48.896-21.463 90.331-49.125 117.304M404 443.108h-79.197l28.121-73.227h34.892l-22.267 57.733h44.419L404 443.108Zm-123.501 0-.575-14.462H248.36l-11.592 14.462h-28.81l58.537-67.833c2.754-3.215 6.887-5.397 10.675-5.397h31.219l7.001 73.228-34.891.002Zm-119.484 2.407c-9.412 0-17.561-.916-24.333-2.407l5.969-15.609c15.954 1.949 29.727.583 35.007-13.429l16.987-44.189h34.893l-18.709 48.666c-9.527 24.906-33.056 26.972-49.814 26.972m349.958-166.887c1.722-16.298 1.263-39.484-1.263-56.7 0-.333-.342-.333-.458 0-5.28 24.906-21.349 58.651-56.241 86.198-.234.332-.575-.078-.343-.333 30.532-32.712 48.781-72.999 51.651-114.434-5.74-22.84-14.692-44.877-26.055-64.39-.124-.251-.342-.077-.342.078 6.198 41.894-3.673 97.217-44.304 142.094-.234.333-.692 0-.458-.332 35.007-50.387 44.074-111.678 28.809-166.887C415.254 40.913 340.419-.062 256.057-.062c-84.476 0-159.312 40.975-206.026 103.988-15.266 55.209-6.199 116.5 28.809 166.887.233.333-.116.666-.458.333C37.866 226.267 27.88 170.945 34.078 129.05c.116-.25-.234-.332-.342-.077-11.248 19.513-20.201 41.55-26.054 64.39 2.871 41.435 21.119 81.722 51.765 114.434.233.249-.234.665-.458.333-34.893-27.547-51.077-61.292-56.242-86.198-.116-.333-.458-.333-.458 0-2.524 17.216-2.984 40.401-1.264 56.7 8.838 27.547 27.662 50.617 46.83 67.26.341.333 0 .665-.342.583-21.463-13.428-33.515-26.514-41.664-37.992-.233-.333-.458-.251-.458.078C29.15 423.569 132.106 512.062 256.066 512.062c123.845 0 226.916-88.493 250.56-203.501.124-.333-.234-.5-.342-.078-8.149 11.478-20.201 24.564-41.779 37.992-.342.078-.692-.249-.342-.583 19.283-16.643 38.107-39.713 46.83-67.26"/></g></svg>