<svg xmlns="http://www.w3.org/2000/svg" xml:space="preserve" id="svg58" width="245.741" height="254" style="clip-rule:evenodd;fill-rule:evenodd;image-rendering:optimizeQuality;shape-rendering:geometricPrecision;text-rendering:geometricPrecision" version="1.1" viewBox="0 0 245.741 253.928"><defs id="defs4"><style id="style2" type="text/css">.fil0,.fil2{fill:#007545;fill-rule:nonzero}.fil2{fill:#044686}</style></defs><g id="ë_x00a0__x02c6_ì_x009d__x00b4_ì_x2013__x00b4__x0020_1" transform="translate(-126.928 -227.348) scale(.20145)"><path id="path7" d="M1240 1747c-130 0-259 13-386 38 103 235 250 387 386 464 135-77 282-229 385-464-127-25-256-38-385-38z" class="fil0" style="fill:#007545;fill-rule:nonzero"/><path id="path9" d="M1549 1331c-58 6-149 12-309-98-161 110-252 104-310 98l-59 60c96-17 225-27 369-27 143 0 272 10 368 27z" class="fil0" style="fill:#007545;fill-rule:nonzero"/><path id="path11" d="m831 1398 93-99s116 41 316-110c199 151 315 110 315 110l94 99c4 1 8 2 11 3l-92-143c-20 9-120 46-328-122-209 168-309 131-329 122l-92 143c4-1 7-2 12-3z" class="fil0" style="fill:#007545;fill-rule:nonzero"/><path id="path13" d="M1240 2377s331-158 419-585c0 0-4 0-4-1-145 371-383 493-415 509-32-16-271-138-416-509 0 1-4 1-4 1 88 427 420 585 420 585z" class="fil0" style="fill:#007545;fill-rule:nonzero"/><path id="path15" d="M1406 1963c-5-65-41-79-65-69-18 7-24 26-15 39-17-6-31 0-36 13s2 28 17 30c10 1 20-4 18-15-1 3-8 7-14 5s-8-8-7-12c1-5 5-9 12-10 8 0 16 4 18 12 6 16-10 34-34 28-22-5-46-34-38-55 4-10 17-13 23-7 1-12-11-19-22-19 0 0 7-2 8-8 0-4-2-9-10-11-20-6-43 9-47-2 0 0-11 16 25 16-19 3-17 19-29 22-4 1-11 0-11-6 5 1 11-5 8-11-5-6-15-3-17 6-3 15 14 30 42 20-15 6-17 24-5 33-2-5 2-14 7-17 0 0 0 18 10 31-12-9-27-9-40-2 3-8 0-19-8-25-9-7-23-10-33-2-16 13-6 33 6 32-3-1-7-11 1-16 7-5 14-1 17 3 4 7 1 18-9 23 0 0-21 9-34-13-7-11-10-29-5-48 2-5 10-34 43-42 0 0-4-7-15-5 1-1 2-1 3-2 35-31 82-33 110-22 0 0-45-29-100-2-65 32-75 108-44 140 17 16 38 14 43 13-2 6 2 20 11 24-35 1-71-27-75-49 2 34 37 71 90 65 26-3 44-20 37-41-4-13-18-19-29-10-7 6-5 16 1 18 9 3 16-4 16-11 7 9 2 21-10 23-16 4-27-11-25-22 2-12 9-18 18-21 19-6 37 6 41 20 9 32-14 55-49 59-30 4-62-8-86-32-36-35-40-114-2-129-3-5-13-6-18 0 7-34 54-81 85-70-1-8-7-10-13-9 23-11 97-29 167 13-33-29-76-44-123-39-64 7-119 51-136 110-14 45-5 88 12 117 22 37 60 53 85 61 16 4 12 19-14 14-22-5-48-23-63-40 9 15 20 27 33 38 40 33 73 18 75 5 1-5-3-10-6-13 15 3 35 4 53 0-4 3-3 8 0 11 13 9 36-2 43 1 11 5-30 37-106 26 37 15 85 12 124-9 11-5 17-14 14-23-2-7-11-12-24-10-14 1-27 4-29 0-1-2 0-5 4-8 18-13 39-41 20-75 23 7 56-7 58-36 8 33-4 73-22 94 44-37 43-101 30-127 1 6-5 11-9 12-9 2-15-4-17-8-4-9 2-19 9-22 19-7 34 5 40 32 12 56-10 112-45 142 35-16 67-69 62-126zm-168-60c13 2 22 1 22 1-4 17-22-1-22-1z" style="fill:#ffe200;fill-rule:nonzero"/><path id="polygon17" d="M851 1428v57h12v-24h27v24h12v-57h-12v22h-27v-22z" class="fil2" style="fill:#044686;fill-rule:nonzero"/><path id="path19" d="M1172 1439h24v17h-27v-14s0-1 1-2c0-1 1-1 2-1zm-12-8c-3 3-3 7-3 9v45h12v-18h27v18h12v-57h-39c-3 0-7 1-9 3z" class="fil2" style="fill:#044686;fill-rule:nonzero"/><path id="path21" d="M1072 1428h-39v57h12v-46h24c1 0 2 0 2 1 1 1 1 2 1 2v43h12v-45c0-2 0-6-3-9-2-2-6-3-9-3z" class="fil2" style="fill:#044686;fill-rule:nonzero"/><path id="path23" d="M1009 1470v3c-1 1-2 1-3 1h-23v-46h-13v57h39c4 0 7-1 10-3 3-3 3-7 3-9v-45h-13z" class="fil2" style="fill:#044686;fill-rule:nonzero"/><path id="path25" d="M1134 1470v3c-1 1-2 1-3 1h-23v-35h23c1 0 2 0 3 1v2zm13-30c0-2-1-6-3-9-3-2-6-3-10-3h-39v57h39c4 0 7-1 10-3 2-3 3-7 3-9z" class="fil2" style="fill:#044686;fill-rule:nonzero"/><path id="polygon27" d="M930 1464v21h13v-21l23-36h-15l-15 25-15-25h-15z" class="fil2" style="fill:#044686;fill-rule:nonzero"/><path id="polygon29" d="M1221 1428v57h13v-57z" class="fil2" style="fill:#044686;fill-rule:nonzero"/><path id="path31" d="M1556 1452v2c-1 1-2 1-3 1h-24v-15h24c1 0 2 0 3 1v1zm2 14c3 0 5-1 7-3 3-2 3-6 3-8v-15c0-2 0-6-3-9-2-2-6-3-10-3h-38v57h12v-18h16l12 18h13z" class="fil2" style="fill:#044686;fill-rule:nonzero"/><path id="polygon33" d="M1415 1485h13v-45h19v-12h-51v12h19z" class="fil2" style="fill:#044686;fill-rule:nonzero"/><path id="polygon35" d="m1279 1449 12 36h11l12-36v36h13v-57h-17l-14 40-13-40h-17v57h13z" class="fil2" style="fill:#044686;fill-rule:nonzero"/><path id="path37" d="M1494 1470c0 1 0 1-1 2h-25c-1-1-1-1-1-2v-27c0-1 0-1 1-2 0-1 1-1 2-1h20c2 0 3 0 3 1 1 1 1 1 1 2zm9-39c-2-2-6-3-9-3h-27c-3 0-7 1-9 3-3 3-3 7-3 9v33c0 2 0 6 3 9 2 2 6 3 9 3h27c3 0 7-1 9-3 3-3 3-7 3-9v-33c0-2 0-6-3-9z" class="fil2" style="fill:#044686;fill-rule:nonzero"/><path id="path39" d="M1376 1470c0 1 0 1-1 2h-25v-31c1-1 2-1 3-1h20c1 0 2 0 2 1 1 1 1 1 1 2zm10-39c-3-2-6-3-10-3h-26c-4 0-8 1-10 3-3 3-3 7-3 9v33c0 2 0 6 3 9 2 2 6 3 10 3h26c4 0 7-1 10-3 2-3 2-7 2-9v-33c0-2 0-6-2-9z" class="fil2" style="fill:#044686;fill-rule:nonzero"/><path id="path41" d="M1617 1451h-24c-2 0-3-1-3-3v-6c0-2 1-3 3-3h32v-11h-35c-8 0-13 4-13 13v9c0 8 4 12 12 12h24c2 0 3 1 3 3v6c0 2-1 3-3 3h-33v11h36c8 0 13-4 13-13v-9c0-8-4-12-12-12z" class="fil2" style="fill:#044686;fill-rule:nonzero"/><path id="path43" d="M1436 1522h-122s15 7 15 25v165c36 1 71 4 107 7 24 2 38-7 38-25v-46c0-18-10-27-35-30 25 0 35-9 35-27v-41c0-18-14-29-38-28zm-14 157c0 4-4 6-9 6-11-1-21-1-32-2v-52c11 1 21 1 31 2 6 0 10 2 10 7zm0-84c0 4-4 7-9 6h-32v-48h31c6 0 10 3 10 7z" class="fil0" style="fill:#007545;fill-rule:nonzero"/><path id="path45" d="M1084 1522H952s14 7 14 25v149c0 22 14 29 38 26 27-3 53-5 80-7 24-1 38-13 38-31v-135c0-17-14-27-38-27zm-14 156c0 4-3 7-9 7-12 1-22 2-34 3-6 0-9-2-9-7v-120c0-4 3-7 9-7 12 0 23 0 34-1 6 0 9 3 9 7z" class="fil0" style="fill:#007545;fill-rule:nonzero"/><path id="path47" d="M1597 1694c0 4-4 7-10 6-10-1-19-2-28-4-6 0-10-3-10-8v-166h-67s15 7 15 26v148c0 18 14 30 39 33 25 4 50 7 75 11 24 5 38-5 38-25v-193h-52z" class="fil0" style="fill:#007545;fill-rule:nonzero"/><path id="path49" d="M1249 1626c-19-35-38-69-57-104h-61s15 7 15 25v-1 166c17-1 34-1 52-2v-104c18 35 36 69 55 104 1 0 32 0 48 1v-189h-52v104z" class="fil0" style="fill:#007545;fill-rule:nonzero"/><path id="path51" d="M730 1552v175c-20 4-42 8-63 13-9 16-18 32-27 49 34-9 71-17 106-25 24-6 38-20 38-44v-198h-82z" class="fil0" style="fill:#007545;fill-rule:nonzero"/><path id="path53" d="M797 1522s14 8 14 30v198c43-8 86-15 129-20v-34l-75 9v-54c22-2 43-4 65-6v-37c-22 1-43 3-65 4v-55c25 0 50-1 75-1v-34z" class="fil0" style="fill:#007545;fill-rule:nonzero"/><path id="path55" d="m1765 1646 68-124h-56l-53 97v-97h-65c0-1 12 8 13 30v200c17 3 35 6 52 10v-101l59 114c18 5 38 10 57 14z" class="fil0" style="fill:#007545;fill-rule:nonzero"/></g></svg>