<svg xmlns="http://www.w3.org/2000/svg" width="512pt" height="512pt" style="isolation:isolate" viewBox="0 0 512 512"><defs><clipPath id="a"><path d="M0 0h512v512H0z"/></clipPath></defs><g clip-path="url(#a)"><path fill="#4E4E4E" d="M55.363 267.702c0 15.953-1.276 21.149-4.558 24.978a19.874 19.874 0 0 1-13.309 5.104l1.276 9.116a31.177 31.177 0 0 0 20.784-7.566 36.46 36.46 0 0 0 8.022-27.347V211.64H55.363v56.062ZM146.46 260.512c0 6.837 0 12.944.547 18.232h-10.848l-.729-10.848a25.246 25.246 0 0 1-22.151 12.397c-10.575 0-23.154-5.743-23.154-29.17v-38.924h12.215v36.463c0 12.671 3.919 21.148 14.95 21.148 2.269.025 4.52-.404 6.621-1.262a17.043 17.043 0 0 0 10.607-15.967v-40.838h12.215v48.405l-.273.364ZM169.614 233.886c0-8.478 0-15.406-.547-21.695h10.939l.547 11.394a26.428 26.428 0 0 1 10.152-9.774 26.426 26.426 0 0 1 13.731-3.17c16.227 0 28.442 13.582 28.442 33.819 0 23.884-14.677 35.734-30.538 35.734a23.607 23.607 0 0 1-20.693-10.483v36.463h-12.033v-72.288Zm12.033 17.776c.033 1.654.216 3.301.547 4.922a18.776 18.776 0 0 0 18.232 14.13c12.853 0 20.419-10.483 20.419-25.707 0-13.309-7.11-24.703-19.964-24.703a20.965 20.965 0 0 0-19.234 19.963v11.395ZM254.641 212.13l14.677 39.289c1.549 4.375 3.19 9.663 4.284 13.582 1.276-4.011 2.644-9.115 4.285-13.856l13.308-39.015h12.854l-18.232 47.402c-9.116 22.789-14.676 34.549-23.063 41.659a33.175 33.175 0 0 1-14.95 7.839l-3.008-10.209a32.376 32.376 0 0 0 10.666-5.925 36.465 36.465 0 0 0 10.3-13.492 9.101 9.101 0 0 0 1.003-2.917c-.103-1.1-.38-2.177-.82-3.19l-24.795-61.349h13.309l.182.182ZM336.476 193.005v19.143h17.503v9.116h-17.503v35.916c0 8.205 2.371 12.945 9.116 12.945a27.352 27.352 0 0 0 7.111-.821l.547 9.116a30.082 30.082 0 0 1-10.848 1.641 16.95 16.95 0 0 1-13.218-5.105 24.52 24.52 0 0 1-4.74-17.32v-36.463h-10.392v-9.116h10.574v-16.226l11.85-2.826ZM376.481 247.569c-.248 3.092.179 6.2 1.251 9.11a21.412 21.412 0 0 0 12.701 12.702 21.425 21.425 0 0 0 9.111 1.251 44.49 44.49 0 0 0 18.231-3.464l2.097 9.116a54.708 54.708 0 0 1-22.334 4.102 30.992 30.992 0 0 1-31.271-20.405 30.978 30.978 0 0 1-1.728-13.141c0-20.055 11.942-35.916 31.449-35.916 21.878 0 27.348 19.143 27.348 31.358a45.55 45.55 0 0 1 0 5.652h-47.129l.274-.365Zm35.733-9.116a17.215 17.215 0 0 0-3.996-13.703 17.24 17.24 0 0 0-12.959-5.987 20.145 20.145 0 0 0-18.687 19.69h35.642ZM441.87 232.859c0-7.84 0-14.586-.547-20.784h10.939v13.035h.546a20.144 20.144 0 0 1 18.232-14.585 13.3 13.3 0 0 1 3.464 0v11.395a18.148 18.148 0 0 0-4.193 0 17.044 17.044 0 0 0-16.317 15.496 33.71 33.71 0 0 0-.547 5.652v35.46h-12.033V232.95l.456-.091Z"/><path fill="#767677" d="M436.516 29.034a30.896 30.896 0 0 1-17.423 29.721A30.903 30.903 0 1 1 404.338.046a30.539 30.539 0 0 1 32.178 28.988Z"/><path fill="#F37726" d="M256.265 386.035c-82.041 0-154.147-29.444-191.431-72.926a204.107 204.107 0 0 0 191.431 133.308 204.1 204.1 0 0 0 191.431-133.308c-37.192 43.482-109.025 72.926-191.431 72.926ZM256.265 103.283c82.042 0 154.148 29.444 191.431 72.926a204.105 204.105 0 0 0-308.068-96.697 204.105 204.105 0 0 0-74.794 96.697c37.284-43.573 109.025-72.926 191.431-72.926Z"/><path fill="#9E9E9E" d="M143.324 470.652a38.929 38.929 0 0 1-21.902 37.465 38.921 38.921 0 0 1-53.59-48.17 38.925 38.925 0 0 1 34.927-25.758 38.554 38.554 0 0 1 27.837 9.828 38.56 38.56 0 0 1 12.728 26.635Z"/><path fill="#616262" d="M74.158 93.374a22.425 22.425 0 1 1 21.787-23.336 22.702 22.702 0 0 1-21.787 23.336Z"/></g></svg>