<svg xmlns="http://www.w3.org/2000/svg" width="2000" height="2000.79" viewBox="0 0 2000 2000.79"><defs><linearGradient id="1" x1="741.83" y1="1259.29" x2="1731.34" y2="269.78" gradientUnits="userSpaceOnUse"><stop stop-color="#1b456e"/><stop offset=".06" stop-color="#1b456e"/><stop offset=".58" stop-color="#00edd3"/><stop offset="1" stop-color="#00edd3"/></linearGradient><radialGradient id="0" cx="1798.33" cy="212.73" fx="1811.23" fy="225.58" r="909.64" gradientUnits="userSpaceOnUse"><stop offset=".59" stop-color="#00edd3"/><stop offset=".92" stop-color="#016681"/></radialGradient></defs><path d="M0,1001c.13,552.29,447.94,999.9,1000.23,999.77s999.9-447.94,999.77-1000.22a1000,1000,0,0,0-27.31-231.89,107.4,107.4,0,1,0-208.79,50.47c100.2,421.85-160.56,845.05-582.41,945.25s-845-160.57-945.25-582.42S396.81,337,818.66,236.74a785.06,785.06,0,0,1,363.61.18A107.6,107.6,0,1,0,1233.87,28l-1.93-.46C694.86-100.64,155.53,230.82,27.32,767.91A999.47,999.47,0,0,0,0,1001" fill="url(#0)"/><path d="M1505.44,269.61c-1.38,1.38-2.37,3-3.76,4.35a159.75,159.75,0,0,0-42.35,94.6h0v17c0,5.74,0,7.71-1.19,11.47-15.33,157-155,271.79-312,256.45a284.28,284.28,0,0,1-37.9-6.3,190.51,190.51,0,0,1-21.37-5.93A376.49,376.49,0,0,0,994.26,631a367.49,367.49,0,0,0-244.8,99c-3.76,3.56-7.72,6.33-11.28,9.89-139.39,149.4-131.18,383.57,18.28,523,142.23,132.62,362.84,132.54,505-.19a378,378,0,0,0,99-348.11c-2.18-6.53-4-13.26-5.54-19.79v-3.17C1319,737.9,1414.59,584.26,1568.3,548.44a286.14,286.14,0,0,1,39.46-6.32h25.73a158.32,158.32,0,0,0,97.56-46.1,141.84,141.84,0,0,0,17-20.78,159.31,159.31,0,0,0-242.63-205.62" fill="url(#1)"/></svg>