<svg height="2098.11" viewBox="0 0 2000 2098.11" width="2000" xmlns="http://www.w3.org/2000/svg"><path d="m1299.22 10.55c-8.07 9.93-7.45 10.56 2.48 2.49s13-13 8.07-13c-1.24-.04-6.21 4.96-10.55 10.51z"/><path d="m1240.87 81.32c-2.49 3.72-3.11 7.45-1.25 9.31 1.25 1.86 4.35-1.24 6.21-6.83 4.35-10.55.62-12.41-4.96-2.48z"/><path d="m1212.31 147.74c-1.86 12.41-1.24 18 2.49 14.27 3.1-3.1 4.34-11.79 3.1-19.86-1.9-12.41-3.1-11.79-5.59 5.59z"/><path d="m1177.55 211.05c0 22.35 1.24 31 2.48 19.87 1.25-10.56 1.25-29.18 0-40.35-1.24-10.57-2.48-1.86-2.48 20.48z"/><path d="m1207.35 202.36c0 6.83 1.86 8.69 3.72 3.73 1.86-4.35 1.24-9.94-.62-11.8-1.86-2.48-3.72 1.24-3.1 8.07z"/><path d="m1211.07 235.88c1.86 11.8 6.21 26.07 8.69 31 3.1 5.59 3.73.62 1.24-12.42-1.86-11.79-6.2-26.07-8.69-31-3.1-5.58-3.72-.61-1.24 12.42z"/><path d="m1170.1 346.37c63.94 81.94 74.49 98.08 83.8 130.36 20.49 68.9 3.11 197.4-33.52 253.89-5 8.06-7.45 14.27-5.58 14.27 9.93 0 49-78.21 60.83-121 27.93-101.8 5-176.29-78.84-257.61-33.52-32.94-41.59-38.53-26.69-19.91z"/><path d="m1225.35 337.68c0 1.25 5 6.21 11.17 10.56 9.31 8.07 9.93 7.45 1.86-2.49s-13.03-13.03-13.03-8.07z"/><path d="m1330.87 404.1c0 2.49 4.35 13.66 9.32 24.83 5 11.8 8.69 16.76 8.69 11.8 0-8.73-17.39-44.73-18.01-36.63z"/><path d="m1350.12 466.18c4.34 8.69 6.2 34.14 4.34 69.52-1.24 30.42-.62 50.28 1.86 44.07 5.59-14.27 6.83-93.11 1.87-113-2.49-7.45-6.21-13.66-9.93-13.66-3.11.03-2.49 6.24 1.86 13.07z"/><path d="m1325.29 494.11c0 6.83 1.86 8.69 3.72 3.73 1.86-4.35 1.24-9.94-.62-11.8-1.86-2.48-3.72 1.24-3.1 8.07z"/><path d="m564.26 550.6c-99.32 23-176.3 87.52-226.58 191.19-42.21 86.9-56.48 147.74-60.21 257.61-5 134.08 14.28 237.12 63.32 339.54l26.07 54.63 4.34-31c19.25-132.84 69.53-239.6 154-325.89l38.49-39.73.62-115.45c.62-98.7 3.1-121.67 14.89-164.5 30.42-109.25 39.73-106.77 45.32 12.41 3.72 78.22 18 191.81 24.83 198.64 1.24 1.24 27.31-10.55 57.73-25.45 56.48-27.93 134.08-54 180-61.45 13.66-1.86 31-5 38.49-6.83l14.28-2.48-13-32.9c-47.85-122.33-122.99-202.41-222.93-237.79-40.92-14.27-103.04-19.24-139.66-10.55z"/><path d="m1343.91 605.85c0 6.82 1.86 8.69 3.72 3.72 1.87-4.35 1.25-9.93-.62-11.79-1.86-2.49-3.72 1.22-3.1 8.07z"/><path d="m1337.7 630.68c0 6.82 1.86 8.69 3.73 3.72 1.86-4.35 1.24-9.93-.62-11.79-1.87-2.49-3.73 1.24-3.11 8.07z"/><path d="m81.94 656.13c-20.49 58.35-47.8 168.22-64.56 262.57-16.14 89.39-17.38 108.01-17.38 257.61 0 153.32 1.24 165.74 17.38 242.09 45.94 211.67 130.36 368.72 270 501.56l44.08 41.59v36c.62 45.32 15.52 75.73 43.45 89.39 19.86 10.55 54.62 11.17 450.66 11.17h428.93l21.11-14.27c27.31-18 42.83-49.66 42.83-85.67 0-27.93 1.24-29.79 67-96.21 58.35-59.59 150.22-181.88 150.22-199.88 0-11.17 22.35-24.83 46.56-28.56 40.34-6.82 102.42-28.55 152.7-54 185-91.87 273.13-289.27 264.44-590.33-3.11-117.94-7.45-135.32-45.94-195.53-57.11-86.91-149-130.36-291.75-136.56l-75.11-3.73-12.41-31.66-11.8-31.66-54-1.86c-29.18-.62-53.39 0-53.39 1.86s6.83 17.39 15.52 34.77c22.35 42.83 43.45 104.9 59.59 170.08 18.63 73.87 20.49 258.85 4.35 332.1-34.76 153.94-93.11 266.3-194.29 371.82-170.09 178.16-399.14 253.89-640 211.06-255.13-44.7-480.46-256.37-557.43-523.29-23-78.21-30.42-153.95-26.69-255.13 5-116.08 23-189.32 72.63-298.57 9.93-23 18.62-42.21 18.62-43.46s-26-2.43-57.66-2.43h-57.11zm1671.66 194.29c46.56 14.28 81.32 41 100.56 76.35 13 24.21 13.66 32.9 12.42 140.91-1.25 134.7-14.28 210.43-49.66 284.92-27.94 58.35-83.8 115.46-139.05 142.77-48.42 23.59-64.56 24.83-59 5 2.48-7.45 11.79-47.18 20.48-88.15 15.52-69.52 16.76-85.66 16.76-232.78.62-122.9-1.86-171.32-9.93-217.26-6.21-32.28-12.41-73.87-14.9-91.87l-4.28-32.31h44c25.49 0 59.63 5 82.6 12.42z"/><path d="m1316 673.51c-5.59 16.14-4.35 19.86 3.1 7.45 3.72-6.21 5.59-13 3.72-14.28-1.26-1.86-4.36 1.24-6.82 6.83z"/><path d="m992.57 897.6c-184.36 25.45-350.72 114.21-447.56 239-106.14 137.19-111.73 293.61-15.52 424 27.94 37.86 55.25 59.59 105.53 84.42 107.39 53.38 270.64 49 402.86-9.93 67-29.8 83.18-38.49 131-69.52 102.42-65.18 183.12-168.23 208.57-265.06 12.41-47.8 11.79-122.29-.62-165.12-42.21-144.63-154-228.43-316-237.74-27.29-1.3-57.71-1.3-68.26-.05zm298 243.33c-3.73 2.48-34.14 16.14-67.67 29.17-57.72 23-106.76 50.28-295.47 167-118.6 72.61-199.92 100.54-310.43 106.75-75.73 5-76.35.62-3.1-28.55 65.79-25.46 130.35-60.84 237.12-129.74 173.19-110.49 271.89-149 386.72-149.6 31.68.04 55.89 2.48 52.79 4.97z"/></svg>