<svg xmlns="http://www.w3.org/2000/svg" width="512pt" height="512pt" style="isolation:isolate" viewBox="0 0 512 512"><defs><clipPath id="a"><path d="M0 0h512v512H0z"/></clipPath></defs><g clip-path="url(#a)"><path fill="#FFF" d="M511.962 256.038c0 71.203-57.665 128.924-128.849 128.924-71.203 0-128.943-57.721-128.943-128.924 0-71.261 57.74-128.982 128.943-128.982 71.184 0 128.849 57.721 128.849 128.982Z"/><path fill="#ED192D" d="M438.47 178.294c39.263 12.052 67.828 48.607 67.828 91.912 0 6.369-.648 12.471-1.792 18.401l-.153.839a109.312 109.312 0 0 1-19.66 45.937l-.19.211c17.2-21.891 27.497-49.579 27.497-79.67 0-71.203-57.76-128.982-129.02-128.982-32.417 0-62.012 11.995-84.704 31.769l-.324.287c-17.867 16.399-29.022 39.949-29.022 66.092 0 10.774 1.868 21.224 5.415 30.835l.173.457c8.981 19.603 28.794 33.295 51.791 33.295 31.406 0 56.92-25.438 56.92-56.902l-.172-24.484c0-11.175 6.292-21.052 15.541-26.086l.092-.028c7.227-3.947 15.484-6.274 24.37-6.274 5.358 0 10.488.801 15.331 2.346l.077.062"/><path fill="#1C4E9D" d="M284.318 338.987c23.664 28.146 59.132 46.071 98.795 46.071 32.437 0 62.127-11.976 84.781-31.75l.305-.229c17.867-16.456 29.042-40.006 29.042-66.13 0-10.793-1.907-21.224-5.435-30.854l-.173-.401c-9-19.717-28.755-33.37-51.81-33.37-31.406 0-56.882 25.456-56.882 56.863l.172 24.561c0 11.193-6.292 21.033-15.56 26.067l-.092.062c-7.227 3.947-15.541 6.254-24.331 6.254-5.397 0-10.546-.877-15.37-2.345l-.062-.076c-39.282-12.09-67.847-48.664-67.847-91.893 0-6.312.628-12.49 1.792-18.459l.107-.8c2.994-17.01 9.897-32.589 19.737-45.918l.122-.209c-17.162 21.891-27.478 49.579-27.478 79.612 0 20.69 4.9 40.312 13.558 57.664l-1.068.801s-4.996 3.833-15.16-7.78c-10.126-11.708-69.62-83.655-69.62-83.655s37.756-40.464 74.711-56.787c0 0 9.668-3.127 7.38-11.651l-1.583-5.091s-.323-5.473-8.943-4.31c-8.543 1.202-49.026 4.31-89.433.401 0 0-6.235 0-8.562 5.111 0 0-3.928 6.597 0 10.43 3.909 3.947 17.925 13.654 17.925 26.868 0 0 3.032 9.765-18.306 25.286-21.432 15.597-34.628 25.685-43.552 30.395l.343-36.575s-1.144-30.719 21.033-45.174c0 0 5.416-2.288 3.49-7.341l-1.506-3.89s-1.24-6.255-7.837-5.511c0 0-38.462 4.309-115.138.801 0 0-5.072-.401-6.979 3.508l-1.545 3.09s-2.727 7.055 1.545 10.144c4.309 3.108 22.177 13.654 22.978 45.861 0 0 1.926 61.096-.801 84.818-2.746 23.76-4.653 37.375-23.722 54.06 0 0-5.053 3.967-2.727 9.764l2.727 5.034s1.926 3.909 8.524 3.165c6.636-.801 54.48-5.511 115.138-.801 0 0 4.309 1.545 6.235-2.707l2.727-5.454s3.108-5.435-2.727-9.744c-5.854-4.291-21.414-16.686-21.757-40.808-.381-24.122-.381-39.396-.381-39.396s10.506 4.329 66.474 87.221c0 0 19.85 35.773 61.84 13.634 0 0 30.72-16.742 43.553-27.631l1.355-.8"/></g></svg>