<svg xmlns="http://www.w3.org/2000/svg" viewBox="0 0 100 21.705"><radialGradient id="a" cx="22.432" cy="3.493" r="21.679" gradientTransform="translate(-4.484 -2.126) scale(1.0856)" gradientUnits="userSpaceOnUse"><stop offset=".003" stop-color="#e44857"/><stop offset=".469" stop-color="#c711e1"/><stop offset="1" stop-color="#7f52ff"/></radialGradient><path d="M94.516 5.982c-1.173 0-2.204.282-3.084.858-.706.456-1.27 1.064-1.715 1.824l-.021-2.322H86.6v15.025h3.225v-8.403c0-.814.151-1.532.466-2.162.304-.63.74-1.117 1.305-1.465.565-.347 1.215-.521 1.975-.521.673 0 1.26.141 1.738.424.489.282.846.693 1.096 1.215.25.532.369 1.163.369 1.89v9.022h3.224v-9.479c.022-1.162-.217-2.182-.662-3.072a5.097 5.097 0 0 0-1.922-2.084c-.825-.5-1.79-.75-2.898-.75zM79.706.033v3.31h3.258V.034zm0 6.309v15.025h3.225V6.342zM72.844 0v21.367h3.225V0zm-9.185 2.584v2.55c0 .403-.098.708-.293.903-.195.196-.5.305-.912.305H60.9v2.703h2.703v8.088c0 .836.174 1.586.51 2.226.337.641.825 1.14 1.455 1.487.63.347 1.38.533 2.238.533h2.42v-2.813h-1.824a1.5 1.5 0 0 1-1.15-.488c-.293-.326-.434-.76-.434-1.303v-7.72h3.496V6.342H66.82V2.584zM52.496 5.982c-1.498 0-2.834.337-4.018 1.01a7.199 7.199 0 0 0-2.767 2.791c-.663 1.195-.988 2.552-.988 4.06 0 1.521.325 2.867.988 4.062a7.003 7.003 0 0 0 2.746 2.79c1.183.674 2.52 1.01 4.017 1.01 1.477 0 2.803-.336 3.975-1.01a7.09 7.09 0 0 0 2.725-2.79c.651-1.195.976-2.552.976-4.061 0-1.52-.325-2.866-.976-4.06a7.019 7.019 0 0 0-2.725-2.792c-1.162-.673-2.476-1.01-3.953-1.01zm-.021 2.899c.836 0 1.585.207 2.248.63a4.259 4.259 0 0 1 1.52 1.749c.357.75.532 1.606.532 2.594.011.977-.164 1.835-.533 2.584-.358.749-.868 1.335-1.52 1.748-.65.423-1.41.63-2.257.63-.858 0-1.618-.207-2.291-.63a4.333 4.333 0 0 1-1.553-1.748c-.369-.75-.555-1.607-.555-2.584 0-.977.186-1.845.555-2.594.37-.75.89-1.336 1.553-1.748.662-.424 1.432-.631 2.3-.631z"/><path d="m41.248.793-8.88 9.479V.824h-3.28v20.543h3.28v-9.955l8.913 9.955h4.223l-9.5-10.629L45.33.793z"/><path fill="url(#a)" d="M20.554 21.368H0V.825h20.554L10.065 10.944z"/></svg>