<svg height="374.165739" viewBox="0 0 500 700" width="267.261242" xmlns="http://www.w3.org/2000/svg"><g transform="matrix(1.0062764 0 0 1.0009603 -2.576233 -.19675)"><path d="m215.07695 699.01953c-59.83049-3.01552-117.166226-12.36511-160.688008-26.20296l-12.3269-3.91936-.269797-6.8958-.269797-6.89579-6.673918-.39255c-8.273428-.48664-18.473267-2.55513-26.9704005-5.4695-6.1762188-2.11834-6.3478866-2.25519-3.6792304-2.93298 6.8372179-1.73652 20.0614069-10.77575 20.0614069-13.71271 0-.49374-1.916523-2.76085-4.258941-5.03802-5.846071-5.68322-12.4839469-20.53125-12.5255806-28.01804l-.011075-1.99151 5.6678336 2.28995c7.393051 2.98696 18.319806 3.68879 34.339222 2.20562 14.296558-1.32366 19.449204-.55653 24.487894 3.64583 3.087462 2.57499 3.163821 2.81441 3.620526 11.35202l.466545 8.72154 12.596698 3.01051c32.211642 7.69831 73.490772 13.5267 114.287432 16.13676 19.16607 1.22619 75.75185 1.22364 95.65753-.005 40.90947-2.52364 81.98722-8.29767 114.76991-16.13245l12.5967-3.01051.46654-8.72155c.45796-8.56112.5253-8.77055 3.66012-11.38508 4.80291-4.00578 10.72133-4.97739 22.86169-3.75315 18.50261 1.86581 31.05082.83325 38.84066-3.19609 2.65969-1.37573 2.75263-1.35201 2.74193.69996-.0392 7.5403-6.58174 22.30097-12.51508 28.23586-2.3482 2.34881-4.26945 4.62603-4.26945 5.06047s1.85163 2.49712 4.11474 4.58371c4.25865 3.92653 11.07907 7.7849 15.94667 9.02118 2.66865.67779 2.49699.81465-3.67923 2.93299-8.51312 2.91985-18.09352 4.85683-26.68535 5.39527l-6.95897.4361-.26988 6.91647-.26989 6.91645-12.32681 3.8799c-41.42248 13.03818-89.79821 21.46997-145.29195 25.32441-19.87832 1.3807-67.93817 1.8807-87.24379.90768z" fill="#fe0000"/><path d="m75.285156 612.41602c-5.665812 5.35807-24.197605-.38674-33.201172 2.35742 11.257986 3.6976 22.19645 8.24158 33.957032 10.875l-.460938-8.60547c-.104098-1.94601-.190183-3.41727-.294922-4.62695z"/><path d="m426.73242 612.19336c-.11275 1.24137-.20061 2.79454-.31054 4.84961l-.4629 8.66211c11.85229-2.6249 22.86242-7.2088 34.19727-10.93164-9.12504-2.78119-28.03781 3.15777-33.42383-2.58008z"/><g fill="#fff"><path d="m58.74803 666.25596 23.99037 5.66978 1.80837-7.65171-15.25841-3.60611 5.63787-23.85533-8.73195-2.06368z"/><path d="m84.78831 672.28698 8.82152 1.87578 6.73357-31.66701-8.82152-1.87578z"/><path d="m97.47735 675.08572 8.73399 1.60367 3.20733-17.46799 10.39405 19.96536 7.73322 1.41992 5.8467-31.84269-8.73399-1.60367-3.0904 16.83114-10.0106-19.23664-8.2336-1.51179z"/><path d="m146.58512 684.02941c7.09659 1.0146 11.60997-1.47039 15.2274-5.20475l-6.00377-5.71727c-2.25678 2.06009-4.44806 3.33529-7.79033 2.85745-4.48687-.64148-7.10925-4.84747-6.42194-9.65483l.0131-.0916c.66767-4.67002 4.37009-8.01847 8.85697-7.37698 3.06755.43856 4.96417 2.20477 6.46826 4.75582l7.4242-4.21796c-2.2757-4.3433-6.09512-7.69257-12.6423-8.62862-9.7063-1.3877-17.94178 4.91013-19.27711 14.25015l-.0131.0916c-1.36807 9.56895 5.00173 17.62784 14.15862 18.93699z"/><path d="m177.86962 687.78988c9.94055.99273 18.14511-5.76416 19.0689-15.01439l.009-.092c.92379-9.25023-5.69963-17.39498-15.64019-18.38771-9.94055-.99273-18.14511 5.76416-19.06889 15.0144l-.009.092c-.92379 9.25024 5.69964 17.39499 15.64019 18.38771zm.89634-8.04449c-4.87824-.48718-7.83333-4.87254-7.36914-9.52066l.009-.092c.46419-4.64813 4.12694-8.27962 9.00518-7.79245 4.92425.49177 7.87935 4.87713 7.41515 9.52526l-.009.092c-.46419 4.64813-4.12694 8.27963-9.05119 7.78786z"/><path d="m197.9635 688.97217 24.60907 1.4414.45973-7.84904-15.65192-.91677 1.43329-24.47056-8.95715-.52464z"/><path d="m224.46697 690.53105 8.8786.15777.31554-17.7572 13.51103 18.00289 7.86126.13969.5752-32.36989-8.8786-.15777-.30403 17.1098-13.01387-17.34645-8.36992-.14873z"/><path d="m287.20713 690.76126c7.16151-.32218 11.13433-3.6028 13.9946-7.94448l-6.96186-4.50166c-1.83452 2.44366-3.75059 4.10396-7.12343 4.25569-4.52792.20371-7.88639-3.44153-8.10465-8.29288l-.004-.0924c-.21202-4.71274 2.80348-8.69103 7.3314-8.89474 3.09562-.13926 5.28748 1.24362 7.23954 3.47064l6.5108-5.52444c-3.04337-3.84461-7.41878-6.42557-14.02585-6.12833-9.79509.44066-16.71643 8.15953-16.29239 17.585l.004.0924c.43443 9.65649 8.19118 16.39093 17.43183 15.9752z"/><path d="m303.44346 689.1752 8.99268-.68534-2.4602-32.28139-8.99267.68535z"/><path d="m324.26835 687.41533 8.92298-.94143-2.57195-24.37719 9.65889-1.01908-.82497-7.8191-28.24075 2.97958.82497 7.8191 9.65889-1.01907z"/><path d="m354.01814 683.83569 8.92161-1.32011-1.794-12.12424 9.22512-21.70283-9.92815 1.46905-4.90772 12.64835-8.31457-10.69187-10.11116 1.49613 15.13517 18.23854z"/><path d="m388.4669 678.1907 8.78312-1.83372-2.36304-11.31846 14.98563-3.12866-1.52179-7.28909-14.98564 3.12867-1.12481-5.38759 16.57022-3.45949-1.60687-7.69655-25.35334 5.29321z"/><path d="m431.1338 669.25334c6.95187-1.74999 10.18714-5.75982 12.11988-10.5864l-7.72241-3.0161c-1.30792 2.76158-2.85264 4.77198-6.12675 5.59617-4.39537 1.10645-8.41588-1.79229-9.60136-6.50162l-.0226-.0897c-1.1516-4.57478 1.00601-9.07642 5.40138-10.18287 3.00501-.75644 5.42943.15943 7.78798 1.95036l5.27241-6.71652c-3.75171-3.15717-8.5554-4.80951-14.96906-3.19501-9.50837 2.39354-14.7435 11.34224-12.44028 20.4918l.0226.0897c2.35966 9.37381 11.30805 14.41825 20.27821 12.16019z"/></g></g><path d="m362.53783 132.10096c-10.97454-.88826-12.23379.87205-16.92799 10.35945-2.35729 4.76428-2.78694 6.55288-2.30081 9.57776 1.12951 7.02803-4.74493 18.19209-12.48313 23.7235-3.5515 2.53869-4.68049 4.02629-5.51978 7.27307-3.89714 15.07612-5.53004 22.86593-4.92832 23.51077.38212.40953 3.69873 1.78404 7.37024 3.05443 7.75936 2.6849 22.98405 4.38299 32.0264 3.57211 9.02631-.80946 22.80081.96231 27.37711 3.52142 2.19847 1.2294 5.16257 4.20025 7.1236 7.13983 8.13846 12.19953 24.42705 51.42766 29.54887 71.16316 3.49437 13.46455 3.78117 22.54141.94535 29.91876-2.24639 5.84394-14.90484 29.23268-19.1474 35.37825-9.04116 13.09656-29.43967 29.44828-42.85191 34.35067-6.37842 2.33141-9.91573 5.30349-12.28766 10.32418l-2.11502 4.47693 2.69307 1.86433c4.9925 3.45617 14.34307 13.37171 18.22827 19.32965 4.95957 7.60552 10.24477 18.65037 14.00738 29.27216 4.3519 12.2854 2.97265 16.25949-5.66382 16.31932-9.85433.0683-24.92374-6.8987-36.55782-16.9016-4.10964-3.53344-7.88637-6.42444-8.39274-6.42444-1.46414 0-3.52461 8.03756-8.99134 35.07368-8.5456 42.26303-12.01937 64.63718-12.10522 77.96811-.0672 10.44216.21899 12.617 2.70488 20.55305 3.15902 10.08497 3.86195 22.10112 1.54539 26.41726-2.30206 4.28913-9.68075 6.00723-18.88811 4.39804-13.19497-2.30613-14.37817-2.26308-22.98628.83604-8.77975 3.16093-12.3668 3.57495-14.91447 1.72139l-.00005-.00007c-2.43398-1.77082-3.50491-7.9181-2.47562-14.21049 1.3065-7.98711 5.50914-16.05768 11.57861-22.23505 2.92267-2.97463 6.0215-6.75826 6.88629-8.40807 2.0414-3.89445 2.06068-11.39041.0643-24.95406-.86975-5.90901-2.01647-14.83773-2.54822-19.84163-.68386-6.43499-1.84531-11.22035-3.96811-16.34902-4.14708-10.01919-4.27263-19.40905-.37806-28.27119 4.41502-10.04644 4.3426-10.87264-1.7983-20.51086-3.16319-4.96469-6.01144-8.44996-6.90512-8.44951-2.11233.00094-13.20965 2.32776-28.75054 6.02791-25.10076 5.9763-41.22239 7.57003-52.58094 5.19801-6.41768-1.3402-23.87787-7.3997-29.40258-10.20403-2.0341-1.03251-3.96173-2.56018-4.28364-3.39484-1.3803-3.57895-.57729-20.84258 1.23967-26.65118l1.82494-5.83408-8.63228-8.9861c-4.74778-4.94234-11.00339-11.70843-13.90139-15.03575-3.59097-4.12295-7.69309-7.47749-12.88026-10.53292-5.25312-3.09427-9.43867-6.53182-13.509823-11.09548-3.244251-3.63673-8.32328-8.25299-11.286733-10.25836-6.206623-4.2-8.737291-6.67826-10.775456-10.55227-1.712766-3.25551-1.841092-11.60154-.224588-14.60684.909454-1.69079.798848-4.80555-.550641-15.50659-1.480005-11.73601-1.548771-14.91951-.556464-25.76088.622724-6.8035 1.711271-15.60465 2.418996-19.55807 2.695741-15.05867 12.966937-33.40247 26.343589-47.04821 7.71413-7.86931 9.39143-9.0741 19.24837-13.82596 11.40729-5.49926 23.22702-9.30677 34.2096-11.02002 7.38839-1.15258 13.53967-4.15976 15.92824-7.78686 1.28643-1.95347 1.39909-3.04274.6079-5.87723-.53414-1.91364-.97353-4.61753-.9764-6.00864-.004-1.81182-.98171-3.26938-3.44754-5.13827-6.11619-4.63553-7.67426-6.5233-8.79156-10.65177-.78632-2.90548-2.54172-5.43472-6.19782-8.93001-7.2284-6.91044-9.08447-11.52721-8.30939-20.66859.33584-3.96088.22439-8.21207-.24767-9.44711-.84603-2.21343-.95779-2.15961-7.8263 3.76845-9.87823 8.52566-11.8576 9.74738-18.54593 11.44704-8.02148 2.03846-13.52896 1.91105-18.11961-.41917-2.090943-1.06137-6.193725-2.34943-9.117309-2.86239-4.351218-.76343-6.843284-2.06588-13.736159-7.17898-6.88854-5.10991-8.748423-7.03414-10.222598-10.57633-1.166252-2.80229-1.577185-5.22132-1.164733-6.85642.755426-2.99474 11.715487-14.01539 17.659051-17.75669l4.185613-2.63472-2.597021-6.654571c-5.011807-12.842045-5.866083-28.471014-2.301855-42.111376 2.614902-10.007275 9.220793-21.964422 16.054601-29.059992 3.41172-3.542399 5.90197-5.599923 5.53389-4.572274-1.32723 3.705492-1.62442 23.022099-.43663 28.379139 3.28277 14.805529 13.06955 25.25623 23.71009 25.318553 3.0644.0179 3.57464-.301264 4.07385-2.54862 1.40442-6.322454 3.53837-11.600067 6.12926-15.158718 2.63463-3.618747 9.40326-8.679152 13.22194-9.885059 1.04346-.329516 1.70962-1.435815 1.70962-2.839149 0-3.504925 5.29063-13.171875 9.88137-18.055109 6.6349-7.057621 11.26254-8.889854 23.41139-9.269318l10.28859-.321359 4.69219-4.197501c10.65982-9.53597365 18.9453-11.0661792 35.29259-6.5180158 10.2775 2.8594183 13.03751 2.9865027 22.06521 1.0159622 3.61494-.7890445 9.53029-2.0744277 13.14523-2.8563903 10.31067-2.2303523 15.00553-1.24841025 24.2303 5.0677994 7.98292 5.4659055 15.05217 8.5112405 19.90011 8.5726995 5.32964.06757 10.1163 2.058225 14.44294 6.006474 2.38478 2.176226 6.32252 5.089758 8.75053 6.474512 2.428 1.384766 5.14932 3.755341 6.04734 5.267954.89803 1.512614 2.85583 3.25426 4.35066 3.870326 4.08183 1.682264 5.37257 3.404691 5.39571 7.200308.0391 6.402692 3.43151 24.12472 5.1828 27.074525 1.88257 3.170929 7.15507 5.790342 11.65515 5.790342 5.5744 0 11.02899-3.399649 13.72465-8.554094 2.4961-4.772854 6.09872-19.012702 7.00138-27.673938.50069-4.804296 1.38883-9.624633 1.97363-10.711863 1.04427-1.941438 1.08767-1.944541 2.42678-.173517 2.70502 3.577469 11.59396 22.026006 13.88609 28.819849 2.83212 8.394329 2.97119 14.761012.46575 21.319779-2.72192 7.125498-2.52555 7.826746 2.96716 10.596141 9.43219 4.755649 17.62318 15.412071 17.66855 22.986651.023 3.84068-4.19464 15.47107-7.87856 21.72564-4.25404 7.22252-14.12944 10.27593-28.85133 8.92066-9.32211-.85818-15.08891-3.10986-19.11672-7.46426-2.06609-2.2336-4.05247-2.9569-4.87699-3.30598z" fill="#fe0000"/><g fill="#fff"><path d="m399.12688 138.61071c7.48193-.85915 11.63729-2.83755 11.26593-5.36384-.38932-2.64845-4.51683-3.80748-10.16153-2.85341-2.32389.3928-6.29115.46798-8.81615.1671-4.51415-.53793-6.70143-2.1344-9.51625-6.94579-.63071-1.07805-2.88181-1.94378-6.53738-2.51415-8.08302-1.26117-12.96432-3.69845-15.46274-7.72066-3.06537-4.93499-5.16062-4.21883-9.36799 3.20198-2.77237 4.88983-3.891 6.07251-5.74376 6.07251-2.18046 0-2.3065-.30034-2.40884-5.7398-.0818-4.34746-.83749-7.29354-3.11528-12.14499-4.34224-9.248481-4.26047-9.129004-6.88568-10.060209-1.96968-.698671-2.93849-.403926-5.37373 1.634905-1.63396 1.367976-3.53464 2.487236-4.22375 2.487236-1.41879 0-4.86221 3.940498-7.24457 8.290328-1.20815 2.2059-2.2482 2.92043-4.25091 2.92043-1.77078 0-3.47236.93086-5.12315 2.80269-2.22796 2.52627-3.02436 2.80269-8.07516 2.80269-5.85198 0-8.22545 1.31659-7.19411 3.9907.5718 1.48262 5.07529 2.86519 13.09757 4.02094 3.64309.52486 5.34067 1.37748 7.57824 3.8062 1.58592 1.7214 3.57142 3.12982 4.4122 3.12982 1.75528 0 5.1899-4.26094 8.13206-10.08848 1.11516-2.20879 2.67066-4.26154 3.45667-4.56164 3.20239-1.22271 3.37138 1.2308.9155 13.29285-1.33621 6.56272-2.43523 13.4416-2.44227 15.28638-.0284 7.45433-2.42609 9.8865-3.95579 4.01283-1.07925-4.14405-3.86979-5.47175-6.33827-3.01567-1.04467 1.03944-1.90201 2.83577-1.90519 3.99188-.002 1.15611-.61758 3.26898-1.36532 4.69528-.74774 1.42628-1.76954 4.78951-2.2707 7.47383-.50114 2.68433-1.36559 6.06406-1.921 7.51053-.55539 1.44648-1.00982 3.83154-1.00982 5.30013 0 3.53448 4.15883 8.41895 7.16824 8.41895 2.77916 0 6.91594-3.86013 6.91594-6.45343 0-1.30185 1.22269-2.40536 4.03823-3.64454 6.51817-2.86882 10.77532-7.19399 12.38318-12.58104 2.1444-7.18471 1.88625-10.44131-.92882-11.71751-3.3206-1.50536-2.94557-3.15398 1.8848-8.28582 2.32767-2.47293 5.17972-6.50952 6.33788-8.97016 2.42969-5.16221 3.75043-5.71667 12.32342-5.17354 4.59233.29096 6.91306 1.00588 10.2044 3.14356l9.24433 3.79985z"/><path d="m308.43206 608.83043c2.84744-3.81154 3.19687-12.14554.85863-20.47808-1.07901-3.84514-2.25056-9.51359-2.60342-12.59654-.35288-3.08296-2.05494-10.40291-3.78238-16.26656-2.29055-7.7751-3.15543-12.58028-3.1949-17.75037-.0298-3.89905-.35132-8.75548-.71458-10.79209-.62436-3.50042-.75912-3.20369-2.46453 5.42632-.99222 5.02108-2.32634 9.8399-2.96467 10.70852-2.89217 3.93538-3.42179-8.19944-1.37852-31.58363 1.1455-13.10949 1.11957-14.8231-.27395-18.09825-1.19184-2.8011-1.8162-3.389-2.76618-2.60453-.93325.77062-1.58786.40667-2.73501-1.52059-2.68081-4.50394-6.25341-7.26616-7.98903-6.17686-5.94742 3.73271-5.06799 21.79359 1.94357 39.91451l2.95515 7.63743-.21263 18.50786c-.24644 21.4506-.5104 22.38446-8.19284 28.98368-5.92155 5.08662-9.79424 12.36844-10.57356 19.88149-.49506 4.77255-.41161 5.02976 1.63202 5.02976 1.18456 0 4.79815-1.47141 8.03021-3.26981 7.56682-4.21034 10.43304-4.23241 13.74231-.10574 1.39553 1.7402 4.77573 4.27822 7.51157 5.64002 6.22329 3.09776 10.61629 2.9355 13.17274-.48654z"/><path d="m303.47667 496.61548c.98085-6.10911.67799-8.16668-2.26174-15.36599-1.49059-3.65039-1.49023-4.07191.006-6.95096 1.536-2.95537 1.52362-3.12075-.34643-4.62741-1.06664-.85937-3.69103-1.84121-5.83194-2.18183-2.87918-.45809-5.15467-1.79573-8.7403-5.13788-12.18755-11.36005-13.63125-7.22661-4.47499 12.8123 2.50599 5.4845 4.86451 11.02283 5.24116 12.3074 1.20105 4.09624 3.26589 6.53961 5.5265 6.53961 1.71789 0 2.40898.77006 3.27645 3.65089.60465 2.008 1.79012 5.26613 2.63439 7.24028l1.53503 3.58938 1.23867-2.95324c.68127-1.6243 1.66996-5.63945 2.19709-8.92255z"/><path d="m374.47215 465.69308c.69861-1.81141-5.77815-23.66633-8.75627-29.54682-2.93197-5.78934-14.1265-17.68511-18.94847-20.13544-3.19109-1.62158-3.25253-1.61458-5.06602.57647-1.00968 1.21987-3.06677 4.81369-4.57134 7.98628-2.49215 5.25508-2.64319 6.12789-1.69741 9.80941 2.29346 8.92733 3.14337 10.16652 15.0345 21.9207 4.00999 3.96381 17.03937 10.61437 20.79499 10.61437 1.50566 0 2.95017-.55123 3.21002-1.22496z"/><path d="m303.22402 462.18467c4.03396-1.52074 6.86848-4.62385 6.86848-7.51932 0-1.42158-.34208-2.79505-.76019-3.05215-.4181-.25711-3.61558.39971-7.10552 1.45962-6.12338 1.85968-6.47273 1.86993-9.98719.29309-4.08639-1.83344-6.55967-1.37534-6.55967 1.21499 0 2.35087 3.73933 5.68105 8.12674 7.23753 4.44555 1.57709 6.04088 1.63914 9.41735.36624z"/><path d="m179.81387 452.47293c2.89349-1.23698 1.80883-3.21654-5.88331-10.73751-8.6206-8.42874-15.53101-13.31532-18.27649-12.92394-3.20976.45758-5.65561 6.75886-5.61299 14.46091.056 10.14223.41532 10.37328 15.72388 10.11351 6.82316-.11574 13.14517-.52663 14.04891-.91297z"/><path d="m198.96201 449.62291c.71133-1.84436-1.30292-4.22513-3.01999-3.56954-1.37875.52642-1.82532 3.25403-.71381 4.35996 1.10738 1.10183 3.17264.66462 3.7338-.79042z"/><path d="m186.51888 441.13655c1.91784-.73226 2.90513-6.19266 1.56887-8.67694-.57902-1.07645-2.41342-2.63692-4.07646-3.46771-4.24325-2.11976-12.88267-10.70606-12.88267-12.80346 0-1.48616.68529-1.24585 4.59936 1.61289 2.52963 1.84761 7.80047 4.81076 11.71298 6.5848 7.2565 3.29028 18.72352 11.48757 19.73368 14.10676 1.02837 2.66648 2.6777.28332 2.12962-3.07713-.70398-4.31626-4.57432-9.1911-9.13532-11.50625-4.36977-2.21811-8.91766-8.07998-10.33662-13.3231-1.25859-4.65057-.76077-5.00793 7.2829-5.22812 5.93331-.16241 6.24873-.052 10.19984 3.57177 4.96815 4.55649 8.05125 5.494 11.23713 3.41702 1.79214-1.16837 2.34052-2.3305 2.34052-4.96009 0-2.93126-.71529-4.1024-4.88393-7.99647-7.17531-6.70269-10.96414-8.30882-21.40542-9.07397-4.9066-.35956-10.39992-1.31384-12.20739-2.1206-1.80748-.8068-4.61426-1.95446-6.2373-2.55038-1.62303-.59592-5.77385-3.78377-9.22403-7.0841s-6.67121-6.0006-7.15788-6.0006c-.48664 0-1.58116 1.45293-2.43227 3.22873-.85109 1.77581-2.16689 3.46525-2.92402 3.75432-3.7493 1.43152-19.91071-12.9507-19.91071-17.71875 0-3.83603-1.60358-5.94257-6.13815-8.06336-3.18092-1.48771-4.79685-3.08174-6.76664-6.675-3.14404-5.73528-5.99129-7.10739-8.84873-4.26429-1.86586 1.85649-1.9547 2.62159-1.40805 12.1276.63217 10.99325 2.06817 15.20094 5.54604 16.25058 1.16762.35238 2.97375 1.41311 4.01364 2.35718 2.75387 2.50014 7.68824 4.29289 13.8482 5.03133 4.63356.55545 5.60221 1.01743 6.74545 3.21711.73422 1.41267 1.99658 3.11486 2.80524 3.78264 3.54509 2.92737.24524 3.81055-5.42692 1.45246-4.34031-1.80438-11.29598-1.82782-12.78466-.043-1.6119 1.93247 2.57134 6.86433 16.39561 19.32977 6.19704 5.58791 12.56657 11.94243 14.15449 14.12116 2.22988 3.05951 4.26058 4.50587 8.91999 6.35325 4.6946 1.86136 6.37805 3.06725 7.58912 5.43634 2.16199 4.22922 4.53428 6.69588 7.83315 8.14472 3.29588 1.44753 3.60277 1.4893 5.53134.75297z"/><path d="m233.56847 439.28117c6.19704-.79165 17.81648-1.77314 25.82099-2.18105 8.00451-.40793 15.27262-1.0498 16.15139-1.4264 2.02011-.86571 3.38783-5.14176 3.75196-11.73022.24164-4.3722.0499-5.09984-1.28578-4.88052-1.89265.31075-10.25741 5.27091-15.05616 8.92804-4.06651 3.09908-6.24424 2.96707-8.19834-.49691-1.89163-3.35321-.26449-9.63209 4.26685-16.46533 5.22522-7.87959 4.61913-9.04575-6.672-12.83738-5.1642-1.73417-11.16439-3.16563-13.33376-3.18104-5.63279-.04-13.46956 1.80013-14.0474 3.29838-.27055.70152.18106 3.94547 1.0036 7.20877 1.485 5.89154 2.05334 18.49377.88643 19.65483-.335.33332-2.23758-.85782-4.22797-2.64698-4.15914-3.73866-5.68639-3.99318-8.30819-1.38455-2.4559 2.44357-2.36983 5.2073.3529 11.33142 1.22691 2.75967 2.48123 5.75329 2.78735 6.6525.67514 1.9831 1.72889 1.99334 16.10813.15644z"/><path d="m320.98424 436.20878c6.28321-4.60251 8.4325-7.65213 15.24244-21.62751 7.84558-16.10075 11.86817-20.72423 22.78017-26.18312 9.44587-4.72544 22.64614-12.43539 28.4356-16.60856 4.90605-3.53637 8.03794-8.86449 8.07345-13.73496.0114-1.55562.76004-3.84424 1.66376-5.08586.90373-1.2416 4.17831-7.3259 7.27682-13.52064 4.90193-9.80019 6.07816-11.47046 9.05573-12.85904 5.82415-2.7161 7.37582-5.56783 7.37582-13.55569 0-12.1447-6.76162-33.69372-20.16276-64.25795-9.11952-20.79906-13.28941-26.88715-19.57621-28.5815-2.1571-.58136-12.37746-1.17516-22.71195-1.31958-20.74795-.28992-27.29482-1.3638-38.18448-6.26338l-6.2714-2.82172-5.71306 3.45308c-12.3557 7.46799-34.1034 15.36809-47.75903 17.34899-16.25828 2.35844-35.74877-2.65807-63.72304-16.40121-8.86907-4.35717-17.2016-7.92214-18.51671-7.92214-1.31514 0-4.19923 1.2647-6.40911 2.81043-2.88594 2.01862-6.13899 3.18001-11.54615 4.12222-23.58127 4.10906-41.4557 12.05283-52.49582 23.33022-10.86601 11.09955-22.028371 31.00918-24.435091 43.58339-.742036 3.87687-1.862034 12.63514-2.488884 19.46283-.997566 10.86553-.931924 14.06486.52625 25.64918 1.523143 12.1005 1.541301 13.65199.211769 18.09639-1.077865 3.60312-1.219211 5.70799-.546164 8.13332 1.15018 4.14468 6.738741 8.82206 11.439885 9.57464 2.290801.36676 3.917749 1.27232 4.57471 2.54635 1.366506 2.64999 5.609045 7.11545 6.760255 7.11545 2.21072 0 4.35826-3.23736 4.35826-6.57001 0-4.15391-.88133-5.00159-9.681298-9.3119-7.946991-3.8925-9.029399-5.60538-3.542183-5.60538 4.150588 0 4.245781-.17867 3.857218-7.24027-.153467-2.78882.06289-3.03625 2.654623-3.03625 3.11473 0 5.77555-2.07808 5.76745-4.50432-.0113-3.4138-2.0494-8.60328-3.73015-9.49826-1.1887-.63298-2.59148-.63662-4.245287-.0113-1.358487.5139-3.715773.93436-5.238423.93436-1.522649 0-3.620659.52551-4.662248 1.16779-4.252708 2.62238-4.653284-4.52713-.813077-14.51182 2.374447-6.17366 4.115544-6.74679 6.10486-2.0096 1.863852 4.43844 4.121357 3.9097 6.103605-1.42949 2.66286-7.17251 5.50744-5.94591 5.53263 2.38568.0266 8.79056 7.21588 14.85148 10.92874 9.21341 1.31001-1.9893 1.47141-3.87337.98037-11.44432-.70632-10.89027.21379-13.58443 4.7904-14.02668 3.68981-.35653 6.46017-3.69504 10.66416-12.85114 3.53985-7.70963 3.7518-11.97376.96358-19.38618-2.96463-7.88143-5.20025-21.57423-3.9131-23.96719 1.31052-2.43645 3.42002-2.41747 4.74329.0426.57242 1.0642 1.27391 6.63455 1.55885 12.37855.47703 9.616.7134 10.65356 2.98277 13.09312 4.21184 4.52767 5.59502 4.85548 8.56038 2.02874 1.44007-1.37273 2.85481-2.11516 3.14386-1.64983.28906.46537-.2984 3.48011-1.30541 6.69946-2.00256 6.4019-2.31442 9.95048-.94831 10.79055.88094.54171 1.2305.23357 4.73017-4.16943l1.85639-2.33557-.1395 6.55069c-.12441 5.84017.20665 7.17244 3.05179 12.2826l3.19126 5.7319-2.09166 7.935c-3.69154 14.00435-2.52423 18.05076 6.77079 23.47066 2.93384 1.71071 4.44996 3.36158 5.22046 5.6845.8948 2.69764 1.545 3.27361 3.69555 3.27361h2.60969l-.46404-11.21075c-.32768-7.91642-.15551-11.21076.5859-11.21076.57747 0 1.30721 1.15611 1.62163 2.56913 1.38295 6.21483 2.64404 8.41682 6.98014 12.18806 2.87171 2.4976 6.31351 4.46283 9.11246 5.20309 2.47377.65425 7.20406 2.94709 10.51174 5.0952 6.48186 4.20949 9.65586 4.76822 14.50091 2.55266 1.62731-.74414 4.22631-1.47984 5.77558-1.63491 2.65646-.26587 2.80425-.49466 2.59577-4.01884-.16781-2.83646-1.60449-5.74309-5.96231-12.06264-6.35207-9.21152-6.9817-12.0408-4.09633-18.40729 1.75811-3.8792 3.91949-5.06686 2.77974-1.52743-.37229 1.15611-.8838 3.4128-1.13669 5.01486-1.09835 6.9578 6.75436 13.48248 13.24439 11.00454 1.34697-.51429 2.04514-2.36452 3.79295-10.05178.57783-2.54142.69462-2.59597 2.35572-1.10025.96127.86557 2.2586 2.80086 2.88297 4.30065s2.58062 3.61571 4.34722 4.70203c2.73706 1.68312 3.60348 1.81382 5.85954.88402 1.45614-.60012 3.58404-2.35146 4.72865-3.89186 1.58843-2.13765 2.37335-2.55941 3.31546-1.78145 1.91277 1.57948 2.24973 5.22773 1.1821 12.79797-.83365 5.9111-.76352 7.16488.46946 8.39165 1.17129 1.16541 1.84631 1.23099 3.51647.34163 2.90876-1.54889 4.72478-6.50199 4.72478-12.88663 0-5.13492 1.83585-9.90409 3.2651-8.48204.94627.94153 3.18163 18.36007 2.62699 20.47035-.53114 2.02083 1.34293 12.40195 2.73123 15.12935 1.68437 3.30902 9.09304 1.34389 15.26673-4.04948 2.21496-1.93496 4.74816-5.69606 6.68566-9.92627 2.41973-5.28307 3.55791-6.81087 5.07403-6.81087 2.71993 0 3.96325 3.82891 3.3069 10.18387-.31876 3.08642-.13191 5.80542.45578 6.63226.84999 1.19589 1.3033 1.04338 3.09175-1.04009 1.15265-1.34279 2.87308-3.85993 3.82318-5.59367 1.65226-3.01502 1.78508-3.07381 3.05158-1.35047 1.67667 2.2815 1.65628 4.49252-.0945 10.23473-1.85122 6.07171-1.76707 7.65907.52706 9.94168 1.54278 1.53503 2.89529 1.85986 6.80734 1.63489l4.88204-.28074-.0972-3.26979c-.0534-1.79841-.4099-5.16163-.79211-7.47385-.64174-3.88235-.43891-4.53645 2.65073-8.54836 2.60679-3.38491 3.75864-6.22713 5.21571-12.86961 1.02853-4.68889 2.52022-9.44885 3.31487-10.57765 2.17414-3.08846 1.76083-7.25626-1.52188-15.34594-1.63166-4.02098-3.00488-8.96508-3.05157-10.9869-.0829-3.58858.0136-3.70025 4.05291-4.69466 6.51459-1.60372 6.70261-2.89349 1.65258-11.33668-4.98115-8.32803-5.47803-11.59411-2.09896-13.79704 1.3064-.8517 2.41095-2.5961 2.5821-4.07792.27649-2.39392.68921-2.63441 5.46328-3.18334 2.84031-.32657 5.84119-.87322 6.66863-1.21476 2.12643-.87774 7.42567 5.30583 7.38227 8.61422-.0182 1.39516-.63712 3.58764-1.37514 4.87221-.77975 1.35719-1.34728 4.87938-1.35479 8.40806-.0166 7.81487 2.16121 24.22784 3.5598 26.82803 1.82849 3.39936 1.24384 5.32511-3.18336 10.48566-4.25442 4.95913-7.00268 9.36248-7.00268 11.21987 0 1.99484 5.65873.88506 11.67231-2.28919 7.3838-3.89752 9.37967-4.17219 8.48523-1.16778-1.2167 4.08687-5.86106 8.70943-14.52399 14.45579-11.29556 7.49265-13.71099 9.86941-15.51149 15.26294-2.17493 6.5152-6.66363 12.70463-12.08924 16.66972-5.37152 3.92555-19.12312 10.03139-29.49686 13.09687-8.51405 2.51593-25.12731 10.55624-28.55465 13.81956-3.40493 3.24201-10.32039 16.59802-9.94704 19.21099.21409 1.49826 1.0412 2.15963 2.97635 2.37987 3.62858.41297 7.04973-2.90828 7.79916-7.57144.43698-2.71895 1.20319-3.91245 3.03361-4.72526 1.34694-.59814 7.4762-3.90677 13.6206-7.35253 12.42612-6.96856 14.6498-7.1691 14.6498-1.32116 0 2.59363-1.52476 4.80021-9.46391 13.69591-10.09097 11.30676-13.07076 15.9628-13.07076 20.42346 0 3.46781 1.10722 4.18106 5.28114 3.40196 4.38099-.81774 9.1563-5.27335 20.06787-18.7244 5.00185-6.16592 9.85933-11.84082 10.79439-12.61091 1.62004-1.33418 1.67606-1.09208 1.18896 5.13827-.31113 3.97971-2.02259 11.0485-4.37343 18.06338-2.12425 6.33873-3.62369 11.90907-3.33207 12.37854.91535 1.47363 2.83074.9442 6.61638-1.82881z"/><path d="m209.01784 419.0996c1.42765-2.26927-.80909-5.93618-4.75831-7.80079-4.18458-1.97574-5.9015-1.24487-5.9015 2.51218 0 5.99123 7.78725 9.85468 10.65981 5.28861z"/><path d="m228.87374 388.92264c11.09138-1.81321 19.24191-1.77534 23.98109.11136 2.9317 1.16714 4.3499 1.29057 6.03753.5255 1.21317-.54997 5.00254-.99996 8.42084-.99996 7.80953 0 15.93133-2.27877 17.85347-5.00923 3.31852-4.71407.89505-7.25253-6.92397-7.25253-4.53766 0-4.80378-.14271-6.12248-3.28294-1.77554-4.22812-3.0433-4.6347-10.23912-3.28376-5.05603.94922-6.46667.89523-9.49387-.36325-6.11318-2.54143-7.69596-2.05399-10.36825 3.19303-2.56711 5.04048-3.6902 5.47754-8.16261 3.17638-4.35015-2.23824-8.44095-1.82422-14.68309 1.4861-9.58397 5.08255-11.83186 8.58754-7.46109 11.63356 2.59931 1.81149 6.39381 1.82603 17.16155.0657z"/><path d="m268.65902 199.75112c20.60391-3.90631 31.12901-11.82186 35.82228-26.9406 2.48172-7.99451 2.44103-13.37133-.11862-15.67614-2.31872-2.08788-4.59859-6.20694-4.59859-8.30831 0-.85812 1.71994-2.21449 4.0897-3.22519 4.04668-1.72588 5.29975-3.28225 5.29975-6.58243 0-2.17146-4.42246-3.7519-10.49866-3.7519-5.87253 0-10.64792-2.004-15.13575-6.35167-3.53702-3.42656-3.56397-3.5083-2.98974-9.06312.52401-5.06906.33051-5.98274-2.02232-9.54944-3.23846-4.90922-4.23602-5.28987-10.14452-3.87104-6.98115 1.6764-7.30635 2.20541-5.18122 8.42776.99252 2.90611 2.07401 7.5646 2.40328 10.35222.56335 4.76906.41953 5.27144-2.43512 8.50637-3.5671 4.04231-2.92347 5.67429 2.6113 6.6214 7.56824 1.29507 8.65179 1.6636 8.65179 2.9427 0 2.03242-8.65038 1.68943-16.61292-.65871-3.71468-1.09546-7.46638-1.71975-8.3371-1.3873-2.37342.90619-1.21231 7.6622 1.83855 10.69773 2.36389 2.35201 2.50543 2.37005 20.4922 2.61169l18.11186.24331 3.05157 3.47391c1.67836 1.91066 3.05157 4.45947 3.05157 5.66403 0 3.32674-3.69115 10.43422-7.44449 14.33471-5.29299 5.50049-18.35256 8.87892-47.01433 12.16233-10.82743 1.24035-8.75671 1.23342-20.88371.07-11.9242-1.14408-24.54996-3.97211-29.9334-6.70473-4.6236-2.34694-7.59216-1.84337-9.14683 1.5516-.92071 2.01059-.87313 2.86632.2546 4.5788 1.88447 2.86164 5.92908 3.79385 8.07537 1.86125 1.54188-1.3884 1.96778-1.28922 5.75798 1.34085 4.70447 3.2645 12.73623 5.18083 27.87292 6.6503 5.51212.53512 11.9234 1.34973 14.24729 1.81022 5.8454 1.15831 19.31395.35955 30.86529-1.83048z"/><path d="m247.81217 185.48948c.83111-.82692 1.71312-3.59559 1.96006-6.15263.39735-4.11443.20409-4.77953-1.68021-5.78292-2.69548-1.43533-10.02317-.5213-12.30696 1.53513-.92202.83024-2.15291 2.94608-2.73531 4.70188-.87837 2.64814-.78881 3.60245.52539 5.59812 1.46778 2.22888 1.9939 2.3763 7.15511 2.00485 3.41065-.24548 6.15681-.98394 7.08192-1.90443z"/><path d="m227.2564 184.26062c1.52598-1.06347 2.08682-2.39639 2.08682-4.9597 0-5.09195-1.69308-6.83203-7.15563-7.35428-5.75385-.55009-7.26718.89842-7.34397 7.02946-.0462 3.68711.28722 4.48859 2.29331 5.51282 3.19114 1.62929 7.59666 1.52989 10.11947-.2283z"/><path d="m266.25855 183.70663c3.65431-1.91382 4.44768-5.08774 2.39318-9.5742-1.41426-3.08839-2.37095-3.34373-8.21794-2.19345-3.89986.76724-5.13605 1.45426-5.81533 3.23194-1.2012 3.14352-1.07641 7.15498.26406 8.48872 1.43329 1.4261 8.68551 1.45604 11.37603.047z"/><path d="m206.297 183.26616c3.49688-1.33514 5.71387-10.6859 3.14057-13.24627-1.99433-1.98434-5.80538-1.20311-10.56868 2.16644-2.55601 1.80815-4.94509 3.76694-5.30904 4.35288-1.15875 1.86548.2765 3.73808 4.23654 5.52749 4.10142 1.85328 6.06317 2.13009 8.50061 1.19946z"/><path d="m280.04625 179.17534c2.06413-2.05376 2.52611-7.32578.90592-10.33794-1.95859-3.6413-11.23431-1.50007-11.23431 2.59334 0 4.40389 3.87072 9.50219 7.27682 9.58465.64553.0156 2.01873-.81241 3.05157-1.84005z"/><path d="m185.44616 175.15597c1.50502-3.13276 2.68016-7.24065 3.99482-13.96455.49318-2.52241.627-2.56914 7.35611-2.56914 9.36055 0 15.68287-2.00188 19.31253-6.11508 1.59786-1.81073 2.90521-3.68234 2.90521-4.15914s-2.64079-2.668-5.86842-4.86933c-4.89431-3.33805-5.52182-4.05192-3.78043-4.30061 1.20406-.17194 3.93097.96347 6.44156 2.68213 3.42425 2.34412 5.62797 3.08209 10.32346 3.45711 9.06638.7241 13.56381-1.77351 12.02694-6.67906-.92739-2.9601-1.94111-3.25032-9.3942-2.68949-4.42561.33305-7.83145.10799-9.63892-.63693-2.65069-1.09243-5.74367-5.74072-5.74367-8.63187 0-3.34226 3.21571-12.88695 7.44538-22.09889 6.3906-13.918314 6.51711-14.607963 3.29395-17.955312-2.01663-2.094334-3.48569-2.741893-6.22027-2.741893-3.87887 0-4.45194 1.110128-2.14184 4.14903 1.57402 2.070587 1.80601 6.389881.476 8.862541-.49641.922897-3.8562 3.453634-7.4662 5.623884-3.96834 2.38565-7.30195 5.19093-8.43082 7.09462-2.38881 4.02837-6.61054 5.30644-11.72156 3.54849-2.0015-.68843-5.28934-1.25168-7.30629-1.25168-4.20574 0-5.70966-2.04646-3.28027-4.46363 1.29762-1.29111 2.25582-1.36685 6.45783-.5104 5.79536 1.1812 7.08661.85691 7.47819-1.87811.26326-1.83883.76281-1.99607 5.48615-1.72693 4.22978.24102 5.51011-.0486 6.8822-1.55719 2.02726-2.228849 1.19827-4.290077-3.2096-7.980442-3.8195-3.197755-7.2226-3.098435-11.25194.328378-1.78797 1.520595-3.77901 2.781805-4.42453 2.802688-1.92932.06244-1.3335-2.289634 1.17369-4.633183 6.57708-6.14781-2.36993-4.317303-9.62357 1.968927-3.24116 2.808895-4.43518 2.774749-8.83082-.252492-1.37076-.944044-3.37775-1.716435-4.45997-1.716435-1.08224 0-1.9677-.451232-1.9677-1.002737 0-.551491-.73942-.861763-1.64316-.689486-1.33171.253869-1.8211 1.904727-2.58209 8.710131-.98826 8.837851-1.01886 8.877081-5.79728 7.432001-1.63266-.49373-2.33781-.0473-3.52104 2.22938-1.97781 3.80544-1.86409 8.61848.4129 17.47677 1.29049 5.02036 1.85741 10.08286 1.78229 15.91501-.12867 9.98779.26901 10.95956 7.63764 18.66387 3.6478 3.81397 5.77306 6.95236 6.48205 9.57207 1.3039 4.81805 4.58439 8.23498 6.22691 6.48593.60915-.64867 1.38383-5.42471 1.72152-10.61346.52236-8.02658.38864-9.62011-.89627-10.68115-1.36969-1.13103-5.12874-7.58725-5.12874-8.80867 0-1.56884 1.619-.10148 2.526 2.28932 1.85442 4.88824 7.96573 5.49064 12.67581 1.24948 3.23107-2.90939 3.4326-.64356.29347 3.29936-3.8037 4.77764-4.69434 8.51464-3.87903 16.2759.5846 5.56502 2.68696 9.4632 4.74676 8.80141.5541-.17803 1.74628-1.86155 2.64926-3.74114z"/><path d="m128.71024 140.83373c3.125-2.07632 7.84327-5.7087 10.48505-8.07196 3.79331-3.39338 4.74346-4.80948 4.51884-6.73496l-.28439-2.43814-9.85893.30557c-10.64025.32979-18.05354-1.29629-27.43294-6.01733-6.06153-3.05102-10.524863-2.88836-15.758533.57428-2.32389 1.53751-5.704092 3.06246-7.511561 3.38878-6.045958 1.09152-8.41038 2.93866-8.436129 6.59046-.02273 3.22306 2.885424 3.39722 13.645665.81716 5.480148-1.31401 10.563873-2.38911 11.297167-2.38911 2.456221 0 1.367631 1.72968-2.422527 3.84917-4.037839 2.25799-4.80216 3.62466-2.027116 3.62466 1.655294 0 8.194394-1.82819 11.651304-3.25746 1.01755-.4207 1.64316-.26331 1.64316.41343 0 .60101-2.74642 2.33179-6.10315 3.84616-6.213253 2.80306-7.666402 4.9179-4.14362 6.03037 2.93381.92649 8.18679-.33566 13.93667-3.34858 2.82346-1.4795 5.36655-2.45406 5.65129-2.16568.28476.28838-1.17237 1.95745-3.23806 3.70906-4.51529 3.82879-3.60211 5.01272 3.88354 5.03493 4.08383.0125 5.6927-.56391 10.50427-3.76081z"/><path d="m232.92776 124.5229c2.8766-2.40833 5.70032-2.98132 7.26028-1.47323.49059.47427 4.27474 1.15022 8.40921 1.50209 6.66471.5672 7.77767.42992 9.81367-1.21044 3.10854-2.5045 2.8869-6.77039-.72131-13.8823-6.13563-12.093559-12.91222-18.101273-20.41791-18.101273-2.87456 0-4.14704.661072-6.90019 3.584789-3.99298 4.240356-10.51684 19.165074-11.14477 25.496054-.40366 4.06976-.2708 4.38101 2.26171 5.29808 4.67197 1.69179 8.44727 1.29123 11.43931-1.21377z"/><path d="m410.76693 123.01116c1.01307-.53943 4.97112-1.21628 8.79568-1.50407 7.85862-.59138 9.25105-1.5857 9.11088-6.50606-.14825-5.20426-1.38144-5.66112-7.54048-2.79348-2.97506 1.38518-8.19238 3.35222-11.59407 4.3712-6.4503 1.93221-12.57199 5.40433-12.35919 7.00992.30719 2.31767 8.83053 1.95539 13.58718-.57751z"/><path d="m97.322047 112.03288c5.773583-2.50656 11.960593-4.85203 13.748903-5.21217 5.57406-1.1225 6.53779-1.53729 6.53779-2.81387 0-1.75029-2.29849-2.44816-10.03162-3.04583-6.5304-.50471-6.99936-.39433-14.718743 3.46412-9.513832 4.75539-14.685328 8.77615-14.685328 11.4176 0 1.75353.390257 1.87419 4.325784 1.33748 2.379182-.32446 9.049631-2.64075 14.823214-5.14733z"/><path d="m383.79969 112.83072c5.1642-1.1074 11.92461-3.11006 15.02312-4.45036 7.82378-3.38428 15.70214-8.453764 15.25141-9.813809-1.32868-4.009158-13.78198-4.663849-23.77218-1.249737-23.71334 8.103936-29.20519 11.957646-24.17416 16.963406 1.78897 1.77997 3.12077 1.67074 17.67181-1.4495z"/></g><path d="m177.43599 127.70715c-1.95337-.45765-4.8054-1.47722-6.33788-2.26572-2.49706-1.28478-3.07323-1.286-5.54987-.0113-3.26389 1.67935-4.99188.21197-2.25994-1.91908 2.07272-1.61682 6.5887-1.25746 12.53504.99749 6.26792 2.37688 13.62704 1.45256 22.26882-2.79698 6.76906-3.32865 9.15947-3.70772 6.99162-1.10873-1.54251 1.84926-10.5273 6.04326-15.28391 7.13436-4.84055 1.11033-7.52581 1.10391-12.36388-.0296z" fill="#fe0000"/><path d="m244.53001 419.9128c-2.34451-2.48308-2.56669-3.44315-.79681-3.44315 1.26181 0 5.32787 3.78909 5.32787 4.96493 0 1.396-2.60089.52248-4.53106-1.52178z" fill="#fe0000"/><path d="m239.11344 114.35326c-.84223-2.18377.0226-9.28237 1.17686-9.65962 1.43453-.46886 2.51104 4.60724 1.72868 8.1514-.65196 2.95336-2.06525 3.68699-2.90554 1.50822z" fill="#fe0000"/><path d="m339.3563 390.35268c.65706-1.87425 16.55591-18.31062 18.70886-19.34137 1.2435-.59535 5.16556-2.38448 8.71568-3.97584 3.55014-1.59134 7.89573-4.15217 9.65687-5.69071s3.86265-2.79734 4.67003-2.79734c1.23624 0 1.16311.47925-.4634 3.03625-2.61429 4.1099-8.27115 7.94409-12.68309 8.59655-5.33276.78866-8.23222 2.90286-11.39098 8.30599-2.03565 3.48207-4.50092 5.91941-8.88946 8.78877-5.82232 3.80681-8.99081 4.97827-8.32451 3.0777z" fill="#fe0000"/><path d="m325.53403 379.01827c-.80963-1.30343-.92121-1.22553 7.89374-5.51154 8.05674-3.91734 9.52782-4.35392 9.52782-2.82758 0 2.50788-16.22079 10.27223-17.42156 8.33912z" fill="#fe0000"/><path d="m351.40608 362.36284c0-1.02371 5.26287-5.14308 11.73682-9.18668 5.37784-3.35898 9.53469-7.47883 12.96158-12.84622 6.37317-9.98197 12.83751-14.60421 11.35223-8.11724-1.78199 7.78288-12.81348 18.48764-27.86058 27.03539-7.35735 4.17946-8.19005 4.49615-8.19005 3.11475z" fill="#fe0000"/><path d="m385.20812 348.91869c0-1.56477 8.28882-10.46235 9.04533-9.70966 1.01065 1.00558-.52806 5.10263-3.02539 8.05563-2.46322 2.91267-6.01994 3.88992-6.01994 1.65403z" fill="#fe0000"/><path d="m317.05264 328.41852c1.23766-7.83068 2.51755-10.90772 5.80552-13.95723 4.01265-3.72168 5.25079-5.80527 5.95574-10.02246.29357-1.75619 1.0204-3.35448 1.61517-3.55174 1.44482-.47919 3.43813 5.73057 2.64133 8.22848-1.02075 3.19996-14.48908 23.27342-15.61536 23.27342-.68416 0-.81926-1.33294-.4024-3.97047z" fill="#fe0000"/><path d="m281.90043 322.53086c-1.77977-3.65806-2.02609-5.31419-1.56958-10.55321.63773-7.31864 10.4848-41.92304 12.59528-44.26203 2.3023-2.55162 2.99076-1.09297 1.50682 3.19256-1.04411 3.01535-1.15369 5.14343-.46853 9.10025.97934 5.65586.30345 8.54485-2.45174 10.47951-4.24801 2.98291-6.41198 10.72354-4.98339 17.82593 1.13649 5.65017.18008 17.66671-1.44884 18.20363-.58791.19379-2.01893-1.60019-3.18002-3.98664z" fill="#fe0000"/><path d="m397.4144 325.96347c0-.45106.60931-2.2711 1.35402-4.04451.74473-1.7734 1.73264-8.1328 2.19538-14.13201.46273-5.99919 1.12803-11.19289 1.47846-11.54155 1.53183-1.52415 2.71645 1.975 3.18197 9.39903.58656 9.35485-.76161 15.34205-4.23231 18.79531-2.40307 2.39099-3.97752 2.99414-3.97752 1.52373z" fill="#fe0000"/><path d="m188.4725 316.82475c-4.16931-9.38021-5.17035-16.88445-3.19601-23.9586 1.05725-3.78815 3.13742-5.31153 4.88228-3.57542.6096.60653 1.17542 5.0193 1.3249 10.33286.20439 7.26443.69067 10.09455 2.24393 13.05958 1.53981 2.93934 1.78929 4.36386 1.11629 6.37377-1.51455 4.52308-3.71081 3.75362-6.37139-2.23219z" fill="#fe0000"/><path d="m169.71914 310.5641c-2.62271-3.98265-3.07238-19.28121-.56674-19.28121.41556 0 1.90054 2.68053 3.29997 5.95672 1.86614 4.36882 2.46687 7.16831 2.25349 10.50168-.34105 5.32776-2.52354 6.5632-4.98672 2.82281z" fill="#fe0000"/><path d="m247.06151 308.91085c-1.95473-3.708-2.13096-5.14899-1.92506-15.74155.12465-6.41295.53053-11.93902.90195-12.28013.37142-.3411 2.0922-.91763 3.82396-1.28117l3.14867-.66099-.54902 5.00015c-.30195 2.75009-.81242 10.04499-1.13438 16.2109-.32197 6.16592-.92943 11.57609-1.3499 12.02259-.42049.44651-1.73279-1.02491-2.91622-3.2698z" fill="#fe0000"/><path d="m302.16403 303.66598c-.36736-1.66417.17261-4.92513 1.4391-8.69111 1.50308-4.46937 2.08019-8.68414 2.23249-16.30408.24913-12.46398 3.76235-26.62554 6.6053-26.62554 1.48013 0 2.39374 10.48236 1.26155 14.47439-1.15549 4.07414-.97009 12.46582.35602 16.11467 1.0159 2.79537.91061 3.56124-.90831 6.60594-1.13158 1.89419-3.15297 5.7562-4.49198 8.58225-1.339 2.82603-2.75619 5.74384-3.14932 6.48399-1.26357 2.37908-2.74072 2.09621-3.34484-.64051z" fill="#fe0000"/><path d="m208.68386 298.28654c-1.77288-2.12548-3.20585-17.62113-1.95868-21.18077.56226-1.60481 1.0223-4.29915 1.0223-5.9874 0-6.59812 3.62649-10.53254 5.3095-5.76035.40773 1.15611.61802 8.35262.46733 15.99225-.33311 16.88808-1.49365 20.94868-4.84045 16.93627z" fill="#fe0000"/><path d="m375.24546 293.3706c-4.43594-2.9201-5.76995-15.13392-2.52387-23.10788 1.04587-2.56912 2.28635-5.93235 2.75666-7.47383.96583-3.16563 3.73842-3.78473 5.37668-1.20058.79856 1.25961.34152 2.90994-2.13785 7.7197-3.31602 6.4328-3.43404 8.26436-1.3707 21.27421.54404 3.43029-.0101 4.16505-2.10092 2.78838z" fill="#fe0000"/><path d="m388.61358 289.64798c-2.1323-7.31052-2.42376-9.56613-1.53623-11.88878.68264-1.78646.58992-4.06044-.32644-8.00712-.70391-3.03165-1.05734-5.73347-.78536-6.00408 3.48166-3.46416 6.63502 13.58035 4.96454 26.83422-.17097 1.35651-1.84531.68126-2.31651-.93424z" fill="#fe0000"/><path d="m99.42277 285.95606c-1.277125-1.27071-.443063-4.1494 3.1051-10.7169 2.03392-3.76469 4.55883-9.9527 5.61091-13.75112 2.15771-7.79017 2.48927-8.35406 4.01776-6.83324 2.6453 2.63201-2.7995 23.35605-7.49164 28.51477-2.03848 2.24119-4.4838 3.54101-5.24213 2.78649z" fill="#fe0000"/><path d="m265.04523 281.49996c-2.27485-2.72726-2.69308-8.04531-1.40223-17.83027 1.40348-10.63857 2.56907-13.76191 4.96454-13.30294 4.00731.76777 5.93897 21.54124 2.58846 27.83693-2.53721 4.76747-4.18642 5.65129-6.15077 3.29628z" fill="#fe0000"/><path d="m229.83981 274.17195c-2.00721-3.04799-3.39187-15.80379-2.3258-21.42545 1.0461-5.51624 3.33388-10.04356 5.07529-10.04356 1.014 0 1.3165 1.57003 1.30494 6.77318-.009 3.72523.44322 7.95663 1.00328 9.40311 1.97368 5.09734.38467 16.29198-2.4429 17.21027-.6126.19895-1.78927-.66394-2.61481-1.91755z" fill="#fe0000"/><path d="m177.00581 260.81896c.26825-2.36802.10138-5.69768-.37081-7.39925-.74507-2.68492-.40401-3.9165 2.58094-9.31969 3.54678-6.42016 5.36705-8.00278 7.15656-6.22226.75203.74825.72593 2.04971-.0958 4.77867-.94282 3.131-.88803 4.2146.33174 6.56151 1.93751 3.72792 1.1118 6.52378-3.44929 11.67945-4.99874 5.65035-6.79971 5.62739-6.15333-.0785z" fill="#fe0000"/><path d="m147.65499 252.48572c0-3.37558 3.27821-10.68231 9.1378-20.36701 4.16576-6.88515 5.39924-6.0277 4.47674 3.112-.54651 5.41464-1.17596 7.27763-3.26367 9.65948-1.42263 1.62306-3.49709 4.73774-4.60992 6.92149-2.65575 5.21149-5.74095 5.57373-5.74095.67404z" fill="#fe0000"/><path d="m376.75761 107.81572c0-1.4657 2.81307-2.413 7.2214-2.43177 3.62203-.0154 4.78375 1.39708 2.25607 2.74306-2.77986 1.48025-9.47747 1.26028-9.47747-.31129z" fill="#fe0000"/><path d="m297.009 99.732957c1.40548-.74843 1.81615-1.97368 1.81615-5.418535 0-2.448299-.50702-4.955918-1.12671-5.572509-.61972-.616592-3.28163-1.121076-5.91537-1.121076s-5.29565.504484-5.91536 1.121076c-1.64429 1.636032-1.40804 8.742075.34876 10.490064 1.68264 1.674193 8.03549 1.969073 10.79253.50098z" fill="#fff"/><path d="m384.32671 94.556441c5.97047-2.786936 11.32526-5.067148 11.89952-5.067148 1.44136 0 6.64414-4.463608 7.87923-6.759811 1.71998-3.197692 2.49582-12.07252 1.64654-18.835095-.92209-7.342394-4.55838-14.576972-7.32678-14.576972-1.95914 0-3.82766 5.791644-3.82766 11.864182 0 6.454505-1.60331 9.724855-7.49297 15.283751-5.05751 4.773479-6.19461 5.402245-10.80675 5.975595-2.83498.352426-6.03442.362911-7.10986.02327-1.07544-.339613-3.03798-.34712-4.3612-.01664-2.29395.57285-2.38179.832562-1.88892 5.584095.3184 3.069445 1.4739 6.491665 3.00872 8.910749 3.02921 4.774483 3.04447 4.772503 18.38013-2.385939z" fill="#fff"/><path d="m358.09848 97.286035c.91186-1.093675 1.32243-4.712872 1.40422-12.378551l.11561-10.83298-5.13682-10.526087c-2.82526-5.789354-5.95654-10.962579-6.95841-11.496066-3.99651-2.128129-7.51021 1.122027-9.16313 8.475819-1.05672 4.701335.44578 8.382855 3.44361 8.437783.89184.01639 2.41931.630655 3.39437 1.365147 1.3103.986997 2.24813 1.082351 3.59442.365463 2.67704-1.425517 4.49166-.317718 4.49166 2.742093 0 1.480934.43712 3.940255.9714 5.465156.72381 2.065919.611 4.149268-.44267 8.174217-1.23016 4.699184-1.24061 5.814691-.0804 8.577604 1.48747 3.542149 2.46714 3.907975 4.36613 1.630402z" fill="#fff"/><path d="m111.97507 96.755639c13.90833.174805 19.12693-.649749 20.10127-3.17606.30221-.783601.51152-4.918331.46511-9.188289l-.0842-7.763562-4.44455-.586637c-16.24956-2.144733-26.21192-16.199679-28.13138-39.687751l-.58201-7.121857-2.895608 4.671144c-6.92324 11.168427-10.03853 22.297317-10.068417 35.967844-.02142 9.802354.709321 13.80607 4.22746 23.161921 1.833304 4.875327 1.930062 4.960671 4.834182 4.263515 1.629897-.391263 9.090063-.634384 16.578143-.540268z" fill="#fff"/><path d="m333.90829 86.212737c.25963-.673184-.12867-3.469479-.86287-6.213986-.73418-2.744508-1.3399-7.577758-1.34604-10.740556-.0101-5.176691-.33344-6.134385-3.24089-9.596882-1.77636-2.115491-3.51643-4.782787-3.86683-5.927323-1.03201-3.370959-3.33508-5.350796-6.22434-5.350796-1.4858 0-4.27235-.666089-6.19236-1.480196-4.57975-1.941888-13.24291-3.409833-20.95545-3.550831-6.234-.113985-9.29536-1.417685-9.29536-3.958548 0-1.633017.0439-1.638134-4.82694.560988-5.5154 2.490114-9.87751 2.362405-14.42144-.42223-4.56655-2.798485-8.484-2.931925-26.8618-.915003-7.24129.794713-13.94141 1.200064-14.88914.900777-.94775-.299287-3.40454.327815-5.45955 1.393574-5.8789 3.048863-14.47951 4.321621-19.74121 2.921403-2.41113-.641641-5.14557-1.852477-6.07651-2.690756-1.58842-1.430272-1.95873-1.247835-6.01382 2.962767-8.45419 8.778397-19.78008 11.531376-25.85242 6.283929-3.43318-2.966797-4.18572-2.893213-9.86957.965164-7.12239 4.8349-11.47833 15.277607-11.50944 27.592108-.0126 4.967741.27274 5.959105 1.97585 6.866 1.62623.865968 2.46973.707429 4.60902-.866269 2.27065-1.670328 2.76991-1.744724 3.75812-.559962 1.73181 2.076217 4.6039 1.64902 5.54944-.825442.46062-1.205432 1.18958-6.531967 1.61991-11.836743.43679-5.384266 1.22945-9.791894 1.79432-9.977472 2.13083-.700034 3.61582 4.854507 3.64933 13.650008.0237 6.231441.37941 8.910961 1.21998 9.19083 1.43265.477007 10.79253-3.795979 19.87161-9.071817 7.31987-4.253567 8.21598-6.191865 4.62225-9.998003-1.68336-1.782849-1.78384-2.22745-.60515-2.677482.77736-.29681 2.87881.320632 4.66989 1.372091 4.84362 2.843453 11.4167 4.562365 21.78884 5.697967 15.00141 1.642413 19.94103-.0037 16.99884-5.66466-.84516-1.626135-1.36205-3.13034-1.14866-3.342669.21341-.212316 2.46282.718339 4.99871 2.068134 4.42857 2.357237 4.84251 2.408811 10.47917 1.305678 5.06795-.991815 6.39206-.94004 9.7068.379589l3.83832 1.528078 9.0721-4.150594c4.98966-2.282827 9.21161-3.769679 9.38208-3.304095.1705.465572-.56892 1.958241-1.64315 3.317033-2.47585 3.131741-2.47807 5.973718-.007 9.099291 2.80528 3.547879 5.59096 3.117141 14.2903-2.209595 7.36014-4.50671 10.99349-5.730898 10.99349-3.70404 0 .531897.73328 2.080608 1.62952 3.441577.93774 1.423991 1.63532 4.285461 1.64317 6.740291.0134 4.17094.0942 4.285624 3.63843 5.156485 2.72896.67053 5.12577.498966 9.69803-.694229 7.18882-1.876012 9.0302-1.253277 10.63939 3.598127 1.13359 3.417617 3.76606 5.142347 6.68826 4.382017.88727-.230859 1.82564-.970544 2.08527-1.643727z" fill="#fff"/><path d="m337.27757 55.492827c2.0605-4.782813 2.83468-5.388782 8.49485-6.649129 3.85592-.858586 4.22525-1.185237 4.22525-3.73691 0-2.43097-.62204-3.101075-4.76359-5.131661-2.61998-1.28457-5.8797-3.071284-7.2438-3.970484-3.16445-2.085952-4.68355-2.062029-6.65443.10485-2.15458 2.368823-3.3944 7.019422-3.58222 13.436966-.13103 4.477346.20928 5.755297 2.05244 7.707395 3.31655 3.51257 5.41239 3.018584 7.4715-1.761015z" fill="#fff"/><path d="m170.37104 48.218749c4.64365-1.384279 11.5312-7.355132 13.96915-12.10993l1.86572-3.638741-3.3477-1.965286c-1.84125-1.0809-3.97692-3.175897-4.74593-4.655541-1.83421-3.529149-3.90966-3.393819-9.16331.597498-7.82703 5.946367-12.42796 14.66936-10.05967 19.07231 1.90916 3.549392 5.66721 4.433014 11.48174 2.69969z" fill="#fff"/><path d="m210.15012 39.096584c.54683-.03066 1.76466-.616215 2.7063-1.301311 1.61919-1.17803 1.62595-1.376407.12441-3.656558-1.51651-2.302859-1.50463-2.437188.26485-2.995987 1.28142-.404663 2.62981.188356 4.37379 1.923571 2.4899 2.477401 2.63392 2.500924 11.5825 1.891339 15.26984-1.040198 16.81644-2.05193 11.944-7.813421-2.66328-3.149221-15.06758-7.734132-20.83652-7.701626-4.39009.02477-10.24151 2.548245-16.48852 7.110947-2.54519 1.858959-6.71691 3.989303-9.27049 4.734104-3.30294.963362-4.64289 1.83137-4.64289 3.007586 0 4.026513 7.46614 6.783733 15.02312 5.547972 2.32389-.380001 4.67265-.715987 5.21947-.746616z" fill="#fff"/><path d="m316.47543 35.333286c3.40201-2.452015 5.82335-5.360742 5.82335-6.995486 0-.302177-1.72585-2.412339-3.83523-4.689261-2.80866-3.031733-5.14538-4.51881-8.72978-5.55558-2.69198-.77866-8.88848-3.482191-13.76997-6.007864-7.01411-3.629069-10.25386-4.7421118-15.44807-5.307304-9.65955-1.0510584-10.99276-.8646796-13.35419 1.8668535-3.20503 3.7073445-2.79757 5.1546705 1.38243 4.9105605 2.93535-.171426 3.56745.118739 3.8011 1.744587.39587 2.754868-.8974 3.497792-12.01666 6.903009-5.42241 1.660594-10.16936 3.500972-10.54876 4.089737-1.06162 1.64743-.85126 3.140575.65335 4.637636 1.20326 1.197224 2.30337 1.103522 8.94872-.762293 4.16726-1.170023 9.32284-3.276981 11.45688-4.682117 7.05798-4.647297 13.02676-7.932148 14.41317-7.932148 3.21329 0 .79615 2.967472-7.59848 9.32845-9.05586 6.862021-10.69815 9.494622-6.31187 10.117982 3.45368.49082 12.96542-3.74164 20.0829-8.936349 6.35217-4.636148 10.21767-6.119908 10.21767-3.922012 0 .540481-.94378 2.614333-2.09729 4.608546-1.15352 1.994213-1.7792 3.942357-1.3904 4.329203.38881.386847 2.60317.605707 4.92079.48633 3.74534-.192898 4.31497.04754 5.12294 2.161936 1.19794 3.134983 3.53515 3.023614 8.2774-.394416z" fill="#fff"/><path d="m247.02983 16.608284c2.29202-1.03488 3.9153-2.353107 3.71364-3.01573-.50113-1.646505-7.89882-5.1869889-12.94975-6.197671-2.32389-.4650086-6.92826-1.5627118-10.23192-2.4393528-6.80113-1.8046939-9.26429-1.5241247-16.49379 1.878815-5.20043 2.4478359-7.25494 5.3140478-5.23983 7.3099508.64019.634096 4.61903 1.119887 9.71746 1.18645 4.74835.06193 11.3798.756514 14.73652 1.543381 8.3242 1.951309 11.96518 1.893517 16.74767-.265843z" fill="#fff"/></svg>