<svg xmlns="http://www.w3.org/2000/svg" width="512pt" height="512pt" style="isolation:isolate" viewBox="0 0 512 512"><defs><clipPath id="a"><path d="M0 0h512v512H0z"/></clipPath></defs><g clip-path="url(#a)"><g filter="url(#b)"><mask id="c"><circle cx="256" cy="256" r="256" fill="#fff" vector-effect="non-scaling-stroke"/></mask><circle cx="256" cy="256" r="256" fill="none" vector-effect="non-scaling-stroke"/><circle cx="256" cy="256" r="256" fill="none" stroke="#000" stroke-linecap="round" stroke-width="40" mask="url(#c)" vector-effect="non-scaling-stroke"/><path d="M104.136 114.983v195.254c0 47.67 39.109 86.78 86.779 86.78h130.17c47.67 0 86.779-39.11 86.779-86.78V201.763c0-35.689-29.396-65.085-65.084-65.085-16.673 0-31.82 6.59-43.39 17.066-11.571-10.476-26.718-17.066-43.39-17.066-35.688 0-65.085 29.396-65.085 65.085v108.474h43.39V201.763c0-12.239 9.456-21.695 21.695-21.695s21.695 9.456 21.695 21.695v108.474h43.39V201.763c0-12.239 9.456-21.695 21.695-21.695 12.238 0 21.695 9.456 21.695 21.695v108.474c0 24.221-19.17 43.39-43.39 43.39h-130.17c-24.22 0-43.39-19.169-43.39-43.39V114.983h-43.389Z"/></g><defs><filter id="b" width="400%" height="400%" x="-200%" y="-200%" color-interpolation-filters="sRGB" filterUnits="objectBoundingBox"><feOffset xmlns="http://www.w3.org/2000/svg" in="SourceGraphic"/><feGaussianBlur xmlns="http://www.w3.org/2000/svg" result="pf_100_offsetBlur" stdDeviation="2.147"/><feComposite xmlns="http://www.w3.org/2000/svg" in="SourceGraphic" in2="pf_100_offsetBlur" operator="out" result="pf_100_inverse"/><feFlood xmlns="http://www.w3.org/2000/svg" flood-color="#000" flood-opacity=".5" result="pf_100_color"/><feComposite xmlns="http://www.w3.org/2000/svg" in="pf_100_color" in2="pf_100_inverse" operator="in" result="pf_100_shadow"/><feComposite xmlns="http://www.w3.org/2000/svg" in="pf_100_shadow" in2="SourceGraphic" result="_out_UwCwiov2MtRe6HudW3kl7j9ibFQbvtaB"/><feOffset xmlns="http://www.w3.org/2000/svg" in="_out_UwCwiov2MtRe6HudW3kl7j9ibFQbvtaB"/><feGaussianBlur xmlns="http://www.w3.org/2000/svg" result="pf_101_offsetBlur" stdDeviation="2.147"/><feComposite xmlns="http://www.w3.org/2000/svg" in="_out_UwCwiov2MtRe6HudW3kl7j9ibFQbvtaB" in2="pf_101_offsetBlur" operator="out" result="pf_101_inverse"/><feFlood xmlns="http://www.w3.org/2000/svg" flood-color="#000" flood-opacity=".5" result="pf_101_color"/><feComposite xmlns="http://www.w3.org/2000/svg" in="pf_101_color" in2="pf_101_inverse" operator="in" result="pf_101_shadow"/><feComposite xmlns="http://www.w3.org/2000/svg" in="pf_101_shadow" in2="_out_UwCwiov2MtRe6HudW3kl7j9ibFQbvtaB" result="_out_mJfg45H3yZGCLluElLoiC3WIyEbrPsRb"/><feMerge><feMergeNode in="_out_mJfg45H3yZGCLluElLoiC3WIyEbrPsRb"/></feMerge></filter></defs></g></svg>