<svg xmlns="http://www.w3.org/2000/svg" xml:space="preserve" width="403.09" height="100.36"><path d="m251.365 50.182-.274-1.056s3.464.058 4.86.058c3.199.003 5.146-.29 5.36-2.237.19-1.312-.418-2.573-.77-3.811-.338-1.202-.645-2.355-.979-3.541-.352-1.251-.73-2.355-1.4-3.2-.762-.958-1.734-1.594-2.73-1.837-1.372-.336-6.98-.137-8.542-.137-.175-.44-.28-.952-.42-1.428 4.547-.232 8.93.074 13.583-.068 1.509-.046 3.007-.207 4.34.068 2.03.415 3.498 1.813 4.13 3.676.624 1.835 1.19 3.974 1.75 5.921.308 1.067.504 2.075.98 2.927.453.813 1.051 1.445 1.82 2.043 1.41 1.093 3.705 2.012 5.881.953 1.073-.522 1.696-1.388 1.681-2.996-.013-1.383-.477-2.521-.84-3.81-1.084-3.852-2.04-7.124-3.08-10.893-.343-1.237-.606-2.563-1.05-3.608a6.876 6.876 0 0 0-5.25-4.084c-2.086-.331-4.456-.069-6.652-.069H243.74s-.342-.984-.49-1.497c8.786-.124 17.843-.067 26.393-.067 2.328 0 4.485-.062 6.511.135 5.808.566 10.949 2.196 15.192 4.493 7.053 3.82 12.596 9.15 16.661 15.996 2.342 3.945 6.256 6.95 12.692 6.95.185.49.278.702.43 1.119h-69.765zM89.511 58.997h8.122c-3.549-12.481-6.995-25.059-10.573-37.508h-8.05c3.423 12.576 6.96 25.043 10.501 37.508M1.58 21.489v.203c2.847 9.711 5.455 19.656 8.33 29.34h27.374c1.625 0 2.999-.012 4.2-.34 3.43-.936 5.69-4.12 4.762-8.306-.517-2.329-1.346-4.88-1.96-7.011-1.02-3.528-1.974-6.997-2.94-10.416-.332-1.17-.49-2.39-1.052-3.47-2.636.044-5.46-.091-7.98.066 1.474 5.486 3.42 12.227 5.04 17.904.278.973.561 1.983.49 2.79-.233 2.676-3.315 2.333-6.3 2.316a3159.465 3159.465 0 0 1-5.671-20.218c-.265-.958-.494-1.947-.91-2.858-2.637.044-5.46-.091-7.982.066 2.04 7.753 4.328 15.264 6.372 23.01h-7.21c-2.126-7.737-4.244-15.48-6.512-23.076-2.405.001-5.414-.002-8.051 0m52.787 29.543h12.322c4.464 0 8.02.253 10.641-1.566 1.55-1.075 2.747-2.929 2.8-5.446.042-2.043-.647-4.005-1.191-5.922-1.557-5.487-3.12-11.31-4.69-16.61H61.228c-4.147 0-9.397-.534-12.182.886a5.562 5.562 0 0 0-3.01 4.491c-.262 2.883.824 5.473 2.03 7.285 1.252 1.881 2.986 3.3 5.18 4.22 4.71 1.978 11.515.612 17.853 1.02.498 1.094.935 2.866.35 4.018-1.027 2.02-5.455 1.43-8.681 1.43h-10.15c.534 2.11 1.1 4.194 1.749 6.194m4.41-17.836c-2.468-.186-3.952-1.585-3.851-4.288.373-.854 1.292-1.15 2.38-1.226 3.09-.214 7.34.163 10.572 0a636.368 636.368 0 0 1 1.54 5.514c-3.252-.181-7.461.24-10.641 0m42.425 17.836h12.743c2.294 0 4.418.11 6.23-.135 4.273-.58 7.333-3.476 6.721-8.374-.302-2.422-1.28-4.924-1.892-7.08-1.357-4.794-2.51-9.413-3.919-13.955h-13.442c-4.356 0-9.477-.49-12.182 1.158-1.394.849-2.43 2.351-2.59 4.356-.228 2.878.905 5.321 2.1 7.148 1.231 1.878 2.935 3.307 5.111 4.22 4.718 1.98 11.605.609 17.852 1.02.51 1.077.927 2.883.35 4.018-1.027 2.018-5.455 1.43-8.68 1.43H99.452c.55 2.097 1.102 4.19 1.75 6.194m4.34-17.836c-.608-.05-1.509-.257-2.03-.545-1.019-.56-2.175-2.517-1.681-3.88.243-.667 1.275-1.015 2.24-1.089 3.4-.254 7.258.193 10.643 0a193.411 193.411 0 0 1 1.54 5.514c-3.416-.227-7.194.3-10.712 0m28.425 17.836h8.05c-1.268-4.808-3.008-10.684-4.48-16.066-.475-1.735-1.657-4.423-.63-5.923.812-1.183 2.789-1.02 4.9-1.02 2.029 0 4.178-.004 5.811 0 2.253 7.588 4.335 15.345 6.51 23.009h8.122a7571.232 7571.232 0 0 0-8.891-31.722c-.752-2.658-1.98-4.687-3.85-6.4-1.795-1.642-3.989-3.058-6.512-3.744-2.775-.752-6.373-.407-9.941-.407h-10.221c.466 2.156 1.131 4.12 1.68 6.193h7.702c2.713 0 5.48-.165 7.7 0 2.133.16 3.855 1.31 4.69 2.723.619 1.048.773 2.416 1.191 3.813-6.548.173-14.38-1.037-17.011 3.064-.448.698-.826 1.715-.911 2.79-.172 2.16.57 4.312 1.12 6.263 1.59 5.65 3.35 11.724 4.83 17.223.06.054.042.186.14.204m61.538 0c-.6-2.05-1.145-4.151-1.75-6.194h-14.562c-1.722 0-3.308.085-4.41-.41-1.326-.594-2.156-2.028-2.03-3.812.502-1.138 1.893-1.226 3.22-1.226h4.48c3.03 0 6.07.144 8.12-.815 2.018-.945 3.387-3 3.152-6.194-.211-2.854-1.719-5.651-3.501-7.422-1.894-1.88-4.235-3.086-7.631-3.403-3.483-.325-7.312-.068-11.062-.068-3.73 0-7.431.002-10.99 0 .388 1.959 1.114 4.18 1.68 6.194h16.312c1.934 0 3.528-.025 4.691.68.885.54 2.023 2.203 1.54 3.678-.562 1.713-5.242 1.156-7.63 1.156-3.032 0-5.997-.103-7.983.817-2.206 1.024-3.555 2.854-3.29 6.195.13 1.633.67 3.02 1.26 4.22 1.775 3.607 5.266 6.29 10.292 6.604 3.35.208 6.745 0 10.082 0h10.01zm5.391 0h8.051c-2.683-9.894-5.464-19.693-8.26-29.476-2.205-.157-5.664-.023-7.983-.068-.162.266-.001.628.07.886 2.613 9.321 5.398 19.047 8.052 28.454-.005.097-.012.193.07.204m13.651 0h16.523c5.211 0 9.127-1.997 9.24-7.012.047-2.022-.66-4.011-1.19-5.922-1.534-5.525-3.092-11.109-4.69-16.542-4.192-.125-8.676-.068-13.162-.068-4.217 0-9.386-.537-12.18.954-1.016.54-1.933 1.509-2.381 2.517-1.2 2.706-.188 5.873.91 8.034 1.153 2.27 2.926 3.997 4.97 5.037 4.957 2.523 12.405.882 18.692 1.36.49 1.115.922 2.86.35 4.018-.997 2.023-5.48 1.43-8.68 1.43h-10.151c.46 2.07 1.125 3.943 1.61 5.99.06.054.041.186.14.204m4.339-17.836c-.604-.05-1.506-.259-2.03-.545-1.092-.596-2.241-2.665-1.68-3.948.283-.645 1.323-.952 2.31-1.02 3.38-.236 7.21.177 10.573 0 .492 1.858 1.04 3.663 1.538 5.513-3.422-.229-7.173.304-10.711 0m-30.523-14.567c-1.356-5.557-3.188-11.241-4.62-16.95h-2.45a1458.249 1458.249 0 0 1 4.69 16.814c.536.296 1.618.06 2.38.136m-31.364-3.676h5.391c2.765 0 5.451.353 6.09-1.565.459-1.378-.272-2.81-.629-4.084-.687-2.446-1.39-5.18-2.1-7.626-2.761.147-6.018-.192-8.752 0-1.818.13-3.148 1.05-3.22 2.86-.066 1.637.959 3.308 1.961 4.084 2.2 1.707 6.17.904 9.8 1.09.212.79.802 1.717.491 2.585-.39 1.091-2.786.75-4.411.75h-5.18c.155.665.296 1.346.559 1.906m.63-7.556c-.686-.404-1.572-1.534-1.33-2.723.404-1.99 5.267-.732 7.56-1.09.333 1.031.62 2.247.912 3.268.091.321.382.727.14 1.02-2.008-.375-5.734.438-7.282-.475m16.452 7.556c-1.141-4.495-2.454-8.823-3.64-13.275h-2.38a749.052 749.052 0 0 0 3.71 13.275h2.31zm1.051-13.343h-2.38c.51 2.112 1.32 4.828 2.03 7.421.703 2.57 1.332 4.945 3.78 5.717 1.289.407 2.871.113 4.621.204-.147-.673-.288-1.353-.56-1.905-1.024-.036-1.822.08-2.59-.068-2.04-.395-2.391-2.247-2.94-4.153-.653-2.255-1.47-5.385-1.961-7.215m16.942 13.342c-1.253-4.41-2.471-8.851-3.71-13.275h-2.381c1.21 4.36 2.418 8.723 3.641 13.071-.003.116.05.177.14.204h2.31zm2.31 0c4.37-.442 11.17 1.59 10.921-3.2-.044-.847-.39-1.718-.63-2.586-.66-2.39-1.432-5.048-2.03-7.489h-2.45c.532 2.063 1.423 5.075 2.1 7.489.322 1.146.83 2.56.14 3.336-1.038 1.167-4.11.241-6.16.543-1.166-3.7-2.159-7.568-3.222-11.368h-2.379c1.207 4.454 2.428 8.894 3.71 13.275m25.133 0c-.201-.622-.324-1.318-.56-1.907-1.925-.119-3.693.162-5.32 0-2.366-.235-3.622-1.847-4.411-3.607 2.66-.158 5.624-.022 8.4-.069-.123-.65-.34-1.21-.49-1.838h-8.4c-.333-.718-.42-1.728-.21-2.45.674-2.329 5.04-1.257 7.701-1.497.097-.593-.325-1.272-.42-1.907-3.967.142-7.943-.715-9.382 1.77-1.766 3.054.569 7.841 2.662 9.667 1.082.946 2.61 1.706 4.06 1.838 2.142.195 3.994-.143 6.37 0m13.722-.068c-.224-.6-.352-1.292-.56-1.906-2.468-.344-6.458.577-8.332-.272-.785-.356-1.9-1.603-1.33-2.724.614-1.203 5.44-.287 6.932-.952 2.09-.933 1.848-3.874.63-5.514-.689-.928-1.923-1.695-3.36-1.84-2.865-.285-6.492.217-9.592 0 .181.643.307 1.336.56 1.907 2.852.351 8.781-.852 10.292 1.022.415.516.674 1.514.348 2.179-.748 1.534-6.123.168-7.7 1.224-.616.413-1.114 1.404-.98 2.587.261 2.28 2.346 4.086 4.831 4.29 2.783.227 5.364-.17 8.26 0" style="fill:#002b5c;fill-opacity:1;fill-rule:nonzero;stroke:none" transform="matrix(1.25 0 0 -1.25 0 100.36)"/><path d="M321.39 50.896c-4.93-.11-8.617 2.005-8.97 6.466-.072.9.006 1.741-.07 2.519-.243 2.466-.774 4.408-1.611 6.33-3.213 7.38-9.553 11.443-19.743 12.254h-31.644c-.06-.553-.307-.925-.35-1.498h20.442c2.232 0 4.71.304 6.582-.203 1.208-.328 2.683-1.415 2.59-3.54-.048-1.088-.556-2.247-.911-3.472-.98-3.388-1.82-6.744-2.8-10.143-.637-2.209-1.09-4.562-2.45-6.195-1.233-1.48-3.468-2.928-6.161-2.178-.98.274-1.593.619-2.03 1.293-1.056 1.628-.085 4.132.42 5.922.277.983.58 1.894.84 2.792.25.864.678 1.9.7 2.927.035 1.579-.97 2.393-1.96 2.724-1.174.39-2.868.203-4.411.203-4.506 0-9.368.056-13.722-.068-.093-.475-.273-.868-.35-1.361 3.921 0 10.221.491 10.221-2.724.01-.75-.261-1.59-.49-2.381-.417-1.45-.854-2.886-1.26-4.358-.205-.746-.346-1.515-.629-2.178-.745-1.748-1.534-3.131-4.411-3.131h-7.664l-.183-.714h69.765c.108.318.166.474.26.714" style="fill:#ed1c24;fill-opacity:1;fill-rule:nonzero;stroke:none" transform="matrix(1.25 0 0 -1.25 0 100.36)"/></svg>