<svg xmlns="http://www.w3.org/2000/svg" width="512pt" height="512pt" style="isolation:isolate" viewBox="0 0 512 512"><defs><clipPath id="a"><path d="M0 0h512v512H0z"/></clipPath></defs><g clip-path="url(#a)"><path fill="#002B5C" d="m53.173 254.613-1.8 6.918s22.702-.375 31.852-.375c20.956-.021 33.716 1.896 35.12 14.657 1.243 8.595-2.743 16.856-5.046 24.972-2.218 7.876-4.232 15.428-6.418 23.2-2.304 8.199-4.789 15.429-9.171 20.961-4.993 6.281-11.367 10.449-17.892 12.042-8.989 2.199-45.737.896-55.969.896-1.146 2.886-1.832 6.241-2.753 9.356 29.795 1.52 58.508-.48 88.999.447 9.889.303 19.703 1.355 28.435-.447 13.306-2.72 22.927-11.877 27.063-24.086 4.092-12.022 7.799-26.034 11.474-38.796 2.014-6.99 3.3-13.595 6.418-19.179 2.967-5.323 6.889-9.47 11.924-13.387 9.235-7.157 24.278-13.178 38.538-6.24 7.028 3.417 11.11 9.095 11.013 19.627-.085 9.063-3.128 16.523-5.506 24.971-7.104 25.232-13.371 46.672-20.185 71.372-2.239 8.105-3.964 16.794-6.878 23.638a45.054 45.054 0 0 1-34.402 26.763c-13.661 2.167-29.196.448-43.584.448H3.214S.975 438.82 0 442.185c57.576.812 116.92.437 172.942.437 15.257 0 29.388.407 42.663-.885 38.055-3.709 71.739-14.387 99.542-29.441 46.219-25.023 82.539-59.954 109.173-104.813 15.343-25.846 40.991-45.535 83.161-45.535 1.211-3.209 1.821-4.605 2.818-7.335H53.173Z"/><path fill="#ED1C24" d="M512 249.935c-32.302.719-56.462-13.137-58.776-42.369-.471-5.897.046-11.408-.461-16.502-1.585-16.158-5.067-28.888-10.553-41.483-21.053-48.349-62.59-74.977-129.359-80.29H105.507c-.396 3.626-2.014 6.063-2.293 9.814h133.944c14.625 0 30.856-1.99 43.123 1.333 7.918 2.146 17.582 9.272 16.971 23.19-.31 7.136-3.643 14.731-5.967 22.753-6.418 22.2-11.925 44.192-18.343 66.465-4.178 14.47-7.146 29.888-16.06 40.587-8.078 9.699-22.723 19.19-40.369 14.272-6.418-1.791-10.435-4.052-13.296-8.469-6.921-10.668-.557-27.076 2.753-38.806 1.811-6.438 3.793-12.408 5.497-18.294 1.639-5.657 4.446-12.449 4.585-19.179.236-10.345-6.353-15.679-12.835-17.845-7.692-2.553-18.792-1.334-28.906-1.334-29.527 0-61.379-.365-89.91.448-.611 3.115-1.789 5.688-2.293 8.918 25.692 0 66.972-3.219 66.972 17.845.066 4.917-1.714 10.418-3.214 15.606-2.732 9.501-5.593 18.908-8.25 28.555-1.35 4.886-2.271 9.928-4.124 14.272-4.886 11.449-10.05 20.513-28.906 20.513H54.37l-1.2 4.677h457.126a97.31 97.31 0 0 1 1.704-4.677"/></g></svg>