<svg xmlns="http://www.w3.org/2000/svg" width="576" height="105.6" viewBox="0 0 432 79.2"><path d="M0 0h432v79.2H0V0" style="fill-rule:nonzero;fill:#fff;fill-opacity:1;stroke-width:1;stroke-linecap:square;stroke-linejoin:round;stroke:#fff;stroke-opacity:1;stroke-miterlimit:10" transform="matrix(1 0 0 -1 0 79.2)"/><g style="stroke:none;fill-rule:nonzero;fill:#11557c"><path d="m118.96 65.191-.92-12.718c-.06-.2-.22-.32-.462-.36a5.006 5.006 0 0 0-.898-.082c-.14 0-.2-.078-.2-.258.04-.16.079-.28.122-.34.02-.062.097-.101.218-.101h4.758c.121 0 .203.102.203.262-.062.297-.14.437-.261.437-1.079 0-1.641.2-1.7.563l.72 10.097 5-8.718-.099-1.5c-.043-.2-.203-.32-.441-.36a5.487 5.487 0 0 0-.922-.082c-.137 0-.2-.078-.2-.258.044-.16.063-.28.102-.34.02-.062.098-.101.239-.101h4.761c.122 0 .2.102.2.262a.396.396 0 0 0-.04.18c-.019.078-.038.136-.081.18-.04.058-.079.077-.137.077-1.082 0-1.66.2-1.703.563v.136l.722 9.961 5.438-9.5a.825.825 0 0 0 .121-.418c0-.261-.14-.441-.398-.562a2.325 2.325 0 0 0-.903-.18c-.14 0-.199-.078-.199-.258.02-.101.04-.18.059-.242 0-.058.043-.097.082-.14.039-.04.12-.059.199-.059h3.82c.121 0 .2.102.2.262a.873.873 0 0 0-.06.18c-.019.078-.038.16-.081.199-.04.039-.078.058-.117.058-.961 0-1.68.442-2.16 1.301a2.04 2.04 0 0 0-.063.059l-6.777 11.8c-.082.141-.18.22-.34.22h-.16c-.16 0-.243-.079-.243-.22l-.757-10.28-5.883 10.28c-.117.141-.239.22-.36.22h-.16c-.16 0-.238-.079-.238-.22m19.66-11.375c.223.325.516.563.883.715.363.153.77.223 1.187.223.532 0 .926-.223 1.149-.684.222-.465.351-.996.351-1.582 0-.254-.027-.52-.07-.785a3.135 3.135 0 0 0-.254-.742 1.46 1.46 0 0 0-.46-.547 1.242 1.242 0 0 0-.727-.207h-.926c-.082 0-.125-.043-.125-.129v-.125c0-.07.043-.113.125-.113l.77-.055c.324 0 .59-.113.812-.363.223-.254.379-.547.476-.91.098-.352.153-.688.153-1.008 0-.45-.11-.813-.32-1.094-.211-.277-.532-.433-.954-.433-.363 0-.699.07-1.02.21a1.87 1.87 0 0 0-.773.602c.016 0 .032-.016.043-.016H139c.207 0 .39.086.531.227.14.14.211.32.211.516 0 .21-.07.394-.21.535a.744.744 0 0 1-.532.207.746.746 0 0 1-.535-.207.746.746 0 0 1-.207-.535c0-.391.11-.743.363-1.036a2.31 2.31 0 0 1 .922-.671 3.054 3.054 0 0 1 1.148-.239c.282 0 .575.043.899.13a3.2 3.2 0 0 1 .851.362c.254.168.461.364.633.602.153.25.235.531.235.84a2.492 2.492 0 0 1-.977 1.945 2.956 2.956 0 0 1-1.008.547 3.59 3.59 0 0 1 1.16.461c.364.223.645.52.868.867.226.364.335.742.335 1.149 0 .52-.152.98-.433 1.402a2.864 2.864 0 0 1-1.106.977c-.46.226-.953.336-1.457.336a3.61 3.61 0 0 1-1.316-.25 2.355 2.355 0 0 1-1.078-.727 1.822 1.822 0 0 1-.418-1.207c0-.223.07-.418.223-.574a.813.813 0 0 1 .59-.235c.14 0 .277.04.406.11.125.07.222.168.293.293a.816.816 0 0 1-.125.996.812.812 0 0 1-.575.222h-.07m6.047 3.782c-.027 0-.055-.028-.082-.055-.031-.031-.031-.059-.031-.086l2.156-8.637c.113-.465.297-.91.535-1.36.234-.433.531-.839.895-1.218a4.47 4.47 0 0 1 1.175-.879 2.86 2.86 0 0 1 1.371-.34c.336 0 .66.086.938.239.281.156.492.367.66.644.168.282.25.59.25.926 0 .336-.07.645-.195.953a3.262 3.262 0 0 1-.531.852 2.987 2.987 0 0 1-.727.629c.137.101.277.226.39.367a2.9 2.9 0 0 1 .294.472c.07.168.125.34.168.536.043.195.07.39.07.558 0 .477-.113.953-.309 1.414-.21.477-.488.895-.84 1.274-.363.379-.77.672-1.218.883-.461.21-.922.32-1.399.32-.531 0-.992-.137-1.414-.418a2.077 2.077 0 0 1-.867-1.164l-1.008 4.004c0 .058-.043.086-.113.086h-.168m3.598-2.871c.422 0 .797-.125 1.132-.407a3.47 3.47 0 0 0 .844-1.05c.223-.418.39-.852.504-1.329.11-.46.18-.882.18-1.273 0-.477-.14-.84-.406-1.121a2.55 2.55 0 0 1-.938.183c-.742 0-1.105-.128-1.105-.378 0-.32.418-.489 1.257-.489.297 0 .575.055.828.137.196-.152.38-.375.547-.684.168-.296.293-.601.375-.937.086-.324.13-.633.13-.926 0-.308-.087-.558-.255-.754-.168-.199-.39-.308-.699-.308-.574 0-1.105.18-1.597.53a4.663 4.663 0 0 0-1.231 1.329 5.802 5.802 0 0 0-.727 1.652l-.77 3.094a3.798 3.798 0 0 0-.1.715c0 .59.183 1.078.574 1.457.379.379.87.559 1.457.559m.629-5.418c.14.043.367.058.703.058.152 0 .304-.031.476-.086-.015 0-.031-.015-.058-.015a1.306 1.306 0 0 0-.32-.04c-.423 0-.688.028-.801.083m-11.817 22.523a2.35 2.35 0 0 1-.898-.184 1.849 1.849 0 0 1-.727-.503 2.13 2.13 0 0 1-.46-.77 2.359 2.359 0 0 1-.157-.91c0-.574.129-1.133.406-1.692a4.717 4.717 0 0 1 1.133-1.43c.477-.39.996-.671 1.555-.812a11.153 11.153 0 0 1-.63-1.3 3.116 3.116 0 0 1-.21-1.133c0-.282.058-.52.195-.743a1.32 1.32 0 0 1 .547-.52 1.75 1.75 0 0 1 .785-.183c.281 0 .824.102 1.653.282.21.054.32.183.32.379a.618.618 0 0 1-.168.433.522.522 0 0 1-.406.184.581.581 0 0 1-.309-.07c-.098-.06-.234-.141-.434-.282a3.042 3.042 0 0 0-.53-.308 1.124 1.124 0 0 0-.477-.114.847.847 0 0 0-.516.184.525.525 0 0 0-.227.45c0 .308.13.644.395 1.019.25.394.629.882 1.117 1.484.547.7.828 1.484.828 2.324 0 .422-.07.883-.183 1.36a6.657 6.657 0 0 1-.532 1.386 3.089 3.089 0 0 1-.882 1.063 1.967 1.967 0 0 1-1.188.406m.027-.363c.364 0 .672-.184.938-.563.254-.375.45-.824.59-1.355.137-.52.207-.953.207-1.317 0-.699-.25-1.484-.727-2.351-.504.14-.925.433-1.273.867a4.413 4.413 0 0 0-.813 1.496 5.342 5.342 0 0 0-.265 1.625c0 .45.11.828.347 1.137.227.305.563.46.996.46m4.297 3.739v-.344c.813 0 1.227-.097 1.227-.312v-5.145c-.344.168-.777.246-1.285.246v-.343c.793 0 1.402-.207 1.812-.63h.137c.02 0 .05.012.07.032.02.02.028.039.028.059v5.78c0 .216.402.313 1.226.313v.344h-3.215m6.481-.953c0-.055 0-.098.015-.113l1.383-5.57c.13-.505.352-.997.672-1.47a4.378 4.378 0 0 1 1.176-1.19c.45-.31.941-.462 1.445-.462.39 0 .742.11 1.047.32.309.223.535.504.688.84.152.336.238.715.238 1.121 0 .461-.098.938-.281 1.415a5.105 5.105 0 0 1-.77 1.316c-.32.406-.7.727-1.121.965a2.823 2.823 0 0 1-1.328.351c-.281 0-.531-.086-.77-.226a1.49 1.49 0 0 1-.574-.645l-.828 3.293a.543.543 0 0 1-.207.32.57.57 0 0 1-.363.126.456.456 0 0 1-.297-.11.359.359 0 0 1-.125-.281m3.191-2.828c.492 0 .926-.25 1.29-.754a5.8 5.8 0 0 0 .84-1.793c.194-.688.292-1.274.292-1.75 0-.352-.082-.66-.238-.926a.789.789 0 0 0-.715-.39c-.418 0-.77.152-1.074.46a3.452 3.452 0 0 0-.742 1.094c-.2.418-.352.84-.465 1.285l-.375 1.57c.054.337.18.63.39.852.211.239.477.352.797.352m4.566 3.781v-.344c.813 0 1.227-.097 1.227-.312v-5.145c-.344.168-.773.246-1.285.246v-.343c.793 0 1.402-.207 1.813-.63h.136a.11.11 0 0 1 .07.032c.02.02.032.039.032.059v5.78c0 .216.398.313 1.222.313v.344h-3.214m8.707-3.43a2.19 2.19 0 0 1-1.106-.28 1.945 1.945 0 0 1-.742-.798 2.307 2.307 0 0 1-.266-1.12c0-.423.098-.884.293-1.36a4.88 4.88 0 0 1 .797-1.317c.336-.39.73-.71 1.164-.949a2.769 2.769 0 0 1 1.317-.351h3.527c.086 0 .168.043.238.097.07.07.114.156.114.254 0 .14-.059.266-.157.363a.424.424 0 0 1-.347.153h-1.711c.265.406.406.898.406 1.457 0 .476-.098.937-.277 1.386a4.292 4.292 0 0 1-.758 1.247c-.32.379-.7.671-1.133.894a3.068 3.068 0 0 1-1.36.324m.016-.351c.504 0 .965-.196 1.356-.602.394-.39.687-.883.898-1.457.207-.574.32-1.105.32-1.61 0-.39-.113-.714-.335-.937-.223-.222-.532-.351-.922-.351-.547 0-1.008.183-1.387.547-.379.363-.66.828-.856 1.37a4.84 4.84 0 0 0-.28 1.598c0 .407.1.743.308 1.024.21.277.504.418.898.418m5.847 3.781v-.266c0-.007 0-.027.02-.046l1.52-1.688c.227-.242.41-.45.559-.625.136-.168.285-.363.421-.578.137-.215.254-.442.333-.676.078-.226.128-.473.128-.726 0-.266-.05-.52-.148-.766a1.337 1.337 0 0 0-.441-.586 1.165 1.165 0 0 0-.715-.227 1.327 1.327 0 0 0-1.246.922c.02 0 .062-.011.109-.011a.53.53 0 0 1 .531.531.53.53 0 0 1-.16.383.515.515 0 0 1-.371.156.498.498 0 0 1-.383-.156.534.534 0 0 1-.156-.383c0-.235.039-.473.137-.688a1.71 1.71 0 0 1 .394-.578c.176-.164.371-.293.586-.383.215-.086.45-.136.707-.136.371 0 .715.078 1.04.234.32.16.577.383.76.68.188.293.286.625.286 1.008 0 .285-.066.546-.187.804a2.819 2.819 0 0 1-.477.696c-.2.214-.441.449-.746.714-.305.266-.5.442-.598.528l-1.11 1.07h.942c.461 0 .844 0 1.157-.012.312 0 .48-.02.5-.039.078-.078.156-.383.234-.898h.285l-.273 1.742h-3.637m11.523-12.875a.356.356 0 0 1-.28-.121c-.083-.078-.102-.18-.102-.277 0-.102.02-.204.101-.282a.356.356 0 0 1 .281-.12h12.559c.078 0 .16.038.238.12a.385.385 0 0 1 0 .559c-.078.082-.16.121-.238.121h-12.559m0-3.879a.369.369 0 0 1-.28-.121c-.083-.082-.102-.16-.102-.281 0-.078.02-.18.101-.258.078-.082.16-.14.281-.14h12.559c.078 0 .16.058.238.14.082.078.121.18.121.258 0 .12-.039.199-.12.281-.079.078-.16.121-.239.121h-12.559m18.246 3.757c0 .481.083.923.282 1.302.199.398.48.699.84.898.359.223.78.32 1.28.32a4.18 4.18 0 0 0 1.68-.34 5.027 5.027 0 0 0 1.461-.98 6.653 6.653 0 0 0 1.778-3.02l1.8-7.218c.02-.14.04-.238.04-.3 0-.56-.52-.84-1.54-.84-.14 0-.199-.079-.199-.259.04-.16.059-.28.098-.34.023-.062.102-.101.242-.101h4.34c.04 0 .098.04.14.102a.31.31 0 0 1 .06.16c0 .02-.02.078-.04.156-.039.102-.062.184-.101.223-.04.039-.078.058-.118.058-1.28 0-2.023.422-2.222 1.219L208 60.473a6.316 6.316 0 0 1-.758 1.82c-.36.598-.8 1.117-1.32 1.598-.52.48-1.082.859-1.7 1.12a4.888 4.888 0 0 1-1.902.4 4.53 4.53 0 0 1-2.02-.458 3.55 3.55 0 0 1-1.417-1.34c-.36-.582-.52-1.261-.52-2.02 0-.44.04-.843.137-1.202l1.941-7.758c.02-.121.04-.223.04-.281 0-.141-.079-.22-.239-.239-.262-.043-.742-.082-1.441-.082-.14 0-.2-.078-.2-.258.04-.16.079-.28.102-.34.02-.062.098-.101.238-.101h5.38c.12 0 .202.102.202.262 0 .039-.023.097-.043.18a.403.403 0 0 1-.078.18c-.039.058-.082.077-.14.077-.82 0-1.38.063-1.7.14-.18.079-.3.263-.382.54l-1.938 7.762c-.18.718-.262 1.3-.262 1.738m15.047-8.395c.223.325.52.563.883.715.363.153.77.223 1.188.223.535 0 .925-.223 1.148-.684.227-.465.352-.996.352-1.582 0-.254-.028-.52-.07-.785a3.13 3.13 0 0 0-.25-.742 1.507 1.507 0 0 0-.465-.547c-.196-.14-.446-.207-.727-.207h-.926c-.082 0-.125-.043-.125-.129v-.125c0-.07.043-.113.125-.113l.77-.055c.324 0 .59-.113.812-.363.227-.254.38-.547.477-.91.097-.352.156-.688.156-1.008 0-.45-.113-.813-.324-1.094-.211-.277-.531-.433-.953-.433-.364 0-.7.07-1.02.21a1.82 1.82 0 0 0-.77.602c.012 0 .028-.016.04-.016h.058c.211 0 .39.086.531.227.141.14.211.32.211.516 0 .21-.07.394-.21.535a.737.737 0 0 1-.532.207.73.73 0 0 1-.531-.207.733.733 0 0 1-.21-.535c0-.391.112-.743.362-1.036.239-.292.547-.515.926-.671a3.019 3.019 0 0 1 1.145-.239c.28 0 .574.043.898.13.309.081.602.206.852.362.254.168.464.364.632.602.153.25.239.531.239.84 0 .39-.098.754-.266 1.09a2.461 2.461 0 0 1-.715.855 2.956 2.956 0 0 1-1.008.547c.407.082.797.238 1.16.461.364.223.645.52.868.867.226.364.336.742.336 1.149 0 .52-.153.98-.434 1.402a2.836 2.836 0 0 1-1.105.977 3.285 3.285 0 0 1-1.457.336 3.59 3.59 0 0 1-1.313-.25c-.45-.153-.8-.391-1.078-.727a1.805 1.805 0 0 1-.422-1.207c0-.223.07-.418.223-.574a.813.813 0 0 1 .59-.235c.14 0 .28.04.406.11a.75.75 0 0 1 .293.293.816.816 0 0 1-.125.996.812.812 0 0 1-.574.222h-.07m6.046 3.782c-.027 0-.054-.028-.082-.055-.027-.031-.027-.059-.027-.086l2.156-8.637a5.746 5.746 0 0 1 1.426-2.578 4.47 4.47 0 0 1 1.176-.879c.422-.226.882-.34 1.37-.34.337 0 .66.086.942.239.278.156.488.367.656.644.168.282.254.59.254.926 0 .336-.07.645-.199.953a3.162 3.162 0 0 1-.531.852 2.987 2.987 0 0 1-.727.629c.14.101.278.226.39.367a2.9 2.9 0 0 1 .294.472c.07.168.129.34.168.536.043.195.07.39.07.558 0 .477-.11.953-.308 1.414a4.48 4.48 0 0 1-.84 1.274 4.13 4.13 0 0 1-1.215.883 3.35 3.35 0 0 1-1.402.32 2.47 2.47 0 0 1-1.415-.418 2.094 2.094 0 0 1-.867-1.164l-1.008 4.004c0 .058-.042.086-.113.086h-.168m3.598-2.871c.422 0 .8-.125 1.137-.407.336-.277.613-.629.84-1.05.222-.418.39-.852.503-1.329.11-.46.18-.882.18-1.273 0-.477-.137-.84-.406-1.121a2.55 2.55 0 0 1-.938.183c-.742 0-1.105-.128-1.105-.378 0-.32.422-.489 1.262-.489.292 0 .574.055.824.137.195-.152.379-.375.547-.684.168-.296.293-.601.379-.937.082-.324.125-.633.125-.926 0-.308-.086-.558-.254-.754-.168-.199-.391-.308-.7-.308-.574 0-1.105.18-1.593.53a4.621 4.621 0 0 0-1.235 1.329 5.802 5.802 0 0 0-.726 1.652l-.77 3.094a3.505 3.505 0 0 0-.097.715c0 .59.18 1.078.574 1.457.375.379.867.559 1.453.559m.633-5.418c.14.043.363.058.699.058.152 0 .309-.031.476-.086-.015 0-.027-.015-.058-.015a1.262 1.262 0 0 0-.32-.04c-.422 0-.688.028-.797.083m-11.821 22.523c-.32 0-.617-.07-.894-.184a1.834 1.834 0 0 1-.73-.503 2.13 2.13 0 0 1-.462-.77c-.113-.277-.152-.574-.152-.91 0-.574.125-1.133.402-1.692a4.67 4.67 0 0 1 1.137-1.43c.477-.39.992-.671 1.555-.812a10.652 10.652 0 0 1-.633-1.3 3.113 3.113 0 0 1-.207-1.133c0-.282.055-.52.195-.743.125-.226.309-.394.543-.52a1.75 1.75 0 0 1 .785-.183c.282 0 .829.102 1.653.282.21.054.324.183.324.379a.635.635 0 0 1-.168.433.534.534 0 0 1-.406.184.564.564 0 0 1-.309-.07c-.097-.06-.238-.141-.433-.282-.2-.14-.38-.238-.536-.308a1.107 1.107 0 0 0-.472-.114.85.85 0 0 0-.52.184.531.531 0 0 0-.222.45c0 .308.125.644.39 1.019.254.394.63.882 1.121 1.484.543.7.825 1.484.825 2.324a6.2 6.2 0 0 1-.18 1.36 6.667 6.667 0 0 1-.535 1.386 3.123 3.123 0 0 1-.88 1.063c-.366.265-.757.406-1.19.406m.027-.363c.363 0 .672-.184.937-.563.254-.375.45-.824.59-1.355.14-.52.211-.953.211-1.317 0-.699-.254-1.484-.73-2.351-.504.14-.922.433-1.274.867a4.481 4.481 0 0 0-.812 1.496 5.465 5.465 0 0 0-.266 1.625c0 .45.113.828.352 1.137.222.305.558.46.992.46m4.297 3.739v-.344c.812 0 1.226-.097 1.226-.312v-5.145c-.344.168-.773.246-1.285.246v-.343c.793 0 1.402-.207 1.813-.63h.136a.11.11 0 0 1 .07.032c.02.02.032.039.032.059v5.78c0 .216.398.313 1.222.313v.344h-3.214m6.481-.953c0-.055 0-.098.015-.113l1.386-5.57c.125-.505.348-.997.672-1.47a4.27 4.27 0 0 1 1.176-1.19c.445-.31.938-.462 1.441-.462.391 0 .743.11 1.051.32.309.223.531.504.684.84.156.336.238.715.238 1.121 0 .461-.098.938-.277 1.415-.2.476-.45.921-.774 1.316-.32.406-.699.727-1.117.965a2.838 2.838 0 0 1-1.332.351 1.514 1.514 0 0 1-1.344-.871l-.824 3.293a.532.532 0 0 1-.21.32.563.563 0 0 1-.364.126.439.439 0 0 1-.293-.11.35.35 0 0 1-.129-.281m3.191-2.828c.493 0 .926-.25 1.29-.754a5.8 5.8 0 0 0 .84-1.793c.195-.688.292-1.274.292-1.75 0-.352-.082-.66-.234-.926a.798.798 0 0 0-.715-.39c-.422 0-.77.152-1.078.46a3.452 3.452 0 0 0-.742 1.094c-.196.418-.352.84-.461 1.285l-.379 1.57c.055.337.18.63.39.852.212.239.477.352.797.352m4.567 3.781v-.344c.816 0 1.226-.097 1.226-.312v-5.145c-.343.168-.773.246-1.285.246v-.343c.797 0 1.403-.207 1.817-.63h.136c.02 0 .047.012.067.032.02.02.031.039.031.059v5.78c0 .216.402.313 1.223.313v.344h-3.215m11.101-14.817a.366.366 0 0 1-.28-.117.383.383 0 0 1-.098-.28c0-.083.02-.18.097-.263.082-.078.16-.136.281-.136h5.88V53.69c0-.097.042-.18.12-.257a.427.427 0 0 1 .282-.102c.078 0 .18.04.257.102.083.078.141.16.141.257v5.903h5.883c.078 0 .156.058.238.136.078.083.121.18.121.262 0 .102-.043.2-.12.281-.083.079-.16.118-.24.118h-5.882v5.882c0 .098-.058.18-.14.258a.45.45 0 0 1-.258.102c-.121 0-.2-.04-.282-.102a.357.357 0 0 1-.12-.258V60.39h-5.88m30.61-5.398V54.5c1.164 0 1.75-.137 1.75-.445v-7.352c-.488.238-1.106.352-1.832.352v-.492c1.133 0 2-.293 2.59-.895h.195a.16.16 0 0 1 .098.043c.027.027.043.055.043.082v8.262c0 .308.574.445 1.75.445v.492h-4.594m-8.711 15.953c0-.562.18-1.05.543-1.484.367-.422.84-.785 1.43-1.078l-.52-.336a2.217 2.217 0 0 1-.781-.828 2.224 2.224 0 0 1-.297-1.106c0-.449.113-.84.351-1.203a2.42 2.42 0 0 1 .938-.855 2.748 2.748 0 0 1 1.246-.309c.406 0 .797.086 1.191.254.391.168.7.418.954.727.25.308.375.687.375 1.12 0 .321-.082.618-.223.883a2.66 2.66 0 0 1-.617.715 3.6 3.6 0 0 1-.813.543l.801.52c.363.25.672.558.895.953.222.39.335.812.335 1.23 0 .504-.14.965-.406 1.387a2.758 2.758 0 0 1-1.078.953 3.15 3.15 0 0 1-1.414.336c-.488 0-.953-.097-1.398-.297-.45-.18-.813-.46-1.094-.84a2.07 2.07 0 0 1-.418-1.285m.754 0c0 .375.097.711.308 1.02.196.308.461.547.797.715.336.168.688.25 1.051.25.531 0 1.023-.153 1.469-.473.449-.309.676-.73.676-1.262 0-.168-.043-.351-.114-.52a1.65 1.65 0 0 0-.293-.472 2.333 2.333 0 0 0-.422-.367l-1.875-1.215a4.166 4.166 0 0 0-.812.602 2.618 2.618 0 0 0-.574.797 2.12 2.12 0 0 0-.211.925m.969-4.273 1.69 1.094a3.02 3.02 0 0 0 .966-.825c.254-.324.379-.687.379-1.093 0-.309-.098-.602-.266-.868a1.876 1.876 0 0 0-.684-.601 2.037 2.037 0 0 0-.91-.227 2.38 2.38 0 0 0-.855.168c-.293.114-.531.266-.715.493a1.106 1.106 0 0 0-.281.753c0 .45.226.813.676 1.106m6.101 6.16c0-.039.016-.11.055-.223.254-.53.504-1.062.73-1.597.223-.516.418-1.02.602-1.524a18.78 18.78 0 0 0 .504-1.582h-.895c-.351 0-.672.114-.969.32a2.953 2.953 0 0 0-.726.813c-.027.043-.055.055-.086.055h-.168c-.082 0-.125-.04-.125-.137 0-.016 0-.043.027-.086.309-.504.633-.937.98-1.3.337-.352.731-.532 1.177-.532h5.082a.38.38 0 0 1 .238.098c.07.07.113.152.113.25 0 .14-.055.265-.156.363a.423.423 0 0 1-.348.156h-1.777a11.377 11.377 0 0 0-.254 2.14c0 .9.156 1.708.477 2.438a.37.37 0 0 1 .043.168c0 .11-.043.211-.098.293a.726.726 0 0 1-.227.196.732.732 0 0 1-.293.07c-.25 0-.418-.195-.504-.586a4.836 4.836 0 0 1-.14-1.164 8 8 0 0 1 .14-1.54c.086-.491.239-1.163.434-2.015h-1.527c-.739 2.996-1.188 4.633-1.328 4.942-.141.238-.32.363-.547.363a.52.52 0 0 1-.309-.11.32.32 0 0 1-.125-.269m7.266.238v-.375c0-.015 0-.043.027-.07l2.168-2.41c.324-.348.59-.645.8-.895.196-.238.407-.52.602-.828.196-.305.364-.629.477-.965a3.2 3.2 0 0 0 .18-1.035c0-.379-.07-.742-.211-1.094a1.893 1.893 0 0 0-.63-.84 1.698 1.698 0 0 0-1.023-.32c-.402 0-.77.125-1.09.364a1.887 1.887 0 0 0-.687.953c.027 0 .086-.016.156-.016.196 0 .375.07.531.211.141.14.223.32.223.547a.735.735 0 0 1-.223.543.728.728 0 0 1-.53.226.692.692 0 0 1-.548-.226.74.74 0 0 1-.222-.543c0-.336.054-.672.195-.98.125-.31.309-.575.559-.829a2.694 2.694 0 0 1 1.847-.742c.532 0 1.024.113 1.485.336a2.625 2.625 0 0 1 1.5 2.41c0 .406-.098.785-.266 1.149a4.06 4.06 0 0 1-.687.992c-.282.308-.63.644-1.063 1.023-.437.38-.715.63-.855.754l-1.582 1.528h1.343c.657 0 1.203 0 1.653-.016.449 0 .683-.027.714-.055.11-.113.223-.547.336-1.289h.407l-.395 2.492h-5.191m17.418 9.102c.32.32.742.5 1.218.5.48 0 .922-.34 1.32-1 .403-.66.743-1.48 1.044-2.48.297-1 .52-1.817.66-2.477.137-.684.316-1.543.52-2.582.18-1 .359-1.98.538-2.961.18-1 .36-2.04.56-3.16.179-1.117.382-2.258.581-3.399.2-1.16.418-2.379.7-3.66.34-1.719.577-2.941.738-3.66.16-.738.382-1.8.703-3.18.32-1.379.52-2.281.617-2.718.101-.442.402-1.66.883-3.622l.258-1.039c.3-1.18.539-2.062.699-2.66.16-.601.402-1.34.742-2.222.34-.88.738-1.598 1.219-2.2.46-.597.96-.879 1.52-.879.382 0 .741.079 1.081.239.34.16.617.402.82.722.2.297.32.66.32 1.059 0 .281-.1.52-.28.719-.2.18-.442.281-.72.281-.3 0-.542-.102-.741-.281a.962.962 0 0 1-.282-.719c0-.3.082-.54.282-.738.199-.203.441-.282.742-.282-.363-.34-.762-.5-1.203-.5-.258 0-.54.36-.82 1.079a17.619 17.619 0 0 0-.817 2.543c-.262.98-.46 1.796-.582 2.457-.14.64-.3 1.46-.48 2.46a113.441 113.441 0 0 0-.54 2.922c-.16.82-.34 1.84-.539 3.059-.222 1.2-.421 2.36-.62 3.46-.2 1.099-.423 2.34-.7 3.74-.18.859-.441 2.081-.762 3.66-.34 1.581-.558 2.6-.66 3.081-.117.48-.379 1.641-.82 3.5-.438 1.84-.68 2.82-.7 2.938l-.238.922a73.195 73.195 0 0 1-1.043 3.719 10.754 10.754 0 0 1-1.539 2.98c-.68.922-1.5 1.398-2.46 1.398a2.314 2.314 0 0 1-1.54-.578c-.46-.398-.68-.879-.68-1.441 0-.297.083-.54.282-.738.2-.2.437-.282.738-.282.18 0 .34.04.5.121a.82.82 0 0 1 .36.38c.082.16.14.32.14.519a.98.98 0 0 1-.3.723c-.2.18-.438.277-.72.277m19.798-38.156a2.3 2.3 0 0 1-1.176-.309 1.904 1.904 0 0 1-.797-.84c-.2-.351-.281-.758-.281-1.203 0-.633.168-1.262.53-1.879a4.442 4.442 0 0 1 1.403-1.512c.586-.39 1.203-.586 1.848-.586.473 0 .879.126 1.246.38.363.25.629.574.824.992.184.421.281.855.281 1.316l.012.938c.309-.434.59-.895.813-1.372.226-.476.394-.98.504-1.484.015-.055.058-.082.113-.082h.168c.082 0 .125.04.125.125 0 .012-.012.027-.012.043a8.756 8.756 0 0 1-.422 1.242 8.75 8.75 0 0 1-.574 1.149c-.223.367-.46.703-.715.996 0 1.16.13 1.734.406 1.734.168 0 .309-.039.422-.152.11-.098.211-.227.293-.38.086-.14.14-.222.168-.237h.168c.07 0 .113.054.113.14 0 .238-.14.461-.406.672-.265.195-.531.309-.785.309-.336 0-.617-.114-.84-.325a1.614 1.614 0 0 1-.46-.84c-.45.38-.926.672-1.43.872a4.236 4.236 0 0 1-1.54.293m.028-.352c.996 0 1.945-.406 2.871-1.23 0-.055-.016-.114-.016-.196-.011-.086-.011-.129-.011-.14v-1.512c0-1.68-.465-2.535-1.375-2.535-.543 0-1.02.238-1.426.699a4.685 4.685 0 0 0-.938 1.68 5.774 5.774 0 0 0-.308 1.78c0 .403.097.755.308 1.036.211.277.504.418.895.418m6.598 3.781v-.261c0-.012 0-.032.02-.051l1.519-1.688c.222-.242.41-.449.558-.625.137-.168.281-.363.422-.578.137-.215.254-.441.332-.676.078-.226.125-.472.125-.726 0-.266-.047-.52-.144-.766a1.36 1.36 0 0 0-.442-.586 1.165 1.165 0 0 0-.715-.226c-.285 0-.539.09-.765.254-.235.18-.39.394-.48.668.019 0 .058-.008.109-.008.136 0 .261.047.37.144a.527.527 0 0 1 .157.383.527.527 0 0 1-.156.383.521.521 0 0 1-.371.156.498.498 0 0 1-.383-.156.513.513 0 0 1-.156-.383c0-.234.039-.469.136-.687a1.74 1.74 0 0 1 .39-.578 1.903 1.903 0 0 1 1.294-.52c.375 0 .719.078 1.039.238a1.828 1.828 0 0 1 1.051 1.684c0 .285-.07.55-.188.805a2.945 2.945 0 0 1-.48.695c-.196.215-.442.45-.742.715-.305.265-.5.441-.602.53l-1.105 1.067h.94c.462 0 .845 0 1.157-.007.313 0 .48-.02.5-.04.078-.082.156-.382.235-.902h.285l-.274 1.742h-3.636m-14.625 41.008c-.446 0-.84-.113-1.176-.308a1.948 1.948 0 0 1-.797-.84c-.195-.352-.281-.758-.281-1.203 0-.633.168-1.262.53-1.88a4.442 4.442 0 0 1 1.403-1.511c.586-.39 1.203-.586 1.848-.586a2.1 2.1 0 0 1 1.246.379c.363.25.629.574.824.992.184.422.281.856.281 1.317l.016.937c.305-.434.586-.895.813-1.371.222-.477.39-.98.503-1.484.012-.055.055-.082.11-.082h.168c.086 0 .125.039.125.124 0 .012-.012.028-.012.043a8.756 8.756 0 0 1-.422 1.243 8.29 8.29 0 0 1-.574 1.148c-.223.367-.46.703-.71.996 0 1.16.124 1.735.405 1.735.168 0 .305-.04.418-.153.114-.097.211-.226.293-.379.086-.14.14-.222.168-.238h.168c.07 0 .113.055.113.14 0 .239-.14.462-.406.673-.265.195-.531.308-.785.308-.336 0-.613-.113-.84-.324-.222-.207-.375-.488-.46-.84-.45.379-.923.672-1.426.871a4.257 4.257 0 0 1-1.543.293m.027-.351c.996 0 1.95-.407 2.871-1.23 0-.056-.012-.114-.012-.196-.015-.086-.015-.13-.015-.14v-1.513c0-1.68-.461-2.535-1.371-2.535-.547 0-1.024.239-1.43.7a4.744 4.744 0 0 0-.938 1.68 5.774 5.774 0 0 0-.308 1.78c0 .403.097.754.308 1.036.211.277.504.418.895.418m6.598 3.781v-.262c0-.012 0-.031.02-.05l1.519-1.688c.226-.242.41-.45.558-.625.137-.168.285-.363.422-.578.137-.215.254-.442.332-.676.078-.227.129-.473.129-.727 0-.265-.05-.52-.148-.765a1.36 1.36 0 0 0-.442-.586 1.165 1.165 0 0 0-.715-.227c-.285 0-.539.09-.765.254-.235.18-.39.395-.48.668.019 0 .062-.008.109-.008.136 0 .265.047.37.145a.53.53 0 0 1 .16.383.53.53 0 0 1-.16.382.515.515 0 0 1-.37.157.498.498 0 0 1-.383-.157.528.528 0 0 1-.156-.382 1.753 1.753 0 0 1 1.117-1.645c.215-.09.449-.14.707-.14.37 0 .715.078 1.039.238a1.8 1.8 0 0 1 .762.676c.187.293.285.625.285 1.007 0 .285-.067.551-.188.805a2.819 2.819 0 0 1-.476.695c-.2.215-.442.45-.746.715-.305.266-.5.442-.598.531l-1.11 1.067h.942c.46 0 .844 0 1.156-.008.313 0 .48-.02.5-.039.078-.082.156-.383.235-.902h.285l-.274 1.742h-3.636m21.39-26.692c-.84 0-1.52-.3-2-.941-.48-.617-.719-1.36-.719-2.238 0-.84.22-1.739.66-2.66.438-.918 1.02-1.68 1.778-2.282.762-.597 1.562-.918 2.441-.918.399 0 .739.121 1.059.34.32.219.562.5.742.86l1.117-4.461c.043-.22.082-.399.102-.54 0-.199-.442-.32-1.3-.32-.142 0-.2-.078-.2-.258 0-.043 0-.101.039-.18.02-.081.039-.14.082-.183.039-.039.078-.078.16-.078l2.7-.219c.16 0 .238.098.238.258l-2.88 11.5c-.1.242-.14.563-.14.961 0 .578.18.86.582.86.399 0 .719-.258.938-.801.222-.52.402-1.141.562-1.84.02-.078.078-.117.16-.117h.239c.039 0 .082.039.12.078.04.039.06.082.06.12-.239.938-.5 1.68-.782 2.24-.277.562-.719.82-1.34.82-.457 0-.86-.141-1.2-.38a1.603 1.603 0 0 1-.64-1.039c-.86.957-1.718 1.418-2.578 1.418m.02-.5c.48 0 .941-.18 1.398-.539.442-.359.84-.78 1.16-1.28 0 0 .024-.04.024-.079l1.097-4.402a2.687 2.687 0 0 0-.52-1.2c-.28-.34-.62-.52-1.058-.52-.46 0-.883.2-1.261.56-.399.363-.72.8-.98 1.3-.278.54-.52 1.282-.759 2.2-.242.921-.34 1.64-.34 2.16 0 .48.098.902.297 1.261.203.36.5.54.942.54m10.922.499a3.26 3.26 0 0 1-1.68-.441 2.73 2.73 0 0 1-1.14-1.2c-.282-.5-.403-1.077-.403-1.718 0-.898.242-1.8.762-2.68a6.273 6.273 0 0 1 2-2.16c.84-.558 1.718-.84 2.64-.84.68 0 1.258.18 1.778.54.523.359.902.82 1.183 1.421.258.598.399 1.219.399 1.88l.02 1.339c.44-.621.839-1.281 1.16-1.96.32-.68.558-1.4.718-2.122.02-.078.082-.117.16-.117h.242c.118 0 .18.058.18.18 0 .019-.02.039-.02.058-.16.621-.359 1.223-.601 1.781-.238.559-.5 1.121-.82 1.641-.32.52-.66 1-1.02 1.418 0 1.66.18 2.48.582 2.48.238 0 .438-.058.598-.218.16-.141.3-.32.422-.54.117-.203.199-.32.238-.34h.242c.098 0 .156.079.156.2 0 .34-.199.66-.578.957-.379.281-.761.441-1.12.441-.481 0-.88-.16-1.2-.46-.32-.297-.539-.7-.66-1.2a7.28 7.28 0 0 1-2.04 1.242 6.1 6.1 0 0 1-2.198.418m.039-.5c1.418 0 2.78-.578 4.101-1.757 0-.082-.023-.16-.023-.282-.02-.12-.02-.18-.02-.199v-2.16c0-2.402-.66-3.621-1.957-3.621-.781 0-1.46.34-2.043 1-.597.68-1.039 1.48-1.34 2.398-.3.922-.437 1.782-.437 2.543 0 .578.137 1.078.437 1.48.301.4.723.598 1.282.598m11.66-8.957c-.055-.015-.082-.058-.082-.14l1.707-6.356a.86.86 0 0 1 .281-.422.725.725 0 0 1 .45-.152c.222 0 .402.082.57.223a.67.67 0 0 1 .253.531c0 .098-.027.21-.07.324l-2.535 6.047c-.027.07-.07.098-.125.098a.554.554 0 0 1-.238-.07l-.211-.083m-2.238 14.36v-.38c0-.01 0-.042.027-.07l2.172-2.406a33.5 33.5 0 0 0 .797-.894c.195-.239.406-.52.601-.828.2-.309.367-.63.477-.965a3.14 3.14 0 0 0 .183-1.035c0-.38-.07-.743-.21-1.094a1.93 1.93 0 0 0-.63-.84 1.68 1.68 0 0 0-1.023-.32c-.406 0-.77.125-1.09.363-.336.25-.562.559-.687.95.027 0 .082-.013.152-.013.2 0 .379.07.535.211a.75.75 0 0 1 .223.543.76.76 0 0 1-.223.547.726.726 0 0 1-.535.223c-.223 0-.406-.066-.543-.223a.732.732 0 0 1-.226-.547c0-.336.058-.671.195-.98a2.54 2.54 0 0 1 .562-.824 2.662 2.662 0 0 1 1.848-.742 3.37 3.37 0 0 1 1.484.335 2.613 2.613 0 0 1 1.496 2.41 2.7 2.7 0 0 1-.265 1.145 3.99 3.99 0 0 1-.684.996c-.281.309-.633.645-1.066 1.024a41.95 41.95 0 0 0-.852.754l-1.582 1.527h1.344c.656 0 1.203 0 1.652-.016.446 0 .684-.027.711-.054.114-.114.227-.547.336-1.29h.406l-.39 2.493h-5.195m15.097 12.633V33.89h4.887v1.043h-3.828v46.734h3.828v1.059h-4.887m13.102-36.831c0 .335.054.644.195.91.14.28.336.492.59.629.25.156.543.226.894.226.391 0 .786-.07 1.176-.238a3.57 3.57 0 0 0 1.024-.688c.308-.293.558-.629.78-1.007.212-.364.368-.743.466-1.106l1.258-5.055c.015-.097.027-.168.027-.21 0-.391-.363-.586-1.074-.586-.102 0-.14-.055-.14-.184.026-.11.038-.195.07-.238.011-.04.07-.07.167-.07h3.036c.03 0 .07.03.097.07a.206.206 0 0 1 .043.113c0 .016-.012.055-.027.113-.028.07-.043.125-.07.153-.028.027-.055.043-.083.043-.898 0-1.414.292-1.554.855l-1.262 5.05c-.11.45-.277.872-.531 1.278a5.054 5.054 0 0 1-.926 1.117 4.103 4.103 0 0 1-1.188.785 3.412 3.412 0 0 1-1.332.282 3.14 3.14 0 0 1-1.414-.325 2.466 2.466 0 0 1-.992-.937c-.254-.406-.363-.883-.363-1.414 0-.309.027-.586.098-.84l1.355-5.434c.016-.082.031-.152.031-.195 0-.097-.058-.152-.168-.168a7.367 7.367 0 0 0-1.007-.054c-.102 0-.141-.055-.141-.184a2.66 2.66 0 0 1 .07-.238c.012-.04.07-.07.168-.07h3.766c.082 0 .14.07.14.183 0 .027-.015.07-.03.125a.263.263 0 0 1-.055.129c-.028.039-.055.055-.098.055-.574 0-.965.042-1.192.097-.125.055-.207.184-.265.38l-1.356 5.429c-.129.504-.183.91-.183 1.219m10.09-5.122v-.265c0-.008 0-.028.02-.047l1.519-1.688c.226-.242.414-.449.558-.625.137-.168.285-.363.422-.578.137-.218.254-.441.332-.675a2.054 2.054 0 0 0-.02-1.492 1.287 1.287 0 0 0-.44-.587 1.157 1.157 0 0 0-.716-.226c-.28 0-.539.09-.761.254a1.283 1.283 0 0 0-.48.668c.019 0 .058-.012.105-.012.136 0 .265.05.375.148a.527.527 0 0 1 .156.383.53.53 0 0 1-.531.54.504.504 0 0 1-.383-.157.534.534 0 0 1-.156-.383c0-.234.039-.472.136-.687.09-.215.22-.403.395-.578a1.89 1.89 0 0 1 .586-.383c.219-.086.453-.137.707-.137.37 0 .715.078 1.039.234.324.16.578.383.765.676a1.91 1.91 0 0 1 .098 1.816 2.945 2.945 0 0 1-.48.696 9.07 9.07 0 0 1-.746.715c-.305.265-.5.441-.598.527l-1.106 1.07h.938c.46 0 .844 0 1.156-.011.317 0 .48-.02.5-.04.078-.077.16-.382.238-.902h.282l-.274 1.746h-3.636m4.675 1.891c-.02 0-.039-.02-.058-.039-.02-.02-.02-.04-.02-.059l1.508-6.046c.078-.325.207-.637.375-.95a3.81 3.81 0 0 1 .625-.851c.246-.258.52-.461.824-.617a1.98 1.98 0 0 1 .961-.239c.235 0 .461.059.656.168a1.253 1.253 0 0 1 .637 1.098c0 .234-.05.45-.137.668-.09.215-.214.41-.37.598-.16.183-.337.332-.512.44.097.067.195.157.273.255.078.105.149.215.207.332.05.117.09.234.117.371.032.137.051.277.051.395 0 .332-.078.664-.219.988a3.09 3.09 0 0 1-.586.89 2.805 2.805 0 0 1-.851.618 2.333 2.333 0 0 1-.98.226c-.376 0-.696-.097-.993-.293a1.45 1.45 0 0 1-.605-.812l-.707 2.8c0 .04-.028.06-.078.06h-.118m2.52-2.009a1.2 1.2 0 0 0 .793-.285c.234-.195.43-.441.59-.734.156-.293.273-.598.351-.93a3.84 3.84 0 0 0 .125-.895c0-.332-.097-.585-.281-.78a1.823 1.823 0 0 1-.656.124c-.52 0-.778-.086-.778-.261 0-.227.297-.344.883-.344.207 0 .403.039.578.097.137-.109.266-.265.383-.48a2.6 2.6 0 0 0 .266-.656c.058-.227.086-.442.086-.649a.782.782 0 0 0-.176-.527.606.606 0 0 0-.488-.215 1.88 1.88 0 0 0-1.118.371 3.278 3.278 0 0 0-.863.93c-.234.375-.41.766-.508 1.156l-.539 2.168a2.883 2.883 0 0 0-.07.5c0 .41.129.754.402 1.02.266.261.606.39 1.02.39m.441-3.793c.098.032.254.04.489.04.109 0 .214-.02.332-.06-.008 0-.02-.007-.04-.007a.73.73 0 0 0-.222-.031c-.297 0-.48.02-.559.058m-8.273 15.766a1.6 1.6 0 0 1-.629-.129 1.321 1.321 0 0 1-.508-.352 1.475 1.475 0 0 1-.324-.539 1.678 1.678 0 0 1-.11-.636c0-.403.09-.793.286-1.184.195-.383.46-.719.793-1a2.74 2.74 0 0 1 1.09-.57 7.475 7.475 0 0 1-.442-.91 2.197 2.197 0 0 1-.148-.793c0-.2.039-.364.136-.52a.904.904 0 0 1 .383-.363c.156-.078.344-.13.551-.13.195 0 .578.071 1.156.196.145.04.223.13.223.266 0 .117-.04.215-.117.305a.369.369 0 0 1-.282.125.394.394 0 0 1-.218-.047 3.81 3.81 0 0 1-.301-.196 2.17 2.17 0 0 0-.375-.215.754.754 0 0 0-.332-.078.61.61 0 0 0-.363.125.374.374 0 0 0-.157.313c0 .219.09.453.274.719.176.273.441.617.785 1.035.383.492.578 1.039.578 1.629 0 .293-.05.617-.129.949a4.552 4.552 0 0 1-.37.973 2.23 2.23 0 0 1-.618.742 1.375 1.375 0 0 1-.832.285m.02-.254c.253 0 .468-.129.656-.39.175-.266.312-.583.41-.954.097-.363.148-.664.148-.922 0-.488-.176-1.039-.511-1.644a1.743 1.743 0 0 0-.891.605 3.072 3.072 0 0 0-.567 1.051 3.735 3.735 0 0 0-.187 1.137c0 .312.078.578.246.793.156.215.39.324.695.324m3.009 2.617v-.242c.57 0 .855-.066.855-.219V50.93c-.239.117-.54.172-.899.172v-.239c.555 0 .98-.144 1.27-.441h.097c.012 0 .032.008.047.023.016.012.02.028.02.04v4.046c0 .153.281.219.86.219v.242h-2.25m4.534-.668c0-.039 0-.066.012-.078l.969-3.898c.09-.356.246-.7.469-1.032.226-.332.5-.617.824-.832a1.768 1.768 0 0 1 1.012-.324c.273 0 .52.078.734.227.215.156.371.351.48.586.106.238.164.5.164.785 0 .324-.066.656-.195.988a3.505 3.505 0 0 1-.539.922 2.624 2.624 0 0 1-.785.676 1.968 1.968 0 0 1-.93.246 1.054 1.054 0 0 1-.941-.606l-.578 2.301a.376.376 0 0 1-.145.227.41.41 0 0 1-.258.086.3.3 0 0 1-.203-.078.245.245 0 0 1-.09-.196m2.235-1.98c.344 0 .648-.176.902-.528.254-.351.45-.773.586-1.254.14-.48.207-.894.207-1.226 0-.246-.059-.461-.168-.645a.543.543 0 0 0-.496-.277c-.297 0-.54.11-.758.324-.215.215-.39.473-.52.766a4.858 4.858 0 0 0-.32.902l-.265 1.098c.039.234.125.437.273.598a.714.714 0 0 0 .559.242m3.195 2.648v-.242c.57 0 .86-.066.86-.219V50.93c-.243.117-.544.172-.899.172v-.239c.555 0 .98-.144 1.27-.441h.093c.016 0 .035.008.051.023.012.012.02.028.02.04v4.046c0 .153.28.219.855.219v.242h-2.25m5.691-10.371a.257.257 0 0 1-.195-.082.278.278 0 0 1-.07-.2.25.25 0 0 1 .07-.179c.055-.058.113-.097.195-.097h8.036c.07 0 .129.039.183.097.043.055.07.125.07.18a.35.35 0 0 1-.07.2.25.25 0 0 1-.183.081h-8.036m12.262 3.359c-.449 0-.84-.109-1.176-.308a1.904 1.904 0 0 1-.796-.84c-.196-.348-.282-.754-.282-1.203 0-.629.168-1.258.532-1.875a4.372 4.372 0 0 1 1.402-1.512c.586-.394 1.203-.59 1.848-.59a2.1 2.1 0 0 1 1.246.38c.363.25.629.573.824.991.183.422.281.856.281 1.317l.016.937a9.15 9.15 0 0 0 .808-1.37 6.83 6.83 0 0 0 .504-1.485c.016-.055.059-.082.113-.082h.168c.086 0 .125.043.125.125 0 .015-.011.027-.011.043a8.98 8.98 0 0 1-.422 1.246 7.863 7.863 0 0 1-1.285 2.141c0 1.164.125 1.738.402 1.738a.562.562 0 0 0 .422-.156c.113-.098.21-.223.293-.38.086-.136.14-.222.168-.238h.168c.07 0 .113.059.113.141 0 .238-.14.465-.406.672-.266.2-.531.308-.785.308-.336 0-.614-.109-.84-.32a1.651 1.651 0 0 1-.461-.84c-.45.375-.926.672-1.43.867a4.236 4.236 0 0 1-1.539.293m.028-.347c.996 0 1.945-.406 2.87-1.235 0-.054-.015-.109-.015-.195-.012-.082-.012-.125-.012-.14V44.55c0-1.68-.46-2.535-1.37-2.535-.548 0-1.024.238-1.43.703a4.71 4.71 0 0 0-.938 1.68 5.77 5.77 0 0 0-.309 1.777c0 .406.098.754.309 1.035.21.281.504.422.895.422m8.164-6.272c-.04-.008-.059-.04-.059-.098l1.195-4.45a.6.6 0 0 1 .196-.292c.09-.07.199-.11.316-.11a.62.62 0 0 1 .402.156.472.472 0 0 1 .176.375c0 .067-.02.145-.05.223l-1.774 4.234c-.02.051-.05.07-.09.07a.37.37 0 0 1-.164-.05 1.12 1.12 0 0 1-.148-.059m-1.567 10.055v-.266c0-.011 0-.03.02-.05l1.52-1.684c.226-.246.41-.453.558-.629.137-.164.285-.363.422-.578.136-.215.254-.441.332-.676.078-.226.129-.468.129-.726 0-.262-.051-.52-.149-.762a1.349 1.349 0 0 0-.441-.59 1.188 1.188 0 0 0-.715-.223c-.285 0-.54.086-.766.254-.234.176-.39.391-.48.664.02 0 .058-.007.11-.007.136 0 .265.047.37.144a.534.534 0 0 1 .157.383.527.527 0 0 1-.157.383.5.5 0 0 1-.37.156.485.485 0 0 1-.384-.156.507.507 0 0 1-.156-.383c0-.234.04-.469.137-.684a1.76 1.76 0 0 1 .39-.578 1.89 1.89 0 0 1 .59-.383c.215-.09.45-.136.707-.136.372 0 .715.078 1.04.234.32.156.578.383.761.676.188.293.285.629.285 1.008 0 .285-.07.55-.187.804a2.665 2.665 0 0 1-.48.696 8.342 8.342 0 0 1-.743.715c-.305.265-.5.44-.597.53l-1.11 1.067h.942c.46 0 .843 0 1.156-.008.312 0 .48-.02.5-.039.078-.078.156-.383.234-.902h.285l-.273 1.746h-3.637m9.512-5.519c0 .335.055.644.195.91.14.28.336.492.59.629.25.156.543.226.895.226.39 0 .785-.07 1.175-.238a3.57 3.57 0 0 0 1.024-.688c.308-.293.558-.629.781-1.007a4.64 4.64 0 0 0 .465-1.106l1.258-5.055c.015-.097.027-.168.027-.21 0-.391-.363-.586-1.078-.586-.098 0-.137-.055-.137-.184.028-.11.04-.195.07-.238.012-.04.067-.07.168-.07h3.036c.027 0 .07.03.097.07a.206.206 0 0 1 .043.113c0 .016-.011.055-.027.113-.027.07-.043.125-.07.153-.028.027-.055.043-.082.043-.899 0-1.414.292-1.555.855l-1.262 5.05c-.113.45-.281.872-.531 1.278a5.054 5.054 0 0 1-.926 1.117 4.103 4.103 0 0 1-1.187.785 3.412 3.412 0 0 1-1.332.282c-.516 0-.993-.114-1.414-.325a2.466 2.466 0 0 1-.993-.937c-.254-.406-.363-.883-.363-1.414 0-.309.027-.586.098-.84l1.355-5.434c.016-.082.031-.152.031-.195 0-.097-.058-.152-.168-.168a7.367 7.367 0 0 0-1.007-.054c-.102 0-.14-.055-.14-.184.026-.11.054-.195.07-.238.011-.04.07-.07.167-.07h3.766c.082 0 .14.07.14.183 0 .027-.015.07-.03.125a.263.263 0 0 1-.055.129c-.028.039-.055.055-.098.055-.574 0-.965.042-1.191.097-.125.055-.207.184-.266.38l-1.356 5.429c-.128.504-.183.91-.183 1.219m10.125-4.043v-.34c.812 0 1.223-.098 1.223-.317v-5.144c-.344.168-.774.246-1.282.246v-.344c.793 0 1.399-.207 1.813-.625h.137a.1.1 0 0 1 .066.027c.02.02.031.04.031.06v5.78c0 .22.403.317 1.227.317v.34h-3.215m4.25 1.894c-.02 0-.04-.02-.059-.039-.02-.02-.02-.039-.02-.059l1.512-6.046a3.93 3.93 0 0 1 1-1.805c.243-.254.52-.461.82-.617a2.03 2.03 0 0 1 .962-.235c.234 0 .46.059.656.164.2.11.344.258.46.453.118.196.177.41.177.645 0 .238-.047.453-.137.668-.086.215-.215.41-.371.598a2.112 2.112 0 0 1-.508.441c.098.066.195.156.274.254.078.11.144.215.203.332a2.109 2.109 0 0 1 .168.766c0 .332-.079.668-.215.988a3.205 3.205 0 0 1-.59.894c-.254.266-.54.47-.852.618a2.38 2.38 0 0 1-.98.226c-.371 0-.695-.101-.988-.297-.293-.195-.5-.46-.61-.812l-.703 2.804c0 .04-.031.06-.078.06h-.121m2.52-2.013c.296 0 .558-.086.792-.28.239-.2.434-.442.59-.74.156-.292.274-.597.352-.929a3.86 3.86 0 0 0 .129-.89c0-.336-.098-.59-.285-.786a1.75 1.75 0 0 1-.657.13c-.52 0-.773-.09-.773-.266 0-.227.293-.344.883-.344.203 0 .402.039.578.098.137-.106.262-.266.383-.48a2.54 2.54 0 0 0 .261-.657c.059-.227.09-.442.09-.645a.785.785 0 0 0-.176-.53.614.614 0 0 0-.492-.216c-.402 0-.773.13-1.117.371a3.298 3.298 0 0 0-.863.934 3.97 3.97 0 0 0-.508 1.156l-.54 2.164a2.983 2.983 0 0 0-.07.5c0 .41.13.754.403 1.02.266.265.61.39 1.02.39m.44-3.793c.099.032.255.04.493.04.106 0 .215-.02.332-.06-.012 0-.02-.007-.039-.007a.905.905 0 0 0-.227-.031c-.293 0-.48.02-.558.058m-9.57 15.305c0-.039 0-.07.011-.078l.969-3.902c.09-.352.246-.696.469-1.028.226-.336.5-.617.824-.832a1.74 1.74 0 0 1 1.012-.324c.273 0 .52.078.734.223.215.16.371.355.48.59.106.234.165.5.165.785 0 .32-.067.656-.196.988a3.568 3.568 0 0 1-.539.922 2.68 2.68 0 0 1-.785.676 1.968 1.968 0 0 1-.93.246c-.195 0-.37-.059-.539-.157a1.081 1.081 0 0 1-.402-.453l-.578 2.305a.379.379 0 0 1-.145.223.414.414 0 0 1-.257.09.32.32 0 0 1-.204-.079.25.25 0 0 1-.09-.195m2.235-1.98c.344 0 .648-.176.902-.532.254-.351.45-.773.586-1.254.14-.48.207-.89.207-1.222a1.26 1.26 0 0 0-.168-.649.547.547 0 0 0-.496-.273c-.297 0-.539.11-.758.324-.214.215-.39.469-.52.762a5.21 5.21 0 0 0-.32.902l-.265 1.098c.039.234.125.441.273.598a.705.705 0 0 0 .559.246m3.196 2.648v-.242c.57 0 .859-.067.859-.219v-3.601c-.239.117-.543.171-.899.171v-.242c.555 0 .98-.144 1.27-.437h.093c.016 0 .036.008.051.02.012.015.02.027.02.042v4.047c0 .152.281.219.855.219v.242h-2.25m6.098-2.402c-.297 0-.55-.07-.777-.196a1.392 1.392 0 0 1-.516-.558 1.62 1.62 0 0 1-.188-.785c0-.293.067-.618.207-.953.137-.333.32-.645.559-.918.234-.278.508-.5.813-.668.293-.157.605-.246.921-.246h2.47a.27.27 0 0 1 .163.07.234.234 0 0 1 .082.176.346.346 0 0 1-.11.254.308.308 0 0 1-.245.109h-1.196c.188.285.286.625.286 1.02a2.6 2.6 0 0 1-.196.968 2.914 2.914 0 0 1-.53.871 2.524 2.524 0 0 1-.794.63 2.134 2.134 0 0 1-.95.226m.009-.246c.355 0 .675-.137.953-.422.273-.274.476-.617.625-1.02.148-.402.226-.773.226-1.125 0-.277-.078-.5-.234-.656-.16-.16-.375-.246-.648-.246a1.33 1.33 0 0 0-.97.383c-.265.254-.46.578-.597.96-.14.391-.2.762-.2 1.118 0 .281.071.52.22.715.144.195.351.293.625.293m4.093 2.648v-.187c0-.008 0-.02.016-.036l1.063-1.18c.156-.171.289-.312.39-.437.098-.117.2-.254.297-.406.094-.148.176-.309.23-.473a1.48 1.48 0 0 0-.012-1.043.939.939 0 0 0-.308-.41.806.806 0 0 0-.5-.16.876.876 0 0 0-.535.18.899.899 0 0 0-.336.468c.012 0 .04-.007.074-.007.098 0 .184.035.262.101a.379.379 0 0 1 0 .535.367.367 0 0 1-.262.11.354.354 0 0 1-.27-.11.363.363 0 0 1-.109-.265c0-.168.028-.332.098-.48.063-.153.152-.282.274-.407a1.27 1.27 0 0 1 .414-.266c.148-.062.312-.097.492-.097.262 0 .5.054.726.164a1.285 1.285 0 0 1 .735 1.18c0 .199-.047.386-.13.562a1.96 1.96 0 0 1-.335.488 5.538 5.538 0 0 1-.524.5c-.21.184-.347.309-.418.371l-.773.746h.656c.325 0 .59 0 .809-.003.223 0 .336-.016.351-.028.055-.054.11-.27.164-.633h.2l-.192 1.223h-2.547M414.969 74.7c0 .335.054.64.195.91.14.277.336.488.59.628.25.153.543.223.894.223.391 0 .786-.07 1.176-.238.38-.168.715-.391 1.024-.684a4.7 4.7 0 0 0 .78-1.008c.212-.367.368-.742.466-1.11l1.258-5.05c.015-.098.027-.168.027-.21 0-.391-.363-.59-1.074-.59-.102 0-.14-.055-.14-.18.026-.114.038-.196.07-.239.011-.043.07-.07.167-.07h3.036c.03 0 .07.027.097.07a.196.196 0 0 1 .043.11.699.699 0 0 1-.027.113c-.028.07-.043.125-.07.156-.028.028-.055.04-.083.04-.898 0-1.414.296-1.554.855l-1.262 5.054a4.31 4.31 0 0 1-.531 1.274 5.074 5.074 0 0 1-.926 1.121 4.012 4.012 0 0 1-1.188.781 3.412 3.412 0 0 1-1.332.281 3.19 3.19 0 0 1-1.414-.32 2.502 2.502 0 0 1-.992-.941c-.254-.403-.363-.88-.363-1.414 0-.305.027-.586.098-.84l1.355-5.43c.016-.086.031-.156.031-.195 0-.098-.058-.156-.168-.168a6.609 6.609 0 0 0-1.007-.059c-.102 0-.141-.054-.141-.18a2.27 2.27 0 0 1 .07-.238c.012-.043.07-.07.168-.07h3.766c.082 0 .14.07.14.18 0 .031-.015.07-.03.129a.248.248 0 0 1-.055.125c-.028.043-.055.054-.098.054-.574 0-.965.043-1.192.098-.125.059-.207.184-.265.379l-1.356 5.433c-.129.504-.183.91-.183 1.22m11.664-3.837c-.805 0-1.356-.324-1.637-.98-.297-.656-.433-1.442-.433-2.352 0-.57.05-1.097.156-1.597.097-.5.304-.922.617-1.278.305-.351.738-.527 1.297-.527.43 0 .781.11 1.058.312.274.215.477.48.625.813.137.336.235.7.293 1.078.051.383.079.785.079 1.2a8 8 0 0 1-.157 1.573c-.105.493-.312.915-.617 1.247-.305.332-.734.511-1.281.511m0-.246c.36 0 .637-.187.812-.558a3.62 3.62 0 0 0 .325-1.235c.039-.453.066-.941.066-1.453 0-.488-.027-.937-.066-1.351a3.013 3.013 0 0 0-.325-1.125c-.175-.336-.453-.512-.812-.512-.375 0-.649.176-.824.512a3.02 3.02 0 0 0-.332 1.125c-.04.414-.059.863-.059 1.351 0 .375 0 .719.02 1.031.019.325.066.657.144 1 .078.344.195.625.375.86.164.238.39.355.676.355m2.715 1.93c-.02 0-.04-.02-.063-.04-.02-.019-.02-.038-.02-.058l1.512-6.047a4.13 4.13 0 0 1 .371-.949c.168-.305.375-.59.63-.855.242-.254.519-.461.82-.618.297-.156.62-.234.96-.234.239 0 .462.059.657.168.2.106.344.254.46.45.118.195.177.413.177.648 0 .234-.047.449-.137.664a2.122 2.122 0 0 1-.371.597 2.03 2.03 0 0 1-.508.442c.098.07.195.156.273.258.079.105.145.215.207.332a2.08 2.08 0 0 1 .164.762c0 .335-.078.667-.214.992a3.243 3.243 0 0 1-.59.89c-.254.266-.54.473-.852.617a2.32 2.32 0 0 1-.98.227 1.73 1.73 0 0 1-.989-.293 1.47 1.47 0 0 1-.609-.816l-.703 2.804c0 .04-.031.059-.078.059h-.117m2.515-2.008c.297 0 .559-.09.797-.285.235-.195.43-.442.586-.734.156-.293.274-.598.352-.934a3.83 3.83 0 0 0 .129-.89c0-.333-.098-.587-.286-.786a1.73 1.73 0 0 1-.656.13c-.52 0-.773-.09-.773-.267 0-.222.293-.34.883-.34.203 0 .402.04.578.098.136-.11.261-.265.382-.48a2.59 2.59 0 0 0 .262-.656c.059-.227.09-.442.09-.649a.782.782 0 0 0-.176-.527.6.6 0 0 0-.492-.219c-.402 0-.773.129-1.117.375a3.27 3.27 0 0 0-.86.93 3.928 3.928 0 0 0-.511 1.156l-.54 2.164c-.038.16-.058.324-.066.5 0 .414.125.758.399 1.02.265.265.61.394 1.02.394m.44-3.793c.098.027.255.04.493.04.105 0 .215-.02.332-.06-.012 0-.02-.011-.04-.011a.899.899 0 0 0-.226-.028c-.293 0-.48.02-.558.06m-9.571 15.3c0-.04 0-.067.012-.078l.969-3.899c.09-.355.246-.699.469-1.03.226-.333.5-.618.824-.833a1.768 1.768 0 0 1 1.012-.324c.273 0 .52.078.734.226.215.157.371.352.48.586.106.239.164.5.164.785 0 .325-.066.657-.195.989a3.505 3.505 0 0 1-.539.922 2.624 2.624 0 0 1-.785.675c-.293.16-.606.246-.93.246a1.054 1.054 0 0 1-.941-.605l-.578 2.3a.376.376 0 0 1-.145.227.403.403 0 0 1-.258.086.3.3 0 0 1-.203-.078.245.245 0 0 1-.09-.195m2.235-1.98c.344 0 .648-.176.902-.528.254-.352.45-.773.59-1.254.137-.48.203-.894.203-1.226 0-.246-.059-.461-.164-.645a.553.553 0 0 0-.5-.277c-.297 0-.54.11-.758.324-.215.215-.39.473-.52.766a4.858 4.858 0 0 0-.32.902l-.265 1.098c.039.234.129.441.273.597a.714.714 0 0 0 .559.242m3.199 2.649v-.238c.566 0 .855-.07.855-.223v-3.602c-.238.118-.543.172-.898.172v-.238c.555 0 .98-.145 1.27-.441h.093c.016 0 .035.007.051.023.012.012.02.027.02.039v4.047c0 .152.28.223.859.223v.238h-2.25m6.094-2.402c-.297 0-.551-.067-.774-.196a1.35 1.35 0 0 1-.52-.558 1.609 1.609 0 0 1-.187-.786c0-.293.067-.617.207-.949.137-.332.32-.648.559-.922.234-.273.508-.5.812-.668.293-.156.606-.242.922-.242h2.469c.059 0 .117.028.168.067a.26.26 0 0 1 .078.175.351.351 0 0 1-.11.258.305.305 0 0 1-.245.106h-1.196c.188.285.285.629.285 1.02 0 .331-.07.655-.195.972-.129.32-.305.617-.531.87a2.512 2.512 0 0 1-.793.626 2.134 2.134 0 0 1-.95.227m.009-.247c.355 0 .675-.136.953-.418.273-.277.48-.62.625-1.02.148-.401.226-.776.226-1.128 0-.273-.078-.5-.234-.656-.156-.156-.375-.246-.649-.246-.382 0-.707.129-.968.382a2.442 2.442 0 0 0-.598.961c-.137.391-.2.766-.2 1.118 0 .285.071.52.22.714.144.196.351.293.625.293m4.093 2.649v-.184c0-.008 0-.023.016-.035l1.062-1.18c.16-.171.29-.316.391-.441.098-.117.2-.254.297-.402.094-.153.176-.309.23-.473a1.478 1.478 0 0 0-.011-1.043.974.974 0 0 0-.309-.414.828.828 0 0 0-.5-.156c-.2 0-.379.062-.535.18a.89.89 0 0 0-.336.464c.012 0 .039-.008.074-.008a.368.368 0 0 1 .371.371c0 .11-.043.2-.11.27a.367.367 0 0 1-.26.11.34.34 0 0 1-.266-.11.366.366 0 0 1-.114-.27c0-.164.028-.328.098-.48.062-.152.152-.281.273-.406.125-.113.262-.203.414-.266.149-.062.313-.097.493-.097.261 0 .5.054.726.168.227.109.406.265.535.472a1.332 1.332 0 0 1 .07 1.27c-.09.175-.199.34-.335.484a5.538 5.538 0 0 1-.524.5c-.21.188-.347.313-.418.371l-.773.75h.656c.324 0 .59 0 .809-.008.222 0 .34-.015.351-.027.055-.055.11-.27.164-.633h.2l-.192 1.223h-2.547m41.239.012v-1.059h3.828V34.934h-3.828V33.89h4.89v48.836h-4.89M258.457 59.992h34.477v-1.25h-34.477v1.25Zm119.453 0h99.047v-1.25H377.91v1.25ZM19.137 1.773c-.59 0-1.067-.21-1.403-.66-.336-.433-.504-.949-.504-1.566 0-.59.157-1.219.465-1.863.309-.645.711-1.176 1.246-1.594.532-.422 1.09-.645 1.707-.645.282 0 .516.082.743.239.222.152.39.347.515.601l.785-3.12c.028-.157.055-.282.07-.38 0-.14-.308-.226-.91-.226-.097 0-.14-.055-.14-.18 0-.027 0-.07.027-.125a.305.305 0 0 1 .059-.129c.027-.027.055-.055.11-.055l1.89-.152c.113 0 .168.07.168.18L21.949.148c-.07.168-.097.391-.097.672 0 .407.125.602.406.602s.504-.18.656-.559c.156-.363.281-.797.395-1.289.011-.054.054-.082.113-.082h.168c.027 0 .055.028.082.055.027.027.043.055.043.082-.168.66-.352 1.176-.547 1.57-.195.39-.504.574-.938.574-.324 0-.601-.097-.84-.265a1.108 1.108 0 0 1-.449-.73c-.601.671-1.203.995-1.804.995m.011-.351c.336 0 .66-.125.98-.379.31-.25.59-.543.813-.895 0 0 .016-.027.016-.054l.77-3.082a1.922 1.922 0 0 0-.364-.84c-.199-.238-.433-.363-.742-.363-.324 0-.617.14-.883.39a3.25 3.25 0 0 0-.687.91c-.196.38-.363.899-.531 1.543-.168.641-.239 1.145-.239 1.512 0 .336.07.629.211.879.14.254.352.379.656.379m5.223 2.828c0-.055 0-.098.016-.113l1.386-5.57a4.55 4.55 0 0 1 .672-1.47c.32-.476.715-.882 1.176-1.19.445-.31.938-.462 1.442-.462.39 0 .742.11 1.05.32.309.227.532.505.684.84.156.336.238.715.238 1.122 0 .46-.098.937-.277 1.414-.2.476-.45.925-.774 1.316-.32.406-.699.727-1.117.965a2.793 2.793 0 0 1-1.332.351 1.527 1.527 0 0 1-1.344-.867l-.824 3.29a.532.532 0 0 1-.21.32.563.563 0 0 1-.364.125.439.439 0 0 1-.293-.11.35.35 0 0 1-.129-.281m3.192-2.828c.492 0 .925-.25 1.289-.754.363-.504.644-1.11.84-1.793.195-.688.292-1.273.292-1.75 0-.352-.082-.66-.234-.926a.798.798 0 0 0-.715-.39c-.422 0-.77.152-1.078.46a3.452 3.452 0 0 0-.742 1.094c-.195.418-.352.84-.461 1.29L26.375.218c.055.336.18.629.39.855.212.235.477.348.797.348m-7.425 21.833c-.59 0-1.067-.211-1.403-.656-.336-.438-.504-.953-.504-1.57 0-.587.157-1.22.465-1.864.309-.64.711-1.176 1.246-1.594.532-.422 1.09-.644 1.707-.644.282 0 .516.082.743.238.222.152.39.352.515.602l.785-3.121c.028-.157.055-.282.07-.38 0-.14-.308-.222-.91-.222-.097 0-.14-.059-.14-.184 0-.027 0-.07.027-.125a.287.287 0 0 1 .059-.125c.027-.03.055-.058.11-.058l1.89-.153c.113 0 .168.07.168.18l-2.016 8.05c-.07.169-.097.395-.097.673 0 .406.125.601.406.601s.504-.18.656-.558a7.77 7.77 0 0 0 .395-1.29c.011-.054.054-.081.113-.081h.168c.027 0 .055.027.082.054.027.028.043.055.043.086-.168.657-.352 1.176-.547 1.567-.195.39-.504.574-.938.574-.324 0-.601-.098-.84-.266a1.108 1.108 0 0 1-.449-.73c-.601.676-1.203.996-1.804.996m.011-.352c.336 0 .66-.125.98-.375.31-.254.59-.547.813-.898 0 0 .016-.027.016-.055l.77-3.082a1.922 1.922 0 0 0-.364-.84c-.199-.238-.433-.363-.742-.363-.324 0-.617.14-.883.395-.281.25-.504.558-.687.906-.196.379-.363.898-.531 1.543-.168.644-.239 1.148-.239 1.512 0 .335.07.628.211.882.14.25.352.375.656.375m5.7-.922c0-.14.015-.265.043-.394l1.007-4.016H25.43c-.098 0-.14-.054-.14-.183.026-.196.097-.309.179-.309h1.554l.563-2.281a.58.58 0 0 1 .207-.309.642.642 0 0 1 .379-.136c.113 0 .21.039.293.109a.35.35 0 0 1 .129.281c0 .028-.016.055-.016.07v.043l-.558 2.223h1.44c.083 0 .142.07.142.184 0 .027-.016.054-.028.113a.391.391 0 0 1-.058.14c-.028.04-.055.055-.098.055h-1.527l-1.008 4.047c-.07.266-.098.488-.098.684 0 .406.13.601.406.601.407 0 .77-.18 1.094-.574.309-.39.559-.808.727-1.273.027-.055.07-.082.113-.082h.168c.027 0 .055.011.082.043.027.027.043.054.043.082 0 .027-.016.043-.016.043a4.437 4.437 0 0 1-.894 1.484c-.39.418-.84.629-1.344.629-.379 0-.687-.125-.937-.352-.254-.238-.38-.543-.38-.922M45.23 10.05a.348.348 0 0 1-.277-.12c-.082-.078-.101-.18-.101-.278 0-.082.02-.18.101-.261.078-.079.156-.141.277-.141h5.88V3.352c0-.102.042-.18.12-.262a.445.445 0 0 1 .282-.098c.078 0 .18.04.258.098.082.082.14.16.14.262V9.25h5.883c.078 0 .16.063.238.14.078.083.121.18.121.262 0 .098-.043.2-.12.278-.079.082-.16.12-.239.12H51.91v5.88c0 .101-.058.18-.14.261a.478.478 0 0 1-.258.102.448.448 0 0 1-.282-.102c-.078-.082-.12-.16-.12-.261v-5.88h-5.88m15.872 8.34c0-.078 0-.14.02-.16l1.98-7.96c.18-.72.5-1.418.957-2.098a6.154 6.154 0 0 1 1.68-1.7 3.6 3.6 0 0 1 2.062-.66c.558 0 1.058.16 1.5.458.437.32.758.722.98 1.203.219.48.34 1.02.34 1.597 0 .66-.14 1.34-.402 2.02a7.43 7.43 0 0 1-1.098 1.883c-.46.578-1 1.039-1.601 1.379-.602.32-1.239.5-1.899.5a2.14 2.14 0 0 1-1.101-.32 2.145 2.145 0 0 1-.82-.923l-1.18 4.704a.765.765 0 0 1-.301.457.82.82 0 0 1-.52.183c-.16 0-.3-.062-.418-.16a.507.507 0 0 1-.18-.402m4.56-4.04c.698 0 1.32-.359 1.839-1.081.52-.72.918-1.579 1.2-2.56.28-.98.421-1.82.421-2.5 0-.5-.121-.94-.34-1.32-.222-.359-.562-.558-1.02-.558-.6 0-1.1.219-1.542.66a5.002 5.002 0 0 0-1.059 1.559c-.281.601-.5 1.199-.66 1.84l-.54 2.242c.08.476.259.898.56 1.219.3.34.68.5 1.14.5m5.582-12.633c-.12 0-.203-.04-.262-.117-.078-.082-.097-.16-.097-.282 0-.101.02-.199.097-.28.06-.08.141-.118.262-.118h7.078C77.96.46 77.8.059 77.8-.262c0-.117.04-.199.122-.277a.353.353 0 0 1 .277-.121c.203 0 .34.12.403.32a1.95 1.95 0 0 0 .937 1.32c.121.098.203.22.203.34 0 .16-.082.282-.203.34-.758.38-1.36.88-1.816 1.5-.063.102-.16.14-.301.14a.359.359 0 0 1-.281-.12.369.369 0 0 1-.121-.282c0-.238.32-.617.96-1.18h-6.738m1.781 10.672c0-.28.02-.62.098-.98.082-.36.14-.64.219-.879.062-.238.222-.68.48-1.36.262-.66.403-1 .403-1.038.16-.48.257-.883.257-1.203 0-.399-.16-.598-.437-.598-.52 0-.961.277-1.3.82a5.862 5.862 0 0 0-.763 1.82c-.039.079-.078.118-.16.118h-.238c-.121 0-.16-.059-.16-.18v-.058c.2-.801.539-1.5.98-2.122.438-.597 1-.918 1.68-.918.48 0 .879.16 1.2.481.32.316.5.7.5 1.18 0 .257-.06.52-.16.777-.282.68-.481 1.242-.622 1.64-.16.403-.297.86-.418 1.36-.121.52-.18.98-.18 1.402 0 .5.098.899.34 1.22.219.32.578.48 1.078.48.922 0 1.743-.7 2.5-2.141.243-.461.461-1 .66-1.621.2-.617.32-1.137.32-1.54 0-.398-.077-.698-.198-.94a7.642 7.642 0 0 0-.52-.7c-.2-.238-.3-.418-.3-.578 0-.262.1-.5.32-.723a1 1 0 0 1 .718-.316c.32 0 .543.16.68.437.14.301.223.641.223 1 0 .442-.082.98-.2 1.582-.12.618-.3 1.258-.523 1.918-.238.66-.438 1.18-.617 1.54-.883 1.722-1.922 2.582-3.082 2.582-.84 0-1.52-.2-2.02-.622-.52-.398-.758-1.02-.758-1.84M85.75 9.652c0-.18.043-.359.14-.543.102-.156.243-.296.422-.398.16-.102.34-.16.54-.16.18 0 .359.058.539.16.16.101.3.242.402.398.098.184.156.364.156.543 0 .301-.117.559-.316.778-.223.222-.48.32-.781.32-.301 0-.559-.098-.782-.32a1.053 1.053 0 0 1-.32-.778m11.84 5.418L90.71 1.21l-.019-.019v-.039c0-.101.04-.16.16-.16h14.481c.098 0 .16.059.16.16v.04l-.023.019-6.88 13.86a.397.397 0 0 1-.359.222h-.28c-.18 0-.302-.082-.36-.223m1.082-1.718 5.379-10.86H93.289l5.383 10.86m8.118-11.633c-.122 0-.2-.04-.259-.117-.082-.082-.101-.16-.101-.282 0-.101.02-.199.101-.28.059-.08.137-.118.258-.118h7.082c-.36-.461-.52-.863-.52-1.184 0-.117.04-.199.118-.277a.361.361 0 0 1 .281-.121c.2 0 .34.12.398.32.122.578.442 1.02.942 1.32.12.098.2.22.2.34a.36.36 0 0 1-.2.34 4.972 4.972 0 0 0-1.82 1.5c-.06.102-.16.14-.301.14a.354.354 0 0 1-.278-.12.356.356 0 0 1-.12-.282c0-.238.32-.617.96-1.18h-6.742m1.781 10.672c0-.28.02-.62.102-.98.078-.36.137-.64.219-.879.058-.238.218-.68.48-1.36.258-.66.399-1 .399-1.038.16-.48.261-.883.261-1.203 0-.399-.16-.598-.441-.598-.52 0-.961.277-1.3.82a5.854 5.854 0 0 0-.759 1.82c-.039.079-.082.118-.16.118h-.242c-.117 0-.16-.059-.16-.18v-.058c.203-.801.543-1.5.98-2.122.442-.597 1-.918 1.68-.918.48 0 .883.16 1.203.481.32.316.5.7.5 1.18 0 .257-.062.52-.16.777-.281.68-.48 1.242-.621 1.64-.16.403-.301.86-.422 1.36-.117.52-.18.98-.18 1.402 0 .5.102.899.34 1.22.223.32.582.48 1.082.48.918 0 1.738-.7 2.5-2.141.238-.461.461-1 .66-1.621.2-.617.32-1.137.32-1.54a2.09 2.09 0 0 0-.199-.94 7.057 7.057 0 0 0-.523-.7c-.2-.238-.297-.418-.297-.578 0-.262.098-.5.32-.723a.998.998 0 0 1 .72-.316c.32 0 .538.16.679.437.14.301.219.641.219 1 0 .442-.079.98-.2 1.582-.12.618-.3 1.258-.52 1.918-.241.66-.44 1.18-.62 1.54-.88 1.722-1.918 2.582-3.078 2.582-.84 0-1.52-.2-2.02-.622-.523-.398-.762-1.02-.762-1.84m12.551-.398a.381.381 0 0 1-.383-.402c0-.098.024-.2.102-.277a.361.361 0 0 1 .281-.122h12.559c.082 0 .16.04.242.121a.394.394 0 0 1 0 .56c-.082.081-.16.12-.242.12h-12.56m0-3.883a.37.37 0 0 1-.281-.117c-.078-.082-.102-.16-.102-.281 0-.078.024-.18.102-.258.082-.082.16-.14.281-.14h12.559c.082 0 .16.058.242.14.078.078.117.18.117.258a.37.37 0 0 1-.117.281c-.082.078-.16.117-.242.117H121.12m17.349 1.941a.374.374 0 0 1-.379-.398c0-.082.02-.18.098-.261.082-.079.16-.141.28-.141h11.481c.098 0 .18.063.258.14a.46.46 0 0 1 .102.262c0 .098-.04.2-.102.278a.342.342 0 0 1-.258.12h-11.48m21.316 5.02-6.879-13.86-.02-.019v-.039c0-.101.04-.16.16-.16h14.481c.098 0 .16.059.16.16v.04l-.023.019-6.879 13.86a.397.397 0 0 1-.36.222h-.28c-.18 0-.301-.082-.36-.223m1.082-1.718 5.38-10.86h-10.763l5.383 10.86m7.278 5.16c-.118 0-.18-.102-.18-.262.039-.297.14-.438.262-.438.398 0 .68-.042.84-.12.16-.083.3-.262.398-.56l2.262-8.98c.078-.242.14-.562.14-.96 0-.56-.203-.86-.582-.86-.418 0-.738.258-.937.758-.203.5-.403 1.12-.582 1.883 0 .078-.059.117-.16.117h-.239c-.043 0-.062-.02-.101-.059a.22.22 0 0 1-.059-.14c.14-.579.277-1.079.418-1.48.121-.4.34-.759.621-1.098.281-.32.621-.5 1.059-.5.441 0 .84.14 1.199.398.344.262.562.601.66 1.039a5.479 5.479 0 0 1 1.203-1.04 2.693 2.693 0 0 1 1.38-.397c.558 0 1.038.16 1.46.457.398.3.719.703.918 1.183.2.477.32 1 .32 1.559 0 .86-.218 1.738-.66 2.66a6.5 6.5 0 0 1-1.781 2.281c-.758.598-1.559.899-2.418.899-.399 0-.738-.122-1.059-.32-.32-.2-.582-.5-.742-.86l-.898 3.539c-.04.2-.063.3-.063.34 0 .16.442.262 1.32.262.122 0 .204.078.204.257-.043.16-.082.282-.121.34-.04.063-.102.102-.223.102h-3.86m5.461-4.16c.461 0 .88-.18 1.282-.559.398-.383.718-.82.98-1.3.16-.36.34-.782.5-1.302.16-.52.297-1.058.418-1.66.121-.578.18-1.039.18-1.398 0-.301-.04-.582-.117-.863a1.655 1.655 0 0 0-.403-.66 1.06 1.06 0 0 0-.738-.278c-.5 0-.96.18-1.402.52-.438.359-.82.78-1.16 1.3v.059l-1.098 4.422c.078.476.258.898.52 1.219.257.34.597.5 1.038.5m10.09-4.302a.348.348 0 0 1-.277-.12c-.082-.078-.102-.18-.102-.278 0-.082.02-.18.102-.261.078-.079.156-.141.277-.141h5.88V3.352c0-.102.042-.18.12-.262a.445.445 0 0 1 .282-.098c.078 0 .18.04.257.098.082.082.141.16.141.262V9.25h5.883c.078 0 .16.063.238.14.078.083.121.18.121.262 0 .098-.043.2-.12.278-.079.082-.161.12-.24.12h-5.882v5.88c0 .101-.059.18-.14.261a.478.478 0 0 1-.258.102.448.448 0 0 1-.282-.102c-.078-.082-.12-.16-.12-.261v-5.88h-5.88m15.871 8.34c0-.078 0-.14.02-.16l2.937-11.777a.776.776 0 0 1 .301-.46.87.87 0 0 1 .54-.18c.16 0 .3.058.421.16.121.097.18.238.18.398v.102c0 .02-.02.039-.02.058l-1.18 4.68a5.96 5.96 0 0 0-.199 1.441c0 .5.098.899.34 1.22.239.32.598.48 1.078.48.961 0 1.82-.602 2.559-1.82v-.02s.023-.02.023-.04l1.438-5.8c.039-.16.16-.32.32-.442.16-.12.32-.199.52-.199.16 0 .3.059.422.16a.51.51 0 0 1 .18.399c0 .082-.02.14-.02.16l-1.442 5.762c-.101.379-.14.699-.14.98 0 .578.18.86.582.86.398 0 .719-.243.937-.762.203-.52.403-1.137.563-1.88.02-.077.078-.12.16-.12h.238c.04 0 .082.043.121.082.04.039.059.078.059.121-.238.937-.48 1.68-.758 2.238-.281.559-.742.82-1.363.82-.438 0-.84-.12-1.18-.359-.34-.242-.558-.582-.66-1.02-.34.419-.738.758-1.18 1a2.946 2.946 0 0 1-1.398.38c-.84 0-1.48-.2-1.961-.559l-1.02 4.02a.76.76 0 0 1-.3.457.82.82 0 0 1-.52.183c-.16 0-.3-.062-.418-.16a.507.507 0 0 1-.18-.402m19.301-3.321-6.883-13.86-.02-.019v-.039c0-.101.04-.16.161-.16h14.48c.102 0 .16.059.16.16v.04l-.019.019-6.879 13.86c-.082.14-.203.222-.363.222h-.277c-.18 0-.301-.082-.36-.223m1.078-1.718 5.38-10.86h-10.759l5.38 10.86m8.46-7.254v-.38c0-.015 0-.042.028-.07l2.171-2.406c.32-.351.586-.644.797-.898.196-.239.407-.516.602-.824.195-.31.363-.63.476-.965.114-.325.18-.672.18-1.04a2.89 2.89 0 0 0-.207-1.09 1.886 1.886 0 0 0-.633-.84 1.664 1.664 0 0 0-1.02-.323c-.405 0-.769.129-1.093.363a1.873 1.873 0 0 0-.684.953c.028 0 .082-.012.153-.012.195 0 .379.07.531.207.14.141.227.325.227.547a.754.754 0 0 1-.227.547.733.733 0 0 1-.531.223.707.707 0 0 1-.547-.223.749.749 0 0 1-.223-.547c0-.336.055-.672.196-.98.125-.309.308-.574.558-.824.254-.239.535-.422.84-.547a2.668 2.668 0 0 1 1.012-.196c.531 0 1.02.114 1.48.336a2.6 2.6 0 0 1 1.094.965 2.705 2.705 0 0 1 .14 2.59c-.183.363-.406.7-.687.996-.277.309-.629.645-1.062 1.02-.434.379-.715.632-.856.757l-1.582 1.524h1.344c.66 0 1.203 0 1.652-.012.45 0 .688-.027.715-.054.113-.114.223-.547.336-1.29h.406l-.39 2.493h-5.196m13.059-4.379c-.117 0-.2-.04-.258-.117-.082-.082-.102-.16-.102-.282 0-.101.02-.199.102-.28.059-.08.14-.118.258-.118h7.082c-.36-.461-.52-.863-.52-1.184 0-.117.04-.199.121-.277a.348.348 0 0 1 .278-.121c.199 0 .34.12.402.32.117.578.438 1.02.938 1.32.12.098.199.22.199.34a.36.36 0 0 1-.2.34 5.004 5.004 0 0 0-1.82 1.5c-.058.102-.16.14-.297.14a.356.356 0 0 1-.28-.12.356.356 0 0 1-.122-.282c0-.238.32-.617.961-1.18h-6.742m1.781 10.672c0-.28.02-.62.102-.98.078-.36.14-.64.218-.879.063-.238.223-.68.48-1.36.263-.66.4-1 .4-1.038.16-.48.261-.883.261-1.203 0-.399-.16-.598-.441-.598-.52 0-.957.277-1.297.82a5.77 5.77 0 0 0-.762 1.82c-.039.079-.078.118-.16.118h-.238c-.121 0-.16-.059-.16-.18v-.058c.199-.801.538-1.5.98-2.122.437-.597 1-.918 1.68-.918.48 0 .879.16 1.199.481.32.316.5.7.5 1.18 0 .257-.063.52-.16.777a31.55 31.55 0 0 0-.621 1.64 9.69 9.69 0 0 0-.418 1.36c-.121.52-.18.98-.18 1.402 0 .5.098.899.34 1.22.219.32.578.48 1.078.48.922 0 1.742-.7 2.5-2.141.242-.461.46-1 .66-1.621.2-.617.32-1.137.32-1.54 0-.398-.082-.698-.199-.94a7.642 7.642 0 0 0-.52-.7c-.203-.238-.3-.418-.3-.578 0-.262.097-.5.32-.723a.998.998 0 0 1 .719-.316c.32 0 .539.16.68.437.14.301.218.641.218 1 0 .442-.078.98-.199 1.582a15.17 15.17 0 0 1-.52 1.918c-.238.66-.437 1.18-.62 1.54-.88 1.722-1.918 2.582-3.079 2.582-.84 0-1.52-.2-2.02-.622-.519-.398-.76-1.02-.76-1.84m12.55-2.34a.374.374 0 0 1-.379-.398c0-.082.02-.18.098-.261.082-.079.16-.141.28-.141h5.88V3.352c0-.102.039-.18.12-.262a.437.437 0 0 1 .282-.098c.078 0 .18.04.258.098.082.082.14.16.14.262V9.25h5.88c.082 0 .16.063.242.14.078.083.117.18.117.262a.4.4 0 0 1-.117.278c-.082.082-.16.12-.243.12h-5.878v5.88c0 .101-.059.18-.141.261a.478.478 0 0 1-.258.102.44.44 0 0 1-.281-.102c-.082-.082-.121-.16-.121-.261v-5.88h-5.88m15.868 8.34c0-.078 0-.14.02-.16l1.98-7.96c.18-.72.5-1.418.961-2.098a6.154 6.154 0 0 1 1.68-1.7 3.59 3.59 0 0 1 2.058-.66c.563 0 1.063.16 1.5.458.442.32.762.722.98 1.203.223.48.34 1.02.34 1.597 0 .66-.136 1.34-.398 2.02-.281.68-.64 1.32-1.101 1.883-.457.578-1 1.039-1.598 1.379-.602.32-1.242.5-1.902.5-.399 0-.758-.122-1.098-.32a2.145 2.145 0 0 1-.82-.923l-1.18 4.704c-.04.18-.14.34-.3.457a.82.82 0 0 1-.52.183.664.664 0 0 1-.422-.16.519.519 0 0 1-.18-.402m4.563-4.04c.699 0 1.32-.359 1.84-1.081.519-.72.917-1.579 1.199-2.56.28-.98.418-1.82.418-2.5 0-.5-.118-.94-.34-1.32-.219-.359-.559-.558-1.02-.558-.597 0-1.097.219-1.539.66-.441.438-.8.961-1.058 1.559a9.949 9.949 0 0 0-.66 1.84l-.544 2.242c.082.476.262.898.563 1.219.3.34.68.5 1.14.5m5.579-12.618c-.118 0-.2-.039-.258-.117-.082-.082-.102-.16-.102-.281 0-.102.02-.2.102-.281.058-.078.14-.117.258-.117h7.082c-.36-.461-.52-.864-.52-1.184 0-.117.04-.2.117-.277a.361.361 0 0 1 .282-.122c.199 0 .34.122.402.32.117.579.437 1.02.937 1.321.122.098.2.219.2.34a.36.36 0 0 1-.2.34 5.004 5.004 0 0 0-1.82 1.5c-.058.101-.16.14-.3.14a.356.356 0 0 1-.278-.12.356.356 0 0 1-.121-.282c0-.238.32-.617.96-1.18h-6.741m-.078 15.758c0-.32.101-.62.34-.86.218-.241.5-.362.82-.362.199 0 .379.062.539.203.14.117.222.297.222.52 0 .237-.082.437-.222.64-.14.199-.32.34-.52.418.36.101.922.16 1.68.16.601 0 1.16-.238 1.68-.719.5-.48.84-1.02 1-1.62l.582-2.321c-.723.742-1.48 1.101-2.262 1.101-.578 0-1.078-.14-1.48-.441a2.659 2.659 0 0 1-.918-1.16c-.22-.48-.32-1-.32-1.559 0-.601.12-1.242.359-1.922.242-.68.601-1.3 1.058-1.879a5.342 5.342 0 0 1 1.563-1.359 3.62 3.62 0 0 1 1.859-.52c.379 0 .719.118 1.04.32.32.22.562.5.76.86.118-.52.419-.781.86-.781a.63.63 0 0 1 .418.16.502.502 0 0 1 .184.399v.101c0 .02-.024.04-.024.059l-2.277 9.062c-.121.399-.3.778-.582 1.14a4.07 4.07 0 0 1-1 .86c-.379.238-.8.418-1.238.54-.442.12-.88.198-1.282.198-.757 0-1.441-.078-2-.218-.558-.16-.84-.5-.84-1.02m3.899-3.36c.844 0 1.684-.581 2.523-1.76l1.098-4.36c-.098-.461-.277-.86-.558-1.18-.282-.32-.622-.5-1.02-.5-.441 0-.86.18-1.262.54a4.57 4.57 0 0 0-.98 1.3c-.238.48-.48 1.18-.719 2.078-.238.902-.34 1.602-.34 2.121 0 .461.102.86.301 1.219.2.363.52.543.957.543M10.7 9.652h27.019v-1.25h-27.02v1.25Zm-40.25 68.895c.402.398.925.625 1.527.625.597 0 1.148-.426 1.648-1.25.5-.828.926-1.852 1.3-3.102.376-1.25.65-2.273.825-3.101.176-.848.398-1.922.648-3.223.227-1.25.454-2.476.676-3.7.227-1.25.45-2.55.7-3.952.226-1.399.476-2.824.726-4.25.25-1.45.523-2.973.875-4.574.426-2.149.727-3.676.926-4.575.199-.925.472-2.25.875-3.976.398-1.723.648-2.848.773-3.399.125-.55.5-2.074 1.102-4.523l.324-1.3c.375-1.477.676-2.575.875-3.325.2-.75.5-1.676.926-2.777.426-1.098.926-2 1.523-2.75.574-.75 1.2-1.098 1.903-1.098.472 0 .921.098 1.347.297.426.203.778.5 1.028.902.25.375.398.824.398 1.324 0 .352-.125.649-.352.899-.25.226-.546.351-.898.351-.375 0-.676-.125-.926-.351-.25-.25-.347-.547-.347-.899 0-.375.097-.675.347-.925.25-.25.551-.348.926-.348-.45-.426-.95-.625-1.5-.625-.324 0-.676.45-1.023 1.348a21.754 21.754 0 0 0-1.028 3.175c-.324 1.227-.574 2.25-.722 3.075-.176.8-.375 1.824-.602 3.074-.273 1.402-.5 2.601-.676 3.652-.199 1.024-.426 2.3-.676 3.824-.273 1.5-.523 2.95-.773 4.325s-.523 2.925-.875 4.675c-.227 1.075-.55 2.602-.95 4.575-.425 1.976-.698 3.25-.823 3.851-.153.598-.477 2.05-1.028 4.375-.55 2.3-.847 3.524-.875 3.676l-.3 1.148a96.601 96.601 0 0 1-1.297 4.649 13.627 13.627 0 0 1-1.926 3.726c-.852 1.149-1.875 1.75-3.074 1.75-.727 0-1.375-.25-1.926-.726-.574-.5-.852-1.098-.852-1.797 0-.375.102-.676.352-.926s.55-.351.926-.351c.222 0 .421.05.625.152.199.098.347.273.449.473.097.199.176.402.176.652 0 .348-.125.648-.375.898-.25.227-.551.352-.903.352m25.535-47.699c-.668 0-1.261-.176-1.77-.559a3.582 3.582 0 0 1-1.155-1.508 4.505 4.505 0 0 1-.403-1.886 4.412 4.412 0 0 1 .91-2.715 3.46 3.46 0 0 1 1.086-.91 3.035 3.035 0 0 1 1.383-.332 4.19 4.19 0 0 1 1.524.296c.488.211.925.473 1.347.805a8.75 8.75 0 0 1 1.137 1.14l.523.7a9.976 9.976 0 0 1 1.157-1.473A5.678 5.678 0 0 1 3.14 23.34a3.807 3.807 0 0 1 1.714-.402c.489 0 .961.12 1.383.351.418.227.77.523 1.051.91.277.383.508.82.664 1.293.14.473.227.945.227 1.403a4.6 4.6 0 0 1-.418 1.921c-.282.614-.668 1.106-1.176 1.473-.524.383-1.117.559-1.781.559a4.18 4.18 0 0 1-2.172-.594 6.2 6.2 0 0 1-1.836-1.629l-.527-.7c-.543.876-1.172 1.575-1.891 2.118-.734.543-1.52.805-2.395.805m-.175-.594c1.468 0 2.8-.98 3.972-2.977l-.93-1.172c-.542-.699-1.046-1.261-1.503-1.664a2.433 2.433 0 0 0-1.594-.593c-.524 0-.996.156-1.383.437a2.869 2.869 0 0 0-.926 1.156 3.358 3.358 0 0 0-.332 1.47c0 .401.051.804.176 1.19.121.403.297.77.543 1.083.227.316.504.578.84.773.332.207.715.297 1.137.297m6.175-2.555c.528.715 1.036 1.278 1.489 1.66.457.403.996.598 1.609.598.387 0 .734-.07 1.066-.246.317-.176.598-.402.844-.7.242-.28.418-.613.54-.98.124-.367.195-.754.195-1.136 0-.528-.125-1.051-.332-1.579a3.16 3.16 0 0 0-.93-1.277 2.337 2.337 0 0 0-1.434-.488c-1.488 0-2.82.996-3.972 2.972l.925 1.176m-18.518 54.496a.32.32 0 0 1-.246-.105c-.07-.07-.086-.156-.086-.246 0-.07.015-.156.086-.227.07-.07.14-.12.246-.12h10.043c.09 0 .16.05.23.12a.42.42 0 0 1 .086.227c0 .09-.035.176-.086.246a.31.31 0 0 1-.23.105h-10.043m16.113 4.2c-.664 0-1.258-.176-1.766-.56a3.552 3.552 0 0 1-1.156-1.507 4.445 4.445 0 0 1-.402-1.887c0-.492.07-.964.226-1.437.16-.473.387-.89.684-1.277a3.383 3.383 0 0 1 1.086-.91 3.01 3.01 0 0 1 1.383-.333c.523 0 1.031.106 1.523.297.489.211.926.473 1.344.805.406.332.79.719 1.14 1.14l.524.7a9.723 9.723 0 0 1 1.156-1.473 5.54 5.54 0 0 1 1.418-1.066 3.807 3.807 0 0 1 1.715-.403c.488 0 .961.121 1.383.352.418.227.77.523 1.047.91.281.383.508.82.668 1.293.136.473.226.945.226 1.402a4.56 4.56 0 0 1-.422 1.922c-.277.614-.664 1.106-1.171 1.473-.524.383-1.121.559-1.786.559a4.17 4.17 0 0 1-2.168-.594 6.261 6.261 0 0 1-1.84-1.63l-.523-.698c-.543.875-1.172 1.574-1.89 2.117-.735.543-1.524.805-2.399.805m-.172-.594c1.469 0 2.797-.98 3.969-2.977l-.926-1.172c-.543-.699-1.05-1.261-1.504-1.664-.457-.383-1-.593-1.593-.593-.524 0-.997.156-1.383.437a2.837 2.837 0 0 0-.926 1.156c-.23.473-.332.961-.332 1.469 0 .402.05.805.172 1.191.125.403.3.77.543 1.082.23.317.508.579.84.774.332.207.718.297 1.14.297m6.176-2.555c.523.715 1.031 1.277 1.488 1.66a2.35 2.35 0 0 0 1.61.598c.383 0 .734-.07 1.066-.246.316-.176.598-.403.84-.7a2.79 2.79 0 0 0 .543-.98c.121-.367.191-.754.191-1.137 0-.527-.12-1.05-.332-1.578a3.117 3.117 0 0 0-.925-1.277 2.357 2.357 0 0 0-1.438-.488c-1.484 0-2.816.996-3.969 2.972l.926 1.176M25.953 56.32c-.797 0-1.5-.203-2.098-.601-.601-.399-1.05-.977-1.351-1.676a5.164 5.164 0 0 1-.473-2.223c0-1.175.297-2.3.899-3.351a6.83 6.83 0 0 1 2.425-2.5c1.024-.625 2.125-.95 3.301-.95.7 0 1.324.2 1.875.575.524.375.797.898.797 1.574 0 .977-.398 1.7-1.148 2.152a6.215 6.215 0 0 1-2.602.875 31.3 31.3 0 0 1-3.172.149h-.078c-.273 1-.398 1.851-.398 2.55 0 .75.148 1.399.5 1.95.351.574.875.851 1.574.851 1 0 1.95-.226 2.875-.675a6.04 6.04 0 0 0 2.226-1.903.253.253 0 0 1 .2-.074c.074 0 .148.05.25.152.074.098.125.172.125.25 0 .075-.024.125-.051.149-.598.851-1.426 1.523-2.45 2-1.05.476-2.124.726-3.226.726m-1.473-6.625c.95 0 1.848-.027 2.676-.125a6.657 6.657 0 0 0 2.25-.675c.649-.352 1-.926 1-1.7 0-.3-.101-.578-.277-.8a1.877 1.877 0 0 0-.649-.528 2.03 2.03 0 0 0-.851-.199c-.7 0-1.348.2-1.899.574a4.803 4.803 0 0 0-1.402 1.5 8.36 8.36 0 0 0-.848 1.953m9.856-8.281a.32.32 0 0 1-.246-.105c-.07-.07-.086-.157-.086-.243 0-.07.016-.16.086-.23.07-.07.14-.121.246-.121h10.043c.09 0 .16.05.23.12a.434.434 0 0 1 .086.231.425.425 0 0 1-.086.243.31.31 0 0 1-.23.105H34.336m13.176 3.52c.207.175.488.242.875.242.347 0 .68-.172.96-.524a2.98 2.98 0 0 0 .579-1.156l.789-3.098c.12-.558.191-.945.191-1.152 0-.281-.09-.543-.246-.754a.86.86 0 0 0-.683-.332 1.73 1.73 0 0 0-1.032.352 3.042 3.042 0 0 0-.824.89 3.575 3.575 0 0 0-.469 1.067c-.035.07-.07.105-.14.105H47.3c-.106 0-.14-.05-.14-.156v-.055c.105-.418.296-.84.577-1.258a3.494 3.494 0 0 1 1.016-1.015 2.304 2.304 0 0 1 1.258-.387c.422 0 .804.125 1.156.352.352.226.594.543.734.93a2.83 2.83 0 0 1 .754-.91 1.616 1.616 0 0 1 1.032-.372c.246 0 .507.055.769.14a1.7 1.7 0 0 1 .648.403.995.995 0 0 1 .247.684c0 .297-.106.558-.297.77a.946.946 0 0 1-.72.316.64.64 0 0 1-.472-.176.568.568 0 0 1-.191-.453.92.92 0 0 1 .242-.649c.176-.175.367-.297.613-.332-.21-.16-.507-.246-.875-.246-.382 0-.699.176-.98.524a3.071 3.071 0 0 0-.578 1.156l-.77 3.097c-.14.473-.191.86-.191 1.157 0 .297.07.558.246.77a.84.84 0 0 0 .68.312c.543 0 1.035-.227 1.453-.715.422-.492.718-1.016.86-1.594.015-.07.07-.105.14-.105h.207c.035 0 .07.02.105.054.035.036.055.07.055.106 0 .016-.02.031-.02.05a3.874 3.874 0 0 1-1.05 1.837c-.524.543-1.118.804-1.782.804a2.24 2.24 0 0 1-1.175-.332c-.348-.207-.575-.523-.715-.926a2.96 2.96 0 0 1-.77.891 1.65 1.65 0 0 1-1.015.367 3.07 3.07 0 0 1-.79-.12 1.3 1.3 0 0 1-.628-.384c-.176-.175-.246-.422-.246-.703 0-.277.09-.523.28-.75a.9.9 0 0 1 .716-.332.77.77 0 0 1 .472.172c.14.125.211.281.211.457a.95.95 0 0 1-.246.649c-.172.171-.367.296-.61.332M56.746 38v-.332c0-.012 0-.035.024-.059l1.902-2.109a19.8 19.8 0 0 0 .695-.785c.172-.207.356-.453.528-.723.171-.27.32-.55.417-.844a2.76 2.76 0 0 0 .16-.906 2.59 2.59 0 0 0-.183-.957 1.696 1.696 0 0 0-.555-.734 1.463 1.463 0 0 0-.894-.281c-.352 0-.672.109-.953.32a1.624 1.624 0 0 0-.602.832c.024 0 .074-.012.137-.012a.67.67 0 0 1 .465.184.656.656 0 0 1 .195.476.656.656 0 0 1-.195.477.637.637 0 0 1-.465.2.617.617 0 0 1-.48-.2.649.649 0 0 1-.196-.477c0-.293.05-.586.172-.855.11-.27.27-.504.492-.723a2.297 2.297 0 0 1 1.617-.652c.465 0 .891.098 1.297.297.403.195.723.476.957.843.23.368.352.786.352 1.262 0 .356-.082.688-.23 1.004-.16.32-.356.613-.602.871-.242.27-.551.563-.93.895-.379.328-.625.55-.746.66l-1.387 1.336h1.176c.578 0 1.055 0 1.445-.012.395 0 .602-.023.625-.05.098-.098.196-.477.297-1.126h.352l-.34 2.18h-4.547M76.46 56.32c-1.046 0-1.897-.375-2.5-1.175-.597-.778-.897-1.7-.897-2.801 0-1.051.273-2.176.824-3.324.55-1.153 1.277-2.102 2.226-2.852.95-.75 1.95-1.148 3.051-1.148.5 0 .922.148 1.324.425.399.274.7.625.926 1.075l1.398-5.575c.051-.277.102-.5.126-.675 0-.25-.551-.403-1.626-.403-.175 0-.25-.097-.25-.324 0-.05 0-.125.051-.223a.49.49 0 0 1 .098-.226c.05-.051.102-.102.203-.102l3.375-.273c.2 0 .297.125.297.324l-3.598 14.375c-.125.3-.175.7-.175 1.2 0 .726.226 1.077.726 1.077s.898-.328 1.172-1c.277-.652.5-1.425.703-2.3.023-.102.098-.153.2-.153h.3c.047 0 .098.051.148.102.051.05.075.101.075.148-.301 1.176-.625 2.102-.973 2.801-.352.7-.902 1.027-1.676 1.027a2.55 2.55 0 0 1-1.5-.476c-.425-.301-.699-.75-.8-1.301-1.075 1.2-2.149 1.777-3.227 1.777m.027-.625c.598 0 1.176-.226 1.75-.675a6.805 6.805 0 0 0 1.45-1.602s.023-.05.023-.098l1.375-5.5a3.346 3.346 0 0 0-.648-1.5c-.352-.425-.774-.652-1.325-.652-.574 0-1.101.25-1.574.7-.5.452-.902 1-1.227 1.624-.351.676-.648 1.602-.949 2.75-.3 1.153-.425 2.051-.425 2.703 0 .598.124 1.125.374 1.575.25.449.626.675 1.176.675m10.575-.351c.3.25.699.351 1.25.351.5 0 .976-.25 1.374-.75.399-.5.676-1.05.825-1.652l1.125-4.426c.175-.797.277-1.347.277-1.648 0-.399-.125-.774-.352-1.074-.25-.301-.574-.477-.976-.477-.523 0-1.023.176-1.473.5a4.414 4.414 0 0 0-1.175 1.277 5.096 5.096 0 0 0-.676 1.524c-.051.101-.098.148-.2.148h-.3c-.149 0-.2-.074-.2-.222v-.075c.149-.601.426-1.203.825-1.8a5.022 5.022 0 0 1 1.449-1.45c.55-.351 1.152-.55 1.8-.55.602 0 1.153.175 1.653.5.5.324.848.773 1.047 1.324.277-.5.625-.95 1.078-1.301.45-.348.922-.523 1.473-.523.351 0 .726.074 1.101.199s.676.324.926.574c.223.25.348.574.348.977 0 .425-.149.8-.426 1.097a1.342 1.342 0 0 1-1.023.453c-.274 0-.5-.078-.676-.25-.2-.175-.274-.402-.274-.652 0-.348.098-.648.348-.926.25-.25.527-.422.875-.472-.297-.227-.723-.352-1.25-.352-.547 0-1 .25-1.398.75-.399.5-.676 1.05-.825 1.652l-1.101 4.422c-.2.676-.274 1.227-.274 1.653 0 .425.098.8.348 1.097.25.301.578.453.977.453.773 0 1.476-.328 2.074-1.027.601-.7 1.027-1.45 1.226-2.273.024-.102.098-.153.2-.153h.3c.051 0 .098.028.149.078.05.047.074.098.074.149 0 .023-.023.05-.023.074-.25 1-.75 1.875-1.5 2.625-.75.777-1.602 1.152-2.551 1.152a3.187 3.187 0 0 1-1.676-.476c-.5-.301-.824-.75-1.023-1.324-.274.5-.649.925-1.102 1.273-.45.352-.95.527-1.45.527-.374 0-.75-.078-1.124-.175a1.832 1.832 0 0 1-.899-.551c-.25-.25-.351-.602-.351-1 0-.399.125-.75.402-1.074a1.29 1.29 0 0 1 1.023-.477c.25 0 .477.102.676.25.2.176.301.402.301.652 0 .348-.125.672-.352.922-.25.25-.523.426-.874.477" style="fill-opacity:.25"/><path d="M105.648 52.742a.45.45 0 0 1-.351-.148.483.483 0 0 1-.125-.352c0-.125.027-.25.125-.347a.453.453 0 0 1 .351-.153h15.7c.101 0 .199.051.3.153a.492.492 0 0 1 .149.347c0 .125-.05.25-.149.352-.101.101-.199.148-.3.148h-15.7m0-4.847a.453.453 0 0 1-.351-.153c-.098-.097-.125-.199-.125-.347a.45.45 0 0 1 .125-.325c.101-.101.2-.175.351-.175h15.7c.101 0 .199.074.3.175a.483.483 0 0 1 .149.325c0 .148-.05.25-.149.347-.101.102-.199.153-.3.153h-15.7m25.809 8.453-3.555-8.258-1.101.847-.285-.28 2.25-1.747 3.32 7.723 8.164-17.004c.047-.094.14-.14.266-.14.078 0 .156.03.218.093.067.063.098.14.098.219 0 .062-.016.094-.016.11l-8.777 18.292a.247.247 0 0 1-.238.145h-.344m14.699-.438c0-.074.024-.2.098-.402a65.85 65.85 0 0 0 1.3-2.848c.403-.926.75-1.824 1.075-2.726a33.9 33.9 0 0 0 .902-2.825h-1.601c-.625 0-1.2.2-1.723.575a5.133 5.133 0 0 0-1.3 1.449c-.052.078-.102.101-.153.101h-.297c-.152 0-.227-.074-.227-.25 0-.023 0-.074.051-.148.551-.902 1.125-1.676 1.75-2.328.598-.625 1.301-.95 2.098-.95h9.078c.148 0 .297.075.422.176a.626.626 0 0 1 .203.45c0 .25-.102.476-.277.652a.77.77 0 0 1-.625.273h-3.176a20.763 20.763 0 0 0-.45 3.825c0 1.601.278 3.05.852 4.351.051.098.074.2.074.3 0 .2-.074.376-.175.524-.098.149-.25.25-.399.352a1.369 1.369 0 0 1-.527.125c-.45 0-.75-.352-.899-1.05a8.526 8.526 0 0 1-.25-2.075c0-.953.075-1.852.25-2.75.149-.875.426-2.078.774-3.602h-2.723c-1.324 5.352-2.125 8.274-2.375 8.825-.25.425-.574.652-.976.652a.886.886 0 0 1-.551-.203c-.149-.098-.223-.274-.223-.473" style="fill-opacity:.25"/><path d="M140.504 39.117H161v-1.562h-20.496v1.562ZM279.61 29.39c-.212 0-.301-.117-.301-.386 0-.063.03-.152.062-.274a.575.575 0 0 1 .117-.27c.063-.058.121-.116.211-.116 1.2 0 2.07-.063 2.551-.211.238-.063.45-.332.57-.813l4.11-16.468c.03-.18.058-.329.058-.418 0-.211-.117-.332-.36-.364-.39-.058-1.108-.117-2.16-.117-.206 0-.296-.121-.296-.39 0-.06.027-.153.058-.27.032-.121.06-.211.122-.27.058-.062.117-.12.207-.12h15.84c.18 0 .3.148.3.39l-.719 6.21c0 .06-.058.118-.12.18-.06.06-.122.09-.18.09h-.27c-.21 0-.3-.12-.3-.39.12-.903.18-1.621.18-2.223 0-.988-.24-1.707-.661-2.187-.418-.48-.957-.75-1.617-.871-.66-.09-1.563-.149-2.703-.149h-3.207c-.543 0-.903.059-1.082.149-.18.09-.36.39-.48.87l-1.919 7.65h2.25c.719 0 1.32-.028 1.8-.118.45-.063.84-.211 1.138-.453.3-.207.543-.54.75-.957.18-.422.39-.992.57-1.711.062-.18.152-.27.3-.27h.27c.18 0 .301.149.301.39l-1.828 7.407c-.094.184-.184.274-.3.274h-.27c-.211 0-.301-.122-.301-.391.058-.18.09-.36.12-.512.028-.12.06-.328.118-.597.031-.243.063-.48.063-.692 0-.57-.274-.93-.782-1.082-.511-.148-1.172-.238-1.98-.238h-2.461l-1.95 7.77c-.058.21-.058.3-.058.3 0 .238.059.39.207.39.512.15 1.531.212 3.063.212.18 0 .3.148.3.386-.09.301-.152.48-.18.543-.03.09-.152.118-.331.118h-8.82m20.949 3.054c0 .883.168 1.637.503 2.29.336.652.84 1.156 1.493 1.511.648.36 1.406.527 2.265.527.84 0 1.618-.191 2.375-.59.754-.378 1.215-.945 1.426-1.699l.465-1.808v-.125c0-.043.02-.063.02-.106 0-.125-.043-.21-.126-.25-.359-.086-1.05-.148-2.101-.148-.149 0-.211-.086-.211-.274.043-.168.062-.273.105-.355.043-.063.125-.105.254-.105h5.418c.125 0 .207.105.207.273 0 .039-.02.105-.039.187-.023.086-.043.149-.086.188-.043.066-.082.086-.144.086-.465 0-.82.043-1.031.125-.211.086-.356.273-.442.59l-.46 1.804-.59 2.332c-.04.106-.102.145-.188.145-.125 0-.293-.145-.504-.461-.211-.312-.379-.586-.461-.797-.484.586-1.137 1.008-1.953 1.281a7.88 7.88 0 0 1-2.5.418c-1.094 0-2.078-.25-2.942-.71a5.04 5.04 0 0 1-2.035-2.04c-.484-.882-.714-1.867-.714-2.98 0-1.176.253-2.332.777-3.488a10.234 10.234 0 0 1 2.12-3.067 10.65 10.65 0 0 1 3.048-2.16c1.133-.527 2.289-.8 3.465-.8a4.6 4.6 0 0 1 1.32.21c.422.149.82.36 1.2.653.374.293.671.609.902.984l1.66-1.805c0-.02.02-.043.101-.043h.13c.038 0 .081.024.124.067a.208.208 0 0 1 .063.144l-1.426 5.672c0 .106-.067.145-.168.145h-.379c-.129 0-.168-.063-.168-.23a8.19 8.19 0 0 0 .082-1.09c0-.673-.125-1.325-.355-1.934a3.3 3.3 0 0 0-1.07-1.469c-.505-.379-1.094-.566-1.81-.566a6.001 6.001 0 0 0-3.128.859 8.316 8.316 0 0 0-2.434 2.27 10.664 10.664 0 0 0-1.535 3.085c-.355 1.133-.523 2.204-.523 3.254m28.035-7.043a.544.544 0 0 1-.422-.18.572.572 0 0 1-.149-.421.57.57 0 0 1 .149-.418.547.547 0 0 1 .422-.18h18.84c.12 0 .238.059.359.18.121.12.18.27.18.418a.59.59 0 0 1-.18.422c-.121.12-.238.18-.36.18h-18.84m0-5.821a.546.546 0 0 1-.421-.18c-.117-.12-.149-.242-.149-.422a.54.54 0 0 1 .149-.386c.121-.121.242-.211.422-.211h18.84c.12 0 .238.09.359.21.121.118.18.27.18.387 0 .18-.059.301-.18.422s-.238.18-.36.18h-18.84m27.337 3.238c0 1.262.238 2.34.718 3.274.48.93 1.2 1.648 2.13 2.16.929.508 2.011.75 3.242.75a7.106 7.106 0 0 0 3.39-.844c1.078-.539 1.738-1.348 2.04-2.43l.66-2.578v-.18c0-.062.027-.09.027-.152 0-.18-.059-.297-.18-.36-.508-.116-1.5-.206-3-.206-.207 0-.297-.121-.297-.39.059-.243.09-.391.149-.512.058-.09.18-.149.359-.149h7.742c.18 0 .297.149.297.39 0 .06-.027.15-.059.27-.03.117-.058.207-.12.27-.06.09-.118.12-.208.12-.66 0-1.172.06-1.472.18-.301.118-.508.387-.63.84l-.66 2.579-.84 3.332c-.058.148-.148.207-.269.207-.18 0-.422-.207-.719-.66-.3-.45-.543-.84-.66-1.137-.691.84-1.62 1.437-2.793 1.828-1.168.39-2.367.601-3.57.601-1.559 0-2.969-.363-4.2-1.02a7.199 7.199 0 0 1-2.91-2.91c-.687-1.261-1.019-2.671-1.019-4.261 0-1.68.36-3.328 1.11-4.98a14.563 14.563 0 0 1 3.03-4.38 15.301 15.301 0 0 1 4.352-3.09c1.618-.75 3.27-1.14 4.95-1.14.66 0 1.289.121 1.89.301.598.21 1.168.508 1.707.93.543.418.961.87 1.293 1.41l2.367-2.582c0-.028.032-.059.153-.059h.18c.058 0 .12.031.18.09a.327.327 0 0 1 .089.211l-2.04 8.098c0 .152-.089.21-.241.21h-.54c-.18 0-.238-.09-.238-.328.059-.421.118-.96.118-1.562 0-.957-.18-1.89-.508-2.758-.332-.871-.84-1.562-1.532-2.101-.718-.54-1.558-.809-2.578-.809a8.55 8.55 0 0 0-4.472 1.23c-1.38.84-2.52 1.918-3.48 3.239-.958 1.32-1.68 2.789-2.188 4.41-.512 1.621-.75 3.148-.75 4.648m29.82-14.14c0-.086 0-.149.02-.192l1.574-6.258c.086-.378.148-.734.148-1.027 0-.59-.21-.902-.61-.902-.44 0-.777.27-.984.797-.21.523-.421 1.175-.609 1.972a.119.119 0 0 1-.062.106c-.043.02-.086.02-.106.02h-.254c-.043 0-.082-.02-.125-.063-.043-.04-.043-.106-.043-.145.149-.61.293-1.136.442-1.554.125-.422.355-.797.652-1.157.293-.336.648-.523 1.113-.523.504 0 .965.168 1.383.504.402.336.61.754.61 1.258A4.782 4.782 0 0 1 390.37.234a3.565 3.565 0 0 1 1.785-.48c.649 0 1.215.168 1.7.504.484.336.734.816.734 1.449.422-.61.926-1.094 1.512-1.43a3.659 3.659 0 0 1 1.89-.523c.715 0 1.301.21 1.742.586.442.398.672.969.672 1.68 0 .59-.144 1.28-.398 2.082-.25.816-.567 1.718-.945 2.726-.208.508-.293.926-.293 1.262 0 .422.148.629.484.629.543 0 .984-.293 1.363-.88.36-.589.61-1.218.778-1.89.043-.086.085-.129.168-.129h.253c.04 0 .082.024.125.067a.169.169 0 0 1 .063.125c0 .02-.02.043-.02.062a6.758 6.758 0 0 1-1.007 2.184c-.465.672-1.051.988-1.766.988a1.78 1.78 0 0 1-1.262-.484c-.355-.336-.523-.735-.523-1.239 0-.23.043-.503.168-.82.379-1.05.715-1.973.988-2.812.25-.82.398-1.555.398-2.184a2.11 2.11 0 0 0-.23-.988c-.168-.274-.422-.418-.8-.418-.755 0-1.427.25-1.993.71-.57.466-1.05 1.094-1.45 1.848a1.302 1.302 0 0 0-.062.317l-1.343 5.398a.91.91 0 0 1-.34.48.886.886 0 0 1-.543.192.777.777 0 0 1-.442-.148c-.125-.082-.191-.23-.191-.418 0-.086 0-.149.023-.192l1.344-5.355c.125-.567.211-1.047.211-1.426s-.086-.715-.254-.988c-.168-.274-.418-.418-.797-.418-.527 0-1.008.125-1.43.336-.417.23-.796.523-1.113.902a5.888 5.888 0 0 0-.879 1.32l-1.43 5.715a.766.766 0 0 1-.316.48.902.902 0 0 1-.566.192.787.787 0 0 1-.442-.148c-.125-.082-.187-.23-.187-.418m18.189 5.71v-.511c1.218 0 1.835-.149 1.835-.473V5.691c-.515.25-1.16.368-1.925.368v-.516c1.191 0 2.101-.309 2.718-.941h.207c.032 0 .075.015.102.043.031.03.047.058.047.09v8.671c0 .324.601.473 1.836.473v.512h-4.82m10.75-5.711c0-.086 0-.149.019-.192l1.574-6.258c.086-.378.149-.734.149-1.027 0-.59-.211-.902-.61-.902-.441 0-.777.27-.988.797a14.747 14.747 0 0 0-.61 1.972c0 .043-.019.086-.062.106-.043.02-.082.02-.105.02h-.25a.169.169 0 0 1-.125-.063c-.043-.04-.043-.106-.043-.145.144-.61.293-1.136.441-1.554.125-.422.356-.797.649-1.157.296-.336.652-.523 1.113-.523.504 0 .969.168 1.387.504.398.336.609.754.609 1.258a4.814 4.814 0 0 1 1.469-1.282 3.587 3.587 0 0 1 1.785-.48c.652 0 1.219.168 1.703.504.48.336.734.816.734 1.449.418-.61.922-1.094 1.512-1.43a3.648 3.648 0 0 1 1.89-.523c.716 0 1.301.21 1.743.586.441.398.672.969.672 1.68 0 .59-.149 1.28-.399 2.082A49.948 49.948 0 0 1 428 6.828c-.21.508-.293.926-.293 1.262 0 .422.145.629.48.629.547 0 .989-.293 1.368-.88.355-.589.61-1.218.777-1.89.043-.086.082-.129.168-.129h.25c.043 0 .086.024.129.067.039.039.062.082.062.125 0 .02-.023.043-.023.062a6.598 6.598 0 0 1-1.008 2.184c-.46.672-1.05.988-1.762.988a1.78 1.78 0 0 1-1.261-.484c-.356-.336-.524-.735-.524-1.239 0-.23.04-.503.168-.82.375-1.05.711-1.973.985-2.812.254-.82.402-1.555.402-2.184 0-.379-.086-.715-.234-.988-.168-.274-.418-.418-.797-.418-.754 0-1.426.25-1.996.71-.567.466-1.047 1.094-1.45 1.848a1.53 1.53 0 0 0-.062.317l-1.344 5.398a.884.884 0 0 1-.336.48.888.888 0 0 1-.547.192.765.765 0 0 1-.437-.148c-.13-.082-.192-.23-.192-.418 0-.086 0-.149.024-.192l1.344-5.355c.125-.567.207-1.047.207-1.426s-.082-.715-.25-.988C421.68.445 421.426.3 421.05.3c-.528 0-1.008.125-1.43.336a3.8 3.8 0 0 0-1.113.902 6.034 6.034 0 0 0-.883 1.32l-1.426 5.715a.766.766 0 0 1-.316.48.902.902 0 0 1-.567.192.777.777 0 0 1-.441-.148c-.125-.082-.188-.23-.188-.418m17.556 5.711v-.394c0-.016 0-.047.028-.074l2.277-2.527c.34-.368.617-.676.84-.942.207-.25.425-.543.633-.867.203-.324.382-.664.5-1.016.117-.336.19-.707.19-1.086 0-.398-.073-.78-.222-1.148a2.01 2.01 0 0 0-.66-.883 1.776 1.776 0 0 0-1.074-.336c-.426 0-.809.133-1.145.383a1.93 1.93 0 0 0-.722 1c.031 0 .09-.016.164-.016.203 0 .394.075.558.22a.797.797 0 0 1 .235.573.802.802 0 0 1-.793.809c-.238 0-.43-.074-.574-.234a.775.775 0 0 1-.235-.575 2.5 2.5 0 0 1 .203-1.027c.133-.324.325-.605.59-.867.266-.25.559-.442.883-.574a2.75 2.75 0 0 1 1.059-.207c.558 0 1.07.117 1.554.351.489.238.867.574 1.149 1.016a2.842 2.842 0 0 1 .148 2.719 4.28 4.28 0 0 1-.723 1.042c-.293.325-.66.68-1.117 1.075-.453.398-.75.66-.894.793l-1.664 1.605h1.414c.691 0 1.261 0 1.734-.015.469 0 .719-.032.75-.06.117-.116.235-.573.352-1.355h.425l-.41 2.618h-5.453M403.75 45.879c0-.082 0-.145.02-.188l1.574-6.257c.086-.38.148-.735.148-1.028 0-.59-.21-.906-.61-.906-.44 0-.777.273-.984.8-.21.524-.421 1.177-.609 1.973a.119.119 0 0 1-.062.106c-.043.02-.086.02-.106.02h-.254c-.043 0-.082-.02-.125-.063s-.043-.106-.043-.145a16.54 16.54 0 0 1 .442-1.554c.125-.422.355-.801.652-1.157.293-.335.648-.523 1.113-.523.48 0 .903.145 1.281.418.356.293.586.652.672 1.113.336-.46.735-.82 1.196-1.113.46-.273.965-.418 1.511-.418.442 0 .84.145 1.176.398.336.25.504.61.504 1.051 0 .356-.125.672-.336.922-.23.274-.523.399-.883.399-.23 0-.418-.063-.566-.207-.168-.13-.23-.317-.23-.547 0-.297.105-.567.335-.82.211-.25.485-.38.778-.38a1.37 1.37 0 0 0-.82-.273c-.61 0-1.133.234-1.575.652-.441.422-.84.965-1.195 1.618l-1.492 6.007a.766.766 0 0 1-.317.48.926.926 0 0 1-.566.192.818.818 0 0 1-.442-.148c-.125-.086-.187-.23-.187-.422m8.594-8.57v-.395c0-.016 0-.047.027-.074l2.277-2.531c.34-.368.618-.676.84-.938a9.3 9.3 0 0 0 .633-.867 4.79 4.79 0 0 0 .5-1.016 3.35 3.35 0 0 0 .192-1.09 3.03 3.03 0 0 0-.223-1.144 2.01 2.01 0 0 0-.66-.883 1.776 1.776 0 0 0-1.075-.336c-.425 0-.808.13-1.144.38-.356.265-.59.589-.723 1 .032 0 .09-.013.164-.013a.81.81 0 0 1 .559.22.8.8 0 0 1 .234.573.802.802 0 0 1-.793.809c-.238 0-.43-.074-.574-.234a.775.775 0 0 1-.234-.575c0-.355.058-.707.203-1.03a2.631 2.631 0 0 1 1.473-1.438 2.75 2.75 0 0 1 1.058-.207c.559 0 1.07.117 1.555.351.488.234.867.574 1.148 1.016.278.441.426.941.426 1.511 0 .43-.102.825-.277 1.207-.192.383-.43.735-.723 1.043-.293.325-.66.676-1.117 1.075-.453.398-.75.66-.895.793l-1.664 1.601h1.414c.692 0 1.262 0 1.735-.012.468 0 .718-.03.75-.058.117-.121.234-.574.351-1.356h.426l-.41 2.618h-5.453M375.133 21.89h76.62v-1.874h-76.62v1.875Zm0 0" style="fill-opacity:.25"/><path d="M123.074 28.809c1.43-2.602 3.188-4.485 5.2-5.786 2.015-1.234 4.421-1.886 7.214-1.886 3.64 0 6.5 1.3 8.516 3.902 2.016 2.598 3.055 6.305 3.055 11.047v21.453h-5.848V36.281c0-3.379-.652-5.914-1.82-7.605-1.235-1.625-3.055-2.469-5.528-2.469-3.054 0-5.457 1.04-7.215 3.055-1.753 2.015-2.597 4.746-2.597 8.191V57.54h-5.852V36.281c0-3.379-.648-5.914-1.82-7.605-1.234-1.625-3.117-2.469-5.59-2.469-2.988 0-5.394 1.04-7.148 3.055-1.754 2.015-2.602 4.746-2.602 8.191V57.54h-5.848V21.984h5.848v5.524c1.3-2.145 2.926-3.77 4.813-4.809 1.82-1.043 4.027-1.562 6.628-1.562 2.598 0 4.747.652 6.567 1.949 1.816 1.3 3.117 3.25 4.027 5.723m51.805 10.855c-4.742 0-7.992.582-9.813 1.625-1.82 1.102-2.73 2.922-2.73 5.523 0 2.079.648 3.77 2.016 4.942 1.363 1.234 3.25 1.82 5.59 1.82 3.25 0 5.847-1.105 7.796-3.445 1.953-2.277 2.926-5.332 2.926-9.168v-1.297h-5.785m11.637-2.406v20.281h-5.852v-5.398c-1.363 2.21-3.055 3.773-5.004 4.746-1.95.976-4.422 1.496-7.281 1.496-3.64 0-6.563-.977-8.707-2.992-2.149-2.012-3.188-4.743-3.188-8.188 0-3.965 1.301-6.957 4.032-9.035 2.664-2.016 6.629-3.055 11.96-3.055h8.188v-.586c0-2.664-.91-4.746-2.664-6.238-1.754-1.43-4.227-2.21-7.41-2.21-2.078 0-4.031.257-5.98.78a27.02 27.02 0 0 0-5.524 2.145v-5.395c2.078-.78 4.16-1.433 6.176-1.82 2.011-.39 3.965-.652 5.914-.652 5.133 0 8.969 1.367 11.504 4.031 2.535 2.664 3.836 6.695 3.836 12.09m17.808-25.352v10.078h12.028v4.547h-12.028v19.305c0 2.926.39 4.812 1.172 5.59.777.847 2.402 1.238 4.875 1.238h5.98v4.875h-5.98c-4.55 0-7.672-.848-9.36-2.535-1.69-1.691-2.534-4.746-2.534-9.168V26.53h-4.293v-4.547h4.293V11.906h5.847m25.352 40.301v18.785h-5.852V21.984h5.852v5.395c1.168-2.082 2.73-3.64 4.613-4.68 1.887-1.043 4.16-1.562 6.762-1.562 4.289 0 7.8 1.754 10.527 5.136 2.668 3.446 4.031 7.93 4.031 13.52s-1.363 10.14-4.03 13.52c-2.727 3.378-6.24 5.07-10.528 5.07-2.602 0-4.875-.52-6.762-1.496-1.883-.973-3.445-2.535-4.613-4.68m19.89-12.414c0-4.29-.91-7.605-2.668-10.074-1.82-2.473-4.222-3.707-7.277-3.707-3.121 0-5.527 1.234-7.281 3.707-1.82 2.468-2.664 5.785-2.664 10.074s.844 7.668 2.664 10.14c1.754 2.47 4.16 3.641 7.281 3.641 3.055 0 5.457-1.172 7.277-3.64 1.758-2.473 2.668-5.852 2.668-10.141m15.731-31.656h5.848v49.402h-5.848V8.137m31.848 17.941c-3.122 0-5.59 1.235-7.41 3.703-1.82 2.473-2.731 5.785-2.731 10.012 0 4.289.848 7.605 2.668 10.074 1.816 2.469 4.289 3.64 7.473 3.64 3.12 0 5.59-1.171 7.41-3.64 1.82-2.469 2.73-5.785 2.73-10.074 0-4.16-.91-7.54-2.73-10.012-1.82-2.468-4.29-3.703-7.41-3.703m0-4.941c5.07 0 9.035 1.691 11.96 4.941 2.86 3.313 4.356 7.863 4.356 13.715 0 5.848-1.496 10.398-4.356 13.648-2.925 3.317-6.89 4.942-11.96 4.942-5.133 0-9.165-1.625-12.024-4.942-2.86-3.25-4.293-7.8-4.293-13.648 0-5.852 1.434-10.402 4.293-13.715 2.86-3.25 6.89-4.941 12.024-4.941m31.785-9.231v10.078h12.023v4.547H328.93v19.305c0 2.926.39 4.812 1.172 5.59.777.847 2.402 1.238 4.875 1.238h5.976v4.875h-5.976c-4.551 0-7.672-.848-9.364-2.535-1.687-1.691-2.535-4.746-2.535-9.168V26.53h-4.289v-4.547h4.29V11.906h5.85m19.696-3.769h5.852v49.402h-5.852V8.137m18.07 13.847h5.852V57.54h-5.852V21.984m0-13.847h5.852v7.41h-5.852v-7.41m43.614 31.656c0-4.29-.91-7.605-2.664-10.074-1.82-2.473-4.223-3.707-7.282-3.707-3.117 0-5.523 1.234-7.277 3.707-1.82 2.468-2.664 5.785-2.664 10.074s.844 7.668 2.664 10.14c1.754 2.47 4.16 3.641 7.277 3.641 3.059 0 5.461-1.172 7.282-3.64 1.753-2.473 2.664-5.852 2.664-10.141m-19.887-12.414c1.168-2.082 2.726-3.64 4.613-4.68 1.887-1.043 4.16-1.562 6.762-1.562 4.289 0 7.797 1.754 10.527 5.136 2.664 3.446 4.031 7.93 4.031 13.52s-1.367 10.14-4.03 13.52c-2.731 3.378-6.24 5.07-10.528 5.07-2.602 0-4.875-.52-6.762-1.496-1.887-.973-3.445-2.535-4.613-4.68v5.332h-5.852V8.137h5.852v19.242" style="fill-opacity:1"/></g><path d="M54 73.262a33.662 33.662 0 0 0 23.8-57.465A33.675 33.675 0 0 0 54 5.94a33.675 33.675 0 0 0-23.8 9.856 33.664 33.664 0 0 0 0 47.605 33.662 33.662 0 0 0 23.8 9.86Zm0 0" style="stroke:none;fill-rule:nonzero;fill:#fff;fill-opacity:.05"/><g style="fill:none;stroke-width:.8;stroke-linecap:square;stroke-linejoin:round;stroke:gray;stroke-opacity:.9;stroke-miterlimit:10"><path d="M54 39.602h33.66m-33.66 0 23.8-23.805M54 39.602V5.942m0 33.66L30.2 15.797M54 39.602H20.34m33.66 0-23.8 23.8m23.8-23.8v33.66m0-33.66 23.8 23.8m-20.062-23.8-.144-1.032-.492-1.062L56.09 36.5 54 35.86l-1.031.144-1.059.496-1.012 1.008-.636 2.094.144 1.03.492 1.06 1.012 1.007 2.09.64 1.031-.144 1.059-.496 1.012-1.008.636-2.09h0"/><path d="m65.219 39.602-.059-1.176-.183-1.16-.727-2.23-1.41-2.345-2.246-2.168-2.39-1.328-2.255-.644-2.34-.164-2.324.328-2.203.8-2.293 1.489-2.09 2.32-1.101 2.074-.649 2.254-.164 2.34.328 2.32.801 2.208 1.492 2.292 2.32 2.09 2.07 1.102 2.255.644 2.34.164 2.324-.324 2.203-.804 2.293-1.489 2.09-2.32 1.101-2.07.649-2.258.14-1.164h0"/><path d="m72.7 39.602-.407-3.891-1.211-3.719-1.953-3.383-2.14-2.46-3.637-2.743-3.575-1.59-3.824-.812h-3.906l-3.824.812-3.575 1.59-2.16 1.457-2.812 2.715-2.188 3.242-1.465 3.625-.68 3.852.137 3.906.95 3.793 1.71 3.512 1.536 2.113 2.812 2.715 3.313 2.07 3.676 1.34 3.87.543 3.9-.273 3.757-1.078 3.453-1.836 2.531-2.051 2.871-3.543 1.711-3.512.95-3.793.18-2.601h0"/><path d="m80.18 39.602-.063-1.829-.191-1.816-.762-3.574-1.246-3.43-1.715-3.226-2.148-2.954-2.535-2.628-2.88-2.25-3.163-1.825-3.387-1.367-3.543-.887-3.633-.379-3.652.126-3.594.636-3.477 1.13-3.28 1.597-3.028 2.043-2.715 2.445-2.348 2.797-1.937 3.098-1.485 3.336-1.007 3.511-.508 3.617v3.653l.508 3.617 1.007 3.512 1.485 3.336 1.937 3.097 2.348 2.797 2.715 2.445 3.027 2.043 3.281 1.602 3.477 1.129 3.594.633 3.652.129 3.633-.383 3.543-.883 3.387-1.371 3.164-1.824 2.879-2.25 2.535-2.625 2.148-2.957 1.715-3.223 1.246-3.434.762-3.574.254-3.64h0"/></g><path d="m54 39.598 6.402 2.082 1-1.003.078-1.008-5.238-.07h-2.094 0" style="fill-rule:nonzero;fill:#004cff;fill-opacity:.6;stroke-width:1;stroke-linecap:square;stroke-linejoin:round;stroke:#000;stroke-opacity:.6;stroke-miterlimit:10" transform="matrix(1 0 0 -1 0 79.2)"/><path d="m54 39.598 7.887 21.012 3.125-1.457 2.082-1.328.617-1.031L54.28 39.95h0" style="fill-rule:nonzero;fill:#ceff29;fill-opacity:.6;stroke-width:1;stroke-linecap:square;stroke-linejoin:round;stroke:#000;stroke-opacity:.6;stroke-miterlimit:10" transform="matrix(1 0 0 -1 0 79.2)"/><path d="m54 39.598-19.176 22.97 4.278 2.98 4.195 1.992 3.223 1.031 1.023-.676 6.39-28.004h0" style="fill-rule:nonzero;fill:#ff6800;fill-opacity:.6;stroke-width:1;stroke-linecap:square;stroke-linejoin:round;stroke:#000;stroke-opacity:.6;stroke-miterlimit:10" transform="matrix(1 0 0 -1 0 79.2)"/><path d="m54 39.598-25.758-4.671-.422 4.578.387 4.586 1.184 4.445.882 2.125 1.082-.156 22.41-10.793h0" style="fill-rule:nonzero;fill:#ffc400;fill-opacity:.6;stroke-width:1;stroke-linecap:square;stroke-linejoin:round;stroke:#000;stroke-opacity:.6;stroke-miterlimit:10" transform="matrix(1 0 0 -1 0 79.2)"/><path d="m54 39.598-12.176-8.433-.812 1.008-.356 1 12.938 6.234h0" style="fill-rule:nonzero;fill:#29ffce;fill-opacity:.6;stroke-width:1;stroke-linecap:square;stroke-linejoin:round;stroke:#000;stroke-opacity:.6;stroke-miterlimit:10" transform="matrix(1 0 0 -1 0 79.2)"/><path d="m54 39.598 3.008-17.695-1.04-.898-3.081-.07-3.047.433 3.992 17.504h0" style="fill-rule:nonzero;fill:#7dff7a;fill-opacity:.6;stroke-width:1;stroke-linecap:square;stroke-linejoin:round;stroke:#000;stroke-opacity:.6;stroke-miterlimit:10" transform="matrix(1 0 0 -1 0 79.2)"/><path d="m54 39.598 23.602-18.39-2.778-3.094-2.058-1.816-2.91 3.418L54 39.598h0" style="fill-rule:nonzero;fill:#ff6800;fill-opacity:.6;stroke-width:1;stroke-linecap:square;stroke-linejoin:round;stroke:#000;stroke-opacity:.6;stroke-miterlimit:10" transform="matrix(1 0 0 -1 0 79.2)"/><path d="M54 5.938a33.662 33.662 0 0 1 23.8 57.465A33.675 33.675 0 0 1 54 73.26a33.675 33.675 0 0 1-23.8-9.856 33.664 33.664 0 0 1 0-47.605A33.662 33.662 0 0 1 54 5.938Zm0 0" style="fill:none;stroke-width:1;stroke-linecap:square;stroke-linejoin:round;stroke:gray;stroke-opacity:1;stroke-miterlimit:10" transform="matrix(1 0 0 -1 0 79.2)"/></svg>