<svg enable-background="new 0 0 988 978" viewBox="0 0 988 978" xmlns="http://www.w3.org/2000/svg"><path d="m976.1 445.9c-9.2-132.7-73.7-255.5-177.9-338.2-51.2-40.8-110.1-70.9-173.2-88.6-125.5-36.1-260.3-18-371.7 50-107.7 65.7-188 167.9-226.6 287.9-19.6 59.6-28.5 122.3-26.4 185 2.2 64.2 17.8 127.2 45.6 185.1 28.7 58.4 69.9 109.7 120.9 150.2 50.7 40 109.8 68.2 172.9 82.4 61.6 13.4 125.1 15 187.3 4.8 60.6-10 119.2-29.7 173.5-58.4 54.3-28.9 103.4-66.5 145.5-111.4 43.2-46.1 77.3-99.8 100.6-158.5 23.5-60.6 33.6-125.5 29.5-190.3zm-294.4-77.9c2.3 113.8 11.8 227.4 28.4 340-31.7 21-65.6 43-101.1 65.5-10.2-110.8-17.3-226.7-21.1-344l-.5-14.5-12.7 7c-16.1 8.9-32.2 18.1-48.4 27.4l-4.7 2.7.2 5.4c4.3 130.2 10.3 248.8 18.1 362.2-20.6 11.3-40.2 21.8-59.8 31.7-19.5-8.7-39.7-18.1-59.8-28 9-115.5 15.6-235.5 20.4-366.7v-5.4l-4.7-2.7c-17.2-9.9-34.4-19.6-51.4-29.2l-12.9-7.2-.2 14.8c-2 117.7-7.5 236.7-16.4 354-30.8-19-63.4-39.7-100.4-64.5 15.3-117.7 23.1-236.3 23.5-355.1v-5.2l-4.5-2.6c-14.9-8.4-29.9-16.7-44.9-24.7.5-30.5.4-61.6-.4-92.6 26.4-2.2 53.1-3.9 79.7-4.7 2.6 20.6 5.1 41.3 7.3 62l.9 7.8h7.8c11.7 0 23.5 0 35.2.4h8.6l.4-8.6c1-21.8 1.8-43.5 2.5-65.3 26.5-1.4 53.1-2.1 79.5-2.3 1.1 22.1 2.2 44.3 3.2 66.4l.4 8.6h8.6c11.7-.3 23.2-.4 34.8-.5h8.5l2.2-78.2c28.9.8 58 2.3 86.8 4.7-1.5 24.3-2.8 48.7-3.9 73.1l-.4 8.6 8.6.7c14.1 1.1 28.2 2.3 42.3 3.7l9.4.9.3-9.4c.7-20.8 1.6-41.6 2.7-62.3 26.9 2.3 53.9 5.3 80.5 8.8 0 29.9.4 59.9 1.5 89.4-15.6 6-32.1 12.6-48.8 19.5l-5.5 2.3z" fill="#09f"/></svg>