<svg xmlns="http://www.w3.org/2000/svg" viewBox="0 0 52.8 53" width="2491" height="2500"><path d="M26.4 0C11.8 0 0 11.9 0 26.5S11.8 53 26.4 53s26.4-11.9 26.4-26.5S41 0 26.4 0zm18.3 22.6c-.1.5-.5.9-1 .9h-5.8l-1.2 6.1h6.2c.3 0 .5.2.4.5l-.9 4.7c-.1.5-.5.9-1 .9h-5.8l-.9 4.6c-.1.5-.5.9-1 .9h-5.8c-.3 0-.5-.2-.4-.5l2.1-11h-7.2l-2.1 10.7c-.1.5-.5.9-1 .9h-5.8c-.3 0-.5-.2-.4-.5l1-5H7.6c-.3 0-.5-.2-.4-.5l.9-4.7c.1-.5.5-.9 1-.9H15l1.2-6.1H10c-.3 0-.5-.2-.4-.5l.9-4.7c.1-.5.6-.9 1-.9h5.8l.9-4.6c.1-.5.5-.9 1-.9H25c.3 0 .5.2.4.5l-2.1 11h7.2l2.1-10.7c.1-.5.5-.9 1-.9h5.8c.3 0 .5.2.4.5l-1 5H45c.3 0 .5.2.4.5l-.7 4.7z"/></svg>