<svg xmlns="http://www.w3.org/2000/svg" width="512pt" height="512pt" style="isolation:isolate" viewBox="0 0 512 512"><defs><clipPath id="a"><path d="M0 0h512v512H0z"/></clipPath></defs><g clip-path="url(#a)"><path fill="#007B5E" d="M353.356 448.198c-16.583-.63-30.31-2.948-34.609-4.207-9.72-2.918-19.255-4.683-27.961-10.856-1.628-.89-2.165-1.213-3.747-2.088-.767 0-1.811-1.443-2.579-1.443-5.559-4.392-10.334-8.814-11.117-15.877-1.182-8.66 1.735-16.829 6.986-23.37h.046c1.659-2.088 3.547-4.023 5.636-5.65 2.426-1.797 5.573-.922 7.938-1.797 1.551 0 2.38-5.297 5.543-4.437 3.178 1.781.844 5.312-1.597 7.093v2.641c1.443.523 3.132.093 4.775.231-1.535 2.579-3.024 2.625-3.961 4.176 0 .86 3.178.86 3.178 1.72-2.395 2.672-7.109.921-10.303 2.672v1.781c7.908-.875 16.629-7.048 24.568-2.657 0 0-2.38.876-3.992 1.782 3.992 2.61 7.953 0 11.884.875 4.76 1.735 9.505 0 14.295.86-.783-1.735-3.194-.86-4.007-2.641 6.372-1.751 12.713 1.781 19.039 3.516-2.38-2.61-5.543-4.392-9.489-4.392-2.395 0-4.775-2.656-6.326-5.312v-.522c0-.691.108-1.213.783-1.213 1.981-.492 4.192.43 6.311 1.213 2.042.767 4.007 1.397 5.558.522 2.964-1.612 5.267 1.397 8.108-.461h.092c.169-.169.337-.261.522-.399-3.163-3.532-8.722 0-11.885-4.392 3.163-1.781 6.326 0 9.505-2.656 1.597-1.781 5.558-1.781 8.69-1.781 3.977-.875 7.97.906 11.9.906.783 0 2.411 1.75 3.179 1.75 3.163 0 6.326 3.501 9.489 1.781 0-.859-1.551-1.781-2.349-2.656-2.426 0-5.543 0-7.14-2.656 0-.875 0-1.781.783-1.781 3.931 0 7.155 4.437 11.101 2.656-6.326-4.391-13.435-1.75-19.823-5.267-3.946-2.656-9.489-3.516-12.683-7.953-.767 1.781-2.364.921-3.147.921-.783 0-.783-1.781-1.566-1.781-3.993 0-8.737.86-8.737-2.657 0-3.531 4.744-2.61 7.124-2.61 8.737-1.781 15.846 3.532 24.552 4.392.845 0 .845 1.735.845 2.656 0 1.735-1.628.86-2.411.86 3.962.875 8.676.875 12.668.875 5.558 0 11.884.875 17.443 2.641 3.193.875 6.326 2.656 9.52.875-2.411-1.735-7.125.906-6.327-3.516 0-1.735 3.133 0 4.714-.875l-.798-.86c.798-1.781 2.411-.921 3.992-.921-5.543-2.595-11.101-5.267-16.66-7.908 3.179-5.313 8.752-1.735 13.466-1.735 0 0 0-1.781-.798-1.781 1.627-2.657 3.992.86 6.341 0-.783-1.797-2.349-1.797-3.93-2.657-5.559-.875-11.102-2.656-16.645-3.516.799-1.75 4.745.86 3.962-2.656-1.613-4.392-7.171-3.532-10.319-5.267 3.148-1.781 7.156-2.641 10.319-1.781 3.946.906 8.721-.86 12.683 0-6.327-6.172-15.079.906-22.203-5.267 1.581-1.765 3.977-2.641 4.76-5.297 4.76 1.735 10.318-.875 15.032 0-5.988-2.457-11.915-4.975-17.873-6.694-.368-.123-.737-.262-1.121-.369-2.472-1.09-4.944-.461-7.401.369-1.474.476-3.009 1.105-4.483 1.397-5.559 1.781-11.117 1.781-16.66-.875.338-.2.752-.384 1.09-.522 2.948-1.413 6.418-2.119 9.228-2.119h4.745c1.597 0 0-2.626 1.597-2.626 3.178 0 7.109-.906 10.287 0 4.453 2.457 9.321 3.624 14.004 4.745 1.965.414 3.9.905 5.804 1.397a56.754 56.754 0 0 0 2.41 2.641c4.714.921 9.49.921 12.653 4.391.783.921 1.566 0 1.566-.86-.753-4.099-1.474-5.942 1.673-7.569.231-.123.507-.262.707-.369-.768-2.641-2.38-3.501-4.775-4.376 5.558-1.781 11.945-2.641 15.876 3.532h2.396c0-1.797 1.596-2.657 2.379-3.532 3.962-.906 6.342 3.532 10.303 3.532 7.908-1.797 15.033-.906 22.126-1.797-5.466-1.735-10.256-2.641-15.799-4.376-1.628 0-3.977 0-5.559-1.797 2.38-2.594 7.14-1.735 9.489-.859 1.613.859 1.613-3.517 2.396-2.657 4.007.922 7.938 1.781 11.101 3.516 2.395.922 7.14 2.657 10.288 4.438-3.148-7.032-13.451-6.173-13.451-12.345-.798-3.44 5.297 2.411 7.739-.645-14.986-3.562-29.973-2.15-44.989-4.653a178.47 178.47 0 0 1-2.35-2.61c4.699-2.656 9.49-4.437 14.265-3.531.783.875 1.52.875 2.334 1.75 3.178 0 4.76 0 7.969.86v-1.735c-5.559-1.781-11.117-.875-16.645-1.781-3.992-1.735-8.767.906-12.698 1.781-13.497.875-26.947-1.781-40.413-.875-6.326 0-12.683-.906-19.792 0-5.559 1.75-11.885 0-17.443 0-4.776-.906-10.303 0-15.063.875-3.931 0-7.938 0-11.071-1.781-.814-.86 0-1.735.753-1.735 10.318-1.782 19.822.875 29.312 0-3.931-3.532-9.49-1.782-14.234-2.657-.799 0-1.597-1.781-2.365-2.641 3.163-1.796 7.109-.89 10.257-.89.845 0 .845.89.845 1.75h15.032l-.799-.86c10.334-2.625 20.591-.89 30.925-2.625-7.156-2.641-15.892.829-23.002-1.781 2.411-1.782 4.776-1.782 7.11-.86-.768-1.781-3.931-.922-4.699-2.657 7.094-2.656 14.234-.86 21.358-1.781 0-1.735-1.566-3.531 0-5.266.783 1.735 2.396 2.61 3.179 2.61 4.775-.875 8.706-1.735 11.9 2.656-2.411 1.781-4.776 1.781-7.125 1.781 2.349 3.517 6.341 0 9.489.876.783 0 .783.859.783 1.781 4.745 0 10.288.86 15.063-1.781.783 0 2.38 3.516 3.931.859-4.714-2.595-10.272-1.735-14.249-4.391-3.962-2.656-8.676-6.173-12.668-9.689 1.582-1.781 4.776-1.781 6.357 0 2.349 1.781 3.962 1.781 6.311 2.657 1.597.859.814-2.657 2.364-2.657 3.179-.875 7.171-.875 10.334.86 4.745 2.656 9.505 1.797 15.063 2.656.783 0 .783-.859 1.597-1.735 0 1.014.798.845 1.459.876-4.653-3.947-10.503-.215-14.956-3.532-1.612-1.781-3.163-2.656-5.543-4.438 3.163-1.735 6.326-.859 8.706 1.782 0-.845 0-2.641.768-2.641 1.628 0 3.224 2.641 4.791 1.796-2.38-3.531-6.342-1.796-9.49-4.453-5.558-2.61-12.729-.875-18.272-3.516 0-.875.83-.875 1.613-.875.767-.86 0-1.735-.783-1.735-5.543 0-11.102 0-15.877-3.532 4.775-2.641 10.334-1.766 15.047 0 1.613.875 3.993 2.61 6.327 3.532.829 0 3.209.875 3.209-.922-.814-.859-1.597-2.61-3.209-3.516 2.395-2.595 5.558 2.657 7.953 0-.783-.86-.783-1.735-.783-2.595 3.931-2.671 10.272 2.595 12.698 0 3.9-3.593 6.342.86 10.303 0-3.362-2.671-7.017-4.007-10.733-5.021-5.128-1.351-10.425-2.18-15.431-4.729.768-1.735 2.38-1.735 3.946-1.735-2.395-2.656-5.558-2.656-8.737-4.391 3.993-.86 7.954-.86 11.885 0 3.194.86 6.341 2.61 9.55 3.516 1.551.875 3.117 1.75 3.962 3.516-2.411-5.297-5.558-7.892-10.318-9.689-.799-.906 0-1.781.798-1.781 1.551-.875 3.179.875 4.775 1.781.783 0 1.567-.906.783-1.781-.783 0-1.596-.875-1.596-.875 3.147-3.516 6.341 0 9.489 0 .783 0 1.627 1.75 2.41 2.656 0-.906 0-1.781.768-2.656-8.675-3.516-17.427-7.908-26.164-8.829-7.109-.86-14.234-.86-21.374-.86-14.234-.875-28.513 0-42.778-1.735 7.923-4.437 17.443.86 25.351-2.641-.799-1.796-3.209-.89-3.977-2.672 5.558-3.516 12.667 2.672 17.443-.859-7.109-2.657-15.048-1.782-22.218-4.407 1.305-1.812 2.871-2.134 4.483-2.073-.936-.937-2.61-2.534-.491-4.1 2.395-.906 5.558.875 7.953 0-7.953-1.766-16.659-1.766-22.218-8.813 10.273-4.392 21.374-2.657 32.491-4.392 5.543-1.781 11.101-1.781 16.629 0 1.597.86 3.148 1.735 3.977 3.516 1.566-2.656-.829-2.656-1.613-3.516-3.93-3.516-8.675-3.516-13.45-5.312-3.133-.86-6.326-.86-9.489-1.736-9.52-3.516-19.055 0-29.312-1.781-1.613-.875-3.977.86-6.342.86.783 1.797 3.931 0 3.148 1.797-2.365 4.391-7.908.86-12.652 1.735-8.706 1.781-17.443-.875-26.149-2.611 6.341-3.516 13.45 0 20.606-.921-.83-.86 1.535-1.735 0-2.595 3.946-2.641 7.093 2.595 11.055.86.814-.86-1.551-2.641-.768-4.437.768-1.735 2.349 0 3.931-.86v-1.735c6.388-4.438 11.946 0 18.211 2.595-3.117-2.595-7.11-3.517-9.459-7.033-.814-1.735.783-2.61 1.566-2.61 6.342 0 12.668 0 18.226 2.61-6.341-6.142-15.815-6.142-24.567-6.142-12.652.876-26.149 3.532-38.801.876-19.071-2.641-36.498-4.438-55.446-8.814-.844-.875-2.426-1.796-2.426-2.656 0-3.532 3.992 0 4.775-2.657l-.783-.875c1.597-1.735 3.931-1.735 5.543 0 .799.875 0 1.781-.829 1.781h-1.566c-.783 3.532 3.194 1.751 3.962 1.751 5.558.86 11.884 0 17.442-.876 7.125-1.781 14.249 2.657 21.374 3.532-.783-.875-3.148-.875-2.365-2.656 2.365-3.532 7.125-.876 10.319-.876 6.341 0 12.652 1.736 19.776 4.392 1.597 0 3.21 1.781 4.776.921 2.38 0-.783-.921-.783-1.781-8.722-5.313-18.211-3.532-26.165-9.704-.798-.875 0-1.735.814-1.735 1.582-.906 2.365 1.735 3.916.86-7.11-7.954-18.994 0-27.731-5.298 1.612-2.656 0-5.266.845-7.047.767-2.657 4.714-.86 7.892-.86.814.86 1.581.86 2.365.86 5.558.921 10.303 3.516 15.078 5.312 1.551.86-.783-.921-.783-1.796 0-.86.783-1.735 1.551-1.735 1.596 0 3.224.875 3.224 2.61 3.117-.875 6.326-.875 8.675 0 2.38 1.781 3.993 5.297 7.156 5.297-.83-2.641-3.163-3.516-4.776-5.297-.783-.875 0-1.735.768-1.735h4.008c-2.396 0-4.008-.875-5.559-.875-4.79-.86-7.938-4.438-11.9-6.173.784-1.781 3.194-.86 4.745-1.781-4.745-3.516-11.884 0-16.629-4.391 4.745-2.641 8.737-2.641 13.512-1.782-5.604-1.719-10.318-.859-15.877-.859-2.349.859-4.744 0-6.341-2.657-.783-1.735 3.148-.875 1.597-2.61-3.225-1.781-7.156.875-11.117-.906l.783-.875c-3.931-3.532-7.923-1.751-11.869-.875 2.38 1.75-.798 1.75-.798 2.656-5.544 0-11.102 1.735-16.599 1.735-5.604.875-11.946 2.672-16.644 3.532-3.194 0-5.559-4.392-9.551-5.267.799-1.781 3.209-.906 4.76-.906 6.342-.875 13.497 1.781 19.823 0 1.612 0 5.543 2.641 6.326-1.75-1.551 0-3.148.875-3.946-.876 5.512-2.641 11.117 0 16.629-2.641-3.163 0-5.512-2.656-7.938-3.531 2.426-4.376 5.573-.906 7.938.875 1.551.921 2.38-1.781 3.946-.875 3.992 3.531 8.706 6.172 13.481 4.391-4.775-1.719-9.489-2.595-12.667-7.032 6.326-1.735 12.667 0 18.21 2.641-3.147-3.501-7.124-5.298-11.884-6.173-18.211-1.781-35.653-3.516-53.081-1.781-1.597 0-6.341 3.578-7.124.921-.784-4.437 5.527-1.796 7.892-4.437-3.117-2.595-7.109 1.781-8.676-1.735 7.908-3.532 16.629 0 25.336 1.735-.768-3.516-4.776-.875-5.559-3.516 0-.875.783-1.751 1.628-1.751 3.931 0 8.675 2.672 11.869 1.751 4.729-1.751 10.287.921 15.032.921-3.194-3.578-7.124-3.578-10.303-4.453-7.109-2.656-15.032-.86-22.141-5.251l.767-.921c-.767 0-1.55-.86-1.55-.86 5.481-6.173 12.652.86 18.195 0-1.612 0-2.38-.875-3.194-1.735 2.426-1.797 4.775 0 7.14-.922-14.249-3.516-28.544-3.516-43.546-6.172-1.597 0-.813-1.735-.813-2.61 5.558-5.298 12.698 0 19.024-2.657-7.908-.875-16.66-1.643-24.567-.875-7.156.66-14.311 1.32-21.451.86.015 0 .031.015.046.015 0 .875 3.163 1.797.768 2.657-3.931.875-7.892 0-11.823 1.735 3.148.875 7.124-.86 10.272.875-7.124 4.437-16.66 1.781-23.001 7.094-1.551 1.735-5.559 0-7.892.86-4.76 2.656-11.102 2.656-15.862 6.187 6.326.86 11.869 0 18.195-2.671.845 0 1.628 1.735 1.628 1.735 5.558-3.516 11.055-1.735 17.381-2.595.845-.921 2.427 0 2.427-1.781.783 1.781 3.193 3.516.783 4.376-5.559 1.796-10.319 5.313-15.816 3.531-2.395 0-4.775 0-7.17.906-1.566.876-3.163 2.672-5.559 2.672.783.86-3.147 1.72-.767 1.72 1.55 0 2.395-1.72 4.76-1.72 1.566 0 .783 3.501 2.333 2.595.845-1.735 3.194-2.595 4.008-1.735 7.094.86 15.001-3.532 21.404 0 0 0-1.612 3.516-3.193 3.516-7.908 0-15.816 1.735-22.986 2.656-6.326 0-13.466 2.657-20.591 0-3.977-.921-7.109 0-10.303 2.657 3.194.875 6.326-.922 8.737.875-3.178 3.501-7.954 3.501-11.884 6.173-1.628 1.719-3.962 2.594-5.559 5.251 9.489-4.392 19.823-6.127 29.343-9.704 1.551-.86 2.349 3.577 0 4.453-1.351 0-2.657 1.781-3.962 1.888 2.887.415 5.774-.967 8.66-.169 1.628 0 4.776 0 5.559-1.719 0-.876-2.38-1.797-3.163-2.672 4.775-3.501 15.83-5.298 15.032 3.531 0 1.735-2.349.86-3.132.86-1.567-.86 0-2.595-.784-3.516-1.627-.875-3.178 1.797-4.775.921 0 2.595 4.775.876 3.992 4.376-.844.876-1.612 2.626-2.395 2.626-9.551-1.75-17.443 2.641-26.149 1.781-3.194 0-8.737-1.781-11.101.86 1.581 0 3.93 0 4.775 1.781 0 1.751-3.194 1.751-3.992 3.532.798 0 1.581 0 2.364.86 1.628-1.782 3.993-1.782 5.559-1.782 12.667-1.719 25.381-3.516 38.049-3.516 2.38 0 7.923-.875 7.923 1.797-.799 4.376-7.125 1.719-11.916 2.641-1.55.86-3.117 3.516-3.961 3.516-5.559 1.735-10.257-1.781-15.815-.875 0 .875 0 1.75-.768 1.75h-11.117l.783.86c-.783 1.781-3.178.921-4.744.921-6.357-2.656-12.668-5.312-19.823-3.531 1.597 0 4.007-.906 5.558 0 1.597.875 2.349 1.75 3.931 1.75 1.628.86 0 4.376-.768 4.376-6.326-1.735-11.884-1.735-17.443-.86 1.628 2.657 4.776-.875 5.559 1.797 0 3.501-3.931 0-4.776 2.641-4.713-2.641-9.489 2.595-15.001 1.735 4.745 2.656 9.504-.875 15.001.86 1.613 0 3.179-.86 4.776-1.735 7.17-.86 14.28-.86 21.404 1.735 0 0 0 1.796-.783 1.796h-6.341c-.83 0-.83 1.735-.83 1.735 4.76 1.797 9.536-2.656 14.28 1.797-.783.844-1.566 2.641-3.178 1.735-3.148-.891-6.342 0-9.489-.891 0 1.797-2.411.891-1.613 1.797 2.396 1.735 5.543.86 7.954.86 0 .875 3.148.875.768 2.656a1.159 1.159 0 0 1-.768.384c2.994 1.244 6.587.629 9.489 2.226.829.906 0 1.781-.798 1.781h-3.148c1.597 2.657 5.558-.875 6.342 2.657 0 .875-.784 1.735-1.567 1.735-8.736 0-17.442.921-25.396-4.392-.768-.875 0-1.781.844-1.781 4.714-.875 7.893 2.657 12.606 2.657-4.713-3.532-11.884-1.751-16.613-6.142 1.597-1.781 3.163-1.781 5.558-1.781-4.76-2.657-8.721.875-13.497 0-2.349-.86-3.93-2.657-6.326-1.766v1.766c-6.341 2.656-12.683 2.656-19.009 5.266 5.543.906 10.334-2.61 15.846 0-.767 1.781-3.961.906-3.961 3.517 3.961 0 7.124-.86 11.101.921-9.535 3.516-20.636 1.735-30.095 7.048 6.342-1.797 11.885-2.657 18.211-1.797 1.566 0 .783 2.656 1.566 2.656 7.954-2.656 14.28 0 21.404 1.782.799.875 1.597 1.735 2.365 2.656-3.931 1.735-8.706-.921-12.668-.921-11.101-1.735-20.59 2.656-30.878 7.047 6.342-1.735 13.435-4.391 20.56-3.516.829 0 2.395 2.641 3.163 1.781 5.558 0 11.117 1.735 16.66.86 7.155-1.719 13.466-1.719 20.59.875-3.132 1.782-7.124 0-10.303.922 0 0 0 1.735.83 1.735-10.319 5.297-20.622 0-31.723 1.796-4.729 1.72-8.706 2.641-13.435 2.641 7.093.86 15.047-3.577 21.389 0 3.93 2.595 10.256 1.735 15.815 1.735.844 0 .844.86.844 1.781 3.148 0 3.148 1.736 3.9 4.392-7.907 1.735-15.001-2.656-22.97-2.656-.783 0-.783 1.796-.783 1.796 3.194.86 6.341-.921 8.752 1.735-1.628 1.781-2.411 4.392-4.008 5.297-5.558.876-10.287-1.781-15.846.876 4.008 0 8.753-.876 9.52 2.641.768 1.75-2.395 0-3.178 1.75-4.729-2.61-9.489.86-14.249.86 2.349 1.796 4.76-.86 7.124 0 .783 0 .783.921.783 1.796-.783.86-.783 1.766-1.55 1.766-2.426 0-4.776.875-7.156.875-6.326.876-13.435 0-19.776 0 0 1.736-2.396.876-1.613 1.736 3.179.921 7.11-2.611 10.288 0-4.745 4.437-11.071 0-15.846 2.656-2.365 1.781-5.543 2.656-7.109 5.313 6.326-.876 11.884-4.407 18.21-2.657 0 1.781-2.364 1.781-2.364 2.657 1.581.859 4.775-.876 6.326.859-3.962 3.532-9.505 3.532-13.435 6.173 2.364.875 5.543-1.735 4.713 0-2.349 4.391-8.706 6.188-12.682 9.704 3.193-.875 6.341-1.796 9.55-2.656 4.76-.86 10.303-3.516 15.785-2.657 2.41.922 1.627 3.517 0 4.438-7.094 0-13.436.875-20.56 2.61-3.148.875-7.14 3.578-9.535 7.048 4.76-2.61 9.535-7.048 15.093-5.267 1.566 0 4.745 0 5.512 1.797 0 1.72-3.946 4.376-3.163 4.376 4.76 1.75 10.319-1.781 15.063.875-3.608 3.24-10.502 2.027-13.512 6.464a6.948 6.948 0 0 0-.721 1.428c1.489-.506 2.948-1.044 4.422-1.428.906-.138 1.765-.291 2.702-.291 11.102-.876 21.358-5.298 32.46-2.657a53.906 53.906 0 0 1-9.52 2.948c-15.109 3.302-30.54.906-45.527 4.3 2.749-.139 5.144 1.351 7.509 3.316-4.76 2.657-10.318-.86-14.249 1.781-3.194 1.735-7.892.876-10.303 5.267 4.744-.875 10.303-6.142 12.667-.875.783 2.672-6.326 0-4.713 4.391 0 .922 4.713-1.719 6.28.922 0 .859-2.334 0-2.334 1.735 6.326.859 12.652-1.735 18.21.859-4.775 2.657-10.318.937-15.047 1.782v1.75c.783.906 3.163 0 2.38.906-1.597 2.656-6.357.875-8.768 3.532 3.225 0 5.559 0 8.768 1.735 1.551 1.781 6.326-1.735 7.109.906.783 4.391-5.558 3.531-8.706 3.531-8.737 0-17.443 0-26.164.86v1.796c3.178-.921 6.326-1.796 9.504 0-7.109 5.252-15.785 2.595-23.769 6.158 4.775 0 9.551 0 14.265 2.625-4.714 4.422-11.056 1.766-16.614 3.516 11.055 1.782 22.94-1.75 34.041.906 0 1.751-1.581.876-2.365 1.751-3.178.86-6.341-.875-9.519.86-2.365.906-4.714 1.781-7.11 1.781-.813.875-1.597 1.735-3.147 1.735 4.714 1.796 8.69-3.516 13.435-1.735 2.38 1.735 6.341 0 5.558 2.656 0 1.735-3.961.875-5.558 4.392 2.38 0 5.558-.876 7.125 1.719-6.342 3.532-12.668 3.532-19.01 2.672-7.109-1.735-15.062-.875-22.172 0 2.334.86 4.76 0 6.327 2.656-3.164 2.641-7.125 4.376-11.102 6.173 2.395 0 3.977-.875 5.558-1.797.768 0 2.38 1.797 3.977.922 0-.922 0-1.781.768-1.781 3.194 0 6.357-.876 8.752.859-1.627 1.797-4.775-.859-5.558 2.657 5.558.875 13.45-3.516 18.226.875-4.591 2.748-9.628 4.299-14.756 5.651-8.138 2.195-16.476 3.946-23.293 9.35 2.395 0 6.326-.921 7.938-.921 11.117-1.735 21.374-3.47 32.475-2.61 2.35 0 7.125-.86 6.342 2.61-1.597 5.313-7.14 7.079-13.482 7.079 0 0 0 1.75.784 1.75 3.209-.86 6.356 0 8.706-1.75 2.395-.906 4.775-1.766 7.17-3.517 2.35-.905 4.776-1.765 7.125-.905.783.905.783 1.781.783 2.656-4.745 5.297-11.086 5.297-17.428 7.032 4.745 1.797 9.52-1.735 15.017-1.735 4.775.875 8.768-2.641 14.295-1.781-.783-1.75-3.976-.86-3.178-2.656 1.612-2.611 7.171-9.643 9.535-6.173 1.566 1.797-3.209 3.562-2.364 3.562 5.543 6.173 11.04-4.422 18.21-1.765v-1.797c-2.395-.86-4.775.921-7.17-.86 5.558-3.531 12.729-3.531 18.272-7.047.383 0-.169-.2-.86-.522-.691-.369-1.52-.768-1.52-1.213 0-3.532 3.117-2.657 4.729-2.657 10.318-2.656 20.59-7.048 30.11-2.656-5.558 1.781-10.303 3.516-15.861 2.656 2.411 3.501 7.969-2.656 8.737 2.657.123.383.123.829.076 1.213-.307 1.919-2.809 3.024-4.852 2.318.814 4.376 5.559 0 4.776 2.641 0 .86-1.613 3.47-2.396 3.47-3.93 1.797-8.706-.86-12.667 0-5.559 1.797-11.117-.86-16.66 2.657-.783.905 0 1.781.845 1.781-3.993 2.641-8.737 0-11.885 4.391h-2.411c5.559.906 10.303-.86 15.846 0l-.783.906.783.875c-2.395.875-3.946 3.532-6.326 4.392-4.775.875-9.52-1.735-14.28 1.781 3.977.875 7.954-.906 11.885.875-2.38 1.735-5.558.875-7.908 1.735 0 .921 0 1.781.783 1.781 5.559 0 11.9-.86 17.459.875-4.008 2.657-8.722 5.298-12.714 7.033 0 0-.783-1.735-1.551-1.735-3.194 0-5.558-1.781-8.737-2.641-3.93-.86-7.923.86-11.899 1.781.798 0 2.41 0 2.41.86-.783 1.735-3.178.875-4.775.875-5.543-3.516-11.885-1.735-17.443-4.376-5.528-2.672-11.884-3.532-17.412-.937 0 0-3.977 0-2.365.937 5.559 1.72 12.668-1.797 17.443 1.72-6.341 6.157-15.877 4.437-21.435 10.564 10.334-3.517 20.591-5.267 30.924-5.267 3.962 0 8.722-1.781 12.653 1.75-8.691 1.782-15.816 6.173-24.553 8.814-.783.875-.783 2.656-2.364 3.532-7.954 2.641-15.078 6.172-21.404 10.548 3.976.921 7.953-2.579 11.884-2.579 4.745 0 11.884-7.094 16.629-2.672-2.672 3.762-8.322 4.299-10.886 8.261-.446.675-.737 1.443-.998 2.318.46-1.013 1.151-1.704 1.95-2.318.66-.446 1.351-.829 2.042-1.213 3.931-.876 7.109-1.797 10.272-4.376 1.612-.922 3.962.859 5.543 0 2.395-1.797 4.791-2.672 7.125-3.578.829 0 .829.906.829 1.781-.829 1.797-3.163 1.797-3.977 3.516 2.364 1.781 4.76-1.719 7.14-1.719 3.961 0 7.109-5.328 10.318-6.234 7.109-2.611 14.234-2.611 21.343-4.392 2.395 0 4.775-1.735 7.125-2.641 8.752-1.75 16.659-2.61 25.381-4.391 3.992-.875 7.938-2.657 11.884 0-9.504 4.391-19.777 6.157-30.095 6.157-2.411.875-3.977 4.407-7.17 5.267-10.273 1.781-19.777 1.781-29.266 6.234 4.76 2.579 10.257-2.672 15.032.859 0 .86 0 2.641-.783 2.641-3.501 1.075-6.68 1.505-9.981 2.089-1.904.384-3.838.767-5.896 1.443 3.992-.921 8.721-2.656 12.729 0-1.612.875-2.411 2.595-3.194 4.391 0 .876 1.582.876 2.35.876 1.627-.876 1.627-2.672 3.178-3.532 3.148-1.735 6.372-1.735 9.551-1.735.767 0 1.55 1.735 1.55 3.516 2.78-1.044 5.313-3.27 7.985-4.959 1.95-1.167 3.992-2.089 6.28-2.089 8.737-.921 16.629-1.781 25.396-2.641-4.775-.859-8.767.86-13.512-.859 7.954-4.453 16.66-4.453 25.335-7.094 1.628 0 3.993-.875 3.179.86-.768 3.562-6.326 0-8.722 4.437 3.179 1.797 6.326 0 9.536.875.767 0 .767-1.75 1.566-1.75 8.737-.906 18.993-3.562 26.164 1.75-7.171 2.641-15.063-1.75-22.172 0-5.651 1.92-10.902 3.793-17.166 6.557l-1.751.015c-1.336.415-2.687.906-4.069 1.382h-5.558c-7.125 0-14.265 0-21.374 2.595 0 0 0 1.796.783 1.796-7.907 2.657-16.629 7.033-24.552 7.908-5.558 0-11.086 5.313-17.443 7.048 3.931 2.641 7.14-1.735 11.885-3.532.767 0 1.581 0 2.364.876.799 2.656 0 4.437-1.597 6.233-.767 1.72.814 2.595 1.597 3.471 1.567-3.471 5.559-7.048 8.737-3.471.783.86 0 2.595 0 3.471 3.163-4.407 7.908-7.923 12.668-7.923 1.597 0 1.597 2.656 0 3.516 3.93 0 7.155-2.641 10.272-5.297 2.395-.876 4.76 1.781 7.171 0 5.558-2.611 11.101-5.267 17.381-6.112.829 0 .829.845.829 1.72 2.349-.875 4.729-1.72 7.125-1.72.783-.875 2.364 0 2.364-1.796 0 .921 3.194.921.783 2.641 7.954.875 15.862-1.72 23.769-1.72-3.147-2.656-7.109.875-9.473-2.656 0-.875 0-1.781.767-1.781 7.939 0 16.66.906 24.552 0-3.961-3.532-9.52 0-14.218-.876-.845 0-.845-.875-1.628-1.796a31.374 31.374 0 0 1 3.993-2.242c9.243-3.639 21.266-3.255 29.327-3.885.952 0 1.044.983.952 2.089-.077.767-.184 1.597-.184 2.318-2.35 7.908-4.76 15.816-7.908 22.909-3.961 7.908-9.52 14.956-16.66 20.268-9.52 6.158-19.562 10.81-31.016 12.422l-122.638-.03c0 2.426-.046 8.107 0 8.951H512v-8.936H353.356Zm29.343-83.806c1.551.922 3.946.922 5.558 2.657-2.38.86-6.341 3.516-8.706.86-.783-1.735 3.148 0 2.365-1.735-.814-.86-3.148.875-3.148-.86.783-1.812 2.518-1.689 3.931-.922Zm32.505-65.165c5.497.86 11.824 0 17.382 3.517.829.859 0 1.719-.783 1.719-3.163 0-5.85.753-8.722-.86-3.163-1.735-6.326-.859-9.504-2.641.798-.875.798-1.735 1.627-1.735Zm-17.442-68.742c.783 0 .952 2.948 2.38 1.781 3.163-2.656 6.326 0 9.519.875 0 .875 3.133 1.735.768 2.641a27.229 27.229 0 0 1-11.884 0c-1.567-.906-3.962-4.422-.783-5.297ZM48.321 285.086c-1.566-4.392 8.737-4.392 13.497-4.392.783 0 .783.922 1.566.922-3.962 4.376-12.668 8.782-15.063 3.47Zm40.429 25.565c-1.597 4.438-7.923.922-11.885-.86.783-1.796 3.194-2.656 3.962-1.796 3.163 0 8.844.107 7.923 2.656Zm6.341-4.391c-1.597 0-4.775.875-4.775-.86-.783-1.797 3.178-2.656 4.775-.937v1.797Zm0-18.518c0 .906 0 1.781-.783 1.781-6.372-.875-11.9 2.657-18.226 0 1.566-.875 2.349-1.781 3.977-.875v-1.766c-3.194.86-6.341 0-9.535 0 0 1.766-.799 1.766-1.582 2.641-1.566.875-1.566-.875-2.395-1.781 0 .906 0 1.781-.798 1.781-.768-1.781-1.551.875-2.365 0-.783-.875-1.566-.875-.783-1.781 5.558-3.485 11.117-5.266 17.458-4.391.768 0 .768.906.768 1.735 5.558 0 10.257-2.61 15.815 0-.783.906-1.551.906-2.334.906-.814.89 0 .89.783 1.75Zm188.57 75.76c-1.612 0-3.178.89-3.946-.86 0 .86 0 1.75-.814 1.75h-7.124c-.829 0-.829-1.75-.829-2.61.829-.921 2.395-1.781 3.992-1.781 2.38 0 3.178.86 4.775 2.641 1.551-.86 3.117-1.781 4.745-.86 0 .86-.799 1.72-.799 1.72Zm-13.496-109.233v-1.735c2.395 0 5.543-2.656 7.953 0-2.41 2.641-4.775 2.641-7.953 1.735Zm3.178 62.555c-.783.875-1.566 1.781-2.395 0 0-1.735 0-4.392 1.612-5.251 1.566 0 2.38 3.516.783 5.251Zm0 16.752c.783-3.532 4.775-4.407 8.706-3.532.783 0 .783.875.783 1.735-.783 1.797-2.687 2.181-3.931 3.562-2.349 2.611-4.775 7.923-7.953 7.048-3.148-.875.829-5.297 2.395-8.813Zm11.117 13.205c0 .875-1.044.245-1.628.875-2.349 2.656-3.931 7.969-7.892 5.297 2.38-3.516 4.775-7.032 7.892-8.829.829 0 1.628 0 1.628.922v1.735Zm-3.194-44.913c-1.551-.906-3.67-3.224-1.551-4.437 1.551-.86 3.946 0 5.513 0 5.558-2.61 11.101-2.61 16.659-2.61.783 0 .783.875 1.551 1.75 0 .86 0 1.781-.768 1.781-4.775 1.735-9.519-1.781-13.512.875-2.334.86-4.698 2.641-7.892 2.641Zm22.172 36.084c-3.946 0-7.938.906-11.854 0 1.567-3.516 5.528-1.735 7.125-4.376 2.334 1.765 5.558-.876 7.109 1.765.783 1.751-1.551 1.751-2.38 2.611Zm8.722 22.049c0-.875 0-1.735.767-1.735.845 0 .845-.154 1.628 0 5.558.86 11.101.86 16.614 3.516-.753.86-1.567 2.61-2.365 2.61-4.76-1.75-8.691-.89-12.652-2.61-.814 0-3.225 0-3.992-1.781Zm18.256 21.128h-4.76c0 .906 0 1.781-.783 1.781-3.194-.875-6.326 0-8.721-1.781 2.395-5.267 7.109-2.656 11.854-2.656.798 0 2.41-.86 3.163.906 0 .875 0 1.75-.753 1.75Zm46.724-44.037c-4.76 1.766-11.9 4.422-15.032-.875-1.627-1.781 2.426-2.994 3.132-2.641 3.977 1.765 8.753-.876 11.9 3.516Zm-6.341-22.003c.783 1.735-2.365 1.735-4.76 1.735-3.148 0-7.109.875-9.489-1.735 4.775-1.781 12.667-5.298 14.249 0Zm-13.466-16.737c2.364 1.735 4.775 2.61 7.14 2.61.767 0 1.566.906 1.566 1.782-.799 1.719-2.441 1.259-3.148.859-3.194-1.735-7.124.86-9.52-2.641 1.613-.875 2.396-3.531 3.962-2.61Zm-17.443 44.037c2.365 0 4.729-.66 7.155 0 3.163.875 7.094 0 9.505 2.657.783.875 0 1.735-.783 1.735-3.993-.86-7.939.875-11.885-.86-1.627 0-3.178 0-4.775-1.797-.768-.86 0-1.735.783-1.735Zm0 37.865c-3.117.875-5.558 1.781-8.721.875 1.612-.875 3.163-3.516 4.76-2.656 1.627.906 3.178 0 3.961 1.781Zm-5.558-21.988c-3.163-.921-6.326.86-8.676 0-.783-.921-2.395 0-2.395-1.781 0-.86 0-.86.783-1.797.829-.86 1.106 1.874 2.411.937 2.349-1.797 6.326-.937 8.69.86.784.86 0 1.781-.813 1.781Zm0-39.661c0 1.735-2.334 0-3.163 1.735-.753.891-1.567 0-1.567-.86.814-.875 1.382-1.781 3.179-1.781.768 0 1.551.906 1.551.906Zm-3.916-13.205c.753 0 .753.86 1.582 1.735 0 .86 0 1.797-.829 1.797-1.567 0-3.163-1.797-4.714-.937-3.977.937-7.908-.86-11.117 1.796 3.209.86 7.14-.859 10.318.86-7.109 3.516-15.861 6.173-22.986 4.438-.552-.2-1.105-.338-1.658-.446.2.338.415.845.875 1.321-2.395 1.735-3.992 3.516-7.109 3.516-.829 0-.829.86-1.627.86-.799 0-.799-.86-.799-1.735 1.428-3.132 4.13-3.47 6.986-4.177-3.869-.276-7.876.538-10.901-2.855 3.915-4.438 9.458-4.438 14.233-2.641-.783.859-.783.859-1.627 1.719 3.224-1.719 7.953.922 9.55-2.656.783-.86-3.147-.86-3.147-2.595 0-.937 2.349-1.797 3.93-1.797 3.179 0 7.171 1.797 10.303 1.797 3.194.86 5.543 0 8.737 0Zm-2.41-12.345c0-.875-.784-.875-1.551-.875 0 .875 0 1.735-.799 1.735-2.395 0-3.977-.86-6.326-1.735-6.403-.876-12.729.875-18.287-2.657 1.627-7.047 7.953-.875 12.729-3.531-9.505-4.376-20.621 5.312-28.544-1.735-.768-.906 3.209-.906 4.775-1.781-1.566-1.782-3.01-.86-4.775-.86-.768 0-.768-.922-1.567-.922 3.946-4.391 7.923-7.047 12.668-9.688 2.38-1.735 7.938-.876 11.117 2.641-3.179 1.796-7.954-.86-10.334 3.531 0 .921 0 2.657.783 2.657 2.441 0 4.775-.876 7.14-.876 4.76.876 7.892 4.392 12.668 2.657 1.627-.922 3.193-3.517 5.558-2.657 2.395.876 2.395 4.392 0 5.298h-3.931c.783 6.141 8.676.829 11.086 6.141.753 1.782-1.612 1.782-2.41 2.657Zm-29.297-67.868c.783-1.75 2.426-1.32 3.961-.875 3.148.875 6.326-1.735 8.706.875-3.163 3.563-13.481 7.079-12.667 0Zm37.22-22.003c3.961-1.75 11.116-2.656 11.899 1.781.768.876-3.055 1.259-4.729 1.735-6.326 1.782-12.683 3.532-19.055 0 3.962-.859 7.954-2.641 12.729-2.641l-.844-.875Zm12.667 67.822c0-.876.845-.876 1.612-1.735 0 .859.783.721 1.566.859 4.776.876 9.551.876 13.466 3.517-3.132.875-2.349 1.796-3.915 4.452-3.992-2.656-10.334-.921-13.497-5.312 0-.875 1.613-.875 2.38-.875-.767 0-1.612 0-1.612-.906Zm-.768-37.865c0-.875 1.613-.875 2.38-.875.783 0 6.342 0 3.931 2.61-1.535.906-4.698 0-6.311-1.735Zm-9.489-20.268c3.916-1.735 8.046-2.979 11.869-.86 1.566.86 3.163-.875 4.776.86-4.776 2.656-11.102 2.656-16.645 0Zm-2.41 15.877c1.627.86 5.558.86 4.775 2.61-2.365 5.297-10.288 0-15.048-1.75 3.148-1.72 7.463-2.457 10.273-.86Zm-9.474-16.737c0-.875 1.551-.875 2.349-.875v1.735c-.798 0-2.349 0-2.349-.86Zm-.799 31.692c-3.977 2.656-8.737 3.516-13.496 1.781 2.395-.86 4.759-.86 6.387-3.531 2.349 1.75 4.714 0 7.109 1.75Zm3.946 9.689c-.798-.86 0-1.735.814-1.735.753 0 .921-.538 1.582 0 3.147 2.61 7.892-.922 11.101 2.61 0 .906 0 1.797-.844 1.797-3.916-1.797-8.706.844-12.653-2.672Zm2.396 23.784c-.829-1.735.89-4.391 5.558-4.391.783 0 .783.86 1.551.86l-.768.875c3.148.921 7.109 0 10.257 3.577.845.86 0 1.736-.768 1.736-5.573 0-13.496 2.641-15.83-2.657Zm13.45 7.079c-1.566 0-4.744.829-6.341-1.781 7.14-1.782 14.264-1.782 21.374-1.782 2.41 0 5.558 0 7.953 1.782-7.109 6.172-15.063 1.781-22.986 1.781Zm29.312-17.643c0 .86 0 1.781-.767 1.781-7.954 0-16.66 1.735-24.552-2.656 2.333-2.656 6.326.875 8.706-2.656 1.55-1.782 4.33.783 7.093 0 3.194-.845 7.97-.845 9.52 3.531Zm-10.287-65.18c-.814 0-1.582 0-1.582-.906a6.658 6.658 0 0 1 7.908 0c-.783 1.781-2.365.906-3.977.906 6.388 3.531 13.497-2.641 19.055.875-5.558 1.75-11.163 2.134-17.443 3.532-3.961.859-5.543-2.657-8.737-3.532 1.628-2.641 3.194.875 4.776-.875Zm-5.543 7.048c0 .89 0 1.75-.783 1.75-4.776-2.656-9.551 2.641-14.265-.86 3.163-2.672 7.017-2.672 11.102-2.672 1.566 0 3.163 0 3.946 1.782Zm-30.924-12.346c9.55 1.736 18.241-.875 26.978 1.736-2.38 4.437-6.388 0-9.536 1.796-1.566.86-3.961 2.641-5.558 1.766-3.961-2.641-8.721-1.766-12.668-3.562-.767-.86 0-1.736.784-1.736Zm-11.854-14.08c3.178.86 6.326 1.735 8.721 3.516-.829.876-.829 1.751-1.612 1.751-3.931-.875-8.706.906-11.885-2.656 1.551-.876 2.35-3.302 4.776-2.611Zm-24.568-23.784c7.908 0 15.862-2.656 22.971 2.61.783.922 0 1.781-.783 1.781-3.977 0-8.737-3.516-12.729-.859-4.714 2.594-11.04 0-16.583 0-.799 0-.799-1.797-.799-2.657 2.35-2.656 5.497-.875 7.923-.875Zm0 29.957c1.567 0 3.916 0 3.194 1.735-.829 5.297-7.954 2.656-11.117.875 2.35-.875 4.776-2.61 7.923-2.61Zm-3.977 50.209c.83.876 2.396.876 3.179 2.595 0 .922 0 1.797-.783 1.797-2.396.875-5.635 2.38-6.342 0-.829-2.656 2.35-4.392 3.946-4.392Zm-3.946 18.472-.829.875h-1.566c-.783-.875 0-1.719.783-1.719s1.612 0 1.612.844Zm1.567-133.032c.783 0 1.857-.231 2.379.921.83 1.735 3.977 0 4.745 1.735-2.349.86-6.341 2.656-8.691.86 1.567-.86 0-2.595 1.567-3.516Zm-6.327 1.781c.814.875 1.582 1.735 0 2.61-1.581 0-3.961.921-3.961-.875-.814-1.735 2.687-3.133 3.961-1.735Zm3.931 5.266c.829 0 1.628-.875 2.396-1.735.783 0 1.596.86.783 1.735-3.179 2.641-8.691 3.532-12.668 1.797 2.365-3.532 6.249-1.797 9.489-1.797Zm-7.124 55.523c2.41 0 4.775 0 6.341 1.781-2.334 1.735-5.497 4.391-8.706 3.47-.783 0-.783-.86-.783-1.735.783-.875.783-.875 1.566-1.735-.783 0-3.178.86-3.178-.906.829-1.751 3.178-.875 4.76-.875Zm2.41 29.081c.783.876 0 1.735-.798 1.735h-6.372c-.783 0-.783-.859-1.566-.859 1.566-2.657 6.326-2.657 8.736-.876Zm-11.101-95.168c.783 0 .783.86.783 1.797-2.349 2.641-6.341 5.236-9.52 2.641 1.628-2.641 3.962-1.781 5.543-3.578.783-.86 2.396.937 3.194-.86Zm-10.303 0h1.566c.845 0 3.179-1.735 3.179 0-.784 1.797-3.179 4.438-5.528 1.797 0-.937 0-1.797.783-1.797Zm-26.134 5.298c7.14-.86 13.466-.86 19.777 1.735-.752 2.656-3.117 1.796-4.744 1.796-2.38.86-4.714 1.735-6.342.86-2.364-1.781-3.977-2.656-6.326-2.656 0 1.796-.814 2.656-1.581 2.656-5.559.875-11.087.875-15.846-1.781 4.759-1.735 10.287-2.027 15.062-2.61Zm1.551 70.477c0 .876-.767 1.736-.767 1.736-2.35-1.736-7.125-.86-6.342-4.377 0-1.796 2.365-2.656 4.76-2.656 2.349 0 3.163 1.781 3.931 2.656 0 1.766-2.349.86-3.133.86.784.906.784.906 1.551 1.781Zm-8.675-38.785c0-.86 2.349-1.735 2.349 0 0 .921-2.349.921-2.349 0Zm6.326 44.958c.798.875 0 1.75-.768 1.75-2.395 0-3.992 0-6.403-1.75l-1.55 1.75c-1.597-.875-3.148-2.625-3.148-4.391 0-1.796 2.426-1.305 3.931-.875 3.178.875 5.543 1.735 7.938 3.516Zm-10.318 11.439c0-.875 0-1.735.813-1.735.784 0 .446.86 1.567.86.767 0 .767.875 1.612.875-1.612 1.781-2.395 1.781-3.992 0Zm-.783 88.12c-.768 0-.768-.906-.768-1.781 0-.86.768-.86.768-1.735 1.596.875 1.596 2.61 0 3.516Zm-3.962-130.376c-.814.86-1.597 2.595-2.365 2.595-3.178 0-5.558 2.657-7.938 3.532-.798 0-.798-1.735-2.364-1.735-4.776 0-10.334.86-15.033-2.657 3.931-3.516 8.706 0 13.451-1.735 3.946-1.781 9.489-2.641 14.249 0Zm-43.177 120.549c-4.315 2.227-9.228 1.121-12.514-1.796 1.566-1.781 3.961 0 5.558.875 3.148.691 5.267-2.487 7.616-2.057 4.192-1.812 8.476-2.641 13.205-3.977 2.395 0 3.962 1.796 5.543 3.562-6.725.737-12.852 4.008-19.408 3.393Zm5.144 8.921c-4.745 4.438-11.102 3.501-15.063 0 1.627-1.735 3.961 0 5.558.906 3.962.876 6.342-4.437 9.505-.906Zm-33.274-10.564c-1.566 0-4.714.906-4.714-.875.722-4.437 6.28-2.641 9.459-3.531 4.775-1.735 8.583-.906 14.264-.906.829 0 .829.906 1.612.906-6.341 3.531-13.512 1.75-20.621 4.406Zm43.607-32.613c-.844 0-2.395-.875-2.395-1.719 0-1.797 1.551-3.532 3.178-2.672 1.567 1.781 3.148 4.391 4.714 7.048 0 .859 0 1.796-.798 1.796-1.582 0-2.349-.937-3.132-1.796v-1.735c0-.922-.784-.922-1.567-.922Zm-25.396-85.433c6.341-2.641 13.45-.86 19.838 1.735-.845 3.532-3.992 2.657-7.171 2.657-3.93 0-7.109.875-11.04-.86 1.567-1.797 3.931-.876 6.342-1.797-2.411-.86-5.559.921-7.969-1.735Zm24.552 15.877c1.627.86 0 3.47.844 4.391 1.567.875 4.515-.476 5.497 1.735.783 1.781-1.566 1.781-2.38 2.657-3.117-1.751-7.892 2.656-9.52 0-2.333-3.517 1.628-.876 3.194-2.657-7.124-2.656-14.218-.86-21.389-2.656 7.939-.86 15.862-3.47 23.754-3.47Zm11.101 23.784c0 .86-.952 1.351-1.551.86-2.426-1.735-5.589-2.641-7.139-5.297 0-.876 0-1.735.783-1.735 3.147 0 7.14 2.641 7.907 6.172Zm-31.692 7.908c1.597-3.516 6.357-1.735 10.334 0-1.628 1.781-3.178 2.656-3.977 4.391-2.349.875-7.124-2.61-6.357-4.391Zm12.699 22.034c-2.365 1.75-3.839 3.531-6.342 3.531h-2.349c-.845 0-1.628-.86-.845-1.781 2.396-2.672 7.171-4.391 9.536-1.75Zm-1.597-17.643c3.163-2.61 7.938-1.735 11.9 0-3.962 3.578-8.737 1.781-11.9 0Zm15.83 53.787c-2.38 1.736-4.714 3.517-7.892 3.517-4.775 0-8.706 3.47-13.481 1.735 2.38-4.392 7.14-1.735 10.318-4.392 2.349-2.656 7.125-1.781 11.055-.86Zm-.798 26.364c0 .937 3.209.937.798 2.672-1.566.86-3.93-1.059-3.93.86v1.796c-3.179.86-7.97 2.641-10.303-.859 3.961-4.469 8.736-3.532 13.435-4.469Zm9.535 22.925c-2.349 4.391-7.124-.86-9.535 2.656-1.582-2.656-4.699.875-6.311-1.735 3.962-3.562 11.102-1.781 15.846-.921Zm-2.349-73.119c-.845 0-2.395.906-3.179-.875 0-.86 0-1.735.784-1.735.767 0 .998-.614 1.55 0 .845.875 3.194 1.735.845 2.61Zm7.124 3.516c-2.41.922-3.976 1.781-6.403 0 2.427-1.719 3.993-1.719 6.403 0Zm-7.124 44.959c2.349.859 6.94.813 6.341 4.391-.829 4.438-6.341 2.656-9.52 0 .784-1.735 1.551-4.391 3.179-4.391Zm8.706 12.345c.768.875 1.566 3.516 0 3.516-3.194.875-7.985 0-7.985-2.641 0-3.532 5.958-3.148 7.985-.875Zm-11.101 16.69c3.116 0 7.907-.86 11.101 0 1.566.921 2.349 4.438.768 6.173-4.76-6.173-12.607-2.611-19.792-2.611-1.567 0-2.411-.905-3.179-1.765 3.179-2.657 7.892-1.797 11.102-1.797Zm12.667 7.079c0 .89.783 2.656-.798 3.531-.768 0-1.582-.875-3.133-.875-.829 0-.829-.906-1.627-1.766 1.627-.89 3.992-.89 5.558-.89Zm-18.226-96.903c3.179-.922 7.263-6.004 9.52-3.517.783.876 3.148-.905 3.946 0 1.612 2.595 3.962 1.736 6.311 3.517.86.875 0 1.75-.768 1.75-6.341 0-12.683.921-19.009-1.75Zm12.668-26.426c-1.566 0-.783-3.516-2.365-4.391 2.365-1.766 5.021-2.073 7.125-.906 1.581.906 3.976.906 5.527 2.641-2.318 4.391-7.109.875-10.287 2.656Zm.798-78.431c.829 0 .829.906 1.612.906-1.612 1.75-3.193 1.75-3.976 0 0-.906 1.566-.906 2.364-.906Zm-16.614-7.048c2.334 0 3.901.676 6.327 0 3.147-.86 5.496 0 7.923.875-2.427.906-3.148 2.641-4.776 3.532-3.147 1.766-7.14-.891-10.257-2.626 0-.906 0-1.781.783-1.781Zm-6.341 1.781h3.163c.783 0 .783.891.783 1.735-1.597 1.797-4.791 2.81-4.791 0 0-.844.845-1.735.845-1.735Zm-3.178 17.612c3.178-.86 6.341 0 9.519.875-2.395 1.781-4.775 0-7.186 1.781 4.008 0 7.97-2.656 11.102 1.735-5.543 2.657-11.869 2.657-18.195.906-2.38 0-3.931-.906-6.342.876-.798-2.641-1.597-3.517-3.931-4.438 4.714-2.595 10.349-.43 15.033-1.735Zm-7.14 18.472c6.326-1.735 13.481-1.735 19.807 0 0-.86 0-1.735.768-1.735 3.209 0 7.907-2.657 9.535 1.735.799 2.656-2.349 1.796-3.194 1.796-12.652 1.781-25.319 1.781-37.987.86 3.178-4.391 7.109-1.72 11.071-2.656Zm-1.551 68.742c-1.628 1.781-3.209 1.781-5.559 1.781-2.41 0-4.775-.905-6.341-1.781 3.931-1.781 7.892-1.781 11.9 0Zm-1.628 24.644c-4.714 2.657-11.884 2.657-17.443.937 1.628-3.531 3.885-2.672 6.342-2.672 3.977 0 7.954-1.781 11.101 1.735Zm-21.373-64.289v1.781c-3.993 1.735-8.737 3.516-13.451.875 3.946-2.656 8.706-.875 13.451-2.656Zm-.783 24.69-.83.875c3.977 3.516 8.722-2.656 11.885.86 0 .875-1.996.107-2.349.875-3.21 7.048-11.916 4.438-17.428 2.641-2.395-.86-5.558-.86-7.938-2.641 4.775-2.61 11.101-5.251 16.66-2.61Zm-25.382 7.908c2.396-.86 3.854 0 6.326 0 3.993 0 7.171-1.72 11.102-.86.844.86 1.566 2.61 3.178 3.516-1.612 2.61-4.744 0-7.109.875v2.641c-5.558 3.532-10.334-1.766-15.078-4.422.783-.875.783-1.75 1.581-1.75Zm-1.581 23.784c1.581-.86 2.41.875 3.194 1.781 0 .891 0 2.61-.784 2.61-2.41 0-4.759.922-7.17-.875 1.612-.844 3.178-2.641 4.76-3.516Zm-4.76 22.049c15.063-.921 30.095-1.796 45.173-2.656-3.977-2.657-8.737 0-12.667-.875 0 0-3.179-1.782-.783-2.641 11.055-3.532 23.016-1.352 34.808-3.532 4.791-.906 9.52.875 11.102 5.267 1.581 3.516-3.132 1.781-3.916 1.781-7.953.86-16.659-2.657-23.769 1.735 4.714-.875 9.49-.875 14.25.921 0 0 3.178 1.735.783 1.735-9.474 1.781-18.226 3.516-26.917 3.516-3.992.922-8.737-.859-12.729-1.735-10.272-.86-21.389-.86-31.677-.86 1.613-2.656 4.776-2.656 6.342-2.656Zm19.838 8.814c-1.628.829-2.395 1.735-3.992 1.735-.783 7.063-8.676 3.531-12.668 7.063-2.395.86-2.395-2.657-3.961-3.532 2.395-1.781 5.543-.875 8.737-1.781 1.55 0 .783-2.656.783-2.656-5.559-1.735-11.071 1.796-16.629 0-.814-.829-3.163-2.61-1.597-2.61 11.9-2.641 23.769-3.517 35.653 0v1.781c-2.395 0-4.76-.906-6.326 0Zm-32.506 66.055c-1.581 0-1.581-2.656-2.38-4.391 0-2.657 3.501-3.716 4.73-2.657 3.193 2.657 5.589.86 8.752.86 3.178.922 7.109-2.61 10.303-3.516 1.581 0 3.147.906 4.775 1.781 1.551 0 3.931-1.781 5.543 0-9.551 7.923-20.621 6.173-31.723 7.923Zm29.328 5.313c-.814 0-.814 1.72-.814 2.641-3.179 2.595-7.892 1.735-10.303 0-3.132-1.781-5.543 2.595-8.691-.921 9.489-3.517 19.808-4.392 29.312-7.908 4.729-1.781 10.272-2.656 15.831 0-7.923 4.391-16.66 6.188-25.335 6.188Zm25.335-20.284c-5.559 2.611-11.9 1.751-18.226 1.751-9.489-1.751-17.428 2.656-26.917 5.297-.783 0-1.581-1.781-1.581-1.781 2.395-3.516 6.341-2.656 9.489-4.391.783-.876-3.148-.876-3.148-.876 3.931-3.562 8.706-.905 12.668-1.765l-.768-1.797c0-1.735 2.334-1.735 3.148-2.61 3.946-.86 7.953.875 11.853-.86 1.582-1.781 3.21-4.437 5.559-5.328h4.775l.768 1.766c-1.551 2.641-3.962 2.641-6.326 4.422.783 0 .783.875.783 1.75 1.581 0 3.147 0 4.775-1.75 2.349-.86 3.148 1.75 4.76 3.531.783.876-.829 1.736-1.612 2.641Zm6.341-13.204c-.798-1.797-3.163-.906-3.946-.906-7.171-2.626-14.295.906-20.621 2.641-2.365.875-7.109 2.656-7.923 0-.783-3.532 3.992-1.735 6.357-4.392 1.566-.875 4.744.86 6.31 0 7.923-3.516 15.877-3.516 23.785-1.781 7.907.906 16.644.906 23.753 6.173-4.729 1.796-8.675 1.796-13.45 1.796-2.396 0-3.163-3.531-5.543-4.437-3.179 0-6.326-.891-8.722.906Zm47.538 57.242c-1.581 3.531-4.714.875-7.124 1.75-2.365.906-7.11 3.178-7.11 0 0-.875.784-2.656 1.551-2.656 2.349 0 3.977-.86 5.559-1.735 2.41 0 4.775-1.751 7.124 0v2.641Zm.768-22.034c-.768 1.781-3.931 2.656-4.699.921 0-1.781.768-3.578 1.582-5.313-8.706.875-16.66 0-25.366 1.735-4.775 1.797-10.456 3.378-13.497 0-.783-.86-3.163-1.735-.783-2.595 7.954-2.656 18.211 4.392 22.986-4.437 6.326 1.781 12.668-1.735 18.226 1.781 2.411.875 2.411 5.251 1.551 7.908Zm.86-130.392c1.535-.86 4.437.937 4.698 1.797.845 2.61-2.38 0-3.931.86 0-.86-3.178-1.72-.767-2.657Zm2.318 59.929.814.86c3.962 2.656 4.745 8.829.799 8.829-1.613 0-3.931-6.173-1.613-9.689Zm3.225 18.518c0-1.797 1.551-1.797 3.147 0-1.596.86-3.147 1.735-3.147 0Zm3.931 11.424c-1.597-1.735-3.148-4.392-3.148-7.033 0-.859 1.551-.859 2.364-.859.784 0 .446.952.784 1.719.783 1.781 1.55 4.438 0 6.173Zm3.178-76.65c-1.628.859-4.775-3.517-1.628-5.298 0 0 1.275.092 1.628.906.783 1.751 1.566 4.392 0 4.392Zm2.38 99.574c-.814 0-.814-.89-.814-1.796 0-.86.814-.86.814-1.735 1.551.875 1.551 2.641 0 3.531Zm5.512-116.311c-1.551.875-2.349-.86-3.117-1.735 0-.921 1.566-.921 2.35-.921.767 0 .767.921 1.581.921 0 .875 0 1.735-.814 1.735Zm0-11.424c0-.875-2.349-.875-.767-2.641 1.581-1.796 3.93-.89 3.93.86 0 .906-1.581 2.641-3.163 1.781Zm8.768 105.686c-2.442-6.126-.845-13.236-2.442-20.268 0-1.735 2.442-.86 3.163-.86 1.613 0 3.21 1.781 3.21 2.656-.784 6.173.783 14.081-3.931 18.472Zm-3.179-42.256c.737-.921.737-2.656 2.334-1.796.845 0 1.397 1.167.845 1.796-.845.86-.845 1.735-1.628 1.735-.814 0-.814-.875-1.551-1.735Zm-2.426-7.048c-.737-.921 0-1.781.829-1.781 1.597 0 3.931-.875 5.497.86 0 0 .845-.86 1.613-.86.813.86 1.597 1.781 2.38 2.657-2.38 2.641-7.893 1.735-10.319-.876Zm2.426-22.909c0-1.781 3.47-3.178 4.745-1.781.768.921 0 2.656-.845 2.656h4.776c.844 0 5.558.86 3.209 1.766-2.365 1.751-7.14-.906-9.551 1.751 0-1.751-2.334 0-2.334-1.751 0-.783 0-1.535.476-1.72-.291-.168-.476-.445-.476-.921Zm6.326-51.991c0 1.766-3.992 2.641-6.326 1.766.737-.906 1.551-2.641 3.179-2.641 1.566 0 3.931-.921 3.147.875Zm-3.147-21.143h1.566l-.845.875-.721-.875Zm3.931 63.43c.783-.906 2.41-.906 3.193-.906 0 .86 2.841 1.705 1.09 2.534.722.322 1.244.967 1.244 1.904 0 1.719-2.334 2.641-3.961 2.641-1.566 0-2.35-3.517 0-4.422a3.38 3.38 0 0 1 .982-.338c-.952-.323-2.057-.875-2.548-1.413Zm-1.597-11.47h-1.613c0-.875-3.163-1.735-.721-2.61-1.628-1.781-1.628-4.438 0-5.297 1.566 0 3.147-.876 4.714.859.783.922 3.178 1.797 3.178 2.657-1.551 2.656-5.558-.86-7.892 1.781 1.566 0 3.931-.921 5.497.875 0 .86 0 1.735-.783 1.735h-2.38Zm.813 15.862c0 .859 0 1.781-.813 1.781-1.613 0-3.962.875-4.776-.922 0-1.719 2.442-1.719 4.008-1.719.768 0 .768.86 1.581.86Zm7.11-16.737c-1.551.875-3.133 1.75-4.76 0 1.627-1.735 3.209-1.735 4.76 0Zm-1.551 7.048c-.814-1.735-3.992-2.595-3.209-5.298.844-.875 1.627 0 1.627.906 0-.906.768-.906 1.582-.906 1.551.906 2.349 2.703 1.551 4.423 0 0-.799.875-1.551.875Zm-8.706-19.347c-.845 0-.845-.906-.845-1.766 2.411-3.531 7.186-1.796 10.303-1.796.799 0 .799.906 1.597.906-3.163 3.531-7.124 2.656-11.055 2.656Zm5.497-35.254c-1.566-.876-3.163-4.392-.783-6.173.783 0 1.873.092 3.992.86 2.349.921 3.961 0 4.744 2.656.768 1.781-.783 1.781-1.627 2.657-2.365.86-4.699.86-6.326 0Zm.844 28.175c0 .906 3.117 1.782.783 2.641-2.41 0-4.79-.859-6.403-1.735 1.613-1.781 3.993-.906 5.62-.906Zm-8.783 29.957h1.597c0 .86 3.301 2.641.845 2.641-.845 0-2.442.876-3.179-.875 0-.906 0-1.766.737-1.766Zm7.156 24.691c0-1.797 3.178-2.641 3.992-.922.752 1.781 0 5.298-1.582 5.298-1.627.875-2.41-2.641-2.41-4.376Zm4.744 100.419c-1.566-6.173-3.562-14.526.799-19.378.798-.89 2.41 0 2.41.86-.844 6.173 0 13.22-3.209 18.518Zm3.209-35.254c-.844-.891-1.612-.891-1.612-1.735 1.612-4.438-1.597-9.705 3.163-12.346 1.597 4.376.814 9.689-1.551 14.081Zm3.931-20.269c-.783.86-1.566 1.797-2.38 2.657-.768 0-1.551 0-1.551-.86 0-2.656 0-6.173 2.365-6.173.23-.092.445-.138.66-.153l-.66-.722.783-.921v1.643c1.812-.015 2.595 2.564.783 4.529Zm-23.784-162.114c.844 0 .844.906.844 1.781h6.342c0-.875 0-1.781.721-1.781.845 0 1.613 1.781 1.613 1.781 2.38-1.781 5.558 0 7.124 1.736-4.744 3.577-10.303 0-15.063 0-3.93 0-8.675.921-12.683-1.736 5.559-4.391 11.946-4.391 18.288-4.391 7.124 0 13.45-1.781 20.56 0-8.737 5.267-18.226 0-27.746 2.61Zm36.452 243.218c-5.559-2.672 0-10.626-.783-16.798.783 0 .783-3.517 2.395-.86 0 .86 0 .86-.829 1.781 0 .86.245 1.105.829 1.735.783.875 2.349.875 2.349 1.781 0 2.641.814 3.516 0 5.267-.783 2.641-3.178 7.953-3.961 7.094Z"/></g></svg>