<?xml version="1.0" encoding="UTF-8" standalone="no"?>
<!-- Generator: Gravit.io -->
<svg xmlns="http://www.w3.org/2000/svg" xmlns:xlink="http://www.w3.org/1999/xlink" style="isolation:isolate" viewBox="0 0 64 64" width="64pt" height="64pt"><defs><clipPath id="_clipPath_rcIvcZqICAOko16g6cCvWsLVDXeN1CnL"><rect width="64" height="64"/></clipPath></defs><g clip-path="url(#_clipPath_rcIvcZqICAOko16g6cCvWsLVDXeN1CnL)"><path d=" M 37.684 0.125 C 37.221 0.125 36.791 0.225 36.395 0.357 C 37.238 0.919 37.7 1.663 37.932 2.506 C 37.948 2.621 37.981 2.704 37.998 2.82 C 38.015 2.919 38.031 3.018 38.031 3.117 C 38.097 4.572 37.651 4.753 37.337 5.613 C 36.858 6.72 36.99 7.91 37.568 8.869 C 37.618 8.985 37.684 9.117 37.767 9.232 C 37.139 5.051 40.626 4.423 41.271 3.117 C 41.32 1.977 40.378 1.216 39.634 0.687 C 38.924 0.258 38.279 0.125 37.684 0.125 L 37.684 0.125 Z  M 42.94 1.068 C 42.874 1.448 42.923 1.349 42.907 1.547 C 42.89 1.679 42.89 1.844 42.874 1.977 C 42.841 2.109 42.808 2.241 42.758 2.373 C 42.725 2.506 42.675 2.638 42.626 2.77 C 42.56 2.902 42.51 3.018 42.444 3.15 C 42.394 3.216 42.361 3.282 42.312 3.348 C 42.279 3.398 42.246 3.448 42.213 3.497 C 42.13 3.613 42.047 3.729 41.965 3.828 C 41.866 3.927 41.783 4.043 41.667 4.125 L 41.667 4.142 C 41.568 4.224 41.469 4.324 41.353 4.406 C 41.006 4.671 40.609 4.869 40.246 5.117 C 40.13 5.2 40.014 5.266 39.915 5.365 C 39.8 5.448 39.7 5.53 39.601 5.629 C 39.486 5.729 39.403 5.828 39.304 5.943 C 39.221 6.043 39.122 6.158 39.056 6.274 C 38.973 6.39 38.891 6.505 38.824 6.621 C 38.758 6.753 38.709 6.869 38.643 7.001 C 38.593 7.133 38.543 7.249 38.51 7.381 C 38.461 7.53 38.428 7.662 38.395 7.795 C 38.378 7.861 38.378 7.943 38.362 8.009 C 38.345 8.076 38.345 8.142 38.329 8.208 C 38.329 8.34 38.312 8.489 38.312 8.621 C 38.312 8.72 38.312 8.819 38.329 8.918 C 38.329 9.051 38.345 9.183 38.378 9.332 C 38.395 9.464 38.428 9.596 38.461 9.728 C 38.51 9.861 38.544 9.993 38.593 10.125 C 38.626 10.208 38.676 10.29 38.709 10.356 L 34.907 8.885 C 34.263 8.704 33.635 8.538 32.99 8.39 C 32.643 8.307 32.296 8.224 31.949 8.142 C 30.957 7.943 29.949 7.795 28.941 7.695 C 28.908 7.695 28.891 7.679 28.858 7.679 C 27.866 7.58 26.891 7.53 25.9 7.53 C 25.172 7.53 24.445 7.563 23.734 7.613 C 22.726 7.679 21.718 7.811 20.71 7.976 C 20.462 8.009 20.214 8.059 19.966 8.109 C 19.454 8.208 18.958 8.323 18.478 8.439 C 18.23 8.505 17.983 8.571 17.735 8.637 C 17.487 8.737 17.255 8.852 17.024 8.952 C 16.842 9.034 16.66 9.117 16.478 9.199 C 16.445 9.216 16.412 9.216 16.396 9.232 C 16.231 9.315 16.082 9.381 15.933 9.464 C 15.883 9.48 15.85 9.497 15.817 9.513 C 15.636 9.596 15.454 9.695 15.305 9.778 C 15.189 9.827 15.074 9.894 14.974 9.943 C 14.925 9.976 14.859 10.009 14.826 10.026 C 14.677 10.108 14.528 10.191 14.396 10.274 C 14.247 10.356 14.115 10.439 13.999 10.522 C 13.884 10.604 13.768 10.67 13.669 10.753 C 13.652 10.77 13.636 10.77 13.619 10.786 C 13.52 10.852 13.404 10.935 13.305 11.017 C 13.305 11.017 13.289 11.034 13.272 11.05 C 13.189 11.117 13.107 11.183 13.024 11.249 C 12.991 11.265 12.958 11.298 12.925 11.315 C 12.842 11.381 12.76 11.464 12.677 11.53 C 12.66 11.563 12.627 11.579 12.611 11.596 C 12.512 11.695 12.413 11.778 12.313 11.877 C 12.297 11.877 12.297 11.894 12.28 11.91 C 12.181 11.993 12.082 12.092 11.983 12.191 C 11.966 12.208 11.966 12.224 11.95 12.224 C 11.867 12.307 11.785 12.389 11.702 12.488 C 11.669 12.521 11.619 12.555 11.586 12.588 C 11.504 12.687 11.404 12.786 11.305 12.885 C 11.289 12.918 11.256 12.935 11.239 12.968 C 11.107 13.1 10.991 13.232 10.859 13.364 C 10.842 13.381 10.826 13.397 10.809 13.414 C 10.545 13.695 10.264 13.976 9.966 14.224 C 9.669 14.488 9.355 14.736 9.041 14.951 C 8.71 15.183 8.396 15.381 8.049 15.579 C 7.719 15.761 7.372 15.926 7.008 16.075 C 6.661 16.224 6.297 16.356 5.934 16.472 C 5.239 16.62 4.529 16.901 3.917 16.951 C 3.785 16.951 3.636 16.984 3.504 17.001 C 3.355 17.034 3.223 17.067 3.091 17.1 C 2.959 17.149 2.826 17.199 2.694 17.249 C 2.562 17.298 2.43 17.364 2.297 17.43 C 2.182 17.513 2.049 17.579 1.934 17.662 C 1.818 17.744 1.702 17.844 1.603 17.943 C 1.488 18.025 1.372 18.141 1.273 18.24 C 1.173 18.356 1.074 18.455 0.992 18.571 C 0.909 18.703 0.81 18.819 0.744 18.951 C 0.661 19.067 0.578 19.199 0.512 19.331 C 0.446 19.48 0.38 19.612 0.331 19.761 C 0.281 19.893 0.231 20.042 0.182 20.191 C 0.149 20.323 0.116 20.455 0.099 20.587 C 0.099 20.604 0.083 20.62 0.083 20.637 C 0.05 20.786 0.05 20.984 0.033 21.083 C 0.016 21.199 0 21.298 0 21.414 C 0 21.48 0 21.562 0.017 21.628 C 0.033 21.744 0.05 21.843 0.083 21.943 C 0.116 22.042 0.149 22.141 0.198 22.24 L 0.198 22.257 C 0.248 22.356 0.314 22.455 0.38 22.554 C 0.446 22.653 0.512 22.752 0.595 22.852 C 0.678 22.934 0.777 23.033 0.876 23.116 C 0.975 23.215 1.074 23.298 1.19 23.38 C 1.587 23.728 1.686 23.843 2.198 24.108 C 2.281 24.157 2.364 24.19 2.463 24.24 C 2.479 24.24 2.496 24.256 2.512 24.256 C 2.512 24.29 2.512 24.306 2.529 24.339 C 2.545 24.471 2.578 24.604 2.612 24.736 C 2.645 24.885 2.694 25.017 2.744 25.132 C 2.793 25.232 2.826 25.331 2.876 25.43 C 2.893 25.463 2.909 25.496 2.926 25.513 C 2.992 25.645 3.058 25.761 3.124 25.876 C 3.207 25.992 3.289 26.108 3.372 26.223 C 3.454 26.323 3.554 26.438 3.653 26.537 C 3.752 26.637 3.851 26.719 3.967 26.818 C 3.967 26.818 3.983 26.835 4 26.835 C 4.099 26.918 4.198 27 4.297 27.066 C 4.413 27.149 4.529 27.215 4.661 27.281 C 4.777 27.347 4.909 27.413 5.041 27.463 C 5.14 27.513 5.256 27.546 5.372 27.579 C 5.388 27.595 5.405 27.595 5.438 27.612 C 5.504 27.628 5.587 27.645 5.653 27.661 C 5.603 28.554 5.587 29.397 5.719 29.694 C 5.868 30.025 6.595 29.017 7.322 27.86 C 7.223 29 7.157 30.339 7.322 30.736 C 7.504 31.149 8.496 29.86 9.355 28.438 C 21.073 25.728 31.767 33.826 32.891 45.264 C 32.676 43.479 30.478 42.487 29.47 42.735 C 28.974 43.958 28.131 45.528 26.776 46.503 C 26.891 45.412 26.842 44.289 26.61 43.198 C 26.247 44.718 25.536 46.14 24.561 47.363 C 22.991 47.478 21.421 46.718 20.594 45.578 C 20.528 45.528 20.511 45.429 20.462 45.363 C 20.412 45.247 20.363 45.132 20.33 45.016 C 20.28 44.9 20.247 44.784 20.23 44.669 C 20.214 44.553 20.214 44.437 20.214 44.305 C 20.214 44.222 20.214 44.14 20.214 44.057 C 20.23 43.941 20.264 43.826 20.297 43.71 C 20.33 43.594 20.363 43.479 20.412 43.363 C 20.478 43.247 20.528 43.132 20.611 43.016 C 20.892 42.223 20.892 41.578 20.379 41.198 C 20.28 41.132 20.181 41.082 20.065 41.033 C 19.999 41.016 19.916 40.983 19.85 40.966 C 19.801 40.95 19.768 40.933 19.718 40.917 C 19.602 40.884 19.487 40.851 19.371 40.834 C 19.255 40.801 19.14 40.785 19.024 40.785 C 18.908 40.768 18.776 40.752 18.66 40.752 C 18.578 40.752 18.495 40.768 18.412 40.768 C 18.28 40.768 18.164 40.785 18.049 40.818 C 17.933 40.834 17.817 40.851 17.702 40.884 C 17.586 40.917 17.47 40.95 17.355 41 C 17.239 41.049 17.14 41.099 17.024 41.148 C 16.925 41.198 16.826 41.264 16.71 41.314 C 12.859 43.826 15.156 49.71 17.784 51.412 C 16.793 51.594 15.784 51.809 15.503 52.024 C 15.487 52.04 15.47 52.057 15.47 52.057 C 16.181 52.487 16.925 52.85 17.702 53.164 C 18.759 53.511 19.883 53.825 20.379 53.958 L 20.379 53.974 C 21.751 54.255 23.139 54.354 24.544 54.272 C 31.866 53.759 37.866 48.189 38.957 40.851 C 38.99 41 39.023 41.132 39.056 41.281 C 39.106 41.578 39.172 41.892 39.205 42.206 L 39.205 42.223 C 39.238 42.371 39.254 42.52 39.271 42.652 L 39.271 42.719 C 39.287 42.867 39.304 43.016 39.304 43.148 C 39.32 43.33 39.337 43.512 39.337 43.694 L 39.337 43.958 C 39.337 44.041 39.354 44.14 39.354 44.223 C 39.354 44.322 39.337 44.421 39.337 44.52 L 39.337 44.751 C 39.337 44.867 39.32 44.966 39.32 45.082 C 39.32 45.148 39.32 45.214 39.304 45.297 C 39.304 45.413 39.287 45.528 39.287 45.661 C 39.271 45.71 39.271 45.76 39.271 45.809 C 39.254 45.941 39.238 46.057 39.221 46.189 C 39.221 46.239 39.221 46.289 39.205 46.338 C 39.188 46.503 39.155 46.652 39.138 46.817 L 39.138 46.834 L 39.138 46.851 C 39.105 46.999 39.072 47.165 39.039 47.313 L 39.039 47.363 C 39.006 47.512 38.973 47.66 38.94 47.809 C 38.94 47.826 38.924 47.859 38.924 47.875 C 38.891 48.024 38.857 48.173 38.808 48.322 L 38.808 48.371 C 38.758 48.536 38.709 48.685 38.676 48.834 C 38.659 48.851 38.659 48.867 38.659 48.867 C 38.609 49.032 38.56 49.198 38.51 49.363 C 38.444 49.528 38.395 49.677 38.329 49.842 C 38.262 50.007 38.213 50.173 38.147 50.321 C 38.081 50.487 38.014 50.636 37.948 50.801 L 37.932 50.801 C 37.866 50.95 37.8 51.115 37.717 51.264 C 37.7 51.313 37.684 51.346 37.667 51.379 C 37.651 51.396 37.651 51.412 37.634 51.429 C 36.56 53.594 34.973 55.495 32.99 56.982 C 32.858 57.065 32.725 57.164 32.593 57.263 C 32.56 57.296 32.511 57.313 32.478 57.346 C 32.362 57.429 32.246 57.511 32.114 57.594 L 32.164 57.693 L 32.18 57.693 C 32.411 57.66 32.643 57.627 32.874 57.594 L 32.891 57.594 C 33.321 57.528 33.75 57.445 34.18 57.362 C 34.296 57.346 34.428 57.313 34.544 57.28 C 34.626 57.263 34.692 57.247 34.775 57.23 C 34.891 57.214 35.006 57.181 35.122 57.164 C 35.221 57.131 35.32 57.115 35.42 57.081 C 37.072 56.685 38.676 56.139 40.213 55.495 C 37.585 59.081 34.064 61.974 29.949 63.875 C 31.85 63.742 33.75 63.428 35.585 62.899 C 42.246 60.932 47.849 56.453 51.204 50.421 C 50.526 54.239 49.006 57.875 46.758 61.048 C 48.361 59.99 49.832 58.767 51.171 57.379 C 54.873 53.511 57.303 48.603 58.129 43.33 C 58.691 45.942 58.856 48.636 58.609 51.297 C 70.542 34.653 59.6 17.397 55.022 12.852 C 55.005 12.819 54.989 12.803 54.989 12.77 C 54.972 12.786 54.972 12.786 54.972 12.803 C 54.972 12.786 54.972 12.786 54.956 12.77 C 54.956 12.968 54.939 13.166 54.923 13.365 C 54.873 13.745 54.824 14.108 54.757 14.472 C 54.675 14.836 54.576 15.199 54.476 15.563 C 54.361 15.91 54.229 16.274 54.08 16.621 C 53.931 16.951 53.766 17.298 53.584 17.629 C 53.402 17.943 53.204 18.273 52.989 18.571 C 52.774 18.885 52.543 19.183 52.311 19.464 C 52.063 19.761 51.799 20.025 51.534 20.29 C 51.369 20.439 51.22 20.571 51.055 20.703 C 50.923 20.819 50.807 20.918 50.675 21.034 C 50.378 21.265 50.08 21.48 49.749 21.678 C 49.435 21.877 49.105 22.075 48.774 22.24 C 48.427 22.406 48.08 22.554 47.733 22.703 C 47.386 22.835 47.022 22.951 46.659 23.05 C 46.295 23.149 45.915 23.232 45.551 23.298 C 45.171 23.364 44.791 23.397 44.427 23.43 C 44.163 23.447 43.898 23.463 43.634 23.463 C 43.254 23.463 42.874 23.43 42.51 23.397 C 42.13 23.364 41.75 23.314 41.386 23.232 C 41.006 23.166 40.642 23.067 40.279 22.951 L 40.262 22.951 C 40.626 22.918 40.99 22.885 41.353 22.819 C 41.733 22.753 42.097 22.67 42.461 22.571 C 42.824 22.472 43.188 22.356 43.535 22.224 C 43.898 22.091 44.246 21.926 44.576 21.761 C 44.923 21.596 45.237 21.414 45.568 21.215 C 45.882 21.001 46.196 20.786 46.493 20.554 C 46.791 20.323 47.072 20.075 47.336 19.811 C 47.617 19.563 47.865 19.282 48.113 19.001 C 48.361 18.703 48.592 18.406 48.807 18.108 C 48.84 18.059 48.873 17.992 48.906 17.943 C 49.072 17.678 49.237 17.414 49.386 17.15 C 49.568 16.819 49.733 16.488 49.882 16.141 C 50.03 15.794 50.163 15.447 50.278 15.084 C 50.394 14.736 50.477 14.373 50.559 14.009 C 50.625 13.629 50.692 13.265 50.725 12.902 C 50.758 12.522 50.791 12.142 50.791 11.778 C 50.791 11.513 50.774 11.249 50.758 10.985 C 50.725 10.604 50.675 10.241 50.625 9.877 C 50.559 9.497 50.477 9.133 50.378 8.77 C 50.262 8.423 50.146 8.059 50.014 7.712 C 49.882 7.365 49.716 7.018 49.551 6.687 C 49.369 6.357 49.188 6.026 48.989 5.712 C 48.774 5.398 48.559 5.101 48.328 4.803 C 48.08 4.522 47.832 4.241 47.568 3.96 C 47.436 3.828 47.287 3.679 47.138 3.547 C 46.394 2.968 45.617 2.423 44.841 1.927 C 44.725 1.861 44.626 1.811 44.51 1.762 C 43.965 1.415 43.452 1.233 42.94 1.068 L 42.94 1.068 Z " fill-rule="evenodd" fill="rgb(224,35,78)"/></g></svg>