<svg enable-background="new 0 0 1363.4 1323.5" viewBox="0 0 1363.4 1323.5" xmlns="http://www.w3.org/2000/svg"><circle cx="686.1" cy="665.8" r="647.5"/><g fill="#fff"><path d="m464.7 674.9-27.2 136c-1.3 2.6-2.6 5.2-5.2 5.2h-33.7c-3.9 0-6.5-3.9-5.2-6.5l27.2-133.4c1.3-7.8 2.6-15.5 2.6-20.7 0-32.4-19.4-50.5-58.3-50.5-49.2 0-81.6 25.9-91.9 80.3l-25.9 128.2c-1.3 2.6-2.6 5.2-5.2 5.2h-35c-3.9 0-6.5-3.9-5.2-6.5l46.7-242.2c1.3-2.6 2.6-5.2 5.2-5.2h32.4c3.9 0 6.5 3.9 5.2 6.5l-2.6 10.4c0 5.2 5.2 9.1 9.1 6.5 22-16.8 49.2-24.6 79-24.6 57 0 90.6 29.8 90.6 82.9 0 7.6-1.3 18-2.6 28.4z"/><path d="m985.3 589.4-13 25.9c-1.3 3.9-5.2 3.9-7.8 2.6-19.4-11.7-45.3-16.8-68.6-16.8-42.7 0-63.5 15.5-63.5 37.6 0 50.5 138.6 15.5 138.6 98.4 0 51.8-46.6 81.6-115.3 81.6-40.1 0-77.7-11.7-98.4-25.9-2.6-1.3-2.6-5.2-1.3-7.8l15.5-25.9c1.3-2.6 5.2-3.9 7.8-2.6 19.4 14.2 50.5 22 81.6 22 44 0 66-14.2 66-37.6 0-49.2-138.6-14.2-138.6-98.4 0-49.2 45.3-81.6 112.7-81.6 31.1 0 62.2 7.8 82.9 20.7 2.7 2.6 2.7 5.2 1.4 7.8z"/><path d="m1171.8 571.3-5.2 25.9c-1.3 2.6-2.6 5.2-5.2 5.2h-62.2c-2.6 0-5.2 2.6-5.2 5.2l-25.9 128.2c-1.3 5.2-1.3 9.1-1.3 13 0 19.4 10.4 31.1 32.4 31.1 10.4 0 20.7-2.6 29.8-7.8 3.9-2.6 7.8 0 7.8 3.9l6.5 23.3c1.3 2.6 0 5.2-2.6 6.5-16.8 10.4-36.3 14.2-54.4 14.2-38.8 0-66-23.3-66-62.2 0-6.5 1.3-13 2.6-19.4l44-221.4c1.3-2.6 2.6-5.2 5.2-5.2h33.7c3.9 0 6.5 3.9 5.2 6.5l-9.1 41.4c-1.3 3.9 2.6 6.5 5.2 6.5h58.3c5.1-1.4 7.7 1.2 6.4 5.1z"/><path d="m642.1 562.2c-81.6 0-141.2 63.5-141.2 146.3 0 66 45.3 108.8 120.4 108.8 37.6 0 72.5-11.7 97.1-32.4 2.6-2.6 2.6-5.2 1.3-7.8l-14.2-23.3c-2.6-3.9-6.5-3.9-9.1-1.3-18.1 15.5-44 24.6-72.5 24.6-45.3 0-69.9-18.1-76.4-49.2-1.3-3.9 1.3-6.5 5.2-6.5l196.8-36.3c2.6-1.3 5.2-2.6 5.2-5.2s0-5.2 0-7.8c-1.2-71.1-46.6-109.9-112.6-109.9zm64.8 98.4-152.9 28.5c-3.9 1.3-7.8-2.6-6.5-6.5 9.1-50.5 44-81.6 93.2-81.6 38.8 0 66 19.4 71.2 54.4.1 1.3-2.5 3.9-5 5.2z"/></g></svg>