<svg xmlns="http://www.w3.org/2000/svg" width="512pt" height="512pt" style="isolation:isolate" viewBox="0 0 512 512"><defs><clipPath id="a"><path d="M0 0h512v512H0z"/></clipPath></defs><g clip-path="url(#a)"><radialGradient id="b" cx=".5" cy="0" r="1.001" fx=".5" fy="0" gradientTransform="matrix(512 0 0 512.563 0 -.282)" gradientUnits="userSpaceOnUse"><stop offset="0%" style="stop-color:#20c6b7"/><stop offset="100%" style="stop-color:#4d9abf"/></radialGradient><path fill="url(#b)" d="m371.063 177.591-.187-.08a.78.78 0 0 1-.307-.174 1.473 1.473 0 0 1-.375-1.243l10.334-63.176 48.458 48.471-50.397 21.442a1.11 1.11 0 0 1-.441.081h-.2a1.426 1.426 0 0 1-.268-.228 22.94 22.94 0 0 0-6.617-5.093Zm70.288-3.85 51.814 51.814c10.761 10.774 16.148 16.148 18.113 22.378.294.922.535 1.844.722 2.793l-123.826-52.441a6.963 6.963 0 0 0-.2-.081c-.495-.2-1.07-.427-1.07-.935s.588-.749 1.083-.95l.16-.066 53.204-22.512Zm68.537 93.615c-2.674 5.026-7.887 10.24-16.71 19.076l-58.417 58.404-75.555-15.734-.401-.08c-.668-.107-1.377-.228-1.377-.829a22.802 22.802 0 0 0-8.756-15.948c-.307-.307-.227-.789-.133-1.23 0-.067 0-.134.026-.187l14.21-87.238.054-.294c.08-.669.2-1.444.802-1.444a23.123 23.123 0 0 0 15.506-8.89c.121-.133.201-.28.361-.361.428-.2.936 0 1.377.188l129 54.567h.013Zm-88.562 90.914-96.061 96.061 16.443-101.06.026-.134c.014-.134.04-.267.081-.388.133-.32.481-.454.815-.588l.16-.067a24.716 24.716 0 0 0 9.291-6.911c.321-.374.709-.735 1.203-.802.129-.021.259-.021.388 0l67.641 13.903.013-.014ZM304.933 474.664l-10.828 10.828-119.709-173.006c-.043-.064-.088-.126-.133-.188-.188-.254-.388-.507-.348-.802 0-.213.147-.401.294-.561l.134-.174c.361-.535.668-1.069 1.002-1.644l.268-.468.04-.04c.187-.321.361-.628.682-.802.28-.134.668-.08.975-.013l132.622 27.35a2.2 2.2 0 0 1 1.016.441c.174.174.214.361.254.575a23.488 23.488 0 0 0 13.742 15.707c.375.187.214.602.041 1.043a3.19 3.19 0 0 0-.201.601c-1.671 10.16-16.001 97.559-19.851 121.153Zm-22.618 22.605c-7.981 7.9-12.687 12.084-18.007 13.769a26.746 26.746 0 0 1-16.121 0c-6.23-1.979-11.617-7.353-22.378-18.127L105.592 372.694l31.401-48.699c.147-.24.294-.454.535-.628.334-.241.815-.134 1.216 0a32.54 32.54 0 0 0 21.897-1.11c.361-.133.722-.227 1.002.027.141.128.266.272.375.428l120.297 174.57v-.013ZM94.002 361.104l-27.577-27.577 54.46-23.234c.139-.06.289-.092.441-.093.455 0 .722.454.963.869a39.04 39.04 0 0 0 1.737 2.459l.174.214c.161.227.054.455-.107.669l-30.077 46.693h-.014ZM54.22 321.322l-34.89-34.89c-5.935-5.936-10.24-10.24-13.234-13.943l106.087 22.004c.133.024.267.047.401.066.655.107 1.376.228 1.376.843 0 .668-.788.975-1.457 1.229l-.307.134-57.976 24.557ZM0 254.55a26.732 26.732 0 0 1 1.203-6.617c1.979-6.23 7.352-11.604 18.127-22.378l44.648-44.649a29030.486 29030.486 0 0 0 61.84 89.391c.361.481.762 1.016.347 1.417-1.951 2.152-3.903 4.505-5.28 7.058a2.141 2.141 0 0 1-.668.829c-.174.107-.361.067-.562.027h-.027L0 254.536v.014Zm75.929-85.594 60.008-60.035c5.655 2.473 26.201 11.149 44.555 18.902 13.903 5.882 26.575 11.229 30.559 12.967.401.16.762.32.936.722.106.24.053.548 0 .802a26.774 26.774 0 0 0 6.991 24.436c.401.401 0 .976-.348 1.47l-.187.281-60.957 94.417c-.16.267-.307.494-.575.668-.321.201-.775.107-1.149.014a30.368 30.368 0 0 0-7.259-.99c-2.192 0-4.572.401-6.978.843h-.013c-.268.04-.508.093-.722-.067a2.798 2.798 0 0 1-.602-.682l-64.272-93.748h.013Zm72.159-72.16 77.721-77.72C236.57 8.315 241.957 2.928 248.187.962a26.746 26.746 0 0 1 16.121 0c6.229 1.966 11.617 7.353 22.378 18.114l16.843 16.843-55.276 85.608a2.059 2.059 0 0 1-.548.641c-.334.228-.802.134-1.203 0a28.034 28.034 0 0 0-25.666 4.946c-.361.375-.896.161-1.35-.04-7.219-3.141-63.363-26.869-71.398-30.278Zm167.178-49.14 51.038 51.038-12.298 76.17v.201a1.813 1.813 0 0 1-.107.508c-.134.267-.401.32-.668.401a24.456 24.456 0 0 0-7.326 3.649 2.066 2.066 0 0 0-.267.227c-.147.161-.294.308-.535.335a1.523 1.523 0 0 1-.575-.094l-77.774-33.045-.147-.067c-.494-.201-1.082-.441-1.082-.949a29.405 29.405 0 0 0-4.144-12.232c-.375-.615-.789-1.256-.468-1.885l54.353-84.257Zm-52.562 115.043 72.908 30.88c.401.187.842.361 1.016.775.069.25.069.513 0 .762-.214 1.07-.401 2.286-.401 3.516v2.045c0 .508-.522.722-1.003.923l-.147.053c-11.55 4.933-162.151 69.152-162.378 69.152-.228 0-.468 0-.696-.227-.401-.401 0-.963.361-1.471.064-.088.127-.177.188-.267l59.914-92.773.107-.16c.347-.562.749-1.19 1.39-1.19l.602.094c1.363.187 2.566.361 3.783.361 9.09 0 17.512-4.425 22.591-11.991a2.14 2.14 0 0 1 .455-.535c.361-.267.896-.134 1.31.053Zm-83.495 122.784 164.156-70.007s.241 0 .468.227c.896.895 1.658 1.497 2.393 2.058l.361.228c.334.187.668.401.695.748 0 .134 0 .214-.027.334l-14.063 86.383-.053.348c-.094.668-.187 1.43-.816 1.43a23.116 23.116 0 0 0-18.354 11.323l-.066.107c-.188.307-.361.601-.669.762-.281.133-.641.08-.936.013l-130.91-27.003c-.134-.027-2.032-6.938-2.179-6.951Z"/></g></svg>