<?xml version="1.0" encoding="UTF-8" standalone="no"?>
<!-- Generator: Gravit.io -->
<svg xmlns="http://www.w3.org/2000/svg" xmlns:xlink="http://www.w3.org/1999/xlink" style="isolation:isolate"
  viewBox="0 0 64 64" width="64pt" height="64pt">
  <defs>
    <clipPath id="_clipPath_ybNDz8f2y8cgH2dpbm77aoydKP7Mhp7A">
      <rect width="64" height="64" />
    </clipPath>
  </defs>
  <g clip-path="url(#_clipPath_ybNDz8f2y8cgH2dpbm77aoydKP7Mhp7A)">
    <path
      d=" M 29.38 0.682 C 30.966 -0.226 33.034 -0.23 34.62 0.682 C 42.596 5.19 50.576 9.69 58.55 14.2 C 60.05 15.046 61.054 16.714 61.038 18.444 L 61.038 45.56 C 61.05 47.36 59.948 49.07 58.364 49.896 C 50.414 54.378 42.468 58.866 34.518 63.348 C 32.898 64.274 30.79 64.204 29.222 63.202 C 26.838 61.82 24.45 60.444 22.066 59.064 C 21.58 58.774 21.03 58.542 20.686 58.07 C 20.99 57.66 21.534 57.61 21.976 57.43 C 22.97 57.114 23.884 56.606 24.798 56.114 C 25.03 55.956 25.312 56.016 25.534 56.158 C 27.572 57.326 29.592 58.528 31.636 59.686 C 32.074 59.938 32.514 59.604 32.888 59.396 C 40.69 54.986 48.502 50.594 56.302 46.182 C 56.59 46.044 56.75 45.736 56.726 45.42 C 56.732 36.474 56.728 27.528 56.73 18.582 C 56.762 18.222 56.554 17.892 56.23 17.746 C 48.308 13.284 40.388 8.816 32.466 4.352 C 32.186 4.158 31.816 4.158 31.534 4.35 C 23.612 8.816 15.694 13.288 7.774 17.75 C 7.45 17.896 7.232 18.222 7.27 18.582 C 7.272 27.528 7.27 36.474 7.27 45.422 C 7.242 45.738 7.414 46.038 7.702 46.174 C 9.816 47.374 11.932 48.564 14.048 49.758 C 15.238 50.4 16.702 50.78 18.014 50.29 C 19.174 49.874 19.986 48.692 19.964 47.462 C 19.974 38.568 19.958 29.674 19.972 20.782 C 19.942 20.386 20.318 20.06 20.702 20.098 C 21.716 20.09 22.734 20.084 23.75 20.1 C 24.174 20.09 24.466 20.516 24.412 20.914 C 24.408 29.864 24.424 38.812 24.406 47.762 C 24.408 50.148 23.428 52.742 21.222 53.91 C 18.504 55.318 15.146 55.02 12.46 53.67 C 10.136 52.51 7.918 51.14 5.634 49.896 C 4.048 49.076 2.95 47.36 2.962 45.56 L 2.962 18.444 C 2.946 16.678 3.988 14.98 5.536 14.146 C 13.484 9.66 21.432 5.172 29.38 0.682 Z  M 36.314 19.468 C 39.782 19.244 43.494 19.336 46.612 21.044 C 49.028 22.352 50.368 25.098 50.41 27.782 C 50.342 28.144 49.964 28.344 49.618 28.32 C 48.612 28.318 47.606 28.332 46.6 28.312 C 46.174 28.328 45.926 27.936 45.872 27.558 C 45.584 26.274 44.884 25.002 43.674 24.384 C 41.82 23.454 39.668 23.5 37.646 23.52 C 36.168 23.598 34.58 23.726 33.33 24.596 C 32.368 25.252 32.078 26.58 32.42 27.65 C 32.744 28.418 33.63 28.666 34.354 28.894 C 38.534 29.988 42.96 29.878 47.058 31.316 C 48.756 31.902 50.416 33.042 50.996 34.818 C 51.756 37.2 51.422 40.046 49.728 41.958 C 48.356 43.53 46.354 44.386 44.358 44.852 C 41.704 45.444 38.948 45.458 36.252 45.196 C 33.718 44.906 31.08 44.24 29.122 42.514 C 27.448 41.06 26.632 38.796 26.712 36.61 C 26.732 36.242 27.1 35.984 27.452 36.014 C 28.466 36.006 29.478 36.004 30.492 36.016 C 30.896 35.988 31.196 36.338 31.218 36.718 C 31.404 37.942 31.864 39.226 32.93 39.95 C 34.99 41.28 37.572 41.188 39.93 41.226 C 41.882 41.138 44.076 41.112 45.668 39.822 C 46.51 39.086 46.758 37.854 46.532 36.794 C 46.286 35.9 45.35 35.482 44.546 35.21 C 40.422 33.906 35.944 34.378 31.86 32.904 C 30.202 32.318 28.598 31.21 27.96 29.506 C 27.072 27.094 27.48 24.112 29.35 22.266 C 31.176 20.428 33.81 19.72 36.314 19.468 L 36.314 19.468 L 36.314 19.468 Z "
      fill-rule="evenodd" fill="rgb(139,200,75)" />
  </g>
</svg>