<svg viewBox="0 0 2000 1291.88" xmlns="http://www.w3.org/2000/svg"><path d="m1529.37.68-166.72 79.1a7.06 7.06 0 0 0 -3.67 4 7 7 0 0 0 -.41 2.76 7.22 7.22 0 0 0 .68 2.7l253.56 534.5c94.21 198.84 69 349.67-74.27 417.83-115.92 55-216 16.63-294.07-117.4l-300.21-632.85c-121.74-256.56-287.56-324.56-484.26-231.25-128 60.71-202.19 169.23-200.72 306.93a7.12 7.12 0 0 1 -10.2 6.55 7.12 7.12 0 0 1 -3.36-3.36l-65.53-138.07a7.09 7.09 0 0 0 -9.51-3.36l-166.68 78.86a7.08 7.08 0 0 0 -3.35 9.38l460.41 970.85a7.19 7.19 0 0 0 9.51 3.4l166.71-79.1a7.09 7.09 0 0 0 3.68-4 7.17 7.17 0 0 0 .4-2.76 7.07 7.07 0 0 0 -.67-2.7l-246.48-519.64c-100.39-211.7-81.35-364.78 72.59-437.82 118.14-56 210-18.35 292.43 125.23a3.39 3.39 0 0 1 .29.53l297.26 626.75c114.7 241.69 292.84 324.68 481 235.42 145.42-69 205.72-172.83 202.19-309.4a7.18 7.18 0 0 1 1.49-4.52 7.14 7.14 0 0 1 12.08 1.28l66.19 139.57a7.12 7.12 0 0 0 4 3.67 7.09 7.09 0 0 0 5.45-.27l166.72-79.1a7.08 7.08 0 0 0 4.06-6.81 7.06 7.06 0 0 0 -.7-2.7l-460.39-970.8a7.16 7.16 0 0 0 -9.5-3.4z" fill="#1e65f3"/></svg>