<svg xmlns="http://www.w3.org/2000/svg" width="512pt" height="512pt" style="isolation:isolate" viewBox="0 0 512 512"><defs><clipPath id="a"><path d="M0 0h512v512H0z"/></clipPath></defs><g clip-path="url(#a)"><path fill="#4DABCF" d="m220.052 104.031-85.533-43.17-93.895 46.856 87.86 44.114 91.568-47.8Zm39.231 19.788 89.679 45.289-93.043 46.717-87.997-44.183 91.361-47.823ZM379.07 61.506l92.145 46.211-82.423 41.373-89.864-45.335 80.142-42.249Zm-39.668-19.903L256.449 0l-82.054 40.958 85.487 43.101 79.52-42.456Zm-64.846 357.198V512l100.483-50.15-.092-113.245-100.391 50.196Zm100.345-89.726-.115-112.047-100.23 49.827v112.093l100.345-49.873Zm120.64-20.986v113.637l-85.718 42.755-.069-113.107 85.787-43.285Zm0-39.737V136.996l-85.879 42.685.069 112.278 85.81-43.607Z"/><path fill="#4D77CF" d="m239.08 246.855-67.68-34.048V359.87S88.608 183.736 80.96 167.91c-.99-2.05-5.045-4.285-6.081-4.838-14.928-7.786-58.42-29.808-58.42-29.808V393.18l60.171 32.25V289.518s81.893 157.382 82.745 159.11c0 0 9.03 18.29 17.83 24.119 11.679 7.763 61.829 37.917 61.829 37.917l.046-263.809Z"/></g></svg>