<svg xmlns="http://www.w3.org/2000/svg" xmlns:xlink="http://www.w3.org/1999/xlink" width="230" height="46.744"><defs><linearGradient id="a" x1=".406" x2=".739" y1=".428" y2=".687"><stop stop-color="#FAAF4C"/><stop offset=".594" stop-color="#F79C2E"/><stop offset="1" stop-color="#F6921E"/></linearGradient><linearGradient id="b" x1=".813" x2=".252" y1="1.56" y2="-.34"><stop stop-color="#72A4D7"/><stop offset="1" stop-color="#1A1F4A"/></linearGradient><linearGradient id="c" x1="1.466" x2=".027" y1="1.05" y2=".015"><stop stop-color="#72A4D7"/><stop offset="1" stop-color="#1A1F4A"/></linearGradient><linearGradient id="d" x1=".5" x2=".5" y1="1.502" y2=".057"><stop stop-color="#72A4D7"/><stop offset="1" stop-color="#1A1F4A"/></linearGradient><linearGradient id="e" x1=".5" x2=".5" y1="1.502" y2=".057"><stop stop-color="#72A4D7"/><stop offset="1" stop-color="#1A1F4A"/></linearGradient><linearGradient id="f" x1=".5" x2=".5" y1="1.498" y2=".057"><stop stop-color="#72A4D7"/><stop offset="1" stop-color="#1A1F4A"/></linearGradient><linearGradient id="g" x1=".5" x2=".5" y1="1.502" y2=".057"><stop stop-color="#72A4D7"/><stop offset="1" stop-color="#1A1F4A"/></linearGradient><linearGradient id="h" x1=".5" x2=".5" y1="1.502" y2=".057"><stop stop-color="#72A4D7"/><stop offset="1" stop-color="#1A1F4A"/></linearGradient><linearGradient id="i" x1=".5" x2=".5" y1="1.502" y2=".057"><stop stop-color="#72A4D7"/><stop offset="1" stop-color="#1A1F4A"/></linearGradient><linearGradient id="j" x1=".501" x2=".501" y1="1.5" y2=".057"><stop stop-color="#72A4D7"/><stop offset="1" stop-color="#1A1F4A"/></linearGradient><linearGradient id="k" x1=".5" x2=".5" y1="1.501" y2=".058"><stop stop-color="#72A4D7"/><stop offset="1" stop-color="#1A1F4A"/></linearGradient><linearGradient id="l" x1=".499" x2=".499" y1="1.502" y2=".057"><stop stop-color="#72A4D7"/><stop offset="1" stop-color="#1A1F4A"/></linearGradient><linearGradient id="m" x1=".5" x2=".5" y1="1.502" y2=".057"><stop stop-color="#72A4D7"/><stop offset="1" stop-color="#1A1F4A"/></linearGradient><linearGradient id="n" x1=".499" x2=".499" y1="1.501" y2=".058"><stop stop-color="#72A4D7"/><stop offset="1" stop-color="#1A1F4A"/></linearGradient><linearGradient id="o" x1=".5" x2=".5" y1="1.502" y2=".057"><stop stop-color="#72A4D7"/><stop offset="1" stop-color="#1A1F4A"/></linearGradient><linearGradient id="p" x1=".501" x2=".501" y1="1.502" y2=".057"><stop stop-color="#72A4D7"/><stop offset="1" stop-color="#1A1F4A"/></linearGradient><linearGradient id="q" x1=".501" x2=".501" y1="1.5" y2=".057"><stop stop-color="#72A4D7"/><stop offset="1" stop-color="#1A1F4A"/></linearGradient><linearGradient id="r" x1=".499" x2=".499" y1="1.501" y2=".058"><stop stop-color="#72A4D7"/><stop offset="1" stop-color="#1A1F4A"/></linearGradient><linearGradient xlink:href="#a" id="t" x1="168.517" x2="176.076" y1="73.633" y2="79.525" gradientTransform="scale(1.25417 .79734)" gradientUnits="userSpaceOnUse"/><linearGradient xlink:href="#b" id="u" x1="159.344" x2="149.462" y1="127.596" y2="94.101" gradientTransform="scale(1.38465 .7222)" gradientUnits="userSpaceOnUse"/><linearGradient xlink:href="#c" id="v" x1="367.627" x2="346.168" y1="53.788" y2="38.362" gradientTransform="scale(.6377 1.56814)" gradientUnits="userSpaceOnUse"/><linearGradient xlink:href="#d" id="w" x1="7.684" x2="7.684" y1="92.023" y2="69.826" gradientTransform="scale(.99773 1.00228)" gradientUnits="userSpaceOnUse"/><linearGradient xlink:href="#e" id="x" x1="20.664" x2="20.664" y1="94.962" y2="72.056" gradientTransform="scale(1.0296 .97126)" gradientUnits="userSpaceOnUse"/><linearGradient xlink:href="#f" id="y" x1="39.893" x2="39.893" y1="88.275" y2="66.982" gradientTransform="scale(.95709 1.04484)" gradientUnits="userSpaceOnUse"/><linearGradient xlink:href="#g" id="z" x1="74.536" x2="74.536" y1="60" y2="45.527" gradientTransform="scale(.65053 1.53722)" gradientUnits="userSpaceOnUse"/><linearGradient xlink:href="#h" id="A" x1="61.817" x2="61.817" y1="87.337" y2="66.27" gradientTransform="scale(.94691 1.05606)" gradientUnits="userSpaceOnUse"/><linearGradient xlink:href="#i" id="B" x1="105.075" x2="105.075" y1="60" y2="45.527" gradientTransform="scale(.65053 1.53722)" gradientUnits="userSpaceOnUse"/><linearGradient xlink:href="#j" id="C" x1="83.029" x2="83.029" y1="88.337" y2="67.029" gradientTransform="scale(.95776 1.0441)" gradientUnits="userSpaceOnUse"/><linearGradient xlink:href="#k" id="D" x1="94.841" x2="94.841" y1="94.894" y2="72.004" gradientTransform="scale(1.02886 .97195)" gradientUnits="userSpaceOnUse"/><linearGradient xlink:href="#l" id="E" x1="170.291" x2="170.291" y1="59.999" y2="45.527" gradientTransform="scale(.65052 1.53723)" gradientUnits="userSpaceOnUse"/><linearGradient xlink:href="#m" id="F" x1="121.017" x2="121.017" y1="92.794" y2="70.411" gradientTransform="scale(1.00609 .99395)" gradientUnits="userSpaceOnUse"/><linearGradient xlink:href="#n" id="G" x1="161.831" x2="161.831" y1="77.868" y2="59.085" gradientTransform="scale(.84425 1.18448)" gradientUnits="userSpaceOnUse"/><linearGradient xlink:href="#o" id="H" x1="225.77" x2="225.77" y1="59.999" y2="45.527" gradientTransform="scale(.65052 1.53723)" gradientUnits="userSpaceOnUse"/><linearGradient xlink:href="#p" id="I" x1="152.237" x2="152.237" y1="95.959" y2="72.812" gradientTransform="scale(1.0404 .96117)" gradientUnits="userSpaceOnUse"/><linearGradient xlink:href="#q" id="J" x1="182.945" x2="182.945" y1="87.999" y2="66.773" gradientTransform="scale(.9541 1.0481)" gradientUnits="userSpaceOnUse"/><linearGradient xlink:href="#r" id="K" x1="193.951" x2="193.951" y1="89.887" y2="68.205" gradientTransform="scale(.97457 1.0261)" gradientUnits="userSpaceOnUse"/><linearGradient xlink:href="#a" id="L" x1="168.517" x2="176.076" y1="73.633" y2="79.525" gradientTransform="scale(1.25417 .79734)" gradientUnits="userSpaceOnUse"/><linearGradient xlink:href="#b" id="M" x1="159.344" x2="149.462" y1="127.596" y2="94.101" gradientTransform="scale(1.38465 .7222)" gradientUnits="userSpaceOnUse"/><linearGradient xlink:href="#c" id="N" x1="367.627" x2="346.168" y1="53.788" y2="38.362" gradientTransform="scale(.6377 1.56814)" gradientUnits="userSpaceOnUse"/><linearGradient xlink:href="#d" id="O" x1="7.684" x2="7.684" y1="92.023" y2="69.826" gradientTransform="scale(.99773 1.00228)" gradientUnits="userSpaceOnUse"/><linearGradient xlink:href="#e" id="P" x1="20.664" x2="20.664" y1="94.962" y2="72.056" gradientTransform="scale(1.0296 .97126)" gradientUnits="userSpaceOnUse"/><linearGradient xlink:href="#f" id="Q" x1="39.893" x2="39.893" y1="88.275" y2="66.982" gradientTransform="scale(.95709 1.04484)" gradientUnits="userSpaceOnUse"/><linearGradient xlink:href="#g" id="R" x1="74.536" x2="74.536" y1="60" y2="45.527" gradientTransform="scale(.65053 1.53722)" gradientUnits="userSpaceOnUse"/><linearGradient xlink:href="#h" id="S" x1="61.817" x2="61.817" y1="87.337" y2="66.27" gradientTransform="scale(.94691 1.05606)" gradientUnits="userSpaceOnUse"/><linearGradient xlink:href="#i" id="T" x1="105.075" x2="105.075" y1="60" y2="45.527" gradientTransform="scale(.65053 1.53722)" gradientUnits="userSpaceOnUse"/><linearGradient xlink:href="#j" id="U" x1="83.029" x2="83.029" y1="88.337" y2="67.029" gradientTransform="scale(.95776 1.0441)" gradientUnits="userSpaceOnUse"/><linearGradient xlink:href="#k" id="V" x1="94.841" x2="94.841" y1="94.894" y2="72.004" gradientTransform="scale(1.02886 .97195)" gradientUnits="userSpaceOnUse"/><linearGradient xlink:href="#l" id="W" x1="170.291" x2="170.291" y1="59.999" y2="45.527" gradientTransform="scale(.65052 1.53723)" gradientUnits="userSpaceOnUse"/><linearGradient xlink:href="#m" id="X" x1="121.017" x2="121.017" y1="92.794" y2="70.411" gradientTransform="scale(1.00609 .99395)" gradientUnits="userSpaceOnUse"/><linearGradient xlink:href="#n" id="Y" x1="161.831" x2="161.831" y1="77.868" y2="59.085" gradientTransform="scale(.84425 1.18448)" gradientUnits="userSpaceOnUse"/><linearGradient xlink:href="#o" id="Z" x1="225.77" x2="225.77" y1="59.999" y2="45.527" gradientTransform="scale(.65052 1.53723)" gradientUnits="userSpaceOnUse"/><linearGradient xlink:href="#p" id="aa" x1="152.237" x2="152.237" y1="95.959" y2="72.812" gradientTransform="scale(1.0404 .96117)" gradientUnits="userSpaceOnUse"/><linearGradient xlink:href="#q" id="ab" x1="182.945" x2="182.945" y1="87.999" y2="66.773" gradientTransform="scale(.9541 1.0481)" gradientUnits="userSpaceOnUse"/><linearGradient xlink:href="#r" id="ac" x1="193.951" x2="193.951" y1="89.887" y2="68.205" gradientTransform="scale(.97457 1.0261)" gradientUnits="userSpaceOnUse"/><clipPath id="s"><path fill="#fff" d="M0 50.958h230v46.958H0z"/></clipPath></defs><path fill="none" d="M-1-51.958h802v602H-1z"/><g clip-path="url(#s)" transform="translate(0 -50.958)"><path fill="url(#a)" d="m222.217 51.087 6.065-.129-10.473 18.13h-18.043s6.236-2.345 8.645-4.366c1.849-1.57 9.742-10.645 10.58-11.72 1.033-1.377 2.474-1.807 3.226-1.915z" style="fill:url(#t)"/><path fill="url(#b)" d="m203.352 76.528-2.559-4.236h17.054l7.355 12.73s-4.194-3.461-6.603-4.322c-1.871-.666-11.483-2.537-12.58-2.688-1.398-.172-2.28-1.01-2.667-1.484z" style="fill:url(#u)"/><path fill="url(#c)" d="m229.765 79.496-2.022 3.678-7.247-12.56 6.237-10.817s-.753 4.56-.366 6.688c.301 1.656 3.011 9.527 3.376 10.387.452 1.14.215 2.15.022 2.624z" style="fill:url(#v)"/><path fill="url(#d)" d="m0 84.507 2.71-15.398h8.172c1.699 0 2.925.43 3.656 1.29.752.86.967 2.15.645 3.85-.301 1.699-.968 2.989-2.022 3.85-1.053.86-2.43 1.29-4.129 1.29H4.688l-.882 5.118zm8.925-8.301c1.29 0 2.064-.646 2.28-1.957.236-1.29-.302-1.957-1.592-1.957H5.957l-.667 3.892h3.635z" style="fill:url(#w)"/><path fill="url(#e)" d="m25.225 84.507-.516-2.99h-5.936l-1.527 2.99h-4.129l8.645-15.398h4.452l3.226 15.398zm-1.936-11.785-2.903 5.634h3.807z" style="fill:url(#x)"/><path fill="url(#f)" d="M37.68 84.507c-2.624 0-4.473-.624-5.506-1.871-1.032-1.248-1.312-3.205-.86-5.828.473-2.624 1.44-4.56 2.903-5.807 1.484-1.269 3.527-1.892 6.15-1.892h4.883l-.581 3.204h-4.086c-.839 0-1.548.086-2.15.237-.603.15-1.119.408-1.528.774a4.04 4.04 0 0 0-1.01 1.398c-.258.58-.452 1.269-.602 2.107-.13.839-.172 1.549-.13 2.108.065.58.216 1.032.517 1.398.28.365.71.602 1.247.774.56.15 1.247.236 2.086.236h4.172l-.56 3.205H37.68z" style="fill:url(#y)"/><path fill="url(#g)" d="m45.227 84.507 2.71-15.398h3.806l-2.71 15.398Z" style="fill:url(#z)"/><path fill="url(#h)" d="m56.386 79.023-.947 5.484h-3.806l1.656-9.42c.688-4 3.054-5.978 7.054-5.978h5.096l-.58 3.204h-4.043a6.44 6.44 0 0 0-1.549.172c-.43.108-.795.301-1.097.56-.3.257-.537.58-.71.989a7.29 7.29 0 0 0-.43 1.527l-.064.28h7.054l-.56 3.203h-7.074z" style="fill:url(#A)"/><path fill="url(#i)" d="m65.094 84.507 2.71-15.398h3.806L68.9 84.507z" style="fill:url(#B)"/><path fill="url(#j)" d="M79.012 84.507c-2.624 0-4.473-.624-5.506-1.871-1.032-1.248-1.311-3.205-.86-5.828.473-2.624 1.44-4.56 2.903-5.807 1.484-1.269 3.527-1.892 6.15-1.892h4.883l-.56 3.183h-4.086c-.838 0-1.548.086-2.15.236-.602.15-1.118.409-1.527.774a4.04 4.04 0 0 0-1.01 1.398c-.259.58-.452 1.27-.603 2.108-.129.838-.172 1.548-.129 2.107.065.581.215 1.033.516 1.398.28.366.71.602 1.248.774.559.15 1.247.237 2.085.237h4.173l-.56 3.204h-4.967z" style="fill:url(#C)"/><path fill="url(#k)" d="m101.529 84.507-.516-2.99h-5.935l-1.527 2.99h-4.13l8.646-15.42h4.452l3.225 15.398h-4.215zm-1.935-11.785-2.903 5.634h3.806z" style="fill:url(#D)"/><path fill="url(#l)" d="m107.527 84.507 2.71-15.398h3.806l-2.709 15.398z" style="fill:url(#E)"/><path fill="url(#m)" d="m123.853 84.507-2.516-5.377h-2.645l-.925 5.377h-3.806l2.71-15.398h8.365c1.742 0 2.968.408 3.721 1.204.752.796.967 2.065.645 3.807-.151.86-.387 1.591-.688 2.15a5.867 5.867 0 0 1-1.011 1.376c-.366.345-.731.624-1.097.796a5.573 5.573 0 0 1-.968.409l2.818 5.656zm-3.957-12.215-.623 3.613h3.892c.645 0 1.161-.13 1.527-.409.366-.28.602-.753.71-1.398.129-.645.043-1.118-.237-1.398-.279-.28-.752-.408-1.398-.408z" style="fill:url(#F)"/><path fill="url(#n)" d="M136.277 84.507c-4.021 0-5.677-2-4.989-6.043l1.678-9.377h3.806l-1.57 8.86c-.107.624-.15 1.162-.107 1.592.043.43.172.774.387 1.01.215.259.516.43.924.56.409.107.925.172 1.549.172h4.172l-.559 3.204h-5.291z" style="fill:url(#G)"/><path fill="url(#o)" d="m143.613 84.507 2.71-15.398h3.806l-2.709 15.398z" style="fill:url(#H)"/><path fill="url(#p)" d="m159.226 84.507-3.699-10.667-1.871 10.667h-3.613l2.71-15.398h4.924l3.57 10.451 1.85-10.451h3.613l-2.688 15.398z" style="fill:url(#I)"/><path fill="url(#q)" d="M174.09 84.507c-2.624 0-4.473-.624-5.506-1.871-1.032-1.248-1.311-3.205-.86-5.828.473-2.624 1.441-4.56 2.903-5.807 1.484-1.269 3.527-1.892 6.151-1.892h4.774l-.581 3.204h-4c-.688 0-1.29.043-1.806.13a4.328 4.328 0 0 0-1.376.472 3.299 3.299 0 0 0-1.011.882c-.28.366-.516.839-.688 1.398h8.15l-.559 3.204h-8.15c-.022 1.097.258 1.85.881 2.28.624.43 1.613.645 2.99.645h4.215l-.56 3.204h-4.967z" style="fill:url(#J)"/><path fill="url(#r)" d="m181.703 84.507.559-3.205h7.119c.967 0 1.548-.494 1.72-1.462.15-.968-.258-1.462-1.204-1.462h-2.925c-3.075 0-4.344-1.549-3.807-4.667.56-3.075 2.366-4.624 5.463-4.624h7.72l-.58 3.205h-6.925c-.968 0-1.527.473-1.699 1.44-.172.968.215 1.441 1.183 1.441h2.881c1.549 0 2.646.387 3.291 1.162.645.774.838 1.935.58 3.484-.258 1.548-.86 2.71-1.785 3.483-.924.775-2.172 1.162-3.72 1.162h-7.871z" style="fill:url(#K)"/><path fill="#324471" d="m39.266 95.862.54-1.614h2.46l.544 1.614h1.266l-2.308-6.546h-1.464L38 95.862Zm.86-2.566.885-2.637h.05l.886 2.637zm7.044-3.98v6.546h1.138v-4.506h.06l1.81 4.487h.85l1.809-4.478h.06v4.497h1.138v-6.546h-1.45L50.64 94.06h-.077l-1.943-4.743zm10.279 6.642c1.144 0 1.93-.56 2.135-1.413l-1.08-.121c-.157.415-.54.633-1.04.633-.747 0-1.243-.493-1.252-1.333h3.42v-.355c0-1.723-1.036-2.48-2.244-2.48-1.406 0-2.324 1.032-2.324 2.547 0 1.54.905 2.522 2.385 2.522zm-1.234-3.014c.035-.627.498-1.154 1.189-1.154.665 0 1.112.486 1.118 1.154zm4.395 2.918h1.157v-2.985c0-.604.403-1.013.901-1.013.49 0 .825.329.825.834v3.164h1.135V92.8c0-.553.329-.936.888-.936.467 0 .837.275.837.882v3.116h1.16v-3.295c0-1.096-.632-1.678-1.533-1.678-.713 0-1.256.351-1.474.898h-.05c-.19-.556-.666-.898-1.327-.898-.659 0-1.15.339-1.355.898h-.058v-.834H60.61zm8.129 0h1.137v-.774h.067c.183.358.563.86 1.407.86 1.157 0 2.023-.917 2.023-2.534 0-1.637-.892-2.525-2.027-2.525-.866 0-1.227.52-1.403.876h-.048v-2.449H68.74zm1.134-2.455c0-.952.41-1.569 1.154-1.569.77 0 1.167.655 1.167 1.57 0 .92-.403 1.59-1.167 1.59-.738 0-1.154-.638-1.154-1.59zm6.657 2.551c1.144 0 1.93-.56 2.135-1.413l-1.08-.121c-.157.415-.54.633-1.04.633-.747 0-1.243-.493-1.252-1.333h3.42v-.355c0-1.723-1.036-2.48-2.244-2.48-1.406 0-2.324 1.032-2.324 2.547 0 1.54.905 2.522 2.385 2.522zm-1.234-3.014c.035-.627.499-1.154 1.189-1.154.665 0 1.112.486 1.119 1.154zm4.395 2.918h1.157v-2.886c0-.623.47-1.064 1.106-1.064.195 0 .438.035.537.067v-1.065a2.774 2.774 0 0 0-.415-.032c-.563 0-1.033.32-1.212.889h-.05v-.818H79.69zm7.942.096c1.439 0 2.353-1.013 2.353-2.531 0-1.522-.914-2.538-2.353-2.538-1.438 0-2.352 1.016-2.352 2.538 0 1.518.914 2.53 2.352 2.53zm.007-.927c-.796 0-1.186-.71-1.186-1.608 0-.898.39-1.617 1.186-1.617.783 0 1.173.72 1.173 1.617 0 .898-.39 1.608-1.173 1.608zm5.814-4.078h-1.02v-.387c0-.384.16-.598.592-.598.182 0 .336.042.431.07l.234-.894a2.886 2.886 0 0 0-.88-.134c-.853 0-1.533.489-1.533 1.48v.463h-.726v.895h.726v4.014h1.157v-4.014h1.02zm4.066-1.637h-1.301l2.304 6.546h1.464l2.307-6.546h-1.304l-1.7 5.152h-.067Zm5.585 6.546h1.157v-4.91h-1.157zm.582-5.606c.368 0 .668-.281.668-.626 0-.349-.3-.63-.668-.63-.371 0-.671.281-.671.63 0 .345.3.626.671.626zm3.938 5.702c1.145 0 1.931-.56 2.135-1.413l-1.08-.121c-.157.415-.54.633-1.039.633-.748 0-1.243-.493-1.253-1.333h3.42v-.355c0-1.723-1.035-2.48-2.243-2.48-1.407 0-2.324 1.032-2.324 2.547 0 1.54.905 2.522 2.384 2.522zm-1.233-3.014c.035-.627.498-1.154 1.189-1.154.664 0 1.112.486 1.118 1.154zm6.846-1.991h-.968v-1.176h-1.157v1.176h-.697v.895h.697v2.73c-.006.923.665 1.376 1.534 1.351a2.33 2.33 0 0 0 .681-.115l-.195-.905a1.442 1.442 0 0 1-.339.045c-.291 0-.524-.102-.524-.569v-2.537h.968zm2.125 2.032c0-.71.428-1.118 1.039-1.118.597 0 .955.393.955 1.048v2.947h1.157v-3.126c.003-1.176-.668-1.847-1.681-1.847-.735 0-1.24.351-1.464.898h-.057v-.834h-1.106v4.909h1.157zm5.74 2.975c.77 0 1.23-.36 1.441-.772h.039v.674h1.112v-3.286c0-1.297-1.058-1.687-1.994-1.687-1.033 0-1.825.46-2.081 1.355l1.08.153c.115-.335.441-.623 1.007-.623.537 0 .831.275.831.758v.019c0 .332-.348.348-1.214.44-.953.103-1.864.388-1.864 1.493 0 .966.707 1.477 1.643 1.477zm.3-.85c-.482 0-.827-.22-.827-.645 0-.444.386-.63.904-.703.304-.042.911-.118 1.061-.24v.579c0 .546-.441 1.01-1.138 1.01zm3.455.752h1.157v-2.985c0-.604.403-1.013.902-1.013.489 0 .824.329.824.834v3.164h1.135V92.8c0-.553.329-.936.888-.936.467 0 .838.275.838.882v3.116h1.16v-3.295c0-1.096-.633-1.678-1.534-1.678-.713 0-1.256.351-1.474.898h-.051c-.188-.556-.665-.898-1.326-.898-.659 0-1.151.339-1.355.898h-.058v-.834h-1.106zm11.202 0 .54-1.614h2.461l.543 1.614h1.266l-2.308-6.546h-1.464l-2.304 6.546zm.859-2.566.886-2.637h.051l.885 2.637zm4.797 2.566h1.157v-4.91h-1.157zm.581-5.606c.368 0 .668-.281.668-.626 0-.349-.3-.63-.668-.63-.37 0-.671.281-.671.63 0 .345.301.626.671.626zm1.765 5.606h1.157v-2.886c0-.623.47-1.064 1.106-1.064.195 0 .438.035.537.067v-1.065a2.773 2.773 0 0 0-.415-.032c-.563 0-1.033.32-1.212.889h-.051v-.818h-1.122zm4.726-6.546h-1.157v6.546h1.157zm1.189 6.546h1.157v-4.91h-1.157zm.582-5.606c.368 0 .668-.281.668-.626 0-.349-.3-.63-.668-.63-.371 0-.671.281-.671.63 0 .345.3.626.671.626zm2.922 2.729c0-.71.428-1.118 1.039-1.118.597 0 .955.393.955 1.048v2.947h1.157v-3.126c.004-1.176-.668-1.847-1.681-1.847-.735 0-1.24.351-1.464.898h-.057v-.834h-1.106v4.909h1.157zm6.501 2.973c1.144 0 1.93-.56 2.135-1.413l-1.081-.121c-.156.415-.54.633-1.038.633-.748 0-1.243-.493-1.253-1.333h3.42v-.355c0-1.723-1.036-2.48-2.244-2.48-1.406 0-2.323 1.032-2.323 2.547 0 1.54.904 2.522 2.384 2.522zm-1.234-3.014c.035-.627.499-1.154 1.189-1.154.665 0 1.112.486 1.119 1.154zm8.275-.694c-.159-.83-.824-1.361-1.975-1.361-1.182 0-1.988.582-1.984 1.49-.004.715.437 1.188 1.38 1.383l.838.176c.45.099.661.281.661.56 0 .335-.364.587-.914.587-.53 0-.876-.23-.975-.67l-1.128.108c.144.901.901 1.435 2.106 1.435 1.228 0 2.094-.636 2.097-1.566-.003-.7-.454-1.129-1.381-1.33l-.837-.179c-.499-.112-.697-.284-.694-.569-.003-.332.365-.562.847-.562.534 0 .815.29.905.613zm7.728-.843h1.209c-.202-1.285-1.314-2.18-2.762-2.18-1.713 0-2.998 1.26-2.998 3.368 0 2.072 1.228 3.356 3.033 3.356 1.621 0 2.781-1.042 2.781-2.73v-.785h-2.656v.927h1.508c-.019.933-.642 1.524-1.626 1.524-1.097 0-1.848-.821-1.848-2.304 0-1.474.764-2.292 1.822-2.292.79 0 1.326.422 1.537 1.116zm2.358 4.455h1.157v-2.886c0-.623.47-1.064 1.106-1.064.195 0 .438.035.537.067v-1.065a2.773 2.773 0 0 0-.415-.032c-.563 0-1.033.32-1.212.889h-.051v-.818h-1.122zm5.508.096c1.438 0 2.352-1.013 2.352-2.531 0-1.522-.914-2.538-2.352-2.538-1.438 0-2.352 1.016-2.352 2.538 0 1.518.914 2.53 2.352 2.53zm.006-.927c-.796 0-1.185-.71-1.185-1.608 0-.898.389-1.617 1.185-1.617.783 0 1.173.72 1.173 1.617 0 .898-.39 1.608-1.173 1.608zm6.457-1.234c0 .748-.534 1.119-1.045 1.119-.556 0-.927-.393-.927-1.016v-2.947h-1.157v3.125c0 1.18.671 1.848 1.636 1.848.736 0 1.253-.387 1.477-.937h.051v.873h1.122v-4.91h-1.157zm2.347 3.906h1.157v-2.615h.048c.182.358.562.86 1.406.86 1.157 0 2.023-.917 2.023-2.534 0-1.637-.892-2.525-2.026-2.525-.866 0-1.228.52-1.403.876h-.068v-.812h-1.137zm1.134-4.296c0-.952.409-1.569 1.154-1.569.77 0 1.167.655 1.167 1.57 0 .92-.403 1.59-1.167 1.59-.738 0-1.154-.638-1.154-1.59z"/></g><g clip-path="url(#s)" transform="translate(0 -50.958)"><path fill="url(#a)" d="m222.217 51.087 6.065-.129-10.473 18.13h-18.043s6.236-2.345 8.645-4.366c1.849-1.57 9.742-10.645 10.58-11.72 1.033-1.377 2.474-1.807 3.226-1.915z" style="fill:url(#L)"/><path fill="url(#b)" d="m203.352 76.528-2.559-4.236h17.054l7.355 12.73s-4.194-3.461-6.603-4.322c-1.871-.666-11.483-2.537-12.58-2.688-1.398-.172-2.28-1.01-2.667-1.484z" style="fill:url(#M)"/><path fill="url(#c)" d="m229.765 79.496-2.022 3.678-7.247-12.56 6.237-10.817s-.753 4.56-.366 6.688c.301 1.656 3.011 9.527 3.376 10.387.452 1.14.215 2.15.022 2.624z" style="fill:url(#N)"/><path fill="url(#d)" d="m0 84.507 2.71-15.398h8.172c1.699 0 2.925.43 3.656 1.29.752.86.967 2.15.645 3.85-.301 1.699-.968 2.989-2.022 3.85-1.053.86-2.43 1.29-4.129 1.29H4.688l-.882 5.118zm8.925-8.301c1.29 0 2.064-.646 2.28-1.957.236-1.29-.302-1.957-1.592-1.957H5.957l-.667 3.892h3.635z" style="fill:url(#O)"/><path fill="url(#e)" d="m25.225 84.507-.516-2.99h-5.936l-1.527 2.99h-4.129l8.645-15.398h4.452l3.226 15.398zm-1.936-11.785-2.903 5.634h3.807z" style="fill:url(#P)"/><path fill="url(#f)" d="M37.68 84.507c-2.624 0-4.473-.624-5.506-1.871-1.032-1.248-1.312-3.205-.86-5.828.473-2.624 1.44-4.56 2.903-5.807 1.484-1.269 3.527-1.892 6.15-1.892h4.883l-.581 3.204h-4.086c-.839 0-1.548.086-2.15.237-.603.15-1.119.408-1.528.774a4.04 4.04 0 0 0-1.01 1.398c-.258.58-.452 1.269-.602 2.107-.13.839-.172 1.549-.13 2.108.065.58.216 1.032.517 1.398.28.365.71.602 1.247.774.56.15 1.247.236 2.086.236h4.172l-.56 3.205H37.68z" style="fill:url(#Q)"/><path fill="url(#g)" d="m45.227 84.507 2.71-15.398h3.806l-2.71 15.398Z" style="fill:url(#R)"/><path fill="url(#h)" d="m56.386 79.023-.947 5.484h-3.806l1.656-9.42c.688-4 3.054-5.978 7.054-5.978h5.096l-.58 3.204h-4.043a6.44 6.44 0 0 0-1.549.172c-.43.108-.795.301-1.097.56-.3.257-.537.58-.71.989a7.29 7.29 0 0 0-.43 1.527l-.064.28h7.054l-.56 3.203h-7.074z" style="fill:url(#S)"/><path fill="url(#i)" d="m65.094 84.507 2.71-15.398h3.806L68.9 84.507z" style="fill:url(#T)"/><path fill="url(#j)" d="M79.012 84.507c-2.624 0-4.473-.624-5.506-1.871-1.032-1.248-1.311-3.205-.86-5.828.473-2.624 1.44-4.56 2.903-5.807 1.484-1.269 3.527-1.892 6.15-1.892h4.883l-.56 3.183h-4.086c-.838 0-1.548.086-2.15.236-.602.15-1.118.409-1.527.774a4.04 4.04 0 0 0-1.01 1.398c-.259.58-.452 1.27-.603 2.108-.129.838-.172 1.548-.129 2.107.065.581.215 1.033.516 1.398.28.366.71.602 1.248.774.559.15 1.247.237 2.085.237h4.173l-.56 3.204h-4.967z" style="fill:url(#U)"/><path fill="url(#k)" d="m101.529 84.507-.516-2.99h-5.935l-1.527 2.99h-4.13l8.646-15.42h4.452l3.225 15.398h-4.215zm-1.935-11.785-2.903 5.634h3.806z" style="fill:url(#V)"/><path fill="url(#l)" d="m107.527 84.507 2.71-15.398h3.806l-2.709 15.398z" style="fill:url(#W)"/><path fill="url(#m)" d="m123.853 84.507-2.516-5.377h-2.645l-.925 5.377h-3.806l2.71-15.398h8.365c1.742 0 2.968.408 3.721 1.204.752.796.967 2.065.645 3.807-.151.86-.387 1.591-.688 2.15a5.867 5.867 0 0 1-1.011 1.376c-.366.345-.731.624-1.097.796a5.573 5.573 0 0 1-.968.409l2.818 5.656zm-3.957-12.215-.623 3.613h3.892c.645 0 1.161-.13 1.527-.409.366-.28.602-.753.71-1.398.129-.645.043-1.118-.237-1.398-.279-.28-.752-.408-1.398-.408z" style="fill:url(#X)"/><path fill="url(#n)" d="M136.277 84.507c-4.021 0-5.677-2-4.989-6.043l1.678-9.377h3.806l-1.57 8.86c-.107.624-.15 1.162-.107 1.592.043.43.172.774.387 1.01.215.259.516.43.924.56.409.107.925.172 1.549.172h4.172l-.559 3.204h-5.291z" style="fill:url(#Y)"/><path fill="url(#o)" d="m143.613 84.507 2.71-15.398h3.806l-2.709 15.398z" style="fill:url(#Z)"/><path fill="url(#p)" d="m159.226 84.507-3.699-10.667-1.871 10.667h-3.613l2.71-15.398h4.924l3.57 10.451 1.85-10.451h3.613l-2.688 15.398z" style="fill:url(#aa)"/><path fill="url(#q)" d="M174.09 84.507c-2.624 0-4.473-.624-5.506-1.871-1.032-1.248-1.311-3.205-.86-5.828.473-2.624 1.441-4.56 2.903-5.807 1.484-1.269 3.527-1.892 6.151-1.892h4.774l-.581 3.204h-4c-.688 0-1.29.043-1.806.13a4.328 4.328 0 0 0-1.376.472 3.299 3.299 0 0 0-1.011.882c-.28.366-.516.839-.688 1.398h8.15l-.559 3.204h-8.15c-.022 1.097.258 1.85.881 2.28.624.43 1.613.645 2.99.645h4.215l-.56 3.204h-4.967z" style="fill:url(#ab)"/><path fill="url(#r)" d="m181.703 84.507.559-3.205h7.119c.967 0 1.548-.494 1.72-1.462.15-.968-.258-1.462-1.204-1.462h-2.925c-3.075 0-4.344-1.549-3.807-4.667.56-3.075 2.366-4.624 5.463-4.624h7.72l-.58 3.205h-6.925c-.968 0-1.527.473-1.699 1.44-.172.968.215 1.441 1.183 1.441h2.881c1.549 0 2.646.387 3.291 1.162.645.774.838 1.935.58 3.484-.258 1.548-.86 2.71-1.785 3.483-.924.775-2.172 1.162-3.72 1.162h-7.871z" style="fill:url(#ac)"/><path fill="#324471" d="m39.266 95.862.54-1.614h2.46l.544 1.614h1.266l-2.308-6.546h-1.464L38 95.862Zm.86-2.566.885-2.637h.05l.886 2.637zm7.044-3.98v6.546h1.138v-4.506h.06l1.81 4.487h.85l1.809-4.478h.06v4.497h1.138v-6.546h-1.45L50.64 94.06h-.077l-1.943-4.743zm10.279 6.642c1.144 0 1.93-.56 2.135-1.413l-1.08-.121c-.157.415-.54.633-1.04.633-.747 0-1.243-.493-1.252-1.333h3.42v-.355c0-1.723-1.036-2.48-2.244-2.48-1.406 0-2.324 1.032-2.324 2.547 0 1.54.905 2.522 2.385 2.522zm-1.234-3.014c.035-.627.498-1.154 1.189-1.154.665 0 1.112.486 1.118 1.154zm4.395 2.918h1.157v-2.985c0-.604.403-1.013.901-1.013.49 0 .825.329.825.834v3.164h1.135V92.8c0-.553.329-.936.888-.936.467 0 .837.275.837.882v3.116h1.16v-3.295c0-1.096-.632-1.678-1.533-1.678-.713 0-1.256.351-1.474.898h-.05c-.19-.556-.666-.898-1.327-.898-.659 0-1.15.339-1.355.898h-.058v-.834H60.61zm8.129 0h1.137v-.774h.067c.183.358.563.86 1.407.86 1.157 0 2.023-.917 2.023-2.534 0-1.637-.892-2.525-2.027-2.525-.866 0-1.227.52-1.403.876h-.048v-2.449H68.74zm1.134-2.455c0-.952.41-1.569 1.154-1.569.77 0 1.167.655 1.167 1.57 0 .92-.403 1.59-1.167 1.59-.738 0-1.154-.638-1.154-1.59zm6.657 2.551c1.144 0 1.93-.56 2.135-1.413l-1.08-.121c-.157.415-.54.633-1.04.633-.747 0-1.243-.493-1.252-1.333h3.42v-.355c0-1.723-1.036-2.48-2.244-2.48-1.406 0-2.324 1.032-2.324 2.547 0 1.54.905 2.522 2.385 2.522zm-1.234-3.014c.035-.627.499-1.154 1.189-1.154.665 0 1.112.486 1.119 1.154zm4.395 2.918h1.157v-2.886c0-.623.47-1.064 1.106-1.064.195 0 .438.035.537.067v-1.065a2.774 2.774 0 0 0-.415-.032c-.563 0-1.033.32-1.212.889h-.05v-.818H79.69zm7.942.096c1.439 0 2.353-1.013 2.353-2.531 0-1.522-.914-2.538-2.353-2.538-1.438 0-2.352 1.016-2.352 2.538 0 1.518.914 2.53 2.352 2.53zm.007-.927c-.796 0-1.186-.71-1.186-1.608 0-.898.39-1.617 1.186-1.617.783 0 1.173.72 1.173 1.617 0 .898-.39 1.608-1.173 1.608zm5.814-4.078h-1.02v-.387c0-.384.16-.598.592-.598.182 0 .336.042.431.07l.234-.894a2.886 2.886 0 0 0-.88-.134c-.853 0-1.533.489-1.533 1.48v.463h-.726v.895h.726v4.014h1.157v-4.014h1.02zm4.066-1.637h-1.301l2.304 6.546h1.464l2.307-6.546h-1.304l-1.7 5.152h-.067Zm5.585 6.546h1.157v-4.91h-1.157zm.582-5.606c.368 0 .668-.281.668-.626 0-.349-.3-.63-.668-.63-.371 0-.671.281-.671.63 0 .345.3.626.671.626zm3.938 5.702c1.145 0 1.931-.56 2.135-1.413l-1.08-.121c-.157.415-.54.633-1.039.633-.748 0-1.243-.493-1.253-1.333h3.42v-.355c0-1.723-1.035-2.48-2.243-2.48-1.407 0-2.324 1.032-2.324 2.547 0 1.54.905 2.522 2.384 2.522zm-1.233-3.014c.035-.627.498-1.154 1.189-1.154.664 0 1.112.486 1.118 1.154zm6.846-1.991h-.968v-1.176h-1.157v1.176h-.697v.895h.697v2.73c-.006.923.665 1.376 1.534 1.351a2.33 2.33 0 0 0 .681-.115l-.195-.905a1.442 1.442 0 0 1-.339.045c-.291 0-.524-.102-.524-.569v-2.537h.968zm2.125 2.032c0-.71.428-1.118 1.039-1.118.597 0 .955.393.955 1.048v2.947h1.157v-3.126c.003-1.176-.668-1.847-1.681-1.847-.735 0-1.24.351-1.464.898h-.057v-.834h-1.106v4.909h1.157zm5.74 2.975c.77 0 1.23-.36 1.441-.772h.039v.674h1.112v-3.286c0-1.297-1.058-1.687-1.994-1.687-1.033 0-1.825.46-2.081 1.355l1.08.153c.115-.335.441-.623 1.007-.623.537 0 .831.275.831.758v.019c0 .332-.348.348-1.214.44-.953.103-1.864.388-1.864 1.493 0 .966.707 1.477 1.643 1.477zm.3-.85c-.482 0-.827-.22-.827-.645 0-.444.386-.63.904-.703.304-.042.911-.118 1.061-.24v.579c0 .546-.441 1.01-1.138 1.01zm3.455.752h1.157v-2.985c0-.604.403-1.013.902-1.013.489 0 .824.329.824.834v3.164h1.135V92.8c0-.553.329-.936.888-.936.467 0 .838.275.838.882v3.116h1.16v-3.295c0-1.096-.633-1.678-1.534-1.678-.713 0-1.256.351-1.474.898h-.051c-.188-.556-.665-.898-1.326-.898-.659 0-1.151.339-1.355.898h-.058v-.834h-1.106zm11.202 0 .54-1.614h2.461l.543 1.614h1.266l-2.308-6.546h-1.464l-2.304 6.546zm.859-2.566.886-2.637h.051l.885 2.637zm4.797 2.566h1.157v-4.91h-1.157zm.581-5.606c.368 0 .668-.281.668-.626 0-.349-.3-.63-.668-.63-.37 0-.671.281-.671.63 0 .345.301.626.671.626zm1.765 5.606h1.157v-2.886c0-.623.47-1.064 1.106-1.064.195 0 .438.035.537.067v-1.065a2.773 2.773 0 0 0-.415-.032c-.563 0-1.033.32-1.212.889h-.051v-.818h-1.122zm4.726-6.546h-1.157v6.546h1.157zm1.189 6.546h1.157v-4.91h-1.157zm.582-5.606c.368 0 .668-.281.668-.626 0-.349-.3-.63-.668-.63-.371 0-.671.281-.671.63 0 .345.3.626.671.626zm2.922 2.729c0-.71.428-1.118 1.039-1.118.597 0 .955.393.955 1.048v2.947h1.157v-3.126c.004-1.176-.668-1.847-1.681-1.847-.735 0-1.24.351-1.464.898h-.057v-.834h-1.106v4.909h1.157zm6.501 2.973c1.144 0 1.93-.56 2.135-1.413l-1.081-.121c-.156.415-.54.633-1.038.633-.748 0-1.243-.493-1.253-1.333h3.42v-.355c0-1.723-1.036-2.48-2.244-2.48-1.406 0-2.323 1.032-2.323 2.547 0 1.54.904 2.522 2.384 2.522zm-1.234-3.014c.035-.627.499-1.154 1.189-1.154.665 0 1.112.486 1.119 1.154zm8.275-.694c-.159-.83-.824-1.361-1.975-1.361-1.182 0-1.988.582-1.984 1.49-.004.715.437 1.188 1.38 1.383l.838.176c.45.099.661.281.661.56 0 .335-.364.587-.914.587-.53 0-.876-.23-.975-.67l-1.128.108c.144.901.901 1.435 2.106 1.435 1.228 0 2.094-.636 2.097-1.566-.003-.7-.454-1.129-1.381-1.33l-.837-.179c-.499-.112-.697-.284-.694-.569-.003-.332.365-.562.847-.562.534 0 .815.29.905.613zm7.728-.843h1.209c-.202-1.285-1.314-2.18-2.762-2.18-1.713 0-2.998 1.26-2.998 3.368 0 2.072 1.228 3.356 3.033 3.356 1.621 0 2.781-1.042 2.781-2.73v-.785h-2.656v.927h1.508c-.019.933-.642 1.524-1.626 1.524-1.097 0-1.848-.821-1.848-2.304 0-1.474.764-2.292 1.822-2.292.79 0 1.326.422 1.537 1.116zm2.358 4.455h1.157v-2.886c0-.623.47-1.064 1.106-1.064.195 0 .438.035.537.067v-1.065a2.773 2.773 0 0 0-.415-.032c-.563 0-1.033.32-1.212.889h-.051v-.818h-1.122zm5.508.096c1.438 0 2.352-1.013 2.352-2.531 0-1.522-.914-2.538-2.352-2.538-1.438 0-2.352 1.016-2.352 2.538 0 1.518.914 2.53 2.352 2.53zm.006-.927c-.796 0-1.185-.71-1.185-1.608 0-.898.389-1.617 1.185-1.617.783 0 1.173.72 1.173 1.617 0 .898-.39 1.608-1.173 1.608zm6.457-1.234c0 .748-.534 1.119-1.045 1.119-.556 0-.927-.393-.927-1.016v-2.947h-1.157v3.125c0 1.18.671 1.848 1.636 1.848.736 0 1.253-.387 1.477-.937h.051v.873h1.122v-4.91h-1.157zm2.347 3.906h1.157v-2.615h.048c.182.358.562.86 1.406.86 1.157 0 2.023-.917 2.023-2.534 0-1.637-.892-2.525-2.026-2.525-.866 0-1.228.52-1.403.876h-.068v-.812h-1.137zm1.134-4.296c0-.952.409-1.569 1.154-1.569.77 0 1.167.655 1.167 1.57 0 .92-.403 1.59-1.167 1.59-.738 0-1.154-.638-1.154-1.59z"/></g></svg>