<svg xmlns="http://www.w3.org/2000/svg" width="512pt" height="512pt" style="isolation:isolate" viewBox="0 0 512 512"><defs><clipPath id="a"><path d="M0 0h512v512H0z"/></clipPath></defs><g clip-path="url(#a)"><path d="M93.552 177.991c-6.001 7.101-15.602 12.702-25.203 11.901-1.2-9.601 3.501-19.802 9.001-26.103 6.001-7.3 16.502-12.501 25.003-12.901 1 10.001-2.9 19.802-8.801 27.103Zm8.701 13.802c-13.902-.8-25.803 7.901-32.404 7.901-6.7 0-16.802-7.501-27.803-7.301-14.301.2-27.603 8.301-34.904 21.202-15.002 25.803-3.9 64.007 10.601 85.01 7.101 10.401 15.602 21.802 26.803 21.402 10.602-.4 14.802-6.9 27.604-6.9 12.901 0 16.602 6.9 27.803 6.7 11.601-.2 18.902-10.401 26.003-20.802 8.101-11.801 11.401-23.303 11.601-23.903-.2-.2-22.402-8.701-22.602-34.304-.201-21.402 17.502-31.603 18.302-32.203-10.002-14.802-25.603-16.402-31.004-16.802Zm80.309-29.004v155.918h24.203v-53.306h33.504c30.603 0 52.106-21.002 52.106-51.406 0-30.403-21.103-51.206-51.306-51.206h-58.507Zm24.203 20.403h27.903c21.003 0 33.004 11.201 33.004 30.903 0 19.702-12.001 31.004-33.104 31.004h-27.803v-61.907ZM336.58 319.907c15.202 0 29.303-7.701 35.704-19.902h.5v18.702h22.403v-77.609c0-22.502-18.002-37.004-45.706-37.004-25.703 0-44.705 14.702-45.405 34.904h21.803c1.8-9.601 10.701-15.902 22.902-15.902 14.802 0 23.103 6.901 23.103 19.602v8.601L341.68 253.1c-28.103 1.7-43.304 13.201-43.304 33.203 0 20.203 15.701 33.604 38.204 33.604Zm6.501-18.502c-12.902 0-21.103-6.201-21.103-15.702 0-9.801 7.901-15.501 23.003-16.401l26.903-1.701v8.801c0 14.602-12.401 25.003-28.803 25.003Zm82.009 59.707c23.603 0 34.704-9.001 44.405-36.304L512 205.594h-24.603l-28.503 92.111h-.5l-28.503-92.111h-25.303l41.004 113.513-2.2 6.901c-3.7 11.701-9.701 16.202-20.402 16.202-1.9 0-5.601-.2-7.101-.4v18.702c1.4.4 7.401.6 9.201.6Z"/></g></svg>