<svg xmlns="http://www.w3.org/2000/svg" width="512pt" height="512pt" style="isolation:isolate" viewBox="0 0 512 512"><defs><clipPath id="a"><path d="M0 0h512v512H0z"/></clipPath></defs><g clip-path="url(#a)"><path fill="#253B80" d="m162.307 494.643 8.874-56.363-19.766-.458H57.03l65.593-415.901a5.494 5.494 0 0 1 1.832-3.258 5.358 5.358 0 0 1 3.495-1.289h159.147c52.833 0 89.295 10.994 108.331 32.694 8.924 10.18 14.608 20.818 17.357 32.525 2.884 12.284 2.935 26.96.119 44.86l-.204 1.306v11.47l8.924 5.056c7.517 3.987 13.489 8.551 18.07 13.777 7.635 8.703 12.572 19.766 14.659 32.881 2.155 13.488 1.442 29.539-2.087 47.71-4.072 20.903-10.655 39.108-19.545 54.004-8.178 13.726-18.596 25.111-30.964 33.933-11.809 8.382-25.841 14.744-41.704 18.816-15.372 4.004-32.898 6.023-52.122 6.023h-12.385c-8.857 0-17.459 3.19-24.211 8.908-6.77 5.836-11.249 13.811-12.624 22.532l-.933 5.073-15.677 99.339-.712 3.648c-.187 1.153-.509 1.73-.984 2.12a2.621 2.621 0 0 1-1.629.594h-76.469Z"/><path fill="#179BD7" d="M430.074 130.083a277.314 277.314 0 0 1-1.629 9.331c-20.988 107.755-92.79 144.98-184.494 144.98h-46.692c-11.215 0-20.666 8.143-22.413 19.206L150.94 455.213l-6.77 42.976c-1.137 7.262 4.462 13.811 11.792 13.811h82.814c9.806 0 18.137-7.126 19.681-16.797l.814-4.208 15.593-98.949 1.001-5.429a19.915 19.915 0 0 1 19.681-16.831h12.385c80.235 0 143.046-32.576 161.403-126.842 7.669-39.379 3.699-72.26-16.593-95.386-6.142-6.973-13.76-12.759-22.667-17.475Z"/><path fill="#222D65" d="M408.119 121.328a165.395 165.395 0 0 0-9.908-2.545 188.942 188.942 0 0 0-10.503-1.985c-12.589-2.036-26.383-3.003-41.161-3.003H221.809a19.8 19.8 0 0 0-8.602 1.951c-5.752 2.765-10.027 8.212-11.062 14.88l-26.536 168.07-.763 4.904c1.747-11.063 11.198-19.206 22.413-19.206h46.692c91.704 0 163.506-37.242 184.494-144.98a240.04 240.04 0 0 0 1.629-9.331c-5.311-2.817-11.062-5.226-17.255-7.279a153.175 153.175 0 0 0-4.7-1.476Z"/><path fill="#253B80" d="M202.145 130.626a19.829 19.829 0 0 1 11.062-14.863 19.855 19.855 0 0 1 8.602-1.951h124.738c14.778 0 28.572.967 41.161 3.003 3.597.577 7.092 1.238 10.503 1.985 3.393.763 6.701 1.612 9.908 2.545 1.595.475 3.173.967 4.717 1.459 6.193 2.053 11.944 4.479 17.255 7.279 6.243-39.821-.051-66.933-21.582-91.484C384.773 11.571 341.932 0 287.113 0H127.967c-11.198 0-20.75 8.144-22.481 19.223L39.198 439.4c-1.306 8.314 5.107 15.813 13.488 15.813h98.254l24.669-156.517 26.536-168.07Z"/></g></svg>