<svg xmlns="http://www.w3.org/2000/svg" xml:space="preserve" baseProfile="tiny" viewBox="0 0 240 234"><path fill="#061E26" fill-rule="evenodd" d="M0 0h240v234H0z"/><path fill="#26C9FF" fill-rule="evenodd" d="m109.2 136.8 11.8 21.8c9.2-3.1 16.8-10.2 20.3-19.2l1-2.6h-33.1zm1.6-22.2-11-20c-9.1 3.1-16.5 10.9-20.1 19.8l.3.2h30.8zm-11 16.9L88.6 151c5.8 5.1 13.2 8.5 21.5 8.5 1.7 0 3.9-.3 5.5-.5l.2-.3-16-27.2zm21.1-10.7 11.2-19.3c-5.8-5.1-13.4-8.2-21.7-8.2-1.7 0-3.2.2-4.8.4l-.2.4 15.5 26.7zm-20.4-.9H78c-.4 2.1-.7 4-.7 6.3 0 7.7 2.7 14.8 7.1 20.4l.5.3 15.6-27zm19.5 11.7h22.8c.4-2.1.5-3.6.5-5.8 0-7.8-2.7-14.5-7.2-20.1l-.5-.4-15.6 26.3z"/><path fill="#D9F5FF" fill-rule="evenodd" d="M91.3 47.6c-2.7 0-5.3 1.4-6.6 3.7l-54.5 91.8c-1 1.7-1.2 3.6-.7 5.4.5 1.9 1.7 3.4 3.4 4.4l93.4 52.1c1.1.6 2.4.9 3.6.9 2.7 0 5.2-1.4 6.6-3.7l54.5-91.8c1-1.7 1.3-3.6.8-5.5s-1.7-3.4-3.4-4.4l-93.5-52c-1.1-.6-2.3-.9-3.6-.9zm38.6 162.3c-2 0-3.9-.5-5.6-1.4l-93.4-52.1c-2.7-1.5-4.5-3.9-5.3-6.8-.8-2.9-.4-5.9 1.2-8.5l54.5-91.8c2.1-3.5 5.9-5.6 10-5.6 2 0 3.9.5 5.6 1.4l93.4 52.1c2.7 1.5 4.5 3.9 5.3 6.8.8 2.9.4 5.9-1.2 8.5L140 204.3c-2.1 3.4-6 5.6-10.1 5.6z"/></svg>