<svg xmlns="http://www.w3.org/2000/svg" viewBox="0 0 473.677 473.677" width="2500" height="2500"><path d="M324.752 236.842h148.925C473.677 106.032 367.641 0 236.835 0c65.397 0 87.925 118.425 87.917 236.842z" fill="#e4e4e4"/><path d="M0 236.842h334.931C334.939 118.425 302.232 0 236.835 0 106.036 0 0 106.032 0 236.842z" fill="#f3f4f5"/><path d="M319.771 236.842c0 118.417-17.535 236.835-82.936 236.835 130.807 0 236.842-106.036 236.842-236.835H319.771z" fill="#d84141"/><path d="M334.931 236.842H0c0 130.799 106.036 236.835 236.835 236.835 65.397 0 98.096-118.417 98.096-236.835z" fill="#dc4d4e"/></svg>