<svg xmlns="http://www.w3.org/2000/svg" width="2000" height="2479.67" viewBox="0 0 2000 2479.67"><path fill="#095361" d="m0 577.24l292.68 170.73 0 813.01 707.32 414.63 0 333.33-707.32-406.5 0 577.24-292.68-170.74 0-1731.7"/><path fill="#79c9da" d="M1000 0 2000 577.24 1707.32 747.97 1000 341.46 292.68 747.97 0 577.24 1000 0z"/><path fill="#00a0ba" d="m2000 1731.71l-1000 577.23 0-333.33 707.32-414.63 0-813.01 292.68-170.73 0 1154.47"/><path fill="#095361" d="m1000 341.46l0 813.01 707.32 406.51 0-813.01-707.32-406.51"/><path fill="#79c9da" d="m292.68 1560.98l707.32-406.51 707.32 406.51-707.32 414.63-707.32-414.63"/><path fill="#00a0ba" d="m292.68 747.97l0 813.01 707.32-406.51 0-813.01-707.32 406.51"/><path fill="#79c9da" d="m1000 1154.47l-430.89-252.03 430.89-243.9 430.89 243.9-430.89 252.03"/><path fill="#00a0ba" d="m1000 1154.47l430.89-252.03 0 504.06-430.89 243.91 0-495.94"/><path fill="#095361" d="m569.11 902.44l0 504.06 430.89 243.91 0-495.94-430.89-252.03"/></svg>