<?xml version="1.0" encoding="UTF-8" standalone="no"?>
<!-- Generator: Gravit.io -->
<svg xmlns="http://www.w3.org/2000/svg" xmlns:xlink="http://www.w3.org/1999/xlink" style="isolation:isolate" viewBox="0 0 64 64" width="64pt" height="64pt"><defs><clipPath id="_clipPath_AfJkW4Jyv6n2jRmwJ1L3Gd0z5L1w80Zz"><rect width="64" height="64"/></clipPath></defs><g clip-path="url(#_clipPath_AfJkW4Jyv6n2jRmwJ1L3Gd0z5L1w80Zz)"><path d=" M 62.874 38.338 C 62.501 37.207 61.524 36.42 60.26 36.232 C 59.664 36.143 58.981 36.181 58.173 36.347 C 56.765 36.637 55.721 36.748 54.959 36.769 C 57.836 31.912 60.175 26.372 61.522 21.158 C 63.7 12.726 62.536 8.884 61.176 7.147 C 57.577 2.548 52.326 0.078 45.991 0.002 C 42.612 -0.039 39.645 0.628 38.098 1.108 C 36.657 0.853 35.107 0.711 33.482 0.685 C 30.434 0.637 27.742 1.301 25.441 2.666 C 24.168 2.236 22.123 1.628 19.763 1.241 C 14.21 0.329 9.735 1.04 6.462 3.352 C 2.499 6.152 0.661 11.016 1.001 17.81 C 1.109 19.967 2.316 26.53 4.216 32.754 C 5.307 36.331 6.472 39.302 7.676 41.584 C 9.384 44.821 11.212 46.727 13.264 47.411 C 14.414 47.794 16.503 48.063 18.701 46.232 C 18.979 46.57 19.351 46.905 19.844 47.216 C 20.47 47.611 21.236 47.934 22.001 48.125 C 24.758 48.815 27.34 48.642 29.543 47.676 C 29.557 48.068 29.567 48.442 29.576 48.766 C 29.59 49.29 29.605 49.804 29.624 50.285 C 29.755 53.536 29.976 56.063 30.631 57.832 C 30.667 57.929 30.716 58.077 30.767 58.235 C 31.094 59.236 31.64 60.911 33.031 62.224 C 34.471 63.583 36.213 64 37.809 64 C 38.609 64 39.373 63.895 40.042 63.752 C 42.429 63.24 45.14 62.461 47.101 59.668 C 48.955 57.029 49.857 53.053 50.02 46.788 C 50.041 46.611 50.06 46.442 50.079 46.281 L 50.118 45.949 L 50.555 45.988 L 50.667 45.995 C 53.098 46.106 56.071 45.591 57.897 44.743 C 59.34 44.073 63.962 41.633 62.874 38.338 Z " fill="rgb(0,0,0)"/><path d=" M 58.717 38.978 C 51.488 40.469 50.991 38.022 50.991 38.022 C 58.623 26.697 61.814 12.321 59.061 8.802 C 51.549 -0.795 38.546 3.744 38.329 3.861 L 38.259 3.874 C 36.831 3.578 35.233 3.401 33.436 3.372 C 30.166 3.318 27.684 4.229 25.801 5.657 C 25.801 5.657 2.605 -3.899 3.684 17.675 C 3.914 22.265 10.263 52.403 17.835 43.3 C 20.603 39.971 23.278 37.157 23.278 37.157 C 24.606 38.039 26.196 38.489 27.863 38.328 L 27.992 38.218 C 27.952 38.631 27.971 39.035 28.044 39.514 C 26.093 41.694 26.667 42.076 22.767 42.879 C 18.821 43.692 21.139 45.14 22.652 45.519 C 24.487 45.977 28.732 46.627 31.601 42.612 L 31.486 43.07 C 32.251 43.683 32.787 47.053 32.697 50.108 C 32.607 53.163 32.547 55.26 33.149 56.898 C 33.752 58.537 34.352 62.223 39.479 61.124 C 43.763 60.206 45.983 57.827 46.292 53.859 C 46.511 51.038 47.007 51.455 47.038 48.933 L 47.436 47.739 C 47.894 43.915 47.509 42.681 50.148 43.255 L 50.789 43.311 C 52.731 43.399 55.274 42.998 56.766 42.305 C 59.979 40.814 61.885 38.324 58.717 38.978 L 58.717 38.978 Z " fill="rgb(51,103,145)"/><path d=" M 27.159 19.728 C 26.508 19.637 25.918 19.721 25.619 19.947 C 25.452 20.074 25.4 20.221 25.386 20.323 C 25.348 20.591 25.536 20.888 25.652 21.042 C 25.979 21.475 26.457 21.773 26.93 21.839 C 26.999 21.849 27.067 21.853 27.135 21.853 C 27.923 21.853 28.641 21.239 28.704 20.785 C 28.783 20.218 27.959 19.839 27.159 19.728 M 48.74 19.746 C 48.678 19.301 47.886 19.174 47.134 19.278 C 46.384 19.383 45.656 19.722 45.717 20.168 C 45.765 20.515 46.392 21.107 47.133 21.107 C 47.196 21.107 47.259 21.103 47.323 21.094 C 47.818 21.025 48.181 20.711 48.353 20.53 C 48.616 20.254 48.768 19.946 48.74 19.746 Z " fill="rgb(255,255,255)"/><path d=" M 61.122 38.809 C 60.847 37.975 59.96 37.707 58.486 38.012 C 54.109 38.915 52.542 38.289 52.027 37.91 C 55.429 32.728 58.227 26.464 59.737 20.619 C 60.452 17.85 60.847 15.279 60.88 13.183 C 60.915 10.883 60.524 9.193 59.716 8.16 C 56.458 3.998 51.677 1.765 45.889 1.704 C 41.91 1.659 38.549 2.677 37.897 2.964 C 36.525 2.622 35.029 2.413 33.4 2.386 C 30.413 2.338 27.831 3.053 25.694 4.51 C 24.765 4.165 22.365 3.341 19.431 2.868 C 14.357 2.052 10.326 2.67 7.449 4.709 C 4.016 7.141 2.431 11.488 2.738 17.63 C 2.842 19.696 4.019 26.053 5.877 32.141 C 8.323 40.153 10.981 44.689 13.779 45.623 C 14.106 45.732 14.484 45.808 14.9 45.808 C 15.92 45.808 17.171 45.348 18.473 43.783 C 20.061 41.879 21.703 40.02 23.398 38.211 C 24.498 38.801 25.706 39.13 26.941 39.163 C 26.944 39.196 26.947 39.228 26.95 39.26 C 26.737 39.514 26.529 39.771 26.325 40.032 C 25.469 41.119 25.291 41.345 22.535 41.912 C 21.751 42.074 19.669 42.503 19.639 43.963 C 19.606 45.557 22.1 46.227 22.384 46.298 C 23.374 46.546 24.328 46.668 25.238 46.668 C 27.451 46.668 29.398 45.941 30.954 44.534 C 30.906 50.218 31.143 55.819 31.826 57.526 C 32.385 58.923 33.75 62.338 38.064 62.337 C 38.697 62.337 39.393 62.264 40.16 62.099 C 44.662 61.134 46.617 59.145 47.373 54.758 C 47.778 52.413 48.472 46.815 48.799 43.812 C 49.488 44.028 50.376 44.126 51.335 44.126 C 53.336 44.126 55.645 43.701 57.093 43.029 C 58.719 42.273 61.655 40.419 61.122 38.809 L 61.122 38.809 Z  M 50.402 18.517 C 50.387 19.404 50.265 20.209 50.135 21.049 C 49.996 21.952 49.852 22.886 49.816 24.02 C 49.78 25.124 49.918 26.271 50.051 27.381 C 50.321 29.622 50.597 31.929 49.527 34.206 C 49.35 33.891 49.191 33.565 49.053 33.231 C 48.92 32.909 48.632 32.391 48.232 31.674 C 46.676 28.885 43.034 22.353 44.898 19.687 C 45.454 18.894 46.863 18.078 50.402 18.517 L 50.402 18.517 Z  M 46.113 3.499 C 51.299 3.613 55.401 5.553 58.305 9.264 C 60.532 12.111 58.079 25.063 50.979 36.238 C 50.907 36.147 50.835 36.056 50.763 35.966 L 50.673 35.854 C 52.508 32.823 52.15 29.825 51.83 27.167 C 51.699 26.076 51.575 25.046 51.607 24.078 C 51.639 23.052 51.775 22.172 51.906 21.321 C 52.067 20.273 52.231 19.188 52.186 17.909 C 52.22 17.775 52.233 17.617 52.216 17.429 C 52.1 16.202 50.7 12.532 47.846 9.21 C 46.285 7.393 44.009 5.36 40.901 3.989 C 42.238 3.712 44.066 3.453 46.113 3.499 L 46.113 3.499 Z  M 17.096 42.638 C 15.662 44.362 14.671 44.032 14.346 43.923 C 12.224 43.215 9.761 38.73 7.59 31.618 C 5.712 25.464 4.614 19.276 4.527 17.54 C 4.253 12.052 5.583 8.228 8.481 6.172 C 13.198 2.828 20.952 4.83 24.068 5.845 C 24.024 5.889 23.977 5.93 23.933 5.975 C 18.82 11.139 18.941 19.962 18.953 20.501 C 18.953 20.709 18.97 21.004 18.994 21.409 C 19.082 22.893 19.246 25.655 18.809 28.782 C 18.402 31.689 19.298 34.533 21.266 36.587 C 21.468 36.797 21.681 36.997 21.902 37.187 C 21.026 38.125 19.122 40.2 17.096 42.638 L 17.096 42.638 Z  M 22.56 35.348 C 20.973 33.692 20.253 31.39 20.583 29.03 C 21.045 25.726 20.874 22.849 20.783 21.303 C 20.77 21.087 20.758 20.897 20.752 20.748 C 21.499 20.085 24.96 18.231 27.429 18.796 C 28.555 19.054 29.242 19.821 29.527 21.141 C 31.004 27.972 29.722 30.819 28.693 33.107 C 28.481 33.578 28.28 34.024 28.109 34.484 L 27.976 34.841 C 27.64 35.742 27.328 36.579 27.134 37.374 C 25.448 37.37 23.807 36.649 22.56 35.347 L 22.56 35.348 Z  M 22.818 44.56 C 22.326 44.437 21.883 44.223 21.623 44.046 C 21.84 43.944 22.227 43.805 22.897 43.667 C 26.138 43 26.639 42.529 27.732 41.14 C 27.983 40.822 28.267 40.461 28.661 40.022 L 28.661 40.021 C 29.247 39.365 29.515 39.476 30.001 39.678 C 30.395 39.841 30.779 40.335 30.935 40.878 C 31.008 41.135 31.091 41.622 30.821 42.001 C 28.537 45.199 25.209 45.158 22.818 44.56 L 22.818 44.56 Z  M 39.785 60.348 C 35.819 61.198 34.414 59.174 33.489 56.861 C 32.892 55.367 32.598 48.633 32.806 41.196 C 32.809 41.097 32.795 41.001 32.768 40.911 C 32.743 40.734 32.706 40.558 32.657 40.386 C 32.347 39.303 31.593 38.398 30.687 38.023 C 30.327 37.874 29.667 37.601 28.874 37.803 C 29.043 37.106 29.336 36.319 29.655 35.467 L 29.788 35.108 C 29.938 34.704 30.127 34.285 30.326 33.842 C 31.404 31.448 32.879 28.169 31.278 20.762 C 30.678 17.988 28.675 16.633 25.638 16.948 C 23.817 17.136 22.151 17.871 21.32 18.292 C 21.142 18.382 20.978 18.47 20.826 18.555 C 21.058 15.759 21.934 10.535 25.211 7.23 C 27.274 5.149 30.022 4.122 33.37 4.177 C 39.967 4.285 44.197 7.671 46.585 10.492 C 48.642 12.923 49.756 15.372 50.201 16.693 C 46.857 16.353 44.583 17.012 43.431 18.661 C 40.923 22.245 44.803 29.203 46.667 32.547 C 47.009 33.16 47.304 33.689 47.397 33.914 C 48.004 35.386 48.791 36.368 49.364 37.085 C 49.54 37.305 49.711 37.518 49.841 37.705 C 48.828 37.996 47.009 38.671 47.175 42.043 C 47.041 43.734 46.091 51.655 45.608 54.454 C 44.97 58.151 43.61 59.528 39.785 60.348 L 39.785 60.348 Z  M 56.339 41.404 C 55.303 41.884 53.57 42.245 51.924 42.322 C 50.106 42.407 49.18 42.119 48.963 41.941 C 48.861 39.84 49.642 39.62 50.47 39.388 C 50.6 39.352 50.727 39.316 50.85 39.273 C 50.926 39.335 51.009 39.397 51.1 39.457 C 52.562 40.421 55.168 40.525 58.848 39.766 L 58.888 39.758 C 58.392 40.222 57.543 40.845 56.339 41.404 Z " fill="rgb(255,255,255)"/></g></svg>