<?xml version="1.0" encoding="UTF-8" standalone="no"?>
<!-- Generator: Gravit.io -->
<svg xmlns="http://www.w3.org/2000/svg" xmlns:xlink="http://www.w3.org/1999/xlink" style="isolation:isolate"
  viewBox="0 0 64 64" width="64pt" height="64pt">
  <defs>
    <clipPath id="_clipPath_uLGlEoG4uC3BfWAIxMrxjzhluzcydtOt">
      <rect width="64" height="64" />
    </clipPath>
  </defs>
  <g clip-path="url(#_clipPath_uLGlEoG4uC3BfWAIxMrxjzhluzcydtOt)">
    <g opacity="0.5">
      <path
        d=" M 47.238 60.952 L 62.476 60.952 C 63.318 60.952 64 61.636 64 62.476 L 64 62.476 C 64 63.318 63.318 64 62.476 64 L 47.238 64 C 46.398 64 45.716 63.318 45.716 62.476 L 45.716 62.476 C 45.716 61.636 46.398 60.952 47.238 60.952 Z "
        fill="rgb(77,97,110)" />
    </g>
    <g opacity="0.5">
      <path
        d=" M 22.856 60.952 L 41.144 60.952 C 41.984 60.952 42.668 61.636 42.668 62.476 L 42.668 62.476 C 42.668 63.318 41.984 64 41.144 64 L 22.856 64 C 22.016 64 21.332 63.318 21.332 62.476 L 21.332 62.476 C 21.332 61.636 22.016 60.952 22.856 60.952 Z "
        fill="rgb(77,97,110)" />
    </g>
    <path
      d=" M 1.524 60.952 L 16.762 60.952 C 17.602 60.952 18.286 61.636 18.286 62.476 L 18.286 62.476 C 18.286 63.318 17.602 64 16.762 64 L 1.524 64 C 0.682 64 0 63.318 0 62.476 L 0 62.476 C 0 61.636 0.682 60.952 1.524 60.952 Z "
      fill="rgb(234,94,94)" />
    <g opacity="0.5">
      <path
        d=" M 50.286 54.858 L 62.476 54.858 C 63.318 54.858 64 55.54 64 56.382 L 64 56.382 C 64 57.222 63.318 57.906 62.476 57.906 L 50.286 57.906 C 49.446 57.906 48.762 57.222 48.762 56.382 L 48.762 56.382 C 48.762 55.54 49.446 54.858 50.286 54.858 Z "
        fill="rgb(77,97,110)" />
    </g>
    <g opacity="0.5">
      <path
        d=" M 41.144 54.858 L 44.192 54.858 C 45.032 54.858 45.716 55.54 45.716 56.382 L 45.716 56.382 C 45.716 57.222 45.032 57.906 44.192 57.906 L 41.144 57.906 C 40.302 57.906 39.62 57.222 39.62 56.382 L 39.62 56.382 C 39.62 55.54 40.302 54.858 41.144 54.858 Z "
        fill="rgb(77,97,110)" />
    </g>
    <g opacity="0.5">
      <path
        d=" M 22.856 54.858 L 35.048 54.858 C 35.89 54.858 36.572 55.54 36.572 56.382 L 36.572 56.382 C 36.572 57.222 35.89 57.906 35.048 57.906 L 22.856 57.906 C 22.016 57.906 21.332 57.222 21.332 56.382 L 21.332 56.382 C 21.332 55.54 22.016 54.858 22.856 54.858 Z "
        fill="rgb(77,97,110)" />
    </g>
    <path
      d=" M 13.714 54.858 L 16.762 54.858 C 17.602 54.858 18.286 55.54 18.286 56.382 L 18.286 56.382 C 18.286 57.222 17.602 57.906 16.762 57.906 L 13.714 57.906 C 12.872 57.906 12.19 57.222 12.19 56.382 L 12.19 56.382 C 12.19 55.54 12.872 54.858 13.714 54.858 Z "
      fill="rgb(247,185,62)" />
    <path
      d=" M 1.524 54.858 L 7.618 54.858 C 8.46 54.858 9.142 55.54 9.142 56.382 L 9.142 56.382 C 9.142 57.222 8.46 57.906 7.618 57.906 L 1.524 57.906 C 0.682 57.906 0 57.222 0 56.382 L 0 56.382 C 0 55.54 0.682 54.858 1.524 54.858 Z "
      fill="rgb(86,179,180)" />
    <g opacity="0.5">
      <path
        d=" M 35.048 48.762 L 62.476 48.762 C 63.318 48.762 64 49.446 64 50.286 L 64 50.286 C 64 51.128 63.318 51.81 62.476 51.81 L 35.048 51.81 C 34.208 51.81 33.526 51.128 33.526 50.286 L 33.526 50.286 C 33.526 49.446 34.208 48.762 35.048 48.762 Z "
        fill="rgb(77,97,110)" />
    </g>
    <g opacity="0.5">
      <path
        d=" M 22.856 48.762 L 28.952 48.762 C 29.792 48.762 30.476 49.446 30.476 50.286 L 30.476 50.286 C 30.476 51.128 29.792 51.81 28.952 51.81 L 22.856 51.81 C 22.016 51.81 21.332 51.128 21.332 50.286 L 21.332 50.286 C 21.332 49.446 22.016 48.762 22.856 48.762 Z "
        fill="rgb(77,97,110)" />
    </g>
    <path
      d=" M 1.524 48.762 L 16.762 48.762 C 17.602 48.762 18.286 49.446 18.286 50.286 L 18.286 50.286 C 18.286 51.128 17.602 51.81 16.762 51.81 L 1.524 51.81 C 0.682 51.81 0 51.128 0 50.286 L 0 50.286 C 0 49.446 0.682 48.762 1.524 48.762 Z "
      fill="rgb(191,133,191)" />
    <g opacity="0.5">
      <path
        d=" M 56.382 42.668 L 62.476 42.668 C 63.318 42.668 64 43.35 64 44.192 L 64 44.192 C 64 45.032 63.318 45.716 62.476 45.716 L 56.382 45.716 C 55.54 45.716 54.858 45.032 54.858 44.192 L 54.858 44.192 C 54.858 43.35 55.54 42.668 56.382 42.668 Z "
        fill="rgb(77,97,110)" />
    </g>
    <g opacity="0.5">
      <path
        d=" M 44.192 42.668 L 50.286 42.668 C 51.128 42.668 51.81 43.35 51.81 44.192 L 51.81 44.192 C 51.81 45.032 51.128 45.716 50.286 45.716 L 44.192 45.716 C 43.35 45.716 42.668 45.032 42.668 44.192 L 42.668 44.192 C 42.668 43.35 43.35 42.668 44.192 42.668 Z "
        fill="rgb(77,97,110)" />
    </g>
    <path
      d=" M 10.666 42.668 L 38.096 42.668 C 38.938 42.668 39.62 43.35 39.62 44.192 L 39.62 44.192 C 39.62 45.032 38.938 45.716 38.096 45.716 L 10.666 45.716 C 9.826 45.716 9.142 45.032 9.142 44.192 L 9.142 44.192 C 9.142 43.35 9.826 42.668 10.666 42.668 Z "
      fill="rgb(247,185,62)" />
    <path
      d=" M 1.524 42.668 L 4.572 42.668 C 5.412 42.668 6.096 43.35 6.096 44.192 L 6.096 44.192 C 6.096 45.032 5.412 45.716 4.572 45.716 L 1.524 45.716 C 0.682 45.716 0 45.032 0 44.192 L 0 44.192 C 0 43.35 0.682 42.668 1.524 42.668 Z "
      fill="rgb(191,133,191)" />
    <g opacity="0.5">
      <path
        d=" M 53.334 36.572 L 62.476 36.572 C 63.318 36.572 64 37.256 64 38.096 L 64 38.096 C 64 38.938 63.318 39.62 62.476 39.62 L 53.334 39.62 C 52.492 39.62 51.81 38.938 51.81 38.096 L 51.81 38.096 C 51.81 37.256 52.492 36.572 53.334 36.572 Z "
        fill="rgb(77,97,110)" />
    </g>
    <path
      d=" M 38.096 36.572 L 47.238 36.572 C 48.08 36.572 48.762 37.256 48.762 38.096 L 48.762 38.096 C 48.762 38.938 48.08 39.62 47.238 39.62 L 38.096 39.62 C 37.256 39.62 36.572 38.938 36.572 38.096 L 36.572 38.096 C 36.572 37.256 37.256 36.572 38.096 36.572 Z "
      fill="rgb(191,133,191)" />
    <path
      d=" M 19.81 36.572 L 32 36.572 C 32.842 36.572 33.526 37.256 33.526 38.096 L 33.526 38.096 C 33.526 38.938 32.842 39.62 32 39.62 L 19.81 39.62 C 18.968 39.62 18.286 38.938 18.286 38.096 L 18.286 38.096 C 18.286 37.256 18.968 36.572 19.81 36.572 Z "
      fill="rgb(234,94,94)" />
    <path
      d=" M 1.524 36.572 L 13.714 36.572 C 14.554 36.572 15.238 37.256 15.238 38.096 L 15.238 38.096 C 15.238 38.938 14.554 39.62 13.714 39.62 L 1.524 39.62 C 0.682 39.62 0 38.938 0 38.096 L 0 38.096 C 0 37.256 0.682 36.572 1.524 36.572 Z "
      fill="rgb(86,179,180)" />
    <g opacity="0.5">
      <path
        d=" M 56.382 30.476 L 62.476 30.476 C 63.318 30.476 64 31.158 64 32 L 64 32 C 64 32.842 63.318 33.526 62.476 33.526 L 56.382 33.526 C 55.54 33.526 54.858 32.842 54.858 32 L 54.858 32 C 54.858 31.158 55.54 30.476 56.382 30.476 Z "
        fill="rgb(77,97,110)" />
    </g>
    <path
      d=" M 25.904 30.476 L 50.286 30.476 C 51.128 30.476 51.81 31.158 51.81 32 L 51.81 32 C 51.81 32.842 51.128 33.526 50.286 33.526 L 25.904 33.526 C 25.062 33.526 24.38 32.842 24.38 32 L 24.38 32 C 24.38 31.158 25.062 30.476 25.904 30.476 Z "
      fill="rgb(86,179,180)" />
    <path
      d=" M 10.666 30.476 L 19.808 30.476 C 20.65 30.476 21.332 31.158 21.332 32 L 21.332 32 C 21.332 32.842 20.65 33.526 19.808 33.526 L 10.666 33.526 C 9.826 33.526 9.142 32.842 9.142 32 L 9.142 32 C 9.142 31.158 9.826 30.476 10.666 30.476 Z "
      fill="rgb(247,185,62)" />
    <path
      d=" M 1.524 30.476 L 4.572 30.476 C 5.412 30.476 6.096 31.158 6.096 32 L 6.096 32 C 6.096 32.842 5.412 33.526 4.572 33.526 L 1.524 33.526 C 0.682 33.526 0 32.842 0 32 L 0 32 C 0 31.158 0.682 30.476 1.524 30.476 Z "
      fill="rgb(234,94,94)" />
    <g opacity="0.5">
      <path
        d=" M 59.428 24.38 L 62.476 24.38 C 63.318 24.38 64 25.062 64 25.904 L 64 25.904 C 64 26.744 63.318 27.428 62.476 27.428 L 59.428 27.428 C 58.588 27.428 57.906 26.744 57.906 25.904 L 57.906 25.904 C 57.906 25.062 58.588 24.38 59.428 24.38 Z "
        fill="rgb(77,97,110)" />
    </g>
    <path
      d=" M 38.096 24.38 L 53.334 24.38 C 54.174 24.38 54.858 25.062 54.858 25.904 L 54.858 25.904 C 54.858 26.744 54.174 27.428 53.334 27.428 L 38.096 27.428 C 37.256 27.428 36.572 26.744 36.572 25.904 L 36.572 25.904 C 36.572 25.062 37.256 24.38 38.096 24.38 Z "
      fill="rgb(247,185,62)" />
    <g opacity="0.5">
      <path
        d=" M 22.856 24.38 L 32 24.38 C 32.842 24.38 33.526 25.062 33.526 25.904 L 33.526 25.904 C 33.526 26.744 32.842 27.428 32 27.428 L 22.856 27.428 C 22.016 27.428 21.332 26.744 21.332 25.904 L 21.332 25.904 C 21.332 25.062 22.016 24.38 22.856 24.38 Z "
        fill="rgb(77,97,110)" />
    </g>
    <path
      d=" M 1.524 24.38 L 16.762 24.38 C 17.602 24.38 18.286 25.062 18.286 25.904 L 18.286 25.904 C 18.286 26.744 17.602 27.428 16.762 27.428 L 1.524 27.428 C 0.682 27.428 0 26.744 0 25.904 L 0 25.904 C 0 25.062 0.682 24.38 1.524 24.38 Z "
      fill="rgb(191,133,191)" />
    <g opacity="0.5">
      <path
        d=" M 59.428 18.286 L 62.476 18.286 C 63.318 18.286 64 18.968 64 19.808 L 64 19.808 C 64 20.65 63.318 21.332 62.476 21.332 L 59.428 21.332 C 58.588 21.332 57.906 20.65 57.906 19.808 L 57.906 19.808 C 57.906 18.968 58.588 18.286 59.428 18.286 Z "
        fill="rgb(77,97,110)" />
    </g>
    <path
      d=" M 38.096 18.286 L 53.334 18.286 C 54.174 18.286 54.858 18.968 54.858 19.808 L 54.858 19.808 C 54.858 20.65 54.174 21.332 53.334 21.332 L 38.096 21.332 C 37.256 21.332 36.572 20.65 36.572 19.808 L 36.572 19.808 C 36.572 18.968 37.256 18.286 38.096 18.286 Z "
      fill="rgb(234,94,94)" />
    <g opacity="0.5">
      <path
        d=" M 22.856 18.286 L 32 18.286 C 32.842 18.286 33.526 18.968 33.526 19.808 L 33.526 19.808 C 33.526 20.65 32.842 21.332 32 21.332 L 22.856 21.332 C 22.016 21.332 21.332 20.65 21.332 19.808 L 21.332 19.808 C 21.332 18.968 22.016 18.286 22.856 18.286 Z "
        fill="rgb(77,97,110)" />
    </g>
    <path
      d=" M 13.714 18.286 L 16.762 18.286 C 17.602 18.286 18.286 18.968 18.286 19.808 L 18.286 19.808 C 18.286 20.65 17.602 21.332 16.762 21.332 L 13.714 21.332 C 12.872 21.332 12.19 20.65 12.19 19.808 L 12.19 19.808 C 12.19 18.968 12.872 18.286 13.714 18.286 Z "
      fill="rgb(86,179,180)" />
    <path
      d=" M 1.524 18.286 L 7.618 18.286 C 8.46 18.286 9.142 18.968 9.142 19.808 L 9.142 19.808 C 9.142 20.65 8.46 21.332 7.618 21.332 L 1.524 21.332 C 0.682 21.332 0 20.65 0 19.808 L 0 19.808 C 0 18.968 0.682 18.286 1.524 18.286 Z "
      fill="rgb(247,185,62)" />
    <g opacity="0.5">
      <path
        d=" M 56.382 12.19 L 62.476 12.19 C 63.318 12.19 64 12.872 64 13.714 L 64 13.714 C 64 14.554 63.318 15.238 62.476 15.238 L 56.382 15.238 C 55.54 15.238 54.858 14.554 54.858 13.714 L 54.858 13.714 C 54.858 12.872 55.54 12.19 56.382 12.19 Z "
        fill="rgb(77,97,110)" />
    </g>
    <path
      d=" M 47.238 12.19 L 50.286 12.19 C 51.128 12.19 51.81 12.872 51.81 13.714 L 51.81 13.714 C 51.81 14.554 51.128 15.238 50.286 15.238 L 47.238 15.238 C 46.398 15.238 45.716 14.554 45.716 13.714 L 45.716 13.714 C 45.716 12.872 46.398 12.19 47.238 12.19 Z "
      fill="rgb(86,179,180)" />
    <path
      d=" M 28.952 12.19 L 41.144 12.19 C 41.984 12.19 42.668 12.872 42.668 13.714 L 42.668 13.714 C 42.668 14.554 41.984 15.238 41.144 15.238 L 28.952 15.238 C 28.11 15.238 27.428 14.554 27.428 13.714 L 27.428 13.714 C 27.428 12.872 28.11 12.19 28.952 12.19 Z "
      fill="rgb(191,133,191)" />
    <path
      d=" M 1.524 12.19 L 22.856 12.19 C 23.698 12.19 24.38 12.872 24.38 13.714 L 24.38 13.714 C 24.38 14.554 23.698 15.238 22.856 15.238 L 1.524 15.238 C 0.682 15.238 0 14.554 0 13.714 L 0 13.714 C 0 12.872 0.682 12.19 1.524 12.19 Z "
      fill="rgb(86,179,180)" />
    <g opacity="0.5">
      <path
        d=" M 53.334 6.096 L 62.476 6.096 C 63.318 6.096 64 6.778 64 7.618 L 64 7.618 C 64 8.46 63.318 9.142 62.476 9.142 L 53.334 9.142 C 52.492 9.142 51.81 8.46 51.81 7.618 L 51.81 7.618 C 51.81 6.778 52.492 6.096 53.334 6.096 Z "
        fill="rgb(77,97,110)" />
    </g>
    <path
      d=" M 16.762 6.096 L 47.238 6.096 C 48.08 6.096 48.762 6.778 48.762 7.618 L 48.762 7.618 C 48.762 8.46 48.08 9.142 47.238 9.142 L 16.762 9.142 C 15.92 9.142 15.238 8.46 15.238 7.618 L 15.238 7.618 C 15.238 6.778 15.92 6.096 16.762 6.096 Z "
      fill="rgb(247,185,62)" />
    <path
      d=" M 1.524 6.096 L 10.666 6.096 C 11.508 6.096 12.19 6.778 12.19 7.618 L 12.19 7.618 C 12.19 8.46 11.508 9.142 10.666 9.142 L 1.524 9.142 C 0.682 9.142 0 8.46 0 7.618 L 0 7.618 C 0 6.778 0.682 6.096 1.524 6.096 Z "
      fill="rgb(234,94,94)" />
    <g opacity="0.5">
      <path
        d=" M 44.192 0 L 62.476 0 C 63.318 0 64 0.682 64 1.524 L 64 1.524 C 64 2.364 63.318 3.048 62.476 3.048 L 44.192 3.048 C 43.35 3.048 42.668 2.364 42.668 1.524 L 42.668 1.524 C 42.668 0.682 43.35 0 44.192 0 Z "
        fill="rgb(77,97,110)" />
    </g>
    <path
      d=" M 1.524 0 L 38.096 0 C 38.938 0 39.62 0.682 39.62 1.524 L 39.62 1.524 C 39.62 2.364 38.938 3.048 38.096 3.048 L 1.524 3.048 C 0.682 3.048 0 2.364 0 1.524 L 0 1.524 C 0 0.682 0.682 0 1.524 0 Z "
      fill="rgb(86,179,180)" />
  </g>
</svg>