<svg xmlns="http://www.w3.org/2000/svg" width="512pt" height="512pt" style="isolation:isolate" viewBox="0 0 512 512"><defs><clipPath id="a"><path d="M0 0h512v512H0z"/></clipPath></defs><g clip-path="url(#a)"><path fill="#E23237" d="M512 256c0 141.384-114.616 256-256 256C114.616 512 0 397.384 0 256 0 114.616 114.616 0 256 0c141.384 0 256 114.616 256 256Z"/><path fill="#B52E31" d="M512 256c0-.832-.054-1.65-.062-2.48-51.156-49.316-102.888-99.266-104.34-100.984-36.064-42.676-89.982-69.776-150.23-69.776-108.576 0-196.596 88.02-196.596 196.596 0 15.022 1.74 29.628 4.932 43.682 71.258 75.07 137.53 143.342 187.13 188.882 1.058.014 2.104.08 3.166.08 141.384 0 256-114.614 256-256Z"/><path fill="#FFF" d="M383.743 276.51h-251.73c-.002-.342-.024-.678-.024-1.02 0-69.528 56.362-125.89 125.89-125.89 69.526 0 125.89 56.362 125.89 125.89 0 .342-.024.678-.026 1.02Zm29.788-5.698h40.218c-2.164-50.584-23.424-96.212-56.778-129.856l-27.772 27.774-6.716-6.714 27.642-27.642c-34.062-31.206-79.16-50.52-128.76-51.514v35.786h-9.496V82.898c-49.63 1.368-94.652 21.098-128.52 52.68l25.284 25.284-6.714 6.714-25.356-25.356c-32.652 33.52-53.436 78.63-55.576 128.592h36.818v9.496H60.799a197.08 197.08 0 0 0 4.904 42.73h383.332a197.204 197.204 0 0 0 4.904-42.73h-40.408v-9.496Z"/></g></svg>