<svg xmlns="http://www.w3.org/2000/svg" width="512pt" height="512pt" style="isolation:isolate" viewBox="0 0 512 512"><defs><clipPath id="a"><path d="M0 0h512v512H0z"/></clipPath></defs><g clip-path="url(#a)"><path fill="#3D3D3D" d="m376.818 317.859 14.791-37.403h42.707l-20.267-56.739 25.348-64.102L512 352.384h-53.542l-12.407-34.525h-69.233Z"/><path fill="#5A0FC8" d="m331.14 352.385 77.723-192.77-51.528.001-53.167 124.572-37.807-124.572h-39.607l-40.595 124.572-28.629-56.765-25.907 79.817 26.304 45.145h50.71l36.683-111.714 34.976 111.714h50.844Z"/><path fill="#3D3D3D" d="M48.912 286.21H80.65c9.614 0 18.175-1.073 25.683-3.219l8.208-25.288 22.94-70.674a56.424 56.424 0 0 0-5.986-7.858c-11.779-13.037-29.011-19.556-51.699-19.556H0v192.769h48.912V286.21Zm42.01-82.246c4.601 4.63 6.901 10.826 6.901 18.589 0 7.822-2.023 14.026-6.069 18.611-4.435 5.095-12.602 7.643-24.5 7.643H48.912v-51.789h18.476c11.089 0 18.934 2.315 23.534 6.946Z"/></g></svg>