<svg xmlns="http://www.w3.org/2000/svg" width="512pt" height="512pt" style="isolation:isolate" viewBox="0 0 512 512"><defs><clipPath id="a"><path d="M0 0h512v512H0z"/></clipPath></defs><g clip-path="url(#a)"><linearGradient id="b" x1=".635" x2=".148" y1=".999" y2=".288" gradientTransform="matrix(512 0 0 363.955 0 74.022)" gradientUnits="userSpaceOnUse"><stop offset="0%" stop-opacity=".996" style="stop-color:#be0000"/><stop offset="100%" style="stop-color:red"/></linearGradient><path fill="url(#b)" d="M.015 74.022H0L4.673 86.26l20.73 54.368 113.315 297.35H512l-299.112-300.41C173.04 97.701 118.951 74.022 62.6 74.022H.015Z"/><path fill="#FFF" d="M25.394 140.629c40.868 69.795 148.119 77.157 159.782 185.687.482 4.45 3.894 8.029 8.344 8.733 61.803 9.661 121.993 35.102 174.301 77.027l.03.029c.352.278.705.408 1.168.408.462 0 .927-.167 1.298-.5a1.875 1.875 0 0 0 .059-2.633c-36.214-38.068-80.475-68.496-130.151-88.485l-15.112-6.082c-7.788-3.134-13.184-10.848-12.943-19.73.834-32.412 77.527-25.83 85.296-41.406l1.335-2.688a143.292 143.292 0 0 0-55.201-29.316c-.186.779-.686 4.561 3.504 11.404 4.58 7.454-4.988 19.284-18.932 6.508l-1.167-1.058C123.388 143.589 45.713 192.82 4.66 86.255l20.73 54.367.004.007Z"/><linearGradient id="c" x1=".454" x2=".543" y1="1.036" y2=".027" gradientTransform="matrix(34.619 0 0 38.031 239.92 233.081)" gradientUnits="userSpaceOnUse"><stop offset="0%" style="stop-color:#fff"/><stop offset="65%" style="stop-color:#fff"/><stop offset="95%" style="stop-color:#a2a5a3"/><stop offset="100%" style="stop-color:#a2a5a3"/></linearGradient><path fill="url(#c)" d="M239.92 245.245v25.867c11.181-3.226 23.901-5.229 34.619-7.472v-14.408s-16.985.835-27.406-16.151c3.097 5.062-.334 12.146-7.213 12.164"/><linearGradient id="d" x1="0" x2="1" y1=".5" y2=".5" gradientTransform="matrix(161.47 0 0 76.692 206.339 335.381)" gradientUnits="userSpaceOnUse"><stop offset="0%" style="stop-color:#fff"/><stop offset="90%" style="stop-color:#a2a5a3"/><stop offset="100%" style="stop-color:#a2a5a3"/></linearGradient><path fill="url(#d)" d="M206.339 337.291c57.278 11.014 112.795 35.75 161.47 74.783-77.88-66.55-125.349-76.693-147.211-76.693-8.603 0-13.258 1.576-14.259 1.91Z"/><linearGradient id="e" x1="0" x2="1" y1=".5" y2=".5" gradientTransform="matrix(180.513 0 0 240.016 4.669 86.26)" gradientUnits="userSpaceOnUse"><stop offset="0%" style="stop-color:#fff"/><stop offset="43%" style="stop-color:#fff"/><stop offset="100%" style="stop-color:#a2a5a3"/></linearGradient><path fill="url(#e)" d="M4.669 86.26 25.4 140.628c40.849 69.794 148.1 77.156 159.782 185.649C173.37 187.8 112.55 208.494 47.206 145.486 30.351 133.489 16.091 115.91 4.669 86.26Z"/></g></svg>