<svg xmlns="http://www.w3.org/2000/svg" width="167.023" height="34.047" style="isolation:isolate" viewBox="0 0 125.267 25.535"><defs><clipPath id="a"><path d="M0 0h125.267v25.535H0z"/></clipPath></defs><g clip-path="url(#a)"><linearGradient id="b" x1=".635" x2=".148" y1=".999" y2=".288" gradientTransform="matrix(34.515 0 0 24.535 .5 .5)" gradientUnits="userSpaceOnUse"><stop offset="0%" stop-opacity=".996" style="stop-color:#be0000"/><stop offset="100%" style="stop-color:red"/></linearGradient><path fill="url(#b)" d="M.501.5H.5l.315.825L2.213 4.99l7.638 20.045h25.164L14.851 4.784C12.165 2.096 8.519.5 4.72.5H.501Z"/><path fill="#FFF" d="M2.212 4.99c2.755 4.705 9.985 5.201 10.771 12.518a.67.67 0 0 0 .563.588 24.898 24.898 0 0 1 11.75 5.193l.002.002a.114.114 0 0 0 .078.027.132.132 0 0 0 .088-.033.127.127 0 0 0 .004-.178 25.006 25.006 0 0 0-8.774-5.965l-1.019-.41a1.392 1.392 0 0 1-.872-1.33c.056-2.185 5.226-1.741 5.75-2.791l.09-.181a9.672 9.672 0 0 0-3.721-1.977c-.013.053-.047.308.236.769.309.503-.336 1.3-1.276.439l-.079-.071C8.818 5.19 3.582 8.508.814 1.325L2.212 4.99Z"/><linearGradient id="c" x1=".454" x2=".543" y1="1.036" y2=".027" gradientTransform="matrix(2.334 0 0 2.564 16.674 11.222)" gradientUnits="userSpaceOnUse"><stop offset="0%" style="stop-color:#fff"/><stop offset="65%" style="stop-color:#fff"/><stop offset="95%" style="stop-color:#a2a5a3"/><stop offset="100%" style="stop-color:#a2a5a3"/></linearGradient><path fill="url(#c)" d="M16.674 12.042v1.744c.753-.217 1.611-.352 2.333-.504v-.971s-1.145.057-1.847-1.089a.543.543 0 0 1-.486.82"/><linearGradient id="d" x1="0" x2="1" y1=".5" y2=".5" gradientTransform="matrix(10.885 0 0 5.17 14.41 18.119)" gradientUnits="userSpaceOnUse"><stop offset="0%" style="stop-color:#fff"/><stop offset="90%" style="stop-color:#a2a5a3"/><stop offset="100%" style="stop-color:#a2a5a3"/></linearGradient><path fill="url(#d)" d="M14.41 18.247a24.861 24.861 0 0 1 10.885 5.042c-5.25-4.487-8.45-5.17-9.924-5.17-.58 0-.894.106-.961.128Z"/><linearGradient id="e" x1="0" x2="1" y1=".5" y2=".5" gradientTransform="matrix(12.169 0 0 16.18 .815 1.325)" gradientUnits="userSpaceOnUse"><stop offset="0%" style="stop-color:#fff"/><stop offset="43%" style="stop-color:#fff"/><stop offset="100%" style="stop-color:#a2a5a3"/></linearGradient><path fill="url(#e)" d="M.815 1.325 2.212 4.99c2.754 4.705 9.984 5.201 10.772 12.515-.797-9.335-4.897-7.94-9.302-12.188C2.546 4.509 1.585 3.324.815 1.325Z"/><path fill="#323232" d="M37.713 17.887c2.716 0 5.002-1.343 5.002-3.187 0-1.844-2.286-3.188-5.002-3.188-2.716 0-5.003 1.344-5.003 3.188s2.287 3.187 5.003 3.187Zm-.143 2.644c-4.975 0-8.133-2.586-8.133-5.831 0-3.301 3.345-5.831 8.276-5.831 4.931 0 8.276 2.543 8.276 5.702 0 1.415-.629 2.574-1.83 3.545h2.93l-.7 1.201c-.444.758-.986 1.214-2.159 1.214h-6.66Zm15.235-4.33h5.174l-2.401-4.274c-.057-.1-.1-.129-.185-.129-.087 0-.129.029-.187.129l-2.401 4.274Zm6.504 2.358h-7.833l-1.115 1.973h-3.245l5.432-9.405c.428-.744 1.043-1.315 2.272-1.315h1.215c1.23 0 1.844.571 2.273 1.315l5.431 9.405h-3.315l-1.115-1.973Zm19.895-8.747v10.72h-2.902l-8.518-7.104v7.104h-2.903V9.812h1.816c.929 0 1.4.242 1.929.7l7.676 6.39v-7.09h2.902Zm10.318 2.415v8.305h-2.901v-8.305h-5.946V9.812h14.793v2.415h-5.946Zm9.104 3.974h5.174l-2.401-4.274c-.058-.1-.1-.129-.185-.129-.087 0-.129.029-.187.129l-2.401 4.274Zm6.504 2.358h-7.833l-1.115 1.973h-3.245l5.432-9.405c.428-.744 1.043-1.315 2.272-1.315h1.215c1.23 0 1.844.571 2.273 1.315l5.431 9.405h-3.315l-1.115-1.973Zm5.43 1.201-.272-.086.729-2.329c2.086.671 4.316.942 6.331.942 3.303 0 4.118-.386 4.118-.8 0-.171-.115-.3-.373-.386-.328-.114-1.243-.3-3.945-.742-2.987-.487-4.33-.73-5.316-1.188-.986-.456-1.587-1.186-1.587-2.257 0-.815.401-1.473 1.043-1.988 1.144-.886 3.102-1.242 5.232-1.242 2.745 0 5.046.228 7.603.857l.229.071-.614 2.273c-2.858-.615-4.445-.786-6.617-.815-1.53-.014-2.588.1-3.145.271-.315.101-.444.244-.444.415 0 .158.1.3.415.4.343.115.9.244 3.83.715 3.174.515 4.218.729 5.089 1.073 1.186.456 1.901 1.3 1.901 2.357 0 1.33-1.029 2.316-2.816 2.859-1.1.329-2.573.515-4.23.515-2.601 0-5.375-.344-7.161-.915"/></g></svg>