<svg xmlns="http://www.w3.org/2000/svg" width="512pt" height="512pt" style="isolation:isolate" viewBox="0 0 512 512"><defs><clipPath id="a"><path d="M0 0h512v512H0z"/></clipPath></defs><g clip-path="url(#a)"><path d="M164.065.008c-2.589.08-5.377 1.036-8.539 3.532-7.748-2.988-15.259-4.026-21.976 2.056-10.373-1.345-13.744 1.431-16.298 4.673-2.277-.048-17.039-2.341-23.808 7.757-17.012-2.013-22.389 10.006-16.297 21.215-3.474 5.378-7.074 10.692 1.051 20.946-2.874 5.711-1.093 11.906 5.678 19.404-1.787 8.029 1.726 13.693 8.026 18.107-1.178 10.987 10.075 17.374 13.435 19.65 1.29 6.402 3.979 12.443 16.833 15.783 2.12 9.54 9.845 11.187 17.325 13.189-24.724 14.372-45.926 33.281-45.783 79.677l-3.621 6.46c-28.35 17.241-53.856 72.652-13.971 117.691 2.605 14.098 6.974 24.225 10.865 35.432 5.818 45.162 43.793 66.308 53.808 68.809 14.677 11.18 30.309 21.788 51.462 29.218 19.94 20.566 41.543 28.404 63.265 28.391.318 0 .642.004.961 0 21.721.014 43.323-7.824 63.265-28.391 21.152-7.43 36.784-18.038 51.461-29.218 10.016-2.501 47.99-23.647 53.809-68.809 3.89-11.207 8.259-21.334 10.864-35.432 39.884-45.042 14.379-100.458-13.971-117.698l-3.627-6.459c.143-46.393-21.059-65.302-45.783-79.677 7.48-2.002 15.206-3.649 17.325-13.19 12.854-3.34 15.544-9.381 16.833-15.782 3.361-2.276 14.614-8.664 13.435-19.65 6.3-4.415 9.813-10.079 8.026-18.107 6.771-7.498 8.553-13.693 5.678-19.404 8.127-10.25 4.521-15.564 1.052-20.942 6.087-11.209.715-23.228-16.303-21.215-6.768-10.098-21.525-7.805-23.807-7.757-2.554-3.242-5.924-6.018-16.296-4.673-6.717-6.082-14.229-5.044-21.976-2.056-9.199-7.26-15.287-1.44-22.24.76-11.139-3.64-13.685 1.345-19.158 3.375-12.147-2.566-15.838 3.022-21.661 8.92l-6.773-.134c-18.321 10.797-27.423 32.782-30.649 44.084-3.228-11.304-12.309-33.289-30.626-44.084l-6.774.134c-5.83-5.898-9.521-11.486-21.668-8.92-5.472-2.03-8.012-7.015-19.157-3.375-4.564-1.444-8.761-4.446-13.703-4.292l.008.002Z"/><path fill="#75A928" d="M127.589 47.507c48.608 25.06 76.866 45.332 92.346 62.597-7.928 31.775-49.285 33.225-64.408 32.333 3.096-1.441 5.68-3.167 6.596-5.82-3.795-2.696-17.249-.284-26.643-5.561 3.608-.747 5.296-1.476 6.984-4.139-8.875-2.83-18.434-5.269-24.056-9.958 3.034.037 5.867.679 9.829-2.069-7.949-4.284-16.431-7.679-23.021-14.227 4.11-.1 8.541-.04 9.829-1.552-7.275-4.507-13.414-9.52-18.495-15.002 5.752.694 8.18.096 9.571-.905-5.499-5.633-12.46-10.39-15.779-17.331 4.271 1.472 8.178 2.036 10.994-.129-1.869-4.216-9.875-6.703-14.485-16.555 4.495.436 9.264.981 10.217 0-2.086-8.501-5.667-13.28-9.179-18.232 9.622-.143 24.2.037 23.539-.776l-5.949-6.079c9.398-2.53 19.015.406 25.996 2.587 3.135-2.474-.055-5.602-3.88-8.795 7.987 1.066 15.204 2.903 21.728 5.432 3.485-3.147-2.264-6.294-5.044-9.441 12.339 2.341 17.567 5.63 22.762 8.924 3.77-3.613.216-6.684-2.328-9.829 9.304 3.446 14.097 7.895 19.142 12.286 1.711-2.308 4.346-4 1.164-9.571 6.606 3.808 11.581 8.295 15.261 13.322 4.088-2.603 2.435-6.162 2.458-9.442 6.865 5.585 11.222 11.528 16.555 17.331 1.074-.782 2.014-3.435 2.845-7.631 16.378 15.89 39.521 55.911 5.949 71.779-28.571-23.564-62.694-40.692-100.508-53.54l.01-.007Zm257.908 0c-48.601 25.062-76.858 45.328-92.338 62.597 7.928 31.775 49.285 33.225 64.408 32.333-3.096-1.441-5.68-3.167-6.596-5.82 3.795-2.696 17.249-.284 26.643-5.561-3.609-.747-5.296-1.476-6.984-4.139 8.874-2.83 18.434-5.269 24.056-9.958-3.034.037-5.867.679-9.829-2.069 7.949-4.284 16.431-7.679 23.021-14.227-4.11-.1-8.541-.04-9.829-1.552 7.275-4.507 13.413-9.52 18.495-15.002-5.752.694-8.181.096-9.571-.905 5.499-5.633 12.46-10.39 15.778-17.331-4.27 1.472-8.177 2.036-10.993-.129 1.869-4.216 9.875-6.703 14.485-16.555-4.496.436-9.264.981-10.217 0 2.09-8.505 5.671-13.284 9.182-18.236-9.622-.143-24.199.038-23.539-.776l5.949-6.078c-9.398-2.531-19.015.406-25.996 2.586-3.134-2.473.056-5.601 3.88-8.794-7.987 1.066-15.204 2.902-21.727 5.432-3.486-3.147 2.263-6.295 5.044-9.442-12.34 2.341-17.567 5.631-22.763 8.924-3.77-3.613-.216-6.683 2.328-9.829-9.304 3.446-14.096 7.895-19.142 12.287-1.71-2.309-4.345-4.001-1.164-9.571-6.605 3.808-11.581 8.295-15.261 13.321-4.087-2.602-2.435-6.161-2.457-9.441-6.865 5.584-11.222 11.527-16.555 17.33-1.074-.782-2.015-3.435-2.846-7.63-16.378 15.889-39.52 55.911-5.949 71.779 28.557-23.569 62.677-40.696 100.494-53.544h-.007Z"/><path fill="#BC1142" d="M315.407 371.068c.11 19.248-10.963 37.078-29.022 46.731-18.059 9.654-40.341 9.654-58.4 0-18.059-9.653-29.132-27.483-29.022-46.731-.11-19.249 10.963-37.078 29.022-46.732 18.059-9.653 40.341-9.653 58.4 0 18.059 9.654 29.132 27.483 29.022 46.732Zm-91.911-153.369c24.125 15.805 28.474 51.632 9.714 80.021-18.76 28.389-53.525 38.59-77.65 22.784-24.125-15.805-28.473-51.632-9.713-80.021 18.76-28.389 53.524-38.59 77.649-22.784Zm65.115-2.862c-24.125 15.806-28.474 51.633-9.714 80.022 18.76 28.389 53.525 38.589 77.65 22.784 24.124-15.806 28.473-51.633 9.713-80.022-18.76-28.389-53.525-38.59-77.649-22.784ZM102.924 243.54c26.046-6.982 8.793 107.754-12.399 98.34-23.312-18.75-30.82-73.661 12.399-98.34Zm301.001-1.431c-26.049-6.98-8.793 107.761 12.399 98.347 23.312-18.751 30.82-73.667-12.399-98.347Zm-88.497-85.442c44.95-7.59 82.352 19.115 80.843 67.857-1.479 18.686-97.404-65.075-80.843-67.857Zm-124.193-1.431c-44.953-7.59-82.352 19.121-80.843 67.859 1.479 18.685 97.403-65.076 80.843-67.859Zm64.568-11.367c-26.828-.698-52.575 19.911-52.637 31.865-.075 14.524 21.211 29.396 52.819 29.773 32.279.231 52.877-11.904 52.98-26.893.118-16.983-29.357-35.008-53.163-34.746l.001.001Zm1.638 297.846c23.39-1.021 54.776 7.534 54.837 18.883.389 11.02-28.464 35.919-56.388 35.437-28.92 1.248-57.278-23.69-56.907-32.333-.433-12.674 35.214-22.568 58.458-21.987Zm-86.394-67.258c16.653 20.063 24.245 55.311 10.347 65.702-13.147 7.931-45.076 4.665-67.77-27.937-15.305-27.356-13.333-55.194-2.586-63.372 16.069-9.789 40.899 3.433 60.01 25.607h-.001Zm169.454-6.359c-18.017 21.104-28.05 59.596-14.906 71.993 12.567 9.632 46.304 8.286 71.225-26.293 18.096-23.225 12.032-62.009 1.696-72.309-15.354-11.876-37.397 3.323-58.015 26.603v.006Z"/></g></svg>