<?xml version="1.0" encoding="UTF-8" standalone="no"?>
<!-- Generator: Gravit.io -->
<svg xmlns="http://www.w3.org/2000/svg" xmlns:xlink="http://www.w3.org/1999/xlink" style="isolation:isolate" viewBox="0 0 64 64" width="64pt" height="64pt"><defs><clipPath id="_clipPath_nDeIeF6xWblIF85CbcAhjAr7XjTfw9u8"><rect width="64" height="64"/></clipPath></defs><g clip-path="url(#_clipPath_nDeIeF6xWblIF85CbcAhjAr7XjTfw9u8)"><g><path d=" M 61.493 46.766 C 58.077 48.547 40.384 55.821 36.617 57.785 C 32.851 59.749 30.758 59.73 27.782 58.308 C 24.807 56.885 5.978 49.28 2.586 47.658 C 0.892 46.848 0 46.164 0 45.518 L 0 39.049 C 0 39.049 24.513 33.713 28.47 32.293 C 32.427 30.874 33.8 30.822 37.167 32.056 C 40.535 33.29 60.672 36.923 64 38.142 L 63.999 44.519 C 63.999 45.159 63.231 45.86 61.493 46.766" fill="rgb(145,38,38)"/><path d=" M 61.491 40.336 C 58.076 42.115 40.384 49.39 36.617 51.354 C 32.85 53.318 30.758 53.299 27.782 51.876 C 24.806 50.455 5.979 42.848 2.587 41.228 C -0.804 39.606 -0.875 38.491 2.456 37.186 C 5.788 35.881 24.512 28.535 28.47 27.115 C 32.427 25.696 33.8 25.644 37.167 26.878 C 40.535 28.112 58.122 35.112 61.45 36.331 C 64.779 37.551 64.906 38.556 61.491 40.336" fill="rgb(198,48,43)"/><path d=" M 61.493 36.299 C 58.077 38.08 40.384 45.354 36.617 47.319 C 32.851 49.282 30.758 49.263 27.782 47.84 C 24.806 46.419 5.978 38.812 2.586 37.191 C 0.892 36.381 0 35.698 0 35.052 L 0 28.582 C 0 28.582 24.513 23.246 28.47 21.826 C 32.427 20.407 33.8 20.355 37.167 21.589 C 40.536 22.823 60.672 26.455 64 27.674 L 63.999 34.052 C 63.999 34.692 63.231 35.393 61.493 36.299 Z " fill="rgb(145,38,38)"/><path d=" M 61.491 29.868 C 58.076 31.648 40.384 38.923 36.617 40.887 C 32.85 42.851 30.758 42.831 27.782 41.409 C 24.806 39.987 5.979 32.381 2.587 30.76 C -0.804 29.14 -0.875 28.024 2.456 26.719 C 5.788 25.414 24.513 18.068 28.47 16.648 C 32.427 15.229 33.8 15.177 37.167 16.411 C 40.535 17.644 58.122 24.644 61.45 25.863 C 64.779 27.083 64.906 28.088 61.491 29.868" fill="rgb(198,48,43)"/><path d=" M 61.493 25.444 C 58.077 27.224 40.384 34.499 36.617 36.463 C 32.851 38.427 30.758 38.408 27.782 36.985 C 24.806 35.563 5.978 27.957 2.586 26.336 C 0.892 25.526 0 24.842 0 24.197 L 0 17.727 C 0 17.727 24.513 12.391 28.47 10.972 C 32.427 9.552 33.8 9.501 37.167 10.734 C 40.536 11.968 60.672 15.6 64 16.819 L 63.999 23.197 C 63.999 23.836 63.231 24.538 61.493 25.444 Z " fill="rgb(145,38,38)"/><path d=" M 61.491 19.013 C 58.076 20.793 40.384 28.068 36.617 30.032 C 32.85 31.995 30.758 31.976 27.782 30.554 C 24.807 29.132 5.979 21.526 2.588 19.905 C -0.804 18.284 -0.875 17.168 2.456 15.863 C 5.788 14.559 24.513 7.213 28.47 5.793 C 32.427 4.373 33.8 4.322 37.167 5.556 C 40.535 6.79 58.122 13.79 61.45 15.009 C 64.779 16.228 64.906 17.233 61.491 19.013" fill="rgb(198,48,43)"/><path d=" M 39.821 12.72 L 34.318 13.291 L 33.087 16.255 L 31.097 12.948 L 24.743 12.377 L 29.484 10.667 L 28.062 8.042 L 32.501 9.778 L 36.685 8.408 L 35.554 11.122 L 39.821 12.72 M 32.758 27.099 L 22.489 22.84 L 37.204 20.581 L 32.758 27.099 M 18.521 14.367 C 22.864 14.367 26.386 15.732 26.386 17.416 C 26.386 19.1 22.864 20.465 18.521 20.465 C 14.177 20.465 10.655 19.1 10.655 17.416 C 10.655 15.732 14.177 14.367 18.521 14.367 Z " fill="rgb(255,255,255)"/><path d=" M 46.324 13.53 L 55.033 16.972 L 46.331 20.41 L 46.324 13.53" fill="rgb(98,27,28)"/><path d=" M 36.689 17.341 L 46.324 13.53 L 46.331 20.41 L 45.387 20.779 L 36.689 17.341 Z " fill="rgb(154,41,40)"/></g></g></svg>