<svg xmlns="http://www.w3.org/2000/svg" width="512pt" height="512pt" style="isolation:isolate" viewBox="0 0 512 512"><defs><clipPath id="a"><path d="M0 0h512v512H0z"/></clipPath></defs><g fill="#764ABC" clip-path="url(#a)"><path d="M354.762 352.428c18.895-1.954 33.229-18.243 32.577-37.789-.652-19.547-16.94-35.184-36.486-35.184h-1.303c-20.198.652-35.835 17.592-35.184 37.79.652 9.773 4.561 18.243 10.425 24.107-22.152 43.653-56.033 75.579-106.853 102.292-34.532 18.243-70.366 24.759-106.201 20.198-29.319-3.91-52.123-16.94-66.457-38.441-20.85-31.926-22.804-66.457-5.213-100.989 12.38-24.759 31.926-43.002 44.305-52.123-2.606-8.471-6.515-22.804-8.47-33.229-94.473 68.412-84.7 160.931-56.032 204.584 21.5 32.577 65.154 52.775 113.368 52.775 13.031 0 26.061-1.303 39.092-4.561 83.398-16.289 146.597-65.806 182.432-139.43Z"/><path d="M469.433 271.637c-49.517-57.987-122.49-89.913-205.887-89.913h-10.425c-5.863-11.727-18.243-19.546-31.925-19.546h-1.303c-20.198.652-35.835 17.592-35.183 37.789.651 19.547 16.94 35.184 36.486 35.184h1.303c14.334-.652 26.713-9.773 31.926-22.153h11.727c49.517 0 96.428 14.334 138.779 42.35 32.577 21.501 56.032 49.518 69.063 83.398 11.076 27.365 10.425 54.078-1.303 76.882-18.243 34.531-48.866 53.426-89.261 53.426-26.062 0-50.821-7.818-63.851-13.682-7.167 6.515-20.198 16.94-29.32 23.455 28.017 13.031 56.684 20.198 84.049 20.198 62.548 0 108.808-34.532 126.399-69.063 18.895-37.79 17.592-102.944-31.274-158.325Z"/><path d="M138.45 363.504c.652 19.547 16.94 35.184 36.486 35.184h1.304c20.197-.652 35.834-17.592 35.183-37.79-.652-19.546-16.94-35.183-36.487-35.183h-1.303c-1.303 0-3.257 0-4.56.651-26.714-44.304-37.79-92.518-33.881-144.642 2.607-39.092 15.637-72.972 38.441-100.989 18.895-24.107 55.381-35.834 80.14-36.486 69.063-1.303 98.383 84.7 100.337 119.232 8.47 1.955 22.804 6.516 32.577 9.773-7.818-105.549-72.972-160.279-135.52-160.279-58.639 0-112.717 42.35-134.218 104.898-29.971 83.398-10.424 163.537 26.062 226.737-3.258 4.56-5.212 11.727-4.561 18.894Z"/></g></svg>