<?xml version="1.0" encoding="UTF-8" standalone="no"?>
<!-- Generator: Gravit.io -->
<svg xmlns="http://www.w3.org/2000/svg" xmlns:xlink="http://www.w3.org/1999/xlink" style="isolation:isolate" viewBox="0 0 64 64" width="64pt" height="64pt"><defs><clipPath id="_clipPath_U089MeySP20zl3eIeFTSoA8r95Y736N4"><rect width="64" height="64"/></clipPath></defs><g clip-path="url(#_clipPath_U089MeySP20zl3eIeFTSoA8r95Y736N4)"><path d=" M 48.771 0.018 C 40.415 -0.374 33.389 5.644 32.19 13.572 C 32.142 13.94 32.071 14.296 32.012 14.652 C 30.148 24.526 21.472 32.003 11.05 32.003 C 7.335 32.003 3.846 31.054 0.807 29.392 C 0.439 29.19 0 29.451 0 29.867 L 0 31.991 L 0 64 L 32 64 L 32 40.002 C 32 35.587 35.584 32.003 40 32.003 L 48 32.003 C 57.056 32.003 64.344 24.49 63.987 15.352 C 63.667 7.127 56.997 0.41 48.771 0.018 Z " fill="rgb(0,0,0)"/></g></svg>