<svg xmlns="http://www.w3.org/2000/svg" width="512pt" height="512pt" style="isolation:isolate" viewBox="0 0 512 512"><defs><clipPath id="a"><path d="M0 0h512v512H0z"/></clipPath></defs><g clip-path="url(#a)"><path fill="#C20831" d="m203.232 376.672-.018.052 73.585-53.47-3.005-9.251-52.973 38.49 8.925-27.462-7.878-5.721-15.604 48.037c-18.734-14.764-30.809-37.623-30.809-63.27a80.05 80.05 0 0 1 1.859-17.138l-8.112-5.884a89.623 89.623 0 0 0-3.006 23.022c0 29.807 14.62 56.249 37.037 72.592m48.831-52.594-52.983-38.49h28.879l3.005-9.259-50.564.009c10.45-28.382 36.423-49.3 67.575-52.396l3.105-9.521c-37.696 2.049-69.245 27.435-80.472 61.917h-.018l73.595 53.452 7.878-5.712Zm-49.102-119.078h.532c-.378-4.043-1.767-6.435-4.314-7.391-9.141-3.448-14.069-10.983-14.069-19.421 0-9.62 6.146-15.594 13.862-15.594 10.956 0 14.926 12.76 27.444 12.76 4.494 0 8.167-2.635 8.167-4.891v-1.327h-2.339c-15.711 0-18.13-15.802-33.273-15.802-12.914 0-23.129 10.215-23.129 24.853 0 14.755 11.397 26.812 27.118 26.812M57.992 308.1h56.376v-.496c-5.668-1.714-10.18-4.485-14.881-8.763H57.992c-21.108 0-27.326-1.967-37.786-13.257h143.192a92.736 92.736 0 0 1 2.328-9.25H0l6.425 7.608c16.777 19.89 23.067 24.158 51.566 24.158m173.351-144.22c8.014 0 12.96-6.669 12.96-12.842 0-6.272-2.879-8.826-5.857-8.826-2.626 0-4.738 2.149-4.738 4.711 0 2.798 2.517 4.684 4.413 4.684-2.428 3.7-6.101 4.963-10.839 4.611.532-.793.875-1.65.875-2.716 0-2.68-2.22-4.693-4.692-4.693-2.346 0-4.684 2.203-4.684 5 0 5.288 4.945 10.071 12.562 10.071m-46.214 202.5h-67.909c-18.69 0-25.711-1.56-34.339-9.755H70.093c13.708 15.486 21.288 19.014 47.126 19.014h77.276a96.32 96.32 0 0 1-9.367-9.259Zm-31.252-13.257v-.496c-5.668-1.714-10.189-4.485-14.881-8.763H97.491c-18.699 0-25.711-1.552-34.347-9.755H50.365c13.69 15.486 21.28 19.014 47.126 19.014h56.385Zm-19.737-22.516v-.496c-5.667-1.706-10.188-4.485-14.881-8.754H77.755c-18.699 0-25.72-1.552-34.348-9.755H30.629c13.699 15.486 21.279 19.005 47.126 19.005h56.384Zm140.764-153.361c-4.611 0-9.277 5.631-11.01 13.843 2.861.205 5.704.496 8.483.929 1.842-7.157 5.027-10.46 7.707-10.938-.956-2.174-2.743-3.835-5.18-3.835m-18.906 37.036-28.111 86.509 7.869 5.721 20.233-62.277 8.934 27.461h9.728l-15.603-48.046c31.586 1.181 58.569 20.594 70.671 48.046h10.008c-13.022-33.553-45.628-57.414-83.729-57.414Zm50.167 4.666v-9.494c-13.735-7.878-32.073-13.69-50.167-13.69-18.103 0-36.432 5.812-50.176 13.69v9.494c14.728-8.691 31.874-13.925 50.176-13.925 18.301 0 35.439 5.234 50.167 13.925Zm-95.813-18.058c2.364-1.1 4.774-2.131 7.238-3.068-1.2-3.601-3.466-7.662-7.707-7.662-2.111 0-3.763 1.696-4.476 3.673 1.959.696 3.582 2.392 4.945 7.057m5.063 172.71-8.095 5.866c14.033 9.097 30.737 14.403 48.678 14.403 19.691 0 37.912-6.389 52.73-17.173l.051.025-28.102-86.508h-9.738l20.242 62.269-23.364-16.957-7.869 5.712 40.853 29.681c-12.824 8.628-28.219 13.69-44.797 13.69-14.8 0-28.653-4.024-40.583-11.009m24.212-181.591c2.798-.432 5.641-.713 8.492-.921-1.731-8.212-6.389-13.843-11-13.843-2.436 0-4.233 1.66-5.19 3.835 2.681.479 5.875 3.781 7.698 10.929m-16.758-8.582c-2.111 0-4.151 1.481-4.973 3.664 2.014.296 4.693 1.921 6.67 8.338 2.58-.775 5.207-1.461 7.869-2.049-1.896-6.353-5.325-9.954-9.566-9.954m219.024 173.198h-12.797c-8.618 8.194-15.639 9.755-34.329 9.755h-67.9a96.64 96.64 0 0 1-9.376 9.259h77.276c25.846 0 33.427-3.528 47.126-19.014Zm-191.454-80.291-3.005 9.25h65.472l-23.355 16.975 3.005 9.25 40.917-29.717a80.306 80.306 0 0 1 3.059 21.983c0 23.852-10.432 45.312-26.965 60.067l3.095 9.521c20.197-16.479 33.129-41.549 33.129-69.588a89.304 89.304 0 0 0-4.404-27.741l.009-.009-90.957.009Zm241.341 9.25c-10.459 11.29-16.668 13.257-37.776 13.257h-41.504c-4.693 4.278-9.214 7.048-14.881 8.763v.496h56.385c28.49 0 34.78-4.268 51.566-24.158l6.425-7.608H346.265a95.897 95.897 0 0 1 2.339 9.25h143.181ZM246.861 146.288l9.151-6.651 9.142 6.66-3.484-10.757 9.151-6.651h-11.308l-3.501-10.757-3.493 10.757h-11.316l9.16 6.651-3.502 10.748Zm214.764 187.818h-12.778c-8.628 8.203-15.649 9.755-34.347 9.755h-41.504c-4.693 4.278-9.205 7.048-14.881 8.763v.496H414.5c25.846 0 33.435-3.528 47.125-19.014m19.737-22.507h-12.779c-8.636 8.203-15.648 9.755-34.347 9.755h-41.503c-4.693 4.269-9.215 7.048-14.882 8.754v.496h56.385c25.846 0 33.427-3.519 47.126-19.005m-174.75-117.77c-.703-1.977-2.364-3.673-4.485-3.673-4.233 0-6.498 4.07-7.689 7.689 2.456.929 4.864 1.949 7.229 3.05 1.363-4.674 2.996-6.371 4.945-7.066Zm-56.421-17.417c2.553 2.942 4.061 5.216 5.695 8.871.051.051.076.128.127.179.052-.051.077-.128.128-.179 1.635-3.655 3.141-5.929 5.695-8.871-.967-2.553-3.881-7.192-5.821-9.079-1.939 1.886-4.855 6.525-5.821 9.079m27.254-7.283v1.328c0 2.256 3.673 4.891 8.167 4.891 12.517 0 16.488-12.76 27.444-12.76 7.707 0 13.87 5.974 13.87 15.594 0 8.438-4.945 15.973-14.078 19.42-2.553.957-3.934 3.348-4.322 7.392h.542c15.712 0 27.118-12.057 27.118-26.812 0-14.638-10.215-24.853-23.129-24.853-15.143 0-17.562 15.801-33.273 15.801l-2.339-.001Zm-9.728-18.094c0 6.173 4.954 12.842 12.959 12.842 7.626 0 12.571-4.783 12.571-10.071 0-2.798-2.338-5-4.684-5-2.481 0-4.692 2.013-4.692 4.693 0 1.064.342 1.921.875 2.716-4.747.353-8.42-.911-10.839-4.611 1.878 0 4.413-1.886 4.413-4.684 0-2.563-2.11-4.711-4.747-4.711-2.969 0-5.857 2.553-5.857 8.826m-11.705-3.546c-4.087 0-7.409 3.321-7.409 7.4a7.409 7.409 0 0 0 7.409 7.409 7.403 7.403 0 0 0 7.41-7.409c0-4.079-3.312-7.4-7.41-7.4Zm38.111 39.599c-.814-2.185-2.861-3.664-4.963-3.664-4.251 0-7.671 3.601-9.576 9.963 2.663.586 5.289 1.271 7.87 2.057 1.977-6.435 4.666-8.059 6.669-8.357"/></g></svg>