<svg xmlns="http://www.w3.org/2000/svg" width="512pt" height="512pt" style="isolation:isolate" viewBox="0 0 512 512"><defs><clipPath id="a"><path d="M0 0h512v512H0z"/></clipPath></defs><g fill="#B09255" clip-path="url(#a)"><path d="m489.258 370.746-.687 1.032c-42.303 73.255-121.06 122.779-211.855 122.779-134.817 0-244.184-109.366-244.184-244.183 0-44.366 11.693-85.636 32.329-121.404l.688-1.032-.344-1.031-1.032.344-.688 1.031c-3.783 5.159-6.878 10.662-10.318 16.508-67.064 116.933-25.794 266.539 92.171 334.291 117.965 67.752 267.914 27.514 334.978-89.419 3.44-5.503 6.191-11.35 8.942-17.196l.688-1.032-.344-1.032-.344.344Z"/><path d="M217.217 61.906c-34.736 7.566-93.202 42.99-105.583 102.488 37.487-44.366 76.35-67.752 106.271-72.911-30.609 22.699-59.154 76.006-50.212 113.494 16.164-39.551 44.366-78.414 70.504-92.515-14.789 24.074-19.604 82.885-5.503 108.679 3.439-33.36 13.757-77.038 30.609-98.705l4.815 41.958h-5.847l5.847 42.646h-4.815l4.815 42.646h-4.127l6.19 42.646-20.291 10.318v1.376h52.62v-1.376l-20.292-10.318-6.19 4.815 6.19-4.815 6.191-42.646h-4.127l4.815-42.646h-4.815l6.19-42.646h-5.846l4.815-41.958c16.852 21.667 27.169 65.001 30.609 98.705 14.1-25.794 9.285-84.261-5.503-108.679 25.794 14.101 54.339 52.964 70.504 92.515 8.941-37.488-19.948-90.795-50.213-113.494 29.921 5.503 68.784 28.545 106.272 72.911-12.382-59.154-70.504-94.922-105.24-102.488 38.175-3.783 75.662 8.598 109.367 24.762-36.8-42.302-92.171-57.779-128.627-53.652 6.191-6.534 12.038-9.973 21.667-12.725-15.476-7.222-39.55-3.439-48.836 7.223 0 0-1.72-19.604-13.069-27.514-11.35 7.566-13.069 27.514-13.069 27.514-9.286-10.662-33.361-14.445-48.837-7.223 9.286 2.752 15.133 6.191 21.667 12.725-36.799-4.127-92.171 11.35-128.626 53.652 34.048-16.508 71.535-28.545 109.71-24.762Z"/><path d="M287.377 334.635c-2.751 2.063-6.534 4.47-10.317 6.878-4.127-2.751-7.567-5.159-10.318-6.878-15.476-10.318-146.854-98.362-203.601-36.112 52.276-20.635 130.002 18.572 193.627 57.091-16.164 11.005-34.048 23.386-49.524 34.048-24.419-23.731-33.704-19.948-35.768-18.916-2.407 1.032-4.127 3.095-4.127 5.847 0 3.439 2.751 6.534 6.191 6.534 3.439 0 6.534-2.751 6.534-6.534v-1.376c6.878 4.127 13.069 9.974 28.889 26.482 16.165 16.852 22.355 21.323 27.17 24.074 3.439 2.064 6.535 2.408 8.598 2.064 3.439 0 6.535-2.408 6.878-6.191.344-3.783-2.407-6.878-6.19-6.878-3.439 0-6.535 2.751-6.535 6.534v.688c-4.471-3.095-8.942-8.942-18.571-18.915 15.476-8.942 35.08-21.323 56.747-35.08 22.01 13.757 41.27 26.138 56.746 35.08-9.285 9.973-14.1 15.82-18.571 18.915v-.688c0-3.783-3.096-6.534-6.535-6.534-3.783 0-6.534 3.095-6.19 6.878 0 3.783 3.439 6.191 6.878 6.191 2.064 0 5.503-.344 8.598-2.064 4.815-2.751 11.006-7.222 27.17-24.074 15.82-16.508 22.355-22.011 28.889-26.482v1.376c0 3.439 3.095 6.534 6.535 6.534 3.439 0 6.19-3.095 6.19-6.534 0-2.752-1.719-4.815-4.127-5.847-2.063-1.032-11.349-4.815-35.768 18.916-15.476-10.318-33.704-23.043-49.524-34.048 63.969-38.519 141.351-77.726 193.627-57.091-57.091-61.906-188.124 25.794-203.601 36.112Z"/><path d="M140.867 416.488c-2.063-1.032-4.127-2.064-5.159-2.064-.688 0-1.375 0-1.719.688-.344.688-.688 1.719 0 2.407.344.688 1.031 1.72 3.095 3.783 8.598 7.567 25.794 14.101 71.191-11.349l-4.47-4.471-8.255-8.254c-23.73 15.133-42.99 24.074-54.683 19.26Zm272.041 0c-11.693 4.814-30.953-4.127-54.683-19.604l-8.254 8.254c-1.376 1.376-2.752 3.095-4.127 4.471 45.397 25.45 62.593 18.916 71.191 11.35 2.064-1.72 2.751-3.096 3.095-3.784.344-1.031.344-2.063 0-2.407-.344-.344-1.031-.688-1.719-.688-1.376.344-3.439 1.72-5.503 2.408Z"/></g></svg>