<?xml version="1.0" encoding="UTF-8" standalone="no"?>
<!-- Generator: Gravit.io -->
<svg xmlns="http://www.w3.org/2000/svg" xmlns:xlink="http://www.w3.org/1999/xlink" style="isolation:isolate"
  viewBox="0 0 64 64" width="64pt" height="64pt">
  <defs>
    <clipPath id="_clipPath_jbSJ553JM55KtqwjyjZUpIyPAhpOb9wR">
      <rect width="64" height="64" />
    </clipPath>
  </defs>
  <g clip-path="url(#_clipPath_jbSJ553JM55KtqwjyjZUpIyPAhpOb9wR)">
    <path
      d=" M 39.837 43.066 C 41.676 43.066 43.159 44.553 43.159 46.396 L 43.159 60.816 C 43.159 62.659 41.676 64.146 39.837 64.146 L 3.322 64.146 C 1.484 64.146 0 62.659 0 60.816 L 0 24.21 C 0 22.368 1.484 20.881 3.322 20.881 L 17.708 20.881 C 19.547 20.881 21.03 22.368 21.03 24.21 L 21.03 40.851 C 21.03 42.069 22.025 43.071 23.245 43.071 L 39.846 43.071 L 39.837 43.066 Z  M 24.154 21.08 L 40.755 21.08 C 41.971 21.08 42.97 22.077 42.97 23.3 L 42.97 39.94 C 42.97 41.783 44.453 43.27 46.292 43.27 L 60.678 43.27 C 62.516 43.27 64 41.783 64 39.94 L 64 3.33 C 64 1.487 62.516 0 60.678 0 L 24.154 0 C 22.316 0 20.832 1.487 20.832 3.33 L 20.832 17.75 C 20.832 19.593 22.316 21.08 24.154 21.08 Z "
      fill-rule="evenodd" fill="rgb(81,169,227)" />
  </g>
</svg>