<svg xmlns="http://www.w3.org/2000/svg" xml:space="preserve" width="253.528" height="252"><defs><clipPath id="a" clipPathUnits="userSpaceOnUse"><path d="M0 858.897h612.288V0H0Z"/></clipPath></defs><g clip-path="url(#a)" transform="matrix(.86948 0 0 -.86948 -139.096 499.354)"><path d="M0 0c-25.169 0-49.607-7.172-70.672-20.74a131.01 131.01 0 0 1-47.293-53.635c-10.903 6.252-22.028 13.396-33.447 21.47l-6.998 4.948 7.194-39.967 1.486-.804a358.18 358.18 0 0 1 22.671-11.226l-.167-.714a131.36 131.36 0 0 1-3.466-30.024c0-72.067 58.628-130.696 130.692-130.696 72.068 0 130.699 58.629 130.699 130.696C130.699-58.628 72.068 0 0 0" style="fill:#fff;fill-opacity:1;fill-rule:nonzero;stroke:none" transform="translate(319.535 547.023)"/><path d="m0 0-9.91-9.979-2.517-.792L5.428-40.962l8.824 2.399 9.161-.946.281 1.052-9.629 2.547-5.855-.64L-4.5-14.378 21.221-.045C13.907-1.169.684-.065 0 0" style="fill:#231f20;fill-opacity:1;fill-rule:nonzero;stroke:none" transform="translate(318.68 378.95)"/><path d="m0 0-2.523-.787 17.86-29.328 8.826 2.399 9.17-.948.271 1.052-9.63 2.549-5.854-.64L5.411-3.529l26.265 14.82c-6.095.702-11.351 1.849-16.78 3.547z" style="fill:#231f20;fill-opacity:1;fill-rule:nonzero;stroke:none" transform="translate(284.31 368.103)"/><path d="M0 0c-.104 0-.22-.006-.348-.016-1.815-.17-4.261-.28-7.059-.28-13.241 0-34.43 2.515-34.583 13.573-.111 7.754 16.965 16.795 23.421 19.347 1.396.55 1.444.974.472.974-.303 0-.703-.04-1.191-.13-25.547-4.73-45.54-5.656-57.275-5.656-7.544 0-11.671.382-11.671.382s9.06-19.219 37.375-27.63a88.577 88.577 0 0 1 9.542-2.252c3.296-.59 6.8-1.038 10.526-1.305 2.809-.205 5.503-.303 8.097-.303 8.485 0 15.9 1.003 22.769 2.42C.813-.725 1.179 0 0 0" style="fill:#231f20;fill-opacity:1;fill-rule:nonzero;stroke:none" transform="translate(352.643 385.033)"/><path d="M0 0s-1.251-4.116-3.331-2.858C-4.845-1.945-6.269-.292-9.253.336c-.765.166-1.341.348-1.549.383-.559.09-.042.118-.042.118H1.354Zm28.774-2.641C22.047.962 9.924 1.297 9.924 1.297c-11.949 9.454-27.185 3.974-30.958 2.8-65.347-20.263-130.528-18.011-218.962 44.52l5.375-29.87c60.334-32.578 108.414-35.857 108.414-35.857l.563-.744c-13.816-1.071-49.469 5.328-71.067 15.799l4.898-15.749C-135.586-35.13-86.94-22.392-75.33-20.993c13.779 1.662 41.186 6.213 46.999-8.937 5.036-13.133-15.466-23.917-21.67-26.886-.948-.456-.312-.878.314-.718 39.368 9.866 60.405 47.409 60.405 47.409C13.173-7.437 26.092-3.88 28.88-3.139c.339.092.712.102.712.102.005.12-.6.281-.818.396" style="fill:#231f20;fill-opacity:1;fill-rule:nonzero;stroke:none" transform="translate(406.093 442.637)"/><path d="m0 0 1.621.115-.982 2.261Z" style="fill:#231f20;fill-opacity:1;fill-rule:nonzero;stroke:none" transform="translate(311.025 521.95)"/><path d="M0 0c-.07.29-.189.557-.358.794a2.366 2.366 0 0 1-.653.616c-.23.149-.547.237-.936.26-.427.022-.949-.031-1.551-.162l-.01-.003 1.041-4.319c.036.004.071.007.107.009.155.018.301.034.437.055a1.09 1.09 0 0 0 .191.024.938.938 0 0 0 .2.026c.302.1.565.213.797.332.219.118.42.261.594.428.156.149.251.344.291.594.048.284.022.638-.08 1.052z" style="fill:#231f20;fill-opacity:1;fill-rule:nonzero;stroke:none" transform="translate(297.142 516.642)"/><path d="m0 0 .023.021a.795.795 0 0 1 .281.432c.045.187.041.402-.016.636l-.04.161-.037.08-.025.096c-.163.386-.347.683-.545.887-.17.171-.336.26-.509.273l-.012.001a3.213 3.213 0 0 1-.651-.012 11.334 11.334 0 0 1-.434-.059l.774-3.209c.208.076.406.167.599.267.221.117.42.26.592.426" style="fill:#231f20;fill-opacity:1;fill-rule:nonzero;stroke:none" transform="translate(294.267 521.153)"/><path d="M0 0a5.685 5.685 0 0 1-1.054 1.545l-.246.26a.493.493 0 0 0-.11.09l-.04.042a.518.518 0 0 0-.113.092l-.019.018a7.17 7.17 0 0 1-1.6 1.022 7.171 7.171 0 0 1-1.878.567 4.053 4.053 0 0 1-1.625-.053 3.83 3.83 0 0 1-1.402-.707 3.596 3.596 0 0 1-.656-1.209A4.985 4.985 0 0 1-8.968.08a3.852 3.852 0 0 1 .397-1.705c.277-.582.699-1.175 1.255-1.766l.222-.236c.561-.592 1.154-1.045 1.763-1.343a5.046 5.046 0 0 1 1.945-.503 5.119 5.119 0 0 1 1.699.172c.488.141.931.368 1.318.676.353.391.604.821.748 1.275.144.467.184.989.119 1.546A6.132 6.132 0 0 1 0 0" style="fill:#231f20;fill-opacity:1;fill-rule:nonzero;stroke:none" transform="translate(251.36 494.007)"/><path d="m0 0-.189.303A.394.394 0 0 0-.28.408l-.033.051A.477.477 0 0 0-.404.57l-.017.025a7.18 7.18 0 0 1-1.376 1.307 7.238 7.238 0 0 1-1.735.917c-.553.199-1.092.287-1.605.256a3.828 3.828 0 0 1-1.51-.423 3.543 3.543 0 0 1-.876-1.064A4.978 4.978 0 0 1-8.05.074a3.879 3.879 0 0 1 .066-1.748c.16-.624.461-1.288.896-1.973l.173-.272c.437-.692.933-1.25 1.474-1.659a5.013 5.013 0 0 1 1.812-.865c.456-.116.9-.174 1.314-.174.127 0 .258.008.384.018.507.045.984.184 1.424.413.421.316.75.689.975 1.108.233.432.374.934.416 1.495a6.128 6.128 0 0 1-.146 1.864A5.643 5.643 0 0 1 0 0" style="fill:#231f20;fill-opacity:1;fill-rule:nonzero;stroke:none" transform="translate(266.608 507.252)"/><path d="M0 0a3.263 3.263 0 0 1-.222.613 9.835 9.835 0 0 1-.191.391l-2.795-1.76c.138-.171.288-.331.442-.479a2.62 2.62 0 0 1 .598-.427l.023-.015a.83.83 0 0 1 .499-.128c.193.018.396.09.599.22l.14.088.063.062.085.053c.313.278.535.549.665.802.109.215.141.4.096.567z" style="fill:#231f20;fill-opacity:1;fill-rule:nonzero;stroke:none" transform="translate(412.944 475.504)"/><path d="m0 0-.005.01-3.761-2.365c.015-.033.031-.066.042-.099.067-.14.13-.272.195-.398.028-.052.056-.107.076-.162 0-.003.004-.005.005-.009.039-.059.067-.122.091-.181a5.3 5.3 0 0 1 .568-.649c.18-.173.38-.316.596-.428.192-.1.405-.128.653-.088.285.048.613.188.973.413l.256.163A2.254 2.254 0 0 1 .701-2.386c.068.268.049.594-.052.971C.533-1.001.315-.525 0 0" style="fill:#231f20;fill-opacity:1;fill-rule:nonzero;stroke:none" transform="translate(407.728 473.47)"/><path d="m0 0 1.948 2.145-4.049 1.711Z" style="fill:#231f20;fill-opacity:1;fill-rule:nonzero;stroke:none" transform="translate(396.701 343.77)"/><path d="M0 0c-.345.677-.852 1.288-1.505 1.818l-.008.006a5.494 5.494 0 0 1-1.997.559c-.741.066-1.538 0-2.364-.199-.83-.18-1.614-.565-2.341-1.141-.744-.587-1.457-1.389-2.115-2.375l-.261-.386c-.666-1.002-1.122-2.003-1.348-2.973a7.444 7.444 0 0 1-.087-2.975c.159-.901.428-1.703.808-2.389a5.772 5.772 0 0 1 1.438-1.703c.693-.389 1.406-.616 2.128-.67.73-.056 1.498.06 2.287.34.893.321 1.71.76 2.427 1.306a8.514 8.514 0 0 1 1.874 2.024l.306.45a.426.426 0 0 0 .068.157l.065.099a.54.54 0 0 0 .077.158l.027.047c.434.842.75 1.728.945 2.635.191.911.259 1.877.194 2.873C.559-1.466.351-.681 0 0" style="fill:#231f20;fill-opacity:1;fill-rule:nonzero;stroke:none" transform="translate(266.183 332.874)"/><path d="m0 0-.849.286A.52.52 0 0 1-.842.57a.938.938 0 0 1-.149.316c-.083.12-.175.23-.279.331a2.677 2.677 0 0 1-.319.266 3.164 3.164 0 0 1-.419.215l-.115.045a.686.686 0 0 0-.175.1l-.405.164c-.031.012-.057.022-.076.032l-.205.079-9.315 2.568 10.692-9.387-.567-1.418-.207-.201-.085-.07a2.473 2.473 0 0 0-.699-.451 4.14 4.14 0 0 0-.976-.3 11.548 11.548 0 0 0-1.065-.164 14.987 14.987 0 0 0-1.101-.091h-.025l-11.154.124 8.788-4.857c.268-.103.513-.195.729-.261.205-.064.39-.104.553-.119l.042-.006a1.63 1.63 0 0 1 .472-.02c.173.016.344.047.511.096l.091.024.075.061.111.005a.73.73 0 0 0 .173.056c.03.01.058.023.08.04.011.004.025.021.038.034l.774-.435-2.288-5.729-.863.135a.992.992 0 0 1-.067.296 1.483 1.483 0 0 1-.181.325 8.814 8.814 0 0 1-.29.391c-.092.12-.193.236-.292.355-.043.039-.083.076-.122.105-.072.05-.147.117-.219.192-.04.028-.085.063-.133.1a8.88 8.88 0 0 0-.183.13l-.009.003a1.97 1.97 0 0 1-.284.177c-.102.05-.187.091-.25.113l-.108.047-12.523 6.895-.011.006c-.077.05-.165.094-.263.144a4.016 4.016 0 0 1-.279.124l-.161.063a1.078 1.078 0 0 0-.189.103l-.189.079a4.756 4.756 0 0 1-.359.132.585.585 0 0 1-.139.027l-.056-.007-.043.01c-.048.005-.092.005-.137.005a.625.625 0 0 1-.123-.029c-.051-.02-.112-.046-.18-.065a1.938 1.938 0 0 0-.128-.05l-.085-.031c.003 0-.01-.004-.045-.026a.874.874 0 0 0-.165-.073l-.272-.102-.925-.335 2.086 5.429.532 1.326 13.654-.106-10.227 8.699 2.99 7.497.274-1.554c.031-.171.071-.327.12-.463a1.93 1.93 0 0 1 .165-.36l.02-.036a.776.776 0 0 1 .077-.125.438.438 0 0 1 .062-.065l.047-.041a.964.964 0 0 1 .123-.119l.152-.119.045-.043.03-.025c.01-.005.016-.009.023-.011l.345-.137.073.003.081-.035a.04.04 0 0 1 .024-.008l.029-.001.08.001.072-.017 14.476-3.881.023-.01a1.07 1.07 0 0 1 .296-.08l.07-.006.012-.006.078.033.158-.067h.039l.046.006.047-.01a4.64 4.64 0 0 1 .691-.055h.033c.22 0 .443.014.665.047.196.032.381.093.548.172.156.076.288.177.409.31l.747-.47zm-22.08-38.806-.755.457c.061.164.096.316.104.451a.919.919 0 0 1-.031.327c-.03.098-.07.19-.116.271a.874.874 0 0 1-.156.19 1.55 1.55 0 0 1-.155.123.263.263 0 0 1-.105.05 1.367 1.367 0 0 0-.205.091c-.026.015-.052.035-.078.051-.04.013-.08.034-.121.054-.006.006-.023.01-.04.021l-.016.004c-.035.011-.073.019-.111.037-.045.013-.088.023-.127.038-.057.021-.116.041-.178.066-.054.025-.099.045-.14.07l-4.521 1.897-3.397-3.741 2.614-4.601.164-.22c.068-.091.119-.166.158-.23a.462.462 0 0 1 .038-.05l.116-.101c.073-.069.142-.12.207-.16a.568.568 0 0 1 .163-.08.793.793 0 0 1 .387-.028l.034.003h.035c.065 0 .136-.003.219-.015h.045a.72.72 0 0 0 .175.034l.062.022h.082-.011a.332.332 0 0 1-.167-.107l.665-.604-4.45-4.898-.574.52-.147-.015v.009a.184.184 0 0 1-.018-.079c.002.051.005.096.012.141a1.54 1.54 0 0 0 .018.32c.012.377-.003.717-.037 1.02a4.44 4.44 0 0 1-.191.857 7.16 7.16 0 0 1-.3.751 5.742 5.742 0 0 1-.288.538l-.057.053-7.575 14.082-.002.035c-.05.06-.103.126-.15.199l-.015.021a.952.952 0 0 1-.159.196c-.09.081-.181.145-.27.19a.202.202 0 0 1-.122.03l-.05-.005-.048.005a1.42 1.42 0 0 1-.306 0 2.957 2.957 0 0 1-.365-.055l-1.299-.254 3.778 4.28.964 1.062 17.754-7.045c.262-.102.501-.177.698-.221.203-.045.399-.086.579-.11.177-.016.36-.031.551-.045.161-.01.313-.01.457-.006.085.02.178.025.271.01.021-.004.04-.004.054-.004h.237c.07.01.142.014.218.004l.03.015.078-.005c.034.005.064.005.09.011.027 0 .043.004.048.01l.477-.727zm-25.501-23.717a1.444 1.444 0 0 0-.403-.152 4.671 4.671 0 0 0-.381-.075l-.043-.005c-.15-.011-.295-.015-.434-.02a3.09 3.09 0 0 0-.464.025c-.152.006-.291.016-.421.025a7.741 7.741 0 0 0-.432.045l-.049.011c-.147.034-.287.07-.42.099-.136.037-.27.071-.401.116-.082.016-.158.03-.225.055-.051.02-.103.036-.158.054l-.065.027-.053.04c-.017.009-.038.025-.06.035-.022.01-.052.024-.09.034l-.046.021-13.465 6.549 4.82-8.727c.206-.37.403-.678.584-.897.17-.21.342-.377.511-.497a3.03 3.03 0 0 1 .588-.274c.229-.081.491-.136.777-.171l-.04-.35.255-.462-5.549-3.063-.596.63c.015.026.033.056.056.101.029.054.064.116.107.17.014.029.027.066.038.094.015.045.027.086.036.12l.01.051.024.051c.061.125.109.26.138.403.033.167.054.337.073.514a3.092 3.092 0 0 1-.084.57 8.789 8.789 0 0 1-.267.851l-.013.025-6.736 12.188c-.218.39-.437.731-.658 1.002a3.17 3.17 0 0 1-.572.577 3.977 3.977 0 0 1-.524.304c-.149.07-.286.115-.408.134h-.038a.456.456 0 0 0-.138-.019h-.013a.698.698 0 0 0-.205.041c-.02.003-.036.009-.055.009-.042.006-.08.006-.113.006l-.054.004-.147.021-1.079.37 1.894 1.042c.225.104.47.224.729.37l3.097 1.713 14.659-7.041-4.572 8.271a5.431 5.431 0 0 1-.66.963c-.231.262-.471.48-.716.662a2.06 2.06 0 0 1-.677.268 1.344 1.344 0 0 1-.593-.025l-.341.823 4.783 2.713 1.723.952-.076-.842a.972.972 0 0 0-.132-.431.595.595 0 0 1-.066-.124l-.027-.056-.04-.044a.188.188 0 0 1-.038-.06.155.155 0 0 1-.02-.051l-.014-.06-.029-.056a1.499 1.499 0 0 1-.144-.375 1.61 1.61 0 0 1-.061-.439l-.003-.026c-.002-.055 0-.221.116-.6.092-.312.238-.682.433-1.107l9.028-16.345zm-38.283-14.769a15.22 15.22 0 0 0-1.268-.506c-.422-.15-.868-.295-1.326-.44-.455-.17-.919-.309-1.374-.425a20.34 20.34 0 0 0-1.388-.29l-.019-.006-1.799-.235c-.754-.1-1.503-.151-2.235-.151-.77 0-1.538.055-2.284.167a14.714 14.714 0 0 0-4.239 1.309c-1.41.674-2.562 1.705-3.424 3.071-.849 1.347-1.431 3.035-1.728 5.008l-.013.11c-.085 1.953.114 3.686.586 5.158.481 1.492 1.263 2.743 2.318 3.721a13.716 13.716 0 0 0 3.438 2.314c1.245.58 2.604.98 4.041 1.191l1.137.18c.382.03.77.056 1.142.075.375.014.771.031 1.174.04.389.011.776.004 1.164-.006a12.36 12.36 0 0 0 1.225-.094l.342-.045.574-4.357-1.71-.225-.135.085c-.379.236-.764.446-1.147.635-.366.18-.753.312-1.156.391h-.013a6.231 6.231 0 0 1-1.887.16 6.862 6.862 0 0 1-2.197-.871 8.093 8.093 0 0 1-1.925-1.676 6.464 6.464 0 0 1-1.383-2.559c-.26-.953-.317-2.018-.165-3.161l.011-.077.043-.119.045-.34c.254-1.246.612-2.307 1.063-3.16.438-.83.991-1.491 1.638-1.958a9.028 9.028 0 0 1 2.041-1.137 7.944 7.944 0 0 1 2.097-.489c.101-.012.194-.019.281-.025.072-.01.143-.022.217-.026.091.01.191.01.297 0a.68.68 0 0 1 .157 0l.282.035.058-.025.004.006c.235.045.47.104.7.165.236.06.45.126.645.188.259.092.497.192.712.288.11.049.213.1.306.145l-.572 4.347a9.72 9.72 0 0 1-.189 1.035 3.69 3.69 0 0 1-.279.786l-.011.026a1.602 1.602 0 0 1-.379.536 3 3 0 0 1-.649.457l-1.208.645 5.689.83 1.749.23-.165-.76-.02-.151a2.656 2.656 0 0 1-.043-.294 1.419 1.419 0 0 1 .004-.277l1.07-8.116.036-.057.013-.099c.005-.039.014-.075.024-.115a.904.904 0 0 1 .046-.121c.015-.041.039-.081.064-.124.045-.071.088-.15.119-.225l.186-.406zm-35.551 18.134a.899.899 0 0 0-.381-.237 3.765 3.765 0 0 1-.133-.049l-.056-.027-.064-.008c-.024-.006-.047-.01-.063-.016-.022-.01-.036-.016-.051-.029l-.051-.035-.057-.019a1.753 1.753 0 0 1-.358-.188 1.742 1.742 0 0 1-.336-.29l-.02-.019c-.037-.041-.143-.165-.311-.527a9.367 9.367 0 0 1-.407-1.116l-4.044-18.227-1.527.34a1.387 1.387 0 0 0-.403.151c-.115.059-.228.13-.338.199l-.034.021c-.114.088-.227.186-.338.275a2.76 2.76 0 0 0-.332.327c-.108.104-.205.204-.299.294-.097.106-.197.211-.295.32l-.03.041c-.085.124-.167.24-.248.354-.08.111-.155.232-.224.352a1.27 1.27 0 0 0-.131.19 3.894 3.894 0 0 0-.083.144l-.032.061-.015.064a.46.46 0 0 1-.02.067c-.009.023-.025.055-.042.09l-.023.044-5.765 13.816-2.157-9.73a6.084 6.084 0 0 1-.158-1.062c-.01-.265.011-.505.056-.706.054-.188.142-.388.26-.595.119-.215.279-.431.468-.64l-.26-.237-.116-.515h-.005l-6.182 1.373-.026.866c.024.01.059.02.102.04.06.021.126.039.196.055a1.145 1.145 0 0 1 .197.114l.042.03.051.021c.128.051.253.125.369.216.134.1.266.214.394.334.097.111.203.275.313.482.117.22.241.495.364.816l3.02 13.62c.099.441.156.837.171 1.187.016.334-.002.605-.054.811a3.307 3.307 0 0 1-.186.576c-.065.144-.138.27-.216.372-.01.009-.019.014-.029.024a.487.487 0 0 0-.118.079.723.723 0 0 0-.138.177c-.005.01-.018.024-.03.038-.031.031-.057.056-.079.081l-.041.039-.097.112-.56.991 2.107-.47c.237-.07.501-.142.789-.206l3.457-.766 6.332-14.978 2.048 9.228c.089.411.138.802.138 1.158.003.346-.032.675-.1.97a2.059 2.059 0 0 1-.329.649c-.129.164-.28.284-.46.374l.29.84 5.381-1.13 1.918-.421zm-37.408 5.908c-.291-1.389-.892-2.823-1.788-4.267l-.011-.015a4.18 4.18 0 0 0-.236-.325 6.224 6.224 0 0 1-.199-.275l-.036-.044a5.426 5.426 0 0 1-.242-.299c-.083-.097-.165-.198-.254-.296a5.729 5.729 0 0 0-.562-.629c-.193-.19-.404-.379-.62-.566a12.15 12.15 0 0 0-2.656-1.782 13.314 13.314 0 0 0-3.161-1.092 7.601 7.601 0 0 0-1.738-.201c-.586 0-1.18.07-1.763.205-1.138.272-2.301.798-3.455 1.569l-.929.621c-1.462.974-2.627 2.074-3.463 3.244a8.693 8.693 0 0 0-1.557 3.916 11.912 11.912 0 0 0 .155 4.122c.288 1.342.819 2.687 1.578 3.995l.049.075c.133.202.289.416.464.641.173.225.366.466.573.708.111.129.226.255.339.37.112.113.23.229.35.345l.009.01c.111.095.224.2.339.306.125.114.256.22.393.318a11.161 11.161 0 0 0 2.554 1.635c.936.435 1.973.76 3.077.971 1.134.24 2.321.198 3.523-.114 1.182-.318 2.411-.892 3.652-1.724l.954-.601c1.221-.842 2.229-1.822 3.002-2.919a10.233 10.233 0 0 0 1.626-3.721 9.68 9.68 0 0 0 .033-4.181m-28.736 25.328-1.078 1.411.051.211a2.674 2.674 0 0 1-.143 1.628l-.011.025a4.777 4.777 0 0 1-.335.72c-.137.243-.287.481-.445.722-.077.076-.15.155-.218.24l-.179.236c-.128.139-.264.29-.402.455l-.13.151-3.733-2.84.668-.876.018-.041c.09-.176.186-.33.288-.466.107-.138.215-.264.318-.37l.038-.044a.964.964 0 0 1 .22-.219c.088-.063.175-.112.266-.152l.099-.045 1.06-1.313-3.438-2.618-1.082 1.418.058.213c.035.13.047.272.04.428a2.452 2.452 0 0 1-.1.536c-.073.215-.163.42-.263.616-.103.194-.226.39-.365.574l-.051.062-.025.084-.237.316-5.191-3.957a.598.598 0 0 0 .046-.095l.107-.145-.009-.045.004-.005c.122-.23.247-.466.373-.697.123-.229.252-.465.385-.706.082-.14.165-.274.246-.41l.032-.056.225-.38a.636.636 0 0 0 .129-.13l.077-.099c.113-.122.233-.236.355-.352a9.7 9.7 0 0 1 .396-.349c.12-.096.253-.191.397-.286.156-.106.313-.209.473-.321a5.194 5.194 0 0 1 1.003-.469 6.062 6.062 0 0 1 1.196-.283l.176-.025 1.231-1.526-5.147-1.563-8.518 11.181 1.16-.224c.097-.021.202-.03.31-.034.125-.007.245-.007.365 0h.048a.094.094 0 0 1 .062 0c.06.009.126.019.196.024.065.016.141.019.223.025.029 0 .048 0 .06.004.093.032.19.06.292.097.089.029.178.07.266.118.098.056.198.116.293.176.095.066.198.135.301.216l.049.035 11.253 8.574c.2.155.41.331.62.518.208.198.419.393.621.598.161.18.293.394.398.636.108.25.174.54.198.861l.088 1.162 6.277-8.122.025-.082a.531.531 0 0 1 .079-.16 1.85 1.85 0 0 1 .174-.191l.03-.024.025-.034a.47.47 0 0 1 .135-.12l.067-.045.013-.016c.076-.034.143-.069.205-.11l.063-.04 1.037-1.286zm-21.666 26.669a2.639 2.639 0 0 1-.097-.3c-.033-.13-.066-.271-.097-.416a12.221 12.221 0 0 0-.128-.479c-.049-.155-.098-.322-.156-.486a8.435 8.435 0 0 0-.478-1.077c-.185-.35-.401-.706-.644-1.061a4.207 4.207 0 0 0-.913-.962 4.259 4.259 0 0 0-1.177-.627 7.134 7.134 0 0 0-2.359-.425c-.213 0-.426.011-.634.03a5.893 5.893 0 0 0-2.704 1.026 8.457 8.457 0 0 0-2.118 2.05c-.588.806-1.086 1.755-1.479 2.817l-.371 1.067c-.116.326-.215.66-.301 1.003-.082.341-.152.684-.208 1.036-.054.344-.107.706-.154 1.061-.046.365-.081.736-.098 1.111l-.005.051.01.051c0 .005 0 .009.003.009l-.028.075a.671.671 0 0 0-.033.281c-.005.085-.002.169.008.255a.868.868 0 0 1 .002.145l-.017.287 4.251 2.303.608-1.743-.097-.176a7.673 7.673 0 0 1-.418-.885 5.099 5.099 0 0 1-.258-.858c-.027-.166-.055-.32-.081-.466a3.223 3.223 0 0 1-.043-.41l-.003-.024c-.016-.136-.03-.281-.043-.433a3.292 3.292 0 0 1-.01-.378v-.025c-.004-.122-.005-.237-.007-.356a1.4 1.4 0 0 1 .017-.271l.007-.054-.004-.051a.892.892 0 0 1 .01-.216l.002-.019.05-.311a3.217 3.217 0 0 1 .146-.586c.159-.339.337-.66.528-.946.18-.275.393-.505.628-.696.301-.246.609-.426.921-.536.298-.111.616-.146.95-.111.064.006.129.016.187.032.07.014.145.024.223.035l.055.018c.059.02.121.037.187.037l.131.045c.168.06.32.129.461.21.123.076.227.165.322.27l.028.03c.048.045.095.096.138.155l.145.189c.04.102.093.202.152.298.04.058.079.134.117.219.051.155.108.317.17.485.059.161.119.341.178.532.062.195.122.395.176.601.057.196.109.405.156.625l.621 3.356c-.017.06-.022.126-.017.19l-.008.024v.076c0 .085.008.161.02.225.005.04.013.085.02.125.018.101.045.211.083.331.033.104.065.201.097.29a7.864 7.864 0 0 0 1.099 2.398c.283.421.619.797.997 1.111.377.315.821.581 1.314.798l.089.033c1.013.352 1.97.493 2.843.418a4.62 4.62 0 0 0 2.431-.945 7.778 7.778 0 0 0 1.795-1.765 8.697 8.697 0 0 0 1.167-2.253l.429-1.122-.003-.085v-.01l.151-.431-.014-.06.148-.419.006-.066a.418.418 0 0 1 .025-.117l.092-.274c.032-.154.072-.316.118-.476a3.93 3.93 0 0 0 .118-.581c.055-.223.095-.459.117-.691.02-.209.045-.419.072-.621.03-.225.049-.429.053-.612a3.617 3.617 0 0 0-.023-.523l-.03-.28-3.882-1.359-.564 1.617.043.147a9.688 9.688 0 0 1 .397 1.835c.042.352.062.698.058 1.037a7.522 7.522 0 0 1-.089 1.014l-.006.038a1.581 1.581 0 0 1-.025.18 1.82 1.82 0 0 0-.035.211c-.067.13-.151.257-.245.375a5.214 5.214 0 0 1-.413.452c-.189.175-.411.32-.662.436-.252.11-.552.184-.887.225a2.967 2.967 0 0 1-.224.011l-.228.013a1.398 1.398 0 0 1-.317-.069 1.93 1.93 0 0 1-.691-.447 2.893 2.893 0 0 1-.585-.866 7.707 7.707 0 0 1-.436-1.151 6.992 6.992 0 0 1-.221-1.217l-.003-.031-.579-3.503zm194.786 95.412-.002-.01a3.68 3.68 0 0 0-.533-1.48 3.654 3.654 0 0 0-2.064-1.524 3.304 3.304 0 0 0-1.03-.11 3.144 3.144 0 0 0-.975.167c.022-.283.025-.575.01-.871a5.43 5.43 0 0 0-.193-1.145 2.968 2.968 0 0 0-.636-1.191c-.294-.349-.699-.682-1.197-.995l-.018-.009c-.561-.321-1.1-.541-1.607-.648a3.59 3.59 0 0 0-.77-.088c-.246 0-.486.027-.718.085a5.37 5.37 0 0 0-1.223.392 4.823 4.823 0 0 0-1.045.657l-.014.015a10.583 10.583 0 0 0-.877.881l-.023.031a7.286 7.286 0 0 0-.32.465l-3.258 5.175.597.631c.018-.007.037-.018.06-.026l.057-.028.063-.015.04.004.085-.02a.692.692 0 0 1 .225-.022c.08.006.156.02.218.038.096.034.208.082.333.142.128.06.271.137.425.236l.035.021 8.906 5.609a.72.72 0 0 0 .117.096l.096.062a.854.854 0 0 0 .12.098l.039.023c.037.034.07.067.1.096.034.033.072.071.116.111.029.045.062.088.094.133.038.053.071.102.102.149a.684.684 0 0 1 .097.211.485.485 0 0 1 .019.208l.824.287 2.482-3.862.426-.68c.318-.56.552-1.118.692-1.659a4.47 4.47 0 0 0 .125-1.64m-17.774 5.661a4.183 4.183 0 0 1-.769-.894.653.653 0 0 1-.006-.626l-.74-.493-2.764 3.069.083.078c-.11.048-.222.106-.331.171a4 4 0 0 0-.797.515c-.27.223-.555.498-.845.819l-.519.577c-.547.609-.953 1.218-1.203 1.809-.264.618-.36 1.24-.284 1.845.068.564.202 1.098.401 1.583.195.481.461.934.788 1.345.03.047.063.091.097.134.031.039.069.076.109.116.037.049.08.097.127.14l.073.065c.062.075.131.145.202.21l6.145 5.533a2.01 2.01 0 0 1 .493.669c.045.131.085.264.116.396.032.135.054.282.071.435l.104.986 3.064-3.321 1.11-1.229-.871-.097a4.137 4.137 0 0 1-.258-.044 2.457 2.457 0 0 1-.306-.084 3.077 3.077 0 0 1-.171-.056.716.716 0 0 1-.11-.05l-.05-.023a1.155 1.155 0 0 1-.133-.062l-.152-.091-.018-.012c-.04-.02-.072-.043-.102-.063-.028-.017-.047-.035-.069-.053l-.045-.042-.061-.03-.097-.086-5.649-5.086c-.408-.367-.722-.717-.935-1.042-.201-.306-.324-.591-.369-.852a2.982 2.982 0 0 1-.003-.795c.037-.233.103-.449.198-.644.038-.066.072-.133.104-.205a.26.26 0 0 1 .053-.077l.029-.034c.272-.26.555-.471.84-.621a2.226 2.226 0 0 1 1.768-.145c.292.104.581.284.855.531l5.698 5.13c.219.195.406.391.564.579.148.177.257.342.328.49l.005.01c.078.152.131.303.156.447.03.162.045.327.045.489l.007 1.142 3.255-3.533 1.162-1.289-.954-.037a3.223 3.223 0 0 1-.593-.083 2.055 2.055 0 0 1-.505-.195 4.847 4.847 0 0 1-.533-.339 5.74 5.74 0 0 1-.527-.423zm-8.723 23.674a3.484 3.484 0 0 1-.406-.431l-6.276-7.689c.077-.094.157-.181.237-.263.167-.173.324-.338.464-.491.094-.093.189-.186.288-.273.099-.09.191-.178.28-.265.104-.071.205-.135.299-.195.095-.063.196-.121.298-.174l.026-.012c.134-.077.287-.148.446-.208a5.52 5.52 0 0 1 .522-.16l.024-.005c.087-.025.174-.046.264-.06.106-.015.205-.029.305-.04.117-.01.231-.018.345-.023.087-.003.181-.005.282-.005h.23l1.265-.974-3.48-2.038-7.119 5.812.324.396-.048.373a.556.556 0 0 0 .148.004.784.784 0 0 0 .07.002l.057.009.043-.008.04.006a.754.754 0 0 0 .138.007c.123.029.237.065.34.106a.91.91 0 0 1 .24.138c.099.081.19.161.278.237.073.066.14.136.199.207l6.659 8.158a3.258 3.258 0 0 1 .404.617c.024.061.041.12.056.184a.202.202 0 0 1 .004.085l-.006.044a.48.48 0 0 1-.007.079c-.01.054-.015.12-.021.196a3.96 3.96 0 0 0 .014.444l.075.828 3.637-2.898 1.385-1.132-1.054-.163-.015-.017-.168-.025a.588.588 0 0 0-.145-.007.793.793 0 0 0-.109.001c-.024 0-.043 0-.066.003l-.005-.001a.467.467 0 0 1-.153-.039 26.98 26.98 0 0 1-.313-.118 2.12 2.12 0 0 1-.295-.222m-12.088 6.71a13.42 13.42 0 0 1-.644 1.027 4.216 4.216 0 0 1-.648.74 7.66 7.66 0 0 1-.99.776c-.487.231-.967.35-1.42.356h-.034c-.446 0-.886-.105-1.307-.313a5.433 5.433 0 0 1-1.37-.957 6.127 6.127 0 0 1-1.049-1.365l-.132-.234-.005-.04-.041-.077a6.27 6.27 0 0 1-.626-1.808 7.204 7.204 0 0 1-.074-1.954 3.61 3.61 0 0 1 .503-1.557 3.695 3.695 0 0 1 1.054-1.109h.036l.111-.071c.196-.127.391-.235.576-.318.18-.082.359-.142.526-.182l.031-.008c.17-.053.347-.094.53-.125.185-.03.378-.05.578-.058l.013-.001.302-.023c.082-.005.166-.006.252-.003l.041.003.038-.005c.08-.009.162-.014.242-.014h.031c.121.003.239.003.361.001l.108-.001 1.329-.71-2.499-2.377-.195.012a4.593 4.593 0 0 0-1.431.324c-.209.072-.422.147-.63.223a7.71 7.71 0 0 0-.593.253l-.035-.013-1.205.687a8.922 8.922 0 0 0-2.158 1.716 8.863 8.863 0 0 0-1.527 2.373 6.006 6.006 0 0 0-.477 2.926c.082 1 .406 2.064.954 3.166l.034.059.355.626c.035.059.078.119.123.173a1.807 1.807 0 0 0 .195.256 9.429 9.429 0 0 0 1.712 1.914c.644.55 1.375 1.028 2.17 1.416.838.411 1.763.56 2.744.443.953-.114 1.982-.484 3.06-1.098l.72-.387c.146-.099.295-.197.448-.293.167-.105.338-.223.51-.356a9.99 9.99 0 0 0 .527-.375l.506-.388c.089-.071.182-.146.27-.223.093-.08.183-.162.265-.246l.113-.114a.238.238 0 0 1 .027-.023l.055-.031.046-.044c.034-.038.072-.073.107-.111l.115-.114.244-.242-1.644-2.876-1.168.667zm-29.14.695-8.896 2.31.156.598-.16.244a.275.275 0 0 0 .033.021.377.377 0 0 1-.089-.041.701.701 0 0 0 .123.06c.019.009.041.02.062.028l.051.035.04.01.035.021a.629.629 0 0 0 .121.065c.1.077.189.157.267.237.067.075.123.151.161.227l.153.331c.039.091.07.182.09.27l.132.5 2.519 9.694c.04.159.069.308.088.441.018.156.021.243.018.289a1.301 1.301 0 0 1-.021.189.215.215 0 0 1-.032.078l-.024.039c-.012.023-.023.046-.042.069a3.214 3.214 0 0 0-.098.171c-.034.064-.066.13-.092.196a2.329 2.329 0 0 0-.082.212l-.276.784 4.514-1.117 1.73-.45-.891-.587-.005-.022-.146-.096a.637.637 0 0 0-.125-.063.425.425 0 0 0-.101-.046.327.327 0 0 0-.062-.026l-.002-.002a.53.53 0 0 1-.123-.099l-.235-.239a2.326 2.326 0 0 1-.178-.325 3.723 3.723 0 0 1-.187-.56l-2.496-9.61c.113-.049.219-.095.328-.138.222-.087.433-.172.626-.252.121-.045.249-.088.375-.128.128-.039.247-.082.365-.124.123-.019.241-.037.353-.052.113-.017.228-.028.343-.031l.029-.002c.155-.015.32-.017.493-.002.179.013.363.039.54.072l.022.005c.091.011.181.03.268.055.1.03.199.06.293.09.111.042.219.083.323.126.1.039.208.087.328.143l.141.065 1.554-.358zm-14.619 3.299-9.143.921.062.614-.198.216c.01.008.02.015.029.024a.378.378 0 0 1-.085-.056.61.61 0 0 0 .119.082l.054.036.046.04.04.018.027.027a.831.831 0 0 0 .114.082c.085.092.162.184.224.277.058.083.1.167.126.248.037.123.07.242.1.351.024.096.043.191.052.281l1.056 10.478c.014.165.02.317.018.45a1.686 1.686 0 0 1-.024.288c-.013.063-.03.125-.054.185a.18.18 0 0 1-.043.072l-.029.035a2.049 2.049 0 0 0-.176.216c-.04.054-.082.115-.119.177a2.18 2.18 0 0 0-.112.198l-.398.733 4.633-.414 1.78-.178-.788-.718-.004-.021-.126-.117a.61.61 0 0 0-.116-.082.513.513 0 0 0-.094-.063 1.11 1.11 0 0 0-.053-.033l-.004-.003a.505.505 0 0 1-.109-.117l-.192-.272a1.86 1.86 0 0 1-.126-.346 3.318 3.318 0 0 1-.102-.586l-.995-9.875a5.84 5.84 0 0 1 .346-.087c.233-.053.454-.104.655-.153.131-.025.261-.049.391-.068.134-.022.262-.045.381-.069l.358.001c.114.002.229.01.343.023l.03.003c.156.009.319.033.487.072.171.042.35.095.522.156l.02.006c.088.028.176.061.256.098.095.046.188.089.277.133.104.058.203.115.298.174.096.055.195.119.304.191l.127.087 1.593-.116zm-13.703 1.211-4.873-.349-.227.85c.094.049.174.1.232.154a.532.532 0 0 1 .17.301.37.37 0 0 1 .011.131c-.003.039-.007.08-.015.121a.2.2 0 0 1-.015.039.9.9 0 0 0-.07.168c-.005.017-.011.036-.015.055-.012.029-.025.06-.033.092-.014.026-.033.055-.048.085l-.002.006a.959.959 0 0 0-.041.078c-.023.034-.041.077-.062.124a.825.825 0 0 0-.043.112l-1.32 3.02-3.302-.237-.865-3.458c-.008-.063-.016-.124-.022-.182-.008-.079-.022-.146-.034-.205l.007-.108a.602.602 0 0 1 .024-.156.34.34 0 0 1 .085-.162.455.455 0 0 1 .088-.079l.028-.02.024-.023c.034-.036.073-.076.11-.12.035-.018.064-.04.095-.063l.047-.021.058-.056a.118.118 0 0 1-.025.02.15.15 0 0 1-.038.021l.003-.004-.003.004a.425.425 0 0 1-.152.029v-.382l.038-.512-.026.316.023-.317-.007.11.005-.11-4.579-.327-.051.671-.191.148c.008.009.018.019.025.029a.18.18 0 0 1-.05-.04.565.565 0 0 0 .072.064c.02.027.047.053.071.076.03.03.064.057.095.082.179.175.33.346.453.509.122.166.221.333.299.498a4.175 4.175 0 0 1 .307.88l-.004.058 2.964 10.761c.004.046.009.093.018.14l.005.029c.005.024.01.048.013.072v.059a.645.645 0 0 1-.039.192l-.004.014-.04.03-.029.033a.747.747 0 0 1-.13.127c-.062.05-.129.097-.199.14l-1.119.713 4.354.373 1.089.078 5.583-12.135a3.602 3.602 0 0 1 .463-.747l.253-.28c.068-.076.138-.143.208-.204a.608.608 0 0 0 .165-.152c.008-.008.013-.012.015-.018l.108-.101a.757.757 0 0 0 .11-.096l.015-.007.057-.055a.136.136 0 0 1 .031-.025l.01-.007zm-18.977 1.076a3.363 3.363 0 0 0-.474-1.41 5.5 5.5 0 0 0-.766-1.035 4.844 4.844 0 0 0-.958-.78l-.018-.01a9.862 9.862 0 0 0-1.115-.546l-.033-.013a7.914 7.914 0 0 0-.545-.155l-5.948-1.433-.406.769a.26.26 0 0 1 .044.044.462.462 0 0 1 .044.046c.013.019.026.037.037.056l.008.039.046.073a.676.676 0 0 1 .092.206.949.949 0 0 1 .036.219 3.858 3.858 0 0 1-.116.839l-2.479 10.272a.506.506 0 0 0-.052.14l-.028.113a.583.583 0 0 0-.055.144l-.01.042c-.02.048-.041.09-.06.129-.021.043-.046.092-.067.146a2.35 2.35 0 0 0-.098.131c-.036.05-.07.099-.106.145a.72.72 0 0 1-.171.159.509.509 0 0 1-.189.081l-.01.875 4.455 1.119.777.186a7.011 7.011 0 0 0 1.794.124 4.501 4.501 0 0 0 1.594-.405l.009-.004a3.676 3.676 0 0 0 1.232-.978c.325-.401.557-.886.69-1.437a3.298 3.298 0 0 0-.13-2.019 3.13 3.13 0 0 0-.471-.869c.277-.071.553-.16.829-.269a5.206 5.206 0 0 0 1.021-.549c.37-.242.682-.572.929-.983.233-.393.421-.88.562-1.452l.002-.02a5.853 5.853 0 0 0 .104-1.73m-17.521-8.184-3.642-1.491-.474.746c.08.072.138.147.175.23.046.095.078.196.095.302a1.27 1.27 0 0 1 0 .326 1.582 1.582 0 0 1-.102.36l-.015.041-4.075 9.949-.245-.1a11.551 11.551 0 0 1-.631-.367 4.775 4.775 0 0 1-.515-.376 6.299 6.299 0 0 1-.399-.439 1.892 1.892 0 0 1-.266-.412l-.079-.163-1.416-.537-.658 3.64 1.265.519.195-.122.004-.003c.01.003.023.006.037.013l.058.023.062.007a.249.249 0 0 1 .042.012l.171.07 6.618 2.758.592.241.077.078c.051.052.106.101.165.144l.043.035 1.316.582.432-3.721-1.318-.539-.21.223a.442.442 0 0 1-.155.089 1.19 1.19 0 0 1-.336.074h-.028c-.146 0-.288-.01-.425-.031a1.909 1.909 0 0 1-.432-.121l-.017-.006-.545-.198 4.068-9.93c.061-.148.121-.261.183-.34a.43.43 0 0 1 .155-.128l.03-.017c.086-.048.177-.091.273-.125.103-.034.201-.067.29-.094l.132-.016.17-.035.981-.476zm-12.755-4.461a5.504 5.504 0 0 0-1.018-2.275c-.501-.661-1.173-1.262-2.003-1.785l-.654-.415c-1.047-.661-2.082-1.101-3.08-1.303a6.13 6.13 0 0 0-2.989.113 8.479 8.479 0 0 0-2.613 1.28 9.606 9.606 0 0 0-2.125 2.155l-.039.06a7.607 7.607 0 0 0-.279.482 9.236 9.236 0 0 0-.291.573 3.777 3.777 0 0 0-.146.326l-.12.323-.006.013a7.803 7.803 0 0 1-.095.299 2.814 2.814 0 0 0-.1.351 7.896 7.896 0 0 0-.319 2.11c-.016.73.07 1.49.253 2.26.17.808.535 1.569 1.092 2.259.542.674 1.263 1.3 2.15 1.861l.654.44c.89.547 1.813.917 2.743 1.103a7.188 7.188 0 0 0 2.87-.017 6.855 6.855 0 0 0 2.718-1.177c.812-.584 1.566-1.381 2.238-2.372l.007-.011c.054-.081.104-.165.15-.252a2.47 2.47 0 0 1 .112-.195l.026-.052c.041-.083.078-.16.117-.229.043-.08.083-.162.121-.248.094-.179.177-.362.245-.548a9.96 9.96 0 0 0 .187-.561 8.607 8.607 0 0 0 .392-2.219 9.613 9.613 0 0 0-.198-2.349m-16.159-13.243c-.367-.747-.914-1.466-1.626-2.136l-.564-.534c-.9-.851-1.834-1.479-2.773-1.867a6.223 6.223 0 0 0-2.955-.461 8.506 8.506 0 0 0-2.812.756 9.64 9.64 0 0 0-2.497 1.713l-.051.049a8.803 8.803 0 0 0-.367.421c-.127.156-.263.326-.393.504a5.24 5.24 0 0 0-.205.295 17.5 17.5 0 0 0-.18.292l-.006.012-.154.275a3.068 3.068 0 0 0-.163.324 8.038 8.038 0 0 0-.719 2.011 9.075 9.075 0 0 0-.183 2.268c.013.824.228 1.641.639 2.426.403.765.993 1.517 1.758 2.238l.555.556c.772.707 1.605 1.246 2.485 1.607a7.19 7.19 0 0 0 2.748.533h.069a6.863 6.863 0 0 0 2.896-.637c.909-.419 1.799-1.058 2.649-1.899l.009-.011c.068-.069.13-.143.194-.219.046-.058.097-.114.148-.17l.038-.044c.054-.075.107-.145.156-.204.058-.074.114-.147.166-.22.128-.158.242-.323.345-.491.098-.16.195-.333.294-.515a8.644 8.644 0 0 0 .806-2.105 9.212 9.212 0 0 0 .252-2.341c0-.852-.186-1.668-.559-2.426m-15.269-16.884-.789.394a.602.602 0 0 1 .025.25c-.01.095-.028.181-.056.258a2.41 2.41 0 0 1-.139.273c-.043.072-.09.14-.144.205a3.02 3.02 0 0 0-.102.095.198.198 0 0 1-.045.041l-.075.057-.023.042-.173.133a.778.778 0 0 0-.124.12l-8.112 6.212a4.266 4.266 0 0 1-.387.265 3.035 3.035 0 0 1-.357.183 1.165 1.165 0 0 1-.336.056c-.127 0-.275-.028-.44-.078l-1.322-.404 4.334 5.747.596.776.012.002h.002c.012.031.026.057.032.083l-.022.118.837 1.157 2.858-2.189-.893-1.169-.245.022a.871.871 0 0 1-.366-.053 2.237 2.237 0 0 1-.498-.242 3.887 3.887 0 0 1-.706-.61l-.155-.204a1.202 1.202 0 0 0-.081-.149 1.243 1.243 0 0 0-.09-.141c-.027-.055-.052-.106-.077-.148a.838.838 0 0 1-.043-.09l-.024-.053a2.36 2.36 0 0 1-.105-.214l2.295-1.759 1.05 1.37a.452.452 0 0 1 .023.05.239.239 0 0 1 .023.055l-.023.128.838 1.158 2.604-1.992-.879-1.147-.221-.003a.534.534 0 0 1-.218-.052 1.375 1.375 0 0 1-.32-.21 4.542 4.542 0 0 1-.287-.263 6.703 6.703 0 0 1-.264-.268 3.144 3.144 0 0 0-.241-.378l-.02-.028 3.471-2.658.027.003.233-.179a6.69 6.69 0 0 1 .398-.198c.123-.054.251-.097.388-.125a.917.917 0 0 1 .308.012.945.945 0 0 1 .321.151l.616-.641zm80.135 70.486c-50.673 0-94.429-29.64-114.875-72.532 12.928-7.243 25.55-13.214 37.974-17.958 13.736 28.67 43.045 48.519 76.901 48.519 33.926 0 63.286-19.926 76.989-48.687.959.069 1.947.112 2.964.112 6.79 0 12.78-1.85 17.804-5.498 3.178-.179 12.681-1.005 19.127-4.547l.019-.012c1.055-.617 2.537-1.7 3.05-2.232.464-.48.879-1.015.768-1.684-.124-.762-.834-1.127-1.516-1.485-.478-.248-2.364-.999-2.89-1.172-.673-.232-1.803-.608-3.229-1.086-1.636-.547-3.671-1.227-5.704-1.916-5.013-1.7-6.755-2.729-7.286-3.109-.532-.897-1.803-2.98-3.792-5.802a125.512 125.512 0 0 0-11.269-13.761c-2.924-44.359-39.946-79.547-85.035-79.547-46.92 0-85.106 38.117-85.213 85.018a203.348 203.348 0 0 0-21.1 5.268l-1.805.558-6.101 19.554a343.192 343.192 0 0 0-9.593 4.037 127.599 127.599 0 0 1-3.372-29.221c0-70.241 56.948-127.187 127.184-127.187 70.256 0 127.191 56.946 127.191 127.187 0 70.24-56.935 127.183-127.191 127.183" style="fill:#231f20;fill-opacity:1;fill-rule:nonzero;stroke:none" transform="translate(430.567 379.315)"/><path d="m0 0-6.484 3.498L.241 6.521l1.321 7.244 4.959-5.46 7.3.979-3.671-6.393 3.196-6.643-7.224 1.511L.803-7.328z" style="fill:#231f20;fill-opacity:1;fill-rule:nonzero;stroke:none" transform="translate(436.589 494.81)"/><path d="m0 0-2.236-3.895 1.951-4.06-4.407.92-3.252-3.102-.49 4.473-3.954 2.139 4.101 1.839.809 4.428 3.017-3.334z" style="fill:#fff;fill-opacity:1;fill-rule:nonzero;stroke:none" transform="translate(446.95 501.768)"/><path d="m0 0 3.953-2.139L6.692-.238z" style="fill:#231f20;fill-opacity:1;fill-rule:nonzero;stroke:none" transform="translate(434.565 498.242)"/><path d="m0 0-.863-4.417 2.634-2.047Z" style="fill:#231f20;fill-opacity:1;fill-rule:nonzero;stroke:none" transform="translate(439.486 504.469)"/><path d="m0 0-4.573-.638-1.117-3.138Z" style="fill:#231f20;fill-opacity:1;fill-rule:nonzero;stroke:none" transform="translate(446.947 501.78)"/><path d="m0 0-1.951 4.061-3.456.13z" style="fill:#231f20;fill-opacity:1;fill-rule:nonzero;stroke:none" transform="translate(446.665 493.813)"/><path d="m0 0 3.222 3.08-.971 3.294Z" style="fill:#231f20;fill-opacity:1;fill-rule:nonzero;stroke:none" transform="translate(439.006 491.63)"/><path d="m0 0-7.237 1.391 5.505 4.901-.912 7.307L3.715 9.88l6.672 3.122-1.573-7.2L13.853.423 6.515-.303 2.951-6.751Z" style="fill:#231f20;fill-opacity:1;fill-rule:nonzero;stroke:none" transform="translate(407.731 526.143)"/><path d="m0 0-.964-4.391 3.075-3.281-4.479-.445-2.173-3.936-1.799 4.12-4.416.851 3.355 2.988-.555 4.466 3.88-2.275z" style="fill:#fff;fill-opacity:1;fill-rule:nonzero;stroke:none" transform="translate(415.522 535.887)"/><path d="m0 0 4.416-.851 2.039 2.634Z" style="fill:#231f20;fill-opacity:1;fill-rule:nonzero;stroke:none" transform="translate(404.767 528.805)"/><path d="m0 0 .509-4.467 3.122-1.167Z" style="fill:#231f20;fill-opacity:1;fill-rule:nonzero;stroke:none" transform="translate(407.59 536.223)"/><path d="m0 0-4.166-1.981-.125-3.331Z" style="fill:#231f20;fill-opacity:1;fill-rule:nonzero;stroke:none" transform="translate(415.513 535.9)"/><path d="m0 0-3.075 3.282-3.338-.909Z" style="fill:#231f20;fill-opacity:1;fill-rule:nonzero;stroke:none" transform="translate(417.634 528.215)"/><path d="m0 0 2.153 3.903-1.912 2.85Z" style="fill:#231f20;fill-opacity:1;fill-rule:nonzero;stroke:none" transform="translate(410.98 523.835)"/><path d="m0 0-7.326-.848 3.784 6.331-3.053 6.697 7.183-1.644 5.425 4.982.646-7.343 6.42-3.613-6.781-2.899-1.456-7.219Z" style="fill:#231f20;fill-opacity:1;fill-rule:nonzero;stroke:none" transform="translate(370.8 547.377)"/><path d="m0 0 .395-4.48 3.917-2.21L.175-8.456l-.893-4.408-2.957 3.392-4.467-.51 2.309 3.855-1.868 4.09 4.377-1.003z" style="fill:#fff;fill-opacity:1;fill-rule:nonzero;stroke:none" transform="translate(375.312 559.012)"/><path d="m0 0 4.467.51 1.156 3.125Z" style="fill:#231f20;fill-opacity:1;fill-rule:nonzero;stroke:none" transform="translate(367.17 549.03)"/><path d="m0 0 1.818-4.113 3.33-.171z" style="fill:#231f20;fill-opacity:1;fill-rule:nonzero;stroke:none" transform="translate(367.646 556.949)"/><path d="m0 0-3.385-3.141.876-3.213z" style="fill:#231f20;fill-opacity:1;fill-rule:nonzero;stroke:none" transform="translate(375.303 559.02)"/><path d="m0 0-3.918 2.209L-6.83.343Z" style="fill:#231f20;fill-opacity:1;fill-rule:nonzero;stroke:none" transform="translate(379.624 552.322)"/><path d="m0 0 .882 4.372L-1.8 6.518Z" style="fill:#231f20;fill-opacity:1;fill-rule:nonzero;stroke:none" transform="translate(374.594 546.148)"/><path d="m0 0-6.73-2.997 1.707 7.168-4.925 5.472 7.343.59L1.08 16.61l2.825-6.809 7.211-1.525-5.603-4.795.774-7.325Z" style="fill:#231f20;fill-opacity:1;fill-rule:nonzero;stroke:none" transform="translate(329.198 556.552)"/><path d="m0 0 1.725-4.153 4.406-.936-3.427-2.924.472-4.474-3.834 2.351-4.114-1.828 1.048 4.369-3.011 3.343 4.482.359z" style="fill:#fff;fill-opacity:1;fill-rule:nonzero;stroke:none" transform="translate(330.009 569.006)"/><path d="m0 0 4.114 1.828.162 3.326Z" style="fill:#231f20;fill-opacity:1;fill-rule:nonzero;stroke:none" transform="translate(325.236 557.042)"/><path d="m0 0 2.972-3.374 3.226.833z" style="fill:#231f20;fill-opacity:1;fill-rule:nonzero;stroke:none" transform="translate(323.315 564.737)"/><path d="m0 0-2.289-4.007 1.803-2.806z" style="fill:#231f20;fill-opacity:1;fill-rule:nonzero;stroke:none" transform="translate(329.999 569.01)"/><path d="m0 0-4.406.937-2.222-2.657Z" style="fill:#231f20;fill-opacity:1;fill-rule:nonzero;stroke:none" transform="translate(336.14 563.916)"/><path d="m0 0-.468 4.433-3.203 1.244Z" style="fill:#231f20;fill-opacity:1;fill-rule:nonzero;stroke:none" transform="translate(333.184 556.519)"/><path d="m0 0-5.518-4.89-.517 7.359-6.349 3.74 6.835 2.766 1.6 7.191 4.735-5.648 7.336.705-3.908-6.252 2.934-6.758z" style="fill:#231f20;fill-opacity:1;fill-rule:nonzero;stroke:none" transform="translate(286.759 552.83)"/><path d="m0 0 2.887-3.449 4.483.434-2.383-3.817 1.788-4.13-4.361 1.09-3.375-2.974-.311 4.483-3.881 2.282 4.171 1.69z" style="fill:#fff;fill-opacity:1;fill-rule:nonzero;stroke:none" transform="translate(283.8 564.953)"/><path d="m0 0 3.376 2.975L2.528 6.2Z" style="fill:#231f20;fill-opacity:1;fill-rule:nonzero;stroke:none" transform="translate(282.838 552.107)"/><path d="m0 0 3.853-2.33L6.677-.563z" style="fill:#231f20;fill-opacity:1;fill-rule:nonzero;stroke:none" transform="translate(278.69 558.87)"/><path d="m0 0-.979-4.513 2.561-2.133Z" style="fill:#231f20;fill-opacity:1;fill-rule:nonzero;stroke:none" transform="translate(283.784 564.953)"/><path d="m0 0-4.481-.435-1.323-3.196Z" style="fill:#231f20;fill-opacity:1;fill-rule:nonzero;stroke:none" transform="translate(291.17 561.938)"/><path d="m0 0-1.782 4.09-3.427.225Z" style="fill:#231f20;fill-opacity:1;fill-rule:nonzero;stroke:none" transform="translate(290.575 553.99)"/><path d="m0 0-3.798-6.32L-6.502.544l-7.171 1.664 5.684 4.683-.632 7.343 6.215-3.966 6.791 2.874-1.856-7.138L7.359.44Z" style="fill:#231f20;fill-opacity:1;fill-rule:nonzero;stroke:none" transform="translate(247.392 536.548)"/><path d="m0 0 3.786-2.42L7.935-.665 6.801-5.026l2.95-3.397-4.493-.267-2.324-3.85-1.642 4.175-4.387 1.023L.38-4.483Z" style="fill:#fff;fill-opacity:1;fill-rule:nonzero;stroke:none" transform="translate(240.935 547.221)"/><path d="m0 0 2.323 3.848L.551 6.675Z" style="fill:#231f20;fill-opacity:1;fill-rule:nonzero;stroke:none" transform="translate(243.87 534.682)"/><path d="m0 0 4.372-1.07 2.166 2.538Z" style="fill:#231f20;fill-opacity:1;fill-rule:nonzero;stroke:none" transform="translate(237.882 539.889)"/><path d="m0 0 .42-4.599 3.083-1.265Z" style="fill:#231f20;fill-opacity:1;fill-rule:nonzero;stroke:none" transform="translate(240.917 547.221)"/><path d="m0 0-4.148-1.755-.301-3.444Z" style="fill:#231f20;fill-opacity:1;fill-rule:nonzero;stroke:none" transform="translate(248.87 546.556)"/><path d="m0 0-2.925 3.369-3.339-.81Z" style="fill:#231f20;fill-opacity:1;fill-rule:nonzero;stroke:none" transform="translate(250.685 538.798)"/><path d="m0 0-1.728-7.159-4.636 5.729-7.346-.562 4.022 6.179-2.804 6.81 7.124-1.917 5.609 4.782.37-7.372L6.89 2.631Z" style="fill:#231f20;fill-opacity:1;fill-rule:nonzero;stroke:none" transform="translate(214.72 509.2)"/><path d="m0 0 4.345-1.175L7.773 1.74 8-2.752l3.833-2.358-4.201-1.604-1.07-4.37L3.747-7.59l-4.492-.342 2.453 3.767z" style="fill:#fff;fill-opacity:1;fill-rule:nonzero;stroke:none" transform="translate(205.356 517.451)"/><path d="m0 0 1.07 4.37-2.541 2.164Z" style="fill:#231f20;fill-opacity:1;fill-rule:nonzero;stroke:none" transform="translate(211.918 506.367)"/><path d="m0 0 4.493.296 1.309 3.067Z" style="fill:#231f20;fill-opacity:1;fill-rule:nonzero;stroke:none" transform="translate(204.644 509.538)"/><path d="m0 0 1.775-4.26L5.1-4.543Z" style="fill:#231f20;fill-opacity:1;fill-rule:nonzero;stroke:none" transform="translate(205.346 517.445)"/><path d="m0 0-3.427-2.916.745-3.375z" style="fill:#231f20;fill-opacity:1;fill-rule:nonzero;stroke:none" transform="translate(213.128 519.191)"/><path d="m0 0-3.795 2.334L-6.742.559Z" style="fill:#231f20;fill-opacity:1;fill-rule:nonzero;stroke:none" transform="translate(217.189 512.342)"/></g></svg>