<svg xmlns="http://www.w3.org/2000/svg" width="512pt" height="512pt" style="isolation:isolate" viewBox="0 0 512 512"><defs><clipPath id="a"><path d="M0 0h512v512H0z"/></clipPath></defs><g clip-path="url(#a)"><linearGradient id="b" x1=".175" x2="1.606" y1=".649" y2=".247" gradientTransform="matrix(75.316 0 0 68.138 309.196 0)" gradientUnits="userSpaceOnUse"><stop offset="0%" style="stop-color:#f59723"/><stop offset="31.2%" style="stop-color:#f69822"/><stop offset="83.8%" style="stop-color:#e87726"/></linearGradient><path fill="url(#b)" d="M346.754 2.304c-8.078 4.741-21.521 18.162-37.558 37.628l14.696 27.614c10.343-14.666 20.835-27.91 31.298-39.11l1.222-1.303-1.222 1.303c-3.428 3.734-13.831 15.822-29.51 39.702 15.113-.74 38.154-3.822 57.231-7.022 5.664-31.406-5.514-45.627-5.514-45.627S363.208-7.325 346.695 2.423l.059-.119Z"/><path fill="none" d="M321.716 159.897c.089-.029.208-.029.327-.059l-2.116.237-.358.178a25.026 25.026 0 0 1 2.147-.356Zm-14.904 49.48c-1.193.266-2.415.474-3.667.681 1.252-.207 2.474-.444 3.667-.681ZM204.571 320.186c.149-.385.298-.829.447-1.214 3.249-8.504 6.468-16.77 9.628-24.829a1461.69 1461.69 0 0 1 10.581-26.251 2445.982 2445.982 0 0 1 10.851-25.924 1521.497 1521.497 0 0 1 11.058-25.303 1656.739 1656.739 0 0 1 8.704-19.199 611.943 611.943 0 0 1 2.862-6.133c1.878-4.03 3.726-7.941 5.574-11.792 1.699-3.526 3.368-6.992 5.067-10.429.566-1.126 1.103-2.252 1.669-3.378.09-.178.179-.356.269-.563l-1.819.178-1.43-2.815c-.149.267-.269.563-.418.83-2.563 5.125-5.156 10.251-7.69 15.436-1.461 3.022-2.921 6.044-4.382 9.037-4.024 8.385-7.959 16.888-11.863 25.362-3.935 8.621-7.78 17.273-11.596 25.954-3.696 8.533-7.362 17.066-10.909 25.569a2682.608 2682.608 0 0 0-10.433 25.362 2048.245 2048.245 0 0 0-10.314 26.073c-.775 1.955-1.49 3.881-2.265 5.807a2129.239 2129.239 0 0 0-7.84 20.562l2.266 4.444 2.027-.207c.059-.207.149-.385.208-.622 3.309-8.829 6.558-17.511 9.748-25.955Z"/><path fill="#BD202E" d="M297.273 234.264c-1.878.326-3.786.682-5.783 1.008 0 0-.029 0-.029.029a684.39 684.39 0 0 0 2.98-.444c.924-.208 1.878-.385 2.832-.593Z"/><path d="M297.273 234.264c-1.878.326-3.786.682-5.783 1.008 0 0-.029 0-.029.029a684.39 684.39 0 0 0 2.98-.444c.924-.208 1.878-.385 2.832-.593Z"/><path fill="#BD202E" d="M302.34 210.265c-.029 0-.029 0-.029.03.298-.03.626-.089.924-.148 1.252-.178 2.474-.385 3.666-.682-1.49.267-2.981.534-4.561.8Z"/><path d="M302.34 210.265c-.029 0-.029 0-.029.03.298-.03.626-.089.924-.148 1.252-.178 2.474-.385 3.666-.682-1.49.267-2.981.534-4.561.8Z"/><linearGradient id="c" x1="-2.169" x2="-.142" y1="3.953" y2="-.4" gradientTransform="matrix(74.937 0 0 122.839 249.014 39.903)" gradientUnits="userSpaceOnUse"><stop offset="32.3%" style="stop-color:#9c2063"/><stop offset="63%" style="stop-color:#c82037"/><stop offset="75.1%" style="stop-color:#cc2135"/><stop offset="100%" style="stop-color:#e87726"/></linearGradient><path fill="url(#c)" d="M280.581 138.861a879.544 879.544 0 0 1 13.562-24.325c4.74-8.236 9.569-16.177 14.427-23.88.269-.445.596-.919.865-1.363a578.105 578.105 0 0 1 14.516-21.777l-14.695-27.613a286.03 286.03 0 0 0-3.339 4.118 630.205 630.205 0 0 0-13.175 16.918c-5.097 6.755-10.313 13.984-15.649 21.569-4.888 6.992-9.896 14.311-14.904 21.925a863.135 863.135 0 0 0-12.728 19.91 17.59 17.59 0 0 0-.447.771l19.167 37.628c4.053-8.148 8.227-16.118 12.4-23.881Z"/><linearGradient id="d" x1="-.196" x2="1.264" y1="1.937" y2="-1.198" gradientTransform="matrix(89.394 0 0 84.618 177.773 326.734)" gradientUnits="userSpaceOnUse"><stop offset="0%" style="stop-color:#282661"/><stop offset="9.55%" style="stop-color:#662e8c"/><stop offset="78.8%" style="stop-color:#9e2064"/><stop offset="94.9%" style="stop-color:#cc2032"/></linearGradient><path fill="url(#d)" d="M193.244 350.704a1663.306 1663.306 0 0 0-7.631 21.184c-.03.089-.06.207-.119.296-.358 1.007-.746 2.044-1.074 3.052-1.728 4.859-3.219 9.244-6.647 19.169 5.634 2.548 10.165 9.304 14.457 16.948-.447-7.911-3.726-15.348-10.015-21.096 27.81 1.245 51.865-5.748 64.087-25.954a51.947 51.947 0 0 0 3.04-5.718c-5.634 7.11-12.638 10.103-25.784 9.392-.03 0-.059.029-.089.029.03 0 .059-.029.089-.029 19.375-8.622 29.063-16.888 37.558-30.517 2.027-3.259 4.024-6.785 6.051-10.726-16.931 17.274-36.365 22.192-57.231 18.459l-15.5 1.688c-.507 1.304-.954 2.578-1.461 3.882l.269-.059Z"/><linearGradient id="e" x1="-.793" x2=".522" y1="1.707" y2="-1.118" gradientTransform="matrix(96.995 0 0 217.916 171.305 125.084)" gradientUnits="userSpaceOnUse"><stop offset="32.3%" style="stop-color:#9c2063"/><stop offset="63%" style="stop-color:#c82037"/><stop offset="75.1%" style="stop-color:#cc2135"/><stop offset="100%" style="stop-color:#e87726"/></linearGradient><path fill="url(#e)" d="M200.696 316.335a2585.582 2585.582 0 0 1 10.313-26.073c3.398-8.415 6.856-16.888 10.433-25.362a2953.533 2953.533 0 0 1 10.91-25.569 1248.26 1248.26 0 0 1 11.595-25.955c3.905-8.533 7.839-17.006 11.863-25.361 1.431-3.023 2.922-6.045 4.382-9.037 2.534-5.185 5.097-10.34 7.691-15.436.149-.267.268-.563.417-.83l-19.167-37.628a26.252 26.252 0 0 1-.953 1.511 876.317 876.317 0 0 0-13.265 22.221 829.802 829.802 0 0 0-12.966 23.347 988.52 988.52 0 0 0-10.463 20.177c-.686 1.363-1.341 2.756-2.027 4.119a574.084 574.084 0 0 0-11.357 24.739 462.195 462.195 0 0 0-10.224 25.718 486.956 486.956 0 0 0-5.365 15.495c-1.342 4.237-2.593 8.503-3.845 12.74-2.862 9.955-5.336 19.911-7.363 29.925L190.561 343a2155.473 2155.473 0 0 1 7.839-20.562c.805-1.985 1.521-3.94 2.296-5.837v-.266Z"/><linearGradient id="f" x1="-.171" x2=".752" y1=".777" y2="-1.203" gradientTransform="matrix(62.805 0 0 206.924 127.487 305.076)" gradientUnits="userSpaceOnUse"><stop offset="0%" style="stop-color:#282661"/><stop offset="9.55%" style="stop-color:#662e8c"/><stop offset="78.8%" style="stop-color:#9e2064"/><stop offset="94.9%" style="stop-color:#cc2032"/></linearGradient><path fill="url(#f)" d="M170.888 306.261c-2.415 12.088-4.144 24.118-5.008 36.147l-.089 1.244c-6.022-9.57-22.088-18.903-22.058-18.814 11.535 16.592 20.269 33.184 21.551 49.183-6.17 1.244-14.606-.563-24.353-4.118 10.164 9.303 17.795 11.851 20.806 12.562-9.36.593-19.077 6.963-28.884 14.311 14.337-5.808 25.933-8.119 34.279-6.252-13.175 37.035-26.35 77.922-39.645 121.476 4.054-1.185 6.469-3.911 7.81-7.555 2.355-7.852 17.944-59.553 42.327-127.106.716-1.925 1.401-3.881 2.117-5.807.179-.563.387-1.096.596-1.6 2.563-7.111 5.276-14.369 8.018-21.777.626-1.688 1.252-3.377 1.908-5.066 0-.03.03-.059.03-.089l-19.286-37.924c-.06.385-.149.83-.239 1.274l.12-.089Z"/><linearGradient id="g" x1="-.341" x2=".839" y1="1.883" y2="-.652" gradientTransform="matrix(150.738 0 0 195.843 194.674 151.068)" gradientUnits="userSpaceOnUse"><stop offset="32.3%" style="stop-color:#9c2063"/><stop offset="63%" style="stop-color:#c82037"/><stop offset="75.1%" style="stop-color:#cc2135"/><stop offset="100%" style="stop-color:#e87726"/></linearGradient><path fill="url(#g)" d="M271.042 165.823c-.566 1.126-1.103 2.252-1.669 3.378-1.669 3.407-3.339 6.873-5.067 10.429a1127.763 1127.763 0 0 0-5.574 11.792 601.743 601.743 0 0 0-2.862 6.133 1640.03 1640.03 0 0 0-8.704 19.199c-3.607 8.088-7.333 16.533-11.059 25.303-3.547 8.355-7.213 16.977-10.85 25.924-3.487 8.474-7.005 17.244-10.582 26.251a1648.192 1648.192 0 0 0-9.627 24.828c-.149.386-.299.83-.448 1.215a2014.108 2014.108 0 0 0-9.717 26.014c-.06.207-.149.385-.209.622l15.5-1.689c-.298-.059-.625-.089-.924-.148 18.511-2.281 43.222-16.058 59.02-33.184 7.333-7.821 13.98-17.065 20.12-27.88 4.561-8.029 8.883-16.977 12.997-26.843 3.577-8.622 7.004-17.984 10.313-28.088-4.262 2.222-9.121 3.882-14.487 5.008a81.76 81.76 0 0 1-2.891.562c-.984.178-1.967.326-2.981.445 0 0 .03 0 .03-.03 17.289-6.607 28.169-19.347 36.068-34.961-4.531 3.081-11.923 7.111-20.776 9.036-1.193.267-2.415.475-3.667.682-.298.03-.626.089-.924.148h.06c6.021-2.489 11.058-5.303 15.44-8.592.954-.711 1.878-1.422 2.713-2.193 1.341-1.155 2.593-2.37 3.845-3.614.775-.83 1.52-1.659 2.265-2.519a58 58 0 0 0 4.829-6.607c.447-.741.924-1.452 1.342-2.222.596-1.096 1.132-2.192 1.669-3.229 2.414-4.8 4.352-9.126 5.872-12.889a128.944 128.944 0 0 0 2.027-5.274c.238-.651.447-1.274.656-1.896a73.823 73.823 0 0 0 1.49-4.829c.596-2.133.954-3.822 1.133-5.037-.596.444-1.252.918-2.027 1.363-5.217 3.111-14.159 5.896-21.372 7.229l14.218-1.54-14.218 1.54c-.09.03-.209.03-.328.059-.745.119-1.431.237-2.176.326l.357-.177-48.586 5.303c0 .119-.09.326-.179.504l-.06.148Z"/><linearGradient id="h" x1="-1.292" x2=".671" y1="4.665" y2=".449" gradientTransform="matrix(111.63 0 0 104.321 271.34 60.998)" gradientUnits="userSpaceOnUse"><stop offset="32.3%" style="stop-color:#9c2063"/><stop offset="63%" style="stop-color:#c82037"/><stop offset="75.1%" style="stop-color:#cc2135"/><stop offset="100%" style="stop-color:#e87726"/></linearGradient><path fill="url(#h)" d="M325.889 68.05c-4.322 6.607-9.032 14.103-14.159 22.606-.268.415-.566.918-.805 1.333a989.049 989.049 0 0 0-13.98 24.266 1117.396 1117.396 0 0 0-13.234 24.621c-3.995 7.674-8.108 15.821-12.371 24.443l48.587-5.303c14.189-6.489 20.508-12.326 26.648-20.829 1.61-2.341 3.279-4.77 4.889-7.318 5.008-7.763 9.896-16.296 14.278-24.799 4.232-8.207 7.958-16.325 10.82-23.673 1.818-4.652 3.279-8.977 4.292-12.799.895-3.348 1.58-6.548 2.117-9.6-18.869 3.229-42.029 6.311-57.231 7.052h.149Z"/><path fill="#BD202E" d="M294.292 234.857c-.983.178-1.967.326-2.98.444 1.013-.089 2.026-.266 2.98-.444Z"/><path fill="#BD202E" d="M294.292 234.857c-.983.178-1.967.326-2.98.444 1.013-.089 2.026-.266 2.98-.444Z" opacity=".35"/><linearGradient id="i" x1="-44.83" x2="28.69" y1="656.127" y2="498.246" gradientTransform="matrix(2.981 0 0 .444 291.312 234.857)" gradientUnits="userSpaceOnUse"><stop offset="32.3%" style="stop-color:#9c2063"/><stop offset="63%" style="stop-color:#c82037"/><stop offset="75.1%" style="stop-color:#cc2135"/><stop offset="100%" style="stop-color:#e87726"/></linearGradient><path fill="url(#i)" d="M294.292 234.857c-.983.178-1.967.326-2.98.444 1.013-.089 2.026-.266 2.98-.444Z"/><path fill="#BD202E" d="M302.34 210.265c.299-.029.626-.089.924-.148-.298.03-.596.119-.924.148Z"/><path fill="#BD202E" d="M302.34 210.265c.299-.029.626-.089.924-.148-.298.03-.596.119-.924.148Z" opacity=".35"/><linearGradient id="j" x1="-158.352" x2="78.808" y1="2130.172" y2="1620.879" gradientTransform="matrix(.924 0 0 .148 302.34 210.117)" gradientUnits="userSpaceOnUse"><stop offset="32.3%" style="stop-color:#9c2063"/><stop offset="63%" style="stop-color:#c82037"/><stop offset="75.1%" style="stop-color:#cc2135"/><stop offset="100%" style="stop-color:#e87726"/></linearGradient><path fill="url(#j)" d="M302.34 210.265c.299-.029.626-.089.924-.148-.298.03-.596.119-.924.148Z"/><path fill="#BD202E" d="M302.34 210.265c.03 0 .03-.029 0 0 .03-.029.03 0 0 0Z"/><path fill="#BD202E" d="M302.34 210.265c.03 0 .03-.029 0 0 .03-.029.03 0 0 0Z" opacity=".35"/><linearGradient id="k" x1="-1061.173" x2="1103.04" y1="3971.215" y2="-676.358" gradientTransform="matrix(.022 0 0 .013 302.34 210.252)" gradientUnits="userSpaceOnUse"><stop offset="32.3%" style="stop-color:#9c2063"/><stop offset="63%" style="stop-color:#c82037"/><stop offset="75.1%" style="stop-color:#cc2135"/><stop offset="100%" style="stop-color:#e87726"/></linearGradient><path fill="url(#k)" d="M302.34 210.265c.03 0 .03-.029 0 0 .03-.029.03 0 0 0Z"/></g></svg>