<svg xmlns="http://www.w3.org/2000/svg" width="512pt" height="512pt" style="isolation:isolate" viewBox="0 0 512 512"><defs><clipPath id="a"><path d="M0 0h512v512H0z"/></clipPath></defs><g clip-path="url(#a)"><path fill="#95BF47" d="M425.816 98.589c-.355-2.586-2.614-4.02-4.489-4.176-1.86-.156-38.309-.71-38.309-.71S352.534 64.1 349.523 61.089c-3.011-3.011-8.892-2.102-11.179-1.421-.028.015-5.724 1.776-15.312 4.745-1.605-5.199-3.964-11.591-7.33-18.012-10.852-20.71-26.747-31.662-45.952-31.69h-.071c-1.336 0-2.656.128-3.991.241a59.216 59.216 0 0 0-1.733-2.003C255.588 4.001 244.864-.36 232.009.023c-24.802.71-49.503 18.623-69.532 50.441-14.091 22.386-24.816 50.512-27.855 72.287-28.481 8.821-48.395 14.986-48.836 15.128-14.375 4.517-14.829 4.957-16.704 18.509-1.392 10.241-39.006 301.095-39.006 301.095L345.29 512l136.62-33.964s-55.739-376.861-56.094-379.447ZM307.25 69.299c-7.258 2.244-15.512 4.801-24.46 7.571-.185-12.557-1.676-30.028-7.529-45.128 18.822 3.566 28.083 24.858 31.989 37.557Zm-40.952 12.685c-16.52 5.113-34.545 10.696-52.628 16.293 5.085-19.475 14.731-38.864 26.577-51.577 4.404-4.731 10.568-10 17.869-13.012 6.861 14.318 8.353 34.588 8.182 48.296Zm-33.793-65.455c5.824-.128 10.725 1.151 14.916 3.906-6.705 3.48-13.183 8.48-19.262 15-15.753 16.904-27.827 43.14-32.642 68.452-15.015 4.645-29.702 9.205-43.225 13.381 8.537-39.844 41.932-99.631 80.213-100.739Z"/><path fill="#5E8E3E" d="M421.341 94.427c-1.86-.156-38.31-.71-38.31-.71s-30.482-29.602-33.494-32.614c-1.122-1.122-2.642-1.704-4.233-1.946l.014 452.829 136.606-33.949S426.185 101.189 425.83 98.604c-.355-2.586-2.628-4.021-4.489-4.177Z"/><path fill="#FFF" d="m269.579 164.669-15.866 59.361s-17.699-8.054-38.679-6.733c-30.768 1.947-31.095 21.35-30.781 26.222 1.676 26.548 71.519 32.344 75.44 94.532 3.082 48.92-25.952 82.386-67.784 85.028-50.214 3.168-77.856-26.449-77.856-26.449l10.639-45.255s27.827 20.994 50.1 19.588c14.546-.924 19.744-12.756 19.218-21.123-2.187-34.631-59.062-32.585-62.656-89.489-3.025-47.883 28.424-96.406 97.813-100.781 26.733-1.719 40.412 5.099 40.412 5.099Z"/></g></svg>