<?xml version="1.0" encoding="UTF-8" standalone="no"?>
<!-- Generator: Gravit.io -->
<svg xmlns="http://www.w3.org/2000/svg" xmlns:xlink="http://www.w3.org/1999/xlink" style="isolation:isolate" viewBox="0 0 64 64" width="64pt" height="64pt"><defs><clipPath id="_clipPath_GEK5jZd83VRVLU8q0HwCUScL9hY2E9p1"><rect width="64" height="64"/></clipPath></defs><g clip-path="url(#_clipPath_GEK5jZd83VRVLU8q0HwCUScL9hY2E9p1)"><path d=" M 14.192 41.059 C 14.192 44.778 11.188 47.785 7.472 47.785 C 3.755 47.785 0.751 44.778 0.751 41.059 C 0.751 37.339 3.755 34.332 7.472 34.332 L 14.192 34.332 L 14.192 41.059 Z  M 17.553 41.059 C 17.553 37.339 20.557 34.332 24.274 34.332 C 27.99 34.332 30.994 37.339 30.994 41.059 L 30.994 57.874 C 30.994 61.594 27.99 64.6 24.274 64.6 C 20.557 64.6 17.553 61.594 17.553 57.874 L 17.553 41.059 Z " fill="rgb(224,30,90)"/><path d=" M 24.274 14.052 C 20.557 14.052 17.553 11.046 17.553 7.326 C 17.553 3.606 20.557 0.6 24.274 0.6 C 27.99 0.6 30.994 3.606 30.994 7.326 L 30.994 14.052 L 24.274 14.052 Z  M 24.274 17.466 C 27.99 17.466 30.994 20.473 30.994 24.192 C 30.994 27.912 27.99 30.918 24.274 30.918 L 7.421 30.918 C 3.704 30.918 0.7 27.912 0.7 24.192 C 0.7 20.473 3.704 17.466 7.421 17.466 L 24.274 17.466 Z " fill="rgb(54,197,240)"/><path d=" M 51.208 24.192 C 51.208 20.473 54.212 17.466 57.928 17.466 C 61.645 17.466 64.649 20.473 64.649 24.192 C 64.649 27.912 61.645 30.918 57.928 30.918 L 51.208 30.918 L 51.208 24.192 Z  M 47.847 24.192 C 47.847 27.912 44.843 30.918 41.126 30.918 C 37.41 30.918 34.406 27.912 34.406 24.192 L 34.406 7.326 C 34.406 3.606 37.41 0.6 41.126 0.6 C 44.843 0.6 47.847 3.606 47.847 7.326 L 47.847 24.192 L 47.847 24.192 Z " fill="rgb(46,182,125)"/><path d=" M 41.126 51.148 C 44.843 51.148 47.847 54.154 47.847 57.874 C 47.847 61.594 44.843 64.6 41.126 64.6 C 37.41 64.6 34.406 61.594 34.406 57.874 L 34.406 51.148 L 41.126 51.148 Z  M 41.126 47.785 C 37.41 47.785 34.406 44.778 34.406 41.059 C 34.406 37.339 37.41 34.332 41.126 34.332 L 57.979 34.332 C 61.696 34.332 64.7 37.339 64.7 41.059 C 64.7 44.778 61.696 47.785 57.979 47.785 L 41.126 47.785 Z " fill="rgb(236,178,46)"/></g></svg>