<?xml version="1.0" encoding="UTF-8" standalone="no"?>
<!-- Generator: Gravit.io -->
<svg xmlns="http://www.w3.org/2000/svg" xmlns:xlink="http://www.w3.org/1999/xlink" style="isolation:isolate" viewBox="0 0 64 64" width="64pt" height="64pt"><defs><clipPath id="_clipPath_9CV5cXsjqd019cYAgRnBWTL8XzyoM9RH"><rect width="64" height="64"/></clipPath></defs><g clip-path="url(#_clipPath_9CV5cXsjqd019cYAgRnBWTL8XzyoM9RH)"><path d=" M 32 64 L 10.42 48.864 L 10.42 13.542 C 10.42 13.542 18.402 10.587 32.028 10.587 C 45.654 10.587 53.58 13.537 53.58 13.537 L 53.58 48.86 L 32 64 Z " fill="rgb(255,255,255)"/><path d=" M 32 61.875 L 11.799 47.765 L 11.799 14.958 C 11.799 14.958 19.353 12.218 32 12.218 L 32 61.875 Z " fill="rgb(219,219,219)"/><path d=" M 32.028 12.218 L 32 12.218 L 32 61.847 L 32 61.847 L 52.038 47.779 L 52.038 14.958 C 52.038 14.958 44.675 12.218 32.028 12.218 Z " fill="rgb(198,198,198)"/><path d=" M 42.932 54.153 L 41.231 39.335 L 31.865 39.335 L 31.865 61.908 L 32 62.033 Q 37.466 58.296 42.932 54.153 Z " fill="rgb(59,59,99)"/><path d=" M 21.077 54.27 L 32 62.033 L 32 38.887 L 22.545 38.887 L 21.077 54.27 Z " fill="rgb(83,83,122)"/><path d=" M 36.679 49.885 C 36.679 52.429 34.265 53.692 32.051 53.692 C 29.838 53.692 27.391 52.429 27.391 49.885" fill="rgb(188,147,117)"/><path d=" M 32.023 51.204 C 30.248 51.204 29.386 49.918 29.386 47.275 L 30.229 47.275 C 30.229 50.37 31.441 50.37 32.023 50.37 C 32.606 50.37 33.817 50.37 33.817 47.275 L 34.666 47.275 C 34.666 49.918 33.803 51.204 32.023 51.204 Z " fill="rgb(255,255,255)"/><path d=" M 32 47.918 C 32.449 49.268 33.755 50.142 35.173 50.043 C 36.926 50.069 38.492 48.951 39.037 47.285 C 40.057 44.535 40.048 40.705 40.048 40.705 C 40.048 40.705 44.573 35.113 44.573 33.249 L 31.991 33.249 L 32 47.918 Z " fill="rgb(196,154,126)"/><path d=" M 19.25 33.24 C 19.25 35.425 23.738 40.696 23.738 40.696 C 23.738 40.696 23.738 44.521 24.744 47.275 C 25.291 48.942 26.858 50.06 28.612 50.034 C 30.073 50.099 31.422 49.253 32 47.909 L 32 33.24 L 19.25 33.24 Z " fill="rgb(216,183,160)"/><path d=" M 44.032 20.672 C 40.542 17.149 39.67 9.805 39.67 9.805 C 39.018 12.135 37.601 18.943 37.601 18.943 C 35.748 18.387 33.828 18.084 31.893 18.043 Q 31.748 18.043 31.893 45.635 L 34.689 43.627 L 35.229 33.887 L 38.23 37.261 L 42.103 38.375 L 43.547 37.364 C 43.965 36.767 44.292 36.113 44.517 35.42 C 45.057 34.069 43.85 23.635 43.85 23.635 C 43.422 22.764 44.032 20.672 44.032 20.672 Z " fill="rgb(59,59,99)"/><path d=" M 26.473 18.943 C 26.473 18.943 25.075 12.116 24.409 9.8 C 24.409 9.8 23.537 17.149 20.047 20.672 C 20.047 20.672 20.658 22.759 20.229 23.645 C 20.229 23.645 19.022 34.069 19.558 35.43 C 19.782 36.124 20.108 36.78 20.527 37.378 L 21.972 38.389 L 25.84 37.275 L 28.841 33.887 L 29.367 43.631 L 32.005 45.584 L 32.005 18.011 C 30.124 18.035 28.258 18.349 26.473 18.943 Z " fill="rgb(83,83,122)"/><path d=" M 41.59 2.992 C 42.168 4.063 47.145 13.877 47.145 17.279 L 44.936 23.202 C 45.309 26.543 46.054 33.803 45.491 35.22 C 45.146 36.096 43.827 37.904 42.695 39.363 L 44.237 53.235 L 42.149 54.713 L 40.994 44.577 C 40.839 45.637 40.584 46.679 40.23 47.69 C 39.803 48.918 38.936 49.944 37.797 50.57 C 37.736 53.701 34.805 55.388 32.047 55.388 C 29.288 55.388 26.31 53.701 26.245 50.575 C 25.104 49.948 24.236 48.92 23.808 47.69 C 23.466 46.718 23.216 45.717 23.062 44.698 L 21.953 54.899 L 19.851 53.394 L 21.366 39.414 C 20.229 37.946 18.882 36.115 18.533 35.22 C 17.973 33.822 18.686 26.543 19.064 23.202 L 16.734 17.074 L 16.734 16.874 C 16.734 13.472 21.86 4.054 22.419 2.992 L 24.073 0.009 Q 25.583 10.378 25.583 10.387 L 26.399 15.979 L 27.466 17.713 C 28.931 17.21 30.465 16.935 32.014 16.897 C 33.569 16.936 35.108 17.211 36.581 17.713 L 37.648 15.979 L 39.978 0 L 41.59 2.992 Z  M 32.051 53.166 C 33.272 53.166 35.01 52.62 35.444 51.176 L 35.309 51.176 C 35.082 51.173 34.857 51.156 34.633 51.125 C 34.001 51.906 33.025 52.326 32.023 52.248 C 31.025 52.326 30.053 51.908 29.423 51.129 C 29.198 51.165 28.971 51.184 28.743 51.185 L 28.608 51.185 C 29.046 52.62 30.812 53.166 32.051 53.166 Z  M 30.621 50.794 C 31.465 51.367 32.573 51.367 33.417 50.794 C 33.13 50.667 32.856 50.511 32.601 50.328 C 32.41 50.378 32.212 50.398 32.014 50.388 C 31.815 50.395 31.616 50.375 31.422 50.328 C 31.172 50.511 30.904 50.667 30.621 50.794 L 30.621 50.794 Z  M 39.298 40.034 C 40.821 38.198 43.058 35.243 43.389 34.414 C 43.617 33.566 43.212 27.918 42.685 23.169 L 42.657 22.908 L 43.123 21.734 C 41.665 20.201 40.644 18.099 39.95 16.119 L 39.857 16.739 L 37.555 20.467 L 36.627 20.108 C 35.159 19.524 33.602 19.193 32.023 19.129 C 30.452 19.19 28.902 19.521 27.443 20.108 L 26.543 20.485 L 24.213 16.757 L 24.143 16.291 C 23.44 18.253 22.419 20.317 20.965 21.818 L 21.389 22.936 L 21.361 23.202 C 20.825 27.932 20.401 33.58 20.658 34.451 C 20.914 35.323 23.235 38.216 24.735 40.043 L 24.987 40.351 L 24.987 40.742 C 24.987 40.779 24.987 44.409 25.919 46.935 C 26.298 48.157 27.436 48.983 28.715 48.967 C 29.675 48.935 30.538 48.371 30.952 47.504 C 31.315 46.8 31.497 45.64 31.497 44.032 L 32.429 44.032 C 32.411 45.218 32.608 46.397 33.011 47.513 C 33.44 48.376 34.308 48.934 35.271 48.967 C 36.549 48.984 37.686 48.16 38.067 46.94 C 38.999 44.405 38.999 40.779 38.999 40.742 L 38.999 40.351 L 39.298 40.034 Z " fill="rgb(51,49,82)"/><path d=" M 39.046 30.159 L 34.526 30.159 L 34.526 30.206 C 34.589 31.798 35.898 33.057 37.492 33.057 C 39.085 33.057 40.395 31.798 40.458 30.206 L 40.458 30.159 L 39.046 30.159 Z " fill="rgb(51,49,82)"/><path d=" M 35.653 30.159 L 35.653 30.206 C 35.653 31.143 36.413 31.902 37.35 31.902 C 38.286 31.902 39.046 31.143 39.046 30.206 L 39.046 30.159 L 35.653 30.159 Z " fill="rgb(255,255,255)"/><path d=" M 37.093 30.159 L 37.093 30.159 C 37.191 30.159 37.247 30.397 37.224 30.541 C 37.185 30.767 36.987 30.932 36.758 30.928 C 36.825 31.231 37.075 31.459 37.382 31.497 C 37.789 31.558 38.168 31.279 38.23 30.872 C 38.272 30.574 38.128 30.15 37.886 30.15 L 37.093 30.159 Z " fill="rgb(51,49,82)"/><path d=" M 28.137 30.159 L 23.617 30.159 L 23.617 30.206 C 23.68 31.798 24.989 33.057 26.583 33.057 C 28.176 33.057 29.486 31.798 29.549 30.206 L 29.549 30.159 L 28.137 30.159 Z " fill="rgb(51,49,82)"/><path d=" M 24.749 30.159 L 24.749 30.206 C 24.796 31.107 25.541 31.813 26.443 31.813 C 27.345 31.813 28.09 31.107 28.137 30.206 L 28.137 30.159 L 24.749 30.159 Z " fill="rgb(255,255,255)"/><path d=" M 26.963 30.159 L 26.17 30.159 L 26.147 30.159 C 26.25 30.159 26.301 30.397 26.282 30.541 C 26.243 30.767 26.046 30.932 25.816 30.928 C 25.884 31.294 26.208 31.556 26.58 31.546 C 26.952 31.535 27.26 31.255 27.307 30.886 C 27.354 30.588 27.21 30.159 26.963 30.159 Z " fill="rgb(51,49,82)"/><path d=" M 38.701 28.841 C 38.892 28.636 40.504 26.837 38.347 26.837 C 36.404 26.837 35.001 28.384 34.619 28.841 L 38.701 28.841 Z " fill="rgb(196,154,126)"/><path d=" M 29.409 28.841 C 29.041 28.375 27.638 26.837 25.681 26.837 C 23.528 26.837 25.141 28.636 25.327 28.841 L 29.409 28.841 Z " fill="rgb(216,183,160)"/><path d=" M 19.055 16.692 C 19.18 14.926 21.049 10.699 22.829 7.139 L 23.295 10.401 C 23.113 11.613 22.293 16.389 20.075 19.399 L 19.055 16.692 Z " fill="rgb(216,183,160)"/><path d=" M 40.789 10.121 L 41.222 7.12 C 43.002 10.681 44.871 14.907 44.997 16.673 L 43.999 19.32 C 41.604 16.021 40.849 10.634 40.789 10.121 Z " fill="rgb(196,154,126)"/><path d=" M 30.364 46.003 C 29.53 45.379 28.673 44.605 28.673 43.985 C 28.673 43.589 29.386 42.368 29.386 42.368 L 34.684 42.368 C 34.684 42.368 35.378 43.45 35.378 43.985 C 35.378 43.985 34.516 45.314 33.65 45.938 C 33.356 45.439 32.983 45.355 32.811 45.747 C 32.72 46.004 32.697 46.28 32.746 46.548 C 32.28 46.847 31.935 47.014 31.935 47.014 C 31.935 47.014 31.669 46.865 31.287 46.618 C 31.355 46.322 31.338 46.012 31.24 45.724 C 31.063 45.323 30.686 45.421 30.388 45.933 L 30.364 46.003 Z " fill="rgb(51,49,82)"/></g></svg>