<?xml version="1.0" encoding="UTF-8" standalone="no"?>
<!-- Generator: Gravit.io -->
<svg xmlns="http://www.w3.org/2000/svg" xmlns:xlink="http://www.w3.org/1999/xlink" style="isolation:isolate" viewBox="0 0 64 64" width="64pt" height="64pt"><defs><clipPath id="_clipPath_w9rUp9hXsOdplAhHtXgAiLcZfJHD9e9D"><rect width="64" height="64"/></clipPath></defs><g clip-path="url(#_clipPath_w9rUp9hXsOdplAhHtXgAiLcZfJHD9e9D)"><path d=" M 50.378 28.123 C 50.398 23.401 49.511 18.718 47.765 14.331 C 47.403 14.479 47.143 14.616 46.955 14.71 C 46.57 14.91 46.256 15.222 46.054 15.605 C 45.852 15.988 45.771 16.424 45.824 16.854 C 46.046 18.773 46.159 20.704 46.163 22.637 C 46.163 31.47 43.312 39.943 38.132 46.492 C 33.234 52.684 26.663 56.667 19.517 57.805 L 19.579 57.842 C 21.642 59.014 23.961 59.663 26.332 59.735 C 28.704 59.806 31.058 59.296 33.187 58.25 C 43.272 53.305 50.378 41.663 50.378 28.123 Z  M 52.348 13.431 C 51.721 13.414 51.095 13.453 50.475 13.55 C 52.287 18.194 53.208 23.138 53.19 28.123 C 53.19 43.304 44.732 56.775 32.385 61.687 C 33.007 61.727 33.636 61.752 34.268 61.752 L 34.362 61.752 C 37.304 61.739 40.206 61.071 42.858 59.796 C 45.509 58.522 47.844 56.672 49.691 54.383 C 54.419 48.531 57.321 40.648 57.321 32.005 C 57.366 25.479 55.648 19.062 52.348 13.431 L 52.348 13.431 Z  M 64 32.005 C 64.005 28.092 63.235 24.216 61.734 20.602 C 61.081 18.979 60.109 17.504 58.875 16.264 C 58.212 15.597 57.456 15.029 56.63 14.58 C 56.42 14.472 56.207 14.374 56.001 14.284 C 58.729 19.788 60.138 25.852 60.118 31.995 C 60.118 40.778 57.255 49.239 52.166 55.731 C 55.843 52.964 58.825 49.38 60.879 45.263 C 62.933 41.145 64.001 36.607 64 32.005 L 64 32.005 Z " fill-rule="evenodd" fill="rgb(253,52,86)"/><path d=" M 55.608 11.284 C 52.842 8.423 49.528 6.149 45.864 4.596 C 42.2 3.044 38.261 2.245 34.282 2.248 C 17.844 2.248 4.373 15.867 4.539 32.305 C 4.574 36.203 5.379 40.055 6.906 43.64 C 6.416 43.575 5.922 43.553 5.428 43.575 C 4.094 43.637 2.207 43.156 1.354 42.918 C 0.501 42.679 -0.261 43.362 0.086 44.157 L 0.086 44.183 C 3.039 50.945 9.585 55.348 15.834 55.333 C 16.249 55.333 16.664 55.311 17.077 55.268 C 31.712 54.155 43.326 39.946 43.326 22.64 C 43.326 21.549 43.279 20.464 43.185 19.387 C 43.173 19.257 43.123 19.134 43.04 19.033 C 42.957 18.933 42.845 18.86 42.72 18.824 C 42.594 18.789 42.461 18.792 42.337 18.834 C 42.214 18.875 42.106 18.954 42.028 19.058 L 42.028 19.058 C 37.98 24.415 31.983 33.834 24.483 28.926 C 21.592 27.043 20.052 22.991 20.923 18.867 C 22.485 11.461 31.116 6.578 34.918 8.11 C 35.215 8.229 36.285 8.656 36.65 9.632 C 37.206 11.121 35.529 12.346 34.673 14.985 C 33.751 17.84 34.271 20.866 34.918 20.999 C 35.641 21.144 36.852 18.495 39.838 16.084 C 42.006 14.338 43.64 13.846 44.667 11.992 C 45.657 10.185 43.893 8.28 44.493 8.11 C 45.093 7.94 45.653 10.022 47.439 11.056 C 48.932 11.923 50.262 11.381 52.225 11.302 C 52.951 11.297 53.676 11.352 54.393 11.468 C 54.393 11.468 54.776 11.522 55.384 11.649 C 55.43 11.661 55.479 11.657 55.523 11.639 C 55.568 11.622 55.605 11.59 55.63 11.549 C 55.655 11.508 55.667 11.46 55.663 11.413 C 55.659 11.365 55.639 11.32 55.608 11.284 L 55.608 11.284 Z  M 33.436 34.214 C 33.764 33.774 34.251 33.48 34.792 33.393 C 35.026 33.36 35.265 33.375 35.494 33.437 C 35.723 33.499 35.936 33.607 36.122 33.755 C 36.845 34.423 36.632 35.717 36.01 36.462 C 35.432 37.149 34.293 37.601 33.502 37.091 C 33.281 36.92 33.103 36.701 32.981 36.45 C 32.86 36.2 32.798 35.924 32.8 35.645 C 32.823 35.105 33.05 34.593 33.436 34.214 L 33.436 34.214 Z " fill="rgb(41,0,66)"/></g></svg>