<svg xmlns="http://www.w3.org/2000/svg" width="512pt" height="512pt" style="isolation:isolate" viewBox="0 0 512 512"><defs><clipPath id="a"><path d="M0 0h512v512H0z"/></clipPath></defs><g clip-path="url(#a)"><path fill="#0C1724" d="M54.604 272.069c0 3.387-.716 6.535-2.149 9.445a21.394 21.394 0 0 1-6.01 7.334c-2.587 2.032-5.651 3.587-9.194 4.702-3.542 1.116-7.442 1.674-11.661 1.674-5.056 0-9.592-.678-13.57-2.073-3.98-1.355-7.999-3.666-12.02-6.856l6.648-10.802c3.183 2.671 6.048 4.622 8.637 5.86 2.547 1.235 5.173 1.833 7.881 1.833 3.303 0 5.929-.837 7.961-2.551 2.03-1.713 2.985-3.985 2.985-6.894 0-1.235-.199-2.391-.558-3.467-.358-1.076-1.034-2.192-1.989-3.348-.956-1.115-2.308-2.391-4.02-3.706a196.541 196.541 0 0 0-6.567-4.942 165.498 165.498 0 0 1-6.01-4.466 48.73 48.73 0 0 1-5.334-4.942 22.578 22.578 0 0 1-3.861-5.897c-.955-2.152-1.472-4.664-1.472-7.414 0-3.189.677-6.138 1.99-8.77 1.313-2.632 3.144-4.863 5.452-6.734 2.308-1.873 5.056-3.308 8.316-4.343 3.224-1.036 6.724-1.554 10.546-1.554 4.02 0 7.881.518 11.619 1.594 3.741 1.076 7.205 2.631 10.428 4.702l-6.01 9.725c-4.099-2.87-8.439-4.343-12.975-4.343-2.746 0-5.055.717-6.846 2.152-1.791 1.435-2.706 3.228-2.706 5.42 0 2.073.796 3.946 2.388 5.58 1.591 1.674 4.337 3.946 8.24 6.975 3.94 2.87 7.205 5.42 9.752 7.57 2.586 2.152 4.616 4.225 6.128 6.138 1.512 1.913 2.507 3.826 3.104 5.817.597 2.033.875 4.185.875 6.578l.002.003Zm68.251-18.212c0 2.989-.318 6.219-.955 9.683-.597 3.467-1.671 6.657-3.183 9.606-1.513 2.949-3.463 5.382-5.892 7.253-2.428 1.913-5.533 2.869-9.233 2.869-6.208 0-11.103-2.47-14.684-7.451-3.582-4.943-5.373-11.757-5.373-20.404 0-8.889 1.791-15.901 5.453-21.123 3.621-5.221 8.556-7.81 14.765-7.81 5.892 0 10.546 2.47 13.967 7.333 3.423 4.9 5.136 11.596 5.136 20.045l-.001-.001Zm21.569-.757c0-5.779-.835-11.039-2.467-15.74-1.672-4.745-3.98-8.808-7.045-12.234-3.064-3.428-6.647-6.058-10.824-7.972-4.177-1.914-8.794-2.869-13.849-2.869-5.571 0-10.466 1.076-14.685 3.148-4.218 2.113-8.16 5.42-11.741 9.962l-.119-11.28H63.835v115.918h19.821v-48.961c1.95 2.272 3.82 4.185 5.651 5.737 1.79 1.554 3.621 2.83 5.49 3.786 1.87.957 3.82 1.674 5.888 2.073 2.069.398 4.299.597 6.647.597 5.254 0 10.187-1.076 14.723-3.148 4.536-2.112 8.477-5.061 11.779-8.888 3.303-3.828 5.892-8.289 7.763-13.349 1.91-5.104 2.826-10.722 2.826-16.78h.001Zm8.836 40.292h20.374V179.967H153.26v113.425Zm107.276.04v-77.391h-20.374v41.644c0 3.706-.16 6.577-.478 8.609-.318 2.033-.836 3.826-1.552 5.5-2.865 6.375-8.16 9.607-15.838 9.607-6.01 0-10.187-2.152-12.578-6.497-.954-1.634-1.591-3.507-1.95-5.581-.358-2.072-.557-5.061-.557-9.006v-44.272h-20.374v43.976c0 2.989.04 5.538.08 7.57a53.13 53.13 0 0 0 .398 5.5 45.42 45.42 0 0 0 .716 4.267 15.408 15.408 0 0 0 1.155 3.547c1.87 4.744 4.857 8.33 9.034 10.759 4.178 2.431 9.312 3.627 15.36 3.627 5.453 0 10.268-.957 14.407-2.87 4.139-1.912 8.159-5.022 12.058-9.365l.039 10.362 20.454.04v-.026Zm87.805-.04v-43.891c0-2.99-.04-5.539-.08-7.651-.039-2.112-.158-3.945-.398-5.5a37.2 37.2 0 0 0-.756-4.065 43.911 43.911 0 0 0-1.074-3.468c-1.871-4.621-4.857-8.208-9.034-10.721-4.177-2.514-9.313-3.786-15.403-3.786-5.452 0-10.267.956-14.406 2.869-4.139 1.913-8.16 5.061-12.058 9.366l-.04-10.363h-20.496v77.223h20.534v-41.687c0-3.587.12-6.417.398-8.411.239-1.993.757-3.866 1.473-5.661 1.313-3.108 3.382-5.42 6.128-7.012 2.746-1.593 6.01-2.391 9.828-2.391 6.01 0 10.187 2.152 12.578 6.497.915 1.634 1.552 3.507 1.91 5.538.358 2.033.557 5.061.557 8.969v44.06l20.336.04.003.045Zm84.3-5.103-31.038-38.62 26.224-28.134-15.441-6.654-27.301 31.684h-2.149v-66.577h-20.534v113.425h20.534v-41.086l30.722 42.624 18.98-6.658.003-.004ZM512 260.552v-12.636l-61.747-31.007v13.907l47.852 23.314-47.852 23.632v13.59L512 260.547v.005Zm-55.75-63.705c-3.78 0-6.846 3.109-6.846 6.937 0 3.905 3.066 6.974 6.846 6.974 3.823 0 6.847-3.068 6.847-6.974 0-3.866-3.024-6.937-6.847-6.937Zm.043 1.076c3.062 0 5.528 2.63 5.528 5.898s-2.466 5.897-5.528 5.859c-3.105 0-5.575-2.591-5.575-5.897 0-3.229 2.47-5.86 5.575-5.86Zm-1.314 6.578h.832c.997 0 1.474.358 1.673 1.355.16 1.036.359 1.714.519 1.953h1.314c-.123-.239-.321-.717-.478-1.913-.16-1.156-.599-1.754-1.313-1.873v-.08c.836-.239 1.512-.876 1.512-1.873 0-.717-.241-1.275-.718-1.594-.477-.359-1.233-.598-2.386-.598-.917 0-1.555.08-2.188.199v7.731h1.233V204.5v.001Zm0-3.587c.199-.04.477-.08.874-.08 1.394 0 1.871.678 1.871 1.355 0 .957-.878 1.315-1.871 1.315h-.874v-2.59Z"/></g></svg>