<svg xmlns="http://www.w3.org/2000/svg" width="512pt" height="512pt" style="isolation:isolate" viewBox="0 0 512 512"><defs><clipPath id="a"><path d="M0 0h512v512H0z"/></clipPath></defs><g clip-path="url(#a)"><path fill="#1ED760" d="M256.251.277C114.87.277.253 114.891.253 256.272c0 141.388 114.617 255.993 255.998 255.993 141.397 0 256.002-114.605 256.002-255.993C512.253 114.901 397.648.289 256.248.289l.003-.012Zm117.4 369.219c-4.586 7.52-14.429 9.904-21.949 5.288-60.106-36.714-135.772-45.029-224.882-24.669-8.587 1.956-17.146-3.424-19.103-12.014-1.965-8.59 3.393-17.15 12.002-19.106 97.517-22.279 181.164-12.686 248.643 28.552 7.52 4.616 9.905 14.429 5.289 21.949Zm31.333-69.705c-5.777 9.391-18.066 12.356-27.451 6.579-68.812-42.296-173.705-54.545-255.097-29.839-10.555 3.188-21.704-2.761-24.908-13.298-3.179-10.556 2.773-21.683 13.31-24.893 92.971-28.209 208.552-14.545 287.574 34.015 9.385 5.778 12.35 18.067 6.572 27.439v-.003Zm2.691-72.584c-82.508-49.006-218.634-53.512-297.408-29.604-12.65 3.837-26.027-3.304-29.861-15.954-3.833-12.656 3.302-26.024 15.961-29.869 90.427-27.452 240.753-22.148 335.745 34.244 11.402 6.752 15.132 21.447 8.376 32.81-6.725 11.378-21.46 15.129-32.801 8.373h-.012Z"/></g></svg>