<svg xmlns="http://www.w3.org/2000/svg" width="512pt" height="512pt" style="isolation:isolate" viewBox="0 0 512 512"><defs><clipPath id="a"><path d="M0 0h512v512H0z"/></clipPath></defs><g clip-path="url(#a)"><path fill="#5FB832" d="M464.756 368.51c-63.016 83.96-197.627 55.619-283.93 59.696 0 0-15.278.85-30.666 3.383 0 0 5.819-2.482 13.24-5.041 60.614-20.961 89.259-25.173 126.09-44.092 69.203-35.449 138.075-112.665 152.088-192.878-26.34 77.147-106.452 143.546-179.397 170.509-49.928 18.423-140.218 36.353-140.231 36.361.042.064-3.598-1.89-3.649-1.932-61.404-29.875-63.176-162.867 48.346-205.737 48.896-18.809 95.666-8.478 148.524-21.06 56.377-13.404 121.671-55.662 148.211-110.909 29.752 88.249 65.494 226.315 1.374 311.7Zm1.095-339.046c-7.502 17.823-16.657 33.884-27.212 48.249C392.183 30.035 327.341.329 255.67.329 114.685.329 0 115.027 0 255.985c0 73.896 31.542 140.54 81.829 187.254l5.599 4.96c-9.35-7.624-10.788-21.355-3.21-30.713 7.624-9.362 21.368-10.812 30.722-3.23 9.379 7.598 10.808 21.363 3.214 30.738-7.566 9.379-21.334 10.796-30.701 3.226l3.81 3.375c44.482 37.453 101.822 60.076 164.407 60.076 134.759 0 245.415-104.871 254.887-237.236 7.015-64.809-12.128-147.103-44.706-244.971Z"/></g></svg>