<svg xmlns="http://www.w3.org/2000/svg" width="512pt" height="512pt" style="isolation:isolate" viewBox="0 0 512 512"><defs><clipPath id="a"><path d="M0 0h512v512H0z"/></clipPath></defs><g clip-path="url(#a)"><path fill="#DC001C" d="M503.093 71.267c2.741-1.553 5.762-2.644 8.907-2.959-1.731 2.731-4.182 4.908-5.832 7.693-4.338 6.955-6.65 14.963-8.263 22.949-1.569 7.573-2.166 15.359-4.558 22.742-3.172 10.44-8.278 20.3-15.078 28.796-8.676 10.679-19.556 19.273-30.882 26.907-13.746 9.463-28.265 18.073-40.161 29.957-8.477 8.492-15.293 18.818-19.008 30.327-7.235 21.244-13.363 43.015-23.453 63.135-7.214 14.534-16.75 27.873-28.167 39.339-14.799 15.066-32.533 26.755-50.611 37.391-39.907 23.051-83.718 38.541-128.377 49.1-49.912 11.591-101.167 17.118-152.369 17.042A39.342 39.342 0 0 1 0 443.442c45.262-6.173 90.169-16.803 132.361-34.714 38.628-16.265 74.886-38.85 105.166-68.162 6.671-6.466 13.106-13.198 19.088-20.321 13.606-16.548 23.25-35.892 32.442-55.165 4.773-9.93 9.369-19.979 14.949-29.491 8.456-14.425 19.991-27.01 33.704-36.478 16.584-11.542 35.634-18.643 54.481-25.424 11.004-3.964 22.039-7.851 32.828-12.39 7.149-3.056 14.337-6.151 20.905-10.38 12.477-7.883 23.604-18.584 29.98-32.151 4.381-9.164 6.477-19.203 10.218-28.628-4.096 1.868-6.993 5.701-8.348 9.952-1.784 5.565-7.37 8.86-12.831 9.745 2.456-2.155 4.634-4.777 5.553-7.991 2.247-7.357 8.826-13.557 16.637-13.997 3.704-6.84 9.154-12.818 15.96-16.58M493.03 83.922c-1.79 1.075-1.984 3.963-.323 5.245 1.796 1.607 5.166.271 5.204-2.221.306-2.481-2.838-4.473-4.881-3.024Z"/><path fill="#01742F" d="M313.408 196.245c13.686-5.603 27.909-9.74 42.24-13.291-2.505 1.406-5.252 2.275-7.837 3.486-16.202 7.253-30.452 18.469-42.375 31.624-13.38 14.827-24.018 31.994-32.667 50.007-12.036 26.983-31.366 50.344-54.707 68.119-32.645 24.947-72.063 39.92-112.353 46.164-8.703 1.254-17.459 2.34-26.254 2.568 11.359-3.616 22.739-7.237 33.742-11.874 29.727-12.248 57.416-30.196 79.407-53.954 12.337-13.611 23.916-28.003 33.645-43.65 5.225-8.258 10.16-16.738 16.132-24.48 6.881-9.05 14.853-17.199 23.233-24.832 13.966-12.791 30.296-22.851 47.794-29.887Z"/><path fill="#FF3C00" d="M408.694 218.097c2.811-4.973 5.762-9.974 9.702-14.127-2.015 9.235-4.187 18.475-4.999 27.916-1.494 14.8-.58 29.687-.059 44.508.968 17.612-.231 35.783-7.058 52.217-6.816 16.255-16.739 31.359-29.882 43.091-17.997 15.983-41.177 25.06-64.689 28.579-9.542 1.362-19.228 2.198-28.861 1.541 5.026-3.262 10.466-5.847 15.621-8.914 15.471-8.866 30.576-18.633 43.741-30.789 13.239-12.242 24.302-26.803 33.096-42.585 8.65-15.511 12.692-33.025 16.638-50.219 3.999-17.52 8.004-35.376 16.75-51.218Z"/></g></svg>