<?xml version="1.0" encoding="UTF-8" standalone="no"?>
<!-- Generator: Gravit.io -->
<svg xmlns="http://www.w3.org/2000/svg" xmlns:xlink="http://www.w3.org/1999/xlink" style="isolation:isolate" viewBox="0 0 64 64" width="64pt" height="64pt"><defs><clipPath id="_clipPath_asdBmpMz9W75pOJ775QDLqx5nQm17ieG"><rect width="64" height="64"/></clipPath></defs><g clip-path="url(#_clipPath_asdBmpMz9W75pOJ775QDLqx5nQm17ieG)"><path d=" M 27.46 19.03 C 27.46 16.29 29.74 15.23 33.424 15.23 C 39.521 15.362 45.504 16.91 50.9 19.752 L 50.9 3.212 C 45.336 1.025 39.402 -0.065 33.424 0.002 C 19.224 0.002 9.7 7.44 9.7 19.86 C 9.7 39.292 36.384 36.136 36.384 44.512 C 36.384 47.788 33.584 48.804 29.644 48.804 C 23.834 48.804 16.33 46.4 10.444 43.2 L 10.444 59.956 C 16.504 62.593 23.037 63.969 29.646 64 C 44.24 64 54.3 56.79 54.3 44.154 C 54.3 23.182 27.46 26.928 27.46 19.034 L 27.46 19.03 L 27.46 19.03 Z " fill="rgb(103,114,229)"/></g></svg>