<svg xmlns="http://www.w3.org/2000/svg" width="512pt" height="512pt" style="isolation:isolate" viewBox="0 0 512 512"><defs><clipPath id="a"><path d="M0 0h512v512H0z"/></clipPath></defs><g clip-path="url(#a)"><path fill="#F05138" d="M511.964 141.814c-.03-5.149-.087-10.296-.229-15.451-.3-11.214-.963-22.53-2.956-33.624-2.023-11.267-5.329-21.743-10.539-31.978a107.453 107.453 0 0 0-19.777-27.224 107.437 107.437 0 0 0-27.227-19.779c-10.227-5.204-20.704-8.51-31.961-10.532-11.1-1.999-22.416-2.658-33.638-2.961-5.153-.14-10.3-.199-15.451-.231C364.072 0 357.954 0 351.841 0H160.159c-6.118 0-12.229 0-18.341.035-5.153.032-10.307.091-15.452.231a397.46 397.46 0 0 0-8.429.309c-8.438.407-16.889 1.153-25.21 2.652-8.442 1.517-16.448 3.755-24.236 6.975a107.503 107.503 0 0 0-28.749 17.599 107.354 107.354 0 0 0-6.203 5.735A107.417 107.417 0 0 0 13.76 60.761C8.55 70.995 5.248 81.471 3.224 92.738 1.232 103.832.57 115.148.268 126.362c-.141 5.155-.2 10.302-.234 15.451C-.005 147.929 0 154.045 0 160.159v191.68c0 6.119-.006 12.23.034 18.35.034 5.149.093 10.296.234 15.442.302 11.22.963 22.539 2.956 33.628 2.024 11.263 5.326 21.748 10.536 31.981a107.309 107.309 0 0 0 19.779 27.221 107.418 107.418 0 0 0 27.228 19.785c10.227 5.205 20.704 8.506 31.963 10.528 11.093 1.997 22.417 2.661 33.637 2.961a736.39 736.39 0 0 0 15.451.227c6.113.044 12.224.038 18.342.038h191.681c6.113 0 12.231.006 18.344-.038a737.29 737.29 0 0 0 15.451-.227c11.223-.3 22.538-.965 33.639-2.961 11.256-2.022 21.734-5.324 31.96-10.528a107.441 107.441 0 0 0 27.227-19.785 107.343 107.343 0 0 0 19.777-27.221c5.21-10.233 8.517-20.717 10.539-31.981 1.993-11.089 2.656-22.408 2.956-33.628.141-5.146.198-10.292.229-15.442.04-6.12.037-12.231.037-18.35v-191.68c0-6.114.003-12.23-.036-18.345Z"/><path fill="#FFF" d="m405.703 316.046-.036-.041c.566-1.928 1.15-3.843 1.646-5.819 21.251-84.665-30.613-184.761-118.378-237.465 38.46 52.138 55.466 115.289 40.357 170.516-1.348 4.926-2.967 9.654-4.758 14.249-1.943-1.277-4.391-2.726-7.679-4.539 0 0-87.303-53.904-181.925-149.246-2.482-2.503 50.457 75.665 110.536 139.14-28.306-15.886-107.19-73.281-157.129-118.988 6.136 10.232 13.433 20.085 21.455 29.571 41.703 52.888 96.09 118.143 161.247 168.252-45.78 28.016-110.468 30.194-174.876.029-15.93-7.465-30.906-16.473-44.77-26.708 27.264 43.609 69.254 81.233 120.359 103.198 60.945 26.191 121.55 24.416 166.689.43l-.035.051c.206-.13.468-.272.682-.404a142.645 142.645 0 0 0 5.492-3.083c21.688-11.257 64.525-22.678 87.517 22.059 5.631 10.949 17.597-47.073-26.394-101.202Z"/></g></svg>