<?xml version="1.0" encoding="utf-8"?><svg version="1.1" xmlns="http://www.w3.org/2000/svg" x="0px" y="0px" width="195.81px" height="250px" viewBox="0 0 195.81 250">
<path fill="#03284C" d="M186.5,0.25H9.31c0,0-12.16,55.42-8.38,119.16c4.14,69.77,49.84,114.71,96.88,130.34h0.03
	c46.82-15.44,92.92-60.57,97.06-130.34C198.66,55.67,186.5,0.25,186.5,0.25"/>
<path fill="#7DB1E0" d="M174.8,12.52H19.86c0,0-9.45,50.23-5.71,107.42c0.88,13.36,3.19,25.64,6.71,36.85l153.06-0.39
	c3.45-11.1,5.72-23.24,6.58-36.46C184.25,62.74,174.8,12.52,174.8,12.52z"/>
<path fill="#62A8DA" d="M20.36,12.48c0,0-9.45,50.23-5.71,107.41c0.88,13.4,3.21,25.69,6.73,36.91l76.48-0.51V12.48H20.36z"/>
<path fill="#08466E" d="M97.86,239.46c32.2-10.03,63.03-38.24,76.83-82.48H97.86V239.46z"/>
<path fill="#B5CDE7" d="M102.44,163.44v1.54H23.49v-1.54H102.44z M102.44,168.94H23.13v1.54h79.31V168.94z"/>
<path fill="#FFFFFF" d="M132.26,115.64c3.1-1.75,6.18-3.77,10.24-4.42c8.73-1.4,18.3-0.61,22.67,0.66
	c-12.2,16.85-18.68,29.86-18.68,29.86l-11.29-20.28L132.26,115.64z M123.22,141.75c0,0,5.72-24.34,14.95-42.63
	c-9.5-0.25-19.75,0.51-33.18,8.33L123.22,141.75z"/>
<path fill="#B5CDE7" d="M146.48,141.73l-0.04,1.78l-50.51-0.76L96.97,105l7.85,2.43c4.84-2.93,9.4-4.68,13.5-5.95
	c-3.24,4.71-5.86,9.47-8.24,15.55l13.14,24.71c0,0,2.93-12.41,7.95-26.16l0.01,0l0.06-0.19c0.09-0.24,0.17-0.48,0.26-0.71
	c3.15-1.76,6.78-2.76,11.04-3.48c-2.19,2.55-5.54,7.14-7.23,10.49L146.48,141.73z M97.9,153.14v-6.03H50.75l2.38-5.39H38.2
	l-2.48,5.39h-5.84l-2.73,6.03h-7.77l2.5,6.38h80.67L97.9,153.14z"/>
<path fill="#FFFFFF" d="M177.11,153.14l-1.93,6.38H97.86v-12.25H50.32l1.3-5.54c-0.53-0.77-8.35-12.29-21.12-29.54
	c5.77-1.67,22.44-2.7,32.86,1.13c13.83-20.93,32.41-31,52.83-32.67c-9.51,18.01-17.95,42.98-18.34,61.06h59.55l2.99,5.39h5.53
	l2.75,6.03H177.11z M97.87,163.44v1.54h74.47v-1.54H97.87z M170.18,170.48H97.86v-1.54h72.33V170.48z"/>
<path fill="#B5CDE7" d="M51.64,141.71h46.19c0,0-9.63-18.4-34.51-28.49C55.93,125.14,51.64,141.71,51.64,141.71"/>
<path fill="#FFFFFF" d="M179.3,7.3H98.31h-1.94l0.02,5.71h1.88h75.26c0,0,8.29,49.41,5.09,106.25
	c-3.49,62.21-44.18,103.05-80.8,116.22v0.01h-0.01h-0.01v-0.01c-0.18-0.06-0.35-0.13-0.53-0.19l0.03,6.99
	c0.17,0.06,0.33,0.12,0.5,0.18v0.01h0.01h0.01v-0.01c39.4-13.92,83.27-57.1,87.04-122.85C188.3,59.53,179.3,7.3,179.3,7.3z"/>
<path fill="#B5CDE7" d="M97.86,7.3H16.34c0,0-9,52.23-5.57,112.31c3.76,65.75,47.63,108.93,87.04,122.85l0.01,0.01l-0.01-6.98
	c-36.62-13.17-77.31-54.01-80.81-116.22c-3.19-56.84,5.1-106.25,5.1-106.25h75.75V7.3z"/>
<polygon fill="#FFFFFF" points="97.86,183.37 100.65,192.4 109.45,188.95 104.12,196.74 112.29,201.48 102.88,202.17 104.28,211.51 
	97.86,204.58 91.44,211.49 92.85,202.17 83.43,201.46 91.61,196.74 86.3,188.94 95.08,192.4 "/>
<path fill="#B5CDE7" d="M100.65,192.4l-2.72,5.64l-0.07-14.67L100.65,192.4z M86.3,188.94l11.49,9.1l-2.71-5.65L86.3,188.94z
	 M83.43,201.47l14.29-3.29l-6.13-1.43L83.43,201.47z M91.44,211.5l6.35-13.19l-4.93,3.87L91.44,211.5z M104.28,211.51l-6.34-13.18
	l-0.07,6.26L104.28,211.51z M112.29,201.49l-14.21-3.25l4.79,3.95L112.29,201.49z M109.45,188.95l-11.4,9.14l6.08-1.34
	L109.45,188.95z"/>
<path fill="#03284C" d="M30.06,48.28l-2.1-5.03c1.35,0.55,3.41,0.82,6.19,0.82c3.24,0,4.87-1.18,4.87-3.58
	c0-1.08-0.38-1.96-1.12-2.64l-1.11-0.71c-0.46-0.26-1.01-0.51-1.66-0.78c-1.16-0.44-2.13-0.86-2.88-1.28
	c-0.75-0.42-1.34-0.79-1.75-1.13c-1.54-1.32-2.3-3.31-2.3-5.96c0-2.54,0.94-4.57,2.8-6.07c1.87-1.54,4.39-2.23,7.56-2.1
	c0.63,0.02,1.34,0.08,2.15,0.17c0.8,0.09,1.67,0.24,2.6,0.44v4.8c-0.83-0.29-1.68-0.51-2.53-0.66c-0.85-0.16-1.72-0.25-2.57-0.27
	c-1.44,0-2.57,0.29-3.38,0.85c-0.78,0.61-1.17,1.42-1.17,2.46c0,1.14,0.49,2.05,1.48,2.76l1.21,0.69c0.57,0.27,1.3,0.58,2.17,0.95
	c0.94,0.39,1.76,0.79,2.44,1.21c0.69,0.41,1.24,0.84,1.66,1.28c1.27,1.35,1.9,3.15,1.9,5.41c0,2.73-0.88,4.87-2.64,6.42
	c-1.88,1.64-4.52,2.45-7.91,2.45C31.91,48.79,30.6,48.62,30.06,48.28 M54.79,38.43v10.09h5.33V38.39l8.77-18.3h-5.69l-3.74,8.18
	c-0.41,0.9-0.79,1.76-1.13,2.55c-0.34,0.79-0.62,1.5-0.82,2.11h-0.04c-0.26-0.75-0.55-1.52-0.86-2.31c-0.31-0.79-0.65-1.6-1.01-2.4
	l-3.66-8.14H45.4l0.76,0.66l0.76,1.09l0.45,0.84l0.65,1.34L54.79,38.43z M70.1,20.09c0.45,0.23,0.8,0.82,1.08,1.75l0.29,1.17
	l0.1,1.17l0.13,20.36v3.98h6.96c4.73,0,8.48-1.23,11.25-3.71c2.91-2.56,4.36-6.23,4.36-10.97c0-9.17-5.17-13.75-15.54-13.75H70.1z
	 M77.03,24.68h2.23c2.88,0,5.12,0.83,6.73,2.49c1.6,1.66,2.41,4.01,2.41,7.05c0,3.27-0.86,5.71-2.6,7.32
	c-1.59,1.54-3.78,2.3-6.58,2.3h-2.18V24.68z M103.39,38.32c0-2.36-0.03-4.44-0.07-6.21c-0.05-1.79-0.1-3.29-0.16-4.54
	c0.55,1.3,1.05,2.45,1.52,3.48c0.47,1.03,0.89,1.9,1.28,2.63l7.91,14.84H121V20.09h-5.46v8.8c0,2.71,0.03,5.05,0.09,7.04
	c0.05,1.98,0.13,3.6,0.23,4.85c-0.51-1.12-1.06-2.23-1.63-3.34c-0.57-1.1-1.14-2.21-1.72-3.33l-7.48-14.02h-8.65
	c0.45,0.23,0.8,0.8,1.09,1.71l0.29,1.17l0.1,1.17v24.38h5.53V38.32z M139.28,48.52l1.94-4.64h-9.89v-7.75h8.13v-4.56h-8.13v-6.85
	h9.22v-4.64h-16.2c0.47,0.23,0.84,0.8,1.13,1.71l0.3,1.15l0.09,1.19l-0.03,24.38H139.28z M151.72,38.43v10.09h5.33V38.39l8.77-18.3
	h-5.69l-3.74,8.18c-0.41,0.9-0.79,1.76-1.13,2.55c-0.34,0.79-0.62,1.5-0.82,2.11h-0.04c-0.26-0.75-0.55-1.52-0.86-2.31
	c-0.31-0.79-0.65-1.6-1.01-2.4l-3.66-8.14h-6.55l0.76,0.66l0.76,1.09l0.45,0.84l0.65,1.34L151.72,38.43z M88.31,73.62v-8.47h5.77
	l1.2-3.13h-6.98v-4.69h7.12l1.2-3.17H83.56l0.74,1.17l0.21,0.79l0.07,0.81l0.01,16.69H88.31z M99.93,70.82
	c1.84,2.03,4.36,3.04,7.58,3.04c1.92,0,3.27-0.15,4.07-0.43l1.5-3.54c-1.32,0.41-2.99,0.61-5.01,0.61c-4.3,0-6.46-2.21-6.46-6.64
	c0-1.94,0.57-3.51,1.68-4.72c1.15-1.21,2.65-1.82,4.51-1.82c1.67,0,3.4,0.38,5.19,1.14l-0.03-3.65c-0.88-0.29-1.74-0.49-2.59-0.63
	c-0.85-0.13-1.7-0.2-2.53-0.2c-3.21,0-5.75,0.96-7.62,2.88c-1.78,1.84-2.67,4.26-2.67,7.28C97.55,66.8,98.34,69.03,99.93,70.82"/>
</svg>