<?xml version="1.0" encoding="UTF-8" standalone="no"?>
<!-- Generator: Gravit.io -->
<svg xmlns="http://www.w3.org/2000/svg" xmlns:xlink="http://www.w3.org/1999/xlink" style="isolation:isolate" viewBox="0 0 64 64" width="64pt" height="64pt"><defs><clipPath id="_clipPath_zJ2MqiboJTjBr5yflpysmwKWmiZM2SY1"><rect width="64" height="64"/></clipPath></defs><g clip-path="url(#_clipPath_zJ2MqiboJTjBr5yflpysmwKWmiZM2SY1)"><path d=" M 16 25.6 Q 19.2 12.8 32 12.8 C 44.8 12.8 46.4 22.4 52.8 24 Q 59.2 25.6 64 19.2 Q 60.8 32 48 32 C 35.2 32 33.6 22.4 27.2 20.8 Q 20.8 19.2 16 25.6 Z  M 0 44.8 Q 3.2 32 16 32 C 28.8 32 30.4 41.6 36.8 43.2 Q 43.2 44.8 48 38.4 Q 44.8 51.2 32 51.2 C 19.2 51.2 17.6 41.6 11.2 40 Q 4.8 38.4 0 44.8 Z " fill="rgb(56,189,248)"/></g></svg>