<?xml version="1.0" encoding="UTF-8" standalone="no"?>
<!-- Generator: Gravit.io -->
<svg xmlns="http://www.w3.org/2000/svg" xmlns:xlink="http://www.w3.org/1999/xlink" style="isolation:isolate"
  viewBox="0 0 64 64" width="64pt" height="64pt">
  <defs>
    <clipPath id="_clipPath_7YLAW687nRCFqYI2HYM0mXICGG1hFCnW">
      <rect width="64" height="64" />
    </clipPath>
  </defs>
  <g clip-path="url(#_clipPath_7YLAW687nRCFqYI2HYM0mXICGG1hFCnW)">
    <g>
      <path
        d=" M 50.619 20.663 C 51.661 15.617 51.885 11.747 51.211 8.936 C 50.811 7.265 50.079 5.901 48.965 4.917 C 47.79 3.879 46.304 3.369 44.634 3.369 C 41.879 3.369 38.983 4.624 35.889 7.008 C 34.626 7.98 33.316 9.152 31.956 10.524 C 31.847 10.385 31.725 10.254 31.589 10.132 C 27.742 6.708 24.503 4.581 21.734 3.76 C 20.087 3.273 18.54 3.226 17.132 3.7 C 15.646 4.199 14.461 5.232 13.626 6.679 C 12.247 9.067 11.883 12.204 12.397 16.078 C 12.607 17.657 12.965 19.377 13.471 21.241 C 13.28 21.264 13.089 21.306 12.899 21.369 C 8.019 22.985 4.563 24.722 2.471 26.708 C 1.226 27.889 0.413 29.204 0.119 30.66 C -0.191 32.197 0.111 33.738 0.946 35.184 C 2.322 37.568 4.853 39.448 8.459 40.938 C 9.907 41.536 11.545 42.077 13.375 42.565 C 13.291 42.753 13.227 42.953 13.183 43.163 C 12.142 48.209 11.918 52.079 12.591 54.89 C 12.992 56.561 13.724 57.925 14.837 58.909 C 16.013 59.947 17.499 60.457 19.169 60.457 C 21.923 60.457 24.819 59.202 27.914 56.818 C 29.19 55.835 30.514 54.649 31.89 53.258 C 32.032 53.479 32.206 53.685 32.411 53.868 C 36.258 57.292 39.497 59.419 42.266 60.24 C 43.913 60.727 45.46 60.774 46.868 60.3 C 48.354 59.801 49.539 58.768 50.374 57.321 C 51.753 54.933 52.117 51.796 51.603 47.922 C 51.386 46.286 51.009 44.498 50.473 42.556 C 50.683 42.535 50.893 42.491 51.101 42.422 C 55.981 40.806 59.437 39.069 61.529 37.084 C 62.774 35.902 63.587 34.587 63.881 33.131 C 64.191 31.595 63.889 30.053 63.054 28.608 C 61.678 26.223 59.147 24.343 55.541 22.853 C 54.05 22.238 52.357 21.681 50.461 21.183 C 50.529 21.018 50.582 20.844 50.619 20.663 Z "
        fill="rgb(0,44,75)" />
      <path
        d=" M 37 21.895 C 37.603 21.895 38.16 22.217 38.461 22.741 L 43.389 31.33 C 43.687 31.849 43.687 32.488 43.389 33.007 L 40.837 37.454 L 40.837 30.902 C 40.837 29.971 40.083 29.217 39.153 29.217 C 38.223 29.217 37.469 29.971 37.469 30.902 L 37.469 42.376 C 37.318 42.419 37.161 42.442 37 42.442 L 36.121 42.442 L 36.121 37.638 C 36.121 36.708 35.367 35.954 34.437 35.954 C 33.507 35.954 32.753 36.708 32.753 37.638 L 32.753 42.442 L 31.405 42.442 L 31.406 26.186 C 31.406 25.256 30.652 24.502 29.721 24.502 C 28.791 24.502 28.037 25.256 28.037 26.186 L 28.037 42.442 L 27.16 42.442 C 26.999 42.442 26.841 42.419 26.69 42.375 L 26.69 32.586 C 26.69 31.656 25.936 30.902 25.006 30.902 C 24.075 30.902 23.321 31.656 23.321 32.586 L 23.321 37.451 L 20.771 33.007 C 20.473 32.488 20.473 31.849 20.771 31.33 L 25.7 22.741 C 26 22.217 26.557 21.895 27.16 21.895 L 37 21.895 Z "
        fill-rule="evenodd" fill="rgb(255,217,76)" />
      <path
        d=" M 18.479 36.499 C 18.921 36.247 19.482 36.404 19.732 36.85 L 19.732 36.85 L 19.891 37.135 C 21.173 39.405 22.507 41.56 23.896 43.599 C 25.535 46.008 27.379 48.446 29.427 50.914 C 29.749 51.301 29.704 51.877 29.327 52.21 L 29.327 52.21 L 29.121 52.391 C 22.348 58.308 17.946 59.491 15.915 55.937 C 13.928 52.461 14.647 46.142 18.072 36.979 C 18.148 36.776 18.292 36.606 18.479 36.499 Z  M 47.338 43.467 C 47.827 43.38 48.295 43.703 48.391 44.192 L 48.391 44.192 L 48.442 44.459 C 50.116 53.22 48.938 57.6 44.906 57.6 C 40.963 57.6 35.944 53.864 29.848 46.392 C 29.713 46.227 29.64 46.018 29.642 45.804 C 29.647 45.299 30.058 44.893 30.562 44.897 L 30.562 44.897 L 30.883 44.899 C 33.45 44.913 35.946 44.824 38.37 44.632 C 41.233 44.405 44.222 44.017 47.338 43.467 Z  M 49.653 24.863 C 49.83 24.388 50.361 24.139 50.848 24.303 L 50.848 24.303 L 51.113 24.393 C 59.818 27.358 63.125 30.616 61.035 34.168 C 58.991 37.643 53.047 40.172 43.204 41.756 C 42.986 41.791 42.762 41.75 42.571 41.64 C 42.121 41.38 41.971 40.811 42.236 40.37 L 42.236 40.37 L 42.405 40.088 C 43.748 37.833 44.962 35.589 46.047 33.356 C 47.328 30.718 48.53 27.887 49.653 24.863 Z  M 20.796 22.244 C 21.014 22.209 21.238 22.25 21.429 22.36 C 21.879 22.62 22.029 23.189 21.764 23.63 L 21.764 23.63 L 21.595 23.912 C 20.252 26.167 19.038 28.411 17.953 30.644 C 16.672 33.282 15.47 36.113 14.347 39.137 C 14.17 39.612 13.639 39.861 13.152 39.697 L 13.152 39.697 L 12.887 39.607 C 4.182 36.642 0.875 33.384 2.965 29.832 C 5.009 26.357 10.953 23.828 20.796 22.244 Z  M 34.879 11.609 C 41.652 5.692 46.054 4.509 48.085 8.063 C 50.072 11.539 49.353 17.858 45.928 27.021 C 45.852 27.224 45.708 27.394 45.521 27.501 C 45.079 27.753 44.518 27.596 44.268 27.15 L 44.268 27.15 L 44.109 26.865 C 42.827 24.595 41.493 22.44 40.104 20.401 C 38.465 17.992 36.621 15.554 34.573 13.086 C 34.251 12.699 34.296 12.123 34.673 11.79 L 34.673 11.79 L 34.879 11.609 Z  M 19.43 6.063 C 23.374 6.063 28.393 9.799 34.488 17.271 C 34.624 17.437 34.697 17.645 34.695 17.859 C 34.69 18.364 34.278 18.771 33.775 18.766 L 33.775 18.766 L 33.454 18.764 C 30.887 18.75 28.391 18.839 25.967 19.031 C 23.104 19.258 20.115 19.646 16.999 20.197 C 16.51 20.283 16.042 19.961 15.946 19.471 L 15.946 19.471 L 15.895 19.205 C 14.221 10.444 15.399 6.063 19.43 6.063 Z "
        fill-rule="evenodd" fill="rgb(255,65,84)" />
    </g>
  </g>
</svg>