<?xml version="1.0" encoding="UTF-8" standalone="no"?>
<!-- Generator: Gravit.io -->
<svg xmlns="http://www.w3.org/2000/svg" xmlns:xlink="http://www.w3.org/1999/xlink" style="isolation:isolate"
  viewBox="0 0 64 64" width="64pt" height="64pt">
  <defs>
    <clipPath id="_clipPath_MvIN1IL3ttJa3JfLTF1EIzOXoBJm6xtU">
      <rect width="64" height="64" />
    </clipPath>
  </defs>
  <g clip-path="url(#_clipPath_MvIN1IL3ttJa3JfLTF1EIzOXoBJm6xtU)">
    <path
      d=" M 43.208 23.29 C 43.208 26.654 40.482 29.382 37.118 29.382 C 33.754 29.382 31.028 26.654 31.028 23.29 C 31.028 19.928 33.754 17.2 37.118 17.2 C 40.482 17.2 43.208 19.928 43.208 23.29 Z  M 49.742 42.808 C 47.294 44.39 44.57 45.498 41.714 46.074 C 42.542 43.714 42.816 41.194 42.516 38.71 C 49.164 36.386 53.574 30.062 53.458 23.02 C 53.34 15.978 48.722 9.804 42 7.702 C 35.276 5.602 27.964 8.046 23.858 13.768 C 20.758 14.116 17.744 14.996 14.944 16.37 C 17.986 6.556 27.108 -0.098 37.382 0.002 C 47.656 0.102 56.646 6.932 59.496 16.804 C 62.348 26.674 58.382 37.246 49.742 42.808 L 49.742 42.808 Z  M 15.22 20.606 L 20.924 21.298 C 21.052 20.196 21.294 19.112 21.642 18.058 C 19.388 18.584 17.222 19.442 15.22 20.606 L 15.22 20.606 Z "
      fill-rule="evenodd" fill="rgb(255,193,49)" />
    <path
      d=" M 32.966 40.732 C 32.966 44.092 30.236 46.822 26.876 46.822 C 23.514 46.822 20.784 44.092 20.784 40.732 C 20.784 37.37 23.514 34.642 26.876 34.642 C 30.236 34.642 32.966 37.37 32.966 40.732 Z  M 14.224 21.214 C 16.686 19.616 19.428 18.498 22.308 17.92 C 21.436 20.28 21.124 22.81 21.394 25.312 C 14.768 27.668 10.396 34.002 10.538 41.032 C 10.68 48.062 15.308 54.212 22.022 56.298 C 28.738 58.384 36.034 55.938 40.136 50.226 C 43.232 49.888 46.248 49.016 49.05 47.652 C 46 57.456 36.882 64.1 26.616 63.998 C 16.35 63.898 7.366 57.078 4.508 47.216 C 1.652 37.354 5.6 26.786 14.224 21.214 L 14.224 21.214 Z  M 48.746 43.416 L 48.634 43.472 L 48.746 43.416 Z "
      fill-rule="evenodd" fill="rgb(36,200,219)" />
  </g>
</svg>