<?xml version="1.0" encoding="utf-8"?>
<!-- Generator: Adobe Illustrator 26.0.3, SVG Export Plug-In . SVG Version: 6.00 Build 0)  -->
<svg version="1.1" id="Layer_1" xmlns="http://www.w3.org/2000/svg" xmlns:xlink="http://www.w3.org/1999/xlink" x="0px" y="0px"
	 viewBox="0 0 375 270" style="enable-background:new 0 0 375 270;" xml:space="preserve">
<style type="text/css">
	.st0{fill:#002244;}
	.st1{fill:#4B92DB;}
	.st2{fill:#FFFFFE;}
	.st3{fill:#A5ACAF;}
	.st4{fill:#C60C30;}
</style>
<g>
	<path class="st0" d="M339,84.8c-16.6-16.5-37.6-27-60.4-30.2c-29.7-28.4-65.6-18-65.6-18c7.6,1.1,12.7,5.7,10.7,10.7
		c-1.3,3.3-6.8,3.5-9.4,3.5c-8,0.1-15-4.8-20.5-9.3c-5.8-4.7-15.1-13-23.6-17.7c-15.7-8.8-40.5-7.7-58.5,3.8
		c10.8,0.7,23.7,3.8,31.4,10.2c4.3,3.6,9.8,10.7,5.3,14.1c-3.9,2.9-13.6,1.4-18.6-1.4C122.1,45.9,115,39,110.8,34
		C82.3,0.4,41.9-1.5,8.7,6.8c21.8,6.1,36.4,18.6,45.4,40s16,30.6,30.8,36.4c9.3,3.6,11.8,4.3,11.1,8.4c-1.1,6-12.1,3.1-20.5-0.1
		c-10.2-4-23.7-15-31.7-35.7c1.5,26.8,6.6,45.7,21.6,60.1c6.4,6.1,18.2,12.4,36.6,19.5c11.7,4.5,21.1,7.3,29.8,15.1
		c10.2,9.1,5.9,15.2-0.9,14c-7.7-1.3-13.1-9.1-13.1-9.1s0,43.6,53.9,60.4c4.5,7.4,9.9,14.4,16.2,20.7c20.2,20.2,47.1,31.3,75.7,31.3
		c28.6,0,55.5-11.2,75.6-31.5c20.2-20.3,31.3-47.2,31.2-75.8C370.4,131.9,359.3,105,339,84.8"/>
	<path class="st1" d="M333.3,90.2c-16.1-16.1-36.7-25.9-58.9-28.4c-19.1-19.1-38.3-18.2-38.3-18.2c8.4,5.3,4.1,17-14.6,19.5
		c-18.5,2.6-41.9-3.7-53.4-17c-11.8-13.7-20.7-14.4-20.7-14.4c10.2,6.4,10.9,14,17.1,25.7c6.2,11.7,19,15.9,30.1,16.6
		c11.7,0.8,12,6.1,2.6,11.7c-10.3,6.1-19.4,0.3-26.1-6.2c-10.5-10.3-20.9-12.3-35.3-12.1c-14.4,0.2-33.4,2.1-49.5-3.9
		c-16.1-6-26.7-27.2-26.7-27.2c8,28.1,25.6,41.4,42,44.6c21.6,4.3,36.6,9.4,45.8,16.8c8.9,7.3,13.7,14.5,17.1,24.5
		c2.6,7.7,3.1,17.9,0.5,18.5c-3,0.7-3.6-3.4-7.1-10.6c-3.9-7.9-8.5-14.1-17.9-19.1c-12.7-6.8-25.1-6.4-37.7-6.2
		c-10,0.1-15.9-1-15.9-1s0.4,1.4,16.8,5c18.2,4.1,35.8,14.4,47.5,39.4c10,21.3,4.8,36.3-17.3,29.5c0,0,10.3,22.9,44,31.1
		c4.3,7.6,9.8,14.8,16.1,21.2c18.7,18.7,43.5,29,69.9,29s51.2-10.3,69.9-29c18.7-18.7,28.9-43.5,28.9-69.9
		C362.3,133.7,352,108.9,333.3,90.2"/>
	<path class="st2" d="M263.4,66.1c25.1,0,48.7,9.8,66.5,27.5c17.8,17.8,27.5,41.4,27.5,66.5c0,51.9-42.2,94.1-94,94.1
		c-25.1,0-48.7-9.8-66.5-27.6c-17.8-17.8-27.5-41.4-27.5-66.5c0-25.1,9.8-48.7,27.5-66.5C214.7,75.9,238.3,66.1,263.4,66.1"/>
	<path class="st0" d="M263.6,246.1c-47.4,0.1-85.9-38.3-86-85.8c-0.1-47.5,38.3-86,85.8-86.1c47.4-0.1,85.9,38.4,86,85.8
		C349.4,207.5,311,246,263.6,246.1"/>
	<path class="st2" d="M242.4,142.7H217l-8.4,15l-11.3-32h132l-11.3,32l-8.3-15h-25l-21.2,92.8L242.4,142.7"/>
	<path class="st3" d="M329.3,125.7h-132l2.1,6.1h63l-20,11l21.1,92.8V131.8h63.7L329.3,125.7"/>
	<path class="st4" d="M198.6,51.5c-19.1-0.5-26.9-8.1-38.8-17.7c-14.5-11.7-30.7-8.4-30.7-8.4c9.7-5.5,28.7-5.8,42.4,6.2
		C183.7,42.3,189.7,48.1,198.6,51.5L198.6,51.5z M35.2,9.3C56.6,5.3,74.4,12,88,36c13.2,23.5,37.4,24.1,37.4,24.1
		c-18.4,5.2-43.5,0.5-56.6-23.1C53.1,8.8,35.2,9.3,35.2,9.3L35.2,9.3z M136.6,145.4c-10.5-14.5-27-18-49.5-24
		c-32.2-8.6-32.5-36.8-32.5-36.8s4.8,19.5,42.3,27.1C134.1,119.3,136.6,145.4,136.6,145.4L136.6,145.4z M276.3,117.4l-12.9-9.3
		l-12.8,9.5l4.8-15.1l-12.9-9.2l15.9-0.2l4.8-15.1l5,15.1h15.9l-12.8,9.3L276.3,117.4L276.3,117.4z M219.7,170.7l-1.6,15.8l14.6,6.3
		l-15.5,3.4l-1.5,15.8l-8-13.7l-15.5,3.5l10.6-11.9l-8.1-13.7l14.5,6.4L219.7,170.7L219.7,170.7z M294.1,193.2l14.5-6.6l-1.8-15.8
		l10.7,11.8l14.4-6.6l-7.9,13.8l10.7,11.7l-15.6-3.2l-7.8,13.8l-1.7-15.8L294.1,193.2z"/>
</g>
</svg>
