<svg xmlns="http://www.w3.org/2000/svg" width="181.67" height="110.8" viewBox="0 0 145.32 88.63"><defs><linearGradient id="0" x1="-20.91" x2="67.98" gradientUnits="userSpaceOnUse"><stop stop-color="#3f2979"/><stop offset="1" stop-color="#ab1d41"/></linearGradient></defs><circle cx="44.32" cy="44.32" r="44.32" fill="url(#0)"/><g fill="#131313"><circle cx="39.19" cy="55.99" r="3.32"/><circle cx="48.99" cy="55.99" r="3.32"/><circle cx="58.8" cy="55.99" r="3.32"/><circle cx="68.61" cy="55.99" r="3.32"/><circle cx="78.42" cy="55.99" r="3.32"/><circle cx="88.24" cy="55.99" r="3.32"/><circle cx="98.05" cy="55.99" r="3.32"/><circle cx="107.85" cy="55.99" r="3.32"/><circle cx="117.66" cy="55.99" r="3.32"/><circle cx="123.13" cy="65.93" r="2.29"/><circle cx="112.99" cy="65.93" r="2.29"/><circle cx="102.85" cy="65.93" r="2.29"/><circle cx="92.72" cy="65.93" r="2.29"/><circle cx="82.58" cy="65.93" r="2.29"/><circle cx="72.44" cy="65.93" r="2.29"/><circle cx="62.3" cy="65.93" r="2.29"/><circle cx="52.17" cy="65.93" r="2.29"/><circle cx="42.03" cy="65.93" r="2.29"/><circle cx="128.51" cy="72.92" r="2.22"/><circle cx="118.23" cy="72.92" r="2.22"/><circle cx="107.94" cy="72.92" r="2.22"/><circle cx="97.66" cy="72.92" r="2.22"/><circle cx="87.38" cy="72.92" r="2.22"/><circle cx="77.1" cy="72.92" r="2.22"/><circle cx="66.82" cy="72.92" r="2.22"/><circle cx="56.54" cy="72.92" r="2.22"/><circle cx="46.26" cy="72.92" r="2.22"/><circle cx="135.67" cy="79.97" r="1.7"/><circle cx="125.26" cy="79.97" r="1.7"/><circle cx="114.84" cy="79.97" r="1.7"/><circle cx="104.42" cy="79.97" r="1.7"/><circle cx="94.01" cy="79.97" r="1.7"/><circle cx="83.59" cy="79.97" r="1.7"/><circle cx="73.17" cy="79.97" r="1.7"/><circle cx="62.75" cy="79.97" r="1.7"/><circle cx="52.33" cy="79.97" r="1.7"/><circle cx="144.02" cy="86.25" r="1.3"/><circle cx="133.52" cy="86.25" r="1.3"/><circle cx="123.01" cy="86.25" r="1.3"/><circle cx="112.51" cy="86.25" r="1.3"/><circle cx="102.01" cy="86.25" r="1.3"/><circle cx="91.5" cy="86.25" r="1.3"/><circle cx="81" cy="86.25" r="1.3"/><circle cx="70.5" cy="86.25" r="1.3"/><circle cx="59.99" cy="86.25" r="1.3"/><circle cx="34.41" cy="46.61" r="2.29"/><circle cx="44.54" cy="46.61" r="2.29"/><circle cx="54.68" cy="46.61" r="2.29"/><circle cx="64.82" cy="46.61" r="2.29"/><circle cx="74.95" cy="46.61" r="2.29"/><circle cx="85.09" cy="46.61" r="2.29"/><circle cx="95.23" cy="46.61" r="2.29"/><circle cx="105.37" cy="46.61" r="2.29"/><circle cx="115.51" cy="46.61" r="2.29"/><circle cx="29.03" cy="39.61" r="2.22"/><circle cx="39.31" cy="39.61" r="2.22"/><circle cx="49.59" cy="39.61" r="2.22"/><circle cx="59.87" cy="39.61" r="2.22"/><circle cx="70.15" cy="39.61" r="2.22"/><circle cx="80.43" cy="39.61" r="2.22"/><circle cx="90.71" cy="39.61" r="2.22"/><circle cx="100.99" cy="39.61" r="2.22"/><circle cx="111.27" cy="39.61" r="2.22"/><circle cx="21.86" cy="32.56" r="1.7"/><circle cx="32.28" cy="32.56" r="1.7"/><circle cx="42.7" cy="32.56" r="1.7"/><circle cx="53.11" cy="32.56" r="1.7"/><circle cx="63.53" cy="32.56" r="1.7"/><circle cx="73.95" cy="32.56" r="1.7"/><circle cx="84.36" cy="32.56" r="1.7"/><circle cx="94.78" cy="32.56" r="1.7"/><circle cx="105.2" cy="32.56" r="1.7"/><circle cx="13.51" cy="26.28" r="1.3"/><circle cx="24.02" cy="26.28" r="1.3"/><circle cx="34.52" cy="26.28" r="1.3"/><circle cx="45.02" cy="26.28" r="1.3"/><circle cx="55.53" cy="26.28" r="1.3"/><circle cx="66.03" cy="26.28" r="1.3"/><circle cx="76.53" cy="26.28" r="1.3"/><circle cx="87.04" cy="26.28" r="1.3"/><circle cx="97.55" cy="26.28" r="1.3"/></g></svg>