<svg xmlns="http://www.w3.org/2000/svg" width="512pt" height="512pt" style="isolation:isolate" viewBox="0 0 512 512"><defs><clipPath id="a"><path d="M0 0h512v512H0z"/></clipPath></defs><g clip-path="url(#a)"><path fill="#D1A41A" d="M86.58 313.443c5.886 7.258 12.427 14.614 19.625 22.07-20.877 6.303-34.795 18.014-43.345 28.433-13.56 16.363-20.678 37.976-19.087 56.467H7.586c7.238-15.708 36.187-61.04 78.736-106.97h.258Zm418.134 117.309h-43.941c-100.606-52.491-189.084-89.473-282.334-97.625.198-13.063 2.525-27.835 6.998-44.338l-8.649-2.326c-4.593 16.94-6.998 32.21-7.277 45.929a441.94 441.94 0 0 0-29.625-.975c-8.41 0-16.085.778-23.064 2.128-9.126-9.106-16.9-17.815-23.462-26.046 43.345-45.134 114.525-85.894 176.758-101.203 17.477 58.057 55.075 97.823 100.606 124.664a191.403 191.403 0 0 0 9.842-6.004l79.531 85.495 3.48-.298c21.672-1.867 33.999 9.902 37.379 13.56 2.406 2.664 3.838 5.11 4.633 7.039h-.875Z"/><path fill="#FFDC76" d="M464.949 144.043c1.612 78.934-38.573 141.764-95.04 173.974-95.636-47.719-113.729-168.407-97.425-232.628 4.533 24.853 12.784 40.362 30.619 47.917 38.772-11.114 92.256-11.989 131.624-1.133 16.403-11.93 22.865-30.222 26.245-46.128 4.334 18.531 3.837 58.654 3.857 58.654l.12-.656Z"/><path d="m196.532 232.322 27.836-13.52 15.906 42.946-43.742-29.426Zm-31.216 15.707 17.298-10.339 15.906 28.035-33.204-17.696Zm-33.602 21.673 15.111-9.942 7.555 25.848-22.666-15.906Zm267.622 71.577-9.942-9.941-13.918 21.871 23.86-11.93Zm19.882 23.86-7.953-7.954-23.859 15.907 31.812-7.953Zm-35.789-244.16-27.835.596 15.906 36.783 11.929-37.379Zm-109.355 69.788-3.976-15.707 27.836 14.117-23.86 1.59Zm5.965 23.263-1.988-10.339 15.906 6.561-13.918 3.778Zm182.921-16.702 3.977-11.929-21.871 9.146 17.894 2.783Zm-7.953 24.257 1.988-9.742-15.906 4.772 13.918 4.97Zm-192.862 30.819h52.093v6.442h-52.093zm0-15.509h52.093v6.442h-52.093zm159.062 15.509H473.3v6.442h-52.093zm0-15.509H473.3v6.442h-52.093z"/><path d="M403.312 198.72h-85.098v-5.806h26.444c3.261-13.957 3.897-27.239-.027-33.999-1.678-2.883-3.997-4.215-7.297-4.215-15.131 0-21.473 16.005-21.672 16.681l.004-.004-5.428-2.028c.31-.835 7.873-20.479 27.04-20.479 5.349 0 9.604 2.466 12.308 7.098 4.791 8.232 4.235 22.468.982 36.982h46.525c6.164-18.133 19.048-26.643 40.561-26.643v5.806c-23.263 0-29.824 9.882-34.596 20.877h25.251l-.058 5.766-24.939-.036Z"/><path d="m407.289 227.351.037-.005c-6.88-10.141-9.047-18.809-6.184-28.632l-5.905.029c-2.068 6.562-1.233 16.443 3.837 24.854h-59.051c3.598-7.198 6.919-15.966 9.345-24.854h-6.005c-2.684 9.524-6.442 18.929-10.677 26.444l-1.37 2.406 33.204 20.877-18.65 12.288 3.201 4.851 20.877-13.739 22.468 14.674 3.081-4.911-20.876-12.904s31.215-20.281 32.806-21.275c-.01-.013-.016-.025-.025-.037l-.113-.066Zm-37.579 17.517-24.455-15.409 47.917.012-23.462 15.397Z"/><path d="M472.305 138.187c-.036-10.04-3.149-52.479-8.858-64.162-15.491 5.921-43.698 25.15-49.997 44.755-30.51-4.595-64.957-4.04-95.27 1.206-5.039-21.19-30.313-37.23-49.406-46.34-8.051 13.684-11.633 45.35-10.708 67.925-.035.023-.072.047-.107.072 3.543 94.461 49.603 153.276 109.836 188.922 62.004-35.646 106.293-105.155 104.522-192.289.025.016.052.027.075.043l-.087-.132Zm-51.572-18.219Zm-3.858-.669c.542.087 1.091.185 1.634.279-.543-.093-1.088-.188-1.634-.279Zm45.864 25.744c1.594 78.618-38.187 141.196-94.089 173.278-94.68-47.528-112.592-167.733-96.451-231.698 4.488 24.754 12.637 40.201 30.313 47.726 38.383-11.07 91.333-11.941 130.307-1.127 16.239-11.882 22.637-30.101 25.983-45.943 4.291 18.456 3.799 58.419 3.819 58.419l.118-.655Z"/><path d="M503.799 416.818c-9.723-10.951-28.738-16.12-44.682-15.744-11.299-13.525-76.767-82.975-76.767-82.975l-4.547 5.743 79.129 85.55 3.425-.296c21.455-1.851 33.659 9.862 37.006 13.506 2.362 2.674 3.799 5.109 4.586 7.011h-43.501c-99.601-52.281-187.194-89.115-279.512-97.234.205-13.011 2.5-27.725 6.929-44.161l-8.543-2.337c-4.547 16.872-6.928 32.081-7.204 45.745a440.449 440.449 0 0 0-29.329-.98c-8.346 0-15.944.78-22.833 2.139-9.035-9.09-16.732-17.744-23.227-25.942 43.107-45.152 114.363-86.144 176.171-101.195l-2.008-8.713c-66.532 16.14-139.362 60.004-179.911 102.581-18.818-25.547-26.376-46.538-28.542-62.381-2.795-20.001 1.963-38.418 13.779-53.27 18.503-23.17 44.683-24.754 71.846-20.199-.527 4.297.034 8.396 1.742 10.931 7.146 10.615 45.47 14.357 68.5 4.06-16.928-23.764-51.178-35.448-60.626-30.893-3.15 1.544-5.512 4.376-7.145 7.703-9.35-1.681-18.621-2.931-25.393-2.891-23.817.176-42.123 8.555-55.705 25.546-13.385 16.734-18.798 37.428-15.649 60.004 2.992 21.387 13.503 44.161 31.101 67.727a560.118 560.118 0 0 0-8.484 9.347C31.494 363.519 0 415.602 0 424.117v4.456h56.69l-.994-5.288c-3.209-17.03 3.188-38.418 16.298-54.26 8.228-9.981 21.849-21.388 43.304-26.735 19.015 18.675 43.305 38.419 70.272 57.628h42.123v-4.456c0-5.03-2.48-9.426-6.968-12.397-6.653-4.376-16.928-4.99-26.376-1.744-8.996-10.08-14.054-23.566-15.137-40.201 91.53 8.159 178.927 45.349 277.543 97.234h54.327l.711-3.585c1.016-5.109-1.748-11.941-7.381-18.278l-.613.327Zm-438.95-53.073c-13.425 16.298-20.472 37.824-18.897 56.241H10.127c7.185-15.624 35.825-60.796 77.949-106.541 5.826 7.248 12.302 14.555 19.428 21.982-20.669 6.277-34.447 17.941-42.911 28.318h.256Z"/></g></svg>