<svg xmlns="http://www.w3.org/2000/svg" width="566pt" height="176.3pt" style="isolation:isolate" viewBox="0 0 566 176.3"><defs><clipPath id="a"><path d="M0 0h566v176.3H0z"/></clipPath></defs><g fill-rule="evenodd" clip-path="url(#a)"><path fill="#B93346" d="M42.498 76.939S14.843 96.404 13.761 103.82l2.076-.426s33.117-21.951 59.369-24.628l.594-3.332-33.302 1.505m43.413-2.782-21.784 15.45 1.177.945c.888-.716 38.695-12.262 38.695-12.262l7.97-4.998c-5.348.666-26.058.865-26.058.865m18.932 18.687c15.468 0 38.655-15.149 38.655-15.149l-7.495-1.428c-.371.371-12.087-.41-12.087-.41l-5.561-1.545-13.288 15.14-1.081 2.627c.955-.387.857.765.857.765m-65.3 57.384-.321-.147-1.79-1.544 2.111 1.691Zm115.776-9.07-4.779 1.345-22.078-.477-13.812-10.741-16.693 4.177-19.308-1.671-10.812 11.815-20.288 6.06-10.131-3.14-.509-.44 4.547 11.133s10.298 11.042 16.051 12.34c5.752 1.3 16.144-.092 23.938-1.299 7.793-1.206 14.01-3.99 16.515-8.535 2.504-4.547 2.875-5.846 2.875-5.846s7.424 10.485 13.826 11.692c6.401 1.205 25.421-5.29 25.421-5.29s11.599-3.154 13.64-7.144c2.04-3.99 7.423-17.071 7.423-17.071l-5.826 3.092Z"/><path fill="#F4EEAA" d="M174.076 62.287a46.311 46.311 0 0 0-.187-1.785 24.452 24.452 0 0 0-.191-1.266c-1.593-1.341-3.404-2.534-5.29-3.618-2.042-1.193-4.181-2.263-6.362-3.255-2.167-1.023-4.392-1.948-6.631-2.85a117.106 117.106 0 0 0-3.375-1.313c-1.128-.44-2.267-.85-3.409-1.265 2.397.396 4.769.94 7.123 1.547 1.532.395 3.056.839 4.568 1.312-10.764-28.132-36.499-46.453-64.599-46.453-28.103 0-53.836 18.321-64.598 46.453a95.114 95.114 0 0 1 4.566-1.312c2.357-.607 4.73-1.151 7.126-1.547-1.146.415-2.282.825-3.414 1.265-1.125.42-2.253.859-3.375 1.313-2.238.902-4.458 1.827-6.63 2.85-2.176.992-4.315 2.062-6.359 3.255-1.885 1.084-3.694 2.277-5.294 3.618a35.929 35.929 0 0 0-.373 3.051 46.725 46.725 0 0 0-.157 3.609 52.606 52.606 0 0 0 .445 7.208c.329 2.392.768 4.769 1.417 7.066a38.274 38.274 0 0 0 1.102 3.384c.211.548.44 1.089.679 1.614.119.262.243.519.367.768l.154.291c.176.09.362.182.538.268l1.07.511c.596.27 1.422.663 2.105.969l.11-.101-1.986-7.566c.42-.115 4.192-1.088 10.693-2.325a32.185 32.185 0 0 1-5.929-1.729 20.067 20.067 0 0 1-2.052-.991c-.659-.379-1.308-.807-1.81-1.377 7.141 2.331 21.898 1.275 35.015-.08 11.997-1.237 24.022-2.039 36.108-2.062 12.088.023 24.118.825 36.109 2.062 13.123 1.355 27.879 2.411 35.02.08-.501.57-1.149.998-1.808 1.377-.659.371-1.351.695-2.053.991a32.262 32.262 0 0 1-4.353 1.39c-.22.053-.441.101-.661.148 7.128 1.323 11.277 2.396 11.721 2.516l-1.9 7.208c.382-.172.768-.339 1.146-.51l1.069-.511c.177-.086.357-.178.539-.268l.147-.291c.131-.249.255-.506.373-.768.24-.525.469-1.066.679-1.614.42-1.11.788-2.239 1.103-3.384.649-2.297 1.088-4.674 1.417-7.066.307-2.387.468-4.797.445-7.208a45.745 45.745 0 0 0-.158-3.609"/><path fill="#E1C8A5" d="M103.826 162.335c-.939.146-1.884.257-2.831.333-.607.03-1.248.091-1.829.091l-.215.006c.73-1.633 1.284-2.898 1.704-3.857.855.959 1.944 2.148 3.171 3.427m2.056 2.096c2.936 2.908 6.574 4.572 10.58 4.868-6.727 2.732-13.067 3.787-17.95 4.115-4.869.326-9.804-.248-14.641-1.574.405-.073.701-.125 1.059-.168.398-.048 9.072-1.179 12.981-6.993l.367.009.96-.009c.65 0 1.24-.053 1.861-.077a38.872 38.872 0 0 0 4.335-.624l.448.453"/><path fill="#5F655D" d="M114.203 77.382c-.307.401-.617.798-.931 1.193-1.718 2.172-4.1 4.95-6.927 7.667a326.13 326.13 0 0 0-10.135-.157c-5.741 0-11.246.151-16.473.405 7.385-3.065 16.26-6.058 25.869-7.858 2.846-.539 5.715-.956 8.597-1.25m-43.23 3.307c-2.636 1.853-5.615 4.216-8.502 7.085a318.306 318.306 0 0 0-19.167 2.497c8.182-3.762 17.52-7.223 27.669-9.582m90.347 15.266-3.007 21.044-14.409 10.091-37.578-4.271-5.656-18.629a1.23 1.23 0 0 0-.985-.863c-1.393-.225-2.624-.34-3.65-.34-1.032 0-2.259.115-3.658.34a1.24 1.24 0 0 0-.983.863l-5.518 18.175-37.368 8.315-14.809-10.373-2.917-23.615c.635-.359 1.28-.717 1.934-1.074a150.25 150.25 0 0 1 3.088-.626l2.75 22.284c.043.347.234.658.521.858l10.186 7.139c.287.194.641.262.98.189l30.723-6.836c.104-.024.21-.062.305-.11.286-.152.512-.414.607-.734l5.532-18.217c1.484-.382 5.286-1.27 8.627-1.27 3.332 0 7.135.888 8.621 1.27l5.532 18.217c.144.472.554.811 1.045.869l30.724 3.49c.297.032.602-.045.846-.215l10.192-7.132c.276-.195.462-.503.51-.841l2.722-19.037c2.042.391 3.752.749 5.093 1.039m3.795-13.198-2.644 10.034c-5.408-1.193-17.292-3.533-33.464-5.108 5.284-2.253 10.664-5.079 15.581-8.612 9.623 1.361 16.689 2.817 20.527 3.686"/><path fill="#E0C59B" d="M102.679 89.487a41.366 41.366 0 0 1-4.664 3.299l-5.418 3.27a46.29 46.29 0 0 0-6.515 1.304c-.402.119-.717.43-.841.83l-5.518 18.183-29.492 6.559-9.289-6.506-2.703-21.893c5.275-.969 12.33-2.09 20.804-3.039a49.863 49.863 0 0 0-2.626 3.426l-5.045 7.241 7.347-4.898c.109-.076 4.787-3.154 12.441-6.897a335.01 335.01 0 0 1 31.519-.879Zm-45.908 24.662c2.095-1.132 4.463-.964 8.167-.959.397.009.807.004 1.236-.005.364-.005.731-.01 1.118-.02 3.818-.037 6.992.325 6.936-5.67-.057-5.996-2.721-10.842-6.535-10.803-3.819.032-7.513 4.945-7.285 10.937.062 1.56.292 2.686.659 3.498-3.327.835-4.244 2.892-4.296 3.022Zm97.026-19.687-2.66 18.614-9.366 6.558-29.453-3.347-5.495-18.097a1.252 1.252 0 0 0-.84-.83c-.182-.053-3.829-1.093-7.695-1.428l.706-.047c.611-.044 10.77-1.289 22.899-5.471 13.434 1.031 24.404 2.682 31.904 4.048Zm-18.823 17.228c-.038-.142-.84-2.552-4.392-2.13.41-.891.592-2.094.463-3.741-.469-5.982-3.948-10.736-7.762-10.604-3.815.136-6.259 5.094-6.048 11.09.209 5.992 3.413 5.95 7.227 5.816 5.127-.096 7.943-1.672 10.512-.431Z"/><path fill="#BFAC91" d="M102.679 89.487a41.366 41.366 0 0 1-4.664 3.299l-5.418 3.27a46.29 46.29 0 0 0-6.515 1.304c-.402.119-.717.43-.841.83l-5.518 18.183-29.492 6.559-9.289-6.506-2.703-21.893c5.275-.969 12.33-2.09 20.804-3.039a49.863 49.863 0 0 0-2.626 3.426l-5.045 7.241 7.347-4.898c.109-.076 4.787-3.154 12.441-6.897a335.01 335.01 0 0 1 31.519-.879Zm-45.908 24.662c2.095-1.132 4.463-.964 8.167-.959.397.009.807.004 1.236-.005.364-.005.731-.01 1.118-.02 3.818-.037 6.992.325 6.936-5.67-.057-5.996-2.721-10.842-6.535-10.803-3.819.032-7.513 4.945-7.285 10.937.062 1.56.292 2.686.659 3.498-3.327.835-4.244 2.892-4.296 3.022Zm97.026-19.687-2.66 18.614-9.366 6.558-29.453-3.347-5.495-18.097a1.252 1.252 0 0 0-.84-.83c-.182-.053-3.829-1.093-7.695-1.428l.706-.047c.611-.044 10.77-1.289 22.899-5.471 13.434 1.031 24.404 2.682 31.904 4.048Zm-18.823 17.228c-.038-.142-.84-2.552-4.392-2.13.41-.891.592-2.094.463-3.741-.469-5.982-3.948-10.736-7.762-10.604-3.815.136-6.259 5.094-6.048 11.09.209 5.992 3.413 5.95 7.227 5.816 5.127-.096 7.943-1.672 10.512-.431Z"/><path fill="#E1C8A5" d="M166.653 102.65c.452.372.81 1.335.406 5.827-.496 5.5-2.809 15.152-4.24 16.708-1.58.306-4.893-.056-6.913-.529.349-1.385.449-2.049.731-3.466l3.533-2.472a1.24 1.24 0 0 0 .515-.836l2.469-17.3c1.498.812 3.04 1.69 3.499 2.068M36.415 125.229c.177.625.363 1.25.555 1.867-1.901.558-5.772 1.093-7.524.788-1.451-1.463-4.158-11.524-4.75-16.867-.483-4.329-.144-5.265.296-5.628.511-.43 2.425-1.518 4.082-2.406l2.238 18.173c.043.349.229.658.521.859l4.582 3.214Zm71.463.253-.134 1.16s-4.071 3.776-10.625 4.62c-6.555.845-11.706-3.183-11.706-3.183.215.7.52 2.281 2.005 3.632a47.176 47.176 0 0 0-5.61-.35c-.715 0-1.437.021-2.134.055-4.034.21-9.709 6.31-13.699 12.454-1.958.621-8.078 2.563-15.161 4.655-6.613-9.162-9.864-18.522-10.193-19.492l.004-.004c-.133-.372-.267-.746-.391-1.128l1.7 1.189v.005l4.201 2.94 1.404.979c.21.149.457.225.706.225.091-.001.182-.01.271-.028l38.602-8.593c.434-.097.782-.42.911-.845l5.505-18.122c.95-.128 1.784-.195 2.501-.195.711 0 1.551.067 2.501.195l5.665 18.661a1.23 1.23 0 0 0 1.041.868l2.636.302"/><path fill="#E1C8A5" d="m151.94 124.48 1.247-.875c-.208.861-.429 1.72-.665 2.574-1.732 5.552-3.776 10.463-6.048 14.802a23.06 23.06 0 0 1-1.599.055c-1.753 0-3.543-.149-5.524-.33-3.437-.316-8.893-.941-10.617-1.141a2608.29 2608.29 0 0 0-10.789-8.545c-.166-.135-.308-.259-.449-.374-.744-.629-1.589-1.344-3.303-1.344-1.556 0-3.829.566-9.322 2.228 2.854-2.133 2.873-4.888 2.873-4.888l.134-1.16 36.214 4.114c.295.034.6-.042.849-.214l3.638-2.549 3.361-2.353"/><path fill="#E7D193" d="M125.288 48.29c.109 3.222.029 9.06-1.471 14.527a1.164 1.164 0 0 0 0 .625 238.86 238.86 0 0 0-5.728-.525c2.143-4.492 2.611-9.275 2.712-10.961 1.646-1.168 3.285-2.572 4.487-3.666Zm-54.64 3.666c.1 1.686.567 6.459 2.707 10.947-1.91.152-3.818.329-5.724.53a1.18 1.18 0 0 0 0-.616c-1.499-5.456-1.575-11.299-1.47-14.527 1.203 1.094 2.835 2.498 4.487 3.666"/><path fill="#292C2D" d="M122.986 102.912a1.958 1.958 0 0 0 1.915-1.986 1.945 1.945 0 0 0-1.987-1.914 1.942 1.942 0 0 0-1.913 1.985 1.953 1.953 0 0 0 1.985 1.915Zm11.988 8.778c-2.569-1.241-5.385.335-10.512.431-3.814.134-7.018.176-7.227-5.816-.211-5.996 2.233-10.954 6.048-11.09 3.814-.132 7.293 4.622 7.762 10.604.129 1.647-.053 2.85-.463 3.741 3.552-.422 4.354 1.988 4.392 2.13Z"/><path fill="#EEF7F8" d="M124.901 100.926a1.958 1.958 0 0 1-1.915 1.986 1.953 1.953 0 0 1-1.441-3.305 1.942 1.942 0 0 1 1.369-.595 1.943 1.943 0 0 1 1.987 1.914"/><path fill="#292C2D" d="M68.333 104.357a1.95 1.95 0 0 0-.104-3.899 1.947 1.947 0 0 0-1.686 1.012 1.95 1.95 0 0 0 1.79 2.887Zm5.895 3.138c.056 5.995-3.118 5.633-6.936 5.67-.387.01-.754.015-1.118.02-.429.009-.839.014-1.236.005-3.704-.005-6.072-.173-8.167.959.052-.13.969-2.187 4.296-3.022-.367-.812-.597-1.938-.659-3.498-.228-5.992 3.466-10.905 7.285-10.937 3.814-.039 6.478 4.807 6.535 10.803Z"/><path fill="#EEF7F8" d="M70.228 102.357a1.952 1.952 0 0 1-3.901.101 1.95 1.95 0 1 1 3.901-.101Z"/><path fill="#EAD698" d="m44.044 67.417-.444-.837-.017-2.192 1.155-13.068 20.051-4.856 1.248 16.859c-.972-1.318-2.428-4.301-3.329-8.395-.482-2.186-2.033-2.808-3.817-2.808-1.557 0-3.291.473-4.647.796-2.916.694-6.732 1.666-7.356 3.191-1.211 2.961-1.803 10.685-1.803 10.685l-1.041.625Zm103.542 0-1.041-.625s-.592-7.724-1.803-10.685c-.625-1.525-4.441-2.497-7.354-3.191-1.358-.323-3.093-.796-4.649-.796-1.785 0-3.335.622-3.817 2.808-.901 4.094-2.359 7.077-3.331 8.395l1.25-16.859 20.052 4.856.983 11.135-.035 4.482-.255.48"/><path fill="#EAD799" d="m116.213 64.391-40.421-.075-2.095-4.716-1.497-8.084-3.294-2.619-.075-18.826 4.638-13.72s.763 40.41 10.207 40.41h24.553c9.444 0 9.974-40.428 9.974-40.428l6.142 22.663-4.463 12.745-.226 3.593-1.572 5.688-1.871 3.369m41.104 7.216-2.28-1.114 2.28 1.114Zm-2.286-1.118-7.201-2.171.011-1.381.37-.699-.335-3.783.068-8.426s1.943 13.945 7.087 16.46"/><path fill="#E9D294" d="m147.841 66.937.035-4.482.335 3.783-.37.699"/><path fill="#EAD799" d="m34.126 71.607 2.287-1.118-2.287 1.118Zm2.287-1.118c5.143-2.515 7.087-16.46 7.087-16.46l.083 10.359-.163 1.85.18.342.014 1.738-7.201 2.171"/><path fill="#E9D294" d="m43.6 66.58-.18-.342.163-1.85.017 2.192Z"/><path fill="#292C2D" d="m65.416 63.671-.087-.219c-1.755-6.387-1.679-13.085-1.521-16.174l-18.232 5.184c-1.226 7.982-.653 13.85-.53 14.928 1.514-.411 3.031-.788 4.56-1.141 2.519-.559 5.059-1.026 7.604-1.456 2.549-.425 5.108-.749 7.666-1.06.182-.023.358-.038.54-.062Zm7.939-.768c-2.14-4.488-2.607-9.261-2.707-10.947-1.652-1.168-3.284-2.572-4.487-3.666-.105 3.228-.029 9.071 1.47 14.527.057.21.052.42 0 .616 1.906-.201 3.814-.378 5.724-.53Zm50.462-.086c1.5-5.467 1.58-11.305 1.471-14.527-1.202 1.094-2.841 2.498-4.487 3.666-.101 1.686-.568 6.469-2.713 10.96 1.91.154 3.82.325 5.729.526a1.164 1.164 0 0 1 0-.625Zm22.581 4.577c.124-1.073.702-6.94-.526-14.932l-18.237-5.184c.164 3.089.236 9.787-1.517 16.174l-.09.229c.181.019.363.034.539.058 5.127.587 10.23 1.407 15.276 2.515 1.523.353 3.046.73 4.555 1.14Zm2.93.861c2.449.801 4.912 1.651 7.143 2.953-1.194-.471-2.426-.811-3.668-1.116a62.719 62.719 0 0 0-3.733-.821 116.623 116.623 0 0 0-7.552-1.18c-2.525-.33-5.057-.604-7.595-.821-2.539-.214-5.074-.428-7.619-.577-10.172-.625-20.373-.782-30.581-.793-10.205.005-20.406.197-30.58.798-2.544.148-5.079.363-7.619.578-2.538.213-5.073.487-7.595.82a117.61 117.61 0 0 0-7.551 1.179c-1.254.236-2.5.508-3.738.817-1.236.305-2.473.645-3.666 1.116 2.229-1.302 4.692-2.157 7.146-2.959.206-.067.415-.124.625-.19l-.039-.158c-.042-.281-.949-6.985.631-16.57.076-.459.406-.831.855-.955l2.592-.739c.563-20.108 8.845-29.564 9.104-29.855-7.4 11.905-7.333 26.026-7.204 29.315l16.111-4.579.038-.008.2-.029.067-.005c.082-.004.173.005.265.024l.046.015.2.066.076.043.158.1.043.029.029.028.048.039c.01.015.439.439 1.121 1.074-.161-5.309.091-20.537 7.343-33.158-.153.442-5.906 17.267-3.924 36.122a29.696 29.696 0 0 0 1.981 1.466c.319.219.515.582.519.969.007.062.143 6.072 2.798 11.185.038.076.067.157.092.239 6.601-.45 13.222-.63 19.828-.635 6.609.005 13.226.195 19.826.649.024-.086.053-.172.096-.253 2.654-5.113 2.793-11.123 2.793-11.185.009-.389.204-.75.525-.969a31.76 31.76 0 0 0 1.977-1.466c1.985-18.855-3.769-35.68-3.92-36.122 7.245 12.621 7.505 27.849 7.342 33.158.379-.353.752-.711 1.121-1.074l.047-.039.03-.028.043-.029.157-.105.072-.038.21-.071.043-.01a1.02 1.02 0 0 1 .263-.024l.061.005.206.029.038.008 16.111 4.579c.13-3.289.196-17.41-7.202-29.315.256.291 8.539 9.747 9.098 29.855l2.597.739c.443.124.778.496.855.955 1.579 9.585.668 16.289.629 16.57l-.038.162c.21.062.415.124.625.192Z"/><path fill="#292C2D" d="M111.716 28.777v-8.699H80.412v8.699h4.279v-4.419h8.856v26.861h-3.644v4.982h12.322v-4.982h-3.644V24.358h8.855v4.419h4.28ZM77.197 16.862h37.742v15.131h-10.726v-4.421h-2.417v20.424h3.652v11.421H86.687V47.996h3.637V27.572h-2.41v4.421H77.197V16.862Z"/><path fill="#B93346" d="M111.716 20.078v8.699h-4.28v-4.419h-8.855v26.861h3.644v4.982H89.903v-4.982h3.644V24.358h-8.856v4.419h-4.279v-8.699h31.304Z"/><path fill="#5F655D" d="M27.313 82.757c2.082-.468 4.171-.904 6.266-1.306a92.167 92.167 0 0 0-5.53 4.085l-.736-2.779Z"/><path fill="#BFAC91" d="M84.561 124.226s.437 2.813-3.5 4.016c-3.935 1.205-28.868 8.635-31.711 8.233-2.843-.401-10.059-5.221-10.059-5.221l-1.75-6.225 10.678 6.658 36.342-7.461m22.335-.544s-.314 2.827 3.672 3.86c3.984 1.033 29.216 7.372 32.039 6.847 2.822-.525 9.822-5.653 9.822-5.653l1.479-6.296-9.816 5.855-37.196-4.613"/><path fill="#BFAC91" d="M25.285 119.05s3.454 6.91 9.034 4.518l3.986 1.461-.398 2.924-8.371 1.062-2.258-1.328-1.993-8.637Zm141.43-1.897s-5.646 7.212-11.226 4.821l-1.795 1.157.399 2.923 8.371 1.064 2.257-1.33 1.994-8.635m-87.337 54.286s20.467 10.319 43.642-3.722l-7.443-.508s-16.239 6.427-29.094 2.876l-7.105 1.354"/><path fill="#292C2D" d="M33.579 81.451c-2.095.402-4.184.838-6.266 1.306l.736 2.779a92.167 92.167 0 0 1 5.53-4.085Zm3.391 45.645a61.406 61.406 0 0 1-.552-1.868l-4.587-3.211a1.236 1.236 0 0 1-.521-.861l-2.235-18.173c-1.657.888-3.57 1.977-4.081 2.406-.442.363-.778 1.297-.299 5.627.593 5.341 3.298 15.404 4.752 16.868 1.749.307 5.623-.23 7.523-.788Zm27.417-48.167a133.468 133.468 0 0 1 10.499-2.484 773.73 773.73 0 0 0-15.458.718c-2.992.165-5.968.368-8.945.593-1.491.115-2.973.234-4.45.396-.423.041-.837.086-1.26.142-3.883 2.324-18.776 11.673-29 23.897 9.935-6.905 27.243-17.281 48.614-23.262Zm-1.919 8.843c2.889-2.867 5.87-5.232 8.502-7.08-10.145 2.355-19.484 5.814-27.665 9.577a321.54 321.54 0 0 1 19.163-2.497Zm38.938-11.682a451.795 451.795 0 0 0-6.161-.055h-.005c-3.013.004-6.032.037-9.055.097l-5.571 2.64-.078.042c-.837.409-8.153 4.1-15.037 10.684 6.171-3.244 15.239-7.481 25.909-10.767a128.739 128.739 0 0 1 9.998-2.641Zm-3.391 16.697a42.064 42.064 0 0 0 4.664-3.299c-2.155-.04-4.311-.061-6.467-.064-9.009 0-17.425.368-25.052.943-7.653 3.74-12.332 6.817-12.441 6.896l-7.348 4.901 5.046-7.242a46.923 46.923 0 0 1 2.628-3.428c-8.475.947-15.532 2.07-20.805 3.042l2.7 21.89 9.29 6.506 29.492-6.556 5.52-18.187c.093-.3.295-.552.557-.705.088-.055.179-.096.281-.124.17-.046 3.119-.888 6.519-1.302l5.416-3.271Zm2.982 69.883c.946-.079 1.89-.191 2.829-.336a122.367 122.367 0 0 1-3.171-3.428 358.258 358.258 0 0 1-1.706 3.857h.217c.583 0 1.222-.064 1.831-.093Zm15.463 6.63c-4.002-.294-7.642-1.96-10.578-4.868l-.446-.454a39.66 39.66 0 0 1-4.339.625c-.621.023-1.209.077-1.858.077l-.963.01-.366-.01c-3.907 5.812-12.584 6.944-12.981 6.995a14.62 14.62 0 0 0-1.058.165c4.837 1.325 9.772 1.9 14.641 1.573 4.88-.326 11.222-1.385 17.948-4.113Zm-3.188-90.726c.335-.418.648-.822.929-1.191-2.917.295-5.788.718-8.595 1.251-9.611 1.799-18.487 4.79-25.871 7.854a339.079 339.079 0 0 1 16.477-.404c3.473 0 6.85.059 10.134.156 2.826-2.715 5.209-5.493 6.926-7.666Zm26.551-.822-.027-.011c-2.91-.218-5.821-.411-8.733-.578a820.532 820.532 0 0 0-12.146-.594 68.43 68.43 0 0 1-1.399 1.978c-2.203 2.981-6.575 8.452-12.179 13.09 7.933-1.422 21.693-4.941 33.596-13.246.299-.213.594-.433.888-.639Zm13.362 45.852-1.247.873-3.359 2.356-3.64 2.549a1.26 1.26 0 0 1-.847.217l-36.213-4.117-2.635-.3a1.233 1.233 0 0 1-1.041-.869l-5.668-18.662a19.106 19.106 0 0 0-2.498-.194c-.719 0-1.557.066-2.503.194l-5.503 18.123a1.23 1.23 0 0 1-.912.841l-38.602 8.596a1.359 1.359 0 0 1-.27.027c-.249 0-.497-.074-.709-.225l-1.403-.976-4.201-2.94v-.009l-1.697-1.187c.119.382.257.756.391 1.128l-.005.004c.327.971 3.579 10.329 10.192 19.489a781.347 781.347 0 0 0 15.159-4.652c3.988-6.146 9.666-12.243 13.702-12.454a46.059 46.059 0 0 1 2.135-.055c1.973 0 3.861.143 5.607.35-1.485-1.349-1.789-2.932-2.005-3.631 0 0 5.148 4.026 11.704 3.185 6.558-.847 10.628-4.625 10.628-4.625s-.018 2.757-2.875 4.89c5.494-1.66 7.767-2.231 9.322-2.231 1.716 0 2.562.718 3.303 1.35.142.114.285.238.45.372 3.603 2.84 7.2 5.688 10.791 8.544 1.72.202 7.176.823 10.614 1.141 1.982.178 3.772.33 5.525.33.566 0 1.096-.022 1.596-.055 2.275-4.337 4.317-9.252 6.051-14.8.234-.852.461-1.712.663-2.577Zm-2.048-10.527 2.66-18.616c-7.5-1.366-18.468-3.018-31.904-4.048-12.127 4.183-22.286 5.428-22.898 5.47l-.708.05c3.869.332 7.513 1.372 7.696 1.427.401.12.714.427.838.829l5.498 18.099 29.45 3.346 9.368-6.557Zm7.173 3.921 3.008-21.042a214.583 214.583 0 0 0-5.093-1.039l-2.718 19.038c-.05.337-.235.64-.512.839l-10.195 7.131c-.24.17-.547.248-.842.216l-30.725-3.492a1.236 1.236 0 0 1-1.045-.865l-5.533-18.219c-1.483-.383-5.287-1.271-8.618-1.271-3.345 0-7.146.888-8.628 1.271l-5.535 18.219c-.13.424-.478.746-.91.842l-30.725 6.836c-.097.02-.179.029-.272.029-.248 0-.496-.074-.704-.222l-10.191-7.136a1.243 1.243 0 0 1-.519-.86L35.806 94.99c-1.141.222-2.171.433-3.092.625-.653.36-1.298.719-1.932 1.078l2.916 23.611 14.811 10.376 37.369-8.314 5.516-18.173c.135-.453.518-.79.985-.866 1.399-.225 2.622-.34 3.658-.34 1.025 0 2.253.115 3.648.34.47.074.851.41.985.866l5.658 18.625 37.576 4.272 14.406-10.092Zm4.159-24.207 2.646-10.034c-3.837-.869-10.904-2.324-20.529-3.686-4.915 3.534-10.293 6.359-15.579 8.613 16.172 1.574 28.056 3.915 33.462 5.107Zm4.587 15.684c.406-4.49.052-5.456-.404-5.824-.456-.382-1.997-1.256-3.497-2.07l-2.47 17.298a1.238 1.238 0 0 1-.515.838l-3.535 2.472c-.28 1.415-.381 2.083-.726 3.468 2.019.469 5.332.834 6.91.529 1.431-1.555 3.744-11.208 4.237-16.711Zm10.66-42.686a47.804 47.804 0 0 1-.23 7.762 49.172 49.172 0 0 1-1.439 7.647 39.792 39.792 0 0 1-1.247 3.73 33.536 33.536 0 0 1-.791 1.841c-.143.303-.295.603-.465.911l-.253.455a7.356 7.356 0 0 1-.309.51l-.261.407-.41.21a29.57 29.57 0 0 1-1.193.58l-1.153.521c-.774.33-1.55.643-2.329.946-.543.213-1.021.407-1.476.6l-1.284 4.876a88.949 88.949 0 0 0-1.14-.28l-.07.509c1.416.741 4.199 2.242 5.148 3.025 1.909 1.578 2.043 4.076 1.62 8.745-.217 2.398-1.012 7.062-2.116 11.346-1.906 7.375-2.918 8.241-4.225 8.576-.662.17-1.683.34-2.673.34-2.014 0-4.758.056-6.603-.389-.473 1.677-1.826 6.054-4.504 11.519.134-.065.267-.119.387-.183 3.303-1.735 9.653-4.501 9.919-4.62l5.016-2.18-2.568 4.831c-.06.104-5.567 10.462-8.94 17.226-3.349 6.698-9.629 8.157-13.389 9.021-.566.134-1.103.258-1.54.378-2.697.758-8.158 2.061-12.975 3.219l-.174.038a56.905 56.905 0 0 1-9.736 4.809c-12.948 4.904-26.593 4.628-38.966.082-2.01.258-4.652.575-8.17.975-1.529.17-3.015.258-4.431.258-11.788 0-18.036-5.986-22.596-11.847-4.882-6.277-10.853-15.594-11.106-15.984l-3.46-5.401 5.852 2.631c2.802 1.261 11.13 5.116 13.513 6.221.193-.055.382-.111.57-.166-3.96-5.65-7.208-12.092-9.505-19.227-1.951.588-4.956 1.044-7.292 1.044-.855 0-1.62-.064-2.208-.203-1.307-.298-2.798-1.558-4.827-8.704-1.177-4.15-2.056-8.678-2.314-11.009-.507-4.552-.414-6.99 1.477-8.564 1.14-.952 4.986-2.972 5.782-3.385l-.17-1.404c-12.22 7.181-19.543 13.526-19.691 13.656l-8.737 7.669 6.225-9.817c4.928-7.781 10.619-14.071 15.855-18.916-.217-.087-.419-.174-.631-.261l-1.155-.521a30.209 30.209 0 0 1-1.191-.58l-.41-.21-.262-.407c-.147-.22-.211-.344-.308-.51l-.258-.455c-.161-.308-.318-.608-.46-.911a27.933 27.933 0 0 1-.791-1.841 40.091 40.091 0 0 1-1.248-3.73 48.708 48.708 0 0 1-1.439-7.647 48.493 48.493 0 0 1-.23-7.762c.068-1.293.193-2.585.372-3.87a34.26 34.26 0 0 1 .318-1.928c.133-.653.263-1.26.46-1.973l.138-.501.358-.282c2.039-1.601 4.238-2.81 6.474-3.882a69.764 69.764 0 0 1 5.609-2.325c5.282-14.657 14.363-27.655 26.299-36.714C66.099 4.951 80.61 0 95.723 0c15.115 0 29.626 4.951 41.965 14.314 11.935 9.059 21.018 22.057 26.296 36.71 1.895.7 3.768 1.459 5.613 2.329 2.234 1.072 4.434 2.281 6.472 3.882l.359.282.139.501c.202.713.33 1.32.459 1.973.13.639.231 1.285.317 1.928.181 1.285.31 2.577.373 3.87ZM36.026 49.511c-2.236.901-4.457 1.831-6.629 2.852-2.177.994-4.316 2.062-6.359 3.253-1.886 1.086-3.695 2.277-5.291 3.622a33.907 33.907 0 0 0-.373 3.049c-.1 1.2-.153 2.403-.16 3.607a53.116 53.116 0 0 0 .446 7.21c.331 2.393.768 4.771 1.416 7.068a37.251 37.251 0 0 0 1.105 3.38c.207.554.437 1.091.677 1.616.119.262.243.52.367.768l.153.29c.179.092.363.183.537.267l1.072.51c.599.277 1.422.667 2.103.972l.111-.102-1.984-7.564c.419-.115 4.193-1.09 10.693-2.328a30.527 30.527 0 0 1-1.578-.336 32.722 32.722 0 0 1-4.352-1.389 20.09 20.09 0 0 1-2.052-.994c-.658-.378-1.307-.805-1.809-1.376 7.14 2.333 21.896 1.275 35.014-.078 11.998-1.238 24.02-2.038 36.107-2.065 12.087.027 24.119.827 36.108 2.065 13.127 1.353 27.883 2.411 35.022.078-.501.571-1.149.998-1.808 1.376-.656.373-1.352.695-2.051.994a32.744 32.744 0 0 1-4.357 1.389c-.217.05-.437.102-.659.147 7.128 1.321 11.277 2.397 11.719 2.517l-1.9 7.205c.383-.171.768-.335 1.145-.511l1.073-.51c.175-.084.359-.175.538-.267l.147-.29c.129-.248.253-.506.373-.768.244-.531.471-1.07.681-1.616a36.902 36.902 0 0 0 1.099-3.38c.649-2.297 1.091-4.675 1.417-7.068.309-2.387.47-4.799.447-7.21a46.199 46.199 0 0 0-.156-3.607 44.416 44.416 0 0 0-.189-1.785 26.73 26.73 0 0 0-.189-1.264c-1.597-1.345-3.404-2.536-5.292-3.622-2.042-1.191-4.181-2.259-6.362-3.253-2.167-1.021-4.393-1.951-6.629-2.852-1.12-.454-2.246-.891-3.378-1.312-1.127-.437-2.268-.85-3.409-1.264 2.396.395 4.772.942 7.122 1.545 1.532.396 3.06.843 4.569 1.316C149.558 21.66 123.821 3.34 95.723 3.34c-28.103 0-53.835 18.32-64.596 46.456a96.237 96.237 0 0 1 4.564-1.316c2.356-.603 4.729-1.15 7.127-1.545a167.24 167.24 0 0 0-3.415 1.264c-1.127.418-2.254.861-3.377 1.312Zm64.101 102.914 1.416 1.688c.032.04 3.18 3.786 7.027 7.6 2.559 2.536 5.649 3.819 9.192 3.819 1.21 0 2.48-.156 3.764-.465 1.191-.29 2.484-.598 3.81-.916 4.784-1.144 10.204-2.442 12.832-3.179a34.365 34.365 0 0 1 1.71-.419c3.497-.808 8.291-1.922 10.831-7.011 1.91-3.818 4.486-8.775 6.395-12.408-1.655.764-3.391 1.591-4.624 2.24-1.9.998-4.388 1.481-7.605 1.481-1.913 0-3.791-.16-5.871-.345-4.154-.382-11.185-1.209-11.257-1.219l-.539-.06-.424-.34c-.064-.046-6.224-4.955-11.204-8.87-.184-.152-.368-.303-.551-.456-.524-.447-.524-.447-.837-.447-1.598 0-6.239 1.44-16.409 4.593l-.624.198-.612-.231c-.07-.023-6.741-2.497-14.736-2.497-.654 0-1.307.016-1.942.049-.802.041-5.295 2.176-11.043 11.268l-.373.584-.658.211a706.666 706.666 0 0 1-20.477 6.226l-.682.193-.644-.299c-.069-.028-4.173-1.932-8.079-3.727 2.13 3.147 4.854 7.072 7.251 10.151 4.186 5.392 9.465 10.374 19.582 10.374 1.269 0 2.618-.078 4.003-.235 10.291-1.163 12.942-1.632 14.368-1.881.482-.083.865-.153 1.353-.212.078-.009 8.507-1.099 10.872-6.405 2.438-5.451 2.93-6.749 2.948-6.799l.862-2.295s.106-.595.281-.779l.004.004.017.014c.271.194.673.802.673.802Zm126.805-86.378h-20.681V55.325h53.944v10.722h-20.57v60.84h-12.693v-60.84Zm32.127 7.113h10.396l.874 9.519h.438c3.83-7.002 9.52-10.831 15.211-10.831 2.735 0 4.485.327 6.127 1.093l-2.189 10.942c-1.861-.547-3.283-.875-5.581-.875-4.267 0-9.41 2.955-12.692 11.052v32.827h-12.584V73.16m55.695 45.191c4.377 0 7.77-2.188 11.708-5.908v-12.037c-14.552 1.861-19.367 5.69-19.367 11.052 0 4.814 3.172 6.893 7.659 6.893Zm11.708-25.823c-.109-5.69-2.516-10.504-9.738-10.504-5.362 0-10.395 2.406-15.101 5.252l-4.595-8.426c5.909-3.721 13.459-7.002 21.993-7.002 13.46 0 20.025 8.205 20.025 23.196v31.843H328.76l-.984-5.91h-.328c-4.815 4.05-10.287 7.222-16.632 7.222-9.411 0-15.977-6.346-15.977-15.756 0-11.489 9.63-17.508 31.623-19.915Zm16.185-19.368h12.802l8.535 27.903c1.422 5.252 3.064 10.723 4.487 16.195h.437c1.531-5.472 3.064-10.943 4.596-16.195l8.534-27.903h12.146l-18.272 53.727h-14.554L342.647 73.16m57.677 53.727h12.583V73.16h-12.583v53.727Zm-1.423-70.25c0-4.267 3.282-7.222 7.769-7.222s7.769 2.955 7.769 7.222c0 4.158-3.282 7.113-7.769 7.113s-7.769-2.955-7.769-7.113Zm27.126 56.025c4.814 3.72 9.411 6.018 14.881 6.018 5.8 0 8.536-2.735 8.536-6.455 0-4.487-5.8-6.456-11.49-8.645-7.113-2.626-15.1-6.675-15.1-15.647 0-9.412 7.55-16.085 19.586-16.085 7.441 0 13.459 3.063 17.836 6.455l-5.799 7.66c-3.721-2.736-7.55-4.597-11.817-4.597-5.362 0-7.88 2.517-7.88 5.91 0 4.158 5.363 5.909 11.162 7.987 7.331 2.736 15.428 6.237 15.428 16.304 0 9.191-7.332 16.632-20.899 16.632-7.331 0-15.1-3.172-20.352-7.441l5.908-8.096m97.058-58.651c8.753 0 15.865 4.268 20.352 9.082l-7.003 7.878c-3.721-3.61-7.769-5.908-13.24-5.908-11.708 0-20.134 9.848-20.134 25.933 0 16.305 7.769 26.152 19.696 26.152 6.346 0 11.052-2.627 15.1-7.112l7.004 7.769c-5.8 6.674-13.241 10.394-22.323 10.394-18.163 0-32.497-13.13-32.497-36.875 0-23.416 14.662-37.313 33.045-37.313m29.534 72.876h12.693V55.325h-12.693v71.562Z"/></g></svg>