<svg xmlns="http://www.w3.org/2000/svg" width="512pt" height="512pt" style="isolation:isolate" viewBox="0 0 512 512"><defs><clipPath id="a"><path d="M0 0h512v512H0z"/></clipPath></defs><g clip-path="url(#a)"><linearGradient id="b" x1="0" x2="0" y1=".5" y2="-.5" gradientTransform="matrix(512 0 0 511.67 0 .165)" gradientUnits="userSpaceOnUse"><stop offset="0%" style="stop-color:#0052cc"/><stop offset="100%" style="stop-color:#2684ff"/></linearGradient><path fill="url(#b)" fill-rule="evenodd" d="M451.219.165H60.863C27.282.165.046 27.364 0 60.945v389.782a60.863 60.863 0 0 0 60.863 61.108h390.356A60.862 60.862 0 0 0 512 450.727V60.945C511.954 27.396 484.768.21 451.219.165ZM220.811 368.702a20.34 20.34 0 0 1-20.506 20.261H115c-11.158-.046-20.178-9.104-20.178-20.261V114.836c0-11.158 9.02-20.215 20.178-20.261h85.305c11.171.045 20.215 9.09 20.26 20.261l.246 253.866Zm196.86-116.557a20.263 20.263 0 0 1-20.507 20.261h-85.305c-11.171-.046-20.215-9.09-20.26-20.261V114.836c.045-11.171 9.089-20.216 20.26-20.261h85.305c11.158.046 20.179 9.103 20.179 20.261l.328 137.309Z"/></g></svg>