<?xml version="1.0" encoding="UTF-8" standalone="no"?>
<!-- Generator: Gravit.io -->
<svg xmlns="http://www.w3.org/2000/svg" xmlns:xlink="http://www.w3.org/1999/xlink" style="isolation:isolate"
  viewBox="0 0 64 64" width="64pt" height="64pt">
  <defs>
    <clipPath id="_clipPath_fcJQwiRJbXybYWx2N5od4oSw1nodDlvs">
      <rect width="64" height="64" />
    </clipPath>
  </defs>
  <g clip-path="url(#_clipPath_fcJQwiRJbXybYWx2N5od4oSw1nodDlvs)">
    <path
      d=" M 31.752 0 L 44.366 7.278 L 44.366 11.278 L 59.632 20.096 L 59.632 35.176 L 63.728 37.54 L 63.728 52.104 L 51.122 59.38 L 45.526 56.144 L 31.92 64 L 18.396 56.19 L 12.878 59.38 L 0.272 52.092 L 0.272 37.54 L 4.208 35.268 L 4.208 20.096 L 19.148 11.47 L 19.156 11.47 L 19.156 7.278 L 31.752 0 Z  M 44.366 15.062 L 44.366 21.832 L 31.76 29.108 L 19.156 21.832 L 19.156 15.25 L 19.148 15.25 L 7.484 21.988 L 7.484 33.378 L 12.878 30.264 L 25.482 37.54 L 25.482 52.092 L 21.67 54.296 L 31.92 60.216 L 42.252 54.252 L 38.518 52.092 L 38.518 37.54 L 51.122 30.264 L 56.356 33.286 L 56.356 21.988 L 44.366 15.062 Z  M 41.794 50.216 L 41.794 41.334 L 49.484 45.772 L 49.484 54.654 L 41.794 50.216 Z  M 60.452 41.32 L 52.76 45.76 L 52.76 54.654 L 60.452 50.204 L 60.452 41.32 Z  M 3.548 50.204 L 3.548 41.32 L 11.24 45.76 L 11.24 54.642 L 3.548 50.204 Z  M 22.206 41.32 L 14.516 45.76 L 14.516 54.642 L 22.206 50.204 L 22.206 41.32 Z  M 43.432 38.496 L 51.122 34.056 L 58.814 38.496 L 51.122 42.938 L 43.432 38.496 Z  M 12.878 34.044 L 5.186 38.496 L 12.878 42.926 L 20.568 38.496 L 12.878 34.044 Z  M 22.432 19.94 L 22.432 11.058 L 30.114 15.5 L 30.114 24.378 L 22.432 19.94 Z  M 41.082 11.058 L 33.398 15.5 L 33.398 24.374 L 41.082 19.94 L 41.082 11.058 Z  M 24.07 8.224 L 31.752 3.784 L 39.444 8.224 L 31.752 12.662 L 24.07 8.224 Z "
      fill-rule="evenodd" fill="rgb(57,140,203)" />
  </g>
</svg>