<?xml version="1.0" encoding="UTF-8" standalone="no"?>
<!-- Generator: Gravit.io -->
<svg xmlns="http://www.w3.org/2000/svg" xmlns:xlink="http://www.w3.org/1999/xlink" style="isolation:isolate" viewBox="0 0 64 64" width="64pt" height="64pt"><defs><clipPath id="_clipPath_bnX4urCBHD3y8oMnJqIvbquNdowR9pas"><rect width="64" height="64"/></clipPath></defs><g clip-path="url(#_clipPath_bnX4urCBHD3y8oMnJqIvbquNdowR9pas)"><path d=" M 6.25 0 L 57.75 0 C 61.2 0 64 2.8 64 6.25 L 64 57.75 C 64 61.2 61.2 64 57.75 64 L 6.25 64 C 2.8 64 0 61.2 0 57.75 L 0 6.25 C 0 2.8 2.8 0 6.25 0 Z  M 39.618 50.928 L 39.618 57.186 C 40.634 57.708 41.838 58.098 43.226 58.358 C 44.616 58.62 46.08 58.75 47.618 58.75 C 49.118 58.75 50.544 58.606 51.894 58.32 C 53.244 58.034 54.426 57.56 55.444 56.902 C 56.462 56.244 57.266 55.384 57.86 54.32 C 58.454 53.258 58.75 51.944 58.75 50.38 C 58.75 49.246 58.58 48.252 58.242 47.398 C 57.902 46.544 57.414 45.786 56.774 45.12 C 56.136 44.456 55.368 43.858 54.476 43.33 C 53.582 42.802 52.574 42.304 51.454 41.836 C 50.632 41.496 49.894 41.166 49.242 40.848 C 48.59 40.528 48.036 40.202 47.58 39.87 C 47.124 39.538 46.77 39.186 46.524 38.814 C 46.276 38.442 46.152 38.022 46.152 37.552 C 46.152 37.122 46.262 36.734 46.484 36.388 C 46.706 36.044 47.018 35.746 47.424 35.5 C 47.828 35.252 48.322 35.06 48.91 34.922 C 49.496 34.786 50.148 34.718 50.866 34.718 C 51.388 34.718 51.938 34.756 52.52 34.834 C 53.1 34.912 53.684 35.034 54.27 35.196 C 54.858 35.36 55.428 35.564 55.982 35.812 C 56.536 36.06 57.048 36.346 57.518 36.672 L 57.518 30.826 C 56.566 30.46 55.526 30.19 54.398 30.014 C 53.27 29.838 51.974 29.75 50.514 29.75 C 49.028 29.75 47.618 29.91 46.288 30.23 C 44.958 30.548 43.788 31.048 42.776 31.726 C 41.766 32.404 40.968 33.266 40.38 34.316 C 39.794 35.366 39.5 36.62 39.5 38.08 C 39.5 39.944 40.038 41.536 41.114 42.852 C 42.19 44.168 43.824 45.284 46.014 46.196 C 46.876 46.548 47.678 46.894 48.42 47.232 C 49.164 47.572 49.806 47.924 50.348 48.288 C 50.888 48.654 51.316 49.05 51.63 49.482 C 51.942 49.912 52.098 50.4 52.098 50.948 C 52.098 51.352 52 51.726 51.806 52.072 C 51.61 52.418 51.312 52.718 50.916 52.972 C 50.518 53.226 50.022 53.424 49.428 53.568 C 48.834 53.712 48.14 53.784 47.344 53.784 C 45.988 53.784 44.646 53.546 43.314 53.07 C 41.984 52.594 40.752 51.88 39.618 50.928 L 39.618 50.928 Z  M 29.098 35.51 L 37.126 35.51 L 37.126 30.376 L 14.75 30.376 L 14.75 35.51 L 22.738 35.51 L 22.738 58.376 L 29.098 58.376 L 29.098 35.51 Z " fill-rule="evenodd" fill="rgb(49,120,198)"/></g></svg>