<svg xmlns="http://www.w3.org/2000/svg" width="124.16" height="123.63" viewBox="0 0 124.16 123.63"><g fill="#d2b673"><path d="M33.94,7A61.81,61.81,0,0,1,68.59.29,61,61,0,0,1,111.2,24a62.71,62.71,0,0,1,12.25,47.7c-2.1.07-4.2.12-6.29.17.68-7.88,1.16-16-1-23.69A55.83,55.83,0,0,0,82.92,10.21C73.49,6.32,63,5.59,53,7,34.52,10,18,23.06,11.18,40.48c4.89.26,9.78.14,14.68.19.67,10.27-.15,20.56.22,30.83-.24,4.4,5.14,8.2,9.06,5.81,2.47-1.23,3.37-4.11,3.37-6.69.21-10-.2-19.92.11-29.87h6.66c.08,9.94-.06,19.89,0,29.83.37,7-5.51,13.89-12.66,14.05a12.83,12.83,0,0,1-13.27-12c-.32-8.27.11-16.56-.09-24.84-5.64-.38-11.3-.1-16.95-.27C6.11,30.15,18.21,15,33.94,7Z"/><path d="M38.56,15.55A52.33,52.33,0,0,1,85,15c17.76,8.56,29.83,27.81,29.25,47.61-.37,4.64.08,9.93-3,13.78.06-1.58.18-3.15.3-4.73a44.65,44.65,0,0,1-5,4.51c2.69-4.53,6.79-8.89,6.09-14.6.53-6.75-5-11.34-8.31-16.54,2.8,1.85,5,4.37,7.41,6.71A50.68,50.68,0,0,0,84,16.2c-4.56-2.19-9.5-3.38-14.38-4.59,2.49,2.52,5.13,4.95,7.06,8,3.15,4.62,4.69,10.05,6.78,15.18a49.33,49.33,0,0,1,9.68,3.92,35.75,35.75,0,0,1-9.07-2c.07,1.76.12,3.53.1,5.3a21.76,21.76,0,0,1-2.41-5.86c-4.13-1.17-8.44-1.22-12.63-2l-.8-1.58a119,119,0,0,1,13.15,1.91C79.12,27,76,19.37,69.91,14.27a11.69,11.69,0,0,0-15.46.12c-5.91,5.12-9.05,12.63-11.17,20,4.5-.77,9-1.65,13.6-1.49-3.93,2.27-8.63,1.71-12.84,3a19.07,19.07,0,0,0-3,3.45L40,36.82C35.43,38,31.21,40,26.74,41.37c3.52-4.22,9.46-4.29,14.09-6.62,2.19-3.42,3-7.53,4.87-11.1a36.28,36.28,0,0,1,9.77-12.17c-11.29,2.28-22.29,7.23-30.12,15.89-3.92,3.72-5.78,9.08-9.86,12.64C19.58,29.25,28.53,20.86,38.56,15.55Z"/><path d="m52.57 37.59c2.76-2.12 4.69-5 6.69-7.78q1.38 1.86 2.73 3.75a29 29 0 0 1 4.12 -3.72c1 4.5 4.79 7.22 7.33 10.78 2.4 6 1.29 12.76 1.2 19.09q-3.37 0-6.75-.11c-.18-5 .4-9.94-.32-14.85-1.07-5.36-9.89-6.06-11.48-.76-1.18 5.77-.46 11.73-.65 17.58.18 5.86-.6 11.82.6 17.6 1.34 4.88 9.12 5.81 11.14.94 1.35-4.61.45-9.53.73-14.27l6.72-.08c.29 4.57.64 9.2-.14 13.74-.69 5.66-7.31 8.06-7.76 13.87l-2.57.11c-.42-1.31-.85-2.62-1.28-3.93-1.14 1.76-2.31 3.66-4.51 4.15-.79-2.3-1.76-4.65-3.93-6a12.53 12.53 0 0 1 -5.77 -10.1c-.26-9 .07-18-.13-27.06-.12-4.54.21-9.83 4.03-12.95"/><path d="M81.19,46.19c3.87-6.68,14.21-8.43,19.9-3.1a13.92,13.92,0,0,1,4.23,9.45c.36,8.2-.25,16.42.42,24.61,5.46,0,10.93-.31,16.39,0-3.76,15.73-14.39,29.54-28.26,37.75a61.45,61.45,0,0,1-43.16,7.62,62.3,62.3,0,0,1-39.79-26.3C4.13,86.33.94,74.41,0,62.58c.12-3.28-.27-7.19,1.85-9.88a51.81,51.81,0,0,1,5.43-.13c-.36,6.87-.93,13.84.67,20.6a55.71,55.71,0,0,0,77.5,39.17,56.21,56.21,0,0,0,28-28.61c-4.94,0-9.89.16-14.84,0-.12-6.1.08-12.2-.1-18.29a103.11,103.11,0,0,0-12.18,0c-.3,6,0,12.12-.08,18.18q-3.37.14-6.75.23c-.31-8.74,0-17.49-.16-26.24,0-3.82-.27-8,1.86-11.38m6,3c-1.61,2.81-.89,6.17-.83,9.23,4.07.1,8.15.11,12.22,0-.08-3.33.82-7.34-1.76-10A6.34,6.34,0,0,0,87.14,49.19Z"/><path d="M11.59,49.28a10.79,10.79,0,0,0,5.49-.46c-3,4.17-5.89,9-5.17,14.36.3,5.89,4.81,10.1,7.68,14.85-2.76-1.68-4.8-4.21-7-6.54,2.88,13.49,11,26,23,33.11a53.28,53.28,0,0,0,19.27,7.14C53,109.79,50.93,108,49.2,106c-3.68-5.1-5.62-11.15-8-16.9a53,53,0,0,1-7.84-3.43,69.87,69.87,0,0,1,7,1.39c.11-1.54.21-3.08.34-4.61.94,1.74,1.52,3.75,2.88,5.22,4.16,1.35,8.71,1.14,12.76,2.94-4.35.33-8.66-.42-13-1a71.4,71.4,0,0,0,3.93,10.51,12,12,0,0,1,5-2.49c.25,1.11.5,2.22.74,3.34L50,100.36c.07,1.07.11,2.14.13,3.21,3.25.6,2.59,4.85,5.25,6.25,4.87,4,13,2.9,16.33-2.43.23-3.24,0-6.5.07-9.75,2,.39,4,.73,6,1.28a68,68,0,0,0,3.61-9.46C76.92,90.13,72.48,91,68,90.6c4.79-2.53,11.17-.67,15.1-4.95.85.4,1.66,1.33,2.69.92,4.17-1.12,8-3.23,12.22-4.23-4,4-9.81,4.63-14.76,6.77a151.66,151.66,0,0,1-5.83,14.08c-1.45,3.78-5.14,5.86-7.91,8.57a50.74,50.74,0,0,0,30.73-16.59c3-3.43,5-7.74,8.44-10.83-4.14,10.7-13.27,18.9-23.32,24.07-10.34,5.4-22.5,6.38-33.85,4.3A52.79,52.79,0,0,1,14,81.14C9.78,71.12,9.8,59.86,11.59,49.28Z"/><path d="m57.11 98.13c1.18-.22 2.35-.48 3.51-.76 1.58 2.75 1.14 5.93.76 8.91-.94.4-1.87.82-2.78 1.26-2.78-2.41-1.81-6.22-1.49-9.41m1.79 2.24a3.74 3.74 0 0 0 0 4.37c1.56-.27 1.56-4.12 0-4.37"/><path d="m65.8 97.9l1.86-.46a50.66 50.66 0 0 1 0 9l-2 .54a50.62 50.62 0 0 1 .14 -9.08"/></g></svg>