<svg xmlns="http://www.w3.org/2000/svg" xml:space="preserve" width="117" height="138"><rect width="100%" height="100%" fill="none"/><g class="currentLayer"><path stroke-width="0" d="M112.662 33.382c-3.127.726-6.417 1.074-9.798 1.074-9.094 0-18.848-2.53-27.903-7.093.164-.911.254-1.847.254-2.807 0-8.648-7.008-15.662-15.659-15.662-8.65 0-15.667 7.014-15.667 15.662 0 .953.093 1.887.257 2.793-9.067 4.572-18.831 7.107-27.934 7.107-3.38 0-6.668-.348-9.797-1.074-.048 19.966-2.421 73.149 53.125 103.565 55.545-30.416 53.17-83.599 53.122-103.565" style="fill:#2a57a5;fill-opacity:1;fill-rule:nonzero;stroke:none"/><path stroke-width="0" d="M14.028 79.567c6.012 19.18 18.718 39.721 45.512 54.756V79.567H14.028zM105.049 79.567c5.394-17.22 5.391-33.342 5.332-43.399a47.538 47.538 0 0 1-7.517.584c-14.693.003-30.739-6.247-43.311-16.79v59.605h45.496z" style="fill:#2a57a5;fill-opacity:1;fill-rule:nonzero;stroke:none"/><path stroke-width="0" d="M59.552 79.567V19.962l-.012-.014C46.967 30.502 30.913 36.752 16.212 36.752c-2.58 0-5.1-.196-7.514-.584-.065 10.057-.065 26.18 5.33 43.4h45.524z" style="fill:#fdbb2f;fill-opacity:1;fill-rule:nonzero;stroke:none"/><path stroke-width="0" d="M105.049 79.567H59.54v54.756c26.793-15.035 39.499-35.576 45.509-54.756" style="fill:#fdbb2f;fill-opacity:1;fill-rule:nonzero;stroke:none"/><path stroke-width="0" d="m23.128 70.89.022-6.121c.349-.06.698-.118 1.046-.175l-.04 5.417-.628 2.098-.4-1.22zm1.155-17.316-.044 5.558-.065.01c-.335.038-.666.077-.998.117l.025-5.617.548-1.75.534 1.682zm13.436-.58c-.34.896-.679 1.795-1.011 2.685-.304-.878-.607-1.758-.907-2.64l.974-1.337.944 1.293zm12.661.36-.072 10.138-1.14.072.097-10.177.574-1.35.541 1.318zm20.116 12.777-.242.575-.351-.816-.103-12.531.273-.67.296.698.127 12.744zm6.547-1.907c-.375-.044-.75-.088-1.125-.128l-.094-8.206.736.015.376.01.107 8.309zm24.883 10.43s-.593-2.282-.728-2.794l-.007-18.17.748-2.546h-6.946l.78 2.495.073 16.523c-.007-.013-.013-.027-.022-.042a555.86 555.86 0 0 0-4.044-16.833l.703-2.143H85.01l.778 2.12a640.542 640.542 0 0 1-3.299 12.665l-.167-12.817-.373-.323c-.546-.47-1.09-.933-1.637-1.385l-.31-.26H63.42l.954 2.216.019 3.392a7215.593 7215.593 0 0 0-2.938-5.476l-.07-.132H17.034l.752 2.543-.012 18.173-.849 3.249 2.936-.983c.615-.202 1.23-.402 1.845-.592l2.079-.632v-.005l2.4-.667c.62-.171 1.244-.333 1.866-.494l2.195-.546-.705-1.979.159-15.66.061-.17c.174.25.352.499.525.744a320.342 320.342 0 0 0 3.667 9.272l-.058 4.428-.977 2.752 2.926-.57c.63-.122 1.261-.236 1.891-.345l2.374-.395-.788-1.991.058-4.401A369.91 369.91 0 0 1 43.2 54.03c.202-.25.405-.499.608-.744l.034.089-.154 13.434.474.332c.537.377 1.073.749 1.61 1.118l.34.232.408-.04c2.215-.226 4.422-.395 6.55-.501l.359-.019.28-.225c.541-.435 1.085-.865 1.621-1.293l.419-.323.059-12.732.3-.702.294.693-.023 12.245-.967 2.245 2.74-.041c.453-.007.902-.01 1.35-.01l3.307.028-.969-2.231-.003-3.321c.91 1.676 1.822 3.37 2.74 5.086l.297.55.628.029c1.265.062 2.483.136 3.62.226l2.003.166 3.977.43c1.606.199 3.13.418 4.533.647l.443.065.365-.253c.276-.189.555-.379.83-.572l-.398.595-.213.32 2.723.502c.634.12 1.26.245 1.888.376l2.935.628-.753-2.19.415-1.621c.678.12 1.357.25 2.035.38.189.805.382 1.616.568 2.427l-.501 1.434 2.168.566c.628.164 1.25.334 1.865.509l3.26.969c.617.192 1.23.39 1.844.592l2.934.98-.118-.452z" style="fill:#2a57a5;fill-opacity:1;fill-rule:nonzero;stroke:none"/><path stroke-width="0" d="M100.084 54.01v-.474l.38-1.297H96.493l.383 1.23.076 17.133h.002v.453c-.125.377-.246.752-.368 1.126.125.035.247.071.375.114.21.065.425.129.637.195.619.194 1.24.395 1.861.592.214.074.422.145.637.214l.368.126c-.12-.478-.247-.95-.37-1.422l-.01-17.99M28.99 52.238H25.013c.123.392.248.785.373 1.171-.018 2.084-.03 4.17-.048 6.254-.168.167-.335.335-.502.504-.791.09-1.585.181-2.371.28-.134-.11-.267-.213-.398-.323l.026-6.199h-.002c0-.15.002-.302.004-.45.128-.417.255-.83.387-1.237H18.504c.132.431.257.864.383 1.294-.001 5.993-.004 11.992-.008 17.988h.003v.478c-.128.472-.251.944-.378 1.424l.375-.125c.213-.07.423-.144.634-.214a147.551 147.551 0 0 1 2.501-.788c.124-.042.248-.08.374-.113l-.367-1.119c.008-2.301.017-4.601.027-6.895.116-.128.229-.254.343-.376.827-.143 1.65-.284 2.48-.417.143.108.292.212.44.318-.018 2.016-.035 4.034-.05 6.045 0 .142 0 .289-.002.434l-.385 1.285c.124-.035.252-.073.38-.105.21-.059.425-.123.637-.178.627-.171 1.257-.334 1.888-.495.212-.056.428-.11.647-.165l.376-.092c-.123-.345-.246-.685-.368-1.032.055-5.205.107-10.408.158-15.615 0-.136.002-.273.005-.412.129-.38.259-.754.392-1.125M78.12 61.82c.015 1.1.025 2.2.041 3.3l-.427.284c-.828-.1-1.659-.193-2.491-.28-.142-.12-.28-.242-.42-.36-.038-3.225-.078-6.45-.115-9.67.138-.105.275-.207.407-.312.831.016 1.658.034 2.486.057.145.113.29.23.432.345.01 1.1.026 2.2.04 3.3.016 1.112.03 2.224.047 3.335m-3.066-9.58H71.08c.134.307.26.61.394.922.041 4.28.081 8.56.129 12.84l.002.34c-.125.3-.251.597-.379.893.13.012.26.024.39.038.218.017.435.04.655.064.324.03.642.063.964.1l.963.105c.218.027.438.052.658.08.13.013.257.03.385.046 1.53.189 3.053.406 4.57.647.533-.363 1.06-.735 1.593-1.107-.023-1.691-.044-3.381-.069-5.074-.016-1.147-.027-2.296-.044-3.446-.02-1.69-.045-3.381-.066-5.073-.542-.467-1.082-.925-1.625-1.376h-4.546zM54.706 52.238H51.116c.12.301.246.604.373.904l-.08 11.067c-.146.114-.29.221-.432.339-.834.046-1.673.097-2.505.162-.143-.093-.279-.19-.416-.283.035-3.755.07-7.513.108-11.267.132-.31.262-.615.39-.922h-3.973c.123.311.247.624.368.937-.05 4.358-.098 8.72-.147 13.075.532.374 1.071.745 1.601 1.115 2.2-.225 4.405-.397 6.61-.505.544-.44 1.09-.872 1.631-1.3.02-4.143.04-8.286.058-12.428.13-.299.259-.599.385-.894h-.381zM68.794 65.787v-.114l-.103-12.524c.127-.304.25-.61.377-.911H65.09c.13.295.261.595.388.895.013 2.694.03 5.385.047 8.079-1.616-3.04-3.217-6.013-4.805-8.974h-3.594c.128.295.257.592.38.892l-.018 12.69c-.134.297-.262.6-.392.897.128 0 .258-.007.387-.007.221 0 .44-.005.66-.006.646-.009 1.291-.009 1.935-.009.22.003.442.004.662.005.126.004.256.005.383.007-.127-.3-.257-.597-.387-.895l-.01-7.9c1.598 2.938 3.21 5.895 4.832 8.927 1.217.059 2.431.131 3.65.226l-.413-.943-.001-.335M87.634 62.92c.4-1.827.801-3.683 1.201-5.564.444 1.946.892 3.926 1.335 5.94-.09.06-.178.12-.267.182a379.12 379.12 0 0 0-1.983-.29c-.097-.087-.19-.18-.286-.269m2.998-9.666h-.003c.11-.339.221-.677.335-1.015H86.59l.355.968h-.005a629.383 629.383 0 0 1-3.826 14.65l-.606.922c.107.021.225.04.335.061.251.049.501.093.755.142.635.123 1.27.247 1.903.38l.65.136c.128.026.258.056.384.084-.076-.223-.155-.444-.231-.67.224-.868.45-1.747.676-2.632.118-.08.245-.155.366-.233 1.062.186 2.124.382 3.182.59l.371.388c.242 1.023.484 2.054.725 3.099-.071.203-.145.408-.214.609.124.035.253.067.375.097.216.057.429.113.646.168.63.172 1.257.342 1.88.517.248.07.494.142.742.214.11.033.222.065.332.094-.205-.464-.411-.926-.619-1.385a557.387 557.387 0 0 0-4.133-17.184M42.25 53.456c.334-.41.664-.816.997-1.218h-4.721c.144.193.29.393.438.59a453.055 453.055 0 0 0-2.277 6.108c-.705-1.976-1.408-4-2.113-6.078.15-.21.302-.417.45-.62h-4.722c.323.463.647.92.969 1.375a325.466 325.466 0 0 0 3.791 9.575c-.025 1.612-.043 3.22-.065 4.833-.131.367-.261.74-.395 1.113l.383-.076c.216-.044.435-.087.651-.127.636-.12 1.273-.235 1.909-.347.217-.035.436-.071.656-.11.124-.02.255-.044.379-.063-.12-.312-.245-.622-.368-.935.019-1.61.043-3.216.064-4.827a376.34 376.34 0 0 1 3.974-9.193" style="fill:#fff;fill-opacity:1;fill-rule:nonzero;stroke:none"/><path stroke-width="0" d="M102.921 82.12c-7.517 21.616-22.109 38.702-43.381 50.8-21.274-12.098-35.868-29.184-43.386-50.802-6.108-17.557-6.292-34.65-6.244-44.545 2.047.267 4.161.4 6.302.4 7.355 0 15.274-1.566 22.904-4.526a74.916 74.916 0 0 0 7.85-3.595c2.07 4.91 6.926 8.358 12.59 8.358 5.658 0 10.51-3.442 12.583-8.347a73.955 73.955 0 0 0 7.82 3.582c7.626 2.962 15.547 4.527 22.905 4.527 2.143 0 4.257-.132 6.303-.399.047 9.898-.138 26.995-6.246 44.548m7.46-45.953a47.538 47.538 0 0 1-7.517.584h-.008c-9.977 0-20.581-2.886-30.295-8.04.419-1.31.646-2.705.646-4.156 0-7.543-6.112-13.65-13.65-13.65-7.542 0-13.656 6.107-13.656 13.65 0 1.444.228 2.835.64 4.144-9.721 5.162-20.335 8.052-30.329 8.052-2.58 0-5.1-.196-7.513-.584-.134 21.264-.004 69.624 50.84 98.155 50.847-28.53 50.97-76.89 50.842-98.155" style="fill:#fff;fill-opacity:1;fill-rule:nonzero;stroke:none"/><path stroke-width="0" d="M59.556 36.988c-6.858 0-12.432-5.578-12.432-12.432s5.574-12.431 12.432-12.431c6.853 0 12.43 5.577 12.43 12.43 0 6.855-5.577 12.433-12.43 12.433" style="fill:#2a57a5;fill-opacity:1;fill-rule:nonzero;stroke:none"/><path stroke-width="0" d="m63.347 18.86.026.02c1.244-.226 2.335-.3 3.31-.3l.033-.045c-.021-.938-.121-1.74-.349-2.46a10.87 10.87 0 0 0-4.06-2.046c-.915.12-1.689.47-2.469.954l-.02 1.311.033.003c1.371.79 2.534 1.643 3.496 2.563M55.738 18.88l.024-.02c.96-.92 2.121-1.773 3.495-2.563l.034-.003-.004-1.288s-1.042-.804-2.482-.98a10.943 10.943 0 0 0-4.062 2.047c-.225.723-.327 1.524-.348 2.463l.035.043c.975.002 2.06.075 3.308.302M50.724 26.788c-.626-1.49-1.009-2.98-1.128-4.582 0 0-.33-.042-.71.144-.15.715-.226 1.459-.226 2.221 0 2.45.813 4.713 2.181 6.535l.007.003c-.244-.604-.537-2.113-.124-4.321M56.794 22.996c-.54-1.25-.96-2.392-1.175-3.447l-.017-.025c-1.01-.177-2.08-.267-3.383-.245l-.056.007c-.704.725-1.297 1.625-1.78 2.72l-.006.037c.145 2.858.976 4.363.976 4.363l2.82.715 2.625-4.092-.004-.033zM56.63 31.567c-.185.288-.607 1.076-.77 2.4.38.54.753.952 1.1 1.186.117.027.232.056.353.079.752.137 1.5.208 2.243.21a12.515 12.515 0 0 0 2.246-.212c.116-.02.231-.052.349-.077.247-.17.514-.435.787-.771l.382-.538c-.177-1.282-.598-2.027-.77-2.294-2.79.695-5.044.255-5.92.017M61.738 23.341l-.044-.034s-.882.257-2.138.257c-1.258 0-2.142-.257-2.142-.257l-.04.034-2.672 4.159-.013.076 1.535 2.506c.228.36.393.574.44.679l.038.001c.969.197 1.914.303 2.854.309a14.845 14.845 0 0 0 2.853-.309l.034-.001c.045-.105.214-.319.441-.679l1.532-2.506-.008-.076-2.67-4.159zM68.73 22.005c-.487-1.094-1.08-1.994-1.783-2.72l-.059-.006c-1.299-.022-2.374.067-3.383.245l-.013.025c-.218 1.056-.638 2.198-1.178 3.446l-.005.035 2.625 4.09 2.824-.714s.827-1.506.972-4.364v-.037zM70.452 24.57c0-.762-.08-1.504-.23-2.22-.375-.19-.708-.144-.708-.144-.117 1.552-.485 3.004-1.079 4.45l.005-.003c.403 2.018.185 3.567-.065 4.304a10.844 10.844 0 0 0 2.077-6.386M59.535 115.773c-.105.003-.216.003-.329.003-1.346 0-2.51-.125-3.281-.355-.41-.123-.569-.264-.859-.755-.132-.216-.257-.453-.394-.704-.727-1.349-1.635-3.03-4.017-4.151l-.155-.074c-1.524-.712-4.318-2.019-5.638-6.437a4.331 4.331 0 0 0-.838 1.886l-.093.509-.339-.39c-.133-.154-3.232-3.83-1.74-11.723a4.261 4.261 0 0 0-2.023 1.331l-.41.485-.027-.633c-.002-.13-.097-3.118 1.82-6.06-.13-.208-.476-.658-1.156-.92l-.327-.124.227-.265c.033-.039.789-.916 2.235-1.354-.159-.316-.485-.851-.957-1.094l-.35-.178.313-.237c.014-.008 1.203-.922 1.28-2 .03-.47-.156-.915-.56-1.32-1.902-1.923-2.8-3.861-2.752-5.923.034-1.41.535-2.42 1.539-3.088.483-.325 1.176-.497 2.003-.497 2.134 0 5.413 1.173 7.76 4.453.782-.776 3.65-3.201 9.068-3.201h.034c5.405.013 8.266 2.425 9.045 3.201 2.345-3.28 5.622-4.453 7.758-4.453.828 0 1.522.172 2.004.497 1.001.668 1.505 1.678 1.539 3.088.049 2.062-.85 4-2.754 5.923-.401.405-.591.85-.555 1.32.074 1.078 1.265 1.992 1.275 2l.316.237-.352.178c-.474.248-.799.778-.956 1.094 1.446.438 2.203 1.315 2.235 1.354l.226.265-.324.124a2.368 2.368 0 0 0-1.159.92c1.918 2.942 1.825 5.93 1.82 6.06l-.026.633-.41-.485a4.217 4.217 0 0 0-2.025-1.331c1.495 7.893-1.604 11.569-1.74 11.724l-.337.389-.09-.51a4.402 4.402 0 0 0-.843-1.885c-1.319 4.418-4.114 5.725-5.637 6.437l-.157.074c-2.38 1.121-3.287 2.802-4.015 4.151a18.75 18.75 0 0 1-.39.704c-.293.491-.455.632-.865.755-.767.23-1.93.355-3.278.355h-.003c-.109 0-.22 0-.336-.003" style="fill:#fff;fill-opacity:1;fill-rule:nonzero;stroke:none"/><path stroke-width="0" d="M70.028 89.355c-.784 2.176-2.755 2.297-3.792 2.519-.71.147-.908.54-.973.745-.185.937-.156 1.046-.156 1.046l-1.356-3.168s-.14-1.507.617-3.222c-.617-.408-.879-1.13-.879-1.13 2.058-.178 2.92-1.256 3.143-1.548 0 0 .366-.965.42-.783a10.276 10.276 0 0 0 1.419-.425c1.965-.57 1.985-2.035 1.9-2.29-.18-.35 1.155.256.856 4.527 1.789 1.778-.623 2.131-1.199 3.729m-14.697 1.142-1.36 3.168s.033-.109-.154-1.046c-.066-.204-.265-.598-.975-.745-1.035-.222-3.003-.343-3.791-2.52-.575-1.597-2.988-1.95-1.195-3.728-.303-4.271 1.033-4.877.85-4.526-.08.254-.063 1.72 1.905 2.289.387.152.855.296 1.415.425.057-.182.423.783.423.783.224.292 1.082 1.37 3.142 1.548 0 0-.26.722-.878 1.13.756 1.715.618 3.222.618 3.222m24.993-14.34c.19-1.238-.915-3.905-2.027-4.113-.935-.38-1.986-.967-5.283.237-3.405 1.245-4.227 3.208-4.388 3.606 0 0-1.198-2.951-9.068-2.982H59.522c-7.871.031-9.068 2.982-9.068 2.982-.16-.398-.986-2.361-4.387-3.606-3.299-1.204-4.348-.617-5.28-.237-1.116.208-2.22 2.878-2.034 4.113.254 2.544 2.553 4.439 3.183 5.177.516.6.805 2.078-1.204 3.328.926.352 1.467 1.327 1.467 1.327-.89.312-2.053 1.25-2.422 1.505.471.163 1.466.438 1.647 1.278 0 0-1.017 1.265-.388 3.56.875-.715 3.105.297 1.975 2.928 0 0 1.4-.483 1.58-1.24 0 0 .898 2.601-1.575 3.232 0 0 1.463.905 5.007-1.448.955.337 2.728.495 4.446.005 0 0-4 3.096.918 5.75 1.579.927 3.877 1.165 5.659.622.17-.062.33-.149.495-.246.16.097.322.184.495.246 1.78.543 4.08.305 5.657-.622 4.919-2.654.915-5.75.915-5.75 1.723.49 3.493.332 4.449-.005 3.547 2.353 5.007 1.448 5.007 1.448-2.473-.631-1.578-3.232-1.578-3.232.18.757 1.583 1.24 1.583 1.24-1.13-2.631 1.1-3.643 1.975-2.928.627-2.295-.387-3.56-.387-3.56.18-.84 1.177-1.115 1.647-1.278-.37-.255-1.533-1.193-2.425-1.505 0 0 .543-.975 1.465-1.327-2-1.25-1.713-2.728-1.2-3.328.63-.738 2.932-2.633 3.18-5.177M47.367 102.359c-.004 4.021 3.959 4.714 6.014 4.867-.372-.96-1.403-2.74-1.662-3.518-1-.652-2.7-1.535-4.352-1.35" style="fill:#f89734;fill-opacity:1;fill-rule:nonzero;stroke:none"/><path stroke-width="0" d="M53.975 88.943c.052.386-.225 1.062-1.032.912-.846-.155-.936-.921-.836-1.38a.666.666 0 0 1 .175-.345c-.269-.094-.57-.191-.907-.289 0 0-.404 1.81 1.058 2.418 1.57.657 2.023-.846 2.023-.846s-.081-.187-.481-.47" style="fill:#fff;fill-opacity:1;fill-rule:nonzero;stroke:none"/><path stroke-width="0" d="M51.375 87.842c.338.097.638.195.908.288a.657.657 0 0 0-.176.345c-.1.46-.01 1.225.836 1.38.807.15 1.084-.527 1.032-.912.4.284.48.47.48.47s-.45 1.502-2.022.846c-1.462-.609-1.058-2.417-1.058-2.417M47.2 82.795c1.186 2.617-1.341 5.047-1.341 5.047s2.257-.218 3.03 1.506c.888 1.994 2.49 2.195 2.49 2.195-1.194-.569-1.587-1.46-1.752-2.259-.146-.697.237-.854.462-.86.95-.03.137 1.849 2.453 2.746.8.313 1.153.855 1.274 1.45.188.937-.177 1.927-.177 1.927s1.49-1.817 1.677-3.5c.03-.253.066-.649-.007-1.1-.12-.74-.535-1.619-1.778-2.267-2.579-1.347-4.537-1.347-4.537-1.347s.522.197.922.671c.133.154.269.476-.22.403-.439-.067-1.095-.272-1.12-.279-.392-.153-.707-.274-.707-.274 1.576-2.051.68-3.467.426-4.274.065-.635.22-1.106.41-1.48a3.76 3.76 0 0 1 .617-.847c-.817.399-1.746 1.094-2.122 2.542" style="fill:#2a57a5;fill-opacity:1;fill-rule:nonzero;stroke:none"/><path stroke-width="0" d="M47.491 89.007s-.477 1.302.127 2.552c.808 1.684 2.912 2.164 2.912 2.164s-2.83-.967-1.604-3.031c0 0-1.28-.259-1.435-1.685M52.532 86.687s-1.283-1.015-1.693-1.406c-.234-.226-.255-1.121-.229-1.894a19.65 19.65 0 0 1 .08-1.212s-.15.504-.29 1.124c-.203.852-.396 1.931-.188 2.25.457.708 2.32 1.138 2.32 1.138" style="fill:#2a57a5;fill-opacity:1;fill-rule:nonzero;stroke:none"/><path stroke-width="0" d="M55.515 82.295c-.852.49-1.816.485-2.462.403a.792.792 0 0 0-.873.582 9.232 9.232 0 0 1-.155.533 4.717 4.717 0 0 1-.395.927c.328 1.042 1.379 1.76 1.379 1.76-.396-.595-.693-1.652-.693-1.652l.133-.25.33-.594s.274-.617.58-.654c1.714-.197 2.156-1.055 2.156-1.055M43.915 88.964c-.095-2.979 2.591-5.34 2.844-5.522-4.328 1.743-4.328 6.616-4.328 6.616 2.076 2.379.579 5.202.579 5.202 2.746-2.55.937-5.36.905-6.296M56.106 92.421s2.537.393 1.966-2.545c0 0-.384 1.928-1.966 2.545M58.51 84.156s-.73 1.78-1.657 2.075c-.087-.027-.129-.553-.079-1.478 0 0-1.667 2.201-.077 4.88 0 0-.451-.886.121-1.897.359-.635 1.116-.972 1.523-2.073.116-.322.17-.68.17-1.507M53.945 84.788c.674-1.394 2.58-.787 3.248-2.375 0 0-.007 1.435-1.183 1.911-1.747.707-1.905 2.13-1.905 2.13s-.48-1-.16-1.666" style="fill:#2a57a5;fill-opacity:1;fill-rule:nonzero;stroke:none"/><path stroke-width="0" d="M45.051 79.784c.036-.048-.727.637-1.112 1.127-4.369-3.556-2.548-6.293-2.308-7.17 3.42-2 7.096 3.912 7.096 3.912-1.827.523-3.676 2.13-3.676 2.13" style="fill:#fff;fill-opacity:1;fill-rule:nonzero;stroke:none"/><path stroke-width="0" d="M44.885 79.934c1.125-.954 2.259-1.683 3.843-2.281-.746-2.433-4.875-5.472-7.098-3.913 3.199-.397 3.847 5.159 3.255 6.194" style="fill:#2a57a5;fill-opacity:1;fill-rule:nonzero;stroke:none"/><path stroke-width="0" d="M74.009 79.784c-.034-.048.727.637 1.117 1.127 4.369-3.556 2.548-6.293 2.309-7.17-3.424-2-7.1 3.912-7.1 3.912 1.828.523 3.674 2.13 3.674 2.13" style="fill:#fff;fill-opacity:1;fill-rule:nonzero;stroke:none"/><path stroke-width="0" d="M74.179 79.934c-1.128-.954-2.262-1.683-3.844-2.281.746-2.433 4.875-5.472 7.1-3.913-3.204-.397-3.846 5.159-3.256 6.194" style="fill:#2a57a5;fill-opacity:1;fill-rule:nonzero;stroke:none"/><path stroke-width="0" d="M71.711 102.359c.004 4.021-3.956 4.714-6.015 4.867.372-.96 1.403-2.74 1.663-3.518 1.002-.652 2.7-1.535 4.352-1.35" style="fill:#f89734;fill-opacity:1;fill-rule:nonzero;stroke:none"/><path stroke-width="0" d="M65.104 88.943c-.053.386.225 1.062 1.035.912.844-.155.936-.921.836-1.38a.705.705 0 0 0-.176-.345c.27-.094.569-.191.909-.289 0 0 .402 1.81-1.064 2.418-1.566.657-2.019-.846-2.019-.846s.079-.187.479-.47" style="fill:#fff;fill-opacity:1;fill-rule:nonzero;stroke:none"/><path stroke-width="0" d="M66.644 90.26c-1.566.656-2.019-.847-2.019-.847s.078-.186.48-.47c-.053.385.223 1.061 1.034.913.844-.155.936-.922.836-1.38a.716.716 0 0 0-.176-.345c.27-.094.568-.192.909-.29 0 0 .402 1.81-1.064 2.418m3.111-10.006c.214.229.435.495.615.846.198.375.35.847.414 1.482-.257.805-1.149 2.222.425 4.273l-.709.274c-.02.008-.68.213-1.117.279-.489.074-.354-.249-.22-.403.4-.473.924-.671.924-.671s-1.959 0-4.54 1.348c-1.24.647-1.655 1.526-1.78 2.266-.07.451-.034.847-.005 1.1.19 1.684 1.673 3.5 1.673 3.5s-.357-.99-.17-1.928c.118-.593.472-1.136 1.27-1.448 2.317-.898 1.5-2.777 2.454-2.747.228.007.608.163.461.86-.163.799-.555 1.69-1.747 2.259H67.7s1.604-.201 2.49-2.195c.772-1.724 3.032-1.506 3.032-1.506s-2.53-2.43-1.343-5.046c-.374-1.45-1.304-2.144-2.124-2.543" style="fill:#2a57a5;fill-opacity:1;fill-rule:nonzero;stroke:none"/><path stroke-width="0" d="M71.586 89.007s.478 1.302-.124 2.552c-.809 1.684-2.913 2.164-2.913 2.164s2.83-.967 1.604-3.031c0 0 1.284-.259 1.433-1.685M66.55 86.687s1.284-1.015 1.692-1.406c.232-.226.257-1.121.228-1.894a18.55 18.55 0 0 0-.078-1.212s.146.504.29 1.124c.198.852.393 1.931.187 2.25-.462.708-2.32 1.138-2.32 1.138" style="fill:#2a57a5;fill-opacity:1;fill-rule:nonzero;stroke:none"/><path stroke-width="0" d="M63.57 82.295c.846.49 1.812.485 2.454.403a.792.792 0 0 1 .875.582c.042.173.1.353.153.533.109.325.235.651.397.927-.327 1.042-1.38 1.76-1.38 1.76.4-.595.697-1.652.697-1.652l-.134-.25-.329-.594s-.279-.617-.582-.654c-1.715-.197-2.152-1.055-2.152-1.055M75.164 88.964c.096-2.979-2.588-5.34-2.84-5.522 4.325 1.743 4.325 6.616 4.325 6.616-2.074 2.379-.58 5.202-.58 5.202-2.743-2.55-.938-5.36-.905-6.296M62.977 92.421s-2.54.393-1.968-2.545c0 0 .382 1.928 1.968 2.545M60.569 84.156s.73 1.78 1.66 2.075c.085-.027.125-.553.075-1.478 0 0 1.667 2.201.077 4.88 0 0 .452-.886-.12-1.897-.358-.635-1.117-.972-1.52-2.073-.118-.322-.172-.68-.172-1.507" style="fill:#2a57a5;fill-opacity:1;fill-rule:nonzero;stroke:none"/><path stroke-width="0" d="M65.135 84.788c-.676-1.394-2.58-.787-3.248-2.375 0 0 .002 1.435 1.185 1.911 1.742.707 1.901 2.13 1.901 2.13s.485-1 .162-1.666M62.816 78.18c-1.829.262-3.275-.826-3.275-.826s-1.391 1.066-3.279.826c-3.716-.47-6.17 1.624-6.17 1.624 1.727-.861 3.414-.639 4.374-.451 1.643.32 3.509-.425 3.481-.009-.025.425-1.13 1.21-1.13 1.21.848-.33 1.972-.342 2.724-.342.748 0 1.873.012 2.72.342 0 0-1.104-.785-1.131-1.21-.026-.416 1.844.329 3.484.009.958-.188 2.642-.41 4.375.451 0 0-2.463-2.151-6.173-1.624M63.943 108.915s.389-1.798-.919-3.582c0 0 1.184.147 2.384-.456-.264 1.496-.776 3.035-1.465 4.038m-.926 3.297c-1.197-.354-2.865-.464-3.475-.464-.618 0-2.283.11-3.475.464 0 0-.512-1.345-.3-2.925 0 0 .26 1.21.79 1.955l.686-.282.619.121.826-.239.847.23.858-.23.822.239h.004l.618-.121.683.282c.53-.745.793-1.955.793-1.955.214 1.58-.296 2.925-.296 2.925m-9.347-7.335c1.2.603 2.387.456 2.387.456-1.307 1.784-.92 3.582-.92 3.582-.688-1.003-1.2-2.542-1.467-4.038m22.394-7.625s-2.51-.022-2.704-2.191c0 0 .89-1.569.47-3.395-.408-1.761-1.098-2.32-1.098-2.32s1.956 3.767-2.17 6.567c-.02.014-.037.024-.055.038 0 0 1.915.342 1.753 2.151-.135 1.53-1.775 2.779-3.52 3.734.032-.101.063-.205.088-.309a5.604 5.604 0 0 0 .077-2.066c.913-1.333 2.063-1.018 2.063-1.018-.995-.687-1.934-.352-2.355-.132-.341-.931-1.05-1.903-2.085-2.574 0 0 1.192 1.226 1.501 2.951a3.368 3.368 0 0 1-.785 1.254c-1.291 1.305-3.377 1.533-3.377 1.533a7.591 7.591 0 0 0 1.826.083 7.208 7.208 0 0 0 2.181-.512c-.005.01-.476 1.701-2.889 2.817-2.057.954-4.3.5-4.828-.138-.184-.219-.26-1.28-.122-1.544.107-.206.29-.525.668-.854.892-.769 1.981-1.331 2.562-1.655 1.118-.621 1.282-1.902.24-2.572 0 0 .083.851-1.096.827-.139-.004-1.806-.432-2.874-.432-1.066 0-2.727.428-2.866.432-1.179.024-1.094-.827-1.094-.827-1.043.67-.878 1.951.24 2.572.582.324 1.667.886 2.56 1.655.382.329.563.648.67.854.137.264.062 1.325-.12 1.544-.528.637-2.772 1.092-4.828.138-2.414-1.116-2.885-2.807-2.89-2.817.507.21 1.252.441 2.18.512a7.586 7.586 0 0 0 1.826-.083s-2.085-.228-3.375-1.533a3.37 3.37 0 0 1-.786-1.254c.308-1.725 1.5-2.95 1.5-2.95a5.367 5.367 0 0 0-2.088 2.573c-.416-.22-1.36-.555-2.35.132 0 0 1.151-.315 2.061 1.018a5.579 5.579 0 0 0 .077 2.066c.026.104.056.208.092.309-1.751-.955-3.389-2.204-3.525-3.734-.164-1.809 1.753-2.151 1.753-2.151-.018-.014-.034-.024-.055-.038-4.124-2.8-2.167-6.567-2.167-6.567s-.693.559-1.098 2.32c-.423 1.826.468 3.395.468 3.395-.192 2.169-2.705 2.191-2.705 2.191 1.215 1.879 3.18 1.916 3.18 1.916-1.605.757-1.85 2.16-1.85 2.16 1.387-.888 3.194.16 3.194.16-.906.737-1.07 1.99-1.07 1.99.348-.15.698-.24 1.05-.28 1.658-.186 3.356.693 4.358 1.35.257.774 2.097 5.25 3.982 8.353 0 0 1.518-.474 3.683-.474 2.16 0 3.68.474 3.68.474 1.882-3.103 3.725-7.579 3.982-8.354 1.003-.656 2.703-1.535 4.351-1.349.357.04.708.13 1.053.28 0 0-.16-1.253-1.07-1.99 0 0 1.809-1.048 3.196-.16 0 0-.246-1.403-1.849-2.16 0 0 1.964-.037 3.18-1.916" style="fill:#2a57a5;fill-opacity:1;fill-rule:nonzero;stroke:none"/><path stroke-width="0" d="M59.773 75.039s2.625-.515 5.654.768c0 0-2.14-2.22-5.887-1.75-3.747-.47-5.888 1.75-5.888 1.75 3.032-1.283 5.653-.768 5.653-.768-1.1 1.321-3.766-.274-6.73 2.679 2.51-1.423 5.32.071 6.965-1.064 1.645 1.135 4.454-.359 6.967 1.064-2.968-2.953-5.634-1.358-6.734-2.679" style="fill:#2a57a5;fill-opacity:1;fill-rule:nonzero;stroke:none"/><path stroke-width="0" d="M79.434 94.753c-1.125-1.33-2.527-1.495-2.527-1.495 1.66 8.125-1.612 11.885-1.612 11.885-.264-1.49-1.199-2.352-1.199-2.352-1.271 4.827-4.234 6.067-5.785 6.797-2.906 1.37-3.702 3.587-4.511 4.948-.278.47-.395.552-.724.647-.43.131-1.984.35-3.535.35-1.555 0-3.11-.219-3.545-.35-.327-.095-.441-.177-.719-.647-.81-1.36-1.606-3.578-4.515-4.948-1.55-.73-4.512-1.97-5.783-6.797 0 0-.935.862-1.2 2.352 0 0-3.27-3.76-1.61-11.885 0 0-1.4.165-2.53 1.495 0 0-.122-3.088 1.86-6.037 0 0-.35-.772-1.354-1.158 0 0 .816-.967 2.39-1.353 0 0-.399-1.072-1.188-1.475 0 0 2.478-1.95.792-3.62-1.01-.997-2.942-2.939-2.525-5.33.368-2.147.946-3.542.946-3.542 2.91-.957 5.747.606 6.999 1.377C49.32 74.7 50.44 76.55 50.44 76.55s2.814-3.33 9.136-3.346c6.247.016 9.06 3.346 9.06 3.346s1.12-1.851 2.88-2.935c1.25-.771 4.088-2.334 7-1.377 0 0 .575 1.395.944 3.542.415 2.391-1.514 4.333-2.524 5.33-1.686 1.67.792 3.62.792 3.62-.79.403-1.188 1.475-1.188 1.475 1.573.386 2.393 1.353 2.393 1.353-1.01.386-1.36 1.158-1.36 1.158 1.982 2.95 1.86 6.037 1.86 6.037m1.11-6.303c-.438-1.654-2.524-2.552-2.524-2.552.54-.975 1.824-1.153 1.824-1.153-2.817-1.371-2.453-2.604-2.028-3 2.163-2.017 3.471-3.789 2.688-6.796-.594-2.28-.718-3.245-.718-3.245-1.892-1-4.195-1.019-6.566-.144-3.246 1.195-4.686 3.209-4.686 3.209-2.15-1.831-6.287-2.834-8.982-2.441-2.775-.393-6.86.61-9.012 2.441 0 0-1.439-2.014-4.68-3.209-2.376-.875-4.678-.856-6.573.144 0 0-.125.965-.715 3.245-.785 3.007.525 4.779 2.687 6.796.423.396.787 1.629-2.025 3 0 0 1.28.178 1.82 1.153 0 0-2.09.898-2.52 2.552 0 0 1.192-.574 2.005.358 0 0-2.893 3.623-1.915 9.321 0 0 .33-.699 2.088-2.468 0 0-1.707 7.84 4.06 12.67 0 0-.375-1.68.04-2.958 0 0 1.048 3.33 5.068 5.012 2.372.994 3.46 2.89 4.26 4.735.421.979.709 1.428 1.856 1.413.808-.012 3.56.052 3.565.052.005 0 2.71-.064 3.515-.052 1.153.015 1.438-.434 1.863-1.413.798-1.845 1.885-3.741 4.257-4.735 4.019-1.682 5.066-5.012 5.066-5.012.415 1.278.04 2.958.04 2.958 5.767-4.83 4.063-12.67 4.063-12.67 1.752 1.77 2.086 2.468 2.086 2.468.979-5.698-1.912-9.321-1.912-9.321.81-.932 2.005-.358 2.005-.358M47.336 41.531v5.151h-.525l.003-5.17.261-.798.261.817zm5.857 5.151.002-5.17.389-1.188h-9.741l.392 1.205v6.657l1.038 1.038h3.6l1.042-1.038.001-6.674.35-1.07.35 1.087-.005 6.493-.418 1.202h5.997v-2.965l-1.376.423h-1.621z" style="fill:#2a57a5;fill-opacity:1;fill-rule:nonzero;stroke:none"/><path stroke-width="0" d="m61.815 44.535-.627-.598h1.017l-.384-1.204v-1.37l-1.043-1.04h-3.303l-1.045 1.04v3.662l.62.613h-1.012l.387 1.206v1.343l1.043 1.037h3.302l1.043-1.037.002-3.652z" style="fill:#2a57a5;fill-opacity:1;fill-rule:nonzero;stroke:none"/><path stroke-width="0" d="M72.57 49.224h2.777l-.404-1.21.004-6.501.39-1.19h-3.361l.391 1.206v1.258l-1.052-2.464h-2.76l.386 1.209-.003 6.505-.235.716-.443-.803-1.663-6.615.35-1.035h-3.539l.347 1.065-1.668 6.585-.72 1.298h3.57l-.289-.903.243-.875.572.005.23.892-.3.88h3.337l.025.046.017-.045.205-.024h2.928l-.388-1.201v-1.219l1.054 2.42z" style="fill:#2a57a5;fill-opacity:1;fill-rule:nonzero;stroke:none"/><path stroke-width="0" d="M52.59 47.284h2.315l.562-.17v1.508h-4.425l.172-.496.004-6.693-.164-.502h1.7l-.162.487v5.866h-.002zM65.757 45.675l-.584-2.651-.594 2.651h1.178zm-1.391 1.146-.345 1.535.09.29h-1.72l.26-.472 1.728-6.828-.145-.44h1.87l-.14.401 1.73 6.867.263.472h-1.721l.09-.254-.354-1.57h-1.606zM58.396 47.284h1.409v-1.827h-2.082l-.688-.684v-3.16l.688-.682h2.804l.689.682v1.214l.164.504h-1.698l.156-.489.005-.51h.003-1.438v1.787h2.098l.706.674-.001 3.143-.689.686h-2.807l-.688-.686v-1.188l-.165-.505h1.7l-.159.49v.551h-.007zM47.942 47.289v-5.855l-.165-.503h1.697l-.158.483-.002 6.522-.688.687h-3.103l-.687-.687v-6.502l-.165-.503h1.698l-.16.487v5.87h1.733zM72.967 48.622l-2.057-4.727.004 4.221.162.506H69.38l.159-.488.003-6.695-.162-.508h1.536l2.056 4.8-.002-4.297-.164-.503h1.696l-.158.486-.005 6.695.17.51h-1.542z" style="fill:#fff;fill-opacity:1;fill-rule:nonzero;stroke:none"/><path stroke-width="0" d="M53.053 120.707v4.272l-.121.372H54.167l-.119-.369v-5.656h-1.155l-.357 1.244h.386M60.603 121.798l-.114-.114v-1.235l.13-.129h.768l.128.125v1.237l-.117.116h-.795zm-.114 2.435V122.934l.119-.12h.79l.117.111v1.303l-.128.131h-.768l-.13-.126zm-.496-4.908-.499.508v1.965l.499.507-.499.51v2.029l.499.508h2.021l.496-.508V122.814l-.496-.509.496-.507V119.833l-.496-.508h-2.021z" style="fill:#2a57a5;fill-opacity:1;fill-rule:nonzero;stroke:none"/><path stroke-width="0" d="m67.397 119.57-.87-.886h-2.565l-.837.856-.841-.856H59.72l-.805.82-.809-.82H55.55l-.859.873v-.873h-2.278l-.732 2.529h.732v3.666l-.366 1.115h2.995l-.236-.749.737.749h2.562l.807-.824.813.824h2.56l.841-.857.837.857h2.564l.871-.885v-2.54l-.242-.245.242-.241v-2.513z" style="fill:#2a57a5;fill-opacity:1;fill-rule:nonzero;stroke:none"/><path stroke-width="0" d="M53.053 120.57v4.41l-.121.372H54.167l-.119-.37v-5.656h-1.155l-.357 1.243h.517z" style="fill:#fff;fill-opacity:1;fill-rule:nonzero;stroke:none"/><path d="M57.343 121.845h-1.034v-1.525h1.034v1.525zm.496-2.519h-2.024l-.495.508v2.497l.495.507h1.523v1.52h-1.032v-.53l.12-.372h-1.231l.119.369v1.019l.499.507h2.022l.496-.507v-.48h.003v-1.823h.005v-2.707l-.5-.508zM61.516 121.798H60.49v-1.478h1.026v1.478zm0 2.56H60.49v-1.543h1.026v1.544zm.498-5.032h-2.021l-.498.508v1.964l.498.508-.498.509v2.029l.498.507h2.02l.498-.507v-2.029l-.497-.509.497-.508v-1.964l-.497-.508z" style="fill:#fff;fill-opacity:1;fill-rule:nonzero;stroke:none"/><path stroke-width="0" d="M65.757 124.359H64.73l-.002-.531.12-.372H63.617l.118.37v1.018l.497.507h2.021l.495-.507v-2.013l-.495-.507.495-.508v-1.983l-.495-.507h-2.02l-.498.507v1.018l-.118.372H64.85l-.12-.374v-.53l1.028.001v1.516h-.669l-.359-.125v1.26l.373-.116h.655v1.504z" style="fill:#fff;fill-opacity:1;fill-rule:nonzero;stroke:none"/><path stroke-width="0" d="M145.721 115.576v6.631c0 .808-.108 1.474-.318 2.002-.218.523-.51.943-.88 1.253a3.208 3.208 0 0 1-1.315.66 6.667 6.667 0 0 1-1.635.188 7.348 7.348 0 0 1-1.664-.175 3.088 3.088 0 0 1-1.315-.643c-.369-.31-.659-.73-.869-1.26-.21-.532-.314-1.208-.314-2.025v-6.63h2.177v6.454c0 .42.028.799.087 1.14.059.341.166.636.32.89.148.245.348.433.609.57.255.135.581.204.969.204.7 0 1.206-.248 1.512-.744.306-.496.461-1.185.461-2.06v-6.455h2.175zM154.28 126.121h-6.324v-10.545h2.177v9.084h4.147v1.461zM162.53 123.317c0 .555-.12 1.021-.357 1.401-.239.378-.55.687-.927.922-.39.242-.827.413-1.315.517a7.219 7.219 0 0 1-1.49.154c-.497 0-.964-.036-1.403-.11a12.014 12.014 0 0 1-1.401-.33l.217-1.693c.353.204.74.36 1.163.467.425.107.851.16 1.279.16.127 0 .303-.01.532-.034.23-.026.46-.084.694-.17.224-.098.417-.233.585-.409.165-.175.247-.412.247-.714 0-.35-.128-.643-.387-.885a4.297 4.297 0 0 0-.868-.62 25.647 25.647 0 0 0-.95-.438 8.11 8.11 0 0 1-1.196-.658c-.39-.262-.73-.58-1.016-.947-.288-.373-.431-.814-.431-1.33 0-.565.1-1.052.3-1.454.197-.401.473-.731.825-.984a3.346 3.346 0 0 1 1.21-.571 5.929 5.929 0 0 1 1.463-.174c.467 0 .918.03 1.358.094.436.062.866.159 1.284.284l-.218 1.62c-.459-.165-.859-.29-1.204-.372a4.768 4.768 0 0 0-1.09-.123c-.555 0-.993.12-1.313.365-.32.242-.482.556-.482.935 0 .223.062.437.188.642.127.204.307.395.542.569.389.314.825.58 1.307.804.483.225.937.467 1.365.73.42.27.77.587 1.058.95.289.36.43.827.43 1.402M168.415 117.825l-1.43 4.454h2.877l-1.447-4.454zm2.69 8.297-.746-2.323h-3.856l-.73 2.323h-2.249l3.769-10.545h2.395l3.795 10.545h-2.379zM183.386 126.121h-2.658l-3.565-7.477v7.477h-2.088v-10.545h2.66l3.549 7.565v-7.565h2.102v10.545zM198.604 126.121h-2.178v-4.602h-3.956v4.602h-2.176v-10.545h2.176v4.483h3.956v-4.483h2.178v10.545zM209.453 115.576l-3.609 6.455v4.09h-2.16v-4.09l-3.68-6.455h2.454l2.351 4.63 2.394-4.63h2.25zM219.121 115.576v6.631c0 .808-.107 1.474-.319 2.002-.216.523-.508.943-.877 1.253a3.218 3.218 0 0 1-1.315.66 6.689 6.689 0 0 1-1.635.188 7.378 7.378 0 0 1-1.666-.175 3.076 3.076 0 0 1-1.314-.643c-.37-.31-.661-.73-.869-1.26-.21-.532-.315-1.208-.315-2.025v-6.63h2.175v6.454c0 .42.03.799.089 1.14.06.341.165.636.322.89.145.245.345.433.607.57.255.135.58.204.97.204.7 0 1.205-.248 1.51-.744.308-.496.462-1.185.462-2.06v-6.455h2.175zM229.65 126.121h-2.655l-3.565-7.477v7.477h-2.09v-10.545H224l3.548 7.565v-7.565h2.103v10.545zM238.253 120.966a5.56 5.56 0 0 0-.182-1.402 4.026 4.026 0 0 0-.562-1.257 3.058 3.058 0 0 0-1.007-.92c-.41-.232-.906-.35-1.49-.35h-.964v7.623h.964c.962 0 1.744-.309 2.342-.926.598-.618.9-1.542.9-2.768m2.19 0c0 .993-.155 1.82-.46 2.483-.306.662-.716 1.19-1.236 1.59a4.876 4.876 0 0 1-1.837.832 9.74 9.74 0 0 1-2.25.25h-2.79v-10.545h2.79c1.84 0 3.263.428 4.27 1.284 1.01.857 1.513 2.227 1.513 4.106M245.877 117.825l-1.432 4.454h2.879l-1.447-4.454zm2.687 8.297-.744-2.323h-3.857l-.73 2.323h-2.249l3.77-10.545h2.395l3.796 10.545h-2.381z" style="fill:#2a57a5;fill-opacity:1;fill-rule:nonzero;stroke:none"/><path d="M254.729 126.121h-2.179v-10.545h2.179v10.545z" style="fill:#2a57a5;fill-opacity:1;fill-rule:nonzero;stroke:none"/><path stroke-width="0" d="M268.05 116.735h-4.136v3.125h3.757v1.508h-3.757v4.753h-2.246v-10.895h6.381v1.51zM271.913 120.689c0 .504.04.997.129 1.486.082.489.237.923.458 1.304.21.394.5.707.86.944.363.235.814.355 1.357.355.906 0 1.598-.367 2.085-1.1.48-.735.722-1.73.722-2.989 0-.596-.059-1.141-.172-1.644a3.926 3.926 0 0 0-.535-1.297 2.593 2.593 0 0 0-.875-.854 2.397 2.397 0 0 0-1.225-.309c-.543 0-.994.121-1.358.369-.36.245-.649.564-.859.959a4.03 4.03 0 0 0-.458 1.32 8.125 8.125 0 0 0-.13 1.456m-2.293 0c0-.695.081-1.379.248-2.051a4.934 4.934 0 0 1 .837-1.798c.393-.531.915-.961 1.569-1.287.655-.329 1.47-.492 2.444-.492.925 0 1.71.155 2.355.467.645.312 1.17.73 1.586 1.253a5.17 5.17 0 0 1 .881 1.795c.185.673.278 1.378.278 2.113 0 .842-.11 1.612-.33 2.3-.224.691-.544 1.281-.968 1.775a4.422 4.422 0 0 1-1.597 1.146c-.635.271-1.368.406-2.205.406-.883 0-1.648-.142-2.292-.428a4.187 4.187 0 0 1-1.583-1.202 4.74 4.74 0 0 1-.93-1.78 8.048 8.048 0 0 1-.293-2.217M283.455 120.689c0 .504.042.997.128 1.486.087.489.238.923.46 1.304.212.394.497.707.86.944.363.235.815.355 1.358.355.906 0 1.597-.367 2.082-1.1.483-.735.723-1.73.723-2.989 0-.596-.055-1.141-.169-1.644-.119-.502-.296-.936-.54-1.297a2.546 2.546 0 0 0-.874-.854 2.394 2.394 0 0 0-1.222-.309c-.543 0-.995.121-1.358.369a2.628 2.628 0 0 0-.86.959 4.09 4.09 0 0 0-.46 1.32 8.361 8.361 0 0 0-.128 1.456m-2.295 0c0-.695.082-1.379.248-2.051a4.958 4.958 0 0 1 .84-1.798c.392-.531.917-.961 1.57-1.287.653-.329 1.465-.492 2.443-.492.925 0 1.71.155 2.355.467.645.312 1.17.73 1.584 1.253.403.522.696 1.122.883 1.795.184.673.278 1.378.278 2.113 0 .842-.111 1.612-.33 2.3a5.11 5.11 0 0 1-.968 1.775 4.437 4.437 0 0 1-1.598 1.146c-.635.271-1.368.406-2.204.406-.885 0-1.65-.142-2.291-.428a4.158 4.158 0 0 1-1.584-1.202 4.743 4.743 0 0 1-.931-1.78 8.047 8.047 0 0 1-.295-2.217M300.173 116.735h-3.093v9.386h-2.248v-9.386h-3.094v-1.509h8.435v1.51zM307.293 122.998c0-.565-.142-.991-.422-1.274-.281-.289-.757-.431-1.431-.431h-1.496v3.319h1.496c.219 0 .444-.024.671-.069.224-.044.425-.126.594-.249.173-.121.311-.282.421-.489.113-.207.167-.476.167-.807m-.285-4.694c0-.594-.157-1.005-.468-1.23-.312-.226-.734-.339-1.266-.339h-1.33v3.078h1.374c.19 0 .386-.019.588-.059.2-.042.382-.117.544-.227.16-.109.294-.263.4-.462.104-.196.158-.448.158-.76m2.533 4.707c0 1.057-.353 1.838-1.062 2.346-.708.509-1.608.764-2.693.764h-4.09v-10.895h4.152c.45 0 .883.052 1.296.157.412.108.774.274 1.086.506.311.233.559.54.748.922.185.381.277.845.277 1.388 0 .603-.161 1.105-.482 1.51-.323.402-.74.687-1.252.86.543.12 1.014.403 1.418.852.402.446.602.978.602 1.59M315.745 117.548l-1.48 4.604h2.973l-1.493-4.604zm2.776 8.573-.77-2.398h-3.981l-.758 2.398h-2.322l3.892-10.894h2.476l3.92 10.894h-2.457zM329.172 126.121h-6.533v-10.894h2.248v9.384h4.285v1.51zM337.38 126.121h-6.53v-10.894h2.245v9.384h4.285v1.51zM350.169 124.34l.133 1.6c-.392.11-.795.2-1.215.27a7.33 7.33 0 0 1-1.216.107 8.409 8.409 0 0 1-2.195-.28 4.898 4.898 0 0 1-1.816-.911c-.523-.424-.938-.976-1.245-1.663-.305-.681-.459-1.521-.459-2.517 0-.855.108-1.644.325-2.36a4.955 4.955 0 0 1 1.003-1.865c.45-.514 1.025-.919 1.718-1.215.694-.296 1.519-.445 2.477-.445.28 0 .66.032 1.14.099.476.065.946.182 1.408.352l-.181 1.631a7.656 7.656 0 0 0-1.169-.398 4.666 4.666 0 0 0-1.198-.16c-.597 0-1.097.13-1.504.392-.406.26-.74.593-1.001.995-.252.414-.438.87-.55 1.366a6.445 6.445 0 0 0-.175 1.469c0 .515.063 1.011.187 1.486.128.48.331.908.611 1.277.273.365.625.655 1.057.875.432.222.957.332 1.567.332a6.13 6.13 0 0 0 1.209-.126 6.717 6.717 0 0 0 1.089-.311M358.54 126.121h-6.534v-10.894h2.249v9.384h4.285v1.51zM368.56 115.227v6.849c0 .836-.11 1.526-.333 2.067-.219.543-.522.976-.904 1.299a3.336 3.336 0 0 1-1.357.679 6.935 6.935 0 0 1-1.691.196c-.624 0-1.197-.06-1.72-.181a3.152 3.152 0 0 1-1.358-.665c-.382-.323-.682-.757-.899-1.304-.215-.55-.322-1.246-.322-2.091v-6.849h2.249v6.669c0 .432.028.825.09 1.178.06.35.168.658.332.92.149.25.356.448.624.588.267.14.6.212 1.004.212.722 0 1.245-.257 1.562-.77.315-.513.474-1.222.474-2.128v-6.669h2.249zM376.45 122.998c0-.565-.141-.991-.422-1.274-.28-.289-.758-.431-1.433-.431h-1.493v3.319h1.493c.22 0 .444-.024.672-.069.226-.044.425-.126.595-.249a1.37 1.37 0 0 0 .422-.489c.11-.207.166-.476.166-.807m-.286-4.694c0-.594-.156-1.005-.469-1.23-.312-.226-.733-.339-1.266-.339h-1.327v3.078h1.373c.19 0 .387-.019.588-.059a1.49 1.49 0 0 0 .542-.227c.16-.109.297-.263.402-.462.105-.196.157-.448.157-.76m2.536 4.707c0 1.057-.355 1.838-1.065 2.346-.71.509-1.607.764-2.693.764h-4.09v-10.895h4.15c.452 0 .886.052 1.297.157.413.108.776.274 1.089.506.31.233.559.54.746.922.184.381.278.845.278 1.388 0 .603-.16 1.105-.482 1.51a2.64 2.64 0 0 1-1.255.86c.545.12 1.018.403 1.42.852.404.446.605.978.605 1.59M143.533 78.48c0 .79.577 1.46 1.731 2.006 1.155.55 2.941.825 5.365.825.845 0 1.69-.063 2.533-.189.845-.126 1.606-.32 2.28-.573.676-.222 1.226-.513 1.648-.863.422-.353.635-.755.635-1.205 0-.76-.593-1.422-1.775-1.984-1.182-.565-2.957-.844-5.321-.844-2.507 0-4.315.286-5.426.865-1.114.576-1.67 1.23-1.67 1.963m-6.165 0c0-.789.252-1.563.762-2.322.505-.763 1.308-1.436 2.407-2.028 1.072-.564 2.44-1.029 4.116-1.395 1.675-.363 3.665-.547 5.976-.547 1.856 0 3.595.14 5.216.422 1.619.283 3.02.692 4.2 1.223 1.184.537 2.115 1.2 2.809 1.988.69.786 1.033 1.674 1.033 2.659 0 1.127-.395 2.088-1.184 2.891-.784.804-1.799 1.46-3.038 1.965-1.263.509-2.687.874-4.266 1.096-1.576.229-3.165.34-4.77.34-4.476 0-7.806-.626-9.987-1.88-2.183-1.251-3.274-2.721-3.274-4.412m.21 24.957v-5.995h19.934v-1.859h-20.1v-3.462h10.132v-2.323h-13.596v-3.465h33.362V89.8h-13.598v2.323h9.965v8.785h-19.93v1.94H164.1v3.464h-23.648c-.928 0-1.642-.289-2.137-.867a3.008 3.008 0 0 1-.737-2.006M194.05 97.948V72.61h6.167v7.772h4.56v3.716h-4.56v13.85h-6.167zm-19.848 5.49v-8.869h6.167v8.278h20.269v3.463h-23.69c-.846 0-1.516-.288-2.005-.865a3.003 3.003 0 0 1-.741-2.007m9.46-30.405v3.8c0 2.395.647 4.575 1.942 6.546 1.296 1.971 3.368 3.718 6.208 5.24l-1.857 2.995c-.9-.337-1.806-.767-2.701-1.289a23.331 23.331 0 0 1-2.62-1.752 21.324 21.324 0 0 1-2.28-1.985c-.706-.703-1.284-1.419-1.731-2.155a15.22 15.22 0 0 1-1.88 2.346 22.723 22.723 0 0 1-2.429 2.175 23.862 23.862 0 0 1-2.702 1.816c-.93.535-1.815.957-2.66 1.268l-1.86-2.998c2.705-1.296 4.738-2.98 6.103-5.05 1.367-2.068 2.049-4.31 2.049-6.735v-4.222h6.419zM228.999 80h4.56v-7.43h6.167v25.378h-6.167v-7.895h-4.56v-3.719h4.56v-2.616h-4.56v-3.717zm-14.024 4.562c0 1.435.286 2.605.848 3.505.563.9 1.408 1.354 2.533 1.354.93 0 1.698-.424 2.302-1.27.605-.845.907-2.04.907-3.59 0-1.463-.296-2.645-.886-3.545-.59-.903-1.436-1.353-2.533-1.353-1.07 0-1.865.465-2.387 1.395-.523.926-.784 2.095-.784 3.504m-1.262 18.876v-8.022h6.165v7.43h20.271v3.465h-23.691c-.845 0-1.514-.29-2.007-.867a2.988 2.988 0 0 1-.738-2.006m7.77-31.757v3.886h7.683v3.675h-4.303a7.561 7.561 0 0 1 2.107 2.555c.508.999.76 2.105.76 3.316 0 1.323-.259 2.475-.782 3.46a6.842 6.842 0 0 1-2.085 2.41 8.923 8.923 0 0 1-3.044 1.433 13.72 13.72 0 0 1-3.59.466c-2.845 0-5.124-.701-6.841-2.111-1.718-1.41-2.575-3.294-2.575-5.658a7.59 7.59 0 0 1 .738-3.316 6.676 6.676 0 0 1 2.132-2.555h-4.305v-3.675h7.683V71.68h6.422zM261.24 106.311v-33.7h5.746v11.658h2.277V72.61h5.745v33.7h-5.745V87.984h-2.277v18.327h-5.746zm-6.924-6.081h-6.673c-.76 0-1.4-.26-1.92-.783-.523-.52-.784-1.213-.784-2.09V73.876h13.431v3.465h-7.684v19.425h3.63c.48 0 1.197-.02 2.154-.061.956-.045 2.153-.231 3.589-.571v3.46c-.676.173-1.34.3-1.988.382-.645.084-1.235.154-1.77.211-.537.028-.986.043-1.352.043h-.633zM281.958 74.563h10.223V71.31h6.586v3.253h10.222v3.464h-9.25c.787 1.155 2.11 2.252 3.97 3.293 1.857 1.042 3.887 1.888 6.078 2.533l-1.474 3.084a36.255 36.255 0 0 1-7.2-2.514c-2.297-1.083-4.177-2.273-5.639-3.565-1.52 1.321-3.436 2.517-5.742 3.587a38.536 38.536 0 0 1-7.098 2.492l-1.477-3.084a29.541 29.541 0 0 0 5.891-2.491c1.875-1.04 3.258-2.154 4.16-3.335h-9.25v-3.464zm26.566 31.747h-6.166v-6.925h-20.356V95.92h10.389v-3.957h-13.6V88.5h33.365v3.463h-13.598v3.957h9.966v10.39zM337.223 81.732v-4.814h-19.93v-3.465h26.099v8.28a33.27 33.27 0 0 1-.295 4.497 54.621 54.621 0 0 1-.845 4.54h4.77v3.462h-13.428v12.079h-6.501V94.232h-13.026V90.77h22.4c.278-1.83.477-3.413.59-4.752.113-1.333.166-2.765.166-4.286M372.124 97.948V72.61h6.166v7.772h4.559v3.716h-4.559v13.85h-6.166zm-19.847 5.49v-8.869h6.165v8.278h20.27v3.463H355.02c-.843 0-1.512-.288-2.005-.865a2.994 2.994 0 0 1-.738-2.007m10.807-13.091h-10.892c-.76 0-1.4-.26-1.92-.782-.523-.518-.782-1.216-.782-2.088V73.454h17.653v3.465h-11.49v9.968h7.431c.933 0 1.909-.024 2.936-.065 1.028-.043 2.245-.234 3.655-.57v3.462c-1.015.251-2.156.423-3.42.508a49.652 49.652 0 0 1-3.171.125M150.41 41.31h2.934v-4.778h3.961v16.315h-3.961V47.77h-2.934v-2.387h2.934v-1.686h-2.934V41.31zm-9.015 2.933c0 .921.184 1.671.546 2.251.362.58.903.869 1.625.869.598 0 1.097-.273 1.483-.814.386-.544.584-1.314.584-2.306 0-.941-.193-1.703-.572-2.284-.378-.577-.925-.867-1.63-.867-.69 0-1.197.3-1.535.897-.33.596-.5 1.346-.5 2.254m-.81 12.134v-5.16h3.96v4.78h13.032v2.225h-15.232c-.543 0-.972-.188-1.288-.555a1.93 1.93 0 0 1-.473-1.29m4.991-20.415v2.497h4.942v2.363h-2.77a4.859 4.859 0 0 1 1.358 1.64c.328.643.492 1.355.492 2.133 0 .85-.172 1.592-.507 2.223a4.316 4.316 0 0 1-1.342 1.549 5.696 5.696 0 0 1-1.955.922c-.744.2-1.511.299-2.305.299-1.831 0-3.296-.451-4.399-1.358-1.104-.905-1.655-2.116-1.655-3.635 0-.76.158-1.472.473-2.132a4.26 4.26 0 0 1 1.37-1.641h-2.767v-2.363h4.94v-2.497h4.125zM171.135 58.222V36.557h3.694v7.492h1.464v-7.492h3.69v21.665h-3.69V46.439h-1.464v11.783h-3.694zm-4.453-3.911h-4.287c-.491 0-.903-.167-1.235-.499-.337-.336-.503-.785-.503-1.346V37.374h8.63V39.6h-4.94v12.487h2.335c.307 0 .77-.014 1.387-.039.613-.029 1.381-.151 2.308-.368v2.225c-.437.108-.86.193-1.275.247-.42.052-.8.098-1.145.136-.344.016-.63.024-.867.024h-.408zM188.14 54.338c0 .726.437 1.263 1.306 1.615.866.355 2.07.529 3.611.529.593 0 1.191-.028 1.775-.094a5.728 5.728 0 0 0 1.56-.367c.471-.159.851-.379 1.144-.649.285-.273.431-.616.431-1.034 0-.396-.146-.73-.431-1.002a3.594 3.594 0 0 0-1.115-.68c-.47-.163-1-.28-1.589-.354a14.984 14.984 0 0 0-1.775-.105c-1.524 0-2.721.179-3.597.541-.88.364-1.32.896-1.32 1.6m-3.638-17.237h17.104v2.226h-5.89c.487.851 1.349 1.607 2.577 2.266 1.23.66 2.58 1.2 4.048 1.615l-.898 1.984a27.28 27.28 0 0 1-4.75-1.561c-1.466-.644-2.68-1.428-3.636-2.349-.997.942-2.232 1.732-3.709 2.375a26.96 26.96 0 0 1-4.682 1.535l-.894-1.984a22.02 22.02 0 0 0 3.975-1.6c1.203-.634 2.085-1.395 2.646-2.281h-5.89v-2.226zm-.377 17.237c0-1.12.567-2.047 1.71-2.781 1.137-.733 2.886-1.236 5.24-1.506v-1.63h-8.743v-2.227h21.445v2.227h-8.74v1.63c.813.09 1.63.23 2.455.418.825.193 1.57.45 2.241.777.654.325 1.19.741 1.614 1.247.428.508.64 1.123.64 1.845 0 .816-.269 1.498-.8 2.05-.536.554-1.229 1-2.079 1.344-.85.346-1.813.594-2.877.747a22.46 22.46 0 0 1-3.174.232c-1.306 0-2.497-.097-3.589-.287-1.082-.188-2.025-.465-2.82-.827-.8-.361-1.418-.819-1.86-1.371a2.923 2.923 0 0 1-.663-1.888M211.172 54.068c0 .886.466 1.511 1.396 1.872.934.364 2.105.543 3.516.543.618 0 1.218-.035 1.807-.106a6.227 6.227 0 0 0 1.56-.382c.47-.182.845-.43 1.13-.745.276-.317.417-.71.417-1.182 0-.85-.477-1.465-1.437-1.846-.963-.382-2.12-.57-3.477-.57-1.557 0-2.762.21-3.623.625-.86.415-1.29 1.013-1.29 1.79m-4.02 0c0-.723.212-1.37.627-1.94.416-.57 1.014-1.054 1.795-1.452.774-.397 1.719-.706 2.82-.923 1.105-.217 2.334-.327 3.691-.327 1.157 0 2.277.092 3.355.27 1.074.183 2.03.463 2.863.843.814.381 1.47.861 1.969 1.441.497.579.745 1.274.745 2.089 0 .906-.282 1.655-.843 2.252-.56.6-1.264 1.068-2.116 1.412-.868.363-1.83.616-2.891.76a22.254 22.254 0 0 1-3.082.218c-1.283 0-2.473-.096-3.566-.286-1.096-.189-2.04-.484-2.84-.884-.795-.378-1.416-.858-1.859-1.436-.443-.58-.667-1.256-.667-2.036m-1.79-8.551h6.571v-4.072h3.961v4.072h4.262c.13-.743.217-1.398.272-1.968.055-.571.083-1.116.083-1.642v-2.58h-12.815v-2.225h16.777v4.805c0 .505-.049 1.123-.147 1.845-.102.723-.233 1.313-.395 1.765h2.878v2.223h-21.447v-2.223z" style="fill:#2a57a5;fill-opacity:1;fill-rule:nonzero;stroke:none"/><path d="M244.136 53.526h-8.793v2.47h8.793v-2.47zm-11.943-11.213c0 1.05.26 1.837.786 2.362.525.526 1.15.788 1.875.788.651 0 1.257-.253 1.816-.76.561-.508.844-1.303.844-2.39 0-1.03-.273-1.818-.819-2.36-.54-.544-1.155-.816-1.841-.816-.743 0-1.373.276-1.888.828-.515.553-.773 1.334-.773 2.348m-.815 14.063v-7.33h3.963v2.307h8.795v-2.307h3.965v9.177h-14.876c-.597 0-1.056-.188-1.372-.557a1.937 1.937 0 0 1-.475-1.29m-3.148-14.091c0-.669.121-1.33.366-1.98a4.507 4.507 0 0 1 1.18-1.738c.527-.524 1.21-.946 2.05-1.263.84-.315 1.848-.474 3.028-.474 1.629 0 3.012.354 4.152 1.059 1.142.705 1.9 1.673 2.28 2.903h2.85v-4.234h3.965v11.538h-3.965v-4.668h-2.77a4.455 4.455 0 0 1-.826 1.857 5.406 5.406 0 0 1-1.506 1.345 6.828 6.828 0 0 1-1.983.803 9.596 9.596 0 0 1-2.197.256c-1.16 0-2.154-.154-2.99-.463-.831-.307-1.518-.715-2.06-1.22a4.488 4.488 0 0 1-1.195-1.711 5.489 5.489 0 0 1-.379-2.01" style="fill:#2a57a5;fill-opacity:1;fill-rule:nonzero;stroke:none"/><path stroke-width="0" d="M258.57 39.138v-2.036h4.238v2.036c0 1.104.204 2.123.611 3.054a9.285 9.285 0 0 0 1.643 2.537 12.48 12.48 0 0 0 2.389 2.09 18.508 18.508 0 0 0 2.852 1.602l-1.309 1.982a25.266 25.266 0 0 1-4.747-2.497c-1.52-1.013-2.706-2.145-3.556-3.394a16.715 16.715 0 0 1-3.788 3.516 23.172 23.172 0 0 1-4.519 2.375l-1.305-1.982a21.747 21.747 0 0 0 2.7-1.548 12.802 12.802 0 0 0 2.405-2.064 10.04 10.04 0 0 0 1.724-2.548c.444-.942.663-1.983.663-3.123m-8.607 15.473h21.449v2.227h-21.449v-2.227z" style="fill:#2a57a5;fill-opacity:1;fill-rule:nonzero;stroke:none"/><path d="M286.019 39.6h-5.322v7.764h5.322V39.6zm-9.013 0h-2.444v-2.225h17.594V39.6h-2.444v7.764h2.58v2.224h-6.948v5.295h8.741v2.225h-21.449v-2.225h8.741v-5.295h-6.946v-2.224h2.575V39.6z" style="fill:#2a57a5;fill-opacity:1;fill-rule:nonzero;stroke:none"/><path stroke-width="0" d="M297.39 39.409h6.566V36.23h4.238v3.178h6.569v2.227h-6.243a7.342 7.342 0 0 0 1.086 2.309c.487.686 1.048 1.32 1.683 1.899a14.558 14.558 0 0 0 2.074 1.572c.753.47 1.525.899 2.323 1.275l-1.3 1.984a23.071 23.071 0 0 1-4.672-2.495c-1.464-1.015-2.68-2.146-3.64-3.398-.994 1.288-2.229 2.427-3.705 3.423a25.36 25.36 0 0 1-4.598 2.47l-1.303-1.984c.74-.376 1.475-.79 2.21-1.231a14.285 14.285 0 0 0 2.048-1.508c.635-.561 1.2-1.196 1.697-1.902.5-.706.9-1.509 1.21-2.414h-6.243v-2.227zm-2.039 15.202H316.8v2.228H295.35V54.61z" style="fill:#2a57a5;fill-opacity:1;fill-rule:nonzero;stroke:none"/><path d="M382.849 65.711H133.948v-1.4h248.9v1.4z" style="fill:#2a57a5;fill-opacity:1;fill-rule:nonzero;stroke:none"/></g></svg>