<svg xmlns="http://www.w3.org/2000/svg" width="2000" height="500.24" viewBox="0 0 2000 500.24"><g fill="#ff4a4a"><path d="M1281.46,500.24h-84.35a28.72,28.72,0,0,1-28.72-28.67v-223l-148.22,92.63a38.14,38.14,0,0,1-40.67,0L831.28,248.55v223a28.71,28.71,0,0,1-28.71,28.67h-84a28.67,28.67,0,0,1-28.67-28.67h0V41.69a38.26,38.26,0,0,1,59.85-31.5l234.09,160.4a28.76,28.76,0,0,0,32.42,0l234-160.4a38.26,38.26,0,0,1,59.85,31.5V471.53a28.67,28.67,0,0,1-28.63,28.71Z"/><path d="M563.38,499.36H38.26A38.26,38.26,0,0,1,0,461.1H0V28.67A28.68,28.68,0,0,1,28.67,0h84.39a28.68,28.68,0,0,1,28.68,28.67h0V357.53H459.9V28.67A28.68,28.68,0,0,1,488.57,0h84.35a28.72,28.72,0,0,1,28.72,28.67V461.1a38.26,38.26,0,0,1-38.26,38.26Z"/><path d="M1436.62,0h525.12A38.26,38.26,0,0,1,2000,38.26V470.65a28.66,28.66,0,0,1-28.63,28.71h-84.43a28.67,28.67,0,0,1-28.68-28.67V160.87a19.12,19.12,0,0,0-19.13-19.13H1559.28a19.07,19.07,0,0,0-19.13,19V470.65a28.71,28.71,0,0,1-28.72,28.71h-84.35a28.67,28.67,0,0,1-28.67-28.67V38.26A38.22,38.22,0,0,1,1436.58,0Z"/><rect x="1628.38" y="232.66" width="141.64" height="143.08" rx="28.67"/></g></svg>