<svg xmlns="http://www.w3.org/2000/svg" width="512pt" height="512pt" style="isolation:isolate" viewBox="0 0 512 512"><defs><clipPath id="a"><path d="M0 0h512v512H0z"/></clipPath></defs><g clip-path="url(#a)"><path d="m256 512 206.933-119.467L384 346.667 302.933 393.6c-3.2 2.133-6.4 0-6.4-4.267V278.4c0-3.2 2.134-6.4 4.267-7.467l96-55.466c3.2-2.134 6.4 0 6.4 4.266V313.6l78.933 45.867v-240L256 250.667V512Z"/><path fill="gray" d="M276.267 0v91.733l81.066 46.934c3.2 2.133 3.2 6.4 0 7.466l-96 55.467c-3.2 2.133-6.4 1.067-8.533 0l-96-55.467c-3.2-1.066-3.2-6.4 0-7.466l81.067-46.934V0l-208 119.467L256 250.667l226.133-131.2L276.267 0Z"/><path fill="#4C4C4C" d="m210.133 393.6-81.066-46.933-78.934 45.866L257.067 512V250.667l-227.2-131.2V358.4v-1.067 1.067l78.933-45.867v-93.866c0-3.2 4.267-5.334 6.4-4.267l96 55.467c3.2 2.133 4.267 4.266 4.267 7.466v110.934c1.066 4.266-2.134 7.466-5.334 5.333Z"/></g></svg>