<svg xmlns="http://www.w3.org/2000/svg" xmlns:xlink="http://www.w3.org/1999/xlink" viewBox="0 0 196.08 39"><defs><style>.cls-1{fill:url(#Безымянный_градиент_15);}.cls-2{fill:url(#Безымянный_градиент_15-2);}.cls-3{fill:url(#Безымянный_градиент_15-3);}.cls-4{fill:url(#Безымянный_градиент_15-4);}.cls-5{fill:url(#Безымянный_градиент_15-5);}.cls-6{fill:url(#Безымянный_градиент_15-6);}.cls-7{fill:url(#Безымянный_градиент_15-7);}.cls-8{fill:url(#Безымянный_градиент_15-8);}.cls-9{fill:url(#Безымянный_градиент_15-9);}.cls-10{fill:url(#Безымянный_градиент_15-10);}.cls-11{fill:url(#Безымянный_градиент_15-11);}.cls-12{fill:url(#Безымянный_градиент_15-12);}.cls-13{fill:url(#Безымянный_градиент_15-13);}.cls-14{fill:url(#Безымянный_градиент_15-14);}.cls-15{fill:url(#Безымянный_градиент_15-15);}</style><linearGradient id="Безымянный_градиент_15" x1="-7.31" y1="40.75" x2="154.51" y2="-9.71" gradientTransform="matrix(1, 0, 0, -1, 0, 39.9)" gradientUnits="userSpaceOnUse"><stop offset="0" stop-color="#956817"/><stop offset="0.27" stop-color="#a5771d"/><stop offset="0.4" stop-color="#c29328"/><stop offset="1" stop-color="#f7c63d"/></linearGradient><linearGradient id="Безымянный_градиент_15-2" x1="-3.98" y1="51.44" x2="157.84" y2="0.98" xlink:href="#Безымянный_градиент_15"/><linearGradient id="Безымянный_градиент_15-3" x1="-7.22" y1="41.03" x2="154.59" y2="-9.43" xlink:href="#Безымянный_градиент_15"/><linearGradient id="Безымянный_градиент_15-4" x1="-7.16" y1="41.25" x2="154.66" y2="-9.2" xlink:href="#Безымянный_градиент_15"/><linearGradient id="Безымянный_градиент_15-5" x1="-4.21" y1="50.7" x2="157.61" y2="0.24" xlink:href="#Безымянный_градиент_15"/><linearGradient id="Безымянный_градиент_15-6" x1="-3.53" y1="52.9" x2="158.29" y2="2.45" xlink:href="#Безымянный_градиент_15"/><linearGradient id="Безымянный_градиент_15-7" x1="-2.58" y1="55.9" x2="159.23" y2="5.44" xlink:href="#Безымянный_градиент_15"/><linearGradient id="Безымянный_градиент_15-8" x1="0.66" y1="66.32" x2="162.48" y2="15.86" xlink:href="#Безымянный_градиент_15"/><linearGradient id="Безымянный_градиент_15-9" x1="-1.76" y1="58.57" x2="160.06" y2="8.11" xlink:href="#Безымянный_градиент_15"/><linearGradient id="Безымянный_градиент_15-10" x1="-2.14" y1="57.31" x2="159.67" y2="6.85" xlink:href="#Безымянный_градиент_15"/><linearGradient id="Безымянный_градиент_15-11" x1="1.12" y1="67.77" x2="162.93" y2="17.31" xlink:href="#Безымянный_градиент_15"/><linearGradient id="Безымянный_градиент_15-12" x1="1.84" y1="70.12" x2="163.66" y2="19.66" xlink:href="#Безымянный_градиент_15"/><linearGradient id="Безымянный_градиент_15-13" x1="3.64" y1="75.87" x2="165.45" y2="25.41" xlink:href="#Безымянный_градиент_15"/><linearGradient id="Безымянный_градиент_15-14" x1="4.71" y1="79.29" x2="166.52" y2="28.84" xlink:href="#Безымянный_градиент_15"/><linearGradient id="Безымянный_градиент_15-15" x1="-9.47" y1="33.82" x2="152.35" y2="-16.64" xlink:href="#Безымянный_градиент_15"/></defs><title>Ресурс 1</title><g id="Слой_2" data-name="Слой 2"><g id="Слой_1-2" data-name="Слой 1"><g id="Слой_1-2-2" data-name="Слой 1-2"><polygon class="cls-1" points="55.25 23.85 55.04 24.82 54.96 24.82 54.74 23.82 50.78 10.4 46.91 10.4 53.12 28.68 56.89 28.68 63.1 10.4 59.23 10.4 55.25 23.85"/><rect class="cls-2" x="64.79" y="9.09" width="3.67" height="2.75"/><rect class="cls-3" x="64.79" y="15.1" width="3.67" height="13.59"/><path class="cls-4" d="M78.41,14.85a4.08,4.08,0,0,0-2,.48A4.5,4.5,0,0,0,75,16.7l-.21-1.6h-3.3V33.91h3.65V27.39a3.72,3.72,0,0,0,1.42,1.16,4.14,4.14,0,0,0,1.9.4,4.6,4.6,0,0,0,3.89-1.83,7.76,7.76,0,0,0,1.39-4.85V22a8.78,8.78,0,0,0-1.39-5.18A4.53,4.53,0,0,0,78.41,14.85Zm1.65,7.4a5.56,5.56,0,0,1-.62,2.83,2.1,2.1,0,0,1-2,1,3,3,0,0,1-1.44-.3,2.29,2.29,0,0,1-.92-.88V19A2.6,2.6,0,0,1,76,18a2.79,2.79,0,0,1,1.42-.34,2.09,2.09,0,0,1,2,1.2A6.56,6.56,0,0,1,80.06,22Z"/><path class="cls-5" d="M93,10.14a6.87,6.87,0,0,0-5.22,2.13,7.65,7.65,0,0,0-2,5.46v3.63a7.49,7.49,0,0,0,2.06,5.47A7.12,7.12,0,0,0,93.17,29a7.26,7.26,0,0,0,5.14-1.73,5.92,5.92,0,0,0,1.8-4.69v-.07H96.53a4,4,0,0,1-.82,2.74,3.2,3.2,0,0,1-2.54.92,3.27,3.27,0,0,1-2.75-1.33,5.45,5.45,0,0,1-1-3.43V17.7a5.65,5.65,0,0,1,1-3.4A3.07,3.07,0,0,1,93,13a3.48,3.48,0,0,1,2.7,1,4,4,0,0,1,.87,2.77h3.56V16.7A6,6,0,0,0,98.27,12,7.57,7.57,0,0,0,93,10.14Z"/><path class="cls-6" d="M108.25,14.85a5.92,5.92,0,0,0-4.7,1.94,7.34,7.34,0,0,0-1.69,5V22a7.28,7.28,0,0,0,1.7,5A6.71,6.71,0,0,0,113,27a7.23,7.23,0,0,0,1.7-5v-.26a7.3,7.3,0,0,0-1.7-5A6,6,0,0,0,108.25,14.85ZM111,22a5.79,5.79,0,0,1-.66,3,2.2,2.2,0,0,1-2.07,1.12,2.23,2.23,0,0,1-2.1-1.12,5.88,5.88,0,0,1-.65-3v-.26a5.89,5.89,0,0,1,.65-2.94,2.22,2.22,0,0,1,2.08-1.15,2.27,2.27,0,0,1,2.1,1.14,5.91,5.91,0,0,1,.66,3Z"/><rect class="cls-7" x="117.13" y="15.1" width="3.67" height="13.59"/><rect class="cls-8" x="117.13" y="9.09" width="3.67" height="2.75"/><path class="cls-9" d="M131.22,14.85a4.42,4.42,0,0,0-2.22.57A5,5,0,0,0,127.33,17l-.16-1.94h-3.42V28.69h3.67V18.8a2.69,2.69,0,0,1,1-.83,3,3,0,0,1,1.31-.3,2.22,2.22,0,0,1,1.67.57,2.76,2.76,0,0,1,.55,2v8.5h3.68V20.2a6,6,0,0,0-1.15-4.06A4.12,4.12,0,0,0,131.22,14.85Z"/><rect class="cls-10" x="138.73" y="25.47" width="3.67" height="3.22"/><path class="cls-11" d="M153.25,21.83h3.24v3.38a2.86,2.86,0,0,1-1.18.65,6.24,6.24,0,0,1-2.06.26,3.49,3.49,0,0,1-2.87-1.29,5.11,5.11,0,0,1-1.07-3.39V17.6a5.21,5.21,0,0,1,1-3.34,3.66,3.66,0,0,1,5.14-.45,3.46,3.46,0,0,1,.92,2.3h3.46V16A5.64,5.64,0,0,0,158,11.76a7.36,7.36,0,0,0-5-1.62,7,7,0,0,0-5.26,2.09,7.41,7.41,0,0,0-2,5.4v3.82a7.2,7.2,0,0,0,2.13,5.41A7.45,7.45,0,0,0,153.25,29a10,10,0,0,0,4.37-.84,6.93,6.93,0,0,0,2.54-1.92v-6.9h-6.91Z"/><path class="cls-12" d="M168.84,14.85a5.92,5.92,0,0,0-4.7,1.94,7.3,7.3,0,0,0-1.7,5V22a7.22,7.22,0,0,0,1.71,5,6.7,6.7,0,0,0,9.42,0,7.28,7.28,0,0,0,1.7-5v-.26a7.24,7.24,0,0,0-1.71-5A6,6,0,0,0,168.84,14.85ZM171.6,22a5.89,5.89,0,0,1-.66,3,2.22,2.22,0,0,1-2.08,1.12A2.25,2.25,0,0,1,166.75,25a6,6,0,0,1-.65-3v-.26a5.9,5.9,0,0,1,.66-2.94,2.47,2.47,0,0,1,4.17,0,5.8,5.8,0,0,1,.67,3Z"/><rect class="cls-13" x="177.72" y="9.09" width="3.67" height="19.59"/><path class="cls-14" d="M192.4,9.09v7.45a4.57,4.57,0,0,0-1.4-1.26,3.92,3.92,0,0,0-1.84-.43,4.5,4.5,0,0,0-3.91,2A8.86,8.86,0,0,0,183.83,22v.27a7.89,7.89,0,0,0,1.39,4.85A4.58,4.58,0,0,0,189.11,29a3.88,3.88,0,0,0,2-.49A4.37,4.37,0,0,0,192.62,27l.3,1.66h3.16V9.09Zm0,15.77a2.51,2.51,0,0,1-1,.94,2.65,2.65,0,0,1-1.38.32,2.07,2.07,0,0,1-2-1,5.61,5.61,0,0,1-.6-2.82V22a6.75,6.75,0,0,1,.62-3.13,2.07,2.07,0,0,1,2-1.2,2.63,2.63,0,0,1,1.37.36,2.9,2.9,0,0,1,1,1Z"/><path class="cls-15" d="M36.43,0a.33.33,0,0,0-.3.2L30.8,9.28l-7.61,13c-.26.45-.53.89-.79,1.35-.13.22-.23.23-.35,0L22,23.44,19.32,19q-3.53-6-7.07-12c-.87-1.49-1.76-3-2.64-4.47-.18-.3-.17-.32.2-.32h1.55a.76.76,0,0,1,.3,0,.43.43,0,0,1,.21.23c.7,1.2,1.41,2.4,2.12,3.6l7,11.8c.43.71.85,1.44,1.3,2.19C26,13.36,29.63,6.7,33.3,0H24.49a.29.29,0,0,0-.22.06.41.41,0,0,0-.13.19c-.67,1.52-1.33,3-2,4.54,0,.06,0,.18-.14.19s-.13-.11-.17-.17l-1.34-2.2c-.25-.42-.25-.42.23-.41.27,0,.33-.08.33-.33V.27C21.06.06,21,0,20.77,0h-5c.08.13.13.24.19.33L19.1,5.58q1.59,2.61,3.18,5.19a.14.14,0,0,0,.14.12c.07,0,.14-.12.18-.2.25-.58.5-1.17.76-1.75Q24.8,5.7,26.22,2.45a.45.45,0,0,1,.16-.2.36.36,0,0,1,.25,0h2c.22,0,.29,0,.16.26-1.29,2.34-2.59,4.73-3.9,7.11l-2.53,4.59c-.05.09-.07.25-.2.24S22,14.29,22,14.2c-.16-.25-.3-.5-.44-.75Q17.62,6.85,13.73.26a.55.55,0,0,0-.17-.2.57.57,0,0,0-.26,0H4.93L22.21,29.29l.11-.17L26,22.86,31.76,13Q34.91,7.75,38,2.42a.29.29,0,0,1,.15-.16.41.41,0,0,1,.22,0h1.78c.37,0,.37,0,.19.32L33.72,13.91,24.21,30.18q-.9,1.53-1.8,3.09c-.12.2-.2.25-.31,0a5.09,5.09,0,0,0-.3-.5q-2.48-4.38-5-8.75L6.89,6.56,3.3.23A.39.39,0,0,0,3.16.06.44.44,0,0,0,3,0H0V.08c.13,0,.14.13.18.2L2.49,4.34Q8.43,14.78,14.35,25.22l7.31,12.85.54.93L45,0Z"/></g></g></g></svg>