<svg xmlns="http://www.w3.org/2000/svg" width="512pt" height="512pt" style="isolation:isolate" viewBox="0 0 512 512"><defs><clipPath id="a"><path d="M0 0h512v512H0z"/></clipPath></defs><g clip-path="url(#a)"><path fill="#D99E09" d="M256.013 380.539c-4.468 2.534-36.421 29.62-100.011 29.62-53.573.027-110.78-27.42-128.748-26.886-6.318-.267-11.385 1.016-15.369 2.767-7.501 3.15-14.785-1.451-10.718-9.151C15.269 350.236 39.172 333.834 61.824 327c16.519-4.984 31.604-6.668 39.438 2.033 17.202 19.102 48.305 42.688 78.542 45.789 2.434.25 13.418 1.167 13.535-1.934.12-1.9-3.617-3.134-7.401-3.417-30.887-2.233-86.543-35.287-117.13-99.294-11.484-24.02-20.602-47.306-40.588-57.44-4.434-2.134-4.567-10.318 4.734-12.535 6.518-1.55 47.606-5.501 94.594 19.236 21.569 11.351 24.586 21.535 24.653 30.42-.184 67.074 33.754 93.694 46.872 101.561 7.301 4.367 14.135 6.234 14.868 3.951.583-1.917-1.333-3.217-3.017-4.234-40.688-24.703-51.439-62.707-51.756-101.395-.3-38.271 13.869-71.391 23.92-98.528 1.483-3.834 6.25-20.002 2.2-34.97-3.034-11.168-.567-14.419 5.301-14.419 6.45 0 15.035 10.435 17.918 14.019 2.317 2.683 9.801 11.818 21.136 34.203 22.419 44.322 22.569 90.627 22.569 96.295 0 31.82-8.201 35.504-21.569 42.104-13.351 6.601-19.702 15.102-19.719 24.97-.026 10.134 7.034 20.685 19.719 24.403 9.818 2.867 16.052 1.783 15.535-.767-.4-2.017-4.75-2.517-6.017-2.867-13.385-3.634-22.253-10.485-22.253-20.769 0-12.835 15.819-22.253 38.071-22.253 22.27 0 38.088 9.418 38.088 22.253 0 10.284-8.851 17.152-22.236 20.769-1.267.351-5.617.849-6.017 2.867-.516 2.567 5.717 3.65 15.552.767 12.668-3.701 19.718-14.252 19.702-24.403-.014-9.851-6.368-18.369-19.702-24.97-13.369-6.6-21.586-10.284-21.586-42.088 0-5.667.166-51.989 22.569-96.311 11.335-22.369 18.819-31.52 21.136-34.203 2.883-3.584 11.468-14.019 17.919-14.019 5.867 0 8.334 3.251 5.3 14.419-4.017 14.968.718 31.136 2.184 34.97 10.067 27.17 24.252 60.257 23.952 98.528-.333 38.704-11.068 76.709-51.755 101.411-1.667 1.001-3.634 2.301-3.017 4.218.716 2.3 7.55.449 14.851-3.934 13.135-7.868 47.055-34.504 46.889-101.578.053-8.885 3.067-19.069 24.653-30.42 46.988-24.737 88.076-20.769 94.577-19.236 9.301 2.217 9.184 10.418 4.75 12.535-20.002 10.134-29.12 33.437-40.587 57.44-30.587 64.007-86.26 97.077-117.147 99.311-3.784.266-7.534 1.517-7.401 3.417.12 3.084 11.101 2.167 13.535 1.917 30.237-3.084 61.34-26.67 78.542-45.789 7.851-8.684 22.919-7.017 39.455-2.017 22.635 6.818 46.538 23.22 60.64 49.889 4.084 7.701-3.201 12.285-10.718 9.151-3.984-1.75-9.051-3.033-15.369-2.783-17.952-.518-75.158 26.919-128.764 26.903-63.574 0-95.511-27.103-99.961-29.637"/></g></svg>