<svg xmlns="http://www.w3.org/2000/svg" width="220.685" height="41.497"><g style="fill:#ed1d24;fill-opacity:1"><g style="fill:#ed1d24;fill-opacity:1"><path d="M0 0h-10.942c-.104-2.516.865-4.327 3.614-4.327 1.962 0 3.919.613 4.945 1.12l.519-3.496c-1.513-.785-3.923-1.44-6.668-1.44-4.68 0-7.426 2.771-7.426 7.453 0 2.844.923 6.086 2.51 8.382 1.784 2.632 4.498 4.285 7.864 4.285 4.097 0 6.395-2.513 6.395-6.828C.811 4.064.521 1.668 0 0m-6.234 8.7c-1.542 0-2.848-1.116-3.748-3.013-.369-.833-.434-1.06-.683-2.086h6.453c.148.57.285 1.505.285 2.119 0 1.944-.829 2.98-2.307 2.98" style="fill:#ed1d24;fill-opacity:1;fill-rule:nonzero;stroke:none" transform="matrix(1.25 0 0 -1.25 51.923 20.7)"/></g><path d="M409.18 996.77h-6.05l-2.853-31.195h6.613l1.215 21.207 9.304-21.207h6.836L409.18 996.77z" style="fill:#ed1d24;fill-opacity:1;fill-rule:nonzero;stroke:none" transform="translate(-399.777 -959.178)"/><g style="fill:#ed1d24;fill-opacity:1"><path d="M0 0h-2.869l-2.015-10.151c-.063-.295-.392-2.059 1.307-2.15.48-.037 1.191.095 1.504.241 0 0-.83-3.923-4.592-3.923-2.91 0-4.238 2.294-3.556 5.726l3.382 16.853S-4.927 8.859-1.212 8.2c-.643-3.184-.936-4.598-.936-4.598l2.864.007L0 0Z" style="fill:#ed1d24;fill-opacity:1;fill-rule:nonzero;stroke:none" transform="matrix(1.25 0 0 -1.25 66.537 10.9)"/></g><g style="fill:#ed1d24;fill-opacity:1"><path d="M0 0h-2.872l-2.019-10.151c-.064-.295-.388-2.059 1.313-2.15.476-.037 1.187.095 1.499.241 0 0-.828-3.923-4.59-3.923-2.906 0-4.234 2.294-3.546 5.726l3.371 16.853s1.92 2.263 5.636 1.604c-.648-3.184-.944-4.598-.944-4.598l2.877.007L0 0Z" style="fill:#ed1d24;fill-opacity:1;fill-rule:nonzero;stroke:none" transform="matrix(1.25 0 0 -1.25 111.028 10.9)"/></g><g style="fill:#ed1d24;fill-opacity:1"><path d="M0 0h-10.943c-.108-2.516.861-4.327 3.609-4.327 1.955 0 3.916.613 4.943 1.12l.525-3.496c-1.515-.785-3.923-1.44-6.68-1.44-4.665 0-7.413 2.771-7.413 7.453 0 2.844.916 6.086 2.502 8.382 1.791 2.632 4.508 4.285 7.874 4.285 4.095 0 6.397-2.513 6.397-6.828C.814 4.064.522 1.668 0 0m-6.237 8.7c-1.544 0-2.856-1.116-3.746-3.013-.381-.833-.441-1.06-.685-2.086h6.445c.153.57.29 1.505.29 2.119 0 1.944-.825 2.98-2.304 2.98" style="fill:#ed1d24;fill-opacity:1;fill-rule:nonzero;stroke:none" transform="matrix(1.25 0 0 -1.25 96.42 20.7)"/></g><g style="fill:#ed1d24;fill-opacity:1"><path d="M0 0c-1.269.51-2.653.547-3.539.148l-3.129-15.872h-5.27l3.645 18.31c2.216 1.27 6.337 2.014 9.564 1.419L0 0Z" style="fill:#ed1d24;fill-opacity:1;fill-rule:nonzero;stroke:none" transform="matrix(1.25 0 0 -1.25 159.181 10.992)"/></g><path d="m526.774 996.77.067-6.951h-9.127l-3.683 6.95h-6.538l17.9-31.194h6.824l1.167 31.195h-6.61zm.217-24.261-6.875 12.808h6.73l.145-12.808z" style="fill:#ed1d24;fill-opacity:1;fill-rule:nonzero;stroke:none" transform="translate(-399.777 -959.178)"/><g style="fill:#ed1d24;fill-opacity:1"><path d="M0 0c-4.731 0-7.321 3.23-6.939 6.604 2.343-2.838 6.701-2.846 9.3-.464.959.864 1.744 2.259 2.39 5.608a3014.202 3014.202 0 0 0 3.198 15.931h5.299L9.579 9.409C8.368 3.71 4.735 0 0 0" style="fill:#ed1d24;fill-opacity:1;fill-rule:nonzero;stroke:none" transform="matrix(1.25 0 0 -1.25 60.283 40.997)"/></g><path d="M427.19 989.818h-6.611l4.85-24.242h6.622l-4.86 24.242zm113.73 0h-6.623l4.865-24.242h6.629l-4.871 24.242z" style="fill:#ed1d24;fill-opacity:1;fill-rule:nonzero;stroke:none" transform="translate(-399.777 -959.178)"/><g style="fill:#ed1d24;fill-opacity:1"><path d="M0 0c-.878 0-1.489.658-1.489 1.499C-1.489 2.636-.45 3.73.7 3.73c.876 0 1.509-.641 1.509-1.501C2.209 1.096 1.14 0 0 0" style="fill:#ed1d24;fill-opacity:1;fill-rule:nonzero;stroke:none" transform="matrix(1.25 0 0 -1.25 156.286 30.879)"/></g><g style="fill:#ed1d24;fill-opacity:1"><path d="M0 0a2.405 2.405 0 0 1-1.436.486c-1.051 0-1.994-.619-2.704-1.939-.676-1.205-1.109-3.077-1.109-4.467 0-1.771.695-2.707 1.796-2.707.718 0 1.478.266 1.865.556l.331-2.564c-.661-.589-1.84-1.072-3.433-1.072-2.681 0-4.602 2.138-4.602 5.542 0 2.117.772 4.662 1.921 6.376 1.382 2.032 3.329 3.053 5.321 3.053 1.561 0 2.874-.59 3.326-1.067L0 0Z" style="fill:#ed1d24;fill-opacity:1;fill-rule:nonzero;stroke:none" transform="matrix(1.25 0 0 -1.25 172.838 16.234)"/></g><g style="fill:#ed1d24;fill-opacity:1"><path d="M0 0c-1.276-1.981-3.227-3.208-5.833-3.208-3.268 0-4.96 2.19-4.96 5.328 0 2.115.742 4.743 1.864 6.458 1.303 2.012 3.273 3.185 5.802 3.185 3.279 0 4.998-2.166 4.998-5.305C1.871 4.339 1.097 1.719 0 0m-3.455 9.167c-1.072 0-1.842-.861-2.378-2.143-.588-1.37-1.102-3.827-1.102-5.305 0-1.232.353-2.09 1.483-2.09 1.109 0 1.817.799 2.352 2.09.573 1.368 1.126 3.857 1.126 5.327 0 1.235-.383 2.121-1.481 2.121" style="fill:#ed1d24;fill-opacity:1;fill-rule:nonzero;stroke:none" transform="matrix(1.25 0 0 -1.25 185.873 26.857)"/></g><g style="fill:#ed1d24;fill-opacity:1"><path d="m0 0-1.992-10.115h-4.025L-3.976.135c.022.188.052.346.052.533 0 .841-.496 1.44-1.683 1.44-.722 0-1.438-.324-1.934-.762l-2.27-11.461h-4.027L-11.796.166c.024.185.053.341.053.502 0 .897-.622 1.44-1.833 1.44a4.87 4.87 0 0 1-1.71-.297l-2.349-11.926h-4.019l2.735 13.76c1.645.705 3.538 1.081 5.852 1.081 1.838 0 3.328-.648 3.98-1.459.925.758 2.681 1.459 4.977 1.459 2.819 0 4.211-1.51 4.211-3.672A5.12 5.12 0 0 0 0 0" style="fill:#ed1d24;fill-opacity:1;fill-rule:nonzero;stroke:none" transform="matrix(1.25 0 0 -1.25 214.633 18.061)"/></g><g style="fill:#ed1d24;fill-opacity:1"><path d="M0 0a.318.318 0 0 0-.07.132 1.054 1.054 0 0 0-.053.332c-.003.062-.004.11-.009.175-.004.058-.016.109-.028.167A.777.777 0 0 1-.212.95a.458.458 0 0 1-.101.111.343.343 0 0 1-.152.057h-.002a.503.503 0 0 1 .296.222.772.772 0 0 1 .092.376.603.603 0 0 1-.181.456c-.12.111-.292.166-.508.166h-1.055v-2.35h.312v.996h.719A.387.387 0 0 0-.623.95.305.305 0 0 0-.522.861.286.286 0 0 0-.463.73.93.93 0 0 0-.429.568a.923.923 0 0 0 .02-.173L-.404.23C-.401.178-.4.132-.386.094a.155.155 0 0 1 .05-.106h.342L0 0Zm-1.511 2.06h.732c.133 0 .233-.04.292-.107a.436.436 0 0 0 .096-.287.41.41 0 0 0-.041-.2.423.423 0 0 0-.109-.126.397.397 0 0 0-.162-.062.903.903 0 0 0-.194-.017h-.614v.799z" style="fill:#ed1d24;fill-opacity:1;fill-rule:nonzero;stroke:none" transform="matrix(1.25 0 0 -1.25 218.981 29.94)"/></g><g style="fill:#ed1d24;fill-opacity:1"><path d="M0 0c-1.057 0-1.917.898-1.917 2.007 0 1.104.86 2 1.917 2 1.056 0 1.914-.896 1.914-2C1.914.898 1.056 0 0 0m0 3.713c-.902 0-1.629-.768-1.629-1.706 0-.946.727-1.706 1.629-1.706.899 0 1.627.76 1.627 1.706 0 .938-.728 1.706-1.627 1.706" style="fill:#ed1d24;fill-opacity:1;fill-rule:nonzero;stroke:none" transform="matrix(1.25 0 0 -1.25 217.792 30.994)"/></g></g></svg>