<svg xmlns="http://www.w3.org/2000/svg" width="512pt" height="512pt" style="isolation:isolate" viewBox="0 0 512 512"><defs><clipPath id="a"><path d="M0 0h512v512H0z"/></clipPath></defs><g clip-path="url(#a)"><path fill="#1434CB" d="M333.484 173.054c-36.354 0-68.841 18.843-68.841 53.657 0 39.925 57.618 42.682 57.618 62.739 0 8.446-9.678 16.005-26.208 16.005-23.46 0-40.993-10.563-40.993-10.563l-7.503 35.131s20.199 8.923 47.015 8.923c39.747 0 71.022-19.768 71.022-55.177 0-42.188-57.858-44.864-57.858-63.48 0-6.616 7.945-13.864 24.428-13.864 18.597 0 33.77 7.682 33.77 7.682l7.343-33.931s-16.51-7.122-39.793-7.122ZM.88 175.615 0 180.736s15.294 2.8 29.069 8.383c17.736 6.403 19 10.13 21.987 21.707l32.55 125.479h43.634l67.221-160.69h-43.534l-43.193 109.254-17.626-92.609c-1.616-10.599-9.804-16.645-19.826-16.645H.88Zm211.086 0-34.15 160.69h41.513l34.03-160.69h-41.393Zm231.533 0c-10.011 0-15.315 5.359-19.206 14.724l-60.819 145.966h43.533l8.423-24.328h53.036l5.122 24.328H512l-33.51-160.69h-34.991Zm5.661 43.413 12.904 60.299h-34.57l21.666-60.299Z"/></g></svg>