<?xml version="1.0" encoding="UTF-8" standalone="no"?> <!-- Created with Vectornator for iOS (http://vectornator.io/) --><!DOCTYPE svg PUBLIC "-//W3C//DTD SVG 1.1//EN" "http://www.w3.org/Graphics/SVG/1.1/DTD/svg11.dtd">
<svg style="fill-rule:evenodd;clip-rule:evenodd;stroke-linecap:round;stroke-linejoin:round;" xmlns:vectornator="http://vectornator.io" xmlns:xlink="http://www.w3.org/1999/xlink" xmlns="http://www.w3.org/2000/svg" xml:space="preserve" version="1.1" viewBox="0 0 2048 2048">
<metadata>
<vectornator:setting key="DimensionsVisible" value="1"/>
<vectornator:setting key="New" value="1"/>
<vectornator:setting key="SnapToPoints" value="0"/>
<vectornator:setting key="GuidesVisible" value="1"/>
<vectornator:setting key="RulersVisible" value="1"/>
<vectornator:setting key="CMYKEnabledKey" value="0"/>
<vectornator:setting key="SnapToEdges" value="0"/>
<vectornator:setting key="DisplayWhiteBackground" value="0"/>
<vectornator:setting key="SnapToGuides" value="1"/>
<vectornator:setting key="GridSpacing" value="36"/>
<vectornator:setting key="Units" value="Pixels"/>
<vectornator:setting key="DynamicGuides" value="0"/>
<vectornator:setting key="SnapToGrid" value="0"/>
</metadata>
<defs>
<linearGradient y1="1550.84" id="LinearGradient" x1="977.861" y2="1550.84" x2="2061.14" gradientUnits="userSpaceOnUse" gradientTransform="matrix(0.738499 0 0 0.738499 -72.1489 -454.468)">
<stop stop-color="#ff6729" offset="0"/>
<stop stop-color="#c8440c" offset="0.998541"/>
</linearGradient>
<linearGradient y1="2638.71" id="LinearGradient_2" x1="977.861" y2="2638.71" x2="2061.14" gradientUnits="userSpaceOnUse" gradientTransform="matrix(0.738499 0 0 0.738499 -72.1489 -454.468)">
<stop stop-color="#ff6729" offset="0"/>
<stop stop-color="#c8440c" offset="0.998541"/>
</linearGradient>
</defs>
<g id="Layer 1" vectornator:layerName="Layer 1">
<g opacity="1">
<path d="M650+1100.28C740.568+1120.69+836.237+1131.65+935.005+1131.65C1122.84+1131.65+1298.69+1092.56+1450+1024.05L1450+650C1450+428.38+1271.62+250+1050+250C829.73+250+650+428.38+650+650L650+1100.28Z" opacity="1" fill="url(#LinearGradient)"/>
<path d="M650+1136.56L650+1465.75C650+1687.37+828.377+1865.75+1050+1865.75C1271.62+1865.75+1450+1687.37+1450+1465.75L1450+1122.67C1319.55+1165.05+1176.73+1188.42+1027.29+1188.42C895.073+1188.42+767.867+1170.18+650+1136.56Z" opacity="1" fill="url(#LinearGradient_2)"/>
</g>
</g>
</svg>
