<svg xmlns="http://www.w3.org/2000/svg" xmlns:xlink="http://www.w3.org/1999/xlink" width="454.39" height="470.33" viewBox="0 0 454.39 470.33"><defs><linearGradient id="0" x1="493.59" y1="23.73" x2="46.58" y2="378.03" gradientUnits="userSpaceOnUse"><stop stop-color="#ba925c"/><stop offset=".28" stop-color="#947040"/><stop offset=".43" stop-color="#c79b60"/><stop offset=".56" stop-color="#eebc79"/><stop offset=".63" stop-color="#fdc982"/><stop offset=".71" stop-color="#ecba77"/><stop offset=".87" stop-color="#be945b"/><stop offset="1" stop-color="#947040"/></linearGradient><linearGradient id="1" x1="0" x2="454.39" xlink:href="#0"/></defs><g isolation="isolate" mix-blend-mode="multiply"><path d="M447.05,200.37s0,0,0,0c-.05-.2-.09-.39-.14-.59-.28-1.42-.69-3.54-1.24-6.12l-.11,0c-1.13-7.08-2.5-14.06-4.18-20.92H402.24a16.09,16.09,0,0,1-2.32.11l-5.17,0h0l-11.11,0h0l-58.66-.19c-4.86-.11-7.67,2.08-10.15,6.3-23.81,40.65-49.22,80-74.08,119.8-5.05,8.07-10.17,16.08-15,24.3-2.44,4.15-3.95,3.66-6.45-.06-11.85-17.59-23.91-35-35.84-52.54v0c-10-14.73-20.13-29.41-30.14-44.16-2.24-3.29-4.71-4.85-8.5-4.74l-107.66,0A15.08,15.08,0,0,1,37,219v-.18c0-.56.06-1.12.08-1.68,0-.29,0-.56.05-.87A217.13,217.13,0,0,1,45.4,170.1a16,16,0,0,0,2-5.21,15.78,15.78,0,0,0,.11-1.67,196.24,196.24,0,0,1,29.66-54.74q20.34-25.38,50.9-44.41a189.55,189.55,0,0,1,32.73-16.2c.72-.27,1.44-.51,2.16-.77q2.75-1,5.51-1.91c1.2-.39,2.39-.75,3.59-1.11,1.53-.46,3.06-.92,4.59-1.33,1.08-.3,2.15-.58,3.23-.85,1.95-.49,3.9-1,5.87-1.38l1.73-.38c25.84-5.29,52.64-4.61,80,1.86,42.11,10,76.58,31.51,103.1,64.12h0a23.87,23.87,0,1,0,25.59-20.88c-23.55-29.57-53.67-51.82-90.32-66.09A240.91,240.91,0,0,0,272.35,8.79l0,0c-2.42-.55-4.85-1-7.29-1.51-1.34-.26-2.67-.5-4-.74s-2.68-.44-4-.64q-4.34-.69-8.67-1.18l-.94-.11a207.56,207.56,0,0,0-42.87-.32l-.68.06c-4.05.4-8.1.91-12.14,1.56l-.32,0c-1.87.3-3.73.63-5.6,1-1.13.21-2.26.45-3.39.68-2.81.57-5.6,1.23-8.39,1.88-.61.15-1.22.28-1.82.44s-1.33.36-2,.54c-1.28.34-2.57.67-3.85,1C108.79,27.56,65.31,60.84,36.16,110Q7.29,157.53,3.78,210.63c0,.21,0,.42,0,.62-.12,1.94-.2,3.89-.27,5.84,0,.66-.06,1.32-.08,2,0,1.72-.06,3.45-.07,5.18q0,1.4,0,2.79c0,.87,0,1.72,0,2.59h0c0,1,.1,2.1.17,3.16A194.19,194.19,0,0,0,4,256.89l40.95.2c25.63,0,51.27.11,76.9,0,3.51,0,5.81,1.22,8,4.37q21.71,31.38,43.54,62.66v.78q23,33.13,46.06,66.25c4.39,6.32,5,6.25,9.11-.38,19.69-31.29,92.64-146.26,109-172.8,4.21-6.82,8.47-10.39,16.28-10.07,3.6.15,25.71.3,38.61.38h.4l8.95.05v-.05c3,0,5.92,0,8.89,0C419.85,260.08,412,311.39,385,352q-21.88,31.58-58.22,54.18c-43.14,26.71-90.35,33.67-139.43,22.07C137.09,416.38,97.65,388,69.71,344c-2.36-3.71-4.78-7.36-6-11.34a10.64,10.64,0,0,1-.15-4c.08-.33.16-.67.23-1l0-.12,0,0a23.8,23.8,0,0,0,.35-6.86,10.15,10.15,0,0,0-.26-1.93l-.18-.86c0-.17-.08-.33-.11-.49s-.07-.24-.1-.36c-.07-.28-.11-.56-.19-.84a2.09,2.09,0,0,1-.08-.23,24.58,24.58,0,0,0-22.8-17.72c-10.34-.22-20.06,7.13-23.07,17.46a23.35,23.35,0,0,0-.11,13.12c.07.27.11.55.19.83a23.92,23.92,0,0,0,14.89,15.87,10.92,10.92,0,0,1,2.48,3.12C60.39,396.84,98.55,431.48,149,451.12c56.26,21.91,112.89,21.34,168.54-2.7A219.48,219.48,0,0,0,412,370.7a211.21,211.21,0,0,0,29.67-63.95c.07-.23.13-.46.2-.69s.07-.25.11-.37A222.28,222.28,0,0,0,447.05,200.37ZM392.87,92.62a16.59,16.59,0,1,1-13.19,24.19A16.47,16.47,0,0,1,392.87,92.62ZM44.06,338.77c-7.65,2.28-17.65-3.79-20-12.11C21.7,317.92,27.23,308.1,35.78,306c8.39-2.12,17.45,3.37,19.77,12A17.26,17.26,0,0,1,44.06,338.77Z" fill="url(#0)"/><path d="M224.4,3.3a209.61,209.61,0,0,1,23,1.28l.94.11q4.34.49,8.67,1.18c1.34.2,2.68.41,4,.64s2.66.48,4,.74c2.44.47,4.87,1,7.29,1.51l0,0a240.91,240.91,0,0,1,33.54,10.35c36.65,14.27,66.77,36.52,90.32,66.09a24,24,0,0,1,9.57,45,24.25,24.25,0,0,1-11.49,2.94,24,24,0,0,1-23.67-27.06h0C344.1,73.51,309.63,52,267.52,42a195.21,195.21,0,0,0-44.9-5.39,174.71,174.71,0,0,0-35.12,3.53l-1.73.38c-2,.42-3.92.89-5.87,1.38-1.08.27-2.15.55-3.23.85-1.53.41-3.06.87-4.59,1.33-1.2.36-2.39.72-3.59,1.11q-2.76.9-5.51,1.91c-.72.26-1.44.5-2.16.77a189.55,189.55,0,0,0-32.73,16.2q-30.63,19-50.9,44.41a196.24,196.24,0,0,0-29.66,54.74,15.78,15.78,0,0,1-.11,1.67,16,16,0,0,1-2,5.21,217.13,217.13,0,0,0-8.31,46.18c0,.31,0,.58-.05.87,0,.56-.06,1.12-.08,1.68V219a15.08,15.08,0,0,0,.14,2.49l107.66,0h.38c3.57,0,6,1.56,8.12,4.74,10,14.75,20.11,29.43,30.14,44.16v0c11.93,17.53,24,34.95,35.84,52.54,1.29,1.92,2.32,3,3.35,3s1.92-.92,3.1-2.92c4.85-8.22,10-16.23,15-24.3C265.57,259,291,219.63,314.79,179c2.41-4.11,5.14-6.3,9.78-6.3h.37l58.66.19h0l11.11,0h0l5.17,0h.27a17.29,17.29,0,0,0,2.05-.12h39.17c1.68,6.86,3,13.84,4.18,20.92l.11,0c.55,2.58,1,4.7,1.24,6.12.05.2.09.39.14.59,0,0,0,0,0,0a222.28,222.28,0,0,1-5,105.32c0,.12-.08.25-.11.37s-.13.46-.2.69A211.21,211.21,0,0,1,412,370.7a219.48,219.48,0,0,1-94.5,77.72q-43.23,18.68-87,18.6c-27.15,0-54.37-5.33-81.49-15.9-50.44-19.64-88.6-54.28-114.15-102.49a10.92,10.92,0,0,0-2.48-3.12,23.92,23.92,0,0,1-14.89-15.87c-.08-.28-.12-.56-.19-.83a23.35,23.35,0,0,1,.11-13.12c3-10.17,12.44-17.47,22.61-17.46h.46A24.58,24.58,0,0,1,63.26,316a2.09,2.09,0,0,0,.08.23c.08.28.12.56.19.84,0,.12.07.24.1.36s.07.32.11.49l.18.86a10.15,10.15,0,0,1,.26,1.93,23.8,23.8,0,0,1-.35,6.86l0,0,0,.12c-.07.33-.15.67-.23,1a10.64,10.64,0,0,0,.15,4c1.19,4,3.61,7.63,6,11.34,27.94,44,67.38,72.41,117.65,84.29a195.1,195.1,0,0,0,44.95,5.4c32.95,0,64.69-9,94.48-27.47Q363.18,383.66,385,352c26.94-40.62,34.84-91.93,25.61-143.78l-8.13,0h-.76v.05l-8.95-.05h-.4c-12.9-.08-35-.23-38.61-.38l-1,0c-7.2,0-11.29,3.55-15.32,10.09-16.36,26.54-89.31,141.51-109,172.8-2.12,3.37-3.3,5-4.53,5s-2.42-1.56-4.58-4.66q-23-33.15-46.06-66.25v-.78q-21.78-31.32-43.54-62.66c-2.16-3.13-4.43-4.37-7.9-4.37h-.08q-14.3.07-28.58.07c-15.35,0-30.68,0-46,0h-2.3L4,256.89a194.19,194.19,0,0,1-.44-24.11c-.07-1.06-.15-2.11-.17-3.16h0c0-.87,0-1.72,0-2.59s0-1.86,0-2.79c0-1.73,0-3.46.07-5.18,0-.66.05-1.32.08-2,.07-2,.15-3.9.27-5.84,0-.2,0-.41,0-.62Q7.26,157.57,36.16,110c29.15-49.17,72.63-82.45,130.23-98.54,1.28-.36,2.57-.69,3.85-1,.67-.18,1.32-.37,2-.54s1.21-.29,1.82-.44c2.79-.65,5.58-1.31,8.39-1.88,1.13-.23,2.26-.47,3.39-.68,1.87-.35,3.73-.68,5.6-1l.32,0c4-.65,8.09-1.16,12.14-1.56l.68-.06q9.9-1,19.82-1M394.24,125.74c.49,0,1,0,1.49-.07a16.6,16.6,0,0,0-1.37-33.12,14.86,14.86,0,0,0-1.49.07,16.6,16.6,0,0,0,1.37,33.12M40.63,339.25a12,12,0,0,0,3.43-.48,17.26,17.26,0,0,0,11.49-20.84,17,17,0,0,0-16.1-12.44,14.82,14.82,0,0,0-3.67.46c-8.55,2.15-14.08,12-11.67,20.71,2,7.12,9.57,12.59,16.52,12.59M224.4,0c-6.69,0-13.47.33-20.14,1h-.14l-.55.05c-4.23.42-8.38,1-12.33,1.58l-.1,0-.23,0c-1.8.29-3.66.62-5.68,1-.93.17-1.86.36-2.8.55l-.64.13c-2.74.56-5.5,1.21-8.16,1.83l-.32.08-.28.06-1.61.39L170.23,7l-.83.22-.87.23c-1,.27-2,.54-3.05.83-57.93,16.17-102.4,49.82-132.16,100-19.44,32-30.5,66.35-32.84,102.1l0,.24,0,.39c-.1,1.71-.19,3.54-.28,5.92l0,.61c0,.47,0,.93,0,1.4,0,1.63-.07,3.35-.08,5.26,0,.94,0,1.88,0,2.83,0,.35,0,.7,0,1.06,0,.52,0,1,0,1.56a2.35,2.35,0,0,0,.06.54c0,.78.07,1.53.12,2.27l0,.3a196.21,196.21,0,0,0,.45,24.33,3.3,3.3,0,0,0,3.28,3.06l41,.2h2.3l23,0,23,0c11,0,20.09,0,28.6-.06h.06c2.39,0,3.65.71,5.19,2.94,12,17.34,24.23,34.93,36.08,51.94l6.88,9.89a3.34,3.34,0,0,0,.58,1.61l21.91,31.52q12.09,17.37,24.15,34.73c2.27,3.27,4.23,6.09,7.29,6.09s5-2.91,7.33-6.59c6.53-10.37,18.87-29.88,33.16-52.47,28.92-45.71,64.91-102.6,75.85-120.35,3.88-6.29,7.15-8.52,12.51-8.52.27,0,.54,0,.82,0,3.67.15,25.7.29,38.61.37h.5l9,0h0a3.27,3.27,0,0,0,.54,0h.21l5.32,0h0c8.59,51.62-.45,100.75-25.55,138.61-14.35,20.7-33.6,38.6-57.23,53.23-28.92,17.9-60.12,27-92.74,27A192.29,192.29,0,0,1,188.12,425C138.9,413.41,100,385.54,72.5,342.2l-.5-.78c-2.09-3.29-4.08-6.4-5.06-9.62a7.12,7.12,0,0,1-.1-2.55c0-.24.11-.48.16-.71a3.17,3.17,0,0,0,.2-1.08,26.94,26.94,0,0,0,.28-7,15.18,15.18,0,0,0-.32-2.4c-.06-.27-.12-.54-.17-.8l0-.11-.1-.47c0-.13-.07-.27-.1-.4a.19.19,0,0,1,0-.07l-.06-.24c-.05-.24-.1-.47-.17-.71s-.06-.21-.1-.31a27.74,27.74,0,0,0-25.88-20H40c-11.59,0-22.43,8.35-25.78,19.85a26.84,26.84,0,0,0-.14,14.89c0,.06,0,.12.05.19,0,.23.1.47.17.71a27.37,27.37,0,0,0,16.28,17.81,7.39,7.39,0,0,1,1.34,1.81C58,399.43,97,434.43,147.79,454.2c27.48,10.7,55.3,16.13,82.69,16.13,29.64,0,59.37-6.35,88.36-18.88a222,222,0,0,0,95.93-78.89,213.19,213.19,0,0,0,30.11-64.9l.11-.38.08-.28s0-.05,0-.08l0-.12a1.42,1.42,0,0,0,.07-.22,227,227,0,0,0,5.19-106.43,4,4,0,0,0-.08-.48l-.08-.36-.05-.19,0-.15c-.27-1.38-.68-3.48-1.21-6a3.79,3.79,0,0,0-.21-.65c-1.18-7.23-2.52-13.9-4.1-20.34a3.3,3.3,0,0,0-3.21-2.52H402.24a2.56,2.56,0,0,0-.39,0,14.72,14.72,0,0,1-1.66.09H400l-5.21,0-11.15,0h-.28L325,169.38h-.4c-7.08,0-10.47,4.24-12.64,7.94-17.75,30.29-36.71,60.38-55,89.49-6.24,9.9-12.69,20.13-19,30.23q-1.72,2.78-3.47,5.54c-3.85,6.12-7.83,12.45-11.58,18.83l-.33.54c-.16-.21-.33-.46-.54-.76-7.39-11-15-22.05-22.31-32.76-4.39-6.4-8.92-13-13.36-19.55l-.18-.29q-6.82-10-13.69-20c-5.4-7.9-11-16.06-16.45-24.11-2.87-4.23-6.32-6.2-10.85-6.2h-.42l-104.42,0v-.12c0-.26,0-.52,0-.78l0-.27c0-.17,0-.33,0-.52a214.91,214.91,0,0,1,8.07-45.09,19.14,19.14,0,0,0,2.21-5.92,8.93,8.93,0,0,0,.14-1.56v-.06a193.78,193.78,0,0,1,29-53.38c13.34-16.64,30.18-31.33,50-43.62A187,187,0,0,1,162,51l1.22-.44.89-.31c2.07-.75,3.79-1.35,5.42-1.88,1-.32,2-.63,3-.93l.52-.16c1.24-.37,2.88-.86,4.5-1.31,1.06-.29,2.12-.56,3.18-.83,2.1-.53,4-1,5.74-1.35l.38-.09,1.34-.28a171.73,171.73,0,0,1,34.44-3.47,192.33,192.33,0,0,1,44.14,5.31c40.68,9.61,74.47,30.44,100.44,61.93a27.17,27.17,0,1,0,30.73-25.06c-23.93-29.66-54.48-51.87-90.84-66A245.56,245.56,0,0,0,273.56,5.68a2.44,2.44,0,0,0-.46-.14c-2.21-.5-4.63-1-7.4-1.54-1.48-.29-2.95-.55-4.05-.74-1.42-.25-2.83-.47-4.08-.66-2.93-.46-5.9-.86-8.8-1.2L248,1.32l-.23,0A213.7,213.7,0,0,0,224.4,0ZM394.24,122.44a13.29,13.29,0,0,1-1.05-26.53,11.46,11.46,0,0,1,1.17-.06,13.29,13.29,0,0,1,1.05,26.53,11.46,11.46,0,0,1-1.17.06ZM40.63,336c-5.71,0-11.81-4.66-13.33-10.17a13.76,13.76,0,0,1,1.52-10.51,12.88,12.88,0,0,1,7.76-6.12,12,12,0,0,1,2.87-.35,13.61,13.61,0,0,1,12.91,10,14,14,0,0,1-9.25,16.81,8.64,8.64,0,0,1-2.48.35Z" fill="url(#1)"/></g></svg>