<?xml version="1.0" encoding="UTF-8" standalone="no"?>
<!-- Generator: Gravit.io -->
<svg xmlns="http://www.w3.org/2000/svg" xmlns:xlink="http://www.w3.org/1999/xlink" style="isolation:isolate"
  viewBox="0 0 64 64" width="64pt" height="64pt">
  <defs>
    <clipPath id="_clipPath_USe0V96GMvAmqnwLQWMg5lVu5DS32zcj">
      <rect width="64" height="64" />
    </clipPath>
  </defs>
  <g clip-path="url(#_clipPath_USe0V96GMvAmqnwLQWMg5lVu5DS32zcj)">
    <path
      d=" M 61.736 6.924 L 48.558 0.58 C 47.032 -0.154 45.21 0.154 44.012 1.352 L 0.87 40.688 C -0.29 41.746 -0.29 43.574 0.872 44.63 L 4.396 47.834 C 5.346 48.696 6.778 48.76 7.8 47.984 L 59.754 8.572 C 61.496 7.248 64 8.492 64 10.68 L 64 10.526 C 64 8.992 63.12 7.592 61.736 6.924 Z "
      fill="rgb(0,101,169)" />
    <path
      d=" M 61.736 57.076 L 48.558 63.42 C 47.032 64.156 45.21 63.846 44.012 62.648 L 0.87 23.312 C -0.29 22.254 -0.29 20.428 0.872 19.37 L 4.396 16.168 C 5.346 15.304 6.778 15.24 7.8 16.016 L 59.754 55.43 C 61.496 56.752 64 55.508 64 53.32 L 64 53.474 C 64 55.01 63.12 56.41 61.736 57.076 Z "
      fill="rgb(0,122,204)" />
    <path
      d=" M 48.558 63.422 C 47.032 64.156 45.21 63.846 44.012 62.648 C 45.488 64.124 48.01 63.078 48.01 60.992 L 48.01 3.008 C 48.01 0.922 45.488 -0.124 44.012 1.352 C 45.21 0.154 47.032 -0.156 48.558 0.578 L 61.736 6.914 C 63.12 7.58 64 8.982 64 10.518 L 64 53.482 C 64 55.02 63.12 56.42 61.736 57.086 L 48.558 63.422 Z "
      fill="rgb(31,156,240)" />
  </g>
</svg>