<svg xmlns="http://www.w3.org/2000/svg" width="2000" height="1603.34" viewBox="0 0 2000 1603.34"><path d="M17.91,0h572a18,18,0,0,1,8.77,2.11,17.51,17.51,0,0,1,6.3,6h0l696.43,1113.52a17.18,17.18,0,0,1,0,18.93h0l-285,454.59h0a17.54,17.54,0,0,1-6.31,6,17.89,17.89,0,0,1-17.18,0,17.46,17.46,0,0,1-6.31-6h0L2.84,27A17.32,17.32,0,0,1,0,18.23H0a17.43,17.43,0,0,1,2.1-9.11A17.45,17.45,0,0,1,8.8,2.46h0A17.55,17.55,0,0,1,17.91,0ZM1217,0h766.18a17.52,17.52,0,0,1,9.12,2.46h0a17.53,17.53,0,0,1,5.6,6.66,17.85,17.85,0,0,1,2.11,9.11h0a17.57,17.57,0,0,1-2.11,8.76L1615.1,638.25h0a17.51,17.51,0,0,1-6.3,6,17.89,17.89,0,0,1-17.18,0,17.62,17.62,0,0,1-6.31-6h0L1202.22,27a17.52,17.52,0,0,1-2.8-8.76h0a17.52,17.52,0,0,1,2.1-9.11,17.46,17.46,0,0,1,6.66-6.66h0A17.69,17.69,0,0,1,1217,0Z" fill="#ff8836" fill-rule="evenodd"/></svg>