<svg id="Layer_1" xmlns="http://www.w3.org/2000/svg" viewBox="0 0 487.3 560" width="2175" height="2500"><style>.st0{fill:url(#SVGID_1_)}.st1{fill:#67a1aa}</style><linearGradient id="SVGID_1_" gradientUnits="userSpaceOnUse" y1="280" x2="487.321" y2="280"><stop offset="0" stop-color="#508789"/><stop offset="1" stop-color="#7ebbcb"/></linearGradient><path class="st0" d="M240 .9s2-.9 4.2-.9 3.7.9 3.7.9C325 45.3 402 89.8 479.1 134.3c5.1 2.5 8.5 7.8 8.2 13.5v264.1c.2 5.1-2.4 10.2-7 12.7-13.6 8.2-27.5 15.8-41.2 23.9-63.8 36.8-127.5 73.7-191.3 110.4 0 0-1.7 1.1-3.8 1.1s-4.1-1.1-4.1-1.1c-70.4-40.3-140.7-81.1-211.1-121.5-7.3-4.4-14.8-8.4-22-12.9-4.3-2.6-6.8-7.6-6.8-12.6V147.8c-.1-5.6 3.1-10.8 8.1-13.4 25.1-14.7 50.3-29 75.5-43.5 33.3-19.4 66.8-38.5 100.2-57.8C202.6 22.5 221.1 11.4 240 .9"/><path class="st1" d="M127.8 221.8c-.1-4.3 5.5-4.6 8.1-2.5 55.2 31.8 110.4 63.5 165.6 95.4 3.2 1.3 3.2 5 1.4 7.5-17.4 30.2-35 60.4-52.4 90.6-1.4 2.2-2.6 4.7-4.5 6.6-2 1.9-5.1.2-6.1-1.9-18-31.1-35.8-62.2-53.9-93.3-1-2-2.5-3.9-2.3-6.2.1-2.1 2.4-3 3.8-4.1 15.1-8.7 30.3-17.4 45.3-26.2-3.8-3.5-8.6-5.6-13.1-8.2-4.4-2.2-8.3-5.2-12.7-7.3-1.5-.8-2.9.4-4.2 1-9.1 5.6-18.7 10.5-27.8 16.2-2.5 1.4-6.7 3.9-8.7.5-5.9-9-10.5-18.7-16.2-27.8-5.2-9.4-10.9-18.6-16.1-28.1-2-3.9-5.5-7.5-6.2-12.2z"/><path d="M69.5 176.8c-2.8-9 5.7-19.1 15-17.6 5.8.6 10.2 5 15.3 7.3 65.3 37.8 130.6 75.4 195.9 113.2 6.9 3.7 13.3 8.2 20.4 11.6 2.1 1.2 4.8.2 5.8-2 9.7-16.6 19.3-33.4 29-50 2.8-5.6 6.9-10.5 9.1-16.4.6-5-6.3-6.7-9.6-4-22.7 12.8-45.2 26.1-67.8 39.1-2 1.5-4.1-.2-5.9-1.2-7.2-4.6-15-8.3-22.2-13 15.8-9.5 32-18.4 47.9-27.9 27.3-15.4 54.2-31.4 81.5-46.8 5.3-3.1 10.4-6.5 16.1-9 7.9-3.3 18 3.1 18.5 11.7.6 5.7-3 10.6-5.8 15.1-51.3 89-102.8 177.9-154.1 267-2.2 3.6-4.2 7.9-8.3 9.7-5.2 2.7-11.9 1.7-16.1-2.3-2.1-2.3-3.5-5.1-5.2-7.8-49.2-85.4-98.7-170.6-148-256-3.8-7-8.8-13.3-11.5-20.7m58.3 45c.7 4.6 4.2 8.2 6.3 12.3 5.2 9.4 10.9 18.6 16.1 28.1 5.8 9.1 10.3 18.8 16.2 27.8 2 3.4 6.2.9 8.7-.5 9.1-5.7 18.6-10.6 27.8-16.2 1.3-.6 2.7-1.8 4.2-1 4.4 2.1 8.3 5.1 12.7 7.3 4.5 2.6 9.3 4.7 13.1 8.2-15.1 8.8-30.2 17.5-45.3 26.2-1.5 1.1-3.7 2-3.8 4.1-.2 2.3 1.4 4.2 2.3 6.2 18.1 31 35.9 62.2 53.9 93.3 1 2.1 4.1 3.8 6.1 1.9 1.9-1.9 3.1-4.3 4.5-6.6 17.4-30.2 35-60.4 52.4-90.6 1.8-2.4 1.8-6.2-1.4-7.5-55.1-31.9-110.4-63.6-165.6-95.4-2.7-2.2-8.3-1.9-8.2 2.4z" id="_x23_000000ff"/></svg>