<?xml version="1.0" encoding="UTF-8" standalone="no"?>
<svg
   width="512"
   height="71"
   viewBox="0 0 512 71"
   version="1.1"
   id="svg9"
   sodipodi:docname="Google Wallet 2022.svg"
   inkscape:version="1.1.1 (3bf5ae0d25, 2021-09-20)"
   xmlns:inkscape="http://www.inkscape.org/namespaces/inkscape"
   xmlns:sodipodi="http://sodipodi.sourceforge.net/DTD/sodipodi-0.dtd"
   xmlns="http://www.w3.org/2000/svg"
   xmlns:svg="http://www.w3.org/2000/svg">
  <defs
     id="defs11" />
  <sodipodi:namedview
     pagecolor="#000000"
     bordercolor="#ff00ff"
     inkscape:showpageshadow="false"
     id="namedview2"
     borderopacity="1"
     inkscape:pageshadow="0"
     inkscape:pageopacity="0"
     inkscape:pagecheckerboard="0"
     showgrid="false"
     inkscape:zoom="2.0664062"
     inkscape:cx="255.75803"
     inkscape:cy="35.568998"
     inkscape:window-width="3440"
     inkscape:window-height="1417"
     inkscape:window-x="-8"
     inkscape:window-y="-8"
     inkscape:window-maximized="1"
     inkscape:current-layer="svg9" />
  <path
     id="Wm"
     style="fill:#5f6368"
     d="m 139.14258,3.1211018 c -14.55806,0 -26.78125,11.8027522 -26.78125,26.3203122 0,14.517681 12.22319,26.32031294 26.78125,26.32031294 7.83465,0 13.72514,-2.548371 18.39258,-7.369141 4.72302,-4.7654 6.22265,-11.47081294 6.22265,-16.845703 0,-1.662362 -0.11081,-3.213924 -0.38867,-4.488281 h -24.44922 v 7.203125 h 17.44922 c -0.55552,4.04476 -1.88935,6.983036 -3.94531,9.033203 -2.50034,2.493542 -6.44581,5.263672 -13.33594,5.263672 -10.66842,0 -18.94727,-8.533724 -18.94727,-19.117188 0,-10.583503 8.33423,-19.117187 18.94727,-19.117187 5.72332,0 9.89012,2.27293 13.00195,5.1543 l 5.11133,-5.097657 C 152.92273,6.280435 147.19951,3.1211018 139.14258,3.1211018 Z M 278.33594,4.91993 V 54.734383 h 7.44531 V 4.91993 Z m 56.92968,2.9765625 12.793,47.2167966 h 5.80274 l 10.418,-34.160156 1.12304,-3.693359 h 0.26368 l 1.05468,3.693359 10.02344,34.160156 h 5.80274 L 395.27539,7.8964924 h -6.19922 L 379.7793,45.814461 h -0.26563 l -0.98828,-3.230468 -10.0918,-34.6875 h -5.80273 l -10.55078,34.6875 -0.99024,3.230468 h -0.26367 l -0.79101,-3.230468 -8.57227,-34.6875 z m 97.05469,0 V 55.113289 h 5.60352 V 7.8964924 Z m 13.78125,0 V 55.113289 h 5.60547 V 7.8964924 Z m 52.24805,4.7460936 v 9.759766 h -5.80469 v 5.078125 h 5.80469 v 18.794922 c 0,1.538824 0.19795,2.87866 0.59375,4.021484 0.43978,1.099445 1.09895,2.067165 1.97852,2.902344 0.79159,0.747423 1.73653,1.341671 2.834,1.78125 1.14542,0.439978 2.376,0.658203 3.69531,0.658203 1.05547,0 1.88822,-0.06553 2.50391,-0.197266 0.65967,-0.08776 1.34327,-0.263476 2.04492,-0.527343 v -5.408204 c -1.01149,0.615489 -2.19924,0.923829 -3.56055,0.923829 -1.54123,0 -2.68006,-0.48386 -3.42968,-1.451172 -0.74763,-0.879157 -1.1211,-2.241422 -1.1211,-4.087891 V 27.480477 h 8.04492 v -5.078125 h -8.04492 v -9.759766 z m -88.2168,8.707031 c -2.81258,0 -5.34111,0.57202 -7.584,1.714844 -2.24287,1.099246 -4.04494,2.659261 -5.40625,4.681641 l 4.68164,3.099609 c 1.979,-3.033671 4.83614,-4.550781 8.57226,-4.550781 1.5832,0 3.05665,0.353396 4.418,1.056641 1.36331,0.659467 2.44082,1.625633 3.23243,2.90039 0.83357,1.231179 1.2539,2.638101 1.2539,4.220703 v 1.714844 c -0.96752,-0.527534 -2.2674,-1.011394 -3.89258,-1.451172 -1.62518,-0.439578 -3.45167,-0.658203 -5.47265,-0.658203 -4.08794,0 -7.45318,0.966167 -10.08985,2.900391 -2.5967,1.934625 -3.89062,4.638079 -3.89062,8.111328 0,2.110136 0.52656,4.023545 1.58203,5.738281 1.09745,1.670757 2.59532,2.989918 4.48437,3.957031 1.93502,0.923134 4.0901,1.384766 6.4629,1.384766 2.37479,0 4.46058,-0.549191 6.26367,-1.648437 1.80309,-1.142824 3.23359,-2.550147 4.28906,-4.220704 h 0.26367 v 4.8125 h 5.3418 V 34.736336 c 0,-4.088739 -1.29789,-7.341584 -3.89258,-9.759765 -2.5947,-2.417981 -6.13345,-3.626954 -10.61719,-3.626954 z m 63.60742,0 c -3.16441,0 -5.97669,0.7922 -8.43945,2.375 -2.41878,1.538825 -4.2881294,3.648431 -5.60547,6.330079 -1.31933,2.63787 -1.97851,5.539674 -1.97851,8.705078 0,3.341515 0.70608,6.33088 2.10937,8.96875 1.40929,2.63767 3.34393,4.704572 5.80469,6.199219 2.50473,1.495045 5.34145,2.242187 8.50586,2.242187 3.47625,0 6.44158,-0.7922 8.90234,-2.375 2.50674,-1.62658 4.46385,-3.758614 5.86914,-6.396484 l -4.94531,-2.375 c -2.24287,4.04476 -5.42659,6.068359 -9.5625,6.068359 -1.75712,0 -3.47337,-0.418328 -5.14453,-1.253906 -1.62518,-0.835179 -2.98844,-2.087056 -4.08789,-3.75781294 -1.09945,-1.714536 -1.6914,-3.803667 -1.7793,-6.265625 h 25.98242 c 0.0879,-0.263867 0.13086,-0.70287 0.13086,-1.318359 0,-3.385094 -0.63676,-6.374858 -1.91211,-8.96875 -1.27336,-2.593693 -3.11828,-4.595062 -5.53906,-6.001953 -2.3748,-1.450868 -5.14415,-2.175782 -8.31055,-2.175782 z m -253.29882,0.501954 c -9.38926,0 -17.0586,7.149376 -17.0586,16.957031 0,9.752282 7.66934,16.955078 17.0586,16.955078 9.39127,0 17.05859,-7.2028 17.05859,-16.955078 0,-9.807655 -7.66732,-16.957031 -17.05859,-16.957031 z m 36.16601,0 c -8.50171,0 -16.2793,7.4234 -16.2793,17.009765 0,9.530594 7.77759,16.900391 16.2793,16.900391 4.05596,0 7.28015,-1.82874 8.94531,-3.878906 h 0.27735 v 2.439453 c 0,6.483131 -3.44352,9.972656 -9.05469,9.972656 -4.55771,0 -7.38923,-3.268459 -8.55664,-6.039063 l -6.50195,2.714844 c 1.88905,4.488137 6.83473,10.0293 15.05859,10.0293 8.77757,0 16.168,-5.152895 16.168,-17.675781 V 22.847664 h -7.11328 v 2.771485 h -0.27735 c -1.66516,-1.994994 -4.88935,-3.767578 -8.94531,-3.767578 z m -73.29101,0.0039 c -9.39046,0 -17.06055,7.147423 -17.06055,16.955078 0,9.752283 7.67,16.955078 17.06055,16.955078 9.39047,0 17.05859,-7.202795 17.05859,-16.955078 0,-9.807655 -7.66812,-16.955078 -17.05859,-16.955078 z m 122.18945,0.07227 c -8.7236,0 -16.00195,6.870563 -16.00195,16.955078 0,9.530795 7.1668,16.955078 16.83593,16.955078 7.77807,0 12.27892,-4.764553 14.168,-7.535156 l -5.77929,-3.878907 c -1.94502,2.825975 -4.61059,4.65468 -8.38868,4.765625 -3.7801,0 -6.50148,-1.772247 -8.22461,-5.152344 l 22.72657,-9.365234 -0.77735,-1.939453 c -1.44528,-3.82327 -5.72305,-10.804685 -14.55859,-10.804685 z m 168.10352,4.5 c 2.28884,0 4.15424,0.461631 5.60351,1.384765 1.49724,0.923335 2.57275,2.044346 3.23242,3.363281 0.65967,1.318935 1.03705,2.6381 1.12305,3.957032 H 463.7832 c 0.48375,-2.63787 1.62865,-4.74943 3.42774,-6.332032 1.80509,-1.582802 3.93966,-2.373046 6.39844,-2.373046 z m -167.88282,1.982421 c 3,0 5.50036,1.496025 6.33594,3.601563 l -15.168,6.316406 c -0.22389,-6.538303 5.05394,-9.917969 8.83203,-9.917969 z m -48.39453,0.08984 c 5.05545,0 9.05469,4.376745 9.05469,10.361328 0,5.92881 -4,10.19531294 -9.05469,10.19531294 -5.11343,0 -9.44726,-4.266503 -9.44726,-10.19531294 0,-5.984583 4.27786,-10.361328 9.44726,-10.361328 z m -36.89062,0.05664 c 5.11142,0 9.55664,4.156826 9.55664,10.251953 0,6.039954 -4.44522,10.25 -9.55664,10.25 -5.11142,0 -9.55664,-4.210046 -9.55664,-10.25 0,-6.095127 4.44522,-10.251953 9.55664,-10.251953 z m -37.07032,0.0039 c 5.11202,0 9.55664,4.154873 9.55664,10.25 0,6.039755 -4.44462,10.251953 -9.55664,10.251953 -5.11203,0 -9.55664,-4.2122 -9.55664,-10.251953 0,-6.095127 4.44461,-10.25 9.55664,-10.25 z m 227.42188,10.001953 c 3.20838,0 6.04305,0.790445 8.50781,2.373047 0,1.846469 -0.50609,3.561929 -1.51758,5.144531 -0.96751,1.582802 -2.243,2.834678 -3.82617,3.75781294 -1.5812,0.923334 -3.25461,1.384765 -5.01172,1.384765 -1.93503,0 -3.6249,-0.549192 -5.07617,-1.648437 -1.45127,-1.143024 -2.17773,-2.59265 -2.17773,-4.351563 0,-1.934225 0.81622,-3.516868 2.4414,-4.748047 1.67116,-1.274757 3.88955,-1.912109 6.66016,-1.912109 z" />
<g id="Icon">
  <path
     id="B"
     style="fill:#4285f4"
     d="M 0,29.048546 49.575109,41.239 c 5.858191,1.427514 12.093461,0.129285 16.87967,-3.630731 L 78.109212,28.53141 v 28.528716 c 0,7.132179 -5.669651,12.968822 -12.597131,12.968822 H 12.597131 C 5.6696514,70.028948 0,64.192305 0,57.060126 Z" />
  <path
     id="R"
     style="fill:#fe2c25"
     d="m 12.597663,22.04492 c -4.9611601,0 -9.264,3.00129 -11.3144601,7.32031 L 49.574223,41.23828 c 5.85819,1.42751 12.09465,0.12916 16.88086,-3.63086 l 10.42773,-8.12109 c -2.02681,-4.38406 -6.36371,-7.44141 -11.37109,-7.44141 z" />
  <path
     id="Y"
     style="fill:#ffbb00"
     d="M 12.597663,11.023438 C 5.6701829,11.023438 0,16.858055 0,23.990234 v 5.058594 l 1.2832,0.316406 c 2.0504601,-4.319025 6.3533,-7.320312 11.3144601,-7.320312 h 52.91406 c 5.00738,0 9.34428,3.057346 11.37109,7.441406 l 1.22657,-0.955078 v -4.541016 c 0,-7.132179 -5.67018,-12.9668 -12.59766,-12.9668 z" />
  <path
     id="G"
     style="fill:#34a853"
     d="M 12.597659,0 C 5.67018,0 0,5.836571 0,12.96875 v 11.021484 c 0,-7.132179 5.67017665,-12.9668 12.59765605,-12.9668 h 52.914063 c 6.92748,0 12.597656,5.834617 12.597656,12.9668 V 12.96875 C 78.109378,5.836571 72.439202,0 65.511722,0 Z" /></g>
</svg>
