<svg xmlns="http://www.w3.org/2000/svg" width="512pt" height="512pt" style="isolation:isolate" viewBox="0 0 512 512"><defs><clipPath id="a"><path d="M0 0h512v512H0z"/></clipPath></defs><g clip-path="url(#a)"><path fill="#654FF0" d="M314.562 0v2.761c0 32.426-26.286 58.704-58.704 58.704-32.427 0-58.705-26.286-58.705-58.704V0H0v512h512V0H314.562Z"/><path fill="#FFF" d="M118.931 275.919h33.933l23.165 123.374h.419l27.842-123.374h31.74l25.149 124.888h.493l26.403-124.888h33.28l-43.244 181.284h-33.673l-24.939-123.374h-.652l-26.696 123.374H157.85l-38.919-181.284Zm240.682 0h53.492l53.125 181.284h-35.004l-11.553-40.341h-60.938l-8.919 40.341h-34.091l43.888-181.284Zm20.363 44.683-14.8 66.51h46.064l-16.992-66.51h-14.272Z"/></g></svg>