<?xml version="1.0" encoding="UTF-8" standalone="no"?>
<!-- Generator: Gravit.io -->
<svg xmlns="http://www.w3.org/2000/svg" xmlns:xlink="http://www.w3.org/1999/xlink" style="isolation:isolate"
  viewBox="0 0 64 64" width="64pt" height="64pt">
  <defs>
    <clipPath id="_clipPath_btjeJFi8syqF8iXNspfLyzQdj0ZWuAZG">
      <rect width="64" height="64" />
    </clipPath>
  </defs>
  <g clip-path="url(#_clipPath_btjeJFi8syqF8iXNspfLyzQdj0ZWuAZG)">
    <path d=" M 32 0 L 60.284 15.998 L 60.284 48.002 L 32 64 L 3.716 48.002 L 3.716 15.998 L 32 0 Z "
      fill="rgb(255,255,255)" />
    <path
      d=" M 55.234 46.898 L 32.935 59.513 L 32.935 49.69 L 46.829 42.045 L 55.234 46.898 Z  M 56.761 45.517 L 56.761 19.141 L 48.605 23.855 L 48.605 40.81 L 56.761 45.517 Z  M 8.679 46.898 L 30.977 59.513 L 30.977 49.69 L 17.076 42.045 L 8.679 46.898 Z  M 7.151 45.517 L 7.151 19.141 L 15.308 23.855 L 15.308 40.81 L 7.151 45.517 Z  M 8.109 17.431 L 30.977 4.495 L 30.977 13.988 L 16.323 22.05 L 16.206 22.115 L 8.109 17.431 Z  M 55.804 17.431 L 32.935 4.495 L 32.935 13.988 L 47.589 22.042 L 47.706 22.108 L 55.804 17.431 Z "
      fill="rgb(142,214,251)" />
    <path
      d=" M 30.977 47.454 L 17.266 39.911 L 17.266 24.98 L 30.977 32.895 L 30.977 47.454 Z  M 32.935 47.454 L 46.646 39.919 L 46.646 24.98 L 32.935 32.895 L 32.935 47.454 Z  M 18.194 23.255 L 31.956 15.691 L 45.718 23.255 L 31.956 31.2 L 18.194 23.255 Z "
      fill="rgb(28,120,192)" />
  </g>
</svg>