<svg height="316.227766" viewBox="0 0 40.541248 40.53125" width="316.227766" xmlns="http://www.w3.org/2000/svg" xmlns:xlink="http://www.w3.org/1999/xlink"><clipPath id="a"><path d="m753.498 140.089h31.633v31.633h-31.633z"/></clipPath><g clip-path="url(#a)" transform="matrix(1.25 0 0 -1.25 -941.3725 215.14725)"><path d="m0 0c0 8.5 6.89 15.391 15.391 15.391 8.5 0 15.39-6.891 15.39-15.391s-6.89-15.391-15.39-15.391c-8.501 0-15.391 6.891-15.391 15.391" fill="#003362" transform="translate(753.9245 155.9053)"/><path d="m0 0c0 8.5 6.89 15.391 15.391 15.391 8.5 0 15.39-6.891 15.39-15.391s-6.89-15.391-15.39-15.391c-8.501 0-15.391 6.891-15.391 15.391z" fill="none" stroke="#4eb6e3" stroke-miterlimit="3.864" stroke-width=".852" transform="translate(753.9245 155.9053)"/><path d="m0 0c0 5.731 4.646 10.376 10.376 10.376 5.731 0 10.377-4.645 10.377-10.376s-4.646-10.376-10.377-10.376c-5.73 0-10.376 4.645-10.376 10.376" fill="#4eb6e3" transform="translate(758.9388 155.9053)"/><path d="m0 0c0 5.731 4.646 10.376 10.376 10.376 5.731 0 10.377-4.645 10.377-10.376s-4.646-10.376-10.377-10.376c-5.73 0-10.376 4.645-10.376 10.376z" fill="none" stroke="#fff" stroke-miterlimit="3.864" stroke-width=".446" transform="translate(758.9388 155.9053)"/><g fill="#fff"><path d="m0 0c.167-.536.334-1.072.541-1.666l-.005-.003c-.459.426-.884.787-1.308 1.152l-.286-.179c.142-.541.282-1.08.464-1.679l-.005-.003c-.441.448-.844.836-1.25 1.223l-.318-.269 1.575-1.429.365.228c-.133.497-.27.996-.443 1.553l.006.003c.427-.398.82-.736 1.212-1.072l.362.226-.589 2.046z" transform="translate(762.88921 168.201)"/><path d="m0 0-.345-.056c-.053-.335-.11-.672-.145-1.063-.254.292-.486.529-.721.765l-.424-.209.986-.906.283-.822.396.137-.283.821z" transform="translate(765.49049 169.1279)"/><path d="m0 0c-.401-.064-.784.17-.861.657-.074.465.184.81.606.876.158.026.335-.01.443-.047l.089.27c-.153.06-.364.104-.578.07-.721-.114-1.089-.673-1-1.233.095-.604.618-1.001 1.33-.889.199.032.408.134.523.227l-.155.237c-.099-.076-.239-.143-.397-.168" transform="translate(767.597 167.73689)"/><path d="m0 0c-.596.01-1.043-.445-1.053-1.026-.011-.62.378-1.11 1.016-1.121.637-.011 1.043.465 1.054 1.085.01.581-.421 1.052-1.017 1.062m-.032-1.851c-.436.008-.583.42-.577.817.007.383.189.745.604.737.415-.007.584-.375.577-.757-.007-.398-.168-.804-.604-.797" transform="translate(769.6021 169.7038)"/><path d="m0 0-.006.001c-.013.279-.15 1.151-.234 1.697l-.501.125-.502-2.014.325-.082.392 1.572.006-.001c.07-.614.162-1.175.253-1.733l.218-.054c.354.447.71.896 1.072 1.402l.005-.002-.392-1.571.406-.101.502 2.014-.471.118c-.354-.437-.91-1.124-1.073-1.371" transform="translate(772.36121 167.6951)"/><path d="m0 0 .003.005c.147-.029.45-.024.595.274.124.253-.027.505-.342.659l-.674.329-.911-1.866.619-.302c.44-.215.821-.117.978.206.139.285-.041.571-.268.695m-.129-.508c-.101-.208-.312-.241-.52-.139l-.192.093.307.63.189-.093c.206-.1.323-.272.216-.491m-.176.756-.117.057.268.549.194-.095c.163-.079.25-.211.17-.376-.085-.173-.299-.241-.515-.135" transform="translate(775.2986 167.2706)"/><path d="m0 0 .16.228-.914.64-1.191-1.701 1.018-.713.16.229-.675.473.384.549.559-.391.16.228-.559.391.327.467z" transform="translate(777.6317 166.5778)"/><path d="m0 0c-.439-.347-.878-.693-1.357-1.098l-.005.003c.233.58.417 1.104.605 1.628l-.269.203c-.452-.325-.903-.648-1.396-1.032l-.005.004c.26.57.477 1.084.692 1.6l-.364.2-.767-1.976.342-.258c.416.301.831.606 1.287.966l.005-.004c-.218-.539-.392-1.026-.565-1.51l.34-.256 1.693 1.278z" transform="translate(763.1385 145.9771)"/><path d="m0 0 .324-.158.439.414.659-.321-.075-.592.42-.205.208 2.201-.311.152zm1.478.19-.505.247c.207.201.405.385.621.634l.006-.003c-.053-.33-.083-.594-.122-.878" transform="translate(762.48669 143.9173)"/><path d="m0 0-.006.002c-.239.615-.497 1.17-.757 1.73l-.294.079-.536-1.999.323-.087.384 1.434.006-.002c.238-.618.498-1.177.758-1.739l.291-.079.535 1.999-.322.087z" transform="translate(766.51331 143.002)"/><path d="m0 0-.714.05-.144-2.064.675-.047c.732-.052 1.197.328 1.244 1.009.035.498-.22.993-1.061 1.052m-.169-1.784-.254.018.106 1.51.301-.021c.436-.031.665-.314.635-.741-.04-.575-.313-.799-.788-.766" transform="translate(768.4753 144.2108)"/><path d="m0 0-.081.663.675.083-.035.276-.675-.083-.068.563.689.085-.034.276-1.103-.136.252-2.053 1.229.15-.033.276z" transform="translate(770.67529 142.4749)"/><path d="m0 0c-.091.34-.397.454-.78.351l-.694-.186.536-1.999.402.108-.214.8.24.064.629-.725.402.19-.703.727c.159.162.261.373.182.67m-.659-.614-.163-.044-.177.663.208.056c.16.042.341.008.401-.218.039-.145.008-.383-.269-.457" transform="translate(773.1459 144.24741)"/><path d="m0 0-.272.61.621.277-.113.254-.621-.277-.231.519.635.282-.113.254-1.016-.452.842-1.891 1.132.504-.113.254z" transform="translate(774.5571 143.47501)"/><path d="m0 0c-.186.298-.512.318-.848.108l-.609-.381 1.096-1.755.354.221-.439.702.211.132.813-.51.329.3-.885.489c.105.202.141.433-.022.694m-.45-.78-.143-.089-.364.582.183.114c.141.088.323.108.447-.091.08-.127.12-.364-.123-.516" transform="translate(776.3947 145.9088)"/><path d="m0 0c-.17.189-.397.22-.752.199-.308-.02-.485-.04-.576.061-.081.09-.076.226.053.343.09.081.218.12.328.135l-.035.26c-.135.005-.334-.058-.509-.216-.279-.252-.338-.606-.152-.813.184-.204.395-.186.653-.172.21.014.517.087.669-.081.131-.145.08-.315-.047-.429-.139-.125-.29-.146-.425-.16l.046-.277c.209-.002.431.11.591.254.347.313.33.703.156.896" transform="translate(778.4391 146.3488)"/></g><path d="m0 0c0-.128.104-.231.231-.231.128 0 .232.103.232.231s-.104.231-.232.231c-.127 0-.231-.103-.231-.231m-.296 0c0 .291.236.527.527.527.292 0 .528-.236.528-.527s-.236-.527-.528-.527c-.291 0-.527.236-.527.527" fill="#fabc3a" transform="translate(762.6049 156.4119)"/><path d="m0 0c0-.128.104-.231.231-.231.128 0 .232.103.232.231s-.104.231-.232.231c-.127 0-.231-.103-.231-.231zm-.296 0c0 .291.236.527.527.527.292 0 .528-.236.528-.527s-.236-.527-.528-.527c-.291 0-.527.236-.527.527z" fill="none" stroke="#000" stroke-miterlimit="3.864" stroke-width=".143" transform="translate(762.6049 156.4119)"/><path d="m0 0c0 .292.113-.184.405-.184.291 0 .629.557.629.265 0-.291-.236-.527-.528-.527-.291 0-.506.155-.506.446" fill="#fabc3a" transform="translate(773.7347 152.8264)"/><path d="m0 0c0 .292.113-.184.405-.184.291 0 .629.557.629.265 0-.291-.236-.527-.528-.527-.291 0-.506.155-.506.446z" fill="none" stroke="#000" stroke-miterlimit="3.864" stroke-width=".143" transform="translate(773.7347 152.8264)"/><path d="m0 0c0-.128.104-.231.231-.231.128 0 .232.103.232.231s-.104.231-.232.231c-.127 0-.231-.103-.231-.231m-.296 0c0 .291.236.527.527.527.292 0 .528-.236.528-.527s-.236-.527-.528-.527c-.291 0-.527.236-.527.527" fill="#fabc3a" transform="translate(763.9024 159.726)"/><path d="m0 0c0-.128.104-.231.231-.231.128 0 .232.103.232.231s-.104.231-.232.231c-.127 0-.231-.103-.231-.231zm-.296 0c0 .291.236.527.527.527.292 0 .528-.236.528-.527s-.236-.527-.528-.527c-.291 0-.527.236-.527.527z" fill="none" stroke="#000" stroke-miterlimit="3.864" stroke-width=".143" transform="translate(763.9024 159.726)"/><path d="m0 0c-.325-.301-.563-.507-.92-.769l-.061-.108c-.137-.068-.239-.081-.388-.049l.619.978c-.172.026-.281.246-.199.398.049.091.12.136.222.142.024.17.05.261.106.427.223.652 1.484 1.365 2.247 1.402 1.917.093 2.466-1.306 2.588-1.915.119-.593-.062-.992-.372-1.511-.313-.525-1.782-1.074-1.811-1.121l.554-.242c.367.054.626.077.95.054 1.273-.09 2.008-.664 3.286-1.305 1.426-.714 3.65-2.168 3.65-2.168.177-.105-.632-.266-1.259-.397l2.694-1.451-.032-.16c-.637-.318-1.32-.548-1.96-.127-.1.066-.147.117-.24.192l.423-.304v-.167c-.033-.148-.128-.218-.263-.286-.158-.081-.278-.045-.454-.025-.836.096-1.626.526-2.653 1.196l.207-.143c.463-.222.829-.813.892-.941.128-.258-.191-2.087-.191-2.087.085-.277.74-.586.431-.606-.495-.031-1.387-.398-1.276-1.8 0 0-.651.226-1.032.091-.417-.149-.43-.287-.897-.841-.13-.155.102 1.206.102 1.206-.215.13-.316.065-.786.133 0 0 1.21.764 2.694 1.832.197.374.197.711 0 1.084-.142.269-.339.334-.574.527-.143.117-.262.21-.381.295-.037-.144.006-.265-.028-.43-.064-.313-.215-.451-.366-.732-.153-.285-.286-.422-.415-.718-.048-.11-.112-.167-.111-.287 0 0 .286-.111.558-.398 0 0-.45-.081-.718-.192-.237-.097-.369-.165-.574-.318-.494-.369-.892-1.306-.892-1.306-.086.503-.079.835-.159.956-.07.106-.393-.058-1.325-.453-.3-.127.251.502.358.753.099.23-.609.251-.609.251s.232.285.429.404c.299.181.537.108.876.192.439.109.736.073 1.116.319.378.243.636.441.748.876.039.15.089.249.04.397-.108.322-.632.407-.98.735-.415.39-.625.646-.924 1.131-.236.048-.442.075-.803.149-2.784.654-3.299 1.439-3.702 2.176-.119.34-.138.514-.159.852-.029.468-.083.263.132 1.196.113.494.66 1.142 1.067 1.501 0 0 1.108.4 1.837.668.628.179.985.333 1.239.614.191.212.292.501.112.722-.35.431-.861.319-1.302.064l-1.933-1.317c-.398-.185-.289-.121-.463-.142-.187-.023 1.035.903 1.035.903" fill="#fff" fill-rule="evenodd" transform="translate(764.7653 161.13161)"/><path d="m0 0c-.325-.301-.563-.507-.92-.769l-.061-.108c-.137-.068-.239-.081-.388-.049l.619.978c-.172.026-.281.246-.199.398.049.091.12.136.222.142.024.17.05.261.106.427.223.652 1.484 1.365 2.247 1.402 1.917.093 2.466-1.306 2.588-1.915.119-.593-.062-.992-.372-1.511-.313-.525-1.782-1.074-1.811-1.121l.554-.242c.367.054.626.077.95.054 1.273-.09 2.008-.664 3.286-1.305 1.426-.714 3.65-2.168 3.65-2.168.177-.105-.632-.266-1.259-.397l2.694-1.451-.032-.16c-.637-.318-1.32-.548-1.96-.127-.1.066-.147.117-.24.192l.423-.304v-.167c-.033-.148-.128-.218-.263-.286-.158-.081-.278-.045-.454-.025-.836.096-1.626.526-2.653 1.196l.207-.143c.463-.222.829-.813.892-.941.128-.258-.191-2.087-.191-2.087.085-.277.74-.586.431-.606-.495-.031-1.387-.398-1.276-1.8 0 0-.651.226-1.032.091-.417-.149-.43-.287-.897-.841-.13-.155.102 1.206.102 1.206-.215.13-.316.065-.786.133 0 0 1.21.764 2.694 1.832.197.374.197.711 0 1.084-.142.269-.339.334-.574.527-.143.117-.262.21-.381.295-.037-.144.006-.265-.028-.43-.064-.313-.215-.451-.366-.732-.153-.285-.286-.422-.415-.718-.048-.11-.112-.167-.111-.287 0 0 .286-.111.558-.398 0 0-.45-.081-.718-.192-.237-.097-.369-.165-.574-.318-.494-.369-.892-1.306-.892-1.306-.086.503-.079.835-.159.956-.07.106-.393-.058-1.325-.453-.3-.127.251.502.358.753.099.23-.609.251-.609.251s.232.285.429.404c.299.181.537.108.876.192.439.109.736.073 1.116.319.378.243.636.441.748.876.039.15.089.249.04.397-.108.322-.632.407-.98.735-.415.39-.625.646-.924 1.131-.236.048-.442.075-.803.149-2.784.654-3.299 1.439-3.702 2.176-.119.34-.138.514-.159.852-.029.468-.083.263.132 1.196.113.494.66 1.142 1.067 1.501 0 0 1.108.4 1.837.668.628.179.985.333 1.239.614.191.212.292.501.112.722-.35.431-.861.319-1.302.064l-1.933-1.317c-.398-.185-.289-.121-.463-.142-.187-.023 1.035.903 1.035.903z" style="fill:none;stroke:#000;stroke-width:.161;stroke-linecap:round;stroke-linejoin:round;stroke-miterlimit:3.864" transform="translate(764.7653 161.13161)"/><path d="m0 0c.214.134.484.484.484.484.078.202.011.339.018.556l.305.215.125-.018c.148-.071-.087-.241-.143-.394.161.069.308.313.43.179s-.125-.233-.215-.412c.133.062.225.252.341.161.121-.096-.036-.197-.126-.377l.215.072c.127-.05-.176-.254-.072-.341.116-.095.164.283.305.233l.126-.107c.07-.129-.252-.225-.162-.341.094-.12.241.177.377.108l.09-.072c.124-.155-.475-.266-.323-.394.091-.077.214.059.305-.018.097-.083-.045-.242.053-.323.123-.102.296.233.395.108.099-.126-.338-.284-.197-.359.105-.056.177.155.287.108l.089-.072c.095-.13-.337-.218-.233-.341.086-.101.281.137.341.018l.018-.107-.054.233c.035-.098.106-.149.09-.251-.018-.108-.077-.179-.18-.215h-.179l-.466.018-.251-.072-.31-.183c-.108-.057-.167-.201-.277-.147l-.096.11c-.261.305-.358.516-.59.844-.252.357-.396.557-.652.91z" fill="#fabc3a" fill-rule="evenodd" transform="translate(764.60719 159.94701)"/><path d="m0 0c-.108-.022-.21-.044-.302-.064-1.067-.236-1.698-.213-2.789-.271-1.093-.058-1.449-.136-2.805-.028-.606.049-1.347.326-1.945.904-.477.461-.503 1.176-.027 1.65.431.429.581.463 1.051.609" fill="none" stroke="#000" stroke-miterlimit="3.864" stroke-width=".161" transform="translate(773.97749 154.94769)"/><path d="m0 0c0-.22.179-.399.399-.399.221 0 .399.179.399.399 0 .221-.178.399-.399.399-.22 0-.399-.178-.399-.399m-.502 0c0 .498.404.901.901.901.498 0 .901-.403.901-.901s-.403-.901-.901-.901c-.497 0-.901.403-.901.901" fill="#fabc3a" transform="translate(773.52299 149.1218)"/><path d="m0 0c0-.22.179-.399.399-.399.221 0 .399.179.399.399 0 .221-.178.399-.399.399-.22 0-.399-.178-.399-.399zm-.502 0c0 .498.404.901.901.901.498 0 .901-.403.901-.901s-.403-.901-.901-.901c-.497 0-.901.403-.901.901z" fill="none" stroke="#000" stroke-miterlimit="3.864" stroke-width=".161" transform="translate(773.52299 149.1218)"/><path d="m0 0c.361-.073.664-.134 1.182-.239.498-.101.74-.301 1.179-.558.226-.132.392-.236.561-.357" fill="none" stroke="#000" stroke-miterlimit="3.864" stroke-width=".143" transform="translate(767.75999 153.7197)"/><path d="m0 0c0-.128.104-.231.232-.231.127 0 .231.103.231.231s-.104.231-.231.231c-.128 0-.232-.103-.232-.231m-.296 0c0 .291.236.528.528.528.291 0 .527-.237.527-.528s-.236-.527-.527-.527c-.292 0-.528.236-.528.527" fill="#fabc3a" transform="translate(773.38541 150.4312)"/><path d="m0 0c0-.128.104-.231.232-.231.127 0 .231.103.231.231s-.104.231-.231.231c-.128 0-.232-.103-.232-.231zm-.296 0c0 .291.236.528.528.528.291 0 .527-.237.527-.528s-.236-.527-.527-.527c-.292 0-.528.236-.528.527z" fill="none" stroke="#000" stroke-miterlimit="3.864" stroke-width=".143" transform="translate(773.38541 150.4312)"/><path d="m0 0c0-.128.104-.231.231-.231.128 0 .232.103.232.231s-.104.231-.232.231c-.127 0-.231-.103-.231-.231m-.296 0c0 .291.236.528.527.528.292 0 .528-.237.528-.528s-.236-.527-.528-.527c-.291 0-.527.236-.527.527" fill="#fabc3a" transform="translate(762.12691 157.8224)"/><path d="m0 0c0-.128.104-.231.231-.231.128 0 .232.103.232.231s-.104.231-.232.231c-.127 0-.231-.103-.231-.231zm-.296 0c0 .291.236.528.527.528.292 0 .528-.237.528-.528s-.236-.527-.528-.527c-.291 0-.527.236-.527.527z" fill="none" stroke="#000" stroke-miterlimit="3.864" stroke-width=".143" transform="translate(762.12691 157.8224)"/><path d="m0 0c0-.128.104-.231.232-.231.127 0 .231.103.231.231s-.104.231-.231.231c-.128 0-.232-.103-.232-.231m-.296 0c0 .291.236.527.528.527.291 0 .527-.236.527-.527s-.236-.528-.527-.528c-.292 0-.528.237-.528.528" fill="#fabc3a" transform="translate(762.7166 159.13271)"/><path d="m0 0c0-.128.104-.231.232-.231.127 0 .231.103.231.231s-.104.231-.231.231c-.128 0-.232-.103-.232-.231zm-.296 0c0 .291.236.527.528.527.291 0 .527-.236.527-.527s-.236-.528-.527-.528c-.292 0-.528.237-.528.528z" fill="none" stroke="#000" stroke-miterlimit="3.864" stroke-width=".143" transform="translate(762.7166 159.13271)"/><path d="m0 0c0-.128.104-.231.231-.231.128 0 .232.103.232.231s-.104.232-.232.232c-.127 0-.231-.104-.231-.232m-.296 0c0 .292.236.528.527.528.292 0 .528-.236.528-.528 0-.291-.236-.527-.528-.527-.291 0-.527.236-.527.527" fill="#fabc3a" transform="translate(773.5881 151.5764)"/><path d="m0 0c0-.128.104-.231.231-.231.128 0 .232.103.232.231s-.104.232-.232.232c-.127 0-.231-.104-.231-.232zm-.296 0c0 .292.236.528.527.528.292 0 .528-.236.528-.528 0-.291-.236-.527-.528-.527-.291 0-.527.236-.527.527z" fill="none" stroke="#000" stroke-miterlimit="3.864" stroke-width=".143" transform="translate(773.5881 151.5764)"/><path d="m0 0c.138-.119.282-.138.355-.305.045-.104.045-.174.04-.287-.009-.194-.098-.289-.18-.466-.09-.196-.202-.279-.269-.484-.057-.175-.061-.282-.072-.466-.006-.112-.032-.18 0-.287.038-.125.121-.164.198-.269.091-.125.142-.197.233-.323" fill="none" stroke="#000" stroke-linecap="round" stroke-miterlimit="3.864" stroke-width=".143" transform="translate(769.6451 157.47279)"/><path d="m0 0c.377.037.59.081.95.197.186.06.3.078.466.18.09.054.132.098.215.161m-1.542-.771c.161-.014.252-.03.413-.036.638-.023.95.04 1.614.269l.17.137m-2.465-.765c.086-.067.145-.097.251-.125.101-.027.164-.014.269-.018.448-.019.702.02 1.147.072.594.069.922.158 1.506.287l.179.04m-3.639-.919c.21-.035.325-.101.538-.09 1.362.072 2.514.148 3.801.646m-4.303-1.13c.098-.028.15-.058.251-.071.09-.012.142-.001.233 0 1.284.006 2.019.03 3.281.269.408.077.654.079 1.04.233.128.051.197.091.323.149m-10.812.478.205-.14c.083-.036.135-.057.226-.057.126-.001.186.066.304.108m-.089-.449c.091-.014.145-.064.233-.036l.125.09m-.054-.34.18-.018.125.071m.036-.323.054.108m3.048 1.273c.105-.021.164-.074.269-.054l.197.108m-.556-.323c.106-.046.172-.063.287-.072.148-.011.23.033.377.054m-.825-.34c.182-.007.285-.033.466-.018.2.016.306.065.502.107m-1.094-.466c.273-.021.426-.067.699-.054.255.013.394.066.646.108m-1.56-.448c.308-.035.479-.094.789-.09.211.003.333.002.538.054.107.027.164.055.269.089m-2.994 1.112.107-.072.198.018m-.234-.215.108-.036.108.036m-.018-.323.089-.036.126.036" fill="none" stroke="#000" stroke-linecap="round" stroke-miterlimit="3.864" stroke-width=".161" transform="translate(769.7348 157.0963)"/><path d="m0 0 .107-.054.072.054" fill="none" stroke="#000" stroke-miterlimit="3.864" stroke-width=".161" transform="translate(766.4539 155.57249)"/><path d="m0 0 .179-.126m-.484-.322c.105-.028.164-.044.269-.072m-.358-.143c.097-.042.153-.066.251-.108m-.359-.377c.112-.007.175-.01.287-.017m-.197-.52c.112.014.175.021.286.035m-.233-.25c.133.042.208.065.341.107m.412-2.635.169-.661m.028.804.252-.341m1.38-.125c-.009-.13-.051-.239.057-.307.148-.094.326-.01.535-.016m-.323.484c-.038-.115-.021-.21.054-.304.067-.087.153-.077.251-.126" fill="none" stroke="#000" stroke-linecap="round" stroke-miterlimit="3.864" stroke-width=".143" transform="translate(769.7348 156.66611)"/><path d="m0 0c.098-.028.152-.093.251-.072.097.021.12.098.197.161" fill="none" stroke="#000" stroke-miterlimit="3.864" stroke-width=".143" transform="translate(772.29849 153.3493)"/><path d="m0 0c.115-.096.196-.138.341-.179.102-.029.168-.07.268-.036l.162.126.072.089.125-.036m-.359.162.18-.18" fill="none" stroke="#000" stroke-linecap="round" stroke-miterlimit="3.864" stroke-width=".143" transform="translate(772.46001 153.6181)"/><path d="m0 0c.322-.14.503-.219.825-.359m-.466.646c.098-.077.146-.129.25-.198.229-.149.394-.164.646-.268" fill="none" stroke="#000" stroke-linecap="round" stroke-miterlimit="3.864" stroke-width=".161" transform="translate(775.1313 153.4211)"/><path d="m0 0 .027-.013.041-.12-.4-.821-.12-.041-.027.013-.041.12.4.821z" fill="#fabc3a" transform="translate(762.7971 158.97009)"/><path d="m0 0 .027-.013.041-.12-.4-.821-.12-.041-.027.013-.041.12.4.821z" fill="none" stroke="#000" stroke-miterlimit="3.864" stroke-width=".108" transform="translate(762.7971 158.97009)"/><path d="m0 0 .013-.027-.041-.12-.821-.4-.12.041-.013.027.041.12.821.4z" fill="#fabc3a" transform="translate(764.01109 159.6275)"/><path d="m0 0 .013-.027-.041-.12-.821-.4-.12.041-.013.027.041.12.821.4z" fill="none" stroke="#000" stroke-miterlimit="3.864" stroke-width=".108" transform="translate(764.01109 159.6275)"/><path d="m0 0 .029.008.111-.061.252-.878-.062-.111-.029-.008-.11.061-.252.878z" fill="#fabc3a" transform="translate(762.3801 157.582)"/><path d="m0 0 .029.008.111-.061.252-.878-.062-.111-.029-.008-.11.061-.252.878z" fill="none" stroke="#000" stroke-miterlimit="3.864" stroke-width=".108" transform="translate(762.3801 157.582)"/><path d="m0 0 .027-.013.041-.12-.4-.821-.12-.041-.027.013-.041.12.4.821z" fill="#fabc3a" transform="translate(774.2534 152.62331)"/><path d="m0 0 .027-.013.041-.12-.4-.821-.12-.041-.027.013-.041.12.4.821z" fill="none" stroke="#000" stroke-miterlimit="3.864" stroke-width=".143" transform="translate(774.2534 152.62331)"/><path d="m0 0 .034-.002.083-.096-.057-.818-.096-.084-.033.003-.084.095.057.819z" fill="#fabc3a" transform="translate(773.7179 151.4415)"/><path d="m0 0 .034-.002.083-.096-.057-.818-.096-.084-.033.003-.084.095.057.819z" fill="none" stroke="#000" stroke-miterlimit="3.864" stroke-width=".143" transform="translate(773.7179 151.4415)"/><path d="m0 0 .174-.014.162.028.132.055" fill="none" stroke="#000" stroke-linecap="round" stroke-miterlimit="3.864" stroke-width=".143" transform="translate(763.99181 161.1763)"/><path d="m0 0 .125-.148.141-.055c.09-.024.145-.022.238-.014l.098.014m.804.691c-.382-.057-1.367-.138-.98-.147h.127l.083-.04.141-.169.07-.049.139.042.064.098.035.14-.035.062m1.182.987c.202-.071.355-.043.518-.181.082-.069.131-.113.174-.21.066-.147 0-.252 0-.412" fill="none" stroke="#000" stroke-linecap="round" stroke-miterlimit="3.864" stroke-width=".161" transform="translate(764.0266 161.70821)"/><path d="m0 0 .033.008.109-.065.198-.796-.065-.109-.033-.008-.108.065-.199.797z" fill="#fabc3a" transform="translate(773.64461 150.22009)"/><path d="m0 0 .033.008.109-.065.198-.796-.065-.109-.033-.008-.108.065-.199.797z" fill="none" stroke="#000" stroke-miterlimit="3.864" stroke-width=".143" transform="translate(773.64461 150.22009)"/><path d="m0 0c.287-.347.468-.528.736-.89.296-.398.426-.649.698-1.064m-1.222 2.187c.293-.329.489-.489.753-.843.32-.429.502-.681.699-1.183m-1.252 2.205c.337-.298.513-.486.789-.842.35-.452.538-.753.753-1.255m-1.499 2.045.145.105.153-.155-.102-.148" fill="none" stroke="#000" stroke-miterlimit="3.864" stroke-width=".143" transform="translate(764.679 160.00079)"/><path d="m0 0c.214.134.484.484.484.484.078.202.011.339.018.556l.305.215.125-.018c.135-.069-.073-.212-.129-.366.161.07.294.273.416.151.128-.129-.125-.233-.215-.412.133.062.225.252.341.161.121-.096-.036-.197-.126-.377l.257.058c.111-.076-.187-.214-.114-.327.091-.138.248.369.401.144.083-.123-.166-.307-.132-.359.049-.073.259.205.377.108.287-.237-.393-.34-.233-.466.093-.074.214.059.305-.018.097-.083-.045-.242.053-.323.123-.102.273.27.395.108.167-.223-.317-.253-.197-.359.097-.086.244.238.327.065.151-.314-.304-.262-.184-.37.091-.081.304.069.311.028l.077-.1c.037-.113-.061-.21-.173-.25h-.179l-.466.018-.251-.072-.31-.183c-.108-.057-.167-.201-.277-.147l-.096.11c-.269.319-.316.573-.554.916-.246.354-.399.545-.688.864z" fill="none" stroke="#000" stroke-linejoin="round" stroke-miterlimit="3.864" stroke-width=".143" transform="translate(764.60719 159.94701)"/><path d="m0 0 .145.105.153-.156-.102-.147m.163-.181.144.105.153-.156-.101-.148m.119-.292.16.081.127-.178-.124-.129m.107-.246.17.055.098-.196-.143-.109" fill="none" stroke="#000" stroke-miterlimit="3.864" stroke-width=".143" transform="translate(765.4929 160.00259)"/><path d="m0 0h-.305v.102h.731v-.102h-.305v-.811h-.121z" transform="translate(778.70441 171.0674)"/><path d="m0 0h.166l.288-.768.289.768h.167v-.914h-.115v.76h-.003l-.285-.76h-.104l-.285.76h-.003v-.76h-.115z" transform="translate(779.2341 171.1698)"/></g></svg>