<svg xmlns="http://www.w3.org/2000/svg" width="2000" height="4603.16" viewBox="0 0 2000 4603.16"><path d="M282.43,2C855-1.08,1427.47-.06,2000,1.48,1556.41,698.84,1137.38,1411.56,698.9,2112q632.38-1.53,1265.8,0c-4.1,829.88-1.54,1659.76-1.54,2489.64-131.49.51-263,1.53-394.47,1.53-1-189.3,1.53-379.12-2.56-568.94-521.87,0-1043.75,1.54-1566.13-.51,3.58-125.86,4.09-251.73.51-377.08,523.41-1.53,1046.82,0,1569.71-.51-3.07-388.34-4.6-776.16,1-1164-128.43-1-256.85-2-385.27-2-.51,236.89-.51,474.29,2,711.69q-198,3.07-395.5,0c3.07-236.89,0-474.29,3.58-711.18-134.56-.51-268.61,0-403.17,2.05,1.53,286-.51,572,2.05,858-131,.51-262.48.51-394-1.53,3.07-282.94,4.61-565.37-.51-848.3,444.1-695.32,857-1410.08,1301.61-2104.89C961.88,399.53,621.64,397.49,281.4,398,282.43,266,282.43,134,282.43,2Z" fill="#00c2ff"/></svg>