<svg xmlns="http://www.w3.org/2000/svg" width="512pt" height="512pt" style="isolation:isolate" viewBox="0 0 512 512"><defs><clipPath id="a"><path d="M0 0h512v512H0z"/></clipPath></defs><g clip-path="url(#a)"><path fill="#100F0D" d="m487.622 226.087 23.145-23.145c.84-.841 2.808-2.812-1.175-6.913-1.708-1.759-3.266-2.657-4.628-2.668h-.024c-1.173 0-1.963.629-2.582 1.247l-23.199 23.2-23.162-23.305c-1.872-1.874-4.065-1.434-6.891 1.388-2.874 2.889-3.344 5.108-1.48 6.983l23.165 23.303-22.687 22.689-.162.158c-.552.535-1.386 1.343-1.397 2.66-.01 1.358.894 2.957 2.689 4.753 1.516 1.516 2.951 2.285 4.27 2.285h.001c1.486-.002 2.435-.953 2.972-1.49l22.774-22.774 23.288 23.29a3.436 3.436 0 0 0 2.43.969h.048c1.472-.018 3.022-.872 4.609-2.538 2.613-2.744 3.049-5.031 1.295-6.795l-23.299-23.297Zm-83.616-33.249c-17.152 1.305-30.588 16.39-30.588 34.344v56.771c0 3.289 2.501 3.962 6.254 3.962 3.753 0 6.253-.673 6.253-3.962v-56.904c0-11.186 8.138-20.791 18.526-21.867 5.963-.608 11.696 1.259 16.154 5.28 4.377 3.945 6.888 9.616 6.89 15.562 0 1.702-.834 7.243-4.637 12.387-2.876 3.887-8.325 8.517-17.987 8.517h-.183c-2.479 0-4.596.117-5.003 5.99-.274 3.952-.251 5.719 3.163 6.195 6.09.844 12.299-.346 18.452-3.544 10.508-5.467 17.547-15.824 18.374-27.034.719-9.736-2.792-19.234-9.635-26.06a33.317 33.317 0 0 0-26.033-9.637ZM48.894 230.464c-12.29-1.765-24.274 1.505-34.036 9.018v-33.811h57.296c1.991 0 3.418-.359 3.418-6.237 0-5.737-2.311-5.964-3.836-5.964H8.291c-3.684 0-5.633 2.98-5.633 6.283v55.492c0 2.909 1.844 3.896 5.277 4.575 3.005.595 4.75.247 6.064-1.209l.139-.213c6.044-8.713 19.196-17.152 31.697-15.622 14.921 1.825 26.935 13.729 28.579 28.302 1.048 9.299-1.79 18.237-7.985 25.17-6.117 6.844-14.873 10.77-24.019 10.77-13.551 0-25.394-8.71-30.326-21.351-.73-1.872-1.963-3.257-7.301-1.317-4.905 1.784-5.189 3.848-4.513 5.717 6.421 17.679 23.355 29.559 42.138 29.559 12.721 0 24.895-5.454 33.401-14.965 8.619-9.634 12.533-22.053 11.091-34.97-2.259-20.22-17.91-36.351-38.006-39.227Zm247.719 75.728c-27.676 0-50.192-22.516-50.192-50.191 0-27.677 22.516-50.193 50.192-50.193 27.674 0 50.188 22.516 50.188 50.193 0 27.675-22.514 50.191-50.188 50.191Zm0-113.988c-35.18 0-63.799 28.619-63.799 63.797 0 35.177 28.619 63.795 63.799 63.795 35.178 0 63.795-28.618 63.795-63.795 0-35.178-28.617-63.797-63.795-63.797ZM158.546 306.192c-27.676 0-50.191-22.516-50.191-50.191 0-27.677 22.515-50.193 50.191-50.193 27.675 0 50.189 22.516 50.189 50.193 0 27.675-22.514 50.191-50.189 50.191Zm0-113.988c-35.179 0-63.799 28.619-63.799 63.797 0 35.177 28.62 63.795 63.799 63.795 35.177 0 63.796-28.618 63.796-63.795 0-35.178-28.619-63.797-63.796-63.797Z"/></g></svg>