<svg xmlns="http://www.w3.org/2000/svg" xml:space="preserve" style="enable-background:new 0 0 228.4 97.2" viewBox="0 0 228.4 97.2"><path d="M33.2 26.5c-.3-.5-.7-.9-1.1-1.2-.4-.3-.9-.5-1.4-.6-.5-.1-1-.1-1.4-.1-.5 0-1 .1-1.5.2-.6.1-1.1.3-1.6.6s-1 .6-1.5 1.1c-.5.5-.9 1.1-1.2 1.8L9.2 53.8c-.1.2-.1.4-.1.6 0 .3.1.6.3.8.2.2.5.3.8.3h2.9c.3 0 .6-.1.8-.3.3-.2.5-.4.6-.7l4.8-9.9H31l1.1 9.8c0 .3.1.5.3.7.2.3.5.4.8.4h2.9c.3 0 .7-.1.9-.3.2-.3.3-.6.3-.9v-.2l-3.6-25.6c0-.9-.2-1.5-.5-2m-11.9 14 6.1-10.9c.2-.4.8-.5 1.2-.5.7 0 .8.5.8.5l1.3 10.9h-9.4zm38.8-8.1c-.8-.8-1.7-1.4-2.9-1.8-1.1-.4-2.5-.7-4-.7-3.5 0-6.4 1-8.6 2.9-2.2 1.9-3.7 4.7-4.5 8.4l-.6 3.1c-.2 1-.3 1.9-.3 2.8 0 1.6.3 2.9.9 4 .6 1.1 1.3 2 2.3 2.7.9.7 2 1.2 3.2 1.5 1.2.3 2.3.5 3.5.5 1.6 0 3.1-.1 4.4-.2 1.3-.1 2.6-.3 4.1-.6.4-.1.8-.2 1.1-.4.2-.2.4-.6.4-.9l.3-1.5V52c0-.2-.1-.5-.3-.7-.4-.3-.6-.3-.9-.3h-.3c-1.2.2-2.5.3-4 .4-1.5.1-2.9.2-4.3.2-1.8 0-3.1-.4-4.1-1-.9-.6-1.4-1.7-1.4-3.3 0-.4 0-.8.1-1.2 0-.4.1-.8.3-1.3l.1-.2h15.6c.4 0 .8-.1 1.1-.4.2-.3.3-.6.4-.9l.4-1.9c.2-1 .3-1.9.3-2.7 0-1.2-.2-2.3-.5-3.4-.4-1.1-1-2.1-1.8-2.9M57 40.7H45.3c.2-.9.5-1.7.9-2.4.4-.8.9-1.5 1.6-2.1.6-.6 1.3-1.1 2.1-1.4.8-.3 1.7-.5 2.7-.5 3.3.1 4.6 1.3 4.7 4.2 0 .6-.1 1.4-.3 2.2m22.2-7.6.3-1.9V31c0-.3-.1-.6-.4-.8-.3-.2-.6-.2-.9-.2h-.1c-1.1 0-2.3.1-3.5.4-1 .2-1.9.6-2.9 1.3v-.2c0-.3-.1-.6-.3-.8-.2-.2-.5-.3-.8-.3h-2.2c-.4 0-.7.1-1 .4-.3.2-.5.5-.5.8L62.5 54v.2c0 .3.1.6.3.8.2.2.5.3.8.3H66c.4 0 .7-.1 1-.4.3-.2.5-.5.6-.8L71 35.9c1.1-.6 2.1-1 3-1.3 1-.2 2.1-.4 3.4-.4h.1c.8.1 1.5-.4 1.7-1.1m19.3-.7c-.8-.8-1.8-1.4-2.9-1.8-1.2-.4-2.5-.6-4-.6-7.2 0-11.8 3.8-13.1 11.1l-.6 3.4c-.1.4-.1.8-.2 1.2 0 .4-.1.8-.1 1.3 0 1.3.2 2.5.6 3.5.4 1.1 1 2 1.8 2.8.8.8 1.8 1.4 2.9 1.8 1.2.4 2.5.6 3.9.6 1.9 0 3.6-.3 5.1-.8 1.5-.5 2.8-1.3 3.9-2.2 1.1-1 2-2.1 2.6-3.5.7-1.4 1.2-2.9 1.5-4.6l.6-3.4c.1-.4.1-.8.2-1.3 0-.4.1-.9.1-1.3 0-1.3-.2-2.4-.6-3.5-.4-1-1-1.9-1.7-2.7m-2.8 7.4c0 .4-.1.8-.2 1.3l-.6 3.4c-.2 1.1-.5 2-.9 2.9-.4.9-1 1.6-1.6 2.2-.6.6-1.3 1.1-2.2 1.4-.8.3-1.7.5-2.7.5-1.8 0-3-.4-3.7-1.1-.7-.7-1.1-1.7-1.1-3.3 0-.7.1-1.6.3-2.5l.6-3.4c.4-2.2 1.2-3.9 2.5-5.2 1.3-1.2 2.8-1.9 4.8-1.9 1.8 0 3 .4 3.7 1.1.7.7 1.1 1.8 1.1 3.3v1.3m16.5-16.1c0-.3-.1-.6-.3-.8-.2-.2-.5-.3-.8-.3h-2.5c-.7 0-1.4.5-1.5 1.2L101.4 54v.2c0 .3.1.6.3.8.2.2.5.3.8.3h2.5c.4 0 .7-.1 1-.4.2-.2.4-.5.5-.8l5.7-30.3v-.1zm7.1 6.5H117c-.4 0-.7.1-1 .4-.3.2-.5.5-.6.8L111.2 54v.2c0 .3.1.6.3.9.2.2.5.3.9.3h2.3c.4 0 .7-.1 1-.4.3-.2.5-.5.6-.8l4.3-22.6v-.2c0-.3-.1-.6-.3-.9-.3-.2-.6-.3-1-.3m-2.7-2.3h2.6c.3 0 .6-.1.9-.2.2-.1.4-.3.6-.5l4.8-4c.2-.2.4-.4.4-.7 0-.6-.6-.7-.9-.7h-3.1c-.3 0-.6.1-.9.2-.2.1-.4.3-.6.5l-4.1 3.9c-.2.2-.4.5-.4.8-.1.5.4.7.7.7m26.1 4.2c-.6-.7-1.4-1.2-2.4-1.6-1-.4-2.1-.6-3.4-.6-1.7 0-3.1.2-4.3.6-.9.3-1.9.7-2.8 1.1v-.3c0-.3-.1-.5-.3-.8-.2-.3-.6-.4-.9-.4h-2.3c-.4 0-.7.1-1 .4-.3.2-.5.5-.5.8L120.6 54v.2c0 .3.1.5.3.8.2.3.6.4.9.4h2.4c.4 0 .7-.1 1-.4.3-.2.5-.5.6-.8l3.5-18.5c1.4-.6 2.6-1 3.5-1.2 1-.2 1.9-.3 2.8-.3 1.7 0 2.8.3 3.2.8.5.5.8 1.2.8 2.2 0 .3 0 .7-.1 1.1-.1.4-.1.8-.2 1.2L136.7 54v.2c0 .3.1.6.3.9.2.2.6.3.9.3h2.3c.4 0 .7-.1 1-.4.3-.2.5-.5.6-.8l2.5-14.5c.2-.9.2-1.7.2-2.5 0-1-.1-1.9-.4-2.8-.3-.9-.7-1.7-1.4-2.3m24.2.3c-.8-.8-1.7-1.4-2.9-1.8-1.1-.4-2.5-.7-4-.7-3.5 0-6.4 1-8.6 2.9-2.2 1.9-3.7 4.7-4.5 8.4l-.6 3.1c-.2 1-.3 1.9-.3 2.8 0 1.6.3 2.9.9 4 .6 1.1 1.3 2 2.2 2.7.9.7 2 1.2 3.2 1.5 1.2.3 2.4.5 3.6.5 1.6 0 3.1-.1 4.4-.2 1.3-.1 2.6-.3 4-.6.4-.1.8-.2 1.1-.4.2-.2.3-.6.4-.9l.3-1.5V52c0-.2-.1-.5-.3-.7-.2-.2-.5-.2-.7-.2h-.3c-1.2.2-2.5.3-3.9.4-1.5.1-2.9.2-4.3.2-1.8 0-3.1-.4-4.1-1-.9-.6-1.4-1.7-1.4-3.3 0-.4 0-.8.1-1.2 0-.4.1-.9.3-1.3l.1-.2H167c.4 0 .8-.1 1.1-.4.2-.3.3-.6.4-.9l.4-1.9c.2-1 .3-1.9.3-2.7 0-1.2-.2-2.3-.5-3.4-.5-1.2-1.1-2.2-1.8-3m-3.1 8.3h-11.7c.2-.9.5-1.7.9-2.4.4-.8.9-1.5 1.6-2.1.6-.6 1.3-1.1 2.1-1.4.8-.3 1.7-.5 2.7-.5 3.3.1 4.6 1.3 4.7 4.2 0 .6-.1 1.4-.3 2.2m29.8-8.6c0-.7-.6-1-1.2-1.1-1.2-.3-2.6-.5-4-.7-1.5-.2-2.9-.3-4.4-.3-1.5 0-2.9.2-4.3.5-1.4.4-2.6.9-3.8 1.7-1.1.8-2.1 1.9-3 3.2-.8 1.3-1.4 3-1.8 4.9l-.9 4.4c-.2.9-.3 1.8-.3 2.7 0 1.4.2 2.6.6 3.7.4 1 1 1.9 1.7 2.6.7.7 1.6 1.2 2.5 1.5.9.3 1.9.5 3 .5.8 0 1.6 0 2.2-.2.7-.1 1.3-.3 1.9-.5.6-.2 1.2-.5 1.8-.8.4-.2.7-.4 1.1-.6l-.1.4v.3c0 .3.1.5.2.8.2.3.6.4.9.4h1.9c.4 0 .7-.1 1-.4.3-.2.5-.5.5-.8l4.1-21.7c.4-.2.4-.4.4-.5m-8.3 17.1c-1.3.8-2.4 1.4-3.4 1.8-1 .4-2.1.6-3.1.6-1.1 0-1.9-.3-2.6-.9-.7-.5-1.1-1.6-1.1-3.2 0-.3 0-.6.1-1 0-.3.1-.7.1-1l.9-4.6c.4-2.3 1.3-4 2.5-5.1 1.2-1.1 3-1.7 5.4-1.7 1 0 1.9 0 2.5.1.5.1 1.1.1 1.6.2l-2.9 14.8zm27.6-18.7c-.5-.1-1-.2-1.4-.2-.5-.1-1-.1-1.5-.2-.5 0-1.1-.1-1.8-.1h-2.4c-1.2 0-2.4.1-3.6.3-1.2.2-2.3.6-3.3 1.2s-1.8 1.3-2.4 2.2c-.6 1-.9 2.2-.9 3.5 0 2.2 1.5 4.1 4.2 5.7l4.3 2.6c1.1.6 1.8 1.2 2.1 1.6.3.4.5.8.5 1.2 0 .6-.1 1.2-.4 1.6-.3.4-.6.8-1 1-.5.3-1 .4-1.6.6-.6.1-1.3.2-1.9.2h-1.5c-.6 0-1.3-.1-2-.1s-1.4-.1-2-.2c-.7-.1-1.3-.1-1.9-.2h-.4c-.6 0-1.2.4-1.3 1l-.3 1.6v.2c0 .3.1.7.4.9.2.1.4.2.7.3l1.8.3c.7.1 1.3.2 2 .2s1.3.1 2 .1h1.7c1.3 0 2.6-.1 3.9-.4 1.3-.3 2.4-.7 3.4-1.3 1-.6 1.8-1.4 2.4-2.4.6-1 .9-2.3.9-3.8 0-1.1-.3-2.1-.9-3-.6-.9-1.8-1.9-3.5-2.9l-4.3-2.6c-.8-.5-1.4-1-1.9-1.4-.4-.4-.5-.7-.5-1.2 0-.6.1-1 .4-1.3.3-.3.6-.6 1.1-.8.4-.2.9-.4 1.5-.4.6-.1 1.1-.1 1.6-.1 1.3 0 2.6 0 3.9.1 1.3.1 2.3.1 3.1.2h.2c.7 0 1.3-.4 1.4-1.1l.2-1.5v-.2c.1-.6-.5-1.1-1-1.2M67 64.5c-1.1-.2-2.4-.5-3.9-.7-1.5-.2-3-.3-4.5-.3-1.8 0-3.4.2-4.8.6-1.4.4-2.7 1-3.8 1.9-1.1.9-2 2-2.7 3.4-.7 1.4-1.3 3.1-1.6 5.1l-.6 3.2c-.2 1.1-.3 2.1-.3 3 0 1.4.2 2.6.7 3.7.5 1 1.1 1.9 1.9 2.5.8.7 1.8 1.1 2.9 1.5 1.1.3 2.3.5 3.6.5.4 0 .8 0 1.3-.1.5 0 1-.1 1.5-.2s1-.1 1.5-.2c.3 0 .6-.1.9-.1v.2c-.2 1-.4 1.8-.7 2.5a5 5 0 0 1-1.1 1.6c-.5.4-1.1.7-1.8.8-.7.2-1.6.3-2.6.3-.6 0-1.3 0-2.1-.1-.7 0-1.5-.1-2.2-.1-.7 0-1.4-.1-2.1-.2-.6-.1-1.2-.1-1.6-.2h-.2c-.3 0-.6.1-.8.2-.2.1-.4.4-.4.7l-.2 1.3c-.1.1 0 .2-.1.2 0 .5.4.8 1 .9.7.2 1.7.4 3.1.5 1.4.2 3.1.3 4.9.3 1.7 0 3.2-.1 4.5-.4 1.3-.3 2.4-.7 3.3-1.4.9-.7 1.7-1.6 2.3-2.8.6-1.2 1.1-2.6 1.4-4.3L68 65.8v-.3c0-.6-.4-.9-1-1m-7.2 20.2c-.3.1-.7.1-1.1.2-.5.1-1 .1-1.5.2-.5 0-1 .1-1.4.1h-1.2c-1.8 0-3.1-.3-3.9-.9-.8-.6-1.2-1.7-1.2-3.3 0-.4 0-.9.1-1.4 0-.5.1-1.1.3-1.7l.6-3.2c.5-2.6 1.4-4.4 2.6-5.6 1.2-1.2 2.9-1.8 5.1-1.8 1 0 2 0 2.9.1.8.1 1.5.2 2.1.3l-3.4 17zM140.6 59v-.2c0-.6-.4-.9-1-.9h-2.4c-.3 0-.6.1-.9.3-.3.2-.4.4-.5.7l-.2 1.9v.2c0 .6.4.9 1 .9h2.4c.3 0 .6-.1.8-.3.3-.2.4-.4.5-.7m-95.1 6.4c.7 0 1.3-.3 1.4-.9l.3-1.9v-.2c0-.6-.5-.8-1.1-.8h-.1c-1.1 0-2.3.1-3.4.4-1 .3-2.1.8-3.3 1.5l.1-.5v-.2c0-.6-.4-.9-.9-.9H36c-.3 0-.6.1-.8.3-.2.2-.4.4-.5.7l-4.3 22.6v.2c0 .5.4.9.9.9h2.3c.3 0 .6-.1.8-.3.3-.2.4-.5.5-.7l3.5-18.4c1.1-.6 2.2-1.1 3.1-1.3 1-.3 2.1-.4 3.5-.4l.2-.1zm80.3.2h5c.3 0 .6-.1.8-.3.2-.2.4-.4.5-.7l.3-1.5v-.2c0-.6-.4-.9-1-.9h-4.9l.7-3.7V60c0-.5-.3-.8-.8-.8h-.1l-2.6.4c-.7.1-1.1.5-1.2 1.1l-.6 3.3-3.2.1c-.3 0-.6.1-.8.3-.2.2-.4.4-.5.7l-.2 1.2v.2c0 .5.4.8 1 .9l3 .4-2.9 14.9c-.1.4-.1.7-.1.9v.9c0 1.6.6 2.8 1.7 3.4 1.1.7 2.5 1 4.2 1 .5 0 1 0 1.5-.1.5 0 1.1-.1 1.5-.2.4-.1.7-.2.8-.3.2-.1.3-.4.3-.6l.3-1.6v-.2c0-.2-.1-.5-.3-.6-.2-.1-.3-.1-.5-.1h-2.9c-.7 0-1.3-.1-1.6-.2-.2-.1-.4-.4-.4-1 0-.3 0-.7.1-1.2l2.9-15.3zm62.4-2.1c0-.5-.4-.8-1-.9-1.2-.3-2.6-.5-4-.7-1.5-.2-2.9-.3-4.4-.3-1.4 0-2.9.2-4.2.5-1.4.3-2.6.9-3.7 1.7-1.1.8-2.1 1.8-2.9 3.2-.8 1.3-1.4 2.9-1.8 4.9l-.9 4.4c-.2.9-.3 1.8-.3 2.7 0 1.4.2 2.6.6 3.6.4 1 1 1.9 1.6 2.5.7.7 1.5 1.1 2.4 1.5.9.3 1.9.5 3 .5.8 0 1.5-.1 2.2-.2.6-.1 1.3-.3 1.9-.5.6-.2 1.2-.5 1.8-.8l1.5-.9-.2.9v.3c0 .2.1.5.2.6.2.2.4.3.8.3h1.9c.3 0 .6-.1.8-.3.2-.2.4-.4.5-.7l4.1-21.7c.1-.3.1-.5.1-.6M180 82.6c-1.3.8-2.5 1.4-3.5 1.8-1.1.4-2.1.6-3.2.6s-2-.3-2.8-1c-.7-.6-1.1-1.7-1.1-3.4v-1c0-.3.1-.7.1-1l.9-4.6c.4-2.3 1.3-4.1 2.6-5.3 1.2-1.2 3.1-1.8 5.5-1.8 1 0 1.9 0 2.6.1v-.2.2l1.8.3-2.9 15.3zM208.2 65c0-.5-.4-.8-.9-.9-.5-.1-1-.2-1.4-.2-.5-.1-.9-.1-1.5-.2-.5 0-1.1-.1-1.8-.1h-2.4c-1.2 0-2.4.1-3.6.3-1.2.2-2.3.6-3.2 1.1-.9.5-1.7 1.3-2.3 2.2-.6.9-.9 2.1-.9 3.4 0 2.1 1.4 3.9 4.1 5.5l4.4 2.6c1.1.6 1.9 1.2 2.2 1.6.3.5.5.9.5 1.3 0 .7-.1 1.2-.4 1.7-.3.5-.7.8-1.1 1.1-.5.3-1 .5-1.6.6-.6.1-1.3.2-2 .2h-1.5c-.6 0-1.3-.1-1.9-.1-.7 0-1.4-.1-2-.2-.7-.1-1.3-.1-1.9-.2h-.3c-.6 0-1 .3-1.1.8l-.3 1.6v.2c0 .3.1.6.3.7l.6.3 1.8.3c.7.1 1.3.2 2 .2s1.3.1 2 .1h1.7c1.3 0 2.6-.1 3.9-.4 1.3-.3 2.4-.7 3.3-1.3 1-.6 1.8-1.4 2.3-2.3.6-1 .9-2.2.9-3.7 0-1-.3-2-.9-2.9-.6-.9-1.7-1.8-3.4-2.8l-4.3-2.6c-.8-.5-1.5-1-1.9-1.4-.4-.4-.6-.8-.6-1.3 0-.6.1-1.1.4-1.4.3-.4.7-.7 1.1-.9.5-.2 1-.4 1.6-.5.6-.1 1.1-.1 1.7-.1 1.3 0 2.6 0 3.9.1 1.3.1 2.3.2 3.1.2h.2c.6 0 1.1-.3 1.2-.9l.2-1.5h-.2.2l-.2-.2zm-46.5.5c-.6-.6-1.4-1.2-2.3-1.5-.9-.4-2.1-.5-3.4-.5-1.6 0-3.1.2-4.3.6-1.1.4-2.1.8-3.1 1.3l.1-.5v-.2c0-.2-.1-.4-.2-.6-.2-.2-.4-.3-.7-.3h-2.3c-.3 0-.6.1-.8.3-.2.2-.4.5-.5.7l-4.3 22.6v.2c0 .2.1.4.2.6.2.2.4.3.7.3h2.4c.3 0 .6-.1.9-.3.2-.2.4-.4.5-.7l3.5-18.5c1.5-.6 2.7-1.1 3.7-1.3 1-.2 2-.3 2.9-.3 1.7 0 2.9.3 3.4.8.6.5.8 1.3.8 2.3 0 .3 0 .7-.1 1.1 0 .4-.1.8-.2 1.2l-2.8 14.5v.2c0 .6.4.9 1 .9h2.3c.3 0 .6-.1.9-.3.3-.2.4-.5.5-.7l2.8-14.5c.2-.8.2-1.7.2-2.4 0-1-.1-1.9-.4-2.7-.3-.9-.8-1.6-1.4-2.3m-48.5 0c-.6-.6-1.4-1.2-2.3-1.5-.9-.4-2.1-.5-3.3-.5-1.6 0-3.1.2-4.3.6-1.1.4-2.1.8-3.1 1.3l.1-.5v-.2c0-.2-.1-.4-.2-.6-.2-.2-.4-.3-.7-.3H97c-.3 0-.6.1-.8.3-.2.2-.4.4-.5.7l-4.2 22.6v.2c0 .2.1.4.2.6.2.2.4.3.7.3h2.3c.3 0 .6-.1.9-.3.3-.2.4-.5.5-.7L99.6 69c1.5-.7 2.7-1.1 3.7-1.3 1-.2 2-.3 2.9-.3 1.7 0 2.8.3 3.4.8.6.5.8 1.3.8 2.3 0 .3 0 .7-.1 1.1 0 .4-.1.8-.2 1.2l-2.8 14.5v.2c0 .6.4.9 1 .9h2.3c.3 0 .6-.1.9-.3.3-.2.4-.4.5-.7l2.8-14.5c.2-.8.2-1.7.2-2.4 0-1-.1-1.9-.4-2.7-.4-.9-.8-1.6-1.4-2.3m-24.6.4c-.8-.8-1.7-1.4-2.8-1.8-1.1-.4-2.4-.7-3.9-.7-3.4 0-6.3 1-8.5 2.9S69.8 71 69 74.5l-.6 3.1c-.2 1-.3 1.9-.3 2.8 0 1.5.3 2.8.8 3.9s1.3 1.9 2.2 2.6c.9.7 1.9 1.1 3.1 1.4 1.1.3 2.3.4 3.5.4 1.6 0 3.1-.1 4.3-.2 1.3-.1 2.6-.3 4-.6.4-.1.7-.2 1-.4.2-.2.3-.5.4-.8l.3-1.5V85c0-.4-.4-.7-.8-.7h-.3c-1.1.1-2.4.3-3.9.4-1.5.1-2.9.2-4.3.2-1.8 0-3.2-.4-4.2-1.1-1-.7-1.5-1.8-1.5-3.4 0-.4 0-.8.1-1.3 0-.4.1-.9.3-1.4l.1-.4H89c.4 0 .7-.1.9-.3.2-.2.3-.5.4-.8l.4-1.9c.2-1 .3-1.9.3-2.7 0-1.2-.2-2.3-.5-3.3-.6-.7-1.1-1.6-1.9-2.4m-2.7 8.3H73.7c.2-1 .5-1.9 1-2.7.4-.8 1-1.6 1.6-2.2.6-.6 1.4-1.1 2.2-1.5.8-.3 1.8-.5 2.8-.5 3.4 0 4.9 1.4 4.9 4.5 0 .7-.1 1.5-.3 2.4m52.4-9.8H136c-.3 0-.6.1-.9.3-.2.2-.4.4-.5.7l-4.1 21.9v.2c0 .6.4.9 1 .9h2.3c.3 0 .6-.1.8-.3.3-.2.4-.5.5-.7l4.1-21.9v-.2c.1-.5-.3-.9-.9-.9M24.1 59.6c-.3-.5-.7-.9-1.1-1.2-.4-.3-.9-.5-1.4-.6-.5-.1-1-.1-1.4-.1-.5 0-1 .1-1.5.2-.6.1-1.1.3-1.6.6s-1 .6-1.5 1.1c-.5.5-.9 1.1-1.2 1.8L.4 86.9c-.4.2-.4.4-.4.6 0 .3.1.6.3.8.2.2.5.2.8.2H4c.3 0 .6-.1.8-.3.3-.2.5-.4.6-.7l4.8-9.9h11.7l1.1 9.8c0 .3.1.5.3.7.2.3.5.4.8.4H27c.3 0 .7-.1.9-.3.2-.2.3-.6.3-.9V87l-3.6-25.6c0-.7-.2-1.3-.5-1.8m-11.8 14 6.1-11c.2-.4.8-.5 1.2-.5.7 0 .8.5.8.5l1.3 11h-9.4zm180.8-61.7c-9.4 1.6-22.1 2.8-31.6 5.7-.1 0-.1.1 0 .1 23.1-.7 48.1-.6 66.7 0l.1-.1c-.4-2.2-2.2-4.7-7.3-4.7h-3l-.1.1c.8 2.1-1.5 3.5-3 2.2-.6-.5-1.3-1.9.4-3 1.2-.9 3.1-2.1 4.2-2.8 4-2.5 3.4-6.1-1.9-6.5-12.7-1-35.3-2.3-44.3-3-.2 0-.3.1-.2.2 7.4 4 14.1 4.4 21.5 7.1 4.4 1.7 3.5 3.9-1.5 4.7" style="fill:#007ac2"/></svg>