<svg xmlns="http://www.w3.org/2000/svg" width="512pt" height="512pt" style="isolation:isolate" viewBox="0 0 512 512"><defs><clipPath id="a"><path d="M0 0h512v512H0z"/></clipPath></defs><g fill="#0C2F59" clip-path="url(#a)"><path d="M353.415 176.675c7.998.091 13.475 2.46 17.919 4.555 9.263 4.394 20.106 9.446 33.692 16.016 0 .061 21.897-15.611 23.071-16.421 7.482-5.051 14.659-1.204 16.978 3.159 8.179 15.439 23.253 47.439 31.211 76.737.911 3.533-.193 8.949-5.69 10.65-3.179.891-8.625 1.691-14.315 2.409-7.947.982-7.805 7.421-7.805 11.288 0 4.829.061 37.113.061 48.179.182 6.782-4.991 28.963-30.614 28.963h-58.444c-22.11.091-39.887-18.617-40.008-38.5-.02-13.08 0-104.071.03-114.265.112-19.701 17.808-32.993 33.914-32.77Z"/><path d="M260.946 362.21H70.906v21.108h222.982s8.089-18.668 8.089-39.34l.071-143.26c0-11.287 4.596-30.411 27.82-35.463a50.225 50.225 0 0 1 1.964-.405c65.803-15.539 133.621-1.387 171.919 15.095 6.864 3.351 8.433-2.136 8.23-4.475.79-32.193-23.689-68.901-68.688-71.108-36.597-.84-56.875 12.27-64.305 15.894-.628.324-1.519.182-2.369-.759-6.733-6.641-21.128-16.613-37.326-21.219-2.43-.537-2.612-4.131.142-4.414 34.592-3.736 64.943.232 77.546 2.257 2.926.506 5.143-1.205 3.979-3.887-.931-2.065-1.63-2.977-3.108-6.135-3.088-6.651-11.227-13.657-21.583-16.562-27.233-7.573-73.589-14.113-114.843-14.356-46.467-.293-95.465 8.98-107.847 11.804-2.956.628-7.116 1.701-7.876 1.823-3.381.688-4.191 3.918-2.693 5.477.891.982 3.473 3.158 4.698 4.656 1.528 1.924 2.227 4.657-.668 7.502l-85.95 77.162h59.476c3.817-.131 7.461 3.381 7.461 7.775.041 3.938-3.168 7.724-7.177 7.724H63.971l-23.375 21.26h100.011l.567-.051c3.938.051 6.985 4.05 6.914 7.796-.03 3.401-2.926 7.592-6.914 7.592l-.608.061H23.467L.051 236.87h201.996l.648.02c3.979 0 7.066 4.12 7.097 7.694.06 4.13-2.865 7.836-6.945 7.815H0v21.108h201.834l.608.051c4.637.04 7.34 4.221 7.319 8.018-.03 3.563-3.391 7.339-7.41 7.339H0v21.229h264.125c4.394.122 7.188 3.888 7.066 8.018-.121 3.574-3.087 7.34-7.036 7.34H70.987v21.27h189.959l4.04-.051c3.553 0 6.62 4.424 6.62 7.998 0 3.594-3.138 7.481-6.722 7.481l-3.938.01Zm-119.053 72.951-.021 21.624s28.559.091 44.838 0c40.15-.314 66.451-21.624 66.451-21.624H141.893Zm0-36.364-.021 21.158h128.985c5.943-6.064 13.586-17.078 15.621-21.107l-144.585-.051Z"/></g></svg>