<svg xmlns="http://www.w3.org/2000/svg" width="512pt" height="512pt" style="isolation:isolate" viewBox="0 0 512 512"><defs><clipPath id="a"><path d="M0 0h512v512H0z"/></clipPath></defs><g clip-path="url(#a)"><path fill="#0970CB" d="M205.02 343.645c-7.567-48.739 5.784-98.903 17.474-134.014 24.026-59.12 12.45-117.749-54-88.678-18.911 8.704-47.816 38.711-61.14 63.788-41.095 77.343-27.278 194.256 23.045 194.994 20.482-.786 47.954-20.573 74.621-36.09ZM62.363 433.343c-18.303-5.832-42.246-31.488-51.482-55.164-14.763-42.934-14.707-102.056 1.412-149.915C34.975 162.982 84.384 105.527 132.36 87.063c44.049-16.872 112.131-17.832 156.727 30.468 34.658-32.969 86.116-43.745 114.708-43.327C474.884 71.065 512 99.695 512 153.245c0 19.192-14.487 46.951-31.839 61.007-20.424 16.546-147.406 96.36-153.497 96.36l-.354-37.664 37.479-26.454c48.307-34.098 64.699-51.818 70.05-75.729 13.677-61.117-49.702-78.205-96.599-26.044-47.143 52.434-64.759 161.845-34.431 213.848 23.316 39.979 69.563 27.584 142.679-15.821l28.149-18.056 19.888 27.74c-28.285 24.38-57.517 45.451-87.147 64.196-26.421 14.652-51.612 21.176-81.771 21.176-56.101-.894-91.551-15.537-108.093-54.306-1.293-.116-14.414 10.616-30.924 21.721-37.757 25.313-84.186 41.208-123.227 28.124Z"/></g></svg>