<svg xmlns="http://www.w3.org/2000/svg" width="334" height="65.5"><path d="M228.233 32.435c-4.421-3.741-3.22-10.74 2.148-12.522 6.074-2.015 11.992 3.742 9.792 9.527-1.795 4.722-8.046 6.29-11.94 2.995zm197.513 29.788c-.423 6.978 2.656 13.316 8.463 13.435 4.35.328 9.429-4.529 9.05-13.11-.318-7.198-2.148-12.831-8.784-13.097-5.28.314-8.257 4.992-8.729 12.772zm30.723-.01c.275 14.978-8.94 24.784-22.1 25.278-12.443.466-22.21-10.523-22.098-25.013.106-13.813 9.364-24.16 21.568-24.348 13.002-.202 22.371 10.051 22.63 24.083zm-73.885-23.34 9.4.04 2.317 7.497c2.669-8.345 10.308-8.472 14.293-7.981l.013 14.265-12.901.765-.055 32.867h-13.178zm-131.43-.141 9.4.04 2.317 7.497c2.67-8.345 10.308-8.472 14.294-7.982l.013 14.266-12.902.765-.054 32.867h-13.178zm35.158 47.688.003-31.167.06-31.821 36.569-.04-.009 11.008-21.947.021c.012 4.512.074 10.332.053 14.844l18.29.158.002 11.05-18.355-.059.05 14.96 13.052.06 8.868.05.008 10.942zm-59.758-.387.026-47.348h13l-.07 47.464zM197.64 61.89l-5.666-23.268-5.408 23.313zm-31.962 23.967 16.702-61.879 19.436.117L218.763 86.1l-15.583.05-2.8-10.734c-5.46.088-11.584.2-17.04.052l-2.662 10.627zm371.833-11.865-.128-8.358c-8.13-1.199-16.677 3.137-12.24 10.051 2.6 4.053 9.756 1.744 12.368-1.693zm-16.036 13.112c-7.187-2.086-10.942-10.194-9.353-18.077 1.042-5.164 4.611-11.434 18.587-12.252l6.423-.375c.625-.037-.024-4.105-1.195-5.67-4.161-5.918-11.953-2.107-19.115-.233l-2.853-8.93c2.278-1.185 5.202-2.033 9.124-3.385 7.159-2.467 16.994-.96 21.196 1.693 2.518 1.59 4.441 4.208 5.963 7.658.555 1.257 1.139 4.352 1.17 5.901l.158 32.913-10.122.073-2.305-5.524c-5.433 6.507-10.424 8.255-17.678 6.208zm-178.895.148c-4.293-1.035-6.996-2.954-9.134-6.485-1.652-2.73-1.866-5.315-1.866-22.582v-19.5h13l.07 29.605c-.01 2.245.041 4.019.75 5.361 2.595 4.913 9.31 4.04 11.476-.719.486-1.066.487-2.877.486-4.27l.084-29.885 13.702-.092.035 48.57-10.747-.036-1.865-6.033c-1.773 1.822-3.787 3.78-5.891 4.91-3.27 1.336-7.046 1.741-10.1 1.156zM491.654 71.28c1.005-3.565 1.171-6.52 1.127-10.344-.084-7.22-2.029-14.138-8.963-13.826-1.072.048-3.88.417-5.846 2.926l-.017 24.164c2.86 4.523 12.038 2.969 13.699-2.92zm-26.928-33.985 10.468.051 1.53 5.532c.741-2.322 6.583-6.213 10.987-6.282 7.277-.715 13.902 4.138 16.785 12.297 1.928 5.455 2.092 18.388.437 24.961-2.402 9.537-11.908 14.773-20.98 13.296-2.161-.351-4.002-1.344-6.003-2.016l-.116 16.701-13.083-.018zM60.981 79.55c-2.22-14.306 1.698-29.029 5.129-39.334 7.051-17.352 3.654-34.56-15.85-26.027-5.55 2.555-14.033 11.362-17.944 18.722-12.061 22.7-8.006 57.014 6.764 57.23 6.011-.23 14.075-6.038 21.901-10.592zm-41.87 26.325c-5.371-1.711-12.399-9.241-15.11-16.19-4.332-12.601-4.316-29.954.415-44 6.657-19.16 21.159-36.023 35.24-41.443C52.584-.71 72.566-.99 85.655 13.185 95.827 3.508 110.93.345 119.322.468c20.864-.921 31.758 7.482 31.758 23.199 0 5.633-4.252 13.78-9.345 17.905-5.994 4.856-43.263 28.282-45.051 28.282L96.58 58.8l11-7.765c14.178-10.007 18.99-15.208 20.56-22.226 4.014-17.938-14.588-22.953-28.352-7.644C85.95 36.555 80.78 68.666 89.682 83.929c6.843 11.734 20.417 8.096 41.877-4.643l8.261-5.3 5.838 8.142c-8.302 7.156-16.882 13.34-25.578 18.841-7.755 4.301-15.148 6.216-24 6.216-16.466-.263-26.87-4.56-31.725-15.94-.38-.033-4.23 3.117-9.076 6.376-11.082 7.43-24.709 12.095-36.167 8.254z" style="opacity:1;fill:#0970cb;fill-opacity:1;stroke:none;stroke-width:.75000006;stroke-miterlimit:4;stroke-dasharray:none;stroke-opacity:1" transform="translate(.32 .358) scale(.60506)"/></svg>