<svg xmlns="http://www.w3.org/2000/svg" width="512pt" height="512pt" style="isolation:isolate" viewBox="0 0 512 512"><defs><clipPath id="a"><path d="M0 0h512v512H0z"/></clipPath></defs><g clip-path="url(#a)"><path fill="#FF5A5F" d="M487.134 363.884c-2.562-6.15-5.125-12.813-7.688-18.451-4.1-9.225-8.2-17.938-11.787-26.138l-.513-.512c-35.363-76.877-73.289-154.779-113.265-231.656l-1.538-3.075c-4.1-7.688-8.2-15.888-12.3-24.088-5.125-9.225-10.25-18.963-18.45-28.188C305.192 11.275 281.617 0 256.503 0c-25.625 0-48.688 11.275-65.601 30.751-7.688 9.225-13.325 18.963-18.451 28.188-4.1 8.2-8.2 16.4-12.3 24.088l-1.537 3.075C119.15 162.979 80.712 240.881 45.348 317.758l-.512 1.025c-3.588 8.2-7.688 16.913-11.788 26.138-2.563 5.638-5.125 11.788-7.688 18.45-6.662 18.963-8.712 36.901-6.15 55.352 5.638 38.438 31.263 70.726 66.627 85.077C99.162 509.437 113 512 127.35 512c4.1 0 9.226-.513 13.326-1.025 16.913-2.05 34.338-7.688 51.251-17.425 21.013-11.788 41.001-28.701 63.551-53.302 22.551 24.601 43.051 41.514 63.552 53.302 16.913 9.737 34.338 15.375 51.251 17.425 4.1.512 9.225 1.025 13.326 1.025 14.35 0 28.7-2.563 41.513-8.2 35.876-14.351 60.989-47.151 66.627-85.077 4.1-17.938 2.05-35.876-4.613-54.839Zm-231.143 26.651c-27.676-34.851-45.614-67.652-51.764-95.328-2.562-11.788-3.075-22.038-1.537-31.263 1.025-8.2 4.1-15.375 8.2-21.526 9.738-13.837 26.138-22.55 45.101-22.55 18.963 0 35.876 8.2 45.101 22.55 4.1 6.151 7.175 13.326 8.2 21.526 1.538 9.225 1.025 19.988-1.537 31.263-6.15 27.163-24.088 59.964-51.764 95.328Zm204.492 24.088c-3.587 26.65-21.525 49.713-46.638 59.964-12.301 5.125-25.626 6.662-38.951 5.125-12.813-1.538-25.626-5.638-38.951-13.326-18.451-10.25-36.901-26.138-58.427-49.713 33.826-41.514 54.327-79.44 62.014-113.266 3.588-15.887 4.101-30.238 2.563-43.563-2.05-12.813-6.663-24.601-13.838-34.851-15.888-23.063-42.538-36.388-72.264-36.388s-56.376 13.837-72.264 36.388c-7.176 10.25-11.788 22.038-13.838 34.851-2.05 13.325-1.538 28.188 2.562 43.563 7.688 33.826 28.701 72.265 62.014 113.778-21.013 23.576-39.976 39.464-58.426 49.714-13.325 7.688-26.138 11.788-38.951 13.325a81.97 81.97 0 0 1-38.951-5.125c-25.113-10.25-43.051-33.313-46.639-59.964-1.537-12.813-.512-25.625 4.613-39.976 1.538-5.125 4.1-10.25 6.663-16.4 3.587-8.2 7.687-16.913 11.788-25.626l.512-1.025c35.363-76.364 73.289-154.266 112.753-230.118l1.537-3.075c4.1-7.688 8.201-15.888 12.301-23.576 4.1-8.2 8.712-15.888 14.35-22.55 10.763-12.301 25.113-18.963 41.001-18.963 15.888 0 30.238 6.662 41.001 18.963 5.638 6.662 10.25 14.35 14.35 22.55 4.1 7.688 8.201 15.888 12.301 23.576l1.537 3.075c38.951 76.364 76.877 154.266 112.24 230.631v.512c4.1 8.2 7.688 17.426 11.788 25.626 2.563 6.15 5.125 11.275 6.663 16.4 4.1 13.325 5.637 26.138 3.587 39.464Z"/></g></svg>