<svg xmlns="http://www.w3.org/2000/svg" width="301" height="91.906"><path d="m460.56 559.21-34.242 57.497c-3.57 5.913-5.526 11.894-6.067 17.653h-13.404c.91-7.278 3.793-14.169 9.62-24.098l23.934-40.145c4.78-7.946 9.551-10.838 18.193-10.838h1.965v-.07zm9.994 30.909c-17.343 0-28.027 10.152-37.416 32.275-2.351 5.527-3.715 12.418 4.317 12.35 4.54-.078 12.195-2.584 17.575-6.3-.455 1.82-.686 4.325-.532 5.836h12.195c.454-4.772 2.274-10.676 6.282-17.876l15.232-25.367a167.857 167.857 0 0 0-17.653-.918m-12.649 29.392c-2.497 2.351-7.346 5.827-11.43 5.904-2.815-.146-2.961-2.798-1.073-6.436 7.208-13.86 14.854-21.206 24.166-21.137h1.673l-13.336 21.669zm137.948-29.392c-17.344 0-28.02 10.152-37.416 32.275-2.352 5.527-3.716 12.418 4.316 12.35 4.549-.078 12.195-2.584 17.576-6.3-.455 1.82-.687 4.325-.532 5.836H592c.446-4.772 2.265-10.676 6.282-17.876l15.155-25.367a167.64 167.64 0 0 0-17.584-.918m-12.65 29.392c-2.497 2.351-7.345 5.827-11.43 5.904-2.815-.146-2.96-2.798-1.064-6.436 7.2-13.86 14.846-21.206 24.166-21.137h1.673l-13.344 21.669z" style="fill:#00385f;fill-opacity:1;fill-rule:nonzero;stroke:none" transform="translate(-312.937 -555.149)"/><path d="M556.236 646.554h-4.017c-5.149 0-9.697-3.484-11.053-8.41l-6.058-22.87-11.294 19.008h-12.958l36.214-61.359c4.695-7.955 9.543-10.838 18.185-10.838h1.365l-24.098 40.686 18.03-12.427h14.478l-30.38 20.991 11.586 35.22zm-119.541-90.905c-12.194 0-18.562 3.26-30.533 11.894l-40.6 29.246h-25.985c-7.51 0-13.56.3-18.262 4.763l-6.737 6.222s19.54-.764 37.725-1.45l-38.866 28.044h16.82l39.776-28.714c7.724-.309 13.018-.455 13.104-.455 9.243-.24 14.392-8.41 14.392-8.41h-15.224l32.112-23.187-23.857 38.634c-5.08 8.865-7.577 15.233-8.41 22.047h13.791c.524-5.759 2.497-11.74 6.05-17.653l32.508-54.236c2.265-3.716 4.239-6.745 4.239-6.745h-2.043zm64.693 46.891c-.155 1.142.309 1.897 2.651 3.407l3.716 2.42c4.016 2.66 5.673 6.677 5.158 9.93-1.373 9.087-8.041 16.433-22.278 16.433-6.222 0-9.02-.214-16.443-1.433l5.527-9.32c5.157.91 8.032 1.374 11.894 1.374 5.39 0 7.51-2.429 7.81-4.403.145-1.133-.387-2.497-2.953-4.248l-2.96-2.11c-4.695-3.408-5.982-6.06-5.372-10.23 1.21-8.024 10.52-14.246 23.402-14.246 4.093 0 8.487.232 13.336.764l-5.227 8.796c-3.192-.24-8.332-.54-11.971-.386-3.639.077-6.059 1.356-6.29 3.253" style="fill:#00385f;fill-opacity:1;fill-rule:nonzero;stroke:none" transform="translate(-312.937 -555.149)"/></svg>