<svg xmlns="http://www.w3.org/2000/svg" width="512pt" height="512pt" style="isolation:isolate" viewBox="0 0 512 512"><defs><clipPath id="a"><path d="M0 0h512v512H0z"/></clipPath></defs><g clip-path="url(#a)"><linearGradient id="b" x1=".5" x2=".5" y1="-.026" y2="1.515" gradientTransform="matrix(289.675 0 0 211.545 222.325 295.498)" gradientUnits="userSpaceOnUse"><stop offset="0%" style="stop-color:#ed1c24"/><stop offset="12.63%" style="stop-color:#e81b23"/><stop offset="27.03%" style="stop-color:#db1a21"/><stop offset="42.29%" style="stop-color:#c4171d"/><stop offset="58.16%" style="stop-color:#a41317"/><stop offset="74.36%" style="stop-color:#7b0e10"/><stop offset="75.46%" style="stop-color:#780e0f"/></linearGradient><path fill="url(#b)" d="M277.32 460.766c28.756 47.267 74.701 46.275 86.93 46.275H512L337.697 295.498c-80.43 3.306-122.959 54.869-114.255 76.464l53.878 88.804Z"/><linearGradient id="c" x1="0" x2="1" y1=".499" y2=".499" gradientTransform="matrix(118.993 0 0 109.848 218.705 262.224)" gradientUnits="userSpaceOnUse"><stop offset="0%" style="stop-color:#69231d"/><stop offset="26.47%" style="stop-color:#8d2922"/><stop offset="58.12%" style="stop-color:#b22f26"/><stop offset="83.77%" style="stop-color:#c93329"/><stop offset="100%" style="stop-color:#d1342a"/></linearGradient><path fill="url(#c)" d="M223.442 372.072c-.22-.33-4.737-11.017-4.737-23.908 0-48.259 42.859-76.024 91.448-85.94l27.544 33.384c-80.43 3.196-122.959 54.759-114.255 76.464Z"/><linearGradient id="d" x1=".195" x2=".791" y1=".54" y2=".181" gradientTransform="matrix(222.34 0 0 157.005 162.293 214.958)" gradientUnits="userSpaceOnUse"><stop offset="10%" style="stop-color:#e7ebee"/><stop offset="35.11%" style="stop-color:#d5dce0"/><stop offset="85.49%" style="stop-color:#a5b4bb"/><stop offset="100%" style="stop-color:#96a7b0"/></linearGradient><path fill="url(#d)" d="M290.651 214.958c-73.489 0-128.358 12.119-128.358 40.876 0 10.577 3.305 19.722 12.34 35.918l48.809 80.21c-.22-.33-4.737-11.018-4.737-23.909 0-48.258 42.859-76.023 91.448-85.939a216.38 216.38 0 0 1 42.749-4.297c11.899 0 23.138.661 31.732 3.746-5.069-18.51-18.51-46.605-93.983-46.605Z"/><linearGradient id="e" x1=".5" x2=".5" y1="1.13" y2=".012" gradientTransform="matrix(265.09 0 0 201.406 0 4.957)" gradientUnits="userSpaceOnUse"><stop offset="0%" style="stop-color:#1c2f72"/><stop offset="12.75%" style="stop-color:#174687"/><stop offset="40.38%" style="stop-color:#0d72af"/><stop offset="65.12%" style="stop-color:#0692cc"/><stop offset="85.84%" style="stop-color:#02a6de"/><stop offset="100%" style="stop-color:#00ade4"/></linearGradient><path fill="url(#e)" d="M97.398 164.937c20.163 33.163 27.655 41.427 75.803 41.427h91.889L138.384 46.384C110.399 11.788 94.313 5.508 68.641 4.957H0l97.398 159.98Z"/></g></svg>