<svg xmlns="http://www.w3.org/2000/svg" width="512pt" height="512pt" style="isolation:isolate" viewBox="0 0 512 512"><defs><clipPath id="a"><path d="M0 0h512v512H0z"/></clipPath></defs><g clip-path="url(#a)"><path fill="#1A1918" d="M512 256.002c0 141.389-114.609 255.996-256 255.996-141.379 0-256-114.607-256-255.996 0-141.38 114.621-256 256-256 141.391 0 256 114.62 256 256Z"/><path fill="#FFF" d="m260.31 156.386 66.247 163.506-100.066-78.822 33.819-84.684Zm117.687 201.172L276.095 112.323c-2.909-7.073-8.726-10.816-15.785-10.816-7.073 0-13.313 3.743-16.222 10.816L132.243 381.315h38.26l44.275-110.906L346.904 377.15c5.313 4.297 9.148 6.24 14.132 6.24 9.981 0 18.706-7.483 18.706-18.284 0-1.758-.621-4.548-1.745-7.548Z"/></g></svg>