<svg enable-background="new 0 0 24 24" viewBox="0 0 24 24" xmlns="http://www.w3.org/2000/svg"><circle cx="12" cy="12" fill="#fff" r="12"/><path d="m12 .4c-6.4 0-11.6 5.2-11.6 11.6s5.2 11.6 11.6 11.6 11.6-5.2 11.6-11.6-5.2-11.6-11.6-11.6z" fill="#fff"/><path d="m19.6849 8.1528c-.0633-3.4056-2.2233-5.9812-4.2533-6.9634-1.5482-.749-2.9471-.7894-3.3793-.7894h-.0188-.0335-.0335-.0188c-.4322 0-1.8311.0404-3.3793.7894-2.03.9822-4.19 3.5578-4.2533 6.9634l-.0005 7.6037.0055.3506c.0633 3.4056 2.6896 7.1023 5.0955 7.1023v-2.3645l.0259-4.546v-2.3714s-1.3681-.0203-2.3869-.6449c-.5977-.3664-1.132-1.0774-1.132-1.0774s1.4915-1.2238 2.731-1.372c3.6286-.434 2.4507 5.424 2.4507 5.424l.8957.918.8956-.9179s-1.178-5.858 2.4507-5.424c1.2395.1482 2.731 1.372 2.731 1.372s-.5343.711-1.132 1.0774c-1.0188.6246-2.3869.6449-2.3869.6449v2.3714l.0259 4.546v2.3645c2.4059 0 5.0322-3.6967 5.0955-7.1023l.0056-.3506zm-5.1149.3142v.0145h-.1736c-.878.0943-1.5134.5113-2.0351 1.0471l-.3613.3965-.3612-.3965c-.5217-.5358-1.1571-.9528-2.0351-1.0471h-.1737v-.0145-.5374c0-1.4194 2.57-2.614 2.57-2.614s2.57 1.1947 2.57 2.614z" fill="#e2bb81"/><path d="m12 17.1752.8956-.9179s-1.178-5.858 2.4507-5.424c1.2395.1482 2.731 1.372 2.731 1.372s-.5343.711-1.132 1.0774c-1.0188.6246-2.3869.6449-2.3869.6449v2.3714l.0259 4.546v2.3645c2.4059 0 5.0322-3.6967 5.0955-7.1023l.0056-.3506-.0003-5.0639c-.4469-.1037-.8619-.2828-1.1267-.444-.7832-.4768-1.7898-1.5786-3.2772-1.7565-.2533-.0304-.4897-.0378-.7112-.0252v.0145h-.1736c-.878.0943-1.5134.5113-2.0351 1.0471l-.3613.3965z" fill="#cfa46b"/><path d="m8.7188 8.492c.2533-.0302.4896-.0376.7112-.025v-.5374c0-1.4194 2.57-2.614 2.57-2.614s2.57 1.1947 2.57 2.614v.5374c.2216-.0125.458-.0052.7112.0251 1.4874.1779 2.494 1.2798 3.2772 1.7565.2647.1612.6798.3403 1.1267.444l-.0002-2.5398c-.0633-3.4056-2.2233-5.9812-4.2533-6.9634-1.5482-.749-2.9471-.7894-3.3793-.7894h-.0188-.0335-.0335-.0188c-.4322 0-1.8311.0404-3.3793.7894-2.03.9822-4.19 3.5578-4.2533 6.9634l-.0001 2.5398c.4469-.1037.862-.2828 1.1267-.444.7831-.4768 1.7898-1.5787 3.2771-1.7566z" fill="#c79c6a"/></svg>