<svg xmlns="http://www.w3.org/2000/svg" width="709.492" height="88.033" style="isolation:isolate" viewBox="0 0 532.119 66.025"><defs><clipPath id="a"><path d="M0 0h532.119v66.025H0z"/></clipPath></defs><g clip-path="url(#a)"><linearGradient id="b" x1=".997" x2=".491" y1=".158" y2="1.035" gradientTransform="matrix(28.212 0 0 35.824 -.002 29.386)" gradientUnits="userSpaceOnUse"><stop offset="0%" style="stop-color:#0052cc"/><stop offset="92.3%" style="stop-color:#2684ff"/></linearGradient><path fill="url(#b)" d="M19.354 30.115a1.856 1.856 0 0 0-3.157.343L.2 62.442a1.91 1.91 0 0 0 1.71 2.767h22.275a1.842 1.842 0 0 0 1.71-1.057c4.805-9.929 1.893-25.026-6.541-34.037Z"/><path fill="#2684FF" d="M31.087 1.024a42.188 42.188 0 0 0-2.463 41.65l10.739 21.478a1.912 1.912 0 0 0 1.71 1.057h22.271a1.91 1.91 0 0 0 1.71-2.767S35.092 2.511 34.339 1.012a1.805 1.805 0 0 0-3.252.012Z"/><path fill="#0052CC" d="M292.314 26.669c0 7.92 3.674 14.208 18.045 16.984 8.574 1.8 10.37 3.184 10.37 6.042 0 2.776-1.8 4.573-7.839 4.573a44.235 44.235 0 0 1-20.821-5.634v12.9c4.328 2.123 10.043 4.491 20.658 4.491 15.024 0 20.985-6.7 20.985-16.657m0 0c0-9.39-4.981-13.8-19.025-16.82-7.757-1.715-9.635-3.429-9.635-5.879 0-3.1 2.776-4.409 7.92-4.409 6.206 0 12.33 1.878 18.127 4.491v-12.33a40.977 40.977 0 0 0-17.719-3.674c-13.881 0-21.066 6.042-21.066 15.922m193.018-15.106v53.646h11.431V24.301l4.818 10.859 16.167 30.049h14.371V11.563h-11.431v34.621L516.36 36.14l-12.983-24.577h-18.045Zm-85.199 0h12.493v53.646h-12.493zm-14.415 37.805c0-9.39-4.981-13.8-19.025-16.82-7.757-1.715-9.635-3.429-9.635-5.879 0-3.1 2.776-4.409 7.92-4.409 6.206 0 12.33 1.878 18.127 4.491v-12.33a40.977 40.977 0 0 0-17.719-3.674c-13.881 0-21.066 6.042-21.066 15.922 0 7.92 3.674 14.208 18.045 16.984 8.574 1.8 10.37 3.184 10.37 6.042 0 2.776-1.8 4.573-7.839 4.573a44.235 44.235 0 0 1-20.821-5.634v12.9c4.328 2.123 10.043 4.491 20.658 4.491 15.024 0 20.985-6.7 20.985-16.657M195.265 11.563v53.646h25.678l4.043-11.595h-17.147V11.563h-12.574Zm-50.732 0v11.594h13.881v42.052h12.574V23.157h14.861V11.563h-41.316Zm-18.233 0h-16.479L91.114 65.209H105.4l2.652-9.035a35.505 35.505 0 0 0 20.008 0l2.652 9.035h14.289L126.3 11.563ZM118.06 46.5a24.39 24.39 0 0 1-6.875-.989L118.06 22.1l6.875 23.419a24.419 24.419 0 0 1-6.875.981Zm147.151-34.937h-16.478l-18.707 53.646h14.289l2.652-9.035a35.505 35.505 0 0 0 20.008 0l2.652 9.035h14.289l-18.705-53.646ZM256.972 46.5a24.39 24.39 0 0 1-6.875-.989l6.875-23.411 6.875 23.419a24.419 24.419 0 0 1-6.875.981Zm200.672-34.937h-16.478l-18.707 53.646h14.289l2.652-9.035a35.505 35.505 0 0 0 20.008 0l2.652 9.035h14.29l-18.706-53.646ZM449.4 46.5a24.39 24.39 0 0 1-6.875-.989L449.4 22.1l6.875 23.419a24.419 24.419 0 0 1-6.875.981Z"/></g></svg>