<svg xmlns="http://www.w3.org/2000/svg" width="512pt" height="512pt" style="isolation:isolate" viewBox="0 0 512 512"><defs><clipPath id="a"><path d="M0 0h512v512H0z"/></clipPath></defs><g clip-path="url(#a)"><circle cx="256" cy="256" r="256" fill="#60B57D" vector-effect="non-scaling-stroke"/><path fill="#FFF" d="M235.635 118.285a7.21 7.21 0 0 1-9.029 11.241c-18.793-15.096-34.446-20.081-44.101-15.152-11.236 5.73-15.594 24.166-13.326 49.892l.342 3.473c.19 1.758.41 3.547.659 5.365l.538 3.677c.667 4.299 1.49 8.752 2.47 13.339 13.532-2.098 28.098-3.468 43.394-4.04 6.636-8.525 13.382-16.526 20.158-23.935l3.396-3.661c8.493-9.026 17.011-17.105 25.393-24.098l3.345-2.739c30.59-24.57 59.062-34.292 77.475-22.337 16.039 10.405 20.338 33.977 14.381 65.566a7.21 7.21 0 0 1-14.168-2.672c4.988-26.455 1.704-44.464-8.063-50.8-12.693-8.241-36.281 1.246-62.877 23.403l-2.968 2.513a254.095 254.095 0 0 0-4.491 3.963l-3.019 2.768a298.784 298.784 0 0 0-9.144 8.89l-3.07 3.154c-.512.533-1.024 1.07-1.537 1.611l-3.079 3.293-3.082 3.383-3.082 3.471a360.435 360.435 0 0 0-3.081 3.559l-3.077 3.645-.599.726c7.172.038 14.469.246 21.863.63l2.87.158 5.705.366c4.733.332 9.413.732 14.034 1.198l5.515.59c.914.103 1.826.209 2.735.318l5.423.682c4.493.594 8.919 1.251 13.269 1.968l5.184.889 5.109.946 5.032 1.001c16.64 3.431 31.938 7.776 45.42 12.868l3.99 1.55c35.408 14.148 57.228 33.624 56.108 55.151-.928 17.797-16.88 32.487-43.618 43.014a7.209 7.209 0 1 1-5.282-13.415c22.049-8.681 33.943-19.635 34.502-30.349.713-13.716-15.698-27.902-43.015-39.344l-3.399-1.387a221.327 221.327 0 0 0-7.115-2.687l-3.711-1.297a261.757 261.757 0 0 0-3.81-1.265l-3.906-1.23-4-1.195a310 310 0 0 0-2.034-.584l-4.136-1.14c-.697-.187-1.397-.372-2.101-.555l-4.266-1.082a350.17 350.17 0 0 0-13.29-2.996l-4.585-.911a457.79 457.79 0 0 0-2.321-.439l-4.695-.842-4.764-.795c-.8-.128-1.602-.254-2.408-.379l-4.864-.72a418.886 418.886 0 0 0-4.927-.67l-4.989-.617-5.046-.564a443.664 443.664 0 0 0-7.674-.742l-5.181-.423a435.06 435.06 0 0 0-5.231-.366l-5.277-.306-5.281-.243-5.241-.179a433.885 433.885 0 0 0-17.984-.138l-4.12.078-1.62 2.148a442.082 442.082 0 0 0-3.011 4.089l-2.992 4.164a442.553 442.553 0 0 0-13.132 19.602l-2.775 4.448c-2.955 4.8-5.778 9.59-8.464 14.354.247.603.497 1.209.749 1.815l1.96 4.629c.333.773.669 1.547 1.008 2.323l2.073 4.663 2.149 4.682 2.223 4.699 2.299 4.713 2.374 4.723 2.43 4.695 2.464 4.628 2.498 4.56c.419.754.84 1.505 1.261 2.253l2.543 4.453c.853 1.472 1.71 2.932 2.571 4.379l2.596 4.305a402.172 402.172 0 0 0 2.619 4.227l2.64 4.149 2.658 4.069a384.259 384.259 0 0 0 6.712 9.807l2.706 3.773a348.155 348.155 0 0 0 5.434 7.279l2.724 3.502 2.727 3.408c.454.56.908 1.116 1.363 1.668l2.724 3.265 2.721 3.166a259.329 259.329 0 0 0 8.118 8.89l2.684 2.756 2.669 2.647a200.365 200.365 0 0 0 3.97 3.768l2.622 2.372a164.054 164.054 0 0 0 3.889 3.345l2.561 2.085c17.403 13.849 32.826 19.443 43.065 14.22 9.615-4.903 14.203-19.216 13.865-39.515l-.088-3.089a143.444 143.444 0 0 0-.161-3.176l-.236-3.261c-.09-1.101-.193-2.216-.309-3.344l-.382-3.422c-.07-.577-.143-1.158-.219-1.741l-.493-3.537-.566-3.61-.64-3.681a253.778 253.778 0 0 0-1.919-9.494l-.895-3.907-.969-3.967c-.167-.665-.338-1.334-.512-2.004l-1.078-4.05-1.15-4.103c-.198-.688-.399-1.378-.603-2.07l-1.26-4.176-1.332-4.223a370.436 370.436 0 0 0-2.135-6.415l-1.513-4.326-1.586-4.364a401.7 401.7 0 0 0-3.389-8.829l-1.803-4.46-1.874-4.487c-.319-.75-.64-1.5-.965-2.252l-1.982-4.522-2.055-4.543c-.348-.759-.699-1.518-1.054-2.278l-2.162-4.569c-.366-.762-.736-1.525-1.108-2.289a7.21 7.21 0 0 1 12.96-6.318l2.391 4.979a465.95 465.95 0 0 1 2.313 4.964l2.234 4.947a440.021 440.021 0 0 1 6.226 14.713l1.914 4.852c.312.807.621 1.612.927 2.415l1.792 4.806c.292.798.581 1.595.866 2.39l1.67 4.753a373.078 373.078 0 0 1 3.091 9.388l1.42 4.63c17 56.817 14.819 103.027-10.681 116.029-20.626 10.521-49.872-4.092-79.309-34.91l-3.046-3.245a276.967 276.967 0 0 1-6.087-6.829l-3.037-3.579c-8.091-9.688-16.109-20.516-23.875-32.295l-2.901-4.462c-7.22-11.264-14.2-23.344-20.795-36.086l-1.313-2.557c-.873-1.71-1.731-3.42-2.577-5.127l-2.494-5.118a460.53 460.53 0 0 1-5.652-12.226l-1.163 2.304c-.359.721-.715 1.44-1.068 2.158l-2.074 4.295-1.995 4.263-1.915 4.23c-.312.702-.621 1.402-.926 2.101l-1.793 4.173c-.292.692-.581 1.383-.866 2.071l-1.671 4.111c-.272.681-.54 1.361-.804 2.038l-1.548 4.042c-.251.669-.498 1.337-.742 2.002l-1.423 3.966-1.34 3.912a262.353 262.353 0 0 0-1.851 5.761l-1.13 3.766-1.044 3.701c-.167.612-.33 1.221-.49 1.827l-.916 3.6a185.088 185.088 0 0 0-1.912 8.687l-.614 3.341c-4.08 23.659-1.421 41.107 8.69 47.668 10.183 6.607 29.065 1.581 52.365-15.24a7.209 7.209 0 1 1 8.44 11.69c-27.615 19.936-52.025 26.433-68.653 15.645-20.091-13.038-21.503-47.514-8.131-90.403l1.386-4.316a289.59 289.59 0 0 1 3.065-8.79l1.677-4.467a345.048 345.048 0 0 1 7.649-18.286l2.144-4.661 2.234-4.691a416.674 416.674 0 0 1 9.164-17.793 585.9 585.9 0 0 1-1.283-3.305l-1.865-4.951a376.906 376.906 0 0 1-6.592-19.426l-1.428-4.747a322.426 322.426 0 0 1-2.481-8.933c-.889.178-1.769.36-2.643.545l-3.92.862-3.826.905c-.629.155-1.255.311-1.876.468l-3.678.968-3.577 1.007a194.42 194.42 0 0 0-3.472 1.046l-3.365 1.085c-1.104.367-2.189.741-3.256 1.121l-3.144 1.158c-21.605 8.225-34.766 19.019-35.378 30.776-.559 10.715 10.135 22.845 31.166 33.766a7.21 7.21 0 0 1-6.644 12.796c-25.506-13.244-39.849-29.514-38.92-47.312 1.29-24.811 32.61-43.75 79.194-53.312-9.428-45.05-4.63-80.101 17.04-91.152 16.017-8.176 36.942-1.514 59.683 16.754Zm39.507 134.1c2.392 11.071-4.643 21.978-15.714 24.375-11.071 2.392-21.978-4.644-24.375-15.715-2.388-11.071 4.644-21.978 15.715-24.375 11.07-2.392 21.978 4.644 24.374 15.715Zm-69.795-51.213-1.302.091c-.993.072-1.981.147-2.965.226l-4.69.404-4.62.457c-.764.08-1.525.163-2.283.248l-4.511.534c-.745.093-1.488.188-2.227.285l-4.395.609-1.744.266.616 2.301c.965 3.507 2.01 7.071 3.136 10.685l1.388 4.36c.238.731.479 1.463.723 2.197l1.504 4.427c.414 1.194.836 2.393 1.266 3.596a479.922 479.922 0 0 1 7.082-11.409l1.557-2.416a470.25 470.25 0 0 1 11.465-16.861Z"/></g></svg>