<svg xmlns="http://www.w3.org/2000/svg" width="512pt" height="512pt" style="isolation:isolate" viewBox="0 0 512 512"><defs><clipPath id="a"><path d="M0 0h512v512H0z"/></clipPath></defs><g clip-path="url(#a)"><linearGradient id="b" x1="0" x2=".707" y1=".5" y2="1.207" gradientTransform="matrix(96.472 0 0 105.076 238.811 25.533)" gradientUnits="userSpaceOnUse"><stop offset="0%" style="stop-color:#9c60ad"/><stop offset="100%" style="stop-color:#b36ab6"/></linearGradient><path fill="url(#b)" fill-rule="evenodd" d="m335.283 98.894-47.519 31.715-48.953-73.361 47.519-31.715 48.953 73.361Z"/><linearGradient id="c" x1="0" x2=".561" y1=".5" y2="1.328" gradientTransform="matrix(192.074 0 0 207.434 263.034 298.064)" gradientUnits="userSpaceOnUse"><stop offset="0%" style="stop-color:#9e2078"/><stop offset="46.31%" style="stop-color:#77327a"/><stop offset="83.45%" style="stop-color:#6e4d9b"/></linearGradient><path fill="url(#c)" fill-rule="evenodd" d="m373.916 319.288 81.191 121.665-96.718 64.544-81.191-121.667-14.164-21.223 96.72-64.543 14.162 21.224Z"/><linearGradient id="d" x1="0" x2=".616" y1=".5" y2="1.288" gradientTransform="matrix(105.658 0 0 97.138 164.316 379.355)" gradientUnits="userSpaceOnUse"><stop offset="0%" style="stop-color:#8356a3"/><stop offset="100%" style="stop-color:#b66bb7"/></linearGradient><path fill="url(#d)" fill-rule="evenodd" d="m252.098 400.58 17.876 26.786-73.618 49.128-32.04-48.011 16.083-10.733 57.536-38.395 14.163 21.225Z"/><linearGradient id="e" x1="0" x2=".773" y1=".5" y2="1.135" gradientTransform="matrix(79.563 0 0 79.726 387.261 247.992)" gradientUnits="userSpaceOnUse"><stop offset="0%" style="stop-color:#8054a2"/><stop offset="100%" style="stop-color:#b76bb8"/></linearGradient><path fill="url(#e)" fill-rule="evenodd" d="m414.137 261.771 20.649-13.779 32.038 48.011-47.524 31.715-17.876-26.786 26.876-17.936-14.163-21.225Zm-12.713 39.161-14.163-21.225 26.876-17.936 14.163 21.225-26.876 17.936Z"/><linearGradient id="f" x1="0" x2=".751" y1=".5" y2="1.161" gradientTransform="matrix(122.574 0 0 122.489 15.866 156.898)" gradientUnits="userSpaceOnUse"><stop offset="0%" style="stop-color:#a363b0"/><stop offset="100%" style="stop-color:#b169b5"/></linearGradient><path fill="url(#f)" fill-rule="evenodd" d="m80.904 268.655-16.081 10.732-48.957-73.361 73.617-49.128 34.316 51.424-57.534 38.395 57.534-38.395 14.641 21.94-57.536 38.393Z"/><linearGradient id="g" x1="0" x2=".561" y1=".5" y2="1.328" gradientTransform="matrix(191.791 0 0 207.009 68.468 6.503)" gradientUnits="userSpaceOnUse"><stop offset="16.959%" style="stop-color:#ed2c89"/><stop offset="49.656%" style="stop-color:#cd0f7e"/><stop offset="84.688%" style="stop-color:#b31777"/><stop offset="100%" style="stop-color:#942579"/><stop offset="100%" style="stop-color:#733e88"/></linearGradient><path fill="url(#g)" fill-rule="evenodd" d="m245.619 127.029 14.64 21.939-96.72 64.544-14.64-21.94L68.468 71.047l96.72-64.544 80.431 120.526Z"/><linearGradient id="h" x1="0" x2=".638" y1=".5" y2="1.27" gradientTransform="matrix(96.482 0 0 105.076 238.809 25.535)" gradientUnits="userSpaceOnUse"><stop offset="0%" style="stop-color:#9f61ae"/><stop offset="100%" style="stop-color:#b46ab6"/></linearGradient><path fill="url(#h)" fill-rule="evenodd" d="m314.642 112.678-26.876 17.934-14.641-21.938-34.316-51.424 47.525-31.715 48.957 73.362-20.649 13.781Z"/><path fill="#714896" fill-rule="evenodd" d="m194.564 438.975-14.165-21.225 57.536-38.395 14.163 21.225-57.534 38.395Z"/><path fill="#6F4795" fill-rule="evenodd" d="m401.424 300.932-14.163-21.225 26.876-17.936 14.163 21.225-26.876 17.936Z"/><path fill="#88519F" fill-rule="evenodd" d="m80.904 268.655-14.639-21.938 57.534-38.395 14.641 21.94-57.536 38.393Z"/><path fill="#85509E" fill-rule="evenodd" d="m287.766 130.612-14.641-21.938 26.877-17.936 14.64 21.94-26.876 17.934Z"/><path fill="#8D166A" fill-rule="evenodd" d="m373.916 319.288-96.718 64.542-14.164-21.223 96.72-64.544 14.162 21.225Z"/><path fill="#A70D6F" fill-rule="evenodd" d="m245.619 127.029 14.64 21.939-96.72 64.544-14.64-21.94 96.72-64.543Z"/><path fill="#9E61AD" d="m53.445 109.495 18.253 27.363-27.363 18.253-18.253-27.363z"/><path fill="#8053A3" d="m151.957 437.441 18.253 27.363-27.363 18.253-18.252-27.363z"/><linearGradient id="i" x1="0" x2=".712" y1=".5" y2="-.202" gradientTransform="matrix(460.311 91.844 -91.471 458.439 71.32 -13.439)" gradientUnits="userSpaceOnUse"><stop offset="10.554%" style="stop-color:#6e4d9b"/><stop offset="21.608%" style="stop-color:#77327a"/><stop offset="52.401%" style="stop-color:#b31777"/><stop offset="72.93%" style="stop-color:#cd0f7e"/><stop offset="89.511%" style="stop-color:#ed2c89"/></linearGradient><path fill="url(#i)" fill-rule="evenodd" d="M80.091 465.001 0 344.007 428.016 57.731 512 176.794 80.091 465.001Z"/></g></svg>