<?xml version="1.0" encoding="UTF-8" standalone="no"?>
<!-- Generator: Gravit.io -->
<svg xmlns="http://www.w3.org/2000/svg" xmlns:xlink="http://www.w3.org/1999/xlink" style="isolation:isolate" viewBox="0 0 64 64" width="64pt" height="64pt"><defs><clipPath id="_clipPath_2s9deSggA4QAmcsYPyytK6kI0gkqyoTT"><rect width="64" height="64"/></clipPath></defs><g clip-path="url(#_clipPath_2s9deSggA4QAmcsYPyytK6kI0gkqyoTT)"><path d=" M 18.036 26.764 C 18.036 27.551 18.121 28.19 18.27 28.658 C 18.44 29.126 18.653 29.637 18.951 30.191 C 19.057 30.361 19.1 30.531 19.1 30.68 C 19.1 30.893 18.972 31.106 18.696 31.319 L 17.355 32.213 C 17.163 32.341 16.971 32.405 16.801 32.405 C 16.588 32.405 16.375 32.298 16.163 32.107 C 15.865 31.787 15.609 31.446 15.396 31.106 C 15.183 30.744 14.971 30.34 14.736 29.85 C 13.076 31.808 10.99 32.788 8.478 32.788 C 6.69 32.788 5.264 32.277 4.221 31.255 C 3.178 30.233 2.646 28.871 2.646 27.168 C 2.646 25.359 3.285 23.89 4.583 22.783 C 5.882 21.676 7.606 21.123 9.798 21.123 C 10.522 21.123 11.267 21.187 12.054 21.293 C 12.842 21.4 13.651 21.57 14.502 21.761 L 14.502 20.208 C 14.502 18.59 14.162 17.462 13.502 16.802 C 12.821 16.142 11.671 15.823 10.032 15.823 C 9.287 15.823 8.521 15.908 7.733 16.099 C 6.946 16.291 6.18 16.525 5.435 16.823 C 5.094 16.972 4.839 17.057 4.69 17.1 C 4.541 17.142 4.434 17.164 4.349 17.164 C 4.051 17.164 3.902 16.951 3.902 16.504 L 3.902 15.461 C 3.902 15.12 3.945 14.865 4.051 14.716 C 4.157 14.567 4.349 14.418 4.647 14.269 C 5.392 13.886 6.286 13.566 7.329 13.311 C 8.372 13.034 9.479 12.907 10.65 12.907 C 13.183 12.907 15.034 13.481 16.226 14.631 C 17.397 15.78 17.993 17.526 17.993 19.867 L 17.993 26.764 L 18.036 26.764 Z  M 9.394 29.999 C 10.096 29.999 10.82 29.871 11.586 29.616 C 12.352 29.36 13.034 28.892 13.608 28.254 C 13.949 27.849 14.204 27.402 14.332 26.891 C 14.46 26.38 14.545 25.763 14.545 25.039 L 14.545 24.145 C 13.928 23.996 13.268 23.869 12.587 23.784 C 11.905 23.698 11.246 23.656 10.586 23.656 C 9.16 23.656 8.117 23.933 7.414 24.507 C 6.712 25.082 6.371 25.891 6.371 26.955 C 6.371 27.956 6.627 28.701 7.159 29.211 C 7.67 29.744 8.415 29.999 9.394 29.999 Z  M 26.486 32.298 C 26.103 32.298 25.848 32.234 25.678 32.085 C 25.507 31.957 25.358 31.659 25.231 31.255 L 20.228 14.801 C 20.1 14.375 20.037 14.099 20.037 13.95 C 20.037 13.609 20.207 13.417 20.547 13.417 L 22.633 13.417 C 23.038 13.417 23.315 13.481 23.464 13.63 C 23.634 13.758 23.762 14.056 23.89 14.46 L 27.466 28.552 L 30.786 14.46 C 30.893 14.035 31.02 13.758 31.191 13.63 C 31.361 13.503 31.659 13.417 32.042 13.417 L 33.745 13.417 C 34.149 13.417 34.426 13.481 34.596 13.63 C 34.767 13.758 34.916 14.056 35.001 14.46 L 38.364 28.722 L 42.046 14.46 C 42.174 14.035 42.323 13.758 42.472 13.63 C 42.642 13.503 42.919 13.417 43.302 13.417 L 45.282 13.417 C 45.622 13.417 45.814 13.588 45.814 13.95 C 45.814 14.056 45.793 14.162 45.771 14.29 C 45.75 14.418 45.707 14.588 45.622 14.822 L 40.492 31.276 C 40.365 31.702 40.216 31.979 40.045 32.107 C 39.875 32.234 39.598 32.319 39.237 32.319 L 37.406 32.319 C 37.002 32.319 36.725 32.256 36.555 32.107 C 36.384 31.957 36.235 31.681 36.15 31.255 L 32.851 17.526 L 29.573 31.234 C 29.466 31.659 29.339 31.936 29.168 32.085 C 28.998 32.234 28.7 32.298 28.317 32.298 L 26.486 32.298 Z  M 53.839 32.873 C 52.732 32.873 51.625 32.745 50.561 32.49 C 49.496 32.234 48.666 31.957 48.113 31.638 C 47.772 31.446 47.538 31.234 47.453 31.042 C 47.368 30.85 47.325 30.638 47.325 30.446 L 47.325 29.36 C 47.325 28.913 47.495 28.701 47.815 28.701 C 47.942 28.701 48.07 28.722 48.198 28.764 C 48.326 28.807 48.517 28.892 48.73 28.977 C 49.454 29.297 50.241 29.552 51.071 29.722 C 51.923 29.893 52.753 29.978 53.604 29.978 C 54.945 29.978 55.988 29.744 56.712 29.275 C 57.436 28.807 57.819 28.126 57.819 27.253 C 57.819 26.657 57.627 26.168 57.244 25.763 C 56.861 25.359 56.137 24.997 55.094 24.656 L 52.008 23.698 C 50.454 23.209 49.305 22.485 48.602 21.527 C 47.9 20.591 47.538 19.548 47.538 18.441 C 47.538 17.547 47.73 16.759 48.113 16.078 C 48.496 15.397 49.007 14.801 49.645 14.333 C 50.284 13.843 51.008 13.481 51.859 13.226 C 52.71 12.97 53.604 12.864 54.541 12.864 C 55.009 12.864 55.499 12.885 55.967 12.949 C 56.457 13.013 56.904 13.098 57.351 13.183 C 57.776 13.29 58.181 13.396 58.564 13.524 C 58.947 13.652 59.245 13.779 59.458 13.907 C 59.756 14.077 59.969 14.248 60.097 14.439 C 60.224 14.609 60.288 14.844 60.288 15.142 L 60.288 16.142 C 60.288 16.589 60.118 16.823 59.799 16.823 C 59.628 16.823 59.352 16.738 58.99 16.568 C 57.776 16.014 56.414 15.738 54.903 15.738 C 53.69 15.738 52.732 15.929 52.072 16.334 C 51.412 16.738 51.071 17.355 51.071 18.228 C 51.071 18.824 51.284 19.335 51.71 19.739 C 52.136 20.144 52.923 20.548 54.051 20.91 L 57.074 21.868 C 58.607 22.357 59.713 23.039 60.373 23.911 C 61.033 24.784 61.352 25.784 61.352 26.891 C 61.352 27.807 61.161 28.637 60.799 29.36 C 60.416 30.084 59.905 30.723 59.245 31.234 C 58.585 31.766 57.798 32.149 56.882 32.426 C 55.925 32.724 54.924 32.873 53.839 32.873 Z " fill="rgb(37,47,62)"/><path d=" M 57.862 43.218 C 50.859 48.39 40.684 51.136 31.936 51.136 C 19.675 51.136 8.627 46.602 0.283 39.067 C -0.376 38.471 0.22 37.662 1.007 38.13 C 10.032 43.367 21.165 46.538 32.681 46.538 C 40.45 46.538 48.985 44.921 56.84 41.6 C 58.011 41.068 59.011 42.366 57.862 43.218 Z  M 60.778 39.897 C 59.884 38.748 54.86 39.344 52.583 39.62 C 51.902 39.706 51.795 39.11 52.412 38.663 C 56.414 35.853 62.991 36.662 63.758 37.598 C 64.524 38.556 63.545 45.133 59.799 48.284 C 59.224 48.773 58.67 48.518 58.926 47.879 C 59.777 45.772 61.672 41.025 60.778 39.897 Z " fill="rgb(255,153,0)"/></g></svg>