<svg height="352.672808" viewBox="0 0 602.96234 750" width="283.548938" xmlns="http://www.w3.org/2000/svg"><g transform="translate(-10.963 -64.355802)"><g fill-rule="evenodd"><g stroke-width=".950904" transform="matrix(1.0516306 0 0 1.0516306 -.566026 -3.322727)"><path d="m26.9093 114.9103 274.6925-50.4374.6383-.1171.635.1171 273.1844 50.4374 2.9064.5369.0003 2.9372v380.8126c0 49.0104-30.6964 96.9199-73.0007 139.3293-63.0615 63.2183-152.0725 114.3746-202.7806 138.2947l-1.5117.713-1.5194-.7269c-47.9188-22.9257-139.8319-72.7891-204.3105-137.3374-41.6001-41.6452-71.8407-89.4501-71.8407-140.2727v-380.8126-2.9403z" fill="#1f4586"/><path d="m302.2367 71.5385-271.1474 49.7863v377.8722c0 48.6629 29.3669 94.8484 69.7646 135.29 63.0853 63.1533 152.9217 112.1816 200.8241 135.223 50.4904-23.9966 137.5305-74.2663 199.277-136.1664 41.101-41.2033 70.9246-87.4862 70.9246-134.3466v-377.875z" fill="#fff"/></g><path d="m45.372978 271.86148v.74559 260.27857c0 39.91948 31.4639 83.99664 74.308382 124.75174 62.21972 59.18535 148.49609 111.43406 197.05545 133.63924l.31426.14378.30809-.14378c56.15339-26.15889 137.99441-76.10708 196.76994-133.41947 42.53646-41.47768 73.01028-86.83749 73.01028-129.90103v-255.34905-.74559h-.74559-540.275223zm1.491179 1.49118h269.242083 269.24208c-.21946 88.86854.44137 177.76271-.33479 266.61506-5.47987 43.84084-36.33713 78.89122-66.03296 109.32849-58.56189 56.61566-130.0709 102.505-202.87433 138.68585-72.80343-36.18085-144.31244-82.0702-202.87433-138.68585-29.695835-30.43727-60.553088-65.48765-66.032956-109.32849-.776167-88.85235-.115332-177.74652-.334797-266.61506z" fill="#223d7d"/><g stroke-width=".950904" transform="matrix(1.0516306 0 0 1.0516306 -.566026 -3.322727)"><path d="m44.1283 132.3354 257.2521-46.8748.1244-.0227.1245.0227 256.7809 46.8748.5842.1069v.5879 114.0004.7086h-.7087-514.0329-.7087v-.7086-114.0004-.5882z" fill="#2a4b80"/><path d="m301.5048 86.8728-256.5434 46.7456v112.7035h512.6157v-112.7035z" fill="#fff"/></g><path d="m376.5483 175.94126v.88732h-.35739v5.1267h.35739v12.71815h-.33069v7.82151h-.44982c-1.10064 0-2.13962 1.65705-3.26581 1.67398l-2.27579.0349v-9.82823h-.2588v-12.8414h.23415v-2.76053h-.23415v-.037h-1.62674v.037h-.3081v2.76053h.3081v12.8414h-.28345v9.85904l-4.69331.0719v-9.50781h.71683v-1.67604h-5.47176v1.67604h.54224v9.56943l-19.5784.29372c-3.44273.0515-5.97119.93903-6.92597 2.22034l-12.61957 16.93289c-.87464 1.17362-1.79105 1.72006-4.02166 1.6863l-121.65642-1.85883c-1.69501-.0257-2.99315.50133-4.14079.9366l-32.06651 12.16359c-1.93437.73362-2.74849-.36429-2.82421-1.51583l-.70246-10.69705c-.0846-1.28804-.74718-3.06471-1.9718-3.0563l-14.19702.0985c-1.12703.007-1.98905 1.28977-1.9718 2.26758l.34506 19.15117c-.0167 1.38857-.2704 2.35273-.93661 3.22884-.85445 1.12293-1.45387 1.6936-2.95771 1.67604-1.19991-.014-2.00393-.28163-2.07039-1.57745l-.0883-1.71096c-.0278-.54075-1.43374-.9077-2.22856-.65521l-7.44357 2.36617c-1.03439.32885-1.42009 2.09516-1.42957 3.54925-.006.88716-.51741 2.2302-1.25702 2.66399l-3.27813 1.92046c-.46387.27195-.28255 1.52816.14789 1.52816l402.34934-.14789-6.90132-14.19702c-.93596-1.92511-2.76895-3.06476-4.92952-3.74643l-32.732-9.07032c-2.59633-.71915-5.16087-1.14581-7.90982-1.33507v-2.85707h.29577v-.76407h-1.57745v.76407h.34506v2.80983c-.75986-.0367-1.52276-.07-2.31892-.0719l-52.7212-.12529c-5.98641-.0137-9.52978-3.21437-10.45058-9.16891l-1.52815-9.88163c-.50825-3.28646-1.95321-5.69596-5.96266-5.69565v-8.58147h.27728v-1.25702h-1.9718v1.25702h.31426v8.58147h-3.61499v-7.81945h-.36355v-12.71816h.38819v-5.12669h-.38819v-.88732h-.76408v.88732h-.27728v5.12669h.27728v12.71816h-.40052v7.81945l-1.89992.002v-7.82151h-.42927v-12.71815h.30603v-5.1267h-.30603v-.88732h-.72095v.88732h-.40464-.39641v-.88732h-.7764v.88732h-.46008v5.1267h.46008v12.71815h-.43955v7.82151h-1.8958v-7.82151h-.34507v-12.71815h.34096v-5.1267h-.34096v-.88732zm4.31332 6.01402h.39642.40463v12.71815h-.37792-.42313zm-20.33015 12.84345h1.45215v9.52835l-1.45215.0205z" fill="#1b1918"/><path d="m46.863808 273.35266c.219464 88.86854-.44137 177.76271.334797 266.61506 5.479868 43.84084 36.336803 78.89097 66.032635 109.32824 58.56189 56.61564 130.07122 102.50543 202.87465 138.68628v-514.62958z" fill="#223d7d"/></g><path d="m498.51514 558.48011c7.94223 1.69081 15.88457 2.42537 23.82617 2.17435m-118.99169-50.32673c3.64043-2.60804 8.55964-3.86811 15.05262-3.4708 10.57867-8.12437 21.16354-21.3603 31.72201-13.58255 6.55755-2.77294 12.17768-1.97948 17.25337.88705 5.49761-9.5222 22.75224 6.33524 31.15508 14.73808 6.25268-.60574 11.78384 1.49468 17.19227 4.05509m-65.60072-19.68022c-10.46992 40.14295-9.45216 74.045-2.52969 104.7401m19.78306-103.85305c6.10661 41.12444 5.4302 75.15941-.26259 103.95232m31.79447-58.76028c8.33218-1.10421 16.33046-3.45587 24.12199-6.57942m-24.49879-23.87454c-1.05741 6.60203-2.11504 13.20406-3.17235 19.8061 1.18309 3.54914 2.36596 7.09861 3.54915 10.64786-.13145 6.37541-.2629 12.75123-.39436 19.12664-1.4461 3.08927-2.89188 6.17812-4.33797 9.26739.28762 6.81898 1.74476 13.34351 3.79743 19.71839m-92.44737-4.30454c3.74296 3.48595 8.15245 4.48037 12.8362 4.45061 10.38012 5.80668 21.75056 15.25075 29.23113 10.40252 6.90038 1.39867 13.38347 1.27973 19.52047-.10254 13.219 7.32724 20.92934-4.91448 30.85957-10.64786 6.3609-.60038 11.67573-1.5907 13.76627-3.7823m-97.12513-27.07191c-5.97453 1.35124-12.50168 2.41728-19.71545 3.14553m23.50195-52.69847c-1.14891 7.32639-.52435 14.18061 2.03091 20.41962-1.93879 3.64779-3.878 7.29568-5.81678 10.94347-.73604 6.48257-.76706 12.56257-.00063 18.18985 1.70837 3.35207 3.41717 6.70393 5.12554 10.05611 0 8.48477-1.36765 15.10079-1.36765 21.1078m-23.68198-55.91162c6.49256 2.77263 13.17872 4.78208 19.92472 6.55786zm64.05808-51.86106c-36.14728 0-65.45055 29.249-65.45055 65.32887 0 36.07966 29.30327 65.32866 65.45055 65.32866 36.14759 0 65.45086-29.249 65.45086-65.32866 0-36.07987-29.30327-65.32887-65.45086-65.32887z" fill="none" stroke="#1b1918" stroke-linecap="round" stroke-linejoin="round" stroke-width="4.252"/><g stroke-width=".950904" transform="matrix(1.0516306 0 0 1.0516306 -.566026 -3.322727)"><path d="m288.73047 114.79297c-2.82094 0-5.16831.87688-6.93164 2.62695l-.002.002c-1.74983 1.74983-2.62696 4.07265-2.62696 6.85742 0 2.75517.82955 5.04828 2.49024 6.77539v.002c1.6607 1.71384 3.87537 2.57617 6.52539 2.57617 1.40328 0 2.69014-.26409 3.83984-.79883h.002c.74381-.35053 1.29108-.96625 1.88868-1.51562-.25261 2.5584-.75515 4.60957-1.58204 5.88476-.96154 1.46979-2.25393 2.16016-4.07226 2.16016-1.37964 0-2.40112-.34524-3.14649-1.00195 0 0-.002-.002-.002-.002-.74503-.67036-1.13142-1.55527-1.16601-2.77735l-.0137-.48633h-4.52148l.002.50196c.0131 2.36549.82736 4.3319 2.42188 5.76562l.002.002c1.59682 1.42238 3.75362 2.11915 6.38477 2.11915 3.40317 0 6.1228-1.39846 7.9707-4.11133 1.8477-2.72568 2.73828-6.54883 2.73828-11.44727 0-4.15294-.85161-7.39732-2.62305-9.68555l-.002-.002c-1.75869-2.28617-4.34083-3.44531-7.57617-3.44531zm.0371 4.04492c1.56031 0 2.72433.47667 3.61914 1.43945h.002v.002c.89307.94958 1.34961 2.22376 1.34961 3.92382 0 1.68384-.45951 2.93527-1.35937 3.85938-.90087.91212-2.11682 1.375-3.76172 1.375-1.46843 0-2.56752-.45313-3.42578-1.37695l-.002-.002c-.84635-.9377-1.27929-2.17864-1.27929-3.8164 0-1.68808.45235-2.97481 1.33789-3.95117.88539-.9762 2.01394-1.45313 3.51953-1.45313z"/><path d="m313.23633 114.79297c-3.15036 0-5.64827 1.27832-7.29688 3.75781-1.64849 2.47934-2.43359 6.0209-2.43359 10.61524 0 4.58196.78637 8.1129 2.43555 10.58007 1.64907 2.46701 4.14526 3.73829 7.29492 3.73829 3.17265 0 5.68225-1.26986 7.33203-3.73633l.002-.002c1.66153-2.46714 2.45313-5.99885 2.45313-10.58007 0-4.60596-.79114-8.14935-2.45313-10.61719l-.002-.002c-1.66153-2.47755-4.17069-3.75391-7.33203-3.75391zm0 4.1582c1.78283 0 2.95858.71339 3.76758 2.28516v.002l.002.002c.81903 1.5573 1.27734 4.21813 1.27734 7.92579 0 3.69499-.45808 6.35045-1.27734 7.9082h-.002c-.80761 1.54599-1.98259 2.25195-3.76758 2.25195-1.76986 0-2.94668-.70962-3.76758-2.26953v-.002c-.8205-1.57267-1.27734-4.22006-1.27734-7.88867 0-3.68233.45663-6.33615 1.27734-7.90821v-.002c.82229-1.58669 1.99934-2.30469 3.76758-2.30469z"/><path d="m268.71875 114.79297-.0508.44336c-.18953 1.67026-.79384 2.807-1.80859 3.54297-1.01557.73656-2.61095 1.15919-4.80665 1.18359l-.49414.006v3.7207h6.22266v19.02344h.5 4.01563v-27.91992z"/><path d="m335.10742 114.79297-.0488.44336c-.18953 1.67026-.79385 2.807-1.80859 3.54297-1.01557.73656-2.61094 1.15919-4.80664 1.18359l-.49414.006v3.7207h6.22266v19.02344h.5 4.01367v-27.91992z"/></g><g fill-rule="evenodd" stroke-width=".950904" transform="matrix(1.0516306 0 0 1.0516306 -.566026 -3.322727)"><path d="m396.108 364.6358c-1.4581-1.5418-3.1932-3.0288-4.9133-4.5026-4.7217-4.0453-9.3407-8.003-8.7945-13.3375.3974-3.8815 2.0177-6.9225 4.4793-9.3362 2.4092-2.3624 5.6121-4.1006 9.2458-5.4275 2.1053-.7688 4.0209-1.4984 5.7333-2.3916 1.677-.8745 3.1893-1.9202 4.5471-3.3426.3379-.3538.7027-.7413 1.0661-1.1268 4.2687-4.5315 8.6066-9.1358 15.7351-8.4784l.0579.007.0002-.003c5.3479.7997 8.587 4.0306 10.7479 8.3767 1.491 2.9996 2.4468 6.5027 3.2349 10.0783 1.1806-3.8401 2.5696-7.4815 4.3523-10.463 2.5251-4.2225 5.8283-7.1183 10.4094-7.4375 3.6816-.2566 6.8386.5099 9.5102 2.0225 2.9463 1.6685 5.2736 4.2324 7.0447 7.3213 1.1432 1.9939 2.3737 3.6771 3.8426 5.0596 1.4562 1.3705 3.1646 2.463 5.2779 3.2921 3.6649 1.4381 6.9185 3.3055 9.2412 5.7609 2.3933 2.5296 3.7845 5.6506 3.619 9.5187-.3266 7.6266-6.0001 11.0373-11.8242 14.4264 5.1866.1738 9.9851.7736 13.7753 2.1727 4.9614 1.8312 8.2369 4.9924 8.5487 10.2524.2046 3.4546-.328 6.2705-1.2515 8.6834-.9173 2.3975-2.211 4.3752-3.5456 6.1854-1.584 2.149-2.8579 4.0425-3.774 5.9417-.8941 1.8542-1.4562 3.7387-1.6478 5.921-.3651 4.1602-1.1497 7.8642-2.6617 10.7368-1.5826 3.0062-3.9351 5.0928-7.3834 5.8431-7.3543 1.6007-12.5289-2.4052-18.0363-7.0812 1.8433 4.8892 2.4193 8.9869 1.8657 12.3327-.699 4.2239-3.1405 7.2323-7.0656 9.1068-.0272.0131-.055.0247-.0828.0352l-.1842.0859c-2.2337 1.0202-4.4337 1.5213-6.7408 1.5414-2.2828.0199-4.6469-.43-7.2352-1.3121-2.3164-.7892-4.8917-1.1098-7.5764-1.0811-3.0767.0325-6.3031.5235-9.4589 1.2937-2.8483.6953-5.6064 1.3218-8.2568.9371-2.7595-.4005-5.292-1.855-7.4716-5.3439-2.0794-3.3284-2.7688-6.9899-2.3258-10.8584.3356-2.9276 1.3258-5.9697 2.8545-9.0714-1.0358.7501-2.0596 1.5534-3.0801 2.3539-4.2534 3.3375-8.4566 6.6351-13.7611 6.4553-3.1552-.1071-5.904-1.7067-8.0385-4.0543-2.3663-2.6025-3.9875-6.1498-4.5521-9.567l-.004-.0266h-.0003c-.9309-5.6302-1.8198-11.0044-6.4902-18.0505-1.3654-2.0599-2.6033-4.1927-3.3355-6.5089-.7526-2.3805-.9703-4.9294-.2551-7.7445 1.0431-4.1049 4.1819-6.6694 8.6507-8.0705 4.2897-1.3451 9.8377-1.6016 15.9075-1.1251z" fill="#1b1918" stroke-width=".950904"/><path d="m396.8476 334.0253c-3.3665 1.2294-6.3108 2.8168-8.4816 4.9456-2.1186 2.0775-3.5141 4.6967-3.8562 8.0408-.4332 4.2304 3.7683 7.8304 8.0637 11.5103 2.5021 2.1439 5.0352 4.3141 6.8451 6.7436.1723.2118.263.489.2319.7815-.0618.5826-.5845 1.0044-1.1671.9426-6.8122-.7427-13.0549-.6441-17.6519.7974-3.7601 1.1789-6.3844 3.2711-7.2221 6.5675-.6063 2.3863-.4195 4.5536.2217 6.5818.6613 2.0917 1.8082 4.0621 3.0781 5.9777 4.919 7.4211 5.8445 13.0173 6.8134 18.8805l.005.0266c.5012 3.0328 1.9363 6.177 4.0295 8.479 1.7744 1.9516 4.0158 3.2802 6.5349 3.3656 4.5312.1533 8.4337-2.9081 12.3829-6.0069 2.2056-1.7303 4.4257-3.4722 6.8488-4.7529.3206-.1684.7197-.1681 1.0499.036.4975.3073.652.9601.3447 1.4576-2.5344 4.1116-4.1652 8.1238-4.5963 11.8868-.3889 3.3965.2089 6.5996 2.0185 9.4961 1.7901 2.8652 3.8038 4.0501 5.9681 4.3642 2.2739.3299 4.8209-.2517 7.4596-.8958 3.295-.8039 6.6827-1.3169 9.9409-1.3515 2.9171-.0312 5.7276.3214 8.2737 1.1888 2.374.8093 4.5125 1.222 6.5378 1.2045 2.0016-.0176 3.9195-.4564 5.8768-1.3505l.1616-.0751.0726-.038c3.2771-1.565 5.3112-4.0527 5.8864-7.5291.6032-3.6459-.3348-8.3936-3.0413-14.3214l-.4311-.9222c-.1707-.3594-.131-.8005.1383-1.1279.3713-.4515 1.0392-.5167 1.4907-.1454.921.7591 1.7382 1.4562 2.5436 2.143 5.4323 4.6335 10.3801 8.8526 17.1144 7.3871 2.7629-.6012 4.6624-2.3 5.9547-4.7551 1.3629-2.5889 2.0787-6.0265 2.4214-9.9312.2152-2.4517.8481-4.572 1.8553-6.6603.9856-2.0435 2.3216-4.0334 3.973-6.2739 1.2405-1.6827 2.4392-3.5107 3.2718-5.6872.8268-2.1602 1.3033-4.6893 1.1188-7.8029-.252-4.2545-2.9976-6.8468-7.162-8.3837-4.4158-1.63-10.3816-2.1113-16.7358-2.1053-.3795.0263-.7608-.1528-.9756-.4981-.3096-.4975-.1571-1.1523.3404-1.4618.9595-.5956 1.9814-1.1903 3.0002-1.7827 5.4099-3.1465 10.7518-6.2538 11.033-12.8273.1386-3.242-1.029-5.8595-3.0379-7.983-2.0795-2.1982-5.0723-3.9016-8.477-5.2376-2.3774-.9328-4.3064-2.1685-5.9587-3.7235-1.6399-1.5432-2.9926-3.3863-4.2333-5.55-1.5916-2.776-3.6584-5.0658-6.2475-6.5322-2.3168-1.3115-5.0775-1.9748-8.3226-1.7486-3.7649.2622-6.55 2.7595-8.7318 6.408-2.2805 3.8137-3.9104 8.8843-5.2999 14.0405-.0876.4003-.4037.7311-.8312.8161-.5754.1145-1.1352-.2594-1.2497-.8348-.9672-4.843-1.9789-9.8685-3.9266-13.7869-1.8655-3.7525-4.6312-6.5375-9.1536-7.2144-6.0676-.5304-10.0358 3.6811-13.9411 7.8267l-1.0746 1.1353c-1.5336 1.6064-3.2292 2.7811-5.1032 3.7582-1.8389.9592-3.8217 1.7155-5.9913 2.5078z" fill="#c24646"/><g stroke-width=".950904"><path d="m422.7605 358.8058c-.1539-.7192-.2461-1.4227-.277-2.1082-.1032-2.2867.4714-4.354 1.6645-6.1007 1.1795-1.7266 2.9537-3.1215 5.264-4.0856 1.993-.8314 4.3968-1.3436 7.1699-1.4686 1.0508-.0473 2.0378-.0164 2.9597.0873 3.4319.3869 6.0647 1.7677 7.8882 3.8855l.002-.002c1.8062 2.0985 2.7865 4.9016 2.933 8.1567.0272.6071.0258 1.2285-.004 1.8618.9212-.163 1.838-.2778 2.7425-.3388 3.6229-.2449 7.0741.3609 9.885 2.0934 2.8414 1.7515 4.9952 4.6236 5.9714 8.8863.2495 1.0911.4221 2.272.5083 3.5456.0864 1.2796.0229 2.4664-.1724 3.5586-.5 2.7936-1.8603 4.915-3.7924 6.3882-1.8993 1.4476-4.3362 2.2501-7.0345 2.4324-.4966.0334-1.0029.0456-1.5174.0371.8402.864 1.5392 1.7411 2.107 2.6226 1.5018 2.3324 2.0891 4.6962 1.9522 6.9435-.1372 2.2501-.9997 4.3634-2.3964 6.196-1.0287 1.3495-2.3493 2.5483-3.882 3.5351-.3022.1944-.6143.3829-.9338.5638-3.2893 1.8603-6.7887 2.5174-10.063 1.8019-3.086-.6746-5.9462-2.556-8.2148-5.7832-1.0587 1.8927-2.33 3.3557-3.7431 4.4101-1.6512 1.2323-3.4914 1.9106-5.4119 2.0676-1.8896.1545-3.8506-.2029-5.7764-1.0394-2.7482-1.1931-5.4185-3.3628-7.6876-6.4032-2.2473-3.0113-3.2304-5.629-2.6938-8.3256.4198-2.1096 1.8224-5.256 4.2384-7.5147-.8246-.1259-1.7558-.0969-2.5265-.3455-2.5733-.83-4.7277-1.4675-6.3321-3.5371-1.6055-2.0716-2.5707-4.7055-2.5996-7.8021-.0165-1.7835.2786-3.7173.9431-5.7781.6415-1.9894 1.4887-3.6709 2.4916-5.0548 1.7266-2.3822 3.9155-3.8979 6.3281-4.6117 2.3981-.7095 5.0006-.6159 7.5727.2135.8187.2639 1.6337.6018 2.4373 1.012z" fill="#1b1918"/><path d="m435.5991 339.9188c-.0578-1.4587-.1488-3.001-.2395-4.5425-.1794-3.0473-.3594-6.0951-.3033-9.2211.0252-1.4171-.0275-2.6878-.4958-3.9356-.4688-1.2496-1.3804-2.5481-3.0886-4.0672-.1208-.1074-.2568-.2336-.4088-.3798-1.8286-1.7552-2.8193-3.6601-2.8669-5.7141-.0468-2.0271.8356-4.1219 2.7504-6.2751.1302-.1465.2863-.3146.4672-.5028l.0139-.0145c1.4953-1.5579 2.9449-3.0685 4.1876-5.2583.2889-.5091.936-.6874 1.4451-.3985.093.0527.1749.1173.2449.191.4862.5123 1.0579 1.1588 1.6586 1.8377 1.0454 1.1827 2.1855 2.4716 3.2094 3.4093.9663.885 1.7504 1.7702 2.347 2.6487.9967 1.4669 1.4826 2.9253 1.4403 4.3455-.0433 1.4533-.6307 2.8233-1.7787 4.0771-.5278.5762-1.1753 1.1276-1.9417 1.6483-2.1252 1.4437-2.2709 3.3704-2.4636 5.9332-.0445.5944-.0922 1.2209-.1693 1.9278-.3784 3.4705-.8161 6.5841-1.2529 9.6968-.227 1.6186-.4547 3.2383-.646 4.6896-.0754.58-.6075.989-1.1874.9136-.5199-.0674-.902-.502-.9216-1.0091z" fill="#1b2419"/><path d="m474.2215 364.9252c1.3736-.5162 2.738-1.031 4.1009-1.5452 2.859-1.0788 5.7203-2.1586 8.4019-3.1527l.0654-.0215c.3787-.1406.4802-.1769.6288-.231 2.4533-.8918 4.1558-1.5109 5.6537-4.6452 1.0672-2.2334 2.5412-3.774 4.4044-4.5394 1.8114-.7441 3.9393-.7344 6.3641.1049.9595.332 1.9083.7107 2.8556 1.0885 1.7884.7132 3.5762 1.4264 5.1985 1.7294.5754.1075.9547.6619.8472 1.2374-.0368.1978-.1267.3724-.252.5122-.8444 1.0411-1.5341 2.3904-2.224 3.7417-.4079.7985-.817 1.599-1.2113 2.2743-1.6123 2.76-3.3533 4.6459-5.3523 5.4002-2.107.7954-4.3728.3459-6.9047-1.6327-1.8785-1.4678-4.4217-1.0137-6.9556-.561-.8754.1562-1.7507.3129-2.6949.4059v.0003c-2.7403.2687-5.5069.7404-8.2732 1.2118-1.4162.2415-2.8332.4833-4.1834.6886-.58.087-1.1214-.3127-1.2084-.8927-.0791-.5272.2441-1.0227.7393-1.1738z" fill="#1b2419"/><path d="m460.8091 414.805c-.6869-1.4133-1.3745-2.8272-2.1804-4.4441l.003-.001c-.2075-.4164-.1213-.9358.2421-1.2609.4357-.3897 1.1049-.3526 1.4947.0831 1.4383 1.6064 2.4245 2.7272 3.4166 3.8545 2.2779 2.5881 4.557 5.1775 6.8207 7.5796.8515.9034 1.5883 1.5588 2.3457 1.9757.7129.3926 1.4768.5871 2.4256.5984.4527.005.8742.0428 1.2642.1089 2.1306.36 3.6043 1.5349 4.5389 3.1274.8852 1.5086 1.26 3.3846 1.237 5.2657-.009.7307-.0757 1.4558-.1936 2.1529-.2324 1.3771-.4297 2.467-.6276 3.4889-.1998 1.0349-.4042 2.0182-.6474 3.1657l-.002-.0003-.007.0295c-.1375.5686-.7104.9181-1.279.7807-1.1622-.2824-2.2635-.5607-3.3242-.8411-1.1432-.3019-2.2286-.6004-3.2786-.9011-2.1107-.6052-3.8633-1.4919-5.0156-2.7859-1.226-1.3759-1.7563-3.1436-1.3141-5.4204.2758-1.419.2579-2.6921.001-3.9223-.2619-1.2558-.7773-2.4945-1.4874-3.8137-1.5139-2.8134-2.9744-5.8173-4.4336-8.8198z" fill="#1b2419"/><path d="m414.4864 408.7026c-.7855 1.3153-1.6324 2.6813-2.4789 4.0462-1.6701 2.6929-3.3403 5.3867-4.7058 7.9858-.2797.5329-.5873 1.0542-.8793 1.5497l-.002.003.002.001c-.9964 1.69-1.7963 3.0473-1.1126 5.12.8068 2.446.8127 4.5847-.1641 6.3666-.9624 1.7558-2.8437 3.0747-5.8127 3.8936-1.0264.2832-1.9911.4669-2.9619.6514-1.5305.2909-3.0805.5862-4.8011 1.2799-.5434.2177-1.1611-.0462-1.3788-.5896-.0623-.1556-.0847-.3172-.0731-.4737.0434-1.0893-.1173-2.082-.2741-3.0546-.1344-.8314-.2673-1.6506-.2897-2.5603-.009-.3611-.0247-.7886-.0397-1.2132-.0312-.8725-.0629-1.7532-.051-2.6351.0567-4.1938 1.0443-7.8151 6.9744-7.7352 2.4049.0324 3.7848-1.4238 5.4062-3.1351l.0944-.0995c2.3731-2.5032 4.822-4.8546 7.2706-7.2054 1.2225-1.1738 2.4465-2.3485 3.6422-3.5243.4173-.4104 1.0885-.4048 1.499.0125.354.36.3985.9088.136 1.3164z" fill="#1b2419"/><path d="m397.834 367.2244c-1.8289-.5278-3.0194-.8782-4.2023-1.2263-2.7601-.8124-5.5222-1.6251-8.5026-2.4355-1.4624-.3974-2.7569-.5341-3.9478-.3782-1.1707.1534-2.2734.5933-3.3735 1.3499-2.1291 1.4635-4.1332 1.8218-6.1327 1.1197-1.88-.6605-3.6735-2.2706-5.5007-4.7906-.6845-.9442-1.3178-1.9871-1.9695-3.0603-.5573-.9181-1.1299-1.8609-1.7949-2.8201-.3325-.4814-.2114-1.1416.2699-1.4741.0618-.0425.1264-.0776.1927-.1057.8989-.4212 1.7476-.7923 2.5963-1.1633 1.7087-.7464 3.4183-1.4933 5.0672-2.4373.7585-.4342 1.4967-.7602 2.2073-.983 1.656-.5193 3.1564-.4751 4.4581.0521 1.3025.5273 2.3706 1.5251 3.1651 2.9135.3538.6179.6548 1.319.8972 2.0925.7608 2.4259 2.5546 3.3534 4.6579 4.4399l.5338.277.0581.032c2.7861 1.457 5.4555 2.9424 8.1238 4.4266 1.3771.7662 2.755 1.533 4.0425 2.2379.5136.2795.703.923.4235 1.4366-.2498.4593-.7906.6594-1.2694.4967z" fill="#1b2419"/></g><path d="m424.0046 362.0548c-7.2218-5.2336-15.1319-3.2272-18.0556 5.84-1.3305 4.1261-1.2194 8.3659 1.3159 11.6368 1.3351 1.7223 3.1308 2.1138 5.3025 2.8142 1.3478.4348 2.9361.4408 4.4478.4326 1.0845-.0363 1.501 1.2648.7302 1.8844-3.2564 2.6167-5.0354 5.8683-5.4533 7.9685-.4039 2.0299.4343 4.1324 2.3117 6.6481 2.8763 3.8543 7.1115 6.9625 11.5954 6.5957 3.8472-.3147 6.6016-3.1729 8.2383-6.9418.3419-.7946 1.4604-.8677 1.8933-.1001 3.9186 6.9472 10.7521 8.5028 17.2553 4.3138 4.8725-3.1385 7.0685-8.492 3.6868-13.7435-.9321-1.4471-2.2885-2.897-4.1315-4.3038-.8754-.6702-.2608-2.079.8294-1.884 7.2672 1.2997 13.9436-1.5 13.3795-9.8557-.5848-8.663-5.6134-13.1219-14.106-12.549-1.2422.0836-2.511.2772-3.7798.5661-.7596.1882-1.4088-.4252-1.3291-1.1415.4002-3.5955-.0916-7.2525-2.3128-9.8368-2.221-2.5382-5.5004-3.4033-9.1494-3.2386-5.9834.2701-12.3704 2.829-12.0722 9.4462.1494 3.3199 1.5905 4.2392.8858 5.2117-.3438.4746-1.0077.5806-1.4822.2367z" fill="#fff"/><g fill="#4b8b3e" stroke-width=".950904"><path d="m405.4246 419.7464c.8643-1.6452 1.8547-3.3364 2.8925-5.0448l-4.9365 4.9629c-1.9639 2.0724-3.6349 3.8361-6.9676 3.791-5.718-.0771-4.8438 5.211-4.7412 9.4162l.5289 4.2505c4.9904-1.5749 13.7041-1.1285 11.0909-9.0496-.9842-2.9832.0345-4.7112 1.3053-6.8627.2642-.4487.5423-.9198.8277-1.4635z"/><path d="m372.3724 363.6527c1.3215.4641 2.7039.1877 4.2313-.8623 1.3855-.9524 2.7921-1.5089 4.3038-1.707 1.4919-.1953 3.0563-.04 4.7778.428 1.1951.3249 2.4038.665 3.6201 1.0143-1.2529-.6852-2.5092-1.3615-3.7735-2.0226l-.0482-.0235-.5337-.2769c-2.5288-1.3065-4.686-2.4217-5.7124-5.694-.1942-.6196-.4337-1.1783-.7146-1.669-.5559-.9714-1.2713-1.6566-2.1186-1.9996-.8479-.3435-1.8661-.3591-3.03.006-.559.1752-1.1551.4405-1.7838.8005-1.7164.9825-3.4957 1.76-5.2747 2.537l-1.4636.6443c.4037.6287.7864 1.2592 1.1628 1.8791.6078 1.0006 1.1982 1.9732 1.8783 2.9112 1.5735 2.1702 3.0384 3.5288 4.479 4.0348z"/><path d="m430.3137 312.0171c.0337 1.4542.801 2.8661 2.2195 4.2276l.3504.3214c1.9876 1.7674 3.073 3.3452 3.6618 4.9142.5896 1.5709.6579 3.064.6284 4.7083-.0122.6755-.0122 1.3527-.004 2.0302l.3277-2.8154c.0677-.6219.1159-1.2574.1613-1.8609.2367-3.1425.415-5.5043 3.3933-7.528.6296-.4277 1.1526-.8708 1.5682-1.3246.7911-.864 1.1948-1.7728 1.2225-2.7068.029-.968-.3339-2.0084-1.0751-3.0994-.5043-.7424-1.1804-1.5032-2.0234-2.2751-1.12-1.0256-2.2921-2.3511-3.367-3.5668l-.6732-.7586c-1.1733 1.7694-2.4449 3.0946-3.7488 4.453l-.0139.0144-.4088.4445c-1.5412 1.7331-2.2532 3.3403-2.2192 4.822z"/><path d="m494.9821 356.243c-1.8728 3.9189-3.9078 4.659-6.8414 5.7251l-.6191.2256-.0666.027-2.7258 1.015c.7328-.0955 1.4692-.1811 2.2105-.2537l.004-.0002c.7707-.0754 1.648-.2328 2.5248-.3892 2.9953-.5352 6.0015-1.0718 8.6332.9844 1.8808 1.4698 3.4673 1.8403 4.8534 1.317 1.4948-.5641 2.8922-2.1376 4.2645-4.4869.4379-.7495.7999-1.4585 1.1613-2.166.4933-.9663.9865-1.9318 1.5506-2.8267-1.319-.3867-2.6674-.9244-4.0158-1.4624-.9355-.373-1.872-.7469-2.7644-1.0556-1.9142-.6628-3.5405-.6922-4.8691-.1463-1.3595.5584-2.4647 1.7447-3.3001 3.4929z"/><path d="m476.2925 425.3913c-.3022-.051-.6166-.0799-.9406-.0839-1.324-.0162-2.4018-.2937-3.4222-.8558-.9763-.5374-1.8695-1.3223-2.869-2.3828-1.7376-1.8439-3.4169-3.7173-5.0805-5.5984 1.0284 2.0979 2.0656 4.1698 3.1311 6.1498.8005 1.4873 1.3862 2.9066 1.6949 4.3863.3141 1.5052.3381 3.0486.007 4.7528-.3019 1.5548.03 2.7284.8158 3.6102.8589.9644 2.2683 1.6549 4.0104 2.1544 1.1387.3262 2.2102.6222 3.2372.8932l2.2209.5712.4136-2.0532c.2004-1.0352.3954-2.1112.6197-3.439.1029-.6094.1613-1.2262.1686-1.8292.0187-1.5225-.2681-3.0126-.9467-4.1692-.6293-1.072-1.6229-1.8635-3.0603-2.1064z"/></g><path d="m428.7033 368.7636c2.179-2.2723 5.1917-3.678 8.5201-3.678s6.3411 1.4057 8.5201 3.678c2.1694 2.2623 3.5116 5.3821 3.5116 8.8225 0 3.4405-1.3422 6.5603-3.5116 8.8226-2.179 2.2722-5.1917 3.6779-8.5201 3.6779s-6.3411-1.4057-8.5201-3.6779c-2.1693-2.2623-3.5116-5.3821-3.5116-8.8226 0-3.4404 1.3423-6.5602 3.5116-8.8225z" fill="#1b1918" stroke-width=".950904"/><path d="m437.2234 367.2116c-2.7292 0-5.2019 1.1551-6.9922 3.022-1.8 1.8771-2.9135 4.4765-2.9135 7.3525 0 2.8761 1.1138 5.4757 2.9135 7.3525 1.7903 1.8669 4.263 3.0221 6.9922 3.0221s5.2019-1.1552 6.9922-3.0221c1.7997-1.8768 2.9135-4.4764 2.9135-7.3525 0-2.876-1.1135-5.4754-2.9135-7.3525-1.7903-1.8669-4.263-3.022-6.9922-3.022z" fill="#c24646" stroke-width=".904219"/></g><g fill-rule="evenodd" stroke-width=".950904" transform="matrix(1.0516306 0 0 1.0516306 -.566026 -3.322727)"><path d="m87.8828 313.4764 51.7099 30.7264c.6727.3974.8957 1.2651.4983 1.9378-.288.4875-.8229.7384-1.3515.6888l-26.6979-1.7742 107.6497 159.1367 21.9469-.5043c.4944-.01.9343.2361 1.194.6157l.002-.001 35.0654 51.2807c.4402.6449.2741 1.5253-.3708 1.9656-.3044.2077-.6613.2803-.9998.2313l-21.9282-1.9817 4.7917 7.0835c.4371.6482.2661 1.5284-.3821 1.9655-.3099.2089-.6721.2786-1.0143.2242-1.9491-.1831-3.295.1097-4.1524.7875-.8323.6576-1.281 1.7654-1.4375 3.2139-.0825.7764-.7792 1.3394-1.5556 1.2569-.4318-.0459-.7977-.2818-1.0231-.6157l-.001.001-4.9615-7.3564-7.1081 21.5368-.003-.001c-.097.2954-.2914.5607-.5723.743-.6543.4249-1.5296.2389-1.9545-.4153l-33.376-51.3754.0003-.0003c-.2438-.3759-.305-.8609-.1219-1.3065l8.5025-20.5339-108.119-160.3125-8.9745 25.9739c-.2537.7367-1.0571 1.1284-1.7938.8747-.5496-.1893-.9068-.6842-.9479-1.2293l-.0043.0002-4.6805-61.5367c-.0578-.7795.5269-1.459 1.3065-1.5168.3166-.0236.6165.0589.8651.2174zm45.1857 30.141-44.3276-26.3398 3.9565 52.0209 7.6346-22.0955c.0828-.324.2803-.6202.5797-.8221.6483-.4371 1.5284-.2661 1.9655.3822l142.6964 211.5816c.0173.0238.0337.0487.0493.0734l4.8557 7.1997c.4-.7718.9329-1.4343 1.6155-1.9737.9108-.72 2.056-1.1889 3.4699-1.3686l-147.49-218.0319.001-.0008c-.1687-.2498-.2597-.5553-.2392-.8796.0487-.7795.7208-1.3717 1.5003-1.3229zm88.5044 163.3559 30.9847 45.8041 21.3142 1.9265-32.9419-48.1754zm21.2888 52.4151-30.7361-45.5737-7.5007 18.1153 31.3647 48.2797z" fill="#1b1918"/><path d="m170.0351 507.5223c.1925 4.5428-5.8907 5.8451-7.4064.4689-1.1721-4.1567-2.1319-7.996-4.3123-11.9064-2.3582-4.229-2.8072-9.0901-4.0315-13.875-1.9357-7.564-2.4284-16.1793-4.219-23.6273-.6041-2.5124-2.8579-2.5994-3.9376-1.3125-5.6084 6.6827-9.8425 15.647-15.1991 21.4849-3.4121 3.7188-6.6759 6.2017-10.207 9.4516-1.1642.9924-2.1118-.9014-1.0783-2.6484 6.0548-10.2345 13.0158-19.8834 19.3598-29.7899-3.0626 3.6561-6.757 7.1552-10.5937 9.843-8.6303 6.0469-16.6147 10.8068-26.3435 11.0625-6.1988.163-10.5491-1.419-13.5-3.3749-2.575-1.707-3.7808-3.9838-1.7186-7.5016.8699-1.4842 2.9866-3.8409 4.5312-4.9672-2.8749.2189-5.9658-.8954-8.8359-1.1953-7.528-.7866-14.1647-3.5657-17.225-8.3926-1.7286-2.7269-2.6028-6.2951-.0236-9.6329 6.4517-8.3501 26.2287-17.7446 39.7511-16.8991 4.4496.2781 8.9918-1.2696 13.4762-1.8167 1.9531-.2653 3.4373-1.6061 5.7186-1.5585 2.1875.0457 2.3154-2.1449.6563-3.5626-3.9187-3.3474-8.1338-5.6857-12.75-6.0936-7.5886-.6704-15.6061-4.0983-17.9062-7.3137-.8464-1.1837-.4388-2.8621 1.8751-2.0624 7.2312 2.4995 15.0772 5.7137 22.0315 6.4686 2.5608.2781 5.9213 2.8505 7.2187-.0938.7475-1.6971 1.7002-2.9424 3.1292-4.1247.9002-.7452 3.2765-2.49 1.5584-3.7502-1.614-1.1838-3.1691-2.2371-5.5281-2.3463-1.0304-.0476-2.1169-.4955-3.0937-.9374-1.2858-.5817-3.8497-.2744-5.8125-.6681-2.042-.4096-2.9894-2.6306-1.4298-3.1992 3.0272-1.1035 6.3207-.5077 9.1877.1406 3.3749 1.2501 7.8517 2.7108 11.2266 3.9608 1.3385-.9521 2.0421-1.9644 3.5155-2.7654 1.747-.9496 3.7664-2.2346 5.4854-2.4846-.0627-1.9687-.3303-4.3818-.1528-6.4219.2673-3.0764 1.2586-5.5344 2.1742-8.3202.9983-3.0388 2.3105-3.636 4.0722-5.6484 1.1069-1.2639 2.3539-.5944 1.8048.4454-.7633 1.4453-.97 2.7618-1.6642 4.242-.9618 2.0509-2.0778 4.0448-2.8125 6.1875-.7322 2.1345-.5355 4.3455-.457 6.3751.0301.777.8796 1.2348 1.6991 1.1486 1.5537-.1633 3.0005-.546 4.4765-.5862 2.7805-.0763 4.8359.1718 6.961.9842.1562-1.9687.2894-2.5781-.117-4.453-.5001-2.6875-1.2504-5.2914-1.1486-8.1093.1201-3.3256.756-6.1203 1.0559-9.2344.2622-2.7227.4124-5.3006.0703-8.0626-.1985-1.6036.4957-1.9488 1.7109-1.2186 1.9922 1.197 2.0229 3.9393 2.1799 7.1719-.4689 4.5312-.3997 8.9339-1.1254 13.5-.3829 2.4111.6804 4.89.633 7.3128-.0686 3.5133.8748 6.8437 4.0312 8.7653 2.0942-5.2342 5.559-9.3847 8.1569-14.999 4.0859-8.8307 8.1854-15.7716 14.158-22.3117 3.8891-4.2588 8.7828-7.9657 13.0079-9.4456 5.6077-1.9647 12.0237-1.4015 13.8064 5.6956 2.1693 8.6369 1.4502 16.4333-1.2189 24.7502 1.9687-1.1563 4.7013-1.5052 6.7031-1.6872 5.0731-.4618 8.6593 2.8995 8.8602 7.1249.4607 9.6825-10.4646 18.3843-21.2788 24.8445-6.3666 3.8029-15.2331 5.8073-24.5594 7.5951.8365 1.8499 1.4514 3.4008 2.7187 3.2814 14.529-1.368 23.0038-.9482 33.7516-3.3743 3.2995-.745 5.745.0493 4.3126 1.8751-2.0364 2.5965-5.7124 4.1601-8.7655 5.4842-4.0082 1.7385-7.03 2.2787-11.2034 2.5665-4.1165.2837-8.2732.0898-12.3982-.4805 2.8443 4.4064 11.6184 11.5557 17.369 17.1811 3.1564 3.3125 6.5741 6.0017 10.3125 8.8126 1.3901 1.0451 6.5349 7.2666 8.2499 9.1874 3.5609 3.9883-1.8581 5.9023-5.4374 3.5625-4.0096-2.6214-7.8902-7.2411-11.8125-10.8751-2.8934-2.681-5.9885-5.1389-9-7.6873-3.8943-3.2947-8.3753-6.9142-13.6877-9 2.7499 4.9374 5.5001 9.8751 8.25 14.8125 3.6408 6.5157 7.5591 13.7364 7.7229 20.4846.169 6.9545-1.7554 11.6844-4.2066 13.1964-2.8289 1.7447-10.999 2.2161-15.1404-.4924-7.4707-4.8864-13.8039-10.7053-19.5001-17.4376-2.5015-2.9566-4.242-6.8514-7.7108-10.0075-2.586 4.7501.2055 8.074.7796 10.0931 1.6395 5.7688 2.5574 9.1468 4.1306 14.68 2.3159 8.1448 6.3006 14.8162 6.6688 23.5117z" fill="#1b1918"/><g fill="#fff"><path d="m134.9379 422.7236c.9763.0533 2.0517.3518 2.6252 1.3125.2171.3642.686.5286.9159.8847.2154.3336.2225 1.1848-.1877 1.324-2.9676 1.0083-5.7903 2.0248-8.6953 3.5983-11.4468 6.2017-21.7842 14.5256-31.0311 23.7189-1.6129 1.6039-3.0626 3.9098-5.2968 4.2534-3.4376.0468-8.0144.294-10.4534.0119-5.7296-.6627-10.6795-2.4976-15.2342-8.3905-1.3762-1.7808-2.304-4.0825.1874-6.7502 6.2209-6.6611 15.4083-12.543 32.1094-14.8612 2.4775-.3438 5.0222-.1593 7.4532-.8906 2.1438-.6446 2.1041.0748 1.125 1.2656-1.2971 1.5784-19.1744 9.9321-26.7182 18-1.4562 1.5577.0343 2.7414 1.4063 1.7346 3.0889-2.2663 5.7631-4.9105 9.2344-6.8437 1.0672-.5942 2.2147-.3555 3.2343.6091.7064.6679.4782 1.8392-.2341 2.3908-2.3851 1.8459-4.7333 3.7409-7.1252 5.578-.8424.6471-.9453 1.8828-.1874 2.5784.7189.6174 1.7473.1868 2.4375-.4689 7.8143-7.4196 16.8639-14.2279 25.9691-20.4375 1.4105-.9618.5369-1.688-1.1483-1.5117-1.815.1896-7.0027 3.5087-13.8575 9.3166-.7758.6571-2.1971 1.6042-3.2286 1.1954-.6061-.2398-1.0293-.6043-1.0783-1.1251-.0718-.7622-.0448-1.1854.8906-1.9689 5.2849-4.4257 13.4785-7.5436 14.3643-8.1652 4.2678-2.9954 8.7613-4.8266 12.191-5.4757 3.397-.6429 6.8799-1.0715 10.3325-.883z"/><path d="m135.9907 430.1254c2.3219-1.1681 3.6663-.79 4.758.6446 1.0632 1.3975 2.0083 2.8928 3.2108 4.2305 1.18 1.3133 1.758 3.4426 1.0312 4.875-3.6093 7.1107-8.0402 14.6021-14.0618 20.1563-9.8031 9.042-21.8393 14.9624-36.1877 12.9376-3.1697-.447-7.7887-2.8134-5.4374-6.1874 3.6887-5.294 8.5561-9.921 13.3594-14.3439 2.7318-2.5158 5.0213-4.8742 8.7188-6.4687 1.3881-.5987 2.7434-.3829 2.7655 1.1719.0139.9691-5.1613 5.4969-7.4531 8.7655-.6055.864-.7441 2.5801.5156 2.1563.9904-.333 2.412-2.0721 3.5393-3.3397 1.4111-1.5869 2.8826-3.591 4.4294-4.629.7104-.4765.851-1.6971 2.4376-.5156.924.6879 1.8291 1.3209 2.6251 2.2501.5179.6044.7107 1.7569.2812 2.4375-.4215.6687-1.2489 1.2342-1.453 1.8749-.1667.5235-.3286.9887-.2109 1.4298.1477.555.6364 1.6568 1.2889 1.5233.5661-.1157.9422-1.4145 1.5469-2.156.3642-.4465.2352-.8816.2576-1.5823.0236-.7387.6197-1.2042 1.1486-1.2773.6024-.0834.652-1.1118 1.2189-1.3592.6894-.3011 1.4973-.1809 2.2499-.1877.9227-.009 1.904.4708 2.7657.1406.4958-.1902.9936-1.0426.6563-1.453-.7146-.8689-2.2958-.6157-3.047-1.4531-.4932-.5493-.4694-1.5035-.2344-2.2033.4376-1.3028 1.3768-2.3837 2.1563-3.5156.364-.5289 1.0383-.8526 1.2657-1.453.1936-.5119.0819-1.1225-.0939-1.6407-.1352-.3997-.4773-1.26-.7968-.9845-.4671.4031-.9697.7132-1.2186 1.1719-.4249.7832-1.0576 1.4502-1.4533 2.2501-.7912 1.5999-1.7836 2.6487-2.5781 4.0312-.5395.9385-1.4698 1.5573-2.4375 1.3595-.5684-.116-1.1523-.3722-1.5469-.7969-.4609-.4966-.8762-1.1282-.8907-1.8283-.0144-.7061.457-1.6166 1.1251-1.9687 1.3677-.7214 2.8758-1.9301 4.172-3.0705 1.6422-1.4451 3.1204-3.0702 4.618-4.6647 1.1673-1.2424 2.1138-2.6971 3.3752-3.8437 1.0752-.9777 2.2858-1.8304 3.5841-2.4838z"/><path d="m174.0135 392.8989c1.5151-1.4406 2.0823-.432 3.2346.1874.9845.6562 1.9797 1.2965 2.9532 1.9689 1.6503 1.1401 1.531 2.2745.1406 3.4688-2.3925 2.0554-4.7379 4.1669-7.0784 6.2813-1.2218 1.1038-2.6343 1.0374-3.8906.8436-.9709-.1497-1.4176-.3532-1.7575-1.4296-.3021-.9578-.5624-2.3261.3512-3.6328 1.8287-2.6159 3.7894-5.5409 6.0469-7.6876z"/><path d="m181.9837 375.7433c-1.3674 3.6871.3384 2.1393 1.2657 1.1957 4.2593-4.3364 8.2567-9.4499 12.5393-13.7344 2.1923-2.1938 2.1813 1.7416 1.6636 2.5426-.8472 1.3122-3.7108 3.6304-5.8351 5.6135-.82.7659-1.2963 2.016-.7497 2.6016.5085.5451 1.0088.8819 1.2654 1.6172.3843 1.1027 1.1888 2.2895 2.133 2.4846 2.1544.4456 4.1576-.866 5.7895-1.9684 3.0866-2.0846 3.8293-3.3846 5.6251-4.1485 1.6738-.7124 1.7421 1.2708 1.29 1.9686-1.1174 1.7235-3.4693 2.8225-5.2971 4.0082-1.5245.9893-2.9143 1.5188-3.0937 3.4217-.1012 1.0744-.002 2.1178 0 2.8593.006 1.656 1.3688 2.0486 2.2969 1.4531 1.9077-1.224 4.3889-2.3066 6.7513-2.8817 3.0186-.735 4.3041-3.2842 5.3436-5.5786 1.0457-2.3083 1.0768-5.1318 1.125-7.6638.0927-4.8531.7787-9.8863-1.0312-13.3126-1.4732-2.7887-4.5479-4.8075-7.6759-3.8673-4.0244 1.2098-7.1193 3.5705-9.8085 6.1875-7.052 6.8618-12.255 13.583-13.5972 17.2017z"/><path d="m178.7567 384.5857c-.938.953.8396 1.2308 1.3592 1.0077 1.6838-.7222 2.8449-1.1828 4.4768-2.0154 1.7923-.9142 3.3228-1.6772 4.9697-2.7655 1.3479-.8909 2.1685-2.0154 1.078-3.2814-.7427-.8622-1.8918-1.3396-3.047-.5623-3.397 2.2861-6.2206 4.9586-8.8367 7.6169z"/><path d="m192.939 382.1848c1.1716-.5377 2.8857-.6874 3.1876.8436s.2406 2.0642.375 3.094c.2684 2.0551-.7248 2.3057-1.8281 2.9061-3.2754 1.7821-6.1846 3.9285-9.1173 5.9298-.8725.5955-1.641.6497-2.7306-.1171-1.9361-1.3618-3.8092-2.7686-5.3085-4.5938-.4711-.5735-.424-1.4715.7501-1.6875 1.4142-.2599 2.7924-.3827 4.3123-1.2189 3.3789-1.8592 6.8542-3.547 10.3595-5.1562z"/><path d="m121.3121 438.2612c.3829-.1678 1.0176.297.6562.6565-1.6966 2.0483-3.4186 4.0147-5.1562 5.1091-.5497.3464-.9564-.6732-.8558-1.2067.1094-.5794.75-1.0859 1.0783-1.5704 1.0108-1.0494 2.6725-1.9703 4.2775-2.9885z"/><path d="m183.2754 400.0972c-2.1302 2.228.5689 2.3743 1.1367 2.0741 6.5931-3.4841 12.9932-5.7373 19.4885-5.449.7277.0323 1.961 1.3093 1.2421 1.4298-1.6602.278-.8416 1.2858-2.5081 1.6639-2.6787.6077-4.6343 1.1356-6.9842 2.2499-1.2209.5791-1.8854 1.7895-2.0155 3.4455-.0541.6894-.6874 1.2379-.8906 1.8983-.4385 1.425-.303 1.7204.9374 2.3437 1.061.5332 2.4681.4442 2.9608 1.5132.3591.7795 3.2442 1.1633 4.2111.6899 4.8515-2.3751 8.8178-4.6774 13.2656-8.1094 5.461-4.2137 12.185-8.7343 13.3126-15.8436.4777-3.011-.7185-4.942-2.7652-5.8128-2.3241-.9887-5.4711-.7786-7.641.1877-4.6749 2.0823-9.4822 3.6448-13.9689 6.0001-6.785 3.5623-14.9927 6.7102-19.7813 11.7187z"/><path d="m189.6409 402.6645c.7285-.1819 1.8326-.0212 2.1563.6565.3688.7728-.5655 1.6331-.6562 2.4843-.1579 1.4842-.4391 2.5659-1.2716 3.0116-1.1044.5907-2.2703.555-2.4783-.4335-.2702-1.2843-.5741-2.7161-.0939-3.9376.3592-.9127 1.3918-1.5437 2.3437-1.7813z"/><path d="m177.7414 408.1139c.6437-.1302.9116-.6736 1.4765-1.008.8773-.5193 1.9239-.6245 2.9767-.8204.8064-.1499 1.9616-.1023 2.3907.7033.5933 1.1129-.1273 2.0361-1.0312 2.4375-1.1996.5323-2.5288.576-3.797.75-.724.0995-1.6059.1795-2.0625.7501-.4266.5332-1.1704 1.1137-1.9219 1.2657-.6055.1221-1.457.2168-1.8516-.258-.4229-.5094-.8226-1.5114-.5389-2.1095.3889-.8198 1.4375-1.5361 2.3434-1.5937.5945-.0377 1.37.0134 2.0158-.117z"/><path d="m184.7271 411.7584c1.3646-.1667 2.7603-.1174 4.1252.0467.8583.1032 2.0733.1284 2.7187.7033.7702.6854.0264 1.8675-.7435 2.2805-1.4564.7809-3.634.5459-5.2566.86-.9646.1868-1.8603 1.0338-2.836 1.1486-1.5667.1843-2.9166.2109-4.4765-.0235-1.3808-.2075-1.0451-1.4531-.8439-2.0625.3578-1.0843 1.696-1.5508 3.0002-1.8751 1.4375-.3575 2.8417-.8986 4.3124-1.078z"/></g><path d="m155.6674 444.3146c-2.7383.2656-4.3875 2.025-2.2969 3.5623 4.7588 3.4993 14.2378 3.0398 19.6597-1.8292 5.2364-4.7027 10.489-10.8176 7.1059-16.8857-.6767-1.4865-1.7377-1.8584-2.8123-.3164-2.8397 4.0759-5.902 7.4163-9.375 9.4689-3.9441 2.3309-7.7817 5.5638-12.2814 6.0001z" fill="#fee62e"/><path d="m175.7945 446.3237c2.5682-2.4139 4.648-4.1074 6.2184-6.5335.9357-1.4457 1.2628-2.7082 2.4843-1.3592.6474.7146 1.0386 1.3657 1.2189 2.2498 1.0596 5.1979-2.0515 10.9437-6.7031 13.6409-5.1134 2.9645-10.3862 3.3591-16.1019 1.1954-1.1523-.436-3.2658-1.1407-3.1641-2.4375.1797-1.0313 3.7225-1.5197 5.4845-1.8516 2.6637-.5015 5.1389-1.315 7.4064-2.6252.8472-.4898 2.5852-1.7416 3.1566-2.2791z" fill="#fee62e"/><path d="m179.3319 456.6997c3.206-2.3667 5.9941-4.8986 8.5895-8.3325 1.3278-1.7569 2.8454-1.8017 3.5626.4689 2.461 7.7888-1.4562 12.238-6.6563 15.6563-6.6084 4.3435-12.5141 4.6417-18.7033-.1406-.6962-.538-1.5936-2.2187.3283-2.8593 5.5624-2.2507 6.8757-.3611 12.8792-4.7928z" fill="#fee62e"/><path d="m187.056 467.3401c2.5384-1.9913 5.2084-4.5482 6.7737-7.3596.4056-.7285.638-1.9287 2.2734-.9374 1.7027 1.0321 2.2019 4.0632 1.9927 6.2345-.3532 3.6658-3.3409 6.5753-6.1877 8.7188-2.8582 2.1518-6.454 3.7582-10.1251 3.5626-2.5676-.1369-5.3167-1.5752-7.219-3.3049-.5848-.5315-1.2121-2.2711 1.0315-2.3202 3.5745-.0785 8.2273-2.0576 11.4605-4.5938z" fill="#fee62e"/><path d="m193.4677 476.6797c1.9837-1.4658 3.2238-3.8115 4.2656-6.0469.9153-1.9641 2.5421-1.281 2.9063-.375 1.7615 4.3812.7504 9.4062-3.0937 11.9064-3.2618 2.1211-8.1374 1.618-11.6719.1876-2.458-.9949-1.9058-2.6631.1873-3.094 2.56-.527 5.3042-1.0247 7.4064-2.5781z" fill="#fee62e"/><path d="m150.0619 411.8726c7.9991-5.4655 13.2182-5.0803 18.375.5624 8.3191 9.1029 3.4141 14.8283-4.0314 20.2501-6.2419 4.5457-13.633 5.8794-19.5001-2.2498-4.5675-6.3284-1.959-13.701 5.1565-18.5627z" fill="#724832"/><path d="m144.2025 409.8583a7.0783 7.0781 0 0 1 -7.0782-7.0781 7.0783 7.0781 0 1 1 7.0782 7.0781z" fill="#724832"/><path d="m153.2735 395.5377c-.3469-.5063-.1289-1.9219.4686-1.7813 1.4993.3535 3.0305 1.3243 3.8908 2.6016.758 1.1254.8382 2.6901.4335 3.797-.3459.9457-1.0523 1.8227-1.9335 1.8984-1.2986.1117-1.859-.476-1.5001-1.1719.3789-.7347.5136-1.5857.3282-2.3907-.2543-1.1047-.9833-1.9256-1.6875-2.9531z" fill="#724832"/><path d="m132.0146 407.7955c.8648.0437 1.1157 1.3269 1.6406 2.0157.4284.5619.6971 1.2586 1.2189 1.7346.5641.5142 1.4287 1.6458 2.1564 1.8751 1.5743.4958.5538 2.1764-.2742 2.5818-2.1566 1.0562-3.4191-.216-5.2103-2.0665-1.0656-1.101-1.7104-2.7845-1.5939-4.3123.0697-.9159 1.1452-1.8746 2.0625-1.8284z" fill="#724832"/><path d="m198.22 488.1317 47.3536 70.213.0493.0734 4.8557 7.1997c.4-.7718.9329-1.4343 1.6155-1.9737.9108-.72 2.056-1.1889 3.4699-1.3686l-52.5334-77.6591c-.6431 1.1877-1.4037 2.0531-2.2232 2.5586-.6312.3892-1.5284.7151-2.5874.9567z" fill="#fff"/><path d="m242.8617 559.3884-30.7361-45.5737-7.5007 18.1153 31.3647 48.2797z" fill="#fff"/><path d="m221.5729 506.9733 30.9847 45.8041 21.3142 1.9265-32.9419-48.1754z" fill="#fff"/><path d="m138.1192 394.9875c.9927-.5395 2.073-1.1872 3.1366-1.692l-33.1804-49.0527c-.1687-.2498-.2597-.5553-.2392-.8796.0487-.7795.7208-1.3717 1.5003-1.3229l23.732 1.5771-44.3276-26.3398 3.9565 52.0209 7.6346-22.0955c.0828-.324.2803-.6202.5797-.8221.6483-.4371 1.5284-.2661 1.9655.3822l33.4239 49.5592c.5304-.4754 1.0769-.9317 1.8181-1.3348z" fill="#fff"/></g><path d="m1042.9281 616.1519v-.008z" fill="#223d7d" fill-rule="evenodd"/><g stroke-width=".950904" transform="matrix(1.0516306 0 0 1.0516306 -.566026 -3.322727)"><path d="m442.9321 616.1519v-.006-.001-.006c0-.7293.1088-1.4167.3073-2.063.8336-2.7077 3.1223-4.597 6.4845-5.7045 2.5985-.856 6.0049-1.2736 9.9255-1.2583 6.8094.0267 15.3553 1.3751 23.925 4.0127 8.9257 2.7468 17.5844 4.8215 25.7692 6.1855 8.13 1.3547 15.749 2.0047 22.6514 1.9123 9.0703-.1211 17.5011-.7492 24.5194-2.651 6.514-1.7651 11.7345-4.6363 14.9553-9.2761.6627-.9941 1.8133-1.6279 3.094-1.5729 1.9491.0839 3.4611 1.7325 3.3772 3.6816-.9238 20.9376-11.7355 35.678-22.5462 50.4173-1.427 1.9457-2.8545 3.8917-4.1698 5.7226 4.1029 4.178 8.511 8.0419 13.2531 11.558 5.4663 4.0532 11.3944 7.6379 17.8308 10.7027v.008c.5553.2636 1.0491.6757 1.4159 1.2234 1.0854 1.6206.6517 3.8146-.9689 4.9-15.5616 10.4354-29.4874 15.0003-42.6038 16.4367-11.5824 1.2682-22.3903.0858-33.1098-1.6376-.1324 5.3373-.3184 10.5701-.5037 15.8031-.2345 6.613-.4695 13.2271-.5922 19.6742.0006.0544.0003.1085 0 .1633-.1001 2.7932-.6815 5.1961-1.6427 7.2334-.04.1032-.085.2055-.1349.3067-1.5199 3.0424-3.869 5.1766-6.7252 6.5191-2.6702 1.2549-5.7475 1.7705-8.9487 1.6557-4.1114-.1471-8.4688-1.3277-12.4058-3.2947-27.6013-13.7902-55.9701-24.1755-85.10567-31.3543-29.175-7.1886-59.1307-11.1764-89.8651-12.1612-30.9373-.991-60.7399 2.8157-89.7664 10.0262-29.0682 7.2207-57.3837 17.8707-85.2959 30.5444-7.5113 3.4129-15.0327 5.8813-21.1482 5.9548-2.8488.0343-5.434297-.4405-7.643597-1.5517-2.397-1.2056-4.2817-3.0915-5.5086-5.7912-.9187-2.0222-1.4337-4.5006-1.4697-7.4954l-.4403-36.4382c-13.797 2.0993-26.871 2.3856-39.23.4051-13.6214-2.183-26.3075-7.1071-38.052-15.3684-.6152-.4022-1.1109-.9986-1.3833-1.7418-.6727-1.8346.2692-3.8674 2.1038-4.54 6.7941-2.4902 12.8435-5.6945 18.3192-9.7101 4.8257-3.5393 9.2313-7.7278 13.3333-12.632-1.6058-2.2377-3.1929-4.3813-4.7831-6.5288-10.8726-14.6826-21.8931-29.5668-22.667-49.4952-.1004-1.1086.3229-2.247 1.237-3.0206 1.4905-1.2611 3.7216-1.0754 4.9828.415 4.7676 5.6055 10.6852 9.0136 17.4387 10.9267 7.0073 1.9854 14.9528 2.4001 23.4782 1.9829 9.0681-.4436 18.5622-1.7921 28.478-3.8055 9.966897-2.024 20.396197-4.7288 31.267897-7.8687 2.5775-.7444 5.5304-1.1279 8.498-1.1943 4.0742-.0904 8.2389.4147 11.5279 1.4012 4.0813 1.2243 7.1382 3.3426 7.9863 6.281.1449.5015.2259 1.0225.2376 1.5591.005.1984.003.3962-.002.5935l-.0905 25.9118c19.6453-8.0351 39.9858-14.5825 61.0011-19.3762 28.2588-6.446 57.717-9.7044 88.319-9.1273 31.6244.5964 61.719 4.8382 90.4584 12.1975 17.37067 4.4478 34.23027 10.0264 50.61937 16.6187z" fill="#223d7d" fill-rule="evenodd" stroke-width=".904219"/><g stroke-width=".950904"><g fill="#fff" fill-rule="evenodd"><path d="m500.06467 704.5379-.229-39.371c-2.6921 1.3816-5.9111 2.2482-8.9292 2.3647-.088.003-.176.002-.2627-.0006v.0006c-2.6181-.1038-5.5219-.296-8.6763-.9187-3.2522-.6421-6.774-1.7263-10.5381-3.6037-25.7853-12.8591-52.6901-23.1588-80.87807-30.3767-28.2183-7.2258-57.7692-11.3904-88.825-11.9763-30.0113-.5661-58.9167 2.6331-86.6586 8.9611-29.529 6.7357-57.7669 17.0379-84.6411 30.134l-.8107.3957c-6.9851 3.4101-14.1664 6.9166-22.9104 6.9344-3.1391.006-7.0291-.2378-10.3295-1.5758l.9587 79.3798c.0232 1.9516.3251 3.492.8609 4.6715.5111 1.1247 1.2778 1.9011 2.2419 2.3862 1.152.5794 2.6416.8254 4.3775.8044 4.9873-.0601 11.5708-2.277 18.3243-5.3458 28.2478-12.826 56.9554-23.6169 86.5137-30.9595 29.6005-7.353 60.0318-11.2337 91.677-10.22 31.2505 1.0015 61.6955 5.0528 91.3323 12.3551 29.67607 7.312 58.53477 17.8716 86.57227 31.8798 3.0872 1.5424 6.4253 2.4653 9.4992 2.5753 2.1248.076 4.0946-.2319 5.7104-.9913 1.4298-.6721 2.6087-1.7458 3.3752-3.2802.037-.0751.077-.1486.1193-.2197.5437-1.1772.8754-2.6388.9389-4.4138v-.0465c.1282-6.7315.36-13.2616.5916-19.7909.235-6.6399.4711-13.2809.5933-19.7521z"/><path d="m96.2471 654.8717.0003.0139.005.3855c.0834 1.9126 1.1923 3.0102 2.6655 3.6352 2.241.951 5.2871 1.1214 7.7879 1.1163 7.0537-.0142 13.5204-3.1717 19.8099-6.2422l.8107-.3957c5.9715-2.9101 12.0121-5.6846 18.1216-8.3163l.0567-16.2612c-.1718.1525-.3455.3041-.5221.4549-5.0641 4.3277-12.2979 8.1822-19.8355 11.2689-2.052.8402-4.5981 1.7552-7.3301 2.7368-9.5221 3.4217-21.6354 7.7749-21.5691 11.6039z"/><path d="m89.1886 654.8856.001-.0569c.0187-8.7784 14.6937-14.0536 26.246-18.2047 2.5925-.9315 5.0082-1.7997 7.0256-2.6257 6.914-2.8313 13.4734-6.302 17.9255-10.1067 3.1079-2.6558 5.0868-5.3575 5.1616-7.8973l.0003-.074c-.2492-.3691-1.4627-.8663-3.1847-1.3827-2.6448-.7932-6.0293-1.1988-9.3691-1.1245-2.3763.053-4.6987.3481-6.6708.9175-11.0163 3.1817-21.6283 5.9315-31.8495 8.0071-10.2727 2.0857-20.1163 3.4835-29.5296 3.9438-9.2313.4516-17.9105-.0187-25.7205-2.2317-4.8696-1.3793-9.3861-3.4231-13.4696-6.3181 3.1339 13.6105 11.6453 25.107 20.063 36.4745 2.228 3.0087 4.4504 6.01 6.4412 8.8469.9204 1.3085.8291 3.0249-.1117 4.2208l.0008.0008c-4.9589 6.289-10.3543 11.5869-16.3754 16.0027-4.2486 3.1159-8.7942 5.7819-13.7027 8.0351 9.2849 5.5253 19.1662 8.9674 29.6422 10.6464 11.8627 1.9012 24.5469 1.554 38.0367-.5814l-.5534-45.8045c-.007-.225-.0102-.4538-.007-.6874z"/><path d="m449.98047 627.9174-.01 17.4092c8.3245 3.5246 16.5271 7.3109 24.6129 11.3432 3.1371 1.5647 6.0546 2.4647 8.7392 2.9948 2.7275.5385 5.2161.7109 7.4603.8027 2.4086-.1173 4.9739-.9328 6.8697-2.1815 1.2592-.8294 2.1198-1.7419 2.122-2.5339.012-3.9855-13.3659-9.1885-27.8722-14.83-2.8564-1.1109-5.7523-2.2374-8.3117-3.2647-4.1482-1.6648-9.292-5.47-13.3084-9.4374-.1018-.1003-.2024-.2015-.303-.3024z"/><path d="m449.99047 616.1519v.0139c-.01 1.2311 2.2428 4.0431 5.2521 7.0157 3.4387 3.3968 7.7011 6.598 10.9834 7.9152 2.9338 1.1775 5.5992 2.2144 8.2284 3.2369 15.7909 6.1413 30.4313 11.8358 32.2044 19.7731.1165.3478.1803.7197.1817 1.1066l.2698 46.3643c10.5744 1.734 21.168 2.9824 32.2901 1.7646 10.6129-1.1619 21.8488-4.5831 34.2601-12.0022-4.7027-2.565-9.1611-5.4263-13.3906-8.5629-5.8244-4.3185-11.2037-9.1683-16.1833-14.4918-1.1588-1.2385-1.2512-3.0912-.3158-4.4274v-.002c2.1118-3.0181 4.0175-5.6163 5.9232-8.2146 8.3832-11.4293 16.7655-22.86 19.927-37.0264-3.2799 2.1011-7.0769 3.6559-11.2773 4.7942-7.6156 2.0637-16.6224 2.7434-26.2639 2.8721-7.3649.0984-15.402-.5794-23.8969-1.995-8.4637-1.4105-17.4291-3.5595-26.6825-6.4072-7.9214-2.438-15.7297-3.6842-21.8767-3.7082-3.1283-.0122-5.7679.295-7.6833.926-1.152.3793-1.8482.7407-1.9445 1.054v.0008z"/></g><g><path d="m468.8867 706.4578c-1.7643 3.7647-4.4589 6.2597-8.081 7.4769-3.6142 1.2206-7.6247.9703-12.0181-.737-5.0675-1.9689-8.3911-5.0678-9.9748-9.3073-1.5951-4.2344-1.2847-9.191.9195-14.8646 2.2536-5.7997 5.4125-9.6769 9.4743-11.6498 4.062-1.9726 8.7758-1.912 14.1525.1772 4.3617 1.6948 7.4007 4.0926 9.1058 7.1985 1.7129 3.1085 1.9388 6.6385.6791 10.6087l-6.9468-2.6997c.4546-2.0393.2318-3.8152-.6526-5.3215-.8923-1.5089-2.4329-2.6889-4.6139-3.5365-3.0929-1.2019-5.8346-1.1228-8.2171.2401-2.3825 1.3632-4.3121 3.9558-5.796 7.7749-1.4349 3.6929-1.747 6.8686-.9269 9.5034.8169 2.6425 2.7005 4.5369 5.6585 5.6863 2.1336.8289 4.0978.9658 5.8739.4116 1.7842-.5513 3.2715-1.7717 4.4638-3.6422z"/><path d="m416.3046 662.7467 24.5103 7.4812-1.8536 6.0726-17.3817-5.3053-2.4171 7.9189 15.2336 4.6496-1.8535 6.0727-15.2334-4.6497-4.5375 14.8661-7.1288-2.1759z"/><path d="m388.23633 656.16406-20.71485 32.79102 7.76172 1.73633 4-6.8086 13.88282 3.10352.79101 7.88086 7.74024 1.73047-4.95118-38.53125zm2.6875 8.09571 1.58984 16.2832-9.94726-2.22461z"/><path d="m284.34961 646.21289c-5.4757.1925-9.76735 2.0801-12.87695 5.6543-3.109 3.5739-4.56102 8.31794-4.35352 14.21484.2069 5.8805 1.9887 10.50164 5.3418 13.86524 3.3534 3.3551 7.76628 4.93654 13.24218 4.74414 5.47571-.1928 9.7864-2.08157 12.9043-5.66407 3.1254-3.5917 4.58386-8.32683 4.37696-14.20703-.2072-5.8884-1.99514-10.50223-5.36524-13.86523-3.3622-3.3548-7.79353-4.93489-13.26953-4.74219zm.23047 6.54883c3.2567-.1145 5.82194.90471 7.71094 3.0664 1.8893 2.16111 2.89981 5.24272 3.04101 9.26172.1417 4.0187-.65001 7.16443-2.38281 9.45313-1.7325 2.289-4.21986 3.48501-7.47656 3.59961-3.2142.1131-5.76022-.90606-7.63282-3.06836-1.8723-2.1617-2.87412-5.24497-3.01562-9.26367-.142-4.0354.64102-7.18749 2.35742-9.45899 1.7164-2.2799 4.18424-3.47674 7.39844-3.58984z"/><path d="m316.8292 647.0691 4.3058 26.1632 7.2318-25.285 8.0427.6123 3.3214 26.0883 8.225-25.2096 7.7456.5896-13.2582 35.6176-7.177-.5462-3.5357-28.321-7.8151 27.4567-7.1776-.5462-7.7133-37.2138z"/><path d="m138.34766 678.62695c-1.75928.0763-3.71644.57197-5.875 1.48828l-15.92969 6.76172 14.26953 33.61914 15.4043-6.53906c3.9313-1.6691 6.58591-3.84551 7.97461-6.54101 1.3832-2.6841 1.38138-5.67212-.008-8.94532-.8337-1.9638-1.9584-3.41588-3.3789-4.36718-1.4207-.9516-3.15911-1.40955-5.19531-1.37305 1.07439-1.1917 1.71184-2.50228 1.90234-3.92578.1829-1.4205-.0872-2.9884-.8086-4.6875-1.17439-2.7664-2.97814-4.49243-5.40234-5.17383-.91331-.25725-1.89756-.36219-2.95312-.31641zm-1.40821 7.04493c.29983-.004.57558.0213.82617.0781 1.01001.2242 1.77027.95024 2.29297 2.18164.5357 1.2623.52698 2.3511-.0156 3.27148-.5508.92361-1.66977 1.74857-3.38477 2.47657l-7.92578 3.36328-3.03711-7.15235 7.87891-3.3457c1.3449-.57105 2.46575-.85976 3.36523-.87304zm6.22461 12.71874c.34491.007.66421.0506.95703.13086 1.1639.3246 2.0811 1.26954 2.7461 2.83594.6415 1.5118.66162 2.7984.0742 3.875-.5947 1.0803-1.86456 2.03363-3.81446 2.86133l-8.22265 3.49023-3.73047-8.78906 8.17578-3.4707c1.5099-.64095 2.77974-.95344 3.81445-.9336z"/><path d="m169.92188 666.34766-8.31055 2.64062-1.39258 38.75977 7.58203-2.40625.0273-7.89649 13.5586-4.30664 4.65039 6.41016 7.55859-2.40039zm-1.91211 8.2832 9.57031 13.26758-9.71485 3.08594z"/><path d="m210.67188 656.11328c-1.2321.0367-2.57988.22214-4.04493.55664l-17.36914 3.9668 8.13086 35.60351 7.36719-1.68164-3.16797-13.86523 7.81445-1.7832c1.9579-.4471 3.40589-.37108 4.33789.23242.9323.6032 1.6873 1.9946 2.27539 4.1875l.95704 3.73242c.2653 1.0074.54725 1.86396.84765 2.56836.309.7021.64763 1.26614 1.01953 1.71094l8.0625-1.83985-.25-1.08984c-.9828-.2534-1.74154-1.43473-2.27734-3.55273l-.0332-.14844-1.11133-4.17578c-.6443-2.3624-1.41843-4.03453-2.33203-5.01563-.9137-.9808-2.20747-1.56322-3.88477-1.76172 1.6047-.9224 2.6988-2.2142 3.2793-3.875.5908-1.6543.63242-3.57364.13672-5.74414-.7784-3.4087-2.2971-5.73769-4.5586-6.96679-1.41375-.76801-3.14572-1.1198-5.19921-1.0586zm-1.33594 6.71289c.6863.0528 1.28965.2295 1.8125.53125 1.0352.5972 1.73303 1.67135 2.08594 3.21485.371 1.6256.20453 2.9132-.50977 3.875-.7075.9519-2.00793 1.64842-3.89063 2.07812l-8.6582 1.97852-2.14844-9.40821 8.99805-2.05664c.85435-.19505 1.62425-.26566 2.31055-.21289z"/><path d="m248.83789 649.84961c-.87771.003-1.81252.0673-2.80664.19141l-17.67969 2.20703 4.52344 36.23828 7.49609-.93555-1.76171-14.11328 7.95312-.99219c1.9928-.2486 3.42812-.0259 4.29492.66797.8668.6936 1.47805 2.15178 1.84375 4.39258l.57813 3.81055c.1627 1.0289.35743 1.90982.58593 2.64062.237.7296.5163 1.32509.8418 1.80469l8.20703-1.02344-.13867-1.10937c-.9524-.3504-1.58906-1.60288-1.91016-3.76368l-.0195-.15039-.68554-4.26562c-.4042-2.4151-1.00796-4.15681-1.81836-5.22461-.8107-1.0673-2.0389-1.77523-3.6875-2.14063 1.6889-.7572 2.90433-1.93314 3.64843-3.52734.7538-1.5871.98674-3.49412.71094-5.70312-.4331-3.4696-1.70854-5.93742-3.83594-7.38672-1.59532-1.08705-3.7067-1.62561-6.33984-1.61719zm-1.81641 6.49219c1.1595.009 2.10297.27578 2.8379.80468.97029.6979 1.558 1.83721 1.7539 3.40821.2066 1.6548-.0895 2.91938-.89648 3.80469-.7991.87619-2.16193 1.43843-4.07813 1.67773l-8.81445 1.10156-1.19531-9.57812 9.16015-1.14258c.43478-.0542.84592-.0793 1.23242-.0762z"/></g></g></g></g></svg>