<svg width="2500" height="1736" viewBox="0 0 242 168" xmlns="http://www.w3.org/2000/svg"><title>logo</title><defs><linearGradient x1="0%" y1="50%" x2="69.924%" y2="50%" id="a"><stop stop-color="#FFF" stop-opacity="0" offset="0%"/><stop stop-color="#FFF" offset="100%"/></linearGradient><linearGradient x1="96.834%" y1="31.578%" x2="32.057%" y2="34.803%" id="b"><stop stop-color="#FD76FD" stop-opacity="0" offset="0%"/><stop stop-color="#FF51FF" offset="100%"/></linearGradient><linearGradient x1="95.948%" y1="44.431%" x2="45.029%" y2="44.431%" id="c"><stop stop-color="#5300FF" stop-opacity="0" offset="0%"/><stop stop-color="#9D6EFF" offset="100%"/></linearGradient><linearGradient x1="96.966%" y1="35.409%" x2="44.149%" y2="42.312%" id="d"><stop stop-color="#AE60D6" stop-opacity="0" offset="0%"/><stop stop-color="#AB38E6" offset="100%"/></linearGradient></defs><g fill="none" fill-rule="evenodd"><path fill="#0B76FF" d="M121.003 139.12h50.006l-49.99-86.624-.006.01L121.019 0 219 167h-98z"/><path fill="#24C1FF" d="M120.997 139.12H70.99l49.99-86.624.006.01L120.981 0 23 167h98z"/><path fill="#39FFF2" d="M121 74v54.94L90 129z"/><path fill="#00E2C2" d="M121 74v54.94l31 .06z"/><path fill="url(#a)" d="M0 57l121 50v7L0 84z"/><path fill="url(#b)" d="M242 36.032L121 107v1.921L242 59z"/><path fill="url(#c)" transform="matrix(1 0 0 -1 0 195.989)" d="M241.906 90.989L121 82v1.989l120.906 30z"/><path fill="url(#d)" d="M242 59.963l-121 49.075V112l121-31z"/></g></svg>