<svg xmlns="http://www.w3.org/2000/svg" width="512pt" height="512pt" style="isolation:isolate" viewBox="0 0 512 512"><defs><clipPath id="a"><path d="M0 0h512v512H0z"/></clipPath></defs><g clip-path="url(#a)"><path fill="#2684FF" d="M16.611 25.836A16.398 16.398 0 0 0 .212 44.859l69.615 422.61c1.79 10.675 10.987 18.524 21.811 18.613H425.61a16.398 16.398 0 0 0 16.399-13.775l69.779-427.284A16.398 16.398 0 0 0 495.389 26l-478.778-.164Zm293.138 305.437H203.153l-28.863-150.71h161.288l-25.829 150.71Z"/><linearGradient id="b" x1="1.086" x2=".469" y1=".138" y2=".62" gradientTransform="matrix(412.197 0 0 305.603 77.288 180.563)" gradientUnits="userSpaceOnUse"><stop offset="18%" style="stop-color:#0052cc"/><stop offset="100%" style="stop-color:#2684ff"/></linearGradient><path fill="url(#b)" d="M489.485 180.563H335.578l-25.829 150.71H203.153L77.288 480.753a22.221 22.221 0 0 0 14.35 5.411h334.054a16.398 16.398 0 0 0 16.399-13.775l47.394-291.826Z"/></g></svg>