<svg xmlns="http://www.w3.org/2000/svg" xmlns:xlink="http://www.w3.org/1999/xlink" width="2000" height="1999.89" viewBox="0 0 2000 1999.89"><defs><linearGradient id="9" x1="1191.91" x2="1325.07" xlink:href="#4"/><linearGradient id="A" x1="1318.16" x2="1478.65" xlink:href="#4"/><linearGradient id="G" x1="1159.73" x2="1272.61" xlink:href="#4"/><linearGradient id="B" x1="1446.11" x2="1559.42" xlink:href="#4"/><linearGradient id="C" x1="1492.88" x2="1675.29" xlink:href="#4"/><linearGradient id="F" x1="972.44" x2="1043.32" xlink:href="#4"/><linearGradient id="D" x1="581.15" x2="1419.02" gradientUnits="userSpaceOnUse"><stop stop-color="#f8cf7f"/><stop offset=".28" stop-color="#9c6f32"/><stop offset=".33" stop-color="#a37738"/><stop offset=".4" stop-color="#b68d49"/><stop offset=".49" stop-color="#d5b065"/><stop offset=".56" stop-color="#f6d682"/><stop offset=".86" stop-color="#a4793a"/><stop offset="1" stop-color="#b56c3a"/></linearGradient><linearGradient id="E" x1="747.82" x2="848.05" xlink:href="#4"/><linearGradient id="8" x1="1044.78" x2="1177.48" xlink:href="#4"/><linearGradient id="0" x1="2613.42" y1="2389.94" x2="-1802.58" y2="-1414.62" gradientUnits="userSpaceOnUse"><stop stop-color="#f8cf7f"/><stop offset=".08" stop-color="#fff"/><stop offset=".19" stop-color="#f3d28c"/><stop offset=".26" stop-color="#d8ae5c"/><stop offset=".31" stop-color="#c79a4c"/><stop offset=".36" stop-color="#b8893f"/><stop offset=".37" stop-color="#b7883f"/><stop offset=".47" stop-color="#b3843e"/><stop offset=".52" stop-color="#be9149"/><stop offset=".56" stop-color="#c89d53"/><stop offset=".68" stop-color="#f4d07d"/><stop offset=".7" stop-color="#f1cd7a"/><stop offset=".72" stop-color="#e8c373"/><stop offset=".74" stop-color="#d8b265"/><stop offset=".76" stop-color="#c39953"/><stop offset=".78" stop-color="#a77b3b"/><stop offset=".79" stop-color="#9c6f32"/><stop offset=".81" stop-color="#a37738"/><stop offset=".85" stop-color="#b68d49"/><stop offset=".9" stop-color="#d5b065"/><stop offset=".94" stop-color="#f6d682"/></linearGradient><linearGradient id="1" x1="-300.5" y1="-658.1" x2="1831.07" y2="2059.44" gradientUnits="userSpaceOnUse"><stop stop-color="#d8ae5c"/><stop offset=".07" stop-color="#c79a4c"/><stop offset=".14" stop-color="#b8893f"/><stop offset=".15" stop-color="#b7883f"/><stop offset=".22" stop-color="#b3843e"/><stop offset=".32" stop-color="#be9149"/><stop offset=".39" stop-color="#c89d53"/><stop offset=".66" stop-color="#9c6f32"/><stop offset=".88" stop-color="#9c6f32"/><stop offset="1" stop-color="#542a14"/></linearGradient><linearGradient id="7" x1="902.73" x2="1027.38" xlink:href="#4"/><linearGradient id="2" x1="1159.56" y1="2148.82" x2="882.16" y2="150.33" xlink:href="#1"/><linearGradient id="3" x1="1084.19" y1="864.42" x2="1468.19" y2="408.32" gradientUnits="userSpaceOnUse"><stop stop-color="#fff"/><stop offset=".05" stop-color="#f2e8d7"/><stop offset=".15" stop-color="#dcc090"/><stop offset=".23" stop-color="#cda764"/><stop offset=".26" stop-color="#c89d53"/><stop offset=".66" stop-color="#9c6f32"/><stop offset=".73" stop-color="#94672f"/><stop offset=".84" stop-color="#7e5226"/><stop offset=".98" stop-color="#5b3117"/><stop offset="1" stop-color="#542a14"/></linearGradient><linearGradient id="6" x1="719.59" x2="880.28" xlink:href="#4"/><linearGradient id="4" x1="470.42" x2="637.02" gradientUnits="userSpaceOnUse"><stop stop-color="#2f3f87"/><stop offset=".21" stop-color="#2e408d"/><stop offset=".47" stop-color="#2b439c"/><stop offset="1" stop-color="#2f3f87"/></linearGradient><linearGradient id="5" x1="611.19" x2="737.46" xlink:href="#4"/></defs><g isolation="isolate"><path d="M0,1000C0,447.71,447.84,0,1000.07,0S2000,447.71,2000,1000s-447.68,999.94-999.93,999.94S0,1552.21,0,1000Z" fill="url(#0)"/><path d="M1000.07,1999.89c552.25,0,999.93-447.68,999.93-999.94S1552.32,0,1000.07,0,0,447.71,0,1000,447.84,1999.89,1000.07,1999.89Zm0-1985c543.13,0,985.09,441.92,985.09,985.05S1543.2,1985,1000.07,1985,15,1543.09,15,1000,456.83,14.9,1000.07,14.9Z" fill="url(#1)"/><path d="m1000.07 1749.93c414.14 0 750-335.75 750-750s-335.88-750-750-750-750 335.9-750 750 335.77 750 750 750m0-1485.09c405.26 0 735.12 329.87 735.12 735.11s-329.86 735.1-735.12 735.1-735.13-329.84-735.13-735.05 329.74-735.16 735.13-735.16" fill="url(#2)" id="H"/><path d="m478.82 497.84c560.1-550.69 1457.73 83.72 1172.53 785.58 337.17-720.23-633.87-1372.61-1172.53-785.58" opacity=".8" fill="url(#3)" mix-blend-mode="multiply"/><g fill="#c7a255"><path d="M635.14,244.65a57.62,57.62,0,0,0-9.87-12.08,51,51,0,0,0-12-8.46,37.07,37.07,0,0,0-13.67-3.79h-.66a27.91,27.91,0,0,0,2.8-12.89A49,49,0,0,0,594,182.89a56,56,0,0,0-10.34-12.36,46.16,46.16,0,0,0-13.68-8.69A41.18,41.18,0,0,0,554.11,159a35.82,35.82,0,0,0-16.78,4.78l-60,33.26c-13.74,7.61-16.48,19.65-7.73,33.91l57.88,94c5.8,9.33,13.07,14.06,21.6,14.06a29.93,29.93,0,0,0,14.44-4.18L620,303.53A48.28,48.28,0,0,0,635.26,291a34.64,34.64,0,0,0,7-15.16,38.71,38.71,0,0,0-.62-15.95A55.63,55.63,0,0,0,635.14,244.65Zm-54,12.57v-1.5l.63,1.65a5.32,5.32,0,0,1,2.71,2.16,5,5,0,0,1,.61,3.23c-.12,1-1.23,1.82-2.14,2.31l-24.21,13.42-4.29-7,24.16-13.41A5.77,5.77,0,0,1,581.13,257.22Zm-26-43a5.94,5.94,0,0,1,2.93,2.48,8.13,8.13,0,0,1,1.27,4.85c0,.91-.35,1.56-1.77,2.33l-24.22,13.41-5.55-9L552,214.89a5.3,5.3,0,0,1,2.44-.81v-1.5Z"/><path d="M728.22,210.88a22.55,22.55,0,0,0-10.4-2.48,29.39,29.39,0,0,0-10.43,2L690.17,217,657,138.2c-3.11-7.35-8.13-12.21-15-14.48a29.71,29.71,0,0,0-19.75.52,27.06,27.06,0,0,0-14.54,12.52c-3.24,6.05-3.3,12.85-.17,20.19l43,102.31c4.77,11.36,12.11,16.88,22.42,16.88a34.58,34.58,0,0,0,12.16-2.45l42-15.95c7.74-2.91,12.7-7.67,14.71-14.07a25.69,25.69,0,0,0-.93-18.69A27.36,27.36,0,0,0,728.22,210.88Z"/><path d="M869.77,106.77a87.15,87.15,0,0,0-54.72-32.65,86.26,86.26,0,0,0-14.74-1.24A92.68,92.68,0,0,0,780.74,75a86.83,86.83,0,0,0-31.26,13.32A84.79,84.79,0,0,0,727,111.12a79.73,79.73,0,0,0-11.91,29.13,75.9,75.9,0,0,0,.87,32.5,78.67,78.67,0,0,0,14,29.63,84.21,84.21,0,0,0,24.07,21.37,90.29,90.29,0,0,0,30.7,11.3,84.32,84.32,0,0,0,14.66,1.26A93.19,93.19,0,0,0,819,234.2a87.42,87.42,0,0,0,31.32-13.34,81.61,81.61,0,0,0,34.42-51.94,75.39,75.39,0,0,0-.78-32.5A76.18,76.18,0,0,0,869.77,106.77ZM799.94,185.5a33.27,33.27,0,0,1-5.37-.46,32.28,32.28,0,0,1-11.39-4.16,33,33,0,0,1-9-7.95,28.44,28.44,0,0,1-5.2-11,27.21,27.21,0,0,1-.29-12.17,29.11,29.11,0,0,1,4.46-11A31.66,31.66,0,0,1,793,125.3a34.28,34.28,0,0,1,7.18-.83,30.43,30.43,0,0,1,5.55.54,34.46,34.46,0,0,1,11.62,4.25,31.66,31.66,0,0,1,9.13,8,29.2,29.2,0,0,1,5.25,11.12,28,28,0,0,1,.32,12.06,30.56,30.56,0,0,1-4.57,10.87,32.19,32.19,0,0,1-20.15,13.38A35.4,35.4,0,0,1,799.94,185.5Z"/><path d="M1021.46,58.52c-5-3.81-10.79-5.66-17.84-5.66a28.07,28.07,0,0,0-18,6.61c-5.15,4.44-7.54,10.44-7.34,18.35l1,34L945.77,67a28,28,0,0,0-11.18-9.32A31.1,31.1,0,0,0,921.51,55,26.18,26.18,0,0,0,912,57a26.52,26.52,0,0,0-7.92,5.22,23.63,23.63,0,0,0-5.49,8.25,26.49,26.49,0,0,0-1.76,10.38l3.31,112.26c.25,7.77,3.05,13.8,8.31,17.92a27,27,0,0,0,16.94,5.68h.84a27.4,27.4,0,0,0,18-6.6c5.11-4.36,7.59-10.56,7.4-18.37l-1-34.27,33.71,44.88a29,29,0,0,0,11.15,9.45,29.77,29.77,0,0,0,12.91,2.72,27.39,27.39,0,0,0,9.53-1.95,24.22,24.22,0,0,0,8.06-5.35,27,27,0,0,0,5.34-8,24.77,24.77,0,0,0,1.93-10.72l-3.32-112C1029.69,68.68,1026.83,62.64,1021.46,58.52Z"/><path d="M1169.24,95.72A80.41,80.41,0,0,0,1145,73.63c-10.08-6.14-22.38-10.28-36.55-12.29l-21.1-2.94a26.94,26.94,0,0,0-3.36-.21,25.64,25.64,0,0,0-6.83.9,31.47,31.47,0,0,0-9.49,4.18,28.79,28.79,0,0,0-7.54,7.13,22.23,22.23,0,0,0-4,9.46l-16.8,108c-1.21,7.77.39,14.36,4.73,19.59s10.56,8.41,18.65,9.54l24.62,3.46a110.68,110.68,0,0,0,15.38,1.1,82,82,0,0,0,21.61-2.72,79.72,79.72,0,0,0,28.76-14.13,75.87,75.87,0,0,0,19.61-22.87,82.77,82.77,0,0,0,8.8-58A74.68,74.68,0,0,0,1169.24,95.72ZM1105,113.05a36,36,0,0,1,12.44,4.17,27.19,27.19,0,0,1,8.41,7.43A25.14,25.14,0,0,1,1130,134a28.57,28.57,0,0,1,.28,10.34,34.29,34.29,0,0,1-3.77,10.93,27.8,27.8,0,0,1-17.65,14.07,28.67,28.67,0,0,1-8.07,1.1,34.63,34.63,0,0,1-3.79-.2Z"/><path d="M1324.76,149.1a27.62,27.62,0,0,0,4.75-8.53,26.54,26.54,0,0,0,1.4-9.52,24.83,24.83,0,0,0-2.34-9.33,24.5,24.5,0,0,0-6.21-8.09,27.66,27.66,0,0,0-10.34-5.57l-12-3.67a102.18,102.18,0,0,0-30.09-4.89,74.28,74.28,0,0,0-8.55.46,87.12,87.12,0,0,0-32,9.55,77.82,77.82,0,0,0-24.21,20.1,88,88,0,0,0-14.64,26.52,82.77,82.77,0,0,0-4.45,29.15,74.77,74.77,0,0,0,6.81,28.68,73,73,0,0,0,19.31,24.83c8.58,7.36,19.56,13.1,32.58,17.06l15.3,4.69a33.58,33.58,0,0,0,9.79,1.59,22.69,22.69,0,0,0,12-3.28A26.69,26.69,0,0,0,1293.79,244a26,26,0,0,0,1.45-9.07,22.16,22.16,0,0,0-2.13-9.26,24.6,24.6,0,0,0-6-8,27.41,27.41,0,0,0-10.46-5.57l-15.5-4.79a34.45,34.45,0,0,1-12.41-6.4,31.25,31.25,0,0,1-7.34-9.08,23.73,23.73,0,0,1-2.58-10.37,31.37,31.37,0,0,1,1.67-11.12,30.68,30.68,0,0,1,5.41-9.63,26.23,26.23,0,0,1,8.45-6.87,30.46,30.46,0,0,1,11.52-3.17,23.39,23.39,0,0,1,2.53-.15,40,40,0,0,1,11.64,2l15.28,4.67a30.33,30.33,0,0,0,9,1.43,26.08,26.08,0,0,0,2.82-.15,27.9,27.9,0,0,0,10-3A25,25,0,0,0,1324.76,149.1Z"/><path d="M1474.09,272.83a75.08,75.08,0,0,0,10-31.12,81.19,81.19,0,0,0-3.1-31.08,80.05,80.05,0,0,0-15.12-27.78,84.73,84.73,0,0,0-26.37-20.93,87.59,87.59,0,0,0-32.67-9.62c-2.86-.23-5.65-.34-8.41-.34a89.77,89.77,0,0,0-53.65,17.68,81.42,81.42,0,0,0-22,24.92,76.54,76.54,0,0,0-10.11,31,78.25,78.25,0,0,0,3.07,31.13A81.19,81.19,0,0,0,1331,284.44a82,82,0,0,0,26.26,20.83A87.71,87.71,0,0,0,1390,315c2.85.26,5.73.38,8.51.38a89.16,89.16,0,0,0,24.31-3.35A91,91,0,0,0,1452,297.68,80.54,80.54,0,0,0,1474.09,272.83Zm-100.9-19.7a29.64,29.64,0,0,1-6.88-21.89,28.65,28.65,0,0,1,3.77-11.54,30.45,30.45,0,0,1,8.23-9.33,33.45,33.45,0,0,1,20.22-6.67,29.15,29.15,0,0,1,3.07.14,31.11,31.11,0,0,1,12.11,3.53,30.21,30.21,0,0,1,9.69,7.72,32.9,32.9,0,0,1,5.79,10.56,28.59,28.59,0,0,1,1.22,11.67,30.11,30.11,0,0,1-12,20.87,32.58,32.58,0,0,1-11,5.29,35.11,35.11,0,0,1-9,1.18,31.34,31.34,0,0,1-3.33-.17,33,33,0,0,1-12.16-3.63A31.7,31.7,0,0,1,1373.19,253.13Z"/><path d="M1559.48,268.15c5.09-6.43,6.81-12.86,5.25-19.61A26.1,26.1,0,0,0,1554,232.83a28.65,28.65,0,0,0-17-5.51l-2,.08c-7.08.48-13.23,3.94-18.3,10.3l-70.39,88.94c-5.28,6.69-7.09,13.18-5.54,19.84a26.3,26.3,0,0,0,10.88,15.68,28.75,28.75,0,0,0,17.08,5.51h0l1.66-.05c7.15-.37,13.44-3.89,18.66-10.49Z"/><path d="M1672.81,332.29c-5.24-4.78-11.21-7.21-18.87-7.59-6.4,0-12.34,2.63-17.64,7.85L1611.38,357l10.38-54.05a25.38,25.38,0,0,0-.76-14.12,26.85,26.85,0,0,0-7.18-10.7,25.18,25.18,0,0,0-8.08-5,26.66,26.66,0,0,0-9.6-1.71,26.11,26.11,0,0,0-9.92,2,28.57,28.57,0,0,0-9,6l-82.36,80.69c-5.69,5.61-8.27,11.7-7.68,18.13a24.08,24.08,0,0,0,8.13,16.09c5.21,4.79,11.18,7.2,18.89,7.59,6.39,0,12.31-2.63,17.61-7.83l25.13-24.63-10.27,54.23a26.64,26.64,0,0,0,.64,14.19,26.17,26.17,0,0,0,7,10.67,25.74,25.74,0,0,0,17.39,6.84h.36a28.82,28.82,0,0,0,9.79-2,27.38,27.38,0,0,0,9.44-6.16l82.16-80.52c5.77-5.64,8.33-11.79,7.63-18.25A24.59,24.59,0,0,0,1672.81,332.29Z"/></g><path d="m549.11 333.51c-6.32 0-11.89-3.81-16.53-11.34l-57.88-94c-7.17-11.65-5.34-20.27 5.6-26.33l60-33.25a29.52 29.52 0 0 1 14 -4l.06 0a34.85 34.85 0 0 1 13.3 2.41 39.74 39.74 0 0 1 11.91 7.57 51 51 0 0 1 9.33 11.16c4.46 7.21 6.79 14.57 6.93 21.85s-2.7 13.31-8.63 18.53l1.15 1.66a23.3 23.3 0 0 1 9.27 -1.92l1.75.06a30.88 30.88 0 0 1 11.18 3.17 44.68 44.68 0 0 1 10.6 7.48 50.64 50.64 0 0 1 8.92 10.92 49.9 49.9 0 0 1 5.93 13.74 32.57 32.57 0 0 1 .53 13.71 29.39 29.39 0 0 1 -6 12.8 43.28 43.28 0 0 1 -13.52 11l-56.4 31.37a24.12 24.12 0 0 1 -11.5 3.41m32-81.79a11.25 11.25 0 0 0 -5.45 1.6l-29.25 16.2 10.23 16.59 29.23-16.22c3-1.68 4.7-3.86 5-6.49a10.3 10.3 0 0 0 -1.35 -6.67 11 11 0 0 0 -5.53 -4.47 7.5 7.5 0 0 0 -2.86 -.54m-26.7-43.15a11.44 11.44 0 0 0 -5.38 1.53l-29.24 16.22 11.47 18.62 29.24-16.21c2.93-1.62 4.49-3.92 4.68-6.85a13.43 13.43 0 0 0 -2.08 -7.94 11.49 11.49 0 0 0 -5.67 -4.79 8 8 0 0 0 -3 -.58" fill="url(#4)"/><path d="M673.08,270.62c-7.65,0-13.21-4.38-17-13.42L613,154.9c-2.45-5.81-2.45-11.05,0-15.6a21.3,21.3,0,0,1,11.52-9.9,24.37,24.37,0,0,1,8.4-1.58,23.5,23.5,0,0,1,7.25,1.18c5.13,1.7,9,5.48,11.42,11.28l35.3,83.91,22.63-8.58a23.52,23.52,0,0,1,8.28-1.67,16.51,16.51,0,0,1,7.62,1.84,21.92,21.92,0,0,1,10.2,11.28,20.79,20.79,0,0,1,.79,14.94c-1.54,4.78-5.34,8.35-11.31,10.61l-42,15.95A29.27,29.27,0,0,1,673.08,270.62Z" fill="url(#5)"/><path d="M799.43,230.78a79.63,79.63,0,0,1-13.63-1.17,84,84,0,0,1-28.63-10.54,78.82,78.82,0,0,1-22.42-19.93,72.68,72.68,0,0,1-13-27.61,70.58,70.58,0,0,1-.87-30.24,75.64,75.64,0,0,1,11.11-27.2,79,79,0,0,1,21-21.28A80.31,80.31,0,0,1,782,80.43a87.18,87.18,0,0,1,18.28-2A80.46,80.46,0,0,1,814,79.6a81.32,81.32,0,0,1,51.08,30.48,71.58,71.58,0,0,1,13.14,27.57A70.38,70.38,0,0,1,879,167.9a76.51,76.51,0,0,1-32.12,48.49,81.35,81.35,0,0,1-29.18,12.4A87.37,87.37,0,0,1,799.43,230.78ZM800.17,119a39.83,39.83,0,0,0-8.45.93,37.49,37.49,0,0,0-23.59,16,34.89,34.89,0,0,0-5.25,12.91,33.17,33.17,0,0,0,.36,14.42,33.62,33.62,0,0,0,6.23,13.07,38.34,38.34,0,0,0,10.61,9.35,39.69,39.69,0,0,0,19.86,5.44,42.37,42.37,0,0,0,8.65-.93,39.2,39.2,0,0,0,13.78-5.83,38,38,0,0,0,10-10,35,35,0,0,0,5.38-12.84,33.27,33.27,0,0,0-.33-14.34A34.73,34.73,0,0,0,831.19,134a37.65,37.65,0,0,0-10.76-9.45,41.28,41.28,0,0,0-13.6-5A35.27,35.27,0,0,0,800.17,119Z" fill="url(#6)"/><path d="M925.43,211.22a20.92,20.92,0,0,1-13.22-4.45c-3.91-3-6-7.69-6.15-13.79L902.74,80.72a20.43,20.43,0,0,1,1.37-8.26,18,18,0,0,1,4.2-6.33,19.44,19.44,0,0,1,6.11-4,20.06,20.06,0,0,1,7.25-1.53h.08a24.8,24.8,0,0,1,10.38,2.11A22.46,22.46,0,0,1,941,70.15L985.67,130,984.14,77.7c-.2-6.19,1.57-10.8,5.42-14.11a22,22,0,0,1,14.22-5.17h0a22.07,22.07,0,0,1,14,4.43c4,3.05,6.08,7.69,6.24,13.78l3.32,112a19.13,19.13,0,0,1-1.46,8.45,21,21,0,0,1-4.22,6.35,18.26,18.26,0,0,1-6.09,4,21.22,21.22,0,0,1-7.38,1.51h0A23.25,23.25,0,0,1,998,206.82a22.84,22.84,0,0,1-8.88-7.59l-44.92-59.79,1.56,52.48c.19,6.11-1.65,10.85-5.44,14.1a21.76,21.76,0,0,1-14.22,5.19Z" fill="url(#7)"/><path d="M1102.7,216a102.45,102.45,0,0,1-14.5-1.06l-24.64-3.46c-6.56-.9-11.58-3.41-14.9-7.48s-4.52-9.14-3.56-15.37L1061.9,80.7a16.72,16.72,0,0,1,3.08-7.16,22.74,22.74,0,0,1,6-5.68,25.32,25.32,0,0,1,7.65-3.4,20.6,20.6,0,0,1,5.34-.72,20.17,20.17,0,0,1,2.57.17l21,2.94c13.35,1.89,24.88,5.74,34.25,11.45a75.71,75.71,0,0,1,22.54,20.52,69.5,69.5,0,0,1,11.38,26.09,77.59,77.59,0,0,1-8.26,54.29,70.79,70.79,0,0,1-18.18,21.21,73.77,73.77,0,0,1-26.6,13A76.31,76.31,0,0,1,1102.7,216Zm-13.24-41.18,5.1.73a42.94,42.94,0,0,0,6.21.45,35.5,35.5,0,0,0,9.81-1.34,35,35,0,0,0,12.57-6.42,34.64,34.64,0,0,0,8.58-10.44,39.71,39.71,0,0,0,4.31-12.61,34.09,34.09,0,0,0-.33-12.25,31,31,0,0,0-5-11.33,32.18,32.18,0,0,0-10.16-9.06,42.2,42.2,0,0,0-15.64-5.1l-4.85-.69Z" fill="url(#8)"/><path d="M1269.87,256.6a27.43,27.43,0,0,1-8-1.31l-15.3-4.7c-12.28-3.75-22.53-9.08-30.52-15.92a67.5,67.5,0,0,1-17.82-22.91,68.49,68.49,0,0,1-6.31-26.64,77.46,77.46,0,0,1,4.13-27.28A82.22,82.22,0,0,1,1209.84,133a72.41,72.41,0,0,1,22.39-18.63,81.54,81.54,0,0,1,29.76-8.87,71,71,0,0,1,7.91-.43,96.55,96.55,0,0,1,28.27,4.63l12,3.66a22.08,22.08,0,0,1,8.18,4.36,18.8,18.8,0,0,1,6.66,13.64,21.06,21.06,0,0,1-1.09,7.54,21.58,21.58,0,0,1-3.81,6.79,18.92,18.92,0,0,1-6,4.93,21.75,21.75,0,0,1-7.8,2.34,16.54,16.54,0,0,1-2.12.11,24.25,24.25,0,0,1-7.18-1.15l-15.29-4.69a46.07,46.07,0,0,0-13.46-2.22q-1.62,0-3.15.15a36.62,36.62,0,0,0-13.69,3.83,31.94,31.94,0,0,0-10.34,8.35,36.66,36.66,0,0,0-6.28,11.31,37.06,37.06,0,0,0-2,13,29.11,29.11,0,0,0,3.2,12.64,35.91,35.91,0,0,0,8.66,10.8,40.14,40.14,0,0,0,14.53,7.59l15.5,4.76a21.8,21.8,0,0,1,8.26,4.35,18.79,18.79,0,0,1,4.69,6.15,17.41,17.41,0,0,1,1.63,7.15,20.82,20.82,0,0,1-1.13,7.29,21.54,21.54,0,0,1-9.5,11.89A16.79,16.79,0,0,1,1269.87,256.6Z" fill="url(#9)"/><path d="M1398.48,309.84c-2.62,0-5.27-.11-8-.36a82,82,0,0,1-30.52-9.05,77.43,77.43,0,0,1-24.45-19.4,75.71,75.71,0,0,1-14.13-25.91,72.93,72.93,0,0,1-2.89-29,71.32,71.32,0,0,1,9.46-28.89A75.73,75.73,0,0,1,1348.43,174a83.33,83.33,0,0,1,27.3-13.39,84.17,84.17,0,0,1,22.72-3.12q3.9,0,7.86.37a81.22,81.22,0,0,1,30.43,9,78.79,78.79,0,0,1,24.56,19.46,74.62,74.62,0,0,1,14.1,25.9,75.8,75.8,0,0,1,2.92,29,70.41,70.41,0,0,1-9.38,28.94,74.37,74.37,0,0,1-20.52,23.13,85.63,85.63,0,0,1-27.3,13.43A83.91,83.91,0,0,1,1398.48,309.84Zm0-111.68a39.84,39.84,0,0,0-23.8,7.86,36.13,36.13,0,0,0-9.81,11.06,32.88,32.88,0,0,0-4.41,13.7,34.55,34.55,0,0,0,8.1,25.81,37.25,37.25,0,0,0,11.57,9.14,38.74,38.74,0,0,0,14.4,4.3c1.3.11,2.61.17,3.89.17a40.63,40.63,0,0,0,10.55-1.37,38.47,38.47,0,0,0,13-6.23,34.83,34.83,0,0,0,9.75-11,34.24,34.24,0,0,0,3-27.63,38,38,0,0,0-6.68-12.26,36.14,36.14,0,0,0-11.58-9.24,37.07,37.07,0,0,0-14.42-4.19C1400.89,198.22,1399.71,198.16,1398.53,198.16Z" fill="url(#A)"/><path d="M1468.74,362.15a22.79,22.79,0,0,1-13.57-4.42,20.82,20.82,0,0,1-8.68-12.43c-1.15-5,.33-10,4.51-15.31l70.39-89c4-5,8.7-7.72,14-8.1l1.78-.06a22.65,22.65,0,0,1,13.32,4.39,20.81,20.81,0,0,1,8.51,12.48c1.17,5.08-.22,10-4.21,15.12l-70.41,88.92c-4.13,5.22-9,8-14.31,8.33Z" fill="url(#B)"/><path d="M1571.63,449.79a19.17,19.17,0,0,1-7-1.33,19.85,19.85,0,0,1-6.28-3.93,20.67,20.67,0,0,1-5.5-8.47,21.65,21.65,0,0,1-.48-11.33L1566,352.48l-38.46,37.68c-4.16,4.11-8.68,6.19-13.41,6.19a22.64,22.64,0,0,1-14.84-6.06,19.07,19.07,0,0,1-6.39-12.54c-.43-4.79,1.63-9.43,6.1-13.82l82.34-80.69a22,22,0,0,1,7.15-4.79,20.26,20.26,0,0,1,7.62-1.57,20,20,0,0,1,7.42,1.34,19.19,19.19,0,0,1,6.2,3.83,21.67,21.67,0,0,1,5.73,8.57,20.65,20.65,0,0,1,.55,11.25L1602.18,374l38.31-37.55c4.19-4.11,8.71-6.18,13.45-6.18a22.48,22.48,0,0,1,14.82,6.05,19.5,19.5,0,0,1,6.46,12.63c.47,4.82-1.55,9.49-6,13.88L1587,443.33a21.68,21.68,0,0,1-7.39,4.89,22.58,22.58,0,0,1-7.73,1.57Z" fill="url(#C)"/><use xlink:href="#H"/><path d="M1736.46,1000c0,406.67-329.67,736.34-736.37,736.34S263.74,1406.62,263.74,1000s329.67-736.37,736.35-736.37S1736.46,593.26,1736.46,1000Z" fill="#353f94"/><path d="m1411.75 1387.1c-130.31-147.75-97-178.41-78.57-246.3 38.28-136.56 12.74-331.78 11.49-363.68-28.08-322.86-344.58-322.86-344.58-322.86s-316.48 0-344.56 322.86c-1.28 31.88-26.79 227.12 11.47 363.68 18.4 67.89 51.73 98.55-78.57 246.3 0 0-25.71 35.47 19.48 63.88 31.23 17.48 162.73 74.78 273.75-8.45 0 0 94.57-72.82-19.47-210.45 0 0-130.61-120.15-104.41-344.69l484.62 0c26.22 224.54-104.43 344.69-104.43 344.69-114 137.63-19.47 210.45-19.47 210.45 111 83.23 242.55 25.93 273.75 8.45 45.2-28.41 19.5-63.88 19.5-63.88" fill="url(#D)"/><path d="m1253 1465.23c-45.65 0-86.63-13.36-121.77-39.72-.64-.52-24.06-19.64-27.81-56.12s13.1-77.84 50.07-122.75c14.26-13.67 136.12-137.82 110-361.7l-2.21-18.8-522.43 0-2.19 18.8c-26.11 223.88 95.74 348 110 361.7 37.28 45.29 54.09 86.87 50 123.59-4 36.13-27.68 55.25-27.93 55.46-34.92 26.18-75.91 39.54-121.56 39.54-68.26 0-122.83-29.45-128.83-32.82-5.63-3.58-13.81-10.16-15.53-18.18-1.37-6.4 1.6-12.4 2.71-14.33 115.84-131.71 109.12-178.14 88.58-242.9-2.2-6.92-4.49-14.1-6.57-21.77-31.67-113-17.87-272.4-12.66-332.42 1-11.45 1.72-20 1.91-24.85 26-299 311.18-302.46 323.31-302.46s297.38 4.33 323.39 303.46c.14 3.89.87 12.49 1.87 24 5.18 60 18.94 219.37-12.65 332-2.14 7.85-4.42 15-6.61 22-20.54 64.75-27.25 111.21 88.69 243 .92 1.64 4 7.72 2.62 14.24-1.7 8-9.89 14.6-16.47 18.75-5.06 2.8-59.56 32.25-127.87 32.25" fill="#354095"/><path d="M777,1752.54q5.71.43,13.1,1.62c4.9.79,11,2,18.23,3.73a101.09,101.09,0,0,1,17.57,5.77,45.66,45.66,0,0,1,13.52,8.71,28.07,28.07,0,0,1,7.59,12.26q2.16,7,0,16.37a32.2,32.2,0,0,1-4.05,9.87,28.7,28.7,0,0,1-6.35,7.26,28.29,28.29,0,0,1-7.58,4.4,17.55,17.55,0,0,1-7.74,1.19,38.86,38.86,0,0,1,8.23,4.49,29.66,29.66,0,0,1,12.31,18.89,33.71,33.71,0,0,1-.56,14.79q-2.64,11.22-8.53,17.39a32,32,0,0,1-14,8.62,50.1,50.1,0,0,1-17.9,1.83,127,127,0,0,1-20.12-3.1c-5.29-1.23-10.49-2.62-15.6-4.12s-10.84-3.42-17.22-5.76Zm.34,111.11c1.56.6,3.37,1.21,5.48,1.82s4,1.12,5.74,1.52a45.19,45.19,0,0,0,7.75,1.11,23.46,23.46,0,0,0,8.05-.93,16.91,16.91,0,0,0,7-4.19,17.6,17.6,0,0,0,4.41-8.7,20.83,20.83,0,0,0,.36-9.29,14.8,14.8,0,0,0-3.59-6.86,21,21,0,0,0-6.87-4.79,51.68,51.68,0,0,0-9.55-3.14l-10.36-2.44Zm20.46-53.1a39,39,0,0,0,8.19,1.13,17.33,17.33,0,0,0,7.12-1.26,13.46,13.46,0,0,0,5.57-4.33,21.06,21.06,0,0,0,3.56-8.17,16.91,16.91,0,0,0,.1-8.62,14.39,14.39,0,0,0-3.47-6.1,17.41,17.41,0,0,0-5.83-3.9,43.69,43.69,0,0,0-6.83-2.26,56.29,56.29,0,0,0-8.24-1.38l-7.77,33.12Z" fill="url(#E)"/><path d="M976.44,1786.75a80.61,80.61,0,0,1,12.6-.68,87,87,0,0,1,12.91,1.47l-3.3,105,44.09,1.38a55.48,55.48,0,0,1,.53,5.77c.06,1.84.06,3.57,0,5.23-.06,1.89-.19,3.76-.36,5.58a56.43,56.43,0,0,1-.88,5.73l-69.61-2.18Z" fill="url(#F)"/><path d="m1229.71 1897.76c-9.35 2-17.8 2-25.29.27a46.45 46.45 0 0 1 -19.66 -9.89 59.34 59.34 0 0 1 -14.07 -18.23 99 99 0 0 1 -8.61 -24.89 101 101 0 0 1 -2.22 -26.42 60.39 60.39 0 0 1 5.46 -22.61 46 46 0 0 1 14 -17.07c6.14-4.67 13.88-8 23.26-10s17.79-2.06 25.29-.26a45.94 45.94 0 0 1 19.67 10 60.61 60.61 0 0 1 14.13 18.48 100.64 100.64 0 0 1 8.63 25.08 98.78 98.78 0 0 1 2.19 26.25 59.54 59.54 0 0 1 -5.52 22.35 46.26 46.26 0 0 1 -14 17q-9.22 6.98-23.26 9.94m-4.45-21.16q26.85-5.67 17.79-48.66-4.52-21.5-13.3-30.88t-22.46-6.49q-27.24 5.75-18.16 48.74t36.13 37.29" fill="url(#G)"/></g></svg>