<svg xmlns="http://www.w3.org/2000/svg" width="2000" height="2247.93" viewBox="0 0 2000 2247.93"><defs><linearGradient id="0" x1="270.49" y1="468.1" x2="1757.78" y2="1805.25" gradientUnits="userSpaceOnUse"><stop stop-color="#4bf0e4"/><stop offset="1" stop-color="#55cbe3"/></linearGradient></defs><path d="M2000,1610.51V637.42a150,150,0,0,0-75.38-130.12l-850-487.43a150.07,150.07,0,0,0-149.24,0L75.38,507.3A150,150,0,0,0,0,637.42v973.09a150,150,0,0,0,75.38,130.12l850,487.43a150,150,0,0,0,149.24,0l850-487.43A150,150,0,0,0,2000,1610.51Z" fill="url(#0)"/><path d="M1501.28,845.85,1049.64,585.09a58.52,58.52,0,0,0-58.33,0l-335,193.4a8.34,8.34,0,0,1-12.5-7.22V495.89c0-37.32-29.11-68.42-64.9-69.34a66.66,66.66,0,0,0-68.43,66.64V914.63a58.34,58.34,0,0,0,87.42,50.57l401.73-231a41.78,41.78,0,0,1,41.67,0l335,193.39a41.79,41.79,0,0,1,20.84,36.09v386.79a41.78,41.78,0,0,1-20.84,36.08l-335,193.39a41.74,41.74,0,0,1-41.67,0l-335-193.39a41.78,41.78,0,0,1-20.84-36.08v-76.73a66.67,66.67,0,0,0-133.33,0v144.08a58.46,58.46,0,0,0,29.17,50.51l451.64,260.76a58.49,58.49,0,0,0,58.33,0l451.64-260.76a58.48,58.48,0,0,0,29.17-50.51V896.37A58.51,58.51,0,0,0,1501.28,845.85Z"/></svg>