<svg xmlns="http://www.w3.org/2000/svg" width="512pt" height="512pt" style="isolation:isolate" viewBox="0 0 512 512"><defs><clipPath id="a"><path d="M0 0h512v512H0z"/></clipPath></defs><g clip-path="url(#a)"><linearGradient id="b" x1=".149" x2="1.022" y1=".026" y2=".72" gradientTransform="matrix(512 0 0 408 0 52)" gradientUnits="userSpaceOnUse"><stop offset="0%" style="stop-color:#9013fe"/><stop offset="100%" style="stop-color:#6610f2"/></linearGradient><path fill="url(#b)" d="M56.481 105.32C55.515 77.58 77.128 52 106.342 52h299.353c29.214 0 50.827 25.58 49.861 53.32-.928 26.647.277 61.165 8.964 89.31 8.715 28.232 23.411 46.077 47.48 48.37v26c-24.069 2.293-38.765 20.138-47.48 48.37-8.687 28.145-9.892 62.663-8.964 89.311.966 27.739-20.647 53.319-49.861 53.319H106.342c-29.214 0-50.827-25.58-49.86-53.319.927-26.648-.278-61.166-8.966-89.311C38.802 289.138 24.07 271.293 0 269v-26c24.069-2.293 38.802-20.138 47.516-48.37 8.688-28.145 9.893-62.663 8.965-89.31Z"/><defs><filter id="c" width="400%" height="400%" x="-200%" y="-200%" color-interpolation-filters="sRGB" filterUnits="objectBoundingBox"><feGaussianBlur xmlns="http://www.w3.org/2000/svg" in="SourceGraphic" stdDeviation="8"/><feOffset xmlns="http://www.w3.org/2000/svg" dy="4" result="pf_100_offsetBlur"/><feFlood xmlns="http://www.w3.org/2000/svg" flood-color="#000" flood-opacity="0"/><feComposite xmlns="http://www.w3.org/2000/svg" in2="pf_100_offsetBlur" operator="in" result="pf_100_dropShadow"/><feBlend xmlns="http://www.w3.org/2000/svg" in="SourceGraphic" in2="pf_100_dropShadow"/></filter></defs><g filter="url(#c)"><linearGradient id="d" x1=".095" x2=".597" y1=".066" y2=".916" gradientTransform="matrix(197 0 0 249 161.901 135.457)" gradientUnits="userSpaceOnUse"><stop offset="0%" style="stop-color:#fff"/><stop offset="100%" style="stop-color:#f1e5fc"/></linearGradient><path fill="url(#d)" stroke="#FFF" d="M268.403 384.457c56.47 0 90.498-26.573 90.498-70.403 0-33.131-24.28-57.116-60.332-60.913v-1.38c26.487-4.142 47.273-27.782 47.273-54.183 0-37.617-30.902-62.121-77.991-62.121h-105.95v249h106.502Zm-65.299-217.422h54.815c29.798 0 46.72 12.769 46.72 35.892 0 24.676-19.681 38.48-55.366 38.48h-46.169v-74.372Zm0 185.845v-81.965h54.446c38.995 0 59.229 13.804 59.229 40.724 0 26.918-19.681 41.241-56.838 41.241h-56.837Z" vector-effect="non-scaling-stroke"/></g></g></svg>