<svg xmlns="http://www.w3.org/2000/svg" width="310.921" height="164.62" version="1.0"><path d="M85.715 337.947c-86.527 0-153.666-35.186-153.666-76.833 0-42.007 67.139-77.192 153.666-77.192 86.168 0 153.666 35.185 153.666 77.192 0 41.647-67.498 76.833-153.666 76.833z" style="fill:#be0030" transform="matrix(.97 0 0 .97 72.318 -170.75)"/><path d="M-69.746 261.113c0-43.802 69.293-78.987 155.46-78.987 86.168 0 155.46 35.185 155.46 78.987 0 43.443-69.292 78.628-155.46 78.628-86.167 0-155.46-35.185-155.46-78.628zm155.46-64.626c-87.962 0-141.1 35.904-141.1 64.626 0 28.364 53.137 64.267 141.1 64.267s141.1-35.903 141.1-64.267c0-28.722-53.136-64.626-141.1-64.626zm-8.257-7.18c0-2.155-1.796-3.59-3.59-3.59-2.155 0-3.591 1.795-3.591 3.949 0 1.795 1.795 3.231 3.59 3.231 2.154 0 3.59-1.795 3.59-3.59zm-11.849.359c-.358-1.795-1.795-3.232-3.949-3.232-1.795.36-3.231 1.796-3.231 3.95 0 1.795 1.795 3.59 3.95 3.231 1.794 0 3.23-1.795 3.23-3.95zm-11.848 1.077c-.359-1.795-2.154-3.231-3.949-2.872-2.154 0-3.59 1.795-3.231 3.949.359 1.795 2.154 3.231 3.95 2.872 2.153 0 3.59-1.795 3.23-3.949zm-11.848 1.436c-.359-1.795-2.154-3.231-3.949-2.872-2.154.359-3.231 2.154-3.231 4.308.359 1.795 2.154 3.231 4.308 2.872 1.795-.359 3.231-2.154 2.872-4.308zm-11.489 2.154c-.359-1.795-2.513-3.231-4.308-2.872-2.154.718-3.231 2.513-2.872 4.308.359 2.154 2.513 3.232 4.308 2.873 1.795-.36 3.231-2.514 2.872-4.309zm-11.848 2.513c-.359-1.795-2.154-2.872-4.308-2.513-1.795.718-2.872 2.513-2.513 4.309.718 2.154 2.513 3.23 4.308 2.513 2.154-.36 3.231-2.154 2.513-4.309zm-11.13 3.232c-.718-1.795-2.872-2.873-4.667-2.155-1.795.36-2.872 2.514-2.154 4.309.359 2.154 2.513 2.872 4.308 2.513 2.154-.718 2.872-2.872 2.513-4.667zm-11.489 3.949c-.718-1.795-2.513-2.872-4.308-2.154-2.154.718-2.872 2.872-2.154 4.667s2.872 2.872 4.667 2.154 2.513-2.872 1.795-4.667zm-10.77 4.309c-1.078-1.796-3.232-2.514-4.668-1.437-1.795.718-2.513 2.873-1.795 4.668s2.872 2.513 4.667 1.795c1.795-1.077 2.513-3.231 1.795-5.026zm-10.772 5.385c-.718-1.795-3.23-2.154-4.667-1.077-1.795 1.077-2.513 3.231-1.436 4.667 1.077 1.795 3.231 2.514 5.026 1.436 1.795-1.077 2.154-3.231 1.077-5.026zm-10.053 6.462c-1.077-1.795-3.23-2.154-5.026-1.077-1.436 1.437-1.795 3.59-.718 5.027 1.436 1.795 3.59 2.154 5.026 1.077 1.796-1.436 2.155-3.59.718-5.027zm-9.334 7.181c-1.436-1.436-3.59-1.436-5.027 0-1.436 1.436-1.436 3.59 0 5.027 1.436 1.436 3.59 1.436 5.027 0 1.436-1.437 1.436-3.59 0-5.027zm-7.9 8.617c-1.794-1.077-3.948-.718-5.025.718-1.078 1.795-.719 3.95.718 5.026 1.795 1.078 3.949.718 5.026-.718 1.077-1.795.718-3.949-.718-5.026zm-6.462 10.053c-1.795-.718-3.949.359-4.667 2.154s.359 3.95 2.154 4.667c2.154.36 3.95-.359 4.668-2.513.718-1.795-.36-3.59-2.155-4.308zm148.64 86.526c0-1.795-1.795-3.59-3.59-3.59-2.155 0-3.59 1.795-3.59 3.59 0 2.155 1.435 3.59 3.59 3.59 1.795 0 3.59-1.435 3.59-3.59zm-11.848 0c0-1.795-1.436-3.59-3.59-3.59-1.796 0-3.591 1.436-3.591 3.232 0 2.154 1.436 3.949 3.59 3.949 1.795 0 3.59-1.436 3.59-3.59zm-11.848-.358c0-2.155-1.437-3.95-3.232-3.95-2.154 0-3.949 1.436-3.949 3.231 0 2.155 1.436 3.59 3.231 3.95 2.155 0 3.59-1.436 3.95-3.231zm-11.848-1.078c.359-2.154-1.078-3.949-3.232-3.949-1.795-.359-3.59 1.077-3.95 2.872-.358 2.155 1.078 3.95 3.232 4.309 1.795 0 3.59-1.436 3.95-3.232zm-11.849-1.436c.36-2.154-1.077-3.95-2.872-4.308-2.154-.36-3.95 1.077-3.95 2.872-.358 2.154.719 3.95 2.873 4.308 1.795.36 3.59-1.077 3.95-2.872zm-11.489-2.154c.36-1.795-1.077-3.95-2.872-4.308-1.795-.36-3.95.718-4.308 2.872-.36 1.795.718 3.95 2.872 4.308 1.795.36 3.95-1.077 4.308-2.872zm-11.848-2.513c.719-1.795-.359-3.95-2.513-4.308-1.795-.719-3.59.358-4.308 2.513-.36 1.795.718 3.59 2.513 4.308 2.154.359 3.95-.718 4.308-2.513zm-11.13-3.232c.36-1.795-.359-3.949-2.513-4.667-1.795-.359-3.95.718-4.308 2.513-.718 1.796.359 3.95 2.154 4.309 1.795.718 3.95-.36 4.667-2.154zm-11.489-3.949c.718-1.795 0-3.95-1.795-4.667-1.795-.718-3.95.359-4.667 2.154-.718 1.795 0 3.95 2.154 4.667 1.795.719 3.59-.359 4.308-2.154zm-10.77-4.308c.717-1.795 0-3.95-1.796-5.027-1.795-.718-3.949 0-4.667 1.795-.718 1.796 0 3.95 1.795 4.668 1.436 1.077 3.59.359 4.667-1.436zm-10.772-5.386c1.078-1.795.718-3.95-1.077-5.026-1.795-1.077-3.949-.36-5.026 1.436-1.077 1.436-.36 3.95 1.436 4.667 1.436 1.077 3.95.719 4.667-1.077zm-10.052-6.462c1.436-1.436 1.077-3.59-.719-5.027-1.436-1.077-3.59-.718-5.026 1.077-1.077 1.437-.718 3.59.718 5.027 1.795 1.077 3.95.718 5.027-1.077zm-9.335-7.18c1.436-1.437 1.436-3.591 0-5.027s-3.59-1.436-5.027 0c-1.436 1.436-1.436 3.59 0 5.026s3.59 1.436 5.027 0zm-7.899-8.618c1.436-1.077 1.795-3.23.718-5.026-1.077-1.436-3.231-1.795-5.026-.718-1.437 1.077-1.795 3.231-.718 5.026 1.077 1.436 3.23 1.795 5.026.718zm-6.463-10.053c1.796-.359 2.873-2.513 2.155-4.308-.718-2.154-2.514-2.872-4.668-2.513-1.795.718-2.872 2.872-2.154 4.667s2.872 2.873 4.667 2.154zm-3.23-11.13c2.153-.359 3.59-1.795 3.59-3.949 0-1.795-1.796-3.59-3.95-3.231-1.795 0-3.231 1.436-3.231 3.59 0 1.795 1.795 3.59 3.59 3.59zm296.56-7.18c-1.795-.36-3.59 1.436-3.59 3.231 0 2.154 1.435 3.59 3.59 3.95 1.795 0 3.59-1.796 3.59-3.59 0-2.155-1.436-3.591-3.59-3.591zm-1.077 11.489c-1.796-.36-3.95.359-4.309 2.513-.718 1.795.36 3.95 2.154 4.308 1.795.719 3.95-.359 4.668-2.154.359-1.795-.36-3.95-2.513-4.667zm-4.309 11.13c-1.795-1.077-3.95-.718-5.026.718-1.436 1.795-.718 3.95.718 5.026 1.795 1.077 3.95.718 5.026-.718 1.077-1.795.718-3.95-.718-5.026zm-7.18 9.335c-1.437-1.436-3.95-1.436-5.386 0-1.077 1.436-1.077 3.59 0 5.026 1.436 1.436 3.95 1.436 5.386 0 1.077-1.436 1.077-3.59 0-5.026zm-8.976 8.257c-1.077-1.795-3.232-2.154-4.668-1.077-1.795 1.436-2.154 3.59-1.077 5.027 1.436 1.795 3.59 2.154 5.027 1.077 1.795-1.436 2.154-3.59.718-5.027zm-9.694 6.822c-.718-1.795-3.231-2.513-4.668-1.436-1.795 1.077-2.513 3.231-1.436 5.026 1.077 1.796 3.232 2.154 5.027 1.077 1.795-.718 2.154-3.23 1.077-4.667zm-10.053 5.744c-1.077-1.795-3.231-2.513-5.026-1.795-1.796 1.077-2.514 3.232-1.437 5.027.719 1.795 2.873 2.513 4.668 1.436 1.795-.718 2.513-2.872 1.795-4.668zm-10.771 5.027c-.718-1.795-2.872-2.872-4.667-2.154-1.796.718-2.873 2.872-2.155 4.667.718 1.795 2.873 2.873 4.668 2.154 1.795-.718 2.872-2.872 2.154-4.667zm-11.13 4.308c-.718-1.795-2.513-2.872-4.667-2.513-1.796.718-2.873 2.872-2.155 4.667.718 1.796 2.514 2.873 4.668 2.155 1.795-.36 2.872-2.513 2.154-4.309zm-11.13 3.59c-.718-2.154-2.513-3.23-4.667-2.512-1.796.358-2.873 2.513-2.514 4.308.718 1.795 2.514 2.872 4.309 2.513 2.154-.718 3.231-2.513 2.872-4.308zm-11.49 2.873c-.717-2.154-2.512-3.231-4.307-2.872-2.155.359-3.232 2.513-2.873 4.308.36 1.795 2.155 3.231 4.309 2.872 1.795-.359 3.231-2.513 2.872-4.308zm-11.847 2.154c-.36-1.795-2.154-3.231-3.95-2.872-2.154.359-3.23 2.154-3.23 4.308.358 1.796 2.153 3.232 4.308 2.872 1.795-.358 3.23-2.154 2.872-4.308zm-11.49 1.795c-.358-1.795-2.153-3.23-4.307-2.872-1.796 0-3.232 1.795-2.873 3.95 0 1.795 1.795 3.23 3.95 3.23 1.795-.358 3.23-2.153 3.23-4.308zm-11.847 1.436c-.36-1.795-1.795-3.23-3.95-3.23-1.795 0-3.59 1.794-3.23 3.949 0 1.795 1.794 3.23 3.949 3.23 1.795-.358 3.23-1.794 3.23-3.949zm-11.848.719c0-1.796-1.795-3.232-3.59-3.232-2.155 0-3.59 1.795-3.59 3.59 0 2.155 1.794 3.59 3.59 3.59 2.154 0 3.59-1.794 3.59-3.948zM82.124 189.307c0 1.795 1.436 3.59 3.59 3.59 1.796 0 3.59-1.794 3.59-3.59 0-2.154-1.794-3.59-3.59-3.59-2.154 0-3.59 1.436-3.59 3.59zm11.848 0c0 1.795 1.436 3.59 3.59 3.59 1.796 0 3.59-1.435 3.59-3.23 0-2.155-1.435-3.95-3.59-3.95-1.795 0-3.59 1.436-3.59 3.59zm11.848.36c-.359 2.154 1.436 3.949 3.232 3.949 2.154.359 3.59-1.436 3.949-3.232 0-2.154-1.436-3.59-3.231-3.949-2.155 0-3.95 1.436-3.95 3.231zm11.848 1.077c-.359 2.154 1.077 3.949 2.873 3.949 2.154.359 3.949-1.077 4.308-2.872 0-2.155-1.436-3.95-3.231-3.95-2.155-.359-3.95 1.077-3.95 2.873zm11.49 1.436c0 2.154 1.076 3.949 3.23 4.308 1.796.36 3.59-1.077 3.95-2.872.359-2.154-1.077-3.95-2.872-4.309-2.155-.359-3.95 1.077-4.309 2.873zm11.847 2.154c-.359 1.795.718 3.95 2.873 4.308 1.795.36 3.59-.718 4.308-2.872.359-1.795-1.077-3.59-2.872-4.308-2.154-.36-3.95 1.077-4.309 2.872zm11.49 2.513c-.36 2.154.717 3.95 2.513 4.308 2.154.718 3.949-.359 4.667-2.513.359-1.795-.718-3.59-2.872-4.308-1.795-.36-3.59.718-4.309 2.513zm11.488 3.231c-.718 1.795.36 3.95 2.155 4.668 2.154.359 3.949-.36 4.667-2.513.718-1.796-.36-3.95-2.154-4.309-2.154-.718-3.95.36-4.668 2.154zm11.13 3.95c-.718 1.795.36 3.949 2.154 4.667 1.796.718 3.95-.359 4.668-2.154s-.359-3.95-2.154-4.668-3.95.36-4.668 2.155zm11.13 4.308c-1.077 1.795-.359 3.95 1.437 5.026 1.795.719 3.949 0 5.026-1.795.718-1.795 0-3.949-1.795-4.667-1.795-1.077-3.95-.36-4.668 1.436zm10.412 5.386c-1.077 1.795-.359 3.949 1.436 5.026 1.436 1.077 3.95.36 4.668-1.436 1.077-1.436.718-3.59-1.077-4.668-1.795-1.077-3.95-.718-5.027 1.078zm10.053 6.462c-1.077 1.436-.718 3.59 1.077 5.027 1.436 1.077 3.59.718 4.668-1.078 1.436-1.436 1.077-3.59-.718-5.026-1.437-1.077-3.59-.718-5.027 1.077zm9.335 7.18c-1.077 1.437-1.077 3.591 0 5.027 1.436 1.436 3.95 1.436 5.386 0 1.077-1.436 1.077-3.59 0-5.026-1.437-1.436-3.95-1.436-5.386 0zm8.258 8.617c-1.436 1.078-2.154 3.232-.718 5.027 1.077 1.436 3.231 1.795 5.026.718 1.436-1.077 1.795-3.231.718-5.026-1.077-1.437-3.231-1.796-5.026-.719zm6.462 10.053c-1.795.718-2.872 2.514-2.154 4.309.36 2.154 2.513 2.872 4.309 2.513 2.154-.718 2.872-2.872 2.513-4.667-.718-1.796-2.873-2.873-4.668-2.155z" style="fill:#aaa" transform="matrix(.97 0 0 .97 72.318 -170.75)"/><path d="m100.794 256.446-3.59 14.72h-4.668l4.667-21.9c.36-.719 1.796-.719 2.154.358l1.437 6.822zm5.026 25.132H95.05l-1.796 8.258H83.2l-3.231-3.232 1.436-.718h7.54l2.154-8.616h13.643l1.077 4.308zm3.231 8.258-3.23-3.232 1.076-.718h7.54l-10.412-44.52.718-.718 3.231 3.232 11.13 45.956h-10.053zm19.03-37.699h-7.18l-3.232-3.231.718-.718h9.694v3.95zm2.154 38.058-3.231-3.232 1.077-1.077h7.54v-37.698h9.335v-6.822l1.077-.718 3.23 3.232v8.257h-9.693v38.058h-9.335zm32.313-38.058h-7.18l-3.232-3.231 1.077-.718h9.335v3.95zm2.154 38.058-3.231-3.232 1.077-1.077h7.54v-37.698h9.334v-6.822l1.077-.718 3.232 3.232v8.257h-9.335v38.058h-9.694z" style="fill:#000" transform="matrix(.97 0 0 .97 72.318 -170.75)"/><path d="m200.969 83.61-2.487-2.488.829-.552h5.803V46.303l.553-.553 2.487 2.487V83.61h-7.185z" style="fill:#000" transform="translate(4.233 5.022) scale(1.26023)"/><path d="M-9.788 241.725a9.473 9.473 0 0 1 3.232 2.155c.718.718 1.795 1.436 2.872 2.513.718 1.077 1.077 1.795 1.795 2.872 1.436 2.154 2.154 4.667 2.154 6.463 0 3.23-1.795 7.54-4.308 9.694l1.795 1.795c2.154 2.154 3.59 5.026 3.59 9.335 0 6.103-4.667 13.284-11.848 13.284H-27.02l-3.232-3.232 1.078-.718h15.438c6.462 0 10.77-6.821 10.77-12.566 0-5.385-2.512-8.617-5.385-10.053l-1.436-.718 1.436-1.077c2.514-1.436 4.309-5.744 4.309-8.617 0-3.59-1.795-8.257-6.104-10.412l.36-.718zm-7.898 9.335v8.617h-3.95v-12.925h4.309c2.872 0 5.026 1.795 5.744 5.026-.718-.718-1.436-.718-2.513-.718h-3.59zm0 18.31v11.13h-3.95v-15.437h5.745c2.154 0 4.308 2.154 5.026 5.026-.359-.718-1.077-.718-1.795-.718h-5.026zm33.031-28.004 1.077-.718 3.231 3.232v33.03c0 .719 0 1.796.36 2.155-2.873-.36-4.668-2.513-4.668-5.386v-32.313zm8.975 49.547c-3.59 0-6.462-1.077-9.693-3.59-2.155-1.796-4.309-4.668-4.668-5.386-.359 0-.718-1.077-1.077-1.795l.36-.36c2.153 4.31 6.82 7.181 11.847 7.181 7.18 0 13.284-6.103 13.284-13.284v-32.313l.718-.718 3.232 3.232v33.03c0 7.9-6.463 14.003-14.003 14.003zm48.11-27.646 1.078-.718 3.23 3.232v11.13c0 8.616-4.667 14.002-14.36 14.002-3.232 0-6.104-1.077-9.335-3.59-2.155-1.796-4.668-4.668-5.027-5.386 0-.36-.359-1.077-1.077-2.154h.718c2.154 3.95 6.822 7.18 11.848 7.18 8.976 0 12.925-5.385 12.925-13.284v-10.412zm-6.103 9.694h-2.513l-3.232-3.231.718-1.077h5.027v4.308zm-.36-20.824c-.717-.718-2.153-1.077-3.23-.718-2.873 0-5.027 2.513-5.027 5.386v20.106c0 1.077.36 2.154 1.077 2.872-3.231-.718-5.026-3.231-5.026-6.104v-20.105c0-3.232 2.154-6.104 5.744-6.463 3.232-.36 6.104 1.795 6.463 5.026zm10.772 5.386H68.48l-3.231-3.231 1.077-.718h6.103c0-5.386-1.795-9.694-6.103-11.849l.718-.718c.718.36 1.436 1.078 2.154 1.436 1.077 1.078 2.154 1.796 3.59 3.232 1.077 1.436 1.796 2.154 2.514 3.59 1.077 2.513 1.436 4.668 1.436 7.54v.718z" style="fill:#000" transform="matrix(.97 0 0 .97 72.318 -170.75)"/><path d="M-20.918 266.14v13.284h5.027c2.872 0 4.667-3.232 4.667-6.822s-2.513-6.463-4.667-6.463h-5.027zm0-18.311v10.77h3.59c3.232 0 4.668-1.794 4.668-5.385 0-3.59-2.154-5.385-4.667-5.385h-3.59zm13.285 14.72c3.23 1.436 5.744 5.027 5.744 10.771 0 6.104-4.667 13.284-11.848 13.284h-16.516v-45.956h15.439c8.258 0 11.848 7.18 11.848 12.207 0 2.873-1.795 7.899-4.667 9.694zm33.389 11.131v-33.032h9.335v33.031c0 7.899-6.462 14.003-14.002 14.003-7.899 0-14.361-6.104-14.361-14.003v-33.03h9.694v33.03c0 2.514 1.795 4.668 4.667 4.668s4.667-2.154 4.667-4.668zm39.494 0v-3.95h-4.668v-7.18h12.925v11.13c0 8.616-4.308 14.002-14.002 14.002-7.899 0-14.361-6.104-14.361-14.003v-20.105c0-7.9 6.462-14.003 14.361-14.003 9.694 0 14.002 5.386 14.002 14.003v.718H65.25v-.718c0-3.232-2.514-5.745-5.745-5.386-2.872 0-5.026 2.513-5.026 5.386v20.105c0 2.514 2.154 5.027 5.026 5.386 3.231 0 5.745-2.154 5.745-5.386zm37.34-3.591-4.31-20.465-4.667 20.465h8.976zm-22.62 16.515 11.848-45.956h12.925l10.771 45.956h-9.694l-1.795-8.257H91.818l-1.795 8.257H79.97z" style="fill:#fff" transform="matrix(.97 0 0 .97 72.318 -170.75)"/><path d="M158.965 81.399h-7.185V52.106h-7.185V45.75h21.831v6.356h-7.461v29.293zm26.805 0h-7.461V52.106h-7.185V45.75h21.831v6.356h-7.185v29.293zm12.712-35.649h7.185v35.372h-7.185V45.75z" style="fill:#fff" transform="translate(4.233 5.022) scale(1.26023)"/><path d="M96.127 227.723c2.154 0 3.59-1.795 3.59-3.95 0-1.794-1.436-3.59-3.59-3.59h-7.54v7.54h7.54zm0-12.925a3.218 3.218 0 0 0 3.231-3.231 3.218 3.218 0 0 0-3.231-3.232h-7.54v6.463h7.54zm-18.31 5.385v1.796h-4.668v-8.976h4.667v1.795h4.668v-6.463h-11.13v2.155h-4.668v-6.822h29.44c4.31 0 8.259 3.59 8.259 8.258 0 2.154-.718 3.95-2.155 5.385 1.437 1.795 2.514 3.95 2.514 6.104 0 5.026-3.95 8.976-8.617 8.976h-29.44v-7.181h4.667v2.513h11.13v-7.54h-4.668z" style="fill:#000" transform="matrix(.97 0 0 .97 72.318 -170.75)"/></svg>