<svg xmlns="http://www.w3.org/2000/svg" width="512pt" height="512pt" style="isolation:isolate" viewBox="0 0 512 512"><defs><clipPath id="a"><path d="M0 0h512v512H0z"/></clipPath></defs><g clip-path="url(#a)"><path fill="#00599C" d="M477.702 384c3.57-6.183 5.788-13.151 5.788-19.408V147.408c0-6.257-2.215-13.223-5.787-19.407L256 256.001 477.702 384Z"/><path fill="#004482" d="m275.701 507.307 188.088-108.591c5.418-3.129 10.343-8.53 13.913-14.716L256 256.001 34.298 384.002c3.57 6.184 8.496 11.587 13.913 14.714l188.088 108.591c10.835 6.257 28.567 6.257 39.402 0Z"/><path fill="#659AD2" d="M477.703 128c-3.571-6.186-8.497-11.587-13.914-14.716L275.701 4.693c-10.835-6.257-28.567-6.257-39.402 0L48.211 113.284c-10.836 6.255-19.701 21.612-19.701 34.124v217.184c0 6.257 2.217 13.225 5.788 19.408L256 256.001 477.703 128Z"/><path fill="#FFF" d="M256 407.661c-83.626 0-151.66-68.035-151.66-151.66 0-83.626 68.034-151.66 151.66-151.66 53.961 0 104.287 29.038 131.336 75.782l-65.634 37.981c-13.538-23.398-38.715-37.933-65.702-37.933-41.814 0-75.83 34.016-75.83 75.83 0 41.812 34.016 75.83 75.83 75.83 26.99 0 52.167-14.536 65.706-37.938l65.635 37.979c-27.049 46.749-77.377 75.789-131.341 75.789Z"/><path fill="#FFF" d="M407.66 247.575h-16.852v-16.851h-16.849v16.851h-16.852v16.85h16.852v16.852h16.849v-16.852h16.852v-16.85Zm63.192 0H454v-16.851h-16.849v16.851h-16.853v16.85h16.853v16.852H454v-16.852h16.852v-16.85Z"/></g></svg>