<svg xmlns="http://www.w3.org/2000/svg" width="512pt" height="512pt" style="isolation:isolate" viewBox="0 0 512 512"><defs><clipPath id="a"><path d="M0 0h512v512H0z"/></clipPath></defs><g clip-path="url(#a)"><path fill="#A179DC" d="M483.752 150.528c-.004-8.609-1.845-16.216-5.568-22.745-3.658-6.42-9.135-11.801-16.482-16.056C401.056 76.758 340.35 41.896 279.724 6.891c-16.345-9.436-32.192-9.092-48.416.48C207.169 21.607 86.313 90.848 50.3 111.707c-14.831 8.586-22.048 21.726-22.052 38.805-.023 70.325 0 140.648-.023 210.974 0 8.42 1.766 15.88 5.326 22.311 3.659 6.614 9.213 12.143 16.729 16.494 36.016 20.859 156.887 90.095 181.021 104.335 16.231 9.577 32.078 9.919 48.428.479 60.629-35.006 121.337-69.866 181.992-104.835 7.517-4.349 13.071-9.882 16.73-16.491 3.554-6.431 5.324-13.89 5.324-22.312 0 0 0-140.612-.023-210.939Z"/><path fill="#280068" d="M256.697 255.314 33.551 383.797c3.659 6.614 9.213 12.143 16.729 16.494 36.016 20.859 156.887 90.095 181.021 104.335 16.231 9.577 32.078 9.919 48.428.479 60.629-35.006 121.337-69.866 181.992-104.835 7.517-4.349 13.071-9.882 16.73-16.491L256.697 255.314Z"/><path fill="#390091" d="M483.752 150.528c-.004-8.609-1.845-16.216-5.568-22.745L256.697 255.314l221.754 128.465c3.554-6.431 5.321-13.89 5.324-22.312 0 0 0-140.612-.023-210.939Z"/><path fill="#FFF" d="M388.078 207.283v24.015h24.016v-24.015h12.008v24.015h24.015v12.008h-24.015v24.016h24.015v12.007h-24.015v24.016h-12.008v-24.016h-24.016v24.016h-12.007v-24.016h-24.016v-12.007h24.016v-24.016h-24.016v-12.008h24.016v-24.015h12.007Zm24.016 36.023h-24.016v24.016h24.016v-24.016Z"/><path fill="#FFF" d="M257.187 86.671c62.64 0 117.33 34.019 146.623 84.586l-.285-.487-73.7 42.436c-14.521-24.586-41.141-41.177-71.677-41.519l-.961-.005c-46.567 0-84.319 37.75-84.319 84.316a83.92 83.92 0 0 0 11.12 41.832c14.534 25.373 41.857 42.487 73.199 42.487 31.535 0 59.013-17.331 73.473-42.975l-.351.615 73.589 42.632c-28.972 50.138-82.913 84.052-144.825 84.728l-1.886.011c-62.838 0-117.684-34.229-146.903-85.063-14.265-24.816-22.427-53.587-22.427-84.267 0-93.515 75.81-169.327 169.33-169.327Z"/></g></svg>