<svg xmlns="http://www.w3.org/2000/svg" width="512pt" height="512pt" style="isolation:isolate" viewBox="0 0 512 512"><defs><clipPath id="a"><path d="M0 0h512v512H0z"/></clipPath></defs><g clip-path="url(#a)"><path fill="#A9B9CB" d="M483.533 150.528c-.004-8.61-1.844-16.217-5.563-22.745-3.653-6.421-9.127-11.801-16.466-16.057C400.916 76.757 340.268 41.895 279.701 6.891c-16.329-9.435-32.161-9.092-48.369.48C207.216 21.607 86.476 90.848 50.498 111.707c-14.816 8.586-22.027 21.726-22.031 38.805-.023 70.325 0 140.647-.023 210.974.004 8.42 1.766 15.88 5.321 22.312 3.655 6.613 9.204 12.142 16.713 16.494 35.981 20.858 156.736 90.094 180.846 104.334 16.216 9.577 32.048 9.918 48.383.48 60.569-35.006 121.219-69.867 181.817-104.836 7.509-4.35 13.057-9.882 16.713-16.49 3.55-6.432 5.315-13.892 5.319-22.313 0 0 0-140.612-.023-210.939Z"/><path fill="#7F8B99" d="M279.291 7.349c-16.303-9.411-32.109-9.068-48.29.479-24.077 14.199-144.619 83.26-180.539 104.065-14.793 8.564-21.991 21.67-21.995 38.704-.023 70.143 0 140.283-.023 210.427.004 8.398 1.762 15.838 5.312 22.253 3.65 6.597 9.19 12.112 16.687 16.451 8.229 4.766 20.904 12.068 35.838 20.658L418.889 87.778C372.35 60.98 325.799 34.203 279.291 7.349Z"/><path fill="#FFF" d="m303.033 223.943 70.825.5c0-29.51-29.87-101.776-115.508-101.776-54.562 0-127.913 34.688-127.913 134.418 0 99.728 71.906 132.249 127.913 132.249 90.697 0 112.374-62.76 112.374-98.226l-67.568-3.863s1.808 41.022-45.167 41.022c-43.36 0-50.595-53.117-50.595-71.182 0-27.462 9.765-71.545 50.595-71.545 40.832 0 45.044 38.403 45.044 38.403Z"/></g></svg>