<svg xmlns="http://www.w3.org/2000/svg" width="512pt" height="512pt" style="isolation:isolate" viewBox="0 0 512 512"><defs><clipPath id="a"><path d="M0 0h512v512H0z"/></clipPath></defs><g clip-path="url(#a)"><path fill="#006B6E" d="M200.129 246.252c-1.674.224-3.537-2.192-4.331-3.33-.241-.328-1.156-2.278-.932-2.571.363-.276 2.261.362 2.761.776 1.242.984 2.243 2.364 2.864 4.728.017.276-.224.397-.362.397m-40.374-22.379c-1.139.414-3.934-2.76-4.71-3.934-1.432-2.156-2.882-4.555-4.4-6.677-1.415-1.88-2.985-3.226-3.347-6.522-.034-.379-.259-1.363-.017-1.345 1.535.12 3.002 2.812 3.778 3.864.552.76 1.208 1.519 1.708 2.312.759 1.156 1.07 2.537 1.864 3.624.966 1.311 2.139 2.553 3.174 3.882.553.707 1.295 1.328 1.64 2.295.155.5.638 2.329.31 2.501m-11.56-.448c-.863-.069-1.225-.604-1.76-1.001-1.415-1.052-2.605-2.743-2.64-5.193-.034-.242.069-.311.242-.311 1.691-.017 3.399 2.588 4.055 3.796.189.362.638 1.346.569 2.036 0 .466-.207.673-.466.673m-38.424 7.764c-.069.19-.207.414-.483.431-1.829-.051-2.381-2.778-3.175-4.02-.656-1.052-1.242-2.174-1.915-3.226-.483-.708-1.087-1.467-1.484-2.295-.5-1.053-.725-2.174-1.346-3.123-.31-.5-.828-.932-1.19-1.398-1.001-1.345-1.898-2.76-2.537-4.451-.138-.604-.31-1.191-.448-1.794-.38-1.018-.846-2.14-1.191-3.227-.19-.535-.293-1.656-.19-2.036.087-.155.156-.276.294-.241 1.397.207 2.743 3.606 3.433 4.865.759 1.329 1.933 2.398 2.588 3.762.587 1.259.794 2.829 1.45 4.037.534.932 1.397 1.674 1.984 2.571.742 1.156 1.277 2.657 1.863 3.934.656 1.449 1.605 2.57 2.174 3.968.242.587.328 1.605.173 2.243m-7.126-52.365a16.421 16.421 0 0 1-1.001-2.071c-.293-.776-.328-1.484-.638-2.226-1.087-2.398-2.295-5.038-3.365-7.401-.466-1.001-1.087-2.847-.655-4.107.069-.172.431-.069.586.104.363.328.621.535.932.897.224.345.276.725.518 1.07.534.811 1.242 1.621 1.639 2.536.897 1.95 1.138 4.124 2.036 6.022.569 1.242 1.535 2.329 2.174 3.588.31.708.517 1.432.724 2.157.138.552.104 1.294.138 1.725.018.656-.051 1.053-.276 1.087-1.691-.103-2.191-2.174-2.812-3.381Zm365.211 161.771c-2.122-7.816-25.052-4.451-43.911-6.177-17.167-1.57-39.183-4.641-65.65-13.837-24.777-8.592-48.725-18.427-69.62-29.728 0 0-8.437-4.452-9.334-4.952-1.743-1.053-3.106-1.812-4.814-2.882-1.018-.603-2.588-1.535-3.727-2.036-1.466-.603-2.45-1.397-3.709-2.174-1.294-.81-3.054-1.656-4.365-2.432-1.915-1.191-3.106-2.105-4.918-3.399-1.121-.846-1.691-1.087-3.192-2.002-.897-.535-2.536-1.415-3.33-1.949-1.673-1.105-2.743-2.019-4.434-3.192-1.018-.725-1.777-1.174-3.002-1.933-1.208-.742-2.381-1.691-3.433-2.467-.57-.449-1.467-.949-1.985-1.501a58.799 58.799 0 0 0-3.744-3.278c-1.173-.88-2.295-1.967-3.433-2.847-.742-.535-2.002-1.588-2.726-2.122-1.898-1.364-3.089-2.382-4.969-3.745-1.208-.897-2.226-2.087-3.434-2.984-1.346-1.001-2.588-2.157-3.986-3.158-.897-.621-1.932-1.415-2.622-2.122-.897-1.087-1.743-1.829-2.692-2.899-.69-.759-2.018-1.604-2.795-2.381-1.139-1.484-2.795-3.054-4.348-4.21-.914-.845-1.19-1.242-1.553-1.691-.259-.379-.604-.811-1.345-1.621-.742-.76-1.018-.967-1.312-1.295-.345-.276-.742-.638-1.76-1.639-.31-.327-.845-1.069-1.38-1.794-.466-.638-.897-1.277-1.208-1.605-.914-.966-1.518-1.639-2.174-2.329a79.835 79.835 0 0 1-1.57-1.622c-.362-.397-.638-.862-.966-1.294a9.396 9.396 0 0 0-.88-1.242c-.552-.604-.983-.397-1.087-.328-.328.224-.466.88-.103 1.656.5.915 1.19 1.933 1.621 2.52.104.138.19.258.242.327.173.294.328.57.5.863.242.431.501.897.811 1.311.708.949 1.45 1.743 2.192 2.485.258.241.5.5.724.759.501.518.88 1.07 1.26 1.656.414.57.845 1.191 1.38 1.778.259.241.483.552.673.828.242.31.483.655.759.931.432.415.846.829 1.26 1.243.69.742 1.432 1.466 2.105 2.053.535.449 1.069 1.018 1.621 1.553 1.398 1.673 2.934 3.347 4.193 4.952.708.897 2.036 1.57 2.847 2.191.897.673 1.605 1.846 2.312 2.743.552.656 1.76 1.726 2.329 2.416 1.398 1.794 2.364 2.76 4.21 4.141 1.122.793 1.967 1.57 2.83 2.64.518.672 2.105 2.208 2.709 2.95 1.518 1.932 2.208 3.744 1.984 3.796-1.035.276-3.554-1.95-5.055-2.916-1.225-.846-1.433-1.173-2.606-2.053-.259-.225-2.122-1.519-2.76-2.33-.501-.448-1.881-1.949-2.312-2.467-2.105-2.691-2.813-2.847-5.228-5.211-1.76-1.725-3.951-3.261-5.66-4.796a35.803 35.803 0 0 1-1.518-1.656c-.569-.57-1.277-1.087-1.794-1.657-.811-1.001-1.881-2.985-2.83-3.692-1.001-.777-1.743-1.484-2.761-2.243-.362-.242-.672-.708-1.052-1.001-.5-.345-1.07-.759-1.449-1.225-1.174-1.501-2.312-3.037-3.537-4.538-.535-.724-1.312-1.311-1.847-2.053-1.138-1.622-2.104-3.278-3.26-4.796-1.64-2.123-3.969-3.641-5.539-5.78-1.622-2.209-2.588-4.762-4.106-7.074-.656-1.001-1.674-1.709-2.399-2.658-.414-.552-.638-1.19-1.035-1.794-.811-1.242-1.76-2.45-2.588-3.623-1.07-1.588-1.794-3.296-2.881-4.969-.156-.225-.535-1.346-1.208-2.174-.638-.811-1.208-1.743-1.933-2.933-.759-1.157-1.104-1.933-1.639-2.727-.534-.828-.88-1.587-1.242-2.139-.345-.587-1.121-1.639-1.397-2.053-.984-1.519-1.26-2.226-2.278-3.624-.621-.862-1.311-1.57-1.898-1.363-.448.328-.276.863-.172 1.243.448 1.242.448 1.018.931 1.915.828 1.484 1.122 2.191 2.002 3.554.397.656 1.104 2.14 1.673 2.933a42.77 42.77 0 0 1 1.519 2.485c.431.724 1.035 2.622 1.639 3.416.431.569 1.052 1.725 1.484 2.554.845 1.69 1.915 3.019 2.795 4.33.586 1.087 1.173 2.226 1.742 3.296 1.174 1.76 2.571 3.399 3.71 5.21.707 1.26 1.398 2.52 2.088 3.779.707 1.035 1.656 1.915 2.329 2.968.828 1.259 1.277 2.64 2.105 3.882.656.966 1.484 1.898 2.139 2.864 1.122 1.656 2.123 3.295 3.296 4.883.655.862 1.501 1.587 2.139 2.467.88 1.191 1.588 2.605 2.502 3.606 1.104 1.035 1.415 1.656 2.278 2.64 1.276 1.57 4.468 6.056 3.916 6.091-1.863.258-5.469-3.831-6.988-5.315-1.173-1.173-2.484-2.001-3.295-3.105-1.208-1.622-2.088-3.451-3.296-5.021-.431-.587-1.087-1.018-1.518-1.57-.828-1.07-1.622-2.209-2.571-3.14-.396-.38-.828-.725-1.19-1.156-1.467-1.881-2.709-3.9-4.124-5.867-.621-.793-1.38-1.501-1.984-2.277-.449-.639-.725-1.329-1.122-2.019-.569-.88-1.328-1.725-1.897-2.605-.432-.656-.691-1.312-1.139-1.984-.777-1.174-1.812-2.192-2.588-3.382-.604-.966-.777-2.226-1.415-3.209-1.605-2.45-3.347-4.952-4.917-7.402-.415-.639-.587-1.346-.967-1.967-1.294-2.019-2.484-4.193-3.761-6.177-.466-.742-.656-1.587-1.121-2.312-.587-.897-1.484-1.605-2.071-2.467-.449-.691-.638-1.45-.983-2.226-.466-1.053-1.122-2.071-1.657-3.054-.328-.604-.5-1.225-.88-1.794-1.535-2.399-2.795-4.935-4.037-7.592-.656-1.363-1.622-2.64-2.26-4.038-.742-1.535-1.45-3.105-2.123-4.589a73.3 73.3 0 0 1-1.104-3.054c-.742-1.587-1.898-2.95-2.605-4.607-.501-1.121-.777-2.156-1.242-3.105-.294-.57-.846-1.053-1.243-.794-.414.241-.466.742-.207 1.622.483 1.691 1.415 3.606 1.846 4.572.88 1.898 1.329 3.882 2.192 5.815.448 1.087 1.173 2.104 1.656 3.14.845 1.846 1.656 3.692 2.502 5.435.466 1.018.845 2.001 1.397 2.967.276.501.725 1.07.949 1.622.552 1.242.708 2.554 1.277 3.727.587 1.225 1.536 2.243 2.105 3.434 2.916 6.211 5.849 12.129 9.369 17.633.966 1.535 1.484 3.399 2.467 4.917 1.018 1.605 2.416 2.813 3.417 4.365.845 1.294 1.052 3.089 1.828 4.469 1.105 2.071 2.623 3.813 3.883 5.763.327.552.431 1.156.776 1.725.466.742 1.087 1.467 1.57 2.226.621 1.018.949 2.174 1.656 3.106.742 1.035 1.812 1.863 2.554 2.916.914 1.259 1.57 2.743 2.536 4.037.656.88 1.691 1.501 2.364 2.398 1.07 1.398 4.779 6.263 5.849 7.626 1.622 2.088 4.555 5.159 5.901 7.903.431.845 1.898 2.864 1.587 3.261-.776.517-4.451-3.503-5.072-4.089-1.536-1.467-2.864-3.503-4.193-5.194-.328-.379-3.848-3.813-4.141-4.193a35.488 35.488 0 0 1-1.018-1.397c-.983-1.467-1.587-3.227-2.623-4.607-.448-.586-1.121-1.018-1.535-1.587-.811-1.07-1.363-2.278-2.174-3.365-1.225-1.725-2.847-3.243-4.106-4.952-1.346-1.863-2.33-4.071-3.727-5.935-.69-.914-1.57-1.725-2.226-2.726-.293-.431-.397-.863-.69-1.311-.501-.759-1.173-1.622-1.553-2.45-.362-.794-.621-1.536-1.07-2.243-1.449-2.261-2.898-4.659-4.33-6.919-.673-1.018-1.036-2.105-1.674-3.123-1.087-1.674-2.467-3.175-3.537-4.866-1.277-2.001-1.967-4.417-3.278-6.418-.829-1.329-1.812-2.554-2.64-3.882-.932-1.432-1.381-3.106-2.226-4.59-.725-1.328-1.708-2.553-2.346-3.864-.708-1.45-1.174-2.865-1.864-4.366-.379-.793-.966-1.604-1.311-2.398-.466-1.035-.552-2.053-1.035-3.019-1.243-2.778-3.123-5.401-4.435-8.179a73.387 73.387 0 0 1-2.519-6.073c-.414-1.139-.604-2.226-1.121-3.278-1.156-2.554-2.571-5.228-3.675-7.73-.483-1.363-.949-2.692-1.45-4.037-.086-.38-.138-.742-.276-1.156-.535-1.191-1.242-2.364-1.708-3.52-.414-1.38-.845-2.743-1.294-4.124-1.777-4.451-3.382-9.489-5.073-14.131-.207-.828-.258-1.898-.586-2.812-.88-2.347-1.76-4.762-2.606-7.126-.5-1.208-1.639-.811-1.38.432.345 1.621.552 2.036.846 3.33.12.672.241 1.311.379 1.966.207.794.604 1.622.811 2.381.466 1.433.5 2.83.966 4.193.708 1.915 1.398 3.779 2.036 5.746.156.983.38 1.967.57 2.967.293.915.673 1.864 1 2.692.984 2.433 1.933 4.779 2.778 7.16.363 1.381.725 2.744 1.053 4.124.362.759.897 1.536 1.225 2.277.31.673.379 1.294.655 2.002.622 1.535 1.174 3.106 1.881 4.676.587 1.276 1.277 2.57 1.777 3.934.242.672.242 1.242.483 1.897 1.484 4.072 3.089 8.334 4.849 12.199.431.949.552 1.95 1 2.916.345.828.863 1.691 1.225 2.484.173.518.363 1.053.535 1.57.535 1.139 1.467 2.071 2.002 3.21 1.501 3.157 2.847 6.176 4.744 8.868 1.743 2.519 2.52 5.832 3.796 8.817.673 1.415 1.484 2.622 2.295 3.847.397.656.638 1.381.984 2.088.862 1.553 1.328 2.899 2.346 4.279.811 1.139.742 1.38 1.432 2.968.19.466.966 3.433.811 3.433-.259.173-1.725-.707-2.226-1.259-.655-.742-1.725-1.743-2.432-3.348-.38-.81-1.105-2.208-1.484-2.984-.915-1.967-2.485-3.641-3.624-5.453-.673-1.052-1.035-2.208-1.604-3.347-.949-2.088-2.053-4.193-3.071-6.349-.432-.898-1.053-1.76-1.553-2.554-.552-.828-.794-1.708-1.329-2.553-1.156-1.812-2.467-3.848-3.399-5.832-.69-1.467-1.052-2.933-1.708-4.365-.224-.449-.587-.898-.88-1.329-.466-.742-.655-1.553-1.07-2.381-.517-1.087-1.294-2.157-1.811-3.278-1.053-2.261-1.657-4.607-2.692-6.833-.517-1.035-1.346-1.932-1.829-2.967-.759-1.588-.828-3.589-1.587-5.246-1.95-4.417-4.21-8.954-5.866-13.561-.259-.776-.363-1.674-.604-2.485-.725-2.001-1.674-3.864-2.399-5.831-.327-.898-.431-1.726-.759-2.64-.483-1.329-1.121-2.744-1.604-4.107-.121-.448-.19-.931-.363-1.397-.604-1.26-.949-2.778-1.535-4.107-.328-.69-.811-1.397-1.087-2.139-.466-1.329-.328-3.002-.811-4.245-.673-1.88-1.467-3.916-2.14-5.762-.414-1.087-.483-2.123-.862-3.227a177.244 177.244 0 0 0-1.381-3.865c-.448-1.276-.431-2.657-.862-4.002-.311-1.036-.742-2.088-1.087-3.054-.639-1.812-.915-3.727-1.588-5.418-.103-.311-.224-.638-.327-.932-.173-.466-.484-.914-.949-.776-.535.138-.535.811-.501 1.259.104 1.346.604 2.554.966 3.641.449 1.139.656 2.364.967 3.451.172.707.155 1.466.327 2.208.225 1.07.639 2.088.915 3.14.259 1.036.121 2.053.362 2.864.673 2.261 1.432 4.814 2.191 6.971.311 1.121.363 2.415.708 3.382.414 1.138.845 2.294 1.242 3.45.38.967.449 1.881.846 2.796.431.949.914 1.949 1.276 3.036.432 1.398.38 2.778.863 4.107.794 2.139 1.777 4.175 2.502 6.228.241.759.328 1.57.587 2.33.638 1.777 1.087 3.692 1.742 5.486.932 2.554 2.122 5.056 3.054 7.575.897 2.484 1.035 5.469 2.071 7.798.534 1.156 1.639 1.847 2.139 2.968.362.707.259 1.536.5 2.381.294.949.742 1.915 1.105 2.795.207.811.414 1.588.638 2.364.328.949.983 1.898 1.398 2.812.69 1.484 1.035 3.037 1.863 4.366.673 1 1.484 1.932 2.036 3.053.569 1.225.776 2.554 1.346 3.848.845 1.898 1.846 3.71 2.553 5.677.673 1.794.915 3.692 1.76 5.279.863 1.553 1.915 2.951 2.761 4.486.535 1.173 1.07 2.329 1.622 3.486.431.931 1.276 1.742 1.811 2.726a50.166 50.166 0 0 1 1.829 3.588c.432.932.587 1.778 1.104 2.571.742 1.225 1.312 2.209 2.123 3.416.673 1.087 1.466 2.468 1.949 3.745.38.966.777 1.984 1.329 2.795.604.828 1.38 1.57 1.881 2.484.5.897 1.207 3.813.948 3.951-.638.225-2.432-1.483-2.915-2.087-1.415-1.709-2.105-4.021-3.399-5.832-1.381-1.984-2.243-3.089-3.33-5.349-.604-1.294-1.691-3.64-2.433-4.796-.742-1.087-1.674-2.071-2.243-3.279-.449-1.018-.673-2.225-1.122-3.226-.673-1.432-2.036-2.381-2.726-3.882-.793-1.657-1.139-3.365-1.984-4.918-.414-.759-.949-1.604-1.311-2.398-.483-.983-.708-1.949-1.174-2.95-.948-2.036-2.381-3.744-3.295-5.763-1.001-2.07-1.536-4.313-2.554-6.401-.517-1.139-1.449-2.105-1.984-3.244-.707-1.501-1.069-3.071-1.777-4.589-.448-.915-1.087-1.812-1.518-2.709-.604-1.312-.828-2.744-1.45-4.107a1193.927 1193.927 0 0 0-4.175-9.368c-.518-1.191-.656-2.416-1.19-3.624a138.084 138.084 0 0 0-1.588-3.14c-1.173-2.709-1.604-5.883-2.829-8.61-.622-1.397-1.381-2.708-1.95-4.192-.863-2.347-1.173-4.762-2.053-7.161-1.312-3.657-2.364-7.47-3.675-11.094-.397-1.087-.432-2.157-.846-3.295a226.177 226.177 0 0 0-1.173-3.175c-.276-.88-.449-2.105-.673-3.209-.983-3.089-1.967-6.177-2.933-9.3-.242-.742-.276-2.07-.535-3.019-.155-.535-.449-1.156-.656-1.657-.224-.707-.224-1.311-.448-2.053-.725-2.26-1.329-4.9-2.053-7.16-.207-.708-.276-1.726-.501-2.519-1.001-3.227-1.501-7.178-2.812-10.163-.207-.586-.587-1.208-1.156-1.052-.57.138-.449.793-.397 1.328.173 1.467.725 2.726.966 3.951.104.552.104 1.312.138 1.967.069.552.138 1.225.311 1.812a337.037 337.037 0 0 1 1.863 6.056c.19.914.017 2.329.276 3.382.828 3.054 1.432 6.694 2.537 9.438 1.018 2.501 1.207 5.504 1.932 8.212.207 1.174.276 2.364.449 3.537.189 1.139.811 1.916 1.156 2.865.276.707.241 1.311.517 2.053.57 1.949 1.035 3.865 1.726 5.832.483 1.363 1.225 2.639 1.708 3.951.19.604.138 1.138.293 1.794.345 1.363.569 2.709.949 4.037.966 2.675 1.881 5.573 2.83 8.213.535 1.484.707 2.916 1.207 4.348 2.123 5.763 4.262 11.474 6.35 17.168.345 1.277.707 2.553 1.035 3.813.466 1.277 1.225 2.364 1.76 3.52.69 1.483.897 3.036 1.484 4.606.638 1.847 1.518 3.261 2.225 5.177.328.897.656 1.915 1.07 2.812.311.656.88 1.294 1.208 1.967.569 1.121.656 2.553 1.191 3.692.569 1.139 1.518 2.088 2.191 3.123.586 1.001.655 2.26 1.156 3.382.793 1.742 1.811 3.347 2.571 5.193.31.777.448 1.467.793 2.209.397.845 1.035 1.656 1.432 2.553 0 0 .035 0 .069.087.035.12.104.293.121.483.104.345.224.793.345 1.121.173.483.725 1.381.949 1.708.138.173.552.621.863 1.036.155.155.293.345.448.552.742 1.19.829 2.864 1.45 4.192.621 1.26 1.708 2.295 2.329 3.624.5 1 .742 3.502.138 3.606-2.588 0-2.778-3.624-3.64-5.522-.708-1.483-1.743-2.708-2.52-4.123-.172-.276-.414-.846-.586-1.432a10.143 10.143 0 0 0-.587-1.45c-.328-.69-.328-.586-.552-1.087-.241-.483-.966-1.397-1.173-1.828a.138.138 0 0 1-.035-.087c-1-1.587-1.656-3.847-2.363-4.934-.397-.587-.915-1.191-1.312-1.795-.638-1.035-.983-2.26-1.501-3.399-.483-1.018-1.259-2.036-1.743-3.123-.569-1.276-.603-2.881-1.225-4.175-.293-.708-.862-1.415-1.207-2.071-.725-1.483-1.156-3.053-1.881-4.503-.328-.707-.966-1.363-1.311-2.07-.57-1.243-.88-2.554-1.519-3.693-1.363-2.45-2.829-5.158-3.933-7.747-.673-1.518-.915-3.053-1.553-4.52-.57-1.294-1.363-2.554-1.933-3.779-.414-.811-.5-1.639-.828-2.553-.552-1.432-1.19-2.916-1.725-4.348-.311-1.001-.57-3.158-.88-4.02-.397-1.087-.949-2.261-1.415-3.33-.725-1.57-.932-3.227-1.639-4.814-.552-1.242-1.156-2.519-1.605-3.779-.397-1.069-.5-2.07-.931-3.054-.328-.759-.777-1.604-1.053-2.381-.362-.931-.604-2.467-.88-3.709-.466-1.363-1.035-2.657-1.449-4.003-.259-1.018-.294-3.33-.518-3.951-1.449-4.176-2.76-8.644-4.089-12.82-.604-1.932-.897-3.865-1.432-5.728-.19-.776-.207-1.725-.414-2.485-.38-1.207-.88-2.45-1.26-3.692-.207-.845-.345-1.708-.5-2.536-.19-.863-.656-1.76-1.001-2.623-.793-2.519-1.242-5.193-1.984-7.66-.241-1.018-.241-2.347-.518-3.279-.983-3.036-1.19-6.573-2.087-9.765-.207-.932-.328-1.864-.552-2.709-1.57-5.97-2.278-12.664-4.021-18.393-.327-1.104.104-2.502-.189-3.692a75.073 75.073 0 0 0-1.105-3.692c-.172-.622-.189-1.087-.293-1.639-.31-.967-.742-1.743-1.277-1.622-.638.189-.5.776-.483 1.587.069 1.346.207 2.45.466 3.52.224.914.069 1.673.328 2.484.552 1.846.725 4.469 1.052 6.16.104.69 0 1.639.138 2.45.19.863.846 1.967 1.018 2.899.19 1.225.173 2.829.363 4.175.241 1.122.586 2.209.88 3.261.241.914.069 1.794.345 2.64.259.88.724 1.742.897 2.709.138 1.052-.017 2.588.207 3.537 1.346 5.245 1.743 11.456 3.278 16.477.19.725.225 1.501.397 2.226 1.277 4.417 2.26 9.11 3.589 13.475.172.673.155 1.38.328 2.14.431 1.535.793 3.191 1.138 4.727.156.742.138 1.398.346 2.088.448 1.604 1 3.157 1.535 4.745.19.793.276 1.552.414 2.312.138.604.449 1.294.639 1.88.276.915.189 1.795.465 2.64.207.483.604 1.035.725 1.553.207.949.328 1.881.587 2.795.379 1.104.966 2.191 1.415 3.278.345.915.345 1.846.69 2.744.621 1.518 1.294 3.347 1.898 5.003.483 1.346.552 2.726 1.035 4.089.328.915.759 1.847 1.07 2.744.207.69.327 1.38.569 2.122.224.638.949 1.674 1.415 2.554.397.948.207 2.243.5 3.278.328 1.052.915 1.898 1.277 2.864.328.983.31 2.036.587 3.037.276.776.81 1.518 1.121 2.243.311.862.621 1.69.932 2.536.241.535.707 1.121.983 1.639.449.966.828 2.053 1.225 3.054.57 1.415.621 3.175 1.07 4.831.121.483.086 1.605-.173 1.725-.672.121-1.414-.931-1.863-1.57-.776-1.104-1.518-2.312-2.088-3.623-.207-.5-.31-.966-.483-1.484-.431-1.087-.759-2.346-1.259-3.433-.294-.691-.742-1.415-.984-2.14-.345-1.052-.19-2.295-.604-3.209-.345-.759-.966-1.38-1.311-2.14-.242-.707-.38-1.432-.673-2.139-.379-.845-.88-1.587-1.363-2.398-.345-.777-.293-1.536-.569-2.45-.294-1.087-.639-2.157-1.105-3.141-.448-1-1.035-2.001-1.483-3.036-.207-.57-.311-1.156-.466-1.726-.276-.776-.69-1.604-.984-2.363-.172-.587-.328-1.191-.569-1.743-.362-.845-.811-1.794-1.156-2.726-.259-.742-.293-1.553-.569-2.295-.466-1.328-.915-2.812-1.381-4.106-.276-1.001-.362-2.019-.673-3.037-.379-1.173-.897-2.346-1.328-3.537-.328-.949-.414-1.967-.69-2.95-.449-1.26-1.087-2.433-1.519-3.762-.258-1.069-.31-2.139-.535-3.14-.724-2.467-1.518-5.193-2.294-7.73-.898-2.812-.984-6.004-1.795-8.851-.586-2.036-1.311-4.003-1.932-6.004-.224-1.053-.259-2.019-.518-3.02-.552-2.277-1.38-5.21-2.139-7.574-.38-1.242-.259-2.519-.621-3.848-.363-1.345-.38-2.933-.811-4.365-.276-.862-.604-1.501-.811-2.622-.242-1.122-.225-2.433-.38-3.279-.155-.845-1.604-5.814-1.777-6.746-.172-.914-.172-2.605-.276-3.209-.104-.397-.845-2.536-.932-3.106-.103-.552-.103-1.19-.31-2.294-.242-1.105-.88-3.555-.984-4.262-.121-.725-.121-2.157-.259-2.864-.155-.708-.621-2.364-.949-3.537-.396-1.432-.069-2.933-.465-4.279a39.107 39.107 0 0 0-1.018-2.916c-.225-.794-.501-1.915-.552-2.416-.052-.776-.104-2.329-.156-2.916-.017-.793-.362-2.139-.431-3.312-.104-1.605-.449-3.296-.707-4.279-.139-.587-.087-1.277-.208-1.812-.414-1.57-.793-3.019-1.587-2.916-.569.086-.794.57-.535 1.588.276 1.225.397 2.191.725 3.381.138.639.19 2.243.19 2.778.051.863.086 1.053.189 1.898.07.311.208 1.104.311 1.449.121.553.293 1.363.276 1.76 0 .552-.017 1.139-.017 1.933 0 .414.017.552.172 1.259.173.69.242.846.294 1.415.034.5-.018.984.017 1.415 0 .552.069 1.087.242 1.587.293 1.053.966 2.485.707 4.02-.311 1.639.19 3.192.569 4.607.173.915 0 1.915.173 2.795.328 1.208.638 2.485.949 3.762.259 1.035.086 1.967.362 2.967.362 1.363 1.311 3.227 1.449 3.848.104.621.087 2.295.259 3.364.19 1.053.449 2.278.518 2.951.086.69-.017.983.052 1.484.069.5.742 2.898.845 3.519.138.621.104.949.242 1.588.12.673.673 3.243.776 4.072.138.845.104 1.328.259 2.174.241 1.276.759 2.346 1.018 3.571.172.932.121 1.501.224 2.226.276 1.156.656 2.191.863 3.278.172.863.19 1.691.345 2.571.397 1.846.656 3.709 1.173 5.556.311 1.087.932 2.087 1.26 3.14.259.966.345 2.019.604 2.967.258.811.828 1.571 1.035 2.451.138.759.121 1.535.259 2.312.189.862.569 1.725.742 2.622.138.673.069 1.329.258 2.036.225.776.622 1.484.811 2.226.173.949.173 1.898.414 2.864.276 1.104.742 2.191 1.087 3.209.328.949.156 2.002.449 3.037.621 2.243 1.363 4.727 2.105 6.832.328 1.122.276 2.295.69 3.52.311.811.656 1.363 1.001 2.071.259.724.017 1.518.241 2.346.363 1.363.552 3.209 1.053 4.538.535 1.501 1.415 2.726 1.932 4.192.535 1.536.57 3.072 1.087 4.676.466 1.363 1.174 2.623 1.691 3.865.431 1.087.276 2.536.69 3.71.483 1.259 1.363 2.225 1.864 3.519.535 1.484.897 2.968 1.345 4.435.173.638.277 1.259.397 1.88.552 1.933 1.588 3.537 2.261 5.366.258.846.327 1.57.569 2.364.466 1.329 1.001 2.692 1.622 3.934.5 1.139 1.242 2.26 1.76 3.399.466 1.052.552 2.105 1 3.209.432 1.053.932 2.191 1.329 3.278.259.673.276 1.277.569 1.898 1.312 2.916 2.899 5.867 4.245 8.713.707 1.571 1.052 3.261 1.811 4.866.57 1.242 1.277 2.433 1.847 3.779.345.845.448 1.656.811 2.45.724 1.57 1.759 3.157 2.45 4.693.189.414.759 2.07.517 2.709-.034.086-.034.207-.155.258-.483.121-1.449-.707-2.002-1.259-1.88-1.795-2.174-5.263-3.468-7.626-.362-.691-.828-1.432-1.138-2.14-.19-.517-.294-1.001-.535-1.484-.811-1.535-1.829-2.916-2.537-4.537-.534-1.174-.603-2.502-1.104-3.606-2.122-4.59-4.589-8.99-6.625-13.596-.932-2.088-1.139-4.452-1.95-6.729-.5-1.346-1.311-2.433-1.881-3.71-.431-.983-.534-2.019-1-3.037-.587-1.294-1.432-2.519-1.933-3.951-.293-.914-.431-1.846-.776-2.743-.432-1.018-1.104-1.864-1.553-2.83-.638-1.449-.742-2.881-1.208-4.538-.276-.897-.638-1.811-.914-2.622-.225-.759-.328-1.553-.587-2.278-.621-1.742-1.656-3.261-2.312-5.038-.431-1.19-.328-2.709-.863-3.865-.414-.949-1.173-1.708-1.552-2.708-.432-1.053-.035-2.295-.38-3.52-.311-1.173-.794-2.26-1.173-3.382-.207-.707-.276-1.38-.466-2.053-.552-1.415-1.053-2.847-1.553-4.262-.276-.725-.276-1.397-.569-2.053-.397-.845-1.001-1.639-1.329-2.554-.362-1.397-.466-2.847-.794-4.192-.552-1.829-1.225-3.279-1.759-5.021-.104-.552-.104-1.087-.276-1.708-.432-1.553-.639-3.296-1.07-4.849-.173-.759-.138-1.397-.328-2.139-.431-1.467-.914-2.933-1.363-4.331-.242-.931-.276-1.846-.518-2.726-.707-2.295-1.363-5.003-2.036-7.212-.172-.656-.138-1.259-.327-1.984-.553-1.76-1.277-3.865-1.674-5.677-.19-1.052-.207-2.07-.431-3.036-.276-1.225-.708-2.399-.949-3.624-.087-.569 0-.983-.052-1.466-.104-.794-.173-1.57-.311-2.364-.811-3.192-2.036-7.091-2.726-10.266-.224-1.156-.259-2.312-.379-3.451-.138-.793-.19-1.725-.414-2.553-.259-.828-.622-1.691-.76-2.554-.172-1.363-.172-2.709-.379-4.02 0-.086-.052-.19-.069-.293-.276-1.639-1.087-4.952-1.277-6.281-.207-1.57-.397-3.192-.604-4.727-.034-1.018-.207-2.088-.328-3.158-.241-1.639-.621-3.071-.811-4.779-.12-1.122-.069-2.122-.207-3.088-.069-.604-.103-1.64-.88-1.64-.742 0-.638.88-.69 1.588-.103 1.691.224 3.916.363 4.969.224 1.95.069 3.865.258 5.849.138 1.121.483 2.226.604 3.278.276 1.881.466 3.796.708 5.59v.104c.069.845.172 1.674.327 2.467.018.086.018.173.052.242 0 .052 0 .086.017.121.018.051.018.069.035.138h.017c.069.379.138.741.242 1.104.19.707.121 1.294.328 2.036.569 2.174.431 4.538 1.052 6.642.863 3.158 1.311 6.66 2.226 9.766.224.915 0 1.829.259 2.812.241 1.001.5 1.95.742 2.951.241 1.173.069 2.398.396 3.606.276 1.104.604 2.226.898 3.278.345 1.294.379 2.623.724 4.02.414 1.398.88 2.933 1.139 4.366.276 1.621.449 3.45.759 5.176.259 1.414 1.035 3.123 1.38 4.675.104.518.052 1.036.138 1.553.19 1.122.535 2.209.76 3.279.12.5.086.948.241 1.483.501 2.036 1.156 4.607 1.795 6.643.155.552.224 1.139.362 1.725.414 1.45.845 2.519 1.018 3.296.138.673.207 1.484.397 2.226.31 1.104.638 2.07.845 3.036.173.759.293 1.432.501 2.192.241.914.603 1.759.983 2.657.621 1.829.69 3.778 1.346 5.573.397 1.052.897 2.087 1.242 3.209.293 1.035.362 2.295.673 3.468.638 1.76 1.311 3.778 1.95 5.556.759 2.122 1.225 4.417 1.932 6.418.311.811.242 1.587.518 2.45a253.113 253.113 0 0 0 1.932 6.263c.345 1.07.345 2.105.777 3.123.672 1.691 1.656 3.106 2.294 4.848.518 1.501.639 2.985 1.225 4.348.742 1.847 1.57 3.727 2.312 5.677.483 1.346.656 2.674 1.208 3.934.466 1.087 1.087 2.208 1.605 3.312.328.967.655 1.898.966 2.865.276.741 1.052 1.984 1.587 2.967.604 1.329.69 2.744 1.208 4.176.776 2.174 1.863 4.382 2.761 6.418.362.794.414 1.536.742 2.381.552 1.449 1.483 2.536 2.087 3.882.587 1.277.742 2.623 1.294 3.848.846 1.811 1.45 2.743 1.45 5.331-.018.242-.069.414-.345.518-.466.19-1.018-.639-1.346-.932-1.381-1.328-1.588-2.64-2.468-4.52-1.311-2.847-2.984-5.539-4.279-8.299-.69-1.45-.966-3.037-1.639-4.538-.414-.897-1.018-1.812-1.414-2.709-.604-1.311-.915-2.674-1.588-3.848-.949-1.708-1.725-3.778-2.502-5.693-.293-.725-.327-1.432-.638-2.14-.345-.759-.897-1.415-1.225-2.157-.483-1.156-.811-2.622-1.294-3.847-1.053-2.295-2.226-4.728-3.123-7.16-.811-2.226-1.19-4.366-2.001-6.643-.345-.932-.794-1.933-1.122-2.882-.259-.845-.276-1.587-.569-2.381-.742-2.036-1.691-4.21-2.588-6.159-.414-.984-.535-1.915-.915-2.951-.431-1.276-1.001-2.639-1.449-3.864-.604-1.64-.621-3.555-1.242-5.263-1.312-3.692-3.037-7.54-4.176-11.422-.207-.897-.138-1.812-.414-2.709a310.073 310.073 0 0 1-1.846-6.177c-.673-2.294-.604-4.71-1.311-6.953-.915-2.916-1.967-5.952-2.864-8.817-.259-.862-.139-1.777-.415-2.708-.603-2.209-1.38-4.832-2.122-6.885-.362-1.035-.362-2.156-.759-3.123-.466-1.19-1.656-.759-1.553.57.086 1.207.501 2.743.621 3.364.138.828.138 1.657.328 2.537.362 1.552.863 2.846 1.294 4.261.483 1.484.483 2.847.88 4.365.242.742.535 1.571.759 2.278.449 1.518.449 3.14.967 4.52.396 1.053.69 2.381 1.035 3.537.207.76.172 1.381.414 2.14.397 1.38.828 2.743 1.277 4.124.207.776.138 1.466.293 2.191.31 1.104.569 2.208.88 3.226.276.966.241 2.312.587 3.348.603 1.88 1.311 3.882 1.932 5.676.725 1.984.811 4.037 1.518 6.073 1.294 3.555 2.468 7.661 3.744 11.267.345.915.242 1.864.518 2.864.431 1.536.776 3.071 1.311 4.607.259.725.742 1.467 1.035 2.122.432.88.518 1.829.932 2.744.328.707.794 1.449 1.07 2.191.397 1.139.259 2.553.707 3.623.328.863.794 1.812 1.139 2.709.38.983.362 2.053.776 2.985.328.794.915 1.57 1.295 2.364.379.742.448 1.535.724 2.381.345.862.811 1.742 1.173 2.553.397.897.415 1.933.846 2.882.345.811.897 1.587 1.225 2.467.328.914.345 1.898.673 2.864.552 1.398 1.415 2.623 2.018 3.951.449.984.501 2.105.949 3.123.501 1.173 1.208 2.312 1.743 3.434.69 1.552 1.208 3.174 1.898 4.624 1.139 2.588 1.536 5.417 2.726 7.954.863 1.915 2.053 3.675 2.899 5.521.448 1.052.604 2.157 1.087 3.123.517 1.121 1.466 2.07 1.967 3.226.414 1.122.742 2.278 1.225 3.365.673 1.432 1.587 2.726 2.243 4.123.379.794.552 1.57.914 2.364.708 1.57 1.898 2.847 2.623 4.383.345 1 .724 2.001 1.069 3.036.777 1.639 2.002 3.037 2.813 4.693.552 1.225.949 2.502 1.673 3.624 1.105 1.742 1.829 2.881 2.916 4.658.708 1.139 1.657 2.813 2.226 4.055.569 1.242 1.518 2.26 2.071 3.468.569 1.19 1.294 2.484 1.932 3.606.725 1.277 1.449 2.191 2.26 3.399 1.277 1.95 2.088 4.037 3.365 6.021.88 1.381 1.898 2.778 2.864 4.107 2.605 3.571 6.315 9.904 7.885 12.043 1.328 1.725 2.415 3.796 3.64 5.59.915 1.432 2.088 2.813 3.106 4.124.845 1.07 1.501 2.243 2.312 3.382l.656.862c33.144 42.151 67.221 70.034 96.069 88.34l-.017.017c15.218 9.489 23.413 12.25 23.413 12.25 1.915.811.621 2.209-.379 2.83L88.497 509.131c-.535.362-1.846 1.328-1.312 2.398.397.811 2.123.362 2.589.207 137.323-48.19 236.946-87.822 297.852-116.722 61.751-29.297 82.49-46.068 80.23-54.419Z"/></g></svg>