<svg xmlns="http://www.w3.org/2000/svg" width="512pt" height="512pt" style="isolation:isolate" viewBox="0 0 512 512"><defs><clipPath id="a"><path d="M0 0h512v512H0z"/></clipPath></defs><g fill-rule="evenodd" clip-path="url(#a)"><path fill="#1B1D80" d="M500.859 197.1c-168.498 4.672-331.567 42.911-346.719 97.137-1.388 4.918-1.734 9.781-1.734 14.736 0 53.404 111.483 71.671 232.17 86.717 2.07.242 1.98-1.405 1.305-2.592-.474-.841-2.28-4.033-3.521-6.232-.484-.859-1.003-1.423-2.692-1.907-66.055-16.807-133.112-41.361-133.112-64.254 0-43.303 112.358-86.197 240.307-105.805 4.224-.813 6.24-1.606 9.077-3.859 3.549-2.828 11.357-9.207 14.659-11.843 2.153-1.79 1.388-2.354.575-2.336-3.43.069-6.86.138-10.317.242l.002-.004Z"/><path fill="#DF0011" d="M314.463 458.523c-87.529-21.935-174.272-95.395-160.607-163.453C173.825 195.771 307.365 99.582 474.02 54.381c3.758-1.113 5.145-3.595.328-3.595H246.894c-39.381 0-47.919 5.091-63.172 25.73-8.128 10.977-76.198 104.838-106.894 147.148-3.95 5.036-9.533 10.456-21.958 10.456H0c0 .018 0 .027.046.055 65.023 183.717 134.872 227.039 204.84 227.039h110.471c1.559 0 3.119-1.679-.894-2.691"/></g></svg>