<svg xmlns="http://www.w3.org/2000/svg" width="2000" height="2013.11" viewBox="0 0 2000 2013.11"><g fill="#3482fa"><path d="m999.58 310.66c-381.52 0-692 312.55-692 696.66s310.48 696.68 692 696.68 692.05-312.5 692.05-696.67-310.48-696.67-692.05-696.67m0 1295.71c-328.11 0-595-268.73-595-599s266.88-599.06 595-599.06 595 268.75 595 599.06-266.91 599-595 599"/><path d="M1316.26,964.12a321.14,321.14,0,0,0-62.49-151.55,30.15,30.15,0,0,0,2.48-2.13L1336,730.15a43.6,43.6,0,0,0,0-61.5,43,43,0,0,0-61.13,0l-79.68,80.26c-.77.79-1.37,1.68-2.18,2.52a316.44,316.44,0,0,0-150.5-62.93c0-1,.33-2,.33-3.13V571.87a43.23,43.23,0,1,0-86.46,0v113.5c0,1.08.28,2.08.37,3.13a316.65,316.65,0,0,0-150.58,62.93c-.72-.84-1.33-1.73-2.09-2.52l-79.73-80.26a43.05,43.05,0,0,0-61.18,0,43.65,43.65,0,0,0,0,61.5L743,810.44c.86.82,1.71,1.38,2.53,2.13A320.72,320.72,0,0,0,683,964.12c-1-.09-2.09-.32-3.08-.32l-112.82,0a43.53,43.53,0,0,0,0,87.06l112.75,0c1,0,2-.23,3.13-.33a320.61,320.61,0,0,0,62.48,151.58c-.81.73-1.67,1.29-2.53,2.11l-79.77,80.24a43.74,43.74,0,0,0,0,61.6,43,43,0,0,0,61.14,0l79.77-80.31c.77-.77,1.37-1.69,2.09-2.5a316.36,316.36,0,0,0,150.59,62.93c-.09,1-.37,2.08-.37,3.08v113.58a43.23,43.23,0,1,0,86.45,0V1329.21c0-1-.32-2-.32-3.08A316.13,316.13,0,0,0,1193,1263.2c.81.84,1.42,1.75,2.18,2.54l79.68,80.29a43,43,0,0,0,61.14,0,43.77,43.77,0,0,0,0-61.6l-79.72-80.24a26.58,26.58,0,0,0-2.53-2.13,321,321,0,0,0,62.48-151.55c1,.09,2.09.35,3.18.35h112.74a43.53,43.53,0,0,0,0-87.06H1319.41A27.32,27.32,0,0,0,1316.26,964.12ZM999.58,1231.73c-122.86,0-222.84-100.66-222.84-224.39s100-224.42,222.84-224.42,223,100.68,223,224.42S1122.53,1231.73,999.58,1231.73Z"/><path d="M1759.64,0H240.27C107.75,0,0,108.55,0,241.94V1771.13c0,133.45,107.78,242,240.27,242H1759.64c132.47,0,240.36-108.53,240.36-242V241.94C2000,108.55,1892.11,0,1759.64,0ZM1890.3,1771.13c0,72.55-58.68,131.61-130.66,131.61H240.27c-72.05,0-130.61-59-130.61-131.61V241.94c0-72.54,58.54-131.52,130.61-131.52H1759.64c72,0,130.66,59,130.66,131.52Z"/></g></svg>