<svg xmlns="http://www.w3.org/2000/svg" width="512pt" height="512pt" style="isolation:isolate" viewBox="0 0 512 512"><defs><clipPath id="a"><path d="M0 0h512v512H0z"/></clipPath></defs><g clip-path="url(#a)"><linearGradient id="b" x1=".991" x2=".339" y1="1.127" y2=".752" gradientTransform="matrix(490.811 0 0 245.638 0 256.346)" gradientUnits="userSpaceOnUse"><stop offset="18%" style="stop-color:#0052cc"/><stop offset="100%" style="stop-color:#2684ff"/></linearGradient><path fill="url(#b)" d="M18.567 385.584c-5.296 8.635-11.243 18.656-16.294 26.639-4.52 7.64-2.093 17.493 5.459 22.159l105.906 65.173a16.297 16.297 0 0 0 22.566-5.539c4.236-7.088 9.694-16.294 15.641-26.151 41.956-69.246 84.155-60.774 160.244-24.44l105.01 49.939a16.293 16.293 0 0 0 21.915-8.147l50.427-114.052c3.563-8.146-.062-17.644-8.146-21.345-22.159-10.427-66.232-31.201-105.906-50.346-142.729-69.328-264.032-64.847-356.822 86.11Z"/><linearGradient id="c" x1="0" x2=".961" y1=".5" y2=".777" gradientTransform="matrix(491.137 0 0 245.961 20.863 10.015)" gradientUnits="userSpaceOnUse"><stop offset="100%" style="stop-color:#0052cc"/><stop offset="100%" style="stop-color:#0153cd"/></linearGradient><path fill="url(#c)" d="M493.433 126.766c5.296-8.636 11.243-18.656 16.294-26.64 4.52-7.639 2.093-17.492-5.459-22.158L398.362 12.795a16.292 16.292 0 0 0-23.218 5.376c-4.236 7.088-9.694 16.294-15.641 26.151-41.955 69.246-84.155 60.774-160.244 24.44L94.575 19.068a16.293 16.293 0 0 0-21.915 8.146L22.233 141.267c-3.563 8.146.062 17.644 8.146 21.344 22.159 10.428 66.232 31.202 105.906 50.346 143.055 69.246 264.358 64.603 357.148-86.191Z"/></g></svg>