<svg fill="none" height="46" viewBox="0 0 46 46" width="46" xmlns="http://www.w3.org/2000/svg"><rect fill="#fcd846" height="46" rx="10" width="46"/><g fill="#262a3d"><path d="m33.245 13.6815c-2.2961-1.8607-5.1293-2.8906-7.994-2.8906-3.1834 0-6.2173 1.1801-8.5311 3.3392-2.3137 2.1592-3.7048 5.0849-3.8877 8.2408l-.0177.3315h1.4579l.0334-.2984c.4014-5.6817 5.2119-10.119 10.9433-10.119 2.5971 0 5.0112.8465 6.9728 2.4751l.118.0995 1.0389-1.0298z"/><path d="m31.7894 27.8206c-1.5248 2.0597-3.9724 3.306-6.536 3.306-4.4407 0-8.0609-3.5888-8.0609-7.9911 0-4.369 3.6202-7.9423 8.0609-7.9423 2.5813 0 5.0269 1.2288 6.536 3.3061l.1181.1502 1.0565-1.0474-.0846-.1171c-1.8101-2.36-4.659-3.7722-7.626-3.7722-5.2631 0-9.5522 4.2208-9.5522 9.4032 0 5.2176 4.2911 9.4696 9.5522 9.4696 2.967 0 5.8159-1.4122 7.626-3.7722l.0846-.1171-1.0565-1.0474z"/><path d="m34.9378 15.4271c-.2341-.2828-.4702-.5812-.7536-.864l-.118-.1171-1.0389 1.0299.1181.117c.2853.2828.5194.5657.7378.8465l.1181.1502 1.0388-1.0298z"/><path d="m32.2735 31.4597-.118.0995c-1.9774 1.6111-4.3738 2.4751-6.9728 2.4751-5.7314 0-10.5419-4.4529-10.9433-10.119l-.0177-.3648h-1.4756l.0177.3823c.2007 3.1559 1.576 6.0816 3.8878 8.2408 2.3138 2.1435 5.3457 3.3392 8.5311 3.3392 2.9158 0 5.7647-1.0299 7.9939-2.8906l.1338-.1171z"/><path d="m33.9837 29.7142-.1181.1502c-.2184.2828-.4525.5656-.7378.8465l-.118.117 1.0388 1.0298.1181-.117c.301-.2984.5371-.5812.7535-.864l.1004-.1171z"/><path d="m35.8274 31.8094c-2.5637 3.1558-6.418 4.9678-10.5753 4.9678-7.5926 0-13.7588-6.1147-13.7588-13.6396s6.1662-13.64159 13.7588-13.64159c4.1061 0 7.9605 1.80999 10.5753 4.96789l.118.1501 1.0389-1.0298-.1004-.117c-2.8843-3.48942-7.142-5.4672-11.6318-5.4672-8.415 0-15.2521 6.7779-15.2521 15.12 0 8.3422 6.8371 15.1201 15.2521 15.1201 4.5075 0 8.7494-1.9778 11.6476-5.4165l.1003-.117-1.0388-1.0298z"/></g></svg>