<svg xmlns="http://www.w3.org/2000/svg" width="512pt" height="512pt" style="isolation:isolate" viewBox="0 0 512 512"><defs><clipPath id="a"><path d="M0 0h512v512H0z"/></clipPath></defs><g clip-path="url(#a)"><circle cx="259.518" cy="252.482" r="252.482" fill="#05930C" vector-effect="non-scaling-stroke"/><path fill="#FFF" d="M84.516 71.011C14.582 133.329-15.102 229.243 7.403 320.17c22.504 90.927 93.5 161.923 184.427 184.427 90.927 22.505 186.841-7.179 249.159-77.113L84.516 71.011Z" opacity=".1"/><path fill="#FFF" d="M247.13 343.613a116.61 116.61 0 0 1-55.23 11.677 88.607 88.607 0 0 1-67.934-27.3 100.836 100.836 0 0 1-25.485-71.72 105.647 105.647 0 0 1 28.72-77.086 97.444 97.444 0 0 1 73.062-29.273 116.78 116.78 0 0 1 46.867 7.89v24.854a94.678 94.678 0 0 0-47.34-11.914 72.353 72.353 0 0 0-55.231 22.881 86.24 86.24 0 0 0-21.303 61.148 82.057 82.057 0 0 0 19.883 57.914 67.697 67.697 0 0 0 52.232 21.539 97.994 97.994 0 0 0 51.838-13.334l-.079 22.724Zm176.186-134.842-3.156 14.676h-36.295l-8.679 41.659h38.977l-3.708 14.676h-38.188l-12.23 55.23H342.6l11.914-55.23h-34.716l-11.677 55.23h-17.043l11.677-55.23h-36.61l2.762-14.676h36.768l8.442-41.58h-38.425l2.92-14.676h38.424l11.678-55.783h17.594l-11.677 55.783h34.953l11.914-55.783h17.043l-11.678 55.783 36.453-.079Zm-56.572 14.676h-35.032l-9.074 41.659h35.19l8.916-41.659Z"/></g></svg>