<svg id="Logo_icon" xmlns="http://www.w3.org/2000/svg" viewBox="0 0 425.2 425.2" width="2500" height="2500"><style>.st0{fill:#fff}.st1{fill:#c53831}.st2{opacity:.3;fill:#fff}</style><g id="black_red"><ellipse transform="rotate(-45.001 212.597 212.602)" class="st0" cx="212.6" cy="212.6" rx="212.6" ry="212.6"/><ellipse transform="rotate(-45.001 212.597 212.602)" class="st0" cx="212.6" cy="212.6" rx="212.6" ry="212.6"/><path class="st1" d="M192.1 294c-.1-.1-.1-.2-.2-.2l-.1.3c.1-.1.2-.1.3-.1z"/><path class="st1" d="M259.7 5.3l-15.3 65.1c5.2 6.2 10.3 12.3 15.7 18.7-2 7.4-3.9 14.9-5.9 22.3h-1.1l-10.2-34.8-1 4.3c1.1 3.9 2.2 7.7 3 11.7.1.2.2.3.3.5.1.1.1.3.1.4.1.2.1.1 0 0 .1.2 0 .1 0 0-.1-.1-.1-.2-.2-.3 0-.2-.1-.4-.1-.6-1.3-2.5-2.7-5-4-7.6l-1.8 7.8c.4.7.7 1.4 1.1 2.1 1.9 3.7 3.8 7.4 6.1 12-3.6-.8-6.8-1.5-10-2.2l-.5 2c3.8 1.1 7.7 2.1 11.7 3.3 1.6 1.9 3.5 4.1 5.4 6.3-.3.4-.5.9-.8 1.3-4.9-2.2-9.8-4.3-15.5-6.8 1.2 2.1 2.1 3.6 3.6 6.1-2.4-.4-4.5-.7-6.6-1l-.9 3.7c6.3.3 12.5.6 18.8.8.9 3.1 1.6 5.6 2.3 8.1.4 0 .7.1 1.1.1 2.1-12.2 4.2-24.5 6.4-37.3 7.3 1.8 14.2 3.5 20.8 5.1 4.5 8.1 3.2 17.7 8.8 24.9.2.2 1.1-.1 2.3-.3-.3-5.2-.6-10.3-.9-15.8 4.2-4.9 8.5-9.9 12.9-15.1 6.2-1.1 12.5-2.1 19-3.2.5.6 1.1 1.2 1.7 1.8l-7 9c-.7.8-1.2 1.8-1.5 2.7 3.4.8 6.3 3.2 7.6 6.3.9-.6 1.7-1.3 2.5-2.3l6.8-8.7c5.2 4.1 10.2 8.5 12.6 16.1-1.4 4.3-3.2 9.9-5.5 17.2 1.5 4.2-.4 9.2-5 13.6-3.9 3.7-7.4 7.9-11.5 12.3-4.2-3.2-8.3-6.4-12.6-9.7-2.9.6-6 1.1-9.9 1.9 1.5-1.6 2.5-2.8 3.6-4-.1-.3-.2-.6-.3-.8-5.4 1.5-10.8 3-17.1 4.8 1.6-3.2 2.8-5.6 4.1-8.1-4.4 2-5.3 2.8-9.4 9.1-2.4 3.7-4.8 7.4-7.7 11.7h-18.1c-.6 2.8-1.1 5-1.6 7.2.3.2.6.3.9.5 1.4-1.5 2.7-3 4.3-4.8 5.6-.4 11.3-.9 18.2-1.4 3.4-4 7.2-8.4 10.7-12.4 5.8.7 10.6 1.3 15.7 1.9 3.2 4.7 6.5 9.7 10 14.8-.9.7-1.6 1.3-2.6 2.1 1 1.3 2.1 2.6 3.1 3.9 1.8.9 3.9 1.4 5.3 2.8 4.7 4.8 9.2 9.9 13 14 1.1 10.8 2.1 20.7 3.2 31.1-2-.3-3.9-.6-5.7-.8.1.9.2 1.9.4 4-6.5-5-12.4-9.5-19.4-14.8 2.9.2 4.4.3 5.9.4.2-.3.3-.6.5-.8-3.7-2.3-7.4-4.6-11-6.8-.2-2.2-.4-4.1-.6-6-1.1 1.3-2.2 2.6-3.5 4.2-8.8-6.5-13.4-18-25-22.5-2.7 3.7-5.2 7.2-8.1 11.2-.5-1.4-.9-2.5-1.6-4.6-7.5 4.5-14.8 8.8-22.6 13.4-1-.2-2.3-.5-3.9-.9-4 2.3-8.2 4.7-12.5 7.2.1.2.2.3.3.5 2.7-.8 5.3-1.6 8-2.5.1-.1.2-.2.3-.2.1-.1.2-.3.3-.4-.1.2-.1.4-.1.5-.1 0-.3.1-.4.1-5.9 4.9-11.7 9.9-18 15.1-1.4-1.8-2.6-3.3-4.1-5.3-1.7 1-3.5 2-6.1 3.5l-.3 1.4c8 2.5 11.5 8.5 15.7 13.7 4.5 5.6 8.9 11.3 14 17.6-4.2.3-7.7.5-11.8.8 2.9 3.9 6.1 1.1 8.9 1.4 3.1.4 6.4.1 10.5.1 6.2 9.3 12.7 18.9 19.1 28.5l1.3 1.3c.7 1.1 1.4 2.2 2 3.3.1.1.2.1.3.2l.2.2-.3-.1c-.1-.1-.1-.2-.2-.3-1.1-.7-2.2-1.5-3.2-2.2-5.7-3.5-11.8-4.1-19.6-3.2 3.5 2.7 6.1 4.7 8.7 6.7-10-1.8-20.4-1.7-29.6-7-3.4-2-7-2.8-10.9-2.6-5.2.2-10.4 0-15.2 0-1-.9-2-1.7-3.1-2.5l-2.9 12.5c1.3-1.2 2.7-2.4 4.1-3.4 1.5-1.1 4.1-1.3 6.1-1.1 3.1.3 6.2 1.4 9.4 1.9 1.6.3 3.3 0 5.5 0-.9-1.7-1.4-2.6-2.1-3.8 1 0 1.6-.2 2.1 0 11.2 4.4 22.3 8.9 33.5 13.3 4.6 1.8 9.4 3.2 15.1 5.1-.8 5.2-1.8 11.1-2.9 17.7-26.4 1.5-52.7 3-78.9 4.4l-23.8 101.3c16.1 3.9 32.9 6 50.2 6 117.4 0 212.6-95.2 212.6-212.6-.2-101.2-70.9-185.9-165.7-207.3zm10.9 302.1c-.2-.1-.4-.2-.6-.2.3-4.3.5-8.5.8-12.7-2.5-3.7-4.9-7.2-7.3-10.7-.1-.1-.2-.1-.3-.2l-.2-.3.3.2c.1.1.1.2.2.3 4.4 2.3 8.9 4.5 13.2 6.9.6.3.7 1.7 1 2.6l.1-.1c-2.4 4.7-4.8 9.5-7.2 14.2zm107-176.7c1.7-5.6 3.1-10.2 4.8-15.6 2.9 5.1.3 13.6-4.8 15.6zm-2.1-20h4.4c-.6 4.6-1.2 9-1.8 13.6-1.4.1-2.3.1-4.2.2.5-5 1-9.3 1.6-13.8zm-4.5 5.1c.7 3.4.9 6.4-1 9.8-2.8-4.2-2.4-6.9 1-9.8zm-9.5 13.7c.4.1.8.1 1.3.2.5 1.9 1.1 3.9-3 4.9.7-2.2 1.2-3.7 1.7-5.1zm17.2 30.4c-5.1 12.7-10.3 25.4-15.4 38.1-2.8 6.9-5.5 13.7-8.4 20.9-1.3.6-3 1.2-4.9 2 .2 1.6.3 3.1.6 5.3-2 .7-4.1 1.4-7.1 2.4-1.6-8.4-3.2-16.2-4.3-24-.3-1.9 1.2-4 1.9-6.2 1.3.9 2.1 1.3 2.9 1.8.5-2.2.5-4.9 1.8-6.4 5.8-6.4 8.9-14.2 11.9-22.1 2.1-5.6 4.1-11.2 6.3-17.2 4.6.2 8.9.5 14 .7-2.7 4.3-4.9 7.8-7.1 11.2 2.5-2.2 5.2-4.3 7.8-6.5 0-.1.1-.2.1-.3l.1.1c0 .1-.1.1-.2.2zm.2-7c-4.6-.3-8.8-.5-13.2-.7-1.5-2-3.1-4.1-5-6.6 3.9-1.2 7.2-2.2 10.5-3.3-.1-.4-.2-.8-.3-1.3-3.5.6-7.1 1.1-11 1.8v-6.2c1.9.2 3.6.3 5.5.4.8-2.9 1.6-5.7 2.5-9.2 5.3 2.4 10.3 4.7 16.1 7.3-3.5 2.1-6.1 3.7-8.7 5.3.1.2.2.4.3.7 3.6-.9 7.1-1.8 11.8-2.9-3.2 5.5-5.9 10.1-8.5 14.7zm9-28.6c1.5.8 2.1 1.1 3.1 1.7-1.1 2.7-2 5.1-3.3 8.4-3-4.1-.5-6.6.2-10.1z"/><path class="st1" d="M234.8 163c-3.7-1.5-7.4-2.9-11.1-4.4l-.6 2.6 11.7 1.8zM244.8 156.8c-5.9-4-11.9-8.1-17.9-12.2l-1.1 4.6c4.4 2 8.8 4 13.2 5.9 1.9.8 3.9 1.1 5.8 1.7zM316.1 101.6c-.8-.2-1.6-.3-2.4-.3-6 0-10.9 4.9-10.9 10.9s4.9 10.9 10.9 10.9c.4 0 .8-.1 1.2-.1 1.1-.1 2.1-.4 3.1-.8 3.9-1.7 6.6-5.5 6.6-10 0-1.5-.3-2.9-.9-4.3-1.3-3.1-4.1-5.5-7.6-6.3zM315.8 124.9l9.2 20.6c.4.8 1.3 1.2 2.1.9.8-.4 1.1-1.3.7-2.1l-9-20.1c-.9.4-1.9.6-3 .7z"/><path d="M102.1 116.8c1.5-1.2 1.8-3.3.7-4.9-1.2-1.5-3.3-1.8-4.9-.7-1.5 1.2-1.8 3.3-.7 4.9 1.2 1.6 3.4 1.9 4.9.7z"/><path d="M179.9 318.3c-10.3.6-20.6 1.2-30.8 1.7-.1-.4-.2-.8-.3-1.1 1.8-1 3.6-2.1 6.6-3.8-3.2-.7-5.2-1.2-6.6-1.5-5.1 3.2-9.7 6-14.4 8.9 1.1 1.5 2.1 2.8 3 3.9.3 6.4.6 12.6.8 18.8.2 6.6 6.1 10.1 8.5 16.2-4.1.4-8 .8-12.3 1.3-4.7-3.7-9.6-7.5-14.3-11.5-1.3-1.1-2.1-2.9-2.6-4.5-1.8-5.5-3.3-11.2-5.1-16.7-2.3-7-3.4-14.3-8.2-20.4-2-2.5-2.4-6.3-3.6-9.4 1.4-1.8 2.6-3.3 4.5-5.7-4.8.9-8.6 2-12.4 2.4-3.7.4-7.4.1-12.5.1 4.6-3.6 8-6.2 11.7-9.1 8.3.7 16.6 1.4 26.3 2.2-4 1.5-6.8 2.5-9.6 3.5 0 .4.1.7.1 1.1 3.5.6 7 1.2 11.3 1.9 1 .6 2.6 1.6 4.3 2.7 9.9-.8 19.8-1.5 29.7-2.3 0-.4 0-.8-.1-1.2h-14.1v-.6c13.9-2.9 27.7-5.7 41.2-8.5 2.4 1.1 3.4 3.9 5 5.8l6-25.5c-6.9-5.7-13.6-11.2-20.3-16.8.1-.4.3-.8.4-1.1h8.8c0-.3.1-.7.1-1-4.1-.4-8.3-.8-13-1.3-.9-2.6-1.8-5.3-2.5-7.1 4.7-9.5 8.9-18.1 13.1-26.7-2.3 2.7-4.6 5.4-6.8 8.2-2.8 3.6-5.4 7.4-8.4 11.5V245c-9.9-7.4-19.3-14.6-29.3-22 5.9-8.7 11.5-17.2 16.7-25h27.1c3.7 0 7.6 1.1 11-1.5.4-.3 1.5.4 2.5.7 1-1.3 2-2.7 4.1-5.3-12.4 1-23.5 1.9-34.7 2.8-.1-.4-.3-.7-.4-1.1 2.3-1.3 4.6-2.8 7-4 7.4-3.9 14.8-8 22.3-11.7 4.2-2.1 8.7-3.5 12.3-4.9-1.7-.3-4.7-.8-9-1.6 8.8-4 16.4-7.5 23.9-10.9l1-4.1-1.5-.6c-1.7 1.2-3.1 2.2-4.6 3.3-2.5-6.3 1.5-10 4.6-14.2 1.3.6 2.5 1.1 3.8 1.7l1.3-5.7c-2.1-1.4-4.2-2.9-6.4-4.3 3.5-6 6.7-11.5 10.1-17.3.5 0 .9 0 1.4.1l1-4.3c-.2 0-.4-.1-.6-.1-.2-4-.4-7.5-.6-12-5.5-6.1-11.5-12.7-17.6-19.4.8-1.1 1.6-2.2 2.8-3.9-26 .7-51.1 1.4-77.2 2.1-2.5 3-5.4 6.5-8.5 9.9-.6.6-1.5 1.3-2.3 2 0 .1.1.1.1.2 1.1 2.6 2 5 2.8 7.3.8 2.1 2.2 5.1 2.4 7.2.3 2.4-2.4 7.2-6.1 8.4-1.6.5-3 .5-4.5 1.2-2.9 1.3-7 4.4-8.8 6.8-.9 1.2-1.2 2.8-2.2 4-2.3 2.9-7 3.9-9.1 3.2-2.2-.7-4.8-2.9-6.7-4.2-4.3-3.1-8.9-6.2-12.9-11.5-2.1-2.8-4.6-6.5-2.3-8.4l.4-.3c2.5-1.1 6.1-.3 8.5.2 2.5.5 5.3 1 7.8.4s5.4-2.8 7.9-4.7c2.7-2.1 5.1-3.8 6.3-6.3.1-.3.2-.6.4-.8-1.5-1-3.9-2.1-4.5-3.2-.7-1.2-1-1.8-1-3 0-.9-1.9-12.9-1.8-13.8.1-.5.8-2.2 1.1-2.7.4-.7 5.2-4.1 7.6-4.9.7 1.3 1.2 2.4 2 3.8 1.2-1.8 2.2-3.3 3.7-5.5 4.6-.4 9.7-.8 15.3-1.3-.2 1.7-.4 2.6-.5 3.8-2.9-.4-5.6-.7-8.2-1.1-.1.5-.2.9-.3 1.4 3.3 1 6.6 1.9 10.6 3 .2-2.7.4-4.8.6-7.3.9-.5 2.1-1.1 3.9-2-.2 2.6-.3 4.5-.4 6.2 1.6-.9 2.9-2.1 4.4-2.4 20-4 40-7.8 60.2-11.8.4.7.8 1.5 1.4 2.6 1.1-.2 2.2-.4 3.6-.7.1-1.5.2-2.8.3-4.9 2.5 1.7 4.7 3.1 7 4.6v8.6c.2 0 .4.1.6.1.4-1.6.7-3.3 1.1-4.9.3 0 .7-.1 1-.1 2 9.4 3.9 18.9 5.9 28.3.3 0 .6-.1.8-.1-1.1-10.2-2.1-20.3-3.2-30.5 0-.1-.1-.1-.1-.2l-.2-.1h.3v.2c6.6 8 11.4 17 16 26.1l1.8-7.9c-2.2-4.5-4.7-8.8-8.6-12.2-1-.9-1.7-2.1-3-3.6h10.3c.9 3 1.9 5.9 2.8 8.9L253.9 4c-13.3-2.6-27.2-4-41.3-4C95.2 0 0 95.2 0 212.6c0 98 66.3 180.5 156.6 205.1l23.3-99.4zm38.4-217.9c3 6 5.3 10.7 8 16.1-2.7 1.1-4.9 2.1-8 3.3v-19.4zm-11.4 37.9c.2.5.3 1 .4 1.4-2 1.6-3.9 3.2-6 4.7-.8.6-1.7.9-3 1.5-.9-2.7-1.6-5.1-2.6-8.3 4.3.3 7.8.5 11.2.7zm-20.5-42.7c2.1 1.1 3.8 2 6.5 3.4-3.2 1.4-5.1 2.2-8.3 3.6.7-2.8 1.2-4.7 1.8-7zm7.6 62.2c4.5 1.7 8.1 3 12.9 4.8-7.8 3.4-14.5 6.4-21.2 9.4l-1.1-1.1c3.1-4.3 6.1-8.6 9.4-13.1zm-39-1.7c4.1 3.4 7.6 6.3 11 9.1-.1.4-.2.7-.4 1.1-3.4-.8-6.8-1.6-10.6-2.6v-7.6zm22.6 17c2.4 0 4.7.5 7.1.7.1.4.1.8.2 1.2-5.3 1.6-10.6 3.3-16 4.8-1.3.3-2.9.2-4.1-.3-3.9-1.9-7.6-4.1-11.7-6.4 8.7 0 16.6-.1 24.5 0zM159.2 59.7c.1 0 .2-.1.3-.1l.1.1h-.4c-3.9 1.3-7.7 2.4-11.6 3.8-4.2 1.5-7.7.2-11-3.5l22.6-.3zM95 76.6c.4.1.9.3 1.3.4-1.1 3.1-.5 6.7-3.8 9 .8-3.2 1.7-6.3 2.5-9.4zm-2.8 11.8c.1 0 .1-.1.2-.1 0 .1 0 .2-.1.3l-.3.1.2-.3zm2.4 4c1.1 5 1.1 5-4.1 8.4-1-4.1 2.3-5.7 4.1-8.4zm-13.3-19c1.1-.6 2.4-1 4.5-1.9-.9 2.2-1.4 3.5-1.9 4.8h-7.3c2.2-1.3 3.4-2.2 4.7-2.9zm-5.5 220.9c-.5-.4-1-.7-1.5-1.1 2.8-6.8 5.6-13.6 8.8-21.3 2.5 2.8 4.4 5 6.6 7.5-4.8 5.1-9.3 10-13.9 14.9zm54.9-133.5c2.1-.9 4.2-1.7 6.8-2.8.3 1.9.5 3.2.9 5.3-2.9-.6-5.3-1-7.7-1.5v-1zm5.9 71.2c10.2 6.6 19.8 12.8 30.1 19.4-3.5 3.7-6.6 7-9.7 10.2.2.2.3.4.5.5 3.4-2.4 6.8-4.8 10.9-7.6 1.2 2.7 2.3 5.2 3.7 8.4-15.8 9.7-31.4 19.3-46.1 28.3-3.3-1.2-5.6-2.4-7.9-2.7-7.7-1.1-15.5-1.8-23.2-2.7-1.1-.1-2.3-.5-4.6-1.1 15.7-17.8 30.8-35 46.3-52.7zm-18.8-14.4c-2.9 2.1-5 3.7-8 5.9-.1-2.7-.2-4.5-.4-7.2 3.1.5 5.2.8 8.4 1.3zm-3 25c0-.1.1-.1.1-.2h.4c.2-.1.1-.1 0 0 .1 0 .2 0 0 0-.1 0-.2.1-.3.2-.1-.1-.2-.1-.2 0-.3.6-.4 1.4-.9 1.7-12.2 9.3-24.4 18.6-36.6 27.8-.6.4-1.3.7-2.8 1.4 1.8-6.2 3.3-11.7 5-17.6 11.6-4.4 23.5-8.9 35.3-13.3zM75 100.5v-.1h.3-.2s0 .1-.1.1c-.5 1.7-1 3.4-1.7 6-2.5-4.1-.1-4.9 1.7-6zm-9.8-6.6c.2 1.6.3 2.9.5 4.7-3.6-.3-6.9-.5-10.1-.7-.1-.4-.2-.8-.2-1.1 3-1 6.2-1.9 9.8-2.9zm16.3 92.8c2.7 4.4 4.9 8.1 7.9 13-15.6-.6-29.9-1.2-44.2-1.8-.1-.3-.2-.6-.2-.9 11.9-3.4 23.9-6.8 36.5-10.3zm-37.3 42.5c7-5.2 13.9-10.4 20.9-15.7 4.3 2.4 8.1 4.5 12.1 6.7-3.6 2.5-25.5 8.4-33 9-.1 0-.1.1-.2.1l-.1-.1h.3zm20.5 58.9l-.2.3-.1.1c-.5 3.2-1 6.4-1.8 10.9-1.9-2.5-3.1-4.1-4.8-6.4 1.8-1.2 4.2-2.8 6.6-4.5v-.2l.3-.2zM14 247.2v-6.6c.3-.2.6-.3 1-.5 1.2 2 2.4 4 4.3 7-2.5.1-3.8.1-5.3.1zm26.9 68.2c6.3-2 12-3.8 17.7-5.7.2.4.4.7.7 1.1-6.9 4.2-13.7 8.4-20.6 12.6.7-2.6 1.5-5.3 2.2-8zM70.5 339l-.8-.8c.9-2.2 1.8-4.4 2.8-6.7 5.1-2.4 10.1-4.9 15.2-7.3.2.2.4.5.6.8-5.9 4.6-11.9 9.3-17.8 14zm28.4-27.1c-19.2 11.2-29.7 12.2-49 23.3-1.2.7-2.5 1.1-3.8 1.6.4-1 .6-2.1 1.3-2.8 5.8-7 3.1-3.8 9-10.8 5.1-6 10.4-11.9 15.6-17.8.8-.9 1.9-1.8 3-2 7.4-1.6 14.8-2.9 22.5-4.4 1.5 3.8 2.8 7.4 4.2 11-1 .7-1.9 1.4-2.8 1.9z"/><path d="M98.5 120.9c-.6-.8-1.8-1-2.6-.4s-1 1.8-.4 2.6 1.8 1 2.6.4c.9-.6 1-1.8.4-2.6zM109.5 101.8c-1.9 1.4-2.2 4.1-.8 5.9 1.4 1.9 4.1 2.2 5.9.8 1.9-1.4 2.2-4.1.8-5.9-1.4-1.8-4.1-2.2-5.9-.8zM119.9 110c1.3 1.6 3.6 2 5.2.7s2-3.6.7-5.2c-1.2-1.6-3.6-2-5.2-.7-1.7 1.2-2 3.6-.7 5.2zM95.2 125.8c-.8.6-1 1.8-.4 2.6s1.8 1 2.6.4 1-1.8.3-2.6c-.5-.9-1.7-1-2.5-.4zM102.7 129.4c.8-.6 1-1.8.4-2.6s-1.8-1-2.6-.4-1 1.8-.4 2.6c.6.9 1.8 1.1 2.6.4zM103.7 121.6c-.6-.8-1.8-1-2.6-.4s-1 1.8-.4 2.6 1.8 1 2.6.4c.9-.6 1-1.8.4-2.6z"/><g><path class="st2" d="M412.3 169.7c-.5-2.3-1.1-4.7-1.7-7C390.8 85.9 330 30.5 257.7 14l-13.3 56.4c5.2 6.2 10.3 12.3 15.7 18.7-2 7.4-3.9 14.9-5.9 22.3h-1.1l-10.2-34.8-1 4.3c1.1 3.9 2.2 7.7 3 11.7.1.2.2.3.3.5.1.1.1.3.1.4.1.2.1.1 0 0 .1.2 0 .1 0 0-.1-.1-.1-.2-.2-.3 0-.2-.1-.4-.1-.6-1.3-2.5-2.7-5-4-7.6l-1.8 7.8c.4.7.7 1.4 1.1 2.1 1.9 3.7 3.8 7.4 6.1 12-3.6-.8-6.8-1.5-10-2.2l-.5 2c3.8 1.1 7.7 2.1 11.7 3.3 1.6 1.9 3.5 4.1 5.4 6.3-.3.4-.5.9-.8 1.3-4.9-2.2-9.8-4.3-15.5-6.8 1.2 2.1 2.1 3.6 3.6 6.1-2.4-.4-4.5-.7-6.6-1l-.9 3.7c6.3.3 12.5.6 18.8.8.9 3.1 1.6 5.6 2.3 8.1.4 0 .7.1 1.1.1 2.1-12.2 4.2-24.5 6.4-37.3 7.3 1.8 14.2 3.5 20.8 5.1 4.5 8.1 3.2 17.7 8.8 24.9.2.2 1.1-.1 2.3-.3-.3-5.2-.6-10.3-.9-15.8 4.2-4.9 8.5-9.9 12.9-15.1 6.2-1.1 12.5-2.1 19-3.2.5.6 1.1 1.2 1.7 1.8l-7 9c-.7.8-1.2 1.8-1.5 2.7 3.4.8 6.3 3.2 7.6 6.3.9-.6 1.7-1.3 2.5-2.3l6.8-8.7c5.2 4.1 10.2 8.5 12.6 16.1-1.4 4.3-3.2 9.9-5.5 17.2 1.5 4.2-.4 9.2-5 13.6-3.9 3.7-7.4 7.9-11.5 12.3-4.2-3.2-8.3-6.4-12.6-9.7-2.9.6-6 1.1-9.9 1.9 1.5-1.6 2.5-2.8 3.6-4-.1-.3-.2-.6-.3-.8-5.4 1.5-10.8 3-17.1 4.8 1.6-3.2 2.8-5.6 4.1-8.1-4.4 2-5.3 2.8-9.4 9.1-2.4 3.7-4.8 7.4-7.7 11.7h-18.1c-.6 2.8-1.1 5-1.6 7.2.3.2.6.3.9.5 1.4-1.5 2.7-3 4.3-4.8 5.6-.4 11.3-.9 18.2-1.4 3.4-4 7.2-8.4 10.7-12.4 5.8.7 10.6 1.3 15.7 1.9 3.2 4.7 6.5 9.7 10 14.8-.9.7-1.6 1.3-2.6 2.1 1 1.3 2.1 2.6 3.1 3.9 1.8.9 3.9 1.4 5.3 2.8 4.7 4.8 9.2 9.9 13 14 .1.5.1.9.1 1.4l17.2-4.4c2.4-4.3 4.2-9 5.9-13.6 2.1-5.6 4.1-11.2 6.3-17.2 4.6.2 8.9.5 14 .7-2.7 4.3-4.9 7.8-7.1 11.2 2.6-2.2 5.3-4.3 7.9-6.5 0-.1.1-.2.1-.3l.1.1-.2.2c-2.8 6.9-5.6 13.7-8.3 20.6l41.7-10.9zm-24.4-45.4c1.5.8 2.1 1.1 3.1 1.7-1.1 2.7-2 5.1-3.3 8.4-3-4.1-.5-6.6.2-10.1zm-10.3 6.4c1.7-5.6 3.1-10.2 4.8-15.6 2.9 5.1.3 13.6-4.8 15.6zm-2.1-20h4.4c-.6 4.6-1.2 9-1.8 13.6-1.4.1-2.3.1-4.2.2.5-5 1-9.3 1.6-13.8zm-4.5 5.1c.7 3.4.9 6.4-1 9.8-2.8-4.2-2.4-6.9 1-9.8zm-9.5 13.7c.4.1.8.1 1.3.2.5 1.9 1.1 3.9-3 4.9.7-2.2 1.2-3.7 1.7-5.1zm17.4 23.4c-4.6-.3-8.8-.5-13.2-.7-1.5-2-3.1-4.1-5-6.6 3.9-1.2 7.2-2.2 10.5-3.3-.1-.4-.2-.8-.3-1.3-3.5.6-7.1 1.1-11 1.8v-6.2c1.9.2 3.6.3 5.5.4.8-2.9 1.6-5.7 2.5-9.2 5.3 2.4 10.3 4.7 16.1 7.3-3.5 2.1-6.1 3.7-8.7 5.3.1.2.2.4.3.7 3.6-.9 7.1-1.8 11.8-2.9-3.2 5.5-5.9 10.1-8.5 14.7zM152.3 236.6c-6-4.5-12-9.1-18.2-13.7 5.9-8.7 11.5-17.2 16.7-25h27.1c3.7 0 7.6 1.1 11-1.5.4-.3 1.5.4 2.5.7 1-1.3 2-2.7 4.1-5.3-12.4 1-23.5 1.9-34.7 2.8-.1-.4-.3-.7-.4-1.1 2.3-1.3 4.6-2.8 7-4 7.4-3.9 14.8-8 22.3-11.7 4.2-2.1 8.7-3.5 12.3-4.9-1.7-.3-4.7-.8-9-1.6 8.8-4 16.4-7.5 23.9-10.9l1-4.1-1.5-.6c-1.7 1.2-3.1 2.2-4.6 3.3-2.5-6.3 1.5-10 4.6-14.2 1.3.6 2.5 1.1 3.8 1.7l1.3-5.7c-2.1-1.4-4.2-2.9-6.4-4.3 3.5-6 6.7-11.5 10.1-17.3.5 0 .9 0 1.4.1l1-4.3c-.2 0-.4-.1-.6-.1-.2-4-.4-7.5-.6-12-5.5-6.1-11.5-12.7-17.6-19.4.8-1.1 1.6-2.2 2.8-3.9-26 .7-51.1 1.4-77.2 2.1-2.5 3-5.4 6.5-8.5 9.9-.6.6-1.5 1.3-2.3 2 0 .1.1.1.1.2 1.1 2.6 2 5 2.8 7.3.8 2.1 2.2 5.1 2.4 7.2.3 2.4-2.4 7.2-6.1 8.4-1.6.5-3 .5-4.5 1.2-2.9 1.3-7 4.4-8.8 6.8-.9 1.2-1.2 2.8-2.2 4-2.3 2.9-7 3.9-9.1 3.2-2.2-.7-4.8-2.9-6.7-4.2-4.3-3.1-8.9-6.2-12.9-11.5-2.1-2.8-4.6-6.5-2.3-8.4l.4-.3c2.5-1.1 6.1-.3 8.5.2 2.5.5 5.3 1 7.8.4s5.4-2.8 7.9-4.7c2.7-2.1 5.1-3.8 6.3-6.3.1-.3.2-.6.4-.8-1.5-1-3.9-2.1-4.5-3.2-.7-1.2-1-1.8-1-3 0-.9-1.9-12.9-1.8-13.8.1-.5.8-2.2 1.1-2.7.4-.7 5.2-4.1 7.6-4.9.7 1.3 1.2 2.4 2 3.8 1.2-1.8 2.2-3.3 3.7-5.5 4.6-.4 9.7-.8 15.3-1.3-.2 1.7-.4 2.6-.5 3.8-2.9-.4-5.6-.7-8.2-1.1-.1.5-.2.9-.3 1.4 3.3 1 6.6 1.9 10.6 3 .2-2.7.4-4.8.6-7.3.9-.5 2.1-1.1 3.9-2-.2 2.6-.3 4.5-.4 6.2 1.6-.9 2.9-2.1 4.4-2.4 20-4 40-7.8 60.2-11.8.4.7.8 1.5 1.4 2.6 1.1-.2 2.2-.4 3.6-.7.1-1.5.2-2.8.3-4.9 2.5 1.7 4.7 3.1 7 4.6v8.6c.2 0 .4.1.6.1.4-1.6.7-3.3 1.1-4.9.3 0 .7-.1 1-.1 2 9.4 3.9 18.9 5.9 28.3.3 0 .6-.1.8-.1-1.1-10.2-2.1-20.3-3.2-30.5 0-.1-.1-.1-.1-.2l-.2-.1h.3v.2c6.6 8 11.4 17 16 26.1l1.8-7.9c-2.2-4.5-4.7-8.8-8.6-12.2-1-.9-1.7-2.1-3-3.6h10.3c.9 3 1.9 5.9 2.8 8.9l13.4-57c-29.1-5.8-60-5.2-90.7 2.7C51.6 43.6-14.3 155.3 13.9 264.8c.6 2.3 1.3 4.7 1.9 7l67.8-17.4c10.4-3.9 20.8-7.8 31.2-11.8 0-.1.1-.1.1-.2h.4c.2-.1.1-.1 0 0 .1 0 .2 0 0 0-.1 0-.2.1-.3.2-.1 0-.1 0-.2.1-.3.6-.4 1.4-.9 1.7-1.5 1.1-3 2.2-4.4 3.4l17.3-4.5c3.3-3.7 6.6-7.5 9.9-11.3 3.3 2.1 6.5 4.2 9.7 6.2l5.9-1.6zm66-136.2c3 6 5.3 10.7 8 16.1-2.7 1.1-4.9 2.1-8 3.3v-19.4zm-11.4 37.9c.2.5.3 1 .4 1.4-2 1.6-3.9 3.2-6 4.7-.8.6-1.7.9-3 1.5-.9-2.7-1.6-5.1-2.6-8.3 4.3.3 7.8.5 11.2.7zm-20.5-42.7c2.1 1.1 3.8 2 6.5 3.4-3.2 1.4-5.1 2.2-8.3 3.6.7-2.8 1.2-4.7 1.8-7zm7.6 62.2c4.5 1.7 8.1 3 12.9 4.8-7.8 3.4-14.5 6.4-21.2 9.4l-1.1-1.1c3.1-4.3 6.1-8.6 9.4-13.1zm-39-1.7c4.1 3.4 7.6 6.3 11 9.1-.1.4-.2.7-.4 1.1-3.4-.8-6.8-1.6-10.6-2.6v-7.6zm22.6 17c2.4 0 4.7.5 7.1.7.1.4.1.8.2 1.2-5.3 1.6-10.6 3.3-16 4.8-1.3.3-2.9.2-4.1-.3-3.9-1.9-7.6-4.1-11.7-6.4 8.7 0 16.6-.1 24.5 0zM159.2 59.7c.1 0 .2-.1.3-.1l.1.1h-.4c-3.9 1.3-7.7 2.4-11.6 3.8-4.2 1.5-7.7.2-11-3.5l22.6-.3zM95 76.6c.4.1.9.3 1.3.4-1.1 3.1-.5 6.7-3.8 9 .8-3.2 1.7-6.3 2.5-9.4zm-2.8 11.8c.1 0 .1-.1.2-.1 0 .1 0 .2-.1.3l-.3.1.2-.3zm2.4 4c1.1 5 1.1 5-4.1 8.4-1-4.1 2.3-5.7 4.1-8.4zm-13.3-19c1.1-.6 2.4-1 4.5-1.9-.9 2.2-1.4 3.5-1.9 4.8h-7.3c2.2-1.3 3.4-2.2 4.7-2.9zM75 100.5v-.1h.3-.2s0 .1-.1.1c-.5 1.7-1 3.4-1.7 6-2.5-4.1-.1-4.9 1.7-6zm-9.8-6.6c.2 1.6.3 2.9.5 4.7-3.6-.3-6.9-.5-10.1-.7-.1-.4-.2-.8-.2-1.1 3-1 6.2-1.9 9.8-2.9zM14 247.2v-6.6c.3-.2.6-.3 1-.5 1.2 2 2.4 4 4.3 7-2.5.1-3.8.1-5.3.1zm30.2-18c-.1 0-.1.1-.2.1l-.1-.1h.3c7-5.2 13.9-10.4 20.9-15.7 4.3 2.4 8.1 4.5 12.1 6.7-3.6 2.5-25.5 8.4-33 9zm1-31.4c-.1-.3-.2-.6-.2-.9 12-3.3 23.9-6.7 36.5-10.2 2.7 4.4 4.9 8.1 7.9 13-15.6-.7-29.9-1.3-44.2-1.9zm64.6 25.7c-.1-2.7-.2-4.5-.4-7.2 3.1.5 5.2.8 8.4 1.3-2.9 2.2-5 3.7-8 5.9zm20.9-62.7c2.1-.9 4.2-1.7 6.8-2.8.3 1.9.5 3.2.9 5.3-2.9-.6-5.3-1-7.7-1.5v-1z"/><path class="st2" d="M119.9 110c1.3 1.6 3.6 2 5.2.7s2-3.6.7-5.2c-1.2-1.6-3.6-2-5.2-.7-1.7 1.2-2 3.6-.7 5.2zM98.5 120.9c-.6-.8-1.8-1-2.6-.4s-1 1.8-.4 2.6 1.8 1 2.6.4c.9-.6 1-1.8.4-2.6zM95.2 125.8c-.8.6-1 1.8-.4 2.6s1.8 1 2.6.4 1-1.8.3-2.6c-.5-.9-1.7-1-2.5-.4zM109.5 101.8c-1.9 1.4-2.2 4.1-.8 5.9 1.4 1.9 4.1 2.2 5.9.8 1.9-1.4 2.2-4.1.8-5.9-1.4-1.8-4.1-2.2-5.9-.8zM315.8 124.9l9.2 20.6c.4.8 1.3 1.2 2.1.9.8-.4 1.1-1.3.7-2.1l-9-20.1c-.9.4-1.9.6-3 .7zM316.1 101.6c-.8-.2-1.6-.3-2.4-.3-6 0-10.9 4.9-10.9 10.9s4.9 10.9 10.9 10.9c.4 0 .8-.1 1.2-.1 1.1-.1 2.1-.4 3.1-.8 3.9-1.7 6.6-5.5 6.6-10 0-1.5-.3-2.9-.9-4.3-1.3-3.1-4.1-5.5-7.6-6.3zM102.7 129.4c.8-.6 1-1.8.4-2.6s-1.8-1-2.6-.4-1 1.8-.4 2.6c.6.9 1.8 1.1 2.6.4zM234.8 163c-3.7-1.5-7.4-2.9-11.1-4.4l-.6 2.6 11.7 1.8zM305.6 197.2l2.3-.6c-.1-.7-.1-1.3-.2-2-.7.8-1.4 1.7-2.1 2.6zM102.1 116.8c1.5-1.2 1.8-3.3.7-4.9-1.2-1.5-3.3-1.8-4.9-.7-1.5 1.2-1.8 3.3-.7 4.9 1.2 1.6 3.4 1.9 4.9.7zM279.3 176.4c-2.7 3.7-5.2 7.2-8.1 11.2-.5-1.4-.9-2.5-1.6-4.6-7.5 4.5-14.8 8.8-22.6 13.4-1-.2-2.3-.5-3.9-.9-4 2.3-8.2 4.7-12.5 7.2.1.2.2.3.3.5 2.7-.8 5.3-1.6 8-2.5.1-.1.2-.2.3-.2.1-.1.2-.3.3-.4-.1.2-.1.4-.1.5-.1 0-.3.1-.4.1-5.9 4.9-11.7 9.9-18 15.1-1.4-1.8-2.6-3.3-4.1-5.3-1.7 1-3.5 2-6.1 3.5l-.3 1.4c3.2 1 5.7 2.5 7.8 4.4l84.8-21.8c-8.1-6.8-12.8-17.4-23.8-21.6zM171.8 221.2c-2.8 3.6-5.4 7.4-8.4 11.5v1.1l5.8-1.5c3.3-6.7 6.4-13 9.4-19.3-2.3 2.7-4.6 5.4-6.8 8.2zM103.7 121.6c-.6-.8-1.8-1-2.6-.4s-1 1.8-.4 2.6 1.8 1 2.6.4c.9-.6 1-1.8.4-2.6zM244.8 156.8c-5.9-4-11.9-8.1-17.9-12.2l-1.1 4.6c4.4 2 8.8 4 13.2 5.9 1.9.8 3.9 1.1 5.8 1.7z"/></g></g></svg>