<svg xmlns="http://www.w3.org/2000/svg" width="512pt" height="512pt" style="isolation:isolate" viewBox="0 0 512 512"><defs><clipPath id="a"><path d="M0 0h512v512H0z"/></clipPath></defs><g clip-path="url(#a)"><path fill="#EF001E" fill-rule="evenodd" d="M298.556 318.469h-94.739l7.563-32.243h60.904c20.898 0 31.049-18.112 16.122-28.462-14.53-10.151-24.083-18.311-38.613-28.661-29.258-20.898-15.524-69.263 33.637-69.661h89.366l-7.763 31.845h-59.909c-16.519-.199-20.102 17.913-9.354 24.481l38.413 28.462c31.647 24.083 13.136 74.239-35.627 74.239Zm108.871 173.358c-9.553 17.714-32.243 25.277-50.554 16.519-97.128-46.175-182.712-111.06-253.767-189.877h88.769l7.961-32.044h-56.127c-1.593 0-3.185 0-4.777-.199-8.359-1.195-13.335-4.578-16.122-8.957-2.786-4.379-3.582-9.155-2.985-13.136 0-.995 2.985-13.136 3.184-14.33v-.399l8.36-33.437c3.781-15.525 16.718-24.68 33.835-25.277h57.521l7.563-31.647H190.68l-49.758 18.71 4.777-18.71h-6.966c-15.923-.199-27.069 1.195-35.03 4.777-7.165 3.384-12.34 8.758-14.728 16.719l-22.889 93.944c-19.903-25.278-38.414-51.55-55.53-79.216-10.549-17.116-6.17-40.602 10.747-52.146C152.068 53.954 306.717 3.599 464.948.016c20.5-.597 37.816 15.525 39.608 35.826 3.383 41.2 3.383 82.4.398 123.6h-84.39l-80.012 158.231h58.516l9.355-21.098c.995-2.189 1.99-2.786 4.577-2.786h41.996c.796 0 2.588.199 2.588 2.388l.597 21.496h18.908c-16.321 60.506-39.807 119.022-69.662 174.154Zm49.56-226.301-1.991-64.686c0-2.189-1.99-2.388-2.985-.199l-29.457 65.482c-1.194 2.588-.398 4.976 1.791 4.777h29.656c2.389-.199 3.185-2.189 2.986-5.374Z"/></g></svg>