<svg xmlns="http://www.w3.org/2000/svg" viewBox="0 0 492 511.2" width="2406" height="2500"><path d="M230.7.5C250-.7 269.5.4 288.5 3.9c38.4 6.8 74.9 23.5 105.5 47.6 35.4 27.9 63.4 65.2 79.7 107.2 15.9 40.2 21.3 84.4 16.4 127.3-4.4 38.8-17.5 76.7-38.5 109.7-22 34.8-52.5 64.3-88.4 84.6-36 20.6-77.6 31-119 31.1-6.8-1.4-13.7-.4-20.5-1.5-34.4-2.6-68.1-13.8-97.9-31.2-50.6-29.7-90-77.8-109.9-133C5.9 318.3.8 289.2.1 260.1c-.1-8-.3-16.1.8-24.1 2.4-34.2 11.5-67.9 26.9-98.5 15.8-31.4 38-59.5 65.1-81.9 38.6-32.3 87.6-52 137.8-55.1m2.2 28.2c-41 2.6-81.1 17.4-113.9 42.1-30 22.3-54.1 52.2-69.9 86-22.2 47.4-27.4 102.2-15.4 153 7.8 33.3 23.2 64.7 44.6 91.3 29.5 36.6 70.7 64.1 116.5 75.4 43.1 10.8 89.6 7.6 130.7-9.2 37.2-15.1 70-40.9 93.8-73.2 21.8-29.5 36.5-64.1 42.3-100.2 6.5-40.2 2.8-82.2-11.6-120.4-18-48.4-52.8-90.5-97.6-116.4-24.2-14.1-51.2-23.4-79-26.9-13.3-2.4-27-1.6-40.5-1.5z"/><path d="M158.1 77.2c1.1-1.1 2.9-.4 4.3-.6 39.3.1 78.7-.1 118 .1 15.9.8 31.3 7.7 42.5 19 14.3 13.9 23.2 33.3 23.3 53.3h-56.1c-1.4-3.7-3-7.7-6.3-10.2-4-3.2-9.4-4.1-14.4-4.3h-56.6c.1 52.7 0 105.4 0 158.1-18.3.1-36.5 0-54.8 0 .1-71.8 0-143.6.1-215.4z"/><path d="M85.3 158.8c21.2-.1 42.3 0 63.5-.1v57.8c-2.9 0-5.7 0-8.6.1-.1 28.4 0 56.9 0 85.3 47.1.2 94.3-.3 141.4-.2.1 19.1.2 38.1 0 57.2-65.4 0-130.7.1-196.1 0-.2-40.2 0-80.5-.1-120.7.4-12.7-.2-25.3 0-38 .1-13.8.1-27.6-.1-41.4zM221.6 158.7c47.3 0 94.6-.1 141.8 0 14.8 1 29.3 7.1 40.1 17.3 14.4 13.3 24.4 32.2 24.8 52.1v53c1.2 20.5-5.5 42-20.9 56.1-8.2 8-18.3 13.9-28.9 18.3-7.6 2.4-15.7 3-23.7 3.3 0-18.9-.1-37.9 0-56.8 3.7-.1 8.1.7 11.2-2.1 4.9-4.1 6.3-10.9 7-16.9.1-14.9 0-29.8.1-44.7-.3-6-1.7-12.4-6.2-16.7-3.8-3.8-9.5-4.7-14.6-5H221.5c.2-19.3.2-38.6.1-57.9z"/><path d="M290.7 226.3c18.4-.6 36.9 0 55.3-.3.1 45.4 0 90.8 0 136.2-.4 15.2-3.6 31.1-13.3 43.3-6.8 10.1-17.1 17.1-28.2 21.8-4.9 1.9-9.6 4.6-14.9 5.2-10.6 2-21.5 1.8-32.2 2-33.1-.1-66.3.1-99.4-.1.1-22 0-44.1 0-66.1h54.7c.1 3.1.1 6.3 0 9.4 23.1-.5 46.2-.7 69.2-1.2 3.4-1.9 6-5.5 6.6-9.4.1-13 .8-26 .5-39 .9-33.9.9-67.9 1.7-101.8z"/></svg>