<svg xmlns="http://www.w3.org/2000/svg" width="512pt" height="512pt" style="isolation:isolate" viewBox="0 0 512 512"><defs><clipPath id="a"><path d="M0 0h512v512H0z"/></clipPath></defs><g clip-path="url(#a)"><path d="M235.851.121c-1.196.126-5.037.567-8.5.881-49.239 5.164-97.722 26.005-137.264 59.125-7.304 6.044-23.927 22.667-29.971 29.971-32.742 39.101-51.883 82.988-58.935 134.934-1.575 11.523-1.575 50.435 0 61.957 7.052 51.947 26.193 95.833 58.935 134.935 6.044 7.303 22.667 23.926 29.971 29.971 39.101 32.742 82.988 51.883 134.934 58.935 11.523 1.574 50.435 1.574 61.958 0 51.946-7.052 95.833-26.193 134.934-58.935 7.304-6.045 23.927-22.668 29.971-29.971 32.742-39.102 51.883-82.988 58.935-134.935 1.575-11.522 1.575-50.434 0-61.957-7.052-51.946-26.193-95.833-58.935-134.934-6.044-7.304-22.667-23.927-29.971-29.971-38.976-32.616-83.303-52.01-134.556-58.873-5.541-.755-13.601-1.07-28.524-1.196-11.396-.126-21.785-.063-22.982.063Zm3.148 27.201c0 7.367.504 23.36 1.197 38.534.378 7.43.818 18.071 1.007 23.612.693 19.645 2.771 71.214 3.086 75.81l.314 4.597-2.833-.315c-1.574-.126-3.022-.504-3.274-.693-.189-.252-.63-4.596-.882-9.696-1.133-22.416-4.848-109.371-5.226-122.09l-.378-13.978 1.763-.252c.945-.126 2.519-.315 3.526-.378l1.7-.062v4.911Zm60.258-1.511c.063.063.252 19.078.441 42.249.252 23.234.566 44.076.755 46.342.189 2.33.126 4.345-.189 4.471-.251.189-1.826.189-3.4 0l-2.896-.252-.441-18.323c-.252-10.137-.567-21.345-.692-24.997-.504-11.145-.945-48.987-.567-49.931.252-.693.944-.756 3.589-.315 1.826.378 3.337.693 3.4.756ZM153.619 46.904c.378.567 3.337 35.26 6.989 80.658 1.196 15.427 2.393 29.531 2.582 31.294.314 3.211.251 3.337-1.763 4.596-1.134.693-2.267 1.259-2.519 1.259-.189 0-.567-1.637-.756-3.652-.881-8.185-4.281-47.727-6.674-76.313-1.385-16.812-2.644-31.86-2.833-33.498-.315-2.77-.252-3.022 1.385-3.903 2.015-1.071 3.148-1.26 3.589-.441ZM326.962 59.56c1.763.63 1.951.944 2.329 4.533.63 6.297.441 36.394-.252 36.394-1.826 0-5.603-2.141-5.918-3.337-.189-.756-.378-9.697-.378-19.834 0-20.464-.252-19.267 4.219-17.756Zm-116.297 2.959c0 1.7.441 11.082.945 20.968.503 9.885 1.07 22.415 1.322 27.83.441 10.956.567 10.578-3.652 10.83-2.078.063-2.078.063-2.204-3.085-.126-1.763-.441-7.241-.818-12.278-.315-5.038-1.071-15.931-1.574-24.242-.504-8.311-1.134-16.56-1.323-18.323-.378-3.148-.315-3.274 1.385-3.904 1.008-.377 2.771-.692 3.904-.692 2.015-.063 2.015-.063 2.015 2.896Zm174.665 8.626 2.141.882.441 8.437c.189 4.597.315 14.545.189 22.038l-.189 13.726-2.645-1.322-2.644-1.259-.189-20.905c-.126-11.522-.063-21.282.063-21.722.252-.945.252-.945 2.833.125Zm-114.974 8.249c.378.378 1.259 30.916 1.322 46.405l.063 9.319-2.959-.441c-1.7-.189-3.085-.378-3.148-.441-.189-.126-2.078-46.783-2.078-51.316v-4.66l3.211.378c1.826.252 3.4.567 3.589.756Zm145.008 4.47c.756.882.882 14.671 1.071 90.733.189 87.332.189 89.599-.945 89.599-.692 0-1.637-.378-2.203-.818-.945-.693-1.071-8.312-1.386-82.925-.251-45.209-.566-86.262-.755-91.237l-.378-9.067 1.826 1.323c1.07.755 2.267 1.826 2.77 2.392Zm-56.479 12.908c.315.252.629 3.841.692 7.934.315 13.915.378 99.233.063 99.485-.126.125-1.259-.189-2.518-.693l-2.267-.945V95.45l1.763.378c.945.252 1.952.629 2.267.944Zm-173.784 3.526c.189 1.7.504 5.541.693 8.689.189 3.086.63 10.138 1.007 15.616.756 11.082.63 11.774-2.959 11.774-1.889 0-2.141-.189-2.393-2.078-.629-3.715-2.833-34.693-2.518-35.197.315-.441 3.589-1.574 5.1-1.7.378-.063.882 1.259 1.07 2.896ZM80.957 116.354c.693 6.675 2.078 20.653 3.086 31.042 1.07 10.389 1.951 19.204 1.951 19.582 0 .756-4.848 3.148-5.352 2.645-.314-.315-6.611-56.039-6.611-58.558 0-1.511 4.848-7.87 5.478-7.178.189.126.819 5.73 1.448 12.467Zm246.886 6.612 1.826 1.07.063 13.6c.063 7.43.189 15.742.189 18.449.126 5.667-.567 6.612-3.967 5.415l-1.952-.692v-5.415c0-3.023-.189-11.775-.441-19.52l-.377-13.978h1.448c.755 0 2.204.504 3.211 1.071Zm-219.244 24.43c1.133 12.089 2.959 32.49 4.156 45.335l2.14 23.297-2.455 2.456-2.393 2.455-.441-4.974c-.252-2.77-1.511-15.615-2.833-28.586-1.322-12.971-3.211-31.797-4.156-41.809l-1.763-18.134 2.456-2.267c2.204-2.077 2.455-2.14 2.896-1.007.252.63 1.323 11.082 2.393 23.234Zm-47.161 7.619c1.385 12.404 5.037 45.398 8.186 73.291 3.148 27.894 6.107 54.78 6.674 59.817.504 5.037 1.385 12.656 1.889 17 .881 7.367.881 7.871-.126 8.627-1.511 1.133-2.141 1.007-2.141-.315 0-.567-.567-5.352-1.259-10.515-1.134-8.627-3.023-23.234-7.241-56.039a4881 4881 0 0 1-3.778-29.279c-1.259-9.508-3.085-23.675-4.093-31.482a7612.768 7612.768 0 0 1-3.778-29.783c-1.133-8.563-1.826-16.182-1.637-17 .441-1.701 4.156-7.619 4.534-7.241.126.188 1.385 10.452 2.77 22.919Zm-19.267 27.138c.944 7.556 2.707 21.345 3.904 30.727 1.196 9.318 2.707 20.967 3.4 25.815l1.196 8.815-1.322 1.134c-.756.629-1.511.881-1.763.629-.252-.251-.756-2.77-1.134-5.54-.377-2.771-2.707-18.953-5.226-35.891l-4.47-30.852 1.448-4.282c.756-2.33 1.574-4.219 1.763-4.219.252 0 1.196 6.171 2.204 13.664Zm345.678-8.249c.881.882 1.007 4.786 1.007 33.687v32.678h-1.763c-3.841 0-3.778.945-4.03-34.819l-.188-32.553h2.014c1.071 0 2.456.441 2.96 1.007Zm-137.831 11.271c14.23 2.141 26.635 6.108 38.913 12.404 7.933 4.093 11.711 6.926 20.526 15.364 13.097 12.53 21.157 23.486 28.712 38.975 11.019 22.541 15.301 42.501 20.716 96.022 2.455 23.989 5.667 67.498 6.359 85.317.189 5.163.63 13.664 1.008 18.89.692 11.082 1.511 9.57-8.249 14.293-13.537 6.548-26.571 11.082-43.76 15.3-21.031 5.163-34.631 6.801-55.41 6.863l-15.111.063.126-7.241c0-3.966.378-13.222.755-20.463 1.889-35.072 1.511-79.336-.944-103.892-1.385-14.105-4.093-31.231-5.604-35.009-.315-.819 1.133-1.511 7.367-3.652 11.397-3.967 21.282-8.941 22.793-11.397 2.708-4.659-2.141-11.333-8.311-11.333-1.071 0-4.282 1.133-7.241 2.455-14.104 6.486-42.376 14.104-58.684 15.805-11.27 1.196-28.775.503-40.927-1.701-6.611-1.196-18.449-5.666-28.334-10.767-11.397-5.918-18.386-13.789-20.464-23.108-1.133-5.037-.818-15.111.63-20.778 1.574-6.234 5.982-15.301 10.011-20.59 17.945-23.612 54.969-44.075 92.937-51.253 12.089-2.267 29.216-2.519 42.186-.567Zm194.247 1.952c2.267.944 2.519 1.196 2.519 3.337.126 17.19-.252 56.48-.567 58.117-.063.567-3.337.629-4.722.126-.882-.315-1.008-3.715-1.008-31.483 0-19.897.252-31.104.63-31.104.315 0 1.763.44 3.148 1.007Zm27.516 34.568 2.267.944-.441 52.135c-.504 66.428-.567 68.38-2.959 74.11-3.904 9.382-3.715 11.271-3.337-29.908.126-20.59.44-41.431.566-46.28.126-4.848.252-18.511.315-30.412 0-14.356.189-21.534.63-21.534.378 0 1.7.441 2.959.945ZM93.11 237.373c.377 5.1.251 5.604-1.575 9.634l-2.014 4.281-.756-6.296c-1.196-10.075-1.196-10.515 1.196-12.026 1.071-.756 2.204-1.26 2.393-1.134.189.126.567 2.645.756 5.541Zm-38.913 37.968c.567 5.163 4.974 39.416 7.241 56.228 3.4 26.004 3.652 29.719 2.141 28.145-.189-.189-1.637-8.941-3.148-19.456-9.823-67.876-9.76-67.436-8.941-67.939 1.7-1.134 2.266-.504 2.707 3.022Zm45.335 28.838c.378 1.574 2.204 18.638 2.204 20.715 0 1.763-2.267 3.401-3.274 2.393-.315-.315-1.134-5.667-1.763-11.837-.693-6.234-1.386-12.719-1.575-14.419l-.377-3.149 2.203 2.519c1.26 1.385 2.393 3.085 2.582 3.778Zm50.813 23.738c.692.629 1.133 3.148 1.7 9.948.944 12.278 1.07 11.334-1.511 11.334-2.645 0-2.582.189-3.463-10.893-.882-11.271-.882-11.145.818-11.145.819 0 1.889.378 2.456.756Zm49.868.944c.126.63.441 4.408.693 8.375.189 3.966.755 12.907 1.259 19.834 1.763 25.437 1.826 28.649.755 28.649-1.196 0-1.322-.945-2.707-18.89-.504-7.43-1.448-19.141-2.078-26.004-.567-6.864-.944-12.593-.755-12.719.692-.756 2.518-.189 2.833.755Zm-118.374 12.09c.378.566 2.77 20.715 5.73 48.231.881 8.311 1.763 16.308 1.952 17.819l.314 2.707-1.574-1.007c-1.196-.819-1.637-1.637-1.637-3.085 0-3.967-2.707-30.098-4.785-46.091-1.197-9.067-2.141-17.063-2.141-17.819 0-1.322 1.511-1.826 2.141-.755ZM445.21 367.27l-.441 26.319-1.574 2.33c-3.589 5.289-3.4 6.296-3.211-23.171l.126-27.012 2.329-2.393c1.26-1.259 2.519-2.33 2.771-2.33.189 0 .189 11.838 0 26.257Zm-58.243 41.746c.315 36.582.252 39.416-.755 40.549-.63.693-1.197 1.134-1.386.945-.44-.504-1.07-80.281-.566-80.722.252-.251.881-.377 1.448-.314.818.189 1.007 4.659 1.259 39.542Zm-205.644-25.06c.441 3.903 2.015 22.604 2.645 31.419.378 5.919.378 6.108-1.007 6.549-.756.251-1.638.188-1.889-.126-.441-.441-1.826-14.419-3.526-35.953l-.441-5.164h1.952c1.826 0 1.952.126 2.266 3.275Zm-49.49 22.037c.441.441.756 2.015.756 3.589 0 1.637.755 10.138 1.574 18.953 2.392 24.115 2.581 27.39 1.511 26.76-1.637-.945-3.085-2.393-2.771-2.77.126-.252-.126-3.401-.629-6.99-.441-3.652-1.008-9.57-1.26-13.222-.251-3.652-.818-10.327-1.322-14.797-1.196-11.019-1.133-12.278.252-12.278.63 0 1.448.315 1.889.755Zm29.782 42.376c.189 1.385.567 6.548.819 11.459.441 9.445.252 10.138-2.33 8.186-.755-.567-1.259-2.959-2.015-10.137-1.322-12.971-1.385-12.468 1.071-12.216 1.826.189 2.078.441 2.455 2.708Z"/><path d="M139.137 215.335c-6.548 2.834-7.052 11.712-.882 14.86 4.471 2.267 9.004 1.196 11.334-2.707 4.408-7.178-2.77-15.49-10.452-12.153Zm42.69 6.045c-6.044 3.715-6.044 12.656 0 16.371 5.982 3.589 13.727-1.134 13.727-8.312 0-6.926-7.934-11.585-13.727-8.059Z"/></g></svg>