<svg xmlns="http://www.w3.org/2000/svg" width="1935.119" height="1935.119" style="isolation:isolate" viewBox="0 0 1451.339 1451.339"><defs><clipPath id="a"><path d="M0 0h1451.339v1451.339H0z"/></clipPath></defs><g clip-path="url(#a)"><path fill="#5865F2" d="M1229.422 262.411c-93.948-43.544-194.401-75.189-299.423-93.208-12.897 23.1-27.966 54.17-38.355 78.886-111.64-16.632-222.254-16.632-331.841 0-10.387-24.716-25.798-55.786-38.811-78.886-105.135 18.019-205.703 49.781-299.651 93.438C31.847 546.303-19.521 822.919 6.163 1095.608c125.682 92.975 247.483 149.455 367.229 186.414 29.565-40.31 55.934-83.159 78.65-128.318-43.263-16.285-84.7-36.382-123.854-59.712a614.241 614.241 0 0 0 30.364-23.794c238.807 110.648 498.276 110.648 734.23 0a744.324 744.324 0 0 0 30.363 23.794 774.612 774.612 0 0 1-124.082 59.828c22.716 45.043 48.971 88.009 78.65 128.316 119.861-36.959 241.775-93.437 367.457-186.528 30.137-316.116-51.482-590.191-215.748-833.197ZM484.576 927.907c-71.687 0-130.476-66.297-130.476-147.029 0-80.733 57.534-147.143 130.476-147.143 72.945 0 131.732 66.294 130.477 147.143.113 80.732-57.532 147.029-130.477 147.029Zm482.181 0c-71.687 0-130.477-66.297-130.477-147.029 0-80.733 57.533-147.143 130.477-147.143 72.943 0 131.732 66.294 130.477 147.143 0 80.732-57.534 147.029-130.477 147.029Z"/></g></svg>