<svg xmlns="http://www.w3.org/2000/svg" width="512pt" height="512pt" style="isolation:isolate" viewBox="0 0 512 512"><defs><clipPath id="a"><path d="M0 0h512v512H0z"/></clipPath></defs><g clip-path="url(#a)"><path d="M56 0h400c30.907 0 56 25.093 56 56v400c0 30.907-25.093 56-56 56H56c-30.907 0-56-25.093-56-56V56C0 25.093 25.093 0 56 0Z" style="stroke:none;fill:#092e20;stroke-miterlimit:10"/><path fill="#FFFFFD" d="M372.754 188.395v132.454c0 45.638-3.339 67.526-13.356 86.45-9.277 18.184-21.523 29.682-46.751 42.298l-53.057-25.23c25.23-11.872 37.473-22.257 45.264-38.218 8.164-16.323 10.764-35.247 10.764-84.963V188.395h57.136Zm-90.897-88.238v264.477c-29.311 5.565-50.832 7.791-74.205 7.791-69.754 0-106.115-31.535-106.115-92.015 0-58.251 38.589-96.093 98.322-96.093 9.275 0 16.324.739 24.859 2.965v-87.125h57.139Zm-76.431 130.164c-28.94 0-45.637 17.81-45.637 48.974 0 30.426 15.955 47.121 45.266 47.121 6.305 0 11.501-.371 19.663-1.481v-91.649c-6.678-2.223-12.243-2.965-19.292-2.965Zm167.328-129.86v58.623h-57.136v-58.623h57.136Z"/></g></svg>