<svg xmlns="http://www.w3.org/2000/svg" width="512pt" height="512pt" style="isolation:isolate" viewBox="0 0 512 512"><defs><clipPath id="a"><path d="M0 0h512v512H0z"/></clipPath></defs><g clip-path="url(#a)"><circle cx="256" cy="256" r="256" fill="#DE5833" vector-effect="non-scaling-stroke"/><path fill="#FFF" d="M472.747 164.267C460.8 136.107 443.733 110.933 422.4 89.6c-21.76-21.76-46.933-38.4-74.667-50.347C318.72 26.88 288 20.907 256 20.907c-31.573 0-62.72 6.4-91.733 18.346C136.107 50.773 110.933 67.84 89.6 89.6c-21.76 21.76-38.4 46.933-50.347 74.667C26.88 193.28 20.907 224 20.907 256c0 32 6.4 62.72 18.346 91.733C51.2 375.893 68.267 401.067 89.6 422.4c21.76 21.76 46.933 38.4 74.667 50.347C193.28 485.12 224 491.093 256 491.093c31.573 0 62.72-6.4 91.733-18.346C375.467 460.8 400.64 443.733 422.4 422.4c21.76-21.76 38.4-46.933 50.347-74.667C485.12 318.72 491.093 288 491.093 256c0-32-5.973-62.72-18.346-91.733ZM307.2 467.2c-13.653-23.04-49.493-87.467-49.493-135.253 0-110.08 73.813-15.787 73.813-103.68 0-20.907-10.24-94.294-74.24-109.654-15.787-20.906-52.907-40.96-111.787-32.853 0 0 9.814 2.987 20.907 8.533 0 0-21.333 2.987-22.187 17.494 0 0 42.24-2.134 66.134 5.546-55.04 7.254-83.2 36.267-78.08 88.747 7.253 74.667 38.826 207.787 49.92 254.293C98.56 430.507 38.4 350.293 38.4 256c0-119.893 97.28-217.6 217.6-217.6S473.6 135.68 473.6 256c-.427 102.4-71.253 188.16-166.4 211.2Z"/><path fill="#FED30A" fill-rule="evenodd" d="M244.053 291.413c0-28.16 38.4-37.12 52.907-37.12 39.253 0 94.72-25.173 108.373-24.746 14.08.426 23.04 5.973 23.04 12.373 0 9.387-78.506 44.8-108.8 41.813-29.013-2.56-35.84.427-35.84 12.374 0 10.24 20.907 19.626 43.947 19.626 34.56 0 68.267-15.36 78.507-8.106 8.96 6.4-23.467 29.44-60.587 29.44-37.12 0-101.547-17.494-101.547-45.654Z"/><path fill="#2D4F8D" d="M312.32 171.947c-10.24-13.227-28.587-13.654-34.987 1.706 9.814-7.68 21.76-9.386 34.987-1.706Zm-113.92.426c-14.08-8.533-37.547-9.386-36.267 17.494 6.827-16.64 16.214-19.627 36.267-17.494Zm105.387 24.747c-7.68 0-14.08 6.4-14.08 14.08s6.4 14.08 14.08 14.08 14.08-6.4 14.08-14.08-6.4-14.08-14.08-14.08Zm5.12 13.227c-2.134 0-4.267-1.707-4.267-4.267 0-2.133 1.707-4.267 4.267-4.267 2.56 0 4.266 1.707 4.266 4.267-.426 2.133-2.133 4.267-4.266 4.267ZM194.56 204.8c-8.96 0-16.213 7.253-16.213 16.213s7.253 16.214 16.213 16.214 16.213-7.254 16.213-16.214c0-8.96-7.253-16.213-16.213-16.213Zm5.973 14.933c-2.56 0-4.693-2.133-4.693-4.693 0-2.56 2.133-4.693 4.693-4.693 2.56 0 4.694 2.133 4.694 4.693 0 2.56-2.134 4.693-4.694 4.693Z"/><path fill="#D5D7D8" d="M159.147 135.68c-20.48 14.933-29.867 37.973-26.88 70.4 7.253 74.667 38.826 208.213 49.92 254.72l11.52 3.84c-6.827-28.16-39.68-165.547-54.187-270.933-3.84-28.16 7.253-44.8 19.627-58.027Zm50.773-18.347c1.707 0 2.987-.426 2.987-.426-22.187-10.667-57.174-11.094-66.56-11.094-.854 1.707-1.707 3.84-1.707 5.974-.427.426 40.96-2.134 65.28 5.546Zm-40.107-23.04c-6.826-4.693-12.373-7.68-15.786-9.386-2.987.426-5.547.426-8.534.853 0 0 9.814 2.987 20.907 8.533h-.853 4.266Z"/><path fill="#67BD47" d="M341.76 378.027c-7.253-1.707-35.413 18.346-46.08 26.026-.427-2.133-.853-3.84-1.28-4.693-1.28-4.267-28.587-1.707-34.987 5.12-17.066-8.107-51.2-23.893-51.626-14.08-1.28 12.8 0 66.133 6.826 69.973 5.12 2.987 34.134-12.8 48.64-20.906h.427c8.96 2.133 25.6 0 31.573-3.84.854-.427 1.28-1.28 1.707-2.134 13.227 5.12 41.813 15.36 47.787 13.227 7.68-2.133 5.973-66.56-2.987-68.693Z"/><path fill="#43A347" d="M263.68 439.467c-8.96-1.707-5.973-10.667-5.973-31.574-2.134 1.28-3.84 2.987-3.84 4.694 0 20.906-3.414 30.293 5.973 31.573 8.96 2.133 25.6 0 32.427-3.84 1.28-.853 1.706-2.133 2.133-4.267-6.4 3.84-22.187 5.547-30.72 3.414Z"/></g></svg>