<svg xmlns="http://www.w3.org/2000/svg" width="2000" height="1413.32" viewBox="0 0 2000 1413.32"><path d="M220.08,12.3c-20.61,13.37-28,14.35-62.78,8.36-41.14-7.09-66.73,4.89-146.47,68.59-19.35,15.46-11,66.09,10.92,66.09,12.75,0,40.29-13.78,46.48-23.25,2.47-3.77,21.07,1.71,42.34,12.5,20.86,10.57,45.1,17.85,53.86,16.17,14.29-2.73,23.15,11.53,86.31,138.86l70.38,141.89L456.5,576.74c166,165.79,166.06,166.17,55.42,192.68L444.6,785.56l-12.73,34.08-12.72,34.08L440.86,889c11.94,19.4,21.7,37.06,21.7,39.24s-52.93,69.35-117.62,149.26L227.32,1222.78,177.25,1220c-84.9-4.8-85-2.56-2.06,55l75.44,52.33,8.38-20.21c4.61-11.11,64.85-76,133.86-144.09l125.48-123.89,8.38,33.31c4.65,18.43,22.22,51.29,39.37,73.59s41.73,61.32,54.86,87l23.88,46.71,12.68-86.22c16.46-112,17.23-104.17-10.33-104.17-22,0-25.94-3.91-54.24-53.65L562.43,982l63.16-75.74c34.74-41.65,68-77.21,74-79s113.07-25.93,238-53.62l227.21-50.35,96.09,4.57c91.57,4.36,97.67,5.61,130.07,26.75l34,22.18.13,79.71c.11,70,1.84,81.27,14.24,92.48,15.09,13.66,88.43,194.32,85,209.27-1.14,4.91-36.6,45.81-78.81,90.89l-76.73,82-51.25,9.14c-61.1,10.93-61.79,9.86,30.64,48,82.26,34,84.19,33.87,84.48-3,.2-24.42,8.74-35.18,107.77-135.9C1599.56,1189.17,1648,1138,1648,1135.52s-14.86-51.18-33-108.31c-50-157.46-52.22-156.44,108-50.57l132.44,87.51,18,46.7c9.94,25.68,23.31,77.41,29.72,115s13.14,74.72,14.95,82.62c2.57,11.16-5.56,20-36.39,39.52-53.67,34-51.59,35.92,39.27,35.92,43.47,0,79-1.41,79-3.13s-3.22-11.6-7.16-22-12.06-59.86-18-110-16.07-126.76-22.38-170.23l-11.47-79-84.5-86.22L1772,827.07l-53-182.51-53-182.52-62.27-54.56-62.27-54.57-38.32-91.3-38.31-91.31-75.29-41.6c-41.42-22.89-78.94-42.57-83.38-43.74s-34.62,38.37-67,87.85c-67.42,102.92-60.77,96.49-95.3,92.16l-26.44-3.32-44.26-105.24c-50.79-120.74-46-113.55-78.87-119.3L969.05,32.7l-97,144.83C765.49,336.67,771.79,331.05,685.28,344.3l-61.07,9.35-97.54-38.26-97.54-38.26-27.81-68.8c-24-59.38-26.29-69.65-16.73-75,13.91-7.79-5.52-95.53-19.93-90-4.58,1.76-15.41-4.34-24.07-13.56S313,10.88,298.51,8.26s-32.8-6.19-40.7-7.93S232.93,4,220.08,12.3Z" fill="#f5a623" fill-rule="evenodd"/></svg>