<svg enable-background="new 0 0 207.05 167.89" viewBox="0 0 207.05 167.89" xmlns="http://www.w3.org/2000/svg"><g fill="#e30613"><circle cx="103.52" cy="66.28" r="49.79"/><g stroke="#e30613" stroke-linejoin="round" stroke-miterlimit="10" stroke-width="8"><path d="m92.29 57.62c-1.49-1.51-3.18-2.81-5.02-3.88v8.55c3.1 3.05 5.02 7.3 5.02 11.99v.06c-.01 3.44-1.05 6.64-2.84 9.3 1.22 2.01 2.89 3.71 4.87 4.96 3.01-3.96 4.8-8.91 4.81-14.26v-.06c.01-6.48-2.6-12.38-6.84-16.66zm-10.98 32.47c-1.82.68-3.8 1.05-5.86 1.05-9.31 0-16.85-7.54-16.85-16.85s7.54-16.85 16.85-16.85c.5 0 .98.02 1.46.07v-6.88c-.48-.03-.97-.04-1.46-.04-13.09 0-23.7 10.61-23.7 23.7s10.61 23.7 23.7 23.7c3.86 0 7.51-.92 10.73-2.56-1.86-1.54-3.51-3.34-4.87-5.34z"/><path d="m92.29 38.29h6.85v36.05h-6.85z"/><path d="m127.23 24.55c-13.09 0-23.7 10.61-23.7 23.7 0 6.5 2.61 12.39 6.86 16.67 2.03 2.04 4.42 3.73 7.08 4.93v-7.88c-4.29-3.05-7.08-8.06-7.08-13.73 0-9.3 7.54-16.85 16.85-16.85 9.3 0 16.85 7.54 16.85 16.85 0 9.11-7.22 16.53-16.25 16.83v6.87c12.82-.32 23.11-10.81 23.11-23.7-.02-13.08-10.63-23.69-23.72-23.69z"/><path d="m103.52 48.25h6.85v36.05h-6.85z" transform="matrix(-1 0 0 -1 213.9023 132.5589)"/><path d="m85.51 43.6v6.33 25.91h.01c0 9.3 7.54 16.85 16.85 16.85 9.3 0 16.85-7.54 16.85-16.85v-23.05h6.85v23.05 3.91 23.05c0 3.22-.64 6.29-1.81 9.09-3.56 8.58-12.02 14.61-21.89 14.61-6.91 0-13.13-2.95-17.46-7.67-1.57-1.71-2.9-3.65-3.92-5.77l5.28-5.28c.72 2.32 1.92 4.43 3.49 6.2 3.08 3.48 7.59 5.67 12.61 5.67 9.3 0 16.85-7.54 16.85-16.85v-10.3c-4.3 4.34-10.26 7.04-16.85 7.04-12.47 0-22.67-9.62-23.62-21.84h-.08v-26.95c0-.27.01-.55.02-.82h-.02v-6.33z"/><path d="m85.51 43.6v6.33 25.91h.01c0 9.3 7.54 16.85 16.85 16.85 9.3 0 16.85-7.54 16.85-16.85v-23.05h6.85v23.05 3.91 23.05c0 3.22-.64 6.29-1.81 9.09-3.56 8.58-12.02 14.61-21.89 14.61-6.91 0-13.13-2.95-17.46-7.67-1.57-1.71-2.9-3.65-3.92-5.77l5.28-5.28c.72 2.32 1.92 4.43 3.49 6.2 3.08 3.48 7.59 5.67 12.61 5.67 9.3 0 16.85-7.54 16.85-16.85v-10.3c-4.3 4.34-10.26 7.04-16.85 7.04-12.47 0-22.67-9.62-23.62-21.84h-.08v-26.95c0-.27.01-.55.02-.82h-.02v-6.33z"/></g></g><g fill="#fff"><path d="m92.29 57.62c-1.49-1.51-3.18-2.81-5.02-3.88v8.55c3.1 3.05 5.02 7.3 5.02 11.99v.06c-.01 3.44-1.05 6.64-2.84 9.3 1.22 2.01 2.89 3.71 4.87 4.96 3.01-3.96 4.8-8.91 4.81-14.26v-.06c.01-6.48-2.6-12.38-6.84-16.66zm-10.98 32.47c-1.82.68-3.8 1.05-5.86 1.05-9.31 0-16.85-7.54-16.85-16.85s7.54-16.85 16.85-16.85c.5 0 .98.02 1.46.07v-6.88c-.48-.03-.97-.04-1.46-.04-13.09 0-23.7 10.61-23.7 23.7s10.61 23.7 23.7 23.7c3.86 0 7.51-.92 10.73-2.56-1.86-1.54-3.51-3.34-4.87-5.34z"/><path d="m92.29 38.29h6.85v36.05h-6.85z"/><path d="m127.23 24.55c-13.09 0-23.7 10.61-23.7 23.7 0 6.5 2.61 12.39 6.86 16.67 2.03 2.04 4.42 3.73 7.08 4.93v-7.88c-4.29-3.05-7.08-8.06-7.08-13.73 0-9.3 7.54-16.85 16.85-16.85 9.3 0 16.85 7.54 16.85 16.85 0 9.11-7.22 16.53-16.25 16.83v6.87c12.82-.32 23.11-10.81 23.11-23.7-.02-13.08-10.63-23.69-23.72-23.69z"/><path d="m103.52 48.25h6.85v36.05h-6.85z" transform="matrix(-1 0 0 -1 213.9023 132.5589)"/><path d="m85.51 43.6v6.33 25.91h.01c0 9.3 7.54 16.85 16.85 16.85 9.3 0 16.85-7.54 16.85-16.85v-23.05h6.85v23.05 3.91 23.05c0 3.22-.64 6.29-1.81 9.09-3.56 8.58-12.02 14.61-21.89 14.61-6.91 0-13.13-2.95-17.46-7.67-1.57-1.71-2.9-3.65-3.92-5.77l5.28-5.28c.72 2.32 1.92 4.43 3.49 6.2 3.08 3.48 7.59 5.67 12.61 5.67 9.3 0 16.85-7.54 16.85-16.85v-10.3c-4.3 4.34-10.26 7.04-16.85 7.04-12.47 0-22.67-9.62-23.62-21.84h-.08v-26.95c0-.27.01-.55.02-.82h-.02v-6.33z"/><path d="m85.51 43.6v6.33 25.91h.01c0 9.3 7.54 16.85 16.85 16.85 9.3 0 16.85-7.54 16.85-16.85v-23.05h6.85v23.05 3.91 23.05c0 3.22-.64 6.29-1.81 9.09-3.56 8.58-12.02 14.61-21.89 14.61-6.91 0-13.13-2.95-17.46-7.67-1.57-1.71-2.9-3.65-3.92-5.77l5.28-5.28c.72 2.32 1.92 4.43 3.49 6.2 3.08 3.48 7.59 5.67 12.61 5.67 9.3 0 16.85-7.54 16.85-16.85v-10.3c-4.3 4.34-10.26 7.04-16.85 7.04-12.47 0-22.67-9.62-23.62-21.84h-.08v-26.95c0-.27.01-.55.02-.82h-.02v-6.33z"/></g><path d="m38.15 95.3c-3.55.81-6.22-.61-7.16-4.72l-.81-3.53 11.56-2.65.81 3.53c.94 4.12-.87 6.56-4.4 7.37zm-.38-1.68c2.89-.66 3.8-2.45 3.13-5.38l-.42-1.83-8.3 1.9.42 1.83c.66 2.93 2.28 4.14 5.17 3.48z"/><path d="m38.17 106.43-1.53.64-2.93-6.96 10.93-4.6 2.91 6.92-1.55.65-2.26-5.37-3.07 1.29 2.11 5.01-1.55.65-2.11-5.01-3.23 1.36z"/><path d="m47.96 106.49-2.84 1.75 2.9 4.72-1.43.88-2.9-4.72-4.4 2.7-.88-1.43 10.1-6.21 3.93 6.39-1.43.88z"/><path d="m54.82 113.5-9.33 7.32-1.04-1.32 9.34-7.32z"/><path d="m66.57 125.04-8.07 2.38-3.13 3.58-1.68-1.47 3.12-3.57 1.3-8.32 1.9 1.66-1.13 5.99 5.8-1.9z"/><path d="m69.86 126.98-6.56 9.88-1.85-1.23 6.56-9.88z"/><path d="m74.53 140.62-.96 1.89-6.84-3.48 5.37-10.57 6.78 3.45-.96 1.89-4.8-2.44-1.24 2.45 4.49 2.28-.96 1.89-4.49-2.28-1.25 2.46z"/><path d="m84.98 144.29-.66 2.01-7.29-2.41 3.72-11.26 2.12.7-3.05 9.25z"/><path d="m98.84 142.83c-.55 3.7-2.74 5.59-7.14 4.93l-3.8-.57 1.75-11.73 3.8.57c4.4.66 5.94 3.08 5.39 6.8zm-6.83 2.83c3.25.49 4.28-.92 4.62-3.16.34-2.26-.24-3.89-3.49-4.38l-1.61-.24-1.13 7.54z"/><path d="m114.47 140.14c.22 2.46-1.22 4.14-3.99 4.39l-1.84.17.35 3.79-3.05.28-1.08-11.8 4.89-.45c2.77-.25 4.5 1.14 4.72 3.62zm-2.91.27c-.08-.91-.72-1.33-1.73-1.24l-1.67.15.25 2.75 1.67-.15c1.01-.09 1.56-.62 1.48-1.51z"/><path d="m122.06 142.39-1.57.42.99 3.68-2.96.8-3.08-11.45 4.74-1.27c2.68-.72 4.62.35 5.27 2.76.4 1.5.11 2.81-.85 3.77l3.6 3.59-3.12.84zm-2.26-2.13 1.62-.43c.98-.26 1.43-.88 1.2-1.74-.24-.88-.93-1.19-1.91-.92l-1.62.43z"/><path d="m138.81 133.31c1.47 3.05.89 6.38-2.82 8.16-3.71 1.79-6.65.16-8.14-2.88-1.46-3.06-.91-6.41 2.8-8.19 3.71-1.79 6.69-.14 8.16 2.91zm-2.84 1.37c-.95-1.97-2.52-2.58-4.12-1.81s-2.1 2.39-1.15 4.35c.94 1.95 2.52 2.57 4.12 1.79 1.59-.76 2.1-2.38 1.15-4.33z"/><path d="m145.51 124.68-2.46 1.78 5.25 7.27-2.49 1.79-5.25-7.26-2.46 1.78-1.7-2.35 7.4-5.35z"/><path d="m156.95 117.52c2.44 2.35 3.05 5.67.2 8.63s-6.18 2.46-8.63.12c-2.43-2.36-3.08-5.69-.22-8.65 2.85-2.96 6.21-2.45 8.65-.1zm-2.18 2.27c-1.57-1.52-3.26-1.54-4.5-.26s-1.14 2.97.43 4.48c1.56 1.5 3.25 1.53 4.48.25 1.24-1.28 1.15-2.97-.41-4.47z"/><path d="m159.78 113.3c2.15 1.41 3.68.5 4.5-.76.73-1.12.96-2.31.98-3.35.79.52 2.54 1.66 2.54 1.66-.12 1.05-.54 2.26-1.2 3.26-2.14 3.27-5.38 3.95-8.57 1.86-3.18-2.08-3.87-5.32-1.72-8.6.66-1.01 1.59-1.88 2.51-2.41 0 0 1.76 1.15 2.55 1.67-.95.43-1.96 1.11-2.69 2.23-.84 1.27-1.06 3.03 1.1 4.44z"/><path d="m169.05 94.97c3.13 1.3 4.91 4.17 3.33 7.97s-4.86 4.55-8 3.26c-3.12-1.32-4.94-4.18-3.36-7.98 1.58-3.81 4.9-4.55 8.03-3.25zm-1.21 2.9c-2.02-.84-3.6-.25-4.28 1.39s.02 3.18 2.03 4.02c2 .83 3.59.24 4.27-1.4s-.02-3.17-2.02-4.01z"/><path d="m174.29 85.21 2.83.62-1.76 8.02-11.58-2.54.66-2.99 8.75 1.92z"/></svg>