<svg id="svg2" xmlns="http://www.w3.org/2000/svg" viewBox="0 0 960.8 898.5" width="2500" height="2338"><style>.st0{fill:#023ba7}</style><path id="path6" class="st0" d="M216.8 444.5c0-8.4 4.2-24.5.9-32-3.1-7.2-12.5-13.3-17.7-19-9.8-10.9-18.4-23.5-26.1-36-16.8-27.4-27.8-60.9-30-93-1.8-26.2.4-53.9 8.4-79 7-21.8 16.4-44.3 29.8-63C246.9 32.3 367.8 1.2 466.8 53c36.3 19 71.1 52 89.9 88.5 6.9 13.4 13.3 27.5 17.8 42 1.8 5.9 2 16.8 6.1 21.5 4.6 5.2 21.4 12.2 28.3 13.5-2.1-47.7-27.2-97.9-58.3-133-84.8-96-231-112.2-334.6-36.8-22.7 16.5-43.2 38.6-58.9 61.8-16.6 24.7-28.2 54.1-34.7 83-16 70.7 2.3 139.9 42 199 9.3 13.8 20.8 25.4 32.5 37 5.4 5.4 12.3 12.9 19.9 15m528-1c10-2.6 18.8-13.5 26.1-20.4 23.8-22.9 42.2-51.3 54.9-81.6 54.6-130.8-16.8-282.9-150-328.6-42.2-14.5-91.7-17-135-6.3l-30 8.9c-2.7.9-8.3 2-9.2 5.2-1.1 3.5 6.7 6.9 9 8.4 11.8 7.9 17.2 10.3 31.3 5.8C632 5.9 741.1 55 787 135.7c36.1 63.5 39.9 139.5 9 205.8-8.2 17.7-19.6 34.4-32.5 49-5.8 6.6-17.9 14.2-21 22.3-3.1 7.7 2.1 22.2 2.3 30.7m-392-226c7-1.1 23.8-7.6 28-13.4l3.9-14.6 10.1-28c11.4-26.8 27.9-51.2 49.1-71.2 6.1-5.7 12.4-13.2 20-16.8v-4c-7.1-2.2-18.6-11.5-26-10.1-4 .7-7.5 5.5-10.2 8.2l-20.5 22c-28.6 33.7-54.4 82.5-54.4 127.9m-192 29l28-9.2c16.4-4.8 34-7.3 51-7.8 17.9-.4 35.5 1.4 53 5 6.7 1.4 18.4 7.2 24.8 6.2 7.4-1.2 20.1-12.6 26.2-17.2-9.4-8.3-27.9-11.9-40-14.2-32.3-6.2-62.2-7.5-95-3.9-11.8 1.3-35.4 3.5-44.4 11.9-5.8 5.5-3.6 21.9-3.6 29.2m110 75c-5.4 1.9-9.2 13-11.7 18-10 19.4-16.9 40.6-20.9 62-13 69.6 3 144.3 47.8 200 9.4 11.7 19.1 22.2 30.1 32.4 5 4.7 10.9 10.9 17.7 12.6l2-33c-17-9.1-30.2-31.2-40.4-47-45.1-69.9-45.1-156.9-4.5-228.9 9.4-16.7 22.4-31.7 35.9-45.1 90.2-89.4 237.5-80.1 320.3 14 26.5 30.1 46.2 69.9 51.4 110 6.2 47.6-2.2 95.4-24.7 138-7.6 14.3-19.2 29.9-30.2 41.8-4.8 5.2-16 12.5-18 19.3-2.4 8.3 2.2 21.9 2.2 30.8 5.8-1.7 11.4-7.7 16-11.6 12.7-11 24.3-23.8 34.2-37.4 39.8-54.2 61.1-128.2 45.1-195.1-7.9-33-18.5-64.9-38.2-93-60.4-86.1-171-126.1-272-97.7-45 12.6-87.9 39.1-118.3 74.8-8.1 9.5-22.6 22.2-23.8 35.1m346-100c1.7 5.6 20.8 19.7 27 19.5l26-7.2c16.1-3.8 32.5-4.7 49-4.3 18.5.5 37.1 3.4 55 8.3l26 8.7c0-7.1 2.4-22.4-2-28.3-2.2-2.9-7.7-3.8-11-4.8l-32-7.3c-33.6-5.7-67.8-4-101 3.6l-37 11.8m-517 31c-8.6 2.3-15.4 10.6-21.9 16.3-23.3 20.2-40.4 47.3-54.1 74.5-62.4 123.6 3 295.7 138 337.8 44 13.7 87.4 19.2 133 9.8l30-7.6c3-1.1 8.1-1.9 9.4-5.2 1.6-4 .9-25.5-4.4-25l-28.9 9.2c-22.4 5.4-45 7.6-68 7-80.5-2-156.6-60.9-187.7-133-26.7-62-22.7-128.8 6.9-188.8 7.9-16 18.2-30.2 29.8-43.7 5.5-6.4 16.2-12.7 19.3-20.6 3.2-8.1-1.4-21.8-1.4-30.7m761 0c0 8.7-4.2 23-1.4 31 2.1 5.9 10.8 11.4 15 16 11 12 22.1 24.6 29.9 39.1 21.3 39.7 32.6 82.7 29.5 128-2.5 36.2-15.7 73.9-35.9 104-7.1 10.6-16 20.9-25 30-3.9 3.9-11.5 9-13.3 14.3-2.3 6.7.3 24.9 2.3 31.7 21.9-9.8 41.3-36.6 54.6-55.7 52.7-76.2 60-178.8 14.2-260.3-12.9-22.9-28-44-47.7-61.7-6.4-5.7-13.9-14.3-22.2-16.4m-425 145c-6.5-14-20.1-26.8-28.6-40-14.4-22.4-27.3-55.1-27.4-82 11.4 5.3 22.1 17.6 30.3 27 21 24.2 36.6 50.6 46.7 81 4.5-3.1 4.7-11.7 6.6-16.7 2.3-6 7.4-14.9 7-21.3-.4-6.9-6.3-14.4-9.8-20.1-9-14.7-18.2-27.9-29.7-40.9-5.1-5.8-17.8-23.4-26.3-23.3l-11.8 5.1c-9.7 4.8-20.1 9.2-28.4 16.1-2.9 2.4-8.7 4.5-9.9 8.2-1.8 5.7 3.4 16.1 4.6 21.9 3.6 18.9 12.9 37.5 22.1 54.3 3.7 6.9 8.2 17 14.3 22.1l12.4 2.7 27.9 5.9m35 14c8.5 2.1 20.7 3.4 26.9-5.4 4.2-6 5.2-18.4 7.6-25.6 5.6-16.9 13.2-33.9 22.6-49 10.3-16.7 24.3-29.8 37.8-44l15.2-15c-5.7-3.3-19.2-12.2-25.9-11.2-3.8.6-7.4 5.3-9.9 7.8l-20.4 21.4c-26.6 30.6-53.8 79.2-53.9 121m111-136c-4.9 26.6-11.5 53.2-24.9 77-8.9 15.7-24.5 29.1-32.1 45l27-5.9 12.5-2.3c7.5-4.9 12.8-17.1 16.6-24.8 11.2-22.4 24.7-49.5 25.8-75-8.5-3.7-15.4-12.7-24.9-14m-304 173l35-11.1c19.8-4.8 40.6-6.8 61-5.9 12.8.6 26.5 2.5 39 5.7l21 5.9c3.9 0 6.2-3.6 9.1-5.7 5.8-4.2 13.6-6.1 16.9-12.9-39.5-21.5-93.6-23.7-137-16.4-10.9 1.8-34.7 3.5-42.4 12.2-4.9 5.5-2.6 21.1-2.6 28.2m186 380c-2.7-8.4-17.6-17.6-24-24-14.2-14.3-27.5-32-36.7-50-48.1-94-25.2-206.6 56.3-274.1 46.3-38.4 108.3-54 167.4-46.7 15.1 1.9 31.1 5.3 45 11.5 3.3 1.5 11.2 5.4 11.8-.7.5-5.4.8-20-2.7-24.3-6.1-7.4-27.1-9.2-36.1-10.7-33.6-5.9-65.4-5.8-99 .5-90.8 17.2-170.9 94.5-189.6 185.5-13.5 66.1-2.6 133 33.8 190.2 9.4 14.8 20.3 28.5 32.7 40.8 4.2 4.2 9.7 11.8 16 12.5 8.1.9 17.9-7.6 25.1-10.5m-186-378c0 7.1-2.2 22.8 2.7 28.5 6.6 7.5 27.9 9.1 37.3 10.8 16 2.8 31.7 4.8 48 4.8 5.7 0 14.8.7 19.9-2 5.9-3.2 11-11.8 15.5-16.8 3.8-4.2 9.9-8.8 11.6-14.2-24.7 3.3-47.9 8-73 4.7l-62-15.8m270 11c1.7 6 7.8 9.6 11.9 14 4.5 4.8 9.4 14.7 15.5 17.4 5.2 2.3 14 1.6 19.6 1.6 17.2 0 34.2-1.9 51-5.3 8.7-1.8 28.4-3.1 34.4-10.1 4.5-5.3 3.3-21.8 3.6-28.6-16.4 1.4-32.5 11.1-49 13.8-30.1 4.9-57.3 1.5-87-2.8m197-7c-.2 8.9-5.1 22.7-2.4 31 1.6 5 7.7 8.4 11.3 12l23.2 27.1c17.8 24.2 30.4 54.5 36.4 83.9 23.9 118-56.7 233.2-172.5 258.6-27.1 5.9-54.8 5.3-82 1.2-9.8-1.5-23.4-9.3-33-8.3-8.3.9-18 12.9-26 16.5v2c25.2 12.7 54.3 17.2 82 19.1C704.3 906 824 815.4 841.1 691.5c9.3-67.7-5.9-135-47.2-190-12.1-16.1-30.1-39-49.1-47m-599 169c.3-33.5 19.2-74.6 39.3-100.7L203 502c4.7-4.4 12.9-10.4 15.2-16.6 2.9-7.7-1.4-21.5-1.4-30-12 2.6-21.7 15.7-30 24-24.9 24.9-46 57.2-56.8 91-2.8 8.6-13 30-8.2 38.7l11.8 9.1c4.1 2.9 7.1 5 12.2 5.3m-27 57c.5 25.5 10.3 52.3 20.9 75.2 44.1 95.5 146 152.1 250.1 141.7 104.1-10.4 193.3-90.9 215.3-192.8 14.3-65.9 1.3-140-38.7-195-9.5-13-20.3-24.7-31.6-36-3.9-3.9-8.8-10.4-15-9.3-3.8.6-22.8 7.9-22.1 12.3.7 4.6 10.8 9.9 14.1 13.1 11.4 10.9 22.2 22.3 31.6 35 23.4 31.5 34 68.9 39.9 107 2.2 14.2 0 29.8-1.4 44-8.4 87.9-74.1 162.7-158.2 187.6-85.3 25.3-181.5-7.2-234.6-78.6-11.8-15.9-22-32.8-29.7-51l-8.5-25-4.2-14.5c-4.2-5.6-21.3-12.2-27.9-13.7m448-34c0-10.5-.1-28.6-5-38-6.8-13-21.5-23.7-30-36-13.6-19.8-23.7-42.7-29.5-66-1.8-7.1-18.5-23.4-26.3-18.1-11.1 7.4 2.2 36.8 6 46.1 13.4 33 31.6 63.7 56.9 89 7.3 7.4 17.5 20.1 27.9 23m-110-131c-7.7 18.9-14.8 37.8-26.1 55l-31 37c-5.8 10.1-4.9 26.7-4.9 38 7.7-2.1 15.3-10.6 21-16 16.2-15.3 29.1-32.4 41-51 4.5-7.1 12.8-16.4 13.8-25 1.3-11.5-10-26.2-11.7-38h-2.1m-63 137c.3 7.1-1.2 22.9 3.6 28.6 6.3 7.4 24.5 7.6 33.4 10 31.4 8.5 65.4 5.4 97 .7 9-1.3 29-4 35.4-10.8 5.4-5.7 3.6-21.2 3.6-28.5l-35 10.5c-21.6 5.4-43.8 7.4-66 6.4-16.6-.7-34.1-4.9-50-9.7l-22-7.2m234 0c0 5.9-4.2 23-.4 27.3 6 6.7 25.8 9.4 34.4 10.9 32.9 5.9 66 7.1 99 1.1 8.9-1.6 30.2-3.9 36.4-10.9 4.7-5.3 2.6-21.7 2.6-28.5l-31 9.7c-21.1 5.5-43.2 8.2-65 7.2-18.2-.8-36.6-4.7-54-9.8l-22-7z"/></svg>