<svg xmlns="http://www.w3.org/2000/svg" width="2500" height="2500" viewBox="0 0 32.01 32.01"><defs><linearGradient id="a" y1="16.37" x2="32.01" y2="16.37" gradientTransform="matrix(1 0 0 -1 0 32.37)" gradientUnits="userSpaceOnUse"><stop offset="0" stop-color="#25e8ce"/><stop offset=".52" stop-color="#2269ff"/><stop offset=".87" stop-color="#6d00f5"/></linearGradient><linearGradient id="b" x1="6.71" y1="18" x2="25.29" y2="18" gradientTransform="matrix(1 0 0 -1 0 32.37)" gradientUnits="userSpaceOnUse"><stop offset="0" stop-color="#25e8ce"/><stop offset=".52" stop-color="#2269ff"/><stop offset="1" stop-color="#6d00f5"/></linearGradient></defs><title>SVG export Illustrator</title><path d="M16 1.44A14.57 14.57 0 1 1 1.44 16 14.56 14.56 0 0 1 16 1.44M16 0a16 16 0 1 0 11.32 4.69A15.91 15.91 0 0 0 16 0z" fill="url(#a)"/><path d="M19.39 21.55a7.33 7.33 0 0 0 3.09.69l-1.35 1.44a.8.8 0 0 0 0 1.13.8.8 0 0 0 1.11 0L25.07 22a.79.79 0 0 0 .1-1 .64.64 0 0 0-.1-.13l-2.79-2.8a.8.8 0 0 0-1.14 0 .8.8 0 0 0 0 1.13l1.37 1.37h-.07a5.62 5.62 0 0 1-5.12-3.4 10 10 0 0 1-.76 1.89 7.09 7.09 0 0 0 2.83 2.49zM16.46 14.56a7.35 7.35 0 0 0-6.9-5.2h-2a.81.81 0 1 0 0 1.62h2c.18 0 4.48-.1 5.67 5a11.83 11.83 0 0 0 .4 1.32 6 6 0 0 0 .26-.92 11.63 11.63 0 0 1 .57-1.82z" fill="#ddd"/><path d="M16.46 14.56a10.62 10.62 0 0 0-.61 1.83 6 6 0 0 1-.26.92 8.56 8.56 0 0 0 1 1.83 9.59 9.59 0 0 0 .76-1.92 8.15 8.15 0 0 1-.54-1.6 8.22 8.22 0 0 0-.35-1.06z" fill="#d2d2d2"/><path d="M25.05 9.58l-2.8-2.8a.8.8 0 0 0-1.13 0 .82.82 0 0 0 0 1.15l1.4 1.4a7.5 7.5 0 0 0-3.09.7 7.66 7.66 0 0 0-4.2 5.56c-1.19 5.1-5.49 5-5.67 5h-2a.81.81 0 1 0 0 1.62h2a7.4 7.4 0 0 0 3-.69 7.65 7.65 0 0 0 4.2-5.52c1.19-5.11 5.48-5 5.66-5h.07l-1.36 1.39a.82.82 0 0 0 0 1.15.83.83 0 0 0 1.15 0l2.77-2.78a.64.64 0 0 0 .1-.13.78.78 0 0 0-.1-1.05z" fill="url(#b)"/></svg>