<?xml version="1.0" encoding="UTF-8" standalone="no"?>
<!-- Generator: Gravit.io -->
<svg xmlns="http://www.w3.org/2000/svg" xmlns:xlink="http://www.w3.org/1999/xlink" style="isolation:isolate"
  viewBox="0 0 64 64" width="64pt" height="64pt">
  <defs>
    <clipPath id="_clipPath_CPp6Jpv66It0F2eO7S5MGkl9ct84eJw2">
      <rect width="64" height="64" />
    </clipPath>
  </defs>
  <g clip-path="url(#_clipPath_CPp6Jpv66It0F2eO7S5MGkl9ct84eJw2)">
    <path
      d=" M 44.648 24.352 L 32.492 17.334 C 32.188 17.158 31.812 17.158 31.508 17.334 L 19.352 24.352 C 19.048 24.528 18.86 24.852 18.86 25.204 L 18.86 39.238 C 18.86 39.59 19.048 39.914 19.352 40.09 L 31.508 47.108 C 31.812 47.284 32.186 47.284 32.492 47.108 L 44.648 40.09 C 44.952 39.916 45.138 39.59 45.138 39.238 L 45.138 25.204 C 45.138 24.852 44.952 24.528 44.648 24.352 L 44.648 24.352 L 44.648 24.352 Z "
      fill="rgb(128,128,242)" />
    <path
      d=" M 0.396 30.744 L 14.92 5.478 C 15.446 4.564 16.422 3.89 17.476 3.89 L 46.524 3.89 C 47.58 3.89 48.554 4.564 49.082 5.478 L 63.604 30.69 C 64.132 31.612 64.132 32.746 63.604 33.67 L 49.082 58.73 C 48.554 59.642 47.58 60.11 46.524 60.11 L 17.476 60.11 C 16.422 60.11 15.446 59.658 14.92 58.744 L 0.396 33.642 C -0.132 32.748 -0.132 31.638 0.396 30.744 L 0.396 30.744 L 0.396 30.744 Z  M 12.422 42.894 C 12.422 43.266 12.646 43.61 12.968 43.796 L 31.468 54.468 C 31.79 54.654 32.192 54.654 32.514 54.468 L 51.028 43.796 C 51.35 43.61 51.574 43.266 51.574 42.894 L 51.574 21.548 C 51.574 21.176 51.352 20.832 51.032 20.646 L 32.53 9.974 C 32.206 9.788 31.808 9.788 31.484 9.974 L 12.968 20.646 C 12.648 20.832 12.42 21.176 12.42 21.548 L 12.42 42.896 L 12.422 42.894 L 12.422 42.894 Z "
      fill="rgb(75,50,195)" />
  </g>
</svg>