<svg xmlns="http://www.w3.org/2000/svg" width="674.2" height="148.324" viewBox="0 0 1000 220.336"><path d="m242.05 155.464 6.211-1.278c5.48-1.461 6.942-2.192 6.942-13.153V54.99c0-10.961-1.644-11.875-6.942-13.154l-6.21-1.278v-5.115h99.013l1.827 36.353h-5.663c-4.567-10.047-7.49-15.345-10.23-19.364-5.846-8.403-9.683-9.134-22.288-9.134-9.317 0-13.884 1.096-16.624 1.827v46.584h4.933c12.787 0 15.71-1.462 17.903-5.48 2.557-4.568 4.018-8.039 5.663-13.885h5.48v47.132h-5.48c-1.645-5.663-3.106-9.317-5.663-14.614-2.193-4.567-4.568-5.48-17.903-5.48h-4.933v35.074c0 16.259.548 18.086 18.268 18.086 14.615 0 17.538-1.827 23.566-10.778 3.288-4.933 6.76-12.605 11.51-24.115h5.845l-2.557 42.931H242.233l-.183-5.116M362.62 86.96c-4.2-10.23-6.21-12.788-10.778-14.25l-3.47-1.095v-4.75h54.256v4.75l-4.933 1.278c-3.836 1.096-5.663 2.923-5.663 7.308 0 2.557.914 5.663 2.375 9.682l15.163 41.651h.913l14.615-41.651c1.644-4.385 2.375-7.49 2.375-10.048 0-4.019-1.827-6.028-5.663-6.942l-4.933-1.278v-4.75h33.431v4.75l-3.47 1.096c-4.751 1.644-6.76 4.384-11.145 16.258l-27.95 71.612h-15.345zm83.486 26.306c0-31.421 23.2-48.776 47.132-48.776 24.845 0 40.373 12.422 40.921 45.123h-59.737c.548 29.594 11.691 37.632 30.325 37.632 11.144 0 19.73-3.288 26.49-6.76v6.03c-6.394 6.941-20.096 16.44-38.182 16.44-31.42-.365-46.949-18.998-46.949-49.689m28.316-10.595 30.873-1.645c0-21.739-2.923-29.777-13.7-29.777-9.135 0-16.442 8.769-17.173 31.422m107.234-24.297c5.115-5.48 15.528-14.432 27.586-14.432 7.672 0 14.066 6.211 14.066 14.066s-6.211 14.067-14.066 14.067c-5.664 0-10.778-3.47-12.788-8.403-1.096-2.01-3.471-2.558-5.115-2.558-3.289 0-7.125 2.375-9.5 4.567v58.458c0 8.404.73 9.317 6.211 10.23l6.03 1.28v4.932h-52.066v-4.933l4.75-1.278c6.029-1.644 6.76-2.558 6.76-10.23V88.054c0-7.673-.914-8.22-6.029-11.692l-6.029-4.019V68.69l37.998-4.385 2.01 1.462-.366 12.422zm47.133 77.274 4.75-1.278c6.028-1.644 6.758-2.558 6.758-10.23V88.054c0-7.673-.913-8.22-6.028-11.692l-6.029-4.019V68.69l37.998-4.385 2.01 1.28-.366 11.508h.73c9.5-6.76 21.375-12.788 34.528-12.788 15.345 0 23.566 7.856 23.566 24.114v55.536c0 7.855.73 8.769 6.577 10.23l4.75 1.278v4.933h-50.238v-4.933l4.384-1.095c5.48-1.462 6.028-2.01 6.028-10.413v-48.41c0-10.96-4.018-14.432-12.422-14.432-6.393 0-12.788 1.462-16.806 2.375v60.65c0 8.587.547 8.952 6.028 10.414l4.385 1.095v4.933h-50.238v-4.933zm112.714-41.834c0-34.527 24.48-49.324 48.776-49.324 26.122 0 48.961 15.71 48.961 48.41 0 34.528-24.113 49.69-48.96 49.69-26.124 0-48.777-15.71-48.777-48.776m67.411.914c0-36.354-6.943-43.296-19.365-43.296-11.326 0-18.086 8.22-18.086 39.276 0 36.903 6.029 44.94 19.182 44.94 10.778 0 18.269-6.393 18.269-40.92m45.855 23.017V77.46h-11.327v-4.384c14.062-5.48 24.844-15.893 29.958-30.325h10.228v24.114h23.932l-2.372 10.595h-21.56v58.459c0 8.951 2.74 12.605 11.694 12.605 4.384 0 9.684-.913 12.969-1.644v5.115c-4.383 4.019-13.337 10.595-28.497 10.595-16.259 0-25.025-7.125-25.025-24.845m57.175-24.479c0-31.421 23.202-48.776 47.134-48.776 24.844 0 40.373 12.422 40.922 45.123h-59.554c.544 29.594 11.69 37.632 30.32 37.632 11.146 0 19.731-3.288 26.493-6.76v6.03c-6.394 6.941-20.093 16.44-38.18 16.44-31.607-.365-47.135-18.998-47.135-49.689m28.315-10.595 30.876-1.645c0-21.739-2.922-29.777-13.7-29.777-9.134 0-16.445 8.769-17.176 31.422"/><path fill="#00a82d" d="M59.006 49.507c0 2.192-.182 5.846-2.374 8.22-2.375 2.193-6.029 2.376-8.221 2.376H25.027c-6.759 0-10.778 0-13.518.365-1.461.182-3.288.913-4.202 1.279-.365.182-.365 0-.182-.183L60.468 7.307c.183-.182.365-.182.183.183-.366.913-1.097 2.74-1.28 4.202-.365 2.74-.365 6.759-.365 13.518zm49.69 164.048c-6.212-4.018-9.5-9.316-10.778-12.605-1.28-3.105-2.01-6.576-2.01-10.047 0-15.163 12.423-27.585 27.768-27.585a8.186 8.186 0 0 1 8.22 8.22c0 3.106-1.643 5.664-4.2 7.125-.914.548-2.193.913-3.107 1.096-.913.183-4.384.549-6.028 2.01-1.827 1.461-3.289 3.836-3.289 6.394 0 2.74 1.097 5.297 2.923 7.124 3.289 3.289 7.673 5.115 12.423 5.115 12.422 0 22.47-10.047 22.47-22.47 0-11.143-7.49-21.008-17.355-25.393-1.461-.73-3.836-1.278-6.029-1.826-2.74-.548-5.298-.913-5.48-.913-7.673-.914-26.855-6.942-28.133-23.932 0 0-5.663 25.576-16.99 32.518-1.096.548-2.557 1.095-4.201 1.461-1.644.365-3.471.548-4.02.548-18.45 1.096-37.997-4.75-51.516-18.634 0 0-9.134-7.49-13.884-28.498-1.096-5.115-3.288-14.25-4.567-22.835-.548-3.106-.73-5.481-.913-7.673 0-8.951 5.48-14.98 12.422-15.893H49.69c6.393 0 10.047-1.644 12.422-3.837 3.106-2.922 3.836-7.124 3.836-12.057V12.422C66.862 5.663 72.89 0 81.842 0h4.384c1.827 0 4.02.183 6.029.365 1.461.183 2.74.548 4.932 1.096 11.144 2.74 13.519 14.067 13.519 14.067s21.008 3.654 31.603 5.48c10.048 1.827 34.893 3.471 39.642 28.499 11.144 59.554 4.385 117.282 3.837 117.282-7.856 56.266-54.622 53.526-54.622 53.526-10.048 0-17.538-3.289-22.47-6.76M150.713 93.9c-6.028-.549-11.144 1.827-12.97 6.393-.366.914-.731 2.01-.549 2.558.183.548.549.731.914.913 2.192 1.097 5.845 1.645 11.143 2.193 5.298.548 8.952.913 11.327.548.365 0 .73-.183 1.096-.73.365-.549.182-1.645.182-2.558-.73-5.116-5.115-8.587-11.143-9.317"/></svg>