<svg id="Layer_1" xmlns="http://www.w3.org/2000/svg" viewBox="0 0 258.3 258.1" width="2500" height="2498"><style>.st0{fill:#d3c7aa}</style><g id="_x23_d3c7aaff"><path class="st0" d="M116.3.7c10.9-1.9 21.8.5 32.7 1.3 10.3 1 20.2 4.4 29.8 8.3 20.8 8.8 39.8 22.5 53.2 40.8 13.1 17.2 22 37.7 25 59.2 1.6 8.9 1.3 17.9 1.3 26.9-.2 11.5-3.3 22.7-6.7 33.7-5.4 16.6-15 31.6-26.2 44.8-24.8 27.1-61.4 44.2-98.5 42.3-9.9.5-19.6-1.4-29.2-3.5-10-2.5-19.8-6.1-28.6-11.4-31.4-15.5-54.5-45.4-64.3-78.7-3.4-12.8-5.2-25.9-4.6-39.1-.6-12.7 3.1-24.9 6.8-36.9 2.1-7.1 5.5-13.6 8.8-20.2 4.3-9.2 10.6-17.2 17.1-25 4.5-4.8 9.6-9.1 14.5-13.5 11.2-9.6 24.5-16.4 38.1-21.9 9.9-3.5 20.4-5.7 30.8-7.1m.9 16.4c-20.1 2.4-39.8 10.1-55.3 23.1C40.4 57.5 26.2 83 21 110c-3.3 20.2-1.5 41.3 6 60.4 6.2 16.2 16.3 31 29 42.7 16.9 15.7 38.8 25.9 61.7 28.6 27.7 3.3 56.7-4.7 78.6-22.1 20.3-15.4 34.4-38.3 40.2-63 8.3-34.6-.8-72.9-23.9-100-22.9-27.6-59.7-43.1-95.4-39.5z"/><path class="st0" d="M126.3 34.8c6.1-.6 12.6-1 18.3 1.7 7.2 3.1 13 9.4 15 17 2.7 9.5-1.8 20.1-9.7 25.8-9.2 6.9-22.5 7.3-32.2 1.2-7.4-4.7-12.9-13.3-12.1-22.3.3-11.5 9.9-21 20.7-23.4zM71.3 76.8c24.5-2.6 50.2 13.8 57.2 37.7 3.9 13 1.9 27.6-5.2 39.1-10.2 16.9-29.9 27.2-49.5 27-6.6.3-12.1-8.1-8.4-13.9 2.4-3.9 7.1-5.5 11.4-5.5 17.7-.1 34.4-15.9 33.5-34 0-16.8-15.2-30.9-31.5-32.4-4.7-.5-10.7-.5-13.1-5.3-3.1-4.8.4-11.4 5.6-12.7zM184.3 76.4c4.7-.9 10.4-1.4 14.1 2.2 4 3.2 4.1 10.1 0 13.2-2.2 2.3-5.6 2.6-8.6 2.9-9.7.5-19.2 4.6-25.7 11.8-8 8.1-10.9 20.8-7.2 31.6 4.3 13.2 17.3 22.5 30.9 23.5 4.1.2 8.8.5 11.5 4.1 4.2 4.6.8 12.5-4.7 14.2-3.5.9-7.1.5-10.7 0-15.6-2.6-30.6-10.9-39.7-24.1-9.2-13.1-11.5-30.9-5.4-45.7 7.4-18.6 25.9-31.4 45.5-33.7zM82 183.7c5.2-.5 9.7 2.6 14.5 3.8 6.2 1.8 12 4.9 18.4 6 5.5.4 11.1-.1 16.6.3-1 3.5-.2 6.9 1.9 9.8.7-1.3 2-2.4 2.1-3.9-.8-1.9-1.9-3.7-2.6-5.7 4.8-.4 9.8.6 14.5-1 8-2.5 15.7-6.6 24.3-6.4 2.9 0 4.8 2.7 5.7 5.1.6 2.7 0 5.5-.4 8.2 3.5 2.8 5 7.1 8.3 10.1.9 2.7-1 5.3-3.1 6.8-2.9 2.4-7.2 2.8-10.7 1.7-4.8-2.5-4.6-8.8-8-12.5.6 5.3 2.3 10.7 6.8 13.9-6.7 3.5-14 5.9-21.6 6.8.5-2.4 2-4.8.9-7.2-2.1-6.8-4.3-13.6-6.6-20.3-2.5 2.4-5.2 4.7-6.9 7.7-.8 1.1-.1 2.5.4 3.6 2.8 5.6 5.1 11.5 9.2 16.2-1.6.7-3.2 1.5-4.9 1.4-6 0-11.9.1-17.9-.4.1-2.5 1.3-5.1 0-7.4-.6-1.1-1-3.1-2.7-2.5-.8.9-1.6 1.8-2.3 2.7 1 2 2 4 2.9 6.1-4.3 2.2-9.1.9-13.6.3-.2-.6-.6-1.8-.8-2.5 4.9-2.9 9-7 11.9-11.9-1.4-5-4.4-9.4-6.6-14.1-.8 2.7-2 5.2-4.1 7.1-2.1-1.9-2.4-4.7-3-7.3-.4-2.4-3-3.4-4.8-4.6-1.4 3.3-2.9 6.7-3.1 10.4 2.7-1.8 4.4-4.9 7.6-5.9.4 4.6-1.5 8.8-3 13-.8 1.9-2.1 5.3-4.7 3.5-.5-2.5-.6-5.1-1.2-7.6-1.8 3.4-3.1 7-3.8 10.8 2.2 0 4.6.5 6.7-.3 2.8-1.7 4.6-4.7 7.9-5.5.4 5-1.4 9.9-4.4 13.9-10.1-4.1-20.9-6.4-30.5-11.7 1.8-1.9 4.7-2.9 5.5-5.6 2.1-5.9 4.1-11.9 6.2-17.9 1.3-2.5-.4-4.7-1-7m77.1 8.8c.1 3.8 1.4 7.4 3.7 10.5.1-3.8-.8-7.9-3.7-10.5z"/></g><g id="_x23_000000ff"><path d="M117.2 17.1c35.7-3.6 72.4 11.9 95.3 39.5 23.2 27.1 32.3 65.4 23.9 100-5.8 24.7-19.9 47.6-40.2 63-21.9 17.5-50.8 25.5-78.6 22.1-22.8-2.7-44.7-12.9-61.6-28.6-12.8-11.8-22.8-26.5-29-42.7-7.5-19.1-9.3-40.2-6-60.4 5.1-27 19.4-52.5 40.9-69.8 15.6-13.1 35.2-20.7 55.3-23.1m9.1 17.7c-10.8 2.4-20.4 11.9-20.8 23.4-.7 9 4.7 17.6 12.1 22.3 9.7 6.1 23 5.7 32.2-1.2 7.9-5.6 12.4-16.2 9.7-25.8-2-7.6-7.8-14-15-17-5.5-2.7-12.1-2.3-18.2-1.7m-55 42c-5.2 1.3-8.7 7.9-5.7 12.7 2.5 4.8 8.4 4.9 13.1 5.3 16.3 1.5 31.5 15.5 31.5 32.4 1 18.1-15.8 33.9-33.5 34-4.4.1-9 1.6-11.4 5.5-3.7 5.7 1.8 14.2 8.4 13.9 19.6.2 39.3-10.1 49.5-27 7.1-11.5 9-26.1 5.2-39.1-6.9-23.9-32.6-40.3-57.1-37.7m113-.4c-19.6 2.2-38.1 15.1-45.4 33.7-6.1 14.8-3.8 32.6 5.4 45.7 9.1 13.2 24.1 21.5 39.7 24.1 3.5.5 7.2.9 10.7 0 5.6-1.7 8.9-9.6 4.7-14.2-2.7-3.6-7.4-3.9-11.5-4.1-13.6-1-26.6-10.4-30.9-23.5-3.7-10.8-.8-23.4 7.2-31.6 6.6-7.2 16.1-11.3 25.7-11.8 3-.2 6.4-.5 8.6-2.9 4.1-3.1 4-10 0-13.2-3.8-3.6-9.5-3.1-14.2-2.2M82 183.7c.6 2.3 2.3 4.5 1.2 6.9-2.1 6-4.1 12-6.2 17.9-.8 2.7-3.7 3.7-5.5 5.6 9.6 5.3 20.4 7.6 30.5 11.7 3-4 4.8-8.9 4.4-13.9-3.3.8-5.2 3.8-7.9 5.5-2.1.8-4.5.3-6.7.3.7-3.8 1.9-7.4 3.8-10.8.7 2.5.8 5.1 1.2 7.6 2.6 1.7 3.9-1.6 4.7-3.5 1.5-4.2 3.4-8.5 3-13-3.2.9-4.9 4.1-7.6 5.9.2-3.7 1.7-7.1 3.1-10.4 1.8 1.2 4.4 2.2 4.8 4.6.5 2.6.9 5.3 3 7.3 2.1-1.9 3.3-4.5 4.1-7.1 2.2 4.7 5.3 9.1 6.6 14.1-2.9 4.9-7.1 9-11.9 11.9.2.6.6 1.9.8 2.5 4.5.6 9.3 2 13.6-.3-.9-2.1-2-4.1-2.9-6.1.7-.9 1.5-1.9 2.3-2.7 1.7-.6 2.1 1.4 2.7 2.5 1.2 2.3.1 5 0 7.4 5.9.5 11.9.5 17.9.4 1.8.1 3.4-.7 4.9-1.4-4.1-4.8-6.4-10.7-9.2-16.2-.5-1.1-1.2-2.5-.4-3.6 1.8-3 4.5-5.3 6.9-7.7 2.3 6.8 4.5 13.5 6.6 20.3 1.1 2.4-.4 4.8-.9 7.2 7.5-.8 14.9-3.3 21.6-6.8-4.6-3.2-6.2-8.7-6.8-13.9 3.4 3.7 3.2 10 8 12.5 3.5 1.1 7.8.7 10.7-1.7 2.1-1.5 3.9-4.1 3.1-6.8-3.3-3-4.8-7.3-8.3-10.1.4-2.7 1.1-5.5.4-8.2-1-2.4-2.9-5.2-5.7-5.1-8.5-.2-16.3 4-24.3 6.4-4.7 1.6-9.7.6-14.5 1 .7 2 1.9 3.7 2.6 5.7-.1 1.5-1.4 2.7-2.1 3.9-2.2-2.9-2.9-6.3-1.9-9.8-5.5-.4-11.1.1-16.6-.3-6.4-1.1-12.2-4.2-18.4-6-5-1.1-9.5-4.2-14.7-3.7z"/><path d="M159.1 192.5c2.9 2.6 3.7 6.7 3.7 10.5-2.2-3.1-3.6-6.7-3.7-10.5z"/></g></svg>