<svg xmlns="http://www.w3.org/2000/svg" width="512pt" height="512pt" style="isolation:isolate" viewBox="0 0 512 512"><defs><clipPath id="a"><path d="M0 0h512v512H0z"/></clipPath></defs><g clip-path="url(#a)"><path d="M495.885 138.448 512 96.708l-.701-2.586-159.434 42.007c17-24.59 11.161-44.309 11.161-44.309s-50.915 32.514-89.418 31.663c-38.503-.85-50.914-11.127-109.954 7.708-59.039 18.817-75.721 76.589-92.837 89C53.701 232.603 0 273.025 0 273.025l.117.717 48.412-15.415S35.25 270.839 7.04 308.858c0 0-.484-.45-1.318-1.217l.05.267s22.672 34.649 44.926 28.243c2.235-.651 4.754-1.718 7.507-3.12 8.958 4.988 20.653 9.893 33.565 11.244 0 0-8.742-10.159-16.032-21.72 1.969-1.268 3.987-2.586 6.039-3.921l-.951.668 18.434 6.773-2.035-17.333c.067-.034.117-.084.184-.117l18.117 6.656-2.252-15.765a153.503 153.503 0 0 1 6.873-3.386l18.884-71.434 78.091-53.267-6.206 15.614c-15.832 38.937-45.56 48.129-45.56 48.129l-12.412 4.705c-9.225 10.91-13.112 13.596-16.282 50.214 7.441-1.869 14.547-2.319 20.987-.584 33.365 8.992 44.926 49.196 35.934 60.323-2.252 2.786-7.607 7.541-14.364 13.129h-13.546l-.183 10.978c-.468.367-.935.717-1.385 1.084h-13.78l-.167 10.71c-1.217.934-2.435 1.835-3.603 2.719-12.946.267-29.344-11.027-29.344-11.027 0 10.277 8.558 26.091 8.558 26.091s.567-.266 1.518-.734c-.834.618-1.301.951-1.301.951s34.649 23.105 56.47 14.547c19.401-7.607 69.632-47.211 112.99-65.962l131.207-34.566 17.299-44.826-99.994 26.342v-40.255l117.327-30.912 17.3-44.826-134.594 35.467v-40.271l151.894-40.021Z"/></g></svg>