<?xml version="1.0" encoding="UTF-8" standalone="no"?>
<!-- Generator: Gravit.io -->
<svg xmlns="http://www.w3.org/2000/svg" xmlns:xlink="http://www.w3.org/1999/xlink" style="isolation:isolate" viewBox="0 0 64 64" width="64pt" height="64pt"><defs><clipPath id="_clipPath_XJTH4Q21E8Z2m5MCKnOzzLk9nQAkNaBl"><rect width="64" height="64"/></clipPath></defs><g clip-path="url(#_clipPath_XJTH4Q21E8Z2m5MCKnOzzLk9nQAkNaBl)"><path d=" M 47.638 13.425 C 43.759 14.747 41.892 17.117 40.619 20.809 C 40.291 21.795 39.47 22.886 38.547 23.62 L 41.728 27.102 L 31.63 19.886 L 3.761 0 C 3.761 0 5.772 13.341 6.47 18.25 C 6.962 21.711 7.804 23.263 10.472 24.836 L 11.539 25.424 L 16.136 27.899 L 13.407 26.452 L 26.007 33.479 L 25.925 33.668 L 12.36 27.249 C 13.078 29.766 14.474 34.612 15.069 36.751 C 15.705 39.059 16.423 39.898 18.619 40.716 L 22.662 42.226 L 25.166 41.219 L 21.985 43.38 L 6.08 64 C 16.649 53.973 25.597 50.407 32.144 47.491 C 40.496 43.8 45.524 41.429 48.808 32.912 C 51.147 26.934 52.974 19.278 55.293 16.32 L 60.239 9.859 C 60.239 9.859 49.998 12.628 47.638 13.425 Z " fill="rgb(58,26,182)"/></g></svg>