<svg viewBox="0 0 190.31 207.33" xmlns="http://www.w3.org/2000/svg"><path d="m44.75 129.42-44.75-29.48v-53.02l44.75 29.5z" fill="#066db0"/><path d="m89.5 101.11-44.75 28.31v-53l44.75-29.5z" fill="#0b8ad1"/><path d="m89.5 46.92-44.75 29.5-44.75-29.5 44.75-28.1z" fill="#66c6ee"/><path d="m104.83 73.64-30.66-20.21v-36.33l30.66 20.21z" fill="#6abf4a"/><path d="m135.5 53.97-30.67 19.67v-36.33l30.67-18.04z" fill="#a5ce4c"/><path d="m135.5 19.27-30.67 18.04-30.66-20.21 30.66-17.1z" fill="#e6ea58"/><path d="m64.85 197-30.67-20.21v-36.33l30.67 20.21z" fill="#a43a94"/><path d="m95.52 176.79-30.67 20.21v-36.33l30.67-20.21z" fill="#c8469c"/><path d="m95.52 140.46-30.67 20.21-30.67-20.21 30.67-19.27z" fill="#f162a0"/><path d="m145.56 207.33-44.75-29.5v-98.19l44.75 29.49z" fill="#e80101"/><path d="m190.31 177.83-44.75 29.5v-98.2l44.75-29.49z" fill="#f42c03"/><path d="m190.31 79.64-44.75 29.49-44.75-29.49 44.75-28.11z" fill="#ff5600"/></svg>