<svg xmlns="http://www.w3.org/2000/svg" width="512pt" height="512pt" style="isolation:isolate" viewBox="0 0 512 512"><defs><clipPath id="a"><path d="M0 0h512v512H0z"/></clipPath></defs><g clip-path="url(#a)"><path fill="#0ACF83" d="M170.667 512C217.771 512 256 473.771 256 426.667v-85.334h-85.333c-47.104 0-85.334 38.23-85.334 85.334 0 47.104 38.23 85.333 85.334 85.333Z"/><path fill="#A259FF" d="M85.333 256c0-47.104 38.23-85.333 85.334-85.333H256v170.666h-85.333c-47.104 0-85.334-38.229-85.334-85.333Z"/><path fill="#F24E1E" d="M85.333 85.333C85.333 38.229 123.563 0 170.667 0H256v170.667h-85.333c-47.104 0-85.334-38.23-85.334-85.334Z"/><path fill="#FF7262" d="M256 0h85.333c47.104 0 85.334 38.229 85.334 85.333s-38.23 85.334-85.334 85.334H256V0Z"/><path fill="#1ABCFE" d="M426.667 256c0 47.104-38.23 85.333-85.334 85.333C294.229 341.333 256 303.104 256 256s38.229-85.333 85.333-85.333 85.334 38.229 85.334 85.333Z"/></g></svg>