<?xml version="1.0" encoding="UTF-8" standalone="no"?>
<!-- Generator: Gravit.io -->
<svg xmlns="http://www.w3.org/2000/svg" xmlns:xlink="http://www.w3.org/1999/xlink" style="isolation:isolate" viewBox="0 0 64 64" width="64pt" height="64pt"><defs><clipPath id="_clipPath_xOBbMj63HzjCGa866Rs2FgYDbWQpHkFu"><rect width="64" height="64"/></clipPath></defs><g clip-path="url(#_clipPath_xOBbMj63HzjCGa866Rs2FgYDbWQpHkFu)"><linearGradient id="_lgradient_0" x1="0.8975826640992222" y1="0.15494163970389366" x2="0.07895083342649312" y2="0.9447814676286557" gradientTransform="matrix(61.963,0,0,63.978,1.015,0.015)" gradientUnits="userSpaceOnUse"><stop offset="4.8%" stop-opacity="1" style="stop-color:rgb(255,244,79)"/><stop offset="11.1%" stop-opacity="1" style="stop-color:rgb(255,232,71)"/><stop offset="22.5%" stop-opacity="1" style="stop-color:rgb(255,200,48)"/><stop offset="36.8%" stop-opacity="1" style="stop-color:rgb(255,152,14)"/><stop offset="40.1%" stop-opacity="1" style="stop-color:rgb(255,139,22)"/><stop offset="46.2%" stop-opacity="1" style="stop-color:rgb(255,103,42)"/><stop offset="53.400000000000006%" stop-opacity="1" style="stop-color:rgb(255,54,71)"/><stop offset="70.5%" stop-opacity="1" style="stop-color:rgb(227,21,135)"/></linearGradient><path d=" M 60.738 21.489 C 59.391 18.246 56.656 14.744 54.515 13.637 C 56.042 16.594 57.102 19.769 57.657 23.05 L 57.662 23.102 C 54.155 14.362 48.21 10.832 43.351 3.156 C 43.105 2.768 42.86 2.379 42.62 1.968 C 42.484 1.734 42.374 1.522 42.279 1.328 C 42.077 0.938 41.922 0.525 41.816 0.099 C 41.816 0.058 41.786 0.024 41.746 0.019 C 41.726 0.014 41.706 0.014 41.687 0.019 C 41.683 0.019 41.677 0.026 41.672 0.028 C 41.667 0.03 41.657 0.037 41.649 0.04 L 41.661 0.019 C 33.87 4.581 31.224 13.026 30.984 17.252 C 27.871 17.465 24.895 18.612 22.444 20.542 C 22.188 20.326 21.921 20.123 21.643 19.936 C 20.937 17.462 20.906 14.843 21.556 12.353 C 18.694 13.74 16.152 15.705 14.089 18.124 L 14.075 18.124 C 12.845 16.566 12.932 11.427 13.002 10.354 C 12.638 10.5 12.291 10.685 11.966 10.904 C 10.881 11.678 9.866 12.548 8.934 13.501 C 7.872 14.578 6.902 15.742 6.035 16.981 L 6.035 16.985 L 6.035 16.98 C 4.04 19.807 2.626 23 1.872 26.377 L 1.831 26.581 C 1.772 26.854 1.562 28.222 1.526 28.518 C 1.526 28.542 1.521 28.563 1.519 28.587 C 1.247 29.998 1.079 31.427 1.015 32.863 L 1.015 33.023 C 1.044 49.115 13.372 62.515 29.406 63.88 C 45.44 65.246 59.857 54.125 62.607 38.269 C 62.659 37.869 62.701 37.473 62.747 37.068 C 63.386 31.787 62.695 26.43 60.735 21.484 L 60.738 21.489 Z  M 24.984 45.774 C 25.129 45.843 25.265 45.919 25.414 45.985 L 25.436 45.999 Q 25.21 45.891 24.984 45.774 Z  M 57.663 23.111 L 57.663 23.081 L 57.669 23.114 L 57.663 23.111 Z " fill="url(#_lgradient_0)"/><radialGradient id="_rgradient_0" fx="0.8653148476337492" fy="-0.12747499217653357" cx="0.8653148476337492" cy="-0.12747499217653357" r="1" gradientTransform="matrix(61.963,0,0,50.357,1.022,13.637)" gradientUnits="userSpaceOnUse"><stop offset="12.9%" stop-opacity="1" style="stop-color:rgb(255,189,79)"/><stop offset="18.6%" stop-opacity="1" style="stop-color:rgb(255,172,49)"/><stop offset="24.7%" stop-opacity="1" style="stop-color:rgb(255,157,23)"/><stop offset="28.299999999999997%" stop-opacity="1" style="stop-color:rgb(255,152,14)"/><stop offset="40.300000000000004%" stop-opacity="1" style="stop-color:rgb(255,86,59)"/><stop offset="46.7%" stop-opacity="1" style="stop-color:rgb(255,55,80)"/><stop offset="71%" stop-opacity="1" style="stop-color:rgb(245,21,108)"/><stop offset="78.2%" stop-opacity="1" style="stop-color:rgb(235,8,120)"/><stop offset="86%" stop-opacity="1" style="stop-color:rgb(229,0,128)"/></radialGradient><path d=" M 60.738 21.489 C 59.391 18.246 56.656 14.744 54.515 13.637 C 56.042 16.594 57.102 19.769 57.657 23.05 L 57.657 23.08 L 57.662 23.113 C 60.054 29.955 59.708 37.458 56.697 44.051 C 53.142 51.68 44.539 59.499 31.068 59.115 C 16.517 58.703 3.694 47.901 1.301 33.758 C 0.865 31.527 1.301 30.396 1.52 28.583 C 1.221 29.992 1.054 31.425 1.022 32.864 L 1.022 33.024 C 1.05 49.116 13.378 62.515 29.413 63.881 C 45.447 65.247 59.863 54.126 62.613 38.27 C 62.665 37.87 62.707 37.473 62.754 37.069 C 63.393 31.788 62.701 26.431 60.742 21.485 L 60.738 21.489 Z " fill="url(#_rgradient_0)"/><radialGradient id="_rgradient_1" fx="0.47779103099476206" fy="0.3970480429638169" cx="0.47779103099476206" cy="0.3970480429638169" r="1" gradientTransform="matrix(61.963,0,0,50.357,1.022,13.637)" gradientUnits="userSpaceOnUse"><stop offset="30%" stop-opacity="1" style="stop-color:rgb(150,14,24)"/><stop offset="35.099999999999994%" stop-opacity="0.74" style="stop-color:rgb(177,25,39)"/><stop offset="43.5%" stop-opacity="0.343" style="stop-color:rgb(219,41,61)"/><stop offset="49.7%" stop-opacity="0.094" style="stop-color:rgb(245,51,75)"/><stop offset="53%" stop-opacity="0" style="stop-color:rgb(255,55,80)"/></radialGradient><path d=" M 60.738 21.489 C 59.391 18.246 56.656 14.744 54.515 13.637 C 56.042 16.594 57.102 19.769 57.657 23.05 L 57.657 23.08 L 57.662 23.113 C 60.054 29.955 59.708 37.458 56.697 44.051 C 53.142 51.68 44.539 59.499 31.068 59.115 C 16.517 58.703 3.694 47.901 1.301 33.758 C 0.865 31.527 1.301 30.396 1.52 28.583 C 1.221 29.992 1.054 31.425 1.022 32.864 L 1.022 33.024 C 1.05 49.116 13.378 62.515 29.413 63.881 C 45.447 65.247 59.863 54.126 62.613 38.27 C 62.665 37.87 62.707 37.473 62.754 37.069 C 63.393 31.788 62.701 26.431 60.742 21.485 L 60.738 21.489 Z " fill="url(#_rgradient_1)"/><radialGradient id="_rgradient_2" fx="0.514556314911478" fy="-0.2851982127578666" cx="0.514556314911478" cy="-0.2851982127578666" r="1" gradientTransform="matrix(14.874,0,0,25.258,30.978,0.014)" gradientUnits="userSpaceOnUse"><stop offset="13.200000000000001%" stop-opacity="1" style="stop-color:rgb(255,244,79)"/><stop offset="25.2%" stop-opacity="1" style="stop-color:rgb(255,220,62)"/><stop offset="50.6%" stop-opacity="1" style="stop-color:rgb(255,157,18)"/><stop offset="52.6%" stop-opacity="1" style="stop-color:rgb(255,152,14)"/></radialGradient><path d=" M 45.659 25.131 C 45.726 25.178 45.788 25.226 45.852 25.273 C 45.072 23.891 44.102 22.626 42.97 21.515 C 33.325 11.87 40.443 0.608 41.643 0.032 L 41.655 0.014 C 33.863 4.577 31.218 13.021 30.978 17.247 C 31.339 17.222 31.698 17.192 32.068 17.192 C 37.695 17.203 42.884 20.233 45.659 25.13 L 45.659 25.131 Z " fill="url(#_rgradient_2)"/><radialGradient id="_rgradient_3" fx="0.19318577901707923" fy="1.100628798177371" cx="0.19318577901707923" cy="1.100628798177371" r="1" gradientTransform="matrix(27.556,0,0,30.21,18.1,17.19)" gradientUnits="userSpaceOnUse"><stop offset="35.3%" stop-opacity="1" style="stop-color:rgb(58,142,230)"/><stop offset="47.199999999999996%" stop-opacity="1" style="stop-color:rgb(92,121,240)"/><stop offset="66.9%" stop-opacity="1" style="stop-color:rgb(144,89,255)"/><stop offset="100%" stop-opacity="1" style="stop-color:rgb(193,57,230)"/></radialGradient><path d=" M 32.084 27.06 C 32.033 27.832 29.306 30.493 28.353 30.493 C 19.533 30.493 18.1 35.829 18.1 35.829 C 18.49 40.323 21.622 44.026 25.407 45.979 C 25.58 46.068 25.755 46.149 25.93 46.228 Q 26.386 46.43 26.841 46.601 C 28.14 47.061 29.501 47.323 30.878 47.38 C 46.341 48.105 49.335 28.891 38.177 23.312 C 40.809 22.969 43.474 23.617 45.656 25.128 C 42.882 20.232 37.693 17.201 32.065 17.19 C 31.697 17.19 31.337 17.221 30.975 17.246 C 27.862 17.459 24.886 18.606 22.435 20.536 C 22.908 20.936 23.442 21.471 24.566 22.579 C 26.671 24.653 32.07 26.802 32.082 27.054 L 32.084 27.06 Z " fill="url(#_rgradient_3)"/><radialGradient id="_rgradient_4" fx="0.568113163703946" fy="0.3604644760406459" cx="0.568113163703946" cy="0.3604644760406459" r="1" gradientTransform="matrix(27.556,0,0,30.21,18.1,17.19)" gradientUnits="userSpaceOnUse"><stop offset="20.599999999999998%" stop-opacity="0" style="stop-color:rgb(144,89,255)"/><stop offset="27.800000000000004%" stop-opacity="0.064" style="stop-color:rgb(140,79,243)"/><stop offset="74.7%" stop-opacity="0.45" style="stop-color:rgb(119,22,168)"/><stop offset="97.5%" stop-opacity="0.6" style="stop-color:rgb(110,0,139)"/></radialGradient><path d=" M 32.084 27.06 C 32.033 27.832 29.306 30.493 28.353 30.493 C 19.533 30.493 18.1 35.829 18.1 35.829 C 18.49 40.323 21.622 44.026 25.407 45.979 C 25.58 46.068 25.755 46.149 25.93 46.228 Q 26.386 46.43 26.841 46.601 C 28.14 47.061 29.501 47.323 30.878 47.38 C 46.341 48.105 49.335 28.891 38.177 23.312 C 40.809 22.969 43.474 23.617 45.656 25.128 C 42.882 20.232 37.693 17.201 32.065 17.19 C 31.697 17.19 31.337 17.221 30.975 17.246 C 27.862 17.459 24.886 18.606 22.435 20.536 C 22.908 20.936 23.442 21.471 24.566 22.579 C 26.671 24.653 32.07 26.802 32.082 27.054 L 32.084 27.06 Z " fill="url(#_rgradient_4)"/><radialGradient id="_rgradient_5" fx="2.0849756304301774" fy="-0.9941940251240382" cx="2.0849756304301774" cy="-0.9941940251240382" r="1" gradientTransform="matrix(7.554,0,0,7.582,14.076,12.355)" gradientUnits="userSpaceOnUse"><stop offset="0%" stop-opacity="1" style="stop-color:rgb(255,226,38)"/><stop offset="12.1%" stop-opacity="1" style="stop-color:rgb(255,219,39)"/><stop offset="29.5%" stop-opacity="1" style="stop-color:rgb(255,200,42)"/><stop offset="50.2%" stop-opacity="1" style="stop-color:rgb(255,169,48)"/><stop offset="73.2%" stop-opacity="1" style="stop-color:rgb(255,126,55)"/><stop offset="79.2%" stop-opacity="1" style="stop-color:rgb(255,113,57)"/></radialGradient><path d=" M 20.99 19.512 C 21.241 19.672 21.449 19.812 21.63 19.937 C 20.924 17.463 20.894 14.845 21.543 12.355 C 18.682 13.741 16.139 15.706 14.076 18.126 C 14.228 18.122 18.727 18.041 20.99 19.512 Z " fill="url(#_rgradient_5)"/><radialGradient id="_rgradient_6" fx="0.7969679468665285" fy="-0.40924947419380475" cx="0.7969679468665285" cy="-0.40924947419380475" r="1" gradientTransform="matrix(58.091,0,0,48.764,1.139,10.366)" gradientUnits="userSpaceOnUse"><stop offset="11.3%" stop-opacity="1" style="stop-color:rgb(255,244,79)"/><stop offset="45.6%" stop-opacity="1" style="stop-color:rgb(255,152,14)"/><stop offset="62.2%" stop-opacity="1" style="stop-color:rgb(255,86,52)"/><stop offset="71.6%" stop-opacity="1" style="stop-color:rgb(255,54,71)"/><stop offset="90.4%" stop-opacity="1" style="stop-color:rgb(227,21,135)"/></radialGradient><path d=" M 1.295 33.76 C 3.689 47.903 16.511 58.708 31.062 59.116 C 44.533 59.497 53.138 51.677 56.692 44.053 C 59.702 37.459 60.048 29.957 57.657 23.114 L 57.657 23.085 C 57.657 23.061 57.652 23.048 57.657 23.055 L 57.662 23.107 C 58.763 30.292 55.108 37.25 49.394 41.965 L 49.377 42.005 C 38.243 51.073 27.59 47.475 25.436 46.007 Q 25.211 45.899 24.985 45.782 C 18.494 42.679 15.812 36.769 16.389 31.694 C 13.241 31.741 10.361 29.929 9.04 27.072 C 12.505 24.95 16.822 24.776 20.446 26.614 C 24.119 28.282 28.299 28.446 32.092 27.072 C 32.08 26.82 26.681 24.671 24.576 22.598 C 23.451 21.489 22.918 20.955 22.444 20.554 C 22.189 20.338 21.922 20.135 21.644 19.948 C 21.46 19.822 21.253 19.686 21.004 19.523 C 18.741 18.052 14.241 18.132 14.092 18.136 L 14.078 18.136 C 12.848 16.578 12.935 11.439 13.005 10.366 C 12.642 10.512 12.294 10.697 11.97 10.916 C 10.884 11.69 9.87 12.56 8.938 13.513 C 7.872 14.587 6.898 15.748 6.026 16.985 L 6.026 16.989 L 6.026 16.984 C 4.032 19.811 2.617 23.004 1.864 26.381 C 1.848 26.444 0.746 31.262 1.29 33.761 L 1.295 33.76 Z " fill="url(#_rgradient_6)"/><radialGradient id="_rgradient_7" fx="0.07991328711497325" fy="-0.10367639109864364" cx="0.07991328711497325" cy="-0.10367639109864364" r="1" gradientTransform="matrix(19.86,0,0,41.953,37.992,0)" gradientUnits="userSpaceOnUse"><stop offset="0%" stop-opacity="1" style="stop-color:rgb(255,244,79)"/><stop offset="6%" stop-opacity="1" style="stop-color:rgb(255,232,71)"/><stop offset="16.8%" stop-opacity="1" style="stop-color:rgb(255,200,48)"/><stop offset="30.4%" stop-opacity="1" style="stop-color:rgb(255,152,14)"/><stop offset="35.6%" stop-opacity="1" style="stop-color:rgb(255,139,22)"/><stop offset="45.5%" stop-opacity="1" style="stop-color:rgb(255,103,42)"/><stop offset="56.99999999999999%" stop-opacity="1" style="stop-color:rgb(255,54,71)"/><stop offset="73.7%" stop-opacity="1" style="stop-color:rgb(227,21,135)"/></radialGradient><path d=" M 42.969 21.513 C 44.102 22.626 45.072 23.892 45.851 25.275 C 46.021 25.404 46.181 25.532 46.316 25.656 C 53.349 32.14 49.664 41.304 49.389 41.953 C 55.103 37.245 58.754 30.283 57.658 23.095 C 54.149 14.346 48.197 10.817 43.346 3.141 C 43.101 2.753 42.855 2.364 42.616 1.953 C 42.479 1.718 42.369 1.507 42.274 1.313 C 42.072 0.922 41.917 0.51 41.811 0.084 C 41.811 0.043 41.781 0.009 41.741 0.004 C 41.722 -0.001 41.701 -0.001 41.682 0.004 C 41.678 0.004 41.672 0.011 41.667 0.013 C 41.662 0.014 41.652 0.022 41.645 0.025 C 40.445 0.594 33.328 11.863 42.973 21.5 L 42.969 21.513 Z " fill="url(#_rgradient_7)"/><radialGradient id="_rgradient_8" fx="0.17542808187812242" fy="-0.4210618708735907" cx="0.17542808187812242" cy="-0.4210618708735907" r="1" gradientTransform="matrix(25.19,0,0,24.724,25.408,23.231)" gradientUnits="userSpaceOnUse"><stop offset="13.700000000000001%" stop-opacity="1" style="stop-color:rgb(255,244,79)"/><stop offset="48%" stop-opacity="1" style="stop-color:rgb(255,152,14)"/><stop offset="59.199999999999996%" stop-opacity="1" style="stop-color:rgb(255,86,52)"/><stop offset="65.5%" stop-opacity="1" style="stop-color:rgb(255,54,71)"/><stop offset="90.4%" stop-opacity="1" style="stop-color:rgb(227,21,135)"/></radialGradient><path d=" M 46.315 25.659 C 46.18 25.535 46.021 25.407 45.85 25.278 C 45.787 25.231 45.724 25.184 45.657 25.137 C 43.475 23.625 40.809 22.978 38.177 23.321 C 49.335 28.899 46.341 48.109 30.878 47.389 C 29.502 47.332 28.141 47.07 26.842 46.61 Q 26.386 46.44 25.931 46.237 C 25.756 46.157 25.58 46.077 25.408 45.987 L 25.429 46.001 C 27.586 47.473 38.236 51.069 49.369 41.999 L 49.387 41.959 C 49.665 41.311 53.35 32.146 46.313 25.663 L 46.315 25.659 Z " fill="url(#_rgradient_8)"/><radialGradient id="_rgradient_9" fx="1.5617708333333333" fy="-0.45094409245765" cx="1.5617708333333333" cy="-0.45094409245765" r="1" gradientTransform="matrix(23.052,0,0,20.644,9.033,25.332)" gradientUnits="userSpaceOnUse"><stop offset="9.4%" stop-opacity="1" style="stop-color:rgb(255,244,79)"/><stop offset="23.1%" stop-opacity="1" style="stop-color:rgb(255,225,65)"/><stop offset="50.9%" stop-opacity="1" style="stop-color:rgb(255,175,30)"/><stop offset="62.6%" stop-opacity="1" style="stop-color:rgb(255,152,14)"/></radialGradient><path d=" M 18.101 35.825 C 18.101 35.825 19.533 30.488 28.354 30.488 C 29.307 30.488 32.036 27.827 32.085 27.055 C 28.292 28.429 24.112 28.265 20.439 26.597 C 16.815 24.76 12.497 24.933 9.033 27.055 C 10.354 29.913 13.234 31.724 16.381 31.678 C 15.807 36.75 18.488 42.659 24.978 45.765 C 25.123 45.834 25.259 45.91 25.408 45.976 C 21.619 44.019 18.491 40.318 18.101 35.827 L 18.101 35.825 Z " fill="url(#_rgradient_9)"/><linearGradient id="_lgradient_1" x1="0.8874812099454991" y1="0.15079804899746907" x2="0.19146185404709604" y2="0.8469445549426198" gradientTransform="matrix(61.963,0,0,63.985,1.017,0.015)" gradientUnits="userSpaceOnUse"><stop offset="16.7%" stop-opacity="0.8" style="stop-color:rgb(255,244,79)"/><stop offset="26.6%" stop-opacity="0.634" style="stop-color:rgb(255,244,79)"/><stop offset="48.9%" stop-opacity="0.217" style="stop-color:rgb(255,244,79)"/><stop offset="60%" stop-opacity="0" style="stop-color:rgb(255,244,79)"/></linearGradient><path d=" M 60.738 21.489 C 59.391 18.246 56.656 14.744 54.515 13.637 C 56.042 16.594 57.102 19.769 57.657 23.05 L 57.662 23.102 C 54.155 14.362 48.21 10.832 43.351 3.156 C 43.105 2.768 42.86 2.379 42.62 1.968 C 42.484 1.734 42.374 1.522 42.279 1.328 C 42.077 0.938 41.922 0.525 41.816 0.099 C 41.816 0.058 41.786 0.024 41.746 0.019 C 41.726 0.014 41.706 0.014 41.687 0.019 C 41.683 0.019 41.677 0.026 41.672 0.028 C 41.667 0.03 41.657 0.037 41.649 0.04 L 41.661 0.019 C 33.87 4.581 31.224 13.026 30.984 17.252 C 31.346 17.227 31.704 17.197 32.074 17.197 C 37.702 17.208 42.891 20.238 45.665 25.134 C 43.483 23.623 40.817 22.976 38.185 23.318 C 49.343 28.897 46.349 48.107 30.886 47.386 C 29.51 47.33 28.149 47.067 26.85 46.608 Q 26.395 46.437 25.939 46.235 C 25.764 46.155 25.588 46.075 25.416 45.985 L 25.437 45.999 Q 25.212 45.891 24.986 45.774 C 25.131 45.843 25.267 45.919 25.416 45.985 C 21.627 44.027 18.499 40.326 18.109 35.836 C 18.109 35.836 19.541 30.499 28.362 30.499 C 29.315 30.499 32.044 27.838 32.093 27.067 C 32.081 26.814 26.682 24.665 24.577 22.592 C 23.452 21.484 22.918 20.95 22.445 20.549 C 22.19 20.332 21.922 20.13 21.645 19.942 C 20.938 17.468 20.908 14.85 21.558 12.36 C 18.696 13.746 16.153 15.711 14.091 18.131 L 14.076 18.131 C 12.847 16.572 12.933 11.434 13.004 10.36 C 12.64 10.507 12.293 10.691 11.968 10.91 C 10.883 11.685 9.868 12.554 8.936 13.508 C 7.874 14.584 6.904 15.748 6.036 16.987 L 6.036 16.992 L 6.036 16.986 C 4.042 19.813 2.627 23.007 1.874 26.383 L 1.832 26.588 C 1.774 26.861 1.512 28.247 1.475 28.545 C 1.235 29.976 1.082 31.42 1.017 32.869 L 1.017 33.03 C 1.045 49.122 13.373 62.521 29.408 63.887 C 45.442 65.252 59.859 54.131 62.608 38.275 C 62.66 37.875 62.703 37.479 62.749 37.075 C 63.388 31.794 62.696 26.437 60.737 21.491 L 60.738 21.489 Z  M 57.661 23.083 L 57.666 23.116 L 57.661 23.083 Z " fill="url(#_lgradient_1)"/></g></svg>