<svg xmlns="http://www.w3.org/2000/svg" width="400" height="495" version="1.2"><path d="M.5 174.7V.4H400v174.3c.6 163.5-72.1 265-199.8 319.9C72.6 439.7-.1 338.2.5 174.7z" style="fill:#000200"/><path fill-rule="evenodd" d="M200.2 475.7c-31.2-14.2-58.7-31.4-82.2-51.9h164.5c-23.5 20.5-51.1 37.7-82.3 51.9zM64.8 361.4h270.9c11-18 20.1-37.6 27.2-58.9H37.6c7.1 21.3 16.2 40.9 27.2 58.9zM23.2 240.1h354.1q3.9-27.9 4.2-58.9H19q.3 31 4.2 58.9zm182.2-121.3h176V59.9h-176zM19 165.9h170.7V19.4H19z" style="fill:#c52613"/><path d="M107.6 133.7c-5.4 3.5-20.7 3.5-27.6 2.4-8.5-1.5-16.6-5.4-22.2-9.6-10.2-7.7-20.7-21.5-24.4-39.3.1 0 .3-.2.3-.1s.2-.1.3-.1c3.5-1.6 4.1-2.2 6.6-7 1.8-3.3 3.1-6.2 4.9-9.5 2.8-5 8.5-12.7 12.9-16.2 5.1-4.1 10.4-8.1 18.2-10.8 3.6-1.2 23.6-6.3 25.7-2.1 1.9 3.9 1.3 16.5-.1 21.8-.3 1-.5 1.9-1.2 2.6-1.5-2.9-2.6-5.3-4.6-6.9-1.6-1.4-4.6-3.3-7.7-4-6.9-1.7-13.8.3-19.1 3.3-24.4 14.2-21.2 65 17.7 68.8 8.8.9 13-.8 20.3-3.1zm17.8-101.1c14.6 6.7 22.2 18.2 29 34.5-1.4 1.1-2.6.7-4.1 2.7-2.9 3.7-4.7 14.7-11.9 23-1.6 1.9-2.2 1.7-5.2 1.6-2.2 0-4.5.2-6.7-.1 2-2 4.4-5.7 5.9-9.5 1.5-4.1 2.3-8.8 2.2-13.5-.2-19.3-11.8-31.2-30.5-33.8-12.8-1.7-18.1 1-28.4 3.3l-6-16c4.6 1.2 8 2.4 13.2 2.6 14.4.7 27.5-1.7 42.5 5.2zm-36 91.6c-3.9.1-10.3-1.5-13-3V58.3c3.6-1.6 9-1.4 12.8-.4l.2 38.5c23.1 1.5 29.1 6.1 42 22.4 8.2 10.3 15.9 28 32.1 21.2 1.9-.8 3.9-2.3 5.3-2.8-1.2 9.7-9.7 18-17 21.2-4.5 2-6.7-1.8-10.8-6.5-17.4-20.2-20.9-45.8-51.5-44.8zm19.7 24.1c2.2-6.2 1.5-25.1 1.4-32.4 2.3 1.2 5.8 5.5 7.7 8 4.1 5.5 5.3 6.2 5.3 11-.1 7.1 0 14.4 4.4 20l4.3 4.2c-9.6 1.7-21.9 1.9-27.6-4.5 1.9-2.4 3.1-2.4 4.5-6.3zm55.5-97.5c6.7-1.5 7.5-4.7 9.3-6.2 1.7 6 2 12.3-.1 18.4-1.7 4.7-5.7 10-9.9 11.1.7-5.9-1.9-11-6.6-12.1-2.2-.5-1.9.3-3-1.7-.6-1.2-.9-2.1-1.5-3.2-1.1-2.1-2.4-3.8-3.2-5.8 4.6 0 10.7.4 15-.5zm-50-.1c3.9.6 7.2.6 11.1.6 1.8 2.2 4.2 7 4.8 10.3l-6.9.1-.1 35.5c5 .2 25.6.6 30.1-.8 3.1-1 4-2 6-3.8l.4-.4c3.6 6.4 1.3 23.4-9.8 28 .6-20.2-21-9.2-25.6-13.5-3-2.9-4.7-4.8-8.5-7-1.9-1.1-3.7-1.6-5.5-2.6-.6-8.3-.1-18.2-.1-26.6 0-14-.9-9.6-5-22 1 0 6.9 1.9 9.1 2.2zM75 148.4c1.1-2.9 1.4-6.7 1.4-10 .6 0 8.1 1.2 12.8 1.3 1.9 6.9-.8 10.8 7.8 18.2 0 .1.3.3.4.4.4.4.3.2.6.6-5.7 2.6-21.7 2-27.5-4.3 1.6-2.2 3.2-2.5 4.5-6.2z" style="fill:#fff"/></svg>