<svg xmlns="http://www.w3.org/2000/svg" width="85.509" height="32.689" viewBox="0 0 22.624 8.649"><path d="M138.471 152.824c-6.205 0-11.18 1.86-11.18 4.192 0 2.318 5.016 4.193 11.18 4.193 6.165 0 11.18-1.881 11.18-4.193 0-2.311-5.015-4.192-11.18-4.192" style="fill:#003478;fill-opacity:1;fill-rule:nonzero;stroke:none;stroke-width:.07763386" transform="translate(-127.16 -152.692)"/><path d="M142.875 157.904c.003.02.028.038.053.047.009.003.013.009.004.03-.07.148-.134.234-.221.364-.08.12-.17.213-.28.303-.165.137-.395.286-.584.186-.085-.044-.121-.162-.12-.257.005-.269.124-.544.344-.815.27-.33.566-.502.761-.408.202.096.137.33.047.513a.051.051 0 0 0-.004.037m2.164-2.09c.015-.026 0-.044-.033-.044h-.565c-.042 0-.063.005-.083.044-.065.124-.854 1.307-1.001 1.537-.025.035-.055.03-.059-.01-.015-.136-.132-.293-.318-.368a.81.81 0 0 0-.424-.049c-.26.035-.49.172-.694.326-.307.233-.571.536-.913.759-.186.121-.441.227-.612.069-.155-.143-.137-.462.1-.708.024-.026.054-.004.05.02a.312.312 0 0 0 .089.299c.103.092.25.103.377.041a.494.494 0 0 0 .262-.379.43.43 0 0 0-.395-.49c-.197-.014-.386.054-.57.206a1.09 1.09 0 0 0-.223.246c-.02.028-.05.03-.049-.01.01-.322-.123-.503-.39-.509-.206-.005-.426.107-.598.244-.189.152-.353.352-.53.54-.022.024-.041.023-.047-.022a1.083 1.083 0 0 0-.158-.566.131.131 0 0 0-.17-.042c-.028.015-.127.06-.2.119-.035.03-.05.072-.034.127.096.318.075.68-.054.986-.12.28-.35.533-.62.618-.179.057-.365.029-.48-.13-.157-.218-.093-.597.142-.913.207-.277.507-.454.806-.567.036-.014.043-.037.033-.067-.016-.049-.042-.116-.053-.146-.027-.073-.104-.085-.198-.075-.217.025-.414.1-.607.204-.508.271-.762.797-.874 1.078a1.1 1.1 0 0 1-.159.295c-.08.1-.18.192-.364.353a.064.064 0 0 0-.015.074.799.799 0 0 0 .142.186c.03.015.064-.006.078-.016.129-.087.282-.225.357-.319.027-.032.054-.018.068.03a.79.79 0 0 0 .508.541c.465.157.948-.07 1.312-.466.232-.25.315-.412.404-.522.15-.187.447-.603.8-.871.13-.099.283-.174.36-.124.062.04.082.133-.017.314-.36.658-.89 1.43-.987 1.618-.018.032-.002.058.031.058h.547c.028-.001.041-.015.055-.035.277-.433.537-.845.816-1.27.015-.025.03-.006.03.005.006.098.03.234.09.322a.483.483 0 0 0 .42.236.788.788 0 0 0 .34-.072c.116-.043.209-.099.28-.15.042-.029.049.02.048.027-.064.344.015.75.356.92.409.2.858-.082 1.116-.338.025-.025.052-.022.055.031.006.098.05.214.13.295.217.217.654.13 1.092-.209.281-.217.576-.524.842-.849.01-.012.017-.032-.002-.053-.04-.042-.1-.09-.14-.128-.018-.016-.045-.011-.06 0-.273.26-.518.555-.873.8-.12.083-.31.15-.396.035-.033-.045-.03-.107.003-.189.104-.258 1.741-2.75 1.826-2.898" style="fill:#fff;fill-opacity:1;fill-rule:nonzero;stroke:none;stroke-width:.07763386" transform="translate(-127.16 -152.692)"/><path d="M137.336 156.115c.007.037.021.044.038.04a.401.401 0 0 0 .229-.164c.049-.072.072-.176.023-.218-.043-.037-.114-.027-.167.02a.371.371 0 0 0-.123.322m-4.173 3.209c-.611.004-1.149-.373-1.21-1.027a1.318 1.318 0 0 1 .272-.95c.182-.237.49-.433.75-.481.085-.016.198-.006.245.05.074.086.053.18-.02.218-.2.101-.438.275-.557.512a.628.628 0 0 0 .032.649c.245.37.928.38 1.564-.21.157-.145.298-.284.441-.448.28-.32.373-.437.745-.953.004-.006.006-.013.004-.017-.003-.007-.008-.008-.02-.01a1.147 1.147 0 0 0-.675.239c-.06.044-.147.038-.186-.02-.042-.066-.012-.152.058-.2.339-.236.709-.278 1.086-.342 0 0 .027.001.048-.027.155-.2.272-.379.438-.58.166-.204.381-.392.546-.533.23-.197.376-.263.526-.345.04-.02-.005-.045-.017-.045-.835-.157-1.703-.36-2.532-.053-.574.214-.826.67-.705.974.086.216.37.251.636.12.22-.107.425-.282.57-.506.08-.124.251-.035.16.182-.243.57-.707 1.022-1.271 1.041-.48.016-.79-.337-.79-.774.002-.86.96-1.426 1.966-1.51 1.212-.101 2.36.222 3.563.368.922.111 1.806.114 2.732-.1.11-.023.187.047.18.158-.01.16-.133.313-.439.48-.347.19-.71.248-1.089.251-.917.008-1.771-.35-2.655-.542 0 .039.011.085-.021.11-.49.36-.933.727-1.229 1.243-.01.011-.005.023.013.022.257-.014.489-.02.729-.04.042-.004.043-.014.04-.045a.597.597 0 0 1 .186-.519c.16-.143.36-.16.493-.056.151.117.138.329.055.487a.588.588 0 0 1-.356.289s-.028.006-.024.031c.005.04.187.141.203.168.015.026.007.065-.02.095a.115.115 0 0 1-.088.042c-.032 0-.05-.011-.09-.033a.856.856 0 0 1-.251-.202c-.023-.029-.035-.03-.093-.026-.26.015-.665.054-.94.089-.067.008-.076.02-.09.043-.438.723-.906 1.501-1.419 2.023-.55.559-1.008.706-1.494.71" style="fill:#fff;fill-opacity:1;fill-rule:nonzero;stroke:none;stroke-width:.07763386" transform="translate(-127.16 -152.692)"/><path d="M138.471 153.51c-5.709 0-10.336 1.577-10.336 3.508 0 1.93 4.627 3.508 10.336 3.508 5.709 0 10.336-1.578 10.336-3.508s-4.627-3.508-10.336-3.508m0 7.334c-5.916 0-10.713-1.713-10.713-3.826 0-2.114 4.797-3.826 10.713-3.826 5.916 0 10.712 1.712 10.712 3.826 0 2.113-4.796 3.826-10.712 3.826" style="fill:#fff;fill-opacity:1;fill-rule:nonzero;stroke:none;stroke-width:.07763386" transform="translate(-127.16 -152.692)"/></svg>