<svg xmlns="http://www.w3.org/2000/svg" width="512pt" height="512pt" style="isolation:isolate" viewBox="0 0 512 512"><defs><clipPath id="a"><path d="M0 0h512v512H0z"/></clipPath></defs><g clip-path="url(#a)"><path fill="#1A4658" d="M428.582 491.043C428.582 502.617 351.315 512 256 512s-172.582-9.383-172.582-20.957c0-11.575 90.639-20.956 172.582-20.956 97.543 0 172.582 9.381 172.582 20.956Z"/><path fill="#EDF7FA" d="M417.9 339.83c-5.342 0-11.095-2.466-15.205-21.367-4.11-18.902-10.273-38.215-10.273-38.215 6.576 0 10.273-2.877 10.273-2.877-4.521-2.056-14.383-9.04-20.956-17.669-6.574-8.629-23.423-22.601-23.423-22.601V209.16c0-18.903 12.123-33.694 12.123-33.694-8.217 0-12.123 7.395-12.123 7.395v-39.858c0-39.448 19.929-57.115 19.929-57.115-6.164-.41-10.273 2.465-10.273 2.465 2.877-29.173 11.815-37.803 11.815-37.803-32.872-8.63-51.21 10.683-51.21 10.683-3.698-17.668 10.761-27.945 10.761-27.945-16.846-3.698-30.78 1.233-30.78 1.233C308.558 8.634 318.85 0 318.85 0c-51.365 0-80.528 38.621-80.528 38.621-2.054-16.438 2.469-30.834 2.469-30.834-49.719 20.957-62.865 67.366-62.865 67.366-3.286-7.806-3.697-25.53-3.697-25.53s-20.546 34.414-24.244 58.246c-3.698 23.833 3.287 92.25 3.287 92.25s-3.286-4.108-10.272-4.929c0 0 7.396 8.218 7.396 26.709 0 0-2.877-2.466-7.807-1.233 0 0 7.806 6.985 8.629 18.901 0 0-9.04 6.164-13.971 12.328 0 0-7.808.411-11.917 1.644 0 0 6.575 3.698 7.808 6.985 0 0-19.313 19.724-29.175 35.749 0 0 8.63-5.341 14.793-3.698 0 0-13.561 16.436-18.081 43.556 0 0 6.575-3.286 9.451-1.643 0 0-8.218 17.257-8.629 35.338l-9.039 5.342 6.985 4.931s-5.342 22.189-6.575 34.927c0 0 4.109-4.108 7.396-5.341 0 0 4.521 10.682 10.685 18.901 6.164 8.219 20.136 15.204 28.353 15.204l15.446-.602c-1.916 8.266-5.695 15.276-13.661 15.643l-.884 1.419a9.264 9.264 0 0 0-.491-.024c-.158 2.414-5.029 2.849-6.369 4.521-4.072 5.081-7.178 12.061-9.246 18.285-1.515 4.561-.799 4.56-1.849 9.246-.343 1.533-1.934 3.171-2.465 4.724 4.437-1.49 16.733-2.485 23.21-2.961l.109 5.733s1.068.993 2.837 1.713c.061-.012.12-.029.194-.023.6.049 1.18.137 1.748.278 9.719-.869 16.486.77 27.752-.165 2.192-.261 4.247-.569 6.166-1.661.545-1.63.618-1.73.875-3.835.055-.376.055-.762.146-1.219.176-.03.348-.055.52-.08.066-.025.17-.047.402-.056.048-.015.089-.037.143-.042l.535-.046a.557.557 0 0 1 .345-.029c2.039-.183 5.312-.355 7.351-.466 6.627-.011 15.345.752 15.345.752.539-7.427 1.078-18.952 13.098-52.544l2.979-1.848s36.916 13.007 71.169-.526c2.71 6.671 11.481 29.096 12.86 43.232 1.179 1.657 1.048 3.759 1.088 5.987.033 1.885.192 3.771.242 5.651 1.233-.168 5.68-.713 11.295-.704 2.038.111 5.311.283 7.351.466a.557.557 0 0 1 .345.029l.535.046c.054.005.095.027.143.042.231.009.336.031.403.056.171.025.342.05.519.08.09.457.09.843.146 1.219.256 2.105.329 2.205.875 3.835.176.1.354.186.532.275 6.133-.779 12.349-.921 18.521-.629 4.854.23 9.625 1.141 14.403 2.011.001.045.005.091.005.137.481.051.952.085 1.422.116 2.563.458 5.134.885 7.721 1.164.049-3.236.031-6.065-.036-8.55 5.146.246 12.595 1.271 15.72 1.726 1.24.297 2.246.48 3.302.707.144.043.295.086.426.129a1.364 1.364 0 0 1-.016-.037c1.061.239 2.204.54 3.714 1.065-.23-2.78-.209-2.722-.577-6.207-.283-2.696-2.216-10.884-5.832-14.262 0 0 3.94 1.703 5.143 2.381-3.884-5.262-5.773-12.785-17.975-17.972 0 0 2.229-1.051 4.266-1.316-2.129-1.312-3.756-1.828-5.911-1.672.732-2.08 3.955-7.327 6.659-8.001 0 0-1.66-1.153-4.374-.261a25.918 25.918 0 0 0-2.939 1.767c-.36.254-.885-.009-.991-.403-.854-3.155-1.408-6.361-1.912-9.58 24.59-.891 28.039-13.506 28.039-13.506 2.055 1.644 2.054 5.342 2.054 5.342 10.683-13.972 9.451-27.943 9.451-27.943 2.466.411 4.52 2.055 4.52 2.055 1.233-21.367-5.341-57.939-5.341-57.939 3.287 1.644 5.341-.41 5.341-.41-3.698-1.643-4.108-5.754-4.108-5.754 5.342.412 6.164-4.519 6.164-4.519Z"/><path fill="#CDE9EE" d="M182.82 494.862s.963-10.392-2.426-17.891c0 0 6.418.436 7.497 17.386 0 0-4.495.522-5.071.505Z"/><path d="m150.601 459.816.04-.319"/><path fill="#CDE9EE" d="m156.611 494.057-.058-.016s.026-.071.075-.195l-.017.211Z"/><path fill="#CDE9EE" d="M238.324 38.621c-2.054-16.438 2.469-30.834 2.469-30.834-49.72 20.957-62.867 67.366-62.867 67.366-3.286-7.806-3.697-25.53-3.697-25.53s-20.546 34.414-24.244 58.246c-3.698 23.833 3.287 92.25 3.287 92.25s-3.286-4.108-10.272-4.929c0 0 7.396 8.218 7.396 26.709 0 0-2.877-2.466-7.807-1.233 0 0 7.806 6.985 8.629 18.901 0 0-9.04 6.164-13.971 12.328 0 0-7.808.411-11.917 1.644 0 0 6.575 3.698 7.808 6.985 0 0-19.313 19.724-29.175 35.749 0 0 8.63-5.341 14.793-3.698 0 0-13.561 16.436-18.081 43.556 0 0 6.575-3.286 9.451-1.643 0 0-8.218 17.257-8.629 35.338l-9.039 5.342 6.985 4.931s-5.342 22.189-6.575 34.927c0 0 4.109-4.108 7.396-5.341 0 0 4.521 10.682 10.685 18.901 6.164 8.219 20.136 15.204 28.353 15.204l1.04-.142c-.458 2.833-.974 5.655-1.726 8.436-.106.394-.631.657-.991.403a25.755 25.755 0 0 0-2.94-1.767c-2.713-.892-4.373.261-4.373.261 2.704.674 5.926 5.921 6.66 8.001-2.157-.156-3.783.36-5.913 1.672 2.039.265 4.267 1.316 4.267 1.316-12.202 5.187-14.092 12.71-17.974 17.972 1.202-.678 5.142-2.381 5.142-2.381-3.616 3.378-5.548 11.566-5.832 14.262-.367 3.485-.348 3.427-.577 6.207 3.235-1.125 4.807-1.236 7.425-1.864 4.046-.589 15.354-2.139 19.507-1.708l-.654 7.989s.083 0 .203-.003c2.133-.612 3.87-.53 5.772-.734.028-2.202.143-4.402.324-6.595-.127-3.749.338-7.163 1.104-10.968.025-.128.057-.262.083-.39 1.509-5.195 4.133-8.152 5.837-9.972.566-.604 1.057-1.319 1.478-2.052a20.766 20.766 0 0 0 2.89-5.344c1.69-4.609.965-14.737-2.43-24.62 3.58 5.149 6.841 9.668 8.387 11.214l-.103-12.583s6.574 6.57 12.459 11.533c2.833 2.474 6.327 5.691 8.808 6.973.18.113.341-1.082.538.721h-.001c.025 0 .049-.357.075-.342 3.332 1.869 6.761 3.354 9.97 5.431.343.222.694.329 1.032.562 1.485 1.023 4.1 2.159 6.449 3.398l2.223 26.244c2.003-27.583 17.72-53.994 17.72-53.994l-.575-.177c-4.863-1.504-40.448-13.814-61.472-57.772-1.384-2.895 7.808 3.286 7.808 3.286-8.63-20.957-11.918-54.652-11.918-54.652 2.877 2.466 5.754 2.877 5.754 2.877-6.164-17.259-8.629-38.626-8.629-57.94-1.643-103.959 36.777-127.791 36.777-127.791-6.574-2.466-13.56-2.261-13.56-2.261 7.602-18.285 32.871-43.761 32.871-43.761-6.779.411-33.283 7.6-33.283 7.6 21.984-57.321 44.174-72.524 44.174-72.524-1.644 13.764 3.698 28.352 3.698 28.352 47.666-58.966 85.962-56.215 85.962-56.215C315.629 4.033 318.855 0 318.855 0c-51.364 0-80.531 38.621-80.531 38.621Zm134.734 455.916s-.464-14.896-3.853-22.395c0 0 8.835 5.445 8.784 22.651 0 0-4.355-.238-4.931-.256Z"/><path fill="#ABD8D7" d="M143.198 417.924c5.819-56.996 7.403-168.496 7.403-168.496-12.635 24.963-22.805 70.266-22.805 70.266l2.465 9.862-5.547-2.465c-8.916 30.942-2.883 72.362-.886 84.031 5.672 4.489 12.428 6.004 19.37 6.802Zm-11.919-1.232a896.88 896.88 0 0 0 5.762 26.968c1.542.232 3.275.116 3.275.116 1.414-5.511 1.649-14.04 2.748-24.531-4.051-.475-8.026-1.195-11.785-2.553Z"/><path fill="#CDE9EE" d="M324.391 465.807a.604.604 0 0 1-.719-.279c-.639.125-1.128.241-1.457.326l.001-.002c8.477-6.17 9.256-12.693 9.256-12.693-5.623 2.535-11.593 3.482-14.498 3.816 19.595-16.985 22.851-48.523 22.851-48.523-8.025 9.852-19.415 18.178-28.217 23.766l.019-.038s-5.898 3.298-11.348 5.866c-.239-.036-.479.028-.658.306-2.8 1.297-5.41 2.355-6.948 2.612 0 0 4.539 8.38 6.434 12.899l-.372.301s6.565 15.518 8.956 30.551c.252 2.54.447 4.766.583 6.466a81.93 81.93 0 0 0 .271 3.714c8.681-1.284 20.943-.033 20.943-.033-.059 1.414.718 4.809.861 5.424 4.122-.555 8.281-.798 12.442-.834-.056-14.57-.696-38.779-18.4-33.645Z"/><path fill="#83BAC0" d="M142.742 422.32c-13.613-2.302-25.967-17.948-25.967-17.948 9.926 10.555 22.283 11.968 22.283 11.968 1.631-12.053-8.332-39.642-8.332-39.642 7.379 9.189 11.415 19.817 13.622 28.517l-1.606 17.105Z"/><path fill="#ABD8D7" d="M173.638 400.977s10.709 18.876 20.109 27.043c10.144 8.813 19.569 21.265 23.576 28.815 0 0 5.085-11.812 7.858-15.922 0 0-30.047-8.809-51.543-39.936Zm139.783 36.816c1.489-2.095 3.194-4.042 4.82-6.031 2.665-3.263 5.71-6.431 7.948-9.982-3.862 2.89-8.163 5.394-12.559 8.039-12.76 8.646-21.649 11.094-21.649 11.094 2.773 4.11 7.858 15.922 7.858 15.922 2.425-4.569 6.841-10.934 12.195-17.203.449-.623.948-1.221 1.387-1.839Z"/><path fill="#545352" d="M169.575 119.878c-1.168.085-4.907.179-4.907.179-33.879 2.365-58.782-23.889-58.782-23.889s-2.226 20.494 12.491 38.451c14.722 17.958 44.553 21.031 44.553 21.031.969 4.2-1.13 13.565-1.13 13.565s8.722-9.65 10.938-27.932c1.554-12.811-2.439-21.457-3.163-21.405Z"/><path fill="#6E7979" d="M169.575 119.878c-1.124.064-4.907.179-4.907.179-33.879 2.365-58.782-23.889-58.782-23.889s15.477 44.792 67.167 41.253c0 0 1.429-8.285-3.478-17.543Z"/><path fill="#545352" d="M338.727 119.878c1.167.085 4.906.179 4.906.179 33.88 2.365 58.782-23.889 58.782-23.889s2.226 20.494-12.49 38.451c-14.723 17.958-44.554 21.031-44.554 21.031-.968 4.2 1.131 13.565 1.131 13.565s-8.723-9.65-10.938-27.932c-1.555-12.811 2.439-21.457 3.163-21.405Z"/><path fill="#6E7979" d="M338.727 119.878c1.123.064 4.906.179 4.906.179 33.88 2.365 58.782-23.889 58.782-23.889s-15.477 44.792-67.166 41.253c0 0-1.43-8.285 3.478-17.543Z"/><path fill="#CDE9EE" d="M151.892 271.617s-24.353 87.524 0 143.614V271.617Zm242.482 138.448c-12.019 9.172-24.525 9.753-24.525 9.753-.557-11.982 12.542-38.179 12.542-38.179a28.451 28.451 0 0 0-7.347 6.223l-.086-8.791 9.451-7.807-7.601-6.163 9.655-38.832-9.245 6.164s-2.875-55.266-.821-79.099c0 0-11.711-11.713-17.464-16.437 0 0 1.087 17.016 2.327 44.204 5.249 21.81 13.399 66.946 3.26 106.641.117 8.046.204 16.218.25 24.467 0 0 5.053 17.557 6.696 29.884 0 0 1.643.462 4.109.052l-.186-18.879c12.696-3.834 18.985-13.201 18.985-13.201ZM280.447 240.589c0 9.335 5.978 16.903 13.355 16.903 7.377 0 13.357-7.568 13.357-16.903 0-9.337-5.98-16.904-13.357-16.904-7.377 0-13.355 7.567-13.355 16.904Z"/><path fill="#FFF" d="M280.86 236.074c0 9.191 5.886 16.642 13.149 16.642 7.262 0 13.15-7.451 13.15-16.642 0-9.192-5.888-16.642-13.15-16.642-7.263 0-13.149 7.45-13.149 16.642Z"/><path fill="#474746" d="M290.518 227.494a5.131 5.131 0 0 0-.177 1.286c0 2.344 1.528 4.242 3.411 4.242 1.674 0 3.06-1.501 3.349-3.479 1.074 1.409 1.736 3.306 1.736 5.401 0 4.341-2.828 7.859-6.317 7.859-3.489 0-6.318-3.518-6.318-7.859 0-3.47 1.808-6.407 4.316-7.45Z"/><path fill="#CDE9EE" d="M216.345 240.589c0 9.335 5.979 16.903 13.356 16.903 7.375 0 13.355-7.568 13.355-16.903 0-9.337-5.98-16.904-13.355-16.904-7.377 0-13.356 7.567-13.356 16.904Z"/><path fill="#FFF" d="M216.757 236.074c0 9.191 5.887 16.642 13.15 16.642 7.262 0 13.149-7.451 13.149-16.642 0-9.192-5.887-16.642-13.149-16.642-7.263 0-13.15 7.45-13.15 16.642Z"/><path fill="#474746" d="M228.881 227.494a5.131 5.131 0 0 0-.177 1.286c0 2.344 1.527 4.242 3.412 4.242 1.673 0 3.06-1.501 3.348-3.479 1.075 1.409 1.737 3.306 1.737 5.401 0 4.341-2.83 7.859-6.318 7.859-3.489 0-6.318-3.518-6.318-7.859 0-3.47 1.809-6.407 4.316-7.45Z"/><path fill="#545352" d="M328.567 253.852c-.838 2.521-3.683 3.192-11.791 4.759l-.552.107c-7.943 1.525-22.146 1.325-29.924.189a40.415 40.415 0 0 1-.968-.149c-7.209-1.219-8.03-2.153-10.349-5.89-2.394-3.867-3.866-15.223-4.138-17.462l-.013-.113c-.288-2.367-.431-3.552 2.61-4.913 4.089-1.834 22.24-4.395 29.678-4.73 5.871-.259 18.318.559 24.009 1.39.892.132 1.554.252 1.962.36.655.174 3.066 1.347 2.943 3.91-.159 3.379-2.334 19.132-3.467 22.542Zm-79.162-18.559-.014.113c-.271 2.239-1.743 13.595-4.138 17.462-2.319 3.737-3.139 4.671-10.35 5.89a38.11 38.11 0 0 1-.967.149c-7.778 1.136-21.98 1.336-29.924-.189l-.551-.107c-8.108-1.567-10.954-2.238-11.792-4.759-1.132-3.41-3.307-19.163-3.467-22.542-.123-2.563 2.289-3.736 2.943-3.91.408-.108 1.069-.228 1.961-.36 5.692-.831 18.138-1.649 24.011-1.39 7.437.335 25.587 2.896 29.677 4.73 3.041 1.361 2.899 2.546 2.611 4.913Zm89.573-15c-5.955-.871-16.349-1.857-28.826-1.221-16.236.836-30.148 3.09-38.458 4.435-2.48.403-4.43.72-5.917.917l-1.622.22c-1.823.251-3.018.409-4.037.46-1.018-.051-2.214-.209-4.036-.46l-1.623-.22c-1.487-.197-3.436-.514-5.917-.917-8.31-1.345-22.222-3.599-38.457-4.435-12.477-.636-22.871.35-28.827 1.221 0 0-6.355.809-11.79 3.108l1.036 6.908s5.743-1.367 11.352-2.116c1.043 9.741 3.071 22.258 3.071 22.258l.033.388c.154.631.297 1.244.453 1.912 1.155 4.922 2.302 7.816 6.918 9.551 4.534 1.711 15.261 3.297 26.078 3.854 4.023.208 8.589-.04 13.207-.712 6.848-1 13.043-2.844 15.41-4.593 3.443-2.546 5.285-8.95 6.504-13.188l.366-1.249c.431-1.445.805-2.962 1.167-4.434.52-2.112 1.057-4.296 1.516-5.05.083-.132.469-.587 1.974-.808.466-.067.99-.103 1.565-.11.576.007 1.099.043 1.565.11 1.505.221 1.892.676 1.975.808.458.754.995 2.938 1.515 5.05.362 1.472.737 2.989 1.168 4.434l.364 1.249c1.22 4.238 3.062 10.642 6.506 13.188 2.367 1.749 8.56 3.593 15.409 4.593 4.618.672 9.184.92 13.206.712 10.819-.557 21.545-2.143 26.079-3.854 4.615-1.735 5.763-4.629 6.919-9.551.155-.668.299-1.281.452-1.912l.032-.388s2.029-12.517 3.071-22.258c5.611.749 11.353 2.116 11.353 2.116l1.037-6.908c-5.436-2.299-11.791-3.108-11.791-3.108Z"/><path fill="#A0D1DE" d="M233.823 202.799s-14.854-7.084-23.356 6.07c0 0-.878-13.081 11.118-14.542 11.997-1.464 12.238 8.472 12.238 8.472Zm-5.571-19.221s-13.77-6.498-20.044 5.991c0 0-2.05-10.912 7.777-13.546 9.828-2.634 12.267 7.555 12.267 7.555Zm58.78 27.241s11.536-5.502 18.14 4.715c0 0 .681-10.159-8.635-11.295-9.318-1.136-9.505 6.58-9.505 6.58Zm8.204-18.195s11.673-1.89 13.671 8.779c0 0 3.875-7.702-2.892-11.78-6.768-4.08-10.779 3.001-10.779 3.001Z"/><path fill="#B2DCE5" d="M232.79 306.426s8.15-5.477 12.961-6.231c0 0 1.05 10.335 5.83 15.428 0 0 10.318-9.3 20.521-9.961 0 0 2.633 5.668 6.909 7.77l-.024.065c1.543.964 3.434 1.938 5.265 2.345 0 0 5.855-3.544 7.55-10.017 0 0 .564 13.664-8.013 21.111 0 0-6.54-3.192-11.252-8.3-1.415-1.378-2.886-2.981-3.6-4.284 0 0-15.131 10.704-15.684 16.808 0 0-10.923-10.649-14.647-18.854 0 0-7.29 2.301-9.312 3.784 0 0-5.859-9.583-7.049-18.23 0 0 7.047 6.73 10.545 8.566Z"/><path fill="#545352" d="M260.294 279.572c-.604-.129 15.348 1.104 31.011.547 0 0 .837-2.988 2.038-4.63 0 0-.261 5.03 1.146 6.059 0 0-7.838 3.085-15.743 3.063 0 0 8.614-1.438 11.503-2.924 0 0-15.718.874-29.955-2.115Z"/></g></svg>