<svg xmlns="http://www.w3.org/2000/svg" width="512pt" height="512pt" style="isolation:isolate" viewBox="0 0 512 512"><defs><clipPath id="a"><path d="M0 0h512v512H0z"/></clipPath></defs><g clip-path="url(#a)"><path fill="#FFF" d="M457.1 256h-128v36.573h87.773c-12.8 54.866-53.027 100.573-106.054 118.866L100.538 201.146c21.935-64 84.108-109.707 155.427-109.707 54.854 0 104.227 27.426 135.308 69.48l27.427-23.773c-36.562-49.373-95.081-82.281-162.735-82.281-95.092 0-175.546 67.654-195.665 157.254l241.373 241.373c87.773-21.946 155.427-102.4 155.427-197.48V256Zm-402.281 1.839c0 51.2 20.119 100.573 58.508 138.973 38.4 38.4 89.6 58.507 138.973 58.507L54.819 257.839Z"/><path fill="#639" d="M256 0C115.2 0 0 115.2 0 256s115.2 256 256 256 256-115.2 256-256S396.8 0 256 0ZM113.373 398.627c-38.4-38.4-58.519-89.6-58.519-138.973l199.319 197.492c-51.2-1.827-102.4-20.119-140.8-58.519Zm186.508 53.027L60.346 212.131C80.454 122.519 160.919 54.854 256 54.854c67.654 0 126.173 32.919 162.746 82.292l-27.427 23.773C360.227 118.854 310.854 91.427 256 91.427c-71.319 0-131.654 45.719-155.427 109.719l210.281 210.281c53.027-18.281 93.265-64 106.065-118.854h-87.773V256h128c0 95.081-67.665 175.546-157.265 195.654Z"/></g></svg>