<?xml version="1.0" encoding="UTF-8" standalone="no"?>
<!-- Generator: Gravit.io -->
<svg xmlns="http://www.w3.org/2000/svg" xmlns:xlink="http://www.w3.org/1999/xlink" style="isolation:isolate" viewBox="0 0 64 64" width="64pt" height="64pt"><defs><clipPath id="_clipPath_RyTqOzOSbABRJD9qyAZzX4pqEu5tFd1p"><rect width="64" height="64"/></clipPath></defs><g clip-path="url(#_clipPath_RyTqOzOSbABRJD9qyAZzX4pqEu5tFd1p)"><path d=" M 62.792 29.147 L 34.85 1.207 C 34.077 0.434 33.029 0 31.936 0 C 30.843 0 29.795 0.434 29.022 1.207 L 23.22 7.009 L 30.579 14.371 C 32.344 13.769 34.297 14.223 35.615 15.542 C 36.94 16.869 37.392 18.836 36.778 20.608 L 43.872 27.704 C 45.644 27.088 47.612 27.54 48.937 28.868 C 49.858 29.786 50.376 31.034 50.376 32.335 C 50.376 33.635 49.858 34.883 48.937 35.802 C 48.018 36.723 46.77 37.24 45.469 37.24 C 44.168 37.24 42.92 36.723 42 35.802 C 40.602 34.402 40.182 32.299 40.934 30.469 L 34.318 23.853 L 34.318 41.263 C 34.798 41.499 35.236 41.812 35.615 42.19 C 37.531 44.106 37.531 47.211 35.615 49.127 C 33.698 51.041 30.593 51.041 28.681 49.127 C 27.76 48.208 27.243 46.96 27.243 45.658 C 27.243 44.357 27.76 43.109 28.681 42.19 C 29.139 41.729 29.685 41.365 30.286 41.12 L 30.286 23.548 C 29.685 23.303 29.139 22.939 28.681 22.479 C 27.273 21.072 26.855 18.953 27.622 17.116 L 20.367 9.858 L 1.208 29.018 C 0.435 29.791 0 30.839 0 31.932 C 0 33.026 0.435 34.074 1.208 34.847 L 29.15 62.789 C 29.923 63.562 30.971 63.997 32.064 63.997 C 33.157 63.997 34.206 63.562 34.979 62.789 L 62.792 34.979 C 64.403 33.368 64.403 30.757 62.792 29.147 Z " fill="rgb(240,60,46)"/></g></svg>