<?xml version="1.0" encoding="UTF-8" standalone="no"?>
<!-- Generator: Gravit.io -->
<svg xmlns="http://www.w3.org/2000/svg" xmlns:xlink="http://www.w3.org/1999/xlink" style="isolation:isolate" viewBox="0 0 64 64" width="64pt" height="64pt"><defs><clipPath id="_clipPath_PJxottyCgZpZevN1S3ETdprR9LHmMiuC"><rect width="64" height="64"/></clipPath></defs><g clip-path="url(#_clipPath_PJxottyCgZpZevN1S3ETdprR9LHmMiuC)"><path d=" M 32 0 C 14.331 0 0 14.69 0 32.809 C 0 47.305 9.168 59.603 21.885 63.942 C 23.483 64.245 24 63.228 24 62.364 L 24 56.256 C 15.099 58.241 13.245 52.385 13.245 52.385 C 11.789 48.593 9.691 47.584 9.691 47.584 C 6.787 45.547 9.912 45.591 9.912 45.591 C 13.125 45.82 14.816 48.973 14.816 48.973 C 17.669 53.987 22.301 52.538 24.128 51.699 C 24.413 49.58 25.243 48.131 26.16 47.313 C 19.053 46.479 11.581 43.666 11.581 31.097 C 11.581 27.513 12.832 24.588 14.877 22.291 C 14.547 21.463 13.451 18.124 15.189 13.608 C 15.189 13.608 17.877 12.727 23.992 16.97 C 26.544 16.243 29.28 15.88 32 15.866 C 34.72 15.88 37.459 16.243 40.016 16.97 C 46.125 12.727 48.808 13.608 48.808 13.608 C 50.549 18.127 49.453 21.465 49.123 22.291 C 51.176 24.588 52.416 27.516 52.416 31.097 C 52.416 43.699 44.931 46.474 37.805 47.286 C 38.952 48.303 40 50.299 40 53.361 L 40 62.364 C 40 63.237 40.512 64.262 42.136 63.939 C 54.843 59.595 64 47.3 64 32.809 C 64 14.69 49.672 0 32 0 Z " fill="rgb(0,0,0)"/></g></svg>