<svg xmlns="http://www.w3.org/2000/svg" width="512pt" height="512pt" style="isolation:isolate" viewBox="0 0 512 512"><defs><clipPath id="a"><path d="M0 0h512v512H0z"/></clipPath></defs><g clip-path="url(#a)"><path fill="#E24329" d="m255.983 491.788 94.324-290.136H161.796l94.187 290.136Z"/><path fill="#FCA326" d="M29.681 201.652.957 289.799c-2.599 8.004.208 16.839 7.068 21.828l247.958 180.159L29.681 201.652Z"/><path fill="#E24329" d="M29.681 201.652h132.115L104.937 26.917c-2.91-8.94-15.592-8.94-18.607 0L29.681 201.652Z"/><path fill="#FCA326" d="m482.423 201.652 28.62 88.147c2.599 8.004-.208 16.839-7.068 21.828L255.983 491.788l226.44-290.136Z"/><path fill="#E24329" d="M482.423 201.652H350.307l56.754-174.735c2.91-8.94 15.593-8.94 18.607 0l56.755 174.735Z"/><path fill="#FC6D26" d="m255.983 491.788 94.324-290.136h132.116l-226.44 290.136Zm0 0L29.681 201.652h132.115l94.187 290.136Z"/></g></svg>