<?xml version="1.0" encoding="UTF-8" standalone="no"?>
<svg
   xmlns:dc="http://purl.org/dc/elements/1.1/"
   xmlns:cc="http://creativecommons.org/ns#"
   xmlns:rdf="http://www.w3.org/1999/02/22-rdf-syntax-ns#"
   xmlns:svg="http://www.w3.org/2000/svg"
   xmlns="http://www.w3.org/2000/svg"
   height="252"
   width="183.33537"
   id="svg74"
   version="1.1"
   viewBox="0 0 183.33538 252">
  <metadata
     id="metadata78">
    <rdf:RDF>
      <cc:Work
         rdf:about="">
        <dc:format>image/svg+xml</dc:format>
        <dc:type
           rdf:resource="http://purl.org/dc/dcmitype/StillImage" />
        <dc:title>Heracles_Almelo</dc:title>
      </cc:Work>
    </rdf:RDF>
  </metadata>
  <defs
     id="defs4">
    <style
       id="style2">.cls-1{fill:#fff;}.cls-2{fill:#01a0c6;fill-rule:evenodd;}</style>
  </defs>
  <title
     id="title6">Heracles_Almelo</title>
  <g
     transform="matrix(0.28431384,0,0,0.28431384,1,1)"
     id="g115">
    <g
       id="Wapenvorm">
      <path
         style="fill:#ffffff"
         class="cls-1"
         d="m 576,606.46 c -28.57,54.41 -66.64,101 -104.71,139 -76.12,75.84 -152.39,117.59 -152.39,117.59 0,0 -76.27,-41.75 -152.38,-117.63 -38.06,-38 -76.14,-84.54 -104.71,-139 -28.57,-54.46 -47.64,-116.6 -47.64,-185.78 0,-37.15 7.09,-406.47 7.09,-406.47 h 595.28 c 0,0 7.08,369.32 7.09,406.47 -0.01,69.18 -19.08,131.43 -47.63,185.82 z"
         id="path8" />
      <path
         d="M 630.71,0 H 7.09 C 7.09,0 0,380.17 0,418.87 0,490.93 19.13,555.78 48.9,612.44 78.67,669.1 119.09,717.65 158.74,757.19 238,836.24 318.9,879.31 318.9,879.31 c 0,0 80.87,-42.92 160.16,-122 C 518.71,717.77 559.14,669.1 588.9,612.42 618.66,555.74 637.8,490.91 637.8,418.85 637.79,380.17 630.71,0 630.71,0 Z M 576,606.46 c -28.57,54.41 -66.64,101 -104.71,139 -76.12,75.84 -152.39,117.59 -152.39,117.59 0,0 -76.27,-41.75 -152.38,-117.63 -38.06,-38 -76.14,-84.54 -104.71,-139 -28.57,-54.46 -47.64,-116.6 -47.64,-185.78 0,-37.15 7.09,-406.47 7.09,-406.47 h 595.28 c 0,0 7.08,369.32 7.09,406.47 -0.01,69.18 -19.08,131.43 -47.63,185.82 z"
         id="path10" />
      <path
         d="M 588.31,42.52 H 49.48 c 0,0 -8.73,345.38 -8.73,379.29 0,63.14 17.41,120 43.49,169.62 6.52,12.41 13.57,24.38 21,35.88 L 116.93,202 h 67.32 l -3.54,172.11 a 159.13,159.13 0 0 0 -3.15,153.22 l -3.8,184.85 q 3,3.09 6,6.11 A 717.17,717.17 0 0 0 263,789.13 l 5,-201.4 A 143.74,143.74 0 0 1 175.34,453.54 c 0,-63.76 41.81,-117.93 99.44,-136.57 l 1.54,-61.46 h 85 L 363,317 c 57.64,18.64 99.44,72.81 99.44,136.57 a 143.74,143.74 0 0 1 -92.66,134.19 l 5,201.4 A 717.33,717.33 0 0 0 458,718.27 q 3,-3 6,-6.11 L 460.2,527.31 A 159.13,159.13 0 0 0 457.05,374.09 L 453.54,202 h 67.32 l 11.65,425.35 c 7.46,-11.51 14.52,-23.47 21,-35.88 C 579.64,541.78 597,485 597,421.81 597,387.9 588.31,42.52 588.31,42.52 Z"
         id="path12" />
    </g>
    <g
       id="Wiebertjes">
      <polygon
         style="fill:#01a0c6;fill-rule:evenodd"
         class="cls-2"
         points="336.61,789.09 318.89,744.68 301.18,789.09 318.89,833.51 "
         id="polygon15" />
      <polygon
         style="fill:#01a0c6;fill-rule:evenodd"
         class="cls-2"
         points="311.81,726.73 294.09,682.31 276.38,726.73 294.09,771.15 "
         id="polygon17" />
      <polygon
         style="fill:#01a0c6;fill-rule:evenodd"
         class="cls-2"
         points="361.42,726.73 343.69,682.31 325.98,726.73 343.69,771.15 "
         id="polygon19" />
    </g>
    <g
       id="God">
      <path
         d="m 318.89,321.73 c -72.68,0 -131.81,59.13 -131.81,131.81 0,72.68 59.13,131.81 131.81,131.81 72.68,0 131.81,-59.13 131.81,-131.81 0,-72.68 -59.12,-131.81 -131.81,-131.81 z m 0,255.83 a 124,124 0 1 1 124,-124 124.16,124.16 0 0 1 -124,124 z"
         id="path22" />
      <polygon
         points="379.92,455.32 378.26,450.52 382.84,437.39 374.48,440.6 378.71,463.52 "
         id="polygon24" />
      <polygon
         points="344.3,446.52 353.38,447.6 356.51,452.64 365.16,448.65 367.06,440.33 352.62,434.41 341,438.23 335.87,444.46 339.5,449.53 "
         id="polygon26" />
      <polygon
         points="315.89,470.72 337.73,468.31 345.84,470.72 347.19,465.36 337.87,462.85 320.12,458.39 "
         id="polygon28" />
      <polygon
         points="389.43,417.92 388.25,431.26 394.23,422.63 400.09,406.86 398.11,397.33 395.19,391.49 393.51,395.16 391.56,400.62 385.07,405.12 383.95,415.08 387.38,418.52 "
         id="polygon30" />
      <polygon
         points="220.6,424.34 207.02,426.75 204.03,448.99 212.04,455.25 206.68,478.6 222.05,469.29 248.6,441.65 270.16,429.88 270.16,415.33 259.13,400.08 235.85,410.34 235.64,410.6 "
         id="polygon32" />
      <polygon
         points="271.56,348.76 258.77,355.65 237.17,372.78 225.82,386.11 262.02,368.98 268.52,358.4 278.87,353.53 294.78,355.66 300.44,363.95 320.31,363.95 306.89,352.72 284.5,349.11 "
         id="polygon34" />
      <polygon
         points="220.67,403.64 210.16,416.23 259.06,390.21 261.02,377.03 220.62,393.81 "
         id="polygon36" />
      <polygon
         points="253.82,526.2 246.57,542.85 262.63,553.7 268.96,550.35 278.84,561.32 285.54,539.65 291.43,494.08 294.54,480.21 305.33,465.98 312.99,455.92 299.01,451.71 292.1,449.2 277.01,469.66 261.97,506.29 265.56,513.39 "
         id="polygon38" />
      <polygon
         points="270.33,456.48 285.36,445.38 272.13,437.75 257.5,453.12 225.74,483.27 222.48,499.73 216.96,506.62 234.45,531.52 "
         id="polygon40" />
      <polygon
         points="347.61,538.24 326.64,534.83 323.53,519.41 298.4,511.12 293.21,565.66 310.05,566.1 327.22,568.22 356.55,562.14 "
         id="polygon42" />
      <path
         d="m 384.55,508.54 -0.09,-0.13 -6.46,-9.41 0.84,-2.26 -0.21,-4.93 -0.79,-5.53 -3.4,-10.28 3,-8.21 -15.07,0.49 6.77,8.1 -6,1 -6.44,6.43 -6.38,-2.08 -5.74,-1.73 -0.77,11.18 -4.62,-0.45 -3.33,-10.63 -2.38,8.83 -6.7,-8.67 -18.43,-3 -7.06,12.92 -1.55,9.6 21.83,9.95 18.43,11.5 27.41,16.94 20.95,-5.69 2.57,-6.76 -4.77,-8.91 z M 369,489.37 l -12.48,3.79 -0.17,-1 6,-6.37 8.38,-0.93 z"
         id="path44" />
      <path
         d="m 382.14,400.67 6.15,-4 -2,-9.12 -0.81,-4.27 -11,-2.41 -4.69,-2.5 -19.15,-2.18 -14.53,1.55 -4.61,-5.56 -15.39,-1 -17.7,1.44 -8.29,-9.19 -8.22,-1.95 -8.52,4.91 -5.78,13.75 1.5,16.36 7.68,11.15 4.36,24.29 15.69,7 20.63,-2.09 8.86,-15.14 19.17,-0.87 6.89,-9.85 1.41,18.81 8.9,-10.8 12.12,-4.29 4.12,-2.9 2,-5.9 -11.37,-8 1.41,-5.74 5.42,4 1.66,-9.73 3.44,0.06 -2.6,11.09 z m -95,-13.92 -7.36,-13.17 9.06,2.19 z m 38.3,-1.48 -6.95,-2.55 -8.09,-2.89 2.5,-0.94 15.62,-0.91 1.83,6 z"
         id="path46" />
    </g>
    <g
       id="Typografie">
      <path
         style="fill:#ffffff"
         class="cls-1"
         d="m 282.12,207.94 -5.74,3.92 v -5.65 l 5.74,-3.92 h 5.74 v 37.27 h -5.74 z"
         id="path49" />
      <path
         style="fill:#ffffff"
         class="cls-1"
         d="m 305.42,223.9 -0.11,-0.1 a 2.32,2.32 0 0 1 -0.87,0.34 7.4,7.4 0 0 1 -1.55,0.13 5.94,5.94 0 0 1 -2.81,-0.68 5.53,5.53 0 0 1 -2,-1.73 4.37,4.37 0 0 1 -0.62,-1.13 7.73,7.73 0 0 1 -0.37,-1.54 22.1,22.1 0 0 1 -0.2,-2.38 q -0.06,-1.44 -0.06,-3.64 0,-1.83 0.06,-3 a 16.11,16.11 0 0 1 0.2,-2 6,6 0 0 1 0.4,-1.39 9.25,9.25 0 0 1 0.65,-1.2 7.55,7.55 0 0 1 3,-2.67 9.38,9.38 0 0 1 4.25,-0.94 9,9 0 0 1 4.22,1 8,8 0 0 1 3,2.64 13.59,13.59 0 0 1 0.67,1.2 5.13,5.13 0 0 1 0.42,1.39 16.71,16.71 0 0 1 0.2,2 q 0.06,1.18 0.06,3 0,1.82 -0.06,2.85 a 16.48,16.48 0 0 1 -0.2,1.94 12.32,12.32 0 0 1 -0.34,1.47 q -0.2,0.65 -0.48,1.39 l -7.54,18.74 h -6.42 z m -2.87,-7 a 2.44,2.44 0 0 0 0.84,1.94 3,3 0 0 0 3.94,0 2.44,2.44 0 0 0 0.84,-1.94 V 210 a 2.44,2.44 0 0 0 -0.84,-1.94 3,3 0 0 0 -3.94,0 2.44,2.44 0 0 0 -0.84,1.94 z"
         id="path51" />
      <path
         style="fill:#ffffff"
         class="cls-1"
         d="m 320.56,210 a 7.67,7.67 0 0 1 0.7,-3.35 7.86,7.86 0 0 1 1.89,-2.51 8.22,8.22 0 0 1 2.73,-1.6 9.81,9.81 0 0 1 6.47,0 8.27,8.27 0 0 1 2.73,1.6 7.87,7.87 0 0 1 1.88,2.51 7.64,7.64 0 0 1 0.7,3.35 v 21.88 a 7.63,7.63 0 0 1 -0.7,3.35 7.87,7.87 0 0 1 -1.88,2.51 8.26,8.26 0 0 1 -2.73,1.6 9.81,9.81 0 0 1 -6.47,0 8.21,8.21 0 0 1 -2.73,-1.6 7.86,7.86 0 0 1 -1.89,-2.51 7.66,7.66 0 0 1 -0.7,-3.35 z m 5.74,21.88 a 2.54,2.54 0 0 0 0.79,1.91 3.09,3.09 0 0 0 4.05,0 2.54,2.54 0 0 0 0.79,-1.91 V 210 a 2.55,2.55 0 0 0 -0.79,-1.91 3.09,3.09 0 0 0 -4.05,0 2.54,2.54 0 0 0 -0.79,1.91 z"
         id="path53" />
      <path
         style="fill:#ffffff"
         class="cls-1"
         d="m 351.12,218 a 7.74,7.74 0 0 0 3.57,-0.58 q 1,-0.58 1,-2.67 v -4.82 a 2.5,2.5 0 0 0 -0.76,-1.88 2.84,2.84 0 0 0 -2.05,-0.73 2.5,2.5 0 0 0 -2.17,0.89 3,3 0 0 0 -0.65,1.73 v 3 h -5.74 v -3.09 a 7.31,7.31 0 0 1 0.68,-3.09 7.53,7.53 0 0 1 1.86,-2.51 9.26,9.26 0 0 1 2.76,-1.68 9,9 0 0 1 3.38,-0.57 8,8 0 0 1 3.91,0.86 8.92,8.92 0 0 1 2.34,1.75 10.28,10.28 0 0 1 1,1.28 5.69,5.69 0 0 1 0.68,1.52 12.74,12.74 0 0 1 0.4,2.09 27.4,27.4 0 0 1 0.14,3 q 0,1.94 -0.09,3.14 a 5.87,5.87 0 0 1 -0.45,2 3.81,3.81 0 0 1 -1.07,1.39 13,13 0 0 1 -1.94,1.26 10.93,10.93 0 0 1 2.05,1.47 4.24,4.24 0 0 1 1,1.6 7.34,7.34 0 0 1 0.39,2.2 q 0.06,1.28 0.06,3.27 0,1.83 -0.09,3 a 15.09,15.09 0 0 1 -0.25,2 5.89,5.89 0 0 1 -0.45,1.39 8.54,8.54 0 0 1 -0.73,1.2 8.15,8.15 0 0 1 -7.09,3.4 10.82,10.82 0 0 1 -2.87,-0.42 8,8 0 0 1 -2.76,-1.36 7.5,7.5 0 0 1 -2.05,-2.46 7.76,7.76 0 0 1 -0.82,-3.72 v -3 H 350 v 2.77 a 2.91,2.91 0 0 0 0.76,2.07 3,3 0 0 0 4.11,0 3,3 0 0 0 0.76,-2.17 v -5.33 a 6.52,6.52 0 0 0 -0.2,-1.78 2,2 0 0 0 -0.7,-1.07 2.94,2.94 0 0 0 -1.38,-0.52 16.21,16.21 0 0 0 -2.28,-0.13 z"
         id="path55" />
      <path
         style="fill:#ffffff"
         class="cls-1"
         d="M 77.19,70.87 H 92 v 44 h 18.27 v -44 h 14.8 v 102.75 h -14.8 V 127.87 H 92 v 45.75 H 77.19 Z"
         id="path57" />
      <path
         style="fill:#ffffff"
         class="cls-1"
         d="M 146.95,70.87 H 191 v 13.85 h -29.3 v 30.17 h 25.53 v 13.85 H 161.74 V 158.9 H 191 v 14.72 h -44.05 z"
         id="path59" />
      <path
         style="fill:#ffffff"
         class="cls-1"
         d="m 209.59,70.87 h 23.79 q 26.11,0 26.11,30.16 a 37.93,37.93 0 0 1 -2.83,15.37 21.79,21.79 0 0 1 -9.93,10.32 l 16,46.9 H 247 l -13.78,-43.87 h -8.85 v 43.87 h -14.8 z m 14.8,45.89 h 8.41 a 15,15 0 0 0 6.24,-1.08 8,8 0 0 0 3.55,-3.1 13.22,13.22 0 0 0 1.67,-5 54.34,54.34 0 0 0 0,-13.71 12.36,12.36 0 0 0 -1.81,-5.05 8.2,8.2 0 0 0 -3.84,-3.1 17.55,17.55 0 0 0 -6.53,-1 h -7.69 z"
         id="path61" />
      <path
         style="fill:#ffffff"
         class="cls-1"
         d="m 295.55,70.87 h 12.33 l 23.06,102.76 h -14.79 l -4.35,-22.08 h -20.16 l -4.35,22.08 h -14.8 z m 6.24,29.59 h -0.29 l -7.25,37.23 H 309 Z"
         id="path63" />
      <path
         style="fill:#ffffff"
         class="cls-1"
         d="m 390.48,150.68 a 23.33,23.33 0 0 1 -1.81,9.09 23.83,23.83 0 0 1 -5,7.58 24.74,24.74 0 0 1 -7.47,5.2 22,22 0 0 1 -9.21,1.95 33.26,33.26 0 0 1 -8.56,-1.15 20.79,20.79 0 0 1 -7.83,-4 21.41,21.41 0 0 1 -5.73,-7.43 26.63,26.63 0 0 1 -2.25,-11.69 V 93.67 a 24.92,24.92 0 0 1 1.74,-9.38 22.07,22.07 0 0 1 4.93,-7.5 23,23 0 0 1 7.62,-5 25.72,25.72 0 0 1 9.79,-1.8 24.4,24.4 0 0 1 9.43,1.8 22.56,22.56 0 0 1 7.54,5.05 23.29,23.29 0 0 1 5,7.79 26.48,26.48 0 0 1 1.81,9.89 v 5.77 H 375.69 V 95.4 a 11.89,11.89 0 0 0 -2.46,-7.5 8,8 0 0 0 -6.67,-3.18 q -5.51,0 -7.33,3.39 a 18.1,18.1 0 0 0 -1.81,8.59 v 52.53 a 13.56,13.56 0 0 0 2,7.5 q 2,3 7,3 a 10.75,10.75 0 0 0 3.12,-0.5 8.59,8.59 0 0 0 3,-1.66 8.37,8.37 0 0 0 2.25,-3.17 12.84,12.84 0 0 0 0.87,-5.05 v -5.05 h 14.79 z"
         id="path65" />
      <path
         style="fill:#ffffff"
         class="cls-1"
         d="m 407.8,70.87 h 14.79 v 88 h 26.47 v 14.72 H 407.8 Z"
         id="path67" />
      <path
         style="fill:#ffffff"
         class="cls-1"
         d="m 458.44,70.87 h 44.09 v 13.85 h -29.3 v 30.17 h 25.53 v 13.85 h -25.53 v 30.16 h 29.3 v 14.72 h -44.09 z"
         id="path69" />
      <path
         style="fill:#ffffff"
         class="cls-1"
         d="m 566.27,100.45 h -14.8 v -3.32 a 15.65,15.65 0 0 0 -2.39,-8.73 q -2.39,-3.68 -8,-3.68 a 9.77,9.77 0 0 0 -5,1.16 8.57,8.57 0 0 0 -3,3 12.32,12.32 0 0 0 -1.62,4.12 27.38,27.38 0 0 0 -0.43,5 50.3,50.3 0 0 0 0.22,5.12 9,9 0 0 0 1.08,3.61 8.39,8.39 0 0 0 2.54,2.67 23.24,23.24 0 0 0 4.57,2.31 l 11.31,4.47 a 28.2,28.2 0 0 1 8,4.4 17.84,17.84 0 0 1 4.71,5.92 25,25 0 0 1 2.25,7.79 77.41,77.41 0 0 1 0.58,10 52.56,52.56 0 0 1 -1.29,12.09 25.29,25.29 0 0 1 -4.28,9.53 20.49,20.49 0 0 1 -7.9,6.28 28.3,28.3 0 0 1 -12,2.31 26.46,26.46 0 0 1 -10,-1.88 23.79,23.79 0 0 1 -13.27,-12.85 23.82,23.82 0 0 1 -2,-9.67 v -5.48 h 14.75 v 4.62 a 12,12 0 0 0 2.39,7.29 q 2.39,3.25 8.05,3.25 a 13,13 0 0 0 5.87,-1.08 7.45,7.45 0 0 0 3.19,-3 12.41,12.41 0 0 0 1.38,-4.83 q 0.29,-2.89 0.29,-6.35 a 62.56,62.56 0 0 0 -0.29,-6.64 10.55,10.55 0 0 0 -1.23,-4.19 7.56,7.56 0 0 0 -2.61,-2.6 34.87,34.87 0 0 0 -4.42,-2.17 l -10.59,-4.33 q -9.57,-3.9 -12.83,-10.32 -3.26,-6.42 -3.26,-16.09 a 37.13,37.13 0 0 1 1.6,-11 25.49,25.49 0 0 1 4.71,-8.95 22.42,22.42 0 0 1 7.9,-6 26.16,26.16 0 0 1 11.16,-2.23 24.68,24.68 0 0 1 10.08,2 25.11,25.11 0 0 1 7.83,5.34 23.72,23.72 0 0 1 5,7.43 21.45,21.45 0 0 1 1.75,8.44 z"
         id="path71" />
    </g>
  </g>
</svg>
