<svg xmlns="http://www.w3.org/2000/svg" width="512pt" height="512pt" style="isolation:isolate" viewBox="0 0 512 512"><defs><clipPath id="a"><path d="M0 0h512v512H0z"/></clipPath></defs><g clip-path="url(#a)"><path fill="#430098" d="M440.32 0c25.192 0 45.667 20.217 46.074 45.318l.006.762v419.84c0 25.192-20.223 45.667-45.318 46.074l-.762.006H71.68c-25.192 0-45.667-20.223-46.074-45.318l-.006-.762V46.08C25.6 20.882 45.823.413 70.918.006L71.68 0h368.64Zm0 25.6H71.68c-11.113 0-20.192 8.905-20.473 19.952l-.007.528v419.84c0 11.113 8.905 20.192 19.952 20.473l.528.007h368.64c11.12 0 20.192-8.905 20.473-19.952l.007-.528V46.08c0-11.29-9.184-20.48-20.48-20.48ZM140.8 332.8l57.6 51.2-57.6 51.2V332.8Zm51.2-256v145.35c25.562-8.32 61.293-17.35 96-17.35 31.648 0 50.592 12.442 60.909 22.88 21.796 22.049 22.315 50.076 22.286 53.814l-.001.106.006 153.6H320V282.304c-.25-11.949-6.01-26.304-32-26.304-51.537 0-109.284 25.661-110.999 26.429l-.035.016-36.166 16.384V76.8H192Zm179.2 0c-3.456 29.082-15.245 56.96-38.4 83.2h-51.2c20.122-26.4 32.755-54.182 38.4-83.2h51.2Z"/></g></svg>