<svg xmlns="http://www.w3.org/2000/svg" width="512pt" height="512pt" style="isolation:isolate" viewBox="0 0 512 512"><defs><clipPath id="a"><path d="M0 0h512v512H0z"/></clipPath></defs><g clip-path="url(#a)"><path fill="#D1D2D3" d="M344.009 170.402c1.409-36.719-7.865-51.541-14.826-62.138-7.063-9.888-24.007-25.423-44.827-26.074-19.689-.614-24.426 10.268-42.59 10.926-2.978-33.079 21.986-51.23 21.986-51.23s-6.827-9.647-12.475-12.002c-6.498 5.775-22.078 22.363-25.409 44.632-3.51-32.801-19.909-53.779-56.264-68.399-10.327 36.122 23.767 69.87 45.917 83.198-11.742-3.945-21.931-9.157-35.615-6.464-23.919 4.709-43.635 19.169-54.873 50.901-11.234 31.732 3.969 68.752 7.273 79.325 3.307 10.583 27.767 55.531 46.938 62.142 19.168 6.618 19.175 3.636 29.423-.326 10.247-3.965 25.779-11.241 48.594-2.971 22.797 8.259 25.772 10.24 39.981.987 14.223-9.253 32.726-38.007 37.02-46.274 4.298-8.259 6.611-12.56 7.941-16.855 1.652-12.577.538-6.467 1.806-39.378Z"/><path fill="#FEFEFE" d="M345.377 221.218v17.955a7.616 7.616 0 0 0 7.615 7.615h28.254a34.274 34.274 0 0 1 24.23 10.038 34.272 34.272 0 0 1 10.042 24.234l-.002 82.808v2.757l-.002 18.649-.001 2.546-.001 9.799v2.342l-.001 4.542c0 9.11-3.623 17.845-10.079 24.275a34.286 34.286 0 0 1-24.313 9.993c-9.548.024-19.59.007-27.966-.109a7.623 7.623 0 0 0-7.776 7.612l-.001 9.064v1.106l-.001 4.507-.001 1.135-.001 2.26c-.005 6.375-.013 12.414-.03 16.055a7.579 7.579 0 0 1-2.739 5.833c-8.729 6.594-39.224 21.208-107.431 21.208-66.799 0-98.611-10.912-108.536-16.66a7.623 7.623 0 0 1-3.523-6.405c-.03-14.808-.142-67.533-.259-121.941l-.016-7.426-.286-133.184-.001-.608h222.825Zm33.776 56.08h-24.258a9.524 9.524 0 0 0-6.363 2.443l-.365.346a9.53 9.53 0 0 0-2.776 6.23l-.013.505v110.783c0 2.354.874 4.622 2.443 6.366l.346.365a9.5 9.5 0 0 0 6.225 2.773l.503.013h24.258a9.519 9.519 0 0 0 6.365-2.439l.366-.347a9.536 9.536 0 0 0 2.773-6.228l.013-.503V286.822a9.537 9.537 0 0 0-2.44-6.369l-.346-.366a9.544 9.544 0 0 0-6.228-2.776l-.503-.013Z"/><path fill="#FAAF41" d="M144.52 219.01v236.068a7.615 7.615 0 0 0 3.814 6.6c9.634 4.593 37.59 15.556 86.602 15.556 49.334 0 76.457-13.321 85.542-18.811a7.58 7.58 0 0 0 3.475-6.378c.021-31.304.021-233.035.021-233.035H144.52Z"/><path fill="#FFDA95" d="M170.898 248.431c5.624 0 10.224 4.397 10.546 9.942l.017.62v182.432c0 5.834-4.73 10.563-10.563 10.563-5.627 0-10.223-4.397-10.545-9.939l-.017-.624V258.993c0-5.833 4.729-10.562 10.562-10.562Z"/><path fill="#FEFEFE" d="M272.289 267.453c0-3.808-2.241-8.356-5.922-10.638a31.842 31.842 0 0 1-13.215-15.803c-48.728 1.638-93.199-6.916-115.606-12.958a185.501 185.501 0 0 0-17.461-4.055c-13.407-2.663-23.6-14.438-23.6-28.596 0-15.583 12.366-28.247 27.812-28.802 2.978-16.481 17.365-28.994 34.707-28.994 19.501 0 35.31 15.81 35.31 35.31 0 4.103-.74 8.03-2.025 11.697l.103.017c4.356-13.619 17.105-23.489 32.17-23.489 14.967 0 27.651 9.753 32.079 23.246a34.902 34.902 0 0 1-.195-3.708c0-20.282 16.44-36.719 36.718-36.719 16.417 0 30.31 10.775 35.012 25.632l3.198-.836a28.734 28.734 0 0 1 14.151-3.722c15.936 0 28.853 12.92 28.846 28.85 0 14.596-10.833 26.656-24.898 28.582a42.317 42.317 0 0 0-9.315 2.42c-8.363 3.15-16.91 5.761-25.543 7.917a31.785 31.785 0 0 1-3.636 11.865 39.468 39.468 0 0 0-4.531 21.43c-.003.449.014 2.807.014 3.259 0 9.435-7.65 15.176-17.095 15.176-9.428 0-17.078-7.643-17.078-17.081Z"/><path fill="#010202" d="m265.428 225.778.202.617-.065-.617h-.137Z"/><path fill="#010202" d="m166.609 0 4.695 1.885c30.176 12.136 47.744 28.802 55.363 53.375 4.818-10.679 12.135-20.176 20.638-27.935l3.085-2.752 2.645 1.1c1.142.48 2.28 1.134 3.431 1.953 1.789 1.272 3.602 2.924 5.439 4.874a67.215 67.215 0 0 1 3.955 4.613l.679.874.757 1.018 2.779 3.924-3.643 2.649-.497.384-.685.562-.843.744-.991.915a57.342 57.342 0 0 0-7.077 8.15c-6.309 8.79-10.1 18.955-10.257 30.491l-.004 1.344.987-.161c3.397-.621 6.591-1.81 11.265-3.938l2.67-1.224c9.031-4.088 14.439-5.494 23.497-5.213 19.237.604 37.744 13.068 48.498 28.131.24.366.483.733.716 1.103l1.385 2.194 1.319 2.179c8.219 13.959 12.177 27.51 12.321 49.4 16.947 1.614 30.204 15.881 30.197 33.247 0 16.752-12.396 30.848-28.823 33.096-.058.01-.113.024-.174.034v12.157a3.06 3.06 0 0 0 3.057 3.057h28.253a38.83 38.83 0 0 1 27.459 11.371 38.84 38.84 0 0 1 11.371 27.459l-.003 123.443a38.81 38.81 0 0 1-11.423 27.503 38.811 38.811 0 0 1-27.517 11.324l-4.28.01-8.308-.004-10.096-.054-5.391-.062a3.06 3.06 0 0 0-3.122 3.054l-.011 24.967-.024 9.16c0 3.613-1.607 7.033-4.551 9.47-4.15 3.136-9.661 6.104-16.495 8.79l-2.327.881c-3.564 1.313-7.458 2.55-11.673 3.695l-2.862.75-2.954.723a210.72 210.72 0 0 1-9.435 1.998l-3.335.607-3.427.572c-2.899.463-5.891.895-8.979 1.286l-3.756.452-3.846.418-3.937.377-4.031.343-4.123.301-4.215.261c-.709.041-1.422.079-2.139.116l-4.349.199-4.438.158c-1.498.041-3.006.082-4.531.113l-4.619.065a430.38 430.38 0 0 1-4.706.024h-2.409c-1.597-.01-3.184-.024-4.754-.041l-4.664-.076-4.575-.109c-1.512-.041-3.006-.093-4.487-.144l-4.393-.182c-.727-.034-1.447-.065-2.166-.103l-4.26-.233-4.168-.26-4.075-.298c-.675-.048-1.34-.103-2.004-.158l-3.938-.339c-.648-.062-1.292-.12-1.933-.185l-3.798-.384-3.701-.415c-.61-.072-1.217-.144-1.816-.219l-3.561-.459-3.465-.48-3.366-.511a285.624 285.624 0 0 1-4.87-.812l-3.122-.572c-.514-.096-1.021-.196-1.525-.295l-2.978-.607-2.875-.627-2.776-.655-2.677-.668c-2.625-.682-5.1-1.395-7.416-2.132l-2.269-.747a89.907 89.907 0 0 1-3.208-1.155l-2.008-.784c-2.934-1.197-5.511-2.441-7.729-3.722a12.188 12.188 0 0 1-5.631-10.244l-.548-256.202c-15.11-3.572-26.084-17.04-26.084-32.778 0-15.343 10.384-28.281 24.569-32.164-.175-4.668-.068-9.274.415-13.818.644-6.012 1.902-11.752 3.828-17.195 11.046-31.197 30.704-48.422 58.29-53.851 4.924-.966 9.431-1.076 14.168-.439-3.578-3.348-7.012-6.929-10.138-10.644-16.574-19.717-23.86-41.36-17.839-62.43L166.609 0Zm174.207 229.501-2.19.805c-.463.168-.956.309-1.426.473-4.277 1.505-8.667 2.872-13.133 4.151-2.762.791-2.762.791-5.394 1.539l-.206 1.041a36.335 36.335 0 0 1-2.817 8.041l-1.21 2.361c-.223.456-.373.939-.572 1.405-2.252 5.175-3.283 10.844-2.862 16.779l.004.669.01 2.591c0 11.779-9.411 19.74-21.653 19.74-6.213 0-11.803-2.635-15.748-6.834a21.56 21.56 0 0 1-5.579-11.289 21.617 21.617 0 0 1-.312-3.519c0-2.444-1.601-5.419-3.722-6.738a36.39 36.39 0 0 1-13.644-14.758l-.147-.301-2.999.065c-34.587.589-69.791-3.643-98.689-10.254a333.615 333.615 0 0 1-9.832-2.392l-2.393-.634c-.065-.021-.137-.035-.205-.055a189.678 189.678 0 0 0-8.966-2.276l.545 254.256c0 1.038.535 2.011 1.248 2.467a48.172 48.172 0 0 0 4.455 2.262l1.7.73a89.323 89.323 0 0 0 5.74 2.132l2.122.682c1.086.336 2.214.668 3.379.997l2.382.644 2.485.628 2.584.613 2.69.59c.452.099.915.195 1.381.291l2.838.562c.959.185 1.94.37 2.937.548l3.036.521c1.029.172 2.074.34 3.136.501l3.232.476 3.331.456c.562.072 1.128.147 1.7.216l3.475.421 3.572.391 3.663.36c.62.062 1.244.116 1.868.175l3.808.325 3.9.295 3.992.264 4.086.233 4.177.205c.703.031 1.412.059 2.122.09l4.315.157c.723.024 1.453.045 2.19.065l4.448.107 2.255.041 4.582.051c1.539.01 3.095.017 4.668.017l2.286-.003c3.797-.021 7.499-.082 11.107-.192l4.284-.147c.706-.024 1.409-.055 2.108-.09l4.147-.205 4.058-.247c.668-.044 1.336-.089 1.994-.137l3.925-.305c.64-.051 1.285-.106 1.922-.161l3.784-.357c.62-.065 1.24-.126 1.857-.191l3.64-.405 1.789-.216 3.503-.456 3.41-.49 3.317-.514c1.09-.178 2.166-.363 3.222-.545l3.129-.575a250.53 250.53 0 0 0 3.033-.604l2.94-.63 2.841-.651c1.865-.443 3.661-.905 5.398-1.375l2.553-.723c.419-.123.83-.25 1.241-.373l2.409-.751 2.31-.774c7.924-2.739 14.048-5.816 18.312-9.041a3.03 3.03 0 0 0 1.09-2.341l.034-34.107c0-3.273 1.319-6.409 3.657-8.695a12.133 12.133 0 0 1 8.742-3.475l5.34.058 7.917.048 10.394.01 4.271-.01a29.727 29.727 0 0 0 21.077-8.661 29.716 29.716 0 0 0 8.739-21.046l.003-123.443a29.711 29.711 0 0 0-29.71-29.711h-28.253c-6.725 0-12.177-5.452-12.177-12.176v-9.672Zm38.336 43.238c3.732 0 7.314 1.484 9.956 4.127a14.063 14.063 0 0 1 4.123 9.956v110.783a14.077 14.077 0 0 1-14.079 14.076h-24.254a14.08 14.08 0 0 1-14.082-14.076V286.822a14.086 14.086 0 0 1 14.082-14.083h24.254Zm0 9.124h-24.254c-1.316 0-2.577.52-3.506 1.446a4.984 4.984 0 0 0-1.456 3.513v110.783a4.962 4.962 0 0 0 4.962 4.959h24.254a4.947 4.947 0 0 0 3.503-1.453 4.95 4.95 0 0 0 1.456-3.506V286.822a4.955 4.955 0 0 0-4.959-4.959ZM159.004 142.166c-14.915 0-27.592 10.717-30.221 25.248l-.651 3.613-1.902.071-1.769.062a24.218 24.218 0 0 0-7.255 1.388c-9.431 3.345-16.162 12.328-16.162 22.856 0 10.734 7.036 20.046 16.943 23.319.95.311 1.916.589 2.917.788 3.287.6 6.549 1.302 9.791 2.07a188.98 188.98 0 0 1 8.041 2.07c1.141.308 2.361.593 3.536.894 1.625.412 3.219.833 4.884 1.234 30.399 7.29 68.777 11.923 105.842 10.676l3.242-.11 1.165 3.03a27.34 27.34 0 0 0 11.368 13.565c4.887 3.033 8.075 8.965 8.075 14.514l.017.665c.116 2.224.853 4.273 1.984 6.045 2.228 3.479 6.083 5.813 10.518 5.813 7.509 0 12.533-4.25 12.533-10.621l-.013-2.615.013-.309a44.104 44.104 0 0 1 5.062-23.928l.538-1.056a27.02 27.02 0 0 0 2.574-9.102l.322-3.191 3.112-.775c3.177-.795 6.255-1.7 9.332-2.601a294.863 294.863 0 0 0 8.01-2.467 179.112 179.112 0 0 0 7.67-2.68l1.432-.528c1.08-.374 2.18-.669 3.28-.963 1.847-.497 3.715-.922 5.621-1.193l.808-.123c.096-.017.185-.041.275-.059 11.402-2.09 19.877-12.077 19.877-23.884.004-12.368-9.257-22.561-21.217-24.072a24.501 24.501 0 0 0-3.071-.213c-2.074 0-4.109.268-6.077.778a24.338 24.338 0 0 0-5.833 2.355l-.517.291-7.965 2.074-1.306-4.127c-4.195-13.256-16.539-22.448-30.663-22.448-17.759 0-32.157 14.398-32.157 32.161 0 1.09.058 2.169.168 3.232l3.434 32.743.956 9.123h-.137l-2.995-9.123-10.127-30.848c-3.904-11.899-15.036-20.104-27.744-20.104-12.8 0-23.986 8.311-27.825 20.316l-1.199 3.746-9.353-1.532 1.799-5.13c1.165-3.321 1.769-6.738 1.769-10.189 0-16.982-13.767-30.749-30.749-30.749ZM251.85 35.564l-1.118 1.093c-10.189 10.172-19.733 27.205-20.312 37.696-.583 10.49 1.127 23.514 1.127 23.514l-6.433-1.231a71.99 71.99 0 0 1-8.163-2.056l-1.995-.638c-.346-.113-.696-.233-1.055-.353l-.374-.13-1.882-.651-7.512-2.687-2.063-.699c-8.386-2.742-14.333-3.461-21.283-2.094-24.398 4.801-41.472 19.761-51.452 47.943-1.683 4.75-2.786 9.795-3.359 15.12-.01.09-.01.182-.02.275 7.019-10.426 18.781-17.266 32.016-17.606l1.032-.013c19.648 0 35.975 14.212 39.265 32.918l.151.921.984-.891a38.271 38.271 0 0 1 24.13-9.397l1.028-.014c11.118 0 21.318 4.785 28.398 12.602l.415.47.26-.898c5.021-16.67 20.299-28.898 38.494-29.347l1.035-.01c16.351 0 30.845 9.592 37.48 23.966l.226.51.439-.215c2.635-1.245 5.435-2.101 8.311-2.619-.086-20.871-3.76-33.089-11.584-46.065l-1.251-2.022-1.313-2.042c-9.147-12.804-25.272-23.665-41.259-24.165-7.794-.244-12.057.973-20.759 5.003l-1.45.665c-7.971 3.619-12.612 4.983-20.073 5.254l-4.318.158-.387-4.305c-1.474-16.337 3.143-30.584 11.707-42.51 2.9-4.041 5.809-7.263 8.359-9.648l.151-.147-.997-1.172-1.176-1.292a35.099 35.099 0 0 0-2.803-2.691l-.617-.5Zm-78.997-23.13-.116.744c-2.341 15.963 4.102 32.547 17.304 48.247 8.057 9.586 18.421 18.25 27.283 23.689a71.43 71.43 0 0 0 4.017 2.31l.744.387-.004-.72c-.058-4.681-.332-9.116-.829-13.328-3.479-29.408-17.976-47.771-47.922-61.117l-.477-.212Z"/></g></svg>