<svg xmlns="http://www.w3.org/2000/svg" xml:space="preserve" width="400" height="88.146"><defs><linearGradient id="a" x1="0" x2="1" y1="0" y2="0" gradientTransform="matrix(0 27.8148 27.8148 0 146.764 334.96)" gradientUnits="userSpaceOnUse" spreadMethod="pad"><stop offset="0" style="stop-opacity:1;stop-color:#a61c22"/><stop offset=".8" style="stop-opacity:1;stop-color:#da1c2d"/><stop offset="1" style="stop-opacity:1;stop-color:#da1c2d"/></linearGradient><linearGradient id="b" x1="0" x2="1" y1="0" y2="0" gradientTransform="scale(44.63702 -44.63702) rotate(-30 -11.664 -12.048)" gradientUnits="userSpaceOnUse" spreadMethod="pad"><stop offset="0" style="stop-opacity:1;stop-color:#a61c22"/><stop offset=".5" style="stop-opacity:1;stop-color:#dc1c2e"/><stop offset="1" style="stop-opacity:1;stop-color:#dc1c2e"/></linearGradient><linearGradient id="c" x1="0" x2="1" y1="0" y2="0" gradientTransform="scale(29.97221 -29.97221) rotate(-30 -18.334 -19.197)" gradientUnits="userSpaceOnUse" spreadMethod="pad"><stop offset="0" style="stop-opacity:1;stop-color:#ed7417"/><stop offset=".85" style="stop-opacity:1;stop-color:#facd08"/><stop offset="1" style="stop-opacity:1;stop-color:#facd08"/></linearGradient></defs><path d="M184.757 363.275c-1.28-1.903-2.686-4.281-4.231-7.327-1.558-3.066-2.963-6.208-3.834-8.598h5.197c.318.996.705 2.004 1.115 2.95h8.539c.413-.942.779-1.891 1.118-2.95h5.198a96.79 96.79 0 0 1-3.824 8.579c-1.549 3.05-2.937 5.439-4.242 7.346h-5.036zm2.513-3.763c1.072-1.92 2.034-3.867 3.105-6.264h-6.202a77.918 77.918 0 0 0 3.097 6.264m-39.768 3.763c-.254-2.443-.384-5.352-.384-7.961 0-2.589.129-5.194.387-7.964h4.926a81.697 81.697 0 0 0-.386 5.912h4.957c.361-.399.953-1.158 1.575-2.141.724-1.138 1.283-2.259 1.905-3.771h5.507c-.723 1.379-1.506 2.624-2.683 4.284-.673.947-1.309 1.717-1.892 2.294 2.066.726 3.344 2.47 3.344 4.59 0 1.212-.435 2.359-1.191 3.151-1.075 1.111-2.744 1.606-5.416 1.606h-10.649zm4.691-2.983h4.333c1.595 0 2.371-.195 2.867-.723.295-.296.471-.769.471-1.267 0-.859-.443-1.619-1.22-2.095h-6.602c.003 1.177.053 2.518.151 4.085m-24.38 2.983a89.25 89.25 0 0 1-.387-7.971c0-2.579.172-5.411.388-7.956h15.197a120.101 120.101 0 0 0-.197 3.176h-10.345a51.24 51.24 0 0 0-.119 3.364h9.543v3.004h-9.543c0 .873.03 2.149.118 3.208h10.333c.051 1.117.113 2.055.214 3.175h-15.202zm-21.689 0c-.253-2.379-.386-5.377-.386-7.961 0-2.589.118-5.123.386-7.964h9.391c3.323 0 5.369.385 6.639 1.253.979.672 1.585 2.007 1.585 3.486 0 1.74-.994 3.13-2.738 3.841a3.756 3.756 0 0 1 1.898 3.264c0 1.257-.363 2.128-1.178 2.82-1.369 1.165-3.879 1.261-6.548 1.261h-9.049zm4.688-3.013h4.167c1.684 0 2.245-.128 2.727-.613.247-.25.394-.689.394-1.177 0-.674-.271-1.254-.766-1.636h-6.669c.016 1.191.064 2.299.147 3.426m-.151-6.311h5.998c.868 0 1.31-.118 1.699-.449.364-.311.533-.696.533-1.218 0-.548-.159-.975-.485-1.299-.467-.438-1.125-.625-2.274-.625h-5.32a47.405 47.405 0 0 0-.151 3.591m58.938 9.323c-.252-2.279-.395-5.283-.389-8.097.006-2.697.113-5.291.389-7.827h4.24c.287 2.523.381 5.124.388 7.828a82.543 82.543 0 0 1-.384 8.096h-4.244zm-73.543 0c-.252-2.279-.394-5.283-.388-8.097.006-2.697.112-5.291.388-7.827h4.243c.285 2.523.379 5.124.387 7.828.007 2.808-.153 5.838-.385 8.096h-4.245z" style="fill:url(#a);stroke:none" transform="matrix(2.76675 0 0 -2.76675 -264.689 1013.888)"/><path d="m205.352 342.154-7.487-7.557v-.001c25.989 0 32.116 6.11 35.691 14.427l3.002 7.829c-8.756-.252-21.969-5.413-31.206-14.698" style="fill:url(#b);stroke:none" transform="matrix(2.76675 0 0 -2.76675 -264.689 1013.888)"/><path d="m222.809 359.83-8.424-8.533c7.998 5.745 15.974 9.211 23.92 10.106l1.937 5.052c-11.763 0-13.365-2.572-17.433-6.625" style="fill:url(#c);stroke:none" transform="matrix(2.76675 0 0 -2.76675 -264.689 1013.888)"/></svg>