<svg xmlns="http://www.w3.org/2000/svg" width="2000" height="2000.05" viewBox="0 0 2000 2000.05"><path d="M1932.3,640C1734.17,125.38,1156.37-131.19,641.74,66.94l0,0-2,.8a980.84,980.84,0,0,0-143.51,69.11C19.35,415.63-141.21,1028.16,137.56,1505a1000,1000,0,0,0,155.8,202,978.15,978.15,0,0,0,208.52,160c479,275.09,1090.23,109.82,1365.31-369.13A999.71,999.71,0,0,0,1952,1306.07a976.23,976.23,0,0,0,46.91-258.52A996,996,0,0,0,1932.3,640Z" fill="#b13932"/><g fill="#cc4641"><path d="M1932.3 640a996.89 996.89 0 0 1 66.31 407.64q-47.1 62.7-100 120.91A1728 1728 0 0 0 677.39 166.27 1725.36 1725.36 0 0 1 792 22.16C1272.23-79.67 1755.36 182.11 1932.3 640"/><path d="M1998.61 1047.25a980.09 980.09 0 0 1 -46.91 258.42c-8.1-24.3-17-48.5-26.5-72.41-8.8-21.8-17.6-44.1-26.4-65.1q52.6-58.2 100-120.91"/></g><path d="M1925.6,1233.26c9.3,24.11,18.2,48.31,26.5,72.41-169.15,525.8-732.51,814.91-1258.31,645.76A1000.52,1000.52,0,0,1,502,1866.62c-10-23.3-20-46.9-30-71.11-8.8-22-16.5-44.1-24-66.1A1732.77,1732.77,0,0,0,1898.9,1168.16c9.2,21.4,17.9,43.7,26.5,65.1Z" fill="#b13932"/><path d="M1898.8 1168.16A1732.55 1732.55 0 0 1 447.87 1730.11 1727.59 1727.59 0 0 1 677.19 166.77 1727.84 1727.84 0 0 1 1898.8 1168.16" fill="#be4137"/><g fill="#a5322d"><path d="M792.1,22.16A1747.74,1747.74,0,0,0,677.39,166.27a1684.35,1684.35,0,0,0-181.51-29.4A979.6,979.6,0,0,1,639.69,67.76,1023.18,1023.18,0,0,1,792.1,22.16Z"/><path d="M495.78 136.87a1691.54 1691.54 0 0 1 181.61 29.4A1727.37 1727.37 0 0 0 448.07 1730.11c-52.1-5.1-104-12.5-155.21-22.4C-97.53 1317.45-97.63 684.6 292.63 294.22A998.89 998.89 0 0 1 495.78 137.57"/></g><path d="M472.07,1795.51c8.9,24.21,19,47.81,30,71.11a981.12,981.12,0,0,1-208.62-160A1557.16,1557.16,0,0,0,448.57,1729c7.3,22,15.3,44.1,24,66.1Z" fill="#b13932"/><path d="M329.56,431.79H664.69A673.73,673.73,0,0,1,799.1,444.5a338.91,338.91,0,0,1,115.11,44.1,230.73,230.73,0,0,1,80,84.41q30,53,30,134.91,0,105-57.9,175.81T801.1,970l255.73,426.54H850.31L626.69,987.84H501.28v409.24H329.56ZM634.79,840.63c24.6,0,49.3-1.1,73.7-3.4a227.09,227.09,0,0,0,67.41-16.3,116.2,116.2,0,0,0,50-40c12.71-17.7,19-42.4,19-74.3a118.65,118.65,0,0,0-17.61-68.21A110.53,110.53,0,0,0,780.8,600a213.54,213.54,0,0,0-63.4-16.8,543.61,543.61,0,0,0-67.11-4.1h-149V840.63Zm432.64-140h155.31v98.11h2.7A210,210,0,0,1,1321,711.52a306.91,306.91,0,0,1,129.41-27.6,327.49,327.49,0,0,1,135,26.1,300.61,300.61,0,0,1,102.11,72.9,310.27,310.27,0,0,1,64.11,108.61,410.77,410.77,0,0,1,21.8,135,387.73,387.73,0,0,1-23,135.21,337.22,337.22,0,0,1-64.71,110,301.68,301.68,0,0,1-100,72.9,307.72,307.72,0,0,1-128.21,26.41,317.18,317.18,0,0,1-81.71-10,276.79,276.79,0,0,1-62.7-24.51,249.83,249.83,0,0,1-46.31-32,235.42,235.42,0,0,1-31.3-33.3h-5.1V1665H1067.43Zm542.94,326.73a209.84,209.84,0,0,0-13-73.61,184.27,184.27,0,0,0-38.2-62.61A199,199,0,0,0,1337.75,847a190.06,190.06,0,0,0-60.61,44.1,186,186,0,0,0-38.2,62.61,215.26,215.26,0,0,0,0,147.21,185.78,185.78,0,0,0,38.2,62.71,198.91,198.91,0,0,0,221.42,43.5,191.11,191.11,0,0,0,60.61-43.5,185.62,185.62,0,0,0,38.2-62.71A212.4,212.4,0,0,0,1610.37,1027.35Z" fill="#fff"/></svg>