<svg id="svg8" xmlns="http://www.w3.org/2000/svg" viewBox="0 0 481.2 481.4" width="2499" height="2500"><style>.st0{fill:#e30030}</style><g id="layer1" transform="translate(553.392 -51.42)"><g id="g829" transform="matrix(.7936 0 0 .7936 -553.39 53.42)"><path id="path817" class="st0" d="M606.3 318.5c-1.7 64-28.2 132.3-81.5 189.3-53.2 56.9-119.3 88.4-196.9 95.6-92.6 6-172.2-23.2-239-87.7C33.5 458.9 3.8 390.8.1 311.5c-1.7-83.6 25.3-156.4 81.8-218C135.8 37 201.5 5.2 279.3-1.8c88.5-5.6 165.9 20.9 231.2 81.1 60.4 55.9 97.1 136.9 95.8 239.2zm-375.9 23.9c22.4-13 44.8-26 67.2-38.9.5-25.5 1-50.9 1.5-76.5-.6.2-.9.3-1.2.5-2.2 1.2-4.4 2.3-6.5 3.6-7.2 4.2-14.4 8.4-21.6 12.7-6.9 4.1-13.8 8.3-20.6 12.5-9.5 5.9-18.9 11.8-28.3 17.7-4.2 2.6-8.3 5.2-12.4 7.9-7.6 5-15.2 9.9-22.7 15-5.9 4-11.7 8-17.5 12.1-7.9 5.6-15.7 11.3-23.4 17.1-5 3.7-9.9 7.6-14.7 11.4-3 2.4-5.8 4.9-8.7 7.3.4 10.5 1.2 20.8 2.4 31s2 20.6 4.3 30.9c1.9-1.2 3.5-2.2 5.1-3.2l27-18 1.9-1.3.2 2c1.2 10.8 2.1 21.6 3.5 32.3 1.6 12.6 3.5 25.1 5.9 37.5 1 5.2 2 10.3 3.1 15.5.6 2.9 1.4 5.8 2 8.5 8.5 3.3 59.8 14.3 64.7 13.5l-.1-1.3c-.9-6.8-1.9-13.6-2.7-20.5-1.5-13.2-2.9-26.5-4.1-39.7-.7-7.3-1.2-14.6-1.6-21.9-.6-10.1-1.1-20.2-1.6-30.2-.4-7-.7-14-.9-21.1-.3-5.2-.2-10.6-.2-16.4zm3.8-148.5c2.6-31.9 6.1-63.4 11.5-94.8-5.1-.7-56.1 9.8-64.2 13.4-6.1 21.3-9.7 40.3-13.6 65.1-2 11.7-6.6 62.8-6.2 66.3 2.5-1.8 5.9-4.1 8.4-6 6.3-4.6 12.6-9.3 19-13.8 7.7-5.4 15.4-10.7 23.2-15.9 5.6-3.8 11.3-7.4 16.9-11 1.5-1.1 3.1-2.1 5-3.3z"/></g></g></svg>