<svg xmlns="http://www.w3.org/2000/svg" width="512pt" height="512pt" style="isolation:isolate" viewBox="0 0 512 512"><defs><clipPath id="a"><path d="M0 0h512v512H0z"/></clipPath></defs><g clip-path="url(#a)"><path fill="#FFF" d="M255.998 499.984c134.197 0 242.984-108.787 242.984-242.984 0-134.195-108.787-242.982-242.984-242.982C121.803 14.018 13.016 122.805 13.016 257c0 134.197 108.787 242.984 242.982 242.984Z"/><path fill="#4000BF" d="M256 1C114.615 1 0 115.615 0 257c0 141.386 114.615 256 256 256 141.386 0 256-114.614 256-256C512 115.615 397.386 1 256 1Zm0 26.034c127.006 0 229.966 102.959 229.966 229.966 0 127.006-102.96 229.966-229.966 229.966-127.007 0-229.966-102.96-229.966-229.966C26.034 129.993 128.993 27.034 256 27.034Z"/><linearGradient id="b" x1=".5" x2=".5" y1="1" y2="0" gradientTransform="translate(76.656 74.764) scale(364.475)" gradientUnits="userSpaceOnUse"><stop offset="0%" style="stop-color:#7400e1"/><stop offset="100%" style="stop-color:#4000bf"/></linearGradient><path fill="url(#b)" fill-rule="evenodd" d="M258.893 74.764c100.648 0 182.238 81.59 182.238 182.238 0 100.646-81.59 182.236-182.238 182.236-100.646 0-182.237-81.59-182.237-182.236 0-24.599 4.873-48.058 13.707-69.466 12.899 17.565 33.699 28.968 57.163 28.968 39.141 0 70.871-31.73 70.871-70.87 0-23.464-11.403-44.265-28.97-57.163 21.41-8.834 44.869-13.707 69.466-13.707Z"/></g></svg>