<svg xmlns="http://www.w3.org/2000/svg" width="1200" height="1200" version="1.0"><path d="M-804.6 682.946a419.447 419.447 0 1 1-838.894 0 419.447 419.447 0 1 1 838.894 0z" style="opacity:1;fill:#fff;fill-opacity:1;stroke:#e5050f;stroke-width:12;stroke-miterlimit:4;stroke-dasharray:none;stroke-opacity:1" transform="translate(2048.01 -221.204) scale(1.17303)"/><path d="M-804.6 682.946a419.447 419.447 0 1 1-838.894 0 419.447 419.447 0 1 1 838.894 0z" style="opacity:1;fill:#fff;fill-opacity:1;stroke:#e5050f;stroke-width:12;stroke-miterlimit:4;stroke-dasharray:none;stroke-opacity:1" transform="translate(1759.832 -59.63) scale(.93555)"/><path d="M869.828 778.63a484.575 484.575 0 1 1-969.15 0 484.575 484.575 0 1 1 969.15 0z" style="opacity:1;fill:#e5050f;fill-opacity:1;stroke:none;stroke-width:22.2;stroke-miterlimit:4;stroke-dasharray:none;stroke-opacity:1" transform="matrix(.77722 0 0 .77722 314.92 -26.026)"/><path d="M-714.435 431.77c2.223-17.331 9.475-32.986 18.072-48.192l24.9 11.245 22.49-30.523 22.49 6.828c.332 40.144-.758 81.506 14.056 109.237l-11.245 14.056c-25.475-24.07-52.604-47.037-90.763-62.65z" style="fill:#fff;fill-opacity:1;fill-rule:evenodd;stroke:none;stroke-width:1px;stroke-linecap:butt;stroke-linejoin:miter;stroke-opacity:1" transform="translate(1480.948 51.613)"/><path d="M-756.294 473.376c-49.755-.195-13.696-58.453-6.424-80.696 6.533-19.98-3.355-60.301-41.503-74.603v-51.152c75.119 21.773 83.5 71.845 126.728 48.848v25.345c-67.41 69.122-37.886 131.86-78.801 132.258z" style="fill:#fff;fill-opacity:1;fill-rule:evenodd;stroke:none;stroke-width:1px;stroke-linecap:butt;stroke-linejoin:miter;stroke-opacity:1" transform="translate(1480.948 51.613)"/><path d="M-956.755 361.856c73.794-18.67 129.185-12.8 181.106-2.304 7.465 21.781.978 36.587-5.991 51.152-50.775-8.302-105.08-10.428-170.507 6.912-11.054-16.683-11.984-35.391-4.608-55.76z" style="fill:#fff;fill-opacity:1;fill-rule:evenodd;stroke:none;stroke-width:1px;stroke-linecap:butt;stroke-linejoin:miter;stroke-opacity:1" transform="translate(1480.948 51.613)"/><path d="M-913.044 317.998c-88.537 15.046-68.63 119.869 0 148.17v91.464c-194.46-56.129-159.323-267.64 0-289.024v49.39zM-817.312 646.657c-26.344 3.566-53.74 2.924-81.708 0V417.998c27.236-2.769 54.472-3.706 81.708 0v228.659z" style="fill:#fff;fill-opacity:1;fill-rule:evenodd;stroke:none;stroke-width:1px;stroke-linecap:butt;stroke-linejoin:miter;stroke-opacity:1" transform="translate(1480.948 51.613)"/><path d="M-1185.605 532.632c47.368-22.912 57.837-73.19 126.83-123.78 1.977 23.458 4.658 46.354 14.634 63.414-29.248 42.25-27.273 82.355 16.463 131.098-10.176 23.333-22.557 40.052-35.976 53.659-61.515-36.611-75.703-84.217-121.95-124.39zM-965.403 701.51c17.548-19.38 22.42-33.69 29.905-49.044 46.577 9.8 100.816 13.793 182.22-2.791 8.508 17.048 5.264 33.03 2.393 49.044-48.231 17.325-138.083 21.397-214.518 2.79z" style="fill:#fff;fill-opacity:1;fill-rule:evenodd;stroke:none;stroke-width:1px;stroke-linecap:butt;stroke-linejoin:miter;stroke-opacity:1" transform="translate(1480.948 51.613)"/><path d="m-1099.776 693.934 5.981 25.917 35.886 2.393c41.377 29.296 85.64 56.828 145.936 74.563v-50.64c-32.65-5.558-53.687-22.005-69.38-43.461 46.45-49.967 55.865-112.69 26.477-125.456-39.093-16.981-56.55 23.004-78.88 59.086-14.562 23.532-35.585 46.98-66.02 57.598zM-817.054 265.581c.186-38.722 29.875-34.033 43.89-20.085-1.965-48.562-41.37-54.34-60.256-36.823-5.597-9.195-12.835-16.209-24.363-21.945-10.324 4.86-18.563 12.065-24.92 21.387-17.832-16.278-58.458-12.258-60.255 36.637 15.023-12.965 43.331-17.547 43.331 21.015l.186 74.132a571.567 571.567 0 0 1 82.479-.198l-.092-74.12z" style="fill:#fff;fill-opacity:1;fill-rule:evenodd;stroke:none;stroke-width:1px;stroke-linecap:butt;stroke-linejoin:miter;stroke-opacity:1" transform="translate(1480.948 51.613)"/><path d="M-816.971 798.564c.186 38.722 29.875 34.033 43.89 20.085-1.965 48.562-41.37 54.34-60.256 36.823-5.597 9.195-12.834 16.209-24.362 21.945-10.324-4.86-18.564-12.065-24.92-21.387-17.833 16.278-58.459 12.258-60.256-36.637 15.024 12.966 43.332 17.547 43.332-21.015l.185-74.132a571.567 571.567 0 0 0 82.479.198l-.092 74.12z" style="fill:#fff;fill-opacity:1;fill-rule:evenodd;stroke:none;stroke-width:1px;stroke-linecap:butt;stroke-linejoin:miter;stroke-opacity:1" transform="translate(1480.948 51.613)"/><path d="M-804.987 502.968v87.607c100.186 33.326 84.326 158.114 1.282 155.128v50.427c107.41-10.646 148.984-77.258 149.645-142.178.749-74.4-58.05-127.066-150.927-150.984zM-643.021 650.831c.13-11.435 1.15-21.597-6.41-44.017l23.077-15.385 26.068 21.368c-10.204 15.372-25.747 27.185-42.735 38.034z" style="fill:#fff;fill-opacity:1;fill-rule:evenodd;stroke:none;stroke-width:1px;stroke-linecap:butt;stroke-linejoin:miter;stroke-opacity:1" transform="translate(1480.948 51.613)"/><text xml:space="preserve" x="-559.883" y="267.484" style="font-size:75.0134px;font-style:normal;font-variant:normal;font-weight:900;font-stretch:normal;text-align:start;line-height:100%;text-anchor:start;fill:#e5050f;fill-opacity:1;stroke:none;stroke-width:1px;stroke-linecap:butt;stroke-linejoin:miter;stroke-opacity:1;font-family:Arial Black" transform="rotate(-82.698)"><tspan x="-559.883" y="267.484">S</tspan></text><text xml:space="preserve" x="-509.287" y="249.152" style="font-size:75.0134px;font-style:normal;font-variant:normal;font-weight:900;font-stretch:normal;text-align:start;line-height:100%;text-anchor:start;fill:#e5050f;fill-opacity:1;stroke:none;stroke-width:1px;stroke-linecap:butt;stroke-linejoin:miter;stroke-opacity:1;font-family:Arial Black" transform="rotate(-84.747)"><tspan x="-509.287" y="249.152">.</tspan></text><text xml:space="preserve" x="-391.167" y="339.011" style="font-size:75.0134px;font-style:normal;font-variant:normal;font-weight:900;font-stretch:normal;text-align:start;line-height:100%;text-anchor:start;fill:#e5050f;fill-opacity:1;stroke:none;stroke-width:1px;stroke-linecap:butt;stroke-linejoin:miter;stroke-opacity:1;font-family:Arial Black" transform="rotate(-73.385)"><tspan x="-391.167" y="339.011">C</tspan></text><text xml:space="preserve" x="-300.223" y="367.886" style="font-size:75.0134px;font-style:normal;font-variant:normal;font-weight:900;font-stretch:normal;text-align:start;line-height:100%;text-anchor:start;fill:#e5050f;fill-opacity:1;stroke:none;stroke-width:1px;stroke-linecap:butt;stroke-linejoin:miter;stroke-opacity:1;font-family:Arial Black" transform="rotate(-68.667)"><tspan x="-300.223" y="367.886">.</tspan></text><text xml:space="preserve" x="-159.056" y="416.281" style="font-size:75.0134px;font-style:normal;font-variant:normal;font-weight:900;font-stretch:normal;text-align:start;line-height:100%;text-anchor:start;fill:#e5050f;fill-opacity:1;stroke:none;stroke-width:1px;stroke-linecap:butt;stroke-linejoin:miter;stroke-opacity:1;font-family:Arial Black" transform="rotate(-55.916)"><tspan x="-159.056" y="416.281">I</tspan></text><text xml:space="preserve" x="-32.482" y="427.316" style="font-size:75.0134px;font-style:normal;font-variant:normal;font-weight:900;font-stretch:normal;text-align:start;line-height:100%;text-anchor:start;fill:#e5050f;fill-opacity:1;stroke:none;stroke-width:1px;stroke-linecap:butt;stroke-linejoin:miter;stroke-opacity:1;font-family:Arial Black" transform="rotate(-47.183)"><tspan x="-32.482" y="427.316">N</tspan></text><text xml:space="preserve" x="170.221" y="402.58" style="font-size:75.0134px;font-style:normal;font-variant:normal;font-weight:900;font-stretch:normal;text-align:start;line-height:100%;text-anchor:start;fill:#e5050f;fill-opacity:1;stroke:none;stroke-width:1px;stroke-linecap:butt;stroke-linejoin:miter;stroke-opacity:1;font-family:Arial Black" transform="rotate(-32.635)"><tspan x="170.221" y="402.58">T</tspan></text><text xml:space="preserve" x="319.981" y="357.53" style="font-size:75.0134px;font-style:normal;font-variant:normal;font-weight:900;font-stretch:normal;text-align:start;line-height:100%;text-anchor:start;fill:#e5050f;fill-opacity:1;stroke:none;stroke-width:1px;stroke-linecap:butt;stroke-linejoin:miter;stroke-opacity:1;font-family:Arial Black" transform="rotate(-22.816)"><tspan x="319.981" y="357.53">E</tspan></text><text xml:space="preserve" x="469.765" y="267.395" style="font-size:75.0134px;font-style:normal;font-variant:normal;font-weight:900;font-stretch:normal;text-align:start;line-height:100%;text-anchor:start;fill:#e5050f;fill-opacity:1;stroke:none;stroke-width:1px;stroke-linecap:butt;stroke-linejoin:miter;stroke-opacity:1;font-family:Arial Black" transform="rotate(-10.733)"><tspan x="469.765" y="267.395">R</tspan></text><text xml:space="preserve" x="603.769" y="162.492" style="font-size:75.0134px;font-style:normal;font-variant:normal;font-weight:900;font-stretch:normal;text-align:start;line-height:100%;text-anchor:start;fill:#e5050f;fill-opacity:1;stroke:none;stroke-width:1px;stroke-linecap:butt;stroke-linejoin:miter;stroke-opacity:1;font-family:Arial Black" transform="rotate(.162)"><tspan x="603.769" y="162.492">N</tspan></text><text xml:space="preserve" x="723.28" y="-6.219" style="font-size:75.0134px;font-style:normal;font-variant:normal;font-weight:900;font-stretch:normal;text-align:start;line-height:100%;text-anchor:start;fill:#e5050f;fill-opacity:1;stroke:none;stroke-width:1px;stroke-linecap:butt;stroke-linejoin:miter;stroke-opacity:1;font-family:Arial Black" transform="rotate(14.222)"><tspan x="723.28" y="-6.219">A</tspan></text><text xml:space="preserve" x="769.312" y="-262.307" style="font-size:75.0134px;font-style:normal;font-variant:normal;font-weight:900;font-stretch:normal;text-align:start;line-height:100%;text-anchor:start;fill:#e5050f;fill-opacity:1;stroke:none;stroke-width:1px;stroke-linecap:butt;stroke-linejoin:miter;stroke-opacity:1;font-family:Arial Black" transform="rotate(32.967)"><tspan x="769.312" y="-262.307">C</tspan></text><text xml:space="preserve" x="833.428" y="-339.766" style="font-size:75.0134px;font-style:normal;font-variant:normal;font-weight:900;font-stretch:normal;text-align:start;line-height:100%;text-anchor:start;fill:#e5050f;fill-opacity:1;stroke:none;stroke-width:1px;stroke-linecap:butt;stroke-linejoin:miter;stroke-opacity:1;font-family:Arial Black" transform="rotate(38.098)"><tspan x="833.428" y="-339.766">I</tspan></text><text xml:space="preserve" x="832.866" y="-465.289" style="font-size:75.0134px;font-style:normal;font-variant:normal;font-weight:900;font-stretch:normal;text-align:start;line-height:100%;text-anchor:start;fill:#e5050f;fill-opacity:1;stroke:none;stroke-width:1px;stroke-linecap:butt;stroke-linejoin:miter;stroke-opacity:1;font-family:Arial Black" transform="rotate(46.65)"><tspan x="832.866" y="-465.289">O</tspan></text><text xml:space="preserve" x="782.414" y="-679.069" style="font-size:75.0134px;font-style:normal;font-variant:normal;font-weight:900;font-stretch:normal;text-align:start;line-height:100%;text-anchor:start;fill:#e5050f;fill-opacity:1;stroke:none;stroke-width:1px;stroke-linecap:butt;stroke-linejoin:miter;stroke-opacity:1;font-family:Arial Black" transform="rotate(61.482)"><tspan x="782.414" y="-679.069">N</tspan></text><text xml:space="preserve" x="682.015" y="-875.736" style="font-size:75.0134px;font-style:normal;font-variant:normal;font-weight:900;font-stretch:normal;text-align:start;line-height:100%;text-anchor:start;fill:#e5050f;fill-opacity:1;stroke:none;stroke-width:1px;stroke-linecap:butt;stroke-linejoin:miter;stroke-opacity:1;font-family:Arial Black" transform="rotate(76.199)"><tspan x="682.015" y="-875.736">A</tspan></text><text xml:space="preserve" x="585.75" y="-1005.52" style="font-size:75.0134px;font-style:normal;font-variant:normal;font-weight:900;font-stretch:normal;text-align:start;line-height:100%;text-anchor:start;fill:#e5050f;fill-opacity:1;stroke:none;stroke-width:1px;stroke-linecap:butt;stroke-linejoin:miter;stroke-opacity:1;font-family:Arial Black" transform="rotate(87.453)"><tspan x="585.75" y="-1005.52">L</tspan></text><text xml:space="preserve" x="702.392" y="876.96" style="font-size:75.0134px;font-style:normal;font-variant:normal;font-weight:900;font-stretch:normal;text-align:start;line-height:100%;text-anchor:start;fill:#e5050f;fill-opacity:1;stroke:none;stroke-width:1px;stroke-linecap:butt;stroke-linejoin:miter;stroke-opacity:1;font-family:Arial Black" transform="rotate(14.578)"><tspan x="702.392" y="876.96">1</tspan></text><text xml:space="preserve" x="683.871" y="959.214" style="font-size:75.0134px;font-style:normal;font-variant:normal;font-weight:900;font-stretch:normal;text-align:start;line-height:100%;text-anchor:start;fill:#e5050f;fill-opacity:1;stroke:none;stroke-width:1px;stroke-linecap:butt;stroke-linejoin:miter;stroke-opacity:1;font-family:Arial Black" transform="rotate(7.995)"><tspan x="683.871" y="959.214">9</tspan></text><text xml:space="preserve" x="487.275" y="1127.43" style="font-size:75.0134px;font-style:normal;font-variant:normal;font-weight:900;font-stretch:normal;text-align:start;line-height:100%;text-anchor:start;fill:#e5050f;fill-opacity:1;stroke:none;stroke-width:1px;stroke-linecap:butt;stroke-linejoin:miter;stroke-opacity:1;font-family:Arial Black" transform="rotate(-7.716)"><tspan x="487.275" y="1127.43">0</tspan></text><text xml:space="preserve" x="521.586" y="1148.28" style="font-size:75.0134px;font-style:normal;font-variant:normal;font-weight:900;font-stretch:normal;text-align:start;line-height:100%;text-anchor:start;fill:#e5050f;fill-opacity:1;stroke:none;stroke-width:1px;stroke-linecap:butt;stroke-linejoin:miter;stroke-opacity:1;font-family:Arial Black" transform="rotate(-10.323)"><tspan x="521.586" y="1148.28">9</tspan></text></svg>