<svg xmlns="http://www.w3.org/2000/svg" xml:space="preserve" width="512.001" height="213.759" style="shape-rendering:geometricPrecision;text-rendering:geometricPrecision;image-rendering:optimizeQuality;fill-rule:evenodd;clip-rule:evenodd" viewBox="0 0 13547 5656"><defs><style>.fil0{fill:#00683e}</style></defs><g id="Layer_x0020_1_0"><path d="M1099 2373c0 627-380 730-612 777-165 34-332 69-487 95V872C0 245 380 142 612 95c165-34 332-69 487-95v2373zm385-1473V0h6769c-127 166-233 336-349 495-161 220-356 405-776 405H5269v2346H4170V900H1483z" class="fil0"/><path d="M8704 2473c259-357 483-442 846-442h804l-883 1214H8143l562-772z" style="fill:#bf1e0c"/><path d="M8405 442C8664 85 8888 0 9251 0h1935l2361 3246h-804c-362 0-586-85-846-442L9956 135 7694 3246H6366L8405 442zM1654 4544l-233 499h467l-233-499zm-333 712-161 344H857l796-1619 796 1619h-303l-161-344h-665zm7475-712-233 499h467l-233-499zm-332 712-161 344h-303l796-1619 796 1619h-303l-161-344h-665zM3052 4037h303v1563h-303zm7318 1562h281v-704l590-858h-319l-400 594-416-594h-319l583 858zm-6210 0h266v-609h150l457 609h322l-487-648c188-73 319-242 319-437 0-263-238-477-531-477h-497v1563zm266-1328h231c130 0 236 109 236 242 0 134-106 242-236 242h-231v-485zm1961 733-391-967h-302l658 1619 445-1042 430 1042 658-1619h-288l-391 967-409-1009zm6222-836v296c-156-144-299-214-430-214-154 0-233 74-233 190 0 103 118 186 393 285 242 86 348 253 348 435 0 267-223 467-548 467-172 0-333-44-484-161v-289c160 140 319 212 477 212 175 0 290-84 290-198 0-132-122-182-347-276-271-113-400-251-400-448 0-288 217-452 497-452 167 0 312 46 436 154z" class="fil0"/></g></svg>