<svg xmlns="http://www.w3.org/2000/svg" width="550" height="125.042" viewBox="0 0 145.521 33.084"><path d="M93.978 138.618h1.268l-.052-1.512zm0 0" style="fill:#e60011;fill-opacity:1;fill-rule:nonzero;stroke:none;stroke-width:1.8982" transform="translate(-77.192 -111.83)"/><path d="M101.207 130.47c-3.38 3.292-8.43 1.186-7.919-2.855.393-3.122 4.22-6.221 7.111-7.904.008-.005.008-.027 0-.038a26.41 26.41 0 0 1-1.676-1.787c-1.394-1.69-3.848-1.757-5.309.096l-8.32.771c-.036 0-.036.043 0 .054l8.914.512c1.586.089 2.098 1.527.578 2.684-5.665 4.293-6.673 8.831-5.413 12.435.008.021-.022.037-.037.016-.526-.734-.912-1.639-1.127-2.58a10.641 10.641 0 0 1-4.924-8.98c0-5.843 4.76-10.655 10.648-10.655 5.88 0 10.648 4.812 10.648 10.655a10.63 10.63 0 0 1-3.174 7.578m2.084 9.988h-5.116l1.816-4.73h2.254l-1.438 3.729h2.87zm-7.978 0-.038-.934h-2.039l-.749.934h-1.86l3.78-4.382c.179-.208.446-.349.69-.349h2.017l.453 4.73zm-7.72.155a7.38 7.38 0 0 1-1.571-.155l.385-1.009c1.031.126 1.92.038 2.262-.867l1.097-2.855h2.254l-1.208 3.144c-.616 1.61-2.136 1.742-3.218 1.742m22.608-10.78c.11-1.054.081-2.551-.082-3.664 0-.021-.022-.021-.03 0-.34 1.61-1.379 3.79-3.633 5.569-.015.021-.037-.005-.022-.022 1.972-2.113 3.151-4.715 3.337-7.392-.371-1.476-.95-2.9-1.684-4.16-.008-.016-.022-.005-.022.005.4 2.707-.237 6.28-2.862 9.18-.015.021-.044 0-.03-.022a12.87 12.87 0 0 0 1.862-10.781c-3.018-4.07-7.853-6.718-13.302-6.718-5.458 0-10.292 2.647-13.31 6.718a12.87 12.87 0 0 0 1.861 10.781c.015.022-.007.043-.03.022-2.617-2.9-3.262-6.473-2.862-9.18.008-.016-.015-.021-.022-.005a16.7 16.7 0 0 0-1.683 4.16c.186 2.677 1.364 5.28 3.344 7.392.015.017-.015.043-.03.022-2.254-1.78-3.299-3.96-3.633-5.569-.007-.021-.03-.021-.03 0-.162 1.113-.192 2.61-.08 3.663.57 1.78 1.786 3.27 3.024 4.345.022.022 0 .043-.022.038-1.386-.867-2.165-1.713-2.691-2.454-.015-.022-.03-.016-.03.005 1.535 7.43 8.186 13.146 16.194 13.146 8 0 14.66-5.717 16.187-13.146.008-.022-.015-.033-.022-.005-.527.741-1.305 1.587-2.7 2.454-.021.005-.044-.016-.021-.038 1.245-1.075 2.461-2.565 3.025-4.345" style="fill:#e60011;fill-opacity:1;fill-rule:nonzero;stroke:none;stroke-width:1.8982" transform="translate(-77.192 -111.83)"/><path d="M183.772 125.546h-3.641l-3.055-5.583-2.143 5.583h-3.64l3.633-9.454h4.226l2.7 4.968 1.905-4.968h3.64zm-54.707-3.166c-1.23 3.21-4.278 3.485-6.444 3.485a14.5 14.5 0 0 1-3.129-.32l.772-2.009c2.06.245 3.826.067 4.515-1.742l2.195-5.702h4.5l-2.41 6.288m25.849-3.278c-.267.69-1.12 1.202-1.928 1.202h-2.506l.92-2.395h2.506c.823 0 1.275.504 1.008 1.193m-.319-3.003h-7.007l-3.626 9.447h4.509l1.312-3.433h2.506c4.167 0 6.407-1.112 7.133-3.01.727-1.891-.66-3.004-4.827-3.004m-18.952 5.769 2.425-3.018.11 3.018zm6.28-5.776h-4.033c-.49 0-1.024.289-1.387.704l-7.548 8.75h3.722l1.505-1.861h4.056l.074 1.86h4.509l-.898-9.453m21.051 5.776 2.425-3.018.11 3.018zm6.28-5.776h-4.033c-.49 0-1.024.289-1.387.704l-7.54 8.75h3.721l1.49-1.861h4.072l.074 1.86h4.5l-.897-9.453m52.231 21.599c-.95 2.477-4.234 3.24-7.779 3.24-3.544 0-5.82-.77-5.286-3.24h4.5c-.111.66.282 1.083 1.617 1.083s2.187-.43 2.44-1.083c.622-1.616-8.29-.037-6.867-3.73.786-2.068 3.915-3.04 7.445-3.04 3.53 0 5.531.757 5.101 3.04h-4.412c.067-.615-.118-1.074-1.446-1.074-1.327 0-2.039.467-2.276 1.075-.63 1.646 8.379.043 6.963 3.73m-78.85 2.958h-4.508l3.633-9.446h4.501zm34.086 0h-4.508l3.626-9.446h4.5zm29.022 0H194.79l3.626-9.446h10.952l-.697 1.816h-6.451l-.734 1.906h5.368l-.697 1.809h-5.36l-.735 1.913h6.444zm-13.755 0h-3.64l-3.055-5.576-2.143 5.576h-3.633l3.625-9.446h4.227l2.699 4.967 1.913-4.967h3.633zm-35.606-6.436c-.267.69-1.112 1.194-1.935 1.194h-2.499l.92-2.388h2.506c.815 0 1.275.504 1.008 1.194m-.319-3.01h-7.007l-3.625 9.446h4.508l1.312-3.426h1.364l.883 3.426h4.923l-1.2-3.767c1.994-.467 3.18-1.386 3.67-2.67.726-1.89-.66-3.01-4.828-3.01m9.862 7.445 2.87-7.444h-4.501l-3.626 9.446h10.225l.771-2.002zm-36.118-1.668 2.425-3.018.111 3.018zm6.273-5.776h-4.026c-.49 0-1.023.288-1.386.704l-7.549 8.742h3.722l1.498-1.854h4.071l.067 1.854h4.508l-.905-9.446" style="fill:#000;fill-opacity:1;fill-rule:nonzero;stroke:none;stroke-width:1.8982" transform="translate(-77.192 -111.83)"/></svg>