<svg xmlns="http://www.w3.org/2000/svg" width="512pt" height="512pt" style="isolation:isolate" viewBox="0 0 512 512"><defs><clipPath id="a"><path d="M0 0h512v512H0z"/></clipPath></defs><g clip-path="url(#a)"><path fill="#5382A1" d="M188.808 395.957s-19.565 11.379 13.924 15.229c40.572 4.628 61.308 3.964 106.019-4.497 0 0 11.756 7.369 28.172 13.753-100.229 42.958-226.84-2.488-148.115-24.485Zm-12.248-56.056s-21.944 16.245 11.571 19.711c43.34 4.472 77.567 4.837 136.793-6.567 0 0 8.191 8.305 21.072 12.847-121.184 35.436-256.16 2.794-169.436-25.991Z"/><path fill="#F8981D" d="M279.811 244.813c24.697 28.434-6.488 54.02-6.488 54.02s62.708-32.372 33.909-72.91c-26.897-37.803-47.525-56.587 64.142-121.35 0 0-175.279 43.778-91.563 140.24Z"/><path fill="#5382A1" d="M412.374 437.42s14.478 11.93-15.947 21.16c-57.853 17.525-240.793 22.817-291.613.697-18.27-7.947 15.989-18.976 26.765-21.291 11.24-2.436 17.661-1.982 17.661-1.982-20.316-14.312-131.316 28.102-56.382 40.249 204.357 33.141 372.522-14.924 319.516-38.833ZM198.218 281.821s-93.056 22.103-32.954 30.129c25.378 3.398 75.966 2.628 123.087-1.32 38.511-3.248 77.18-10.156 77.18-10.156s-13.58 5.816-23.404 12.524c-94.496 24.852-277.044 13.291-224.491-12.13 44.444-21.484 80.582-19.047 80.582-19.047Zm166.929 93.308c96.058-49.916 51.645-97.885 20.644-91.423-7.597 1.582-10.985 2.952-10.985 2.952s2.82-4.418 8.208-6.332c61.329-21.559 108.494 63.592-19.798 97.319 0 .001 1.487-1.328 1.931-2.516Z"/><path fill="#F8981D" d="M307.232 0s53.199 53.217-50.457 135.049c-83.121 65.646-18.955 103.074-.035 145.837-48.52-43.777-84.126-82.313-60.238-118.179C231.564 110.059 328.696 84.532 307.232 0Z"/><path fill="#5382A1" d="M207.656 510.39c92.206 5.903 233.796-3.274 237.149-46.904 0 0-6.445 16.54-76.201 29.675-78.7 14.811-175.764 13.081-233.333 3.589.001-.001 11.785 9.754 72.385 13.64Z"/></g></svg>