<svg xmlns="http://www.w3.org/2000/svg" width="512pt" height="512pt" style="isolation:isolate" viewBox="0 0 512 512"><defs><clipPath id="a"><path d="M0 0h512v512H0z"/></clipPath></defs><g clip-path="url(#a)"><path fill="#D33833" fill-rule="evenodd" d="M435.572 246.72c0 101.439-80.396 183.673-179.569 183.673-99.174 0-179.57-82.234-179.57-183.673 0-101.443 80.396-183.677 179.57-183.677 99.173 0 179.569 82.234 179.569 183.677Z"/><path fill="#EF3D3A" d="M83.751 292.209s-13-191.541 163.493-197.014l-12.312-20.522-95.771 32.152-27.364 31.467-23.942 45.835-13.683 53.358 4.105 35.571"/><path fill="#231F20" d="M133.012 121.42c-31.505 32.237-51.001 76.745-51.001 125.985 0 49.23 19.496 93.744 51.001 125.974 31.521 32.23 74.963 52.12 122.988 52.12 48.027 0 91.471-19.89 122.988-52.12 31.504-32.23 51.004-76.744 51.004-125.974 0-49.24-19.5-93.748-51.004-125.985C347.471 89.196 304.027 69.308 256 69.304c-48.025.004-91.467 19.892-122.988 52.116Zm-7.975 259.756c-33.484-34.243-54.184-81.568-54.184-133.771 0-52.21 20.7-99.532 54.184-133.777C158.513 79.376 204.852 58.147 256 58.152c51.148-.005 97.492 21.224 130.961 55.476 33.487 34.245 54.19 81.571 54.186 133.777.004 52.203-20.699 99.528-54.186 133.771-33.469 34.251-79.813 55.477-130.961 55.477-51.148 0-97.487-21.226-130.963-55.477Z"/><path fill="#F0D6B7" fill-rule="evenodd" d="m331.592 247.737-27.364 4.106-36.941 4.104-23.944.682-23.258-.682-17.786-5.474-15.735-17.101-12.313-34.888-2.736-7.525-16.418-5.472-9.577-15.734-6.841-22.574 7.526-19.84 17.784-6.156 14.367 6.842 6.841 15.048 8.21-1.368 2.734-3.42-2.734-15.733-.686-19.84 4.104-27.361-.16-15.631 12.474-19.941 21.89-15.735 38.31-16.417 42.412 6.156 36.94 26.68 17.104 27.361 10.944 19.84 2.736 49.253-8.21 42.414-15.048 37.624-14.366 19.838"/><path fill="#335061" fill-rule="evenodd" d="m308.332 366.081-97.825 4.106v16.417l8.209 57.463-4.104 4.789-68.407-23.26-4.79-8.208-6.84-77.3-15.732-46.517-3.422-10.946 54.726-37.622 17.102-6.843 15.05 18.469 12.997 11.631 15.051 4.788 6.84 2.052 8.208 35.572 6.157 7.524 15.735-5.472-10.947 21.208 59.516 28.045-7.524 4.104Z"/><path fill="#6D6B6D" fill-rule="evenodd" d="m146.205 127.339 17.784-6.156 14.367 6.842 6.841 15.048 8.21-1.368 2.052-8.209-4.104-15.732 4.104-37.627-3.422-20.521 12.314-14.367 26.678-21.205-7.525-10.261-37.624 18.47-15.733 12.314-8.894 19.153-13.681 18.471-4.104 21.89 2.737 23.258Z"/><path fill="#DCD9D8" fill-rule="evenodd" d="M174.251 63.037s10.261-25.31 51.306-37.624c41.044-12.313 2.052-8.894 2.052-8.894l-44.464 17.104-17.104 17.1-7.522 13.682 15.732-1.368Zm-20.523 59.515s-14.365-47.888 40.361-54.728l-2.052-8.208-37.622 8.893-10.947 35.572 2.737 23.258 7.523-4.787Z"/><path fill="#F7E4CD" fill-rule="evenodd" d="m175.62 186.171 8.956-8.679s4.043.469 4.727 5.257c.682 4.791 2.734 47.887 32.149 71.147 2.684 2.123-21.889-3.423-21.889-3.423l-21.891-34.202m123.821-43.098s1.595-20.734 7.179-19.14c5.585 1.594 5.585 7.179 5.585 7.179s-13.561 8.773-12.764 11.961Z"/><path fill="#F7E4CD" d="M358.269 97.241s-11.276 2.38-12.313 12.314c-1.039 9.934 12.313 2.052 14.365 1.369m-84.825-12.997s-15.051 2.052-15.051 11.628c0 9.577 17.103 8.894 21.891 4.789"/><path fill="#F7E4CD" fill-rule="evenodd" d="M182.46 142.391s-25.996-15.735-28.732-.684c-2.736 15.049-8.893 25.996 4.105 41.728l-8.893-2.735-8.208-21.207-2.736-20.521 15.732-16.42 17.787 1.368 10.261 8.209.684 10.262Zm12.313-43.098s11.63-60.198 70.462-71.828c48.434-9.573 73.878 2.052 83.456 12.998 0 0-43.096-51.304-84.142-35.572-41.045 15.734-71.142 44.465-70.46 62.933 1.166 31.457.684 31.469.684 31.469Zm158.708-51.99s-19.837-.684-20.522 17.102c0 0-.002 2.736 1.366 5.472 0 0 15.738-17.786 25.312-8.209"/><path fill="#F7E4CD" fill-rule="evenodd" d="M266.613 71.729s-3.414-27.3-26.69-11.428c-15.05 10.262-13.68 24.627-10.946 27.363 2.736 2.737 1.992 8.248 4.075 4.465 2.083-3.782 1.397-16.096 8.923-19.514 7.525-3.422 19.861-7.243 24.638-.886Z"/><path fill="#49728B" fill-rule="evenodd" d="m202.299 256.629-64.303 28.732s26.679 106.034 12.996 138.868l-9.577-3.418-.683-40.362-17.784-76.616-7.527-21.208 67.039-45.146 19.839 19.15Zm6.612 58.648 9.122 11.131v41.044h-10.946s-1.367-28.731-1.367-32.152c0-3.421 1.367-15.735 1.367-15.735m2.052 54.044-30.783 1.367 8.893 6.157 21.89 3.42"/><path fill="#335061" fill-rule="evenodd" d="m314.488 366.767 25.311-.683 6.157 62.936-25.996 3.419-5.472-65.672Z"/><path fill="#335061" fill-rule="evenodd" d="m321.329 366.767 38.308-2.052s15.734-39.676 15.734-41.728c0-2.052 13.681-57.463 13.681-57.463l-30.783-32.149-6.157-5.474-16.417 16.418v63.618l-14.366 58.83Z"/><path fill="#49728B" fill-rule="evenodd" d="m338.431 361.979-23.943 4.788 3.42 19.156c8.892 4.104 23.943-6.843 23.943-6.843m-2.735-136.813L387 277.837l1.369-16.417-36.257-33.519-12.996 14.366Z"/><path fill="#FFF" fill-rule="evenodd" d="m232.879 501.538-14.163-57.471-7.044-42.406-1.165-31.474 64.101-3.414 39.88-.006-3.625 71.834 6.156 55.411-.683 10.262-51.989 4.104-31.468-6.84Z"/><path fill="#DCD9D8" fill-rule="evenodd" d="M305.595 366.084s-3.42 71.144 6.841 121.765c0 0-20.521 12.999-50.623 16.418l57.463-2.052 6.84-4.104-8.208-112.188-2.052-23.946"/><path fill="#FFF" fill-rule="evenodd" d="m347.121 423.552 26.679-7.524 50.62-2.736 7.527-23.259-13.683-40.361-15.732-2.052-21.892 6.84-21.003 10.255-11.149-2.046-8.689 3.415"/><path fill="#DCD9D8" fill-rule="evenodd" d="M346.639 409.864s17.785-8.207 20.522-7.524l-7.524-37.625 8.894-3.419s6.156 35.571 6.156 39.676c0 0 38.306 2.052 41.728 2.052 0 0 8.209-15.735 6.157-32.152l7.525 21.891.683 12.313-10.944 16.417-12.313 2.736-20.523-.684-6.84-8.89-23.943 3.418-7.526 2.738"/><path fill="#FFF" d="m319.757 361.303-15.049-38.31-15.735-22.574s3.419-9.578 8.21-9.578h15.733l15.049 5.474-1.366 25.309-6.842 39.679Z"/><path fill="#DCD9D8" fill-rule="evenodd" d="M322.697 348.297s-19.154-36.938-19.154-42.412c0 0 3.418-8.208 8.208-6.156 4.79 2.052 15.052 7.523 15.052 7.523v-12.996l-23.26-4.791-15.734 2.052 26.679 62.936 5.472.686"/><path fill="#FFF" d="m239.036 258.007-18.951-2.06-17.786-5.474v6.156l8.69 9.584 27.363 12.314"/><path fill="#DCD9D8" fill-rule="evenodd" d="M208.457 260.057s21.208 8.895 28.048 6.843l.682 8.2-19.151-4.096-11.631-8.209 2.052-2.738Z"/><path fill="#D33833" fill-rule="evenodd" d="M347.047 293.171c-11.607-.342-22.094-1.72-31.276-4.311.624-3.764-.543-7.457.394-10.168 2.559-1.844 6.848-1.815 10.718-2.248-3.346-1.644-8.046-2.295-11.906-1.344-.09-2.612-1.262-4.232-1.972-6.276 6.526-2.329 21.932-17.6 30.599-12.543 4.129 2.406 5.884 16.143 6.204 22.823.267 5.541-.503 11.131-2.761 14.067Z"/><path fill="none" d="M347.047 293.171c-11.607-.342-22.094-1.72-31.276-4.311.624-3.764-.543-7.457.394-10.168 2.559-1.844 6.848-1.815 10.718-2.248-3.346-1.644-8.046-2.295-11.906-1.344-.09-2.612-1.262-4.232-1.972-6.276 6.526-2.329 21.932-17.6 30.599-12.543 4.129 2.406 5.884 16.143 6.204 22.823.267 5.541-.503 11.131-2.761 14.067Z"/><mask id="b" width="400%" height="400%" x="-200%" y="-200%"><rect width="400%" height="400%" x="-200%" y="-200%" style="fill:#fff"/><path d="M347.047 293.171c-11.607-.342-22.094-1.72-31.276-4.311.624-3.764-.543-7.457.394-10.168 2.559-1.844 6.848-1.815 10.718-2.248-3.346-1.644-8.046-2.295-11.906-1.344-.09-2.612-1.262-4.232-1.972-6.276 6.526-2.329 21.932-17.6 30.599-12.543 4.129 2.406 5.884 16.143 6.204 22.823.267 5.541-.503 11.131-2.761 14.067Z"/></mask><path fill="none" d="M347.047 293.171c-11.607-.342-22.094-1.72-31.276-4.311.624-3.764-.543-7.457.394-10.168 2.559-1.844 6.848-1.815 10.718-2.248-3.346-1.644-8.046-2.295-11.906-1.344-.09-2.612-1.262-4.232-1.972-6.276 6.526-2.329 21.932-17.6 30.599-12.543 4.129 2.406 5.884 16.143 6.204 22.823.267 5.541-.503 11.131-2.761 14.067Z"/><path fill="none" stroke="#D33833" stroke-opacity="100" stroke-width="5" d="M347.047 293.171c-11.607-.342-22.094-1.72-31.276-4.311.624-3.764-.543-7.457.394-10.168 2.559-1.844 6.848-1.815 10.718-2.248-3.346-1.644-8.046-2.295-11.906-1.344-.09-2.612-1.262-4.232-1.972-6.276 6.526-2.329 21.932-17.6 30.599-12.543 4.129 2.406 5.884 16.143 6.204 22.823.267 5.541-.503 11.131-2.761 14.067Z" mask="url(#b)" vector-effect="non-scaling-stroke"/><path fill="#D33833" fill-rule="evenodd" d="M291.54 274.195c-.031.878-.067 1.762-.103 2.649-3.624 2.381-9.474 2.352-13.452 4.353 5.864.256 10.479 1.668 14.472 3.659-.088 2.213-.172 4.423-.257 6.635-6.644 4.548-12.712 11.321-20.533 15.585-3.699 2.017-16.678 7.207-20.612 6.289-2.226-.516-2.427-3.278-3.316-5.882-1.896-5.576-6.262-14.452-6.642-22.846-.485-10.602-1.556-28.37 9.87-26.186 9.217 1.758 19.938 6.004 27.074 9.904 4.36 2.384 6.883 5.332 13.499 5.84Z"/><path fill="none" d="M291.54 274.195c-.031.878-.067 1.762-.103 2.649-3.624 2.381-9.474 2.352-13.452 4.353 5.864.256 10.479 1.668 14.472 3.659-.088 2.213-.172 4.423-.257 6.635-6.644 4.548-12.712 11.321-20.533 15.585-3.699 2.017-16.678 7.207-20.612 6.289-2.226-.516-2.427-3.278-3.316-5.882-1.896-5.576-6.262-14.452-6.642-22.846-.485-10.602-1.556-28.37 9.87-26.186 9.217 1.758 19.938 6.004 27.074 9.904 4.36 2.384 6.883 5.332 13.499 5.84Z"/><mask id="c" width="400%" height="400%" x="-200%" y="-200%"><rect width="400%" height="400%" x="-200%" y="-200%" style="fill:#fff"/><path d="M291.54 274.195c-.031.878-.067 1.762-.103 2.649-3.624 2.381-9.474 2.352-13.452 4.353 5.864.256 10.479 1.668 14.472 3.659-.088 2.213-.172 4.423-.257 6.635-6.644 4.548-12.712 11.321-20.533 15.585-3.699 2.017-16.678 7.207-20.612 6.289-2.226-.516-2.427-3.278-3.316-5.882-1.896-5.576-6.262-14.452-6.642-22.846-.485-10.602-1.556-28.37 9.87-26.186 9.217 1.758 19.938 6.004 27.074 9.904 4.36 2.384 6.883 5.332 13.499 5.84Z"/></mask><path fill="none" d="M291.54 274.195c-.031.878-.067 1.762-.103 2.649-3.624 2.381-9.474 2.352-13.452 4.353 5.864.256 10.479 1.668 14.472 3.659-.088 2.213-.172 4.423-.257 6.635-6.644 4.548-12.712 11.321-20.533 15.585-3.699 2.017-16.678 7.207-20.612 6.289-2.226-.516-2.427-3.278-3.316-5.882-1.896-5.576-6.262-14.452-6.642-22.846-.485-10.602-1.556-28.37 9.87-26.186 9.217 1.758 19.938 6.004 27.074 9.904 4.36 2.384 6.883 5.332 13.499 5.84Z"/><path fill="none" stroke="#D33833" stroke-opacity="100" stroke-width="5" d="M291.54 274.195c-.031.878-.067 1.762-.103 2.649-3.624 2.381-9.474 2.352-13.452 4.353 5.864.256 10.479 1.668 14.472 3.659-.088 2.213-.172 4.423-.257 6.635-6.644 4.548-12.712 11.321-20.533 15.585-3.699 2.017-16.678 7.207-20.612 6.289-2.226-.516-2.427-3.278-3.316-5.882-1.896-5.576-6.262-14.452-6.642-22.846-.485-10.602-1.556-28.37 9.87-26.186 9.217 1.758 19.938 6.004 27.074 9.904 4.36 2.384 6.883 5.332 13.499 5.84Z" mask="url(#c)" vector-effect="non-scaling-stroke"/><path fill="#D33833" fill-rule="evenodd" d="M298.139 286.845c-1.014-5.774-2.186-7.422-1.732-12.461 15.401-10.269 18.293 17.639 1.732 12.461Z"/><path fill="none" d="M298.139 286.845c-1.014-5.774-2.186-7.422-1.732-12.461 15.401-10.269 18.293 17.639 1.732 12.461Z"/><mask id="d" width="400%" height="400%" x="-200%" y="-200%"><rect width="400%" height="400%" x="-200%" y="-200%" style="fill:#fff"/><path d="M298.139 286.845c-1.014-5.774-2.186-7.422-1.732-12.461 15.401-10.269 18.293 17.639 1.732 12.461Z"/></mask><path fill="none" d="M298.139 286.845c-1.014-5.774-2.186-7.422-1.732-12.461 15.401-10.269 18.293 17.639 1.732 12.461Z"/><path fill="none" stroke="#D33833" stroke-opacity="100" stroke-width="5" d="M298.139 286.845c-1.014-5.774-2.186-7.422-1.732-12.461 15.401-10.269 18.293 17.639 1.732 12.461Z" mask="url(#d)" vector-effect="non-scaling-stroke"/><path fill="#EF3D3A" fill-rule="evenodd" d="M320.44 291.527s-4.789-6.843-1.369-8.895c3.421-2.052 6.842.001 8.894-3.419 2.052-3.421 0-5.473.684-9.578.683-4.104 4.107-4.79 7.526-5.474 3.418-.682 12.998-2.052 14.365 1.37l-4.104-12.314-8.209-2.736-25.996 15.05-1.368 7.525v15.049m-62.251 25.996a2331.905 2331.905 0 0 0-2.659-32.002c-1.448-15.926 3.826-13.147 17.63-13.147 2.109 0 12.982 2.513 13.76 4.104 3.732 7.62-6.239 5.927 4.297 11.673 8.895 4.85 24.607-2.945 21.013-13.725-2.01-2.397-10.478-.747-13.513-2.321l-16.033-8.312c-6.799-3.527-22.515-8.671-29.764-3.742-18.368 12.492 1.16 43.706 7.712 56.736"/><path fill="#231F20" fill-rule="evenodd" d="M266.613 71.729c-18.645-4.341-27.909 7.803-33.561 20.4-5.047-1.224-3.037-8.086-1.764-11.582 3.337-9.178 16.787-21.395 27.776-19.739 4.729.712 11.129 5.036 7.549 10.921Zm90.846 21.234.884.034c4.213 8.752 7.86 18.024 13.176 25.751-3.562 8.293-26.963 15.632-26.602.741 5.06-2.212 13.798-.45 18.283-3.277-2.593-7.119-6.337-13.18-5.741-23.249Zm-81.3.228c3.998 7.328 5.298 15.028 10.981 20.566 2.56 2.494 7.536 5.534 5.069 12.468-.576 1.635-4.789 5.283-7.221 5.999-8.884 2.623-29.585.541-22.575-10.535 7.347.343 17.223 4.772 22.715-.562-4.217-6.742-11.736-20.079-8.969-27.936Zm77.965 74.482c-13.377 8.594-28.292 17.938-50.211 15.77-4.682-4.071-6.468-13.132-1.918-19.116 2.368 4.072.88 11.56 7.48 12.686 12.437 2.128 26.91-7.608 35.857-11.009 5.547-9.352-.479-12.792-5.476-18.812-10.231-12.331-23.953-27.616-23.455-46.079 4.135-2.997 4.492 4.578 5.086 5.956 5.342 12.503 18.786 28.491 28.597 39.192 2.409 2.635 6.377 5.163 6.819 6.906 1.272 5.066-3.311 11.137-2.779 14.506Zm-176.345-9.045c-4.194-2.393-5.191-12.933-10.114-13.233-7.034-.427-5.752 13.674-5.724 21.92-4.841-4.396-5.693-17.931-2.136-24.882-4.054-1.99-5.864 2.196-8.113 3.672 2.891-20.994 30.712-9.738 26.087 12.523Zm184.861 17.788c-6.227 11.852-15.035 24.904-33.305 25.284-.372-3.828-.658-9.652.02-11.956 13.968-1.343 22.592-8.452 33.285-13.328Zm-87.535 7.684c11.654 6.128 33.071 6.787 48.91 6.323.85 3.47.829 7.757.862 11.989-20.36 1.016-44.433-4.023-49.772-18.312Zm-2.214 11.427c8.058 20.233 35.754 17.904 59.112 17.345-1.028 2.627-3.258 5.731-6.028 6.853-7.484 3.046-28.128 5.356-38.519-.162-6.589-3.503-10.823-11.419-14.433-16.059-1.744-2.241-10.426-7.965-.132-7.977Z"/><path fill="#81B0C4" fill-rule="evenodd" d="M353.151 307.133c-9.458 16.196-18.506 32.832-29.724 47.118 4.702-13.83 6.716-36.978 7.426-54.624 9.84-4.606 18.267 1.036 22.298 7.506Z"/><path fill="#231F20" fill-rule="evenodd" d="M404.037 365.345c-10.586 2.12-18.026 12.41-28.354 11.75 5.676-8.003 15.622-11.376 28.354-11.75Zm4.672 16.57c-8.63.91-18.766 2.308-27.518 1.589 4.142-6.329 20.108-4.145 27.518-1.589Zm2.99 14.285c-9.699.211-21.754.017-30.972-.757 5.452-5.856 24.682-2.174 30.972.757Z"/><path fill="#DCD9D8" fill-rule="evenodd" d="M334.903 435.293c1.39 12.18 6.22 24.522 5.614 37.862-5.362 1.808-8.442 3.39-15.628 3.38-.506-11.336-2.024-28.667-1.569-39.475 3.533.235 8.744-2.524 11.583-1.767Z"/><path fill="#F0D6B7" fill-rule="evenodd" d="M319.267 255.78c-4.871 3.179-9.018 7.148-13.695 10.543-10.372.513-16.032-.719-23.652-6.674.125-.478.891-.265.919-.852 11.102 4.948 25.216-2.016 36.428-3.017Z"/><path fill="#81B0C4" fill-rule="evenodd" d="M260.981 334.129c3.051-13.218 15.004-20.065 25.858-27.344 11.204 14.219 18.017 32.503 25.52 50.148-17.728-5.344-35.84-14.014-51.378-22.804Z"/><path fill="#231F20" fill-rule="evenodd" d="M323.32 437.06c-.455 10.808 1.063 28.139 1.569 39.475 7.186.01 10.266-1.572 15.628-3.38.606-13.34-4.224-25.682-5.614-37.862-2.839-.757-8.05 2.002-11.583 1.767Zm-111.876-61.461c4.737 43.554 11.6 80.166 24.185 118.736 27.934 8.481 61.608 9.22 86.299 1.566-4.533-21.768-2.553-48.269-5.203-71.498-1.996-17.46-.978-35.028-3.716-52.842-29.917-6.224-72.205-1.454-101.565 4.038Zm108.639-3.764c-.252 18.705.837 37.157 2.266 55.886 7.183-1.078 12.056-1.798 18.731-3.261-2.168-18.031-1.901-38.32-6.315-54.269-5.102.048-9.594-.06-14.682 1.644Zm36.437-3.015c-3.408-.783-7.377-.031-10.635.032 1.532 15.248 5.246 32.075 6.554 48.08 5.124.16 7.861-2.257 12.077-3.069.225-14.051-1.227-33.407-7.996-45.043Zm55.173 50.408c10.682-2.593 17.399-15.677 14.411-29.112-2.005-9.031-5.576-26.033-9.397-31.811-2.824-4.272-10.482-9.866-16.595-5.95-9.945 6.368-27.465 8.216-34.717 15.925 3.636 12.108 4.765 28.739 6.265 44.081 12.424.775 27.711-3.418 38.044 1.031-7.213 2.337-16.573 2.356-22.807 5.761 5.094 2.46 17.02 1.963 24.796.075Zm-99.334-64.961c-7.503-17.646-14.316-35.93-25.52-50.148-10.854 7.278-22.807 14.125-25.858 27.344 15.538 8.789 33.65 17.46 51.378 22.804Zm18.494-54.64c-.71 17.646-2.724 40.794-7.426 54.624 11.218-14.286 20.266-30.922 29.724-47.118-4.031-6.47-12.458-12.112-22.298-7.506Zm-20.965-7.45c-4.251-.458-7.859 4.886-13.385 2.575-1.267 1.4-2.418 2.916-3.708 4.283 12.206 14.71 17.753 35.582 27.181 52.869 5.059-16.605 4.476-34.799 5.591-52.924-6.951.441-10.807-6.287-15.679-6.803Zm-13.481-17.793c-.454 5.039.718 6.687 1.732 12.461 16.561 5.178 13.669-22.73-1.732-12.461Zm-18.366-6.029c-7.136-3.9-17.857-8.146-27.074-9.904-11.426-2.186-10.355 15.584-9.87 26.186.38 8.394 4.746 17.27 6.642 22.846.889 2.604 1.09 5.366 3.316 5.882 3.934.918 16.913-4.272 20.612-6.289 7.821-4.264 13.889-11.037 20.533-15.585.085-2.212.169-4.422.257-6.635-3.993-1.991-8.608-3.403-14.472-3.659 3.978-2.001 9.828-1.972 13.452-4.353.036-.887.072-1.771.103-2.649-6.616-.508-9.139-3.456-13.499-5.84Zm-68.162-12.382c-5.923 6.014 16.612 14.21 23.786 14.651-.04-3.804 2.168-7.392 1.724-10.121-8.521-1.496-19.721-.51-25.51-4.53Zm72.96 2.824c-.028.587-.794.374-.919.852 7.62 5.955 13.28 7.187 23.652 6.674 4.677-3.395 8.824-7.364 13.695-10.543-11.212 1.001-25.326 7.965-36.428 3.017Zm66.969 20.307c-.32-6.68-2.075-20.417-6.204-22.823-8.667-5.058-24.073 10.214-30.599 12.543.71 2.044 1.882 3.664 1.972 6.276 3.86-.951 8.56-.3 11.906 1.344-3.87.433-8.159.404-10.718 2.248-.937 2.711.23 6.404-.394 10.168 9.182 2.591 19.669 3.969 31.276 4.311 2.258-2.936 3.028-8.526 2.761-14.067Zm-149.9-17.315c-1.86-1.325-14.441-17.696-16.165-17.017-22.767 8.979-44.055 24.504-63.079 39.188 18.137 38.919 25.46 86.6 26.753 132.557 20.778 9.718 39.027 23.727 67.222 25.19-3.263-23.084-6.242-43.679-8.094-65.411-7.084-2.987-17.248.135-23.877-.927-.056-7.989 10.125-3.498 10.973-8.87.639-4.064-5.601-4.372-3.569-10.771 5.183 1.884 7.904 6.045 13.431 7.608 5.05-11.049-.071-30.599.657-39.833.139-1.735.867-9.607 4.751-8.226 3.437 1.223-.196 20.936.18 29.678.344 8.052-.972 15.844 2.289 20.9 27.244-3.71 54.929-6.106 84.407-6.915-6.486-2.783-14.19-5.416-22.636-10.177-4.579-2.582-19.012-7.952-20.334-12.302-2.108-6.93 5.531-10.621 6.838-16.562-13.752 7.5-16.435-7.19-19.688-17.596-2.948-9.427-4.626-16.468-5.35-21.904-11.846-5.648-24.512-11.367-34.709-18.61Zm137.868-15.037c18.968-9.197 22.387 34.377 14.952 48.415 1.149 4.186 5.101 5.789 6.715 9.553-10.586 18.963-22.343 36.663-33.144 55.403 8.034-5.002 19.51-.895 28.965-4.639 3.456-1.367 5.959-9.279 8.575-15.608 7.197-17.412 14.753-39.365 18.114-55.983.76-3.785 2.828-12.036 2.364-15.405-.826-6.033-9.013-10.508-13.177-14.239-7.671-6.89-12.501-12.956-20.503-19.4-3.245 4.791-10.208 8.008-12.861 11.903ZM156.527 78.535c-9.039 9.945-7.147 28.58-6.054 41.837 16.339-10.277 38.023.812 37.819 18.293 7.8-.206 2.913-9.741 1.503-15.884-4.611-20.062 7.768-41.86.561-60.206-13.993 1.061-25.488 6.777-33.829 15.96Zm64.673-57.72c-20.463 5.798-46.687 20.668-55.096 39.049 6.512-.947 11.032-4.229 17.455-4.636 2.426-.159 5.606 1.017 8.397.324 5.559-1.379 10.251-13.844 14.445-18.483 4.088-4.529 9.003-6.464 12.366-10.593 2.16-1.043 5.354-.971 5.477-4.215-.936-1.001-1.921-1.765-3.044-1.446Zm106.517 5.454c-21.238-11.984-57.188-20.997-79.78-9.734-18.229 9.089-42.87 24.128-51.272 43.185 7.848 18.391-2.325 35.241-2.974 53.912-.344 9.935 4.678 18.608 5.062 29.423-2.685 4.432-10.89 4.977-16.57 4.673-1.911-9.567-5.259-20.321-15.111-21.4-13.94-1.525-24.133 10.012-24.767 22.069-.749 14.179 10.891 37.679 27.388 36.048 6.374-.63 7.939-7.018 14.883-6.953 3.764 7.509-5.805 9.867-6.789 15.237-.258 1.388.793 6.81 1.404 9.352 2.996 12.382 9.677 28.406 16.252 37.831 8.345 11.957 24.741 13.759 42.38 14.931 3.149-6.787 14.756-6.23 22.317-4.454-9.063-3.589-17.488-12.29-24.471-19.993-8.02-8.836-16.145-18.316-16.556-29.865 15.158 21.026 27.679 39.39 55.24 48.64 20.855 6.993 45.211-3.207 61.235-14.459 6.649-4.677 10.617-12.097 15.344-18.891 17.684-25.437 25.936-61.745 24.123-96.937-.748-14.513-.715-28.977-5.584-38.741-5.091-10.211-22.304-19.346-32.382-10.11-1.866-9.929 8.38-16.069 20.416-12.496-8.582-11.076-17.589-24.385-29.788-31.268Zm39.57 327.468c16.596-8.249 47.605-22.206 58.01.031 3.84 8.197 8.344 22.053 10.332 30.516 2.811 11.937-3.045 37.028-15.314 41.033-10.839 3.538-23.484 3.323-36.539.7-1.537-1.278-3.248-3.506-4.445-5.83-9.322-.362-18.05.501-25.412 4.332.697 6.893-3.966 8-8.336 9.42-3.242 12.849 6.482 29.628 4.154 41.344-1.66 8.346-11.929 9.637-19.477 11.2-.247 4.637.331 8.509.845 12.433-1.725 6.36-9.466 9.98-16.801 10.867-24.132 2.903-60.773 4.205-83.985-4.141-6.478-15.889-11.58-35.213-16.975-53.354-22.639 2.417-40.949-9.768-58.211-17.752-5.976-2.771-14.242-4.297-16.476-9.053-2.164-4.607-1.278-13.434-1.816-21.771-1.366-21.296-2.537-41.837-8.16-63.643-2.525-9.784-6.926-18.418-9.997-27.846-2.837-8.739-7.796-19.538-9.089-28.251-1.918-12.915 10.244-13.633 18.02-19.229 12.021-8.655 21.456-13.44 34.474-21.251 3.856-2.313 15.484-8.168 16.807-10.865 2.629-5.346-4.513-12.884-6.423-17.075-3.02-6.627-4.596-12.256-5.028-18.793-10.921-1.727-19.2-8.226-24.201-15.555-8.272-12.128-14.008-34.568-6.851-51.636.562-1.344 3.36-3.988 3.774-6.052.814-4.065-1.534-9.471-1.679-13.795-.752-22.185 3.753-41.3 18.688-47.989 6.063-24.153 27.763-32.184 48.207-44.187 7.642-4.486 16.066-7.353 24.768-10.554 31.21-11.487 79.096-9.324 105 10.266 10.984 8.308 28.54 25.848 34.82 38.547 16.586 33.528 15.408 89.56 3.806 130.344-1.56 5.476-3.821 13.524-6.978 20.101-2.203 4.594-9.047 13.783-8.216 17.839.856 4.192 15.605 15.392 18.768 18.441 5.694 5.494 16.514 12.786 17.39 19.718.942 7.378-3.25 17.47-5.374 24.59-7.102 23.758-14.03 45.72-22.08 66.9Z"/><path fill="#F7E4CD" fill-rule="evenodd" d="M256.563 189.276c.9-1.199 5.85-3.019 12.776.316 0 0-8.208 1.368-7.526 15.055l-3.421-.686s-3.535-12.409-1.829-14.685Z"/><path fill="#1D1919" fill-rule="evenodd" d="M316.541 306.912a3.762 3.762 0 1 1-7.525-.003 3.762 3.762 0 0 1 7.525.003Zm3.762 17.444a3.763 3.763 0 1 1-7.526-.004 3.763 3.763 0 0 1 7.526.004Z"/></g></svg>