<?xml version="1.0" encoding="UTF-8" standalone="no"?>
<!-- Generator: Gravit.io -->
<svg xmlns="http://www.w3.org/2000/svg" xmlns:xlink="http://www.w3.org/1999/xlink" style="isolation:isolate"
  viewBox="0 0 64 64" width="64pt" height="64pt">
  <defs>
    <clipPath id="_clipPath_323oxLAacHetsbkRRxIPE7PfmS3AIquH">
      <rect width="64" height="64" />
    </clipPath>
  </defs>
  <g clip-path="url(#_clipPath_323oxLAacHetsbkRRxIPE7PfmS3AIquH)">
    <path
      d=" M 57.342 31.51 C 57.342 29.93 56.714 28.416 55.596 27.298 C 54.48 26.182 52.964 25.554 51.384 25.554 C 51.176 25.554 50.966 25.564 50.758 25.586 L 58.942 1.454 L 24.168 1.454 L 32.34 25.566 C 32.222 25.566 32.1 25.554 31.978 25.554 C 29.04 25.55 26.538 27.692 26.086 30.596 C 25.634 33.5 27.37 36.3 30.17 37.188 C 28.904 39.37 27.326 41.356 25.488 43.084 C 23.094 45.372 20.25 47.136 17.138 48.264 C 13.518 46.55 11.852 42.318 13.332 38.596 C 13.508 38.184 13.686 37.768 13.856 37.352 C 16.592 36.708 18.506 34.238 18.448 31.428 C 18.388 28.616 16.372 26.228 13.61 25.7 C 10.848 25.172 8.092 26.646 7 29.236 C 5.906 31.826 6.772 34.83 9.078 36.438 C 7.178 39.886 5.726 43.564 4.76 47.38 C 3.952 52.26 4.76 57.438 8.978 60.366 C 18.806 67.18 29.478 56.142 40.728 53.368 C 44.806 52.364 49.282 52.526 52.872 50.446 C 55.5 48.95 57.324 46.364 57.854 43.388 C 58.336 40.558 57.65 37.652 55.954 35.336 C 56.85 34.266 57.34 32.914 57.338 31.518 L 57.342 31.51 Z  M 37.938 31.542 L 37.938 31.522 C 37.942 29.438 36.852 27.502 35.066 26.424 L 41.568 13.258 L 48.082 26.546 C 46.422 27.65 45.426 29.51 45.428 31.504 C 45.428 31.548 45.428 31.59 45.428 31.634 L 37.938 31.542 Z "
      fill="rgb(198,61,20)" />
    <path
      d=" M 58.798 31.51 C 58.792 27.948 56.256 24.892 52.756 24.228 L 60.97 0 L 22.142 0 L 30.37 24.276 C 27.432 24.934 25.182 27.304 24.682 30.272 C 24.18 33.24 25.524 36.218 28.084 37.804 C 27.05 39.338 25.848 40.754 24.5 42.022 C 22.414 44.02 19.96 45.594 17.278 46.662 C 14.674 45.152 13.572 41.962 14.686 39.166 L 14.776 38.952 L 14.946 38.552 C 18.076 37.468 20.106 34.438 19.922 31.132 C 19.736 27.824 17.38 25.04 14.15 24.31 C 10.918 23.58 7.594 25.082 6.006 27.99 C 4.418 30.898 4.952 34.504 7.312 36.83 C 7.064 37.358 6.804 37.892 6.536 38.444 C 5.054 41.168 3.976 44.094 3.336 47.128 C 2.274 53.528 3.988 58.656 8.162 61.548 C 10.402 63.15 13.09 64.008 15.844 64 C 20.718 64 25.648 61.552 30.472 59.156 C 33.844 57.322 37.4 55.854 41.082 54.772 C 42.402 54.448 43.76 54.252 45.198 54.044 C 48.126 53.81 50.982 53.012 53.608 51.694 C 56.606 49.98 58.69 47.024 59.294 43.624 C 59.778 40.772 59.218 37.84 57.714 35.366 C 58.426 34.206 58.802 32.87 58.8 31.508 L 58.798 31.51 Z  M 55.888 31.51 C 55.888 33.998 53.872 36.014 51.384 36.014 C 48.898 36.014 46.882 33.998 46.882 31.51 C 46.882 29.024 48.898 27.008 51.384 27.008 C 53.87 27.01 55.884 29.024 55.888 31.51 Z  M 56.91 2.91 L 49.654 24.304 C 49.344 24.38 49.038 24.474 48.74 24.59 L 41.574 9.962 L 34.386 24.502 C 34.072 24.394 33.752 24.308 33.428 24.242 L 26.198 2.91 L 56.91 2.91 Z  M 31.978 27.008 C 34.466 27.008 36.482 29.024 36.482 31.51 C 36.482 33.998 34.466 36.014 31.978 36.014 C 29.492 36.014 27.476 33.998 27.476 31.51 C 27.478 29.024 29.494 27.01 31.978 27.008 L 31.978 27.008 Z  M 12.5 27.052 C 14.322 27.052 15.964 28.152 16.66 29.836 C 17.356 31.52 16.968 33.456 15.676 34.742 C 14.386 36.03 12.448 36.412 10.766 35.71 C 9.084 35.01 7.99 33.364 7.994 31.542 C 7.998 29.056 10.012 27.042 12.498 27.04 L 12.5 27.052 Z  M 56.424 43.128 C 55.968 45.68 54.4 47.896 52.148 49.176 C 49.84 50.298 47.34 50.972 44.782 51.164 C 43.336 51.372 41.844 51.586 40.384 51.948 C 36.496 53.074 32.74 54.616 29.184 56.548 C 21.952 60.14 15.698 63.24 9.818 59.16 C 5.506 56.172 5.704 50.64 6.208 47.608 C 6.8 44.85 7.786 42.192 9.138 39.716 C 9.348 39.284 9.554 38.86 9.754 38.438 C 10.368 38.684 11.014 38.846 11.67 38.918 C 10.47 43.16 12.496 47.652 16.47 49.558 L 17.03 49.846 L 17.622 49.636 C 20.924 48.444 23.942 46.576 26.48 44.15 C 28.156 42.574 29.628 40.792 30.864 38.85 C 34.108 39.344 37.29 37.644 38.684 34.672 C 40.078 31.702 39.352 28.168 36.898 25.988 L 41.556 16.57 L 46.262 26.168 C 43.486 28.844 43.228 33.204 45.668 36.188 C 48.108 39.174 52.432 39.788 55.606 37.598 C 56.456 39.31 56.74 41.248 56.418 43.134 L 56.424 43.128 Z "
      fill="rgb(255,255,255)" />
  </g>
</svg>