<svg xmlns="http://www.w3.org/2000/svg" width="512pt" height="512pt" style="isolation:isolate" viewBox="0 0 512 512"><defs><clipPath id="a"><path d="M0 0h512v512H0z"/></clipPath></defs><g clip-path="url(#a)"><path fill="#2684FF" d="M497.672 241.667 277.343 21.338 255.99 0 14.324 241.667c-7.9 7.921-7.9 20.745 0 28.651L165.85 421.839 255.99 512l241.682-241.682c7.906-7.906 7.906-20.73 0-28.651Zm-241.682 90.01-75.68-75.674 75.68-75.702 75.696 75.702-75.696 75.674Z"/><linearGradient id="b" x1=".804" x2=".364" y1=".478" y2=".917" gradientTransform="matrix(166.175 0 0 255.744 89.815 .592)" gradientUnits="userSpaceOnUse"><stop offset="0%" style="stop-color:#0052cc"/><stop offset="100%" style="stop-color:#2684ff"/></linearGradient><path fill="url(#b)" d="M255.99 180.301c-49.547-49.568-49.801-129.849-.528-179.709L89.815 166.175l90.161 90.161 76.014-76.035Z"/><linearGradient id="c" x1=".202" x2=".641" y1=".518" y2=".079" gradientTransform="matrix(166.046 0 0 256.212 255.99 255.788)" gradientUnits="userSpaceOnUse"><stop offset="0%" style="stop-color:#0052cc"/><stop offset="100%" style="stop-color:#2684ff"/></linearGradient><path fill="url(#c)" d="m331.896 255.788-75.906 75.889a127.466 127.466 0 0 1 37.374 90.162c0 33.822-13.453 66.24-37.374 90.161l166.046-166.051-90.14-90.161Z"/></g></svg>