<?xml version="1.0" encoding="UTF-8" standalone="no"?>
<!-- Generator: Gravit.io -->
<svg xmlns="http://www.w3.org/2000/svg" xmlns:xlink="http://www.w3.org/1999/xlink" style="isolation:isolate" viewBox="0 0 64 64" width="64pt" height="64pt"><defs><clipPath id="_clipPath_iBLQQZnZORZOFofR4uShGvJvujmZs09g"><rect width="64" height="64"/></clipPath></defs><g clip-path="url(#_clipPath_iBLQQZnZORZOFofR4uShGvJvujmZs09g)"><path d=" M 25.788 5.695 C 25.08 4.984 24.098 4.546 23.004 4.546 C 21.911 4.546 20.937 4.984 20.238 5.695 L 20.22 5.695 C 19.514 6.401 19.076 7.385 19.076 8.473 C 19.076 9.568 19.514 10.546 20.22 11.245 L 20.238 11.264 C 20.937 11.969 21.911 12.401 23.004 12.401 C 24.098 12.401 25.08 11.969 25.788 11.264 L 25.797 11.245 C 26.505 10.546 26.937 9.568 26.937 8.473 C 26.937 7.385 26.505 6.401 25.797 5.695 L 25.788 5.695 L 25.788 5.695 Z  M 23.004 59.454 C 24.098 59.454 25.08 59.008 25.788 58.31 L 25.797 58.289 C 26.505 57.593 26.937 56.608 26.937 55.526 C 26.937 54.432 26.505 53.452 25.797 52.742 L 25.788 52.742 C 25.08 52.025 24.098 51.591 23.004 51.591 C 21.911 51.591 20.937 52.025 20.238 52.742 L 20.22 52.742 C 19.514 53.452 19.076 54.432 19.076 55.526 C 19.076 56.608 19.514 57.593 20.22 58.289 L 20.238 58.31 C 20.937 59.008 21.911 59.454 23.004 59.454 Z  M 44.401 47.555 C 45.373 47.299 46.253 46.675 46.792 45.731 L 46.864 45.593 C 47.342 44.698 47.429 43.665 47.174 42.747 C 46.916 41.768 46.285 40.899 45.343 40.358 L 45.287 40.321 C 44.369 39.817 43.324 39.707 42.363 39.969 C 41.387 40.213 40.509 40.863 39.974 41.799 C 39.433 42.729 39.32 43.799 39.579 44.783 C 39.847 45.751 40.473 46.626 41.409 47.173 L 41.415 47.173 C 42.354 47.713 43.415 47.81 44.401 47.555 Z  M 27.032 27.976 C 26.001 26.947 24.578 26.303 23.004 26.303 C 21.431 26.303 20.012 26.947 18.984 27.976 C 17.958 29.002 17.326 30.419 17.326 31.993 C 17.326 33.568 17.958 34.991 18.984 36.029 C 20.012 37.051 21.431 37.69 23.004 37.69 C 24.578 37.69 26.001 37.051 27.032 36.029 C 28.06 34.991 28.692 33.568 28.692 31.993 C 28.692 30.419 28.06 29.002 27.032 27.976 Z  M 24.766 21.282 C 27.052 21.659 29.104 22.754 30.674 24.334 L 30.685 24.334 C 30.935 24.583 31.177 24.857 31.403 25.13 L 35.324 22.862 C 34.797 21.269 34.772 19.604 35.196 18.042 C 35.755 15.95 37.111 14.078 39.144 12.905 L 39.21 12.863 C 41.221 11.726 43.506 11.489 45.569 12.047 C 47.658 12.607 49.543 13.97 50.716 15.999 L 50.716 16.005 C 51.884 18.024 52.12 20.34 51.563 22.425 C 51.007 24.516 49.647 26.401 47.616 27.567 L 47.08 27.884 L 47.026 27.884 C 45.148 28.778 43.082 28.918 41.185 28.418 C 39.628 28.006 38.2 27.136 37.081 25.902 L 33.166 28.164 C 33.616 29.354 33.865 30.637 33.865 31.993 C 33.865 33.343 33.616 34.644 33.166 35.841 L 37.081 38.096 C 38.2 36.844 39.628 35.993 41.185 35.58 C 43.275 35.009 45.592 35.251 47.616 36.431 L 47.746 36.492 L 47.746 36.498 C 49.701 37.683 51.014 39.513 51.563 41.58 C 52.12 43.652 51.884 45.97 50.716 47.993 L 50.645 48.134 L 50.637 48.122 C 49.464 50.072 47.616 51.393 45.575 51.951 C 43.482 52.503 41.166 52.267 39.144 51.105 L 39.144 51.089 C 37.111 49.914 35.755 48.037 35.196 45.95 C 34.772 44.395 34.797 42.729 35.324 41.137 L 31.403 38.874 C 31.177 39.148 30.935 39.41 30.685 39.659 L 30.674 39.671 C 29.104 41.246 27.052 42.34 24.766 42.704 L 24.766 47.235 C 26.395 47.575 27.854 48.389 28.996 49.532 L 29.002 49.544 C 30.533 51.068 31.482 53.192 31.482 55.526 C 31.482 57.853 30.533 59.964 29.002 61.496 L 28.996 61.52 C 27.454 63.052 25.338 64 23.004 64 C 20.681 64 18.56 63.052 17.021 61.52 L 17.015 61.52 L 17.015 61.496 C 15.483 59.964 14.532 57.853 14.532 55.526 C 14.532 53.192 15.483 51.068 17.015 49.544 L 17.015 49.532 L 17.021 49.532 C 18.163 48.389 19.624 47.575 21.247 47.235 L 21.247 42.704 C 18.962 42.34 16.913 41.246 15.347 39.671 L 15.33 39.659 C 13.374 37.696 12.149 34.991 12.149 31.993 C 12.149 29.002 13.374 26.297 15.33 24.334 L 15.347 24.334 C 16.913 22.754 18.962 21.659 21.247 21.282 L 21.247 16.771 C 19.624 16.419 18.163 15.605 17.021 14.468 L 17.015 14.468 L 17.015 14.456 C 15.483 12.917 14.532 10.808 14.532 8.473 C 14.532 6.151 15.483 4.023 17.015 2.491 L 17.021 2.485 C 18.56 0.948 20.681 0 23.004 0 C 25.338 0 27.454 0.948 28.996 2.485 L 28.996 2.491 L 29.002 2.491 C 30.533 4.023 31.482 6.151 31.482 8.473 C 31.482 10.808 30.533 12.917 29.002 14.456 L 28.996 14.468 C 27.854 15.605 26.395 16.419 24.766 16.771 L 24.766 21.282 L 24.766 21.282 Z  M 46.792 18.273 L 46.758 18.224 C 46.218 17.313 45.354 16.705 44.401 16.443 C 43.415 16.181 42.354 16.291 41.409 16.833 L 41.415 16.833 C 40.473 17.368 39.842 18.242 39.579 19.222 C 39.32 20.194 39.433 21.269 39.974 22.206 L 39.993 22.23 C 40.535 23.154 41.399 23.774 42.363 24.024 C 43.332 24.298 44.412 24.182 45.343 23.64 L 45.393 23.616 C 46.309 23.069 46.919 22.206 47.174 21.258 C 47.433 20.279 47.33 19.209 46.792 18.273 Z " fill="rgb(0,0,0)"/></g></svg>