<svg xmlns="http://www.w3.org/2000/svg" width="512pt" height="512pt" style="isolation:isolate" viewBox="0 0 512 512"><defs><clipPath id="a"><path d="M0 0h512v512H0z"/></clipPath></defs><g fill="#EC2227" clip-path="url(#a)"><path d="M372.72 54.161s-73.358-46.18-169.806-19.017c0 0-129.781 37.348-174.622 141.933 0 0-60.38 97.141-4.725 204.46 0 0 33.358 75.168 122.272 96.465 0 0 113.696 30.59 197.026-32.516 0 0 125.815-66.386 129.012-206.584 0 0 12.194-123.618-99.157-184.741Zm61.082 244.502c-23.081 62.486-126.295 131.78-126.295 131.78-184.75 92.375-256.852-41.553-256.852-41.553-40.727-86.948 9.104-169.856 9.104-169.856 47.55-93.738 137.695-130.912 137.695-130.912 126.336-54.333 198.347 6.799 198.347 6.799 101.884 76.076 38.001 203.742 38.001 203.742Z"/><path d="M170.192 165.197s-49.624 116.035-50.318 123.032c0 0-17.505 54.523-9.103 107.65l87.938 2.585s-24.328-11.689-8.963-73.903c0 0 10.5-37.051 18.183-39.843 0 0 2.09-3.486 3.502 2.792 0 0 17.448 62.9 64.321 110.459 0 0 29.318 40.537 102.024 68.484 0 0 63.618 16.803 101.371-14.639 0 0 32.16-19.57 32.838-76.233 0 0 .545-5.741-4.874-1.371 0 0-23.784 26.543-84.577 21.669 0 0-18.158 3.486-68.476-34.945l-106.972-88.071s-4.882-3.502 2.09-4.221c0 0 62.206-11.177 80.405-25.865 0 0 55.952-27.493 63.585-68.476 0 0 11.59-44.915-6.295-71.301 0 0-6.278-4.205-8.368.694 0 0-31.987 32.994-59.579 50.698l-82.346 53.449s-6.32 4.196-1.38-5.585l23.759-62.916s13.284-21.669-23.056-18.868c0 0-54.779 5.527-85.056 42.842 0 0-2.346 1.189 1.859 2.585l17.488-.702Z"/></g></svg>