<svg id="Layer_1" xmlns="http://www.w3.org/2000/svg" viewBox="0 0 52 52" width="2500" height="2500"><style>.st0{fill:#00f}</style><path id="path-2_1_" class="st0" d="M34.5 21.4c0 .9-.7 1.6-1.6 1.6h-1.5c-1.6 0-2.9 1.3-2.9 2.9 0 1.6 1.5 2.9 3.1 2.9H33c.9 0 1.6.7 1.6 1.6v4.3h-4.4c-.9 0-1.6-.7-1.6-1.6v-1.5c0-1.6-1.3-2.9-2.9-2.9-1.6 0-2.8 1.4-2.8 3.1v1.3c0 .9-.7 1.6-1.6 1.6h-3.9V17.2h3.9c.8 0 1.5.7 1.5 1.5v1.5c0 1.6 1.4 3 2.9 3 1.6 0 2.8-1.4 2.8-3v-1.4c0-.9.7-1.6 1.6-1.6h4.4v4.2zm16.9.3c-.8-2.8-2.2-5.1-6.6-9.5l-5-5C35.4 2.8 33 1.5 30.2.6c-2.8-.8-5.6-.8-8.4 0s-5.1 2.2-9.5 6.6l-5 5C2.9 16.6 1.6 19 .7 21.8c-.8 2.8-.8 5.6 0 8.4s2.2 5.1 6.6 9.5l5 5c4.4 4.4 6.8 5.7 9.6 6.6 2.8.8 5.6.8 8.4 0s5.1-2.2 9.5-6.6l5-5c4.4-4.4 5.7-6.8 6.6-9.6a15 15 0 0 0 0-8.4z"/></svg>