<svg xmlns="http://www.w3.org/2000/svg" width="512pt" height="512pt" style="isolation:isolate" viewBox="0 0 512 512"><defs><clipPath id="a"><path d="M0 0h512v512H0z"/></clipPath></defs><g fill-rule="evenodd" clip-path="url(#a)"><path fill="#169FCC" d="m161.441 415.93 12.231-15.786h90.505l47.174 60.272-8.386 20.449H186.252l2.795-20.449-27.606-44.486Z"/><path fill="#14B59A" d="m189.117 210.417 43.701-75.498h50.925L512 400.05l-17.697 80.815h-97.876l6.14-22.685-213.45-247.763Z"/><path fill="#1BC263" d="m242.162 120.574 20.925-38.696 62.776-50.743 107.563 84.328-13.95 14.238 18.722 25.919v27.744L384.6 227.171l-89.941-106.597h-52.497Z"/><path fill="#16BDCC" d="M75.937 289.185h28.432l74.137-62.014 98.251 114.162-27.712 41.578h-90.693l-62.621 79.632-14.395 18.322H0v-97.602l75.937-94.078Z"/></g></svg>