<svg xmlns="http://www.w3.org/2000/svg" width="319.235" height="37.386"><path d="M500.339 488.934s2.085-4.896 2.974-6.308c0 0 2.547 3.497 3.447 6.37 0 0-2.872.45-6.421-.062m-59.609-3.72v-5.518s.058-4.118 3.314-4.118c3.273 0 2.862 4.002 2.895 4.507.027.517-.182 5.13-6.209 5.13zm10.2-13.804s-15.881 1.187-24.449.39c0 0-1.02-.274-1.3.905 0 0-.556.898.339 1.52.895.623 3.494 2.143 3.494 7.777v10.871s.508 5.977-3.61 8.225c0 0-.84.285-.392 1.472 0 0 .058 1.07 1.245.903 1.177-.174 7.83-.679 16.956-.058 0 0 .784.058 1.003-.458.232-.495.292-.555.292-.555s.793-.787-.403-1.577c-1.177-.788-3.151-1.975-3.317-6.988-.169-5.019 0-5.126 0-5.126h.73s2.526-.232 4.222 3.615c0 0 3.273 7.877 3.776 8.833.51.964 1.466 2.988 5.018 2.649 3.547-.335 20.102-1.522 37.687.058 0 0 1.917.281 2.649-1.58 0 0 3.04-8.167 3.77-9.471 0 0 6.427-.166 9.921-.11 0 0 1.29 2.2 1.29 4.85 0 2.648-2.304 3.27-2.304 3.27s-.96.39-.508 1.577c0 0 .169 1.13 1.296 1.013 1.12-.116 11.208-1.068 26.418-.116 0 0 1.016.4 1.35-.952 0 0 .622-1.072-.45-1.58 0 0-3.99-.898-3.99-7.273 0-6.369.054-10.868.054-10.868s3.036 4.334 6.643 10.819c3.607 6.477 5.524 9.241 5.524 9.241s1.803 3.494 5.347 1.633c3.549-1.856 7.38-4 9.578-5.527 0 0 .851-.39.393-1.47l-.332-.67s-.06-.393-1.24-.509c0 0-2.649.624-2.71-3.154-.05-3.77-.226-9.126 0-14.589 0 0 .117-3.386 3.215-4.341 0 0 1.122-.108.616-1.462l-.337-.682s0-.563-.784-.447c-.787.116-5.184.505-9.855.116 0 0-1.016 0-1.135 1.121 0 0-.276 1.02.514 1.354.787.336 3.543 1.353 3.72 5.686.163 4.35.221 10.372.221 10.372s-6.424-9.466-10.537-16.732c0 0-.67-1.975-3.104-1.801-2.409.166-8.222.447-12.446.047 0 0-1.184-.163-1.353 1.19 0 0-.337 1.18.677 1.685 0 0 3.383 2.143 3.383 2.875 0 .738-.063 15.724-.063 15.724s.29 6.143-1.348 5.353c0 0-.956.619-3.265-3.61-2.309-4.226-5.297-10.252-10.14-21.977 0 0-1.018-3.265-3.098-3.265 0 0-1.24.061-2.533.782-1.298.74-5.413 3.05-9.691 4.292 0 0-1.127.334-.793 1.461 0 0-.163.84 1.072 1.307 1.237.444 2.309.952 2.645 1.566 0 0-1.292 4.17-3.662 8.462-2.367 4.276-5.402 11.374-14.138 11.374h-3.439s-.898.108-.898-1.127v-9.067h2.254s3.657-.793 5.41 3.94c0 0 .332 1.465 1.572.899 0 0 1.406-.166 1.296-1.577-.11-1.404-.218-5.24.055-8.618 0 0 .116-1.013-1.014-1.237 0 0-.897-.45-1.577.282-.674.729-2.085 2.471-5.297 2.471h-2.638v-8.448s-.06-.558.329-.616c.392-.058 5.3-1.246 8.17 1.06 2.872 2.318 3.049 3.273 3.662 4.121 0 0 .56 1.412 2.025.459 0 0 1.132-.177.566-1.923-.566-1.756-.73-2.364-1.685-6.764 0 0-.177-1.861-2.088-1.685-1.914.166-13.91 1.578-25.18.672 0 0-1.18-.282-1.41.964 0 0-.51.836.448 1.624 0 0 3.32 1.53 3.32 7.382v9.808s.569 7.778-2.19 7.778c0 0-1.188.505-3.21-3.497-2.027-4-2.14-4.115-2.14-4.115s-1.635-5.248-8.681-5.466c0 0 9.747-1.632 8.846-8.957 0 0-.165-5.582-7.485-5.803m132.039 10.818c3.046 4.334 3.444 6.367 3.444 6.367-2.417.4-6.416-.055-6.416-.055 1.171-3.157 2.972-6.312 2.972-6.312m25.529 9.132s.22 7.374-2.538 6.866c0 0-.964.624-3.27-3.602-2.304-4.22-5.295-10.252-10.14-21.968 0 0-1.013-3.273-3.099-3.273 0 0-1.234.06-2.53.781-1.3.74-5.41 3.055-9.689 4.292 0 0-1.135.335-.795 1.461 0 0-.171.848 1.074 1.296 1.238.458 2.312.955 2.644 1.58 0 0-1.29 4.165-3.66 8.448-2.364 4.287-4.455 10.537-10.026 13.352 0 0-1.08.232-.732 1.53.395 1.461 1.127 1.069 1.127 1.069 6.477-.68 8.452-.116 9.918 0 1.461.107 1.235-1.07 1.235-1.07.392-.74-.11-1.187-.11-1.187l-.62-.79s-2.424-.624 1.011-7.548c0 0 6.43-.166 9.919-.116 0 0 1.3 2.193 1.3 4.842 0 2.657-2.314 3.27-2.314 3.27s-.961.397-.514 1.577c0 0 .174 1.13 1.304 1.022 1.124-.116 19.83-.906 35.041.05 0 0 1.066.058 1.345-.895 0 0 .624-1.188-.445-1.862 0 0-2.99-1.353-3.212-6.134-.229-4.8-.165-13.874-.165-13.874s-.23-5.065 2.977-6.637c0 0 .845-.403.4-1.533 0 0-.226-1.063-1.248-.955-1.01.116-11.653.68-16.666.058 0 0-1.138-.058-1.356.897 0 0-.56.912.4 1.644.956.729 3.434 2.416 3.434 7.661v9.747m35.149-6.366v-5.524s.116-4.107 3.214-4.107c3.1 0 3.146 3.477 2.986 4.618-.157 1.127-.447 5.013-6.2 5.013m9.691-14.033s-12.395 1.463-23.885.342c0 0-1.464-.398-1.638 1.121 0 0-.108 1.014.516 1.417.62.384 3.152 1.912 3.32 7.204.174 5.294.282 3.772.174 10.99 0 0 .437 6.924-3.494 8.617 0 0-1.019.223-.455 1.696 0 0 .34 1.126 1.287.729 0 0 9.244-.613 17.248.058 0 0 .906.34 1.182-.848 0 0 .732-.787-.39-1.635-1.134-.837-3.159-2.31-3.39-5.861-.227-3.555-.167-6.36-.167-6.36h.793s2.649-.346 4.45 3.827a375.173 375.173 0 0 1 3.043 7.214s1.177 3.323 3.096 4.395c0 0 .788.737 3.718.39 0 0 4.79-.274 9.52-2.467 0 0 1.07-.232.727-1.47 0 0 .232-.97-1.116-1.242-1.353-.285-2.364-1.58-3.325-3.5-.964-1.908-2.43-4.731-2.43-4.731s-1.967-4.889-8.394-4.955c0 0 8.843-1.52 8.843-8.178 0-6.637-7.877-6.753-7.877-6.753" style="fill:#1c4e9d;fill-opacity:1;fill-rule:nonzero;stroke:none" transform="translate(-350.618 -469.15)"/><path d="M424.771 487.849c0 10.313-8.352 18.674-18.662 18.674-10.313 0-18.677-8.36-18.677-18.674 0-10.321 8.364-18.682 18.677-18.682 10.31 0 18.662 8.36 18.662 18.682" style="fill:#fff;fill-opacity:1;fill-rule:nonzero;stroke:none" transform="translate(-350.618 -469.15)"/><path d="M414.127 476.589c5.687 1.745 9.824 7.04 9.824 13.312a14 14 0 0 1-.26 2.665l-.022.122a15.834 15.834 0 0 1-2.847 6.654l-.028.03a18.621 18.621 0 0 0 3.983-11.54c0-10.313-8.366-18.681-18.688-18.681a18.608 18.608 0 0 0-12.268 4.601l-.047.042a12.953 12.953 0 0 0-4.204 9.573c0 1.56.27 3.074.785 4.466l.025.066a8.253 8.253 0 0 0 7.501 4.822 8.242 8.242 0 0 0 8.245-8.241l-.025-3.547c0-1.618.911-3.049 2.25-3.778l.014-.004a7.33 7.33 0 0 1 3.53-.909c.776 0 1.519.116 2.22.34l.011.009" style="fill:#ed192d;fill-opacity:1;fill-rule:nonzero;stroke:none" transform="translate(-350.618 -469.15)"/><path d="M391.799 499.864c3.428 4.076 8.565 6.672 14.31 6.672a18.62 18.62 0 0 0 12.28-4.598l.044-.033a12.986 12.986 0 0 0 4.206-9.579 12.99 12.99 0 0 0-.787-4.469l-.025-.058c-1.304-2.856-4.165-4.833-7.504-4.833a8.238 8.238 0 0 0-8.24 8.236l.026 3.557a4.305 4.305 0 0 1-2.254 3.776l-.013.009a7.347 7.347 0 0 1-5.75.566l-.01-.01c-5.69-1.752-9.827-7.05-9.827-13.31 0-.915.091-1.81.26-2.674l.015-.116a15.785 15.785 0 0 1 2.859-6.651l.018-.03a18.646 18.646 0 0 0-3.98 11.53c0 2.998.71 5.84 1.963 8.353l-.154.116s-.724.555-2.196-1.127c-1.467-1.696-10.084-12.117-10.084-12.117s5.469-5.86 10.821-8.225c0 0 1.4-.453 1.07-1.687l-.23-.738s-.047-.792-1.295-.624c-1.238.174-7.101.624-12.954.058 0 0-.903 0-1.24.74 0 0-.569.956 0 1.511.566.572 2.596 1.978 2.596 3.892 0 0 .44 1.414-2.651 3.662-3.104 2.26-5.016 3.72-6.308 4.403l.05-5.298s-.166-4.45 3.046-6.543c0 0 .784-.331.505-1.063l-.218-.564s-.18-.906-1.135-.798c0 0-5.57.624-16.677.116 0 0-.734-.058-1.01.508l-.224.448s-.395 1.022.223 1.469c.625.45 3.213 1.978 3.329 6.643 0 0 .279 8.849-.116 12.285-.398 3.441-.674 5.413-3.436 7.83 0 0-.732.574-.395 1.414l.395.73s.279.565 1.234.458c.961-.116 7.891-.799 16.677-.116 0 0 .624.223.903-.392l.395-.79s.45-.788-.395-1.412c-.848-.621-3.102-2.417-3.151-5.91-.055-3.494-.055-5.707-.055-5.707s1.521.627 9.628 12.634c0 0 2.875 5.181 8.957 1.974 0 0 4.45-2.425 6.308-4.002l.196-.116" style="fill:#1c4e9d;fill-opacity:1;fill-rule:nonzero;stroke:none" transform="translate(-350.618 -469.15)"/></svg>