<?xml version="1.0" encoding="UTF-8" standalone="no"?>
<!-- Generator: Gravit.io -->
<svg xmlns="http://www.w3.org/2000/svg" xmlns:xlink="http://www.w3.org/1999/xlink" style="isolation:isolate" viewBox="0 0 64 64" width="64pt" height="64pt"><defs><clipPath id="_clipPath_y5MwQSjNQMPQKmCmKQcHXdL95MLH1VIX"><rect width="64" height="64"/></clipPath></defs><g clip-path="url(#_clipPath_y5MwQSjNQMPQKmCmKQcHXdL95MLH1VIX)"><path d=" M 20.434 62.168 C 18.944 62.168 17.537 61.506 16.585 60.305 L 2.101 42.304 C 1.15 41.104 0.777 39.573 1.15 38.083 L 6.322 15.613 C 6.653 14.123 7.647 12.923 9.012 12.261 L 29.951 2.246 C 30.614 1.915 31.358 1.75 32.104 1.75 C 32.848 1.75 33.593 1.915 34.255 2.246 L 55.195 12.219 C 56.56 12.881 57.554 14.081 57.885 15.571 L 63.057 38.042 C 63.388 39.532 63.057 41.063 62.106 42.263 L 47.622 60.264 C 46.67 61.423 45.263 62.126 43.773 62.126 L 20.434 62.168 L 20.434 62.168 Z " fill="rgb(50,109,230)"/><path d=" M 32.062 2.784 C 32.642 2.784 33.221 2.908 33.759 3.157 L 54.698 13.13 C 55.774 13.668 56.602 14.661 56.85 15.819 L 62.023 38.29 C 62.312 39.49 62.023 40.732 61.237 41.684 L 46.753 59.685 C 46.008 60.637 44.849 61.174 43.649 61.174 L 20.434 61.174 C 19.234 61.174 18.075 60.637 17.33 59.685 L 2.846 41.684 C 2.101 40.732 1.812 39.49 2.06 38.29 L 7.233 15.819 C 7.522 14.619 8.309 13.626 9.385 13.13 L 30.324 3.115 C 30.862 2.908 31.483 2.784 32.062 2.784 L 32.062 2.784 Z  M 32.062 0.839 L 32.062 0.839 C 31.193 0.839 30.324 1.046 29.496 1.419 L 8.557 11.433 C 6.902 12.219 5.743 13.668 5.329 15.447 L 0.156 37.918 C -0.257 39.697 0.156 41.518 1.315 42.966 L 15.799 60.968 C 16.916 62.375 18.613 63.161 20.392 63.161 L 43.608 63.161 C 45.387 63.161 47.084 62.375 48.201 60.968 L 62.685 42.966 C 63.844 41.559 64.257 39.697 63.844 37.918 L 58.671 15.447 C 58.257 13.668 57.098 12.219 55.443 11.433 L 34.587 1.419 C 33.8 1.046 32.931 0.839 32.062 0.839 L 32.062 0.839 L 32.062 0.839 Z " fill="rgb(255,255,255)"/><path d=" M 53.043 36.511 L 53.043 36.511 L 53.043 36.511 C 53.002 36.511 53.002 36.511 53.043 36.511 L 53.002 36.511 C 52.96 36.511 52.919 36.511 52.919 36.469 C 52.836 36.469 52.753 36.428 52.67 36.428 C 52.381 36.387 52.132 36.345 51.884 36.345 C 51.76 36.345 51.636 36.345 51.47 36.304 L 51.429 36.304 C 50.56 36.221 49.856 36.138 49.194 35.931 C 48.905 35.807 48.822 35.642 48.739 35.476 C 48.739 35.435 48.698 35.435 48.698 35.393 L 48.698 35.393 L 48.16 35.228 C 48.408 33.324 48.325 31.338 47.87 29.393 C 47.415 27.448 46.629 25.627 45.553 23.972 L 45.967 23.599 L 45.967 23.517 C 45.967 23.31 46.008 23.103 46.173 22.896 C 46.67 22.441 47.291 22.068 48.036 21.613 L 48.036 21.613 C 48.16 21.53 48.284 21.489 48.408 21.406 C 48.656 21.282 48.863 21.158 49.112 20.992 C 49.153 20.951 49.236 20.909 49.319 20.827 C 49.36 20.785 49.401 20.785 49.401 20.744 L 49.401 20.744 C 49.981 20.247 50.105 19.42 49.691 18.882 C 49.484 18.592 49.112 18.427 48.739 18.427 C 48.408 18.427 48.118 18.551 47.829 18.758 L 47.829 18.758 L 47.829 18.758 C 47.787 18.799 47.787 18.799 47.746 18.84 C 47.663 18.882 47.622 18.965 47.539 19.006 C 47.332 19.213 47.167 19.378 47.001 19.585 C 46.918 19.668 46.836 19.792 46.711 19.875 L 46.711 19.875 C 46.132 20.496 45.594 20.992 45.056 21.365 C 44.932 21.447 44.808 21.489 44.684 21.489 C 44.601 21.489 44.518 21.489 44.435 21.447 L 44.353 21.447 L 44.353 21.447 L 43.856 21.779 C 43.318 21.199 42.739 20.703 42.159 20.206 C 39.676 18.261 36.656 17.061 33.511 16.771 L 33.469 16.233 C 33.428 16.192 33.428 16.192 33.386 16.151 C 33.262 16.026 33.097 15.902 33.055 15.613 C 33.014 14.95 33.097 14.206 33.18 13.378 L 33.18 13.337 C 33.18 13.212 33.221 13.047 33.262 12.923 C 33.304 12.674 33.345 12.426 33.386 12.136 L 33.386 11.888 L 33.386 11.764 L 33.386 11.764 L 33.386 11.764 C 33.386 11.019 32.807 10.398 32.104 10.398 C 31.772 10.398 31.441 10.564 31.193 10.812 C 30.945 11.061 30.82 11.392 30.82 11.764 L 30.82 11.764 L 30.82 11.764 L 30.82 11.847 L 30.82 12.095 C 30.82 12.385 30.862 12.633 30.945 12.881 C 30.986 13.006 30.986 13.13 31.027 13.295 L 31.027 13.337 C 31.11 14.164 31.234 14.909 31.152 15.571 C 31.11 15.861 30.945 15.985 30.82 16.109 C 30.779 16.151 30.779 16.151 30.738 16.192 L 30.738 16.192 L 30.696 16.73 C 29.951 16.813 29.207 16.895 28.462 17.061 C 25.275 17.764 22.461 19.378 20.268 21.696 L 19.854 21.406 L 19.771 21.406 C 19.689 21.406 19.606 21.447 19.523 21.447 C 19.399 21.447 19.275 21.406 19.151 21.323 C 18.613 20.951 18.075 20.413 17.495 19.792 L 17.495 19.792 C 17.413 19.709 17.33 19.585 17.206 19.502 C 17.04 19.296 16.875 19.13 16.668 18.923 C 16.626 18.882 16.544 18.84 16.461 18.758 C 16.42 18.716 16.378 18.716 16.378 18.675 L 16.378 18.675 C 16.13 18.468 15.799 18.344 15.468 18.344 C 15.095 18.344 14.723 18.509 14.516 18.799 C 14.102 19.337 14.226 20.165 14.806 20.661 L 14.806 20.661 L 14.806 20.661 C 14.847 20.661 14.847 20.703 14.888 20.703 C 14.971 20.744 15.013 20.827 15.095 20.868 C 15.344 21.034 15.551 21.158 15.799 21.282 C 15.923 21.323 16.047 21.406 16.171 21.489 L 16.171 21.489 C 16.916 21.944 17.537 22.316 18.033 22.772 C 18.24 22.979 18.24 23.185 18.24 23.392 L 18.24 23.475 L 18.24 23.475 L 18.654 23.848 C 18.571 23.972 18.489 24.055 18.447 24.179 C 16.378 27.448 15.592 31.296 16.13 35.104 L 15.592 35.269 C 15.592 35.311 15.551 35.311 15.551 35.352 C 15.468 35.518 15.344 35.683 15.095 35.807 C 14.475 36.014 13.73 36.097 12.861 36.18 L 12.819 36.18 C 12.695 36.18 12.53 36.18 12.405 36.221 C 12.157 36.221 11.909 36.262 11.619 36.304 C 11.536 36.304 11.454 36.345 11.371 36.345 C 11.33 36.345 11.288 36.345 11.247 36.387 L 11.247 36.387 L 11.247 36.387 C 10.502 36.552 10.047 37.256 10.171 37.918 C 10.295 38.497 10.833 38.87 11.495 38.87 C 11.619 38.87 11.702 38.87 11.826 38.828 L 11.826 38.828 L 11.826 38.828 C 11.868 38.828 11.909 38.828 11.909 38.787 C 11.992 38.787 12.074 38.745 12.157 38.745 C 12.447 38.663 12.654 38.58 12.902 38.456 C 13.026 38.414 13.15 38.332 13.274 38.29 L 13.316 38.29 C 14.102 38.001 14.806 37.752 15.468 37.669 L 15.551 37.669 C 15.799 37.669 15.964 37.794 16.088 37.876 C 16.13 37.876 16.13 37.918 16.171 37.918 L 16.171 37.918 L 16.751 37.835 C 17.744 40.897 19.647 43.628 22.172 45.615 C 22.751 46.07 23.33 46.442 23.951 46.815 L 23.703 47.353 C 23.703 47.394 23.744 47.394 23.744 47.436 C 23.827 47.601 23.91 47.808 23.827 48.098 C 23.579 48.718 23.206 49.339 22.751 50.043 L 22.751 50.084 C 22.668 50.208 22.585 50.291 22.503 50.415 C 22.337 50.622 22.213 50.829 22.047 51.077 C 22.006 51.119 21.965 51.201 21.923 51.284 C 21.923 51.326 21.882 51.367 21.882 51.367 L 21.882 51.367 L 21.882 51.367 C 21.551 52.07 21.799 52.857 22.42 53.146 C 22.585 53.229 22.751 53.271 22.917 53.271 C 23.413 53.271 23.91 52.939 24.158 52.484 L 24.158 52.484 L 24.158 52.484 C 24.158 52.443 24.199 52.401 24.199 52.401 C 24.241 52.319 24.282 52.236 24.324 52.195 C 24.448 51.905 24.489 51.698 24.572 51.45 C 24.613 51.326 24.655 51.201 24.696 51.077 L 24.696 51.077 C 24.986 50.25 25.193 49.588 25.565 49.008 C 25.73 48.76 25.937 48.718 26.103 48.636 C 26.144 48.636 26.144 48.636 26.186 48.594 L 26.186 48.594 L 26.475 48.056 C 28.296 48.76 30.283 49.132 32.269 49.132 C 33.469 49.132 34.711 49.008 35.869 48.718 C 36.614 48.553 37.318 48.346 38.021 48.098 L 38.27 48.553 C 38.311 48.553 38.311 48.553 38.352 48.594 C 38.559 48.636 38.725 48.718 38.89 48.967 C 39.221 49.546 39.47 50.25 39.759 51.036 L 39.759 51.077 C 39.801 51.201 39.842 51.326 39.883 51.45 C 39.966 51.698 40.008 51.946 40.132 52.195 C 40.173 52.277 40.214 52.319 40.256 52.401 C 40.256 52.443 40.297 52.484 40.297 52.484 L 40.297 52.484 L 40.297 52.484 C 40.546 52.981 41.042 53.271 41.539 53.271 C 41.704 53.271 41.87 53.229 42.035 53.146 C 42.325 52.981 42.573 52.733 42.656 52.401 C 42.739 52.07 42.739 51.698 42.573 51.367 L 42.573 51.367 L 42.573 51.367 C 42.573 51.326 42.532 51.326 42.532 51.284 C 42.49 51.201 42.449 51.119 42.408 51.077 C 42.284 50.829 42.118 50.622 41.953 50.415 C 41.87 50.291 41.787 50.208 41.704 50.084 L 41.704 50.043 C 41.249 49.339 40.835 48.718 40.628 48.098 C 40.546 47.808 40.628 47.643 40.67 47.436 C 40.67 47.394 40.711 47.394 40.711 47.353 L 40.711 47.353 L 40.504 46.856 C 42.697 45.573 44.56 43.753 45.967 41.518 C 46.711 40.359 47.291 39.076 47.705 37.794 L 48.201 37.876 C 48.243 37.876 48.243 37.835 48.284 37.835 C 48.449 37.752 48.574 37.628 48.822 37.628 L 48.905 37.628 C 49.567 37.711 50.27 37.959 51.057 38.249 L 51.098 38.249 C 51.222 38.29 51.346 38.373 51.47 38.414 C 51.719 38.538 51.926 38.621 52.215 38.704 C 52.298 38.704 52.381 38.745 52.464 38.745 C 52.505 38.745 52.546 38.745 52.588 38.787 L 52.588 38.787 C 52.712 38.828 52.795 38.828 52.919 38.828 C 53.539 38.828 54.077 38.414 54.243 37.876 C 54.243 37.38 53.788 36.718 53.043 36.511 L 53.043 36.511 Z  M 33.883 34.483 L 32.062 35.352 L 30.241 34.483 L 29.786 32.538 L 31.027 30.965 L 33.055 30.965 L 34.297 32.538 L 33.883 34.483 L 33.883 34.483 Z  M 44.684 30.179 C 45.015 31.586 45.098 32.993 44.973 34.359 L 38.642 32.538 C 38.063 32.373 37.732 31.793 37.856 31.214 C 37.897 31.048 37.98 30.883 38.104 30.758 L 43.111 26.248 C 43.815 27.406 44.353 28.731 44.684 30.179 L 44.684 30.179 Z  M 41.125 23.765 L 35.704 27.613 C 35.249 27.903 34.628 27.82 34.255 27.365 C 34.131 27.241 34.09 27.075 34.049 26.91 L 33.676 20.165 C 36.531 20.496 39.139 21.779 41.125 23.765 L 41.125 23.765 Z  M 29.124 20.372 C 29.579 20.289 29.993 20.206 30.448 20.123 L 30.076 26.744 C 30.034 27.324 29.579 27.82 28.958 27.82 C 28.793 27.82 28.586 27.779 28.462 27.696 L 22.958 23.765 C 24.655 22.068 26.765 20.909 29.124 20.372 L 29.124 20.372 Z  M 20.972 26.248 L 25.896 30.634 C 26.351 31.007 26.393 31.71 26.02 32.166 C 25.896 32.331 25.73 32.455 25.524 32.497 L 19.109 34.359 C 18.861 31.545 19.482 28.689 20.972 26.248 L 20.972 26.248 Z  M 19.854 37.463 L 26.434 36.345 C 26.972 36.304 27.469 36.676 27.593 37.214 C 27.634 37.463 27.634 37.669 27.551 37.876 L 27.551 37.876 L 25.027 43.96 C 22.71 42.47 20.847 40.194 19.854 37.463 L 19.854 37.463 Z  M 34.959 45.698 C 34.007 45.904 33.055 46.029 32.062 46.029 C 30.614 46.029 29.207 45.78 27.882 45.367 L 31.152 39.449 C 31.483 39.076 32.021 38.911 32.476 39.159 C 32.683 39.283 32.848 39.449 32.973 39.614 L 32.973 39.614 L 36.159 45.367 C 35.787 45.491 35.373 45.573 34.959 45.698 L 34.959 45.698 Z  M 43.028 39.945 C 41.994 41.601 40.628 42.925 39.056 43.96 L 36.449 37.711 C 36.325 37.214 36.531 36.676 37.028 36.428 C 37.194 36.345 37.4 36.304 37.607 36.304 L 44.229 37.421 C 43.98 38.332 43.566 39.159 43.028 39.945 L 43.028 39.945 Z " fill="rgb(255,255,255)"/></g></svg>