<svg xmlns="http://www.w3.org/2000/svg" width="512pt" height="512pt" style="isolation:isolate" viewBox="0 0 512 512"><defs><clipPath id="a"><path d="M0 0h512v512H0z"/></clipPath></defs><g clip-path="url(#a)"><linearGradient id="b" x1="-.001" x2=".99" y1=".009" y2=".001" gradientTransform="matrix(511.883 0 0 415.687 .117 48.157)" gradientUnits="userSpaceOnUse"><stop offset="0%" style="stop-color:#ffb900"/><stop offset="33.755%" style="stop-color:#f38000"/><stop offset="56.729%" style="stop-color:#f83c72"/><stop offset="78%" style="stop-color:#fc1cbe"/><stop offset="93%" style="stop-color:#fe08ed"/><stop offset="100%" style="stop-color:#f0f"/></linearGradient><path fill="url(#b)" d="M256.113 463.843a20.762 20.762 0 0 1-10.377-2.698C218.653 445.476 18.073 319.712 10.499 315.872A18.157 18.157 0 0 1 .122 301.345V124.943a19.095 19.095 0 0 1 8.612-16.395l1.453-.83c19.404-12.037 84.362-51.675 94.634-57.382a15.566 15.566 0 0 1 7.783-2.179c2.569.029 5.095.669 7.368 1.867 0 0 90.899 59.251 104.803 64.543a71.708 71.708 0 0 0 31.13 6.537 69.728 69.728 0 0 0 34.865-8.509c13.594-7.16 100.446-62.259 101.379-62.259a13.695 13.695 0 0 1 7.264-1.972c2.743.013 5.431.766 7.782 2.179 11.83 6.537 92.352 55.826 95.776 58.005a18.677 18.677 0 0 1 9.028 16.188v176.402a17.952 17.952 0 0 1-10.376 14.527c-7.575 4.15-207.532 129.915-235.134 145.273a20.752 20.752 0 0 1-10.376 2.905Z"/><linearGradient id="c" x1="-.439" x2="1.464" y1=".875" y2="-.178" gradientTransform="matrix(256.925 0 0 347.513 255.075 116.331)" gradientUnits="userSpaceOnUse"><stop offset="0%" style="stop-color:#ee0a3f"/><stop offset="100%" stop-opacity="0" style="stop-color:#ee0a3f"/></linearGradient><path fill="url(#c)" d="M255.075 463.843h1.038a20.76 20.76 0 0 0 10.376-2.698c27.083-15.669 227.559-141.433 235.134-145.273a17.95 17.95 0 0 0 10.376-14.527V124.943a18.87 18.87 0 0 0-1.972-8.612l-254.952 139.98v207.532Z"/><linearGradient id="d" x1=".242" x2="1.133" y1=".664" y2="-.054" gradientTransform="matrix(-254.188 0 0 343.81 254.188 117.545)" gradientUnits="userSpaceOnUse"><stop offset="0%" style="stop-color:#ed6600"/><stop offset="100%" style="stop-color:#f98200"/></linearGradient><path fill="url(#d)" d="m254.188 461.356-1.027-.001a20.534 20.534 0 0 1-10.265-2.669C216.101 443.184 17.761 318.76 10.267 314.961A17.76 17.76 0 0 1 .001 300.589V126.066a18.667 18.667 0 0 1 1.951-8.521l252.236 138.489v205.322Z"/></g></svg>