<svg id="Layer_1" xmlns="http://www.w3.org/2000/svg" viewBox="0 0 310.4 528.3" width="1469" height="2500"><style>.st0{fill:url(#SVGID_1_)}.st1{fill:url(#SVGID_2_)}</style><linearGradient id="SVGID_1_" gradientUnits="userSpaceOnUse" x1="77.128" y1="-57.537" x2="77.128" y2="413.615"><stop offset="0" stop-color="#fce28d"/><stop offset=".312" stop-color="#b39736"/><stop offset=".617" stop-color="#fce28d"/><stop offset=".988" stop-color="#b39736"/></linearGradient><path class="st0" d="M154 331c-27 .5-53-14.3-68-36.5-8.1-11.7-12.5-25.6-13.4-39.8-.2-29.8.2-59.7 0-89.5-.1-31.8.4-63.7.1-95.5-.3-11.7-4.2-23.1-10.1-33.1-4.5-7.9-11-14.6-18-20.4C32.6 6.1 16.8.5 1.1 0 .8 5.3.4 10.7.4 16.1H1C.1 22.8.5 29.6.3 36.3c-.5 43-.2 86-.2 128.9-.1 29.5.4 59 .4 88.5 1.1 6.3.1 12.6 1.2 18.9 3.6 30.4 17.7 59.3 38.7 81.5 28.7 31.1 70.6 51.1 113.4 49.2l.3-.4c.3-16.5 0-33.1.1-49.7.1-7.3-.1-14.7-.2-22.2z"/><linearGradient id="SVGID_2_" gradientUnits="userSpaceOnUse" x1="177.626" y1="26.81" x2="177.626" y2="558.256"><stop offset=".142" stop-color="#dcdcdc"/><stop offset=".287" stop-color="#898989"/><stop offset=".602" stop-color="#dcdcdc"/><stop offset=".757" stop-color="#dcdcdc"/><stop offset=".977" stop-color="#898989"/></linearGradient><path class="st1" d="M309.8 275.5c.4-5.2.2-10.4.3-15.6-.2-21.6-1.2-43.8-9.1-64.2-10.2-28-29.3-52.3-53-70.3-11.1-9.1-24.3-15.6-37.8-20.7-13.5-4.6-26.8-8.6-56.8-8.6s-61.9 11.1-67.3 13.1c-.2 6.2-.8 12.4-.1 18.6.1 25.6.3 51.2-.7 76.8 11.5-14.7 26.5-27.1 44.4-33 11.2-3.8 23.2-4.2 34.9-3.2 35 3.6 64.9 32.9 71 67.3 2 12.3 1.6 25.3-2.3 37.2-.6 1.3-1.2 2.6-1.7 4-6.2 17.2-18.7 31.9-34.1 41.7-8.9 5.8-19.1 9.2-29.4 11.5-.3 24.4.1 48.8.2 73.2 18.3-1.5 36.2-6.2 52.8-14 5.1-2.1 9.9-5 15.1-7-2.3 19.8-12.2 38.6-27.3 51.7-23.7 20.7-60 26.9-88.5 12.9-8.2-4.1-15.5-10-23.5-14.5-1.7-1.2-2.8 1-3.9 1.9-11.1 12.1-23.5 22.9-34.6 34.9-4.4 5-9.3 9.5-13.7 14.5 25 23.3 57.1 39.1 91 43.5 19.6 2.6 39.6.7 58.8-4.2 31.7-8.3 60.4-27.2 81-52.7l.4.1c23.6-28.8 34.6-66.7 33.4-103.6 1.2-16 0-32.1.4-48.1.5-14.4-.2-28.8.5-43.3l-.4.1z"/></svg>