<svg id="Layer_1" xmlns="http://www.w3.org/2000/svg" viewBox="0 0 338.1 330.3" width="2500" height="2442"><style>.st0{fill:#42318c}</style><path class="st0" d="M314.8 292.7c8.9-10.1 16.7-21.2 23.3-32.9l-39.5-19.6c-5.7 9.5-12.6 18.3-20.7 25.9-11 10.2-22.7 16.2-34.6 17.7-23 2.9-39.1-4.2-62.5-19.2-24.6-15.8-52.5-33.7-92.2-28.7-24 3.1-46.1 15.7-65.4 37.4-8.8 10-16.6 21.1-23.2 32.8l39.4 19.6c5.7-9.5 12.6-18.3 20.6-25.9 10.9-10.1 22.5-16 34.6-17.5 3.3-.4 6.7-.7 10-.7 18.1 0 32.7 7 52.5 19.7 23 14.8 51.7 33.1 92.2 28 24.6-3.1 46.6-15.4 65.5-36.6zm0-117.5c8.9-10.1 16.7-21.2 23.3-32.9l-39.5-19.6c-5.7 9.5-12.6 18.3-20.7 25.9-11 10.2-22.7 16.2-34.6 17.7-23 2.9-39.1-4.2-62.5-19.2-24.6-15.8-52.5-33.7-92.2-28.6-24 3.1-46.1 15.6-65.4 37.4-8.8 10-16.6 21-23.2 32.8l39.4 19.6C45.1 198.8 52 190 60 182.4c10.9-10.1 22.5-15.9 34.6-17.5 3.3-.4 6.7-.7 10-.7 18.1 0 32.7 7 52.5 19.7 23 14.8 51.7 33.1 92.2 28 24.6-3.2 46.6-15.5 65.5-36.7zm0-117.5c8.9-10.1 16.7-21.2 23.3-32.9L298.7 5.1C293 14.6 286.1 23.4 278 31c-11 10.2-22.7 16.2-34.6 17.7-23 2.9-39.1-4.2-62.5-19.2C156.3 13.7 128.4-4.2 88.8.9 64.7 4 42.7 16.5 23.3 38.3A190 190 0 0 0 0 71.2l39.4 19.6C45.1 81.3 52 72.5 60 64.9c10.9-10.1 22.5-16 34.6-17.5 3.3-.4 6.7-.7 10-.7 18.1 0 32.7 7 52.5 19.7 23 14.8 51.6 33.1 92.2 28 24.6-3.1 46.6-15.5 65.5-36.7z"/></svg>