<svg xmlns="http://www.w3.org/2000/svg" width="2000" height="1736.4" viewBox="0 0 2000 1736.4"><defs><linearGradient id="0" x1="624.01" x2="763.96" gradientTransform="matrix(11.85 0 0 10.29-7217.43 981.93)" gradientUnits="userSpaceOnUse"><stop stop-color="#7cb7ff"/><stop offset="1" stop-color="#ba6df6"/></linearGradient></defs><path d="M1201.45,16.3,1011.14,206.62l38.63,38.64a55.53,55.53,0,0,0,78.46,0L1318.54,54.94,1279.91,16.3a55.35,55.35,0,0,0-78.27-.19Zm-481.36,0L681.63,54.94,871.94,245.26a55.53,55.53,0,0,0,78.46,0l38.46-38.64L798.55,16.3a55.35,55.35,0,0,0-78.26-.19Zm660.71,249L1021.09,624.88,1094,697.76a104.92,104.92,0,0,0,148.13,0l359.71-359.54L1529,265.33a104.62,104.62,0,0,0-147.94-.2Zm-909.74,0-72.71,72.89,359.54,359.4a104.94,104.94,0,0,0,148.3,0L978.91,625,619.37,265.33A104.61,104.61,0,0,0,471.43,265Zm489.8-8.43-38.64,38.8L1000,373.32l77.78-77.62-38.47-38.8a55.34,55.34,0,0,0-78.25-.2h0l-.19.19ZM1632.7,615.43,1035.09,1213.2l121,121a174.28,174.28,0,0,0,246.33,0L2000,736.57l-121-121a173.78,173.78,0,0,0-245.75-.58h0l-.57.57Zm-1511.7,0L0,736.4,597.6,1334a174.28,174.28,0,0,0,246.33,0l121.15-121L367.3,615.43a173.79,173.79,0,0,0-245.76-.57ZM925.76,720l-72.55,72.89,146.79,147,147-146.78-72.71-72.89a104.61,104.61,0,0,0-147.94-.54h0l-.54.54Zm-48.93,651.26-121,121L1000,1736.4l244.14-244.14-121-121a173.8,173.8,0,0,0-245.77-.57Z" fill="url(#0)"/></svg>