<svg xmlns="http://www.w3.org/2000/svg" width="512pt" height="512pt" style="isolation:isolate" viewBox="0 0 512 512"><defs><clipPath id="a"><path d="M0 0h512v512H0z"/></clipPath></defs><g fill="#231F20" clip-path="url(#a)"><path d="M377.671 241.945c3.737-.445 7.317-.466 10.607 0 1.904-4.366 2.232-11.895.519-20.092-2.546-12.186-5.991-19.56-13.112-18.412-7.119 1.147-7.382 9.976-4.836 22.161 1.431 6.854 3.981 12.712 6.822 16.343m-61.126 9.642c5.094 2.236 8.225 3.718 9.45 2.422.788-.807.554-2.347-.663-4.335-2.514-4.105-7.687-8.266-13.174-10.605-11.222-4.83-24.605-3.223-34.93 4.195-3.407 2.498-6.638 5.957-6.176 8.057.15.68.66 1.192 1.856 1.359 2.811.322 12.63-4.644 23.942-5.336 7.984-.489 14.6 2.008 19.695 4.243m-10.247 5.848c-6.637 1.047-10.296 3.235-12.646 5.269-2.004 1.752-3.244 3.689-3.233 5.052.004.648.286 1.022.508 1.21.303.265.66.414 1.091.414 1.498 0 4.855-1.349 4.855-1.349 9.234-3.304 15.325-2.903 21.361-2.215 3.336.374 4.912.581 5.643-.562.218-.329.479-1.039-.188-2.122-1.555-2.52-8.254-6.782-17.392-5.697m50.734 21.465c4.504 2.214 9.464 1.344 11.08-1.941 1.613-3.284-.73-7.742-5.236-9.958-4.504-2.211-9.464-1.344-11.08 1.942-1.613 3.286.73 7.742 5.236 9.957Zm28.963-25.309c-3.66-.063-6.695 3.957-6.781 8.975-.086 5.021 2.814 9.138 6.473 9.201 3.66.063 6.697-3.957 6.781-8.975.086-5.021-2.814-9.14-6.473-9.201Zm-245.835 90.5c-.91-1.141-2.406-.794-3.855-.456-1.011.237-2.157.502-3.414.481-2.692-.053-4.971-1.202-6.252-3.169-1.667-2.56-1.571-6.379.271-10.747.247-.592.54-1.246.858-1.958 2.935-6.587 7.848-17.61 2.332-28.112-4.151-7.905-10.922-12.83-19.063-13.862-7.815-.991-15.861 1.906-20.994 7.568-8.096 8.933-9.362 21.089-7.796 25.385.574 1.571 1.471 2.007 2.124 2.096 1.377.184 3.414-.817 4.69-4.251.092-.246.213-.629.365-1.116.57-1.814 1.628-5.194 3.362-7.903 2.091-3.267 5.348-5.516 9.171-6.335a14.694 14.694 0 0 1 11.206 2.092c5.673 3.71 7.857 10.659 5.436 17.291-1.252 3.43-3.286 9.987-2.837 15.377.907 10.905 7.614 15.286 13.641 15.751 5.86.22 9.955-3.068 10.992-5.473.611-1.422.095-2.287-.237-2.659"/><path d="M195.865 143.785c19.112-22.084 42.64-41.284 63.714-52.065.73-.374 1.503.418 1.108 1.133-1.674 3.03-4.895 9.52-5.917 14.443-.159.767.675 1.343 1.323.902 13.111-8.937 35.921-18.514 55.927-19.745.859-.053 1.275 1.049.591 1.574-3.043 2.335-6.37 5.564-8.801 8.831-.414.555-.024 1.356.669 1.36 14.048.1 33.851 5.017 46.76 12.257.874.489.251 2.18-.725 1.956-19.53-4.475-51.499-7.871-84.706.228-29.647 7.232-52.274 18.395-68.781 30.401-.835.608-1.836-.494-1.162-1.275Zm95.185 213.973c.002.004.004.012.006.012.004.006.006.018.012.024l-.018-.036Zm78.814 9.304c.567-.239.957-.885.891-1.526a1.434 1.434 0 0 0-1.574-1.284s-40.787 6.036-79.316-8.067c4.197-13.641 15.356-8.717 32.223-7.354 30.403 1.813 57.65-2.629 77.788-8.41 17.451-5.006 40.369-14.88 58.17-28.931 6.005 13.19 8.124 27.704 8.124 27.704s4.649-.83 8.532 1.559c3.671 2.259 6.363 6.954 4.523 19.094-3.743 22.679-13.383 41.085-29.583 58.019-9.863 10.616-21.836 19.846-35.534 26.557a150 150 0 0 1-23.205 9.798c-61.077 19.948-123.595-1.981-143.747-49.075a75.715 75.715 0 0 1-4.041-11.124c-8.588-31.034-1.298-68.267 21.493-91.704.002-.002-.002-.012 0-.012 1.405-1.492 2.838-3.25 2.838-5.461 0-1.85-1.174-3.802-2.194-5.186-7.974-11.565-35.593-31.272-30.05-69.411 3.982-27.399 27.943-46.695 50.284-45.552 1.888.099 3.779.214 5.662.325 9.682.574 18.128 1.816 26.098 2.148 13.339.577 25.334-1.363 39.54-13.199 4.793-3.994 8.635-7.455 15.137-8.557.683-.117 2.383-.727 5.781-.566 3.468.183 6.77 1.137 9.736 3.112 11.391 7.579 13.005 25.934 13.596 39.363.337 7.665 1.265 26.21 1.58 31.534.726 12.173 3.926 13.889 10.399 16.02 3.641 1.2 7.02 2.093 12.001 3.491 15.076 4.232 24.015 8.528 29.648 14.043 3.361 3.447 4.925 7.111 5.408 10.604 1.776 12.969-10.071 28.99-41.431 43.547-34.282 15.91-75.871 19.939-104.606 16.74a4820.607 4820.607 0 0 1-10.068-1.138c-22.985-3.095-36.096 26.61-22.302 46.961 8.892 13.116 33.108 21.653 57.337 21.657 55.553.005 98.252-23.717 114.135-44.205.476-.612.522-.679 1.27-1.812.782-1.177.138-1.827-.836-1.16-12.977 8.879-70.616 44.131-132.271 33.526 0 0-7.491-1.232-14.33-3.892-5.434-2.114-16.808-7.347-18.19-19.016 49.755 15.387 81.084.841 81.084.841v-.001ZM96.577 248.817c-17.304 3.365-32.556 13.172-41.881 26.718-5.575-4.648-15.959-13.648-17.793-17.155-14.89-28.271 16.249-83.239 38.002-114.282C128.663 67.383 212.861 9.315 251.837 19.851c6.338 1.794 27.322 26.125 27.322 26.125S240.2 67.594 204.067 97.727c-48.684 37.486-85.459 91.969-107.49 151.09Zm29.077 129.734a41.488 41.488 0 0 1-7.985.56c-26.036-.698-54.159-24.139-56.954-51.936-3.089-30.724 12.61-54.369 40.406-59.977 3.323-.669 7.339-1.056 11.67-.83 15.573.853 38.524 12.81 43.767 46.739 4.644 30.048-2.732 60.639-30.904 65.444Zm352.691-54.406c-.223-.788-1.676-6.099-3.672-12.498-1.996-6.403-4.063-10.907-4.063-10.907 8.007-11.989 8.149-22.709 7.085-28.783-1.137-7.527-4.27-13.941-10.586-20.571-6.316-6.63-19.233-13.421-37.388-18.518-2.076-.583-8.923-2.463-9.525-2.644-.047-.393-.502-22.457-.913-31.927-.301-6.847-.888-17.536-4.205-28.064-3.953-14.25-10.84-26.72-19.434-34.698 23.72-24.588 38.529-51.676 38.493-74.914-.068-44.689-54.951-58.21-122.585-30.204-.071.029-14.227 6.032-14.33 6.082-.064-.061-25.907-25.418-26.296-25.756C193.814-56.517-47.284 211.469 29.8 276.555l16.846 14.272c-4.37 11.32-6.087 24.289-4.684 38.236 1.8 17.912 11.04 35.083 26.016 48.349 14.217 12.597 32.909 20.569 51.048 20.554 29.996 69.126 98.535 111.533 178.896 113.919 86.203 2.561 158.565-37.889 188.886-110.548 1.984-5.099 10.401-28.076 10.401-48.358 0-20.385-11.525-28.834-18.864-28.834"/></g></svg>