<svg xmlns="http://www.w3.org/2000/svg" width="512pt" height="512pt" style="isolation:isolate" viewBox="0 0 512 512"><defs><clipPath id="a"><path d="M0 0h512v512H0z"/></clipPath></defs><g clip-path="url(#a)"><path fill="#FF5F00" d="M186.781 131.626h138.438v248.748H186.781z"/><path fill="#EB001B" d="M195.571 256c0-50.541 23.732-95.368 60.209-124.374-26.808-21.096-60.649-33.841-97.565-33.841C70.757 97.785 0 168.542 0 256s70.757 158.215 158.215 158.215c36.916 0 70.757-12.745 97.565-33.841-36.477-28.566-60.209-73.833-60.209-124.374Z"/><path fill="#F79E1B" d="M512 256c0 87.458-70.757 158.215-158.215 158.215-36.916 0-70.757-12.745-97.565-33.841 36.916-29.006 60.209-73.833 60.209-124.374s-23.732-95.368-60.209-124.374c26.808-21.096 60.649-33.841 97.565-33.841C441.243 97.785 512 168.982 512 256Z"/></g></svg>