<svg xmlns="http://www.w3.org/2000/svg" width="512pt" height="512pt" style="isolation:isolate" viewBox="0 0 512 512"><defs><clipPath id="a"><path d="M0 0h512v512H0z"/></clipPath></defs><g clip-path="url(#a)"><path fill="#EB7077" d="M436.747 263.618H512c-26.316 8.772-34.626 26.315-39.243 76.176-3.231 35.55-19.39 44.783-19.39 44.783-12.004 0-24.007-51.246-34.626-105.724 4.155-9.234 9.695-13.85 18.006-15.235Z"/><path fill="#EB7077" d="M452.905 384.115h-75.253c13.389 0 22.622-25.392 28.162-57.709 3.694-21.699 7.387-37.396 12.466-48.015 10.618 54.478 22.622 105.724 34.625 105.724Z"/><path fill="#F6A2AD" d="M418.28 278.391c-5.541 10.157-9.234 26.316-12.466 48.015-5.54 32.317-14.773 57.709-28.162 57.709-14.312-3.231-25.854-57.709-41.089-140.811-.462-2.77-.924-5.079-1.385-7.849 11.542-60.018 23.545-111.726 35.549-111.726h4.155c14.312 3.232 25.854 57.71 41.089 140.812.923 5.078 1.385 9.234 2.309 13.85Z"/><path fill="#EB7077" d="M299.628 124.191h71.099c-12.004 0-24.469 51.708-35.549 111.726-10.619-56.325-23.084-111.726-35.55-111.726Z"/><path fill="#EB7077" d="M335.178 235.917c-.924 6.002-2.309 12.004-3.232 18.467-17.082 93.259-27.239 127.423-39.243 130.193-13.388 0-26.315-60.48-36.934-119.574 0-.924-.462-1.847-.462-2.77.462-2.77.924-5.079 1.386-7.849 17.082-93.72 27.238-127.423 38.78-130.193h4.155c12.466 0 24.931 55.401 35.55 111.726Z"/><path fill="#EB7077" d="M292.703 384.115H217.45c12.927 0 25.854-57.709 37.396-122.344 0 .923.461 1.847.461 2.77 11.081 59.556 24.469 119.574 37.396 119.574Z"/><path fill="#F6A2AD" d="M255.307 262.233c-12.003 64.634-24.93 122.344-37.395 122.344-14.774-3.693-25.854-58.171-41.551-140.811-.462-2.771-.924-5.079-1.385-7.849 11.542-60.018 23.545-111.726 35.549-111.726h4.155c14.312 3.232 25.392 56.786 40.627 138.042Z"/><path fill="#EB7077" d="M139.427 124.191h71.098c-12.004 0-24.007 51.708-35.549 111.726-10.619-56.325-23.084-111.726-35.549-111.726Z"/><path fill="#EB7077" d="M174.976 235.917c-.924 6.002-2.309 12.004-3.232 18.467-17.082 93.259-27.239 127.423-39.243 130.193-13.388 0-8.31-2.308-16.62-39.704s-14.774-59.556-23.546-71.098c1.385-6.464 2.309-12.927 3.694-19.391 17.544-93.72 27.7-127.423 39.242-130.193h4.156c12.465 0 24.93 55.401 35.549 111.726Z"/><path fill="#EB7077" d="M132.501 384.115H57.248c12.004 0 24.007-51.246 35.549-110.802 8.31 11.542 14.774 33.702 23.546 71.098 8.31 37.396 2.77 39.704 16.158 39.704Z"/><path fill="#F6A2AD" d="M92.797 273.313c-11.542 59.556-23.545 110.802-35.549 110.802-1.385-1.846-9.695 0-17.544-46.167-6.925-42.475-19.39-69.252-39.704-74.33h75.253c7.387.461 12.466 3.231 17.544 9.695Z"/><path fill="#EB7077" d="M436.747 263.156H512c-26.316 8.772-34.626 26.316-39.243 76.177-3.231 35.549-19.39 44.782-19.39 44.782-12.004 0-24.007-51.246-34.626-105.724 4.155-9.233 9.695-13.85 18.006-15.235Z"/><path fill="#EB7077" d="M452.905 383.654h-75.253c13.389 0 22.622-25.393 28.162-57.71 3.694-21.699 7.387-37.396 12.466-48.014 10.618 54.478 22.622 105.724 34.625 105.724Z"/><path fill="#F6A2AD" d="M418.28 277.93c-5.541 10.157-9.234 26.315-12.466 48.014-5.54 32.317-14.773 57.71-28.162 57.71-14.312-3.232-25.854-57.71-41.089-140.812-.462-2.77-.924-5.078-1.385-7.848 11.542-59.557 23.545-111.265 35.549-111.265h4.155c14.312 3.232 25.854 57.71 41.089 140.812.923 4.155 1.385 8.772 2.309 13.389Z"/><path fill="#EB7077" d="M299.628 123.729h71.099c-12.004 0-24.469 51.708-35.549 111.726-10.619-56.324-23.084-111.726-35.55-111.726Z"/><path fill="#EB7077" d="M335.178 235.455c-.924 6.002-2.309 12.004-3.232 18.467-17.082 93.259-27.239 127.423-39.243 130.193-13.388 0-26.315-60.479-36.934-119.574 0-.923-.462-1.847-.462-2.77.462-2.77.924-5.078 1.386-7.849 17.082-93.72 27.238-127.422 38.78-130.193h4.155c12.466 0 24.931 55.402 35.55 111.726Z"/><path fill="#EB7077" d="M292.703 383.654H217.45c12.927 0 25.854-57.71 37.396-122.345 0 .924.461 1.847.461 2.77 11.081 59.557 24.469 119.575 37.396 119.575Z"/><path fill="#F6A2AD" d="M255.307 261.771c-12.003 64.635-24.93 122.344-37.395 122.344-14.312-3.231-25.854-57.709-41.09-140.811-.461-2.77-.923-5.079-1.385-7.849 11.081-60.018 23.084-111.726 35.088-111.726h4.155c14.312 3.232 25.392 56.325 40.627 138.042Z"/><path fill="#EB7077" d="M139.427 123.729h71.098c-12.004 0-24.007 51.708-35.549 111.726-10.619-56.324-23.084-111.726-35.549-111.726Z"/><path fill="#EB7077" d="M174.976 235.455c-.924 6.002-2.309 12.004-3.232 18.467-17.082 93.259-27.239 127.423-39.243 130.193-13.388 0-8.31-2.308-16.62-39.704s-14.774-59.556-23.546-71.098c1.385-6.464 2.309-12.927 3.694-19.391 17.544-93.72 27.7-127.422 39.242-130.193h4.156c12.465 0 24.93 55.402 35.549 111.726Z"/><path fill="#EB7077" d="M132.501 383.654H57.248c12.004 0 24.007-51.246 35.549-110.803 8.31 11.542 14.774 33.703 23.546 71.099 8.31 37.395 2.77 39.704 16.158 39.704Z"/><path fill="#F6A2AD" d="M92.797 277.468c-11.542 59.556-23.545 110.803-35.549 110.803-1.385-1.847-9.695 0-17.544-46.168-6.925-42.475-19.39-69.252-39.704-74.33h75.253c7.387 0 12.466 3.232 17.544 9.695Z"/></g></svg>