<svg xmlns="http://www.w3.org/2000/svg" width="512pt" height="512pt" style="isolation:isolate" viewBox="0 0 512 512"><defs><clipPath id="a"><path d="M0 0h512v512H0z"/></clipPath></defs><g clip-path="url(#a)"><path fill="#9B4DCA" d="M256 0C129.269 207.985 78.777 247.423 78.777 334.777 78.777 432.654 158.123 512 256 512c97.877 0 177.223-79.346 177.223-177.223C433.223 246.658 381.957 207.603 256 0Zm0 482.901c-81.97 0-148.419-66.451-148.419-148.42 0-73.156 42.286-106.185 148.419-280.366 105.486 173.862 148.419 206.569 148.419 280.366 0 81.969-66.449 148.42-148.419 148.42Zm-18.373-62.258c-17.076-3.83-30.019-10.721-42.27-22.285-8.808-8.347-13.631-14.702-18.533-24.198-7.734-15.086-10.414-27.185-9.802-44.415.229-8.501.767-12.789 2.298-18.456 2.297-8.653 6.125-18.149 8.194-20.446.842-.919 1.531-1.992 1.531-2.45 0-.46.612-1.685 1.302-2.757 1.991-3.14 2.068-7.582.229-11.258-4.134-8.04-10.874-11.41-19.144-9.571-5.743 1.301-8.729 5.13-14.55 18.608-6.969 16.234-9.801 28.18-10.491 44.415-2.604 59.118 38.06 111.115 96.029 122.907 5.896 1.149 8.577 1.379 10.95.843 11.87-2.68 16.235-16.311 8.118-25.194-2.451-2.757-4.748-3.676-13.861-5.743Z"/></g></svg>