<svg xmlns="http://www.w3.org/2000/svg" width="512pt" height="512pt" style="isolation:isolate" viewBox="0 0 512 512"><defs><clipPath id="a"><path d="M0 0h512v512H0z"/></clipPath></defs><g clip-path="url(#a)"><path fill="#F62B54" d="M63.691 408.733A63.937 63.937 0 0 1 7.971 376.4a61.823 61.823 0 0 1 1.751-63.645l114.745-180.189a63.986 63.986 0 0 1 56.643-30.777 63.866 63.866 0 0 1 54.821 33.792c10.696 20.226 9.359 44.561-3.453 63.547L117.806 379.317a63.962 63.962 0 0 1-54.115 29.416Z"/><path fill="#FC0" d="M260.508 408.733c-23.143 0-44.439-12.374-55.622-32.26a61.63 61.63 0 0 1 1.75-63.475l114.527-179.775a63.887 63.887 0 0 1 56.692-31.434c23.338.511 44.488 13.565 55.185 33.986 10.623 20.421 9.067 44.902-4.133 63.839L314.405 379.39a63.865 63.865 0 0 1-53.897 29.343Z"/><ellipse cx="452.926" cy="352.406" fill="#00CA72" rx="59.074" ry="57.835" vector-effect="non-scaling-stroke"/></g></svg>