<?xml version="1.0" encoding="UTF-8" standalone="no"?>
<!-- Generator: Gravit.io -->
<svg xmlns="http://www.w3.org/2000/svg" xmlns:xlink="http://www.w3.org/1999/xlink" style="isolation:isolate" viewBox="0 0 64 64" width="64pt" height="64pt"><defs><clipPath id="_clipPath_ZZPiXvowC2TDBHPbMsQlAzKDZbAtDiuq"><rect width="64" height="64"/></clipPath></defs><g clip-path="url(#_clipPath_ZZPiXvowC2TDBHPbMsQlAzKDZbAtDiuq)"><path d=" M 37.559 7.133 C 34.873 3.946 32.56 0.71 32.087 0.037 C 32.038 -0.012 31.963 -0.012 31.913 0.037 C 31.441 0.71 29.128 3.946 26.442 7.133 C 3.386 36.538 30.073 56.381 30.073 56.381 L 30.297 56.531 C 30.496 59.593 30.993 64 30.993 64 L 31.988 64 L 32.983 64 C 32.983 64 33.48 59.618 33.679 56.531 L 33.903 56.356 C 33.928 56.381 60.614 36.538 37.559 7.133 L 37.559 7.133 Z  M 31.988 55.958 C 31.988 55.958 30.794 54.937 30.471 54.414 L 30.471 54.365 L 31.913 22.346 C 31.913 22.246 32.063 22.246 32.063 22.346 L 33.505 54.365 L 33.505 54.414 C 33.182 54.937 31.988 55.958 31.988 55.958 Z " fill="rgb(0,104,74)"/></g></svg>