<?xml version="1.0" encoding="UTF-8" standalone="no"?>
<svg
   xmlns:dc="http://purl.org/dc/elements/1.1/"
   xmlns:cc="http://creativecommons.org/ns#"
   xmlns:rdf="http://www.w3.org/1999/02/22-rdf-syntax-ns#"
   xmlns:svg="http://www.w3.org/2000/svg"
   xmlns="http://www.w3.org/2000/svg"
   xmlns:sodipodi="http://sodipodi.sourceforge.net/DTD/sodipodi-0.dtd"
   xmlns:inkscape="http://www.inkscape.org/namespaces/inkscape"
   height="300"
   width="300"
   version="1.1"
   viewBox="0 0 300 300"
   id="svg113657"
   sodipodi:docname="Montpellier_HSC_logo.svg"
   inkscape:version="0.92.4 (5da689c313, 2019-01-14)">
  <metadata
     id="metadata113663">
    <rdf:RDF>
      <cc:Work
         rdf:about="">
        <dc:format>image/svg+xml</dc:format>
        <dc:type
           rdf:resource="http://purl.org/dc/dcmitype/StillImage" />
      </cc:Work>
    </rdf:RDF>
  </metadata>
  <defs
     id="defs113661" />
  <sodipodi:namedview
     pagecolor="#ffffff"
     bordercolor="#666666"
     borderopacity="1"
     objecttolerance="10"
     gridtolerance="10"
     guidetolerance="10"
     inkscape:pageopacity="0"
     inkscape:pageshadow="2"
     inkscape:window-width="1366"
     inkscape:window-height="705"
     id="namedview113659"
     showgrid="false"
     inkscape:zoom="0.57482485"
     inkscape:cx="148.29724"
     inkscape:cy="149.79949"
     inkscape:window-x="-8"
     inkscape:window-y="-8"
     inkscape:window-maximized="1"
     inkscape:current-layer="svg113657" />
  <path
     d="M 228.41777,150.00606 A 78.506733,78.506733 0 1 1 149.91104,71.499324 78.501032,78.501032 0 0 1 228.41777,150.00606"
     id="path113565"
     inkscape:connector-curvature="0"
     style="fill:#ffffff;stroke-width:11.87696457" />
  <path
     d="M 69.622051,150.00606 A 80.288278,80.288278 0 1 0 149.91033,69.71778 80.379255,80.379255 0 0 0 69.622051,150.00606 m 3.563683,0 a 76.725188,76.725188 0 1 1 76.725186,76.72519 76.812365,76.812365 0 0 1 -76.725186,-76.72519"
     id="path113567"
     inkscape:connector-curvature="0"
     style="fill:#7f7d7c;stroke-width:11.87696457" />
  <path
     d="M 0,150.00606 A 150,150 0 1 0 150.00534,0 150.17851,150.17851 0 0 0 0,150.00606"
     id="path113569"
     inkscape:connector-curvature="0"
     style="fill:#7f7d7c;stroke-width:11.87696457" />
  <path
     d="M 4.75079,150.00606 A 145.24933,145.24933 0 1 1 149.99418,295.26133 145.40884,145.40884 0 0 1 4.75079,150.00606"
     id="path113571"
     inkscape:connector-curvature="0"
     style="fill:#ffffff;stroke-width:11.87696457" />
  <path
     style="fill:#344575;stroke-width:11.87696457"
     d="m 115.45597,228.35839 34.6451,6.79362 79.68256,-63.76742 3.24241,-37.09176 z"
     id="polygon113573"
     inkscape:connector-curvature="0" />
  <path
     d="m 232.01649,132.96261 -120.45617,96.36969 39.03959,7.66064 80.88212,-64.71758 3.65811,-41.81879 z m -0.98507,5.16648 c -0.54634,6.21166 -2.71983,31.1414 -2.82672,32.38848 -1.11643,0.89078 -77.29528,61.84336 -78.49485,62.80539 -1.33022,-0.26129 -24.58532,-4.82205 -30.25063,-5.9266 5.34463,-4.27571 105.79999,-84.64713 111.57279,-89.26727"
     id="path113575"
     inkscape:connector-curvature="0"
     style="fill:#ffffff;stroke-width:11.87696457" />
  <path
     style="fill:#344575;stroke-width:11.87696457"
     d="M 71.498849,195.53004 211.58792,83.447194 228.41733,104.48178 88.328257,216.56463 Z"
     id="rect113577"
     inkscape:connector-curvature="0" />
  <path
     d="M 210.5066,82.105453 69.088301,195.25729 88.055812,218.96371 230.81692,104.74295 211.84941,81.036526 Z m 0.80763,3.741244 c 1.74592,2.185361 12.94589,16.176423 14.69181,18.361783 C 223.41686,106.28695 91.190618,212.08695 88.589563,214.15354 86.843649,211.96818 75.643672,197.97712 73.897758,195.79175 76.498814,193.71328 208.71318,87.925166 211.31423,85.846697"
     id="path113579"
     inkscape:connector-curvature="0"
     style="fill:#ffffff;stroke-width:11.87696457" />
  <path
     d="m 187.08594,70.074089 a 234.42823,234.42823 0 0 0 -31.18891,-9.54908 l -95.06322,76.060081 2.197239,2.19724 v 30.55942 z"
     id="path113581"
     inkscape:connector-curvature="0"
     style="fill:#344575;stroke-width:11.87696457" />
  <path
     d="M 154.83998,59.194789 58.280263,136.45444 c 0,0 2.446655,2.44666 3.05238,3.0405 v 33.4099 L 190.48275,69.563379 187.71542,68.482575 a 238.16876,238.16876 0 0 0 -31.41457,-9.620341 l -0.80764,-0.190031 z m 1.48462,3.194904 a 238.46569,238.46569 0 0 1 27.35265,8.230736 C 179.25902,74.159764 69.967196,161.60985 64.753209,165.77867 v -27.70896 c 0,0 -0.950158,-0.93828 -1.342097,-1.33022 2.874225,-2.30413 91.642658,-73.340255 92.914198,-74.349797"
     id="path113583"
     inkscape:connector-curvature="0"
     style="fill:#ffffff;stroke-width:11.87696457" />
  <path
     d="M 51.379747,150.00606 A 98.614433,98.614433 0 1 0 149.99418,51.391624 98.730353,98.730353 0 0 0 51.379747,150.00606 m 21.390412,0 a 77.229722,77.229722 0 1 1 77.224021,77.22402 77.314761,77.314761 0 0 1 -77.224021,-77.22402"
     id="path113585"
     inkscape:connector-curvature="0"
     style="fill:#d87043;stroke-width:11.87696457" />
  <path
     d="M 69.716948,150.00606 A 80.288278,80.288278 0 1 0 150.00523,69.71778 80.371416,80.371416 0 0 0 69.716948,150.00606 m 3.563089,0 a 76.725188,76.725188 0 1 1 76.725193,76.72519 76.812365,76.812365 0 0 1 -76.725193,-76.72519"
     id="path113587"
     inkscape:connector-curvature="0"
     style="fill:#7f7d7c;stroke-width:11.87696457" />
  <path
     d="M 48.244228,150.00606 A 101.75601,101.75601 0 1 0 150.00606,48.244228 101.86563,101.86563 0 0 0 48.244228,150.00606 m 3.56309,0 a 98.192682,98.192682 0 1 1 98.198022,98.18686 98.309433,98.309433 0 0 1 -98.198022,-98.18686"
     id="path113589"
     inkscape:connector-curvature="0"
     style="fill:#7f7d7c;stroke-width:11.87696457" />
  <path
     d="m 29.03918,218.20358 c -1.0333,0.17816 -1.0333,0.17816 -1.36645,-0.33255 -0.0831,-0.14252 -0.35631,-0.58197 -0.54634,-0.95016 -0.73637,-1.24708 -1.21145,-1.99533 -1.88844,-3.05238 -0.40381,-0.65323 -1.00954,-1.52025 -1.42523,-2.10222 -0.22566,-0.34443 -0.51071,-0.73637 -0.59385,-0.87889 -0.4632,-0.71262 -0.43945,-1.19958 0.10689,-1.54401 0.51071,-0.33256 1.0333,-0.0356 1.8053,0.96203 0.90265,1.1877 1.60339,1.23521 3.36118,0.0238 l 14.264831,-9.65597 c 2.482285,-1.67465 2.624809,-2.04284 1.567759,-4.15694 -0.320678,-0.65323 -0.27317,-1.11643 0.166278,-1.40148 0.522586,-0.32068 1.09268,-0.0119 1.674652,0.90265 a 6.3601143,6.3601143 0 0 1 0.415693,0.74825 c 1.29459,2.32789 2.279784,4.05005 2.874226,4.96457 0.617602,0.99767 1.472743,2.17349 2.38727,3.40869 0.225662,0.34443 0.510709,0.73637 0.629479,0.90265 0.42757,0.68886 0.391939,1.2352 -0.04751,1.50837 -0.617602,0.39194 -0.926403,0.20191 -2.007207,-1.11643 -0.914526,-1.14019 -1.662775,-1.19957 -3.147396,-0.21379 l -13.943555,9.16902 17.459137,-3.01675 c 0.760125,-0.1544 1.532128,-0.3088 2.327885,-0.47508 2.066591,-0.49883 2.327885,-0.47508 2.850471,0.34443 a 1.20183,1.20183 0 0 1 -0.130646,1.52026 l -12.185766,17.47101 10.309205,-5.99787 c 0.93828,-0.55821 2.125977,-1.25895 3.254288,-1.97157 2.007207,-1.27084 2.399147,-2.23287 1.520846,-3.78875 -0.855142,-1.41336 -0.90265,-1.86469 -0.285048,-2.25663 0.475079,-0.29692 1.009542,-0.0594 1.461461,0.65324 0.08255,0.14252 0.296924,0.53446 0.475078,0.89077 0.368186,0.73637 0.831388,1.544 1.306467,2.29225 a 23.059126,23.059126 0 0 0 1.710282,2.39915 c 0.296924,0.39194 0.605726,0.80763 0.724495,0.98579 q 0.570094,0.9264 -0.106892,1.35397 c -0.51071,0.32068 -0.795163,0.16628 -1.852807,-0.97391 -0.950157,-1.0333 -1.532128,-1.04517 -3.313673,-0.0119 l -14.906778,8.39701 c -0.403816,0.20191 -0.748248,0.4157 -1.223327,0.71262 l -0.605725,0.39194 c -0.997665,0.62948 -1.068927,1.10456 -0.320678,2.44666 0.66511,1.21144 0.700741,1.71028 0.1544,2.05471 -0.54634,0.34443 -1.045172,0.095 -1.60339,-0.79576 l -2.256623,-3.78875 c -0.498832,-0.78388 -1.508372,-2.29225 -1.888432,-2.82671 l -0.23754,-0.36819 c -0.29693,-0.47508 -0.29693,-0.62948 0.095,-1.21145 L 46.141994,215.3056 Z"
     id="path113591"
     inkscape:connector-curvature="0"
     style="fill:#344575;stroke-width:11.87696457" />
  <path
     d="m 23.78956,190.53026 c -1.12831,-3.56309 2.37539,-7.74378 7.94569,-9.50157 4.97645,-1.57964 9.133384,-0.52259 10.107295,2.56542 1.116434,3.53934 -2.458532,7.81504 -7.993195,9.56096 -4.9527,1.55588 -9.08588,0.47508 -10.05979,-2.62481 m -1.1877,0.1544 a 11.171591,11.171591 0 0 0 13.9198,7.64876 10.372272,10.372272 0 0 0 6.556089,-6.21165 14.769005,14.769005 0 0 0 -0.01188,-8.55141 11.174679,11.174679 0 0 0 -13.872289,-7.80317 11.358416,11.358416 0 0 0 -6.59172,14.91747"
     id="path113593"
     inkscape:connector-curvature="0"
     style="fill:#344575;stroke-width:11.87696457" />
  <path
     d="m 21.04598,155.69512 c -2.45853,0.23754 -2.62481,0.43945 -2.76733,3.06426 a 0.62116523,0.62116523 0 0 1 -0.5701,0.6176 c -0.48695,0.0475 -0.772,-0.29692 -0.84385,-1.03329 a 5.3921417,5.3921417 0 0 1 -0.0356,-0.71262 c -0.0594,-1.17582 -0.095,-1.94782 -0.16627,-2.62481 -0.0475,-0.48696 -0.14253,-1.10456 -0.24942,-1.61527 -0.0713,-0.36818 -0.14252,-0.76012 -0.1544,-0.95016 -0.0594,-0.6176 0.1544,-0.95015 0.6176,-0.98578 0.52259,-0.0594 0.70074,0.23754 1.02142,1.56776 0.26129,1.12831 0.74825,1.31834 2.62481,1.14018 l 16.45019,-1.61526 c 0.914526,-0.095 1.152065,0.0356 1.223327,0.772 0.05939,0.55822 -0.130647,0.91453 -0.843267,1.57964 l -15.32128,14.88183 11.30687,-1.11643 c 2.18536,-0.21379 2.90985,-0.40382 3.38493,-0.8789 0.36819,-0.41569 0.36819,-0.38006 0.40382,-2.24474 a 0.82438008,0.82438008 0 0 1 0.66511,-0.8789 c 0.39194,-0.0356 0.676987,0.3088 0.736372,0.89077 0.01188,0.11877 0.01188,0.40382 0.03563,0.65324 a 22.083671,22.083671 0 0 0 0.142523,2.74357 c 0.07126,0.71262 0.178155,1.47275 0.285047,2.01909 a 5.7710169,5.7710169 0 0 1 0.190032,0.91453 c 0.05939,0.54634 -0.166278,0.89077 -0.593848,0.9264 -0.486956,0.0475 -0.712618,-0.27317 -0.867019,-1.30647 -0.226256,-1.37772 -0.962037,-1.57963 -4.620137,-1.22333 l -8.70582,0.85515 c -3.58684,0.43944 -2.63668,0.32068 -2.8861,0.38006 -1.46086,0.20191 -1.8053,0.54634 -1.79342,1.60339 0.0356,1.04517 -0.11818,1.3421 -0.64076,1.40148 -0.42757,0.0356 -0.67699,-0.28505 -0.74825,-1.02142 l -0.23754,-3.07613 -0.3088,-2.86235 c -0.10689,-1.04517 -0.0831,-1.16394 0.59385,-1.82905 l 11.09308,-10.86742 z"
     id="path113595"
     inkscape:connector-curvature="0"
     style="fill:#344575;stroke-width:11.87696457" />
  <path
     d="m 34.07501,137.8678 c 2.24475,0.17815 2.44665,0.0475 3.02791,-2.17348 0.095,-0.36819 0.320681,-0.55822 0.629483,-0.53447 0.463201,0.0356 0.653233,0.33256 0.617602,0.85514 l -0.02375,0.17816 c -0.05939,0.48695 -0.03563,0.19003 -0.130647,0.95016 l -0.02375,0.28504 -0.02375,0.23754 -0.04751,0.24942 -0.02375,0.27317 c -0.106892,0.89077 -0.201908,1.72216 -0.296924,2.86235 -0.08314,1.04517 -0.106892,1.72216 -0.1544,3.11176 l -0.02316,0.24942 -0.01188,0.28504 v 0.30881 l -0.02375,0.27317 a 3.6818589,3.6818589 0 0 1 -0.01188,0.55821 c -0.04751,0.52259 -0.285054,0.78388 -0.748254,0.74825 -0.42757,-0.0356 -0.48695,-0.10689 -0.62948,-1.42523 -0.13064,-1.3421 -0.60572,-1.68653 -2.54167,-1.84093 l -14.71496,-1.1877 c -0.49955,-0.0475 -0.55893,0.0475 -0.62948,0.90265 -0.1544,1.94782 0.32068,2.8861 2.32788,4.537 0.7245,0.58197 1.05765,1.04517 1.0333,1.41336 a 0.65643981,0.65643981 0 0 1 -0.72449,0.55822 2.6740985,2.6740985 0 0 1 -0.40382,-0.095 l -4.47762,-1.66278 c -0.48695,-0.16628 -0.71261,-0.4632 -0.67698,-0.83139 a 0.62793509,0.62793509 0 0 1 0.54634,-0.62948 c 0.72449,-0.19003 0.79575,-0.24941 0.85514,-0.98578 l 1.00954,-12.60146 c 0.10689,-1.19958 -0.0475,-1.61527 -0.68886,-2.10223 -0.47508,-0.34443 -0.60573,-0.54634 -0.58197,-0.87889 0.0356,-0.42757 0.3563,-0.6176 0.84326,-0.52259 l 4.97645,0.92641 c 0.70074,0.1544 0.93828,0.35631 0.90265,0.81951 -0.0356,0.40381 -0.36819,0.67698 -1.06893,0.90265 -2.76733,0.86701 -3.11176,1.27083 -3.32555,3.91939 -0.0475,0.67699 0.0237,0.84327 0.48696,0.8789 z"
     id="path113597"
     inkscape:connector-curvature="0"
     style="fill:#344575;stroke-width:11.87696457" />
  <path
     d="m 24.9535,119.81481 c -2.81484,-0.71261 -3.3493,-1.22332 -2.95736,-2.7792 a 4.2498153,4.2498153 0 0 1 5.38026,-2.66045 c 2.75546,0.68887 4.14506,2.5298 3.57497,4.77454 -0.35631,1.41336 -0.90265,1.94783 -1.76967,1.72216 z m 6.92427,1.73404 c -0.35631,-0.095 -0.45132,-0.23754 -0.38006,-0.53446 a 4.6248898,4.6248898 0 0 1 0.53446,-1.11644 10.29614,10.29614 0 0 0 1.46087,-3.15927 6.4299509,6.4299509 0 0 0 -4.71516,-7.72003 c -3.62247,-0.90264 -6.47294,1.30647 -7.63688,5.95036 -0.19004,0.74825 -0.47508,2.14973 -0.68887,3.39682 -0.29692,1.52025 -0.53446,2.76733 -0.67698,3.33742 -0.17816,0.68887 -0.30881,1.19957 -0.67699,2.41102 -0.32068,1.0333 -0.36819,1.21146 -0.39194,1.33023 a 3.2234081,3.2234081 0 0 0 -0.16628,0.53446 c -0.13065,0.51071 0.0119,0.83139 0.4632,0.93828 0.29693,0.0831 0.55822,-0.0831 0.71262,-0.42757 0.93828,-2.09035 1.15266,-2.18536 3.33743,-1.63902 l 12.31641,3.08801 c 1.88844,0.47508 2.292253,0.89077 2.209115,2.24474 -0.07126,1.28272 -0.03563,1.38961 0.391939,1.4965 0.451325,0.10689 0.724495,-0.10689 0.855142,-0.6176 a 4.9378478,4.9378478 0 0 0 0.106893,-0.54634 l 0.05938,-0.27317 0.04751,-0.3088 0.07126,-0.2613 0.05938,-0.24941 c 0.27317,-1.35398 0.415694,-2.01909 0.653233,-2.98112 0.27317,-1.0808 0.499426,-1.85281 0.736372,-2.70795 l 0.07126,-0.27317 0.09502,-0.23754 0.05939,-0.23754 0.07126,-0.26129 c 0.213785,-0.74825 0.142523,-0.45132 0.285047,-0.9264 l 0.04751,-0.17816 c 0.130646,-0.51071 -0.01188,-0.83138 -0.463202,-0.93828 -0.296924,-0.0831 -0.558217,0.0831 -0.712618,0.42757 -0.93828,2.09035 -1.152065,2.19724 -3.337421,1.63902 z"
     id="path113599"
     inkscape:connector-curvature="0"
     style="fill:#344575;stroke-width:11.87696457" />
  <path
     d="m 42.424516,103.56713 c 2.232869,0.98579 3.43173,0.55821 4.311338,-1.44899 A 5.532765,5.532765 0 0 0 46.04699,96.013378 c -0.629479,-0.783879 -0.772003,-1.152065 -0.581971,-1.60339 a 0.63019172,0.63019172 0 0 1 0.890772,-0.320678 10.619194,10.619194 0 0 1 1.365851,0.867018 17.068266,17.068266 0 0 0 2.316008,1.425236 c 0.403817,0.213785 0.475079,0.380063 0.320678,0.712618 -0.05939,0.142524 -0.296924,0.617602 -0.475079,1.009542 -0.570094,1.163942 -1.342096,2.814836 -2.280377,4.964576 -0.843264,1.92406 -1.99533,4.56075 -2.399146,5.53466 -0.593849,1.35397 -0.380063,0.8789 -1.342097,3.36118 a 3.2620082,3.2620082 0 0 1 -0.190032,0.52259 c -0.213785,0.47508 -0.522586,0.64135 -0.950157,0.4632 -0.39194,-0.17815 -0.427571,-0.26129 -0.130647,-1.54401 0.308802,-1.31834 -0.01188,-1.80529 -1.805298,-2.58917 l -11.615675,-5.1071 c -2.06659,-0.90265 -2.28037,-0.86702 -3.57496,1.06893 a 0.59871776,0.59871776 0 0 1 -0.772,0.29692 c -0.42758,-0.17815 -0.51071,-0.52258 -0.29693,-1.00954 l 0.0713,-0.16628 0.1069,-0.1544 0.0713,-0.17815 0.10689,-0.24942 0.1544,-0.27317 0.11877,-0.24941 0.095,-0.22567 0.14252,-0.23754 0.095,-0.22566 c 0.4632,-0.89077 0.80763,-1.67465 1.50837,-3.289918 0.51071,-1.163943 1.10456,-2.589178 1.47274,-3.503705 2.38727,-6.045374 1.67466,-4.192568 2.29226,-5.843466 l 0.10689,-0.225662 c 0.1544,-0.368186 0.36819,-0.439448 0.73637,-0.285047 l 1.08081,0.510709 1.95969,0.795757 c 0.84327,0.368185 0.96204,0.558217 0.73638,1.068926 -0.14253,0.332555 -0.40382,0.463202 -1.27084,0.581972 a 4.2075333,4.2075333 0 0 0 -3.86001,2.791086 c -1.17582,2.696071 -1.17582,2.992995 0.0119,3.515582 l 4.52572,1.995326 c 0.81951,0.35631 1.16394,0.27317 1.42524,-0.320674 1.413356,-3.230535 1.413356,-3.764998 0.095,-4.917064 -0.65323,-0.570094 -0.85514,-0.950157 -0.68945,-1.353974 a 0.71261785,0.71261785 0 0 1 1.04517,-0.285047 l 2.85047,1.425236 2.506039,0.962034 c 0.534464,0.237539 0.724495,0.593848 0.546341,0.985788 -0.178155,0.39194 -0.51071,0.54634 -1.199574,0.51071 -1.781544,-0.09502 -2.672317,0.320678 -3.171149,1.448989 l -0.213786,0.581971 c -0.819511,2.066591 -0.819511,1.995331 0.11877,2.411021 z"
     id="path113601"
     inkscape:connector-curvature="0"
     style="fill:#344575;stroke-width:11.87696457" />
  <path
     d="M 38.326963,84.718385 C 36.42665,83.495058 36.18911,83.530689 34.63323,85.205341 a 0.60691287,0.60691287 0 0 1 -0.80764,0.178154 C 33.43365,85.134079 33.39802,84.77777 33.68307,84.338322 a 2.9157947,2.9157947 0 0 1 0.22566,-0.296924 l 0.1069,-0.1544 0.14252,-0.237539 0.20191,-0.23754 0.14252,-0.237539 0.14252,-0.201908 0.1544,-0.201909 0.15441,-0.225662 c 0.47507,-0.688864 0.98578,-1.425236 1.544,-2.280377 0.62948,-0.985788 0.962035,-1.544006 1.674653,-2.77921 l 0.130646,-0.201908 0.154401,-0.23754 0.142524,-0.27317 0.1544,-0.237539 a 3.8300834,3.8300834 0 0 1 0.27317,-0.475079 c 0.285047,-0.451324 0.617602,-0.570094 1.009542,-0.308801 0.356309,0.225663 0.356309,0.344432 -0.118769,1.544006 -0.51071,1.247081 -0.261294,1.769667 1.377727,2.826717 l 10.427975,6.734239 c 1.793421,1.152065 2.981118,0.962034 3.99066,-0.593848 a 5.4523579,5.4523579 0 0 0 0.09502,-6.033498 c -0.39194,-0.700741 -0.451325,-1.05705 -0.225663,-1.401482 a 0.56094902,0.56094902 0 0 1 0.855142,-0.190031 11.834445,11.834445 0 0 1 1.734036,1.460866 17.21661,17.21661 0 0 0 1.401482,1.199574 c 0.534464,0.415693 0.570094,0.593848 0.23754,1.104557 l -0.201909,0.308801 c -0.593848,0.867019 -0.522586,0.772003 -1.579636,2.220993 -0.78388,1.104557 -1.591513,2.316008 -2.838595,4.228199 -1.163942,1.829052 -2.090345,3.32555 -3.111764,5.059587 -0.368186,0.641356 -0.475079,0.867018 -0.546341,0.962034 a 4.101472,4.101472 0 0 1 -0.27317,0.486955 c -0.285047,0.439448 -0.617602,0.558218 -1.009542,0.308801 -0.356309,-0.237539 -0.356309,-0.344432 0.11877,-1.544005 0.510709,-1.247081 0.261293,-1.781545 -1.377728,-2.838594 z"
     id="path113603"
     inkscape:connector-curvature="0"
     style="fill:#344575;stroke-width:11.87696457" />
  <path
     d="M 49.621956,68.435067 C 47.935427,66.93857 47.697888,66.926693 45.89259,68.351927 a 0.59598606,0.59598606 0 0 1 -0.819511,0.04751 c -0.344432,-0.308801 -0.331961,-0.653233 0.02375,-1.05705 l 0.261293,-0.249416 0.130647,-0.142524 0.178154,-0.201908 0.225663,-0.213786 0.190031,-0.201908 0.166277,-0.190032 0.190032,-0.166277 0.178154,-0.201909 c 0.581972,-0.605725 1.199574,-1.258958 1.876561,-2.019083 0.772002,-0.878896 1.187696,-1.389605 2.078468,-2.494163 l 0.166278,-0.178154 0.190031,-0.213786 0.178155,-0.249416 0.17756,-0.201908 a 4.4327206,4.4327206 0 0 1 0.344432,-0.439448 c 0.356309,-0.39194 0.700741,-0.463202 1.045173,-0.154401 0.320678,0.285048 0.308801,0.403817 -0.344432,1.508375 -0.700741,1.163942 -0.534463,1.72216 0.926403,3.016749 l 9.287786,8.230736 c 1.591514,1.425236 2.791681,1.413359 4.026291,0.02375 a 5.4383431,5.4383431 0 0 0 1.021419,-5.938482 C 67.306158,65.90527 67.306158,65.537084 67.567455,65.24016 a 0.56712504,0.56712504 0 0 1 0.878896,-0.05938 12.653599,12.653599 0 0 1 1.496497,1.710283 18.107857,18.107857 0 0 0 1.199573,1.389605 c 0.475079,0.498832 0.486956,0.676987 0.07126,1.140188 l -0.249416,0.273171 c -0.712618,0.772002 -0.641356,0.676987 -1.88915,1.959699 -0.950157,0.973911 -1.935945,2.030961 -3.456196,3.741243 -1.437113,1.627145 -2.577302,2.957365 -3.848137,4.525124 -0.463201,0.570094 -0.605725,0.783879 -0.688864,0.867018 a 3.346691,3.346691 0 0 1 -0.344432,0.439448 c -0.356309,0.39194 -0.688864,0.463201 -1.045173,0.1544 -0.320678,-0.285047 -0.308801,-0.403816 0.356309,-1.508374 0.688864,-1.163943 0.522587,-1.72216 -0.926403,-3.004872 z"
     id="path113605"
     inkscape:connector-curvature="0"
     style="fill:#344575;stroke-width:11.87696457" />
  <path
     d="m 75.585,60.28747 c 1.48462,1.698406 1.72216,1.745914 3.681859,0.558217 a 0.62318431,0.62318431 0 0 1 0.831387,0.05938 c 0.308801,0.344432 0.23754,0.700741 -0.1544,1.045173 l -0.142524,0.11877 c -0.39194,0.296924 -0.166277,0.09502 -0.760126,0.581971 l -0.213785,0.178154 -0.190031,0.166278 -0.201909,0.142523 -0.213785,0.178155 c -0.629479,0.510709 -1.365851,1.104558 -2.066592,1.72216 -1.163942,1.009542 -1.21145,1.045173 -3.254288,2.992995 a 5.0905856,5.0905856 0 0 1 -0.39194,0.380063 c -0.39194,0.356308 -0.748249,0.368185 -1.05705,0.02375 -0.285047,-0.332555 -0.249416,-0.439447 0.534464,-1.460866 0.843264,-1.05705 0.748249,-1.627144 -0.522587,-3.099888 l -8.337628,-9.572833 c -1.484621,-1.698406 -1.72216,-1.734037 -3.681859,-0.558217 a 0.61130735,0.61130735 0 0 1 -0.831388,-0.05939 c -0.308801,-0.344432 -0.237539,-0.700741 0.166278,-1.045173 a 2.4568688,2.4568688 0 0 1 0.296924,-0.213785 l 0.130646,-0.11877 0.213786,-0.190031 0.261293,-0.178155 0.201908,-0.178154 0.190032,-0.166278 0.201908,-0.142523 0.213785,-0.178155 c 0.605726,-0.486955 1.366445,-1.104557 1.99533,-1.650898 1.235205,-1.080803 1.235205,-1.080803 3.32555,-3.064257 a 5.0752643,5.0752643 0 0 1 0.39194,-0.380062 c 0.403817,-0.344432 0.748249,-0.368186 1.05705,-0.02375 0.285047,0.332555 0.249416,0.439447 -0.54634,1.460866 -0.831388,1.05705 -0.736372,1.627144 0.534463,3.099888 z"
     id="path113607"
     inkscape:connector-curvature="0"
     style="fill:#344575;stroke-width:11.87696457" />
  <path
     d="m 85.110325,52.448674 c 1.342097,2.042838 2.577301,2.339762 4.406354,1.128311 a 5.5346653,5.5346653 0 0 0 2.743579,-5.499034 c -0.106893,-0.997665 -0.02375,-1.389605 0.380062,-1.662775 a 0.6294791,0.6294791 0 0 1 0.914527,0.213785 7.9338121,7.9338121 0 0 1 0.676393,1.484621 18.338033,18.338033 0 0 0 1.175819,2.446654 c 0.225663,0.403817 0.190626,0.570095 -0.118176,0.772003 -0.130646,0.09502 -0.581971,0.356309 -0.950157,0.593848 -1.116434,0.653233 -2.648563,1.639021 -4.620139,2.921733 -1.745913,1.152066 -4.14506,2.731702 -5.012079,3.337427 -1.234491,0.819511 -0.795756,0.534464 -2.945487,2.090346 a 3.1494146,3.1494146 0 0 1 -0.451324,0.332555 c -0.439448,0.285047 -0.78388,0.261293 -1.045173,-0.11877 -0.23754,-0.368185 -0.225663,-0.451324 0.724495,-1.377727 0.973911,-0.926404 0.962034,-1.508375 -0.106893,-3.135519 L 73.910348,45.370003 c -1.247081,-1.888437 -1.448396,-1.971576 -3.574966,-1.05705 a 0.60738795,0.60738795 0 0 1 -0.819511,-0.166277 c -0.249416,-0.380063 -0.142523,-0.712618 0.296924,-1.009542 l 0.154401,-0.106893 0.178154,-0.07126 0.154401,-0.106892 0.225662,-0.142524 0.285047,-0.142523 0.225663,-0.154401 0.201908,-0.142524 0.249416,-0.118769 0.213786,-0.142524 c 0.855141,-0.486955 1.579636,-0.962034 3.052379,-1.935945 1.05705,-0.688864 2.327885,-1.567759 3.135519,-2.137853 5.285249,-3.776876 3.681859,-2.612936 5.107095,-3.658106 l 0.201908,-0.13065 c 0.332555,-0.22566 0.54634,-0.17815 0.772003,0.1544 l 0.641356,1.0333 1.199573,1.71028 c 0.510709,0.783883 0.510709,0.997668 0.04751,1.306469 -0.308801,0.201909 -0.593848,0.166278 -1.389605,-0.190031 a 4.211334,4.211334 0 0 0 -4.762663,0.237539 c -2.446654,1.615267 -2.612932,1.87656 -1.900314,2.957364 l 2.719825,4.121307 c 0.498832,0.760125 0.831387,0.867018 1.365851,0.510709 2.946081,-1.935945 3.242411,-2.38727 2.756049,-4.073798 -0.25001,-0.831388 -0.201908,-1.270836 0.166278,-1.508375 a 0.70074089,0.70074089 0 0 1 1.021419,0.332555 l 1.615267,2.743579 1.579636,2.173484 c 0.320678,0.486956 0.285047,0.878896 -0.07126,1.116435 -0.356309,0.237539 -0.724494,0.190031 -1.294589,-0.213786 -1.437112,-1.057049 -2.411023,-1.187696 -3.444319,-0.510709 l -0.498833,0.368186 c -1.805298,1.294589 -1.769667,1.235204 -1.212044,2.090346 z"
     id="path113609"
     inkscape:connector-curvature="0"
     style="fill:#344575;stroke-width:11.87696457" />
  <path
     d="m 96.464703,31.28392 c -0.54634,-1.24708 -0.308801,-1.81717 0.902649,-2.33976 a 3.8283019,3.8283019 0 0 1 4.928938,2.31601 3.9965984,3.9965984 0 0 1 -2.434775,5.52279 c -0.760126,0.32068 -0.926404,0.26129 -1.318343,-0.65324 z m -6.235406,-0.65323 -0.27317,0.0831 -0.225663,0.095 -0.249416,0.10689 -0.296924,0.095 -0.249416,0.11877 -0.178155,0.0594 a 2.1816795,2.1816795 0 0 0 -0.356309,0.13064 c -0.475078,0.20191 -0.640762,0.51071 -0.463201,0.93828 a 0.60905072,0.60905072 0 0 0 0.772002,0.30881 c 2.23287,-0.52259 2.446655,-0.4157 3.337427,1.65089 l 5.012079,11.663183 c 0.772003,1.793421 0.676987,2.375392 -0.451325,3.123641 -1.057049,0.724495 -1.128311,0.819511 -0.950157,1.21145 0.178155,0.427571 0.522587,0.522587 1.009542,0.308802 a 3.7469447,3.7469447 0 0 0 0.498833,-0.249417 l 0.249416,-0.106892 0.27317,-0.142524 0.261293,-0.11877 0.225663,-0.09501 c 1.223327,-0.593849 1.829054,-0.890773 2.660444,-1.247082 1.04517,-0.451324 1.72216,-0.736371 2.60165,-1.045172 l 0.26129,-0.11877 0.23754,-0.05939 0.22566,-0.106893 0.26129,-0.106892 c 0.71262,-0.27317 0.42757,-0.154401 0.89078,-0.320678 l 0.17815,-0.07126 c 0.48696,-0.213785 0.65323,-0.51071 0.4632,-0.93828 a 0.58945373,0.58945373 0 0 0 -0.76012,-0.308801 c -2.23287,0.522586 -2.44666,0.415693 -3.33743,-1.662775 l -2.090941,-4.857679 c -0.225662,-0.534463 -0.190032,-0.688864 0.261291,-0.878895 0.93828,-0.403817 1.41336,-0.213785 3.21866,1.306466 l 5.83159,4.952694 c 0.49883,0.463202 0.67699,0.486956 1.1877,0.261293 a 1.8373664,1.8373664 0 0 0 0.38006,-0.190031 c 0.29692,-0.166278 0.71262,-0.380063 1.21145,-0.629479 0.41569,-0.201909 0.72449,-0.344432 0.78388,-0.368186 l 2.81484,-1.033296 a 0.69218947,0.69218947 0 0 0 0.48695,-0.914526 c -0.1544,-0.344432 -0.40381,-0.475079 -0.9264,-0.344432 -1.10456,0.237539 -1.30646,0.1544 -2.67232,-0.973911 l -4.29946,-3.598718 a 3.9039581,3.9039581 0 0 0 -4.03816,-1.09269 c 3.28991,-1.98345 4.32321,-4.18069 3.21865,-6.75799 a 5.2930878,5.2930878 0 0 0 -7.636886,-2.36351 c -0.772002,0.33255 -1.888437,0.86701 -3.052379,1.43711 -1.484621,0.78388 -2.850472,1.42523 -3.645634,1.76967 -0.985788,0.42757 -1.496498,0.65323 -2.434778,0.98578 z"
     id="path113611"
     inkscape:connector-curvature="0"
     style="fill:#344575;stroke-width:11.87696457" />
  <path
     d="m 141.18147,22.25743 c 0.76013,-0.0831 0.86702,-0.24942 0.78388,-1.09268 l -0.54634,-5.34463 c -0.3088,-2.93361 -0.48695,-3.15928 -3.47995,-3.38494 -0.49883,-0.0713 -0.79575,-0.28505 -0.84326,-0.72449 -0.0594,-0.55822 0.27317,-0.8789 0.96203,-0.95016 a 3.2876624,3.2876624 0 0 1 0.47508,-0.0119 l 0.60573,-0.0594 h 0.36818 l 0.40382,-0.0356 0.32068,-0.0356 0.32067,0.0119 0.32068,-0.0356 c 1.17582,-0.0475 2.2204,-0.1544 3.83626,-0.3088 1.28271,-0.14252 2.19724,-0.27317 3.96691,-0.53446 l 0.32067,-0.0356 0.35631,-0.0356 0.40382,-0.0831 0.35631,-0.0356 a 5.6993988,5.6993988 0 0 1 0.71262,-0.1069 c 0.68946,-0.0713 1.0808,0.16628 1.14019,0.73638 0.0594,0.59384 -0.0594,0.68886 -1.67466,1.14018 -1.73403,0.49884 -2.03096,1.1877 -1.76966,3.75312 l 1.6984,16.52086 c 0.3088,2.93361 0.48696,3.15927 3.51558,3.37306 a 0.79706306,0.79706306 0 0 1 0.84327,0.72449 c 0.0594,0.55822 -0.27317,0.8789 -0.96204,0.95016 l -0.23754,0.0238 c -0.64135,0.0238 -0.72449,0.0356 -2.6248,0.1544 -0.96204,0.0594 -2.29226,0.1544 -3.25429,0.24941 -2.29226,0.23754 -2.25663,0.23754 -5.97412,0.772005 a 5.1465261,5.1465261 0 0 1 -0.67698,0.118769 c -0.68887,0.07126 -1.08081,-0.178154 -1.14019,-0.748244 -0.0594,-0.59385 0.0119,-0.68887 1.67465,-1.17582 1.68653,-0.49884 1.99533,-1.14019 1.72216,-3.71749 l -0.70074,-6.9124 c -0.17815,-1.2352 -0.21379,-1.27083 -0.90265,-1.19957 l -8.59892,0.8789 c -1.12831,0.11876 -1.15207,0.1544 -1.05705,1.19957 l 0.73578,7.1143 c 0.29692,2.93361 0.47508,3.12364 3.46878,3.38493 a 0.80763356,0.80763356 0 0 1 0.85514,0.7245 c 0.0475,0.558217 -0.28504,0.878895 -0.96203,0.950157 l -0.23754,0.02375 c -0.65323,0.02375 -0.68886,0.03563 -2.58918,0.142523 -1.04517,0.07126 -2.25662,0.154401 -3.46807,0.273171 -2.00721,0.201908 -2.16161,0.225662 -5.77221,0.760125 a 5.4144704,5.4144704 0 0 1 -0.71261,0.106893 c -0.68887,0.07126 -1.08081,-0.166278 -1.12832,-0.736372 -0.0713,-0.593848 0.0475,-0.688864 1.66278,-1.187696 1.69841,-0.498831 2.03096,-1.140181 1.76967,-3.705611 l -1.69853,-16.52086 c -0.29692,-2.93361 -0.48695,-3.15927 -3.51558,-3.37305 -0.53446,-0.0713 -0.79575,-0.28505 -0.84326,-0.77201 -0.0475,-0.47507 0.32068,-0.84326 0.96203,-0.90264 a 3.3990684,3.3990684 0 0 1 0.48696,-0.0119 l 0.23754,-0.0238 0.3563,-0.0356 h 0.4157 l 0.35631,-0.0356 0.32068,-0.0356 h 0.33255 l 0.35631,-0.0356 c 1.05705,-0.0594 2.29225,-0.1544 3.5037,-0.27317 2.00662,-0.21378 2.12598,-0.22566 5.73658,-0.74825 a 4.8066074,4.8066074 0 0 1 0.67699,-0.11877 c 0.67698,-0.0713 1.06892,0.17816 1.12831,0.73637 0.0594,0.60573 -0.0119,0.70074 -1.67466,1.15207 -1.68652,0.49883 -1.98345,1.17582 -1.72216,3.75312 l 0.54635,5.34463 c 0.0831,0.79576 0.3088,0.98579 1.15206,0.89078 z"
     id="path113613"
     inkscape:connector-curvature="0"
     style="fill:#344575;stroke-width:11.87696457" />
  <path
     d="m 165.69553,23.07694 a 2.1335778,2.1335778 0 0 1 1.97157,2.51792 c -0.17815,1.62714 -1.04517,1.87656 -5.0002,1.43711 -0.95016,-0.10689 -1.19957,-0.26129 -1.14019,-0.73637 a 3.9431521,3.9431521 0 0 1 4.16882,-3.21866 m 4.86955,6.10476 c 1.11644,0.11877 1.56776,-0.19003 1.66278,-1.0808 0.34443,-3.02863 -2.67232,-5.78408 -6.88864,-6.24729 a 8.7081901,8.7081901 0 0 0 -10.00041,7.20932 8.7978612,8.7978612 0 0 0 8.04071,9.477819 10.058601,10.058601 0 0 0 6.78175,-1.662779 c 0.65323,-0.43944 1.03329,-0.89077 1.06892,-1.2352 a 0.52626828,0.52626828 0 0 0 -0.48695,-0.57009 2.0221719,2.0221719 0 0 0 -1.00955,0.36818 5.5864489,5.5864489 0 0 1 -3.68185,0.95016 6.3422989,6.3422989 0 0 1 -5.15461,-7.4231 c 0.0831,-0.70075 0.2613,-0.84327 0.86702,-0.77201 z m -7.35184,-9.34717 c 0.10689,0.17815 0.14252,0.21379 0.23754,0.22566 a 1.3609813,1.3609813 0 0 0 0.59385,-0.20191 l 6.92427,-3.00487 c 0.40382,-0.14252 0.58197,-0.28505 0.60572,-0.47508 a 1.1488587,1.1488587 0 0 0 -0.11877,-0.40381 l -0.67698,-1.14019 c -0.19003,-0.3088 -0.19003,-0.34443 -0.35631,-0.35631 a 1.1346064,1.1346064 0 0 0 -0.64136,0.28505 l -6.35417,4.02629 c -0.48696,0.3088 -0.48696,0.27317 -0.49884,0.36818 0,0.0594 0,0.0594 0.13065,0.33256 z"
     id="path113615"
     inkscape:connector-curvature="0"
     style="fill:#344575;stroke-width:11.87696457" />
  <path
     d="m 176.04036,30.44066 c 0.45133,-1.76967 0.24942,-2.29225 -1.0808,-2.7317 -0.59385,-0.17816 -0.79576,-0.40382 -0.70074,-0.77201 0.10689,-0.43944 0.10689,-0.43944 1.91219,-0.49883 a 17.032873,17.032873 0 0 0 4.70328,-1.37773 c 0.74825,-0.36818 0.99766,-0.43944 1.30646,-0.3563 0.28505,0.0713 0.35631,0.28504 0.2613,0.66511 l -0.55822,2.17348 c -0.095,0.36819 -0.10689,0.53446 0.0238,0.55822 a 0.31034507,0.31034507 0 0 0 0.22566,-0.1069 6.424725,6.424725 0 0 1 4.96457,-1.27083 2.8301618,2.8301618 0 0 1 2.24475,3.26616 2.8555785,2.8555785 0 0 1 -5.40402,0.2613 c -0.40382,-0.76013 -0.57009,-1.00954 -0.85514,-1.08081 a 1.3518361,1.3518361 0 0 0 -1.23521,0.71262 9.2335082,9.2335082 0 0 0 -1.11643,3.05238 l -1.06893,4.13319 c -0.6176,2.399142 -0.59385,2.434773 1.21145,3.325545 0.49884,0.225662 0.67699,0.534463 0.58197,0.914526 -0.095,0.403817 -0.49954,0.534464 -1.17582,0.356309 a 5.4967778,5.4967778 0 0 1 -0.59384,-0.178154 c -1.4965,-0.463202 -2.86235,-0.843265 -3.59872,-1.033296 -0.66511,-0.166278 -2.12598,-0.51071 -3.57497,-0.819511 a 4.6807116,4.6807116 0 0 1 -0.59385,-0.118769 c -0.68886,-0.178155 -0.97391,-0.475079 -0.86702,-0.890773 0.095,-0.368185 0.40382,-0.54634 0.96204,-0.510709 1.99533,0.11877 2.04284,0.05939 2.64856,-2.327888 z"
     id="path113617"
     inkscape:connector-curvature="0"
     style="fill:#344575;stroke-width:11.87696457" />
  <path
     d="m 196.96757,40.963649 a 3.8892307,3.8892307 0 0 1 -1.3896,1.99533 3.2090369,3.2090369 0 0 1 -2.62481,0.154401 1.9095783,1.9095783 0 0 1 -0.8789,-2.589178 2.9427554,2.9427554 0 0 1 2.39915,-1.745914 14.056031,14.056031 0 0 1 3.26617,-0.344432 c 0.14252,0.05939 0.17756,0.249416 0.0594,0.510709 z m 1.75779,-4.240079 c -0.13064,0.32068 -0.13064,0.32068 -1.43711,0.36819 l -0.91453,0.0356 -0.96203,0.0594 -0.9264,0.0356 c -1.48462,0.0713 -2.62422,0.154396 -3.50371,0.249412 a 4.3282033,4.3282033 0 0 0 -3.89564,2.612932 3.3774523,3.3774523 0 0 0 1.97157,4.537 6.9242701,6.9242701 0 0 0 2.85048,0.486956 11.301406,11.301406 0 0 0 3.5037,-0.795757 0.334099,0.334099 0 0 1 0.23754,-0.01188 0.30416905,0.30416905 0 0 1 0.1544,0.308801 l 0.0713,1.068927 c 0.0238,0.190032 0.0594,0.368186 0.095,0.534464 a 2.6063998,2.6063998 0 0 0 1.57964,1.627144 5.9340876,5.9340876 0 0 0 4.1213,-0.05939 c 0.76013,-0.249416 1.19958,-0.546341 1.3421,-0.878896 a 0.49883249,0.49883249 0 0 0 -0.24942,-0.653233 0.51771687,0.51771687 0 0 0 -0.38006,-0.01188 c -1.25896,0.201909 -1.15206,0.178155 -1.44899,0.04751 -0.54634,-0.261293 -0.55822,-0.748248 -0.0594,-1.935945 l 3.24241,-7.815045 c 0.93828,-2.25662 -0.28504,-3.97878 -3.93127,-5.48716 a 10.98156,10.98156 0 0 0 -6.6511,-0.64135 5.5514118,5.5514118 0 0 0 -3.23054,2.09034 0.87889535,0.87889535 0 0 0 0.59385,1.15207 8.5782561,8.5782561 0 0 0 2.98112,0.43945 c 0.81951,-0.0475 1.17582,-0.23754 2.05471,-1.09268 1.10456,-1.06893 2.17349,-1.46087 3.08801,-1.08081 1.0333,0.42757 1.14019,1.3421 0.40382,3.12364 z"
     id="path113619"
     inkscape:connector-curvature="0"
     style="fill:#344575;stroke-width:11.87696457" />
  <path
     d="m 208.58324,40.369801 c 1.30647,-2.102222 1.30647,-2.173484 -0.1544,-3.527461 -0.40453,-0.36818 -0.48695,-0.72449 -0.28504,-1.05705 0.22625,-0.34443 0.64135,-0.35631 1.2352,0.0238 a 3.4597597,3.4597597 0 0 1 0.49883,0.34443 l 0.65324,0.40382 0.28504,0.21378 c 0.93828,0.617603 1.68653,1.128313 2.04284,1.342098 l 0.99767,0.629479 a 8.2584095,8.2584095 0 0 1 0.80763,0.463202 c 0.49883,0.296924 0.48696,0.380063 0,1.163942 l -4.8458,7.791289 c -1.15207,1.852806 -1.04458,3.278042 0.3088,4.121306 a 4.1203564,4.1203564 0 0 0 2.89798,0.403817 c 0.57009,-0.142524 0.79576,-0.332555 1.30647,-1.152066 l 3.40928,-5.47528 c 1.30646,-2.102223 1.30646,-2.173484 -0.1544,-3.527458 -0.44004,-0.39194 -0.52259,-0.736372 -0.32068,-1.068927 0.22566,-0.356309 0.64136,-0.356309 1.2352,0.01188 0.0594,0.03563 0.30881,0.190031 0.51071,0.344432 l 0.32068,0.213785 0.32068,0.225662 0.32068,0.201909 c 0.772,0.522586 1.37773,0.93828 1.43711,0.973911 0.43945,0.27317 0.84326,0.522586 1.75779,1.05705 l 0.73637,0.451324 c 0.38007,0.23754 0.40382,0.320678 0.0475,0.90265 l -5.38026,8.658307 c -1.0333,1.662774 -1.04458,1.924068 0.0713,2.802963 0.36818,0.308801 0.45132,0.54634 0.28504,0.819511 -0.22566,0.356309 -0.6176,0.332555 -1.78154,-0.11877 -1.00954,-0.368186 -2.25662,-0.724495 -3.66998,-1.080804 -1.10456,-0.225662 -1.22333,-0.261293 -1.42524,-0.39194 -0.29692,-0.178154 -0.3088,-0.344432 -0.0713,-0.724494 l 0.7245,-1.163943 c 0.19003,-0.308801 0.21378,-0.522586 0.0475,-0.617602 -0.16628,-0.106893 -0.0237,-0.09502 -1.33022,0 a 8.0295404,8.0295404 0 0 1 -4.82205,-1.033296 4.8127834,4.8127834 0 0 1 -1.33022,-7.280579 z"
     id="path113621"
     inkscape:connector-curvature="0"
     style="fill:#344575;stroke-width:11.87696457" />
  <path
     d="m 225.80484,61.142611 c -1.56776,1.912192 -1.55588,1.9597 -0.3088,3.515582 0.36819,0.427571 0.40382,0.783879 0.1544,1.080804 -0.26129,0.320678 -0.67699,0.27317 -1.22332,-0.166278 -0.0713,-0.07126 -0.29693,-0.249416 -0.45133,-0.415694 -1.19957,-1.057049 -2.24475,-1.959699 -2.92173,-2.506039 -0.43945,-0.368186 -1.68653,-1.33022 -2.81484,-2.173485 a 5.3535416,5.3535416 0 0 1 -0.49884,-0.368185 c -0.54634,-0.439448 -0.67698,-0.843265 -0.41569,-1.163943 0.24942,-0.296924 0.60572,-0.332555 1.09268,-0.05938 1.75779,0.93828 1.82905,0.90265 3.38494,-1.009542 l 9.16901,-11.235608 c 1.15207,-1.413358 1.14019,-1.710283 0,-3.099887 -0.28505,-0.320678 -0.3088,-0.581972 -0.0831,-0.855142 0.28505,-0.344432 0.65323,-0.249416 1.84093,0.427571 a 17.956426,17.956426 0 0 0 4.83393,1.99533 0.99766499,0.99766499 0 0 1 0.45132,0.201908 c 0.27317,0.225663 0.22566,0.593848 -0.14252,1.045173 z"
     id="path113623"
     inkscape:connector-curvature="0"
     style="fill:#344575;stroke-width:11.87696457" />
  <path
     d="m 235.18764,58.090232 c 0.76013,-0.78388 0.8308,-1.033296 0.46249,-1.389605 l -0.76012,-0.736372 c -0.4157,-0.403817 -0.53447,-0.748249 -0.3088,-0.973911 0.22566,-0.237539 0.65323,-0.166277 1.3896,0.142524 a 8.9156807,8.9156807 0 0 0 5.90285,0.510709 c 0.95016,-0.285047 1.33022,-0.261293 1.62715,0.02375 0.36818,0.356309 0.35631,0.605725 -0.095,1.068927 l -1.86468,1.912191 c -0.55822,0.570094 -0.6176,0.914526 -0.17816,1.33022 l 1.79342,1.757791 c 0.49884,0.486955 0.49884,0.629479 0.0594,1.080803 -0.49883,0.51071 -0.74825,0.534464 -1.16394,0.130647 l -1.62715,-1.591513 c -0.51071,-0.486956 -0.73637,-0.486956 -1.24708,0.03563 l -4.57263,4.691401 c -2.10222,2.161607 -2.58918,3.337426 -1.73404,4.168814 a 2.5751634,2.5751634 0 0 0 1.28272,0.570094 c 0.83138,0.154401 0.90264,0.178155 1.04517,0.308801 a 0.48790569,0.48790569 0 0 1 0,0.641356 2.9079559,2.9079559 0 0 1 -1.9597,0.356309 6.8055005,6.8055005 0 0 1 -4.13318,-1.829052 c -1.97158,-1.924068 -1.84093,-4.073799 0.39194,-6.37793 z"
     id="path113625"
     inkscape:connector-curvature="0"
     style="fill:#344575;stroke-width:11.87696457" />
  <path
     d="m 265.11759,81.606621 c -0.60572,0.415693 -1.05705,0.380063 -1.40148,-0.11877 -0.32068,-0.463202 -0.23754,-0.914526 0.34443,-1.650898 2.05472,-2.719825 2.39915,-4.81017 1.08081,-6.746116 a 4.4853355,4.4853355 0 0 0 -5.96224,-1.864683 3.5019229,3.5019229 0 0 0 -1.2352,3.931275 c 0.0831,0.332555 0.14252,0.629479 0.21307,0.973911 l 0.32068,1.104558 0.34443,1.080804 0.29692,1.068926 a 8.8212588,8.8212588 0 0 1 -2.69607,10.629883 10.408378,10.408378 0 0 1 -14.54928,-3.931275 16.067988,16.067988 0 0 1 -2.92173,-7.826919 c 0.0356,-0.368186 0.19003,-0.570094 0.86702,-1.080804 a 12.233273,12.233273 0 0 1 1.31834,-0.93828 c 0.67699,-0.51071 1.06893,-0.78388 1.24708,-0.902649 1.56776,-1.068927 2.07847,-1.17582 2.51792,-0.546341 a 1.1935161,1.1935161 0 0 1 -0.1544,1.377728 c -0.095,0.213785 0.33255,-0.380063 -1.41336,1.793422 a 5.4667291,5.4667291 0 0 0 0.0119,7.126178 5.173368,5.173368 0 0 0 7.09054,2.304131 4.2837834,4.2837834 0 0 0 1.75779,-4.513246 c -0.0831,-0.629479 -0.21378,-1.318343 -0.74824,-3.99066 -1.23521,-5.902851 -0.68887,-8.7652 2.04283,-10.629883 a 10.274999,10.274999 0 0 1 13.52787,4.430108 14.489896,14.489896 0 0 1 2.20911,5.344634 c 0.0475,0.558217 -0.13065,0.867018 -0.772,1.306466 z"
     id="path113627"
     inkscape:connector-curvature="0"
     style="fill:#344575;stroke-width:11.87696457" />
  <path
     d="m 261.88706,97.616768 a 2.5891782,2.5891782 0 0 1 1.67465,-0.356309 2.9756546,2.9756546 0 0 1 1.86468,1.662775 c 0.93829,2.102226 -0.85514,4.940816 -4.01441,6.354176 -3.49183,1.54401 -6.61547,1.00954 -7.63689,-1.27084 -0.70074,-1.59151 -0.0237,-2.76733 2.13857,-3.72936 z m -10.42797,4.643892 c 0.46248,-0.21378 0.65323,-0.19003 0.77129,0.0713 a 0.98174986,0.98174986 0 0 1 0.0713,0.24942 9.8678569,9.8678569 0 0 0 0.83138,3.11176 8.4487972,8.4487972 0 0 0 11.24749,4.29946 7.5472169,7.5472169 0 0 0 4.20444,-9.88163 4.7705014,4.7705014 0 0 0 -1.86468,-2.292255 c -1.99533,-1.258958 -1.90031,-1.199574 -1.9597,-1.342097 -0.095,-0.201909 0.0356,-0.368186 0.48696,-0.570094 l 1.60339,-0.712618 c 0.35631,-0.154401 0.47508,-0.356309 0.34443,-0.653233 -0.11877,-0.261294 -0.23754,-0.308801 -1.24708,-0.66511 a 9.579603,9.579603 0 0 1 -3.70561,-2.957364 c -1.25896,-1.579637 -1.21145,-1.532129 -1.6509,-1.33022 a 0.55667331,0.55667331 0 0 0 -0.2613,0.748248 c 0.60573,1.900315 0.51071,2.090346 -1.42523,2.945487 l -12.36392,5.510912 c -1.84093,0.81951 -2.47041,0.760126 -3.24241,-0.415694 -0.772,-1.092681 -0.83139,-1.175819 -1.27084,-0.973911 -0.44004,0.190031 -0.53446,0.54634 -0.3088,1.045173 a 4.0957711,4.0957711 0 0 0 0.2613,0.522586 l 0.11876,0.261294 0.16628,0.27317 0.10689,0.27317 0.1069,0.225666 c 0.66511,1.33022 0.93887,1.86468 1.34209,2.77921 0.36819,0.81951 0.68887,1.62714 1.00955,2.4229 l 0.11877,0.27317 0.0831,0.24941 0.1069,0.22566 0.10689,0.2613 0.10689,0.3088 0.11877,0.27317 0.0831,0.16628 a 3.198704,3.198704 0 0 0 0.11818,0.36818 c 0.22566,0.49884 0.54634,0.66511 0.98579,0.47508 a 0.63019172,0.63019172 0 0 0 0.3088,-0.80763 c -0.5701,-2.31601 -0.46321,-2.5298 1.67465,-3.49183 z"
     id="path113629"
     inkscape:connector-curvature="0"
     style="fill:#344575;stroke-width:11.87696457" />
  <path
     d="m 274.04907,118.73401 c 0.60573,2.45853 -2.16161,5.13085 -6.46107,6.19978 -3.89564,0.96203 -6.82925,0.16627 -7.37559,-2.00721 -0.59385,-2.39915 2.43478,-5.23774 6.79362,-6.31855 3.51558,-0.86701 6.52045,0.0356 7.04304,2.12598 m 1.28271,0.23754 a 9.0839773,9.0839773 0 0 0 -10.73677,-7.44686 8.7414456,8.7414456 0 0 0 -5.68907,11.06933 9.1927703,9.1927703 0 0 0 10.78429,7.49437 8.8364613,8.8364613 0 0 0 5.64155,-11.11684"
     id="path113631"
     inkscape:connector-curvature="0"
     style="fill:#344575;stroke-width:11.87696457" />
  <path
     d="m 271.29362,134.11468 c 1.81717,-0.16628 2.23286,-0.52259 2.20911,-1.93595 -0.0237,-0.6176 0.10689,-0.89077 0.49883,-0.9264 0.43945,-0.0356 0.43945,-0.0356 1.11644,1.63902 a 16.043403,16.043403 0 0 0 2.87422,3.95503 c 0.59385,0.59385 0.74825,0.80763 0.77201,1.12831 0.0356,0.28505 -0.1544,0.42757 -0.53447,0.4632 l -2.23287,0.20191 c -0.39194,0.0356 -0.54634,0.0831 -0.53446,0.21379 0,0.0356 0.0713,0.11877 0.17815,0.17815 a 6.4192616,6.4192616 0 0 1 2.87423,4.25196 2.6960709,2.6960709 0 1 1 -4.3826,-1.79343 c 0.58197,-0.62948 0.74825,-0.87889 0.72449,-1.16394 -0.0356,-0.38006 -0.48695,-0.76012 -1.0808,-0.9264 a 8.8439438,8.8439438 0 0 0 -3.25429,-0.0238 l -4.25195,0.38007 c -2.45853,0.22566 -2.49416,0.26129 -2.71983,2.24474 -0.0475,0.55822 -0.28504,0.83139 -0.66511,0.86702 -0.41569,0.0475 -0.67698,-0.28505 -0.73637,-0.99766 a 4.1069354,4.1069354 0 0 1 -0.0237,-0.60573 c -0.0831,-1.56776 -0.17816,-2.96924 -0.24942,-3.74124 -0.0594,-0.67699 -0.22566,-2.17349 -0.42757,-3.63435 a 4.1986256,4.1986256 0 0 1 -0.0831,-0.60573 c -0.0713,-0.70074 0.11877,-1.0808 0.53447,-1.11643 0.39194,-0.0356 0.66511,0.20191 0.80763,0.73637 0.57009,1.91219 0.62948,1.93594 3.08801,1.71028 z"
     id="path113633"
     inkscape:connector-curvature="0"
     style="fill:#344575;stroke-width:11.87696457" />
  <path
     d="m 275.33178,150.26735 c 1.09268,0.0238 1.31835,-0.095 1.33022,-0.60573 l 0.0356,-1.05704 c 0.0119,-0.58198 0.17756,-0.89078 0.49884,-0.89078 0.32067,0.0119 0.57009,0.36819 0.84326,1.11644 a 8.8546331,8.8546331 0 0 0 3.62247,4.6914 c 0.85515,0.49883 1.10456,0.79575 1.09269,1.21145 -0.0119,0.52258 -0.21379,0.66511 -0.85515,0.65323 l -2.66044,-0.0713 c -0.79575,-0.0237 -1.09268,0.16628 -1.11643,0.772 l -0.0594,2.50604 c -0.0238,0.70074 -0.11876,0.79576 -0.76012,0.77201 -0.71262,-0.0119 -0.89077,-0.17816 -0.8789,-0.76013 l 0.0594,-2.2685 c 0.0238,-0.71262 -0.14252,-0.87889 -0.8789,-0.89077 l -6.53233,-0.17816 c -3.01675,-0.0831 -4.21632,0.35631 -4.25195,1.55589 a 2.6410805,2.6410805 0 0 0 0.45132,1.31834 c 0.46321,0.72449 0.48696,0.78388 0.47508,0.97391 a 0.46557699,0.46557699 0 0 1 -0.45132,0.43945 2.8248172,2.8248172 0 0 1 -1.60339,-1.19957 6.8560963,6.8560963 0 0 1 -1.46087,-4.27571 c 0.0713,-2.75546 1.74592,-4.12131 4.9527,-4.03817 z"
     id="path113635"
     inkscape:connector-curvature="0"
     style="fill:#344575;stroke-width:11.87696457" />
  <path
     d="m 259.17911,191.95549 a 2.2959359,2.2959359 0 0 1 -1.81717,-1.72216 16.463966,16.463966 0 0 1 0.10689,-8.68206 21.507994,21.507994 0 0 1 4.59638,-8.95523 13.821461,13.821461 0 0 1 13.12405,-3.89564 15.916557,15.916557 0 0 1 9.51345,20.66592 25.267291,25.267291 0 0 1 -2.7317,6.3898 1.2146571,1.2146571 0 0 1 -1.24709,0.67699 l -3.3493,-0.3088 c -0.32068,-0.0475 -0.52259,-0.0594 -0.64136,-0.0831 a 0.89207878,0.89207878 0 0 1 -0.6176,-1.0333 c 0.13065,-0.47508 0.58197,-0.80763 1.60339,-1.21145 3.36118,-1.22332 4.63202,-2.44665 5.32088,-5.14272 1.38961,-5.40402 -2.5773,-10.54675 -9.54908,-12.34017 a 10.95258,10.95258 0 0 0 -14.41863,6.15227 c -0.78388,3.0405 0.21378,5.47528 3.52746,8.49203 0.58197,0.52258 0.74825,0.85514 0.62948,1.28271 -0.14253,0.59385 -0.65324,0.79576 -1.27084,0.59385 z"
     id="path113637"
     inkscape:connector-curvature="0"
     style="fill:#344575;stroke-width:11.87696457" />
  <path
     d="m 256.0911,198.93915 c -2.2685,-0.98579 -2.30413,-0.97391 -3.46807,0.65323 -0.3088,0.4632 -0.65324,0.59385 -0.99767,0.45133 -0.38006,-0.17816 -0.45132,-0.58197 -0.16627,-1.23521 a 5.6128157,5.6128157 0 0 1 0.27317,-0.54634 c 0.70074,-1.43711 1.27083,-2.69607 1.62714,-3.49183 0.22566,-0.52258 0.81951,-1.98345 1.33022,-3.30179 0.0594,-0.21379 0.17815,-0.47508 0.21378,-0.5701 0.27317,-0.64135 0.62948,-0.87889 1.00955,-0.71261 0.35631,0.1544 0.48636,0.48695 0.35631,1.03329 -0.42758,1.94782 -0.38007,1.99533 1.87656,2.98112 l 13.3022,5.79596 c 1.67465,0.72449 1.95969,0.64135 2.98111,-0.84326 0.22567,-0.35631 0.48696,-0.45133 0.80764,-0.30881 0.40381,0.17816 0.41569,0.5701 0.0831,1.88844 a 17.874831,17.874831 0 0 0 -0.61761,5.19023 1.1684557,1.1684557 0 0 1 -0.0713,0.49884 c -0.14252,0.32067 -0.51071,0.36818 -1.04517,0.14252 z"
     id="path113639"
     inkscape:connector-curvature="0"
     style="fill:#344575;stroke-width:11.87696457" />
  <path
     d="m 260.48558,206.89672 c 2.1141,1.27083 2.19724,1.27083 3.52746,-0.20191 0.36818,-0.42757 0.71261,-0.51071 1.04517,-0.3088 0.35631,0.21378 0.36818,0.62947 0,1.2352 a 3.5108306,3.5108306 0 0 1 -0.33256,0.51071 l -0.40381,0.65323 -0.20191,0.28505 c -0.60573,0.95016 -1.09268,1.71028 -1.30647,2.06659 l -0.6176,1.00954 c -0.1544,0.32068 -0.41569,0.76013 -0.45132,0.81951 -0.29693,0.48696 -0.36819,0.48696 -1.16395,0.0119 l -7.86314,-4.72703 c -1.87597,-1.11643 -3.28992,-0.99766 -4.12131,0.38006 a 4.1154868,4.1154868 0 0 0 -0.34443,2.89798 c 0.14252,0.5701 0.33256,0.79576 1.16394,1.29459 l 5.52279,3.31368 c 2.1141,1.27083 2.19724,1.28271 3.52746,-0.20191 0.38066,-0.45133 0.73637,-0.53447 1.06893,-0.33256 0.35631,0.21379 0.36818,0.62948 0,1.23521 a 4.1944687,4.1944687 0 0 1 -0.34444,0.51071 l -0.19003,0.32067 -0.22566,0.32068 -0.20191,0.33256 c -0.49883,0.772 -0.91452,1.3896 -0.95015,1.44899 -0.2613,0.43944 -0.51071,0.85514 -1.02142,1.76966 l -0.45133,0.74825 c -0.22566,0.38007 -0.32068,0.40382 -0.89077,0.0594 l -8.75332,-5.24961 c -1.67465,-0.99767 -1.93595,-1.00955 -2.80297,0.11876 -0.29692,0.38007 -0.53446,0.46321 -0.80763,0.29693 -0.35631,-0.21379 -0.34443,-0.6176 0.095,-1.76967 0.34443,-1.03329 0.68886,-2.28038 1.00954,-3.70561 a 4.4050472,4.4050472 0 0 1 0.36747,-1.41336 c 0.19003,-0.3088 0.34443,-0.32068 0.7245,-0.095 l 1.18769,0.71262 c 0.3088,0.17815 0.52259,0.20191 0.6176,0.0356 0.095,-0.16628 0.0831,-0.0238 -0.0238,-1.33022 a 7.9430761,7.9430761 0 0 1 0.96263,-4.8458 4.8085077,4.8085077 0 0 1 7.25682,-1.43712 z"
     id="path113641"
     inkscape:connector-curvature="0"
     style="fill:#344575;stroke-width:11.87696457" />
  <path
     d="m 245.98309,229.3323 c 0.67699,0.59385 0.7245,0.62948 0.74884,0.95016 a 2.8415637,2.8415637 0 0 1 -0.78388,1.98345 c -1.6984,1.97158 -5.17835,1.62714 -7.92193,-0.73637 -2.76733,-2.39915 -3.68186,-5.65344 -2.06659,-7.51812 a 2.4979631,2.4979631 0 0 1 2.00721,-0.90265 c 0.70074,0.0238 1.15206,0.28505 2.7792,1.68653 z m 8.32575,7.19744 c 0.83068,0.71262 1.00955,0.79576 1.30647,0.40382 0.19003,-0.21379 0.21379,-0.35631 0.60573,-1.3421 a 14.980059,14.980059 0 0 1 1.86468,-4.02629 c 0.59385,-0.9264 0.70074,-1.3421 0.40382,-1.59151 -0.23754,-0.21379 -0.51071,-0.19003 -0.89078,0.1544 -1.25896,1.11643 -1.48462,1.12831 -2.76733,0.0238 l -12.74398,-11.02182 a 13.232245,13.232245 0 0 1 -1.37773,-1.30647 c -0.16628,-0.19003 -0.32068,-0.36818 -0.41569,-0.45132 a 0.6216403,0.6216403 0 0 0 -0.89018,0 c -0.16628,0.19003 -0.14253,0.4632 0.0475,0.9264 0.49883,1.2352 0.60572,1.66278 0.42757,1.85281 a 0.72116926,0.72116926 0 0 1 -0.29693,0.20191 8.8475069,8.8475069 0 0 0 -4.54888,2.90985 9.1086814,9.1086814 0 0 0 0.0356,13.00528 7.6028011,7.6028011 0 0 0 10.93869,-0.67699 c 0.71262,-0.83139 0.71262,-0.83139 1.28271,-2.71982 0.20191,-0.66511 0.36819,-1.16395 0.38006,-1.27084 a 0.94398111,0.94398111 0 0 1 0.15441,-0.42757 c 0.13064,-0.14252 0.13064,-0.14252 0.64135,0.29692 z"
     id="path113643"
     inkscape:connector-curvature="0"
     style="fill:#344575;stroke-width:11.87696457" />
  <path
     d="m 123.99551,280.09445 c -0.66511,2.61293 -0.45133,3.11176 1.57963,3.59872 1.25896,0.32067 1.71029,0.71261 1.54329,1.24708 -0.16627,0.51071 -0.65323,0.66511 -1.49649,0.45132 -0.11877,-0.0356 -0.5701,-0.19003 -0.91453,-0.3088 -1.75779,-0.6176 -3.57497,-1.1877 -5.38026,-1.6509 -1.61586,-0.41569 -3.01675,-0.70074 -4.32322,-0.93828 -0.33255,-0.0475 -0.70074,-0.10689 -0.83139,-0.14252 -0.772,-0.20191 -1.03329,-0.49883 -0.90265,-0.98579 0.14253,-0.58197 0.61761,-0.70074 1.55589,-0.4632 2.54167,0.68886 3.21865,0.41569 3.68186,-1.38961 l 3.38493,-13.18343 c 0.41569,-1.60339 0.35631,-1.82905 -0.27317,-2.01908 a 1.180689,1.180689 0 0 0 -0.49883,-0.0594 l -2.39915,0.10689 a 6.0433557,6.0433557 0 0 1 -1.29459,-0.0594 0.67235494,0.67235494 0 0 1 -0.57009,-0.83138 c 0.14252,-0.58198 0.70074,-0.71262 2.58918,-0.71262 a 33.72749,33.72749 0 0 0 7.91005,-0.58197 1.348748,1.348748 0 0 1 0.62948,-0.0475 c 0.4157,0.10689 0.49884,0.43945 0.29693,1.24708 z"
     id="path113645"
     inkscape:connector-curvature="0"
     style="fill:#344575;stroke-width:11.87696457" />
  <path
     d="m 136.20502,269.69023 c -0.39193,3.87189 1.40149,7.66064 3.75313,7.89818 a 2.7198248,2.7198248 0 0 0 0.98578,-0.1069 1.8905752,1.8905752 0 0 1 0.33256,-0.0237 0.52258642,0.52258642 0 0 1 0.38006,0.53446 c -0.0831,0.90265 -2.1141,1.4965 -4.33509,1.27084 a 6.9321089,6.9321089 0 0 1 -5.89097,-7.61314 8.3859681,8.3859681 0 0 1 9.19277,-7.30433 9.3810201,9.3810201 0 0 1 8.11196,10.71302 17.290722,17.290722 0 0 1 -11.0337,13.37346 31.876584,31.876584 0 0 1 -5.85534,1.74592 3.1988228,3.1988228 0 0 1 -0.91453,0.0831 0.67164232,0.67164232 0 0 1 -0.6176,-0.76013 c 0.0356,-0.40382 0.28505,-0.54634 1.37773,-0.80763 a 16.004922,16.004922 0 0 0 11.79382,-13.62289 c 0.48696,-4.79829 -1.31834,-9.19277 -3.86001,-9.45406 -1.79342,-0.17816 -3.15927,1.46086 -3.42057,4.0738"
     id="path113647"
     inkscape:connector-curvature="0"
     style="fill:#344575;stroke-width:11.87696457" />
  <path
     d="m 163.09447,273.47898 c 0.10689,-0.3088 0.47508,-1.50838 0.68887,-2.25663 a 2.3984341,2.3984341 0 0 0 0.1544,-0.95015 c -0.0237,-0.29693 -0.16628,-0.39194 -0.59385,-0.35631 l -9.41844,0.76012 c -0.89077,0.0713 -1.52025,0.1544 -1.75779,0.17816 -0.41569,0.095 -0.78388,0.1544 -0.95015,0.17815 -0.42757,0.0238 -0.62948,-0.32068 -0.68887,-1.18769 -0.0119,-0.0594 -0.0594,-0.70075 -0.16627,-1.59152 -0.0594,-0.29692 -0.11877,-1.11643 -0.1544,-1.52025 -0.1069,-1.25896 -0.0713,-1.33022 0.52258,-1.37773 a 7.1434001,7.1434001 0 0 1 0.97391,0.0238 24.77416,24.77416 0 0 0 4.50137,0.0119 l 11.3425,-0.91452 c 0.83139,-0.0713 0.92581,-0.0356 0.95016,0.26129 0.0243,0.29693 0.0594,0.22566 -0.60573,1.91219 a 3.9066898,3.9066898 0 0 0 -0.22625,0.55822 l -0.90265,2.13785 -0.85514,2.13786 -0.86761,2.13785 c -0.92581,2.20912 -2.2685,5.81971 -3.9194,10.55862 -0.58197,1.61527 -1.00954,2.8861 -1.24708,3.63435 -0.45133,1.44899 -0.48696,1.48462 -0.98579,1.52025 l -0.39194,0.0356 -0.23754,-0.0238 c -0.62948,0.0594 -0.70074,0.0594 -0.74825,-0.20191 -0.0119,-0.0356 -0.0119,-0.0713 0.0238,-0.16628 a 2.2953421,2.2953421 0 0 1 0.0831,-0.5107 z"
     id="path113649"
     inkscape:connector-curvature="0"
     style="fill:#344575;stroke-width:11.87696457" />
  <path
     d="m 184.82932,279.35807 c 0.42697,1.71029 0.65323,1.82906 2.80296,1.60339 a 0.66285337,0.66285337 0 0 1 0.772,0.52259 c 0.13065,0.52259 -0.26129,0.89077 -1.12831,1.10456 l -5.3571,1.09268 c -0.19004,0.0475 -1.14019,0.34443 -2.54167,0.79576 -0.35631,0.0831 -0.83139,0.23753 -0.98579,0.28504 -0.77201,0.19003 -1.11644,0.0713 -1.24708,-0.45132 -0.14253,-0.58197 0.0594,-0.73637 1.50837,-1.25896 1.0333,-0.36819 1.33022,-0.98579 1.0333,-2.18536 l -0.62948,-2.54167 c -0.23754,-0.97391 -0.28505,-0.99767 -1.22333,-0.76013 l -6.99553,1.73404 c -1.29459,0.32068 -1.21145,0.36818 -1.57964,-1.0808 a 1.8202635,1.8202635 0 0 1 0.22566,-1.16395 l 7.76813,-18.33803 c 0.33256,-0.83139 0.51071,-0.95016 1.84093,-1.27083 0.24942,-0.0713 0.51071,-0.0238 0.5701,0.095 0.0594,0.11877 -0.14253,0.54634 -0.96204,2.18536 -1.40148,2.81484 -2.58918,5.34464 -3.53933,7.60126 l -2.8386,6.76987 a 19.456486,19.456486 0 0 0 -0.95015,2.29225 c -0.11818,0.33256 -0.14253,0.38007 -0.11818,0.47508 0.0475,0.1544 0.22566,0.17816 0.772,0.0475 l 5.22587,-1.29459 c 0.99766,-0.24942 1.04458,-0.33255 0.80763,-1.30647 l -1.1877,-4.81017 c -0.26129,-1.05705 -0.24941,-1.12831 0.21379,-1.48462 a 0.5883848,0.5883848 0 0 1 0.17815,-0.11877 30.809795,30.809795 0 0 1 2.98112,-1.79342 c 0.33256,-0.1544 0.5701,-0.32068 0.7245,-0.39194 a 0.51332239,0.51332239 0 0 1 0.19003,-0.0831 c 0.19003,-0.0475 0.27317,0.0356 0.36818,0.39194 l 1.74592,7.07867 c 0.22566,0.86702 0.34443,0.93828 1.11643,0.74825 l 2.10222,-0.52258 c 0.64136,-0.1544 0.64136,-0.1544 0.89078,0.87889 0.20191,0.80764 0.14252,0.96204 -0.53447,1.12831 l -2.03096,0.49884 c -0.71262,0.17815 -0.78388,0.29692 -0.59385,1.06892 z"
     id="path113651"
     inkscape:connector-curvature="0"
     style="fill:#344575;stroke-width:11.87696457" />
  <path
     style="fill:#344575;stroke-width:11.87696457"
     d="m 97.14169,262.31463 -13.290323,-0.10689 -6.567961,-11.54441 13.278446,0.10689 z"
     id="polygon113653"
     inkscape:connector-curvature="0" />
  <path
     style="fill:#344575;stroke-width:11.87696457"
     d="m 201.6946,262.31463 13.29033,-0.10689 6.56796,-11.54441 -13.27845,0.10689 z"
     id="polygon113655"
     inkscape:connector-curvature="0" />
</svg>
