<svg xmlns="http://www.w3.org/2000/svg" width="399.73" height="96" viewBox="0 0 299.798 72"><path d="M50.57 69.1c-3.905 3.79-8.214 3.2-12.32 1.413-4.367-1.823-8.36-1.938-12.97 0-5.743 2.479-8.791 1.758-12.25-1.412-19.527-20.104-16.645-50.727 5.548-51.88 5.383.288 9.151 2.976 12.322 3.2 4.712-.959 9.223-3.704 14.267-3.344 6.06.49 10.592 2.882 13.618 7.184-12.466 7.494-9.511 23.922 1.938 28.534-2.291 6.016-5.231 11.96-10.16 16.356zM30.468 17.006C29.884 8.07 37.125.72 45.455 0c1.145 10.304-9.367 18.014-14.988 17.005Z" style="stroke-width:.072055"/><path d="M70.521 70.96h9.357V22.109h.321l19.954 48.85h7.614l19.953-48.85h.321v48.85h9.358V4.77h-11.835l-21.466 52.842h-.276L82.402 4.77H70.52Z" style="font-style:normal;font-variant:normal;font-weight:500;font-stretch:normal;font-size:89.13px;line-height:1.25;font-family:&quot;SF Pro Display&quot;;-inkscape-font-specification:&quot;SF Pro Display Medium&quot;;letter-spacing:0;word-spacing:0;stroke-width:2.18467"/><path d="M163.29 72c7.339 0 12.247-3.349 14.77-8.211h.23v7.248h9.953V22.78h-9.954v28.165c0 7.523-4.495 12.523-11.468 12.523-6.88 0-10.275-4.037-10.275-11.33V22.78h-9.908v31.284c0 11.101 6.055 17.936 16.651 17.936z" style="font-style:normal;font-variant:normal;font-weight:500;font-stretch:normal;font-size:89.13px;line-height:1.25;font-family:&quot;SF Pro Display&quot;;-inkscape-font-specification:&quot;SF Pro Display Medium&quot;;letter-spacing:0;word-spacing:0;stroke-width:2.18477"/><path d="M214.185 72c11.355 0 19.596-6.044 19.596-14.834v-.046c0-6.913-3.755-10.805-13.598-13.094l-7.83-1.786c-5.173-1.236-7.142-3.25-7.142-6.226v-.046c0-3.846 3.343-6.364 8.654-6.364 5.585 0 8.882 2.93 9.477 7.142l.046.32h9.294l-.046-.549c-.504-8.195-7.371-14.56-18.771-14.56-11.08 0-18.589 5.907-18.589 14.514v.046c0 7.005 4.533 11.4 13.69 13.507l7.875 1.785c5.173 1.236 6.913 3.022 6.913 6.135v.046c0 3.892-3.571 6.364-9.523 6.364-6.09 0-9.386-2.61-10.302-7.05l-.091-.459h-9.798l.046.412c1.007 8.791 8.058 14.743 20.1 14.743z" style="font-style:normal;font-variant:normal;font-weight:500;font-stretch:normal;font-size:89.13px;line-height:1.25;font-family:&quot;SF Pro Display&quot;;-inkscape-font-specification:&quot;SF Pro Display Medium&quot;;letter-spacing:0;word-spacing:0;stroke-width:2.18061"/><path d="M245.206 15.04c3.266 0 5.796-2.575 5.796-5.704 0-3.174-2.53-5.75-5.796-5.75-3.22 0-5.797 2.576-5.797 5.75 0 3.129 2.576 5.705 5.797 5.705zm-4.969 55.85h9.937V22.495h-9.937z" style="font-style:normal;font-variant:normal;font-weight:500;font-stretch:normal;font-size:89.13px;line-height:1.25;font-family:&quot;SF Pro Display&quot;;-inkscape-font-specification:&quot;SF Pro Display Medium&quot;;letter-spacing:0;word-spacing:0;stroke-width:2.19111"/><path d="M279.052 72c11.586 0 19.647-7.42 20.7-17.082l.046-.32h-9.526l-.046.366c-1.19 5.22-5.083 8.747-11.174 8.747-7.648 0-12.732-6.183-12.732-16.716v-.046c0-10.304 4.992-16.716 12.686-16.716 6.457 0 10.121 3.985 11.174 8.702l.092.366h9.434l-.046-.32c-.824-9.068-8.335-17.037-20.746-17.037-13.739 0-22.715 9.663-22.715 24.914v.045C256.2 62.337 264.992 72 279.052 72z" style="font-style:normal;font-variant:normal;font-weight:500;font-stretch:normal;font-size:89.13px;line-height:1.25;font-family:&quot;SF Pro Display&quot;;-inkscape-font-specification:&quot;SF Pro Display Medium&quot;;letter-spacing:0;word-spacing:0;stroke-width:2.1812"/></svg>