<?xml version="1.0" encoding="UTF-8" standalone="no"?>
<!-- Generator: Gravit.io -->
<svg xmlns="http://www.w3.org/2000/svg" xmlns:xlink="http://www.w3.org/1999/xlink" style="isolation:isolate" viewBox="0 0 64 64" width="64pt" height="64pt"><defs><clipPath id="_clipPath_voeSOLOZSSSpKiAbwVz9XhRTQGra9F5I"><rect width="64" height="64"/></clipPath></defs><g clip-path="url(#_clipPath_voeSOLOZSSSpKiAbwVz9XhRTQGra9F5I)"><path d=" M 12.185 26.019 C 8.704 26.019 6.377 28.04 6.377 31.975 L 6.377 34.776 C 6.722 34.608 7.097 34.52 7.501 34.52 C 7.905 34.52 8.29 34.618 8.635 34.786 L 8.635 31.975 C 8.635 29.431 10.036 28.119 12.185 28.119 C 14.335 28.119 15.736 29.431 15.736 31.975 L 15.736 38.1 L 17.994 38.1 L 17.994 31.975 C 17.994 28.021 15.657 26.019 12.185 26.019 L 12.185 26.019 Z " fill="rgb(0,0,0)"/><path d=" M 19.227 32.212 C 19.227 28.642 21.85 26.019 25.558 26.019 C 29.266 26.019 31.85 28.642 31.85 32.212 L 31.85 33.05 L 21.604 33.05 C 21.939 35.151 23.507 36.315 25.558 36.315 C 27.087 36.315 28.152 35.841 28.842 34.816 L 31.347 34.816 C 30.44 37.005 28.3 38.415 25.558 38.415 C 21.84 38.405 19.227 35.792 19.227 32.212 L 19.227 32.212 Z  M 29.464 31.029 C 29.01 29.145 27.462 28.119 25.558 28.119 C 23.655 28.119 22.126 29.165 21.673 31.029 L 29.464 31.029 Z " fill="rgb(0,0,0)"/><path d=" M 33.063 32.212 C 33.063 28.642 35.686 26.019 39.395 26.019 C 43.103 26.019 45.726 28.642 45.726 32.212 C 45.726 35.782 43.103 38.405 39.395 38.405 C 35.686 38.405 33.063 35.792 33.063 32.212 Z  M 43.438 32.212 C 43.438 29.825 41.821 28.119 39.385 28.119 C 36.949 28.119 35.331 29.835 35.331 32.212 C 35.331 34.589 36.949 36.305 39.385 36.305 C 41.821 36.305 43.438 34.599 43.438 32.212 Z " fill="rgb(0,0,0)"/><path d=" M 58.665 40.437 L 58.931 40.437 C 60.381 40.437 60.933 39.796 60.933 38.129 L 60.933 26.413 L 63.191 26.413 L 63.191 37.981 C 63.191 40.891 62.047 42.39 59.138 42.39 L 58.665 42.39 L 58.665 40.437 L 58.665 40.437 Z " fill="rgb(0,0,0)"/><path d=" M 57.531 39.234 L 55.272 39.234 L 55.272 36.443 L 49.533 36.443 C 48.389 36.443 47.393 35.881 46.939 34.983 C 46.515 34.135 46.633 33.139 47.245 32.301 L 52.402 25.536 C 53.142 24.539 54.394 24.135 55.578 24.53 C 56.761 24.924 57.531 25.979 57.531 27.222 L 57.531 34.431 L 59.227 34.431 L 59.227 36.443 L 57.531 36.443 L 57.531 39.234 L 57.531 39.234 Z  M 49.148 33.534 C 49.079 33.622 49.039 33.741 49.039 33.869 C 49.039 34.184 49.296 34.441 49.611 34.441 L 55.282 34.441 L 55.282 27.173 C 55.282 26.798 55.006 26.66 54.888 26.62 C 54.838 26.61 54.769 26.591 54.68 26.591 C 54.542 26.591 54.375 26.64 54.227 26.827 L 49.148 33.534 L 49.148 33.534 L 49.148 33.534 Z " fill="rgb(0,0,0)"/><path d=" M 1.022 32.321 C 0.726 32.468 0.45 32.715 0.253 33.04 C 0.055 33.366 -0.024 33.711 0.006 34.056 C 0.036 34.678 0.381 35.25 0.943 35.565 C 1.466 35.861 2.057 35.792 2.619 35.664 C 3.31 35.486 3.901 35.417 4.523 35.792 C 4.523 35.792 4.523 35.792 4.552 35.792 C 5.617 36.413 5.617 37.971 4.552 38.593 C 4.552 38.593 4.552 38.593 4.523 38.593 C 3.901 38.967 3.31 38.889 2.619 38.721 C 2.077 38.573 1.485 38.494 0.943 38.82 C 0.371 39.145 0.055 39.737 0.006 40.328 C -0.024 40.674 0.055 41.019 0.253 41.344 C 0.45 41.67 0.696 41.916 1.022 42.064 C 1.564 42.34 2.235 42.34 2.797 42.015 C 3.32 41.719 3.566 41.147 3.714 40.605 C 3.911 39.914 4.138 39.362 4.779 39.017 C 5.4 38.642 5.992 38.721 6.683 38.889 C 7.225 39.036 7.817 39.115 8.359 38.79 C 8.931 38.464 9.247 37.873 9.296 37.281 C 9.296 37.232 9.296 37.202 9.296 37.153 C 9.296 37.104 9.296 37.074 9.296 37.025 C 9.266 36.403 8.921 35.831 8.359 35.516 C 7.836 35.22 7.245 35.289 6.683 35.417 C 5.992 35.595 5.4 35.664 4.779 35.289 C 4.158 34.914 3.911 34.392 3.714 33.701 C 3.566 33.159 3.32 32.607 2.797 32.291 C 2.225 32.054 1.564 32.054 1.022 32.321 Z " fill="rgb(1,64,99)"/><path d=" M 62.067 21.61 C 61.002 21.61 60.134 22.478 60.134 23.543 C 60.134 24.608 61.002 25.476 62.067 25.476 C 63.132 25.476 64 24.608 64 23.543 C 64 22.478 63.132 21.61 62.067 21.61 Z " fill="rgb(1,64,99)"/></g></svg>