<?xml version="1.0" encoding="UTF-8" standalone="no"?>
<!-- Generator: Gravit.io -->
<svg xmlns="http://www.w3.org/2000/svg" xmlns:xlink="http://www.w3.org/1999/xlink" style="isolation:isolate"
  viewBox="0 0 64 64" width="64pt" height="64pt">
  <defs>
    <clipPath id="_clipPath_xb27Y4lCXgKbgOrTF3Zy09sIm85AYKEc">
      <rect width="64" height="64" />
    </clipPath>
  </defs>
  <g clip-path="url(#_clipPath_xb27Y4lCXgKbgOrTF3Zy09sIm85AYKEc)">
    <path
      d=" M 29.9 0.018 C 29.762 0.03 29.324 0.074 28.93 0.104 C 19.842 0.924 11.328 5.828 5.936 13.366 C 2.934 17.556 1.014 22.31 0.288 27.346 C 0.032 29.104 0 29.624 0 32.006 C 0 34.39 0.032 34.908 0.288 36.666 C 2.026 48.682 10.578 58.778 22.174 62.52 C 24.252 63.188 26.44 63.646 28.93 63.92 C 29.9 64.026 34.09 64.026 35.06 63.92 C 39.358 63.444 42.998 62.382 46.588 60.548 C 47.14 60.268 47.246 60.192 47.17 60.13 C 47.12 60.092 44.774 56.946 41.96 53.142 L 36.844 46.23 L 30.432 36.742 C 26.904 31.524 24.002 27.258 23.976 27.258 C 23.952 27.252 23.926 31.468 23.914 36.616 C 23.894 45.63 23.888 45.992 23.776 46.206 C 23.614 46.512 23.488 46.638 23.226 46.774 C 23.026 46.874 22.85 46.894 21.906 46.894 L 20.824 46.894 L 20.536 46.712 C 20.348 46.594 20.21 46.436 20.116 46.256 L 19.986 45.974 L 19.998 33.432 L 20.016 20.884 L 20.21 20.64 C 20.31 20.51 20.524 20.34 20.674 20.26 C 20.93 20.134 21.03 20.122 22.112 20.122 C 23.388 20.122 23.6 20.172 23.932 20.534 C 24.026 20.634 27.498 25.864 31.652 32.162 C 35.804 38.462 41.484 47.062 44.274 51.284 L 49.34 58.96 L 49.598 58.79 C 51.868 57.314 54.27 55.214 56.172 53.024 C 60.218 48.376 62.828 42.708 63.702 36.666 C 63.96 34.908 63.99 34.39 63.99 32.006 C 63.99 29.624 63.96 29.104 63.702 27.346 C 61.964 15.33 53.414 5.234 41.816 1.494 C 39.77 0.83 37.594 0.374 35.154 0.098 C 34.554 0.036 30.418 -0.032 29.9 0.018 L 29.9 0.018 Z  M 42.998 19.37 C 43.298 19.52 43.542 19.808 43.63 20.108 C 43.68 20.272 43.692 23.75 43.68 31.588 L 43.662 42.834 L 41.678 39.794 L 39.69 36.754 L 39.69 28.578 C 39.69 23.292 39.714 20.322 39.752 20.178 C 39.852 19.828 40.07 19.552 40.37 19.39 C 40.628 19.258 40.722 19.246 41.704 19.246 C 42.63 19.246 42.792 19.258 42.998 19.37 L 42.998 19.37 Z "
      fill="rgb(0,0,0)" />
  </g>
</svg>