<svg xmlns="http://www.w3.org/2000/svg" width="512pt" height="512pt" style="isolation:isolate" viewBox="0 0 512 512"><defs><clipPath id="a"><path d="M0 0h512v512H0z"/></clipPath></defs><g clip-path="url(#a)"><path fill="#009639" d="M34.284 384.097c2.324 4.132 5.682 7.231 9.814 9.555l198.86 114.668c8.264 4.907 18.336 4.907 26.342 0l198.86-114.668c8.265-4.648 13.172-13.429 13.172-22.985V141.333c0-9.556-4.907-18.337-13.172-22.985L269.3 3.68c-8.264-4.907-18.336-4.907-26.342 0L44.098 118.348c-8.523 4.648-13.43 13.429-13.43 22.985v229.593c0 4.648 1.033 9.039 3.616 13.171Z"/><path fill="#FFF" d="M192.339 343.421a25.462 25.462 0 0 1-25.568 25.568 25.461 25.461 0 0 1-25.567-25.568V168.063c0-13.688 12.138-24.793 28.925-24.793 12.138 0 26.342 4.907 34.865 15.495l7.747 9.298 106.92 127.838V168.579a25.462 25.462 0 0 1 25.568-25.568 25.461 25.461 0 0 1 25.567 25.568v175.358c0 13.688-12.138 24.793-28.925 24.793-12.138 0-26.342-4.907-34.865-15.495L192.339 216.357v127.064Z"/></g></svg>