<svg id="Layer_1" xmlns="http://www.w3.org/2000/svg" viewBox="0 0 999 999" width="2500" height="2500"><style>.st0{fill:#fbfdf8}.st1{fill:#111033}.st2{fill:#4cb749}</style><path class="st0" d="M282.8 179.9c29.7 0 59.3-.2 89 .1 82.4 142.4 164.7 284.8 247 427.1 2.7 4.5 5 9.2 8.1 13.4.5-24.2.1-48.3.2-72.5V179.9c29.7-.1 59.4-.1 89 0 .1 85.4 0 170.8 0 256.2-.4 3 2.4 4.7 4.2 6.6 14.3 14.1 28.6 28.1 42.7 42.3-14.2 14.1-28.5 28.3-42.8 42.3-1.8 1.9-4.6 3.7-4.1 6.7v232c0 7.2.1 14.5-.1 21.8h-88.9c-80.5-137.2-160.6-274.7-240.9-412-4.8-8-9.2-16.2-14.2-24-.4 54.1-.1 108.1-.2 162.2v273.8c-29.7-.1-59.3 0-89 0-.3-84.9 0-169.8-.2-254.7.2-1.6-1-2.7-2-3.8-15-14.7-29.9-29.5-44.8-44.3 14.1-14.2 28.4-28.3 42.7-42.3 1.8-1.9 4.6-3.6 4.1-6.6.2-85.4.1-170.8.2-256.2z"/><path class="st1" d="M480.4.4c90.8-3.6 182.5 18 261.8 62.4 63.7 35.4 119.4 84.9 162.1 143.9 35.2 48.6 61.6 103.6 77.3 161.5 26.4 96.9 22.8 201.9-10.6 296.6-25.1 71.8-67 137.5-121.2 190.8-57.5 56.6-128.7 99-206 122.2-96.9 29.3-202.8 28.1-299.1-3.3-67.1-21.8-129.3-58.2-181.4-105.7-55-50-98.7-112.5-126.6-181.4C-4.6 586.4-11 471.8 18 366.7 38.5 291.3 77.5 221 130.2 163.2c52.6-57.8 118.9-103.1 192.1-130.8 50.4-19.2 104.1-30 158.1-32m1.1 33.3c-35.1 1.4-70 6.6-103.9 15.8-65.4 17.6-126.8 49.9-178.5 93.6-54.6 46-98.5 104.6-127 170.1-43.5 99-50.6 213.3-20.2 317 19.9 68.8 56.2 132.6 104.8 185.2 44.2 48 98.6 86.7 158.6 112.5 98.7 42.8 212.5 49.5 315.6 19.1 68.9-20.1 132.9-56.6 185.5-105.5 52.6-48.7 93.8-109.7 119.2-176.8 34.7-91 39.5-193 14-287-15.6-57.8-42.6-112.5-78.9-160.2C828.8 162.3 774.5 116.8 713 85c-71-36.7-151.6-54.5-231.5-51.3z"/><path class="st2" d="M481.5 33.7C561.4 30.5 642 48.3 713 85c61.5 31.7 115.8 77.3 157.6 132.4 36.3 47.6 63.3 102.3 78.9 160.2 25.5 94 20.7 196-14 287-25.3 67.1-66.6 128.1-119.2 176.8-52.6 48.9-116.6 85.4-185.5 105.5-103.2 30.5-216.9 23.8-315.6-19.1-60-25.8-114.4-64.4-158.6-112.5-48.5-52.6-84.8-116.5-104.8-185.2-30.4-103.7-23.3-218 20.2-317C100.5 247.7 144.4 189 199 143c51.7-43.7 113.1-76 178.5-93.6 34-9.1 68.9-14.3 104-15.7M282.8 179.9c-.1 85.4 0 170.8-.1 256.2.4 3-2.4 4.7-4.1 6.6-14.3 14.1-28.6 28.1-42.7 42.3 14.9 14.8 29.8 29.6 44.8 44.3 1 1 2.2 2.1 2 3.8.2 84.9-.2 169.8.2 254.7h89V514c.1-54.1-.2-108.2.2-162.2 5 7.8 9.4 16 14.2 24 80.3 137.3 160.5 274.8 240.9 412h88.9c.2-7.2.1-14.5.1-21.8V534c-.5-3 2.3-4.8 4.1-6.7 14.3-14.1 28.5-28.2 42.8-42.3-14.1-14.2-28.4-28.3-42.7-42.3-1.8-1.9-4.6-3.6-4.2-6.6 0-85.4.1-170.8 0-256.2-29.7-.1-59.4-.1-89 0V548c-.1 24.2.3 48.3-.2 72.5-3.1-4.2-5.4-8.9-8.1-13.4-82.4-142.4-164.7-284.8-247-427.1-29.7-.3-59.4-.1-89.1-.1z"/></svg>