<svg xmlns="http://www.w3.org/2000/svg" width="512pt" height="512pt" style="isolation:isolate" viewBox="0 0 512 512"><defs><clipPath id="a"><path d="M0 0h512v512H0z"/></clipPath></defs><g fill="#689F63" clip-path="url(#a)"><path d="M209.421 491.994a36.405 36.405 0 0 1-18.138-4.848l-57.739-34.184c-8.624-4.823-4.416-6.528-1.572-7.511 11.499-4.027 13.832-4.936 26.105-11.905 1.291-.736 2.979-.478 4.299.302l44.357 26.322c1.602.865 3.875.865 5.36 0l172.952-99.832c1.602-.91 2.642-2.771 2.642-4.676V156.086a5.556 5.556 0 0 0-2.676-4.763L212.128 51.578c-1.603-.952-3.724-.952-5.325 0L33.955 151.323c-1.676.952-2.742 2.813-2.742 4.719v199.577c0 1.905 1.04 3.723 2.684 4.632l47.363 27.361c25.715 12.858 41.431-2.294 41.431-17.533v-196.98c0-2.815 2.208-4.979 5.021-4.979h21.905a4.951 4.951 0 0 1 4.979 4.979v197.067c0 34.286-18.701 53.985-51.215 53.985-10 0-17.878 0-39.872-10.824L18.14 387.179C6.927 380.686 0 368.563 0 355.619V156.042c0-12.988 6.927-25.11 18.14-31.516L191.265 24.65c10.954-6.191 25.499-6.191 36.366 0l172.909 99.918c11.169 6.451 18.139 18.53 18.139 31.518v199.576c0 12.945-6.97 25.024-18.139 31.517l-172.909 99.875c-5.542 3.204-11.819 4.849-18.227 4.849"/><path d="M262.844 354.472c-75.675 0-91.541-34.738-91.541-63.873 0-2.771 2.234-4.979 5.009-4.979h22.339c2.468 0 4.545 1.796 4.936 4.234 3.376 22.762 13.42 34.244 59.18 34.244 36.452 0 51.95-8.234 51.95-27.564 0-11.126-4.416-19.395-61.042-24.936-47.362-4.676-76.627-15.11-76.627-52.99 0-34.894 29.439-55.674 78.748-55.674 55.371 0 82.819 19.222 86.281 60.522.131 1.43-.389 2.815-1.341 3.854-.952.996-2.295 1.601-3.68 1.601h-22.468c-2.339 0-4.373-1.645-4.849-3.896-5.412-23.94-18.486-31.604-54.03-31.604-39.785 0-44.417 13.855-44.417 24.244 0 12.599 5.455 16.279 59.137 23.379 53.163 7.056 78.403 17.013 78.403 54.374 0 37.664-31.431 59.267-86.239 59.267m210.66-211.656h5.802c4.762 0 5.67-3.333 5.67-5.281 0-5.108-3.506-5.108-5.454-5.108h-5.974l-.044 10.389Zm-7.056-16.364h12.858c4.416 0 13.074 0 13.074 9.871 0 6.884-4.416 8.312-7.057 9.177 5.152.347 5.499 3.724 6.191 8.485.346 2.988.909 8.14 1.948 9.871h-7.922c-.217-1.731-1.429-11.256-1.429-11.775-.52-2.121-1.256-3.16-3.896-3.16h-6.537v14.979h-7.23v-37.448Zm-15.456 18.616c0 15.499 12.512 28.053 27.88 28.053 15.499 0 28.011-12.814 28.011-28.053 0-15.543-12.685-27.88-28.053-27.88-15.152 0-27.88 12.164-27.88 27.836m61.301.131c0 18.356-15.023 33.334-33.335 33.334-18.182 0-33.336-14.805-33.336-33.334 0-18.876 15.499-33.336 33.336-33.336 17.966 0 33.292 14.504 33.292 33.336"/></g></svg>