<?xml version="1.0" encoding="UTF-8" standalone="no"?>
<!-- Generator: Gravit.io -->
<svg xmlns="http://www.w3.org/2000/svg" xmlns:xlink="http://www.w3.org/1999/xlink" style="isolation:isolate" viewBox="0 0 64 64" width="64pt" height="64pt"><defs><clipPath id="_clipPath_kprLYjuUhRLZruufLrNsWoYj4FW2VeCb"><rect width="64" height="64"/></clipPath></defs><g clip-path="url(#_clipPath_kprLYjuUhRLZruufLrNsWoYj4FW2VeCb)"><g><path d=" M 63.964 35.077 C 63.964 37.022 63.964 38.967 63.964 40.912 C 63.964 41.704 63.688 41.86 62.992 41.464 C 61.599 40.671 60.206 39.867 58.814 39.087 C 58.31 38.811 58.081 38.439 58.093 37.85 C 58.117 36.134 58.093 34.429 58.105 32.712 C 58.105 32.1 57.889 31.68 57.337 31.391 C 56.785 31.103 56.245 30.779 55.716 30.467 C 55.32 30.227 54.924 30.215 54.528 30.455 C 53.928 30.803 53.315 31.151 52.703 31.5 C 52.343 31.704 52.187 31.98 52.187 32.412 C 52.199 35.233 52.187 38.042 52.175 40.864 C 52.175 41.728 51.911 41.872 51.154 41.44 C 49.774 40.647 48.405 39.855 47.013 39.087 C 46.508 38.811 46.28 38.439 46.292 37.85 C 46.316 36.134 46.292 34.429 46.304 32.712 C 46.304 32.1 46.088 31.68 45.536 31.391 C 44.996 31.115 44.468 30.803 43.951 30.491 C 43.507 30.215 43.087 30.227 42.631 30.503 C 42.115 30.815 41.586 31.127 41.046 31.415 C 40.518 31.692 40.29 32.1 40.302 32.688 C 40.326 34.429 40.302 36.182 40.314 37.922 C 40.314 38.451 40.122 38.799 39.666 39.051 C 38.213 39.867 36.772 40.707 35.32 41.524 C 34.743 41.848 34.431 41.668 34.431 41.008 C 34.431 37.058 34.431 33.096 34.419 29.147 C 34.419 28.666 34.611 28.318 35.032 28.078 C 37.589 26.613 40.146 25.149 42.691 23.684 C 43.111 23.444 43.507 23.444 43.927 23.696 C 45.572 24.645 47.229 25.581 48.873 26.541 C 49.126 26.685 49.294 26.685 49.546 26.541 C 51.142 25.605 52.763 24.705 54.36 23.756 C 54.876 23.456 55.32 23.444 55.848 23.756 C 58.322 25.197 60.819 26.625 63.304 28.042 C 63.796 28.318 64 28.702 64 29.255 C 63.988 31.199 64 33.144 64 35.089 L 63.964 35.089 L 63.964 35.077 Z " fill="rgb(51,51,51)"/><path d=" M 0.012 35.041 C 0.012 33.132 0.024 31.211 0 29.303 C -0.012 28.702 0.205 28.318 0.733 28.018 C 3.242 26.589 5.739 25.149 8.224 23.708 C 8.68 23.444 9.076 23.432 9.533 23.696 C 12.042 25.149 14.551 26.589 17.072 28.018 C 17.564 28.294 17.78 28.666 17.78 29.231 C 17.768 33.12 17.768 37.01 17.756 40.912 C 17.756 41.704 17.468 41.872 16.784 41.488 C 15.379 40.683 13.974 39.867 12.558 39.087 C 12.09 38.823 11.862 38.475 11.874 37.922 C 11.898 36.194 11.874 34.465 11.886 32.736 C 11.898 32.124 11.681 31.692 11.129 31.415 C 10.565 31.127 10.013 30.791 9.461 30.467 C 9.076 30.239 8.704 30.239 8.308 30.467 C 7.72 30.815 7.132 31.163 6.531 31.488 C 6.063 31.74 5.895 32.124 5.895 32.64 C 5.907 34.381 5.883 36.134 5.907 37.874 C 5.919 38.463 5.691 38.835 5.187 39.111 C 3.782 39.891 2.402 40.695 1.009 41.488 C 0.325 41.884 0.024 41.716 0.024 40.936 C 0.024 38.967 0.024 37.01 0.012 35.041 L 0.012 35.041 L 0.012 35.041 Z " fill="rgb(51,51,51)"/><path d=" M 15.139 27.934 L 14.215 27.934 L 14.755 28.882 L 15.679 28.882 L 15.139 27.934 L 15.139 27.934 Z " fill-rule="evenodd" fill="rgb(51,51,51)"/><path d=" M 21.994 30.899 L 21.79 30.515 L 21.166 29.447 L 20.481 29.459 L 20.661 29.783 L 18.909 29.795 L 18.524 29.135 L 17.24 29.147 L 24.191 40.071 L 26.796 35.413 L 24.707 31.824 L 24.491 31.452 L 24.011 30.623 L 24.011 30.623 L 21.994 30.899 Z " fill-rule="evenodd" fill="rgb(51,51,51)" vector-effect="non-scaling-stroke" stroke-width="1" stroke="rgb(51,51,51)" stroke-linejoin="round" stroke-linecap="round" stroke-miterlimit="4"/><path d=" M 28.465 29.843 C 29.017 28.894 29.569 27.946 30.109 26.998 C 30.229 26.794 30.374 26.709 30.614 26.709 C 32.222 26.721 33.831 26.709 35.428 26.709 C 35.884 26.709 36.004 26.89 35.812 27.31 C 35.308 28.162 34.791 29.002 34.335 29.879 C 33.795 30.803 33.255 31.716 32.715 32.64 C 31.526 34.705 30.338 36.77 29.137 38.823 C 28.549 39.807 27.973 40.792 27.3 41.728 C 27.156 41.932 27 42.136 26.832 42.316 C 26.4 42.772 26.04 42.772 25.607 42.304 C 25.403 42.088 24.743 41.128 25.091 41.692 C 24.527 40.804 23.843 39.795 23.278 38.907 C 23.459 38.487 25.439 34.909 25.956 34.009 C 26.016 33.949 27.708 31.151 28.465 29.843 L 28.465 29.843 Z " fill="rgb(244,221,75)"/><path d=" M 23.29 38.907 L 26.028 33.877 L 25.283 32.628" fill-rule="evenodd" fill="rgb(0,0,0)"/><g><path d=" M 17.9 26.337 L 17.132 26.349 L 17.6 27.118 L 17.876 27.118 L 18.308 27.838 L 19.569 27.814 L 18.801 26.541 L 18.032 26.565 L 17.9 26.337 L 17.9 26.337 Z " fill-rule="evenodd" fill="rgb(51,51,51)" vector-effect="non-scaling-stroke" stroke-width="1" stroke="rgb(51,51,51)" stroke-linejoin="round" stroke-linecap="round" stroke-miterlimit="4"/><path d=" M 17.792 22.628 L 17.036 22.64 L 17.492 23.396 L 18.248 23.384 L 17.792 22.628 L 17.792 22.628 Z " fill-rule="evenodd" fill="rgb(51,51,51)" vector-effect="non-scaling-stroke" stroke-width="1" stroke="rgb(51,51,51)" stroke-linejoin="round" stroke-linecap="round" stroke-miterlimit="4"/><path d=" M 16.448 23.696 L 15.811 23.708 L 16.195 24.332 L 16.832 24.32 L 16.448 23.696 L 16.448 23.696 Z " fill-rule="evenodd" fill="rgb(51,51,51)" vector-effect="non-scaling-stroke" stroke-width="1" stroke="rgb(51,51,51)" stroke-linejoin="round" stroke-linecap="round" stroke-miterlimit="4"/><path d=" M 19.137 21.343 L 18.608 21.355 L 18.885 21.811 L 19.413 21.799 L 19.137 21.343 L 19.137 21.343 Z " fill-rule="evenodd" fill="rgb(51,51,51)" vector-effect="non-scaling-stroke" stroke-width="1" stroke="rgb(51,51,51)" stroke-linejoin="round" stroke-linecap="round" stroke-miterlimit="4"/><path d=" M 17.912 24.789 L 17.24 24.813 L 17.588 25.389 L 18.26 25.365 L 17.912 24.789 L 17.912 24.789 Z " fill-rule="evenodd" fill="rgb(51,51,51)" vector-effect="non-scaling-stroke" stroke-width="1" stroke="rgb(51,51,51)" stroke-linejoin="round" stroke-linecap="round" stroke-miterlimit="4"/><path d=" M 21.178 25.161 L 20.097 25.185 L 19.917 24.897 L 18.945 24.921 L 19.461 25.761 L 20.121 25.749 L 20.625 26.577 L 22.018 26.553 L 21.178 25.161 L 21.178 25.161 Z " fill-rule="evenodd" fill="rgb(51,51,51)" vector-effect="non-scaling-stroke" stroke-width="1" stroke="rgb(51,51,51)" stroke-linejoin="round" stroke-linecap="round" stroke-miterlimit="4"/><path d=" M 20.037 23.288 L 19.101 23.312 L 19.593 24.128 L 20.529 24.104 L 20.037 23.288 L 20.037 23.288 Z " fill-rule="evenodd" fill="rgb(51,51,51)" vector-effect="non-scaling-stroke" stroke-width="1" stroke="rgb(51,51,51)" stroke-linejoin="round" stroke-linecap="round" stroke-miterlimit="4"/><path d=" M 15.895 21.571 L 15.463 21.583 L 15.691 21.955 L 16.123 21.943 L 15.895 21.571 L 15.895 21.571 Z " fill-rule="evenodd" fill="rgb(51,51,51)" vector-effect="non-scaling-stroke" stroke-width="1" stroke="rgb(51,51,51)" stroke-linejoin="round" stroke-linecap="round" stroke-miterlimit="4"/><path d=" M 23.026 28.054 L 21.31 28.09 L 21.658 28.642 L 22.174 28.642 L 22.498 29.159 L 23.687 29.135 L 23.026 28.054 L 23.026 28.054 Z " fill-rule="evenodd" fill="rgb(51,51,51)" vector-effect="non-scaling-stroke" stroke-width="1" stroke="rgb(51,51,51)" stroke-linejoin="round" stroke-linecap="round" stroke-miterlimit="4"/></g><path d=" M 16.291 25.113 L 15.763 25.125 L 16.039 25.581 L 16.568 25.569 L 16.291 25.113 L 16.291 25.113 Z " fill-rule="evenodd" fill="rgb(51,51,51)" vector-effect="non-scaling-stroke" stroke-width="1" stroke="rgb(51,51,51)" stroke-linejoin="round" stroke-linecap="round" stroke-miterlimit="4"/></g></g></svg>