<svg xmlns="http://www.w3.org/2000/svg" width="512pt" height="512pt" style="isolation:isolate" viewBox="0 0 512 512"><defs><clipPath id="a"><path d="M0 0h512v512H0z"/></clipPath></defs><g clip-path="url(#a)"><linearGradient id="b" x1=".406" x2=".739" y1=".428" y2=".592" gradientTransform="matrix(428.604 0 0 272.484 28.77 0)" gradientUnits="userSpaceOnUse"><stop offset="0%" style="stop-color:#faaf4c"/><stop offset="59.44%" style="stop-color:#f79c2e"/><stop offset="100%" style="stop-color:#f6921e"/></linearGradient><path fill="url(#b)" d="M366.216 1.939 457.374 0 299.962 272.484H28.77s93.729-35.232 129.937-65.616c27.791-23.596 146.425-159.999 159.021-176.161 15.526-20.688 37.185-27.152 48.488-28.768Z"/><linearGradient id="c" x1=".813" x2=".252" y1="1.56" y2=".569" gradientTransform="matrix(366.875 0 0 191.354 44.206 320.646)" gradientUnits="userSpaceOnUse"><stop offset="0%" style="stop-color:#72a4d7"/><stop offset="100%" style="stop-color:#1a1f4a"/></linearGradient><path fill="url(#c)" d="m82.669 384.324-38.463-63.678h256.327L411.081 512s-63.037-52.039-99.245-64.97c-28.122-10.019-172.593-38.141-189.081-40.403-21.013-2.587-34.269-15.193-40.086-22.303Z"/><linearGradient id="d" x1="1.466" x2=".593" y1="1.05" y2="-.493" gradientTransform="matrix(142.881 0 0 351.355 340.348 132.848)" gradientUnits="userSpaceOnUse"><stop offset="0%" style="stop-color:#72a4d7"/><stop offset="100%" style="stop-color:#1a1f4a"/></linearGradient><path fill="url(#d)" d="m479.664 428.929-30.391 55.274-108.925-188.769 93.744-162.586s-11.317 68.527-5.501 100.526c4.525 24.889 45.257 143.192 50.743 156.121 6.793 17.132 3.231 32.323.33 39.434Z"/></g></svg>