<svg xmlns="http://www.w3.org/2000/svg" width="2000" height="1886.47" viewBox="0 0 2000 1886.47"><defs><mask id="0" x="0" y="134" width="662.25" height="1516.91" maskUnits="userSpaceOnUse"><path fill="#fff" fill-rule="evenodd" d="m.01 134l662.24 0 0 1516.91-662.24 0 0-1516.91"/></mask></defs><g mask="url(#0)"><path d="m555.87 245.66c38.26-43.26 73.13-80.19 106.38-111.08-562.78-18.1-399 388.71-582.39 802.15-211.19 476.2 24.86 657.64 376.63 714.18-48.75-57.57-88.57-123.34-118.86-194.42-228.09-287.09-136.25-810.11 218.24-1210.83" fill="#efe812"/></g><g fill="#ede70a"><path d="m1910.21 752.9c-52.38 147.47-148.5 313-284.38 475.9-105.9 126.89-223.62 226.87-345.14 299.28-140.53 91-314.79 144.69-509.69 144.69-109 0-216.26-6.09-314.55-21.84 58.05 68.43 128.65 125.21 210.65 164.85 508.9 246.06 541-211 1079.41-442.95 302.3-130.28 303.38-384.85 163.7-619.93"/><path d="m1280.49 277.21c75.07 13.7 146.27 38.38 210 74.4 170.88 96.67 326.55 244.62 419.66 401.26 91.65-258.19 49-461.11-151.58-497.92-220.48-40.31-392.81-53.22-558.38-168.89-204-142.4-382.79-95.46-537.92 48.57 10.92.3 22.08.85 33.61 1.51 215.23 12.67 420.68 54.55 584.56 141.07"/></g><path d="m555.87 245.66c-354.49 400.72-446.33 923.74-218.24 1210.83-102.4-240.33-95.28-540.09 49-779.4 192.17-318.65 577.5-457.61 893.86-399.87-163.88-86.53-369.34-128.4-584.49-141.13-11.58-.67-22.75-1.09-33.73-1.51-33.27 30.89-68.14 67.82-106.4 111.08" fill="#dec21c"/><path d="m1490.51 351.63c-63.78-36.09-135-60.71-210-74.4 215.84 113.92 359.45 305.31 357.82 610.21-1.45 264.53-138.12 498.28-357.63 640.62 121.52-72.4 239.3-172.33 345.2-299.28 135.88-162.86 231.94-328.37 284.32-475.9-93.11-156.64-248.78-304.65-419.66-401.25" fill="#e5cb22"/><path d="M1280.5,277.22C964.14,219.54,578.81,358.38,386.63,677c-144.27,239.37-151.45,539.19-49,779.46,30.29,71,70.05,136.91,118.87,194.48,98.23,15.75,205.45,21.78,314.49,21.78,194.89,0,369.15-53.7,509.62-144.69,219.58-142.28,356.25-376.1,357.63-640.63,1.69-304.89-142-496.29-357.75-610.21M1245,1383.12c-243.65,156.52-568.52,86.71-725.7-156S439.79,671.84,675.78,504c263.92-187.6,602.37-113.56,725.76,156,120.32,262.9,87.07,566.53-156.58,723.11" fill="#cca727"/></svg>