<?xml version="1.0" encoding="UTF-8" standalone="no"?>
<!-- Generator: Gravit.io -->
<svg xmlns="http://www.w3.org/2000/svg" xmlns:xlink="http://www.w3.org/1999/xlink" style="isolation:isolate" viewBox="0 0 64 64" width="64pt" height="64pt"><defs><clipPath id="_clipPath_n9DiA4rcmPWSm4MG7PunPudYYgGaItUd"><rect width="64" height="64"/></clipPath></defs><g clip-path="url(#_clipPath_n9DiA4rcmPWSm4MG7PunPudYYgGaItUd)"><rect x="0" y="0" width="64" height="64" transform="matrix(1,0,0,1,0,0)" fill="rgb(0,0,0)"/><path d=" M 28.16 37.12 L 35.84 37.12 L 35.84 44.8 L 28.16 44.8 L 28.16 37.12 Z  M 28.16 28.16 L 35.84 28.16 L 35.84 35.84 L 28.16 35.84 L 28.16 28.16 Z  M 19.2 28.16 L 26.88 28.16 L 26.88 35.84 L 19.2 35.84 L 19.2 28.16 Z  M 37.12 19.2 L 28.16 19.2 L 28.16 26.88 L 37.12 26.88 L 37.12 35.84 L 44.8 35.84 L 44.8 19.2 L 37.12 19.2 Z " fill-rule="evenodd" fill="rgb(255,255,255)"/></g></svg>