<svg enable-background="new 0 0 1513.4 1484" viewBox="0 0 1513.4 1484" xmlns="http://www.w3.org/2000/svg" xmlns:xlink="http://www.w3.org/1999/xlink"><clipPath id="a"><circle cx="746" cy="736.5" r="727.3"/></clipPath><linearGradient id="b" gradientTransform="matrix(1 0 0 -1 .3 1430.1627)" gradientUnits="userSpaceOnUse" x1="-24.7473" x2="1486.3186" y1="691.0304" y2="691.0304"><stop offset="0" stop-color="#518fca"/><stop offset="1" stop-color="#3e4a94"/></linearGradient><path clip-path="url(#a)" d="m1486.6 1339c0 85.1-69 154.2-154.2 154.2h-1202.7c-85.1 0-154.2-69-154.2-154.2v-1199.8c0-85.1 69-154.2 154.2-154.2h1202.7c85.1 0 154.2 69 154.2 154.2z" fill="url(#b)"/><path d="m746 388.2c-145.2 0-262.9 117.7-262.9 262.9v433.7l94-104.7v-329.6c0-91.9 74.6-166.4 166.5-166.3 91.9 0 166.4 74.6 166.3 166.5s-74.6 166.3-166.5 166.3c-19.5 0-38.9-3.5-57.2-10.2v100.4c19.6 4.6 39.7 6.9 59.8 6.8 145.2 0 262.9-117.7 262.9-262.9s-117.7-262.9-262.9-262.9z" fill="#fff"/></svg>