<?xml version="1.0" encoding="UTF-8" standalone="no"?>
<!-- Generator: Gravit.io -->
<svg xmlns="http://www.w3.org/2000/svg" xmlns:xlink="http://www.w3.org/1999/xlink" style="isolation:isolate" viewBox="0 0 64 64" width="64pt" height="64pt"><defs><clipPath id="_clipPath_xhlaJ7vl2X5PzrOh73qaHb3dWMG6kayr"><rect width="64" height="64"/></clipPath></defs><g clip-path="url(#_clipPath_xhlaJ7vl2X5PzrOh73qaHb3dWMG6kayr)"><path d=" M 36.076 0.261 C 29.798 -0.545 23.423 0.528 17.755 3.345 C 12.088 6.163 7.383 10.598 4.236 16.089 C 1.089 21.581 -0.359 27.882 0.075 34.196 C 0.51 40.51 2.807 46.554 6.676 51.563 C 10.545 56.571 15.813 60.32 21.813 62.335 C 27.813 64.35 34.275 64.54 40.383 62.882 C 46.491 61.224 51.971 57.792 56.128 53.02 C 60.286 48.247 62.934 42.35 63.74 36.072 C 64.82 27.655 62.512 19.153 57.324 12.437 C 52.136 5.722 44.493 1.342 36.076 0.261 Z " fill="rgb(255,108,55)"/><path d=" M 23.135 34.022 C 23.147 34.048 23.168 34.068 23.194 34.079 C 23.219 34.091 23.248 34.094 23.276 34.086 L 28.396 32.982 L 26.242 30.8 L 23.173 33.869 C 23.149 33.885 23.132 33.91 23.125 33.938 C 23.118 33.966 23.121 33.996 23.135 34.022 Z  M 47.11 12.039 C 46.396 12.039 45.692 12.2 45.049 12.509 C 44.405 12.818 43.84 13.267 43.393 13.824 C 42.947 14.38 42.631 15.03 42.468 15.725 C 42.306 16.419 42.302 17.142 42.455 17.839 C 42.609 18.535 42.918 19.189 43.357 19.751 C 43.797 20.312 44.357 20.768 44.997 21.085 C 45.636 21.402 46.338 21.571 47.052 21.581 C 47.765 21.59 48.472 21.439 49.119 21.139 L 45.874 17.895 C 45.837 17.857 45.808 17.813 45.787 17.765 C 45.767 17.716 45.757 17.664 45.757 17.611 C 45.757 17.559 45.767 17.507 45.787 17.458 C 45.808 17.409 45.837 17.365 45.874 17.328 L 50.114 13.091 C 49.263 12.407 48.202 12.035 47.11 12.039 Z  M 42.744 20.947 L 42.674 20.947 C 42.591 20.947 42.509 20.954 42.428 20.97 L 42.399 20.97 C 42.31 20.989 42.222 21.015 42.136 21.047 L 42.069 21.079 C 42.005 21.105 41.943 21.137 41.884 21.175 L 41.813 21.219 C 41.736 21.273 41.663 21.333 41.596 21.399 L 29.81 33.187 L 31.269 34.646 L 43.749 23.693 C 43.82 23.631 43.884 23.562 43.941 23.488 L 43.996 23.418 C 44.038 23.355 44.077 23.29 44.111 23.223 C 44.13 23.184 44.146 23.146 44.162 23.107 C 44.184 23.056 44.202 23.004 44.216 22.951 C 44.216 22.912 44.239 22.874 44.248 22.835 C 44.264 22.756 44.275 22.676 44.28 22.595 L 44.28 22.49 C 44.28 22.432 44.28 22.375 44.28 22.317 C 44.28 22.259 44.28 22.24 44.264 22.202 C 44.205 21.9 44.058 21.622 43.841 21.404 C 43.624 21.186 43.347 21.037 43.045 20.976 L 42.984 20.976 C 42.905 20.961 42.825 20.951 42.744 20.947 Z  M 26.792 30.234 L 29.212 32.64 L 41.029 20.822 C 41.414 20.446 41.915 20.213 42.45 20.16 C 40.36 18.56 38.082 18.979 26.792 30.234 Z  M 44.415 24.154 L 44.271 24.295 L 31.791 35.245 L 33.913 37.363 C 39.173 32.387 43.842 27.648 44.415 24.154 Z  M 13.286 49.808 C 13.292 49.831 13.305 49.851 13.324 49.866 C 13.342 49.88 13.364 49.889 13.388 49.891 L 18.828 50.265 L 15.778 47.216 L 13.311 49.68 C 13.295 49.697 13.284 49.717 13.28 49.74 C 13.275 49.763 13.277 49.786 13.286 49.808 Z  M 16.348 46.649 L 19.564 49.865 C 19.602 49.906 19.653 49.933 19.708 49.94 C 19.764 49.948 19.82 49.936 19.868 49.907 C 19.917 49.882 19.957 49.841 19.98 49.79 C 20.003 49.739 20.007 49.682 19.992 49.629 L 19.452 47.318 C 19.417 47.168 19.433 47.011 19.497 46.872 C 19.561 46.732 19.67 46.618 19.807 46.547 C 25.445 43.721 29.992 40.813 33.33 37.907 L 31.09 35.667 L 26.29 36.701 L 16.348 46.649 Z  M 30.402 34.989 L 29.199 33.786 L 27.535 35.446 C 27.523 35.461 27.517 35.479 27.517 35.498 C 27.517 35.516 27.523 35.534 27.535 35.549 C 27.543 35.566 27.557 35.58 27.574 35.587 C 27.591 35.595 27.61 35.596 27.628 35.59 L 30.402 34.989 Z " fill-rule="evenodd" fill="rgb(255,255,255)"/><path d=" M 50.697 13.642 L 46.722 17.6 L 49.839 20.717 C 50.069 20.556 50.283 20.373 50.479 20.173 C 51.333 19.313 51.83 18.161 51.871 16.95 C 51.911 15.738 51.492 14.557 50.697 13.642 Z " fill="rgb(255,255,255)"/><path d=" M 50.809 16.221 C 50.792 16.171 50.765 16.124 50.729 16.085 C 50.694 16.046 50.65 16.015 50.601 15.995 C 50.553 15.974 50.5 15.964 50.447 15.965 C 50.394 15.966 50.342 15.979 50.294 16.002 C 50.247 16.025 50.204 16.058 50.17 16.099 C 50.137 16.139 50.112 16.187 50.098 16.238 C 50.084 16.289 50.081 16.342 50.089 16.395 C 50.098 16.447 50.117 16.497 50.146 16.541 C 50.242 16.733 50.28 16.949 50.255 17.163 C 50.231 17.376 50.145 17.578 50.009 17.744 C 49.964 17.798 49.935 17.864 49.926 17.934 C 49.917 18.004 49.929 18.075 49.958 18.138 C 49.988 18.202 50.036 18.256 50.095 18.294 C 50.154 18.332 50.223 18.352 50.293 18.352 C 50.348 18.352 50.401 18.339 50.451 18.316 C 50.5 18.293 50.543 18.259 50.578 18.218 C 50.805 17.942 50.947 17.608 50.988 17.253 C 51.029 16.899 50.966 16.541 50.809 16.221 Z " fill="rgb(255,108,55)"/></g></svg>