<svg xmlns="http://www.w3.org/2000/svg" width="2000" height="4073.24" viewBox="0 0 2000 4073.24"><g fill="#e7ac19"><path d="M796,246.13C941.05,163,1080.33,69,1233.33,0c207.47,103.94,406.2,224.51,604.94,344.25-392.07,264-807,493.51-1214.45,733C419.68,962.08,194.34,825.71,1.42,692.66,246.72,520.12,540.67,402.46,796,246.13Z"/><path d="m1410.45 1617.74c57.79-194.16 140.53-379.18 212.87-567.94 134.71 66.11 274 134.71 376.68 248.22-197.9 104.35-389.16 219.98-589.55 319.72"/></g><path d="m1838.27 344.25s-141.36 461.5-215 705.55c-72.34 188.76-155.08 373.78-212.87 567.94 200.44-99.74 391.7-215.37 589.6-319.74-256.94 800-577.5 1577.84-856.47 2370.29-42.41 125.14-160.07 404.95-160.07 404.95-16.22-490.19-2.91-1023.19-12.48-1513.8-115.58 61.95-229.08 126.81-343.42 190.84 8.32-557.54-2.08-1115.08-3.74-1673 407.45-239.52 822.38-469.02 1214.45-733.03" fill="#ffd77b"/><path d="M1.42,692.66l24.12,16.63c192.91,133.05,394.14,252.79,598.28,368,1.66,558,12.06,1115.5,3.74,1673,114.34-64,227.84-128.89,343.42-190.84,9.57,490.61-4.57,981.21,11.65,1471.39l.83,42.41C761,3978.45,561,3840.41,353.57,3717.76c-27.85-375.85,2.91-753.78-17-1130.46C228,2517,112,2459.66,6,2385.24,1,1821.46-1.9,1256.85,1.42,692.66Z" fill="#a2761f"/></svg>