<svg xmlns="http://www.w3.org/2000/svg" xml:space="preserve" style="enable-background:new 0 0 240 234" viewBox="0 0 240 234"><path d="M42.5 0h155C221 0 240 19 240 42.5v149c0 23.5-19 42.5-42.5 42.5h-155C19 234 0 215 0 191.5v-149C0 19 19 0 42.5 0z" style="fill:#00005b"/><path d="M61.6 164.1V61.2c0-.7.3-1.1 1-1.1 1.7 0 3.8 0 6.1-.1 2.4-.1 4.9-.1 7.6-.2 2.7-.1 5.6-.1 8.7-.2 3.1-.1 6.1-.1 9.1-.1 8.2 0 15 1 20.6 3.1 5 1.7 9.6 4.5 13.4 8.2 3.2 3.2 5.7 7.1 7.3 11.4 1.5 4.2 2.3 8.5 2.3 13 0 8.6-2 15.7-6 21.3s-9.6 9.8-16.1 12.2c-7.2 2.6-14.9 3.9-22.5 3.8-2.4 0-4 0-5-.1s-2.4-.1-4.3-.1V164c.1.7-.4 1.3-1.1 1.4h-20c-.8 0-1.1-.4-1.1-1.3zm22.2-84.7v33.3c1.4.1 2.7.2 3.9.2H93c3.9.1 7.8-.5 11.5-1.6 3.2-.9 6-2.8 8.2-5.3 2.1-2.5 3.1-5.9 3.1-10.3.1-3.1-.7-6.2-2.3-8.9-1.7-2.6-4.1-4.6-7-5.7-3.7-1.5-7.7-2.1-11.8-2-2.6 0-4.9 0-6.8.1-2 0-3.4.1-4.1.2zm62.9 65.2V52.5c0-.9.5-1.3 1.4-1.3h19.5c1 0 1.4.4 1.4 1.3v90.2c0 2.3.4 3.9 1.2 4.8.8 1 2.2 1.4 4.1 1.4.5 0 1 0 1.4-.1.3-.1.8-.1 1.4-.2.2 0 .3 0 .5.1.1.1.2.4.2 1v13.8c0 .4 0 .9-.1 1.3-.1.2-.3.4-.7.6-1.3.5-2.7.8-4 1-2 .3-4.1.4-6.1.4-3.5.1-7.1-.6-10.4-1.9-3.1-1.3-5.7-3.7-7.2-6.8-1.7-3-2.6-7.6-2.6-13.5z" style="fill:#99f"/></svg>