<svg xmlns="http://www.w3.org/2000/svg" xml:space="preserve" baseProfile="tiny" viewBox="0 0 240 234"><path fill="#28092E" fill-rule="evenodd" d="M0 0h240v234H0z"/><path fill="#F9D9FF" fill-rule="evenodd" d="M91.3 47.6c-2.7 0-5.3 1.4-6.6 3.7l-54.5 91.8c-1 1.7-1.2 3.6-.7 5.4.5 1.9 1.7 3.4 3.4 4.4l93.4 52.1c1.1.6 2.4.9 3.6.9 2.7 0 5.2-1.4 6.6-3.7l54.5-91.8c1-1.7 1.3-3.6.8-5.5s-1.7-3.4-3.4-4.4l-93.5-52c-1.1-.6-2.3-.9-3.6-.9zm38.6 162.3c-2 0-3.9-.5-5.6-1.4l-93.4-52.1c-2.7-1.5-4.5-3.9-5.3-6.8-.8-2.9-.4-5.9 1.2-8.5l54.5-91.8c2.1-3.5 5.9-5.6 10-5.6 2 0 3.9.5 5.6 1.4l93.4 52.1c2.7 1.5 4.5 3.9 5.3 6.8.8 2.9.4 5.9-1.2 8.5L140 204.3c-2.1 3.4-6 5.6-10.1 5.6z"/><path fill="#E873FF" fill-rule="evenodd" d="M110.4 91.5c-19.1 0-34.6 15.5-34.6 34.6s15.5 34.6 34.6 34.6 34.6-15.5 34.6-34.6-15.5-34.6-34.6-34.6zm18.8 36.9-30.5 16.4c-2 1.2-3.6.2-3.7-2.1v-32.9c0-2.3 1.6-3.3 3.7-2.1l30.5 16.5c2.1 1.2 2.1 3.1 0 4.2z"/></svg>