<?xml version="1.0" encoding="UTF-8" standalone="no"?>
<!-- Generator: Gravit.io -->
<svg xmlns="http://www.w3.org/2000/svg" xmlns:xlink="http://www.w3.org/1999/xlink" style="isolation:isolate"
  viewBox="0 0 64 64" width="64pt" height="64pt">
  <defs>
    <clipPath id="_clipPath_ksfDevSi4mRPSSD6r6QKHU4pvZZ4ALg8">
      <rect width="64" height="64" />
    </clipPath>
  </defs>
  <g clip-path="url(#_clipPath_ksfDevSi4mRPSSD6r6QKHU4pvZZ4ALg8)">
    <path
      d=" M 58.15 48.758 L 36.14 2.018 C 35.584 0.846 34.428 0.074 33.134 0.008 C 31.834 -0.08 30.594 0.564 29.918 1.674 L 6.046 40.338 C 5.304 41.53 5.32 43.044 6.086 44.22 L 17.756 62.294 C 18.664 63.688 20.38 64.318 21.972 63.844 L 55.842 53.826 C 56.874 53.524 57.724 52.79 58.172 51.814 C 58.616 50.84 58.608 49.724 58.152 48.758 L 58.15 48.758 Z  M 53.222 50.764 L 24.482 59.262 C 23.606 59.522 22.764 58.762 22.946 57.878 L 33.214 8.712 C 33.406 7.792 34.676 7.648 35.078 8.498 L 54.086 48.862 C 54.256 49.226 54.258 49.648 54.092 50.012 C 53.926 50.378 53.608 50.652 53.222 50.764 L 53.222 50.764 Z "
      fill="rgb(0,0,0)" />
  </g>
</svg>