<svg xmlns="http://www.w3.org/2000/svg" width="2500.2" height="2499.8" viewBox="0 0 2000 1999.77"><g fill="#005cc7"><path d="m422.7 1355.3v218.7h219.2v-54.68h301.4v480.4c-504.9-27.3-915.8-441.3-943.2-945.2h481.4v296.8"/><path d="m1354.2 1519.3v54.65h219.2v-218.7h-54.8v-296.8h481.4c-27.4 503.9-442.3 914-947.2 941.3v-480.4"/><path d="m943.2 492.1h414.9v-66.4h219.2v242.2h-219.2v-66.4h-414.9v453.1l469.7 3.91v296.8h-54.79v54.69h-716.2v-54.68h-50.87v-710.9h54.8v-218.7h-219.2v218.7h54.8v296.8h-481.4c27.4-503.8 442.3-913.9 943.2-941.3"/></g></svg>