<svg xmlns="http://www.w3.org/2000/svg" width="512pt" height="512pt" style="isolation: isolate;" viewBox="0 0 512 512">
    <path
        fill="#ffffff"
        d="M254.155 1.333c-129.978 0-121.862 56.366-121.862 56.366l.146 58.394h124.034v17.534H83.172S0 124.195 0 255.343 72.595 381.84 72.595 381.84h43.325v-60.857s-2.336-72.596 71.436-72.596h123.02s69.117 1.117 69.117-66.799V69.291S389.987 1.333 254.155 1.333Zm-68.394 39.268c12.342 0 22.315 9.974 22.315 22.315 0 12.34-9.973 22.315-22.315 22.315-12.34 0-22.314-9.975-22.314-22.315 0-12.341 9.974-22.315 22.314-22.315Z"
    />
    <path
        fill="#ffffff"
        d="M257.845 510.667c129.978 0 121.862-56.366 121.862-56.366l-.146-58.394H255.527v-17.534h173.301S512 387.805 512 256.657 439.405 130.16 439.405 130.16H396.08v60.857s2.336 72.595-71.436 72.595h-123.02s-69.117-1.116-69.117 66.8v112.297s-10.494 67.958 125.338 67.958Zm68.394-39.268c-12.342 0-22.315-9.974-22.315-22.315 0-12.34 9.973-22.315 22.315-22.315 12.34 0 22.314 9.975 22.314 22.315 0 12.341-9.974 22.315-22.314 22.315Z"
    />
</svg>
