<svg xmlns="http://www.w3.org/2000/svg" width="512pt" height="512pt" style="isolation:isolate" viewBox="0 0 512 512"><defs><clipPath id="a"><path d="M0 0h512v512H0z"/></clipPath></defs><g fill="#EE4C2C" clip-path="url(#a)"><path d="m405.381 149.093-38.139 38.14c62.41 62.41 62.41 162.961 0 224.216-62.411 62.411-162.962 62.411-224.217 0-62.411-62.411-62.411-162.961 0-224.216l98.817-98.818 13.869-13.869V0L106.619 149.093c-83.215 83.214-83.215 217.282 0 300.496 83.214 83.215 217.282 83.215 298.762 0 83.215-83.792 83.215-217.282 0-300.496Z"/><path d="M358.573 112.108c0 15.32-12.418 27.739-27.738 27.739-15.319 0-27.738-12.419-27.738-27.739 0-15.319 12.419-27.738 27.738-27.738 15.32 0 27.738 12.419 27.738 27.738Z"/></g></svg>