<svg xmlns="http://www.w3.org/2000/svg" width="512pt" height="512pt" style="isolation:isolate" viewBox="0 0 512 512"><defs><clipPath id="a"><path d="M0 0h512v512H0z"/></clipPath></defs><g clip-path="url(#a)"><path fill="#747F8A" d="M394.191 251.388c0 2.246-31.57 4.353-76.64 6.121-7.959-4.515-13.999-9.053-18.421-12.963 54.658 1.932 95.061 4.317 95.061 6.842Zm-32.376-76.089c0 1.873-26.462 3.631-64.293 5.143a670.686 670.686 0 0 1 16.873-9.553c28.58 1.315 47.42 2.839 47.42 4.41ZM79.932 338.994c-17.513.209-32.874.29-44.872.29-17.269 0-31.256-5.318-31.256-11.916 0-6.563 13.987-11.881 31.256-11.881 15.291 0 36.005.163 59.767.466-9.193 13.266-13.557 21.237-13.964 21.737-.268.384-.605.838-.931 1.304Zm9.434 15.936c5.772 6.971 11.311 12.835 18.723 19.247 0 0 2.793 3.992 11.276.571 8.635-3.515 15.954-8.298 24.205-19.364 24.088.407 49.631.942 74.778 1.513 2.071 3.014 6.272 9.251 11.45 16.943-70.1 1.815-146.181 2.897-185.152 2.897-16.234 0-29.406-5.038-29.406-11.206 0-6.202 13.172-11.206 29.406-11.206 11.869 0 27.16.081 44.662.279a.799.799 0 0 0 .058.326Zm-27.117 58.46c-14.407 0-26.078-4.434-26.078-9.903 0-5.481 11.671-9.926 26.078-9.926 38.11 0 116.239 1.163 183.151 3.06 3.223 4.62 6.447 9.216 9.507 13.441-68.89 2.024-152.744 3.328-192.658 3.328Zm222.229 31.789c-56.194 2.467-152.814 4.12-192.961 4.12-11.299 0-20.48-3.526-20.48-7.797 0-4.306 9.181-7.808 20.48-7.808 38.402 0 128.587 1.512 185.502 3.782a274.566 274.566 0 0 0 7.459 7.703Zm-146.603 21.077c33.153 0 134.079 2.502 134.079 5.527 0 3.072-100.938 5.551-134.079 5.551-6.459 0-11.683-2.479-11.683-5.551 0-3.025 5.224-5.527 11.683-5.527Zm.366-204.07c-41.729.71-79.118 1.106-103.183 1.106-17.257 0-31.256-5.318-31.256-11.905 0-6.575 13.999-11.916 31.256-11.916 27.952 0 73.882.535 123.676 1.478a623.724 623.724 0 0 0-20.493 21.237Zm204.679-53.223c24.448 1.327 39.832 2.781 39.832 4.294 0 1.664-18.619 3.258-47.431 4.678 6.156-4.631 7.505-8.669 7.599-8.972ZM44.651 224.445c-16.244 0-29.417-5.004-29.417-11.195 0-6.179 13.173-11.206 29.417-11.206 33.317 0 93.746.814 154.362 2.153a705.079 705.079 0 0 0-21.144 18.56c-53.203 1.071-103.776 1.688-133.218 1.688Zm181.161-41.764c-61.978 1.571-129.122 2.537-163.567 2.537-14.406 0-26.066-4.433-26.066-9.914s11.66-9.938 26.066-9.938c38.017 0 115.961 1.187 182.779 3.072-3.328 2.42-6.68 4.841-10.077 7.378-3.096 2.304-6.145 4.573-9.135 6.865Zm-134.299-37.61c-11.3 0-20.481-3.479-20.481-7.796 0-4.306 9.181-7.809 20.481-7.809 42.625 0 148.939 1.886 202.934 4.574-3.445 2.257-6.889 4.596-10.369 6.947-56.275 2.432-152.5 4.084-192.565 4.084ZM31.838 301.5C14.267 301.5 0 296.089 0 289.374c0-6.668 14.267-12.102 31.838-12.102 22.029 0 54.996.326 92.28.896a545.19 545.19 0 0 0-18.305 22.715c-29.685.396-55.635.617-73.975.617Zm94.358-194.517c0-3.061 5.225-5.539 11.684-5.539 33.141 0 134.078 2.478 134.078 5.539 0 3.037-100.925 5.527-134.078 5.527-6.459 0-11.684-2.49-11.684-5.527Z"/><path fill="#5C0632" d="M397.498 280.413c.233 6.039.198 12.032-.104 17.909-58.72 2.327-114.402 5.865-114.402 9.845 0 3.909 54.437 7.412 112.482 9.728a217.664 217.664 0 0 1-3.945 19.724c-57.218 2.339-110.317 5.784-110.317 9.659 0 3.735 49.573 7.098 104.463 9.437-2.513 7.005-5.364 13.813-8.564 20.33-47.141 2.269-86.101 5.294-86.101 8.599 0 3.084 34.038 5.935 76.943 8.134-2.409 3.922-4.923 7.762-7.553 11.393-2.793 3.956-5.83 7.878-9.041 11.73-26.823 2.036-45.233 4.352-45.233 6.83 0 2.13 13.185 4.12 33.503 5.9-11.09 10.974-24.193 21.226-39.635 30.174 0 0-18.189-15.663-33.2-33.956-13.382-16.315-41.776-59.324-48.455-68.948-6.692-9.623-11.09-12.439-18.91-9.647-10.485 3.713-22.669 5.574-26.416 5.574s-5.806-1.454.477-3.944c6.261-2.526 31.012-14.209 43.196-38.355 13.685-27.195 1.653-64.747 1.653-64.747-4.597 20.073-15.047 27.567-15.047 27.567 3.375-18.642-.302-35.538-9.507-47.396l-5.132 23.599s-3.212-.163-11.16 6.517c-7.936 6.691-10.124 16.442-10.124 16.442 6.249 2.514 13.767-3.758 13.767-3.758-9.601 35.922-23.367 65.166-33.409 80.631-10.031 15.465-18.305 21.295-28.359 25.38-8.483 3.398-11.276-.594-11.276-.594-7.413-6.4-12.952-12.265-18.724-19.235 0 0-.465-.815 1.094-.792 4.131.059 11.485-7.005 13.091-9.937 1.839-3.363 1.641-5.935.722-6.11-.908-.151-2.479 2.514-10.45 7.541-7.925 5.015-11.567 1.536-14.209-1.257-2.048-2.222-.034-4.969 1.246-6.691 1.21-1.536 43.137-79.724 154.082-161.868C380.334 68.17 473.184 39.101 478.502 37.006c3.514-1.384 9.251-3.211 10.554-1.873 1.443 1.513 2.153 2.723 1.955 4.48-.186 1.746-1.117 2.642-7.843 5.609-55.81 24.588-120.964 65.573-157.981 89.429-45.523 22.179-88.986 53.855-90.569 54.611-3.502 2.176-.919 5.341 1.199 4.015 76.872-51.132 166.999-85.961 266.598-114.495 4.76-1.349 7.367-1.349 8.158-.302.896 1.164 1.28 2.49 1.42 3.956.128 1.827-1.385 2.793-5.47 4.387-107 39.752-185.862 76.675-236.587 110.806 0 0-5.248 3.165-5.318 6.831-.023 1.396 2.816 1.559 2.816 1.559 25.392.454 59.336 1.943 75.488 2.886 0 0-2.304 8.18-17.77 14.767-11.939 5.097-22.994 4.282-33.932 4.375-2.432-.046-4.492 2.409-2.549 5.027.978 1.304 24.251 38.774 108.827 47.339Z"/></g></svg>