<svg xmlns="http://www.w3.org/2000/svg" width="512pt" height="512pt" style="isolation:isolate" viewBox="0 0 512 512"><defs><clipPath id="a"><path d="M0 0h512v512H0z"/></clipPath></defs><g clip-path="url(#a)"><path fill="#F60" d="M491.411 204.826H327.628a20.393 20.393 0 0 1-20.521-20.521V20.522A20.395 20.395 0 0 0 286.586.129H225.28a20.393 20.393 0 0 0-20.521 20.393v163.783a20.393 20.393 0 0 1-20.521 20.521h-61.307a20.393 20.393 0 0 1-20.521-20.521V20.522A20.39 20.39 0 0 0 81.889 0H20.455A20.397 20.397 0 0 0 .062 20.522v470.956A20.396 20.396 0 0 0 20.583 512h470.828a20.396 20.396 0 0 0 20.521-20.522V225.732a20.39 20.39 0 0 0-20.521-20.906Zm-82.34 173.915a30.654 30.654 0 0 1-30.653 30.782h-41.042a30.652 30.652 0 0 1-30.654-30.782v-40.914a30.656 30.656 0 0 1 30.654-30.781h41.042a30.653 30.653 0 0 1 30.653 30.781v40.914Z"/></g></svg>