<svg xmlns="http://www.w3.org/2000/svg" width="512pt" height="512pt" style="isolation:isolate" viewBox="0 0 512 512"><defs><clipPath id="a"><path d="M0 0h512v512H0z"/></clipPath></defs><g clip-path="url(#a)"><path fill="#E00" d="M341.522 285.561c33.649 0 82.334-6.94 82.334-46.964.1-3.089-.18-6.178-.834-9.199l-20.039-87.041c-4.626-19.152-8.688-27.84-42.31-44.651-26.091-13.341-82.926-35.37-99.737-35.37-15.655 0-20.201 20.173-38.868 20.173-17.967 0-31.309-15.063-48.12-15.063-16.138 0-26.656 11.001-34.779 33.623 0 0-22.621 63.801-25.526 73.054a17.302 17.302 0 0 0-.591 5.218c0 24.8 97.639 106.112 228.47 106.112m87.498-30.61c4.654 22.03 4.654 24.343 4.654 27.248 0 37.657-42.338 58.556-97.989 58.556-125.774.081-235.948-73.619-235.948-122.331a49.627 49.627 0 0 1 4.062-19.716C58.557 200.859 0 208.929 0 260.626c0 84.675 200.631 189.038 359.489 189.038 121.794 0 152.511-55.086 152.511-98.58 0-34.214-29.588-73.055-82.926-96.241"/><path d="M429.02 254.843c4.654 22.03 4.654 24.343 4.654 27.248 0 37.657-42.338 58.556-97.989 58.556-125.774.081-235.948-73.619-235.948-122.331a49.627 49.627 0 0 1 4.062-19.716l9.844-24.369a17.277 17.277 0 0 0-.591 5.11c0 24.8 97.639 106.112 228.47 106.112 33.649 0 82.334-6.94 82.334-46.963.1-3.089-.18-6.179-.834-9.2l5.998 25.553Z"/></g></svg>