<svg xmlns="http://www.w3.org/2000/svg" width="2000" height="2000" viewBox="0 0 2000 2000"><path d="M969,0h34.32C997.6,8,989.85,13.9,982,19.47c-4,2.46-4.8,7.28-6.37,11.31-7.9-3.08-14.7,2.47-19.26,8.47-6.9,8.75-17.17,13.6-25.62,20.6l-6.18.23c-36.27-5-72.87-8.43-109.52-7.81A707.47,707.47,0,0,0,669.82,64.12a277.49,277.49,0,0,1-35.44,5.2C740.55,26.25,854.73,4.72,969,0Z" fill="#fff506"/><path d="M1003.32,0h35.16c29.12,2.65,58.37,3.82,87.32,8-3.88,3.73-6.8,10.27-12.9,10.37-2.4.15-4.78.25-7.17.3,1.92,1.91,3.82,3.85,5.74,5.78-13.45,7.75-28.37,13.5-39.07,25.25-12.1,9.1-24.28,18.45-37.67,25.58-.73,2.3-1.43,4.62-2.08,6.92-33.5-9.57-67.72-16.07-102-22.3,8.45-7,18.72-11.85,25.62-20.6,4.56-6,11.36-11.55,19.26-8.47,1.57-4,2.4-8.85,6.37-11.31C989.85,13.9,997.6,8,1003.32,0Z" fill="#fff510"/><path d="m1125.8 8c14.35 1.67 28.65 3.63 42.85 6.28-.93.52-2.75 1.52-3.68 2 18 6.28 36.23 12.25 53.6 20.27a165.55 165.55 0 0 1 -19.87 11.85c-9.55 4.8-14.18 18.1-26.35 17.22.05 1.15.1 2.31.18 3.45-10.65 2.7-15.1 13.93-23.53 19.93-9.52 8.19-24.22 10.24-29.9 22.55-7.8-3-15.72-5.78-23.57-8.68-20.65-7.8-41.62-14.83-62.9-20.7.65-2.3 1.35-4.62 2.08-6.92 13.39-7.13 25.57-16.48 37.67-25.58 10.7-11.75 25.62-17.5 39.07-25.25-1.92-1.93-3.82-3.87-5.74-5.78 2.39-.05 4.77-.15 7.17-.3 6.12-.12 9.04-6.66 12.92-10.34" fill="#fff618"/><path d="M1165,16.25c.93-.5,2.75-1.5,3.68-2,148.45,24.85,290.8,84.54,413.05,172.27.57,3.25,1.22,6.55,1.48,9.85-6.6,6.35-15.71,8.68-24.61,8.87a29.87,29.87,0,0,0-2.47,11.41c-3.22-1.11-6.45-2.11-9.65-3.2-7.5,15.35-26.27,17.22-39.55,25.32-2.17-2.35-4.35-4.7-6.5-7q-28.38-30-59.4-57.2c-21-19.05-43.92-35.85-67-52.22-25.71-18.68-53-34.95-80.91-50.13a656,656,0,0,0-74.5-35.68C1201.2,28.5,1183,22.53,1165,16.25Z" fill="#f9e300"/><path d="M1198.7,48.4a165.55,165.55,0,0,0,19.87-11.88,656,656,0,0,1,74.5,35.68c-5.19,5.38-10.09,11.57-17.34,14.28-5.15,1.67-7.75,6.54-10.83,10.57a49.28,49.28,0,0,1-7.73.78c-1.42,3.57-2.82,7.17-4.22,10.75-8.9,2-17,6.35-22,14.2-1.27-.51-2.52-1-3.75-1.6-1.88,1.34-3.73,2.69-5.6,4a112.82,112.82,0,0,1-24.7,23c-25.7-12.68-51.08-26.08-77.73-36.7C1124.8,99.22,1139.5,97.17,1149,89c8.41-6,12.86-17.21,23.51-19.91-.08-1.14-.13-2.3-.18-3.45C1184.52,66.5,1189.15,53.2,1198.7,48.4Z" fill="#fff61f"/><path d="M669.82 64.12A707.47 707.47 0 0 1 815 52.27c36.65-.62 73.25 2.76 109.52 7.81 3.46 1.9 6.83 4 10.21 6-1.93.28-3.83.52-5.76.77-7.22 22.35-15.52 44.53-27.67 64.68-5.38 15.1-17 29.2-14.45 46.05A872.72 872.72 0 0 0 780.18 170c-51.86-.51-103.66 4.32-154.7 13.34-1-.29-3.13-.9-4.16-1.22 0-13.78 9-24.88 13.11-37.48 5.69-19.42 14.67-37.62 23-56C661.85 80.65 666.5 72.7 669.82 64.12" fill="#f5e000"/><path d="M924.52,60.08l6.18-.23c34.23,6.23,68.45,12.73,102,22.3,21.28,5.87,42.25,12.9,62.9,20.7-5.77,8.35-7.72,18.42-11.68,27.6-4.07,3.07-9.69,3.35-14.52,4.67,4.22,1.08,8.45,2.23,12.67,3.4-1.9,2.18-3.77,4.38-5.67,6.55-.25,2.18-.47,4.36-.7,6.53-3.5,1.92-7.05,3.85-10.55,5.78,3.38.62,6.78,1.27,10.2,1.87a118.08,118.08,0,0,0-12,11.62,47.49,47.49,0,0,0-3.87,9.13c-.3,5.07-.63,10.13-.63,15.22a60.52,60.52,0,0,0-9.18,4.68c-3.25,4.4-2.62,10.35-3.5,15.5C1011.62,204,976.73,193.62,941,186.92c-17.9-3.9-36-7.09-54.15-9.37-2.58-16.85,9.07-31,14.45-46.05,12.15-20.15,20.45-42.33,27.67-64.68,1.93-.25,3.83-.49,5.76-.77C931.35,64,928,62,924.52,60.08Z" fill="#f8e600"/><path d="M634.38,69.32a277.49,277.49,0,0,0,35.44-5.2c-3.32,8.58-8,16.53-12.44,24.51-8.28,18.42-17.26,36.62-23,56-4.1,12.6-13.11,23.7-13.11,37.48,1,.32,3.13.93,4.16,1.22-16.51,3.3-33,6.83-49.28,11a796.54,796.54,0,0,0-194.12,75.2A807.71,807.71,0,0,0,223.8,381.27,218.58,218.58,0,0,1,198.9,402c59.5-81.27,132.77-152.19,214-211.62C481.27,141.1,555.5,99.38,634.38,69.32Z" fill="#f2db00"/><path d="m1293.07 72.2c27.88 15.18 55.2 31.45 80.91 50.13-5.78 8.22-15.71 10.64-23.75 15.69a180.34 180.34 0 0 1 -23.65 18.33c-2.88 3.27-5.78 6.65-9.65 8.75-14.53 8.27-29 18.05-37.93 32.6-4.25-2.87-8.55-5.65-12.87-8.4-22.65-14.37-45.21-29.1-69.28-41.07a112.82 112.82 0 0 0 24.7 -23c1.87-1.33 3.72-2.68 5.6-4 1.23.57 2.48 1.09 3.75 1.6 5-7.85 13.15-12.18 22-14.2 1.4-3.58 2.8-7.18 4.22-10.75a49.28 49.28 0 0 0 7.73 -.78c3.08-4 5.68-8.9 10.83-10.57 7.32-2.76 12.2-8.95 17.39-14.33" fill="#fff628"/><path d="m1095.55 102.85c7.85 2.9 15.77 5.65 23.57 8.68 26.65 10.62 52 24 77.73 36.7 24.07 12 46.63 26.7 69.28 41.07-1.25 5.85-2.33 11.75-4.06 17.5-7.87 8.48-5.39 23.23-16.64 28.68-1.18 11.74-8.15 21.5-12.16 32.3-3.09 11.17-6.29 22.8-13.82 31.94-38-24-77.75-45.47-119.18-63-17.8-7.8-35.89-14.82-54.2-21.3.88-5.15.25-11.1 3.5-15.5a60.52 60.52 0 0 1 9.18 -4.68c0-5.09.33-10.15.63-15.22a47.49 47.49 0 0 1 3.87 -9.13 118.08 118.08 0 0 1 12 -11.62c-3.42-.6-6.82-1.25-10.2-1.87 3.5-1.93 7.05-3.86 10.55-5.78.23-2.17.45-4.35.7-6.53 1.9-2.17 3.77-4.37 5.67-6.55-4.22-1.17-8.45-2.32-12.67-3.4 4.83-1.32 10.45-1.6 14.52-4.67 4.01-9.2 5.96-19.27 11.73-27.62" fill="#faea00"/><path d="m1374 122.33c23.1 16.37 46 33.17 67 52.22a104.13 104.13 0 0 1 -17.48 22.7c-16.35 2.5-28.32 14.9-38.9 26.57-1.25-.77-2.5-1.52-3.72-2.25-3.82 4.68-8.15 9.05-13.8 11.48-8.47 3.55-11.65 13.23-19.55 17.62-22.2-18.49-44.6-36.79-68.55-53 8.9-14.55 23.4-24.33 37.93-32.6 3.87-2.1 6.77-5.48 9.65-8.75a180.34 180.34 0 0 0 23.65 -18.32c8.04-5 17.97-7.45 23.77-15.67" fill="#fff731"/><g fill="#a8dd1a"><path d="m625.48 183.37c51-9 102.84-13.85 154.7-13.34-3.48 7.4-7.43 14.77-8.9 22.89-1.23 6.73 1.22 13.33 2.9 19.73-2 4.25-4 8.47-6 12.73.4.92 1.2 2.77 1.6 3.72 2.25-1.32 4.5-2.65 6.77-4-.24 3.67-.52 7.34-.79 11-6.16 2.6-10.4 7.43-10.36 14.35q3-3.34 6-6.72c1.83 2.85 3.66 5.67 5.48 8.52q-3.83 1.65-7.6 3.35c1.75 3.77 3.65 7.5 5.72 11.12-2.87-.52-5.72-1-8.57-1.55 6.4 7.83 1.72 18.08 5.1 26.9l-2.42.08a992.91 992.91 0 0 0 -138.46 18.2c-17.47 2-34 10.52-51.82 8.5 4.2-4.3 4.62-9.67 1.1-14.5-1.17-9.7-1-19.85 3.05-28.9-2.4-1.72-4.83-3.42-7.25-5.12 2.1-7.18 7-14.71 4.12-22.3a26 26 0 0 0 -6 -11.41q5.41-.1 10.81-.29c-2.83-7.91-6.45-17-.83-24.65-2.35-5.88-5-11.63-7.6-17.38 16.27-4.1 32.77-7.63 49.25-10.93"/><path d="m459.52 369.4c5.63-2.45 11.2-5.52 17.41-6.28 18.49 13.76 33.07 31.78 45.82 50.81 9.18 2.67 12.25 12.92 17.9 19.57-24.33 11.37-48.57 23-71.95 36.22-19.12 11-37.65 22.93-56.15 34.93-.12-.83-.4-2.52-.53-3.35-4.15.72-8.25 1.65-12.35 2.55 2.55-2.82 5.08-5.65 7.63-8.45-5.5-5.6-12.3-9.52-18.65-14a72.92 72.92 0 0 1 -10.8 -10.2c-.48-4.15-.5-8.63-3-12.17a94 94 0 0 0 -27.75 -27.53c15.47-10.93 31.83-20.53 48.38-29.7 20.97-11.55 42.42-22.15 64.04-32.4"/><path d="m172.7 1032.45c8.72-.28 17.85.12 25.12 5.6 0-1 0-3.12 0-4.18 2.18 1.61 4.35 3.26 6.53 4.88 2.12-.3 4.27-.58 6.42-.82 7.55 4.67 16.48 3.52 24.78 2.1 17.47-2.73 34.67 2.8 52.12 2.77a847 847 0 0 0 -13.2 98c-2 26.53-2.6 53.15-2.35 79.75-1.85-8.77-3.53-17.6-6.25-26.1-1.5-6.88-10-6.82-15.25-9.35-1.75 3.85-2.9 7.95-4.35 11.95-1.37-2.7-2.87-5.27-4.3-7.9-1.5.62-3 1.25-4.45 1.9-.8-3.1-1.62-6.2-2.42-9.25a87.09 87.09 0 0 1 -8.25 5.1c-8.16-1.22-15.88-5.63-24.35-4.38-9.9 1.23-19.86-.1-29.51-2.35-2.25 2.53-4.47 5.13-6.74 7.68.27-2.4.49-4.78.7-7.15-4.41.9-8.78 1.78-13.18 2.73 0 9.2-1.65 18.25-3.2 27.27-1.12-15.25-.13-30.48 1.48-45.65 3.02-44.65 10.65-88.95 20.65-132.6"/></g><path d="M780.18 170a872.72 872.72 0 0 1 106.67 7.52C905 179.83 923.1 183 941 186.92c-2.25 1.06-4.48 2.08-6.7 3.13a90.55 90.55 0 0 1 9.33 24.85l-6.18 2.2c1.82 1.07 3.65 2.15 5.5 3.22-3.25 5.8-9.1 11.76-6.45 18.91 3.8 12-1.4 24.87 4.48 36.37-1.33 8.92-2.08 18-.73 26.93-43.12-6.23-86.62-11.06-130.25-10.35-12.85.15-25.67-.1-38.5-.06-3.38-8.82 1.3-19.07-5.1-26.9 2.85.53 5.7 1 8.57 1.55-2.07-3.62-4-7.35-5.72-11.12q3.78-1.69 7.6-3.35c-1.82-2.85-3.65-5.67-5.48-8.52q-3 3.38-6 6.72c0-6.92 4.2-11.75 10.36-14.35.27-3.68.55-7.35.79-11-2.27 1.32-4.52 2.65-6.77 4-.4-.95-1.2-2.8-1.6-3.72 2-4.26 4-8.48 6-12.73-1.68-6.4-4.13-13-2.9-19.73C772.75 184.8 776.7 177.43 780.18 170" fill="#a5da15"/><path d="M1423.52,197.25a104.13,104.13,0,0,0,17.48-22.7q31,27.22,59.4,57.2c-6.92,3.77-14,7.28-20.9,11.07a26.26,26.26,0,0,1-14.65,12.23c-5.5,9.73-15.85,14.15-25.12,19.37-1,1.93-2.08,3.85-3.08,5.8-2,.65-4,1.33-6,2-2.15,3.08-4.12,6.33-6.77,9-7.13,3.63-17.8,2-20.3,11.56-18.63-17.43-36.46-35.78-56.08-52.11,7.9-4.39,11.08-14.07,19.55-17.62,5.65-2.43,10-6.8,13.8-11.48,1.22.73,2.47,1.48,3.72,2.25C1395.2,212.15,1407.17,199.75,1423.52,197.25Z" fill="#fff73a"/><path d="m941 186.92c35.73 6.7 70.62 17 105.07 28.48 18.31 6.48 36.4 13.5 54.2 21.3-1 3.25-1.89 6.53-2.82 9.8-2.93-1.15-5.87-2.3-8.77-3.42-2.06 10.27-.7 20.92-3.5 31.09 2.69 3.38 5.52 6.68 8.39 10a42 42 0 0 0 -3.92 27.05c.1 4.77 5.78 5.62 8.95 8-3.57 2.63-7.55 5-9.92 8.86 1.27 6.37 5.44 11.62 9.32 16.67-39.6-13.7-79.6-26.53-120.7-34.85a372 372 0 0 0 -37 -7.32c-1.35-8.95-.6-18 .73-26.93-5.88-11.5-.68-24.42-4.48-36.37-2.65-7.15 3.2-13.11 6.45-18.91-1.85-1.07-3.68-2.15-5.5-3.22l6.18-2.2a90.55 90.55 0 0 0 -9.33 -24.85c2.17-1.1 4.4-2.1 6.65-3.18" fill="#a2d811"/><path d="m1581.7 186.5c2.15 1.67 4.25 3.43 6.37 5.15 17.13 21.95 37.28 41.35 54.43 63.35a812.73 812.73 0 0 1 114.82 189.72 167.06 167.06 0 0 1 -21.25 14.6c-.35-1.4-1-4.14-1.34-5.52a84.21 84.21 0 0 1 -15 12.52c.35 1.53.7 3.06 1.07 4.58-3.17-.83-6.32-1.67-9.47-2.48-.15 2.23-.25 4.45-.35 6.68-3.5 1.15-7 2.35-10.5 3.43a26.39 26.39 0 0 0 -6.37 9.8c.12-4.38.17-8.75.22-13.13-2.67 5-5.37 10.05-8.15 15-.08-2.75-.1-5.5-.1-8.23-3.67 4.5-5.78 12.41-12.5 12.88-2.07.28-4.15.43-6.17.6-7.53-18.92-16-37.5-24.58-55.95-12.32-26.9-27.47-52.35-42.77-77.62a772.61 772.61 0 0 0 -50.21 -72.13c-13.15-18-28.22-34.35-42.92-51 13.28-8.1 32-10 39.55-25.32 3.2 1.09 6.43 2.09 9.65 3.2a29.87 29.87 0 0 1 2.47 -11.41c8.9-.19 18-2.52 24.61-8.87-.29-3.3-.94-6.6-1.51-9.85" fill="#fbe900"/><path d="m1266.13 189.3c4.32 2.75 8.62 5.53 12.87 8.4 24 16.18 46.35 34.48 68.55 53 19.62 16.33 37.45 34.68 56.08 52.11 7.72 7.89 14.92 16.29 22.24 24.57-3.27 3.55-4.87 8.1-7.07 12.3-3 3.7-6.2 7.2-8.18 11.55 2.65 9.4-.77 22.25-12.17 23.1 2.25 2 4.4 4.15 6.67 6.15a53.15 53.15 0 0 0 -11.12 9.2c1.77.75 3.55 1.5 5.35 2.28l-8.18.82c1.13 2 2.28 4.07 3.43 6.1-2.52.12-5 .25-7.55.4 1.85 1.17 3.75 2.35 5.65 3.53a133.87 133.87 0 0 0 -13.5 30.2c-33.2-34.81-68.63-67.64-107.2-96.51q-25.49-19.5-52.57-36.78c7.53-9.14 10.73-20.77 13.82-31.94 4-10.8 11-20.56 12.16-32.3 11.25-5.45 8.77-20.2 16.64-28.68 1.75-5.75 2.83-11.65 4.08-17.5" fill="#fcef00"/><path d="M1588.07,191.65c57.16,40.15,108.51,88.15,155.53,139.67,62.65,69.95,116.1,148.4,156.6,233.18,30.85,107.15,42,220.28,28.6,331.15-1.53-2.93-3-5.77-4.63-8.6a112,112,0,0,1-13.72-1.38,50,50,0,0,1-.72-8.69c-1.78.17-3.56.34-5.28.52a86.31,86.31,0,0,1,1.38,11.58,83.9,83.9,0,0,1-6.1,9.47,93.41,93.41,0,0,1,.87-14.3c-2.48-.23-4.9-.43-7.33-.65-5.39-5.33-12.37-8.33-19.62-10.15q-3.45-5.93-6.77-11.85c-2.56,1.2-5.13,2.3-7.63,3.5a35.87,35.87,0,0,0-22.77-7.2c-2.73-4.15-5.5-8.3-8.18-12.47-1.85,5.05-3.85,10-5.55,15.12,2.5-26.07,1.57-52.3,4.18-78.35,1-14.1-2-28.08-1.83-42.15.05-10.45-.6-20.87-1.5-31.25-3,1.87-5.72,4.22-9,5.43a36.74,36.74,0,0,1-6.65-5.11c-1,4.85-.5,10.73-4.57,14.26-10.13,9.62-23.66,14.19-37.2,16.32.77,1.82,1.57,3.65,2.42,5.48-7.33,1.72-15.6,2.65-21,8.45-6.28,6.4-14.88,9.57-21.76,15.19-.72-5.65-1.49-11.27-2.07-16.92-2-19.88-3.45-39.8-6-59.6a775.48,775.48,0,0,0-16.9-90.72c-6.65-28.9-15.88-57.11-25.8-85-2.45-7.08-5-14.15-7.67-21.13,2-.17,4.1-.32,6.17-.6,6.72-.47,8.83-8.38,12.5-12.88,0,2.73,0,5.48.1,8.23,2.78-4.95,5.48-10,8.15-15,0,4.38-.1,8.75-.22,13.13a26.39,26.39,0,0,1,6.37-9.8c3.53-1.08,7-2.28,10.5-3.43.1-2.23.2-4.45.35-6.68,3.15.81,6.3,1.65,9.47,2.48-.37-1.52-.72-3-1.07-4.58a84.21,84.21,0,0,0,15-12.52c.32,1.38,1,4.12,1.34,5.52a167.06,167.06,0,0,0,21.25-14.6A812.73,812.73,0,0,0,1642.5,255C1625.35,233,1605.2,213.6,1588.07,191.65Z" fill="#fdf100"/><path d="M382.08,269.55a796.54,796.54,0,0,1,194.12-75.2c2.62,5.75,5.25,11.5,7.6,17.38-5.62,7.62-2,16.74.83,24.65q-5.4.18-10.81.29a26,26,0,0,1,6,11.41c2.9,7.59-2,15.12-4.12,22.3,2.42,1.7,4.85,3.4,7.25,5.12-4.1,9.05-4.22,19.2-3.05,28.9,3.52,4.83,3.1,10.2-1.1,14.5,17.85,2,34.35-6.53,51.82-8.5a992.91,992.91,0,0,1,138.46-18.2c-1.4,4-4.75,8.15-3,12.55,2.83,8.83,6.6,17.35,9.15,26.3,1.27-.4,2.58-.8,3.9-1.18,8,4.25,21,7.28,20.75,18.48.22,2.07.3,4.17.45,6.28a55.63,55.63,0,0,0,12.22,5.27c-3.6,1.65-7.17,3.35-10.87,4.75-25.75,3.9-51.73,6.27-77.2,11.75-48.5,8.42-95.9,22.53-141.87,40-14.23,5.1-28.11,11.09-42,17.07-5.65-6.65-8.72-16.9-17.9-19.57-12.75-19-27.33-37.05-45.82-50.81-6.21.76-11.78,3.83-17.41,6.28-21.62,10.25-43.07,20.85-64,32.4-2.7-4.4-5.55-8.75-7.83-13.4-2.72-4.52,2.07-9,3.45-13.25-2.85.3-5.73.57-8.58.88,0-1,.13-3.08.16-4.08,2.47-.35,4.95-.68,7.42-1a95.42,95.42,0,0,1-3.65-14c-2.55,2.83-5.1,5.63-7.65,8.45,3.35-9.65,2.65-19.94-3.12-28.54,2.7-3.15,5.39-6.31,8.09-9.45-.15-3-.32-6.05-.47-9.08,2.47-2.2,5-4.4,7.45-6.6-2.2-4.3-4.43-8.63-6.65-12.93,2.45-4.3,6.7-8.42,6-13.77C389.45,279.07,385.22,274.4,382.08,269.55Z" fill="#ade020"/><path d="m1479.5 242.82c6.9-3.79 14-7.3 20.9-11.07 2.15 2.3 4.33 4.65 6.5 7 14.7 16.65 29.77 33 42.92 51-9.1 7.17-18.12 14.77-29 19.28l5.8 1.87c-26.92 12.15-49.14 32-72.15 50.1-9.34-11.4-18.8-22.7-28.65-33.65-7.32-8.28-14.52-16.68-22.24-24.57 2.5-9.58 13.17-7.93 20.3-11.56 2.65-2.67 4.62-5.92 6.77-9 2-.67 3.92-1.35 6-2 1-2 2-3.87 3.08-5.8 9.27-5.22 19.62-9.64 25.12-19.37a26.26 26.26 0 0 0 14.65 -12.23" fill="#fff741"/><path d="m1097.45 246.5c.93-3.27 1.85-6.55 2.82-9.8 41.43 17.55 81.16 39 119.18 63q27 17.25 52.57 36.78c-4.42 7.88-10.5 14.57-15.72 21.88-.25.42-.75 1.25-1 1.67 3.55 1.45 9.23.35 11.18 4.25.93 7.43-.25 15.42 4.4 21.95-7.62.28-14.08 4.08-18.9 9.82l12 .31c-.83 6.45-1.76 12.87-2.73 19.27-3.08.55-6.2 1-9.28 1.52 2.18.9 4.36 1.8 6.56 2.76.57 2.39 1.19 4.85 1.79 7.27-51.19-32.77-105.39-60.9-162.27-82.5-3.88-5.05-8-10.3-9.32-16.67 2.37-3.86 6.35-6.23 9.92-8.86-3.17-2.37-8.85-3.22-8.95-8a42 42 0 0 1 3.92 -27.05c-2.87-3.28-5.7-6.58-8.39-10 2.8-10.17 1.44-20.82 3.5-31.09 2.85 1.19 5.79 2.34 8.72 3.49" fill="#9fd60c"/><path d="M223.8,381.27A807.71,807.71,0,0,1,382.08,269.55c3.14,4.85,7.37,9.52,8.07,15.5.65,5.35-3.6,9.47-6,13.77,2.22,4.3,4.45,8.63,6.65,12.93-2.48,2.2-5,4.4-7.45,6.6.15,3,.32,6,.47,9.08-2.7,3.14-5.39,6.3-8.09,9.45,5.77,8.6,6.47,18.89,3.12,28.54,2.55-2.82,5.1-5.62,7.65-8.45a95.42,95.42,0,0,0,3.65,14c-2.47.32-5,.65-7.42,1,0,1-.13,3.05-.16,4.08,2.85-.31,5.73-.58,8.58-.88-1.38,4.2-6.17,8.73-3.45,13.25,2.28,4.65,5.13,9,7.83,13.4-16.55,9.17-32.91,18.77-48.38,29.7-43.42,30.15-85,63.17-122.5,100.45-14.6,16.2-29.73,31.93-44.32,48.12-1.05-2.15-2.08-4.27-3.1-6.39,1.52-3,3.34-5.85,4.24-9.1-2.32-2.85-4.85-5.5-7.35-8.15.88-.63,1.76-1.23,2.63-1.83a36.68,36.68,0,0,0,1.35-12.25c-3.65,2.55-7.25,5.17-10.85,7.83a63,63,0,0,0,7.63-12c-.45-1.65-.91-3.3-1.33-4.93a145.2,145.2,0,0,0,11.25-12.94c-2.65-3.71-5.27-7.38-7.85-11.1-3.82,0-7.65,0-11.45.07,1.85-1.38,3.7-2.77,5.58-4.15.22-1.33.42-2.67.64-4,2.05-.15,4.08-.27,6.13-.4q-6.15-4.61-12.28-9.25a150.28,150.28,0,0,1,14.38-15.15c-2.05-3.6-4.13-7.2-6.2-10.8,1.72-1.6,3.48-3.2,5.2-4.8L173.5,459c1.8-2.08,3.6-4.16,5.42-6.23-2.32-.15-4.65-.28-7-.4a130.88,130.88,0,0,1,2.25-15.78A328.33,328.33,0,0,1,198.9,402,218.58,218.58,0,0,0,223.8,381.27Z" fill="#b0e325"/><path d="m1520.87 309c10.83-4.51 19.85-12.11 29-19.28a772.61 772.61 0 0 1 50.13 72.16c-15.3 4.92-26.16 17.79-38.68 27.24-2-.19-4-.37-5.95-.57-4.15 8.62-13.05 13.12-19 20.35a86.81 86.81 0 0 1 -12.83 7.37c-8 2.81-13.22 9.65-17.55 16.63-16.28-24.6-32.87-49-51.53-71.9 23-18.08 45.23-37.95 72.15-50.1" fill="#fff84a"/><g fill="#b2e529"><path d="m769.08 292.2l2.42-.08c12.83 0 25.65.21 38.5.06 43.63-.71 87.13 4.12 130.25 10.35a372 372 0 0 1 37 7.32c1.25 8.83 3 17.6 5 26.3 4-4.6 8.94-8.93 15.25-5.58-1.28 2.33-2.56 4.65-3.81 6.95 2.6 2.15 5.1 4.41 7.71 6.58l-5.63 2.37c3 1 5.93 2.08 8.9 3.11 5.4 7.2 9 15.47 12.75 23.64-27.3-3.87-54.62-7.57-82.15-9.47-44.48-3.93-89.12-1.67-133.6.9 3.7-1.4 7.27-3.1 10.87-4.75a55.63 55.63 0 0 1 -12.22 -5.27c-.15-2.11-.23-4.21-.45-6.28.25-11.2-12.75-14.23-20.75-18.48-1.32.38-2.63.78-3.9 1.18-2.55-8.95-6.32-17.47-9.15-26.3-1.74-4.4 1.61-8.55 3.01-12.55"/><path d="m534.35 580.48c1.83-2.73 3.72-5.41 5.52-8.16 1 5.4 3.35 10.4 7.88 13.78a829.72 829.72 0 0 0 -142.07 165.3 109.24 109.24 0 0 0 -30.13 -10.4c-9.3-1.36-18.53 1.44-27.75 2.17-6.15 1-11.95-1.83-17.75-3.3-.23 1.05-.67 3.1-.9 4.12-5.75-3.17-11.43-6.4-17.13-9.6 1.33-1.92 2.63-3.84 4-5.77 26-36.52 57.56-68.68 89.25-100.27a820.42 820.42 0 0 1 62.15 -53.56c3.95.63 7.91 1.25 11.86 1.91-.18 1.62-.35 3.25-.5 4.89 10-4.72 21.07-7.1 31.75-3-4.25 2.06-8.51 4.13-12.73 6.25 10.52.2 21.35.15 31-4.67 1.82.11 3.68.18 5.55.31"/></g><g fill="#b6e82f"><path d="m977.3 309.85c41.1 8.32 81.1 21.15 120.7 34.85 56.88 21.6 111.08 49.73 162.27 82.5 49 32.32 94.81 69.62 135.6 111.92 14.66 15.53 30.5 30.33 41.48 48.83-32.58-32.05-66.95-62.55-105.23-87.75-24.52-16.78-51.1-30.15-77.19-44.23-4-3.05-7.86-6.34-12.21-8.92-71-35.32-147.32-59.42-225.27-73.83-3.7-8.17-7.35-16.44-12.75-23.64-3-1-6-2.06-8.9-3.11l5.63-2.37c-2.61-2.17-5.11-4.43-7.71-6.58 1.25-2.3 2.53-4.62 3.81-6.95-6.31-3.35-11.21 1-15.25 5.58-1.95-8.7-3.73-17.47-4.98-26.3"/><path d="M898.1,403.12a233.62,233.62,0,0,1,40.2-.47c-37.3,5-74.55,11.38-110.58,22.5C776.7,440,728.5,463.1,682.8,490c-14.95,5.79-27.9,15.39-41.28,24a824.18,824.18,0,0,0-93.77,72.07c-4.53-3.38-6.83-8.38-7.88-13.78-1.8,2.75-3.69,5.43-5.52,8.16-1.87-.13-3.73-.2-5.6-.28-9.65,4.82-20.48,4.87-31,4.67,4.22-2.12,8.48-4.19,12.73-6.25-10.68-4.1-21.75-1.72-31.75,3,.15-1.64.32-3.27.5-4.89-4-.66-7.91-1.28-11.86-1.91,13.83-11.25,28.7-21.07,42.93-31.79,32.75-22.55,67.6-41.88,103-59.91,43.9-21.62,90.09-38.32,137-52.17C798.53,416.85,848.27,408.93,898.1,403.12Z"/><path d="m135.1 827.05c8.45 7.58 12.35 18.28 13.32 29.38l7.73-3.68c0 3.7 0 7.37.08 11.07 1.79 2.28 3.6 4.56 5.34 6.88 2.81 9.78 10.65 16.9 14.23 26.35 2.47 6.37 6.63 11.88 11.35 16.77a68.41 68.41 0 0 1 -.38 12.63c2.71-1 5.38-1.88 8.08-2.77-.58 3.57-1.1 7.14-1.65 10.74 3 .23 6 .48 9 .73-11.17 32-22.32 64.12-29.52 97.3-10 43.65-17.63 88-20.62 132.65-1.61 15.17-2.6 30.4-1.48 45.65a715.29 715.29 0 0 0 11.25 152.52 781.73 781.73 0 0 0 47.37 168.93 839 839 0 0 0 63.1 125.45c18.3 30.27 39.75 58.42 60.55 87-68.3-60.65-127.75-131.15-176.85-208.13-34.62-54.7-64.74-112.5-87.59-173.12 1.22-16.35-4.23-32-6.31-48a825.89 825.89 0 0 1 0 -258.23c9.23-60.34 26.37-119.17 47.9-176.17 8.47-17.92 15.85-36.37 25.1-53.95"/></g><g fill="#fff500"><path d="m1425.87 327.35c9.85 10.95 19.31 22.25 28.65 33.65 18.66 22.88 35.25 47.3 51.53 71.9 16.25 25 29.85 51.5 43.9 77.72 11.85 23.83 21.8 48.53 31.85 73.15a872.88 872.88 0 0 1 29.75 96.53c6.5 25.58 11.1 51.58 15.35 77.6 7.2 48.05 9 96.7 8.87 145.25-2.27 30.8-4.29 61.63-8.45 92.25-8 52.9-20.67 105.18-38.65 155.6-8.94 23.3-16.4 47.48-28.92 69.2l-.15-3c34-87.7 46.6-183.3 37.67-276.9a13.31 13.31 0 0 0 -2 -13.15c-.38-4.6-.72-9.17-1-13.75 1.1-16.25-1.83-32.3-4.37-48.28-25-160.85-99.88-313-210.68-432.14a133.87 133.87 0 0 1 13.5 -30.2c-1.9-1.18-3.8-2.36-5.65-3.53 2.5-.15 5-.28 7.55-.4-1.15-2-2.3-4.07-3.43-6.1l8.18-.82c-1.8-.78-3.58-1.53-5.35-2.28a53.15 53.15 0 0 1 11.12 -9.2c-2.27-2-4.42-4.15-6.67-6.15 11.4-.85 14.82-13.7 12.17-23.1 2-4.35 5.23-7.85 8.18-11.55 2.18-4.2 3.78-8.75 7.05-12.3"/><path d="M1807.9,709.12a36.74,36.74,0,0,0,6.65,5.11c3.33-1.21,6.07-3.56,9-5.43.9,10.38,1.55,20.8,1.5,31.25-.13,14.07,2.78,28.05,1.83,42.15-2.61,26-1.68,52.28-4.18,78.35-9,91.28-34.77,180.67-73.32,263.8-8.83,18.75-19.43,36.63-27.65,55.68-24.33,39.7-49.61,79-79.28,115-25.9,30.62-52.17,61.15-82.68,87.38a798.91,798.91,0,0,1-79.49,64.52c-29.35,22.83-62.13,40.72-94.5,58.85-74.35,38.27-154.08,66.48-236.5,81-14.08,2.82-28.3,5.57-42.73,4.29,56.82-11.2,112.5-28.92,164.1-55.42,41.45-21,80-47.25,117-75.2,30.9-20,58.34-44.85,85-70.07,123.66-119.11,208.66-278,238-447.21a676.36,676.36,0,0,0,12.75-143.67c-.1-15.85.26-31.7.18-47.55.58,5.65,1.35,11.27,2.07,16.92,6.88-5.62,15.48-8.79,21.76-15.19,5.42-5.8,13.69-6.73,21-8.45-.85-1.83-1.65-3.66-2.42-5.48,13.54-2.13,27.07-6.7,37.2-16.32C1807.4,719.85,1807,714,1807.9,709.12Z"/></g><path d="m1256.3 358.38c5.22-7.31 11.3-14 15.72-21.88 38.55 28.87 73.93 61.7 107.18 96.48 110.8 119.1 185.72 271.29 210.68 432.14 2.54 16 5.47 32 4.37 48.28-7.77-45.63-18.72-90.87-36.13-133.85-27.59-70.87-70-135.22-120.77-191.6-11-18.5-26.82-33.3-41.48-48.83-40.79-42.3-86.55-79.6-135.6-111.92-.6-2.42-1.22-4.88-1.79-7.27-2.2-1-4.38-1.86-6.56-2.76 3.08-.55 6.2-1 9.28-1.52 1-6.4 1.9-12.82 2.73-19.27l-12-.31c4.82-5.74 11.28-9.54 18.9-9.82-4.65-6.53-3.47-14.52-4.4-21.95-2-3.9-7.63-2.8-11.18-4.25.3-.42.8-1.25 1.05-1.67" fill="#9bd206"/><path d="m801.7 364.65c44.48-2.57 89.12-4.83 133.6-.9-5.27 1.4-10.65 3.15-14.7 6.93-10.5 9.52-20.65 19.62-28.4 31.57 1.48.23 4.42.65 5.9.87-49.83 5.81-99.57 13.73-147.8 27.83-2.9-5.67-4.63-11.87-7.45-17.57-2.73-5.95-9.45-8.13-14.65-11.28 2-1.4 4-2.8 6-4.18l-4.75-2.35q-2.36-9.63-5-19.17c25.55-5.48 51.55-7.85 77.25-11.75" fill="#e2f012"/><path d="m1561.35 389.12c12.52-9.45 23.38-22.32 38.68-27.24 15.3 25.27 30.45 50.72 42.77 77.62-1.25-.45-3.75-1.35-5-1.78-2 3.53-3.72 7.13-6 10.48-2.25 0-4.47-.22-6.65-.4-.75 1.43-1.48 2.88-2.17 4.3-13.45 2.75-24.23 12.07-30.91 23.82a108 108 0 0 1 -15.69 3.71c.82 2 1.64 4 2.52 6.05-3.6.22-7.17.52-10.73.77 0 2.28.13 4.58.2 6.85-3.87.87-7.87 1.45-11.45 3.17-3.22 4.23-5 9.3-7 14.15-14-26.22-27.65-52.77-43.9-77.72 4.33-7 9.5-13.82 17.55-16.63a86.81 86.81 0 0 0 12.83 -7.37c5.92-7.23 14.82-11.73 19-20.35 1.98.2 3.95.38 5.95.57" fill="#fff853"/><path d="m920.6 370.68c4-3.78 9.43-5.53 14.7-6.93 27.53 1.9 54.85 5.6 82.15 9.47 78 14.41 154.25 38.51 225.27 73.83 4.35 2.58 8.18 5.87 12.21 8.92-28.43-11.72-56.81-23.8-86.51-32-74.4-22-153-28.17-230.12-21.35a233.62 233.62 0 0 0 -40.2 .47c-1.48-.22-4.42-.64-5.9-.87 7.8-11.92 17.9-22.02 28.4-31.54" fill="#eaf10d"/><path d="m582.63 416.43c46-17.5 93.37-31.61 141.87-40q2.63 9.53 5 19.17l4.75 2.35c-2 1.38-4 2.78-6 4.18 5.2 3.15 11.92 5.33 14.65 11.28 2.82 5.7 4.55 11.9 7.45 17.57-46.88 13.85-93.07 30.55-137 52.17-1.83-8.19-3-16.89-7.58-24.09-5.53-6.86-11.7-13.15-17.53-19.73 2.61.52 5.2 1.07 7.83 1.65-.77-.85-2.3-2.53-3-3.38-7.82-4.3-8.62-13.48-10.44-21.17" fill="#dbef17"/><path d="m540.65 433.5c13.87-6 27.75-12 42-17.07 1.82 7.69 2.62 16.87 10.37 21.14.75.85 2.28 2.53 3 3.38-2.63-.58-5.22-1.13-7.83-1.65 5.83 6.58 12 12.87 17.53 19.73 4.62 7.2 5.75 15.9 7.58 24.09-35.43 18-70.28 37.36-103 59.91-2.75.62-5.5 1.14-8.25 1.67-4.27-12.13-9.25-24-14.07-35.93-2-6.29-9.38-7.3-15-7.8 2-2.29 4-4.62 6-6.92-6.53-6.53-11.65-14.73-10.23-24.33 23.33-13.25 47.57-24.85 71.9-36.22" fill="#d4ed1c"/><g fill="#a5da14"><path d="m224.6 532c37.5-37.28 79.08-70.3 122.5-100.45a94 94 0 0 1 27.72 27.45c2.53 3.54 2.55 8 3 12.17a72.92 72.92 0 0 0 10.8 10.2c6.35 4.48 13.15 8.4 18.65 14-2.55 2.8-5.08 5.63-7.63 8.45 4.1-.9 8.2-1.83 12.35-2.55.13.83.41 2.52.53 3.35-18.3 12.48-36.05 25.68-53.08 39.82-23.77 17.68-44.37 39-66.32 58.8l-9.57-8c.22-1.77.45-3.52.67-5.28-5.28-1.69-12.48-1.4-15.47-6.9-1.5-5.14-.1-10.72-1.7-15.84-4.28-6.6-12.93-5.55-19.71-6.13-1.79-6.8-2.85-13.93-6.05-20.23-4.87-4.04-11.01-6.21-16.69-8.86"/><path d="m153.8 1183.48c4.4-1 8.77-1.83 13.18-2.73-.21 2.37-.43 4.75-.7 7.15 2.27-2.55 4.49-5.15 6.74-7.68 9.65 2.25 19.61 3.58 29.51 2.35 8.47-1.25 16.19 3.16 24.35 4.38a87.09 87.09 0 0 0 8.25 -5.1c.8 3.05 1.62 6.15 2.42 9.25 1.48-.65 2.95-1.28 4.45-1.9 1.43 2.63 2.93 5.2 4.3 7.9 1.45-4 2.6-8.1 4.35-11.95 5.28 2.53 13.75 2.47 15.25 9.35 2.72 8.5 4.4 17.33 6.25 26.1 1 25.72 2.55 51.45 5.55 77.05 2.8 24 6.7 47.83 11.4 71.5-3 .65-5.87 1.33-8.8 2-6.95-4.78-14.92-8-23.47-7.37.39 2.7.77 5.42 1.15 8.12-9.1-7.32-20-11.13-31.18-14-.42 3.27-.8 6.6-1.2 9.93-2.33-1.71-4.65-3.38-7-5.05l2.48-6c-3.15 1.79-6.35 3.57-9.5 5.39-.2-1-.63-3.17-.83-4.22-13.49 2.67-28.05 6.65-40.84-.8-.93 1-1.83 2-2.73 3-2-.32-3.95-.65-5.92-1 .14 1 .42 3 .57 4a715.29 715.29 0 0 1 -11.25 -152.52c1.57-8.9 3.24-17.95 3.22-27.15"/></g><path d="M6.58,884.38C25.13,724.57,82.25,568.8,174.2,436.62A130.88,130.88,0,0,0,172,452.4c2.32.12,4.65.25,7,.4-1.82,2.07-3.62,4.15-5.42,6.23l5.4,1.72c-1.72,1.6-3.48,3.2-5.2,4.8,2.07,3.6,4.15,7.2,6.2,10.8a150.28,150.28,0,0,0-14.38,15.15q6.12,4.65,12.28,9.25c-2.05.13-4.08.25-6.13.4-.22,1.33-.42,2.67-.64,4-1.88,1.38-3.73,2.77-5.58,4.15,3.8-.05,7.63,0,11.45-.07,2.58,3.72,5.2,7.39,7.85,11.1a145.2,145.2,0,0,1-11.25,12.94c.42,1.63.88,3.28,1.33,4.93a63,63,0,0,1-7.63,12c3.6-2.66,7.2-5.28,10.85-7.83a36.68,36.68,0,0,1-1.35,12.25c-.87.6-1.75,1.2-2.63,1.83,2.5,2.65,5,5.3,7.35,8.15-.9,3.25-2.72,6.12-4.24,9.1,1,2.12,2,4.24,3.1,6.39-21.11,24.28-40.93,49.78-58.06,77A759.2,759.2,0,0,0,44.83,801.47q-13.55,32.67-24.26,66.4C15.05,884.63,12,902.2,3.9,918.05,4.5,906.8,5.17,895.55,6.58,884.38Z" fill="#b3e62a"/><path d="m1631.85 448.2c2.23-3.35 4-6.95 6-10.48 1.25.43 3.75 1.33 5 1.78 8.63 18.45 17 37 24.58 55.95 2.72 7 5.22 14.05 7.67 21.13-18.42 4.52-26.72 23.42-43 31.42-9.58 5.15-19.85 9.08-28.58 15.68-7.88 6-14.48 13.4-21.7 20.09-10-24.62-20-49.32-31.85-73.15 2-4.85 3.8-9.92 7-14.15 3.58-1.72 7.58-2.3 11.45-3.17-.07-2.27-.15-4.57-.2-6.85 3.56-.25 7.13-.55 10.73-.77-.88-2-1.7-4.06-2.52-6.05a108 108 0 0 0 15.69 -3.71c6.68-11.75 17.46-21.07 30.91-23.82.69-1.42 1.42-2.87 2.17-4.3 2.18.2 4.4.4 6.65.4" fill="#fff85c"/><path d="m412.55 504.65c18.5-12 37-23.95 56.15-34.93-1.42 9.6 3.7 17.8 10.23 24.33-2 2.3-4 4.63-6 6.92 5.65.5 13 1.51 15 7.8 4.82 11.93 9.8 23.8 14.07 35.93 2.75-.53 5.5-1.05 8.25-1.67-14.23 10.72-29.1 20.54-42.93 31.79a820.42 820.42 0 0 0 -62.15 53.56c-3.42-.2-6.82-.28-10.22-.48l6.07-3.82c-10.67-10.51-14.82-25.43-21.75-38.38-1.82-.68-3.62-1.35-5.44-2-.23-2.65-.46-5.3-.66-8-1.27.08-2.54.13-3.82.2a88 88 0 0 0 -3.28 -11.6c-3.27-2.53-7.74-2.7-11.54-4 .47-5.58 1.6-11.21 4.89-15.86 17.08-14.11 34.83-27.31 53.13-39.79" fill="#cdec20"/><path d="M641.52,514c13.38-8.66,26.33-18.26,41.28-24-14.55,10.64-29.95,20.09-44.2,31.12-91.67,69.08-162.92,164.95-202.25,272.8-8.13,21.65-14.25,44-21,66.1-12.48,26.45-18.08,55.45-24.92,83.7-7.83,2.1-15.68-3.55-23.28.08-12.53,5.42-26.25,6.57-39.52,9.2-5.46.57-12.51,2.84-16.21-2.78,4.61-14.45,9.85-28.68,15.2-42.85a840.4,840.4,0,0,1,79-156A819.73,819.73,0,0,1,641.52,514Z" fill="#0ccbdc"/><path d="m1632.08 548c16.25-8 24.55-26.9 43-31.42 9.92 27.89 19.15 56.1 25.8 85-17.75 13.87-37.37 25.15-54.52 39.77-13.41 10.9-31.63 20.27-34.78 38.95a872.88 872.88 0 0 0 -29.75 -96.53c7.22-6.69 13.82-14.12 21.7-20.09 8.7-6.6 18.97-10.53 28.55-15.68" fill="#fff965"/><path d="m180.28 580.07c14.59-16.19 29.72-31.92 44.32-48.07 5.68 2.7 11.82 4.87 16.72 9 3.2 6.3 4.26 13.43 6.05 20.23 6.78.58 15.43-.47 19.71 6.13 1.6 5.12.2 10.7 1.7 15.84 3 5.5 10.19 5.21 15.47 6.9-.22 1.76-.45 3.51-.67 5.28l9.57 8c-12 11.58-22.8 24.28-33.92 36.66-24.23 26.44-45 55.74-65.8 85q-6.12-3.46-12.21-6.93c0-1.92.08-3.85.1-5.75l-6.9-4c-.47-2.3-.95-4.57-1.42-6.88-1.12-.6-2.25-1.17-3.38-1.74-12.37-11.46-27.59-22.2-30-40.3q-3.25.4-6.52.85-1.5-2.22-3.05-4.41c-2.62.43-5.25.88-7.88 1.33 17.18-27.36 37-52.86 58.11-77.14" fill="#a1d70e"/><path d="M293.15,603.27c22-19.77,42.55-41.12,66.32-58.8-3.29,4.65-4.42,10.28-4.89,15.86,3.8,1.32,8.27,1.49,11.54,4A88,88,0,0,1,369.4,576c1.28-.07,2.55-.12,3.82-.2.2,2.65.43,5.3.66,8,1.82.65,3.62,1.32,5.44,2,6.93,12.95,11.08,27.87,21.75,38.38L395,627.9c3.4.2,6.8.28,10.22.48C373.53,660,342,692.13,316,728.65h-5.39c-1.88-6.22-2.76-13-6.51-18.45-4.42-2.85-9.94-3.58-14.07-6.88a88.07,88.07,0,0,1-3.23-10.27l-2.62-1.22q2.4-3,4.85-6-5-2.88-9.95-5.78c.8-3.94,1.7-7.87,2.17-11.84-4.27-4.43-9.69-7.43-14.87-10.66.7-1.57,1.4-3.12,2.08-4.7q-4.81-6.33-9.2-12.94C270.35,627.55,281.18,614.85,293.15,603.27Z" fill="#c6eb24"/><g fill="#01c5d7"><path d="m1900.2 564.5c63.9 130 97.25 274.58 99.8 419.32l0 44.81c-.48 8.6-1.25 17.17-2 25.75-9.12 29.49-15.53 59.8-26.3 88.82-1.68-7.3-5.65-14.5-13.65-16-1.8-4.08-3.53-8.18-5.2-12.26-1.7 1.53-3.37 3-5 4.6-3.33-11.49-14.65-18.47-17.1-30.34-2.25-.3-4.45-.58-6.62-.85a49.59 49.59 0 0 0 -6.55 -22c-1.25.45-2.48.9-3.68 1.37-6.1-6.57-11.32-13.87-17.27-20.55a799.19 799.19 0 0 0 32.22 -151.52c13.38-110.87 2.2-224-28.65-331.15"/><path d="m1811.93 1571.93c7.42-8.21 14.87-16.4 23.82-23-67.18 103.2-154.47 193-254.4 264.85-63.25 44.75-131.15 83.55-203.4 111.77-3.15.38-6.25.71-9.35 1-4.37-2-7.15-5.8-8.75-10.15 2.12-.32 4.28-.65 6.45-.92.37-1 .78-1.88 1.17-2.78a35.69 35.69 0 0 1 7.28 -8.08c-2-1.32-4-2.55-5.9-3.8l4.27-1.49c-.42-1.26-.82-2.48-1.19-3.68 2.32-1.18 4.67-2.33 7-3.45-.85-3.83-1.7-7.65-2.52-11.45 4-4.73 9-9.35 9.34-15.88.38-5.62 2.45-10.82 7-14.37-.3-2.4-.63-4.83-.93-7.18 8-14.82 10.2-31.72 17.46-46.85 64.07-15.39 127-37 185.49-67.57 80.85-39.02 153.63-93.75 217.16-156.97"/></g><path d="m1646.33 641.35c17.15-14.62 36.77-25.9 54.52-39.77a775.48 775.48 0 0 1 16.9 90.72c-9 8.62-23.65 11.35-28.65 23.75-1.27-.72-2.55-1.42-3.8-2.12-5 5.42-9.68 11.32-16.32 14.72-7.48 4-15.78 7.2-21.36 14-5.69 6.55-12.57 12.1-20.72 15.3-4.25-26-8.85-52-15.35-77.6 3.15-18.73 21.37-28.1 34.78-39" fill="#fff96d"/><path d="m193.43 724.88c20.77-29.21 41.57-58.51 65.8-85q4.38 6.6 9.2 12.94c-.68 1.58-1.38 3.13-2.08 4.7 5.18 3.23 10.6 6.23 14.87 10.66-.47 4-1.37 7.9-2.17 11.84q4.95 2.98 9.95 5.83-2.44 3-4.85 6l2.62 1.22a88.07 88.07 0 0 0 3.23 10.25c4.13 3.3 9.65 4 14.07 6.88 3.75 5.45 4.63 12.23 6.51 18.45l5.42 0c-1.32 1.93-2.62 3.85-4 5.77-23.85 31.4-44.59 65-63.94 99.3q-2.55-6.93-5.13-13.87c-1.67-.77-3.35-1.5-5-2.25a46.08 46.08 0 0 1 -5 -10.75c-3.2-10.55-9.69-19.68-15.27-29-6-12.5-13.8-24.08-18.17-37.33-1.31-5-6.5-6.75-10.38-9.22 1.41-2.18 2.89-4.3 4.32-6.42" fill="#c0ea28"/><path d="M780,650H955.92c.08,53.53,0,107.07.08,160.62Q1097,730.54,1237.83,650c27.44,45.9,54.72,91.9,82.29,137.75Q1137.84,896.5,956,1005.88q0,172.08,0,344.12-88,0-175.92,0Z"/><path d="M122.22,657.1c2.63-.45,5.26-.9,7.88-1.33q1.54,2.19,3.05,4.41,3.27-.45,6.52-.85c2.36,18.1,17.58,28.84,30,40.3,1.13.57,2.26,1.14,3.38,1.74.47,2.31.95,4.58,1.42,6.88l6.9,4c0,1.9-.07,3.83-.1,5.75q6.09,3.48,12.21,6.93c-1.45,2.12-2.91,4.24-4.33,6.4a727.93,727.93,0,0,0-54,95.77c-9.25,17.58-16.63,36-25.12,54a104.09,104.09,0,0,1,.4-15.4,65.17,65.17,0,0,1-14.06,5.17,47.08,47.08,0,0,0-18-33.34c1.41-2.23,2.81-4.43,4.23-6.63-3.25,1.12-6.53,2.22-9.77,3.35,1.07-3.33,2.1-6.65,3.17-10a150.39,150.39,0,0,0-14.33-9.73c-2.37,1.6-4.72,3.2-7.09,4.85q.71-5.77,1-11.6l-10.65-6.23A759.2,759.2,0,0,1,122.22,657.1Z" fill="#9dd408"/><path d="m1689.1 716.05c5-12.4 19.65-15.13 28.65-23.75 2.5 19.8 4 39.72 6 59.6.08 15.85-.28 31.7-.18 47.55-16.94 6.5-28.67 20.85-43.37 30.77-14.28 9.9-28 20.55-42.17 30.58.35 14.15 0 28.32-2.21 42.35.1-48.55-1.67-97.2-8.87-145.25 8.15-3.2 15-8.75 20.72-15.3 5.58-6.75 13.88-9.92 21.36-14 6.64-3.4 11.37-9.3 16.32-14.72 1.2.75 2.48 1.45 3.75 2.17" fill="#fffa76"/><path d="M135.1,827.05a727.93,727.93,0,0,1,54-95.77c3.88,2.47,9.07,4.24,10.38,9.22,4.37,13.25,12.19,24.83,18.17,37.33,5.58,9.34,12.07,18.47,15.27,29a46.08,46.08,0,0,0,5,10.75c1.68.75,3.36,1.48,5,2.25q2.6,6.95,5.13,13.87c-10.53,21.23-21.76,42.16-30.55,64.21-5.1,12.4-10.76,24.57-15.31,37.22-3-.25-6-.5-9-.73.55-3.6,1.07-7.17,1.65-10.74-2.7.89-5.37,1.82-8.08,2.77a68.41,68.41,0,0,0,.38-12.63c-4.72-4.89-8.88-10.4-11.35-16.77-3.58-9.45-11.42-16.57-14.23-26.35-1.74-2.32-3.55-4.6-5.34-6.88,0-3.7-.08-7.37-.08-11.07l-7.73,3.68C147.45,845.33,143.55,834.63,135.1,827.05Z" fill="#bbe92c"/><path d="m248.08 833.72c19.35-34.32 40.09-67.9 63.94-99.3 5.7 3.2 11.38 6.43 17.13 9.6.23-1 .67-3.07.9-4.12 5.8 1.47 11.6 4.28 17.75 3.3 9.22-.73 18.45-3.53 27.75-2.17a109.24 109.24 0 0 1 30.13 10.37 840.4 840.4 0 0 0 -79 156c-2.79-3.38-4.77-9-10-9-10.4-.93-20.87.15-31.2-1.55-9.85-1.6-19.9-2.28-29.83-1-12.67 1.47-25.6-.85-38.14 2 8.81-21.97 20.04-42.85 30.57-64.13" fill="#afe224"/><path d="m1680.15 830.22c14.7-9.92 26.43-24.27 43.37-30.77a676.36 676.36 0 0 1 -12.75 143.67c-.22-4.25-.52-8.47-.77-12.67-4.8 9.73-16.28 12.53-22.3 21.2a14.14 14.14 0 0 1 -12.17 6.83c-6.36 4.39-12.63 8.92-19.13 13.1-10.68 6.74-18 17.65-29.08 23.82 4.16-30.62 6.18-61.45 8.45-92.25 2.21-14 2.56-28.2 2.21-42.35 14.17-10.03 27.89-20.68 42.17-30.58" fill="#fffa80"/><path d="M20.57,867.87q10.7-33.71,24.26-66.4l10.65,6.23q-.3,5.82-1,11.6c2.37-1.65,4.72-3.25,7.09-4.85a150.39,150.39,0,0,1,14.33,9.73c-1.07,3.32-2.1,6.64-3.17,10,3.24-1.13,6.52-2.23,9.77-3.35-1.42,2.2-2.82,4.4-4.23,6.63a47.08,47.08,0,0,1,18,33.34,65.17,65.17,0,0,0,14.06-5.17A104.09,104.09,0,0,0,110,881c-21.51,57-38.65,115.83-47.93,176.15a825.89,825.89,0,0,0,0,258.23c2.08,16,7.53,31.67,6.31,48C26.08,1257.8,4.63,1144.5,0,1031V961.5c1.4-14.48,2.28-29,3.9-43.45C12,902.2,15.05,884.63,20.57,867.87Z" fill="#98d001"/><path d="M1822.75,860.55c1.7-5.1,3.7-10.07,5.55-15.12,2.68,4.17,5.45,8.32,8.18,12.47a35.87,35.87,0,0,1,22.77,7.2c2.5-1.2,5.07-2.3,7.63-3.5q3.33,5.92,6.77,11.85c7.25,1.82,14.23,4.82,19.62,10.15,2.43.22,4.85.42,7.33.65a93.41,93.41,0,0,0-.87,14.3,83.9,83.9,0,0,0,6.1-9.47,86.31,86.31,0,0,0-1.38-11.58c1.72-.18,3.5-.35,5.28-.52a50,50,0,0,0,.72,8.69,112,112,0,0,0,13.72,1.38c1.58,2.83,3.1,5.67,4.63,8.6a799.19,799.19,0,0,1-32.22,151.52c-14,44-31.25,87.06-52.58,128-8.52,17.25-18.13,34-27.87,50.53-5.41-7-12.58-13.22-14.28-22.27-.78-4.88-4.4-8.26-7.95-11.31-3,3.31-6,6.65-9,10-.22-2.7-.65-5.38-.75-8.05a64,64,0,0,0-3-12.9c-2.37,2.43-4.72,4.83-7,7.28a60.66,60.66,0,0,1-6.88-17.33c-1.37.77-2.72,1.53-4.09,2.25-.63-1.33-1.9-4-2.53-5.25-1.35,3.87-2.82,7.7-4.32,11.52-3.21-5.32-6.6-10.52-10.11-15.65-6.94,7-14.79,13.3-24.44,16,8.22-19,18.82-36.93,27.65-55.68C1788,1041.22,1813.75,951.83,1822.75,860.55Z" fill="#fbeb01"/><g fill="#50e0ed"><path d="m390.48 943.7c6.84-28.25 12.44-57.25 24.92-83.7-1.83 10.75-3.52 21.55-5.65 32.28-13.83 73.24-12.3 148.82.45 222.12 4.25 47.3 17.1 93.47 31.8 138.5 32.8 99.2 85.45 191.6 152.93 271.27 24.62 30.71 52.84 58.23 82.05 84.5a45.77 45.77 0 0 0 -6.36 15.58c-1.24 6.23-6.82 10-10.55 14.73-3.57 3.34-2.27 8.62-2.62 13-3.27 10.83-6.05 22.35-14.5 30.45 2.53 2 5 4.06 7.6 6.13-3.32-.07-6.65-.1-10-.1-.06 6.25-.21 12.53-.18 18.82-2.35 2.55-4.6 5.23-6.95 7.81.93 2.75 1.85 5.47 2.78 8.25-7.85-6.66-15.61-13.45-22.76-20.86-39.57-38.19-73.27-82-104.44-127.17-29-43.5-52.85-90.18-73.41-138.15-20.9-49.23-35.64-100.85-47.29-153-10.83-55.7-16.86-112.43-16.11-169.2.06-8.57-.44-17.15-.55-25.7 2.99-48.86 8.69-97.61 18.84-145.56"/><path d="m1971.65 1143.2c10.77-29 17.18-59.33 26.3-88.82-3.28 85.84-19.92 171-46 252.77-27.7 85.3-66.43 167.17-116.25 241.8-9 6.58-16.4 14.77-23.82 23-63.53 63.22-136.31 118-217.16 157 .53-4.28 1.15-8.5 1.56-12.75 1.07 1.8 3.22 5.38 4.29 7.15 1.11-10.5 1.73-23.15 12.48-28.6 1.5.43 3 .82 4.6 1.2.37-1.85.8-3.7 1.25-5.5-2.58-.57-5.1-1.13-7.62-1.65-1.53 1.88-3.06 3.75-4.55 5.63-.61-10.93 10-17.11 11.52-27.28a109.94 109.94 0 0 0 1.88 -13.35c3.92.2 7.85.48 11.79.72-2.84-2-5.62-4-8.42-6q4.2-3 8.45-5.87c-1.13-3.32-2.2-6.65-3.33-9.93a25.25 25.25 0 0 1 17.38 -11.42c-.9-1.38-1.77-2.7-2.6-4l4.13-2c2.55 1.13 5.1 2.28 7.7 3.45.4-1.9.85-3.75 1.33-5.57-3.68-.41-7.35-.83-11-1.18-2.6-11.2 9.67-18.45 6.75-29.55 2.65-2.9 5.3-5.78 8-8.58-3.53-3-6.9-6-10.13-9.27 2.48-1.77 4.93-3.55 7.4-5.35 22.75-16.72 46.1-32.75 67.2-51.6 27.23-23.42 53.6-48.05 77.42-75 19.38-21.42 38.18-43.42 54.53-67.28a736.92 736.92 0 0 0 62.82 -100.2c20.35-39.25 38.93-79.69 52.1-121.97"/><path d="m565.15 1414.4c38.15 37.65 79.37 72.53 125.62 99.83 42.61 26.17 89 45.52 136.3 61.19 171.18 64.08 364 66.06 537.51 9.55-.56 1.58-1.08 3.15-1.58 4.78a69.17 69.17 0 0 1 6.9 3.43 80.2 80.2 0 0 1 1.95 11.27c1.72-1.08 3.45-2.15 5.2-3.17.1 2.12.25 4.32.4 6.52a49.39 49.39 0 0 1 8.27 13.85c1.7-1.92 3.43-3.85 5.15-5.75 2.76 9.48 9 17.25 14.73 25.12 1 .38 2 .76 3.05 1.18a70.63 70.63 0 0 0 8.35 16.6l3.6-7.43a47.14 47.14 0 0 0 4.52 12.71q2.64 2.18 5.3 4.47c-9.2 3-18.57 5.28-27.92 7.73-28.48 9.14-58.1 13.75-87.5 18.77-35.75 5.63-71.9 7.25-108 9.15-18.2 1.67-36.45.42-54.65-.87a843.6 843.6 0 0 1 -137.6 -18.25c-66.65-13.93-131.2-37.31-192.22-67.35-58-28.45-112.2-64.58-161.8-106-14.93-12.1-28.38-25.88-43.13-38.2-18.52-18.63-38.8-36.38-52.45-59.13"/></g><path d="m217.53 897.93c12.54-2.9 25.47-.58 38.14-2 9.93-1.31 20-.63 29.83 1 10.33 1.7 20.8.62 31.2 1.55 5.2 0 7.18 5.57 10 9-5.35 14.17-10.59 28.4-15.2 42.85a896.56 896.56 0 0 0 -23.77 92.6c-17.45 0-34.65-5.5-52.12-2.77-8.3 1.42-17.23 2.57-24.78-2.1-2.15.24-4.3.52-6.42.82-2.18-1.62-4.35-3.27-6.53-4.88 0 1.06 0 3.13 0 4.18-7.27-5.48-16.4-5.88-25.12-5.6 7.2-33.18 18.35-65.3 29.52-97.3 4.49-12.78 10.15-24.95 15.25-37.35" fill="#abe01f"/><path d="m1687.7 951.65c6-8.67 17.5-11.47 22.3-21.2.25 4.2.55 8.42.77 12.67-29.34 169.23-114.34 328.1-238 447.21-26.7 25.22-54.14 50.05-85 70.07 11.4-12.85 24.74-23.7 36.65-36.05a609.67 609.67 0 0 0 112.12 -155.27c8.2-17.08 14.5-35 23.1-51.88l.15 3c12.52-21.72 20-45.9 28.92-69.2 18-50.42 30.61-102.7 38.65-155.6 11.13-6.17 18.4-17.08 29.08-23.82 6.5-4.18 12.77-8.71 19.13-13.1a14.14 14.14 0 0 0 12.13 -6.83" fill="#fffa8f"/><path d="m367.2 943.78c7.6-3.63 15.45 2 23.28-.08-10.15 47.95-15.85 96.7-18.81 145.6-2.79 13.23-.47 27.32-5 40.15-6.35.48-12.53-1.22-18.62-2.72-2.73 2-5.48 3.82-8.21 5.8q-9.18.45-18.37 1.17c-.13-.68-.38-2-.53-2.72-7.47 2.22-15.27 2.57-22.94 3.72a44.84 44.84 0 0 1 -23.48 6.15 847 847 0 0 1 13.2 -98 896.56 896.56 0 0 1 23.77 -92.6c3.7 5.62 10.75 3.35 16.21 2.78 13.3-2.68 26.97-3.83 39.5-9.25" fill="#18cedf"/><path d="m1844 1175.22c21.33-41 38.62-84 52.58-128 6 6.68 11.17 14 17.27 20.55 1.2-.47 2.43-.92 3.68-1.37a49.59 49.59 0 0 1 6.55 22c2.17.27 4.37.55 6.62.85 2.45 11.87 13.77 18.85 17.1 30.34 1.63-1.55 3.3-3.07 5-4.6 1.67 4.08 3.4 8.18 5.2 12.26 8 1.47 12 8.67 13.65 16-13.17 42.28-31.75 82.72-52 122-2.87-1.74-5.77-3.42-8.62-5.15-1.53.2-3 .41-4.48.55-2.37-13.79-13-23.24-23.37-31.52-1.15-10.9-11.7-16.55-16.45-25.62-2.83-5.25-6.55-10-12-12.6-6.38-2.79-7.88-10.11-10.73-15.69" fill="#0ecadb"/><path d="m366.65 1129.45c4.55-12.83 2.23-26.92 5-40.15.11 8.55.61 17.13.55 25.7-.75 56.77 5.28 113.5 16.11 169.2-14.28 6.33-30.38 2.43-44.6 8.5l-3.11-4a30.52 30.52 0 0 1 -11.6 5.3 29.42 29.42 0 0 1 -15.38 -.75c-11.2 5.25-23.9 11.08-35.95 4.45-3-25.6-4.6-51.33-5.55-77.05-.25-26.6.35-53.22 2.35-79.75a44.84 44.84 0 0 0 23.53 -6.2c7.67-1.15 15.47-1.5 22.94-3.72.15.67.4 2 .53 2.72q9.18-.71 18.37-1.17c2.73-2 5.48-3.85 8.21-5.8 6.07 1.5 12.25 3.2 18.6 2.72" fill="#21d1e1"/><path d="m410.2 1114.4c19.78 96.08 61.7 187.9 124.12 263.78 10 12.35 21.3 23.52 30.83 36.22 13.65 22.75 33.93 40.5 52.45 59.15-1.45 4.87-3 9.75-4.77 14.55-4 4.2-10.4 7.6-10 14.25-.12 8-2.22 15.9-7.94 21.82-67.44-79.67-120.09-172.07-152.89-271.27-14.7-45.03-27.55-91.2-31.8-138.5" fill="#72f1fc"/><path d="m1721.78 1180c9.65-2.71 17.5-9 24.44-16 3.51 5.13 6.9 10.33 10.11 15.65 1.5-3.82 3-7.65 4.32-11.52.63 1.3 1.9 3.92 2.53 5.25 1.37-.72 2.72-1.48 4.09-2.25a60.66 60.66 0 0 0 6.88 17.33c2.33-2.45 4.68-4.85 7-7.28a64 64 0 0 1 3 12.9c.1 2.67.53 5.35.75 8.05 3-3.33 5.92-6.67 9-10 3.55 3 7.17 6.43 7.95 11.31 1.7 9 8.87 15.32 14.28 22.27-8.53 13.88-17.13 27.73-26.36 41.13a855 855 0 0 1 -62.52 80.29 879.52 879.52 0 0 1 -69.6 69.91 821.4 821.4 0 0 1 -75.77 59.7c-2 1.37-4 2.72-6 4.12-4.2-2.23-8.35-4.45-12.5-6.73-1.45 1.51-2.9 3-4.3 4.55l-2.75-.77c.75-2.08 1.53-4.12 2.3-6.17-5.2-.56-10.4-1.23-15.55-2a105.09 105.09 0 0 0 -8.88 -7.93c-5.6-1.22-11.27 1.08-16.77 1.9-1.25-4.12-2.55-8.22-4-12.29-11.4 1.45-21.82-4.65-33.12-4.53a798.91 798.91 0 0 0 79.49 -64.52c30.51-26.23 56.78-56.76 82.68-87.38 29.69-35.99 54.97-75.26 79.3-114.99" fill="#fae501"/><path d="m1816.13 1225.75c9.74-16.57 19.35-33.28 27.87-50.53 2.85 5.58 4.35 12.9 10.67 15.66 5.48 2.57 9.2 7.35 12 12.6 4.75 9.07 15.3 14.72 16.45 25.62 10.42 8.28 21 17.73 23.37 31.52 1.48-.14 3-.35 4.48-.55 2.85 1.73 5.75 3.41 8.62 5.15a736.92 736.92 0 0 1 -62.82 100.2c-.5-4.87-1-9.72-1.55-14.57-12-13.83-20.5-31-36.32-41.1 1-2.17 2.12-4.33 3.22-6.45-2.65 1-5.22 1.93-7.83 2.87-4.8-12.22-10.32-24.59-21.22-32.62-1.13-2.23-2.27-4.45-3.33-6.67 9.26-13.4 17.86-27.25 26.39-41.13" fill="#18cddd"/><g fill="#21d0e0"><path d="M1727.25,1347.17a855,855,0,0,0,62.52-80.29c1.06,2.22,2.2,4.44,3.33,6.67,10.9,8,16.42,20.4,21.22,32.62,2.61-.94,5.18-1.92,7.83-2.87-1.1,2.12-2.18,4.28-3.22,6.45,15.82,10.13,24.32,27.27,36.32,41.1.55,4.85,1,9.7,1.55,14.57-16.35,23.86-35.15,45.86-54.53,67.28-2.07.2-4.15.42-6.17.67-8.52-11.52-19.22-21.17-28.37-32.12-5-5.83-7.83-13-12-19.3a68.71,68.71,0,0,0-8.63.45c-2.67-8.53-6.2-16.72-9-25.2-1.51,2.18-3,4.38-4.43,6.6-1.4-.53-2.77-1-4.1-1.55Z"/><path d="M1065.7 1801.65A815.9 815.9 0 0 0 1152 1813.4c15.37 1.25 30.74 2.62 46.14 3.42-11.82 1.06-27-1.17-35.44 9.1-7.5 12.08-8.48 26.81-14.81 39.48-2.9 13.53-11.1 25-14.15 38.4-4.49 6.28-8.79 12.8-8.39 20.9-2.86 5.5-5.88 11-10.13 15.63-32-2.73-63.75-8.58-95.23-15.13.63-.9 1.93-2.7 2.58-3.6-3.17-10.85 9.77-18.68 4.47-29.28 5.28-8.12 4.75-18.9 11.76-26 3.5-4 6.55-8.5 7.32-13.83C1048.85 1834.2 1061.52 1819.55 1065.7 1801.65"/></g><path d="M343.73,1292.7c14.22-6.07,30.32-2.17,44.6-8.5,11.65,52.1,26.39,103.72,47.29,153-1.34,2.23-2.67,4.45-4,6.7-13.87-2.87-27,3.05-40.62,4.6-22.65,1.37-45,5.85-67.73,5.68,1.08,1.82,2.15,3.7,3.2,5.6a130.82,130.82,0,0,1-14-3.56c-9.53-28.49-16.93-57.67-23.35-87-4.7-23.67-8.6-47.52-11.4-71.5,12.05,6.63,24.75.8,35.95-4.45A29.42,29.42,0,0,0,329,1294a30.52,30.52,0,0,0,11.59-5.2Z" fill="#2ad4e3"/><g fill="#2ad3e2"><path d="M1657.65,1417.08a879.52,879.52,0,0,0,69.6-69.91l2.25,15.08c1.33.52,2.7,1,4.1,1.55,1.45-2.22,2.92-4.42,4.43-6.6,2.82,8.48,6.35,16.67,9,25.2a68.71,68.71,0,0,1,8.63-.45c4.22,6.27,7.07,13.47,12,19.3,9.15,11,19.85,20.6,28.37,32.12,2-.25,4.1-.47,6.17-.67-23.82,26.9-50.19,51.53-77.42,75l-2.55-.45c0-2,0-3.9,0-5.83-3.77-4.79-7.24-9.77-10.57-14.85a98.33,98.33,0,0,0-11.35-9.1c-1.35.33-2.75.63-4.07.95-1.33-6.52-1.93-13.42-5.18-19.32-7.45-7.15-21.9-9.13-21.77-21.73-4.08-3.54-8.28-7-12.48-10.32C1657.15,1423.67,1657.35,1420.35,1657.65,1417.08Z"/><path d="m970.4 1780.38l7.7-1.1 6.4 1.7c26.5 9 53.9 14.79 81.2 20.67-4.18 17.9-16.85 32.55-19.6 50.82-.77 5.33-3.82 9.85-7.32 13.83-7 7.12-6.48 17.9-11.76 26 5.3 10.6-7.64 18.43-4.47 29.28-.65.9-1.95 2.7-2.58 3.6-32.29-6.4-63.67-16.48-94.77-27.13 7-10.82 6.68-24.24 12.18-35.67 6.85-14 10.09-29.55 19.24-42.37-1.12-1.68-2.24-3.3-3.35-4.93 3.31-2.95 6.83-5.75 9.73-9.12.15-4.5-.68-8.93-1.2-13.36 3.93-.95 7.87-1.9 11.83-2.82-1.1-3.13-2.16-6.3-3.23-9.4"/></g><path d="m169.93 1357.15c12.79 7.45 27.35 3.47 40.84.8.2 1 .63 3.18.83 4.22 3.15-1.82 6.35-3.6 9.5-5.39l-2.48 6c2.33 1.67 4.65 3.34 7 5.05.4-3.33.78-6.66 1.2-9.93 11.18 2.82 22.08 6.63 31.18 14-.38-2.7-.76-5.42-1.15-8.12 8.55-.63 16.52 2.59 23.47 7.37 2.93-.67 5.85-1.35 8.8-2 6.42 29.35 13.82 58.53 23.35 87 9.3 29.45 20.93 58.11 33.32 86.38a76.39 76.39 0 0 0 -15.49 .57c-7.65.73-13.63-4.4-20.28-7.1-7.9-1.17-12.4 6.18-16.22 11.75a59.7 59.7 0 0 0 -9.26 -9.94c-13.52-4.8-27.82 1.57-41.25-3a27.82 27.82 0 0 1 -16.92 1c.73-2.41 1.45-4.76 2.18-7.11a152.29 152.29 0 0 0 -19.33 3.48 781.73 781.73 0 0 1 -47.35 -168.93c-.15-1-.43-3-.57-4 2 .3 3.94.63 5.92 1 .88-1.1 1.78-2.1 2.71-3.1" fill="#a1d70f"/><g fill="#32d6e5"><path d="M1581.88,1476.78a821.4,821.4,0,0,0,75.77-59.7c-.3,3.27-.5,6.59-.75,9.92,4.2,3.35,8.4,6.78,12.48,10.32-.13,12.6,14.32,14.58,21.77,21.73,3.25,5.9,3.85,12.8,5.18,19.32,1.32-.32,2.72-.62,4.07-.95a98.33,98.33,0,0,1,11.35,9.1c3.33,5.08,6.8,10.06,10.57,14.85,0,1.93-.07,3.86,0,5.83l2.55.45c-21.1,18.85-44.45,34.88-67.2,51.6-5.77-6.25-13.35-10.17-20.23-15,2.1-2.08,4.28-4,6.43-6.08a44.36,44.36,0,0,1-22.12-12.6q2.4-4.3,4.87-8.5-8.7.75-17.32,1.57c2.6-1.79,5.17-3.57,7.8-5.34-4-3.28-8.06-6.45-12.2-9.5-.11-.95-.21-1.88-.26-2.78-3-7.75-7.87-14.88-15.49-18.63l-3.71,7.31C1584.4,1485.38,1583.18,1481.05,1581.88,1476.78Z"/><path d="M878.2 1772.05a50.41 50.41 0 0 1 7 -28.18c30.15 13.81 61.38 25.18 92.88 35.41l-7.7 1.1c1.07 3.1 2.13 6.27 3.23 9.42-4 .92-7.9 1.87-11.83 2.82.52 4.43 1.35 8.86 1.2 13.36-2.9 3.37-6.42 6.17-9.73 9.12 1.11 1.63 2.23 3.25 3.35 4.93-9.15 12.82-12.39 28.39-19.24 42.37-5.5 11.43-5.18 24.85-12.18 35.67l-4.68-1.49c-27.52-9.38-54.07-21.4-80.45-33.6.08-3 .18-5.86.33-8.75 6.45-5.81 6.3-14.88 9.9-22.23l-3.68.7c3.38-7.55 9.48-13.27 14.08-20-1.13-.28-3.32-.88-4.45-1.16 6.22-10.67 13.5-21.29 14-34.07C872.9 1775.68 875.5 1773.78 878.2 1772.05"/></g><path d="m435.62 1437.15c20.56 48 44.45 94.65 73.41 138.15a89.12 89.12 0 0 0 -11.68 3c-.07.55-.25 1.65-.35 2.2-5.25-1.4-10.73-5.67-16.23-3-3.45 1.35-6.69 3.12-10 4.8-8.25-3.25-17-2.53-25.4-.1-.79 1.63-1.6 3.3-2.39 5l-5.58-5.2c-6.72 1.38-12.88 4.73-19.57 6.18-5 1.35-9.53-1.7-13.93-3.42a57.85 57.85 0 0 1 -34.43 5.3q-12.48-23.4-23.7-47.48c-12.39-28.27-24-56.93-33.32-86.38a130.82 130.82 0 0 0 14 3.56c-1.05-1.9-2.12-3.78-3.2-5.6 22.76.17 45.08-4.31 67.73-5.68 13.58-1.55 26.75-7.47 40.62-4.6 1.4-2.28 2.68-4.5 4.02-6.73" fill="#33d7e5"/><path d="m1480.33 1446.9c11.3-.12 21.72 6 33.12 4.53 1.4 4.07 2.7 8.17 4 12.29 5.5-.82 11.17-3.12 16.77-1.9a105.09 105.09 0 0 1 8.88 7.93c5.15.8 10.35 1.47 15.55 2-.77 2-1.55 4.09-2.3 6.17l2.75.77c1.4-1.52 2.85-3 4.3-4.55 4.15 2.28 8.3 4.5 12.5 6.73-20.2 13.75-40.85 26.95-62.3 38.7a774.55 774.55 0 0 1 -70.87 35.5c-25.51 11.27-51.63 21.12-78.1 29.87-173.53 56.51-366.33 54.53-537.51-9.55 32.83 8.13 65.73 16.46 99.43 20.13 59.87 7.5 120.63 5.07 180.1-4.53 14.43 1.28 28.65-1.47 42.73-4.29 82.42-14.5 162.15-42.71 236.5-81 32.32-18.08 65.12-35.97 94.45-58.8" fill="#f8e001"/><path d="m617.6 1473.55c14.75 12.32 28.2 26.1 43.13 38.2 49.6 41.4 103.75 77.53 161.8 106-.4 7-2.88 13.55-5.95 19.77 2.54.15 5.1.3 7.67.48-5.28 3.52-12.75 6.12-13.77 13.27-1.06 6.2-3.48 12.15-10.05 14.15 3.05 3.85 6.07 7.72 9.09 11.65-3.79.2-7.57.48-11.35.7l6.5 6.77q-5.53-1-11.1-2c1.23 2 2.48 4 3.75 6-3.47.73-7 1.45-10.4 2.23a795.54 795.54 0 0 1 -109.92 -82.1c-29.21-26.27-57.43-53.79-82.05-84.5 5.72-5.92 7.82-13.79 7.94-21.82-.44-6.65 6-10 10-14.25 1.69-4.8 3.26-9.68 4.71-14.55" fill="#6ceefa"/><g fill="#3bd9e7"><path d="m1575.85 1480.9c2-1.4 4-2.75 6-4.12 1.3 4.27 2.52 8.6 3.54 13l3.71-7.31c7.62 3.75 12.52 10.88 15.49 18.63.05.9.15 1.83.26 2.78 4.14 3.05 8.19 6.22 12.2 9.5-2.63 1.77-5.2 3.55-7.8 5.34q8.63-.83 17.32-1.57-2.47 4.2-4.87 8.5a44.36 44.36 0 0 0 22.12 12.6c-2.15 2-4.33 4-6.43 6.08 6.88 4.8 14.46 8.72 20.23 15-2.47 1.8-4.92 3.58-7.4 5.35-22.25 15.4-46.1 28.25-69.65 41.45-1.8-.3-5.35-1-7.12-1.25 1.27-2 2.59-3.93 3.92-5.85l-6.83.07c-8.15-14.79-18.19-29-31.42-39.72-.7-2-1.4-4-2-6-7.22-7.3-15.62-13.47-21.7-21.8-2.72-3.35-1.59-8-1.87-12 21.45-11.73 42.1-24.93 62.3-38.68"/><path d="m480.77 1577.5c5.5-2.62 11 1.65 16.23 3 .1-.55.28-1.65.35-2.2a89.12 89.12 0 0 1 11.68 -3c31.17 45.18 64.87 89 104.44 127.17-6.59 3.53-13.82 5.9-21.37 5.06-.3 1-.63 2-.92 3-9.36-.93-18.75 0-28.11-.35q-1.65 2.82-3.22 5.7c-8.07-2.07-16.58-2.6-24.35.92-9.53-3.22-18.45 3.1-27.82 3.73-16 1.42-32.06 2.65-48 4.68-5.57-6.81-11.14-13.58-16.55-20.53-27.35-36.33-52.42-74.43-73.65-114.67a57.85 57.85 0 0 0 34.43 -5.3c4.4 1.72 9 4.77 13.93 3.42 6.69-1.45 12.85-4.8 19.57-6.18l5.58 5.2c.79-1.67 1.6-3.34 2.39-5 8.36-2.43 17.15-3.15 25.4.1 3.3-1.63 6.54-3.4 9.99-4.75"/><path d="m808.2 1704.23c24.82 14.79 50.88 27.4 77 39.64a50.41 50.41 0 0 0 -7 28.18c-2.7 1.73-5.3 3.63-8 5.4-.45 12.78-7.73 23.4-14 34.07 1.13.28 3.32.88 4.45 1.16-4.6 6.75-10.7 12.47-14.08 20l3.68-.7c-3.6 7.35-3.45 16.42-9.9 22.23-.15 2.89-.25 5.8-.33 8.75-27.17-12.06-52.45-27.88-78.12-42.8.77-9.43 3.63-19 9.27-26.7 4.48-18.33 12.31-35.45 20.91-52.2 1.37-.18 2.77-.36 4.17-.48 0-6.5-.7-13.2 1.23-19.5 2.27-6.38 6.82-11.63 10.72-17.05"/></g><path d="M1442.68,1555.1a774.55,774.55,0,0,0,70.87-35.5c.28,4-.85,8.6,1.87,12,6.08,8.33,14.48,14.5,21.7,21.8.63,2,1.33,4,2,6,13.23,10.7,23.27,24.93,31.42,39.72l6.83-.07c-1.33,1.92-2.65,3.88-3.92,5.85,1.77.3,5.32,1,7.12,1.25-23,14.48-48.87,23.35-73.25,35.12a66.65,66.65,0,0,1-14.17-20.82c-.41,3.9-.8,7.8-1.18,11.75-3.1-2.9-6.17-5.8-9.25-8.68,2.35.08,4.7.21,7.07.33-1.12-1.93-2.24-3.8-3.34-5.65,1.17-.3,3.57-.93,4.77-1.22a40.64,40.64,0,0,0-17.2-12.08c-1.32-2.48-2.6-5-3.87-7.38-5.26-3.75-12.68-6.22-14.41-13.14-1.27-3.56-2.22-7.18-3.17-10.8l-8.35-2.83Q1443.46,1562.85,1442.68,1555.1Z" fill="#42dbe9"/><path d="M209.2,1532.2a152.29,152.29,0,0,1,19.33-3.48c-.73,2.35-1.45,4.7-2.18,7.11a27.82,27.82,0,0,0,16.92-1c13.43,4.55,27.73-1.82,41.25,3a59.7,59.7,0,0,1,9.26,9.94c3.82-5.57,8.32-12.92,16.22-11.75,6.65,2.7,12.63,7.83,20.28,7.1a76.39,76.39,0,0,1,15.49-.57q11.25,24,23.7,47.48c21.23,40.24,46.3,78.34,73.65,114.67-12.44,4.8-27,6.5-36.24,17.2-15.08,16-32.53,29.88-45.33,47.85-9.82-8.1-19.53-16.33-28.7-25.13-20.8-28.55-42.25-56.7-60.55-87A839,839,0,0,1,209.2,1532.2Z" fill="#9dd409"/><g fill="#49deeb"><path d="m1364.58 1585c26.47-8.75 52.59-18.6 78.1-29.87q.78 7.76 1.57 15.55l8.35 2.83c1 3.62 1.9 7.24 3.17 10.8 1.73 6.92 9.15 9.39 14.41 13.14 1.27 2.43 2.55 4.9 3.87 7.38a40.64 40.64 0 0 1 17.2 12.08c-1.2.29-3.6.92-4.77 1.22 1.1 1.85 2.22 3.72 3.34 5.65-2.37-.12-4.72-.25-7.07-.33 3.08 2.88 6.15 5.78 9.25 8.68.38-3.95.77-7.85 1.18-11.75a66.65 66.65 0 0 0 14.17 20.82c-25.12 10.48-51.1 18.83-76.93 27.38q-2.65-2.29-5.3-4.47a47.14 47.14 0 0 1 -4.52 -12.71l-3.6 7.43a70.63 70.63 0 0 1 -8.35 -16.6c-1-.42-2.05-.8-3.05-1.18-5.7-7.87-12-15.64-14.73-25.12-1.72 1.9-3.45 3.83-5.15 5.75a49.39 49.39 0 0 0 -8.27 -13.85c-.15-2.2-.3-4.4-.4-6.52-1.75 1-3.48 2.09-5.2 3.17a80.2 80.2 0 0 0 -1.95 -11.27 69.17 69.17 0 0 0 -6.9 -3.43c.5-1.66 1-3.23 1.58-4.78"/><path d="m687.32 1822.45c9-1.17 17.08-8.65 26.5-5.72 10.08 2.72 20-1.5 30-2.43 6.6-.75 12.47 3 18.1 5.88 25.67 14.92 50.95 30.74 78.12 42.8 26.38 12.2 52.93 24.22 80.45 33.6-5.45 1.72-10.62 4.22-15.92 6.42-4.05-.73-8.17-2.25-12.3-1.72a76.19 76.19 0 0 0 -7.57 7.57c-1-3.52-1.93-7-2.85-10.48a94.51 94.51 0 0 1 -5.78 10.11c-8.5-.33-17.05-1.88-25.52-.28-16.13 2.55-34-2.18-48.51 7.22-1.4-1.55-2.8-3.12-4.17-4.62-.22 2.77-.45 5.55-.65 8.37-2.35-2.17-4.72-4.29-7-6.42-1.18 1.57-2.35 3.2-3.5 4.85-2.18-.28-4.35-.52-6.5-.75-8.13 3.1-18.7 1.2-24.35 9.07-7-1.3-13.9-3.42-21.05-2.7-10.9 1-21.72 4.2-32.73 2.65a800.93 800.93 0 0 1 -132.72 -90.1c10.6-.39 21.22-.72 31.83.1-.88-2.5-1.73-5-2.58-7.42a49.72 49.72 0 0 1 19 6.9c1.72-1.52 3.45-3 5.18-4.52 2.92.17 5.87.42 8.82.62 4.65-3.47 9.6-7.75 15.85-7.17a221.59 221.59 0 0 0 39.85 -1.83"/></g><path d="m1650.25 1564.6c3.23 3.23 6.6 6.3 10.13 9.27-2.73 2.8-5.38 5.68-8 8.58 2.92 11.1-9.35 18.35-6.75 29.55 3.63.35 7.3.77 11 1.18-.48 1.82-.93 3.67-1.33 5.57-2.6-1.17-5.15-2.32-7.7-3.45l-4.13 2c.83 1.33 1.7 2.65 2.6 4a25.25 25.25 0 0 0 -17.35 11.47c1.13 3.28 2.2 6.61 3.33 9.93q-4.24 2.92-8.45 5.87c2.8 2 5.58 4 8.42 6-3.94-.24-7.87-.52-11.79-.72a109.94 109.94 0 0 1 -1.88 13.35c-1.55 10.17-12.13 16.35-11.52 27.28 1.49-1.88 3-3.75 4.55-5.63 2.52.52 5 1.08 7.62 1.65-.45 1.8-.88 3.65-1.25 5.5-1.57-.38-3.1-.77-4.6-1.2-10.75 5.45-11.37 18.1-12.48 28.6-1.07-1.77-3.22-5.35-4.29-7.15-.41 4.25-1 8.47-1.56 12.75-58.49 30.57-121.42 52.18-185.49 67.57-14.85 3.18-29.81 5.8-44.7 8.66-1.53-3.13-6.53-6.18-4.25-10 3.82-5.78 10.5.82 15.5 1.79a71 71 0 0 1 -1.25 -21.64c.75-.15 2.27-.51 3-.68a25.66 25.66 0 0 1 .65 -15.6c2.75 2.53 5.53 5.15 8.28 7.75.18-2 .38-3.9.6-5.8 1.22-.65 2.45-1.3 3.7-1.92a113.68 113.68 0 0 0 -13.27 -8.31 49.09 49.09 0 0 0 14.57 -11.69c-3.22-2.23-6.4-4.46-9.6-6.63 3.2-.55 6.43-1.12 9.68-1.62-1.58-2.63-3.1-5.28-4.65-7.88 1.22.47 3.67 1.43 4.87 1.93 1.4 2.87 2.8 5.8 4.25 8.75 1.13.54 3.4 1.62 4.52 2.17-1-2.17-1.94-4.35-2.87-6.52 1-2.93 2.1-5.78 3.15-8.68-2.37-4-4.83-7.92-7.15-11.9 6.6-2 12.88-5.78 20-5.37-1.16-2.63-2.23-5.23-3.33-7.83-2.68 1.38-5.33 2.77-8 4.2.8-2.62 1.63-5.23 2.45-7.82 2.22-.21 4.48-.36 6.72-.51-.17-6.77-3.44-12.29-9.77-15.09 9.35-2.45 18.72-4.76 27.92-7.73 25.83-8.55 51.81-16.9 76.93-27.38 24.38-11.77 50.2-20.64 73.25-35.12 23.62-13.25 47.47-26.1 69.72-41.5" fill="#56e3f0"/><path d="M670.62,1624.25a45.77,45.77,0,0,1,6.36-15.58,795.54,795.54,0,0,0,109.94,82.08c7.08,4.5,14.11,9.1,21.28,13.48-3.9,5.42-8.45,10.67-10.67,17.07-1.93,6.3-1.21,13-1.23,19.5-1.4.12-2.8.3-4.17.48-8.6,16.75-16.43,33.87-20.91,52.2-5.64,7.67-8.5,17.27-9.27,26.7-5.63-2.91-11.5-6.63-18.1-5.88-10,.93-20,5.15-30,2.43-9.42-2.93-17.47,4.55-26.5,5.72a221.59,221.59,0,0,1-39.87,1.83c-6.25-.58-11.2,3.7-15.85,7.17-3-.2-5.9-.45-8.82-.62-1.73,1.47-3.46,3-5.18,4.52a49.72,49.72,0,0,0-19-6.9c.85,2.45,1.7,4.92,2.58,7.42-10.61-.82-21.23-.49-31.83-.1a792.44,792.44,0,0,1-109.68-110.54c15.95-2,32-3.26,48-4.68,9.37-.63,18.29-7,27.82-3.73,7.77-3.52,16.28-3,24.35-.92q1.57-2.88,3.22-5.7c9.36.4,18.75-.58,28.11.35.29-1,.62-2,.92-3,7.55.84,14.78-1.53,21.37-5.06,7.15,7.41,14.91,14.2,22.76,20.86-.93-2.78-1.85-5.5-2.78-8.25,2.35-2.58,4.6-5.26,6.95-7.81,0-6.29.12-12.57.18-18.82,3.32,0,6.65,0,10,.1-2.55-2.07-5.07-4.12-7.6-6.13,8.45-8.1,11.23-19.62,14.5-30.45.35-4.37-1-9.65,2.62-13C663.8,1634.23,669.38,1630.48,670.62,1624.25Z" fill="#43dcea"/><path d="m822.53 1617.73c61 30 125.57 53.42 192.22 67.35-3.75 2.92-6.52 6.82-9.17 10.75q4.42-1.32 8.9-2.61c1.22 7.23-5.1 10.71-10.4 13.86-3.1 14.32-9.83 27.47-18.16 39.42 1.31.35 3.9 1 5.23 1.35-1.9 6-3.7 12.1-5.42 18.2l4.3.77-2.65 5.13c-2.45-2.1-5.06-4-7.48-6-.65 2.08-1.3 4.18-1.92 6.28 2.14 2.92 4.25 5.9 6.52 8.78l-6.4-1.7c-31.5-10.23-62.73-21.6-92.88-35.41-26.14-12.24-52.2-24.85-77-39.64-7.17-4.38-14.2-9-21.28-13.48 3.45-.78 6.93-1.5 10.4-2.23-1.27-2-2.52-4-3.75-6q5.56 1 11.1 2l-6.5-6.77c3.78-.22 7.56-.5 11.35-.7-3-3.93-6-7.8-9.09-11.65 6.57-2 9-8 10.05-14.15 1-7.15 8.49-9.75 13.77-13.27-2.57-.18-5.13-.33-7.67-.48 3.05-6.25 5.53-12.83 5.93-19.8" fill="#66ebf7"/><path d="m1315 1695.05c29.4-5 59-9.63 87.5-18.77 6.33 2.8 9.6 8.32 9.77 15.09-2.24.15-4.5.3-6.72.51-.82 2.59-1.65 5.2-2.45 7.82 2.62-1.43 5.27-2.82 8-4.2 1.1 2.6 2.17 5.2 3.33 7.83-7.15-.41-13.43 3.32-20 5.37 2.32 4 4.78 7.93 7.15 11.9-1 2.9-2.15 5.75-3.15 8.68.93 2.17 1.88 4.35 2.87 6.52-1.12-.55-3.39-1.63-4.52-2.17-1.45-3-2.85-5.88-4.25-8.75-1.2-.5-3.65-1.46-4.87-1.93 1.55 2.6 3.07 5.25 4.65 7.88-3.25.5-6.48 1.07-9.68 1.62 3.2 2.17 6.38 4.4 9.6 6.63a49.09 49.09 0 0 1 -14.57 11.69 113.68 113.68 0 0 1 13.27 8.31c-1.25.62-2.48 1.27-3.7 1.92-.22 1.9-.42 3.85-.6 5.8-2.75-2.6-5.53-5.22-8.28-7.75a25.66 25.66 0 0 0 -.65 15.6c-.77.17-2.29.53-3 .68a71 71 0 0 0 1.25 21.64c-5-1-11.68-7.57-15.5-1.79-2.28 3.82 2.72 6.87 4.25 10-24 3.77-48.1 7-72.28 9.07q-47 3.18-94.18 2.57c-15.4-.8-30.77-2.17-46.14-3.42 5.27-.57 10.55-1.4 15.82-2.25-.92-9.6 8.12-13.25 14.1-18.55 3.1-6 3.07-13 4-19.6-2.42-.25-4.85-.45-7.23-.65 1.88-2.38 3.66-4.8 5.58-7.1q6.72-3.33 13.53-6.45c-3.73-.17-7.43-.38-11.13-.55 3-1.55 5.87-3.2 8.88-4.7a108.65 108.65 0 0 1 6 -25c2.67-.07 5.34-.12 8.05-.15.64-1.74 1.29-3.47 2-5.15q-3.43-.33-6.84-.6c1-6.12 1.74-12.24 2.22-18.42 36.02-1.93 72.17-3.55 107.92-9.18" fill="#5be5f2"/><path d="M1014.75,1685.08a843.6,843.6,0,0,0,137.6,18.25c18.2,1.29,36.45,2.54,54.65.87-.48,6.18-1.27,12.3-2.22,18.42q3.4.27,6.84.6c-.7,1.68-1.35,3.41-2,5.15-2.71,0-5.38.08-8.05.15a108.65,108.65,0,0,0-6,25c-3,1.5-5.91,3.15-8.88,4.7,3.7.17,7.4.38,11.13.55q-6.8,3.1-13.53,6.45c-1.92,2.3-3.7,4.72-5.58,7.1,2.38.2,4.81.4,7.23.65-1,6.55-1,13.58-4,19.6-6,5.3-15,9-14.1,18.55-5.27.85-10.55,1.68-15.82,2.25a815.9,815.9,0,0,1-86.28-11.75c-27.3-5.88-54.7-11.7-81.2-20.67-2.27-2.88-4.38-5.86-6.52-8.78.62-2.1,1.27-4.2,1.92-6.28,2.42,2.08,5,3.93,7.48,6l2.65-5.13-4.3-.77c1.72-6.1,3.52-12.18,5.42-18.2-1.33-.32-3.92-1-5.23-1.35,8.33-12,15.06-25.1,18.16-39.42,5.3-3.15,11.62-6.63,10.4-13.86q-4.47,1.29-8.9,2.61C1008.23,1691.9,1011,1688,1014.75,1685.08Z" fill="#60e8f4"/><path d="m406.88 1721.9c9.24-10.7 23.8-12.4 36.24-17.2 5.41 7 11 13.72 16.55 20.53a792.44 792.44 0 0 0 109.68 110.54 800.93 800.93 0 0 0 132.72 90.1c35.93 19.38 73 36.71 111.53 50.48 9.9 3.5 19.75 7.05 29.45 11.07-176.4-26.65-344.4-103.77-481.5-217.67 12.8-17.97 30.25-31.87 45.33-47.85" fill="#99d103"/><path d="m1364.58 1805.18c14.89-2.86 29.85-5.48 44.7-8.66-7.26 15.13-9.51 32-17.46 46.85.3 2.35.63 4.78.93 7.18-4.53 3.55-6.6 8.75-7 14.37-.39 6.53-5.39 11.15-9.34 15.88.82 3.8 1.67 7.62 2.52 11.45-2.35 1.12-4.7 2.27-7 3.45.37 1.2.77 2.42 1.19 3.68l-4.27 1.49c2 1.25 3.9 2.48 5.9 3.8a35.69 35.69 0 0 0 -7.28 8.08c-.39.9-.8 1.83-1.17 2.78-2.17.27-4.33.6-6.45.92 1.6 4.35 4.38 8.17 8.75 10.15-44.67 8.6-89.85 14.8-135.35 16.9 6.63-6.9 10.68-15.75 13-24.93 1.6-6.94 6.32-12.47 9.35-18.77-1.27-1.17-2.52-2.3-3.77-3.4 2.37-2.27 5.07-4.3 7-7 1.25-5.07-.22-10.47 1.33-15.47 3.48-7.23 9.65-13.28 10.75-21.51 1-6.52 2.07-13.27 6.65-18.32 5.32-6.32 9.6-13.4 14.7-19.9 24.22-2.03 48.31-5.2 72.32-9.02" fill="#0dc9da"/><path d="m1198.12 1816.82q47.1.65 94.18-2.57c-5.1 6.5-9.38 13.58-14.7 19.9-4.58 5-5.7 11.8-6.65 18.32-1.1 8.23-7.27 14.28-10.75 21.51-1.55 5-.08 10.4-1.33 15.47-2 2.65-4.67 4.68-7 7 1.25 1.1 2.5 2.23 3.77 3.4-3 6.3-7.75 11.83-9.35 18.77-2.32 9.18-6.37 18-13 24.93-39.35 2.2-78.8 0-118-3.17 4.25-4.61 7.27-10.13 10.13-15.63-.4-8.1 3.9-14.62 8.39-20.9 3-13.42 11.25-24.87 14.15-38.4 6.33-12.67 7.31-27.4 14.81-39.48 8.33-10.32 23.53-8.09 35.35-9.15" fill="#17cddd"/><path d="m881.88 1898.37c.92 3.48 1.9 7 2.85 10.48a76.19 76.19 0 0 1 7.57 -7.57c4.13-.53 8.25 1 12.3 1.72 5.3-2.2 10.47-4.7 15.92-6.42l4.68 1.49c31.1 10.65 62.48 20.73 94.77 27.13 31.48 6.55 63.18 12.4 95.23 15.13 39.25 3.22 78.7 5.37 118 3.17 45.5-2.1 90.68-8.3 135.35-16.9 3.1-.32 6.2-.65 9.35-1-109.52 46.48-228.23 69.4-346.9 74.4l-59.6 0c-42.93-2.45-86-4.88-128.38-12.58-9.7-4-19.55-7.57-29.45-11.07-38.48-13.77-75.6-31.1-111.53-50.48 11 1.55 21.83-1.64 32.73-2.65 7.15-.72 14.1 1.4 21.05 2.7 5.65-7.87 16.22-6 24.35-9.07 2.15.23 4.32.47 6.5.75 1.15-1.65 2.32-3.28 3.5-4.85 2.33 2.13 4.7 4.25 7 6.42.2-2.82.43-5.6.65-8.37 1.37 1.5 2.77 3.07 4.17 4.62 14.48-9.4 32.38-4.67 48.51-7.22 8.47-1.6 17 0 25.52.28a94.51 94.51 0 0 0 5.86 -10.11" fill="#4fe0ed"/></svg>