<svg xmlns="http://www.w3.org/2000/svg" width="92.391" height="63.747" viewBox="0 0 24.445 16.866"><path d="m113.81 206.29-.001.002 2.876-2.09-.117-.362-2.071 1.505.349-1.074-.308-.224-.61 1.878a3.144 3.144 0 0 1-1.132-3.143l-.317-.23a3.505 3.505 0 0 0 1.33 3.738m1.91-2.056-2.072-1.505h1.13l.117-.362h-1.977a3.156 3.156 0 0 1 2.642-2.048l.12-.372a3.517 3.517 0 0 0-3.145 2.42l2.876 2.09zm-1.92-4.655h.02c-.014-.158-.068-.252-.168-.29-.357-.134-.55-.428-.55-.758 0-.376.24-.61.542-.61.428 0 .583.499 1.073.499.175 0 .32-.103.32-.191v-.052h-.092c-.615 0-.71-.618-1.301-.618-.505 0-.904.4-.904.972 0 .576.445 1.048 1.06 1.048m-5.667 4.03h2.204v-.02a1.459 1.459 0 0 1-.582-.342h-1.622c-.825 0-1.068-.077-1.477-.518h5.597c.025-.122.055-.244.091-.361h-6.478l.251.297c.656.777.902.944 2.016.944m6.776-5.637a.505.505 0 0 0 .507-.502c0-.246-.113-.345-.229-.345a.185.185 0 0 0-.185.184c0 .109.098.183.172.183-.095.144-.238.194-.423.18a.184.184 0 0 0-.15-.29c-.091 0-.183.087-.183.196 0 .207.194.394.491.394m-1.806 7.916h-2.655c-.73 0-1.005-.061-1.342-.382h-.5c.536.606.832.743 1.842.743h3.02a3.772 3.772 0 0 1-.365-.361m-1.222-.519v-.02a1.457 1.457 0 0 1-.582-.342h-1.622c-.731 0-1.005-.06-1.343-.381h-.5c.536.605.833.743 1.843.743zm-.771-.88v-.02a1.456 1.456 0 0 1-.582-.341h-1.623c-.73 0-1.005-.061-1.342-.382h-.5c.536.606.832.743 1.842.743zm5.502-5.995c-.18 0-.362.22-.43.541.112.008.223.02.331.036.072-.28.197-.408.302-.427-.038-.085-.108-.15-.203-.15m-.739 1.448-1.099 3.382.308.223.79-2.434.35 1.073h.38l-.61-1.878a3.151 3.151 0 0 1 2.763 1.878h.391a3.515 3.515 0 0 0-3.273-2.244m1.961.182v-.371a4.088 4.088 0 0 0-1.96-.535 4.09 4.09 0 0 0-1.962.535v.371a3.855 3.855 0 0 1 1.961-.544 3.85 3.85 0 0 1 1.961.544m-3.745-.706c.092-.043.186-.083.283-.12-.047-.14-.136-.3-.302-.3-.082 0-.147.067-.175.144.077.028.14.094.194.276m.198 6.752-.317.229a3.492 3.492 0 0 0 3.964-.108h.002l-1.098-3.381h-.38l.79 2.434-.913-.663-.307.224 1.597 1.16a3.13 3.13 0 0 1-3.338.105m.946-7.099c.11-.017.22-.028.332-.036-.067-.321-.25-.541-.43-.541-.095 0-.165.065-.203.15.105.019.23.148.301.427m-.655-.335a.215.215 0 0 0-.194.143c.079.011.183.075.26.326a4.64 4.64 0 0 1 .308-.08c-.074-.249-.208-.39-.374-.39m8.562 6.771h-.5c-.337.32-.611.381-1.342.381h-2.654c-.114.13-.236.25-.367.362h3.021c1.01 0 1.307-.138 1.842-.743m-7.484-3.139-.117.362h2.559l-.913.664.117.361 1.6-1.162a3.14 3.14 0 0 1-.935 3.208l.121.372a3.505 3.505 0 0 0 1.123-3.805zm9.434.362c-.408.441-.651.518-1.476.518h-1.623c-.183.167-.36.276-.582.343v.02h2.205c1.113 0 1.36-.168 2.015-.945l.252-.298h-6.48c.037.118.068.24.092.362zm-9.574-5.445.358-.26.357.26-.136-.42.358-.26h-.442l-.137-.42-.137.42h-.442l.358.26zm8.395 7.342h-.5c-.336.32-.61.381-1.342.381h-1.622c-.184.167-.36.276-.582.343v.02h2.204c1.01 0 1.307-.139 1.842-.744m.772-.88h-.5c-.337.32-.611.381-1.342.381h-1.623c-.183.167-.36.276-.581.343v.019h2.204c1.01 0 1.306-.138 1.842-.743m-6.831-4.604c-.028-.077-.093-.143-.176-.143-.165 0-.254.159-.3.3.096.037.19.076.282.12.054-.183.118-.25.194-.277m-2.206-.68c.1.114.159.203.223.346l.005.007.005-.007c.064-.143.123-.232.222-.347a1.294 1.294 0 0 0-.227-.354c-.076.073-.19.255-.228.354m1.066-.284v.052c0 .088.143.19.319.19.49 0 .644-.498 1.073-.498.301 0 .542.234.542.61 0 .33-.193.624-.55.759-.1.037-.154.13-.17.289h.022c.614 0 1.06-.472 1.06-1.048 0-.573-.4-.972-.904-.972-.592 0-.687.618-1.3.618zm-.38-.708c0 .242.193.502.506.502.298 0 .491-.187.491-.393 0-.11-.091-.196-.183-.196a.184.184 0 0 0-.149.29c-.185.014-.33-.036-.424-.18a.187.187 0 0 0 .173-.183c0-.1-.083-.185-.186-.185-.116 0-.229.1-.229.345m-.457-.138a.29.29 0 1 0 0 .58.29.29 0 0 0 0-.58m1.49 1.548a.215.215 0 0 0-.194-.143c-.167 0-.3.14-.375.389.104.023.207.05.308.08.077-.251.182-.315.26-.326m-11.027 13.74h-.47v-1.072h.487v.231s.065-.232.404-.207v.516s-.363-.052-.42.12zm10.054 0h-.47v-1.072h.486v.231s.065-.232.404-.207v.516s-.363-.052-.42.12zm-8.719-.799s-.19-.016-.214.25c0 0 .008.214.197.223 0 0 .182.017.198-.215 0 0 .008-.249-.181-.258m.634.267c-.025.609-.634.557-.634.557-.7.034-.692-.583-.692-.583.041-.55.684-.532.684-.532.666 0 .642.558.642.558m15.566-.267s-.19-.016-.214.25c0 0 .008.214.197.223 0 0 .181.017.198-.215 0 0 .008-.249-.181-.258m.634.267c-.025.609-.634.557-.634.557-.7.034-.692-.583-.692-.583.041-.55.684-.532.684-.532.667 0 .642.558.642.558m-16.102-.541h.577l.181.532.165-.532h.527l-.387.867s-.156.412-.411.369h-.553v-.309h.346zm2.307.284s-.223-.035-.23.248c0 0 0 .232.205.232 0 0 .19.008.206-.223 0 0 .025-.258-.181-.258m.164-.283h.478v1.073h-.478v-.198c-.14.223-.428.198-.428.198-.502-.052-.444-.567-.444-.567.016-.566.485-.54.485-.54.206-.009.387.171.387.171zm3.262.284s-.222-.035-.23.248c0 0 0 .232.205.232 0 0 .19.008.206-.223 0 0 .025-.258-.181-.258m.164-.283h.478v1.073h-.477v-.198c-.14.223-.43.198-.43.198-.5-.052-.443-.567-.443-.567.016-.566.486-.54.486-.54.206-.009.387.171.387.171zm8.228 1.073h-.47v-1.072h.487v.231s.065-.232.403-.207v.516s-.362-.052-.42.12zm-1.433-.789s-.222-.035-.23.248c0 0 0 .232.206.232 0 0 .189.008.206-.223 0 0 .024-.258-.182-.258m.165-.283h.477v1.073h-.477v-.198c-.14.223-.429.198-.429.198-.502-.052-.444-.567-.444-.567.016-.566.486-.54.486-.54.206-.009.387.171.387.171zm-9.603-.189h.494v1.262h-.494zm3.434.189h.494v1.072h-.493zm0-.215h.494v.142h-.493zm2.981 1.288v-1.073h.478v.24s.108-.257.42-.257c0 0 .24-.026.363.214 0 0 .198-.266.42-.214 0 0 .28-.017.346.291v.79h-.511v-.558s-.025-.163-.14-.145c0 0-.123 0-.14.128v.584h-.503v-.541s.025-.189-.115-.163c0 0-.123-.017-.147.137v.567zm7.809-1.039s-.182-.077-.569-.086c0 0-.543-.008-.56.593 0 0 0 .506.61.532 0 0 .395 0 .518-.18v-.25s-.123.078-.362.078c0 0-.28.017-.28-.224 0 0 .016-.206.214-.196 0 0 .206-.043.428.06zm-17.993-2.213s-.132.226-.132.274c0 .047.035.113-.006.13-.04.019-.354.102-.326-.196-.314.126-1.13.489-1.862.489-.437 0-.657.053-.837-.139-.086-.12-.31-.296-.46.025-.154.22-.16.423-.257.405-.102-.019-.148-.232-.177-.488-.108.363-.02.833.109.827.124 0 .201-.227.266-.367.065-.138.091-.2.185-.204.354.018-.017.387 1.126.333.53-.053 1.216-.16 1.68-.488.085-.07.107-.089.13.048.029.149.092.209.252.196.16-.011.451-.292.308-.845m20.063-.423c-.057.102-.183.334-.245.37 0 .172.028 1.273-.012 1.35.097-.178.28-.398.268-.565-.011-.166.017-1.077-.011-1.155m-1.514.239-.286.202.166.155.257-.232z" style="fill:#c20831;fill-opacity:1;fill-rule:nonzero;stroke:none;stroke-width:.35277778" transform="translate(-103.65 -196.05)"/><path d="M123.156 209.95c.017-.1-.108-.243-.252-.208 0 .113.035.215.092.227.057.011.143.018.16-.019m2.034.114c-.2-.114-.812.113-.994.214.263.03.988 0 .994-.214m2.097-.852s-.11.138-.144.191c-.034.054-.01.071-.017.166-.006.096.006.245-.114.405.046.048.589.155.589.155l-.28.334c-.04-.024-.326.011-.452.023-.125.012-.76.101-1.034.137-.274.036-.914.06-1.422.042-.508-.018-.703-.12-.994-.202 0 0-.172.238-.28.267-.108.03-.48.06-.96-.041.149-.012.966-.215 1.109-.375-.337.012-.6-.12-.623-.19-.023-.072.086-.227.143-.334.057-.107.205-.38.297-.375.166.012.325.31.406.53.074.107.313.267.502.22.034-.024.206-.12.285-.167l-.011-.44c-.005-.084-.062-.113-.074-.19-.011-.078.08-.257.2-.465-.028.09.08.197.103.316.023.119-.075.16-.086.19a3.46 3.46 0 0 0-.006.53c.72-.346.863-.298 1.017-.19.154.106.097.32-.166.53.171.023.743-.03 1.04-.102-.023-.018-.52-.113-.52-.113.035-.012.171-.274.171-.274l.88-.012c.114 0 .114-.083.114-.083l.006-.226c0-.06-.022-.072-.04-.209-.017-.137.229-.333.229-.333-.057.202 0 .214.132.285m-5.256 1.008c-.005-.076-.064-.179-.266-.17-.201.01-.424.223-.51.34.082.004.596-.023.776-.17m-.685-.969c.038.01.094.056.11.067.018 0-.012.098-.115.156.026.406-.021.661-.021.661.711-.527 1.062-.482 1.105-.241.043.241-.446.732-.857.768-.41.036-.616-.063-1.028-.25.077.018.283-.01.514.027.017-.054.112-.152.189-.214l-.052-.608c-.008-.071-.069-.08-.051-.232.017-.152.09-.343.218-.366a.52.52 0 0 0-.012.232m-1.312-.268c-.021.045-.214.385-.214.385.017.29.056 1.093-.026 1.28.18-.24.266-.442.266-.53 0 0-.005-1.086-.026-1.135m-.82 1.163c-.013.077-.028.27.19.226.065-.045-.02-.252-.19-.226m-.015-1.007c0 .027.12.054.128.126.008.071-.02.124-.094.214l-.013.219s-.004.102.026.133c.068.036.133-.062.244-.022.182.066.073.362.035.51-.04.147-.176.392-.266.388-.141-.007-.193-.117-.231-.326-.103.089-.652.294-.913.29-.261-.005-.343-.241-.403-.451-.03.094-.27.469-.706.464-.438-.004-.738-.272-.93-.438l-.048.014c-.034.26-.235.322-.368.335-.133.014-.274-.187-.343-.384-.06.04-.805.359-1.392.366-1.067.014-.87-.424-1.097-.42-.095.004-.12.032-.184.17-.065.14-.163.362-.287.362-.309 0-.253-.576-.086-.853.051-.094.073-.04.047.013-.026.054-.086.416.017.434.072.012.184-.072.339-.29.137-.224.403-.189.488-.068.163.241.411.25.849.26.436.008.715-.072 1.405-.367-.017.058-.01.21.098.29.107.08.287.12.352-.058l-.288-.259c-.098-.085-.162-.085-.14-.34 0-.477 1.391-.405 1.391-.405.15 0 .297-.022.31.107.024.294-.262.491-.532.572.08-.045.287-.197.304-.268.019-.08-.009-.112-.086-.108-.077.004-1.092.099-1.092.099-.056.009-.022.058-.022.058l.913.638c.411.214.737.072.921 0 .184-.071.18-.187.184-.272l.018-.594c.047-.027.162-.241.162-.241l-.017.955c.005.112.017.3.15.317.296.05.878-.241 1.02-.348a5.244 5.244 0 0 0-.008-.402c0-.062-.099-.085-.099-.16 0-.076.193-.398.236-.447-.022.05.009.16.009.188m-6.578.129-.282.223.188.098s.18-.151.257-.142c.077.009.189.107.189.107s.248-.214.282-.224c-.06-.08-.162-.124-.162-.124s-.215.151-.266.151c-.052 0-.206-.089-.206-.089" style="fill:#c20831;fill-opacity:1;fill-rule:nonzero;stroke:none;stroke-width:.35277778" transform="translate(-103.65 -196.05)"/><path d="M114.822 210.463c-.04.035-.257.16-.303.172l.183.113s.21-.125.257-.107c.045.018.16.095.16.095l.29-.155-.136-.125s-.223.12-.274.113c-.052-.006-.177-.106-.177-.106m-3.253-1.426c-.022.044-.215.384-.215.384.06.357.158 1.125.077 1.312.18-.24.249-.49.249-.58 0 0-.09-1.067-.111-1.116m-2.174.86.297-.131c-.046-.03-.372-.036-.429-.03zm1.422.267c-.013.075-.028.274.16.239.069-.066.011-.266-.16-.24m-2.433.198c-.292.024-.771.506-1.023.4-.147-.063-.012-.382.091-.465-.085.31-.085.274-.022.327.062.054.462-.291.657-.416.194-.125.65-.239.965-.245a.285.285 0 0 0-.12-.113 1.313 1.313 0 0 0-.194-.035l.154-.316c.343-.071 1.069.048 1.257.095l-.075.37a.74.74 0 0 0-.314.154c.195.22.727 0 .869-.107.008-.058 0-.38 0-.38 0-.064-.11-.063-.11-.139 0-.076.193-.397.236-.446-.021.049.008.16.008.187 0 .027.102.046.11.117.009.072-.003.133-.075.222l-.007.174s-.004.103.025.134c.069.036.133-.062.245-.022.18.065.04.39 0 .537-.038.147-.085.33-.204.313-.182-.028-.162-.166-.2-.375-.103-.045-.376.282-.89.187-.208-.039-.359-.125-.573-.321-.052.062-.543.05-.811.163" style="fill:#c20831;fill-opacity:1;fill-rule:nonzero;stroke:none;stroke-width:.35277778" transform="translate(-103.65 -196.05)"/><path d="m109.646 209.081-.308.173.171.113.251-.172zm-4.958.119.194.078s-.24.196-.257.202c-.017.006-.177-.083-.235-.065-.056.018-.194.167-.194.167s-.182-.066-.223-.078c.097-.054.24-.214.27-.244.113.048.227.114.262.101.034-.011.114-.16.183-.16m2.096 1.285c.034 0 .217-.155.263-.149.046.006.194.126.194.126s-.268.208-.297.201c-.029-.006-.16-.112-.189-.106-.028.006-.251.16-.251.16l-.24-.106s.257-.22.298-.227c.039-.006.182.09.222.101m1.508.006-.228.12.114.142.24-.155z" style="fill:#c20831;fill-opacity:1;fill-rule:nonzero;stroke:none;stroke-width:.35277778" transform="translate(-103.65 -196.05)"/></svg>