<svg xmlns="http://www.w3.org/2000/svg" width="512pt" height="512pt" style="isolation:isolate" viewBox="0 0 512 512"><defs><clipPath id="a"><path d="M0 0h512v512H0z"/></clipPath></defs><g clip-path="url(#a)"><path fill="#5F6367" d="M429.648 303.791s9.259 9.752 12.618 23.238c0 0-20.074-1.589-28.101 4.629 0 0 .616 5.635 9.94 15.619 0 0 1.712 2.931-2.386 5.557-3.832 2.451-23.296 3.722-24.003-16.754 0 0-12.5 15.237-29.624 12.954 0 0-13.518-1.646-14.394-14.367 0 0 12.987 2.567 23.316-2.283 0 0-.37-8.39-12.215-16.676 0 0 9.245-12.001 30.285-17.674 0 0-4.104-18.213 1.874-36.633 6.179-18.492 9.194-22.881 10.769-26.914 1.718-3.838 3.618-13.486.506-23.769 0 0 48.867-.999 49.055 51.305.007.007.48 29.119-27.64 41.768Zm-55.007 89.812-28.665-13.11 28.191-9.226 27.018 12.345-26.544 9.991Zm-48.161-47.415c-16.436-.959-22.388-17.324-22.388-17.324-8.241 10.808-25.196 9.109-25.196 9.109-13.648-3.099-14.614-14.951-14.614-14.951 15.036-3.015 18.9-8.494 18.9-8.494-3.449-9.583-19.691-14.893-19.691-14.893 9.764-15.47 30.771-23.309 30.771-23.309-8.182-8.526-10.549-16.987-12.656-30.92-2.139-14.329 1.576-36.406 1.576-36.406 4.26-19.763 11.709-29.345 18.128-37.703 6.951-8.234 13.83-7.249 13.83-7.249 9.123 1.018 17.389 5.907 17.389 5.907 10.938 6.393 18.693 15.775 22.285 20.696 3.248 4.947 13.823 28.69.674 58.489-13.253 29.391-26.817 35.025-26.817 35.025 20.405 19.62 20.307 28.47 20.307 28.47-16.851 0-21.35 9.356-21.35 9.356 4.136 8.221 16.215 11.295 16.215 11.295-3.481 13.538-17.363 12.902-17.363 12.902Zm-10.886 43.467c-5.725 0-10.394-4.5-10.394-10.27 0-5.913 4.669-10.4 10.394-10.4 5.55 0 10.147 4.487 10.147 10.4 0 5.764-4.597 10.27-10.147 10.27Zm-57.802 0-27.394-11.003 27.394-11.107 27.951 11.107-27.951 11.003Zm-46.294-60.791s-6.107 16.358-22.375 17.324c0 0-13.927.642-17.318-12.889 0 0 11.807-3.08 16.099-11.295 0 0-4.5-9.356-21.448-9.356 0 0-.156-8.844 20.501-28.47 0 0-13.862-5.634-26.985-35.025-13.103-29.805-2.639-53.542.817-58.489 3.45-4.921 11.172-14.303 22.187-20.696 0 0 8.183-4.889 17.545-5.907 0 0 6.685-.985 13.454 7.249 6.516 8.358 14.361 17.94 18.336 37.703 0 0 3.78 22.07 1.601 36.406-2.029 13.933-4.363 22.394-12.617 30.92 0 0 20.78 7.839 30.7 23.309 0 0-16.403 5.31-19.684 14.893 0 0 3.896 5.479 18.822 8.494 0 0-.61 11.852-14.725 14.951.007-.013-16.727 1.686-24.91-9.122Zm-11.444 60.791c-5.537 0-10.497-4.5-10.497-10.27 0-5.505 4.967-10.063 10.497-10.063 5.674 0 9.972 4.558 9.972 10.063 0 5.764-4.298 10.27-9.972 10.27Zm-59.222 3.948-26.855-9.926 27.277-12.41 28.1 9.453-28.522 12.883Zm-47.369-40.062c-3.69-2.62-2.367-5.583-2.367-5.583 9.311-9.849 10.128-15.496 10.128-15.496-8.118-6.172-27.984-4.564-27.984-4.564 3.281-13.785 12.475-23.199 12.475-23.199-28.237-13.214-27.472-42.112-27.472-42.112 0-52.07 48.971-51.247 48.971-51.247-3.099 10.206-1.121 19.866.396 24.003 1.582 3.838 4.83 8.066 10.919 26.687 5.893 18.433 1.808 36.445 1.808 36.445 20.936 5.79 30.104 17.804 30.104 17.804-11.917 8.267-11.917 16.76-11.917 16.76 10.069 4.934 23.264 2.257 23.264 2.257-.973 12.811-14.602 14.277-14.602 14.277-16.883 2.23-29.637-12.754-29.637-12.754-.59 20.365-19.989 19.237-24.086 16.722ZM502 260.526c10.478-3.502 9.226-15.114 9.226-15.114-2.243-13.583-16.468-11.651-16.468-11.651 8.999-10.549 1.867-18.777 1.867-18.777-6.964-8.694-17.953-3.086-17.953-3.086 4.999-11.146-1.608-16.767-1.608-16.767-8.786-7.728-17.96.266-17.96.266-.266-10.886-8.131-13.376-8.131-13.376-9.258-4.007-16.06 4.331-16.06 4.331-6.795-18.692-20.138-9.096-23.328-7.806-3.158 1.861-3.469 0-3.469 0-.596-22.596-19.834-14.102-19.834-14.102 5.239-11.288-3.89-17.649-3.89-17.649-9.874-6.107-18.089 2.451-18.089 2.451-1.018-14.919-12.04-10.491-15.542-9.174-3.358.752-10.607 1.024-10.607 1.024-22.797-2.82-31.232-1.511-31.232-1.511-27.757-.564-51.143 45.47-51.143 45.47v.402l-.415-.402s-23.718-46.034-51.383-45.47c0 0-8.481-1.309-31.206 1.511 0 0-7.081-.272-10.601-1.024-3.502-1.317-14.576-5.745-15.341 9.174 0 0-8.318-8.558-18.225-2.451 0 0-9.091 6.361-3.865 17.649 0 0-19.328-8.494-19.931 14.102 0 0-.11 1.861-3.52 0-3.073-1.297-16.384-10.886-23.153 7.806 0 0-6.919-8.338-16.08-4.331 0 0-7.981 2.49-8.26 13.376 0 0-9.226-7.994-18.083-.266 0 0-6.627 5.621-1.757 16.767 0 0-10.724-5.608-17.435 3.086 0 0-7.249 8.228 1.867 18.777 0 0-14.62-1.932-16.637 11.651 0 0-1.108 11.612 9.097 15.114 0 0-11.989 5.608-9.836 15.256 0 0 .733 9.609 13.181 11.443 0 0-10.425 6.912-6.101 16.573 0 0 4.13 11.275 17.454 7.994 0 0-5.012 11.684 2.743 16.884 0 0 7.275 6.205 16.281.11 0 0 4.733-1.751 6.704 1.64 0 0 3.391 5.434-3.716 13.454 0 0 38.734-3.281 49.173 59.203h316.974c10.491-62.484 49.769-59.203 49.769-59.203-7.281-8.02-3.754-13.454-3.754-13.454 1.777-3.384 6.549-1.64 6.549-1.64 9.032 6.095 16.507-.11 16.507-.11 7.476-5.2 2.587-16.884 2.587-16.884 13.454 3.281 17.746-7.994 17.746-7.994 3.864-9.654-6.38-16.573-6.38-16.573 12.488-1.834 12.993-11.443 12.993-11.443 2.218-9.648-9.725-15.256-9.725-15.256ZM102.436 437.414c.622 7.372.875 14.173.875 14.173h308.034s.253-6.432.882-13.266c.7-7.449 1.549-13.298 1.549-13.298H100.828s.992 6.186 1.608 12.391Zm137.668-307.34s-9.907-.214-16.423 3.021c0 0 22.998 6.16 34.111 32.795 11.197-26.629 34.052-32.795 34.052-32.795-6.101-3.235-16.443-3.021-16.443-3.021-.998-3.476-4.856-6.218-4.856-6.218 3.015-3.644 9.025-7.644 9.025-7.644L257.798 64.53l-21.694 51.682s5.945 4.007 8.928 7.644c-.007-.007-3.936 2.742-4.928 6.218Z"/><path fill="#A6844B" d="M426.886 299.674s9.272 9.7 12.624 23.231c0 0-20.073-1.569-28.087 4.662 0 0 .596 5.557 9.9 15.567 0 0 1.744 2.963-2.353 5.563-3.858 2.477-23.283 3.78-23.99-16.702 0 0-12.559 15.205-29.682 12.948 0 0-13.512-1.673-14.355-14.361 0 0 12.993 2.509 23.335-2.282 0 0-.448-8.416-12.216-16.709 0 0 9.227-11.988 30.273-17.661 0 0-4.182-18.226 1.874-36.646 6.159-18.479 9.187-22.888 10.756-26.895 1.731-3.864 3.644-13.512.506-23.782 0 0 48.867-1.005 49.036 51.299.006 0 .506 29.118-27.621 41.768Zm-55.072 89.838-28.58-13.142 28.197-9.227 26.934 12.3-26.551 10.069Zm-48.148-47.441c-16.384-1.018-22.401-17.324-22.401-17.324-8.183 10.808-25.137 9.051-25.137 9.051-13.649-3.022-14.582-14.9-14.582-14.9 15.022-3.021 18.893-8.461 18.893-8.461-3.43-9.609-19.769-14.932-19.769-14.932 9.836-15.515 30.83-23.309 30.83-23.309-8.182-8.519-10.529-16.961-12.643-30.927-2.146-14.322 1.582-36.386 1.582-36.386 4.189-19.756 11.71-29.352 18.142-37.716 6.918-8.234 13.797-7.255 13.797-7.255 9.142 1.018 17.383 5.926 17.383 5.926 10.892 6.399 18.699 15.781 22.265 20.689 3.287 4.941 13.901 28.697.674 58.483-13.227 29.384-26.784 34.986-26.784 34.986 20.41 19.672 20.3 28.496 20.3 28.496-16.851 0-21.338 9.401-21.338 9.401 4.137 8.202 16.203 11.269 16.203 11.269-3.462 13.551-17.415 12.909-17.415 12.909Zm-10.782 43.486c-5.732 0-10.426-4.564-10.426-10.264 0-5.919 4.701-10.406 10.426-10.406 5.511 0 10.043 4.487 10.043 10.406 0 5.7-4.532 10.264-10.043 10.264Zm-57.854 0-27.42-11.048 27.42-11.094 27.964 11.094-27.964 11.048Zm-46.281-60.81s-6.101 16.306-22.44 17.324c0 0-13.875.648-17.253-12.903 0 0 11.774-3.073 16.099-11.268 0 0-4.48-9.402-21.442-9.402 0 0-.201-8.817 20.502-28.495 0 0-13.869-5.602-26.985-34.986-13.117-29.786-2.685-53.543.817-58.483 3.442-4.915 11.171-14.297 22.174-20.69 0 0 8.195-4.908 17.551-5.926 0 0 6.646-.979 13.499 7.255 6.464 8.364 14.329 17.96 18.284 37.716 0 0 3.793 22.064 1.608 36.387-2.01 13.965-4.363 22.407-12.611 30.927 0 0 20.768 7.8 30.701 23.309 0 0-16.398 5.316-19.698 14.932 0 0 3.897 5.439 18.855 8.461 0 0-.642 11.878-14.796 14.899 0-.006-16.637 1.751-24.865-9.057Zm-11.47 60.81c-5.576 0-10.477-4.564-10.477-10.264 0-5.543 4.901-10.069 10.477-10.069 5.7 0 9.985 4.519 9.985 10.069 0 5.7-4.285 10.264-9.985 10.264Zm-59.241 3.955-26.823-9.926 27.218-12.443 28.153 9.421-28.548 12.948Zm-47.325-40.063c-3.682-2.703-2.444-5.64-2.444-5.64 9.369-9.81 10.186-15.438 10.186-15.438-8.111-6.257-27.977-4.642-27.977-4.642 3.3-13.798 12.487-23.18 12.487-23.18-28.255-13.22-27.49-42.092-27.49-42.092 0-52.07 48.971-51.247 48.971-51.247-3.08 10.219-1.109 19.86.402 23.996 1.569 3.839 4.843 8.073 10.918 26.7 5.894 18.427 1.796 36.393 1.796 36.393 20.884 5.842 30.085 17.83 30.085 17.83-11.885 8.319-11.885 16.78-11.885 16.78 10.037 4.889 23.225 2.269 23.225 2.269-.934 12.806-14.556 14.303-14.556 14.303-16.884 2.224-29.682-12.785-29.682-12.785-.545 20.378-19.931 19.237-24.036 16.753Zm408.531-93.047c10.407-3.514 9.175-15.126 9.175-15.126-2.237-13.577-16.423-11.645-16.423-11.645 8.999-10.549 1.854-18.757 1.854-18.757-6.951-8.702-17.934-3.106-17.934-3.106 5.005-11.159-1.614-16.754-1.614-16.754-8.818-7.748-17.947.266-17.947.266-.273-10.893-8.124-13.363-8.124-13.363-9.304-4.033-16.073 4.331-16.073 4.331-6.782-18.705-20.139-9.116-23.303-7.806-3.183 1.835-3.475 0-3.475 0-.61-22.596-19.873-14.135-19.873-14.135 5.272-11.281-3.818-17.635-3.818-17.635-9.908-6.108-18.135 2.444-18.135 2.444-.999-14.913-12.105-10.478-15.574-9.175-3.359.753-10.595 1.018-10.595 1.018-22.816-2.82-31.206-1.504-31.206-1.504-27.789-.538-51.149 45.477-51.149 45.477v.395l-.402-.395s-23.724-46.015-51.397-45.477c0 0-8.487-1.309-31.206 1.504 0 0-7.08-.265-10.607-1.018-3.495-1.309-14.556-5.744-15.347 9.175 0 0-8.312-8.552-18.219-2.444 0 0-9.09 6.354-3.923 17.635 0 0-19.269-8.461-19.892 14.135 0 0-.084 1.835-3.527 0-3.021-1.31-16.332-10.899-23.121 7.806 0 0-6.911-8.364-16.079-4.331 0 0-7.981 2.47-8.241 13.363 0 0-9.233-8.014-18.083-.266 0 0-6.685 5.595-1.757 16.754 0 0-10.737-5.596-17.486 3.106 0 0-7.217 8.208 1.925 18.757 0 0-14.64-1.932-16.702 11.645 0 0-1.121 11.612 9.11 15.126 0 0-11.995 5.602-9.81 15.243 0 0 .694 9.596 13.136 11.457 0 0-10.38 6.905-6.095 16.572 0 0 4.15 11.314 17.493 8.027 0 0-4.999 11.599 2.723 16.851 0 0 7.321 6.231 16.32.084 0 0 4.726-1.731 6.698 1.66 0 0 3.39 5.453-3.793 13.454 0 0 38.785-3.326 49.23 59.202h316.994c10.504-62.528 49.769-59.202 49.769-59.202-7.326-8.001-3.754-13.454-3.754-13.454 1.77-3.384 6.503-1.66 6.503-1.66 9.064 6.147 16.553-.084 16.553-.084 7.476-5.252 2.548-16.851 2.548-16.851 13.499 3.287 17.791-8.027 17.791-8.027 3.813-9.661-6.379-16.572-6.379-16.572 12.429-1.861 12.993-11.457 12.993-11.457 2.159-9.641-9.752-15.243-9.752-15.243ZM99.642 433.277c.674 7.385.875 14.16.875 14.16h308.092s.253-6.431.875-13.259c.7-7.398 1.491-13.324 1.491-13.324H98.098s.986 6.244 1.544 12.423Zm137.7-307.333s-9.9-.195-16.417 3.028c0 0 22.998 6.153 34.111 32.781 11.197-26.628 34.065-32.781 34.065-32.781-6.101-3.229-16.442-3.028-16.442-3.028-1.005-3.502-4.902-6.218-4.902-6.218 3.047-3.644 9.051-7.619 9.051-7.619l-21.772-51.694-21.681 51.694s5.939 3.975 8.921 7.619c-.006-.007-4 2.716-4.934 6.218Z"/></g></svg>