<svg id="Layer_1" xmlns="http://www.w3.org/2000/svg" viewBox="0 0 336.2 336.2" width="2500" height="2500"><style>.st0{fill:#018525}.st1{fill:#2c1d10}.st2{fill:#26811e}.st3{fill:#380006}.st4{fill:#6da713}</style><path class="st0" d="M168.1 336.2C75.4 336.2 0 260.8 0 168.1S75.4 0 168.1 0s168.1 75.4 168.1 168.1-75.4 168.1-168.1 168.1zm0-288.5c-66.4 0-120.4 54-120.4 120.4s54 120.4 120.4 120.4 120.4-54 120.4-120.4-54-120.4-120.4-120.4z"/><path class="st1" d="M165.1 16c2.3-4 7.8-4.5 11.7-2.8 2.4 1.1 3.2 3.7 4.3 5.9-1.1.3-2.3.6-3.4 1-1.3-1.7-2.2-4.6-4.9-4.3-1.5-.2-3.1.4-3.9 1.7-1.9 3.3-1.7 7.4-.5 10.9.9 2.6 5 3.6 6.8 1.4.9-1 1.7-2.1 2.5-3.1l3.3 1.2c-1.6 6.2-10.1 8.7-14.7 4.2-4-4.3-3.7-11.1-1.2-16.1zM208.6 16.9c1.8-.5 3.6-.2 5.4-.2.3.6 1 1.9 1.3 2.5-1.4.6-3 .9-4.5 1.1-.2.5-.7 1.6-.9 2.1.8.8 1.7 1.4 2.6 2.1 0 .3-.1 1-.1 1.4-1.3.5-3.6 0-4 1.7-1 3.4-1.7 7-2.7 10.4-1.2-.1-2.4-.1-3.6-.2.3-4.1 1.6-8 2.6-12-1.1-1-1.7-2.4-1.8-3.9.6 0 1.9-.1 2.5-.2 1-1.7 1.6-3.6 3.2-4.8zM126.2 17.5c1.1 0 2.3 0 3.4-.1 0 1.2.1 2.4.1 3.6-1.2 0-2.5 0-3.7.1.1-1.2.2-2.4.2-3.6zM141 21.6c2.2-1.5 4.7-1.9 7.3-1.8 3.1 4.5 3.5 10.1 4.1 15.4-1.3 0-2.6 0-3.8-.2-1-3.8-1.3-7.8-2.4-11.7-1.8.1-4.6-.6-4.9 2 .1 3.9 1.4 7.6 1.9 11.4-1.4 0-2.8 0-4.2.1-.6-5.1-1.9-10-2.7-15.1 1.6 0 3.1 0 4.7-.1zM188.1 20c4.9-2.6 11.5 1.6 11 7.2.3 5.1-5 10.4-10.1 8.1-6.8-1.8-6.5-12.4-.9-15.3m-.1 10.9c1.5.7 3 2.5 4.6 1.2 3.8-2.4 3.1-10.7-2.5-9.7-2 2.4-2.1 5.5-2.1 8.5zM220.3 21.1c2-.7 4.3-.2 6.4-.2 0 1-.1 2-.1 3.1-1.8.2-3.8-.1-5.1 1.3.8 1.6 1.8 3.2 2.5 4.9-1.2 0-2.5-.1-3.7-.1-1.4 3.6-2.8 7.3-3.9 11.1-1.3-.1-2.5-.1-3.7-.4-.2-3.9 2.8-7.4 3.1-11.3-.3-1.5-.8-2.9-1-4.4.7 0 2 .1 2.6.1.9-1.5 1.5-3.1 2.9-4.1zM127.8 24.1c1.1-.5 2.3-.7 3.4-1 1.2 5.2 3.4 10.1 3.7 15.4-1.2.1-2.3.1-3.5.2-1.2-4.9-3.5-9.6-3.6-14.6zM111.9 34.7c-1.5-5.9 6.7-9.6 10.9-6.1 2.5 3.6 3.4 8 5.4 11.9-2.3.5-4.6 1.1-6.6 2.5-2.5 1.7-5.7.9-7.9-.9V37c2.1-1.7 4.5-3 7-4.1-.8-1.1-1.5-3.2-3.3-2.7-1.2.7-1.8 2-2.5 3.1-1 .4-2 .9-3 1.4m7 1.4c-1.7.7-1 2.9-1.3 4.3 1.2-.1 2.3-.1 3.5-.4 1.6-.8.9-2.9 1.2-4.3-1.1.1-2.3.2-3.4.4zM91.2 34.3c-1.1-2.2 1.6-2.6 3.2-2.8 1 2.2 2.1 4.3 3.3 6.4 1.6-1.6 2.9-4.1 5.5-3.8 2.9-.6 4.3 2.3 5.6 4.3 1.4 2.6 3.3 5.1 3.5 8.1-.6 1-1.9 1.2-3 1.7-2.2-3.7-3.5-8-6.9-10.8-1.1.8-2.3 1.6-3.4 2.4 1.1 4.3 4.8 7.5 4.7 12.1-1 .1-2.1.3-3.1.4-3.1-6.1-6.4-12-9.4-18zM229.1 31.8c2.4-.4 5.2-.3 7.1 1.4 2.8 2.3 2.9 6.8.8 9.6-3.6.3-6.4-2.4-9.8-3.2.2 1.2.2 2.5.7 3.6 1.5 1.8 4.1 1.8 6.3 2 0 .9 0 1.7.1 2.6-3.2.2-6.9.2-9.1-2.7-4.1-4.2-1-11.4 3.9-13.3m-.6 4.6c1.8 1.3 3.7 2.4 5.7 3.3-.1-1.5.9-3.7-.8-4.5-1.7-.7-3.5.2-4.9 1.2zM238.9 52.1c-2.6-5.6 2.8-13.4 9.1-12 2.2.3 4 2 5.1 3.8 1.3 2.8-.2 5.8-1.2 8.4-3.4-.6-6-3-8.9-4.8-.4.6-1.1 1.8-1.4 2.4 1.5 2.5 4.1 3.5 6.9 3.8 0 .8.1 1.6.1 2.5-3.8.6-7.7-.7-9.7-4.1m6.1-8.7c.1 1.2-.1 2.7 1.2 3.3 1.3.8 3.9 2.5 4-.2-.2-2.8-3.1-3.2-5.2-3.1zM81.2 49.8c.5-3.7 4-7 7.8-6.4 1.8-.1 3.1 1.3 4.4 2.3-2.4 2-5.7.9-8.4 1.9-.5 3.7 1.7 6.8 4.8 8.6 3-.1 3.4-3.4 4.2-5.6l2.4-.6c2.5 5.3-3.9 11.2-9.1 9.1-3.6-1.6-6-5.4-6.1-9.3zM268.4 51.7c.8-.8 2-2.4 3.2-1.2 3.2 2.5 6.5 5.3 7.7 9.3.6 3.6-3.1 5.9-6.4 5.9-.1 1.5-.1 3.1-.2 4.6-2 2.3-5.2 3.5-8.1 2.2-3.2-2-5.8-4.9-8.4-7.7 3.7-4.7 8.3-8.6 12.2-13.1m-1 7.3c1.7 1.2 3.2 3.5 5.5 3.1 1.6 0 2.6-1.7 2.4-3.2-1.1-1.5-2.5-2.8-3.8-4.2-1.4 1.4-2.8 2.8-4.1 4.3m-2.4 2.7c-1.4 1-2.5 2.3-3.6 3.4 1.5 1.8 3.2 3.2 5.1 4.5 2-1.1 3.4-2.7 3.1-5.1-1.4-.9-2.6-2.9-4.6-2.8zM72.5 54.1c1.2-.9 2.3-1.8 3.5-2.7.2 2.8-.4 5.7.5 8.4 3.3 1.2 6.8 1.5 10 3.1-1 .8-1.8 2.6-3.4 2.4-2.3-.2-4.5-1-6.8-1.2-1.5 2.1 2.4 3.9 2.2 6.1-.8.7-1.7 1.3-2.6 2-4-4.5-7.9-9-12-13.2-.8-1.1-2.1-2-2.4-3.4.4-1.1 1.5-1.8 2.2-2.7 2.9 2.7 5.4 5.7 8.1 8.6.9-2.4.8-4.9.7-7.4zM60.1 66.4c1.8-.6 3.8-.4 5.6 0 .5.9.3 1.9 0 2.8-1.8.5-3.6.8-5.4 1.1-.3.6-.9 1.7-1.1 2.3 1.6 2.4 3.7 5.8 7 5.4 3.8-.4.7-7.3 4.9-6.8 2.9 3.9-.7 10.4-5.4 10.3-5.2.6-10.6-4.6-9.5-9.9.5-2.2 2.1-4 3.9-5.2zM270.8 79c2.3-4.8 7.1-7.4 11-10.8.8 1.1 2.7 2.2 1.8 3.7-2.8 2.8-6.6 4.6-8.8 8 1.1 1 2.2 2.1 3.5 2.9 3.6-1.5 5.9-5 9.3-6.8 1.7 0 3.1 2.6 1.6 3.8-3.6 3-7.4 5.9-10.9 9-1.8-3.8-5.9-5.9-7.5-9.8zM50 80.5c4.1-1.2 8.2 1.2 10.5 4.5 2.7 5-1.9 11.7-7.4 11.1-3.8-1.1-8.4-4.1-8.1-8.6-.1-3.1 2.2-5.9 5-7m-.1 3.8c-3.8 2.7.7 7.3 3.9 7.7 2.9 1 5.2-3.1 3.1-5.2-1.7-1.6-4.5-4.1-7-2.5zM287.8 86.9c.2-1.8 2.3-2.4 3.8-2.4 5 .3 8.3 6.8 5.5 11-2.7.3-2.6-2.9-2.6-4.8.2-1.5-1.4-2.3-2.2-3.4-3.3 3.3 1.9 8.1-1 11.5-2.3 2.6-6.2 1.1-7.9-1.4-1.9-2.3-2-5.6-1.1-8.4 1.1-1.4 2.4.3 2.9 1.3.3 1.4-.4 2.7-.7 4.1 1.2 1.2 2.6 2.1 4.4 2.1-.3-3.2-1.5-6.3-1.1-9.6zM32 94.6c.7-1.3 1.4-2.5 2.1-3.8 6.3 4.2 13.7 6.7 19.6 11.4-.7.9-1.3 1.8-2 2.7-6.7-3-13-6.9-19.7-10.3zM305.4 95.5c1.1 0 2.2.1 3.3.1 0 1.4.1 2.7.1 4.1-1.1 0-2.3-.1-3.4-.1v-4.1zM288.4 105c4.7-2.4 9.2-5.7 14.5-6.6.3.7.9 2.1 1.1 2.8-4.6 2.6-9.2 5.4-14.3 7.1-.4-1.1-.8-2.2-1.3-3.3zM28.8 105.2c1.2-2.1 4.2-3.6 6.5-2.4 1.8.7 2.6 2.8 3.6 4.3 1.1-.6 2.2-1.3 3.4-1.6 2.8.2 5.4 2.5 5.9 5.4-.3 4.2-2.4 7.9-3.8 11.7-6.8-1.6-12.9-5.3-19.6-7.4.4-3.6 2.1-6.9 4-10m.2 6.8c1.3.7 2.6 1.5 4.1 2 1.7.6 2.2-1.8 2.6-2.9.6-1.6.2-4.2-2-4-3-.7-3.4 3-4.7 4.9m8.1 3.6c1.8.8 3.7 1.5 5.7 2 .6-1.8 1.8-3.6 1.5-5.6 0-1.9-2.3-2.7-3.9-2.3-1.9 1.4-2.5 3.8-3.3 5.9zM291.9 112.3c5-1.9 9.9-4.7 15.3-5.4 0 1.4.1 2.7.1 4.1 1.4 1.7 3.4 3.4 3.2 5.9-.5 1.6-1.5 3.1-3.1 3.7-3.4 1.6-7 2.8-10.4 4.4-.5-1.4-.8-2.8-1.1-4.2 3.6-1.2 7.3-2.4 10.6-4.4 0-.8-.1-2.5-.1-3.3-1.2-.4-2.5-1.3-3.8-.7-3.2 1.1-6.2 2.6-9.5 3.4-.4-1.2-.8-2.4-1.2-3.5zM299 131.8c.6-6.8 11.1-9.3 14.9-3.7 1.3 2 2.2 4.6 1 6.8-1.3 2.9-4.4 4.4-7.4 4.2-.6-2.9-1.3-5.8-2.1-8.6-.8 0-1.6.1-2.3.1-.3 1.3-.8 2.5-.7 3.8.7 1.5 1.6 2.8 2.5 4.2-.4.4-1.2 1.3-1.7 1.8-2.6-2.1-4.8-5.1-4.2-8.6m8.9-3.1c.1 2.4.7 4.7 2 6.7 1.1-1.1 3-2.6 1.9-4.4-.4-1.8-2.5-1.9-3.9-2.3zM19 133.7c6.8.9 13.4 2.6 20.1 3.7.2.5.7 1.4.9 1.9-.3.6-.8 1.7-1.1 2.2-5.2-.8-10.4-2.2-15.6-2.9 0 1.8-.1 3.6-.2 5.4-1-.4-2-.9-2.9-1.3-.4-2.9-.8-5.9-1.2-9zM310 143.6c1.2-1.9 3.6-1.2 5.5-1.4 2.8 2.7 3.4 7 2 10.6-.6 1.4-2.3 1.3-3.5 1.9-.6-3 2-5.6 1.1-8.6-.9.2-1.9.5-2.8.8-1 2.8-.2 6.7-3.1 8.5-2.4 1.6-5.4-.3-6.3-2.7-1.7-3.5-1-9.5 3.7-9.9.6 3.2-3.3 6.2-.8 9 .5 0 1.5-.1 2-.2 1.2-2.6.8-5.7 2.2-8zM22.5 149h1.8c.3 1.4.5 2.7.8 4.1 1.2.1 2.5.3 3.7.4.1-1 .3-1.9.4-2.8.4 0 1.3-.1 1.7-.1.3 1.4.5 2.8.7 4.1 1.7.3 3.4.7 5.2 1.1-.1.9-.1 1.7-.2 2.6-2-.2-5-2.4-6.2.3 1.2 2.3 4 2.2 6.2 2.8 0 .5.1 1.5.1 2-1.9-.1-3.9-.3-5.8-.4-.5 1.1-1 2.2-1.6 3.3-.8-1.3-1.1-2.9-1.3-4.4-1.2-.3-2.4-.5-3.7-.8-.5 1.1-.9 2.3-1.5 3.4-2.2-.3-1.1-2.7-1.5-4.1-2.2-.7-4.5-1.5-6.6-2.5 1.9-2.1 4.6-.6 6.9-.2-.1-1-.1-2-.2-3-1.7-.7-3.5-1-5.2-1.5 0-.5-.1-1.4-.2-1.9 2 .1 4.1.3 6.1.4.3-.8.3-2.2.4-2.8m1.6 6.9c-1 2.9 2.3 3 4.2 3.5.1-1.1.1-2.2.2-3.3-1.5-.2-2.9-.7-4.4-.2zM309.2 171.7c-7.6 1.5-8.3-12.5-1.1-13.1v3c-1.7 1.6-2.1 3.8-1.9 6 1-.1 2.1-.2 3.1-.2.7-2.7.8-6.1 3.3-7.9 2-1.2 4.8-.3 5.8 1.8 2.4 3.6 1.1 9.8-3.6 10.6 0-.8-.1-2.4-.1-3.2 1.5-1.4 2.1-3.4 1.9-5.4-.9-.1-1.9-.1-2.8-.2-1.3 2.9-1.2 7.4-4.6 8.6zM38.1 194c.8.1 1.7.1 2.5.2.8 4.8 2.7 9.4 2.9 14.3h-2.6l-1.2-5.1c-5.1.5-9.9 2.9-15 2.8-.2-.7-.6-2-.8-2.6 4.4-2.1 9.5-2.2 14-3.9 1.1-1.6.1-3.9.2-5.7zM302.1 212.8c.2-2.4 0-5.9 2.9-6.7 4-.6 7.8 1.7 11.6 2.6-.3 1.2-.6 2.3-.9 3.5-3.3-1.2-6.7-2.3-10.2-3.2-.4 1.4-.8 2.9-1.1 4.3 3.2 1.2 6.4 2.2 9.6 3.3 0 1-.1 2-.1 3-6.5-1-12.6-3.4-18.8-5.5l.8-2.8c2.1.4 4.2.9 6.2 1.5zM33.7 213.9c4.1-1.3 8-3.3 12.2-4v3.3c-1.8.7-3.6 1.4-5.3 2.1 1.7 2 3.3 5.3 1.3 7.6-3 2-6.6 3-10 4-1.5.1-1.1-1.8-1.3-2.8 2.6-1.5 5.6-2.3 8.4-3.4.3-.5.9-1.5 1.3-2-.9-.9-1.6-2.5-3.1-2.1-2.9.3-5.4 2.1-8.2 2.8-.7-.8-1.4-1.6-2-2.4 2-1.4 4.3-2.3 6.7-3.1zM295 220.2c2.1-.1 4.2-.5 6.2-1.2.3 1 .5 1.9.8 2.9 1.8.8 3.6 1.8 5.6 2.2 1.6-.2 3.2-1 4.8-.4-.4 1.7-1.1 4.1-3.2 4.2-3 .1-5.6-1.6-8.2-2.6-1.2.4-2.5.7-3.7 1.1-.1-.5-.2-1.6-.3-2.2-1.4-1-1.9-2.4-2-4zM290.2 225.9c1.8-.4 3.4.6 5 1.3 4 2 8 4 12.1 5.8-.1 1.1-.1 2.3-.2 3.4-5.7-1.8-11-4.9-16.4-7.5-1.5-.3-1.5-2-.5-3zM42.3 229.1c.1-1 0-2.2 1.4-2.2 4.1 1 6.2 6.1 4.1 9.6-2.9 2.1-6.2 3.8-9.6 4.8-1.3-2.4-2.6-4.8-3.8-7.2-1.3-3.3 3.4-6.2 6-4.3 1.6 1.4 2.6 3.3 3.7 5 .7-.7 2-1.1 1.8-2.3-.1-1.8-2.3-2.3-3.6-3.4m-4.9 5.1c-.2 1.4 1.2 2.1 2 3 .6-.3 1.9-1 2.6-1.3-.4-1-.8-2.1-1.4-3-1.1-.5-3.6-.6-3.2 1.3zM290.6 245.5c-4.6-2.5-.6-11 4.4-9.6 3.2.9 5.9 3.1 8.9 4.4-.1.4-.2 1.1-.3 1.5-2.4 2.3-2.2 7-6.1 7.6-1.5-.2-2.7-1-4-1.5-.1-2.6.4-5.1 1.1-7.5.7-1.2-1.3-2.7-2.1-1.3-1.8 1.6-.6 4.5-1.9 6.4m5.5-.2c1.1 1.3 2.4.2 3.6-.2 0-2-.8-3.6-2.5-4.7-.7 1.5-1.5 3.2-1.1 4.9zM50 238.5c2.4.1 5.1-.5 7 1.2-1.4 1.4-2.5 3-2.2 5-.3.1-.8.4-1 .6-2.6-2.2-5.5.2-7.6 2-.9 1-1 2.6-1.5 3.9-.4 0-1.1.1-1.5.1-.7-1.6-2.6-3.6-1-5.2 1.9-2.1 4.6-3.3 6.9-4.8.4-1 .7-1.9.9-2.8zM280.4 255c.1-2.8 1.6-5.9 4.4-6.7 1.9-.8 4 .2 5.6 1.2 1.1.4 1 1.5.5 2.3-1.3 2.1-2.9 4.1-3.7 6.5 1-.1 2-.3 3-.5 1.6-1.6 1.9-4.4 4.2-5.4 1 3.7-1.1 7.6-4.6 8.9-4.2 1.1-8.2-2.4-9.4-6.3m5.5-3.9c-2 .2-3.3 3.1-1.5 4.4 1.6.3 2.2-1.5 3-2.5 1.1-.8-.4-2.4-1.5-1.9zM59.3 256.6c-.6-3 2.6-6.3 5.6-5.3 4.4 1.4 7.5 6.5 5.3 10.9-.9-.1-1.8-.2-2.6-.3 0-1.6.1-3.2.2-4.8-1.1-1.7-3.6-3.8-5.2-1.5.2 3.6 2.7 7 1.6 10.7-.8 1.8-2.9 2.5-4.5 3.5-4.2-1.5-8.3-5.8-6.9-10.6.2-1.7 1.9-1.4 3.1-1.6.1 2.3-.6 4.9.8 6.9.8 1.7 3 .8 4.5.9-.2-3-1.2-5.9-1.9-8.8zM273.5 254.3c1.3 0 1.6 1.4 2.3 2.3 2.5 4.2 5.5 8 7.8 12.2.9 1.6-1.2 3.3-2.7 2.7-3.3-1.3-6.1-3.7-9.4-4.9 1.1 3.4 3.6 6 5.3 9.1 1.1 1.5-1.4 4-2.9 2.9-5.1-2.8-9.9-6-14.9-9 .7-.9 1.5-1.9 2.2-2.8 3.5 2.2 6.8 4.7 10.5 6.7-1.2-3.6-3.9-6.3-5.5-9.6-.9-1.3.3-3.1 1.9-2.7 3.7 1.4 6.6 4.2 10.3 5.6-1.6-3.6-4.5-6.2-6.3-9.6-.7-1.4.7-2.2 1.4-2.9zM71.7 265l2.4 2.4c-2.2 2.4-4.7 4.4-6.5 7.1-.6 1.8 1.1 2.8 2.2 3.8 3.5-2 5.2-7.1 9.7-7.2-.2 1.2.2 2.7-.9 3.6-2.5 2.5-4.8 5.3-7.5 7.7-2-.6-3.1-2.8-4.9-3.8-2.4-1.1-2.8-4.5-1.1-6.4 2-2.7 4.4-4.9 6.6-7.2zM71.3 290.5c3.7-4.8 7.1-9.9 11.1-14.4 3 .4 5 3.3 7.9 4.3.9 4.4-1.6 8.9-5.5 10.9-2.9 1.1-5.2-.9-6.9-3-1.3 1.2-2.5 2.4-3.9 3.4-1-.4-1.9-.8-2.7-1.2m12.3-10.1c-1.9 1.5-3 3.6-4.4 5.5.6.7 1.3 1.4 1.9 2.2h2.5c1.9-1.8 3.6-3.9 3.6-6.6-1.2-.4-2.3-1.4-3.6-1.1zM243.1 281.8c1-2.9 4.9-4.1 7.4-2.5 2.2 1.8 1 4.9 1.1 7.4 1.4.3 2.7.6 4.1.8-.2-1-.5-2.1-.5-3.1.7-.6 1.4-1.1 2.1-1.6.8 1.9 1.6 3.9 2.3 5.8 1.1.3 2.2.6 3.3 1-2.7 1.5-5.3 3.3-7.5 5.4-1.7 1.7-4.5 1.8-6.6 1-2.3-1.8-2.2-4.8-2-7.4-2-1.5-5.2-3.8-3.7-6.8m2.9.5c-.5 1.8 1.4 2.7 2.4 3.9.4-1.3 1.3-2.5 1-3.9-.9-1.5-2.6-1.3-3.4 0m3.8 7c.3 1.3-.1 3.8 1.9 3.9 1.9.5 3.2-.9 4-2.4-1.9-.6-3.9-1.1-5.9-1.5zM95 284.6c2.6 1.4 5.1 3.1 7.8 4.4 0 2.5.6 5.3-.9 7.5-1.4 2.1-3.5 4.3-6.2 4.1-1.8-.5-3.2-1.9-4.7-2.9-1.1 2.1-2.2 4.8-5.2 4 .1-3.7 2.7-6.4 4.4-9.5 1.6-2.6 2.8-5.4 4.8-7.6m-2.5 10.7c1.2 1.1 3 3 4.7 1.5 2.8-1.9 3.5-6.6.1-8.3-2.1 1.8-3.6 4.2-4.8 6.8zM221.3 291.2c1 0 2 0 3-.1.8 1.7 1.7 3.4 2.6 5 1.5-1.2 3-2.3 4.5-3.4 5.1 1.7 6 7.5 8.2 11.7-.7.4-2 1.1-2.7 1.4-2.3-2.9-3.1-6.7-5.5-9.5-1.6-.1-3.8 1.4-3 3.3.9 2.8 2.5 5.4 3.7 8.1-.9.5-1.7.9-2.6 1.3-1.8-1.5-2.5-3.9-3.5-6-1.6-3.8-4.1-7.4-4.7-11.8zM108.6 293.8c2.5-.4 5.6-.2 7.2 2.1 2.8 3.6.7 9.1-3 11.2-2.6.8-6 .3-7.7-2.1-3.2-3.6-.6-9.6 3.5-11.2m.7 3.3c-1.5 1.5-2.5 3.6-2.4 5.7.8 1.8 3.7 3 4.9.9 1.3-1.7 3-4.6 1-6.4-.7-1.3-2.6-1.3-3.5-.2zM206.5 296.6c1.1-.3 2.1-.6 3.2-1 2 6.2 3.6 12.4 5.6 18.6-1.2.3-2.3.6-3.5.8-1.6-6.1-3.8-12.2-5.3-18.4zM215 296.3h2.4c.2.4.7 1.3 1 1.8 1 .3 2 .6 2.9.9-.5 1-1.1 2-1.6 3 .6 2.5 1.6 4.8 2.9 7h2.5v2.3c-1.3.4-2.7.8-4 1.2-2.8-2.2-3.5-5.9-4.6-9.1-.9-.4-1.7-.8-2.6-1.2.4-2 .8-3.9 1.1-5.9zM121.3 298.7h1.9c.5.4 1.1.7 1.6 1.1 1.5 0 3.8-.2 3.6 2-.4 2.2-3.2.9-4.8 1.3-1.3 2.7-2.3 5.6-3.2 8.4-1 0-1.9-.1-2.9-.1.2-4.5 2.4-8.5 3.8-12.7zM132.3 298.7l3 .3c0 1.1.1 2.1.1 3.2.5.8 1 1.7 1.4 2.5-1 .4-2 .7-2.9 1.1-.7 2-1.3 4-1.9 6.1.8 1.3 1.6 2.6 2.2 3.9-1.9-.1-4.5.5-5.5-1.7-.6-3.1.8-6 1.6-8.9-.3-1.1-1.4-2.3-.9-3.5.5-.3 1.4-.8 1.8-1.1.4-.5.9-1.4 1.1-1.9zM160.7 302.3c1.1-.1 2.2-.1 3.3-.2 0 2.6.1 5.1.5 7.6 2.4 0 4.9 0 7.3.1.4-2.4.1-4.9.8-7.2 1.8-1.5 3.5.8 3 2.6-.2 4.8.1 9.6-.2 14.4-.2 2-3.3 1.8-3.7 0 0-2.2.2-4.4.2-6.6-2.6-.4-5.3-.7-7.9.2.1 2.5.1 5 0 7.6h-3.4c-.1-6.3.1-12.4.1-18.5zM138.7 307.7c0-3.4 4-3.5 6.5-3.1 2.5 0 3.7 2.5 4.8 4.3-2.5.8-4.4-.9-6-2.6-.8.7-2.6 1.1-1.9 2.6 1.9 1.5 4.4 2.2 5.9 4.1.2 1.3.2 2.5.3 3.8-2.8 1.9-7 2.3-9.6-.2-1.2-1-1.4-2.6-1.9-3.9 3.2.2 4.9 3.9 8.4 3.2-.2-4.3-7.1-3.7-6.5-8.2zM193.7 308.8c1.2-4.2 7.4-6.7 10.6-3.3 1.8 3.4 2.1 7.4 2.7 11.1-1.1 0-2.2 0-3.3.1-2 1.2-4.5 2.1-6.8 1.2-1.2-1.1-2.3-2.9-1.9-4.6 1.2-2.8 4.5-3.4 7-4.3-.6-1-.9-3-2.6-2.5-1.1.7-2.1 1.7-3 2.5-.9-.1-1.8-.2-2.7-.2m4.2 4.7c1 2 2.8 2.2 4.8 1.5 0-1.3 0-2.5-.1-3.8-1.9.1-3.5.9-4.7 2.3zM183.2 306.6c2.3-.5 5.2-.8 6.8 1.4 1.7 1.5 1.6 3.8 1.8 5.9-2.9 0-5.8.2-8.6 1.1.6.9 1.3 1.6 2 2.4 2.3.3 5.1-2.1 6.9.2-2.4 2.3-5.8 3-8.9 2.1-4.9-2.4-5.1-10.9 0-13.1m-.2 5.9c1.6-.2 3.3-.5 4.9-.8-.6-.9-.2-3-1.7-2.7-2.3-.6-3.4 1.6-3.2 3.5z"/><g><path class="st2" d="M67.8 132.8c6.2 0 12.4.1 18.6-.1H92c1.9.2 3.8-.1 5.6.6 3.8 1.2 7.5 3.5 9.6 6.9 2 3.1 2.2 7.2.4 10.5-2.2 4-6.3 6.5-10.5 8 3.5 3.4 6.6 7.3 8.9 11.6 2.2 3.8 5 7.2 8.6 9.7 1.5 1.1 3.3 1.8 5.1 2.2v.6h-14.2c-4-6.3-8.2-12.5-13-18.3-1.6-1.7-3-3.8-5.2-4.6-1.6-.7-3.4-.8-5.1-.7 0 5.4-.1 10.8-.1 16.2 0 1.6.5 3.2 1.6 4.4 1.6 1.6 3.8 2.1 6 2.4l-.1.6H68.1c-.2-.1-.6-.3-.8-.5 1.9-.6 4-.9 5.5-2.2 1.3-1 1.7-2.8 1.7-4.3.2-9.4.2-18.8.2-28.1.2-3.4 0-6.8 0-10.2 0-1.1-.7-2-1.6-2.5-1.5-.9-3.3-1.2-5.1-1.3-.1-.4-.2-.8-.2-.9m14.6.9c-.1 8.2-.1 16.3-.3 24.5 2.9 0 5.9 0 8.7-.5 3.2-.8 6.2-2.8 8.1-5.6 2-2.9 2.1-6.6 1.2-9.9-.8-2.9-2.8-5.5-5.5-6.8-3.7-2-8.1-2.1-12.2-1.7zM170.3 165.6c5-1.8 10.5-1.9 15.7-1.2 1.6.3 3.4.6 4.6 1.7.8.7.7 2.1-.3 2.6-1.8 1.2-4.1 1.3-6.2 1.6-3.1.3-6.2.3-9.3 0 4.4 0 8.9-.2 13.2-1.4 1-.3 1.9-.8 2.6-1.6-.5-.8-1.3-1.4-2.3-1.6-3.9-1.1-8.1-1-12.1-.9-2.4.2-5 .5-7.1 1.7-.7.3-.8 1.1-.7 1.8.4.3.8.6 1.3.9-.5-.4-1.4-.6-1.5-1.3-.3-1.1 1.2-1.7 2.1-2.3zM192.2 167.5c1.5-.5 3.4-1.1 4.9-.1 2 1.4 2.1 4.5.4 6.2-2.3 2.3-5.5 3.2-8.4 4.5 2.5-1.6 5.4-2.6 7.6-4.6 1.5-1.4 1.8-4.2.2-5.6-1.1-1.1-3.1-.7-4.7-.4z"/><path class="st2" d="M191.1 168.6c-.1 2-.5 3.9-1 5.8.1.1.2.4.3.5h.4c1.6-.8 3.3-1.7 4.4-3.2.6-.8.3-2.3-.8-2.3-1.1-.2-1.9.7-2.7 1.3.7-.8 1.3-2 2.5-1.9 1.4-.2 2.6 1.4 2.1 2.7-.7 1.6-2.3 2.6-3.9 3.2-.9.4-1.9.3-2.7.9-1.1 2.4-2.6 4.7-4.9 6-2 1.3-4.4 1.2-6.6 1.1-2.3-.2-4.4-1.3-5.9-3-2.4-2.7-3.3-6.2-4.1-9.6 1.2 3.6 2.5 7.4 5.5 9.9 2.5 2.1 6.2 2.4 9.3 1.6 2.9-1 5-3.5 6.3-6.2.8-2.1 1.5-4.4 1.8-6.8z"/><path class="st2" d="M185 178.6c1.8-2.3 2.9-5.1 4-7.8-.3 3-1.6 6-4 7.8zM190.7 179.5c1.2.7 2.7 1.7 2.4 3.3-.4 1.4-1.8 2.1-3 2.7-2.6 1.1-5.4 1.7-8.3 1.8-2.3 0-4.6.1-6.9-.2-2.7-.5-5.9-.8-7.9-2.9-1.1-1.3-.1-3 .9-4.1-.6 1-1.5 2.2-.9 3.4.8 1.3 2.5 1.8 3.9 2.2 3.6.8 7.3 1 10.9.9 3.1-.3 6.3-.6 9.1-2.1.9-.5 2.1-1.4 1.9-2.6-.3-1.2-1.4-1.8-2.1-2.4z"/><path class="st2" d="M187.1 181.3c.1.8-.2 1.8-1 2.2-3.7 2.2-8.2 1.4-12 .2 2.8.2 5.6.4 8.4.2 1.5-.2 3-.5 4.3-1.4.1-.3.2-.9.3-1.2z"/><path class="st3" d="M151.8 137c3.7-1.1 8-.5 10.9 2-1.2 1.4-2.4 2.6-3.6 4-1.7-1.6-4.4-2-6.5-.9-1.3.7-1.5 2.7-.3 3.5 2.7 1.8 6.3 1.6 8.6 3.9 1.9 1.7 2 4.4 1.5 6.7-.6 2.5-2.8 4.5-5.2 5.2-4.1 1.2-8.9.6-12.1-2.5 1.2-1.4 2.4-2.8 3.8-4.1 1.1 1 2.3 1.9 3.7 2.1 1.5.2 3.2 0 4.2-1.1.8-.9.6-2.5-.5-3.2-2.7-1.8-6.3-1.7-8.7-4-1.9-1.7-2.1-4.6-1.3-6.9.9-2.2 3.1-4 5.5-4.7zM166.8 137.2h8.1c1.9 5.3 3.8 10.7 5.7 16 1.9-5.3 3.7-10.7 5.7-16h8v24.3H189v-18.8c-2.1 6.3-4.3 12.5-6.4 18.7h-4.1c-2.1-6.2-4.1-12.5-6.2-18.7-.1 6.2 0 12.5 0 18.7H167c-.2-8-.3-16.1-.2-24.2zM207.2 137.1h4.4c3.5 8.1 7 16.2 10.6 24.3h-6l-2.1-5.1h-9.5c-.7 1.7-1.3 3.4-2 5.1h-5.9l10.5-24.3m-.9 14.7h5.9c-1-2.5-2-5-3-7.6-.9 2.5-1.9 5.1-2.9 7.6zM224.7 137.2h10.2c2.1.1 4.4.5 6.1 1.9 1.5 1.2 2.3 3.2 2.3 5.1.1 2.1-.6 4.4-2.3 5.8-.8.7-1.9 1-2.9 1.4 2.1 3.4 4.1 6.8 6.1 10.2h-6.4c-1.7-3.2-3.4-6.4-5.1-9.7H230v9.7h-5.4c.1-8.3 0-16.4.1-24.4m5.3 4.5v5.5c2.1-.1 4.2.3 6.2-.4s2-4 0-4.7c-2-.7-4.1-.3-6.2-.4zM244.8 137.1H264v4.8h-6.9v19.5h-5.4v-19.5h-6.9c-.1-1.6-.1-3.2 0-4.8zM149.7 165.8c3.9-3.2 10.5-3.4 14 .4.9.8-.7 1.3-1.2 1.9-2.4-3.5-7.7-3.6-11-1.3-5 3.5-5.1 11.9-.3 15.6 2.1 1.6 5 2.1 7.6 1.5 1.8-.5 3.2-1.6 4.3-3 .6.4 1.1.8 1.6 1.3-3.5 4.9-11.2 5-15.4 1.1-4.9-4.6-4.7-13.3.4-17.5zM199.7 163.9h12.8v1.8h-10.8v7.7h10v1.8h-10v10.2h-2v-21.5zM216.4 163.9h12.8v1.8h-10.8v7.7h10v1.8h-10v10.2h-2v-21.5zM233.2 163.9h13.1v1.8h-11c-.1 2.6-.1 5.1 0 7.7h10.3v1.8h-10.4v8.4h11.6v1.8h-13.6v-21.5zM251 163.9h13.1v1.8H253v7.7h10.4v1.8H253v8.4h11.5v1.8H251c0-7.2.1-14.4 0-21.5zM171.4 166.9c3.5-1.1 7.1-1.4 10.7-1.2 2 .2 4 .3 5.9 1 .1.2.4.6.5.8-.8 1-2 1.3-3.2 1.6-2.9.4-5.9.6-8.8.4-1.2 0-2.4-.3-3.6-.7 0-.2-.1-.5-.1-.7 1.2-.8 2.8-.9 4.2-1.1 2.1-.1 4.2-.1 6.3.2-3.3.6-6.8-.2-9.9 1.2 2.6.9 5.4.6 8.1.6 2.3-.2 4.7-.2 6.6-1.5-2.3-1.1-4.8-1.1-7.3-1.2-2.6-.1-5.1.3-7.7.5-.5.2-1.1.3-1.7.1z"/><path class="st4" d="M140.4 163c1-.4 2.2-.8 3.2-.3 1 .4 2 1.3 1.9 2.5-.2 1-1.2 1.5-2.1 1.7-1.5.3-3 .3-4.5.5-1.1.3-2.1 1.1-3 1.8-2.1 2-3.7 4.3-5.5 6.5.6 3.5 1.5 7 2.2 10.4.7 3.1 1.4 6.1 2.6 9 .7 1.9 1.6 3.7 3.1 5.1 1.3 1.2 3.2 1.7 4.9 1.7 3.1-.3 6.4-.4 9.2-2 1.1-.6 2.1-1.5 2.7-2.6-3.1 2-6.8 3-10.6 2.7-.1-1.1.2-2.4 1.3-3.1 2-1.3 4.7-.7 6.9-1.6 1-.5 1.9-1.3 2.3-2.4.3-1-.4-1.8-.9-2.5-1.1 0-2.2.7-3.2.1.1-.7.1-1.5.6-1.9.9-1.1 2.8-1 3.4.3 1.7 2.9 2.7 6.5 1.7 9.8-.5 1.7-1.7 3.1-3 4.2-1.7 1.4-3.6 2.7-5.9 3-1.4 0-2.3-1.1-3-2.2-3.7.5-7.5-.8-10.2-3.4-3.4-3.2-5.2-7.7-6.2-12.2-.5-2.5-1.1-5-1.6-7.4-2.5 3.8-4.9 7.9-8.5 10.8-1.4 1.1-3.1 2.2-5 1.9-1.4-.2-2.9-.9-3.2-2.4-.4-1.5 1.2-2.9 2.6-2.7 1.2.4 1.8 2.2 3.2 1.9 1.6-.3 2.7-1.8 3.7-2.9 2.3-3 4.5-6.1 6.6-9.2-.7-2.9-1.2-5.8-2-8.6-.3-1-1.1-2.2-2.4-1.8-1.7.5-2.9 1.9-4.2 2.9-.3-.4-.5-.8-.8-1.1 2.1-1.8 4.2-3.6 6.6-4.9 1.3-.7 3.1-.6 3.9.7 1.5 2.4 1.7 5.3 2.3 8 1.1-1.6 2.2-3.2 3.5-4.6 2.5-2.3 4.6-4.5 7.4-5.7zM174.9 187.1c2.3.2 4.6.2 6.9.2-2.3.1-4.6.1-6.9-.2z"/></g></svg>