<svg xmlns="http://www.w3.org/2000/svg" width="512pt" height="512pt" style="isolation:isolate" viewBox="0 0 512 512"><defs><clipPath id="a"><path d="M0 0h512v512H0z"/></clipPath></defs><g clip-path="url(#a)"><path fill="#BED600" d="M512 256.055c0 141.429-114.535 255.946-255.922 255.946C114.672 512.001 0 397.484 0 256.055S114.672-.001 256.078-.001C397.467-.001 512 114.626 512 256.055Z"/><path fill="#FFF" d="M237.423 122.432c-40.324 0-66.484 2.229-85.42 9.259-31.822 12.396-53.799 38.377-53.799 72.52 0 28.437 13.242 49.032 51.563 72.719 40.887 24.786 49.044 32.978 49.044 47.913 0 16.347-16.016 34.953-57.225 34.953-14.383 0-36.046-1.991-49.889-5.377l-6.606-1.666c-3.684 9.878-12.049 33.246-14.599 41.724l6.54 1.924c12.452 3.972 42.004 7.073 63.176 7.073 70.434 0 112.458-42.553 112.458-87.113 0-27.38-12.429-48.19-54.444-74.405-21.075-12.964-31.814-21.37-38.337-27.878-5.287-6.793-5.872-11.848-5.872-17.189 0-5.099 1.135-10.975 4.496-15.279 3.636-5.321 10.304-8.712 19.33-11.51 9.277-3.077 26.465-3.159 53.235-3.159H256l17.799-44.507h-36.376v-.002Zm188.373 0H300.54l-17.801 44.506h41.518c27.937 0 33.311-.602 40.326-.602-10.127 23.169-71.165 178.71-71.165 178.71h51.658s77.277-193.622 85.467-213.922c2.268-4.53 1.141-8.692-4.747-8.692Z"/></g></svg>