<svg xmlns="http://www.w3.org/2000/svg" xml:space="preserve" id="Layer_1" x="0" y="0" style="enable-background:new 0 0 508.1 150.4" version="1.1" viewBox="0 0 508.1 150.4"><style>.st0{fill:#26265d}.st1{fill:#b09255}</style><g id="g3337" transform="translate(-18.864 -306.853)"><path id="polygon3365" d="m243.3 378.9-5.5 5.7 5.5 5.8 5.5-5.8z" class="st0"/><path id="polygon3367" d="m209.1 318.3 5.5-5.7-5.5-5.7-5.5 5.7z" class="st0"/><path id="polygon3369" d="m228.9 378.9-5.5 5.7 5.5 5.8 5.5-5.8z" class="st0"/><path id="polygon3371" d="m223.5 318.3 5.5-5.7-5.5-5.7-5.5 5.7z" class="st0"/><g id="g3373"><path id="path3375" d="M346.9 358.4h-19.4V357c0-16.5 12.8-26.6 19.4-28.4v29.8zm147.9-40.3v40.4c0 2.3-.2 4.2-1 5.6-1 1.7-2.7 3-6.1 3-3.3 0-5.1-1.4-6.1-3-.8-1.4-1.1-3.3-1.1-5.6v-29.1H471v29h-11.9v-29h-9.4v29h-11.9v-29h-9.4v29H392c-10.5-.7-13-6.3-13-11.5 0-7.3 6.5-10.1 13.6-10.1h15.5v-7.3h-13.7c-11.2 0-20.5 4.6-20.5 16.2 0 7.5 3.4 11 6.3 12.8h-23.9v-36c-20.7 2.6-37 18-37 43.3H347v8.9c0 3.4.4 10-4.6 10.9v3.9c3.5-.4 9.1-2.7 11.6-6.9 1.9-3.3 2.4-6.3 2.4-13.2v-3.7h115.9c.4.9.9 1.8 1.5 2.8 2.9 4 8 5.8 14 5.8 5.9 0 11-1.8 13.9-5.8 2.4-3.4 2.7-6.7 2.7-10.8v-39.6h-9.6z" class="st0"/></g><path id="rect3377" d="M517.4 318.1h9.4v47.6h-9.4z" class="st0"/><g id="g3379"><path id="path3381" d="M289.2 329.2h-13.5v7.4H287c8.8 0 17.7.4 17.7 10.6 0 9-6.6 11.1-18.5 11.1h-22.7v7.4H288c14.7 0 22-4.5 22-18.4 0-14.1-8.6-18.1-20.8-18.1" class="st0"/><path id="path3383" d="M219.5 358.4h-19.2v-1.2c0-16.4 12.7-26.8 19.2-28.6v29.8zm23.8 0c0 2.4-.3 4.2-1.1 5.7-1 1.7-2.7 3-6.1 3-3.3 0-5.1-1.4-6.1-3-.8-1.4-1.1-3.3-1.1-5.7v-36c-22.5 2.1-37 19.9-37 43.4h28.7c.4.9.9 1.8 1.5 2.7 2.9 4 8 5.8 13.9 5.8 6 0 11-1.8 13.9-5.8 2.5-3.4 2.8-6.7 2.8-10.8v-31.4h-9.4v32.1z" class="st0"/><path id="path3385" d="M333.4 456.7c-9.3 0-16.3-1.9-20.6-6.1-3.8-3.5-5.6-7.6-5.6-15.6v-33.6h10.1v35c0 5.2.8 8.1 3.3 10.7 2.7 2.9 7.2 4.4 12.8 4.4 5.5 0 10.1-1.5 12.7-4.4 2.5-2.6 3.2-5.6 3.2-10.7v-35h10.1V435c0 8-1.8 12.1-5.6 15.6-4.1 4.2-11.2 6.1-20.4 6.1" class="st0"/><path id="path3387" d="M399.2 450.9c-2 0-6.4-.2-8.3-1.7-1.5-1.3-1.6-3.5-1.6-6.7V405c15.5-1.4 32.7 3.2 32.7 23.6 0 16.2-10.6 22.3-22.8 22.3m-1.9-50.5c-5 .1-17.2.7-26.1 3.2l.8 4c2.4-.7 4.7-1.2 7.3-1.6v49.5c14.3.3 20.4.2 27.9-.6 13.1-1.6 25.5-11.4 25.5-26.6-.1-21.3-19.1-28.3-35.4-27.9" class="st0"/></g><path id="rect3389" d="M446.6 401.5h10.1v54.1h-10.1z" class="st0"/><g id="g3391"><path id="path3393" d="M259.3 432c5.2 0 14.8.7 21.6 6.2L268.6 413l-9.3 19zm41.4 23.5h-11.5c-4-8.2-14.6-20.1-32.1-18.9l-9.2 18.9h-7.2l28.3-54.9h3.6l28.1 54.9z" class="st0"/><path id="path3395" d="M485.6 432c5.2 0 14.8.7 21.6 6.2L494.9 413l-9.3 19zm41.4 23.5h-11.5c-4.1-8.2-14.6-20.1-32.1-18.9l-9.2 18.9H467l28.2-55h3.6l28.2 55z" class="st0"/><path id="path3397" d="M232.8 403.3c-2.9-1.5-10.1-3.8-17.6-3.6-13.2.3-22 5.7-22.1 15.5-.1 1.9.4 4.4 1.5 6.5 6.4 11 32.9 9.2 32.9 20.9 0 3.4-3.2 8.9-12.3 8.9-9.9 0-17.4-4.6-21-7.4l-2.6 7.9c3.1 1.6 11.3 4.6 23.2 4.6 5.3 0 11.4-1.4 15.8-4.9 4.3-3.4 6.2-7.5 6.2-12.6 0-19.4-33.8-14.5-33.8-26.7 0-2 1.1-3.5 1.5-4 1.8-2.4 5.9-3.8 10.9-3.8 4.7 0 9.7 1.6 14.7 5.5l2.7-6.8z" class="st0"/><path id="path3399" d="m154.9 416.2-.2.3c-12.3 21.3-35.2 35.7-61.6 35.7-39.2 0-71-31.8-71-71 0-12.9 3.4-24.9 9.4-35.3l.2-.3-.1-.3-.3.1-.2.3c-1.1 1.5-2 3.1-3 4.8-19.5 34-7.5 77.5 26.8 97.2 34.3 19.7 77.9 8 97.4-26 1-1.6 1.8-3.3 2.6-5l.2-.3-.1-.3-.1.1z" class="st1"/><path id="path3401" d="M75.8 326.4c-10.1 2.2-27.1 12.5-30.7 29.8C56 343.3 67.3 336.5 76 335c-8.9 6.6-17.2 22.1-14.6 33 4.7-11.5 12.9-22.8 20.5-26.9-4.3 7-5.7 24.1-1.6 31.6 1-9.7 4-22.4 8.9-28.7l1.4 12.2h-1.7l1.7 12.4h-1.4l1.4 12.4h-1.2l1.8 12.4-5.9 3v.4h15.3v-.4l-5.9-3-1.8 1.4 1.8-1.4 1.8-12.4h-1.2l1.4-12.4h-1.4l1.8-12.4h-1.7l1.4-12.2c4.9 6.3 7.9 18.9 8.9 28.7 4.1-7.5 2.7-24.5-1.6-31.6 7.5 4.1 15.8 15.4 20.5 26.9 2.6-10.9-5.8-26.4-14.6-33 8.7 1.6 20 8.3 30.9 21.2-3.6-17.2-20.5-27.6-30.6-29.8 11.1-1.1 22 2.5 31.8 7.2-10.7-12.3-26.8-16.8-37.4-15.6 1.8-1.9 3.5-2.9 6.3-3.7-4.5-2.1-11.5-1-14.2 2.1 0 0-.5-5.7-3.8-8-3.3 2.2-3.8 8-3.8 8-2.7-3.1-9.7-4.2-14.2-2.1 2.7.8 4.4 1.8 6.3 3.7-10.7-1.2-26.8 3.3-37.4 15.6 9.9-4.8 20.8-8.3 31.9-7.2" class="st1"/><path id="path3403" d="M96.2 405.7c-.8.6-1.9 1.3-3 2-1.2-.8-2.2-1.5-3-2-4.5-3-42.7-28.6-59.2-10.5 15.2-6 37.8 5.4 56.3 16.6-4.7 3.2-9.9 6.8-14.4 9.9-7.1-6.9-9.8-5.8-10.4-5.5-.7.3-1.2.9-1.2 1.7 0 1 .8 1.9 1.8 1.9s1.9-.8 1.9-1.9v-.4c2 1.2 3.8 2.9 8.4 7.7 4.7 4.9 6.5 6.2 7.9 7 1 .6 1.9.7 2.5.6 1 0 1.9-.7 2-1.8.1-1.1-.7-2-1.8-2-1 0-1.9.8-1.9 1.9v.2c-1.3-.9-2.6-2.6-5.4-5.5 4.5-2.6 10.2-6.2 16.5-10.2 6.4 4 12 7.6 16.5 10.2-2.7 2.9-4.1 4.6-5.4 5.5v-.2c0-1.1-.9-1.9-1.9-1.9-1.1 0-1.9.9-1.8 2 0 1.1 1 1.8 2 1.8.6 0 1.6-.1 2.5-.6 1.4-.8 3.2-2.1 7.9-7 4.6-4.8 6.5-6.4 8.4-7.7v.4c0 1 .9 1.9 1.9 1.9 1 0 1.8-.9 1.8-1.9 0-.8-.5-1.4-1.2-1.7-.6-.3-3.3-1.4-10.4 5.5-4.5-3-9.8-6.7-14.4-9.9 18.6-11.2 41.1-22.6 56.3-16.6-16.6-18-54.7 7.5-59.2 10.5" class="st1"/><path id="path3405" d="M53.6 429.5c-.6-.3-1.2-.6-1.5-.6-.2 0-.4 0-.5.2-.1.2-.2.5 0 .7.1.2.3.5.9 1.1 2.5 2.2 7.5 4.1 20.7-3.3l-1.3-1.3-2.4-2.4c-6.9 4.4-12.5 7-15.9 5.6" class="st1"/><path id="path3407" d="M132.7 429.5c-3.4 1.4-9-1.2-15.9-5.7l-2.4 2.4c-.4.4-.8.9-1.2 1.3 13.2 7.4 18.2 5.5 20.7 3.3.6-.5.8-.9.9-1.1.1-.3.1-.6 0-.7-.1-.1-.3-.2-.5-.2-.4.1-1 .5-1.6.7" class="st1"/></g></g></svg>