<svg xmlns="http://www.w3.org/2000/svg" width="1935.119" height="1935.119" style="isolation:isolate" viewBox="0 0 1451.339 1451.339"><defs><clipPath id="a"><path d="M0 0h1451.339v1451.339H0z"/></clipPath></defs><g clip-path="url(#a)"><path fill="#F89939" d="M1113.216 999.423c177.251-177.241 206.711-435.141 65.795-576.046-140.896-140.89-398.785-111.436-576.026 65.795-177.241 177.236-125.969 515.851-65.784 576.046 48.634 48.635 398.784 111.436 576.015-65.795Z"/><path fill="#3499CD" d="M385.922 743.314C283.095 640.487 133.45 623.368 51.677 705.135c-81.752 81.758-64.659 231.424 38.189 334.235 102.848 102.858 299.327 73.106 334.224 38.178 28.24-28.192 64.691-231.397-38.168-334.234Z"/><path fill="#010101" d="M740.714 955.98c-18.165 16.721-34.101 29.062-47.797 36.99-13.696 7.955-26.759 11.927-39.188 11.927-14.298 0-25.833-5.542-34.578-16.632-8.761-11.1-13.125-25.984-13.125-44.709 0-28.057 6.081-61.739 18.243-101.011 12.142-39.303 26.927-75.519 44.291-108.652l50.917-18.851c1.596-.533 2.81-.806 3.616-.806 3.862 0 7.055 2.847 9.504 8.515 2.475 5.694 3.721 13.346 3.721 22.965 0 27.261-6.275 53.653-18.851 79.177-12.571 25.534-32.207 52.784-58.929 81.783-1.073 13.9-1.607 23.446-1.607 28.663 0 11.634 2.136 20.84 6.411 27.659 4.281 6.83 9.955 10.221 17.041 10.221 7.227 0 14.904-2.585 23.058-7.798 8.138-5.223 20.568-16.035 37.268-32.484v23.043h.005Zm-76.764-78.36c16.966-18.867 30.746-40.026 41.297-63.435 10.55-23.42 15.82-43.563 15.82-60.441 0-4.92-.727-8.918-2.187-11.922-1.471-3.009-3.355-4.522-5.621-4.522-4.925 0-12.121 12.309-21.546 36.933-9.425 24.618-18.678 59.085-27.763 103.387Z"/><path fill="#010101" d="M890.663 955.98c-16.967 16.721-32.196 29.062-45.699 36.99-13.502 7.955-28.386 11.927-44.699 11.927-18.175 0-32.84-5.814-44.013-17.427-11.152-11.645-16.721-26.931-16.721-45.913 0-28.324 9.813-53.952 29.48-76.869 19.626-22.928 41.418-34.384 65.335-34.384 12.429 0 22.373 3.219 29.867 9.63 7.484 6.421 11.226 14.831 11.226 25.256 0 27.67-29.397 50.105-88.194 67.35 5.338 26.046 19.301 39.088 41.888 39.088 8.824 0 17.234-2.371 25.246-7.102 8.034-4.752 20.118-15.292 36.289-31.583v23.037h-.005Zm-105.036-37.074c34.201-9.629 51.314-27.391 51.314-53.318 0-12.827-4.684-19.238-14.025-19.238-8.824 0-17.234 6.704-25.246 20.149-8.039 13.423-12.043 30.882-12.043 52.407Z"/><path fill="#010101" d="M1104.743 955.98c-21.384 20.311-36.687 33.557-45.898 39.712-9.221 6.144-18.04 9.211-26.465 9.211-21.117 0-31.066-18.637-29.868-55.925-13.361 19.102-25.696 33.201-36.99 42.307-11.283 9.085-22.938 13.618-34.98 13.618-11.744 0-21.73-5.501-29.962-16.528-8.232-11.027-12.319-24.55-12.319-40.601 0-20.034 5.5-39.146 16.516-57.332 11.038-18.176 25.168-32.861 42.402-44.087 17.234-11.226 32.484-16.846 45.698-16.846 16.711 0 28.408 7.687 35.091 23.048l40.967-22.64h11.242l-17.695 58.724c-9.085 29.543-13.643 49.791-13.643 60.745 0 11.487 4.066 17.234 12.225 17.234 5.192 0 10.938-2.769 17.223-8.321 6.286-5.553 15.088-14.005 26.445-25.362v23.043h.011Zm-146.731 11.038c13.361 0 25.953-11.388 37.801-34.17 11.828-22.791 17.737-43.819 17.737-63.058 0-7.473-1.686-13.329-5.009-17.532-3.354-4.223-7.829-6.316-13.429-6.316-13.371 0-26.047 11.356-37.984 34.08-11.959 22.724-17.951 43.636-17.951 62.728 0 7.227 1.779 13.073 5.317 17.553 3.538 4.48 8.028 6.715 13.518 6.715Z"/><path fill="#010101" d="M1254.487 955.98c-33.546 32.872-59.41 49.32-77.58 49.32-8.159 0-15.047-3.443-20.646-10.304-5.6-6.888-8.421-15.413-8.421-25.576 0-18.841 10.101-44.087 30.276-75.765-9.897 5.082-20.709 8.609-32.474 10.619-8.688 16.035-22.326 33.279-40.894 51.701h-4.6v-18.019a262.903 262.903 0 0 0 28.26-34.886c-11.508-5.082-17.244-12.634-17.244-22.64 0-10.305 3.496-21.29 10.53-32.997 7.013-11.681 16.663-17.521 28.967-17.521 10.425 0 15.627 5.327 15.627 16.024 0 8.421-3.004 20.442-9.028 36.085 22.18-2.413 41.559-19.369 58.139-50.916l18.233-.806-18.641 51.314c-7.746 21.651-12.76 36.398-15.026 44.207-2.266 7.808-3.412 14.737-3.412 20.74 0 5.621 1.308 10.111 3.904 13.429 2.606 3.365 6.123 5.019 10.53 5.019 4.804 0 9.425-1.643 13.832-4.899 4.407-3.302 14.298-12.345 29.674-27.177v23.048h-.006Z"/><path fill="#010101" d="M1451.339 955.98c-30.867 32.626-57.343 48.923-79.381 48.923-8.955 0-16.172-3.141-21.651-9.426-5.49-6.275-8.227-14.69-8.227-25.246 0-14.298 5.887-36.153 17.652-65.539 6.275-15.773 9.426-25.811 9.426-30.071 0-4.281-1.686-6.422-5.009-6.422-1.868 0-4.354.942-7.421 2.8-2.821 1.869-6.092 4.496-9.833 7.83-3.334 3.066-7.087 6.808-11.226 11.204-3.617 3.774-7.495 8.044-11.613 12.838l-11.242 13.042c-4.935 6.008-8.012 12.346-9.211 19.034-2.015 11.357-3.344 21.792-4.019 31.291-.408 7.065-.602 16.611-.602 28.663l-44.301 10.405c-1.46-18.04-2.208-31.474-2.208-40.282 0-21.515 2.506-41.899 7.525-61.138 5.009-19.259 13.052-40.894 24.153-64.957l48.901-9.415c-10.284 27.669-17.03 49.44-20.238 65.334 21.918-24.45 39.293-41.375 52.173-50.811 12.858-9.426 24.309-14.115 34.315-14.115 6.799 0 12.482 2.564 17.009 7.698 4.548 5.14 6.809 11.592 6.809 19.307 0 12.816-5.747 33.933-17.224 63.345-7.892 20.17-11.838 33.259-11.838 39.304 0 8.043 3.282 12.063 9.845 12.063 9.77 0 25.596-12.901 47.436-38.691v23.032Z"/><g clip-path="url(#b)"><text style="font-family:&quot;Open Sans&quot;;font-weight:400;font-size:23.1px;font-style:normal;font-variant-ligatures:none;fill:#fff;stroke:none" transform="translate(802.46 763.175) scale(5.233)">scikit</text></g><defs><clipPath id="b"><path d="M802.46 633.959h293.048v164.62H802.46z"/></clipPath></defs></g></svg>