<svg xmlns="http://www.w3.org/2000/svg" width="512pt" height="512pt" style="isolation:isolate" viewBox="0 0 512 512"><defs><clipPath id="a"><path d="M0 0h512v512H0z"/></clipPath></defs><g clip-path="url(#a)"><path fill="#0054A6" d="M243.641 12.359A243.639 243.639 0 0 0 0 256.001a243.639 243.639 0 0 0 29.24 115.642c1.399.327 2.742.861 4.048 1.462 4.726 2.174 9.191 5.318 11.84 9.795 1.324 2.238 2.163 4.784 2.27 7.383.105 2.575-.54 5.193-1.937 7.357 45.724 63.995 119.529 101.981 198.18 102 134.559 0 243.641-109.081 243.642-243.639A243.641 243.641 0 0 0 243.641 12.359Z"/><path fill="#0054A6" fill-rule="evenodd" d="m468.931 164.411 12.435-5.784 8.403-22.966 8.817 3.089-7.574 20.536L512 166.52l-3.165 8.601-23.437-8.186-12.924 5.944"/><circle cx="243.642" cy="256" r="243.641" fill="none" vector-effect="non-scaling-stroke"/><path fill="#FFF" fill-rule="evenodd" d="M334.217 287.981c-16.783-22.955-49.945-36.301-78.392-42.566-28.448-6.266-45.762-11.112-59.59-18.594-15.784-8.541-28.192-33.725-23.347-55.56 7.605-34.267 38.209-58.925 73.157-54.045 17.454 2.469 32.255 11.71 42.014 24.718l38.697 50.84c22.119 28.486 46.987 36.964 74.042 23.513l13.164-6.222c1.093-.509 2.419-1.534 4.564-.852s3.198 2.533 4.401 4.698c1.204 2.164 2.476 4.159 4.741 4.704 2.265.545 5.42.171 6.894-1.235 10.028-9.558 30.369-29.024 30.369-29.024 5.501-4.71 3.881-9.033 3.881-9.033l-7.575-17.248s-2.072-4.136-9.231-3.185l-42.126 3.872a7.003 7.003 0 0 0-5.577 4.465 6.636 6.636 0 0 0-.188 4.343l1.508 4.851c.302 1.008.302 2.139-.113 3.175-.49 1.281-1.469 2.185-2.637 2.666l-11.907 5.04c-13.724 4.655-26.64 2.637-36.098-8.93l-10.814-14.366-30.785-40.855c-14.62-19.387-36.663-33.216-62.7-36.851-52.13-7.301-100.511 28.797-108.085 80.626-3.825 26.121-.231 48.213 19.504 70.783 19.734 22.569 58.114 31.167 91.361 38.787 3.558.844 13.566 3.316 19.488 5.455 5.476 1.983 18.087 6.632 28.336 15.019 12.246 12.45 18.727 30.235 15.977 48.887-4.635 31.802-34.327 53.958-66.317 49.474-16.023-2.224-29.551-10.716-38.509-22.609l-36.964-49.059c-7.537-10-18.935-17.144-32.405-19.066-13.452-1.884-26.47 1.846-36.559 9.405l-77.211 57.622c3.273 9.31 7.415 18.562 16.248 26.081l79.603-59.685c3.645-2.486 8.167-3.617 12.858-2.976 4.993.715 9.241 3.338 12.03 7.046l39.102 52.549c13.772 16.896 33.781 28.863 57.208 32.156 49.286 6.895 95.03-27.242 102.189-76.265 3.315-22.812-2.262-44.839-14.206-62.549"/></g></svg>