<svg xmlns="http://www.w3.org/2000/svg" width="512pt" height="512pt" style="isolation:isolate" viewBox="0 0 512 512"><defs><clipPath id="a"><path d="M0 0h512v512H0z"/></clipPath></defs><g clip-path="url(#a)"><path fill="#34BDB2" d="M0 0h512v512H0V0Z"/><path fill="#FFF" d="M336.922 174.082c-27.032-15.684-51.028-28.018-82.42-27.474-17.96.312-33.38 10.074-36.622 27.94-3.018 16.622 11.758 25.842 27.13 31.502 25.494 9.388 47.688 19.3 72.738 29.738 45.538 18.978 68.888 49.712 66.128 89.146-3.512 50.174-33.708 86.16-81.698 98.024-62.708 15.504-123.602-8.112-175.052-41.08 12.986-19.782 28.052-33.286 40.96-52.948 29.724 12.652 53.076 29.748 84.172 32.414 21.926 1.88 46.77.834 51.696-24.92 4.44-23.224-15.772-35.674-35.486-42.628-23.47-8.278-46.896-18.404-69.912-27.804-42.546-17.378-59.858-51.368-56.944-91.41 0-23.478 19.48-70.932 67.242-85.692 73.384-22.68 113.816.544 167.03 34.742-14.134 18.692-25 31.982-38.962 50.45Z"/></g></svg>