<svg xmlns="http://www.w3.org/2000/svg" xmlns:xlink="http://www.w3.org/1999/xlink" width="2500" height="2500" viewBox="0 0 493.15 493.09"><defs><style>.a{fill:#fff}.b{fill:url(#a)}.c{fill:#040845}.d{fill:url(#b)}.e{fill:url(#c)}</style><linearGradient id="a" x1="239.87" y1="311.22" x2="501.23" y2="433.56" gradientTransform="matrix(1 0 0 -1 0 493.08)" gradientUnits="userSpaceOnUse"><stop offset="0" stop-color="#0a29a6"/><stop offset=".99" stop-color="#0a186c"/></linearGradient><linearGradient id="b" x1="118.49" y1="393.5" x2="118.49" y2=".54" gradientTransform="matrix(1 0 0 -1 0 493.08)" gradientUnits="userSpaceOnUse"><stop offset="0" stop-color="#ff9d06"/><stop offset="1" stop-color="#ff6c0d"/></linearGradient><linearGradient id="c" x1="208.69" y1="146" x2="208.69" y2="103.06" xlink:href="#b"/></defs><title>SINOVATE</title><circle class="a" cx="247.34" cy="247.64" r="156.36"/><path class="b" d="M204.87 3.76a129.81 129.81 0 0 1 18.72-2.66C259.66-2.17 295 1.76 329 14.29q106.21 39.14 148 144.6c12.14 30.87 17 63.11 16 96.29 0 .94-.19 1.87-.3 2.8-.93-.78-.72-1.88-.69-2.87 0-1.45-.56-2.07-2-2.36-7.12-1.42-14.26-2.73-21.3-4.55-9.86-2.55-19.64-5.33-29.33-8.48-11-3.57-21.65-7.88-32.21-12.51-1-.44-2-1-3.16-.44-1.4-.32-1.12-1.58-1.27-2.48a146.89 146.89 0 0 0-9.47-32.68 165.2 165.2 0 0 0-23.94-40.12 177.2 177.2 0 0 0-54.07-44.93c-14.4-7.84-30-11.47-45.86-14.34a122.15 122.15 0 0 0-21.17-2 5.37 5.37 0 0 1-2.1-.29c-1.57-1-2.25-2.63-3.16-4.06a376.72 376.72 0 0 1-28.9-55.55q-4.87-11.55-8.88-23.44c-.3-.97-1.03-1.98-.32-3.12z"/><path class="c" d="M492.64 253.72c0-.78-.1-1.47-1.1-1.44-1.77 0-3.38-.71-5.09-.95-8.87-1.27-17.47-3.81-26.15-5.9-5.18-1.24-10.24-3-15.32-4.59-8-2.52-16-5.2-23.73-8.42-5.16-2.14-10.3-4.35-15.45-6.5-.82-.34-1.85-.92-1.88.78.21 1.33.59 2.19.71 3.36.62 5.8 0 11.64.07 17.48 0 4.81-.44 9.59-.83 14.38v.36c-.1 1.1-.12 1.7-.21 3.24-.12 1.18-.1 1.15-.2 1.94-.06.5-.13 1-.19 1.5a153.75 153.75 0 0 1-10.79 39.51 156.6 156.6 0 0 1-46.54 61.66c-11.86 8.93-48.3 32.16-95.07 34.55h-.83c-1.06 0-2.12.08-3.19.1a26.73 26.73 0 0 0-4.29-.07 3.67 3.67 0 0 1-.5.11h-.19a.66.66 0 0 0-.55 0c-2 0-4-.07-6.07-.18l1 27.33v11c0 3.65.12 7.59-.12 11.36q-.72 11-1.83 22.05c-.55 5.38-.76 10.8-1.84 16.12a76.57 76.57 0 0 0 11.33.41 92 92 0 0 0 13.89-.29l2.26-.1a52.2 52.2 0 0 0 11.09-.86 89.88 89.88 0 0 0 14.61-1.89 93.44 93.44 0 0 0 14.71-2.77 68 68 0 0 0 11.41-2.84 173.81 173.81 0 0 0 27.82-9.41c.74-.26 1.5-.48 2.22-.79q95.85-41.61 134.76-138.59a167.27 167.27 0 0 0 8.08-25.2 33.91 33.91 0 0 0 1.91-7.62 17.34 17.34 0 0 0 1.17-4.54 221.84 221.84 0 0 0 5-40c-.02-1.45-.07-2.87-.08-4.29zM240.27 492.31c0-.1 0-.2.09-.3a1.17 1.17 0 0 0 .7.55 1.78 1.78 0 0 1-.79-.25zM238.16 369.85a88.12 88.12 0 0 0 12.91-6.59c1.58-1.26 3.67-1.74 5.05-3.31 3.32-1.26 5.92-3.62 8.71-5.7 1-1.48 2.87-1.7 4-3a46.83 46.83 0 0 0 6.37-5.12c2.24-2.3 5.06-4 7-6.61a2.5 2.5 0 0 0 .85-.35c7.87-7.67 15-15.88 20-25.82 5.45-10.51 8.08-21.57 6.61-33.44-1.23-9.93-4.73-19.1-9.26-27.92-8.23-16-19-30.52-27.72-46.24l-.31-.53q-2.65-5.67-5.3-11.35c-.58-1.71-1.17-3.42-1.73-5.14-3.76-11.47-4.3-23-.66-34.6a81.72 81.72 0 0 1 13.25-22.82 177 177 0 0 1 29.93-26.75 288.18 288.18 0 0 0-12.68 4.47c-9.14 3.46-18.37 6.7-27.25 10.82a155.16 155.16 0 0 0-20.89 10h-.47a165.75 165.75 0 0 0-28.43 20.27 93.59 93.59 0 0 0-10.91 10.44 69.2 69.2 0 0 0-8.69 10.48 22.86 22.86 0 0 0-3.62 5.2 23 23 0 0 0-3.34 6.12 25.48 25.48 0 0 0-2.9 6.56 26.78 26.78 0 0 0-2.28 7.73 2.14 2.14 0 0 0-.22.8 38.18 38.18 0 0 0-1.15 12 43.07 43.07 0 0 0 1.16 11.26c2.51 12.14 8.09 23 14.26 33.58 6.67 11.44 14.14 22.4 20.34 34.12 7.08 13.39 12 27.29 10.16 42.79a1.65 1.65 0 0 0-.21 1.19 69.29 69.29 0 0 1-4.66 14.57c.49 2.29 1 4.57 1.45 6.87 1.22 6.35 2.84 12.63 3.5 19.09a44.13 44.13 0 0 0 7.16-3.19zm26.75-169.56c-.21-.25-.42-.49-.65-.73a1.59 1.59 0 0 1 .65.73zm-1.74 24.24l.05.05a.67.67 0 0 0 .12.06l-.17.19c-.01-.11 0-.2 0-.3zm-10.05-37.73a.77.77 0 0 1-.18.18v-.45a2.61 2.61 0 0 1 .18.27zm-1.93 39.78c-.13-.13-.27-.24-.41-.36a.59.59 0 0 1 .41.36zM197.9 98.26a145.74 145.74 0 0 1 22.15-5.6 2.73 2.73 0 0 0 1.89-.84v-.15h.16a3.34 3.34 0 0 0 2.79.38 183.26 183.26 0 0 1 18.85-1.68 4.11 4.11 0 0 0 1.85-.31c1.74.09 2.68.21 2.68.21l-2.27-.9a330.14 330.14 0 0 1-17.29-29.45Q221.84 46.86 216 33.27c-4.13-9.69-8-19.47-11.17-29.51a155.65 155.65 0 0 0-25.24 5.69.23.23 0 0 0-.34.07 15.27 15.27 0 0 0-4.44 1.32 54.19 54.19 0 0 0-7.9 2.42 207.26 207.26 0 0 0-29.39 12.33 183.88 183.88 0 0 0-24.62 13.9 172.59 172.59 0 0 0-18 12.82 137.19 137.19 0 0 0-14.27 12.1 68.84 68.84 0 0 0-9.94 9.52A82.84 82.84 0 0 0 63.13 82a99.83 99.83 0 0 0-8.52 10 62.16 62.16 0 0 0-5.77 7.54c8.86 5.86 17.73 11.71 26.27 18a407.94 407.94 0 0 1 34.61 28.86c3.18 3 6.24 6 9.35 9a8 8 0 0 0 4-4.62l.84-1a3.28 3.28 0 0 0 1.25-1.23c.43-.56.87-1.1 1.33-1.63 24.23-26.44 48.94-40.77 69.72-48.47a4.92 4.92 0 0 0 1.69-.19z"/><path class="c" d="M492.64 253.72c0-.78-.1-1.47-1.1-1.44-1.77 0-3.38-.71-5.09-.95-8.87-1.27-17.47-3.81-26.15-5.9-5.18-1.24-10.24-3-15.32-4.59-8-2.52-16-5.2-23.73-8.42-5.16-2.14-10.3-4.35-15.45-6.5-.82-.34-1.85-.92-1.88.78.21 1.33.59 2.19.71 3.36.62 5.8 0 11.64.07 17.48 0 4.81-.44 9.59-.83 14.38v.36c-.1 1.1-.12 1.7-.21 3.24-.12 1.18-.1 1.15-.2 1.94-.06.5-.13 1-.19 1.5a153.75 153.75 0 0 1-10.79 39.51 156.6 156.6 0 0 1-46.54 61.66c-11.86 8.93-48.3 32.16-95.07 34.55h-.83c-1.06 0-2.12.08-3.19.1a26.73 26.73 0 0 0-4.29-.07 3.67 3.67 0 0 1-.5.11h-.19a.66.66 0 0 0-.55 0c-2 0-4-.07-6.07-.18l1 27.33v11c0 3.65.12 7.59-.12 11.36q-.72 11-1.83 22.05c-.55 5.38-.76 10.8-1.84 16.12a76.57 76.57 0 0 0 11.33.41 92 92 0 0 0 13.89-.29l2.26-.1a52.2 52.2 0 0 0 11.09-.86 89.88 89.88 0 0 0 14.61-1.89 93.44 93.44 0 0 0 14.71-2.77 68 68 0 0 0 11.41-2.84 173.81 173.81 0 0 0 27.82-9.41c.74-.26 1.5-.48 2.22-.79q95.85-41.61 134.76-138.59a167.27 167.27 0 0 0 8.08-25.2 33.91 33.91 0 0 0 1.91-7.62 17.34 17.34 0 0 0 1.17-4.54 221.84 221.84 0 0 0 5-40c-.02-1.45-.07-2.87-.08-4.29zM240.27 492.31c0-.1 0-.2.09-.3a1.17 1.17 0 0 0 .7.55 1.78 1.78 0 0 1-.79-.25zM238.16 369.85a88.12 88.12 0 0 0 12.91-6.59c1.58-1.26 3.67-1.74 5.05-3.31 3.32-1.26 5.92-3.62 8.71-5.7 1-1.48 2.87-1.7 4-3a46.83 46.83 0 0 0 6.37-5.12c2.24-2.3 5.06-4 7-6.61a2.5 2.5 0 0 0 .85-.35c7.87-7.67 15-15.88 20-25.82 5.45-10.51 8.08-21.57 6.61-33.44-1.23-9.93-4.73-19.1-9.26-27.92-8.23-16-19-30.52-27.72-46.24l-.31-.53q-2.65-5.67-5.3-11.35c-.58-1.71-1.17-3.42-1.73-5.14-3.76-11.47-4.3-23-.66-34.6a81.72 81.72 0 0 1 13.25-22.82 177 177 0 0 1 29.93-26.75 288.18 288.18 0 0 0-12.68 4.47c-9.14 3.46-18.37 6.7-27.25 10.82a155.16 155.16 0 0 0-20.89 10h-.47a165.75 165.75 0 0 0-28.43 20.27 93.59 93.59 0 0 0-10.91 10.44 69.2 69.2 0 0 0-8.69 10.48 22.86 22.86 0 0 0-3.62 5.2 23 23 0 0 0-3.34 6.12 25.48 25.48 0 0 0-2.9 6.56 26.78 26.78 0 0 0-2.28 7.73 2.14 2.14 0 0 0-.22.8 38.18 38.18 0 0 0-1.15 12 43.07 43.07 0 0 0 1.16 11.26c2.51 12.14 8.09 23 14.26 33.58 6.67 11.44 14.14 22.4 20.34 34.12 7.08 13.39 12 27.29 10.16 42.79a1.65 1.65 0 0 0-.21 1.19 69.29 69.29 0 0 1-4.66 14.57c.49 2.29 1 4.57 1.45 6.87 1.22 6.35 2.84 12.63 3.5 19.09a44.13 44.13 0 0 0 7.16-3.19zm26.75-169.56c-.21-.25-.42-.49-.65-.73a1.59 1.59 0 0 1 .65.73zm-1.74 24.24l.05.05a.67.67 0 0 0 .12.06l-.17.19c-.01-.11 0-.2 0-.3zm-10.05-37.73a.77.77 0 0 1-.18.18v-.45a2.61 2.61 0 0 1 .18.27zm-1.93 39.78c-.13-.13-.27-.24-.41-.36a.59.59 0 0 1 .41.36zM197.9 98.26a145.74 145.74 0 0 1 22.15-5.6 2.73 2.73 0 0 0 1.89-.84v-.15h.16a3.34 3.34 0 0 0 2.79.38 183.26 183.26 0 0 1 18.85-1.68 4.11 4.11 0 0 0 1.85-.31c1.74.09 2.68.21 2.68.21l-2.27-.9a330.14 330.14 0 0 1-17.29-29.45Q221.84 46.86 216 33.27c-4.13-9.69-8-19.47-11.17-29.51a155.65 155.65 0 0 0-25.24 5.69.23.23 0 0 0-.34.07 15.27 15.27 0 0 0-4.44 1.32 54.19 54.19 0 0 0-7.9 2.42 207.26 207.26 0 0 0-29.39 12.33 183.88 183.88 0 0 0-24.62 13.9 172.59 172.59 0 0 0-18 12.82 137.19 137.19 0 0 0-14.27 12.1 68.84 68.84 0 0 0-9.94 9.52A82.84 82.84 0 0 0 63.13 82a99.83 99.83 0 0 0-8.52 10 62.16 62.16 0 0 0-5.77 7.54c8.86 5.86 17.73 11.71 26.27 18a407.94 407.94 0 0 1 34.61 28.86c3.18 3 6.24 6 9.35 9a8 8 0 0 0 4-4.62l.84-1a3.28 3.28 0 0 0 1.25-1.23c.43-.56.87-1.1 1.33-1.63 24.23-26.44 48.94-40.77 69.72-48.47a4.92 4.92 0 0 0 1.69-.19z"/><path class="d" d="M237 425.38c0-4.12-.4-8.2-.67-12.28-.18-2.74 0-5.53-.7-8.24-.36-.93-1.19-.92-2-1a175 175 0 0 1-30.32-6.3c-9.86-3-19.83-5.74-28.9-10.91a174.36 174.36 0 0 1-54.8-49.31c-2.1-2.86-3.69-6.09-6.23-8.62a1.48 1.48 0 0 0 .19-.46 7.42 7.42 0 0 0-1.2-2.56 150.16 150.16 0 0 1-11.47-23.37c-8.06-20.9-11.73-42.49-10.15-64.95A161.48 161.48 0 0 1 98.32 198a154.07 154.07 0 0 1 19.94-40 4.61 4.61 0 0 0 1-2.1c-.11-1.24-1.13-1.85-1.87-2.63A330.21 330.21 0 0 0 91.75 130a409.55 409.55 0 0 0-38.52-28.2c-1.36-.89-2.64-2-4.37-2.22-.54.67-1.12 1.32-1.62 2a239.54 239.54 0 0 0-24.1 41C.28 192.41-5.79 244.28 5.58 297.93c10.58 49.94 34.75 92.47 71.66 127.74A152.85 152.85 0 0 0 94 440l1.3 1a62.53 62.53 0 0 0 8.18 6.1 19 19 0 0 0 4.22 2.95c.43.34.84.71 1.29 1a245.18 245.18 0 0 0 89.2 37.21 209.77 209.77 0 0 0 34.25 4.29 3.76 3.76 0 0 0 1.21-2.73c.55-3.83.76-7.69 1.17-11.54 1.1-10.35 1.91-20.73 2.12-31.14.12-7.25-.03-14.51.06-21.76zm-132-70.61a.84.84 0 0 1 .69.39 4.24 4.24 0 0 0-.76-.39zm5.46 80.23a1 1 0 0 0 .11-.56c.11.26.05.43-.11.56zm2.79-38.59a1.61 1.61 0 0 0 .27-.56.74.74 0 0 1-.27.52z"/><path class="e" d="M231 373a3.54 3.54 0 0 0 .34-2.72c-1.09-7.06-2.68-14-4.12-21-.17-.82-.28-1.74-1.16-2.21-9.19 18.22-24.21 31-40.16 42.94q8.53-2.86 16.92-6c9.47-3.45 19.01-6.77 28.18-11.01z"/></svg>