<svg id="Layer_1" xmlns="http://www.w3.org/2000/svg" viewBox="0 0 152.3 117.2" width="2500" height="1924"><style>.st0{fill:none}.st1{fill:#1fccbf}.st2{fill:#183e7a}.st3{fill:#036da1}</style><title>Layer 1</title><path id="svg_3" class="st0" d="M14.4 23.8z"/><path id="svg_4" class="st0" d="M76.2 85.6l44.7-44.7-14-16.7H45.4l-14 16.7-1.8-1.8z"/><path id="svg_5" class="st1" d="M122.3 42.5l-1.4-1.7-44.7 44.8v31.5l52.4-52.4c.2-1.4.3-2.8.3-4.2 0-6.9-2.5-13.1-6.6-18z"/><path id="svg_6" class="st2" d="M117.9 0H34.4l-20 23.8 7.8-9.4c-.3 1.7-.5 3.4-.5 5.2 0 7.5 3 14.4 7.9 19.4l1.8 1.8 14-16.7h61.5l14 16.7 1.4 1.6c4.1 4.8 6.6 11.1 6.6 18 0 1.4-.1 2.9-.3 4.2l6.7-6.7 17-17L117.9 0z"/><path id="svg_7" class="st3" d="M76.2 85.6L29.6 39.1c-4.8-5-7.9-11.9-7.9-19.4 0-1.8.2-3.5.5-5.2l-7.8 9.3L0 41l76.2 76.2V85.6z"/></svg>