<svg xmlns="http://www.w3.org/2000/svg" width="2000" height="2001.34" viewBox="0 0 2000 2001.34"><path transform="matrix(.70711-.70711.70711.70711-414.45 999.27)" fill="#fff" d="M 308.67,309.59 H1689.33 V1690.25 H308.67 z"/><g fill="#cc4732"><path d="M915.59,84.2C944,56.28,971.61,27.51,1000.4,0c72.66,71.09,143.68,143.87,215.94,215.38,14.18,13.55,27.17,28.29,41.62,41.57,63.36,64.06,127.57,127.28,191,191.25l3.6,4.87c-7,8.48-15.3,15.73-21.41,24.85a159.7,159.7,0,0,0-15.7-16.68Q1217.59,263.45,1019.77,65.58c-6.21-6.26-12.28-12.7-19.09-18.32-6.21,4.38-11.2,10.16-16.52,15.52-86,86.63-172.75,172.54-258.95,259Q656.41,390.56,587.6,459.29c-6.47,6.59-12.87,13.33-20.19,19a188.41,188.41,0,0,0-22-23.39c17-18.2,35.17-35.32,52.59-53.13Q756.82,243,915.59,84.2Z"/><path d="M1588.92,636a210.68,210.68,0,0,0,24.67-23.31q191.88,192,383.89,384c3.23,2.27,3.47,6,.07,8.22q-179.35,179.77-359.1,359.21c-8.25,7.52-15.13,16.68-24.3,23.08a135.15,135.15,0,0,0-22.94-22.35c6.77-7.5,14.09-14.48,21.24-21.62q141.38-141.37,282.75-282.74c19.68-20.11,40.23-39.42,59.4-60q-162.87-163.15-326-326.07C1615.32,661.61,1603.15,647.67,1588.92,636Z"/><path d="M385.59 614a175.05 175.05 0 0 0 25.54 23.5c-7.76 4.53-13.52 11.51-19.62 17.93C276.46 770.23 161.9 885.51 46.6 1000c5.82 8.61 14 15.23 21.14 22.65q137.63 137.51 275.16 275.1c21.6 22 44.08 43.24 65.07 65.86a137 137 0 0 0 -23 22.19c-21.45-20.19-41.79-41.53-62.78-62.22Q163.39 1164.83 4.65 1006A31 31 0 0 1 0 1000.14c90.9-91.65 182.55-182.59 273.68-274C311 688.75 348.55 651.64 385.59 614"/><path d="M542.82,1546.16a185.42,185.42,0,0,0,23.64-24.32c33.66,32.79,66.57,66.35,99.92,99.46q153.23,153.3,306.49,306.52c9.32,8.78,17.54,18.82,27.75,26.65,3.39-3,6.74-6,9.85-9.26q210.81-211.32,421.93-422.27a143.48,143.48,0,0,0,22.39,23.56c-2.39,4-5.82,7.09-9.1,10.3q-217.79,217.8-435.58,435.59a128.7,128.7,0,0,1-9.58,8.95c-8.35-6.61-15.09-15-22.89-22.22Q765,1766.41,552.28,1553.7A114.07,114.07,0,0,0,542.82,1546.16Z"/></g><g fill="#151d5c"><path d="M989.14,297c3.8-3.6,7-7.93,11.6-10.63q334.89,334.32,669.35,669.11c21.87,22.16,44.25,43.83,65.89,66.22q-263.24,264.07-527.18,527.42c-69.44,69.25-138.57,138.8-208.15,207.92-23.71-22.52-46.34-46.28-69.68-69.22q-206.29-206.37-412.65-412.69c-84.35-84.53-169.06-168.71-253.18-253.47,12.9-14.26,27.12-27.34,40.53-41.15Q647.42,638.78,989.14,297m-36.82,383c-54.63,7.86-109.74,26.42-151.48,63.73a181.47,181.47,0,0,0-55.32,89A199.5,199.5,0,0,0,745.38,934c7.88,29.91,25.78,56.81,49.64,76.39,22.18,18.49,48.41,31.4,75.35,41.4,36.51,13.45,74.6,21.82,112.5,30.26,27.82,6.37,56,12.14,82.45,23.15,12.31,5.35,24.84,12.22,32.47,23.67,10.73,15.93,6.69,39.5-8.24,51.44-14.64,12-33.81,16.33-52.13,18.81-50.24,6.17-101.37-.64-149.65-15-35.06-10.72-69-25.59-99.73-45.75-4.3,6.94-6.83,14.77-10.36,22.13Q752.75,1216.12,728,1271.9c21.46,15.42,45.69,26.53,70.28,36,64,23.84,132.6,34.65,200.81,34.68,59.9,0,121.24-9.27,175-37,41.69-21.45,77.67-56.16,95.2-100.19,13.85-34.07,16.52-72.16,9.79-108.18-5.35-28.15-18.76-54.78-38.83-75.31-22.25-23-50.86-38.75-80.43-50.35C1122,956.8,1082.16,948,1042.55,939.52c-28.82-6.58-58.13-12-85.66-23.08-13.69-5.91-28.31-13.62-35-27.7-7-16.32-1.64-36.41,11.16-48.35,14.74-13.56,34.93-18.93,54.32-21.6,67.57-8.64,136,9.11,196.38,38.89,5.67,2.48,10.78,6.39,16.88,7.83,18-44.81,37.06-89.24,55.28-134-24-14.76-50.52-24.95-77.27-33.5A537.36,537.36,0,0,0,952.32,680.07Z"/><path d="M455.84,430.93c31.49-5.16,65,3.67,89.6,24a188.41,188.41,0,0,1,22,23.39c12.72,19,20.3,41.76,19.94,64.72.32,29.65-12,59.09-33,80s-50.2,33.81-79.91,33.32a110.54,110.54,0,0,1-63.31-18.8A175.05,175.05,0,0,1,385.59,614c-17.53-21-26.2-48.84-25.15-76.06a114.42,114.42,0,0,1,25.3-66.54A113.13,113.13,0,0,1,455.84,430.93Z"/><path d="m1462.49 447.78c26.56-17.67 60.86-22.69 91.55-14.3a113.68 113.68 0 0 1 62 42.89c13.89 18.72 20.92 41.83 22 65-.39 25.5-8.12 51.47-24.49 71.34a210.68 210.68 0 0 1 -24.63 23.29c-19.11 14.08-43.17 21-66.83 20.33-29.53-.07-58.63-12.9-79.08-34.13a113.62 113.62 0 0 1 -11.85 -144.26c6.11-9.12 14.46-16.37 21.41-24.85a51.64 51.64 0 0 0 9.92 -5.31"/><path d="M408,1363.62c17.83-11.48,38.26-19.51,59.62-20.29a113.26,113.26,0,0,1,98.87,178.51,185.42,185.42,0,0,1-23.64,24.32c-17.73,14.5-40.6,22.41-63.37,23.47-32.59,2-65.59-11.5-87.82-35.34a112.23,112.23,0,0,1-29.15-57.18,115.12,115.12,0,0,1,22.46-91.3A137,137,0,0,1,408,1363.62Z"/><path d="m1468.87 1357.51c37.63-21.72 87.41-18.36 122.34 7.28a135.15 135.15 0 0 1 22.94 22.35c17.82 23.64 26.75 54.37 22.5 83.8-4.07 33.71-24.52 64.84-53.56 82.37a112.89 112.89 0 0 1 -87.4 12.83c-14.79-3.71-28.57-10.81-40.9-19.64a143.48 143.48 0 0 1 -22.39 -23.56 114 114 0 0 1 -18.7 -91.73c6.79-30.94 27.49-58.37 55.17-73.7"/></g></svg>