<svg xmlns="http://www.w3.org/2000/svg" width="512pt" height="512pt" style="isolation:isolate" viewBox="0 0 512 512"><defs><clipPath id="a"><path d="M0 0h512v512H0z"/></clipPath></defs><g clip-path="url(#a)"><clipPath id="b"><path fill="#FFF" fill-rule="evenodd" d="M3.151 278.843 0 307.2l3.151 28.357c0 1.575 1.575 1.575 1.575 1.575 1.576 0 1.576-1.575 1.576-1.575l4.726-28.357-4.726-28.357c0-1.575-1.576-1.575-1.576-1.575s-1.575 0-1.575 1.575Zm18.904-17.329L17.329 307.2l4.726 45.686c0 1.576 1.576 1.576 1.576 1.576 1.575 0 1.575-1.576 1.575-1.576l6.302-45.686-6.302-45.686c0-1.576-1.575-1.576-1.575-1.576l-1.576 1.576Zm59.865-6.302L78.769 307.2l3.151 55.138c0 1.576 1.575 3.151 3.151 3.151 1.575 0 3.151-1.575 3.151-3.151l6.301-55.138-4.726-51.988c0-1.575-1.575-3.15-3.151-3.15-3.151 0-4.726 1.575-4.726 3.15Zm-39.385-3.15L37.809 307.2l4.726 51.988c0 1.575 1.576 3.15 3.151 3.15 0 0 1.576-1.575 1.576-3.15l4.726-51.988-4.726-55.138c0-1.576-1.576-3.151-3.151-3.151 0 1.575-1.576 1.575-1.576 3.151Zm18.905-1.576L56.714 307.2l4.726 53.563c0 1.575 1.575 3.151 3.151 3.151 1.575 0 3.151-1.576 3.151-3.151l4.726-53.563-4.726-56.714c0-1.575-1.576-3.151-3.151-3.151-1.576 0-1.576 1.576-3.151 3.151Zm40.96-28.357L97.674 307.2l4.726 55.138c0 1.576 1.575 3.151 3.151 3.151 3.151 0 4.726-1.575 4.726-3.151l4.726-55.138-4.726-85.071c0-1.575-1.575-3.151-3.151-3.151-3.151 0-4.726 1.576-4.726 3.151Zm20.48-18.904L119.729 307.2l3.151 55.138c0 3.151 1.575 4.727 4.726 4.727 1.576 0 4.726-1.576 4.726-4.727l4.726-55.138-4.726-103.975c0-3.151-1.575-4.727-4.726-4.727s-4.726 1.576-4.726 4.727Zm83.495-4.727-3.15 108.702 3.15 51.988c0 3.15 3.151 6.301 6.302 6.301s6.301-3.151 6.301-6.301l3.151-51.988-3.151-110.277c0-3.151-3.15-6.301-6.301-6.301-4.726 1.575-6.302 3.15-6.302 7.876Zm-63.015-4.726L140.209 307.2l3.151 53.563c0 3.151 1.575 4.726 4.726 4.726s4.726-1.575 4.726-4.726l3.151-53.563-3.151-113.428c0-3.15-1.575-4.726-4.726-4.726s-4.726 3.151-4.726 4.726Zm40.96 0L181.169 307.2l3.151 53.563c0 3.151 3.151 6.302 6.302 6.302 3.15 0 6.301-3.151 6.301-6.302l3.151-53.563-3.151-113.428c0-3.15-3.151-6.301-6.301-6.301-3.151 0-6.302 3.151-6.302 6.301Zm-20.48-3.15L160.689 307.2l3.151 53.563c0 3.151 1.575 4.726 4.726 4.726s4.726-1.575 4.726-4.726l3.151-53.563-3.151-116.578c0-3.151-3.15-4.727-4.726-4.727-1.575 0-4.726 1.576-4.726 4.727Zm63.015-14.179-3.15 130.757 3.15 51.988c0 3.15 3.151 6.301 6.302 6.301s6.301-3.151 6.301-6.301l3.151-51.988-3.151-130.757c0-3.151-3.15-6.301-6.301-6.301-3.151 0-6.302 3.15-6.302 6.301Zm22.056-11.028L245.76 307.2l3.151 51.988c0 3.15 3.151 6.301 6.301 6.301 3.151 0 6.302-3.151 6.302-6.301l3.151-51.988-3.151-141.785c0-3.15-3.151-6.301-6.302-6.301h-1.575c-3.151 0-4.726 3.151-4.726 6.301Zm25.206-14.178c-4.726 1.575-6.302 3.151-6.302 7.877v200.074c0 3.15 3.151 6.301 6.302 7.877h174.868c34.658 0 63.015-28.357 63.015-63.016 0-34.658-28.357-63.015-63.015-63.015-7.877 0-17.33 1.575-23.631 4.726-4.726-56.714-51.988-100.825-110.277-100.825H307.2c-11.028 0-22.055 3.151-33.083 6.302Z"/></clipPath><g clip-path="url(#b)"><linearGradient id="c" x1=".5" x2=".5" y1="-2.552" y2="1.857" gradientTransform="matrix(1961.354 0 0 222.129 0 144.935)" gradientUnits="userSpaceOnUse"><stop offset="0%" style="stop-color:#f8a01d"/><stop offset="71.28%" style="stop-color:#f26e23"/><stop offset="100%" style="stop-color:#ef5826"/></linearGradient><path fill="url(#c)" d="M0 144.935h1961.354v222.129H0z"/></g></g></svg>