<svg xmlns="http://www.w3.org/2000/svg" xmlns:xlink="http://www.w3.org/1999/xlink" width="2000" height="2266.28" viewBox="0 0 2000 2266.28"><defs><linearGradient id="0" y1="1866.28" x2="0" y2="263.37" gradientUnits="userSpaceOnUse"><stop stop-color="#05aac5"/><stop offset="1" stop-color="#71e0ec"/></linearGradient><linearGradient id="1" y1="3098.39" x2="0" y2="1166.8" xlink:href="#0"/><linearGradient id="2" y1="3298.39" x2="0" y2="1034.4" xlink:href="#0"/></defs><path d="m1000 1866.28c-344.19 0-623.26-279.07-623.26-623.26 0-334.88 562.79-925.58 586.05-948.83l27.91-32.56 27.9 32.56c23.26 23.25 600 614 600 948.83 4.66 344.19-274.41 623.26-618.6 623.26m-4.65-1483.72c-51.16 55.81-153.49 167.44-255.82 307-181.39 241.84-279.06 432.53-279.06 553.44 0 297.68 241.86 539.54 539.53 539.54s539.53-241.84 539.53-539.54c0-120.93-97.67-311.62-283.72-553.49-102.32-134.86-209.3-251.14-260.46-306.95" fill="url(#0)"/><path d="m1000 2066.28c-455.81 0-823.26-367.44-823.26-823.26 0-441.86 618.61-1060.46 646.52-1088.37 18.6-14 41.86-14 60.46 0 13.95 18.61 13.95 41.86 0 60.47-9.3 4.65-623.25 618.6-623.25 1027.9s330.23 739.54 739.53 739.54 739.53-330.23 739.53-739.54c0-167.44-107-400-311.62-669.76-158.14-209.26-316.28-367.45-316.28-367.45-18.61-13.95-18.61-41.86 0-60.46 13.95-18.61 41.86-18.61 60.46 0 27.91 27.91 655.82 655.81 655.82 1097.65-4.65 455.84-372.1 823.28-827.91 823.28" fill="url(#1)"/><path d="m1000 2266.28c-548.84 0-1000-451.16-1000-1000 0-227.91 116.28-507 339.53-832.56 167.47-237.21 330.24-409.3 339.54-418.6 13.95-18.61 41.86-18.61 60.46 0 18.61 14 18.61 41.86 0 60.46 0 0-167.44 172.09-330.23 409.3-213.95 307-325.58 576.75-325.58 786.05 0 507 414 916.28 916.28 916.28s916.28-418.61 916.28-920.93c0-209.3-111.63-479.07-325.58-786-162.79-232.56-330.23-404.65-330.23-409.3-14-18.6-14-41.86 0-60.46 18.6-14 41.86-14 60.46 0 23.26 32.48 679.07 711.57 679.07 1255.76 0 548.84-446.51 1000-1000 1000" fill="url(#2)"/></svg>