<?xml version="1.0" encoding="UTF-8" standalone="no"?>
<!-- Generator: Gravit.io -->
<svg xmlns="http://www.w3.org/2000/svg" xmlns:xlink="http://www.w3.org/1999/xlink" style="isolation:isolate" viewBox="0 0 64 64" width="64pt" height="64pt"><defs><clipPath id="_clipPath_oSYNrkBbem035gxQTWQwWxZNgnhNER3d"><rect width="64" height="64"/></clipPath></defs><g clip-path="url(#_clipPath_oSYNrkBbem035gxQTWQwWxZNgnhNER3d)"><g><linearGradient id="_lgradient_9" x1="0" y1="0.20686881168868188" x2="0.7072184824736272" y2="0.5034751842501648" gradientTransform="matrix(31.462,0,0,41.214,31.692,22.786)" gradientUnits="userSpaceOnUse"><stop offset="0%" stop-opacity="1" style="stop-color:rgb(36,147,97)"/><stop offset="100%" stop-opacity="1" style="stop-color:rgb(62,207,142)"/></linearGradient><path d=" M 37.258 62.937 C 35.623 64.996 32.308 63.868 32.268 61.239 L 31.692 22.786 L 57.548 22.786 C 62.231 22.786 64.843 28.195 61.931 31.863 L 37.258 62.937 Z " fill="url(#_lgradient_9)"/><linearGradient id="_lgradient_10" x1="-0.3238110725457637" y1="-0.1315840079821104" x2="-0.050231710416300035" y2="0.3834143715890537" gradientTransform="matrix(31.462,0,0,41.214,31.692,22.786)" gradientUnits="userSpaceOnUse"><stop offset="0%" stop-opacity="1" style="stop-color:rgb(0,0,0)"/><stop offset="22.55324412835308%" stop-opacity="1" style="stop-color:rgb(0,0,0)"/></linearGradient><path d=" M 37.258 62.937 C 35.623 64.996 32.308 63.868 32.268 61.239 L 31.692 22.786 L 57.548 22.786 C 62.231 22.786 64.843 28.195 61.931 31.863 L 37.258 62.937 Z " fill="url(#_lgradient_10)" fill-opacity="0.2"/><path d=" M 26.742 1.063 C 28.377 -0.996 31.693 0.133 31.732 2.762 L 31.984 41.214 L 6.453 41.214 C 1.769 41.214 -0.843 35.805 2.07 32.137 L 26.742 1.063 Z " fill="rgb(62,207,142)"/></g></g></svg>