<svg xmlns="http://www.w3.org/2000/svg" width="512pt" height="512pt" style="isolation:isolate" viewBox="0 0 512 512"><defs><clipPath id="a"><path d="M0 0h512v512H0z"/></clipPath></defs><g clip-path="url(#a)"><path fill="#06B6D4" fill-rule="evenodd" d="M256.005 103.322c-68.273 0-110.932 33.931-128.008 101.792 25.604-33.931 55.471-46.652 89.603-38.174 19.473 4.835 33.399 18.881 48.799 34.432C291.501 226.694 320.556 256 384.003 256c68.262 0 110.931-33.931 127.997-101.782-25.593 33.931-55.461 46.652-89.592 38.164-19.484-4.835-33.409-18.881-48.809-34.422-25.102-25.342-54.147-54.638-117.594-54.638ZM127.997 256C59.735 256 17.066 289.931 0 357.792c25.604-33.931 55.471-46.652 89.592-38.174 19.484 4.835 33.409 18.881 48.809 34.432 25.102 25.322 54.147 54.628 117.604 54.628 68.263 0 110.932-33.921 127.998-101.782-25.604 33.931-55.471 46.652-89.603 38.175-19.473-4.846-33.399-18.892-48.799-34.433C220.499 285.316 191.444 256 127.997 256Z"/></g></svg>