<svg xmlns="http://www.w3.org/2000/svg" width="512pt" height="512pt" style="isolation:isolate" viewBox="0 0 512 512"><defs><clipPath id="a"><path d="M0 0h512v512H0z"/></clipPath></defs><g fill-rule="evenodd" clip-path="url(#a)"><path fill="#002D62" d="M337.834 438.177h20.979L512 73.784h-21.427L337.834 438.177Zm-328.516.039h293.644l2.826-.218 2.58-.657 2.589-1.293 2.612-1.533 2.378-1.721 1.958-2.156 1.708-2.37 1.082-2.616L462.678 86.348l.84-2.616.246-2.164-.246-2.164-.626-1.95-1.297-1.506-1.74-1.078-1.954-.876-2.588-.21H340.172l-2.37.424-2.382.872-2.37 1.292-2.165 1.74-4.332 3.908-4.118 4.328L1.954 425.652.662 427.82 0 429.98l.21 1.95.868 1.95 1.506 1.721 1.954 1.529 2.164.868 2.616.218Z"/><path fill="#FFF" d="M266.383 200.819c47.713 0 86.464 38.998 86.464 86.679 0 47.92-38.751 86.921-86.464 86.921-47.924 0-87.131-39.001-87.131-86.921 0-47.681 39.207-86.679 87.131-86.679Zm-35.272 109.549c-6.992-.844-10.892-1.934-16.58-1.3-6.536.456-15.462 6.326-21.121 12.434-4.781-10.258-7.408-21.784-7.408-34 0-43.995 35.937-80.147 80.381-80.147 18.937 0 36.817 6.96 50.519 18.304l-85.791 84.709Zm29.616 5.232 74.059 13.524c7.415-12.434 11.526-26.136 11.526-41.626 0-23.301-10.436-44.657-26.564-59.453L260.727 315.6Zm3.69 12.434 37.241 30.499-69.037-34.007c-6.322-1.728-12.402-2.176-18.304-2.394-6.746-.21-12.857.884-19.817 1.966 13.495 25.933 40.511 43.777 71.883 43.777 27.439 0 52.065-14.158 66.437-35.933l-68.403-3.908Z"/></g></svg>