<svg viewBox="0 0 399.94 148.68" xmlns="http://www.w3.org/2000/svg"><path d="m651.29 485.16-87.29-84.55a19.85 19.85 0 0 0 -27.86.2l-48.14 48.19a12.72 12.72 0 0 1 -18 0l-47.77-47.77a20.16 20.16 0 0 0 -11.89-5.92 19.64 19.64 0 0 0 -16.28 5.69l-79.79 79.38-8.48 8.48 8.48 8.49 27.55 27.54a26.23 26.23 0 0 0 16.28 7.76 25.47 25.47 0 0 0 20.25-7.41l40.22-39.81 49.23 52.69a17.91 17.91 0 0 0 26.18-.2l48.87-54.72 46.48 44.11a15.66 15.66 0 0 0 20.92-1.09l41-41zm-196.29-34.16-3.76-.85a21.78 21.78 0 0 0 -20.24 5.85l-61.13 60.72a13.59 13.59 0 0 1 -19.22 0l-27.89-27.89 79.79-79.38a7.7 7.7 0 0 1 10.9 0zm130-13.3c-.33-.09-11.75-3.22-19.61 4.63l-1.3 1.31-37 37a15.52 15.52 0 0 1 -10.93 4.53 15.65 15.65 0 0 1 -10.93-4.53l-15.94-15.94 55.39-55.39a7.7 7.7 0 0 1 .6-.54l.19-.14.44-.32.24-.14.42-.26.28-.12c.14-.07.27-.14.42-.2l.29-.1.42-.15.31-.08.42-.1h.33c.14 0 .28-.05.42-.06h.34.41.37.35l.4.06a1.88 1.88 0 0 1 .33.05l.42.09.31.08.41.14.3.1.42.19.27.12c.15.07.28.16.42.24l.25.14.42.31.21.15a7.08 7.08 0 0 1 .59.52zm120.75-5.44-43.1 43.1-46.91-46.91 26.13-26.12a24 24 0 0 1 33.94 0z" fill="#1d2339" transform="translate(-305.79 -395)"/></svg>