<svg xmlns="http://www.w3.org/2000/svg" width="2000" height="2005.75" viewBox="0 0 2000 2005.75"><g fill="#f49e3a"><path d="M613.44,76.77C733.8,29.24,862.92-3,992.92.25c35,10.6,69.62,22.72,104.3,34.45C1255.81,90.26,1398,188.87,1510.91,312.76c-21.6,23.53-43.84,46.33-66.24,69.06-127.68-91-283.85-142.61-440.91-141.08-28.91-.4-57.81,2.49-86.8,1.68-91.38-7.79-185.49-14.13-274.7,12.13-1.92,24.89-4,49.78-6,74.75C505.92,399.48,396,507.4,325.58,637.72c-84.07.56-168.23.48-252.3.24.25-3.21.73-9.79,1-13.09l3-2.81c38.94-34,65-79.57,100.93-116.43,81.18-85.43,180-154,287.54-201.94C509.37,283,560,279.12,601.23,253,611.11,194.81,599.15,134.75,613.44,76.77Z"/><path d="m1372.56 498c63-29.15 122.45-67.53 190.94-83.19 1.53 62.39-.08 124.86 3 187.25q-199.95 200.89-400 401.64c125.5 127.35 252.53 253.18 378.36 380.13-6 65.92-2.9 132.08-5.22 198.09-62.47-18.23-118.52-51.71-175.45-82.39-6.18 8.92-12.37 17.91-18.55 26.82q-175.64-174.63-350.64-350c-65.53 62.63-128 128.23-192.8 191.59-57.73-56.21-115.22-112.82-170.62-171.36 63.67-64.31 128.87-127.19 191.18-192.79q-95.26-95.38-190.54-190.7c54.6-59.74 113.86-115.15 170.71-172.88 64.15 64 127.75 128.64 191.91 192.63q180.66-180.18 360.93-360.77c5.63 8.59 11.17 17.26 16.79 25.93"/><path d="M5.27,880.46c86.72-.81,173.44-.32,260.16-.24-14.69,80.29-24.49,162.12-17.26,243.78,3.85,76.6,29.47,149.91,63,218.24q-24.45,23.25-49.78,45.69C125.72,1254.56,37.55,1075.5,6.8,888.33Z"/><path d="m1054.35 1766.45c138.91-12.61 274.61-60.55 388.15-142.13q21.91 22.17 43.76 44.41c-126.23 129.92-286.18 232.13-463.87 273-9.8-55-19.76-109.92-27.3-165.25 19.75-3.37 39.42-6.9 59.26-10.03"/></g><g fill="#f27748"><path d="M992.92.25C1213.09-5,1433.1,72.11,1607.27,205.81c173.28,132.33,301.43,322.47,357.8,533.09,59.58,217.84,42.47,455.6-47.7,662.6-95.63,222.26-274.93,406.78-494.06,509.24-187.9,88.17-403.89,117.63-607.85,77.17-250.92-46.1-480.41-194.32-628.07-402.05C43.9,1386.24-22.51,1132.51,6.8,888.33c30.75,187.17,118.92,366.23,254.62,499.6q25.29-22.52,49.78-45.69c82.31,164.21,224,298.22,394.5,367.28,109.84,45.85,230.13,62.87,348.65,56.93-19.84,3.13-39.51,6.66-59.26,10,7.54,55.33,17.5,110.25,27.3,165.25,177.69-40.87,337.64-143.08,463.87-273q-21.91-22.17-43.76-44.41c-32.2-32.76-65-64.88-96.92-98,6.18-8.91,12.37-17.9,18.55-26.82,56.93,30.68,113,64.16,175.45,82.39,2.32-66-.73-132.17,5.22-198.09q35.28,34.92,70.66,69.77c95.87-129.51,148.71-290.27,148.14-451.42.57-160.35-51.79-320.22-146.7-449.5q-25.29,24.69-50.42,49.38c-3.06-62.39-1.45-124.86-3-187.25-68.49,15.66-127.91,54-190.94,83.19-5.62-8.68-11.16-17.35-16.78-25.94,29.79-29.87,59.26-60.06,88.89-90.25,22.4-22.73,44.64-45.53,66.24-69.06C1398,188.87,1255.81,90.26,1097.22,34.7,1062.54,23,1027.93,10.85,992.92.25Z"/><path d="m77.22 622.06c94.19-244.82 296-442.75 536.22-545.29-14.29 58-2.33 118-12.21 176.25-41.19 26.1-91.86 30-135.54 50.67-107.59 47.94-206.36 116.51-287.54 201.94-35.97 36.86-61.99 82.37-100.93 116.43"/><path d="m642.26 254.55c89.21-26.26 183.32-19.92 274.7-12.13-97.48 13.81-193.36 40.71-280.72 86.88 2.01-24.97 4.1-49.86 6.02-74.75"/><path d="m265.43 880.22c74.28-.08 148.47-.48 222.75.24q.24 121.77 0 243.46c-80 .64-160 .48-240 .08-7.24-81.66 2.56-163.49 17.25-243.78"/></g></svg>