<svg width="60" height="60" viewBox="0 0 60 60" fill="none" xmlns="http://www.w3.org/2000/svg">
<g clip-path="url(#clip0_8453_406)">
<circle cx="30" cy="30" r="30" fill="#2A2A2B" stroke="#E7EBEE"/>
<path fill-rule="evenodd" clip-rule="evenodd" d="M27.1529 11.2398C20.3093 12.4594 14.6052 17.6599 12.4991 24.5996C12.115 25.8653 11.979 27.2291 12.0026 29.5732C12.0411 33.3541 12.869 36.4149 14.5969 39.1638L15.6426 40.827L21.4479 37.3858L27.2535 33.9448L27.3324 40.9339L27.4113 47.923H30.3491H33.2868V41.0235C33.2868 36.2099 33.3846 34.1239 33.6101 34.1239C33.7875 34.1239 36.3901 35.5969 39.3936 37.3975C43.6137 39.9275 44.9608 40.6054 45.3245 40.3822C45.8122 40.0834 48.2049 35.6806 47.9816 35.4933C47.9121 35.4351 43.93 33.0455 39.1327 30.1832L30.4102 24.9792L24.5294 28.5241C21.2949 30.4736 18.4833 32.0687 18.2814 32.0687C18.0051 32.0687 17.9432 31.3597 18.0312 29.2062C18.1319 26.7455 18.2796 26.0644 19.0835 24.3547C23.0013 16.0219 33.8634 14.5598 40.0019 21.5388C41.1814 22.88 42.3167 25.3289 42.7045 27.3703C42.869 28.2343 43.0354 28.9636 43.0748 28.9912C43.1142 29.0188 44.4045 29.7881 45.9423 30.7003L48.7382 32.3591L48.8301 29.9387C48.9557 26.6287 48.4878 24.4645 46.9724 21.3524C45.3972 18.1167 43.6646 16.1138 40.7712 14.1834C36.9377 11.6256 31.5375 10.4582 27.1529 11.2398Z" fill="#FC0081"/>
</g>
<defs>
<clipPath id="clip0_8453_406">
<rect width="60" height="60" rx="30" fill="white"/>
</clipPath>
</defs>
</svg>
