<svg xmlns="http://www.w3.org/2000/svg" width="2000" height="2000.25" viewBox="0 0 2000 2000.25"><g fill="#00e8b4"><path d="M1480.59,1582.39a753.82,753.82,0,0,0,259.83-419.75,53.12,53.12,0,0,0-40.14-62.94,51.7,51.7,0,0,0-39.55,7.21,50.82,50.82,0,0,0-23.09,32.92c-76.84,347.8-421.06,567.47-768.87,490.63S301.3,1209.4,378.16,861.6,799.2,294.13,1147,371a644.94,644.94,0,0,1,394.21,267.13,52.84,52.84,0,0,0,73,13.85,52.27,52.27,0,0,0,14.83-72.4c-.4-.61-.82-1.21-1.24-1.8C1395.06,234.71,928.32,145.29,585.28,378S152.82,1077.54,385.56,1420.57s699.5,432.46,1042.55,199.72q27.08-18.36,52.48-39Z"/><path d="M1876.67,520C1611.79,35.75,1004.48-142.1,520.2,122.79,108.44,348.28-91.24,829.68,40,1280.42a52.2,52.2,0,0,0,25.4,31.45,50.5,50.5,0,0,0,39.84,4.34,51.76,51.76,0,0,0,31.47-25.11,52.61,52.61,0,0,0,4.33-40.13C23.89,848.47,201.83,418.56,569.2,216.6c432.72-238.86,977.12-81.69,1216,351s81.68,977.13-351,1216a895,895,0,0,1-621.59,91.21,52.54,52.54,0,0,0-55.44,80,52,52,0,0,0,33.2,22.81c539.45,116.25,1071-226.79,1187.25-766.23A999.17,999.17,0,0,0,1876.67,520Z"/><path d="M952.86,1378.58a282.14,282.14,0,0,0,121.23,28.86,277.71,277.71,0,0,0,173.22-62.35c6.64-5.49,13.56-11.26,19.92-17.33a61.5,61.5,0,0,0-83.14-90.64l-14.15,12.41a153,153,0,0,1-165.13,19.06,155.59,155.59,0,0,1-90.93-144.35V841.92h317.55a54.84,54.84,0,0,0,0-109.41H913.9V655.72a61.5,61.5,0,1,0-123,0v76.79h-80a54.85,54.85,0,0,0,0,109.41h81.7v282.34A280,280,0,0,0,952.86,1378.58Z"/></g></svg>