<svg enable-background="new 0 0 1300.6 1491.4" viewBox="0 0 1300.6 1491.4" xmlns="http://www.w3.org/2000/svg"><g transform="matrix(.1 0 0 -.1 0 1280)"><path d="m3666.2 11429.7c-4.4-4.4-446.6-13.3-984.3-20s-1059.9-17.8-1159.9-26.7l-184.4-15.6-13.3-73.3c-15.6-88.9 24.4-288.9 68.9-333.3 53.3-53.3 33.3-193.3-35.6-253.3-35.6-33.3-66.7-162.2-62.2-268.9 2.2-66.7 0-468.8-2.2-897.7-2.2-426.6 4.4-795.5 11.1-815.5 8.9-20 44.4-44.4 80-51.1 51.1-11.1 66.7-28.9 77.8-95.5 8.9-44.4 28.9-95.5 46.7-113.3 26.7-24.4 26.7-33.3 2.2-48.9-17.8-13.3-2.2-20 48.9-20 57.8 0 68.9-6.7 44.4-22.2-44.4-28.9-88.9-26.7 1077.7-33.3 551-2.2 1044.3-13.3 1099.9-24.4l100-20 17.8-133.3c11.1-73.3 20-202.2 22.2-288.9 2.2-84.4 17.8-177.8 33.3-204.4 35.6-62.2 33.3-160-4.4-253.3-22.2-57.8-26.7-164.4-20-431.1 42.2-1528.7 48.9-6477.1 8.9-6477.1-28.9 0-22.2-108.9 8.9-197.8 22.2-66.7 24.4-91.1 4.4-97.8-28.9-8.9-31.1-253.3-4.4-542.2 15.6-173.3 20-184.4 68.9-184.4 26.7 0 57.8-8.9 64.4-22.2 6.7-11.1 80-22.2 164.4-22.2h148.7l26.7-126.7c17.8-91.1 20-133.3 2.2-155.5-13.3-15.6-17.8-28.9-8.9-28.9s6.7-13.3-8.9-28.9c-13.3-17.8-15.6-37.8-2.2-51.1 11.1-11.1 22.2-68.9 26.7-131.1l6.7-108.9 95.5-20c113.3-22.2 146.6 4.4 151.1 117.8 4.4 95.5 51.1 217.8 71.1 186.6 35.6-55.5 271.1-100 271.1-53.3 0 13.3 37.8 22.2 84.4 22.2 62.2 0 100-15.6 135.5-53.3 37.8-40 73.3-53.3 164.4-55.5 77.8 0 135.5-15.6 175.5-46.7 42.2-31.1 95.5-44.4 173.3-44.4 104.4 0 111.1-2.2 111.1-57.8 0-62.2 53.3-131.1 88.9-108.9 11.1 6.7 22.2 51.1 22.2 100 0 73.3 6.7 82.2 44.4 73.3 24.4-6.7 44.4 0 44.4 13.3s33.3 24.4 73.3 24.4c37.8 2.2 95.5 15.6 126.7 33.3 31.1 17.8 113.3 31.1 184.4 33.3 100 0 126.7-6.7 126.7-35.6s24.4-33.3 162.2-22.2c86.7 6.7 211.1 17.8 273.3 24.4 68.9 8.9 133.3 4.4 160-8.9 33.3-17.8 51.1-15.6 68.9 6.7 13.3 15.6 51.1 24.4 86.7 17.8 42.2-4.4 73.3 6.7 102.2 37.8 37.8 42.2 40 48.9 4.4 100-20 31.1-35.6 82.2-35.6 113.3 0 40-11.1 55.5-44.4 55.5-71.1 0-93.3 88.9-55.5 233.3 44.4 168.9 42.2 204.4-22.2 268.9-57.8 57.8-71.1 117.8-33.3 155.5 11.1 11.1 33.3 93.3 48.9 182.2 20 124.4 22.2 171.1 0 204.4-20 31.1-20 322.2-2.2 1237.6 15.6 711 17.8 1875.3 8.9 2873-6.7 922.1-11.1 1893.1-6.7 2155.3 2.2 262.2 4.4 553.3 2.2 644.4-20 657.7-15.6 1037.7 11.1 1095.4 15.6 33.3 37.8 55.5 48.9 48.9 13.3-8.9 22.2-2.2 22.2 8.9 0 35.6 68.9 26.7 144.4-17.8 62.2-35.6 66.7-48.9 73.3-186.6 4.4-82.2 15.6-148.9 26.7-148.9 8.9 0 4.4-57.8-13.3-126.7-15.6-71.1-28.9-191.1-31.1-268.9 0-77.8-11.1-162.2-26.7-188.9-35.6-68.9-22.2-206.6 31.1-302.2 44.4-77.8 44.4-91.1 17.8-535.5-22.2-346.6-22.2-513.3-2.2-697.7 17.8-168.9 17.8-251.1 0-271.1-13.3-17.8-17.8-84.4-6.7-180 6.7-82.2 17.8-1151 22.2-2373.1 2.2-1222.1 13.3-2386.4 20-2588.6s15.6-422.2 17.8-488.8c4.4-126.7-48.9-242.2-113.3-244.4-93.3-2.2-126.7-177.8-51.1-262.2 22.2-26.7 66.7-48.9 97.8-48.9s64.4-11.1 73.3-24.4c8.9-17.8 20-15.6 33.3 4.4 13.3 24.4 24.4 24.4 46.7 2.2 13.3-13.3 64.4-26.7 111.1-26.7 68.9 0 84.4 8.9 84.4 42.2 0 24.4 13.3 46.7 28.9 53.3 20 6.7 28.9 882.1 35.6 4250.6 8.9 3961.8 8.9 4399.5 4.4 4539.5-2.2 31.1 2.2 57.8 6.7 62.2 17.8 20 1186.5 20 1513.2 2.2 266.6-13.3 395.5-11.1 577.7 15.6 302.2 42.2 322.2 53.3 322.2 177.8 0 73.3 8.9 100 33.3 100 17.8 0 33.3-15.6 33.3-33.3 0-17.8 20-33.3 44.4-33.3 48.9 0 60-62.2 22.2-133.3-17.8-33.3-13.3-46.7 20-66.7 55.5-28.9 357.7-28.9 357.7 0 0 13.3 15.6 22.2 33.3 22.2 24.4 0 33.3 24.4 33.3 88.9 0 73.3 6.7 88.9 44.4 88.9 24.4 0 44.4 15.6 44.4 33.3 0 17.8 11.1 33.3 22.2 33.3 13.3 0 22.2 55.5 22.2 122.2 0 120 0 122.2-66.7 122.2-51.1 0-66.7 8.9-66.7 44.4 0 24.4 11.1 44.4 22.2 44.4 13.3 0 22.2 40 22.2 88.9s11.1 88.9 22.2 88.9c13.3 0 22.2 35.6 22.2 77.8s11.1 77.8 22.2 77.8c13.3 0 22.2 64.4 22.2 146.7s11.1 188.9 26.7 237.8c22.2 71.1 22.2 91.1 0 100-33.3 11.1-35.6 217.8-4.4 237.8 46.7 28.9 22.2 133.3-44.4 186.6-37.8 28.9-66.7 64.4-66.7 82.2 0 20-26.7 31.1-75.5 31.1-42.2 0-91.1 6.7-111.1 13.3-46.7 17.8-106.7-131.1-97.8-246.6 4.4-66.7 17.8-93.3 57.8-111.1 60-26.7 64.4-106.7 8.9-162.2-62.2-62.2-77.8-286.6-37.8-513.3 17.8-104.4 44.4-195.5 57.8-204.4 48.9-28.9-6.7-66.7-88.9-60-128.9 8.9-135.5 24.4-135.5 377.7 0 175.5-11.1 444.4-26.7 597.7-24.4 271.1-24.4 282.2 20 340l46.7 60-53.3 53.3c-113.3 113.3-111.1 113.3-128.9-693.3-17.8-835.5-17.8-842.1-171.1-879.9-111.1-26.7-995.4-57.8-1075.4-35.6-35.6 8.9-515.5 22.2-1066.5 28.9-548.8 6.7-1026.6 17.8-1057.7 26.7-33.3 6.7-66.7 2.2-73.3-11.1-20-31.1-20-9239-2.2-9270.1 8.9-13.3 8.9-57.8 2.2-100-28.9-148.9-55.5-151.1-1379.8-146.7-784.4 2.2-744.4 4.4-744.4-33.3 0-20-11.1-24.4-37.8-8.9-22.2 11.1-57.8 26.7-77.8 33.3-31.1 8.9-33.3 20-11.1 77.8 20 57.8 17.8 82.2-24.4 168.9-26.7 55.5-37.8 100-26.7 100 13.3 0 20 6.7 17.8 15.6-4.4 11.1 8.9 88.9 24.4 177.8 24.4 120 26.7 195.5 8.9 300-13.3 88.9-20 1348.7-13.3 3461.8 2.2 1826.5 4.4 3446.3 4.4 3599.6-2.2 153.3-2.2 337.7-2.2 411.1 2.2 186.6 44.4 688.8 68.9 822.1 11.1 62.2 22.2 157.8 22.2 213.3 2.2 151.1-28.9 160-542.2 153.3-231.1-2.2-702.1-8.9-1044.3-11.1-342.2-4.4-677.7-11.1-744.4-13.3-66.7-4.4-280 6.7-473.3 20-388.8 31.1-499.9 66.7-557.7 177.8-22.2 44.4-37.8 231.1-53.3 695.5-28.9 742.1-20 802.1 115.5 931 55.5 48.9 82.2 55.5 408.8 71.1 340 20 471.1 44.4 471.1 91.1 0 26.7 177.8 6.7 197.8-22.2 6.7-11.1 33.3-28.9 57.8-37.8 24.4-8.9 1019.9-15.6 2210.9-13.3s2290.9 4.4 2444.2 2.2c153.3 0 657.7 0 1122.1 2.2s933.2 2.2 1042.1 0c108.9-4.4 228.9 4.4 266.6 17.8 57.8 17.8 86.7 15.6 144.4-13.3 60-31.1 113.3-33.3 277.7-22.2 111.1 6.7 204.4 22.2 208.9 35.6 11.1 31.1 46.7 26.7 84.4-11.1 24.4-24.4 26.7-33.3 6.7-33.3-15.6 0-22.2-4.4-17.8-11.1 6.7-4.4 33.3-4.4 60 4.4 33.3 6.7 48.9 28.9 48.9 64.4 0 28.9 11.1 53.3 22.2 53.3 13.3 0 22.2 24.4 22.2 55.5s11.1 55.5 24.4 55.5c37.8 0 86.7 60 86.7 108.9 0 26.7-13.3 46.7-28.9 46.7-42.2 0-97.8 66.7-115.5 133.3-15.6 66.7-88.9 104.4-268.9 135.5-121.9 20.6-6658.9 51.7-6678.9 31.7z"/><path d="m10918.7 10878.6c-57.8-60-60-113.3-6.7-202.2 80-137.8 160-122.2 237.8 46.7 33.3 68.9 33.3 75.5-15.6 137.8-66.6 82.2-148.8 88.8-215.5 17.7z"/></g></svg>