<?xml version="1.0" encoding="UTF-8"?>
<svg width="120px" height="120px" viewBox="0 0 120 120" version="1.1" xmlns="http://www.w3.org/2000/svg" xmlns:xlink="http://www.w3.org/1999/xlink">
    <!-- Generator: Sketch 55.1 (78136) - https://sketchapp.com -->
    <title>twins</title>
    <desc>Created with Sketch.</desc>
    <g id="twins" stroke="none" stroke-width="1" fill="none" fill-rule="evenodd">
        <g id="logo" transform="translate(7.000000, 32.000000)" fill-rule="nonzero">
            <path d="M3.48414865,0 L33.7103689,0 C34.3775468,-3.45322765e-15 34.9986878,0.340142782 35.358035,0.902277812 L53,28.5 L36.4674899,54.362177 C35.8857806,55.2721579 34.6765269,55.5382746 33.766546,54.9565653 C33.5160515,54.7964356 33.3053652,54.5812992 33.1505054,54.3275129 L1.81483027,2.97416928 C1.25226547,2.0522302 1.54359588,0.84880202 2.46553497,0.286237216 C2.7723201,0.0990377361 3.12475922,1.3982864e-15 3.48414865,0 Z" id="Path" fill="#5CB54B"></path>
            <path d="M56.4841487,0 L86.7103689,0 C87.3775468,-3.45322765e-15 87.9986878,0.340142782 88.358035,0.902277812 L106,28.5 L89.4674899,54.362177 C88.8857806,55.2721579 87.6765269,55.5382746 86.766546,54.9565653 C86.5160515,54.7964356 86.3053652,54.5812992 86.1505054,54.3275129 L54.8148303,2.97416928 C54.2522655,2.0522302 54.5435959,0.84880202 55.465535,0.286237216 C55.7723201,0.0990377361 56.1247592,1.3982864e-15 56.4841487,0 Z" id="Path" fill="#E93F33" transform="translate(79.500000, 28.500000) scale(-1, 1) translate(-79.500000, -28.500000) "></path>
        </g>
    </g>
</svg>