<svg xmlns="http://www.w3.org/2000/svg" width="2000" height="1337.42" viewBox="0 0 2000 1337.42"><g fill="#ce0e2d"><path d="m1939.74 115.46l-136.33 0-70.59 0-56.01 0-264.63 0-305.66 0-24.97 0 0 24.98 0 107.65 0 47.33.09 0 0 262.76-.09 0 0 509.7.09 0 0 187.89 49.84-49.84 0-792.45 280.7 0 82.85 0 10.35 0 7.32-7.31 42.62-42.62-70.6 0-.02 0-72.52 0-280.7 0 0-65.53 280.7 0 26.24 0 111.84 0 70.59 0 55.96 0 24.36 0 73.96 0 31.98 0 10.33 0 7.33-7.31 42.6-42.62-70.59 0-21.65 0-98.32 0-6.05 0-70.57 0-188.01 0-18.82 0-261.88 0 0-82.7 261.88 0 18.82 0 264.63 0 6.07 0 70.58 0 21.67 0 104.35 0 70.59 0 7.31-7.31 42.62-42.62-60.26 0"/><path d="m1676.82 49.93l19.09 0 79.21 0 23.2 0 70.63 0 7.31-7.31 42.62-42.62-60.26 0-83.5 0-98.3 0-264.63 0-386.14 0-2.16 0-14.95 0-17.89 0-14.93 0-2.18 0-386.14 0-264.63 0-98.29 0-83.48 0-60.26 0 42.59 42.62 7.34 7.31 70.59 0 23.22 0 37.86 0 60.43 0 264.63 0 371.19 0 14.95 0 0 245.5.25 0 0 262.75-.25 0 0 509.7 0 92.13.25.25 0 80.75 0 51.59 0 19 1.93 1.93 23.89 23.89 23.88-23.89 1.99-2 0-18.93 0-51.67 0-80.75 0-92.3.17 0 0-509.7-.17 0 0-262.75.17 0 0-245.5 14.95 0 371.19 0 264.63 0"/><path d="m587.8 115.46l-264.61 0-56 0-4.43-4.45 0 4.45-66.17 0-136.33 0-60.26 0 42.62 42.62 7.31 7.31 70.59 0 104.35 0 21.66 0 70.59 0 6.07 0 170.32 0 94.29 0 280.72 0 0 82.7-280.72 0-94.29 0-93.7 0-70.59 0-6.03 0-98.32 0-21.65 0-70.61 0 42.64 42.62 7.31 7.31 10.31 0 32 0 98.32 0 51.51 0 4.45 0 70.61 0 138.04 0 49.68 0 231.04 0 0 65.53-280.72 0-72.5 0-.02 0-70.59 0 42.61 42.62 7.34 7.31 10.31 0 82.85 0 280.72 0 0 792.45 49.91 49.93 0-70.59 0-117.39 0-509.7 0-144.7 0-49.93 0-65.53 0-2.6 0-47.33 0-107.65 0-24.98-24.93 0-305.7 0"/></g></svg>