<?xml version="1.0" encoding="UTF-8" standalone="no"?>
<!-- Generator: Gravit.io -->
<svg xmlns="http://www.w3.org/2000/svg" xmlns:xlink="http://www.w3.org/1999/xlink" style="isolation:isolate" viewBox="0 0 64 64" width="64pt" height="64pt"><defs><clipPath id="_clipPath_VxVzdbj8bvNQQXUv56KqH7l9aXVrpKYr"><rect width="64" height="64"/></clipPath></defs><g clip-path="url(#_clipPath_VxVzdbj8bvNQQXUv56KqH7l9aXVrpKYr)"><circle vector-effect="non-scaling-stroke" cx="31.999999999999996" cy="31.999999999999996" r="31.999999999999996" fill="rgb(233,80,14)"/><path d=" M 8.359 30.702 C 8.359 26.995 11.369 23.985 15.077 23.985 C 18.784 23.985 21.794 26.995 21.794 30.702 C 21.794 34.41 18.784 37.42 15.077 37.42 C 11.369 37.42 8.359 34.41 8.359 30.702 Z  M 36.335 15.973 C 36.335 12.266 39.345 9.256 43.052 9.256 C 46.759 9.256 49.769 12.266 49.769 15.973 C 49.769 19.68 46.759 22.69 43.052 22.69 C 39.345 22.69 36.335 19.68 36.335 15.973 Z  M 30.227 47.99 C 25.419 46.973 21.323 43.849 19.071 39.482 C 17.273 40.298 15.269 40.544 13.327 40.187 C 16.054 46.93 21.955 51.876 29.071 53.382 C 30.639 53.718 32.238 53.883 33.841 53.873 C 32.608 52.256 31.919 50.29 31.874 48.257 C 31.321 48.196 30.769 48.106 30.227 47.99 Z  M 34.821 48.027 C 34.821 44.32 37.831 41.31 41.539 41.31 C 45.246 41.31 48.256 44.32 48.256 48.027 C 48.256 51.734 45.246 54.744 41.539 54.744 C 37.831 54.744 34.821 51.734 34.821 48.027 Z  M 50.886 45.56 C 56.793 38.108 57.237 27.702 51.987 19.774 C 51.211 21.601 49.893 23.145 48.21 24.198 C 50.944 29.36 50.739 35.584 47.672 40.555 C 49.244 41.843 50.369 43.594 50.886 45.56 Z  M 14.558 21.069 Q 14.814 21.055 15.07 21.055 C 16.87 21.056 18.634 21.559 20.164 22.506 C 23.169 18.167 28.079 15.54 33.356 15.451 C 33.464 13.47 34.175 11.569 35.394 10.003 C 26.895 9.361 18.786 13.668 14.558 21.069 L 14.558 21.069 Z " fill-rule="evenodd" fill="rgb(255,255,255)"/></g></svg>