<svg enable-background="new 0 0 1484 2155.2" viewBox="0 0 1484 2155.2" xmlns="http://www.w3.org/2000/svg"><path d="m659.9 1002h200v200h-200z" fill="#fff"/><path d="m2825.5 3161.1c-1388.9 0-2777.8 0-4167 0 0-1388.8 0-2777.6 0-4167h4167zm-1875.9-3110.3c-7 1-11.1 6.7-16.1 10.8-48 40.4-93.3 83.6-136.7 128.9-84.7 88.3-160.9 183.2-224.3 288.2-46.7 77.3-85.1 158.3-111.2 245-21.1 69.9-33.5 141.2-33.9 214.3-.1 22.6 1.9 45.2 3.1 67.8 2.5 45.7 13.5 89.3 32.3 131.1 27.6 61.2 63.5 117 105.2 169.3 58.1 72.8 124.6 137.1 197.1 195.2 36.9 29.6 75.3 57.3 113 85.9 50.6 38.4 98.1 80 139.5 128.4 25.6 30 48.2 62 65.8 97.5 22 44.3 34.4 90.8 31.8 140.7-.2 3.7.2 7.5.3 11.8 8.4 0 13.7-4.5 19.3-7.7 46.5-26.5 89.4-58.1 128.4-94.8 85.5-80.4 149.6-174.9 187.2-286.5 28.8-85.6 37.2-173 21.1-262.1-16.3-90.5-55.8-170.4-114-241.3-2.4-2.9-5.3-5.5-10-10.4 0 9.2 3.2 14.4 5 19.7 20.5 59.8 31.6 121.1 29.8 184.4-.4 14-1.9 27.9-3.5 41.8-4.5 40-15.7 78.3-32.5 114.8-1.5 3.3-4.1 6.1-8.8 13 .5-8.5.6-12.4.9-16.2 1.9-21.9 5.3-43.7 5.6-65.6.8-48.2-6.1-95.7-17.5-142.4-32.7-133.9-92.8-255.3-174.1-365.7-96.9-131.6-169.1-274-201.9-435-11.3-55.5-18.7-111.6-18.3-168.5.1-14 0-28 .1-42 .3-42.8 6-84.9 14.1-126.8 1.4-7.2 2.9-14.3 4.2-21.5.2-.6-.5-1.2-1-2.1zm54.3 2007.2c7.4-27.4 7.3-53.9 3.4-80.4-4.8-32-16.4-61.7-31.9-89.9-15.7-28.8-34.8-55.2-56.2-80-38.4-44.7-82.2-83.6-129-119.1-25.5-19.3-51.6-37.8-77-57.2-85-64.8-164.1-136.1-232.6-218.5-48.4-58.1-90.4-120.3-121.3-189.6-13-29.2-24-59.3-30.4-90.7-13.6-66.4-15.3-133.4-9-200.8 5.5-59.4 18.6-116.9 40.4-172.4.9-2.3 1.4-4.7 3.1-10.7-6.5 6.4-10.2 10.1-13.9 13.9-47 48.3-91.2 98.9-132.3 152.4-50 65.1-95.3 133.3-131.2 207.4-55.7 115-81.7 235.9-71.9 364 4.7 61.6 18 121 39.4 178.8 33.7 90.5 85.3 169.8 149 241.9 49.6 56.2 108.2 100.5 175.1 133.9 95.6 47.7 197.1 72.3 303.7 76.3 77 2.9 153-3.7 227.5-24.5 32.1-9.2 63.6-19.8 95.1-34.8z" fill="none" stroke="#fff" stroke-miterlimit="10"/><path d="m1003.9 2058c-31.5 15-63 25.6-95.1 34.6-74.5 20.8-150.5 27.4-227.5 24.5-106.6-4-208.1-28.6-303.7-76.3-66.9-33.4-125.5-77.7-175.1-133.9-63.7-72.1-115.3-151.4-149-241.9-21.5-57.8-34.7-117.2-39.4-178.8-9.8-128.1 16.2-248.9 71.9-364 35.8-74.1 81.2-142.2 131.2-207.4 41-53.5 85.3-104.1 132.3-152.4 3.7-3.8 7.4-7.4 13.9-13.9-1.7 6-2.2 8.4-3.1 10.7-21.8 55.5-34.8 113-40.4 172.4-6.3 67.4-4.5 134.4 9 200.8 6.4 31.4 17.3 61.5 30.4 90.7 30.9 69.3 72.9 131.5 121.3 189.6 68.5 82.4 147.6 153.7 232.6 218.5 25.4 19.4 51.6 37.8 77 57.2 46.8 35.6 90.6 74.5 129 119.1 21.3 24.8 40.5 51.2 56.2 80 15.4 28.3 27.1 58 31.9 89.9 3.9 26.7 4 53.2-3.4 80.6z" fill="#ff2400"/><path d="m949.6 50.8c.5.8 1.2 1.5 1.1 2-1.4 7.2-2.8 14.3-4.2 21.5-8.1 41.9-13.8 84.1-14.1 126.8-.1 14 0 28-.1 42-.4 56.9 7 113 18.3 168.5 32.8 160.9 105 303.4 201.9 435 81.3 110.4 141.4 231.8 174.1 365.7 11.4 46.7 18.3 94.2 17.5 142.4-.3 21.9-3.7 43.7-5.6 65.6-.3 3.8-.4 7.7-.9 16.2 4.7-6.8 7.3-9.7 8.8-13 16.8-36.6 27.9-74.8 32.5-114.8 1.6-13.9 3.1-27.8 3.5-41.8 1.9-63.3-9.3-124.6-29.8-184.4-1.8-5.4-5-10.6-5-19.7 4.7 4.9 7.6 7.5 10 10.4 58.2 70.9 97.7 150.8 114 241.3 16.1 89.1 7.7 176.6-21.1 262.1-37.6 111.7-101.8 206.1-187.2 286.5-39 36.7-81.8 68.3-128.4 94.8-5.6 3.2-10.8 7.7-19.3 7.7-.1-4.3-.5-8-.3-11.8 2.5-49.9-9.8-96.3-31.8-140.7-17.6-35.5-40.2-67.5-65.8-97.5-41.4-48.4-88.9-90-139.5-128.4-37.7-28.6-76.1-56.3-113-85.9-72.5-58.1-139-122.4-197.1-195.2-41.7-52.3-77.7-108.2-105.2-169.3-18.9-41.8-29.8-85.4-32.3-131.1-1.2-22.6-3.2-45.2-3.1-67.8.3-73.1 12.8-144.4 33.9-214.3 26.1-86.6 64.6-167.7 111.2-245 63.4-104.9 139.6-199.8 224.3-288.2 43.4-45.3 88.7-88.5 136.7-128.9 4.8-4 8.9-9.6 16-10.7z" fill="#ea5422"/></svg>