<svg xmlns="http://www.w3.org/2000/svg" xmlns:xlink="http://www.w3.org/1999/xlink" width="2000" height="2241.9" viewBox="0 0 2000 2241.9"><defs><linearGradient id="1" x1="304.4" y1="1056.9" x2="847.4" y2="2632.4" xlink:href="#0"/><linearGradient id="2" x1="1204" y1="1528.7" x2="634.5" y2="1692" gradientUnits="userSpaceOnUse"><stop stop-color="#2da367"/><stop offset="1" stop-color="#0f3154"/></linearGradient><linearGradient id="0" x1="1695.6" y1="1056.9" x2="1152.6" y2="2632.4" gradientUnits="userSpaceOnUse"><stop stop-color="#2da367"/><stop offset="1" stop-color="#103655"/></linearGradient><radialGradient id="3" cx="-500" cy="2608.1" r="1.02" gradientTransform="matrix(2.49 700.39 699.69-2.48-1822608.5 357295)" gradientUnits="userSpaceOnUse"><stop stop-color="#3acb71"/><stop offset=".51" stop-color="#30a86a"/><stop offset="1" stop-color="#113755"/></radialGradient></defs><g fill-rule="evenodd"><path d="m1857.3 0l-808.2 2241s952.2-1255.4 951-1442.9c1.25-189.5-142.7-798.1-142.7-798.1" fill="url(#0)"/><path d="M142.72,0,951,2241S-1.28,985.56,0,798.13C-1.25,608.68,142.72,0,142.72,0Z" fill="url(#1)"/><path d="m1404.8 1076.4c-119.9 61.2-258.1 95.4-404.3 95.4s-284.3-34.2-404.3-95.4l404.3 1165.5" fill="url(#2)"/></g><path d="m436.3 616.7h.52c150.8 123.7 348 198.4 563.7 198.4s412.9-74.7 563.7-198.4h.52l-159.6 459.6c-120.5 60.8-258.4 95.3-404.6 95.3s-284.2-34.53-404.6-95.3" fill="url(#3)"/></svg>