<?xml version="1.0" encoding="UTF-8" standalone="no"?>
<!-- Generator: Gravit.io -->
<svg xmlns="http://www.w3.org/2000/svg" xmlns:xlink="http://www.w3.org/1999/xlink" style="isolation:isolate"
  viewBox="0 0 64 64" width="64pt" height="64pt">
  <defs>
    <clipPath id="_clipPath_4sOjiU2NgyYUh4JYWMv1LNoCzsS6gJx3">
      <rect width="64" height="64" />
    </clipPath>
  </defs>
  <g clip-path="url(#_clipPath_4sOjiU2NgyYUh4JYWMv1LNoCzsS6gJx3)">
    <path
      d=" M 64 9.454 L 58.182 19.636 L 56.528 22.546 L 52.6 22.546 L 47.59 32.018 C 47.858 33.182 48 34.392 48 35.636 C 48 42.414 43.782 48.204 37.836 50.538 C 37.654 50.61 37.472 50.676 37.29 50.738 L 32 60.364 L 26.71 50.738 C 26.528 50.676 26.346 50.61 26.17 50.542 C 20.218 48.182 16 42.4 16 35.636 C 16 34.39 16.146 33.174 16.41 32.01 L 11.43 22.546 L 7.502 22.546 L 5.818 19.636 L 0 9.454 L 16.728 9.454 L 19.454 14.862 L 19.592 14.952 C 19.592 14.924 19.644 14.89 19.648 14.862 C 20.218 8.57 25.528 3.636 31.974 3.636 C 38.422 3.636 43.73 8.57 44.302 14.872 C 44.302 14.898 44.222 14.93 44.222 14.96 L 44.186 14.872 L 47.272 9.454 L 64 9.454 Z "
      fill="none" />
    <path
      d=" M 53.626 19.272 L 52.07 22.546 L 56.506 22.546 L 56.724 22.174 L 58.36 19.272 L 53.596 19.272 L 53.626 19.272 Z  M 10.29 19.272 L 5.618 19.272 L 7.502 22.546 L 11.872 22.546 L 10.298 19.272 L 10.29 19.272 Z "
      fill="rgb(158,158,158)" />
    <path
      d=" M 64 9.454 L 58.182 19.636 L 54.11 19.636 L 47.59 32.018 L 32 60.364 L 16.41 32.01 L 9.89 19.636 L 5.818 19.636 L 0 9.454 L 16.728 9.454 L 19.454 14.862 L 28.328 31.044 L 31.952 37.69 L 35.458 31.044 L 44.186 14.872 L 47.272 9.454"
      fill="rgb(66,66,66)" />
    <path
      d=" M 16.93 9.818 L 0.204 9.818 L 0 9.454 L 16.728 9.454 L 16.93 9.818 Z  M 47.272 9.454 L 47.072 9.818 L 63.792 9.818 L 64 9.454 L 47.272 9.454 L 47.272 9.454 Z "
      fill="rgb(255,255,255)" fill-opacity="0.2" />
    <path
      d=" M 56.742 22.174 L 56.53 22.546 L 52.582 22.546 L 47.59 32.018 L 32 60.364 L 16.41 32.01 L 11.43 22.546 L 7.476 22.546 L 7.272 22.182 L 11.43 22.182 L 11.622 22.546 L 16.41 31.648 L 32 60 L 47.59 31.654 L 52.39 22.546 L 52.586 22.174"
      fill="rgb(38,50,56)" fill-opacity="0.2" />
    <path
      d=" M 64 9.454 L 58.182 19.636 L 56.528 22.546 L 52.6 22.546 L 47.59 32.018 C 47.858 33.182 48 34.392 48 35.636 C 48 42.414 43.782 48.204 37.836 50.538 C 37.654 50.61 37.472 50.676 37.29 50.738 L 32 60.364 L 26.71 50.738 C 26.528 50.676 26.346 50.61 26.17 50.542 C 20.218 48.182 16 42.4 16 35.636 C 16 34.39 16.146 33.174 16.41 32.01 L 11.43 22.546 L 7.502 22.546 L 5.818 19.636 L 0 9.454 L 16.728 9.454 L 19.454 14.862 L 19.592 14.952 C 19.592 14.924 19.644 14.89 19.648 14.862 C 20.218 8.57 25.528 3.636 31.974 3.636 C 38.422 3.636 43.73 8.57 44.302 14.872 C 44.302 14.898 44.222 14.93 44.222 14.96 L 44.186 14.872 L 47.272 9.454 L 64 9.454 Z "
      fill="none" />
    <path
      d=" M 38.182 35.636 C 38.182 39.054 35.418 41.818 32 41.818 C 28.592 41.818 25.818 39.054 25.818 35.636 C 25.818 32.218 28.592 29.454 32 29.454 C 35.418 29.454 38.182 32.218 38.182 35.636 Z  M 37.454 16.728 C 37.454 19.738 35.01 22.182 32 22.182 C 28.992 22.182 26.546 19.738 26.546 16.728 C 26.546 13.716 28.992 11.272 32 11.272 C 35.01 11.272 37.454 13.716 37.454 16.728 Z "
      fill="rgb(255,255,255)" />
    <path
      d=" M 47.59 32.018 C 46.77 28.484 44.79 25.4 42.062 23.192 C 43.506 21.164 44.364 18.684 44.364 16 C 44.364 15.618 44.346 15.244 44.31 14.872 C 43.746 8.568 38.448 3.636 32 3.636 C 25.552 3.636 20.262 8.568 19.69 14.862 C 19.654 15.236 19.636 15.618 19.636 16 C 19.636 18.684 20.49 21.164 21.942 23.192 C 19.214 25.4 17.23 28.48 16.414 32.01 C 16.142 33.174 16 34.39 16 35.636 C 16 42.414 20.218 48.21 26.17 50.546 C 27.974 51.248 29.942 51.636 32 51.636 C 34.058 51.636 36.03 51.248 37.836 50.538 C 43.782 48.204 48 42.414 48 35.636 C 48 34.392 47.854 33.182 47.59 32.018 Z  M 32 11.636 C 34.81 11.636 37.09 13.916 37.09 16.728 C 37.09 19.538 34.81 21.818 32 21.818 C 29.192 21.818 26.91 19.538 26.91 16.728 C 26.91 13.916 29.192 11.636 32 11.636 Z  M 32 41.454 C 28.792 41.454 26.182 38.85 26.182 35.636 C 26.182 33.77 27.062 32.11 28.43 31.044 C 29.41 30.28 30.654 29.818 32 29.818 C 33.346 29.818 34.59 30.276 35.574 31.044 C 36.946 32.11 37.818 33.77 37.818 35.636 C 37.818 38.85 35.214 41.454 32 41.454 Z "
      fill="rgb(66,133,244)" />
    <path
      d=" M 44.364 16 L 44.364 16.182 C 44.262 9.436 38.764 4 32 4 C 25.236 4 19.734 9.436 19.636 16.182 L 19.636 16 C 19.636 9.17 25.17 3.636 32 3.636 C 38.83 3.636 44.364 9.17 44.364 16 Z  M 21.782 23.328 C 18.254 26.254 16 30.684 16 35.636 L 16 35.818 C 16.054 30.866 18.364 26.454 21.942 23.556 L 22.11 23.422 L 21.942 23.204 L 21.782 23.35 L 21.782 23.328 Z  M 42.218 23.328 L 42.058 23.192 L 41.89 23.422 L 42.058 23.568 C 45.64 26.476 47.95 30.876 48 35.822 L 48 35.64 C 48 30.694 45.746 26.258 42.218 23.35 L 42.218 23.328 Z "
      fill="rgb(255,255,255)" fill-opacity="0.2" />
    <path
      d=" M 48 35.454 L 48 35.636 C 48 44.472 40.836 51.636 32 51.636 C 23.164 51.636 16 44.472 16 35.636 L 16 35.454 C 16.098 44.208 23.226 51.272 32 51.272 C 40.774 51.272 47.902 44.208 48 35.454 Z  M 19.636 15.818 L 19.636 16 C 19.636 18.786 20.556 21.356 22.11 23.418 C 22.168 23.382 22.226 23.33 22.29 23.288 C 20.662 21.226 19.68 18.632 19.636 15.818 Z  M 44.364 15.818 C 44.32 18.636 43.338 21.226 41.71 23.288 C 41.774 23.33 41.832 23.378 41.89 23.422 C 43.444 21.386 44.364 18.804 44.364 16.004 L 44.364 15.822 L 44.364 15.818 Z "
      fill="rgb(38,50,56)" fill-opacity="0.2" />
    <radialGradient id="_rgradient_1" fx="10.25" fy="33.75" cx="10.25" cy="33.75" r="1"
      gradientTransform="matrix(64,0,0,56.728,0,3.636)" gradientUnits="userSpaceOnUse">
      <stop offset="0%" stop-opacity="0.1" style="stop-color:rgb(255,255,255)" />
      <stop offset="100%" stop-opacity="0" style="stop-color:rgb(255,255,255)" />
    </radialGradient>
    <path
      d=" M 64 9.454 L 58.182 19.636 L 56.528 22.546 L 52.582 22.546 L 47.59 32.018 C 47.858 33.182 48 34.392 48 35.636 C 48 42.414 43.782 48.204 37.836 50.538 C 37.654 50.61 37.472 50.676 37.29 50.738 L 32 60.364 L 26.71 50.738 C 26.528 50.676 26.346 50.61 26.17 50.542 C 20.218 48.182 16 42.4 16 35.636 C 16 34.39 16.146 33.174 16.41 32.01 L 11.43 22.546 L 7.502 22.546 L 5.818 19.636 L 0 9.454 L 16.728 9.454 L 19.454 14.862 L 19.592 14.952 C 19.592 14.924 19.644 14.89 19.648 14.862 C 20.218 8.57 25.528 3.636 31.974 3.636 C 38.422 3.636 43.73 8.57 44.302 14.872 C 44.302 14.898 44.222 14.93 44.222 14.96 L 44.186 14.872 L 47.272 9.454 L 64 9.454 Z "
      fill="url(#_rgradient_1)" />
  </g>
</svg>