<svg xmlns="http://www.w3.org/2000/svg" width="512pt" height="512pt" style="isolation:isolate" viewBox="0 0 512 512"><defs><clipPath id="a"><path d="M0 0h512v512H0z"/></clipPath></defs><g clip-path="url(#a)"><path fill="#1159CC" d="m435.84 0 67.403 39.424-112.395 65.365-.001.078 112.396-65.443v46.848L352.32 456.363l-96.363 55.63V512l-.006-.005-.004.005-.001-.007-95.434-55.204L8.757 87.723V39.424L76.171 0l112.48 65.963-.385.22.299.121v44.544l67.392 157.611v52.656l.011-.006v-52.65l67.477-157.611V65.877h.086L435.84 0ZM147.02 89.913l-25.857 14.876-.001.078 25.858-14.954Z"/><path fill="#127EFF" d="M435.84 0 323.531 65.877h-.086v44.971l-67.477 157.611v52.65l-44.907 26.112-89.898-202.752v-39.68l67.488-38.826L76.171 0 8.757 39.424v48.299l151.755 369.066L255.957 512V373.333l44.992-26.112-.597-.341 90.496-202.411v-39.68l112.395-65.365L435.84 0Z"/></g></svg>