<?xml version="1.0" encoding="UTF-8" standalone="no"?>
<!-- Generator: Gravit.io -->
<svg xmlns="http://www.w3.org/2000/svg" xmlns:xlink="http://www.w3.org/1999/xlink" style="isolation:isolate" viewBox="0 0 64 64" width="64pt" height="64pt"><defs><clipPath id="_clipPath_hfrVoBZh0T4HLlcw8nU50Q5rU2VsyiBI"><rect width="64" height="64"/></clipPath></defs><g clip-path="url(#_clipPath_hfrVoBZh0T4HLlcw8nU50Q5rU2VsyiBI)"><path d=" M 0 0.97 L 31.89 63.03 L 64 0.97 L 0 0.97 Z  M 26.89 25.61 L 21.89 25.61 L 21.89 20.53 L 26.89 20.53 L 26.89 25.61 Z  M 26.89 17.99 L 21.89 17.99 L 21.89 12.91 L 26.89 12.91 L 26.89 17.99 Z  M 34.51 33.23 L 29.46 33.23 L 29.46 28.17 L 34.54 28.17 L 34.51 33.23 Z  M 34.51 25.61 L 29.46 25.61 L 29.46 20.53 L 34.54 20.53 L 34.51 25.61 Z  M 34.51 17.99 L 29.46 17.99 L 29.46 12.91 L 34.54 12.91 L 34.51 17.99 Z  M 42.09 25.61 L 37.04 25.61 L 37.04 20.53 L 42.12 20.53 L 42.09 25.61 Z  M 37.01 17.99 L 37.01 12.91 L 42.09 12.91 L 42.09 17.99 L 37.01 17.99 Z " fill="rgb(255,216,20)"/></g></svg>