<svg xmlns="http://www.w3.org/2000/svg" width="1000" height="638" viewBox="0 0 1000 638"><g transform="translate(0-181)"><path d="M497.45,385.16,334.18,181H53.57C17.86,186.1,0,211.62,0,239.7c0,5.1,2.55,12.76,5.1,20.41L303.57,632.7Z" fill="#3251df"/><path d="M497.45,385.16,301,630.15l135.2,168.43C454.08,811.34,474.49,819,497.45,819s45.92-10.21,63.77-23L693.88,630.15Z" fill="#3a1f54"/><path d="m579.08 181h-244.9l163.27 204.16 148-183.74c-17.9-12.76-40.86-20.42-66.37-20.42" fill="#b15ee6"/><path d="M811.22,400.47,681.12,237.14c-12.75-15.31-23-28.07-35.71-35.72l-148,183.74L693.88,632.7,824,469.38C836.73,436.2,813.78,403,811.22,400.47Z" fill="#ab0354"/><path d="m1000 234.59c0-33.17-30.61-48.49-56.12-53.59h-237.25c12.76 2.55 23 15.31 30.61 25.52l119.9 150.57a121.65 121.65 0 0 1 20.41 40.83l119.9-150.57c2.55-2.55 2.55-7.65 2.55-12.76" fill="#ff505d"/></g></svg>