<svg xmlns="http://www.w3.org/2000/svg" width="189.707" height="24.124"><path d="M503.864 175.987c-.335.19-2.731 2.222-7.5 2.222-4.018.002-8.308-2.057-9.655-2.017a2.553 2.553 0 0 0-1.153.208c-.562.236-1.108-.109-.803-.686a7.704 7.704 0 0 1 4.548-3.742c1.24-.373 2.37-.5 2.958.153 1.29 1.432 3.622 3.201 5.89 3.434.182.018 1.006.087 1.015-.145.009-.143-.271-.235-.555-.257-2.316-.167-6.49-2.646-8.784-7.446-.861-1.801-1.545-3.547-3.044-4.307-.332-.16-.342-.774.355-.94.49-.117 3.57-.413 7.094 1.442 1.618.851 1.844 1.615 1.849 2.281-.014 5.03 2.531 7.027 3.515 7.617.547.327 1.06.467 1.115.296.044-.144-.1-.241-.226-.318-3.052-1.852-3.858-4.702-3.882-7.603-.022-2.87 1.04-5.354 1.794-7.39.111-.287.469-1.5.165-2.622-.227-.837-.042-1.081.398-1.081.483 0 1.127.783 1.343 1.051.174.202.735.887 1.585 2.565 1.682 3.324 1.693 6.797 1.693 7.222 0 2.386-.615 2.662-1.618 3.157-1 .495-1.477 1.133-1.478 1.873-.002.76.527 1.55 1.478 1.83.737.215 1.204.133 1.165-.058-.03-.151-.356-.189-.45-.215-1.005-.272-1.67-.786-1.67-1.557 0-.963 1.187-1.67 2.855-1.67 1.67 0 2.857.707 2.857 1.67 0 .77-.664 1.286-1.668 1.557-.095.026-.421.064-.451.215-.039.193.429.274 1.166.058.95-.278 1.479-1.07 1.478-1.83-.001-.74-.478-1.378-1.478-1.873-1.002-.495-1.619-.771-1.619-3.156 0-.425.013-3.899 1.693-7.223.85-1.677 1.411-2.363 1.585-2.565.216-.268.86-1.051 1.344-1.051.44 0 .625.244.397 1.081-.301 1.123.054 2.335.164 2.623.755 2.037 1.819 4.519 1.796 7.389-.025 2.902-.83 5.752-3.881 7.605-.125.075-.273.172-.226.316.053.172.566.033 1.113-.295.985-.59 3.53-2.588 3.517-7.618.004-.666.23-1.43 1.848-2.281 3.524-1.855 6.605-1.557 7.093-1.442.697.166.689.78.356.94-1.5.76-2.184 2.507-3.044 4.307-2.293 4.8-6.468 7.28-8.785 7.448-.283.02-.565.113-.555.256.01.231.833.162 1.015.144 2.268-.232 4.6-2 5.89-3.434.59-.651 1.72-.526 2.96-.151a7.696 7.696 0 0 1 4.547 3.74c.306.578-.24.922-.804.687a2.57 2.57 0 0 0-1.153-.209c-1.346-.039-5.636 2.019-9.656 2.018-4.767 0-7.162-2.033-7.496-2.223" style="fill:#d99e09;fill-opacity:1;fill-rule:nonzero;stroke:none" transform="translate(-484.165 -154.586)"/><path d="M625.91 168.587c0-.821.881-1.257 1.848-1.257 1.65 0 1.464 1.314 2.642 1.314.535 0 .861-.305.861-.83 0-.908-1.206-1.51-3.081-1.572-1.795-.057-2.728.259-3.37.51-.722.283-1.04.693-1.04 1.335v8.909c0 .47.227.47 1.071.47.839 0 1.069 0 1.069-.47v-8.409zm-54.148 1.584c.005-3.382-2.944-3.917-5.081-3.917-1.725 0-3.274.436-4.001.757-.719.319-.78.716-.78 1.373l.005 8.622c0 .469.23.469 1.07.469.842 0 1.071 0 1.071-.469l-.005-7.96c0-.704.25-1.674 2.691-1.674 2.309 0 2.886 1.365 2.886 2.799l.004 6.835c0 .469.232.469 1.068.469.844 0 1.072 0 1.072-.469v-6.835zm47.814 6.82c0 .469.231.469 1.066.469.841 0 1.071 0 1.071-.469l.01-10.152c.008-.747-1.02-.56-1.543-.217-.588.382-.606.574-.606 1.314l.003 9.055zM608.247 171c.316-.808 2.349-6.123 2.456-6.423.032-.085.12-.085.153.002.145.373 2.197 5.595 2.501 6.404.068.176.091.321-.142.321h-4.795c-.295 0-.224-.177-.173-.305m5.913 1.962c.728 1.73 1.732 4.14 1.732 4.14.126.307.013.382 1.278.382 1.34 0 1.421-.042 1.157-.639-.071-.161-5.394-12.945-5.689-13.642-.296-.699-.423-.75-1.53-.75-1.097 0-1.24.029-1.543.75-.31.734-5.652 13.574-5.718 13.735-.225.546-.024.546.884.546.85 0 .949-.026 1.11-.389l1.647-4.122c.1-.25.132-.35.424-.35 1.128 0 4.34 0 5.823-.005.283-.001.313.08.425.344m7.727-9.745c-.119-.56-.741-.9-1.456-.748-.716.15-1.144.711-1.025 1.269.12.557.741.897 1.457.746.717-.15 1.144-.711 1.024-1.267m10.07 13.786c0 .47.23.47 1.066.47.84 0 1.072 0 1.072-.47l.009-14.554c.009-.745-1.02-.557-1.544-.215-.585.383-.605.573-.605 1.313l.002 13.456zm6.839-13.783c-.12-.557-.74-.897-1.456-.746-.717.15-1.145.711-1.025 1.269.118.557.741.897 1.456.747.716-.151 1.145-.712 1.025-1.27m-2.311 13.777c0 .468.231.468 1.066.468.84 0 1.071 0 1.071-.468l.01-10.153c.008-.746-1.02-.559-1.546-.216-.585.381-.604.572-.604 1.314l.002 9.055zm14.33-6.815c.006-3.383-2.943-3.918-5.08-3.918-1.727 0-3.275.436-4.003.758-.719.317-.78.716-.78 1.372l.006 8.623c0 .467.231.467 1.069.467.842 0 1.071 0 1.071-.467l-.002-7.96c0-.703.249-1.674 2.689-1.674 2.307 0 2.886 1.365 2.886 2.799l.005 6.835c0 .467.229.467 1.066.467.845 0 1.073 0 1.073-.467v-6.835zm22.556 4.297c-.084-3.747-7.08-3.06-7.083-5.672 0-1.022 1.05-1.493 2.188-1.493 1.639 0 2.181.548 2.524 1.345.16.373.483.714 1.108.714.472 0 .87-.3.87-.851 0-.83-1.153-2.29-4.3-2.31-2.607-.018-4.372.976-4.375 3.035-.003 3.856 7.002 3.033 6.99 5.708-.005 1.105-1.035 1.617-2.53 1.632-1.49.016-2.288-.59-2.72-1.635-.21-.425-.487-.808-1.136-.797-.586.01-.934.387-.934.959 0 .786 1.368 2.613 4.692 2.613 2.722 0 4.753-1.098 4.706-3.248m-134.648 2.518c0 .468.232.468 1.067.468.84 0 1.072 0 1.072-.468l.007-10.153c.01-.746-1.019-.559-1.542-.216-.588.381-.605.572-.605 1.314v9.055zm39.617.73c1.783.012 2.688-.307 3.76-.797.802-.38.802-.805.802-1.297v-6.119c0-2.331-1.937-3.3-4.159-3.296-3.625.009-5.067 1.564-5.125 2.571-.03.536.29.929.914.943a1.17 1.17 0 0 0 1.115-.72c.445-1.042 1.213-1.687 2.795-1.687 1.24 0 2.349.569 2.344 2.043v.65c0 .199 0 .24-.174.261-3.264.523-7.504 1.549-7.504 4.548 0 1.865 2.237 2.897 5.232 2.9m2.448-2.598c0 1.131-1.472 1.43-2.56 1.43-1.923 0-2.878-.821-2.878-1.905 0-1.975 2.55-2.687 5.208-3.246.142-.03.228-.045.228.156l.003 3.565zm-39.752-11.909c-.12-.557-.741-.897-1.458-.746-.715.15-1.143.711-1.025 1.269.12.557.743.897 1.46.747.714-.151 1.143-.712 1.023-1.27m57.751 13.795c0 .469.229.465 1.07.468.838 0 1.069 0 1.069-.468v-7.257c0-2.886-2.709-3.484-4.313-3.484-1.873 0-2.94.536-3.668 1.343-.78-.848-1.82-1.343-3.642-1.343-1.256 0-2.48.301-3.577.788-.793.35-.793.817-.793 1.27v8.683c0 .469.234.469 1.07.469.838 0 1.07 0 1.07-.469l.002-8.088c0-1.207.968-1.538 2.236-1.538 1.58 0 2.548.743 2.548 2.606v7.02c0 .469.231.469 1.071.469.839 0 1.066 0 1.066-.469v-7.158c0-1.42.743-2.475 2.445-2.475 1.653 0 2.358 1.078 2.358 2.507l-.011 7.126zm-53.814-6.858c.19-1.335 1.21-2.814 3.223-2.83 1.686-.014 3.166 1.01 3.244 2.518.021.434-.093.488-.61.488h-5.693c-.159 0-.179-.071-.164-.176m8.595 4.022c0-.192-.147-.386-.418-.386-.247 0-.37.087-.518.344-.567.96-1.957 2.087-3.807 2.106-2.5.024-3.942-1.773-3.88-4.548 0-.095.04-.176.185-.18a1644.5 1644.5 0 0 1 7.71.001c.727.001.74-.482.74-.88 0-2.298-2.142-4.421-5.212-4.421-3.187 0-5.635 1.739-5.635 5.738 0 4.255 3.18 5.765 5.892 5.765 3.276 0 4.943-2.534 4.943-3.54m100.887-4.022c.19-1.335 1.21-2.813 3.222-2.83 1.686-.014 3.166 1.012 3.244 2.519.022.434-.091.488-.609.488h-5.692c-.16 0-.18-.072-.165-.177m8.595 4.023c0-.193-.148-.386-.419-.386-.246 0-.369.087-.518.343-.566.962-1.958 2.088-3.807 2.107-2.499.023-3.941-1.773-3.879-4.548 0-.095.041-.176.184-.18.145-.004 3.911-.006 7.71.001.729.001.74-.482.74-.88 0-2.299-2.141-4.421-5.211-4.421-3.187 0-5.635 1.739-5.635 5.737 0 4.255 3.181 5.765 5.89 5.765 3.277 0 4.945-2.533 4.945-3.538M529.5 176.73c.292.699.36.753 1.475.753 1.074 0 1.097-.043 1.41-.76.312-.717 4.385-10.96 5.467-13.64.24-.594.137-.644-.823-.644-.842 0-.919.049-1.079.411 0 0-4.565 11.674-4.664 11.943-.024.076-.121.082-.162-.01-.147-.33-4.782-11.967-4.782-11.967-.11-.297-.14-.405-1.393-.405-1.363 0-1.273.131-1.002.803.067.16 5.26 12.816 5.553 13.516m26.135-10.326c-.501.008-1.183 0-1.183 0-.338 0-.34.187-.34.568 0 .363 0 .553.34.553h1.183c.244-.001.251.026.249.28-.005.535 0 6.986 0 6.986 0 2.544 1.361 2.847 2.706 2.869 1.331.018 2.205-.375 2.189-.845-.01-.273-.189-.395-.499-.36-.218.025-.37.09-.661.09-.707 0-1.593-.19-1.593-1.737v-6.98c-.003-.27 0-.305.268-.303h1.927c.337 0 .35-.19.35-.553 0-.375-.013-.569-.35-.569h-1.937c-.261 0-.256-.026-.258-.25v-2.35c0-.377-.287-.51-.517-.49-.169.014-.369.123-.844.433-.62.406-.781.665-.781 1.405v.984c-.001.27-.011.265-.249.268" style="fill:#005e80;fill-opacity:1;fill-rule:nonzero;stroke:none" transform="translate(-484.165 -154.586)"/></svg>