<svg xmlns="http://www.w3.org/2000/svg" width="191.596" height="250.312" viewBox="0 0 191.596 250.312">
  <g id="Group_16516" data-name="Group 16516" transform="translate(-258.38 -7709.487)">
    <path id="Path_40401" data-name="Path 40401" d="M24.624-52.668H36.48L26.448,0H10.564L.38-52.668H12.008q4.408,25.156,5.092,30.4T18.62-9.88q1.444-13.6,2.508-20.368Zm35.34,13.452q0-3.8-4.522-3.8t-4.522,3.8v25.764q0,3.8,4.522,3.8t4.522-3.8ZM39.52-39.824a12.786,12.786,0,0,1,4.028-9.918q4.028-3.686,11.856-3.686T67.3-49.742a12.726,12.726,0,0,1,4.066,9.918v26.98A12.726,12.726,0,0,1,67.3-2.926Q63.232.76,55.4.76T43.548-2.926a12.786,12.786,0,0,1-4.028-9.918ZM96.9-52.668h12.312L97.888-26.22,109.212,0H96.824L91.96-14.364,86.792,0H74.4L85.652-26.22,74.4-52.668H86.716L91.96-38.152Zm16.112,0h11.552V0H113.012Zm18.392,0H158.08v9.88H142.8v11.172h13.224v9.88H142.8V-9.88H158.08V0H131.4Zm30.1,12.312q0-6.08,4.1-9.386t11.818-3.306q7.714,0,11.514,1.6v10.944a26.72,26.72,0,0,0-10.564-1.976q-3.04,0-4.1.95a3.428,3.428,0,0,0-1.064,2.7v1.14a5.525,5.525,0,0,0,.722,3.154,9.334,9.334,0,0,0,3.154,2.318l8.664,4.864a11.032,11.032,0,0,1,6.232,10.26v4.712a10.981,10.981,0,0,1-4.56,9.462Q182.856.38,174.61.38T162.184-1.368v-11.02a29.575,29.575,0,0,0,11.7,2.2q6.536,0,6.536-3.724v-1.14a4.047,4.047,0,0,0-.722-2.622,9.358,9.358,0,0,0-2.7-1.938l-8.132-4.408q-7.372-4.1-7.372-11.552Z" transform="translate(258 7959.039)" fill="#fff"/>
    <g id="Group_16042" data-name="Group 16042" transform="translate(302.377 7709.487)">
      <g id="Group_16039" data-name="Group 16039" transform="translate(0)">
        <path id="Path_22047" data-name="Path 22047" d="M1725.493,4976.83l9.991-5.908a86.269,86.269,0,0,0,42.428-74.331c0-.071-.017-7.528-.2-10.2h0l-.656-9.692-10.085-6.667a148.689,148.689,0,0,0-35.319-17.132l-6.16-2.037" transform="translate(-1673.073 -4801.364)" fill="#d0d7e2"/>
        <path id="Path_22048" data-name="Path 22048" d="M1735.4,4850.861l-6.159,2.037a148.648,148.648,0,0,0-35.319,17.132l-10.087,6.667-.655,9.692c-.177,2.628-.2,10.129-.2,10.2a86.267,86.267,0,0,0,42.429,74.331l9.991,5.908" transform="translate(-1682.985 -4801.364)" fill="#ecf0f7"/>
        <path id="Path_22049" data-name="Path 22049" d="M1304.978-3482.312v.254L1292-3507.825l4.091-85.1,2.532-.845-.184-3.226,5.508,1.453,1.023-.341h.015v.615l8.893,2.344,4.091,85.1-12.978,25.768Z" transform="translate(-1252.566 3635.352)" fill="#0028ba" stroke="rgba(0,0,0,0)" stroke-width="1"/>
        <path id="Path_22045" data-name="Path 22045" d="M1725.529,4814.113a7.938,7.938,0,0,1,4.765,14.282l2.686,19.532a154.526,154.526,0,0,1,27.131,12.2l-3.2,5.139a150.3,150.3,0,0,0-26.482-11.7l-4.931-1.628v-.786h0v-37.043Z" transform="translate(-1673.074 -4814.113)" fill="#edb726"/>
        <path id="Path_22046" data-name="Path 22046" d="M1724.551,4847.927l2.733-19.54a7.939,7.939,0,0,1,4.754-14.274v31.332l0,0v6.5l-4.931,1.628a150.266,150.266,0,0,0-26.482,11.7l-3.205-5.141A154.7,154.7,0,0,1,1724.551,4847.927Z" transform="translate(-1679.62 -4814.113)" fill="#ffc731"/>
      </g>
      <g id="Group_16040" data-name="Group 16040" transform="translate(0)">
        <path id="Path_22047-2" data-name="Path 22047" d="M1725.493,4976.83l9.991-5.908a86.269,86.269,0,0,0,42.428-74.331c0-.071-.017-7.528-.2-10.2h0l-.656-9.692-10.085-6.667a148.689,148.689,0,0,0-35.319-17.132l-6.16-2.037" transform="translate(-1673.073 -4801.364)" fill="#d0d7e2"/>
        <path id="Path_22048-2" data-name="Path 22048" d="M1735.4,4850.861l-6.159,2.037a148.648,148.648,0,0,0-35.319,17.132l-10.087,6.667-.655,9.692c-.177,2.628-.2,10.129-.2,10.2a86.267,86.267,0,0,0,42.429,74.331l9.991,5.908" transform="translate(-1682.985 -4801.364)" fill="#ecf0f7"/>
        <path id="Path_22049-2" data-name="Path 22049" d="M1304.978-3482.312v.254L1292-3507.825l4.091-85.1,2.532-.845-.184-3.226,5.508,1.453,1.023-.341h.015v.615l8.893,2.344,4.091,85.1-12.978,25.768Z" transform="translate(-1252.566 3635.352)" fill="#0028ba" stroke="rgba(0,0,0,0)" stroke-width="1"/>
        <path id="Path_22045-2" data-name="Path 22045" d="M1725.529,4814.113a7.938,7.938,0,0,1,4.765,14.282l2.686,19.532a154.526,154.526,0,0,1,27.131,12.2l-3.2,5.139a150.3,150.3,0,0,0-26.482-11.7l-4.931-1.628v-.786h0v-37.043Z" transform="translate(-1673.074 -4814.113)" fill="#edb726"/>
        <path id="Path_22046-2" data-name="Path 22046" d="M1724.551,4847.927l2.733-19.54a7.939,7.939,0,0,1,4.754-14.274v31.332l0,0v6.5l-4.931,1.628a150.266,150.266,0,0,0-26.482,11.7l-3.205-5.141A154.7,154.7,0,0,1,1724.551,4847.927Z" transform="translate(-1679.62 -4814.113)" fill="#ffc731"/>
      </g>
      <g id="Group_16041" data-name="Group 16041" transform="translate(0)">
        <path id="Path_22047-3" data-name="Path 22047" d="M1725.493,4976.83l9.991-5.908a86.269,86.269,0,0,0,42.428-74.331c0-.071-.017-7.528-.2-10.2h0l-.656-9.692-10.085-6.667a148.689,148.689,0,0,0-35.319-17.132l-6.16-2.037" transform="translate(-1673.073 -4801.364)" fill="#d0d7e2"/>
        <path id="Path_22048-3" data-name="Path 22048" d="M1735.4,4850.861l-6.159,2.037a148.648,148.648,0,0,0-35.319,17.132l-10.087,6.667-.655,9.692c-.177,2.628-.2,10.129-.2,10.2a86.267,86.267,0,0,0,42.429,74.331l9.991,5.908" transform="translate(-1682.985 -4801.364)" fill="#fff"/>
        <path id="Path_22049-3" data-name="Path 22049" d="M1304.978-3482.312v.254L1292-3507.825l4.091-85.1,2.532-.845-.184-3.226,5.508,1.453,1.023-.341h.015v.615l8.893,2.344,4.091,85.1-12.978,25.768Z" transform="translate(-1252.566 3635.352)" fill="#0028ba" stroke="rgba(0,0,0,0)" stroke-width="1"/>
        <path id="Path_22045-3" data-name="Path 22045" d="M1725.529,4814.113a7.938,7.938,0,0,1,4.765,14.282l2.686,19.532a154.526,154.526,0,0,1,27.131,12.2l-3.2,5.139a150.3,150.3,0,0,0-26.482-11.7l-4.931-1.628v-.786h0v-37.043Z" transform="translate(-1673.074 -4814.113)" fill="#edb726"/>
        <path id="Path_22046-3" data-name="Path 22046" d="M1724.551,4847.927l2.733-19.54a7.939,7.939,0,0,1,4.754-14.274v31.332l0,0v6.5l-4.931,1.628a150.266,150.266,0,0,0-26.482,11.7l-3.205-5.141A154.7,154.7,0,0,1,1724.551,4847.927Z" transform="translate(-1679.62 -4814.113)" fill="#ffc731"/>
      </g>
    </g>
  </g>
</svg>
