<svg height="413.398642" viewBox="0 0 496.09 848.27" width="241.897263" xmlns="http://www.w3.org/2000/svg"><path d="m846 869.94c-.09-.53-.17-1.06-.25-1.6.11.53.19 1.07.25 1.6z" fill="#242c51" transform="translate(-710.49 -115.87)"/><path d="m846.29 871.37c.58 3.32 1.29 6.6 2.16 9.81-.69-2.72-1.27-5.46-1.81-8.21-.14-.68-.24-1.18-.35-1.6z" fill="#242c51" transform="translate(-710.49 -115.87)"/><path d="m1067.16 867.48c-23.12 18.23-51.1 30.16-77.83 35.54a58.59 58.59 0 0 1 -11.21 1.42c-8.74.06-14.74-4-17.89-12.16a27.18 27.18 0 0 1 -1-16.44 12.84 12.84 0 0 1 7.84-9c4-1.77 8.32-2.44 12.61-3.22 1.22-.21 2.43-.44 3.65-.68 23.73-4.64 46.1-12.75 66-27a89.5 89.5 0 0 0 15.37-13.85 1.1 1.1 0 0 0 .17-.25 111.08 111.08 0 0 1 4 26.47c0 1.18.06 2.35.06 3.53v.31h34.94a36 36 0 0 0 9-1.13c1.15-.3 2.28-.65 3.38-1a35.39 35.39 0 0 0 6.29-3c.84-.51 1.66-1.07 2.46-1.65q.9-.64 1.77-1.35c.88-.74 1.74-1.51 2.55-2.33a36 36 0 0 0 6.19-8.29c.28-.51.55-1 .8-1.55a35.9 35.9 0 0 0 3.55-15.6v-15.38h15.28a36 36 0 0 0 14.89-3.22c.51-.23 1-.48 1.52-.73q1.43-.74 2.79-1.59c.66-.42 1.31-.86 1.94-1.31s1.32-1 2-1.52c.8-.67 1.58-1.37 2.32-2.11l.06-.06a36.15 36.15 0 0 0 7-9.84c.5-1 1-2.13 1.37-3.23s.75-2.23 1-3.38c.15-.57.28-1.15.4-1.74a34.9 34.9 0 0 0 .55-3.57c.12-1.21.19-2.44.19-3.68v-93.38h-148.75l-13.31 36.35h-35.3l-15.18-36.35h-40.17l-15.19 36.35h-35.27l-13.31-36.35h-148.85v93.38c0 1.24.06 2.47.18 3.68a34.89 34.89 0 0 0 .54 3.57c.12.59.25 1.17.4 1.74a34.81 34.81 0 0 0 1 3.38c.4 1.1.85 2.18 1.35 3.23a34.6 34.6 0 0 0 1.65 3.06c.3.49.61 1 .93 1.46a35.64 35.64 0 0 0 29.71 15.86h15.28v15.28a36 36 0 0 0 14.16 28.61l.7.51a35.76 35.76 0 0 0 12.17 5.73 34.1 34.1 0 0 0 3.51.72 36.72 36.72 0 0 0 5.48.41h31.67v-.38a111.72 111.72 0 0 1 10.91-48.23l.16-.33a113.68 113.68 0 0 1 27.45-35.57c7.49-6.54 16.13-8.22 25.53-4.5 5.1 2 7.12 6.19 5.79 11.56a16.35 16.35 0 0 1 -2.51 5.32c-8.07 11.76-15.29 24-20.38 37.37a117.82 117.82 0 0 0 -7.73 40v5.6a155.78 155.78 0 0 0 2 21.54 11.94 11.94 0 0 1 -8.3 13.65 29.44 29.44 0 0 1 -18.93-.5c-3.53-1.23-5.74-4-7.15-7.31-.2-.49-.38-1-.57-1.47a112.2 112.2 0 0 0 217.08-21.33z" fill="#242c51" transform="translate(-710.49 -115.87)"/><path d="m850 886.3c-.14-.42-.28-.84-.41-1.27.09.43.23.85.41 1.27z" fill="#242c51" transform="translate(-710.49 -115.87)"/><path d="m809.07 302.54c-.2.81-.4 1.61-.61 2.4s-.49 1.8-.75 2.68c-.2.69-.41 1.37-.62 2s-.49 1.52-.74 2.26-.59 1.7-.89 2.52l-.48 1.28c-.42 1.07-.84 2.11-1.26 3.11a2.29 2.29 0 0 1 -.1.23s0 0 0 0a96.67 96.67 0 0 1 -5.62 11.3 62 62 0 0 1 -3.78 5.78l-.11.15c-15.39 23.28-38.71 39.26-68.23 46.29v105.09h81.51l-8.33-22.63h-4.94a11.82 11.82 0 0 1 -11.79-11.79v-1a11.82 11.82 0 0 1 11.79-11.79h41.48a11.82 11.82 0 0 1 11.79 11.79v1a11.83 11.83 0 0 1 -11.79 11.79h-9.52l8.3 22.64h54.75v-22.64h-11a11.82 11.82 0 0 1 -11.78-11.79v-1a11.82 11.82 0 0 1 11.78-11.79h44.45a11.82 11.82 0 0 1 11.79 11.79v1a11.82 11.82 0 0 1 -11.81 11.79h-8.09v22.64h88.15v-22.64h-8.09a11.82 11.82 0 0 1 -11.79-11.79v-1a11.82 11.82 0 0 1 11.79-11.79h44.47a11.82 11.82 0 0 1 11.78 11.79v1a11.82 11.82 0 0 1 -11.78 11.79h-11v22.64h54.75l8.25-22.64h-9.52a11.83 11.83 0 0 1 -11.79-11.79v-1a11.82 11.82 0 0 1 11.79-11.79h41.52a11.82 11.82 0 0 1 11.79 11.79v1a11.82 11.82 0 0 1 -11.79 11.79h-5l-8.29 22.64h81.49v-105.1c-29.52-7-52.84-23-68.23-46.29l-.11-.15a62.42 62.42 0 0 1 -3.68-5.6 97.76 97.76 0 0 1 -5.76-11.42s0 0 0 0-.06-.16-.1-.24c-.42-1-.83-2-1.25-3.1l-.48-1.29c-.3-.82-.6-1.65-.89-2.51s-.5-1.5-.75-2.26-.41-1.34-.61-2q-.39-1.32-.75-2.7c-.21-.78-.41-1.57-.6-2.38-.1-.42-.22-.81-.32-1.24h-298.3c-.09.37-.21.76-.3 1.18z" fill="#bc1919" transform="translate(-710.49 -115.87)"/><path d="m15.35 382.72h465.39v161.95h-465.39z" fill="#fff"/><g transform="translate(-710.49 -115.87)"><path d="m965.52 285.76h64.74l31.94-107.38q-1.4.42-2.85.78l-.34.09c-.87.21-1.76.42-2.66.61l-.39.08c-1 .21-2.06.41-3.12.58-1 .16-2 .31-3.06.45l-.69.09c-.93.12-1.88.23-2.84.32h-.42c-1.08.11-2.18.19-3.29.26l-.75.05c-.88 0-1.77.09-2.66.12h-.95c-1.11 0-2.23.05-3.36.05h-.07c-2.14 0-4.23-.05-6.3-.15-.62 0-1.23-.08-1.85-.11-1.43-.09-2.85-.18-4.24-.3l-2.14-.23c-1.26-.13-2.52-.28-3.75-.44l-2.16-.32c-1.19-.19-2.37-.38-3.53-.59l-2.06-.4c-1.17-.23-2.32-.48-3.45-.74-.63-.15-1.26-.29-1.88-.45-1.2-.29-2.37-.61-3.53-.94l-1.55-.43c-1.4-.42-2.77-.86-4.12-1.31l-.7-.23c-1.59-.55-3.13-1.13-4.64-1.73l-.92-.39c-1.15-.47-2.28-1-3.38-1.45-.5-.22-1-.46-1.48-.69-.87-.42-1.73-.83-2.57-1.26-.53-.27-1-.55-1.57-.83-.76-.4-1.5-.8-2.22-1.21l-1.56-.92c-.67-.4-1.33-.8-2-1.21s-1-.64-1.5-1-1.18-.81-1.76-1.22-1-.67-1.41-1-1.08-.83-1.61-1.25-.87-.67-1.28-1l-.09-.07z" fill="#ddccc5"/><path d="m885.22 285.76h64.78v-124.41a83.77 83.77 0 0 1 -15.19 9.32c-.22.11-.43.22-.66.32-1 .45-1.93.89-2.92 1.32l-1.24.54c-.92.38-1.86.76-2.81 1.13l-1.64.61c-.91.34-1.81.67-2.74 1-.68.23-1.39.45-2.08.67-.86.27-1.71.55-2.59.8-1.52.45-3.08.86-4.67 1.25-.69.17-1.41.32-2.11.48-1 .23-2.09.47-3.16.68-.75.15-1.51.28-2.27.42-1.07.19-2.16.38-3.26.55l-2.33.33c-1.15.15-2.31.29-3.49.41l-2.29.23c-1.31.12-2.65.21-4 .29-.67 0-1.32.09-2 .12-2 .09-4.1.14-6.2.14h-.1c-1.19 0-2.36 0-3.53-.06h-1c-1.11 0-2.21-.09-3.29-.16h-.26c-1.15-.08-2.28-.18-3.39-.29l-.93-.09c-1-.11-2-.23-3-.37h-.33c-1.07-.16-2.11-.33-3.15-.51l-.83-.16c-.94-.17-1.86-.36-2.76-.56l-.32-.07c-1-.23-1.94-.47-2.88-.73l-.73-.2c-.83-.24-1.64-.48-2.42-.74l-.29-.09z" fill="#ddccc5"/><path d="m828.38 186.46-.45.29c-.66.42-1.33.82-2 1.21l-.53.32c-.65.38-1.31.74-2 1.1l-.59.32c-.65.35-1.31.69-2 1l-.61.3c-.66.33-1.31.64-2 .95l-.63.28-2 .88-.61.25c-.67.28-1.35.56-2 .82l-.55.22-2.08.78-.45.16-2.17.75-.29.09a122.18 122.18 0 0 1 -16.42 4.19l-.33.07-1.78.3-.49.09-1.62.25-.56.09-1.48.2-.63.09-1.35.17-.65.08-1.24.13-.66.07-1.12.12-.65.05-1 .09-.63.05-.92.07h-.6-.82-.57-.7-.56-.56-.6-.36-.81l-5.11.08 2.49 4.48 41.54 74.28 2.45 4.38h57.32l-31.57-105.87a70.09 70.09 0 0 1 -6.72 5.27l-.29.2c-.67.47-1.36.89-2.04 1.35z" fill="#ddccc5"/><path d="m1046.49 285.76h58.91l2.44-4.38 41.54-74.28 2.51-4.48-5.14-.08c-.48 0-1.1 0-1.82 0l-1.12-.05h-.31l-1-.06h-.58l-.84-.06-.8-.06-.77-.06-1-.08-.72-.07-1.15-.12-.64-.06-1.33-.16-.57-.06-1.5-.2-.5-.06-1.65-.24-.45-.2-1.8-.28-.37-.07-1.95-.34h-.28l-2.1-.41h-.19l-2.25-.49h-.06c-11.28-2.52-24.32-7-35.57-15.11l-.11-.07c-.73-.53-1.46-1.07-2.18-1.63l-.26-.21c-.68-.53-1.34-1.08-2-1.64l-.38-.32c-.62-.54-1.24-1.09-1.84-1.65l-.28-.25z" fill="#ddccc5"/><path d="m827.06 399v-3.64h5.61a4.81 4.81 0 0 0 1.51-.22 2.54 2.54 0 0 0 1.07-.72 3.21 3.21 0 0 0 .64-1.35 9.92 9.92 0 0 0 .2-2.16v-34.35q-1.3 1.6-2.46 2.91a23.59 23.59 0 0 1 -2.23 2.24 10.21 10.21 0 0 1 -2.09 1.46 4.42 4.42 0 0 1 -2 .52 3.57 3.57 0 0 1 -1.56-.35 3.7 3.7 0 0 1 -1.25-1 5.36 5.36 0 0 1 -.86-1.61 6.43 6.43 0 0 1 -.31-2.07c.69-.18 1.41-.4 2.17-.65a21.09 21.09 0 0 0 2.43-1c.85-.41 1.77-.91 2.75-1.5s2-1.3 3.18-2.13l4.82-3.54h7.66v41.07a10.77 10.77 0 0 0 .15 1.9 3.74 3.74 0 0 0 .53 1.41 2.38 2.38 0 0 0 .98.78 4.62 4.62 0 0 0 1.76.29h5.52v3.71z" fill="#d29e27"/><path d="m890.31 360.75a13.06 13.06 0 0 1 -1.52 6.22 23.32 23.32 0 0 1 -2.16 3.39q-1.33 1.78-3.31 3.95c-1.31 1.43-2.85 3-4.6 4.76s-3.77 3.69-6.07 5.86l-6.85 6.52h16a5.52 5.52 0 0 0 3.6-1.22 6.56 6.56 0 0 0 2.09-3.53l.57-2.11h4l-.38 14.41h-32.37v-7.06l10.13-10.33a70.9 70.9 0 0 0 5.22-5.85 28.85 28.85 0 0 0 3.21-5 19 19 0 0 0 1.64-4.69 25.34 25.34 0 0 0 .47-5c0-2.61-.48-4.52-1.42-5.72a4.74 4.74 0 0 0 -3.93-1.81 5 5 0 0 0 -4.89 3q-1.4 3-1.4 8.84a16.44 16.44 0 0 1 -3.56-.36 8.07 8.07 0 0 1 -2.78-1.17 5.57 5.57 0 0 1 -1.79-2.09 7.53 7.53 0 0 1 .32-6.68 9.06 9.06 0 0 1 2.83-2.94 15.23 15.23 0 0 1 4.7-2 25.24 25.24 0 0 1 6.57-.76 26.39 26.39 0 0 1 6.77.79 14.53 14.53 0 0 1 4.92 2.26 9.51 9.51 0 0 1 3 3.58 10.86 10.86 0 0 1 .99 4.74z" fill="#d29e27"/><path d="m910.09 394.86a9.56 9.56 0 0 0 3.23-.54 6.44 6.44 0 0 0 2.68-1.79 9 9 0 0 0 1.84-3.37 17.66 17.66 0 0 0 .68-5.27q0-5.11-2.44-7.63a9.18 9.18 0 0 0 -6.89-2.51c-.87 0-1.65 0-2.36.11a17.57 17.57 0 0 0 -2 .28c-.61.12-1.17.26-1.71.4l-1.57.45-3.14-1.24 2.17-23.67h25.92l.33 12.44h-3.83l-.54-2.31a10.72 10.72 0 0 0 -.36-1.09 2.49 2.49 0 0 0 -.56-.82 2.3 2.3 0 0 0 -.88-.51 4.11 4.11 0 0 0 -1.37-.19h-14.29s0 .22 0 .59l-.12 1.45c0 .6-.1 1.28-.16 2s-.14 1.53-.2 2.31l-.54 6.29a9.06 9.06 0 0 1 1.39-.39c.57-.12 1.19-.23 1.85-.33s1.38-.18 2.13-.24 1.46-.08 2.16-.08a26.35 26.35 0 0 1 7.2.92 15.7 15.7 0 0 1 5.52 2.74 12.32 12.32 0 0 1 3.55 4.57 15.42 15.42 0 0 1 1.25 6.42 15.66 15.66 0 0 1 -1.62 7.47 14 14 0 0 1 -4.2 4.87 16.54 16.54 0 0 1 -5.75 2.62 25.87 25.87 0 0 1 -6.29.79 26.48 26.48 0 0 1 -6.52-.69 13.73 13.73 0 0 1 -4.35-1.83 7.19 7.19 0 0 1 -2.42-2.65 6.66 6.66 0 0 1 -.76-3.09 4.28 4.28 0 0 1 1.49-3.58 6.3 6.3 0 0 1 4-1.17 11.86 11.86 0 0 0 .38 2.94 7.48 7.48 0 0 0 1.27 2.65 6.65 6.65 0 0 0 2.33 1.9 7.73 7.73 0 0 0 3.5.78z" fill="#d29e27"/><path d="m971 355h-2.4a4.85 4.85 0 0 0 -1.16.13 1.86 1.86 0 0 0 -.93.51 2.77 2.77 0 0 0 -.63 1.12 6.74 6.74 0 0 0 -.23 1.95v34.13a16.34 16.34 0 0 1 -.59 4.59 12.58 12.58 0 0 1 -1.61 3.53 10.21 10.21 0 0 1 -2.47 2.56 13.44 13.44 0 0 1 -3.12 1.69 17.16 17.16 0 0 1 -3.57.93 24.24 24.24 0 0 1 -3.83.29h-2.06v-3.31h1a7 7 0 0 0 2.66-.52 5.76 5.76 0 0 0 2.3-1.71 9.1 9.1 0 0 0 1.62-3.16 16.73 16.73 0 0 0 .61-4.84v-34.37a6.3 6.3 0 0 0 -.22-1.82 2.4 2.4 0 0 0 -.63-1.05 2.07 2.07 0 0 0 -.93-.48 4.58 4.58 0 0 0 -1.12-.13h-2.4v-3h19.71z" fill="#d29e27"/><path d="m982.6 379.36-1.6 4.91c-.15.46-.3 1-.46 1.63a7.06 7.06 0 0 0 -.23 1.63 2 2 0 0 0 .22 1 2.06 2.06 0 0 0 .58.69 2.9 2.9 0 0 0 .83.4 3.32 3.32 0 0 0 1 .14h2.39v3h-14.94v-3h.7a5.43 5.43 0 0 0 1.38-.17 3 3 0 0 0 1.17-.62 5.3 5.3 0 0 0 1-1.27 15.44 15.44 0 0 0 1-2.09l12.36-33.61h7.83l11.92 33.6a12.47 12.47 0 0 0 .88 2 4.67 4.67 0 0 0 1 1.25 3.24 3.24 0 0 0 1.15.65 4.23 4.23 0 0 0 1.28.2h1v3h-18.76v-3h2.23a3 3 0 0 0 .86-.13 2.29 2.29 0 0 0 .8-.39 2 2 0 0 0 .57-.68 2.08 2.08 0 0 0 .22-1 5.35 5.35 0 0 0 -.17-1.34q-.16-.65-.33-1.11l-2-5.72zm9.72-12.84-.63-2-.64-2.19c-.21-.74-.42-1.48-.61-2.21s-.37-1.44-.52-2.1c-.16.57-.36 1.2-.58 1.89s-.46 1.39-.71 2.12l-.75 2.17c-.25.73-.49 1.42-.71 2.09l-3.38 9.64h11.54z" fill="#d29e27"/><path d="m1024.13 379.36-1.64 4.91c-.15.46-.3 1-.46 1.63a6.62 6.62 0 0 0 -.24 1.63 2 2 0 0 0 .23 1 2.06 2.06 0 0 0 .58.69 2.84 2.84 0 0 0 .82.4 3.43 3.43 0 0 0 1 .14h2.4v3h-14.85v-3h.7a5.43 5.43 0 0 0 1.38-.17 3.16 3.16 0 0 0 1.17-.62 5.3 5.3 0 0 0 1-1.27 15.44 15.44 0 0 0 1-2.09l12.35-33.61h7.83l11.92 33.6a11.63 11.63 0 0 0 .88 2 4.85 4.85 0 0 0 1 1.25 3.28 3.28 0 0 0 1.16.65 4.23 4.23 0 0 0 1.28.2h1v3h-18.83v-3h2.23a3 3 0 0 0 .86-.13 2.17 2.17 0 0 0 .79-.39 1.81 1.81 0 0 0 .57-.68 2.08 2.08 0 0 0 .23-1 5.35 5.35 0 0 0 -.17-1.34q-.16-.65-.33-1.11l-2-5.72zm9.73-12.84c-.21-.65-.42-1.33-.63-2s-.43-1.44-.64-2.19-.42-1.48-.61-2.21-.37-1.44-.52-2.1c-.17.57-.36 1.2-.58 1.89s-.46 1.39-.71 2.12-.5 1.45-.76 2.17l-.71 2.09-3.37 9.64h11.54z" fill="#d29e27"/><path d="m1054.83 389.73h2.4a5.65 5.65 0 0 0 1.11-.11 2.13 2.13 0 0 0 .94-.46 2.36 2.36 0 0 0 .64-1 5.63 5.63 0 0 0 .23-1.8v-27.84a5.64 5.64 0 0 0 -.23-1.82 2.5 2.5 0 0 0 -.64-1.05 2.06 2.06 0 0 0 -.94-.48 4.44 4.44 0 0 0 -1.11-.13h-2.4v-3h18.39q8.08 0 11.86 2.7a9.08 9.08 0 0 1 3.77 7.86 11.09 11.09 0 0 1 -.67 4 10.29 10.29 0 0 1 -1.77 3.07 11.1 11.1 0 0 1 -2.49 2.21 16.46 16.46 0 0 1 -2.84 1.49l6.8 11.71a21.81 21.81 0 0 0 1.4 2.1 10.19 10.19 0 0 0 1.37 1.45 4.58 4.58 0 0 0 1.41.83 4.32 4.32 0 0 0 1.53.27h.22v3h-1.81a44.78 44.78 0 0 1 -4.48-.2 12.15 12.15 0 0 1 -3.34-.77 7.55 7.55 0 0 1 -2.48-1.57 11.14 11.14 0 0 1 -1.94-2.59l-6.77-12.57h-3.79v11.26a5.59 5.59 0 0 0 .24 1.8 2.36 2.36 0 0 0 .64 1 2.13 2.13 0 0 0 .94.46 5.65 5.65 0 0 0 1.11.11h2.45v3h-19.7zm14.32-18h3.21a9 9 0 0 0 3.3-.53 4.85 4.85 0 0 0 2.12-1.58 6.58 6.58 0 0 0 1.14-2.61 17.32 17.32 0 0 0 .35-3.67 14.92 14.92 0 0 0 -.39-3.68 5.94 5.94 0 0 0 -1.23-2.46 4.79 4.79 0 0 0 -2.17-1.4 10.84 10.84 0 0 0 -3.23-.43h-3.1z" fill="#d29e27"/><path d="m1143.92 718.43c-12.67-4.9-23.27 6.34-24.79 14.82a18.26 18.26 0 0 0 .19 6.92c-3.79-2.71-8.26-8.12-9.82-11.77a16.2 16.2 0 0 1 -.92-2.81c-1-4.68.76-8.42 4.25-11.4a8.43 8.43 0 0 1 10.18-1c.77.42 1.09.11 1.53-.4 1.47-1.75 2.93-3.53 4.48-5.21.81-.86.55-1.26-.31-1.79a13.85 13.85 0 0 0 -10.88-1.74c-13.75 3.3-20.82 19.38-13.72 31.87a51.73 51.73 0 0 0 23.89 21.66c8.34 3.84 15.9 2.16 22.39-4.41a30.16 30.16 0 0 0 3.43-4.14c8.7-12.82 1.6-26.16-9.9-30.6zm-6.11 33c-6.91-.05-13.52-6.68-13.48-13.52 0-6.56 5.81-12.41 12.17-12.3 6.85.1 13.67 6.8 13.7 13.44.03 6.46-5.97 12.47-12.39 12.42z" fill="#d29e27"/><path d="m1120.09 773.15a27.54 27.54 0 0 0 -3.11-8.89c-4.61-8.42-10.41-15.85-18.62-21-7.3-4.62-14.62-4.33-21.74.57a30.64 30.64 0 0 0 -4.79 4.09c-10.26 10.9-6.24 25.23 5.16 31.81 5.83 3.38 11.94 2.93 17.65-.56 6.38-3.92 10.31-9.37 9.81-17.28 2.85 2.35 7 9.31 8 13.34a15.93 15.93 0 0 1 .4 4.24c-.1 6.21-8.75 14.21-16 8.52-.76-.6-1.18-.25-1.73.22-1.73 1.51-3.43 3.05-5.24 4.45-.94.75-.73 1.15 0 1.81a13.51 13.51 0 0 0 11.19 3.38c7.06-1.06 12.22-5.12 16.2-10.81 2.98-4.22 3.63-8.94 2.82-13.89zm-21-9.28a12.14 12.14 0 0 1 -19.44 7.18c-3.49-2.81-5.81-6.38-6-11 .13-5.06 2.82-8.51 7-10.89 3.9-2.22 7.85-1.85 11.61.45 5.22 3.15 7.92 8.86 6.84 14.26z" fill="#d29e27"/><path d="m851.62 750.38c-3.15-9.64-15.31-18.12-25.44-17.7-4.08.16-7.62 1.53-10.19 4.88-3.43 4.48-3.61 10-.43 15.3.71 1.17 1.55 2.27 2.47 3.61-1.33-.39-2.39-.72-3.46-1-8.52-2.12-15.35 1.53-18.05 9.69a15.52 15.52 0 0 0 2.33 14.31 31 31 0 0 0 18.9 12.87c9 2.06 17-2.58 19.26-10.85 1.48-5.47-.47-10.08-3.83-14.28-.19-.48 0-.56.45-.45.9.22 1.79.49 2.69.68 10.38 2.17 18.58-6.99 15.3-17.06zm-32.5 34.3a14.58 14.58 0 0 1 -13.35-8.52c-3.37-6.77 1.85-14.56 9.48-14.59 5.55 0 11.81 4.44 13.52 9.66 2.13 6.51-2.77 13.58-9.65 13.45zm14.59-23.68c-5.28-1-9.47-3.72-11.61-8.81-2.56-6.07 1.46-11.9 8-11.94 5.22 0 11.44 4.33 13.23 9.28a8.66 8.66 0 0 1 -9.62 11.47z" fill="#d29e27"/><path d="m779.77 759.39c-1 1.09-1.6 1.08-2.56 0a44.31 44.31 0 0 0 -4.06-3.81c-1-.85-.94-1.36 0-2.3q15.28-16.09 30.5-32.27l1.94-2.09a42.54 42.54 0 0 1 -11.77-3.31c-.58-.26-1.55-.41-.82-1.35.54-.69.06-2.35 1.84-1.94 5 1.16 10.1.72 15.12-.09a3.87 3.87 0 0 1 4.08 1.27 22.39 22.39 0 0 0 3.51 3.3c1.24 1 1 1.58 0 2.56z" fill="#d29e27"/><path d="m956.12 799.59a247.88 247.88 0 0 0 -8.79 32.41 220.88 220.88 0 0 0 -3.65 30.95c-.12 2.55-.21 5.11-.26 7.66-.18 9 .4 18.05.73 27.08a22.86 22.86 0 0 1 -.3 4.12c-.73 4.79-3.1 7.06-8.48 7.38-13.85.81-24.62-4.69-32.21-16.33-2-3-2.48-6.5-2.87-10-.68-6.15-1.27-12.3-1.45-19.92 0-1.75-.07-3.57-.07-5.49-.37-20.75 6.76-42 18.91-61.77 1.47-2.4 3.05-4.73 4.53-7.13 3.62-5.81 9.08-8 15.67-8a30.81 30.81 0 0 1 10.52 2.23c7.69 2.81 9.71 10.96 7.72 16.81z" fill="#d29e27"/><path d="m1052.53 909.13a36 36 0 0 1 -3.72 7.12l-.06.08a112.66 112.66 0 0 1 -46.38 38.19 120.49 120.49 0 0 1 -25.17 7.66 112.91 112.91 0 0 1 -20.77 2h-.09a120.22 120.22 0 0 1 -33.89-5.36h-.07l-1.64-.53a112.45 112.45 0 0 1 -19.11-8.57l-.11-.06c-.28-.16-.57-.31-.85-.48a113.54 113.54 0 0 1 -21.46-16.4c-2.78-2.69-5.19-5.63-5.86-9.62a6.72 6.72 0 0 1 2.81-7c4.19-3.06 9-3.81 14.06-3.53a42.88 42.88 0 0 1 15.44 4.17 116.72 116.72 0 0 0 34.57 10 108.22 108.22 0 0 0 43.63-4c15.55-4.54 29.85-11.76 43.66-20.1 5.83-3.53 12.24-5.16 19.08-4 5.69.96 7.97 5.03 5.93 10.43z" fill="#d29e27"/><path d="m1060.43 808.52a1.17 1.17 0 0 1 -.55.87c-16.61 13.06-34.23 24.38-54.11 31.87a118.3 118.3 0 0 1 -27.77 6.91c-1 .13-2 .13-2.62.17a24.5 24.5 0 0 1 -4.36-.31 9.52 9.52 0 0 1 -8-7.84c-2-9-.38-17.59 3-26a28.68 28.68 0 0 1 5.81-9.42 14.35 14.35 0 0 1 7.17-4.07c16.13-3.92 31-10.45 43.9-21.18a85.7 85.7 0 0 0 9.38-9.09c.59-.68.9-.89 1.68-.15a127.8 127.8 0 0 1 10.89 11.85l.33.41s0 0 0 0a111.83 111.83 0 0 1 15.25 25.98z" fill="#d29e27"/><path d="m1013.4 759.4a25.19 25.19 0 0 1 -7.45 10.73c-5.41 4.9-11.52 8.61-18.76 10-7.07 1.33-13.89.47-20-3.54-3.25-2.12-6.38-4.42-9.52-6.69-7.52-5.42-15.93-6.61-24.87-5.29a2.39 2.39 0 0 1 -2.21-.38c-5.86-5-11.74-10-17.61-15a5.87 5.87 0 0 1 -.45-.52q3.46-1.49 7-2.74l.16-.06a107 107 0 0 1 10.4-3 122.49 122.49 0 0 1 27.27-3.28h.92a112.64 112.64 0 0 1 30.58 4.63l1.1.34a114.56 114.56 0 0 1 21.3 9.26c3.33 1.85 3.35 1.89 2.14 5.54z" fill="#d29e27"/><path d="m1194.78 367.61c-25.71-6.12-45.56-19.52-59-39.82l-.53-.8-.2-.22a71.69 71.69 0 0 1 -7.49-13.7l-.28-.64a87.24 87.24 0 0 1 -6.18-23.35l.12-.22 41.54-74.27 2.5-4.48 8.13-14.54a16.25 16.25 0 1 0 -9.31-14.68 16.33 16.33 0 0 0 1.4 6.6l-13.37-.22-5.13-.08c-4.15-.06-41.09-1.24-60.54-22.34l-1.59-1.74-.42-.45a16.26 16.26 0 1 0 -14.34-4.75l-3.86 2.09-2.09 1.13c-6.44 3.47-17.17 5.47-29.42 5.47-19.54 0-47.78-5.68-63-21.67l-1.53-1.6a16.25 16.25 0 1 0 -23.38.13l-1.45 1.54c-9.53 10-31.77 21.65-63 21.65-12.25 0-23-2-29.45-5.48l-2.09-1.17-4-2.18a16.25 16.25 0 1 0 -14.21 4.87l-.39.42-1.62 1.76c-19.42 21.08-56.36 22.26-60.51 22.32l-5.13.08-14.11.23a16.06 16.06 0 0 0 1.42-6.61 16.26 16.26 0 1 0 -8.75 14.41l8.28 14.81 2.51 4.48 41.54 74.28.12.21a87.21 87.21 0 0 1 -6.2 23.38l-.26.61a71.69 71.69 0 0 1 -7.49 13.7l-.55.63-.18.39c-13.43 20.3-33.27 33.7-59 39.82l-11.79 2.81v394.47a51.3 51.3 0 0 0 51.09 51.33 51.38 51.38 0 0 0 51.32 51.26h32.75c.17 1.19.34 2.37.54 3.54a16.79 16.79 0 0 1 .45 2c.56 2.86 1.15 5.71 1.88 8.54.62 2.25 1.3 4.48 2 6.67l.05.13c.25.66.51 1.32.77 2 1.41 3.36 3.62 6.08 7.15 7.31a29.44 29.44 0 0 0 18.93.5 11.94 11.94 0 0 0 8.3-13.65 155.78 155.78 0 0 1 -2-21.54c0-1.86 0-3.73 0-5.6a117.82 117.82 0 0 1 7.73-40c5.15-13.38 12.37-25.66 20.44-37.38a16.35 16.35 0 0 0 2.51-5.28c1.33-5.37-.69-9.55-5.79-11.56-9.4-3.72-18-2-25.53 4.5a113.68 113.68 0 0 0 -27.45 35.57l-.16.33a111.72 111.72 0 0 0 -10.91 48.23v.38h-31.67a36 36 0 0 1 -36-36v-15.3h-15.26a35.83 35.83 0 0 1 -35.8-36v-93.36h148.83l13.33 36.35h35.29l15.19-36.36h40.17l15.18 36.36h35.3l13.31-36.36h148.81v-10.91h-144.84l59.33-162.06h85.49v201.88 64.48a36 36 0 0 1 -36 36h-15.28v15.28a36 36 0 0 1 -36 36h-34.95c0-.1 0-.2 0-.31 0-1.18 0-2.35-.06-3.53a111.08 111.08 0 0 0 -4-26.47 1.1 1.1 0 0 1 -.17.25 89.5 89.5 0 0 1 -15.37 13.85c-19.92 14.23-42.29 22.34-66 27-1.22.24-2.43.47-3.65.68-4.29.78-8.58 1.45-12.61 3.22a12.84 12.84 0 0 0 -7.84 9 27.18 27.18 0 0 0 1 16.44c3.15 8.19 9.15 12.22 17.89 12.16a58.59 58.59 0 0 0 11.14-1.46c26.73-5.38 54.71-17.31 77.83-35.54h36.77a51.38 51.38 0 0 0 51.32-51.26 51.41 51.41 0 0 0 51.32-51.33v-394.45zm-116.39-189.14c23.62 22.2 60.85 23.95 68.36 24.07l5.14.08-2.51 4.48-41.54 74.28-2.44 4.38h-58.91zm-112.87-18.38c13.57 11.26 37.43 21.85 69.22 21.85a96.74 96.74 0 0 0 27.46-3.57l-31.94 107.39h-64.74zm-83.19 21.85c30.6 0 53.83-9.82 67.63-20.59v124.41h-64.74l-32.1-107.94c8.03 2.68 18.09 4.12 29.21 4.12zm-114.64 25.16-2.51-4.48 5.13-.08c7.39-.12 43.46-1.79 67.12-22.91l31.57 106.13h-57.33l-2.44-4.38zm-41.85 453.49v-162.06h85.5l59.34 162.06zm112.54-162.06h50.75v138.41zm104.62 162.06 15.52-37.17 15.53 37.17zm58.59 0-32-76.92-7.3-17.52h-7.47l-7.3 17.52-32 76.92h-1v-162.06h88.15v162.06zm26.41-23.65v-138.41h50.75zm163.27-178.22v28.91h-81.49l8.22-22.63h5a11.82 11.82 0 0 0 11.79-11.79v-1a11.82 11.82 0 0 0 -11.79-11.8h-41.48a11.82 11.82 0 0 0 -11.79 11.79v1a11.83 11.83 0 0 0 11.76 11.8h9.51l-8.3 22.64h-54.7v-22.64h11a11.82 11.82 0 0 0 11.78-11.79v-1a11.82 11.82 0 0 0 -11.78-11.8h-44.47a11.82 11.82 0 0 0 -11.79 11.79v1a11.82 11.82 0 0 0 11.79 11.8h8.09v22.64h-88.15v-22.64h8.09a11.82 11.82 0 0 0 11.79-11.79v-1a11.82 11.82 0 0 0 -11.79-11.79h-44.45a11.82 11.82 0 0 0 -11.78 11.79v1a11.82 11.82 0 0 0 11.78 11.79h11v22.64h-54.73l-8.3-22.64h9.52a11.83 11.83 0 0 0 11.79-11.79v-1a11.82 11.82 0 0 0 -11.79-11.79h-41.48a11.82 11.82 0 0 0 -11.79 11.79v1a11.82 11.82 0 0 0 11.79 11.79h4.94l8.29 22.64h-81.51v-105.1c29.52-7 52.84-23 68.23-46.29l.11-.15a84.64 84.64 0 0 0 9.43-17s0 0 0 0a103.83 103.83 0 0 0 5.74-17.75h298.35a103 103 0 0 0 5.74 17.75s0 0 0 0a84.64 84.64 0 0 0 9.43 17l.11.15c15.39 23.28 38.71 39.26 68.23 46.29z" fill="#d29e27"/></g></svg>