<svg xmlns="http://www.w3.org/2000/svg" width="512pt" height="512pt" style="isolation:isolate" viewBox="0 0 512 512"><defs><clipPath id="a"><path d="M0 0h512v512H0z"/></clipPath></defs><g fill="#464342" clip-path="url(#a)"><path d="M36.388 255.994c0 86.924 50.516 162.044 123.768 197.643L55.401 166.62c-12.185 27.312-19.013 57.536-19.013 89.374Zm367.857-11.082c0-27.141-9.749-45.936-18.111-60.566-11.132-18.089-21.566-33.408-21.566-51.498 0-20.187 15.311-38.978 36.877-38.978.974 0 1.897.121 2.846.175-39.071-35.794-91.125-57.649-148.297-57.649-76.721 0-144.219 39.363-183.486 98.985 5.153.154 10.008.263 14.133.263 22.97 0 58.526-2.787 58.526-2.787 11.838-.698 13.234 16.689 1.408 18.089 0 0-11.896 1.4-25.134 2.094l79.971 237.87 48.059-144.134-34.215-93.745c-11.826-.693-23.029-2.093-23.029-2.093-11.834-.694-10.446-18.788 1.388-18.09 0 0 36.266 2.787 57.845 2.787 22.966 0 58.526-2.787 58.526-2.787 11.847-.698 13.238 16.69 1.409 18.09 0 0-11.922 1.4-25.135 2.093l79.361 236.07 21.905-73.198c9.494-30.374 16.719-52.191 16.719-70.991Z"/><path d="m259.846 275.203-65.889 191.463a219.608 219.608 0 0 0 62.037 8.946c25.573 0 50.098-4.421 72.926-12.448a19.33 19.33 0 0 1-1.563-3.025l-67.511-184.936Zm188.843-124.57c.944 6.995 1.479 14.504 1.479 22.581 0 22.285-4.162 47.336-16.698 78.66l-67.08 193.944c65.288-38.072 109.201-108.804 109.201-189.82.004-38.181-9.749-74.084-26.902-105.365Z"/><path d="M255.994.008C114.842.008 0 114.842 0 255.994c0 141.168 114.842 255.998 255.994 255.998C397.141 511.992 512 397.162 512 255.994 511.996 114.842 397.141.008 255.994.008Zm0 500.25c-134.679 0-244.256-109.577-244.256-244.264 0-134.679 109.573-244.248 244.256-244.248 134.674 0 244.243 109.569 244.243 244.248 0 134.687-109.569 244.264-244.243 244.264Z"/></g></svg>