<svg xmlns="http://www.w3.org/2000/svg" width="512pt" height="512pt" style="isolation:isolate" viewBox="0 0 512 512"><defs><clipPath id="a"><path d="M0 0h512v512H0z"/></clipPath></defs><g clip-path="url(#a)"><path fill="#529FC9" d="M0 165.756s12.952-1.259 17.397-.766c5.147.584 15.522 4.809 20.66 5.389 4.306.485 13.369 2.929 17.678 2.69 5.355-.286 14.183-6.152 22.06-4.765 41.353 7.283 104.545 81.725 146.501 79.914 75.715-3.263 73.948-83.609 93.984-83.609H512c-113.578 52.279-191.043 110.506-150.864 144.53 36.78 31.156 147.407-7.689 147.407-7.689s-46.114 45.941-125.694 45.941c-153.944 0-257.345-130.893-333.832-162.603C36.882 179.766 13.693 170.085 0 165.756"/></g></svg>