<svg xmlns="http://www.w3.org/2000/svg" xml:space="preserve" width="129.188" height="37.588"><path d="M271.27 299.641s11.679 1.136 15.687.691c4.641-.527 13.996-4.336 18.629-4.859 3.883-.438 12.055-2.641 15.941-2.426 4.828.258 12.789 5.547 19.891 4.297 37.289-6.567 94.27-73.692 132.102-72.059 68.273 2.942 66.679 75.391 84.746 75.391h174.679C630.531 253.535 560.68 201.031 596.91 170.352c33.164-28.094 132.918 6.933 132.918 6.933s-41.582-41.426-113.34-41.426c-138.812 0-232.05 118.028-301.019 146.621-10.942 4.528-31.852 13.258-44.199 17.161" style="fill:#529fc9;fill-opacity:1;fill-rule:nonzero;stroke:none" transform="matrix(.13 0 0 -.13 0 37.587)"/><path d="m417.887 75.547 23.398-33.778-27.293-39.777h17.414l18.196 25.988 19.496-25.988h18.715L459.477 41.77l22.882 33.778H464.68l-13.778-20.41-15.339 20.41h-17.676m81.449-73.556h14.742v73.555h-14.742V1.992zm52.348 23.821 11.504 32.285 12.148-32.285h-23.652zm19.054 49.734h-15.597l-29.11-73.555h15.235l6.367 15.625 31.68-.027 5.468-15.598h16.114l-30.157 73.555m37.95-73.555 7.273 73.555h17.422l21.574-43.926 21.316 43.926h17.415l6.523-73.555h-14.57l-4.161 50.43L654.449.684l-25.215 51.992-4.941-50.684h-15.605m155.019 73.555H716.93V1.992h48.972v9.832h-35.547v23.012h27.727v10.047h-27.727v21.144h33.352v9.52m18.633 0V1.992h13.867v51.555l45.047-51.555h8.672v73.555H836.07V28.574l-40.558 46.973H782.34M196.234.43h5.367v81.18h-5.367V.43zm106.321 0h5.371v81.18h-5.371V.43zM88.879.43h5.367v81.18H88.88V.43zm50.336 70.05v8.778h32.199c3.785 0 6.699-1.16 8.727-3.485 2.004-2.289 3.007-5.351 3.007-9.21V14.199c0-3.855-.543-6.699-1.621-8.547C179.438 2.168 176.52.43 172.75.43h-3.203l-7.356 8.633h9.258c1.063-.032 2.086.566 3.09 1.789.731.894 1.098 2.382 1.098 4.43v49.413c0 3.86-1.668 5.786-4.996 5.786h-31.426zM108.598.43v63.468h7.511V.43h-7.511zm0 72.863v5.535l6.64 1.153v-4.434c0-.906 1-2.227 2.407-2.227l16.894.07v-6.074l-17.723-.07c-5.152 0-8.218 3.367-8.218 6.047M252.816 1.027l-5.457 4.696c2.336.617 3.934 3.23 4.414 3.742.899.926 1.415 3.672 1.415 6.12v29.173c0 3.66.5 5.242 1.367 6.805a9.291 9.291 0 0 0 3.566 3.73c1.277.773 3.367 1.348 4.422 1.387l9.605.05c2.43.028 4.477-.832 6.133-2.578 2.055-2.18 3.086-5.03 3.086-8.539l-.066-27.547c0-3.652.066-6.425.304-7.12.407-1.16 1.165-2.325 2.133-2.325h8.075l-3.122-6.902c-6.628-.38-9.418-.254-11.207 1.426-1.953 1.867-3.695 5.175-3.695 8.789l.063 26.523c0 4.309.086 6.516-.219 7.11-.828 1.59-1.879 2.374-3.125 2.374l-5.512.067c-1.113 0-2.008-.281-2.676-.852-1.058-.836-1.59-1.797-1.59-2.84l.036-1.953-.063-24.992c0-4.305-.332-7.352-.98-9.168-.891-2.55-4.332-6.933-6.907-7.176zm-4.589 61.883v6.406h15.425l-5.246 10.664h9.754l5.731-10.664h15.574V62.91h-41.238zm-18.911-15.437s-1.761 4.988-2.128 7.578c-.333 2.351-.504 6.894-.504 6.894l6.507.45s.106-3.762.571-6.653c.371-2.336.539-3.75 1.879-7.48l-6.325-.79zm.235-29.72s-1.43 5.157-1.793 7.755c-.34 2.351-.942 8.496-.942 8.496l5.899.43s.437-4.903.906-7.793c.383-2.325.813-2.586 2.254-8.094l-6.324-.793zm-4.801 26.7h13.879l-.043 18.977c0 1.18-.27 2.011-.809 2.476-.379.293-1.129.473-2.234.473h-8.688c-1.406 0-2.105-1.309-2.105-3.93V44.453zm-6.547-43.426-5.598 4.403c2.215 1.867 4.989 4.093 5.071 8.957l.039 21.433h-5.188v8.633h5.188v17.95c0 3.34.293 5.402.293 6.25 0 3.398 4.785 5.925 8.625 5.925l2.465 5.649h8.285l-2.367-5.774 2.839.05c2.356 0 4.239-.882 5.653-2.616 1.297-1.633 1.945-3.742 1.945-6.36V44.453h3.094V35.82h-3.094V10.383c0-2.688-.465-4.707-1.375-6.086-1.418-2.117-3.488-3.152-6.223-3.125l-4.625.078-4.328 8.36h7.364c1.515.03 2.363 1.308 2.363 3.34v22.87H224.75v-20.5c0-8.406-1.957-10.347-6.547-14.293m143.77 31.18h26.281v7.559h-62.133v-7.559h28.336V8.359h-35.16V2.234h76.465V8.36h-33.789v23.848m31.308 38.976c-1.699 1.797-3.91 2.714-6.621 2.714h-24.648v5.41h-7.555v-5.41h-26.629c-2.121 0-4.055-.93-5.812-2.754-1.813-1.906-2.719-4.535-2.719-7.902V56.61h7.512v3.965c0 1.195.339 2.23 1.019 3.137.809 1.023 1.785 1.543 2.918 1.543h12.188c-.317-1.688-1.86-6.2-6.543-10.89-2.746-2.743-11.239-10.255-15.008-11.786h16.371c2.859 2.18 5.269 3.828 10.199 9.668 1.93 2.266 5.332 6.465 7.16 12.969h7.211l-.062-10.711s-.422-7.285 4.156-9.3c1.578-.72 5.004-.888 8.902-.856l16.184.046.023 7.403-12.855.02s-3.402-.364-6.016.585c-2.058.75-1.605 2.957-1.605 5.696v7.156h12.976c1.243 0 2.282-.52 3.125-1.543.84-1.063 1.262-2.188 1.262-3.352v-3.75h7.477v7.239c0 3.054-.875 5.5-2.61 7.336M0 2.773 8.082 1.34c2.11 2.832 3.168 6.426 3.168 10.789v52.605c0 3.735 1.605 5.61 4.836 5.61h60.152v8.777H15.434c-2.196 0-3.97-.281-5.317-.84-1.086-.43-2.199-1.297-3.336-2.558-2.031-2.285-3.047-5.164-3.047-8.692V11.094c0-3.172-.996-6.25-3.734-8.32" style="fill:#244584;fill-opacity:1;fill-rule:nonzero;stroke:none" transform="matrix(.13 0 0 -.13 0 37.587)"/><path d="M47.809 13.145s-3.98 2.402-7.637 4.785l-10.797.066c.64.793 1.246 1.555 1.965 2.336h30.85l-14.38-7.188zM27.184 36.133v1.406h38.129v-1.21c0-1.317-.606-1.966-1.829-1.966H28.07c-.593 0-.886.598-.886 1.77zm0 9.148h38.129V42.22h-38.13v3.062zm0 6.582c0 1.25.593 1.875 1.785 1.875h34.718c1.083 0 1.626-.625 1.626-1.875v-1.16h-38.13v1.16zM68.602 6.027c-2.024.184-6.157 1.414-9.91 3.809 5.609 2.715 9.421 5.613 10.804 6.602 1.649 1.19 2.48 2.832 2.48 4.96 0 1.336-.382 2.43-1.136 3.309-1 1.152-2.93 1.738-5.77 1.738H37.31l1.015 1.797h27.922c3.547 0 5.328 2.04 5.328 6.121v20.215c0 1.516-.496 2.856-1.468 4.016-.868 1.008-2.196 1.496-2.282 1.496H49.137l2.472 2.344h24.63v6.304H15.433v-6.304h27.863l-2.23-2.344H24.702c-1.383 0-2.515-.488-3.414-1.496-1.031-1.121-1.539-2.625-1.539-4.54V33.993c0-1.746.563-3.199 1.707-4.39.832-.903 2-1.36 3.484-1.36h1.344C24.8 24.728 16.8 16.321 13.569 13.868l12.043-.105a35.546 35.546 0 0 1 3.098 3.418c6.059-5.012 8.66-6.79 8.66-6.79-7.504-3.456-15.516-4.695-20.883-4.695h-1.414V0C28.48 0 37.676 1.992 48.148 6.23c6.149-3.808 12.903-4.953 15.5-5.34C66.844.384 70.582.09 74.863 0v5.695c-1.008.067-1.969.106-2.886.145-1.739.058-2.86.117-3.375.187m814.773 21.688 15.164 38.027 14.297-38.027h-29.461zm19.238 47.832h-9.355L863.277 1.992H873.5l8.137 19.668h33.633l8.132-19.668h10.403l-31.192 73.555m44.539-73.555h8.156v73.555h-8.156V1.992zm37.786 42.363v24.622l20.962-.188c5.89 0 11.26-5.371 11.26-12.305 0-5.722-3.98-12.293-12.13-12.293l-20.092.164zm26.172-6.414c5.18 0 14.89 8.32 14.89 18.72 0 10.226-8.66 18.886-15.94 18.886h-33.435V1.992h8.477v36.133h16.468l22.89-36.133h9l-22.35 35.95" style="fill:#244584;fill-opacity:1;fill-rule:nonzero;stroke:none" transform="matrix(.13 0 0 -.13 0 37.587)"/></svg>