<?xml version="1.0" encoding="UTF-8" standalone="no"?>
<!-- Generator: Gravit.io -->
<svg xmlns="http://www.w3.org/2000/svg" xmlns:xlink="http://www.w3.org/1999/xlink" style="isolation:isolate"
  viewBox="0 0 64 64" width="64pt" height="64pt">
  <defs>
    <clipPath id="_clipPath_WT2LGu0jQCsdPTkATBdQFtEmuBKAuRe1">
      <rect width="64" height="64" />
    </clipPath>
  </defs>
  <g clip-path="url(#_clipPath_WT2LGu0jQCsdPTkATBdQFtEmuBKAuRe1)">
    <path
      d=" M 59.922 51.22 C 56.624 52.004 54.954 52.726 50.874 55.384 C 44.484 59.506 37.518 61.424 37.518 61.424 C 37.518 61.424 36.94 62.288 35.27 62.68 C 32.386 63.382 21.522 63.98 20.534 64 C 17.874 64.02 16.246 63.32 15.792 62.228 C 14.412 58.93 17.772 57.486 17.772 57.486 C 17.772 57.486 17.03 57.032 16.596 56.62 C 16.204 56.23 15.792 55.446 15.668 55.734 C 15.154 56.992 14.886 60.062 13.504 61.444 C 11.608 63.36 8.022 62.722 5.898 61.608 C 3.57 60.372 6.064 57.466 6.064 57.466 C 6.064 57.466 4.806 58.208 3.796 56.682 C 2.89 55.28 2.044 52.89 2.272 49.942 C 2.56 46.542 6.312 43.284 6.312 43.284 C 6.312 43.284 5.652 38.318 7.816 33.226 C 9.774 28.588 15.05 24.858 15.05 24.858 C 15.05 24.858 10.62 19.972 12.268 15.542 C 13.34 12.656 13.772 12.676 14.124 12.552 C 15.36 12.078 16.556 11.564 17.442 10.594 C 21.874 5.812 27.52 6.72 27.52 6.72 C 27.52 6.72 30.16 -1.38 32.632 0.206 C 33.396 0.7 36.136 6.802 36.136 6.802 C 36.136 6.802 39.064 5.092 39.394 5.73 C 41.166 9.172 41.372 15.748 40.588 19.746 C 39.27 26.342 35.972 29.888 34.652 32.114 C 34.344 32.628 38.198 34.256 40.63 40.996 C 42.876 47.16 40.878 52.334 41.228 52.91 C 41.29 53.014 41.31 53.054 41.31 53.054 C 41.31 53.054 43.886 53.26 49.06 50.066 C 51.822 48.356 55.1 46.438 58.83 46.398 C 62.438 46.336 62.622 50.582 59.922 51.22 L 59.922 51.22 Z "
      fill="rgb(44,142,187)" />
  </g>
</svg>