<svg fill="none" height="31" viewBox="0 0 30 31" width="30" xmlns="http://www.w3.org/2000/svg"><path d="m15 30.4824c8.2843 0 15-6.7157 15-15 0-8.28425-6.7157-14.999978-15-14.999978-8.28427 0-15 6.715728-15 14.999978 0 8.2843 6.71573 15 15 15z" fill="#2a5bdb"/><g fill="#fff"><path d="m20.1936 7.95276-1.4858.52004.5345 1.6819-4.4265-2.28861-5.99695 3.29561v4.4451l2.40625-.8523-.0166-2.2143 3.6073-1.915 3.4463 1.6818-1.7211.6336.5448 1.5518 4.7526-1.6983z"/><path d="m9.42939 22.8978 1.48581-.5221-.5345-1.6819 4.4245 2.2886 5.9969-3.2936v-4.4451l-2.4041.8502.0165 2.2143-3.6093 1.9171-3.4463-1.6818 1.7211-.6356-.5448-1.5498-4.75053 1.6963z"/></g></svg>