<svg viewBox="0 0 320 320" xmlns="http://www.w3.org/2000/svg"><circle fill="#2d598a" cx="160" cy="160" r="160"/><path fill="white" d="M158.65 144.43L158.65 144.43Q185.11 144.43 197.80 155.23L197.80 155.23L197.80 155.23Q210.49 166.03 210.49 184.03L210.49 184.03L210.49 184.03Q210.49 195.73 204.46 205.54L204.46 205.54L204.46 205.54Q198.43 215.35 186.10 221.20L186.10 221.20L186.10 221.20Q173.77 227.05 155.59 227.05L155.59 227.05L155.59 227.05Q142.27 227.05 129.22 223.81L129.22 223.81L129.22 223.81Q116.17 220.57 106.81 214.63L106.81 214.63L119.59 187.81L119.59 187.81Q127.15 192.85 136.24 195.55L136.24 195.55L136.24 195.55Q145.33 198.25 154.51 198.25L154.51 198.25L154.51 198.25Q163.69 198.25 169.18 194.74L169.18 194.74L169.18 194.74Q174.67 191.23 174.67 184.93L174.67 184.93L174.67 184.93Q174.67 178.63 169.27 175.39L169.27 175.39L169.27 175.39Q163.87 172.15 150.19 172.15L150.19 172.15L115.99 172.15L122.29 98.53L202.57 98.53L202.57 126.07L151.81 126.07L150.19 144.43L158.65 144.43Z"/></svg>