<svg enable-background="new 0 0 3198.1 3210.2" viewBox="0 0 3198.1 3210.2" xmlns="http://www.w3.org/2000/svg"><path d="m1486.5 26.1c-284.2 20.4-548.7 109.8-776.8 261.6-104.2 69.6-159.1 114.9-248 204.4-79.9 79.8-125.7 134.7-185.7 222.5l-35.7 52.1 387.3 1.7c300.7 1.1 389 2.8 393.5 8.5 5.7 6.8 471.7 788.2 530 888.4 15.9 27.2 30.6 49.8 32.8 49.8 4 0 19.3-27.2 329.5-577.5l205.6-365.3 406-1.7 406-1.1-29.4-44.2c-238.4-355-622.3-605.3-1042.4-677.8-115-20.3-270.2-28.8-372.7-21.4z" fill="#461e59"/><path d="m40.4 1249.1c-1.7 5.7-7.9 36.8-14.2 69.6-36.2 193.1-34 415 5.7 607.5 49.8 241.9 163.1 481.4 319.9 677.8 89.5 111.5 230.4 239.5 361.8 326.7 309.2 206.1 705.5 297.3 1075.8 248 644.9-86.1 1172.1-553.8 1331.2-1181.1 31.7-125.7 43-211.8 45.9-359 2.3-109.8 1.1-144.4-9.1-221.4-6.2-49.8-15.9-110.4-20.9-134.2l-9.6-43.6h-360.1-360.1l-20.4 35.7c-11.3 19.3-80.4 139.3-153.4 267.3-73.6 127.4-231 401.4-349.9 608.7-118.9 207.2-234.4 407.7-256.5 446.2-21.5 38.5-41.3 70.8-43.6 71.9-1.7 1.1-187.4-319.9-412.8-714l-408.8-715.7h-359c-337 0-359.1.5-361.9 9.6z" fill="#673286"/></svg>