<svg xmlns="http://www.w3.org/2000/svg" xml:space="preserve" viewBox="0 0 240 234"><path fill="#FAAB18" fill-rule="evenodd" d="M0 0v234h240V0H0zm10 10h220v214H10V10z" clip-rule="evenodd"/><radialGradient id="a" cx="120" cy="117" r="108.51" gradientUnits="userSpaceOnUse"><stop offset="0" style="stop-color:#381b15"/><stop offset=".767" style="stop-color:#1e0500"/></radialGradient><path fill="url(#a)" fill-rule="evenodd" d="M10 10h220v214H10z" clip-rule="evenodd"/><path fill="#FAAB18" fill-rule="evenodd" d="M53 163.56c0 .96-.32 1.44-1.13 1.44H36.13c-.81 0-1.13-.32-1.13-1.29V59.13c0-.81.32-1.13 1.13-1.13h53.75c.97 0 1.13.32 1.29 1.13l1.62 13.58c.16.97-.33 1.29-1.29 1.29H53v30h35.22c.81 0 .78.16.78 1.13v13.74c0 .97-.32 1.13-1.13 1.13H53v43.56zm124.24-79.03c11.77 0 26.76 5.32 26.76 28.85v50.33c0 .97-.32 1.29-1.13 1.29h-14.74c-.81 0-1.13-.48-1.13-1.29v-49.2c0-9.51-3.55-14.67-13.38-14.67-4.83 0-8.69.97-12.07 2.26.97 2.9 1.45 6.93 1.45 11.12v50.49c0 .97-.32 1.29-1.13 1.29h-14.58c-.97 0-1.29-.48-1.29-1.29v-49.2c0-9.51-3.99-14.67-13.5-14.67-4.35 0-7.28.97-10.5 2.1v61.93c0 .65-.16 1.13-.97 1.13h-14.9c-.81 0-1.13-.32-1.13-1.13v-61.61c0-.97 0-4.35-.48-9.83 0-.81.35-.81 1-1.13 7.9-3.06 19.02-6.77 29.98-6.77 7.25 0 13.54 1.45 18.7 5.32 6.45-2.74 13.53-5.32 23.04-5.32z" clip-rule="evenodd"/></svg>