<svg xmlns="http://www.w3.org/2000/svg" width="512pt" height="512pt" style="isolation:isolate" viewBox="0 0 512 512"><defs><clipPath id="a"><path d="M0 0h512v512H0z"/></clipPath></defs><g clip-path="url(#a)"><mask id="b" width="400%" height="400%" x="-200%" y="-200%"><rect width="400%" height="400%" x="-200%" y="-200%" style="fill:#fff"/><path fill-rule="evenodd" d="M49.895 0v276.9L256 394.389v-79.863l-137.881-78.598V112.473L256 191.071v-73.582L49.895 0Z"/></mask><path fill="#002A41" fill-rule="evenodd" d="M49.895 0v276.9L256 394.389v-79.863l-137.881-78.598V112.473L256 191.071v-73.582L49.895 0Z"/><path fill="#002A41" fill-rule="evenodd" stroke="#848484" stroke-width=".358" d="M49.895 0v276.9L256 394.389v-79.863l-137.881-78.598V112.473L256 191.071v-73.582L49.895 0Z" mask="url(#b)" vector-effect="non-scaling-stroke"/><mask id="c" width="400%" height="400%" x="-200%" y="-200%"><rect width="400%" height="400%" x="-200%" y="-200%" style="fill:#fff"/><path fill-rule="evenodd" d="M462.105 0v276.9L256 394.389v-79.863l137.881-78.598V112.473L256 191.071v-73.582L462.105 0Z"/></mask><path fill="#0071B5" fill-rule="evenodd" d="M462.105 0v276.9L256 394.389v-79.863l137.881-78.598V112.473L256 191.071v-73.582L462.105 0Z"/><path fill="#0071B5" fill-rule="evenodd" stroke="#848484" stroke-width=".358" d="M462.105 0v276.9L256 394.389v-79.863l137.881-78.598V112.473L256 191.071v-73.582L462.105 0Z" mask="url(#c)" vector-effect="non-scaling-stroke"/><mask id="d" width="400%" height="400%" x="-200%" y="-200%"><rect width="400%" height="400%" x="-200%" y="-200%" style="fill:#fff"/><path fill-rule="evenodd" d="M49.895 512V235.1L256 117.611v79.863l-137.881 78.598v117.175L256 314.649v79.862L49.895 512Z"/></mask><path fill="#0071B5" fill-rule="evenodd" d="M49.895 512V235.1L256 117.611v79.863l-137.881 78.598v117.175L256 314.649v79.862L49.895 512Z"/><path fill="#0071B5" fill-rule="evenodd" stroke="#848484" stroke-width=".358" d="M49.895 512V235.1L256 117.611v79.863l-137.881 78.598v117.175L256 314.649v79.862L49.895 512Z" mask="url(#d)" vector-effect="non-scaling-stroke"/><mask id="e" width="400%" height="400%" x="-200%" y="-200%"><rect width="400%" height="400%" x="-200%" y="-200%" style="fill:#fff"/><path fill-rule="evenodd" d="M462.105 512V235.1L256 117.611v79.863l137.881 78.598v117.175L256 314.649v79.862L462.105 512Z"/></mask><path fill="#002A41" fill-rule="evenodd" d="M462.105 512V235.1L256 117.611v79.863l137.881 78.598v117.175L256 314.649v79.862L462.105 512Z"/><path fill="#002A41" fill-rule="evenodd" stroke="#848484" stroke-width=".358" d="M462.105 512V235.1L256 117.611v79.863l137.881 78.598v117.175L256 314.649v79.862L462.105 512Z" mask="url(#e)" vector-effect="non-scaling-stroke"/></g></svg>